<?xml version="1.0" encoding="utf-8"?>
<!-- Generator: Adobe Illustrator 17.0.0, SVG Export Plug-In . SVG Version: 6.00 Build 0)  -->
<!DOCTYPE svg PUBLIC "-//W3C//DTD SVG 1.1//EN" "http://www.w3.org/Graphics/SVG/1.1/DTD/svg11.dtd" [
	<!ENTITY ns_extend "http://ns.adobe.com/Extensibility/1.0/">
	<!ENTITY ns_ai "http://ns.adobe.com/AdobeIllustrator/10.0/">
	<!ENTITY ns_graphs "http://ns.adobe.com/Graphs/1.0/">
	<!ENTITY ns_vars "http://ns.adobe.com/Variables/1.0/">
	<!ENTITY ns_imrep "http://ns.adobe.com/ImageReplacement/1.0/">
	<!ENTITY ns_sfw "http://ns.adobe.com/SaveForWeb/1.0/">
	<!ENTITY ns_custom "http://ns.adobe.com/GenericCustomNamespace/1.0/">
	<!ENTITY ns_adobe_xpath "http://ns.adobe.com/XPath/1.0/">
]>
<svg version="1.1" id="Capa_1" xmlns:x="&ns_extend;" xmlns:i="&ns_ai;" xmlns:graph="&ns_graphs;"
	 xmlns="http://www.w3.org/2000/svg" xmlns:xlink="http://www.w3.org/1999/xlink" x="0px" y="0px" width="161.908px"
	 height="112.765px" viewBox="0 0 161.908 112.765" enable-background="new 0 0 161.908 112.765" xml:space="preserve">
<metadata>
	<sfw  xmlns="&ns_sfw;">
		<slices></slices>
		<sliceSourceBounds  width="125.807" height="108.487" y="628.396" x="404.598" bottomLeftOrigin="true"></sliceSourceBounds>
	</sfw>
</metadata>
<g>
	<g>
		<path fill="#144B8B" d="M79.125,19.521c-2.654,0-5.119,1.186-6.768,3.26c-2.961,3.727-2.341,9.174,1.39,12.129
			c1.541,1.229,3.398,1.878,5.364,1.878c2.655,0,5.118-1.188,6.766-3.263c2.96-3.727,2.341-9.171-1.386-12.129
			C82.949,20.168,81.092,19.521,79.125,19.521"/>
		
			<radialGradient id="SVGID_1_" cx="-82.5893" cy="369.2966" r="28.1503" gradientTransform="matrix(1 0 0 -1 161.715 397.4501)" gradientUnits="userSpaceOnUse">
			<stop  offset="0" style="stop-color:#8CBB69"/>
			<stop  offset="0.7837" style="stop-color:#6BAD44"/>
		</radialGradient>
		<path fill="url(#SVGID_1_)" d="M79.112,56.307c-6.329,0-12.549-2.172-17.504-6.112c-12.154-9.655-14.187-27.398-4.534-39.552
			C62.451,3.879,70.486,0,79.125,0c6.33,0,12.545,2.173,17.504,6.113c5.888,4.678,9.601,11.365,10.456,18.838
			c0.409,3.559,0.148,7.089-0.766,10.506c-0.569,2.127-1.397,4.193-2.455,6.133c-0.491,0.894-1.611,1.225-2.508,0.736
			c-0.899-0.487-1.226-1.609-0.74-2.506c0.918-1.686,1.64-3.474,2.134-5.32c0.797-2.967,1.019-6.035,0.665-9.128
			c-0.741-6.489-3.97-12.306-9.084-16.366c-4.313-3.424-9.71-5.308-15.206-5.308c-7.509,0-14.491,3.368-19.157,9.241
			c-8.389,10.557-6.623,25.973,3.937,34.36c4.311,3.428,9.712,5.309,15.207,5.309c1.021,0,1.845,0.829,1.845,1.85
			S80.132,56.307,79.112,56.307"/>
		
			<radialGradient id="SVGID_2_" cx="-82.59" cy="369.2961" r="19.8358" gradientTransform="matrix(1 0 0 -1 161.715 397.4501)" gradientUnits="userSpaceOnUse">
			<stop  offset="0" style="stop-color:#8CBB69"/>
			<stop  offset="0.7837" style="stop-color:#6BAD44"/>
		</radialGradient>
		<path fill="url(#SVGID_2_)" d="M79.112,47.992c-4.46,0-8.837-1.529-12.334-4.307c-8.562-6.804-9.993-19.311-3.189-27.872
			c3.783-4.764,9.445-7.497,15.536-7.497c4.457,0,8.843,1.529,12.332,4.303c4.147,3.298,6.77,8.012,7.371,13.279
			c0.299,2.631,0.084,5.243-0.641,7.758c-0.286,0.979-1.309,1.543-2.288,1.262c-0.984-0.284-1.544-1.308-1.263-2.283
			c0.588-2.049,0.761-4.172,0.519-6.319c-0.492-4.283-2.619-8.116-5.994-10.802c-2.845-2.26-6.407-3.502-10.036-3.502
			c-4.955,0-9.567,2.223-12.646,6.101c-5.535,6.968-4.37,17.14,2.598,22.679c2.843,2.263,6.405,3.505,10.035,3.505
			c1.021,0,1.845,0.827,1.845,1.848C80.957,47.161,80.132,47.992,79.112,47.992"/>
		<path fill="none" stroke="#FFFFFF" stroke-width="0.115" stroke-miterlimit="10" d="M88.793,28.153
			c0,5.343-4.335,9.674-9.675,9.674c-5.343,0-9.675-4.331-9.675-9.674c0-5.342,4.332-9.675,9.675-9.675
			C84.458,18.479,88.793,22.812,88.793,28.153z"/>
		
			<radialGradient id="SVGID_3_" cx="-82.5973" cy="369.2981" r="11.5203" gradientTransform="matrix(1 0 0 -1 161.715 397.4501)" gradientUnits="userSpaceOnUse">
			<stop  offset="0" style="stop-color:#8CBB69"/>
			<stop  offset="0.7837" style="stop-color:#6BAD44"/>
		</radialGradient>
		<path fill="url(#SVGID_3_)" d="M79.112,39.675c-2.588,0-5.131-0.886-7.163-2.501c-4.974-3.949-5.805-11.213-1.852-16.19
			c2.198-2.767,5.49-4.355,9.028-4.355c2.591,0,5.131,0.89,7.159,2.503c4.979,3.953,5.806,11.215,1.854,16.19
			C85.942,38.089,82.65,39.675,79.112,39.675 M79.125,20.325c-2.409,0-4.642,1.077-6.137,2.957c-2.684,3.38-2.12,8.315,1.262,10.998
			c1.397,1.108,3.08,1.701,4.861,1.701c2.404,0,4.64-1.077,6.136-2.958c2.682-3.379,2.119-8.311-1.258-10.999
			C82.588,20.914,80.909,20.325,79.125,20.325"/>
		<g>
			<path fill="#FFFFFF" d="M91.201,61.842c2.62,0,4.745-2.127,4.745-4.749V44.954c0-3.541-2.869-6.406-6.406-6.406l-6.489-0.014
				v-9.493c0-2.002-1.558-3.707-3.564-3.78c-2.096-0.075-3.827,1.607-3.827,3.694v16.582l-0.968-2.02
				c-0.527-1.102-1.525-1.727-2.551-1.727c-0.478,0-0.955,0.133-1.397,0.407c-1.409,0.884-1.929,2.903-1.153,4.514
				c0,0,3.198,7.485,5.484,12.387c0.772,1.674,2.45,2.743,4.298,2.743h11.828V61.842z"/>
			<path fill="none" stroke="#000000" stroke-width="1.714" stroke-miterlimit="10" d="M91.201,61.842
				c2.62,0,4.745-2.127,4.745-4.749V44.954c0-3.541-2.869-6.406-6.406-6.406l-6.489-0.014v-9.493c0-2.002-1.558-3.707-3.564-3.78
				c-2.096-0.075-3.827,1.607-3.827,3.694v16.582l-0.968-2.02c-0.527-1.102-1.525-1.727-2.551-1.727
				c-0.478,0-0.955,0.133-1.397,0.407c-1.409,0.884-1.929,2.903-1.153,4.514c0,0,3.198,7.485,5.484,12.387
				c0.772,1.674,2.45,2.743,4.298,2.743h11.828V61.842z"/>
		</g>
	</g>
	<g>
		<path d="M25.596,85.358l1.328,0.336c-0.278,1.091-0.779,1.923-1.503,2.495c-0.724,0.573-1.608,0.859-2.653,0.859
			c-1.082,0-1.961-0.221-2.639-0.661c-0.678-0.441-1.193-1.078-1.547-1.913c-0.354-0.835-0.531-1.732-0.531-2.69
			c0-1.045,0.2-1.957,0.599-2.735c0.399-0.778,0.967-1.369,1.704-1.772c0.737-0.405,1.548-0.606,2.434-0.606
			c1.004,0,1.849,0.256,2.533,0.767c0.685,0.51,1.161,1.229,1.43,2.155l-1.307,0.308c-0.232-0.73-0.57-1.262-1.013-1.595
			c-0.443-0.333-0.999-0.5-1.67-0.5c-0.772,0-1.416,0.184-1.934,0.554c-0.517,0.371-0.882,0.866-1.092,1.49
			s-0.315,1.265-0.315,1.926c0,0.854,0.124,1.599,0.373,2.235c0.249,0.636,0.636,1.113,1.16,1.427
			c0.525,0.314,1.093,0.472,1.705,0.472c0.744,0,1.374-0.214,1.889-0.643C25.063,86.839,25.413,86.203,25.596,85.358z"/>
		<path d="M27.969,88.876V78.841h1.232v10.035H27.969z"/>
		<path d="M30.711,80.258v-1.417h1.232v1.417H30.711z M30.711,88.876v-7.27h1.232v7.27H30.711z"/>
		<path d="M38.157,86.214l1.211,0.157c-0.132,0.835-0.471,1.489-1.016,1.961c-0.545,0.472-1.214,0.709-2.009,0.709
			c-0.995,0-1.795-0.326-2.399-0.976c-0.605-0.65-0.907-1.582-0.907-2.796c0-0.786,0.13-1.472,0.39-2.061
			c0.26-0.588,0.656-1.03,1.187-1.324c0.531-0.294,1.11-0.441,1.735-0.441c0.789,0,1.435,0.2,1.937,0.599
			c0.502,0.4,0.824,0.967,0.965,1.701l-1.198,0.185c-0.113-0.489-0.315-0.856-0.605-1.103c-0.29-0.246-0.64-0.37-1.051-0.37
			c-0.621,0-1.124,0.222-1.513,0.667c-0.388,0.444-0.581,1.149-0.581,2.112c0,0.977,0.186,1.686,0.561,2.128
			c0.374,0.443,0.862,0.664,1.465,0.664c0.483,0,0.888-0.148,1.212-0.444C37.865,87.285,38.07,86.83,38.157,86.214z"/>
		<path d="M43.011,86.706l1.218-0.191c0.068,0.488,0.259,0.862,0.571,1.122c0.312,0.26,0.75,0.39,1.312,0.39
			c0.566,0,0.986-0.114,1.26-0.345c0.274-0.231,0.41-0.501,0.41-0.811c0-0.278-0.12-0.498-0.363-0.657
			c-0.169-0.11-0.589-0.249-1.26-0.418c-0.904-0.228-1.53-0.425-1.879-0.592c-0.349-0.166-0.614-0.397-0.794-0.692
			c-0.179-0.294-0.27-0.62-0.27-0.976c0-0.324,0.075-0.624,0.222-0.9c0.148-0.276,0.35-0.505,0.606-0.688
			c0.191-0.141,0.452-0.261,0.784-0.359c0.331-0.098,0.685-0.147,1.064-0.147c0.57,0,1.072,0.082,1.504,0.246
			c0.431,0.164,0.749,0.386,0.955,0.667c0.206,0.281,0.347,0.657,0.424,1.126l-1.204,0.165c-0.055-0.374-0.214-0.666-0.476-0.876
			c-0.263-0.211-0.633-0.315-1.113-0.315c-0.566,0-0.97,0.093-1.212,0.281c-0.242,0.187-0.363,0.406-0.363,0.657
			c0,0.159,0.05,0.304,0.15,0.431c0.1,0.133,0.258,0.242,0.472,0.329c0.123,0.046,0.486,0.151,1.088,0.315
			c0.872,0.233,1.479,0.423,1.824,0.572c0.344,0.148,0.615,0.364,0.811,0.646c0.197,0.283,0.294,0.634,0.294,1.054
			c0,0.411-0.12,0.797-0.359,1.16c-0.24,0.364-0.586,0.643-1.037,0.842c-0.452,0.199-0.963,0.298-1.534,0.298
			c-0.945,0-1.665-0.197-2.159-0.589C43.464,88.06,43.148,87.479,43.011,86.706z"/>
		<path d="M49.648,85.242c0-1.346,0.375-2.344,1.123-2.992c0.625-0.538,1.387-0.807,2.286-0.807c0.999,0,1.817,0.327,2.451,0.982
			s0.952,1.56,0.952,2.714c0,0.936-0.141,1.671-0.421,2.208c-0.281,0.535-0.689,0.953-1.225,1.249
			c-0.536,0.296-1.121,0.445-1.756,0.445c-1.018,0-1.84-0.326-2.468-0.98C49.962,87.409,49.648,86.47,49.648,85.242z M50.915,85.242
			c0,0.931,0.204,1.628,0.609,2.091c0.406,0.463,0.918,0.695,1.534,0.695c0.612,0,1.12-0.232,1.527-0.698
			c0.406-0.465,0.609-1.175,0.609-2.128c0-0.899-0.204-1.58-0.613-2.044c-0.408-0.464-0.916-0.695-1.523-0.695
			c-0.616,0-1.127,0.231-1.534,0.692C51.118,83.615,50.915,84.311,50.915,85.242z"/>
		<path d="M58.634,88.876h-1.143V78.841h1.232v3.58c0.52-0.653,1.183-0.979,1.991-0.979c0.447,0,0.87,0.09,1.27,0.27
			c0.4,0.18,0.729,0.434,0.986,0.761c0.258,0.326,0.46,0.72,0.606,1.181c0.146,0.461,0.219,0.954,0.219,1.478
			c0,1.246-0.308,2.209-0.924,2.889c-0.616,0.681-1.356,1.02-2.218,1.02c-0.858,0-1.532-0.359-2.02-1.075V88.876z M58.62,85.186
			c0,0.872,0.119,1.502,0.356,1.89c0.389,0.634,0.913,0.952,1.574,0.952c0.538,0,1.004-0.234,1.397-0.701
			c0.392-0.469,0.589-1.165,0.589-2.091c0-0.95-0.188-1.65-0.566-2.102c-0.376-0.451-0.831-0.678-1.365-0.678
			c-0.538,0-1.005,0.234-1.397,0.702C58.816,83.625,58.62,84.302,58.62,85.186z"/>
		<path d="M64.875,88.876v-7.27h1.109v1.103c0.283-0.516,0.544-0.856,0.784-1.02c0.24-0.165,0.503-0.246,0.791-0.246
			c0.415,0,0.838,0.132,1.267,0.397l-0.424,1.144c-0.301-0.178-0.602-0.267-0.904-0.267c-0.27,0-0.511,0.081-0.726,0.243
			s-0.368,0.387-0.459,0.674c-0.137,0.437-0.205,0.918-0.205,1.437v3.806L64.875,88.876L64.875,88.876z"/>
		<path d="M74.127,86.536l1.274,0.157c-0.2,0.744-0.572,1.321-1.116,1.732c-0.543,0.41-1.237,0.616-2.082,0.616
			c-1.063,0-1.906-0.328-2.529-0.983c-0.623-0.655-0.934-1.573-0.934-2.755c0-1.223,0.315-2.173,0.945-2.848s1.446-1.013,2.45-1.013
			c0.972,0,1.766,0.331,2.382,0.992s0.924,1.593,0.924,2.793c0,0.073-0.003,0.182-0.008,0.329h-5.421
			c0.046,0.798,0.271,1.41,0.678,1.834c0.406,0.425,0.912,0.636,1.519,0.636c0.452,0,0.838-0.118,1.157-0.356
			C73.687,87.435,73.94,87.056,74.127,86.536z M70.081,84.543h4.059c-0.054-0.611-0.21-1.07-0.465-1.376
			c-0.392-0.474-0.901-0.712-1.527-0.712c-0.566,0-1.042,0.19-1.427,0.568C70.336,83.402,70.123,83.91,70.081,84.543z"/>
		<path d="M84.772,86.214l1.211,0.157c-0.132,0.835-0.471,1.489-1.016,1.961c-0.545,0.472-1.214,0.709-2.009,0.709
			c-0.995,0-1.795-0.326-2.399-0.976c-0.605-0.65-0.907-1.582-0.907-2.796c0-0.786,0.13-1.472,0.39-2.061s0.656-1.03,1.187-1.324
			s1.11-0.441,1.735-0.441c0.789,0,1.435,0.2,1.937,0.599c0.502,0.4,0.824,0.967,0.965,1.701l-1.198,0.185
			c-0.113-0.489-0.315-0.856-0.605-1.103c-0.29-0.246-0.64-0.37-1.051-0.37c-0.621,0-1.124,0.222-1.513,0.667
			c-0.388,0.444-0.581,1.149-0.581,2.112c0,0.977,0.186,1.686,0.561,2.128c0.374,0.443,0.862,0.664,1.465,0.664
			c0.483,0,0.888-0.148,1.212-0.444C84.48,87.285,84.685,86.83,84.772,86.214z"/>
		<path d="M91.376,87.98c-0.457,0.388-0.896,0.662-1.318,0.822c-0.422,0.159-0.875,0.24-1.359,0.24
			c-0.798,0-1.412-0.196-1.841-0.586c-0.43-0.39-0.643-0.889-0.643-1.496c0-0.356,0.081-0.681,0.243-0.976
			c0.162-0.294,0.374-0.531,0.636-0.708c0.263-0.178,0.558-0.312,0.887-0.404c0.242-0.064,0.607-0.126,1.096-0.185
			c0.995-0.118,1.727-0.26,2.197-0.424c0.005-0.169,0.007-0.276,0.007-0.322c0-0.502-0.116-0.856-0.349-1.061
			c-0.315-0.277-0.782-0.417-1.403-0.417c-0.58,0-1.008,0.102-1.284,0.305c-0.276,0.204-0.48,0.563-0.612,1.078l-1.205-0.164
			c0.11-0.516,0.29-0.932,0.541-1.249s0.614-0.561,1.088-0.732c0.475-0.171,1.024-0.256,1.65-0.256c0.621,0,1.125,0.073,1.513,0.218
			c0.388,0.146,0.673,0.33,0.856,0.552c0.182,0.221,0.31,0.501,0.383,0.838c0.041,0.211,0.061,0.589,0.061,1.136v1.643
			c0,1.146,0.026,1.87,0.079,2.174c0.053,0.304,0.156,0.594,0.311,0.873h-1.287C91.494,88.621,91.412,88.322,91.376,87.98z
			 M91.272,85.228c-0.447,0.182-1.117,0.338-2.012,0.465c-0.506,0.073-0.865,0.155-1.075,0.246
			c-0.211,0.091-0.372,0.225-0.486,0.401c-0.113,0.176-0.171,0.371-0.171,0.585c0,0.329,0.124,0.602,0.372,0.821
			c0.249,0.219,0.613,0.329,1.092,0.329c0.475,0,0.897-0.104,1.267-0.312c0.37-0.207,0.641-0.492,0.815-0.852
			c0.132-0.278,0.198-0.689,0.198-1.232L91.272,85.228L91.272,85.228z"/>
		<path d="M98.739,88.876v-0.918c-0.462,0.721-1.139,1.082-2.033,1.082c-0.58,0-1.113-0.16-1.598-0.479
			c-0.486-0.319-0.862-0.765-1.13-1.339c-0.267-0.572-0.401-1.231-0.401-1.974c0-0.727,0.121-1.384,0.364-1.975
			c0.242-0.591,0.604-1.044,1.088-1.359c0.483-0.315,1.024-0.472,1.622-0.472c0.437,0,0.828,0.092,1.171,0.277
			c0.342,0.185,0.621,0.426,0.835,0.723v-3.601h1.225v10.035H98.739z M94.843,85.248c0,0.931,0.197,1.627,0.589,2.088
			c0.392,0.462,0.856,0.692,1.39,0.692c0.538,0,0.995-0.22,1.372-0.66c0.377-0.441,0.566-1.113,0.566-2.016
			c0-0.995-0.192-1.725-0.575-2.19c-0.383-0.465-0.856-0.698-1.417-0.698c-0.547,0-1.005,0.224-1.372,0.671
			C95.027,83.581,94.843,84.286,94.843,85.248z"/>
		<path d="M106.157,87.98c-0.457,0.388-0.896,0.662-1.318,0.822c-0.422,0.159-0.875,0.24-1.359,0.24
			c-0.798,0-1.412-0.196-1.841-0.586c-0.43-0.39-0.643-0.889-0.643-1.496c0-0.356,0.081-0.681,0.243-0.976
			c0.162-0.294,0.374-0.531,0.636-0.708c0.263-0.178,0.558-0.312,0.887-0.404c0.242-0.064,0.607-0.126,1.096-0.185
			c0.995-0.118,1.727-0.26,2.197-0.424c0.005-0.169,0.007-0.276,0.007-0.322c0-0.502-0.116-0.856-0.349-1.061
			c-0.315-0.277-0.782-0.417-1.403-0.417c-0.58,0-1.008,0.102-1.284,0.305c-0.276,0.204-0.48,0.563-0.612,1.078l-1.205-0.164
			c0.11-0.516,0.29-0.932,0.541-1.249c0.251-0.317,0.614-0.561,1.088-0.732c0.475-0.171,1.024-0.256,1.65-0.256
			c0.621,0,1.125,0.073,1.513,0.218c0.388,0.146,0.673,0.33,0.856,0.552c0.182,0.221,0.31,0.501,0.383,0.838
			c0.041,0.211,0.061,0.589,0.061,1.136v1.643c0,1.146,0.026,1.87,0.079,2.174c0.053,0.304,0.156,0.594,0.311,0.873h-1.287
			C106.275,88.621,106.193,88.322,106.157,87.98z M106.053,85.228c-0.447,0.182-1.117,0.338-2.012,0.465
			c-0.506,0.073-0.865,0.155-1.075,0.246c-0.211,0.091-0.372,0.225-0.486,0.401c-0.113,0.176-0.171,0.371-0.171,0.585
			c0,0.329,0.124,0.602,0.372,0.821c0.249,0.219,0.613,0.329,1.092,0.329c0.475,0,0.897-0.104,1.267-0.312
			c0.37-0.207,0.641-0.492,0.815-0.852c0.132-0.278,0.198-0.689,0.198-1.232L106.053,85.228L106.053,85.228z"/>
		<path d="M113.427,88.876h-1.143V78.841h1.232v3.58c0.52-0.653,1.183-0.979,1.991-0.979c0.447,0,0.87,0.09,1.27,0.27
			c0.4,0.18,0.729,0.434,0.986,0.761c0.258,0.326,0.46,0.72,0.606,1.181c0.146,0.461,0.219,0.954,0.219,1.478
			c0,1.246-0.308,2.209-0.924,2.889c-0.616,0.681-1.356,1.02-2.218,1.02c-0.858,0-1.532-0.359-2.02-1.075V88.876z M113.413,85.186
			c0,0.872,0.119,1.502,0.356,1.89c0.389,0.634,0.913,0.952,1.574,0.952c0.538,0,1.004-0.234,1.397-0.701
			c0.392-0.469,0.589-1.165,0.589-2.091c0-0.95-0.188-1.65-0.566-2.102c-0.376-0.451-0.831-0.678-1.365-0.678
			c-0.538,0-1.005,0.234-1.397,0.702C113.609,83.625,113.413,84.302,113.413,85.186z"/>
		<path d="M119.222,85.242c0-1.346,0.375-2.344,1.123-2.992c0.625-0.538,1.387-0.807,2.286-0.807c0.999,0,1.817,0.327,2.451,0.982
			c0.634,0.655,0.952,1.56,0.952,2.714c0,0.936-0.141,1.671-0.421,2.208c-0.281,0.535-0.689,0.953-1.225,1.249
			c-0.536,0.296-1.121,0.445-1.756,0.445c-1.018,0-1.84-0.326-2.468-0.98C119.535,87.409,119.222,86.47,119.222,85.242z
			 M120.488,85.242c0,0.931,0.204,1.628,0.609,2.091c0.406,0.463,0.918,0.695,1.534,0.695c0.612,0,1.12-0.232,1.527-0.698
			c0.406-0.465,0.609-1.175,0.609-2.128c0-0.899-0.204-1.58-0.613-2.044c-0.408-0.464-0.916-0.695-1.523-0.695
			c-0.616,0-1.127,0.231-1.534,0.692C120.692,83.615,120.488,84.311,120.488,85.242z"/>
		<path d="M129.762,87.775l0.178,1.088c-0.347,0.073-0.657,0.11-0.931,0.11c-0.448,0-0.794-0.071-1.04-0.211
			c-0.246-0.142-0.42-0.328-0.521-0.559c-0.1-0.23-0.15-0.715-0.15-1.455v-4.183h-0.904v-0.958h0.904v-1.8l1.225-0.74v2.54h1.239
			v0.958h-1.239v4.252c0,0.351,0.022,0.577,0.065,0.678c0.044,0.1,0.113,0.179,0.212,0.239c0.098,0.06,0.239,0.089,0.421,0.089
			C129.358,87.823,129.538,87.806,129.762,87.775z"/>
		<path d="M130.101,85.242c0-1.346,0.375-2.344,1.123-2.992c0.625-0.538,1.387-0.807,2.286-0.807c0.999,0,1.817,0.327,2.451,0.982
			c0.634,0.655,0.952,1.56,0.952,2.714c0,0.936-0.141,1.671-0.421,2.208c-0.28,0.535-0.689,0.953-1.225,1.249
			c-0.536,0.296-1.121,0.445-1.756,0.445c-1.018,0-1.84-0.326-2.468-0.98C130.414,87.409,130.101,86.47,130.101,85.242z
			 M131.367,85.242c0,0.931,0.204,1.628,0.609,2.091c0.406,0.463,0.918,0.695,1.534,0.695c0.612,0,1.12-0.232,1.527-0.698
			c0.406-0.465,0.609-1.175,0.609-2.128c0-0.899-0.204-1.58-0.613-2.044c-0.408-0.464-0.916-0.695-1.523-0.695
			c-0.616,0-1.127,0.231-1.534,0.692C131.571,83.615,131.367,84.311,131.367,85.242z M132.826,80.704l0.911-1.917h1.615
			l-1.506,1.917H132.826z"/>
		<path d="M137.95,88.876v-7.27h1.109v1.034c0.535-0.799,1.305-1.198,2.315-1.198c0.437,0,0.841,0.079,1.208,0.236
			c0.368,0.158,0.642,0.364,0.825,0.619c0.182,0.256,0.31,0.559,0.383,0.911c0.046,0.228,0.068,0.628,0.068,1.198v4.47h-1.232
			v-4.422c0-0.502-0.048-0.877-0.144-1.126c-0.096-0.249-0.266-0.447-0.51-0.596c-0.244-0.148-0.531-0.222-0.859-0.222
			c-0.525,0-0.978,0.167-1.359,0.5c-0.381,0.333-0.571,0.965-0.571,1.896v3.97L137.95,88.876L137.95,88.876z"/>
		<path d="M18.475,108.487V98.43h1.122v0.945c0.265-0.37,0.564-0.646,0.897-0.831c0.333-0.184,0.737-0.277,1.212-0.277
			c0.621,0,1.169,0.159,1.643,0.479c0.475,0.319,0.833,0.77,1.075,1.352c0.242,0.582,0.364,1.219,0.364,1.913
			c0,0.744-0.134,1.413-0.401,2.009s-0.655,1.052-1.164,1.37c-0.508,0.316-1.044,0.476-1.605,0.476c-0.411,0-0.779-0.087-1.106-0.26
			c-0.326-0.174-0.595-0.392-0.804-0.657v3.539C19.707,108.487,18.475,108.487,18.475,108.487z M19.59,102.107
			c0,0.936,0.19,1.627,0.568,2.074c0.378,0.448,0.838,0.671,1.376,0.671c0.548,0,1.017-0.232,1.407-0.695
			c0.391-0.464,0.586-1.181,0.586-2.153c0-0.925-0.191-1.619-0.572-2.081c-0.381-0.461-0.836-0.692-1.365-0.692
			c-0.525,0-0.989,0.245-1.393,0.736C19.792,100.458,19.59,101.171,19.59,102.107z"/>
		<path d="M30.609,104.803c-0.457,0.388-0.896,0.662-1.318,0.822c-0.422,0.159-0.875,0.24-1.359,0.24
			c-0.798,0-1.412-0.196-1.841-0.586c-0.43-0.39-0.643-0.889-0.643-1.496c0-0.356,0.081-0.681,0.243-0.976
			c0.162-0.294,0.374-0.531,0.636-0.708c0.263-0.178,0.558-0.312,0.887-0.404c0.242-0.064,0.607-0.126,1.096-0.185
			c0.995-0.118,1.727-0.26,2.197-0.424c0.005-0.169,0.007-0.276,0.007-0.322c0-0.502-0.116-0.856-0.349-1.061
			c-0.315-0.277-0.782-0.417-1.403-0.417c-0.58,0-1.008,0.102-1.284,0.305c-0.276,0.204-0.48,0.563-0.612,1.078l-1.205-0.164
			c0.11-0.516,0.29-0.932,0.541-1.249c0.251-0.317,0.614-0.561,1.088-0.732c0.475-0.171,1.024-0.256,1.65-0.256
			c0.621,0,1.125,0.073,1.513,0.218c0.388,0.146,0.673,0.33,0.856,0.552c0.182,0.221,0.31,0.501,0.383,0.838
			c0.041,0.211,0.061,0.589,0.061,1.136v1.643c0,1.146,0.026,1.87,0.079,2.174c0.053,0.304,0.156,0.594,0.311,0.873h-1.287
			C30.727,105.445,30.645,105.146,30.609,104.803z M30.506,102.051c-0.447,0.182-1.117,0.338-2.012,0.465
			c-0.506,0.073-0.865,0.155-1.075,0.246c-0.211,0.091-0.372,0.225-0.486,0.401c-0.113,0.176-0.171,0.371-0.171,0.585
			c0,0.329,0.124,0.602,0.372,0.821c0.249,0.219,0.613,0.329,1.092,0.329c0.475,0,0.897-0.104,1.267-0.312
			c0.37-0.207,0.641-0.492,0.815-0.852c0.132-0.278,0.198-0.689,0.198-1.232L30.506,102.051L30.506,102.051z"/>
		<path d="M33.241,105.7v-7.27h1.109v1.103c0.283-0.516,0.544-0.856,0.784-1.02c0.24-0.165,0.503-0.246,0.791-0.246
			c0.415,0,0.838,0.132,1.267,0.397l-0.424,1.144c-0.301-0.178-0.602-0.267-0.904-0.267c-0.27,0-0.511,0.081-0.726,0.243
			c-0.214,0.162-0.368,0.387-0.459,0.674c-0.137,0.437-0.205,0.918-0.205,1.437v3.806L33.241,105.7L33.241,105.7z"/>
		<path d="M42.262,104.803c-0.457,0.388-0.896,0.662-1.318,0.822c-0.422,0.159-0.875,0.24-1.359,0.24
			c-0.798,0-1.412-0.196-1.841-0.586c-0.43-0.39-0.643-0.889-0.643-1.496c0-0.356,0.081-0.681,0.243-0.976
			c0.162-0.294,0.374-0.531,0.636-0.708c0.263-0.178,0.558-0.312,0.887-0.404c0.242-0.064,0.607-0.126,1.096-0.185
			c0.995-0.118,1.727-0.26,2.197-0.424c0.005-0.169,0.007-0.276,0.007-0.322c0-0.502-0.116-0.856-0.349-1.061
			c-0.315-0.277-0.782-0.417-1.403-0.417c-0.58,0-1.008,0.102-1.284,0.305c-0.276,0.204-0.48,0.563-0.612,1.078l-1.205-0.164
			c0.11-0.516,0.29-0.932,0.541-1.249c0.251-0.317,0.614-0.561,1.088-0.732c0.475-0.171,1.024-0.256,1.65-0.256
			c0.621,0,1.125,0.073,1.513,0.218c0.388,0.146,0.673,0.33,0.856,0.552c0.182,0.221,0.31,0.501,0.383,0.838
			c0.041,0.211,0.061,0.589,0.061,1.136v1.643c0,1.146,0.026,1.87,0.079,2.174s0.156,0.594,0.311,0.873h-1.287
			C42.381,105.445,42.298,105.146,42.262,104.803z M42.159,102.051c-0.447,0.182-1.117,0.338-2.012,0.465
			c-0.506,0.073-0.865,0.155-1.075,0.246c-0.211,0.091-0.372,0.225-0.486,0.401c-0.113,0.176-0.171,0.371-0.171,0.585
			c0,0.329,0.124,0.602,0.372,0.821s0.613,0.329,1.092,0.329c0.475,0,0.897-0.104,1.267-0.312c0.37-0.207,0.641-0.492,0.815-0.852
			c0.132-0.278,0.198-0.689,0.198-1.232L42.159,102.051L42.159,102.051z"/>
		<path d="M48.396,105.7v-7.27h1.102v1.02c0.228-0.357,0.532-0.643,0.911-0.859c0.378-0.216,0.81-0.325,1.294-0.325
			c0.538,0,0.981,0.112,1.325,0.336c0.344,0.224,0.587,0.536,0.729,0.938c0.574-0.849,1.323-1.274,2.246-1.274
			c0.721,0,1.276,0.2,1.664,0.599c0.388,0.4,0.582,1.015,0.582,1.845v4.991h-1.225v-4.58c0-0.493-0.04-0.848-0.12-1.065
			c-0.079-0.217-0.225-0.392-0.435-0.524c-0.211-0.133-0.456-0.199-0.739-0.199c-0.511,0-0.936,0.17-1.274,0.51
			c-0.338,0.34-0.507,0.885-0.507,1.633v4.224h-1.232v-4.724c0-0.547-0.1-0.958-0.301-1.232c-0.2-0.274-0.529-0.41-0.986-0.41
			c-0.347,0-0.667,0.092-0.961,0.274c-0.294,0.183-0.507,0.449-0.64,0.8c-0.132,0.352-0.198,0.858-0.198,1.52v3.772H48.396z"/>
		<path d="M64.412,104.803c-0.457,0.388-0.896,0.662-1.318,0.822c-0.422,0.159-0.875,0.24-1.359,0.24
			c-0.798,0-1.412-0.196-1.841-0.586c-0.43-0.39-0.643-0.889-0.643-1.496c0-0.356,0.081-0.681,0.243-0.976
			c0.162-0.294,0.374-0.531,0.636-0.708c0.263-0.178,0.558-0.312,0.887-0.404c0.242-0.064,0.607-0.126,1.096-0.185
			c0.995-0.118,1.727-0.26,2.197-0.424c0.005-0.169,0.007-0.276,0.007-0.322c0-0.502-0.116-0.856-0.349-1.061
			c-0.315-0.277-0.782-0.417-1.403-0.417c-0.58,0-1.008,0.102-1.284,0.305c-0.276,0.204-0.48,0.563-0.612,1.078l-1.205-0.164
			c0.11-0.516,0.29-0.932,0.541-1.249c0.251-0.317,0.614-0.561,1.088-0.732c0.475-0.171,1.024-0.256,1.65-0.256
			c0.621,0,1.125,0.073,1.513,0.218c0.388,0.146,0.673,0.33,0.856,0.552c0.182,0.221,0.31,0.501,0.383,0.838
			c0.041,0.211,0.061,0.589,0.061,1.136v1.643c0,1.146,0.026,1.87,0.079,2.174c0.053,0.304,0.156,0.594,0.311,0.873h-1.288
			C64.53,105.445,64.448,105.146,64.412,104.803z M64.308,102.051c-0.447,0.182-1.117,0.338-2.012,0.465
			c-0.506,0.073-0.865,0.155-1.075,0.246c-0.211,0.091-0.372,0.225-0.486,0.401c-0.113,0.176-0.171,0.371-0.171,0.585
			c0,0.329,0.124,0.602,0.372,0.821s0.613,0.329,1.092,0.329c0.475,0,0.897-0.104,1.267-0.312c0.37-0.207,0.641-0.492,0.815-0.852
			c0.132-0.278,0.198-0.689,0.198-1.232L64.308,102.051L64.308,102.051z M61.913,97.527l0.911-1.917h1.615l-1.506,1.917H61.913z"/>
		<path d="M66.565,103.53l1.218-0.191c0.068,0.488,0.259,0.862,0.571,1.122s0.75,0.39,1.312,0.39c0.566,0,0.986-0.114,1.26-0.345
			s0.41-0.501,0.41-0.811c0-0.278-0.12-0.498-0.363-0.657c-0.169-0.11-0.589-0.249-1.26-0.418c-0.904-0.228-1.53-0.425-1.879-0.592
			c-0.349-0.166-0.614-0.397-0.794-0.692c-0.179-0.294-0.27-0.62-0.27-0.976c0-0.324,0.075-0.624,0.222-0.9
			c0.148-0.276,0.35-0.505,0.606-0.688c0.191-0.141,0.452-0.261,0.784-0.359c0.331-0.098,0.685-0.147,1.064-0.147
			c0.57,0,1.072,0.082,1.504,0.246c0.431,0.164,0.749,0.386,0.955,0.667s0.347,0.657,0.424,1.126l-1.204,0.165
			c-0.055-0.374-0.214-0.666-0.476-0.876c-0.263-0.211-0.633-0.315-1.113-0.315c-0.566,0-0.97,0.093-1.212,0.281
			c-0.242,0.187-0.363,0.406-0.363,0.657c0,0.159,0.05,0.304,0.15,0.431c0.1,0.133,0.258,0.242,0.472,0.329
			c0.123,0.046,0.486,0.151,1.088,0.315c0.872,0.233,1.479,0.423,1.824,0.572c0.344,0.148,0.615,0.364,0.811,0.646
			c0.197,0.283,0.294,0.634,0.294,1.054c0,0.411-0.12,0.797-0.359,1.16c-0.24,0.364-0.586,0.643-1.037,0.842
			c-0.452,0.199-0.963,0.298-1.534,0.298c-0.945,0-1.665-0.197-2.159-0.589C67.018,104.883,66.701,104.302,66.565,103.53z"/>
		<path d="M77.156,97.082v-1.416h1.232v1.416H77.156z M77.156,105.7v-7.27h1.232v7.27H77.156z"/>
		<path d="M79.858,105.7v-7.27h1.109v1.034c0.535-0.799,1.305-1.198,2.315-1.198c0.437,0,0.841,0.079,1.208,0.236
			c0.368,0.158,0.642,0.364,0.825,0.619c0.182,0.256,0.31,0.559,0.383,0.911c0.046,0.228,0.068,0.628,0.068,1.198v4.47h-1.233
			v-4.422c0-0.502-0.048-0.877-0.144-1.126c-0.096-0.249-0.266-0.447-0.51-0.596c-0.244-0.148-0.531-0.222-0.859-0.222
			c-0.525,0-0.978,0.167-1.359,0.5c-0.381,0.333-0.571,0.965-0.571,1.896v3.97L79.858,105.7L79.858,105.7z"/>
		<path d="M87.543,105.7v-6.312h-1.089v-0.958h1.089v-0.773c0-0.489,0.044-0.852,0.13-1.088c0.119-0.319,0.328-0.579,0.627-0.777
			c0.298-0.199,0.717-0.298,1.256-0.298c0.347,0,0.73,0.041,1.15,0.124l-0.185,1.075c-0.256-0.046-0.498-0.068-0.726-0.068
			c-0.374,0-0.639,0.08-0.794,0.239c-0.155,0.16-0.232,0.459-0.232,0.897v0.671h1.416v0.958h-1.416v6.312
			C88.768,105.7,87.543,105.7,87.543,105.7z"/>
		<path d="M90.277,102.065c0-1.346,0.375-2.344,1.123-2.992c0.626-0.538,1.387-0.807,2.286-0.807c0.999,0,1.817,0.327,2.451,0.982
			c0.634,0.655,0.952,1.56,0.952,2.714c0,0.936-0.141,1.671-0.421,2.208c-0.281,0.535-0.689,0.953-1.225,1.249
			c-0.536,0.296-1.121,0.445-1.756,0.445c-1.018,0-1.84-0.326-2.468-0.98C90.591,104.233,90.277,103.293,90.277,102.065z
			 M91.543,102.065c0,0.931,0.204,1.628,0.609,2.091c0.406,0.463,0.918,0.695,1.534,0.695c0.612,0,1.12-0.232,1.527-0.698
			c0.406-0.465,0.609-1.175,0.609-2.128c0-0.899-0.204-1.58-0.613-2.044c-0.408-0.464-0.916-0.695-1.523-0.695
			c-0.616,0-1.127,0.231-1.534,0.692C91.747,100.438,91.543,101.135,91.543,102.065z"/>
		<path d="M98.113,105.7v-7.27h1.109v1.103c0.283-0.516,0.544-0.856,0.784-1.02c0.24-0.165,0.503-0.246,0.791-0.246
			c0.415,0,0.838,0.132,1.267,0.397l-0.424,1.144c-0.301-0.178-0.602-0.267-0.904-0.267c-0.27,0-0.511,0.081-0.726,0.243
			c-0.214,0.162-0.368,0.387-0.459,0.674c-0.137,0.437-0.205,0.918-0.205,1.437v3.806L98.113,105.7L98.113,105.7z"/>
		<path d="M102.389,105.7v-7.27h1.102v1.02c0.228-0.357,0.532-0.643,0.911-0.859c0.378-0.216,0.81-0.325,1.294-0.325
			c0.538,0,0.981,0.112,1.325,0.336c0.344,0.224,0.587,0.536,0.729,0.938c0.574-0.849,1.323-1.274,2.246-1.274
			c0.721,0,1.276,0.2,1.664,0.599c0.388,0.4,0.582,1.015,0.582,1.845v4.991h-1.225v-4.58c0-0.493-0.04-0.848-0.12-1.065
			c-0.079-0.217-0.225-0.392-0.435-0.524c-0.211-0.133-0.456-0.199-0.739-0.199c-0.511,0-0.936,0.17-1.274,0.51
			s-0.507,0.885-0.507,1.633v4.224h-1.232v-4.724c0-0.547-0.1-0.958-0.301-1.232c-0.2-0.274-0.529-0.41-0.986-0.41
			c-0.347,0-0.667,0.092-0.961,0.274c-0.294,0.183-0.507,0.449-0.64,0.8c-0.132,0.352-0.198,0.858-0.198,1.52v3.772H102.389z"/>
		<path d="M118.404,104.803c-0.457,0.388-0.896,0.662-1.318,0.822c-0.422,0.159-0.875,0.24-1.359,0.24
			c-0.798,0-1.412-0.196-1.841-0.586c-0.43-0.39-0.643-0.889-0.643-1.496c0-0.356,0.081-0.681,0.243-0.976
			c0.162-0.294,0.374-0.531,0.636-0.708c0.263-0.178,0.558-0.312,0.887-0.404c0.242-0.064,0.607-0.126,1.096-0.185
			c0.995-0.118,1.727-0.26,2.197-0.424c0.005-0.169,0.007-0.276,0.007-0.322c0-0.502-0.116-0.856-0.349-1.061
			c-0.315-0.277-0.782-0.417-1.403-0.417c-0.58,0-1.008,0.102-1.284,0.305c-0.276,0.204-0.48,0.563-0.612,1.078l-1.205-0.164
			c0.11-0.516,0.29-0.932,0.541-1.249c0.251-0.317,0.614-0.561,1.088-0.732c0.475-0.171,1.024-0.256,1.65-0.256
			c0.621,0,1.125,0.073,1.513,0.218c0.388,0.146,0.673,0.33,0.856,0.552c0.182,0.221,0.31,0.501,0.383,0.838
			c0.041,0.211,0.061,0.589,0.061,1.136v1.643c0,1.146,0.026,1.87,0.079,2.174c0.053,0.304,0.156,0.594,0.311,0.873h-1.287
			C118.523,105.445,118.441,105.146,118.404,104.803z M118.302,102.051c-0.447,0.182-1.117,0.338-2.012,0.465
			c-0.506,0.073-0.865,0.155-1.075,0.246c-0.211,0.091-0.372,0.225-0.486,0.401c-0.113,0.176-0.171,0.371-0.171,0.585
			c0,0.329,0.124,0.602,0.372,0.821c0.249,0.219,0.613,0.329,1.092,0.329c0.475,0,0.897-0.104,1.267-0.312
			c0.37-0.207,0.641-0.492,0.815-0.852c0.132-0.278,0.198-0.689,0.198-1.232L118.302,102.051L118.302,102.051z"/>
		<path d="M125.794,103.038l1.211,0.157c-0.132,0.835-0.471,1.489-1.016,1.961c-0.545,0.472-1.214,0.709-2.009,0.709
			c-0.995,0-1.795-0.326-2.399-0.976c-0.605-0.65-0.907-1.582-0.907-2.796c0-0.786,0.13-1.472,0.39-2.061
			c0.26-0.588,0.656-1.03,1.187-1.324s1.11-0.441,1.735-0.441c0.789,0,1.435,0.2,1.937,0.599c0.502,0.4,0.824,0.967,0.965,1.701
			l-1.198,0.185c-0.113-0.489-0.315-0.856-0.605-1.103c-0.29-0.246-0.64-0.37-1.051-0.37c-0.621,0-1.124,0.222-1.513,0.667
			c-0.388,0.444-0.581,1.149-0.581,2.112c0,0.977,0.186,1.686,0.561,2.128c0.374,0.443,0.862,0.664,1.465,0.664
			c0.483,0,0.888-0.148,1.212-0.444C125.502,104.108,125.707,103.654,125.794,103.038z"/>
		<path d="M127.66,97.082v-1.416h1.232v1.416H127.66z M127.66,105.7v-7.27h1.232v7.27H127.66z"/>
		<path d="M129.903,102.065c0-1.346,0.375-2.344,1.123-2.992c0.626-0.538,1.387-0.807,2.286-0.807c0.999,0,1.817,0.327,2.451,0.982
			c0.634,0.655,0.952,1.56,0.952,2.714c0,0.936-0.141,1.671-0.421,2.208c-0.281,0.535-0.689,0.953-1.225,1.249
			c-0.536,0.296-1.121,0.445-1.756,0.445c-1.018,0-1.84-0.326-2.468-0.98C130.217,104.233,129.903,103.293,129.903,102.065z
			 M131.17,102.065c0,0.931,0.204,1.628,0.609,2.091c0.406,0.463,0.918,0.695,1.534,0.695c0.612,0,1.12-0.232,1.527-0.698
			c0.406-0.465,0.609-1.175,0.609-2.128c0-0.899-0.204-1.58-0.613-2.044c-0.408-0.464-0.916-0.695-1.523-0.695
			c-0.616,0-1.127,0.231-1.534,0.692C131.373,100.438,131.17,101.135,131.17,102.065z M132.628,97.527l0.911-1.917h1.615
			l-1.506,1.917H132.628z"/>
		<path d="M137.753,105.7v-7.27h1.109v1.034c0.535-0.799,1.305-1.198,2.315-1.198c0.437,0,0.841,0.079,1.208,0.236
			c0.368,0.158,0.642,0.364,0.825,0.619c0.182,0.256,0.31,0.559,0.383,0.911c0.046,0.228,0.068,0.628,0.068,1.198v4.47h-1.232
			v-4.422c0-0.502-0.048-0.877-0.144-1.126c-0.096-0.249-0.266-0.447-0.51-0.596c-0.244-0.148-0.531-0.222-0.859-0.222
			c-0.525,0-0.978,0.167-1.359,0.5c-0.381,0.333-0.571,0.965-0.571,1.896v3.97L137.753,105.7L137.753,105.7z"/>
	</g>
</g>
</svg>
