<!-- Generator: Adobe Illustrator 17.0.0, SVG Export Plug-In  -->
<svg version="1.1"
	 xmlns="http://www.w3.org/2000/svg" xmlns:xlink="http://www.w3.org/1999/xlink" xmlns:a="http://ns.adobe.com/AdobeSVGViewerExtensions/3.0/"
	 x="0px" y="0px" width="17.273px" height="17.334px" viewBox="0 0 17.273 17.334" enable-background="new 0 0 17.273 17.334"
	 xml:space="preserve">
<defs>
</defs>
<path id="XMLID_1_" fill="#144B8B" stroke="#000000" stroke-width="0.5" stroke-miterlimit="10" d="M16.6,14.373l-3.291-3.289
	c0.678-1.066,1.066-2.418,1.066-3.773c0-3.871-3.191-7.061-7.064-7.061c-3.867,0-7.061,3.189-7.061,7.061s3.193,7.063,7.061,7.063
	c1.356,0,2.711-0.387,3.775-1.063l3.289,3.289c0.289,0.289,0.676,0.484,1.064,0.484c0.389,0,0.772-0.195,1.062-0.484
	C17.18,15.924,17.18,14.953,16.6,14.373L16.6,14.373z M7.311,12.15c-2.707,0-4.836-2.133-4.836-4.84
	c0-2.709,2.129-4.838,4.836-4.838c2.711,0,4.84,2.129,4.84,4.838C12.15,9.92,10.022,12.15,7.311,12.15L7.311,12.15z"/>
</svg>