<?xml version="1.0" encoding="utf-8"?>
<!-- Generator: Adobe Illustrator 17.0.0, SVG Export Plug-In . SVG Version: 6.00 Build 0)  -->
<!DOCTYPE svg PUBLIC "-//W3C//DTD SVG 1.1//EN" "http://www.w3.org/Graphics/SVG/1.1/DTD/svg11.dtd" [
	<!ENTITY ns_extend "http://ns.adobe.com/Extensibility/1.0/">
	<!ENTITY ns_ai "http://ns.adobe.com/AdobeIllustrator/10.0/">
	<!ENTITY ns_graphs "http://ns.adobe.com/Graphs/1.0/">
	<!ENTITY ns_vars "http://ns.adobe.com/Variables/1.0/">
	<!ENTITY ns_imrep "http://ns.adobe.com/ImageReplacement/1.0/">
	<!ENTITY ns_sfw "http://ns.adobe.com/SaveForWeb/1.0/">
	<!ENTITY ns_custom "http://ns.adobe.com/GenericCustomNamespace/1.0/">
	<!ENTITY ns_adobe_xpath "http://ns.adobe.com/XPath/1.0/">
]>
<svg version="1.1" id="Capa_1" xmlns:x="&ns_extend;" xmlns:i="&ns_ai;" xmlns:graph="&ns_graphs;"
	 xmlns="http://www.w3.org/2000/svg" xmlns:xlink="http://www.w3.org/1999/xlink" x="0px" y="0px" width="221.203px"
	 height="287.133px" viewBox="0 0 221.203 287.133" enable-background="new 0 0 221.203 287.133" xml:space="preserve">
<metadata>
	<sfw  xmlns="&ns_sfw;">
		<slices></slices>
		<sliceSourceBounds  width="221.203" height="18.459" x="356.898" y="805.607" bottomLeftOrigin="true"></sliceSourceBounds>
	</sfw>
</metadata>
<g>
	<path fill="#144B8B" d="M9.896,8.48C9.664,9.021,9.344,9.496,8.938,9.902s-0.882,0.726-1.428,0.959
		c-0.546,0.232-1.128,0.349-1.746,0.349H1.639v6.995H0V0h5.764c0.618,0,1.2,0.116,1.746,0.35c0.546,0.232,1.021,0.552,1.428,0.958
		S9.665,2.19,9.897,2.737c0.232,0.545,0.35,1.127,0.35,1.745v2.26C10.246,7.359,10.129,7.939,9.896,8.48z M8.607,4.481
		c0-0.406-0.076-0.785-0.229-1.136C8.226,2.993,8.017,2.685,7.75,2.417C7.484,2.152,7.176,1.942,6.824,1.79s-0.73-0.229-1.137-0.229
		H1.639v8.087h4.049c0.406,0,0.785-0.076,1.137-0.229s0.66-0.359,0.927-0.622S8.228,8.228,8.38,7.876
		C8.532,7.525,8.609,7.147,8.609,6.74V4.481H8.607z"/>
	<path fill="#144B8B" d="M16.67,6.69c-0.313,0-0.607,0.06-0.883,0.178S15.273,7.147,15.07,7.35s-0.364,0.442-0.482,0.718
		C14.469,8.343,14.41,8.637,14.41,8.95v9.255h-1.563v-13h0.521l0.85,1.32c0.355-0.482,0.803-0.865,1.34-1.148
		c0.537-0.284,1.123-0.426,1.758-0.426h0.914V6.69H16.67z"/>
	<path fill="#144B8B" d="M28.698,16.123c-0.198,0.465-0.472,0.871-0.819,1.219s-0.753,0.62-1.219,0.818
		c-0.465,0.199-0.96,0.299-1.484,0.299h-1.041c-0.525,0-1.021-0.1-1.486-0.299c-0.465-0.198-0.871-0.471-1.219-0.818
		c-0.347-0.348-0.619-0.754-0.818-1.219s-0.299-0.961-0.299-1.485V8.772c0-0.524,0.1-1.021,0.299-1.485s0.472-0.871,0.818-1.219
		c0.348-0.348,0.754-0.62,1.219-0.818c0.466-0.199,0.961-0.299,1.486-0.299h1.041c0.524,0,1.02,0.1,1.484,0.299
		c0.466,0.198,0.872,0.471,1.219,0.818c0.348,0.348,0.621,0.754,0.819,1.219s0.298,0.961,0.298,1.485v5.865
		C28.996,15.162,28.896,15.658,28.698,16.123z M27.436,8.684c0-0.313-0.06-0.607-0.178-0.883c-0.119-0.274-0.279-0.514-0.482-0.717
		s-0.443-0.363-0.718-0.482s-0.569-0.178-0.882-0.178h-1.041c-0.313,0-0.607,0.059-0.883,0.178s-0.514,0.279-0.717,0.482
		s-0.364,0.442-0.482,0.717c-0.119,0.275-0.178,0.57-0.178,0.883v6.043c0,0.313,0.059,0.607,0.178,0.883
		c0.118,0.274,0.279,0.514,0.482,0.717s0.441,0.363,0.717,0.482s0.569,0.178,0.883,0.178h1.041c0.313,0,0.607-0.059,0.882-0.178
		s0.515-0.279,0.718-0.482s0.363-0.442,0.482-0.717c0.118-0.275,0.178-0.57,0.178-0.883C27.436,14.727,27.436,8.684,27.436,8.684z"
		/>
	<path fill="#144B8B" d="M40.505,16.123c-0.198,0.465-0.472,0.871-0.819,1.219s-0.753,0.62-1.219,0.818
		c-0.465,0.199-0.96,0.299-1.484,0.299h-1.041c-0.525,0-1.021-0.1-1.486-0.299c-0.465-0.198-0.871-0.471-1.219-0.818
		c-0.347-0.348-0.619-0.754-0.818-1.219s-0.299-0.961-0.299-1.485V8.772c0-0.524,0.1-1.021,0.299-1.485s0.472-0.871,0.818-1.219
		c0.348-0.348,0.754-0.62,1.219-0.818c0.466-0.199,0.961-0.299,1.486-0.299h1.041c0.524,0,1.02,0.1,1.484,0.299
		c0.466,0.198,0.872,0.471,1.219,0.818c0.348,0.348,0.621,0.754,0.819,1.219s0.298,0.961,0.298,1.485v0.521l-1.561,0.254V8.684
		c0-0.313-0.06-0.607-0.178-0.883c-0.119-0.274-0.279-0.514-0.482-0.717s-0.443-0.363-0.718-0.482s-0.569-0.178-0.882-0.178h-1.041
		c-0.313,0-0.607,0.059-0.883,0.178s-0.514,0.279-0.717,0.482s-0.364,0.442-0.482,0.717c-0.119,0.275-0.178,0.57-0.178,0.883v6.043
		c0,0.313,0.059,0.607,0.178,0.883c0.118,0.274,0.279,0.514,0.482,0.717s0.441,0.363,0.717,0.482s0.569,0.178,0.883,0.178h1.041
		c0.313,0,0.607-0.059,0.882-0.178s0.515-0.279,0.718-0.482s0.363-0.442,0.482-0.717c0.118-0.275,0.178-0.57,0.178-0.883v-0.863
		l1.561,0.254v0.521C40.803,15.162,40.703,15.658,40.505,16.123z"/>
	<path fill="#144B8B" d="M52.312,16.123c-0.198,0.465-0.472,0.871-0.819,1.219s-0.753,0.62-1.219,0.818
		c-0.465,0.199-0.96,0.299-1.484,0.299h-1.041c-0.525,0-1.021-0.1-1.486-0.299c-0.465-0.198-0.871-0.471-1.219-0.818
		c-0.347-0.348-0.619-0.754-0.818-1.219s-0.299-0.961-0.299-1.485V8.772c0-0.524,0.1-1.021,0.299-1.485s0.472-0.871,0.818-1.219
		c0.348-0.348,0.754-0.62,1.219-0.818c0.466-0.199,0.961-0.299,1.486-0.299h1.041c0.524,0,1.02,0.1,1.484,0.299
		c0.466,0.198,0.872,0.471,1.219,0.818c0.348,0.348,0.621,0.754,0.819,1.219s0.298,0.961,0.298,1.485v3.06h-7.121v2.895
		c0,0.313,0.059,0.607,0.178,0.883c0.118,0.274,0.279,0.514,0.482,0.717s0.441,0.363,0.717,0.482s0.569,0.178,0.883,0.178h1.041
		c0.313,0,0.607-0.059,0.882-0.178s0.515-0.279,0.718-0.482s0.363-0.442,0.482-0.717c0.118-0.275,0.178-0.57,0.178-0.883v-0.863
		l1.561,0.254v0.521C52.609,15.162,52.51,15.658,52.312,16.123z M51.049,8.684c0-0.313-0.06-0.607-0.178-0.883
		c-0.119-0.274-0.279-0.514-0.482-0.717s-0.443-0.363-0.718-0.482s-0.569-0.178-0.882-0.178h-1.041
		c-0.313,0-0.607,0.059-0.883,0.178s-0.514,0.279-0.717,0.482s-0.364,0.442-0.482,0.717c-0.119,0.275-0.178,0.57-0.178,0.883v1.93
		h5.561C51.049,10.614,51.049,8.684,51.049,8.684z"/>
	<path fill="#144B8B" d="M64.67,14.904c0,0.525-0.105,1.005-0.316,1.441c-0.212,0.436-0.5,0.811-0.863,1.123
		c-0.364,0.313-0.785,0.557-1.264,0.73s-0.979,0.26-1.504,0.26h-1.041c-0.525,0-1.027-0.1-1.505-0.299
		c-0.478-0.198-0.897-0.471-1.257-0.818s-0.647-0.754-0.863-1.219s-0.324-0.961-0.324-1.485v-0.521l1.563-0.254v0.863
		c0,0.313,0.064,0.607,0.196,0.883c0.132,0.274,0.307,0.514,0.526,0.717c0.221,0.203,0.475,0.363,0.762,0.482
		c0.288,0.119,0.589,0.178,0.902,0.178h1.041c0.313,0,0.613-0.047,0.9-0.14c0.288-0.093,0.545-0.227,0.769-0.399
		c0.224-0.174,0.401-0.383,0.533-0.629s0.196-0.525,0.196-0.838c0-0.465-0.102-0.846-0.305-1.143s-0.471-0.544-0.806-0.742
		c-0.335-0.199-0.716-0.364-1.143-0.496c-0.427-0.131-0.865-0.262-1.313-0.393c-0.449-0.132-0.887-0.281-1.314-0.451
		s-0.809-0.392-1.143-0.666c-0.334-0.275-0.604-0.621-0.807-1.035s-0.305-0.932-0.305-1.549c0-0.525,0.102-1.005,0.305-1.441
		s0.479-0.811,0.826-1.123c0.347-0.313,0.75-0.557,1.212-0.73s0.954-0.26,1.479-0.26h0.914c0.524,0,1.02,0.1,1.484,0.299
		c0.466,0.198,0.872,0.471,1.219,0.818c0.348,0.348,0.621,0.754,0.819,1.219s0.298,0.961,0.298,1.485v0.051L62.98,9.076V8.684
		c0-0.313-0.06-0.607-0.178-0.883c-0.119-0.274-0.279-0.514-0.482-0.717s-0.443-0.363-0.718-0.482s-0.569-0.178-0.882-0.178h-0.914
		c-0.313,0-0.607,0.047-0.883,0.14s-0.514,0.227-0.717,0.399c-0.203,0.174-0.364,0.383-0.482,0.629
		c-0.119,0.246-0.178,0.525-0.178,0.838c0,0.449,0.102,0.814,0.305,1.098c0.203,0.284,0.471,0.523,0.806,0.718
		s0.716,0.357,1.143,0.489c0.427,0.131,0.863,0.266,1.308,0.406c0.444,0.139,0.881,0.298,1.308,0.476s0.808,0.406,1.143,0.686
		s0.603,0.628,0.806,1.048C64.568,13.768,64.67,14.287,64.67,14.904z"/>
	<path fill="#144B8B" d="M76.052,16.123c-0.198,0.465-0.472,0.871-0.819,1.219s-0.753,0.62-1.219,0.818
		c-0.465,0.199-0.96,0.299-1.484,0.299h-1.041c-0.525,0-1.021-0.1-1.486-0.299c-0.465-0.198-0.871-0.471-1.219-0.818
		c-0.347-0.348-0.619-0.754-0.818-1.219s-0.299-0.961-0.299-1.485V8.772c0-0.524,0.1-1.021,0.299-1.485s0.472-0.871,0.818-1.219
		c0.348-0.348,0.754-0.62,1.219-0.818c0.466-0.199,0.961-0.299,1.486-0.299h1.041c0.524,0,1.02,0.1,1.484,0.299
		c0.466,0.198,0.872,0.471,1.219,0.818c0.348,0.348,0.621,0.754,0.819,1.219s0.298,0.961,0.298,1.485v5.865
		C76.35,15.162,76.25,15.658,76.052,16.123z M74.789,8.684c0-0.313-0.06-0.607-0.178-0.883c-0.119-0.274-0.279-0.514-0.482-0.717
		s-0.443-0.363-0.718-0.482s-0.569-0.178-0.882-0.178h-1.041c-0.313,0-0.607,0.059-0.883,0.178s-0.514,0.279-0.717,0.482
		s-0.364,0.442-0.482,0.717c-0.119,0.275-0.178,0.57-0.178,0.883v6.043c0,0.313,0.059,0.607,0.178,0.883
		c0.118,0.274,0.279,0.514,0.482,0.717s0.441,0.363,0.717,0.482s0.569,0.178,0.883,0.178h1.041c0.313,0,0.607-0.059,0.882-0.178
		s0.515-0.279,0.718-0.482s0.363-0.442,0.482-0.717c0.118-0.275,0.178-0.57,0.178-0.883V8.684z"/>
	<path fill="#144B8B" d="M88.41,14.904c0,0.525-0.105,1.005-0.316,1.441c-0.212,0.436-0.5,0.811-0.863,1.123
		c-0.364,0.313-0.785,0.557-1.264,0.73s-0.979,0.26-1.504,0.26h-1.041c-0.525,0-1.027-0.1-1.505-0.299
		c-0.478-0.198-0.897-0.471-1.257-0.818s-0.647-0.754-0.863-1.219s-0.324-0.961-0.324-1.485v-0.521l1.563-0.254v0.863
		c0,0.313,0.064,0.607,0.196,0.883c0.132,0.274,0.307,0.514,0.526,0.717c0.221,0.203,0.475,0.363,0.762,0.482
		c0.288,0.119,0.589,0.178,0.902,0.178h1.041c0.313,0,0.613-0.047,0.9-0.14c0.288-0.093,0.545-0.227,0.769-0.399
		c0.224-0.174,0.401-0.383,0.533-0.629s0.196-0.525,0.196-0.838c0-0.465-0.102-0.846-0.305-1.143s-0.471-0.544-0.806-0.742
		c-0.335-0.199-0.716-0.364-1.143-0.496c-0.427-0.131-0.865-0.262-1.313-0.393c-0.449-0.132-0.887-0.281-1.314-0.451
		s-0.809-0.392-1.143-0.666c-0.334-0.275-0.604-0.621-0.807-1.035s-0.305-0.932-0.305-1.549c0-0.525,0.102-1.005,0.305-1.441
		s0.479-0.811,0.826-1.123c0.347-0.313,0.75-0.557,1.212-0.73s0.954-0.26,1.479-0.26h0.914c0.524,0,1.02,0.1,1.484,0.299
		c0.466,0.198,0.872,0.471,1.219,0.818c0.348,0.348,0.621,0.754,0.819,1.219s0.298,0.961,0.298,1.485v0.051L86.72,9.076V8.684
		c0-0.313-0.06-0.607-0.178-0.883c-0.119-0.274-0.279-0.514-0.482-0.717s-0.443-0.363-0.718-0.482s-0.569-0.178-0.882-0.178h-0.914
		c-0.313,0-0.607,0.047-0.883,0.14s-0.514,0.227-0.717,0.399c-0.203,0.174-0.364,0.383-0.482,0.629
		c-0.119,0.246-0.178,0.525-0.178,0.838c0,0.449,0.102,0.814,0.305,1.098c0.203,0.284,0.471,0.523,0.806,0.718
		s0.716,0.357,1.143,0.489c0.427,0.131,0.863,0.266,1.308,0.406c0.444,0.139,0.881,0.298,1.308,0.476s0.808,0.406,1.143,0.686
		s0.603,0.628,0.806,1.048C88.309,13.768,88.41,14.287,88.41,14.904z"/>
	<path fill="#144B8B" d="M105.549,18.205l-0.863-1.32c-0.355,0.482-0.799,0.865-1.332,1.148c-0.533,0.284-1.117,0.426-1.752,0.426
		h-0.395c-0.524,0-1.02-0.1-1.484-0.299c-0.466-0.198-0.872-0.471-1.219-0.818c-0.348-0.348-0.621-0.754-0.819-1.219
		s-0.298-0.961-0.298-1.485V8.772c0-0.524,0.1-1.021,0.298-1.485s0.472-0.871,0.819-1.219s0.753-0.62,1.219-0.818
		c0.465-0.199,0.96-0.299,1.484-0.299h0.395c0.584,0,1.125,0.119,1.625,0.355c0.499,0.236,0.926,0.566,1.281,0.99V0h1.563v18.205
		H105.549z M104.508,8.684c0-0.313-0.059-0.607-0.178-0.883c-0.118-0.274-0.279-0.514-0.482-0.717s-0.441-0.363-0.717-0.482
		s-0.569-0.178-0.883-0.178h-1.041c-0.313,0-0.607,0.059-0.882,0.178s-0.515,0.279-0.718,0.482s-0.363,0.442-0.482,0.717
		c-0.118,0.275-0.178,0.57-0.178,0.883v6.043c0,0.313,0.06,0.607,0.178,0.883c0.119,0.274,0.279,0.514,0.482,0.717
		s0.443,0.363,0.718,0.482s0.569,0.178,0.882,0.178h1.041c0.313,0,0.607-0.059,0.883-0.178s0.514-0.279,0.717-0.482
		s0.364-0.442,0.482-0.717c0.119-0.275,0.178-0.57,0.178-0.883V8.684z"/>
	<path fill="#144B8B" d="M117.578,16.123c-0.199,0.465-0.472,0.871-0.818,1.219c-0.348,0.348-0.754,0.62-1.219,0.818
		c-0.466,0.199-0.961,0.299-1.486,0.299h-1.041c-0.524,0-1.02-0.1-1.484-0.299c-0.466-0.198-0.872-0.471-1.219-0.818
		c-0.348-0.348-0.621-0.754-0.819-1.219s-0.298-0.961-0.298-1.485V8.772c0-0.524,0.1-1.021,0.298-1.485s0.472-0.871,0.819-1.219
		s0.753-0.62,1.219-0.818c0.465-0.199,0.96-0.299,1.484-0.299h1.041c0.525,0,1.021,0.1,1.486,0.299
		c0.465,0.198,0.871,0.471,1.219,0.818c0.347,0.348,0.619,0.754,0.818,1.219s0.299,0.961,0.299,1.485v3.06h-7.123v2.895
		c0,0.313,0.06,0.607,0.178,0.883c0.119,0.274,0.279,0.514,0.482,0.717s0.443,0.363,0.718,0.482s0.569,0.178,0.882,0.178h1.041
		c0.313,0,0.607-0.059,0.883-0.178s0.514-0.279,0.717-0.482s0.364-0.442,0.482-0.717c0.119-0.275,0.178-0.57,0.178-0.883v-0.863
		l1.563,0.254v0.521C117.877,15.162,117.777,15.658,117.578,16.123z M116.314,8.684c0-0.313-0.059-0.607-0.178-0.883
		c-0.118-0.274-0.279-0.514-0.482-0.717s-0.441-0.363-0.717-0.482s-0.569-0.178-0.883-0.178h-1.041
		c-0.313,0-0.607,0.059-0.882,0.178s-0.515,0.279-0.718,0.482s-0.363,0.442-0.482,0.717c-0.118,0.275-0.178,0.57-0.178,0.883v1.93
		h5.561L116.314,8.684L116.314,8.684z"/>
	<path fill="#144B8B" d="M135.143,18.205l-0.863-1.32c-0.355,0.482-0.801,0.865-1.334,1.148c-0.533,0.284-1.117,0.426-1.752,0.426
		h-0.393c-0.525,0-1.021-0.1-1.486-0.299c-0.465-0.198-0.871-0.471-1.219-0.818c-0.347-0.348-0.619-0.754-0.818-1.219
		s-0.299-0.961-0.299-1.485V8.772c0-0.524,0.1-1.021,0.299-1.485s0.472-0.871,0.818-1.219c0.348-0.348,0.754-0.62,1.219-0.818
		c0.466-0.199,0.961-0.299,1.486-0.299h0.393c0.584,0,1.126,0.119,1.625,0.355c0.5,0.236,0.928,0.566,1.283,0.99V0h1.561v18.205
		H135.143z M134.102,8.684c0-0.313-0.06-0.607-0.178-0.883c-0.119-0.274-0.279-0.514-0.482-0.717s-0.443-0.363-0.718-0.482
		s-0.569-0.178-0.882-0.178h-1.041c-0.313,0-0.607,0.059-0.883,0.178s-0.514,0.279-0.717,0.482s-0.364,0.442-0.482,0.717
		c-0.119,0.275-0.178,0.57-0.178,0.883v6.043c0,0.313,0.059,0.607,0.178,0.883c0.118,0.274,0.279,0.514,0.482,0.717
		s0.441,0.363,0.717,0.482s0.569,0.178,0.883,0.178h1.041c0.313,0,0.607-0.059,0.882-0.178s0.515-0.279,0.718-0.482
		s0.363-0.442,0.482-0.717c0.118-0.275,0.178-0.57,0.178-0.883V8.684z"/>
	<path fill="#144B8B" d="M147.171,16.123c-0.198,0.465-0.472,0.871-0.819,1.219s-0.753,0.62-1.219,0.818
		c-0.465,0.199-0.96,0.299-1.484,0.299h-1.041c-0.525,0-1.021-0.1-1.486-0.299c-0.465-0.198-0.871-0.471-1.219-0.818
		c-0.347-0.348-0.619-0.754-0.818-1.219s-0.299-0.961-0.299-1.485V8.772c0-0.524,0.1-1.021,0.299-1.485s0.472-0.871,0.818-1.219
		c0.348-0.348,0.754-0.62,1.219-0.818c0.466-0.199,0.961-0.299,1.486-0.299h1.041c0.524,0,1.02,0.1,1.484,0.299
		c0.466,0.198,0.872,0.471,1.219,0.818c0.348,0.348,0.621,0.754,0.819,1.219s0.298,0.961,0.298,1.485v3.06h-7.121v2.895
		c0,0.313,0.059,0.607,0.178,0.883c0.118,0.274,0.279,0.514,0.482,0.717s0.441,0.363,0.717,0.482s0.569,0.178,0.883,0.178h1.041
		c0.313,0,0.607-0.059,0.882-0.178s0.515-0.279,0.718-0.482s0.363-0.442,0.482-0.717c0.118-0.275,0.178-0.57,0.178-0.883v-0.863
		l1.561,0.254v0.521C147.469,15.162,147.369,15.658,147.171,16.123z M145.908,8.684c0-0.313-0.06-0.607-0.178-0.883
		c-0.119-0.274-0.279-0.514-0.482-0.717s-0.443-0.363-0.718-0.482s-0.569-0.178-0.882-0.178h-1.041
		c-0.313,0-0.607,0.059-0.883,0.178s-0.514,0.279-0.717,0.482s-0.364,0.442-0.482,0.717c-0.119,0.275-0.178,0.57-0.178,0.883v1.93
		h5.561L145.908,8.684L145.908,8.684z"/>
	<path fill="#144B8B" d="M159.529,14.904c0,0.525-0.105,1.005-0.316,1.441c-0.212,0.436-0.5,0.811-0.863,1.123
		c-0.364,0.313-0.785,0.557-1.264,0.73s-0.979,0.26-1.504,0.26h-1.041c-0.525,0-1.027-0.1-1.505-0.299
		c-0.478-0.198-0.897-0.471-1.257-0.818s-0.647-0.754-0.863-1.219s-0.324-0.961-0.324-1.485v-0.521l1.563-0.254v0.863
		c0,0.313,0.064,0.607,0.196,0.883c0.132,0.274,0.307,0.514,0.526,0.717c0.221,0.203,0.475,0.363,0.762,0.482
		c0.288,0.119,0.589,0.178,0.902,0.178h1.041c0.313,0,0.613-0.047,0.9-0.14c0.288-0.093,0.545-0.227,0.769-0.399
		c0.224-0.174,0.401-0.383,0.533-0.629s0.196-0.525,0.196-0.838c0-0.465-0.102-0.846-0.305-1.143s-0.471-0.544-0.806-0.742
		c-0.335-0.199-0.716-0.364-1.143-0.496c-0.427-0.131-0.865-0.262-1.313-0.393c-0.449-0.132-0.887-0.281-1.314-0.451
		s-0.809-0.392-1.143-0.666c-0.334-0.275-0.604-0.621-0.807-1.035s-0.305-0.932-0.305-1.549c0-0.525,0.102-1.005,0.305-1.441
		c0.203-0.436,0.479-0.811,0.826-1.123c0.347-0.313,0.75-0.557,1.212-0.73s0.954-0.26,1.479-0.26h0.914
		c0.524,0,1.02,0.1,1.484,0.299c0.466,0.198,0.872,0.471,1.219,0.818c0.348,0.348,0.621,0.754,0.819,1.219s0.298,0.961,0.298,1.485
		v0.051l-1.561,0.254V8.684c0-0.313-0.06-0.607-0.178-0.883c-0.119-0.274-0.279-0.514-0.482-0.717s-0.443-0.363-0.718-0.482
		s-0.569-0.178-0.882-0.178h-0.914c-0.313,0-0.607,0.047-0.883,0.14s-0.514,0.227-0.717,0.399c-0.203,0.174-0.364,0.383-0.482,0.629
		c-0.119,0.246-0.178,0.525-0.178,0.838c0,0.449,0.102,0.814,0.305,1.098c0.203,0.284,0.471,0.523,0.806,0.718
		s0.716,0.357,1.143,0.489c0.427,0.131,0.863,0.266,1.308,0.406c0.444,0.139,0.881,0.298,1.308,0.476s0.808,0.406,1.143,0.686
		s0.603,0.628,0.806,1.048C159.428,13.768,159.529,14.287,159.529,14.904z"/>
	<path fill="#144B8B" d="M170.689,18.205l-0.863-1.295c-0.355,0.465-0.801,0.84-1.334,1.123c-0.533,0.284-1.117,0.426-1.752,0.426
		h-0.393c-0.525,0-1.021-0.1-1.486-0.299c-0.465-0.198-0.871-0.471-1.219-0.818c-0.347-0.348-0.619-0.754-0.818-1.219
		s-0.299-0.961-0.299-1.485v-0.127c0-0.524,0.1-1.021,0.299-1.485s0.472-0.871,0.818-1.219c0.348-0.348,0.754-0.62,1.219-0.818
		c0.466-0.199,0.961-0.299,1.486-0.299h3.301V8.684c0-0.313-0.06-0.607-0.178-0.883c-0.119-0.274-0.279-0.514-0.482-0.717
		s-0.443-0.363-0.718-0.482s-0.569-0.178-0.882-0.178h-0.914c-0.313,0-0.607,0.059-0.883,0.178s-0.514,0.279-0.717,0.482
		s-0.364,0.442-0.482,0.717c-0.119,0.275-0.178,0.57-0.178,0.883v0.47L162.651,8.9V8.772c0-0.524,0.1-1.021,0.299-1.485
		s0.472-0.871,0.818-1.219c0.348-0.348,0.754-0.62,1.219-0.818c0.466-0.199,0.961-0.299,1.486-0.299h0.914
		c0.524,0,1.02,0.1,1.484,0.299c0.466,0.198,0.872,0.471,1.219,0.818c0.348,0.348,0.621,0.754,0.819,1.219s0.298,0.961,0.298,1.485
		v9.433H170.689z M169.648,11.908h-3.301c-0.313,0-0.607,0.059-0.883,0.178s-0.514,0.281-0.717,0.488
		c-0.203,0.208-0.364,0.449-0.482,0.725c-0.119,0.274-0.178,0.568-0.178,0.882v0.546c0,0.313,0.059,0.607,0.178,0.883
		c0.118,0.274,0.279,0.514,0.482,0.717s0.441,0.363,0.717,0.482s0.569,0.178,0.883,0.178h1.041c0.313,0,0.607-0.059,0.882-0.178
		s0.515-0.279,0.718-0.482s0.363-0.442,0.482-0.717c0.118-0.275,0.178-0.57,0.178-0.883V11.908z"/>
	<path fill="#144B8B" d="M178.154,6.69c-0.313,0-0.607,0.06-0.883,0.178s-0.514,0.279-0.717,0.482s-0.364,0.442-0.482,0.718
		c-0.119,0.274-0.178,0.568-0.178,0.882v9.255h-1.563v-13h0.521l0.85,1.32c0.355-0.482,0.803-0.865,1.34-1.148
		c0.537-0.284,1.123-0.426,1.758-0.426h0.914V6.69H178.154z"/>
	<path fill="#144B8B" d="M185.619,6.69c-0.313,0-0.607,0.06-0.883,0.178s-0.514,0.279-0.717,0.482s-0.364,0.442-0.482,0.718
		c-0.119,0.274-0.178,0.568-0.178,0.882v9.255h-1.563v-13h0.521l0.85,1.32c0.355-0.482,0.803-0.865,1.34-1.148
		c0.537-0.284,1.123-0.426,1.758-0.426h0.914V6.69H185.619z"/>
	<path fill="#144B8B" d="M197.647,16.123c-0.198,0.465-0.472,0.871-0.819,1.219s-0.753,0.62-1.219,0.818
		c-0.465,0.199-0.96,0.299-1.484,0.299h-1.041c-0.525,0-1.021-0.1-1.486-0.299c-0.465-0.198-0.871-0.471-1.219-0.818
		c-0.347-0.348-0.619-0.754-0.818-1.219s-0.299-0.961-0.299-1.485V8.772c0-0.524,0.1-1.021,0.299-1.485s0.472-0.871,0.818-1.219
		c0.348-0.348,0.754-0.62,1.219-0.818c0.466-0.199,0.961-0.299,1.486-0.299h1.041c0.524,0,1.02,0.1,1.484,0.299
		c0.466,0.198,0.872,0.471,1.219,0.818c0.348,0.348,0.621,0.754,0.819,1.219s0.298,0.961,0.298,1.485v5.865
		C197.945,15.162,197.846,15.658,197.647,16.123z M196.385,8.684c0-0.313-0.06-0.607-0.178-0.883
		c-0.119-0.274-0.279-0.514-0.482-0.717s-0.443-0.363-0.718-0.482s-0.569-0.178-0.882-0.178h-1.041
		c-0.313,0-0.607,0.059-0.883,0.178s-0.514,0.279-0.717,0.482s-0.364,0.442-0.482,0.717c-0.119,0.275-0.178,0.57-0.178,0.883v6.043
		c0,0.313,0.059,0.607,0.178,0.883c0.118,0.274,0.279,0.514,0.482,0.717s0.441,0.363,0.717,0.482s0.569,0.178,0.883,0.178h1.041
		c0.313,0,0.607-0.059,0.882-0.178s0.515-0.279,0.718-0.482s0.363-0.442,0.482-0.717c0.118-0.275,0.178-0.57,0.178-0.883V8.684z"/>
	<path fill="#144B8B" d="M201.59,18.205V0h1.561v18.205H201.59z"/>
	<path fill="#144B8B" d="M207.314,18.205V0h1.563v18.205H207.314z"/>
	<path fill="#144B8B" d="M220.905,16.123c-0.198,0.465-0.472,0.871-0.819,1.219s-0.753,0.62-1.219,0.818
		c-0.465,0.199-0.96,0.299-1.484,0.299h-1.041c-0.525,0-1.021-0.1-1.486-0.299c-0.465-0.198-0.871-0.471-1.219-0.818
		c-0.347-0.348-0.619-0.754-0.818-1.219s-0.299-0.961-0.299-1.485V8.772c0-0.524,0.1-1.021,0.299-1.485s0.472-0.871,0.818-1.219
		c0.348-0.348,0.754-0.62,1.219-0.818c0.466-0.199,0.961-0.299,1.486-0.299h1.041c0.524,0,1.02,0.1,1.484,0.299
		c0.466,0.198,0.872,0.471,1.219,0.818c0.348,0.348,0.621,0.754,0.819,1.219s0.298,0.961,0.298,1.485v5.865
		C221.203,15.162,221.104,15.658,220.905,16.123z M219.643,8.684c0-0.313-0.06-0.607-0.178-0.883
		c-0.119-0.274-0.279-0.514-0.482-0.717s-0.443-0.363-0.718-0.482s-0.569-0.178-0.882-0.178h-1.041
		c-0.313,0-0.607,0.059-0.883,0.178s-0.514,0.279-0.717,0.482s-0.364,0.442-0.482,0.717c-0.119,0.275-0.178,0.57-0.178,0.883v6.043
		c0,0.313,0.059,0.607,0.178,0.883c0.118,0.274,0.279,0.514,0.482,0.717s0.441,0.363,0.717,0.482s0.569,0.178,0.883,0.178h1.041
		c0.313,0,0.607-0.059,0.882-0.178s0.515-0.279,0.718-0.482s0.363-0.442,0.482-0.717c0.118-0.275,0.178-0.57,0.178-0.883V8.684z"/>
</g>
</svg>
