<!-- Generator: Adobe Illustrator 17.0.0, SVG Export Plug-In  -->
<svg version="1.1"
	 xmlns="http://www.w3.org/2000/svg" xmlns:xlink="http://www.w3.org/1999/xlink" xmlns:a="http://ns.adobe.com/AdobeSVGViewerExtensions/3.0/"
	 x="0px" y="0px" width="69.366px" height="98.137px" viewBox="0 0 69.366 98.137" enable-background="new 0 0 69.366 98.137"
	 xml:space="preserve">
<defs>
</defs>
<g>
	<g>
		<polygon fill="#144B8B" points="54.191,0.398 0.398,0.398 0.398,97.738 68.969,97.738 68.969,15.177 		"/>
		<path fill="#231F20" d="M68.969,98.137H0.398C0.179,98.137,0,97.96,0,97.738V0.398C0,0.178,0.179,0,0.398,0h53.793
			c0.106,0,0.207,0.041,0.281,0.117L69.25,14.896c0.076,0.074,0.116,0.176,0.116,0.281v82.562
			C69.366,97.96,69.189,98.137,68.969,98.137z M0.795,97.342H68.57V15.341L54.026,0.795H0.795V97.342z"/>
	</g>
	<g>
		<path fill="#FFFFFF" d="M60.105,56.399H6.307c-0.219,0-0.397-0.179-0.397-0.396c0-0.221,0.178-0.399,0.397-0.399h53.799
			c0.221,0,0.399,0.179,0.399,0.399C60.505,56.22,60.326,56.399,60.105,56.399z"/>
	</g>
	<g>
		<path fill="#FFFFFF" d="M60.105,64.564H6.307c-0.219,0-0.397-0.179-0.397-0.397c0-0.22,0.178-0.398,0.397-0.398h53.799
			c0.221,0,0.399,0.179,0.399,0.398C60.505,64.385,60.326,64.564,60.105,64.564z"/>
	</g>
	<g>
		<path fill="#FFFFFF" d="M25.612,72.728H6.307c-0.219,0-0.397-0.178-0.397-0.398c0-0.22,0.178-0.397,0.397-0.397h19.306
			c0.22,0,0.397,0.178,0.397,0.397C26.01,72.55,25.832,72.728,25.612,72.728z"/>
	</g>
	<g>
		<polygon fill="#FFFFFF" points="54.191,15.177 68.969,15.177 54.191,0.398 		"/>
		<path fill="#231F20" d="M68.969,15.574H54.191c-0.221,0-0.398-0.177-0.398-0.398V0.398c0-0.161,0.098-0.306,0.248-0.368
			c0.145-0.061,0.317-0.026,0.432,0.088L69.25,14.896c0.114,0.114,0.147,0.283,0.086,0.433
			C69.274,15.479,69.129,15.574,68.969,15.574z M54.591,14.778h13.42l-13.42-13.42V14.778z"/>
	</g>
	<g>
		<path fill="#FFFFFF" d="M60.105,48.571H20.175c-0.219,0-0.397-0.178-0.397-0.397s0.178-0.398,0.397-0.398h39.931
			c0.221,0,0.399,0.178,0.399,0.398S60.326,48.571,60.105,48.571z"/>
	</g>
	<g>
		<path fill="#FFFFFF" d="M60.105,40.262H20.175c-0.219,0-0.397-0.178-0.397-0.396c0-0.221,0.178-0.398,0.397-0.398h39.931
			c0.221,0,0.399,0.178,0.399,0.398C60.505,40.084,60.326,40.262,60.105,40.262z"/>
	</g>
	<g>
		<radialGradient id="SVGID_1_" cx="10.462" cy="44.0198" r="4.1548" gradientUnits="userSpaceOnUse">
			<stop  offset="0" style="stop-color:#8CBB69"/>
			<stop  offset="0.7837" style="stop-color:#6BAD44"/>
		</radialGradient>
		
			<rect x="6.307" y="39.865" fill="url(#SVGID_1_)" stroke="#000000" stroke-width="0.5" stroke-miterlimit="10" width="8.311" height="8.309"/>
		<path fill="#FFFFFF" d="M14.617,48.571h-8.31c-0.219,0-0.397-0.178-0.397-0.397v-8.309c0-0.221,0.178-0.398,0.397-0.398h8.31
			c0.219,0,0.398,0.178,0.398,0.398v8.309C15.015,48.394,14.836,48.571,14.617,48.571z M6.704,47.777h7.516v-7.515H6.704V47.777z"/>
	</g>
	<g>
		<path fill="#FFFFFF" d="M9.073,79.868h1.922c0.434,0,0.765,0.033,0.991,0.1c0.306,0.09,0.567,0.25,0.785,0.479
			c0.219,0.229,0.384,0.511,0.498,0.844c0.113,0.333,0.17,0.743,0.17,1.23c0,0.429-0.053,0.799-0.159,1.108
			c-0.131,0.379-0.316,0.687-0.559,0.921c-0.182,0.177-0.429,0.315-0.738,0.415c-0.232,0.073-0.543,0.11-0.931,0.11H9.073V79.868z
			 M10.125,80.749v3.449h0.785c0.294,0,0.506-0.016,0.636-0.049c0.171-0.043,0.313-0.115,0.425-0.217
			c0.112-0.103,0.204-0.27,0.275-0.503s0.106-0.552,0.106-0.954s-0.035-0.712-0.106-0.927c-0.071-0.216-0.171-0.384-0.299-0.505
			s-0.29-0.202-0.486-0.245c-0.146-0.033-0.435-0.05-0.863-0.05H10.125z"/>
		<path fill="#FFFFFF" d="M14.331,85.076v-5.208h3.861v0.881h-2.81v1.154h2.614v0.878h-2.614v1.417h2.909v0.878H14.331z"/>
		<path fill="#FFFFFF" d="M18.917,83.382l1.023-0.1c0.062,0.344,0.187,0.596,0.375,0.757s0.442,0.241,0.762,0.241
			c0.339,0,0.594-0.071,0.766-0.215s0.258-0.311,0.258-0.503c0-0.123-0.036-0.228-0.108-0.314c-0.072-0.086-0.198-0.161-0.379-0.226
			c-0.123-0.042-0.403-0.118-0.842-0.227c-0.563-0.141-0.959-0.312-1.187-0.516c-0.319-0.286-0.479-0.636-0.479-1.048
			c0-0.266,0.075-0.514,0.226-0.744c0.15-0.231,0.367-0.407,0.65-0.528c0.283-0.12,0.624-0.181,1.024-0.181
			c0.654,0,1.146,0.144,1.477,0.43c0.33,0.287,0.504,0.669,0.521,1.147l-1.052,0.046c-0.045-0.268-0.142-0.46-0.29-0.577
			c-0.147-0.117-0.37-0.176-0.666-0.176c-0.306,0-0.544,0.063-0.718,0.188c-0.111,0.081-0.166,0.188-0.166,0.323
			c0,0.123,0.052,0.229,0.156,0.316c0.132,0.111,0.454,0.228,0.966,0.348c0.512,0.121,0.89,0.246,1.135,0.375
			s0.438,0.306,0.576,0.529s0.208,0.501,0.208,0.83c0,0.298-0.083,0.577-0.249,0.838s-0.4,0.454-0.703,0.581
			c-0.304,0.127-0.682,0.19-1.134,0.19c-0.658,0-1.164-0.152-1.517-0.457C19.196,84.408,18.986,83.964,18.917,83.382z"/>
		<path fill="#FFFFFF" d="M28.732,85.076h-1.144l-0.455-1.183h-2.082l-0.43,1.183h-1.115l2.028-5.208h1.112L28.732,85.076z
			 M26.797,83.016l-0.718-1.933l-0.703,1.933H26.797z"/>
		<path fill="#FFFFFF" d="M29.294,85.076v-5.208h2.213c0.557,0,0.961,0.047,1.213,0.141c0.253,0.093,0.454,0.26,0.606,0.499
			c0.151,0.239,0.227,0.513,0.227,0.82c0,0.391-0.114,0.714-0.344,0.968c-0.23,0.255-0.573,0.415-1.03,0.481
			c0.227,0.133,0.415,0.278,0.563,0.438c0.148,0.158,0.348,0.44,0.599,0.846l0.636,1.016h-1.257l-0.761-1.133
			c-0.27-0.405-0.455-0.66-0.554-0.766c-0.1-0.105-0.205-0.178-0.316-0.217s-0.288-0.059-0.529-0.059h-0.214v2.174H29.294z
			 M30.345,82.071h0.778c0.505,0,0.819-0.021,0.945-0.063c0.125-0.043,0.224-0.116,0.295-0.221c0.071-0.104,0.106-0.234,0.106-0.391
			c0-0.175-0.047-0.316-0.141-0.425c-0.094-0.107-0.226-0.176-0.396-0.204c-0.086-0.012-0.342-0.018-0.768-0.018h-0.821V82.071z"/>
		<path fill="#FFFFFF" d="M34.548,85.076v-5.208h2.213c0.557,0,0.961,0.047,1.213,0.141c0.253,0.093,0.454,0.26,0.606,0.499
			c0.151,0.239,0.227,0.513,0.227,0.82c0,0.391-0.114,0.714-0.344,0.968c-0.23,0.255-0.573,0.415-1.03,0.481
			c0.227,0.133,0.415,0.278,0.563,0.438c0.148,0.158,0.348,0.44,0.599,0.846l0.636,1.016h-1.257l-0.761-1.133
			c-0.27-0.405-0.455-0.66-0.554-0.766c-0.1-0.105-0.205-0.178-0.316-0.217s-0.288-0.059-0.529-0.059h-0.214v2.174H34.548z
			 M35.599,82.071h0.778c0.505,0,0.819-0.021,0.945-0.063c0.125-0.043,0.224-0.116,0.295-0.221c0.071-0.104,0.106-0.234,0.106-0.391
			c0-0.175-0.047-0.316-0.141-0.425c-0.094-0.107-0.226-0.176-0.396-0.204c-0.086-0.012-0.342-0.018-0.768-0.018h-0.821V82.071z"/>
		<path fill="#FFFFFF" d="M39.585,82.504c0-0.53,0.079-0.976,0.238-1.336c0.118-0.265,0.279-0.503,0.484-0.714
			s0.43-0.367,0.673-0.469c0.325-0.138,0.699-0.206,1.123-0.206c0.768,0,1.382,0.238,1.842,0.714
			c0.461,0.477,0.691,1.139,0.691,1.986c0,0.841-0.229,1.498-0.686,1.974c-0.457,0.475-1.068,0.712-1.833,0.712
			c-0.774,0-1.391-0.236-1.848-0.709S39.585,83.333,39.585,82.504z M40.668,82.469c0,0.59,0.137,1.037,0.409,1.341
			c0.272,0.305,0.618,0.457,1.037,0.457s0.763-0.151,1.032-0.453c0.269-0.302,0.403-0.755,0.403-1.359
			c0-0.597-0.131-1.042-0.393-1.336c-0.262-0.293-0.609-0.44-1.043-0.44s-0.783,0.149-1.048,0.446
			C40.801,81.421,40.668,81.869,40.668,82.469z"/>
		<path fill="#FFFFFF" d="M45.485,85.076v-5.165h1.052v4.287h2.614v0.878H45.485z"/>
		<path fill="#FFFFFF" d="M49.93,85.076v-5.165h1.052v4.287h2.614v0.878H49.93z"/>
		<path fill="#FFFFFF" d="M54.133,82.504c0-0.53,0.079-0.976,0.238-1.336c0.118-0.265,0.279-0.503,0.484-0.714
			s0.43-0.367,0.673-0.469c0.325-0.138,0.699-0.206,1.123-0.206c0.768,0,1.382,0.238,1.842,0.714
			c0.461,0.477,0.691,1.139,0.691,1.986c0,0.841-0.229,1.498-0.686,1.974c-0.457,0.475-1.068,0.712-1.833,0.712
			c-0.774,0-1.391-0.236-1.848-0.709S54.133,83.333,54.133,82.504z M55.216,82.469c0,0.59,0.137,1.037,0.409,1.341
			c0.272,0.305,0.618,0.457,1.037,0.457s0.763-0.151,1.032-0.453c0.269-0.302,0.403-0.755,0.403-1.359
			c0-0.597-0.131-1.042-0.393-1.336c-0.262-0.293-0.609-0.44-1.043-0.44s-0.783,0.149-1.048,0.446
			C55.349,81.421,55.216,81.869,55.216,82.469z"/>
		<path fill="#FFFFFF" d="M13.661,92.113l1.023-0.1c0.062,0.344,0.187,0.596,0.375,0.757s0.442,0.241,0.762,0.241
			c0.339,0,0.594-0.071,0.766-0.215s0.258-0.311,0.258-0.503c0-0.123-0.036-0.228-0.108-0.314c-0.072-0.086-0.198-0.161-0.379-0.226
			c-0.123-0.042-0.403-0.118-0.842-0.227c-0.563-0.141-0.959-0.312-1.187-0.516c-0.319-0.286-0.479-0.636-0.479-1.048
			c0-0.266,0.075-0.514,0.226-0.744c0.15-0.231,0.367-0.407,0.65-0.528c0.283-0.12,0.624-0.181,1.024-0.181
			c0.654,0,1.146,0.144,1.477,0.43c0.33,0.287,0.504,0.669,0.521,1.147l-1.052,0.046c-0.045-0.268-0.142-0.46-0.29-0.577
			c-0.147-0.117-0.37-0.176-0.666-0.176c-0.306,0-0.544,0.063-0.718,0.188c-0.111,0.081-0.166,0.188-0.166,0.323
			c0,0.123,0.052,0.229,0.156,0.316c0.132,0.111,0.454,0.228,0.966,0.348c0.512,0.121,0.89,0.246,1.135,0.375
			s0.438,0.306,0.576,0.529s0.208,0.501,0.208,0.83c0,0.298-0.083,0.577-0.249,0.838s-0.4,0.454-0.703,0.581
			c-0.304,0.127-0.682,0.19-1.134,0.19c-0.658,0-1.164-0.152-1.517-0.457C13.94,93.139,13.73,92.695,13.661,92.113z"/>
		<path fill="#FFFFFF" d="M18.567,91.235c0-0.53,0.079-0.976,0.238-1.336c0.118-0.265,0.279-0.503,0.484-0.714
			s0.43-0.367,0.673-0.469c0.325-0.138,0.699-0.206,1.123-0.206c0.768,0,1.382,0.238,1.842,0.714
			c0.461,0.477,0.691,1.139,0.691,1.986c0,0.841-0.229,1.498-0.686,1.974c-0.457,0.475-1.068,0.712-1.833,0.712
			c-0.774,0-1.391-0.236-1.848-0.709S18.567,92.064,18.567,91.235z M19.65,91.199c0,0.59,0.137,1.037,0.409,1.341
			c0.272,0.305,0.618,0.457,1.037,0.457s0.763-0.151,1.032-0.453c0.269-0.302,0.403-0.755,0.403-1.359
			c0-0.597-0.131-1.042-0.393-1.336c-0.262-0.293-0.609-0.44-1.043-0.44s-0.783,0.149-1.048,0.446
			C19.783,90.152,19.65,90.6,19.65,91.199z"/>
		<path fill="#FFFFFF" d="M24.446,93.807v-5.208h3.57v0.881h-2.519v1.232h2.174v0.882h-2.174v2.213H24.446z"/>
		<path fill="#FFFFFF" d="M30.057,93.807V89.48h-1.546v-0.881h4.139v0.881h-1.542v4.327H30.057z"/>
		<path fill="#FFFFFF" d="M34.067,93.807l-1.244-5.208H33.9l0.785,3.577l0.952-3.577h1.25l0.913,3.638l0.8-3.638h1.059l-1.265,5.208
			h-1.116l-1.037-3.894l-1.034,3.894H34.067z"/>
		<path fill="#FFFFFF" d="M44.49,93.807h-1.144l-0.455-1.183H40.81l-0.43,1.183h-1.115l2.028-5.208h1.112L44.49,93.807z
			 M42.555,91.746l-0.718-1.933l-0.703,1.933H42.555z"/>
		<path fill="#FFFFFF" d="M45.052,93.807v-5.208h2.213c0.557,0,0.961,0.047,1.213,0.141c0.253,0.093,0.454,0.26,0.606,0.499
			c0.151,0.239,0.227,0.513,0.227,0.82c0,0.391-0.114,0.714-0.344,0.968c-0.23,0.255-0.573,0.415-1.03,0.481
			c0.227,0.133,0.415,0.278,0.563,0.438c0.148,0.158,0.348,0.44,0.599,0.846l0.636,1.016h-1.257l-0.761-1.133
			c-0.27-0.405-0.455-0.66-0.554-0.766c-0.1-0.105-0.205-0.178-0.316-0.217s-0.288-0.059-0.529-0.059h-0.214v2.174H45.052z
			 M46.103,90.801h0.778c0.505,0,0.819-0.021,0.945-0.063c0.125-0.043,0.224-0.116,0.295-0.221c0.071-0.104,0.106-0.234,0.106-0.391
			c0-0.175-0.047-0.316-0.141-0.425c-0.094-0.107-0.226-0.176-0.396-0.204c-0.086-0.012-0.342-0.018-0.768-0.018h-0.821V90.801z"/>
		<path fill="#FFFFFF" d="M50.302,93.807v-5.208h3.861v0.881h-2.81v1.154h2.614v0.878h-2.614v1.417h2.909v0.878H50.302z"/>
	</g>
	<g>
		<g>
			<circle fill="#FFFFFF" stroke="#000000" stroke-width="0.5" stroke-miterlimit="10" cx="32.492" cy="19.67" r="13.59"/>
			<radialGradient id="SVGID_2_" cx="32.4922" cy="19.6701" r="11.0234" gradientUnits="userSpaceOnUse">
				<stop  offset="0" style="stop-color:#8CBB69"/>
				<stop  offset="0.7837" style="stop-color:#6BAD44"/>
			</radialGradient>
			<circle fill="url(#SVGID_2_)" stroke="#000000" stroke-width="0.5" stroke-miterlimit="10" cx="32.492" cy="19.67" r="11.023"/>
		</g>
		<g>
			<g>
				<path fill="#FFFFFF" d="M26.701,20.089v-6.94c0-0.7,0.566-1.268,1.266-1.268h9.646c0.699,0,1.266,0.567,1.266,1.268v8.518
					c0,0.699-0.566,1.267-1.266,1.267h-8.87h-0.776h-4.512L26.701,20.089z"/>
				<path d="M37.613,23.012H23.455c-0.033,0-0.063-0.021-0.073-0.051c-0.013-0.031-0.004-0.065,0.021-0.088l3.218-2.82v-6.904
					c0-0.743,0.604-1.347,1.346-1.347h9.646c0.742,0,1.346,0.603,1.346,1.347v8.518C38.959,22.408,38.355,23.012,37.613,23.012z
					 M23.666,22.854h13.947c0.654,0,1.188-0.533,1.188-1.188v-8.518c0-0.655-0.533-1.188-1.188-1.188h-9.646
					c-0.654,0-1.188,0.532-1.188,1.188v6.94c0,0.022-0.01,0.045-0.026,0.06L23.666,22.854z"/>
			</g>
			<g>
				<path d="M36.974,16.797h-8.55c-0.045,0-0.08-0.036-0.08-0.08c0-0.043,0.035-0.079,0.08-0.079h8.55
					c0.044,0,0.079,0.036,0.079,0.079C37.053,16.761,37.018,16.797,36.974,16.797z"/>
			</g>
			<g>
				<path d="M36.974,18.811h-8.55c-0.045,0-0.08-0.036-0.08-0.079c0-0.044,0.035-0.08,0.08-0.08h8.55
					c0.044,0,0.079,0.036,0.079,0.08C37.053,18.775,37.018,18.811,36.974,18.811z"/>
			</g>
			<g>
				<path d="M34.276,20.825h-5.853c-0.045,0-0.08-0.035-0.08-0.08c0-0.044,0.035-0.079,0.08-0.079h5.853
					c0.043,0,0.078,0.035,0.078,0.079C34.354,20.79,34.319,20.825,34.276,20.825z"/>
			</g>
			<g>
				<path fill="#154B8A" d="M33.691,19.408c-2.407,0-4.359,1.952-4.359,4.359c0,0.898,0.271,1.729,0.734,2.422l0,0l-0.271,2.175
					l2.067-0.639c0.557,0.257,1.175,0.401,1.828,0.401c2.408,0,4.359-1.95,4.359-4.359C38.051,21.361,36.1,19.408,33.691,19.408z"/>
				<path d="M29.796,28.444c-0.019,0-0.037-0.007-0.051-0.02c-0.021-0.017-0.031-0.044-0.028-0.069l0.268-2.146
					c-0.479-0.726-0.73-1.568-0.73-2.441c0-2.446,1.991-4.438,4.437-4.438c2.448,0,4.44,1.991,4.44,4.438
					c0,2.448-1.991,4.438-4.44,4.438c-0.637,0-1.254-0.133-1.834-0.396l-2.038,0.63C29.813,28.443,29.804,28.444,29.796,28.444z
					 M30.145,26.209l-0.255,2.043l1.95-0.602c0.02-0.006,0.039-0.005,0.057,0.004c0.566,0.262,1.171,0.396,1.795,0.396
					c2.361,0,4.281-1.921,4.281-4.281c0-2.359-1.92-4.279-4.281-4.279c-2.358,0-4.279,1.92-4.279,4.279
					c0,0.852,0.25,1.673,0.721,2.377C30.146,26.164,30.149,26.189,30.145,26.209z"/>
			</g>
			<g>
				<circle fill="#FFFFFF" cx="33.692" cy="23.887" r="2.775"/>
				<path d="M33.691,26.741c-1.573,0-2.854-1.281-2.854-2.854c0-1.574,1.281-2.855,2.854-2.855c1.575,0,2.856,1.281,2.856,2.855
					C36.547,25.46,35.267,26.741,33.691,26.741z M33.691,21.191c-1.486,0-2.695,1.209-2.695,2.696c0,1.486,1.209,2.696,2.695,2.696
					c1.487,0,2.696-1.21,2.696-2.696C36.388,22.4,35.179,21.191,33.691,21.191z"/>
			</g>
			<g>
				<path d="M35.51,23.966h-3.635c-0.044,0-0.079-0.036-0.079-0.079c0-0.044,0.035-0.08,0.079-0.08h3.635
					c0.044,0,0.078,0.036,0.078,0.08C35.588,23.93,35.554,23.966,35.51,23.966z"/>
			</g>
			<g>
				<path d="M33.691,25.782c-0.042,0-0.078-0.035-0.078-0.079v-3.633c0-0.045,0.036-0.08,0.078-0.08c0.045,0,0.08,0.035,0.08,0.08
					v3.633C33.771,25.747,33.736,25.782,33.691,25.782z"/>
			</g>
			<g>
				<radialGradient id="SVGID_3_" cx="36.7514" cy="25.0105" r="1.6338" gradientUnits="userSpaceOnUse">
					<stop  offset="0" style="stop-color:#8CBB69"/>
					<stop  offset="0.7837" style="stop-color:#6BAD44"/>
				</radialGradient>
				<rect x="34.462" y="24.699" fill="url(#SVGID_3_)" width="4.579" height="0.622"/>
				<path d="M39.041,25.401h-4.579c-0.043,0-0.079-0.035-0.079-0.079v-0.622c0-0.044,0.036-0.079,0.079-0.079h4.579
					c0.044,0,0.08,0.035,0.08,0.079v0.622C39.121,25.365,39.085,25.401,39.041,25.401z M34.541,25.242h4.421V24.78h-4.421V25.242z"
					/>
			</g>
			<g>
				<radialGradient id="SVGID_4_" cx="36.3764" cy="26.1809" r="1.3715" gradientUnits="userSpaceOnUse">
					<stop  offset="0" style="stop-color:#8CBB69"/>
					<stop  offset="0.7837" style="stop-color:#6BAD44"/>
				</radialGradient>
				<rect x="34.462" y="25.87" fill="url(#SVGID_4_)" width="3.829" height="0.621"/>
				<path d="M38.291,26.571h-3.829c-0.043,0-0.079-0.035-0.079-0.079V25.87c0-0.045,0.036-0.08,0.079-0.08h3.829
					c0.045,0,0.079,0.035,0.079,0.08v0.621C38.37,26.535,38.336,26.571,38.291,26.571z M34.541,26.412h3.672v-0.463h-3.672V26.412z"
					/>
			</g>
			<g>
				<radialGradient id="SVGID_5_" cx="36.3764" cy="27.2917" r="1.3715" gradientUnits="userSpaceOnUse">
					<stop  offset="0" style="stop-color:#8CBB69"/>
					<stop  offset="0.7837" style="stop-color:#6BAD44"/>
				</radialGradient>
				<rect x="34.462" y="26.981" fill="url(#SVGID_5_)" width="3.829" height="0.622"/>
				<path d="M38.291,27.682h-3.829c-0.043,0-0.079-0.035-0.079-0.079v-0.622c0-0.044,0.036-0.08,0.079-0.08h3.829
					c0.045,0,0.079,0.036,0.079,0.08v0.622C38.37,27.647,38.336,27.682,38.291,27.682z M34.541,27.523h3.672v-0.464h-3.672V27.523z"
					/>
			</g>
			<g>
				<rect x="28.424" y="13.458" fill="#154B8A" width="1.879" height="1.88"/>
				<path d="M30.303,15.417h-1.879c-0.045,0-0.08-0.035-0.08-0.079v-1.88c0-0.044,0.035-0.08,0.08-0.08h1.879
					c0.044,0,0.08,0.036,0.08,0.08v1.88C30.383,15.382,30.347,15.417,30.303,15.417z M28.502,15.259h1.723v-1.722h-1.723V15.259z"/>
			</g>
			<g>
				<radialGradient id="SVGID_6_" cx="32.6978" cy="14.3982" r="0.9399" gradientUnits="userSpaceOnUse">
					<stop  offset="0" style="stop-color:#8CBB69"/>
					<stop  offset="0.7837" style="stop-color:#6BAD44"/>
				</radialGradient>
				
					<rect x="31.758" y="13.458" fill="url(#SVGID_6_)" stroke="#000000" stroke-linecap="round" stroke-linejoin="round" stroke-miterlimit="10" width="1.88" height="1.88"/>
				<path d="M33.638,15.417h-1.88c-0.043,0-0.078-0.035-0.078-0.079v-1.88c0-0.044,0.035-0.08,0.078-0.08h1.88
					c0.044,0,0.08,0.036,0.08,0.08v1.88C33.718,15.382,33.682,15.417,33.638,15.417z M31.838,15.259h1.721v-1.722h-1.721V15.259z"/>
			</g>
			<g>
				<rect x="35.094" y="13.458" fill="#154B8A" width="1.88" height="1.88"/>
				<path d="M36.974,15.417h-1.88c-0.045,0-0.079-0.035-0.079-0.079v-1.88c0-0.044,0.034-0.08,0.079-0.08h1.88
					c0.044,0,0.079,0.036,0.079,0.08v1.88C37.053,15.382,37.018,15.417,36.974,15.417z M35.173,15.259h1.722v-1.722h-1.722V15.259z"
					/>
			</g>
		</g>
	</g>
</g>
</svg>