<!-- Generator: Adobe Illustrator 17.0.0, SVG Export Plug-In  -->
<svg version="1.1"
	 xmlns="http://www.w3.org/2000/svg" xmlns:xlink="http://www.w3.org/1999/xlink" xmlns:a="http://ns.adobe.com/AdobeSVGViewerExtensions/3.0/"
	 x="0px" y="0px" width="453.756px" height="650.953px" viewBox="0 0 453.756 650.953" enable-background="new 0 0 453.756 650.953"
	 xml:space="preserve">
<defs>
</defs>
<g>
	<rect x="2.2" y="105.924" fill="#E7E6E6" width="379.035" height="280.186"/>
	<rect x="0" y="381.734" fill="#144B8B" width="383.436" height="8.749"/>
	<g>
		<path fill="#366DA3" d="M196.14,101.839c0-2.438-1.98-4.422-4.422-4.422c-2.442,0-4.421,1.983-4.421,4.422
			c0,2.44,1.979,4.424,4.421,4.424C194.159,106.263,196.14,104.279,196.14,101.839z"/>
		<rect x="0" y="101.84" fill="#144B8B" width="383.436" height="8.749"/>
		<polygon fill="#366DA3" points="55.387,110.589 74.605,101.84 306.975,101.84 326.559,110.589 		"/>
	</g>
</g>
<polygon opacity="0.35" fill="#FFFFFF" points="190.086,49.448 21.185,126.233 21.185,365.38 362.185,365.38 362.185,126.233 "/>
<g>
	<path fill="#4D4D4D" d="M243.731,15.992h-45.308V0h-7.461v15.992h-48.032c-7.761,0-14.075,6.314-14.075,14.074v10.899
		c0,6.34,4.217,11.711,9.988,13.466v-3.856c-3.732-1.595-6.355-5.302-6.355-9.609V30.066c0-5.758,4.685-10.441,10.442-10.441
		h100.801c5.758,0,10.442,4.684,10.442,10.441v10.899c0,3.156-1.412,5.982-3.633,7.898v4.411c4.328-2.404,7.266-7.018,7.266-12.309
		V30.066C257.807,22.307,251.492,15.992,243.731,15.992"/>
	<path fill="#E7E6E6" d="M238.283,73.656h-87.18c-6.771,0-12.26-5.489-12.26-12.26V47.774c0-6.771,5.489-12.259,12.26-12.259h87.18
		c6.77,0,12.258,5.488,12.258,12.259v13.622C250.541,68.167,245.053,73.656,238.283,73.656"/>
	<rect x="152.466" y="40.413" width="84.455" height="25.62"/>
	<rect x="152.466" y="40.413" fill="#808080" width="84.455" height="25.62"/>
	<path fill="#59595C" d="M163.895,56.953c0,1.254-1.017,2.271-2.27,2.271c-1.252,0-2.268-1.017-2.268-2.271
		c0-1.254,1.016-2.271,2.268-2.271C162.879,54.683,163.895,55.699,163.895,56.953"/>
	<path fill="#424143" d="M170.707,56.953c0,1.254-1.017,2.271-2.271,2.271c-1.252,0-2.27-1.017-2.27-2.271
		c0-1.254,1.018-2.271,2.27-2.271C169.69,54.683,170.707,55.699,170.707,56.953"/>
	<path fill="#59595C" d="M163.895,50.463c0,1.254-1.017,2.271-2.27,2.271c-1.252,0-2.268-1.017-2.268-2.271
		c0-1.254,1.016-2.27,2.268-2.27C162.879,48.192,163.895,49.209,163.895,50.463"/>
	<path fill="#424143" d="M170.707,50.463c0,1.254-1.017,2.271-2.271,2.271c-1.252,0-2.27-1.017-2.27-2.271
		c0-1.254,1.018-2.27,2.27-2.27C169.69,48.192,170.707,49.209,170.707,50.463"/>
	<path fill="#929497" d="M177.385,56.953c0,1.254-1.016,2.271-2.27,2.271c-1.255,0-2.27-1.017-2.27-2.271
		c0-1.254,1.015-2.271,2.27-2.271C176.369,54.683,177.385,55.699,177.385,56.953"/>
	<path fill="#929497" d="M177.385,50.463c0,1.254-1.016,2.271-2.27,2.271c-1.255,0-2.27-1.017-2.27-2.271
		c0-1.254,1.015-2.27,2.27-2.27C176.369,48.192,177.385,49.209,177.385,50.463"/>
	<path fill="#77BF47" d="M232.383,45.821c0-0.422-0.34-0.764-0.762-0.764c-0.423,0-0.765,0.342-0.765,0.764
		c0,0.422,0.342,0.764,0.765,0.764C232.043,46.585,232.383,46.243,232.383,45.821"/>
	<path fill="#F05C22" d="M232.383,49.448c0-0.421-0.34-0.764-0.762-0.764c-0.423,0-0.765,0.343-0.765,0.764
		c0,0.421,0.342,0.764,0.765,0.764C232.043,50.212,232.383,49.869,232.383,49.448"/>
	<path fill="#E3E2E2" d="M227.724,49.09v-0.133v-3.148h-3.281v3.148v0.133v3.148h3.281V49.09z M227.496,52.012h-2.826v-2.828h2.826
		V52.012z M227.496,48.863h-2.826v-2.828h2.826V48.863z"/>
	<path fill="#E3E2E2" d="M223.777,52.832h4.774v-7.68h-4.774V52.832z M228.325,52.604h-4.321v-7.226h4.321V52.604z"/>
	<circle fill="none" stroke="#E3E2E2" stroke-width="0.17" stroke-miterlimit="10" cx="226.107" cy="50.568" r="0.656"/>
	
		<line fill="none" stroke="#E3E2E2" stroke-width="0.197" stroke-miterlimit="10" x1="226.117" y1="47.009" x2="226.117" y2="48.17"/>
	<path fill="none" stroke="#F1F1F1" stroke-miterlimit="10" d="M201.034,50.856h-14.93c-0.271,0-0.513-0.176-0.592-0.437
		l-1.204-3.868c-0.125-0.398,0.174-0.804,0.592-0.804h16.134c0.343,0,0.619,0.277,0.619,0.619v3.87
		C201.653,50.58,201.377,50.856,201.034,50.856z"/>
	<path fill="none" stroke="#F1F1F1" stroke-miterlimit="10" d="M201.034,59.484h-14.93c-0.271,0-0.513-0.176-0.592-0.437
		l-1.204-3.869c-0.125-0.397,0.174-0.803,0.592-0.803h16.134c0.343,0,0.619,0.276,0.619,0.619v3.87
		C201.653,59.207,201.377,59.484,201.034,59.484z"/>
	<polygon fill="none" stroke="#F1F1F1" stroke-miterlimit="10" points="211.066,47.11 207.907,47.11 207.329,45.748 211.643,45.748 
			"/>
	<polygon fill="none" stroke="#F1F1F1" stroke-miterlimit="10" points="211.066,50.97 207.907,50.97 207.329,49.607 211.643,49.607 
			"/>
	<polygon fill="none" stroke="#F1F1F1" stroke-miterlimit="10" points="211.066,54.716 207.907,54.716 207.329,53.354 
		211.643,53.354 	"/>
	<polygon fill="none" stroke="#F1F1F1" stroke-miterlimit="10" points="211.066,58.349 207.907,58.349 207.329,56.986 
		211.643,56.986 	"/>
</g>
<g>
	<g>
		<path fill="#144B8B" d="M197.638,420.418c-2.513,0-4.846,1.122-6.405,3.087c-2.803,3.527-2.215,8.683,1.316,11.48
			c1.457,1.163,3.216,1.776,5.076,1.776c2.514,0,4.846-1.124,6.405-3.088c2.801-3.527,2.215-8.681-1.313-11.48
			C201.257,421.031,199.498,420.418,197.638,420.418"/>
		<radialGradient id="SVGID_1_" cx="197.6389" cy="428.5894" r="26.6461" gradientUnits="userSpaceOnUse">
			<stop  offset="0" style="stop-color:#8CBB69"/>
			<stop  offset="0.7837" style="stop-color:#6BAD44"/>
		</radialGradient>
		<path fill="url(#SVGID_1_)" d="M197.625,455.238c-5.992,0-11.879-2.057-16.568-5.786c-11.505-9.14-13.428-25.935-4.292-37.439
			c5.09-6.401,12.695-10.073,20.873-10.073c5.992,0,11.874,2.057,16.569,5.787c5.572,4.427,9.088,10.758,9.896,17.831
			c0.389,3.367,0.142,6.709-0.725,9.943c-0.54,2.014-1.322,3.97-2.325,5.806c-0.464,0.847-1.523,1.159-2.372,0.696
			c-0.852-0.461-1.161-1.522-0.7-2.371c0.87-1.597,1.552-3.288,2.02-5.037c0.754-2.808,0.963-5.712,0.63-8.64
			c-0.703-6.143-3.758-11.647-8.6-15.49c-4.08-3.242-9.191-5.025-14.394-5.025c-7.108,0-13.716,3.189-18.132,8.748
			c-7.94,9.993-6.27,24.584,3.725,32.523c4.08,3.244,9.193,5.025,14.395,5.025c0.967,0,1.746,0.785,1.746,1.751
			C199.371,454.453,198.592,455.238,197.625,455.238"/>
		<radialGradient id="SVGID_2_" cx="197.6378" cy="428.5894" r="18.7759" gradientUnits="userSpaceOnUse">
			<stop  offset="0" style="stop-color:#8CBB69"/>
			<stop  offset="0.7837" style="stop-color:#6BAD44"/>
		</radialGradient>
		<path fill="url(#SVGID_2_)" d="M197.625,447.367c-4.222,0-8.365-1.448-11.674-4.076c-8.104-6.44-9.461-18.278-3.018-26.382
			c3.58-4.51,8.94-7.098,14.705-7.098c4.219,0,8.371,1.449,11.674,4.073c3.925,3.122,6.407,7.585,6.977,12.57
			c0.283,2.489,0.08,4.962-0.606,7.344c-0.27,0.925-1.238,1.46-2.166,1.193c-0.93-0.27-1.461-1.237-1.195-2.161
			c0.557-1.939,0.721-3.948,0.49-5.981c-0.465-4.054-2.479-7.683-5.674-10.224c-2.691-2.14-6.064-3.316-9.499-3.316
			c-4.69,0-9.056,2.104-11.971,5.775c-5.239,6.596-4.137,16.225,2.459,21.467c2.691,2.142,6.064,3.316,9.499,3.316
			c0.967,0,1.746,0.783,1.746,1.75C199.371,446.581,198.592,447.367,197.625,447.367"/>
		<path fill="none" stroke="#FFFFFF" stroke-width="0.115" stroke-miterlimit="10" d="M206.789,428.589
			c0,5.057-4.104,9.156-9.157,9.156c-5.058,0-9.158-4.1-9.158-9.156c0-5.056,4.101-9.158,9.158-9.158
			C202.686,419.431,206.789,423.533,206.789,428.589z"/>
		<radialGradient id="SVGID_3_" cx="197.631" cy="428.5879" r="10.9047" gradientUnits="userSpaceOnUse">
			<stop  offset="0" style="stop-color:#8CBB69"/>
			<stop  offset="0.7837" style="stop-color:#6BAD44"/>
		</radialGradient>
		<path fill="url(#SVGID_3_)" d="M197.625,439.495c-2.45,0-4.857-0.839-6.781-2.367c-4.706-3.739-5.494-10.614-1.75-15.324
			c2.079-2.619,5.195-4.123,8.544-4.123c2.453,0,4.857,0.842,6.778,2.369c4.711,3.742,5.494,10.615,1.754,15.325
			C204.09,437.993,200.975,439.495,197.625,439.495 M197.638,421.18c-2.28,0-4.393,1.019-5.809,2.799
			c-2.54,3.199-2.006,7.87,1.194,10.41c1.323,1.05,2.915,1.61,4.602,1.61c2.276,0,4.393-1.02,5.809-2.801
			c2.538-3.197,2.007-7.866-1.191-10.41C200.917,421.736,199.326,421.18,197.638,421.18"/>
		<g>
			<path fill="#FFFFFF" d="M209.069,460.478c2.479,0,4.49-2.014,4.49-4.496v-11.489c0-3.352-2.716-6.064-6.065-6.064l-6.141-0.013
				v-8.985c0-1.895-1.475-3.51-3.373-3.579c-1.985-0.07-3.623,1.523-3.623,3.498v15.695l-0.917-1.912
				c-0.499-1.042-1.442-1.634-2.414-1.634c-0.452,0-0.903,0.125-1.323,0.386c-1.334,0.837-1.824,2.748-1.092,4.272
				c0,0,3.027,7.087,5.189,11.726c0.733,1.584,2.321,2.597,4.069,2.597H209.069z"/>
			<path fill="none" stroke="#000000" stroke-width="1.714" stroke-miterlimit="10" d="M209.069,460.478
				c2.479,0,4.49-2.014,4.49-4.496v-11.489c0-3.352-2.716-6.064-6.065-6.064l-6.141-0.013v-8.985c0-1.895-1.475-3.51-3.373-3.579
				c-1.985-0.07-3.623,1.523-3.623,3.498v15.695l-0.917-1.912c-0.499-1.042-1.442-1.634-2.414-1.634
				c-0.452,0-0.903,0.125-1.323,0.386c-1.334,0.837-1.824,2.748-1.092,4.272c0,0,3.027,7.087,5.189,11.726
				c0.733,1.584,2.321,2.597,4.069,2.597H209.069z"/>
		</g>
	</g>
	<g>
		<path d="M131.932,480.504l1.618,0.408c-0.34,1.329-0.949,2.342-1.831,3.04c-0.881,0.697-1.958,1.046-3.23,1.046
			c-1.318,0-2.39-0.268-3.215-0.805c-0.826-0.536-1.454-1.313-1.885-2.33s-0.646-2.11-0.646-3.277c0-1.273,0.243-2.384,0.729-3.332
			c0.486-0.947,1.179-1.667,2.076-2.159c0.898-0.492,1.887-0.738,2.965-0.738c1.223,0,2.252,0.312,3.086,0.934
			c0.834,0.623,1.414,1.499,1.742,2.627l-1.593,0.376c-0.283-0.89-0.694-1.537-1.233-1.943c-0.54-0.406-1.218-0.608-2.035-0.608
			c-0.939,0-1.725,0.225-2.355,0.675c-0.632,0.45-1.075,1.055-1.33,1.814c-0.256,0.759-0.384,1.541-0.384,2.347
			c0,1.04,0.151,1.947,0.454,2.723s0.774,1.355,1.414,1.739c0.639,0.384,1.331,0.575,2.076,0.575c0.906,0,1.673-0.262,2.302-0.784
			C131.284,482.308,131.709,481.532,131.932,480.504z"/>
		<path d="M134.822,484.79v-12.225h1.501v12.225H134.822z"/>
		<path d="M138.162,474.291v-1.726h1.501v1.726H138.162z M138.162,484.79v-8.856h1.501v8.856H138.162z"/>
		<path d="M147.231,481.546l1.477,0.192c-0.161,1.017-0.574,1.813-1.238,2.389c-0.665,0.575-1.48,0.863-2.447,0.863
			c-1.213,0-2.187-0.396-2.923-1.188c-0.737-0.792-1.105-1.928-1.105-3.406c0-0.956,0.158-1.793,0.476-2.51
			c0.316-0.718,0.799-1.256,1.446-1.614c0.648-0.358,1.353-0.538,2.114-0.538c0.962,0,1.748,0.244,2.36,0.73
			c0.611,0.486,1.003,1.177,1.176,2.072l-1.46,0.225c-0.139-0.595-0.385-1.042-0.737-1.343c-0.354-0.3-0.78-0.45-1.28-0.45
			c-0.756,0-1.37,0.271-1.843,0.813s-0.709,1.399-0.709,2.572c0,1.189,0.228,2.055,0.684,2.594s1.051,0.809,1.784,0.809
			c0.59,0,1.082-0.181,1.477-0.542S147.126,482.297,147.231,481.546z"/>
		<path d="M153.145,482.147l1.484-0.233c0.083,0.595,0.315,1.051,0.696,1.367c0.381,0.317,0.913,0.476,1.597,0.476
			c0.689,0,1.201-0.141,1.534-0.421c0.334-0.28,0.501-0.61,0.501-0.988c0-0.339-0.147-0.605-0.442-0.801
			c-0.205-0.133-0.717-0.303-1.534-0.509c-1.101-0.277-1.864-0.518-2.289-0.721c-0.426-0.203-0.748-0.484-0.968-0.843
			s-0.329-0.755-0.329-1.188c0-0.395,0.091-0.76,0.271-1.096c0.181-0.337,0.427-0.616,0.737-0.839
			c0.233-0.172,0.552-0.317,0.955-0.438c0.403-0.119,0.835-0.18,1.297-0.18c0.695,0,1.305,0.101,1.83,0.301s0.913,0.471,1.164,0.813
			c0.25,0.343,0.422,0.8,0.517,1.372l-1.468,0.2c-0.066-0.456-0.26-0.812-0.579-1.067c-0.32-0.256-0.771-0.384-1.355-0.384
			c-0.689,0-1.182,0.114-1.476,0.342c-0.295,0.229-0.442,0.495-0.442,0.801c0,0.194,0.062,0.37,0.184,0.525
			c0.122,0.161,0.313,0.295,0.575,0.4c0.15,0.056,0.592,0.184,1.326,0.384c1.062,0.283,1.803,0.516,2.222,0.696
			c0.42,0.181,0.75,0.443,0.988,0.788c0.239,0.345,0.359,0.772,0.359,1.284c0,0.5-0.146,0.972-0.438,1.413
			c-0.292,0.442-0.713,0.784-1.263,1.025c-0.551,0.242-1.174,0.363-1.868,0.363c-1.151,0-2.028-0.239-2.631-0.717
			C153.697,483.795,153.312,483.086,153.145,482.147z"/>
		<path d="M161.231,480.362c0-1.641,0.455-2.855,1.367-3.645c0.762-0.656,1.69-0.984,2.785-0.984c1.218,0,2.213,0.399,2.985,1.197
			s1.159,1.899,1.159,3.307c0,1.14-0.171,2.036-0.513,2.688c-0.342,0.653-0.84,1.161-1.493,1.522s-1.366,0.542-2.139,0.542
			c-1.239,0-2.242-0.397-3.006-1.192C161.613,483.003,161.231,481.857,161.231,480.362z M162.773,480.362
			c0,1.134,0.248,1.983,0.742,2.547c0.495,0.564,1.118,0.847,1.868,0.847c0.745,0,1.365-0.283,1.859-0.851
			c0.495-0.567,0.742-1.432,0.742-2.594c0-1.095-0.248-1.925-0.746-2.488c-0.497-0.564-1.116-0.847-1.855-0.847
			c-0.75,0-1.373,0.28-1.868,0.842C163.021,478.38,162.773,479.228,162.773,480.362z"/>
		<path d="M172.177,484.79h-1.393v-12.225h1.501v4.361c0.634-0.795,1.443-1.193,2.427-1.193c0.545,0,1.061,0.11,1.547,0.33
			s0.887,0.528,1.201,0.926c0.313,0.397,0.56,0.877,0.738,1.438c0.178,0.562,0.267,1.161,0.267,1.801c0,1.518-0.375,2.69-1.126,3.52
			c-0.75,0.828-1.651,1.242-2.702,1.242c-1.045,0-1.865-0.437-2.46-1.31V484.79z M172.16,480.295c0,1.063,0.145,1.829,0.434,2.302
			c0.473,0.773,1.112,1.159,1.918,1.159c0.656,0,1.224-0.285,1.701-0.854c0.479-0.57,0.718-1.419,0.718-2.548
			c0-1.156-0.229-2.01-0.688-2.56c-0.459-0.551-1.013-0.826-1.663-0.826c-0.656,0-1.224,0.285-1.701,0.855
			C172.399,478.393,172.16,479.217,172.16,480.295z"/>
		<path d="M179.779,484.79v-8.856h1.351v1.343c0.345-0.628,0.663-1.042,0.955-1.242s0.612-0.301,0.963-0.301
			c0.506,0,1.021,0.162,1.543,0.484l-0.518,1.393c-0.366-0.217-0.733-0.325-1.101-0.325c-0.328,0-0.622,0.099-0.884,0.296
			s-0.447,0.471-0.559,0.821c-0.167,0.533-0.25,1.117-0.25,1.751v4.637H179.779z"/>
		<path d="M191.051,481.939l1.551,0.191c-0.244,0.906-0.697,1.609-1.359,2.109c-0.661,0.501-1.507,0.751-2.535,0.751
			c-1.295,0-2.322-0.398-3.081-1.196s-1.139-1.917-1.139-3.356c0-1.49,0.384-2.646,1.151-3.47c0.767-0.822,1.762-1.234,2.985-1.234
			c1.184,0,2.151,0.403,2.902,1.21c0.75,0.806,1.125,1.939,1.125,3.402c0,0.089-0.003,0.222-0.008,0.399h-6.604
			c0.056,0.974,0.33,1.719,0.825,2.235s1.112,0.775,1.852,0.775c0.55,0,1.02-0.145,1.409-0.434
			C190.514,483.033,190.822,482.572,191.051,481.939z M186.122,479.512h4.945c-0.066-0.745-0.256-1.304-0.567-1.677
			c-0.478-0.578-1.098-0.867-1.859-0.867c-0.689,0-1.269,0.231-1.738,0.692C186.432,478.122,186.172,478.738,186.122,479.512z"/>
		<path d="M204.019,481.546l1.477,0.192c-0.161,1.017-0.574,1.813-1.238,2.389c-0.665,0.575-1.48,0.863-2.447,0.863
			c-1.213,0-2.187-0.396-2.923-1.188c-0.737-0.792-1.105-1.928-1.105-3.406c0-0.956,0.158-1.793,0.476-2.51
			c0.316-0.718,0.799-1.256,1.446-1.614c0.648-0.358,1.353-0.538,2.114-0.538c0.962,0,1.748,0.244,2.36,0.73
			c0.611,0.486,1.003,1.177,1.176,2.072l-1.46,0.225c-0.139-0.595-0.385-1.042-0.737-1.343c-0.354-0.3-0.78-0.45-1.28-0.45
			c-0.756,0-1.37,0.271-1.843,0.813s-0.709,1.399-0.709,2.572c0,1.189,0.228,2.055,0.684,2.594s1.051,0.809,1.784,0.809
			c0.59,0,1.082-0.181,1.477-0.542S203.913,482.297,204.019,481.546z"/>
		<path d="M212.062,483.697c-0.556,0.473-1.091,0.807-1.604,1.001c-0.515,0.194-1.066,0.292-1.655,0.292
			c-0.974,0-1.721-0.237-2.243-0.713c-0.523-0.476-0.784-1.083-0.784-1.822c0-0.434,0.099-0.83,0.296-1.188s0.456-0.646,0.775-0.863
			s0.68-0.38,1.08-0.491c0.295-0.078,0.739-0.153,1.334-0.226c1.212-0.145,2.104-0.316,2.677-0.517
			c0.006-0.206,0.009-0.337,0.009-0.393c0-0.611-0.142-1.042-0.426-1.292c-0.383-0.34-0.953-0.509-1.709-0.509
			c-0.706,0-1.228,0.124-1.563,0.371c-0.337,0.247-0.585,0.685-0.746,1.313l-1.468-0.2c0.133-0.628,0.353-1.136,0.658-1.522
			c0.306-0.386,0.748-0.684,1.326-0.892c0.578-0.209,1.248-0.313,2.01-0.313c0.756,0,1.37,0.09,1.843,0.268s0.82,0.401,1.042,0.671
			c0.223,0.27,0.379,0.61,0.468,1.021c0.05,0.256,0.074,0.718,0.074,1.385v2.001c0,1.396,0.032,2.278,0.097,2.647
			c0.063,0.37,0.19,0.725,0.379,1.063h-1.567C212.207,484.479,212.107,484.114,212.062,483.697z M211.937,480.346
			c-0.545,0.222-1.361,0.411-2.451,0.566c-0.617,0.089-1.054,0.189-1.31,0.301s-0.453,0.273-0.592,0.487s-0.209,0.452-0.209,0.713
			c0,0.4,0.151,0.734,0.455,1.001c0.303,0.267,0.746,0.4,1.33,0.4c0.578,0,1.092-0.127,1.543-0.38
			c0.45-0.253,0.78-0.599,0.992-1.038c0.161-0.339,0.241-0.839,0.241-1.501V480.346z"/>
		<path d="M221.032,484.79v-1.117c-0.562,0.878-1.387,1.317-2.477,1.317c-0.706,0-1.354-0.194-1.947-0.584
			c-0.592-0.389-1.051-0.933-1.376-1.63c-0.325-0.698-0.487-1.5-0.487-2.406c0-0.884,0.147-1.686,0.441-2.405
			c0.295-0.721,0.737-1.272,1.326-1.655c0.589-0.384,1.248-0.576,1.977-0.576c0.533,0,1.009,0.113,1.426,0.338
			c0.417,0.226,0.756,0.519,1.018,0.88v-4.386h1.492v12.225H221.032z M216.287,480.37c0,1.135,0.239,1.982,0.718,2.544
			c0.478,0.562,1.042,0.842,1.692,0.842c0.656,0,1.214-0.268,1.672-0.805c0.459-0.536,0.688-1.355,0.688-2.456
			c0-1.212-0.233-2.102-0.7-2.668c-0.468-0.567-1.043-0.851-1.727-0.851c-0.667,0-1.225,0.272-1.672,0.817
			S216.287,479.197,216.287,480.37z"/>
		<path d="M230.068,483.697c-0.556,0.473-1.091,0.807-1.604,1.001c-0.515,0.194-1.066,0.292-1.655,0.292
			c-0.974,0-1.721-0.237-2.243-0.713c-0.523-0.476-0.784-1.083-0.784-1.822c0-0.434,0.099-0.83,0.296-1.188s0.456-0.646,0.775-0.863
			s0.68-0.38,1.08-0.491c0.295-0.078,0.739-0.153,1.334-0.226c1.212-0.145,2.104-0.316,2.677-0.517
			c0.006-0.206,0.009-0.337,0.009-0.393c0-0.611-0.142-1.042-0.426-1.292c-0.383-0.34-0.953-0.509-1.709-0.509
			c-0.706,0-1.228,0.124-1.563,0.371c-0.337,0.247-0.585,0.685-0.746,1.313l-1.468-0.2c0.133-0.628,0.353-1.136,0.658-1.522
			c0.306-0.386,0.748-0.684,1.326-0.892c0.578-0.209,1.248-0.313,2.01-0.313c0.756,0,1.37,0.09,1.843,0.268s0.82,0.401,1.042,0.671
			c0.223,0.27,0.379,0.61,0.468,1.021c0.05,0.256,0.074,0.718,0.074,1.385v2.001c0,1.396,0.032,2.278,0.097,2.647
			c0.063,0.37,0.19,0.725,0.379,1.063h-1.567C230.213,484.479,230.113,484.114,230.068,483.697z M229.943,480.346
			c-0.545,0.222-1.361,0.411-2.451,0.566c-0.617,0.089-1.054,0.189-1.31,0.301s-0.453,0.273-0.592,0.487s-0.209,0.452-0.209,0.713
			c0,0.4,0.151,0.734,0.455,1.001c0.303,0.267,0.746,0.4,1.33,0.4c0.578,0,1.092-0.127,1.543-0.38
			c0.45-0.253,0.78-0.599,0.992-1.038c0.161-0.339,0.241-0.839,0.241-1.501V480.346z"/>
		<path d="M238.926,484.79h-1.393v-12.225h1.501v4.361c0.634-0.795,1.443-1.193,2.427-1.193c0.545,0,1.061,0.11,1.547,0.33
			s0.887,0.528,1.201,0.926c0.313,0.397,0.56,0.877,0.738,1.438c0.178,0.562,0.267,1.161,0.267,1.801c0,1.518-0.375,2.69-1.126,3.52
			c-0.75,0.828-1.651,1.242-2.702,1.242c-1.045,0-1.865-0.437-2.46-1.31V484.79z M238.909,480.295c0,1.063,0.145,1.829,0.434,2.302
			c0.473,0.773,1.112,1.159,1.918,1.159c0.656,0,1.224-0.285,1.701-0.854c0.479-0.57,0.718-1.419,0.718-2.548
			c0-1.156-0.229-2.01-0.688-2.56c-0.459-0.551-1.013-0.826-1.663-0.826c-0.656,0-1.224,0.285-1.701,0.855
			C239.148,478.393,238.909,479.217,238.909,480.295z"/>
		<path d="M245.986,480.362c0-1.641,0.455-2.855,1.367-3.645c0.762-0.656,1.69-0.984,2.785-0.984c1.218,0,2.213,0.399,2.985,1.197
			s1.159,1.899,1.159,3.307c0,1.14-0.171,2.036-0.513,2.688c-0.342,0.653-0.84,1.161-1.493,1.522s-1.366,0.542-2.139,0.542
			c-1.239,0-2.242-0.397-3.006-1.192C246.368,483.003,245.986,481.857,245.986,480.362z M247.528,480.362
			c0,1.134,0.248,1.983,0.742,2.547c0.495,0.564,1.118,0.847,1.868,0.847c0.745,0,1.365-0.283,1.859-0.851
			c0.495-0.567,0.742-1.432,0.742-2.594c0-1.095-0.248-1.925-0.746-2.488c-0.497-0.564-1.116-0.847-1.855-0.847
			c-0.75,0-1.373,0.28-1.868,0.842C247.776,478.38,247.528,479.228,247.528,480.362z"/>
		<path d="M258.825,483.447l0.217,1.326c-0.423,0.089-0.801,0.134-1.135,0.134c-0.545,0-0.967-0.087-1.268-0.259
			c-0.3-0.173-0.511-0.399-0.634-0.68c-0.122-0.281-0.183-0.871-0.183-1.772v-5.095h-1.102v-1.168h1.102v-2.192l1.492-0.901v3.094
			h1.51v1.168h-1.51v5.179c0,0.428,0.026,0.703,0.079,0.825s0.139,0.22,0.259,0.292c0.119,0.072,0.29,0.108,0.513,0.108
			C258.333,483.506,258.553,483.486,258.825,483.447z"/>
		<path d="M259.239,480.362c0-1.641,0.455-2.855,1.367-3.645c0.762-0.656,1.69-0.984,2.785-0.984c1.218,0,2.213,0.399,2.985,1.197
			s1.159,1.899,1.159,3.307c0,1.14-0.171,2.036-0.513,2.688c-0.342,0.653-0.84,1.161-1.493,1.522s-1.366,0.542-2.139,0.542
			c-1.239,0-2.242-0.397-3.006-1.192C259.621,483.003,259.239,481.857,259.239,480.362z M260.781,480.362
			c0,1.134,0.248,1.983,0.742,2.547c0.495,0.564,1.118,0.847,1.868,0.847c0.745,0,1.365-0.283,1.859-0.851
			c0.495-0.567,0.742-1.432,0.742-2.594c0-1.095-0.248-1.925-0.746-2.488c-0.497-0.564-1.116-0.847-1.855-0.847
			c-0.75,0-1.373,0.28-1.868,0.842C261.029,478.38,260.781,479.228,260.781,480.362z M262.558,474.833l1.109-2.335h1.968
			l-1.834,2.335H262.558z"/>
		<path d="M268.801,484.79v-8.856h1.351v1.26c0.65-0.973,1.59-1.46,2.818-1.46c0.534,0,1.024,0.097,1.473,0.288
			c0.447,0.191,0.782,0.443,1.005,0.755c0.222,0.312,0.378,0.681,0.467,1.109c0.056,0.277,0.083,0.764,0.083,1.459v5.445h-1.501
			v-5.387c0-0.611-0.059-1.069-0.175-1.372c-0.117-0.303-0.324-0.545-0.621-0.726c-0.298-0.181-0.646-0.271-1.047-0.271
			c-0.64,0-1.191,0.202-1.655,0.608c-0.465,0.406-0.696,1.176-0.696,2.31v4.837H268.801z"/>
		<path d="M123.258,508.678v-12.25h1.367v1.151c0.322-0.45,0.687-0.788,1.093-1.014c0.405-0.225,0.897-0.338,1.476-0.338
			c0.756,0,1.424,0.195,2.002,0.584c0.578,0.39,1.015,0.938,1.309,1.647c0.295,0.709,0.442,1.485,0.442,2.33
			c0,0.906-0.163,1.723-0.488,2.448s-0.798,1.281-1.417,1.667c-0.62,0.387-1.272,0.58-1.956,0.58c-0.5,0-0.949-0.105-1.347-0.317
			c-0.397-0.211-0.724-0.478-0.979-0.8v4.311H123.258z M124.617,500.906c0,1.14,0.23,1.981,0.691,2.526
			c0.462,0.545,1.021,0.817,1.677,0.817c0.667,0,1.238-0.282,1.714-0.847c0.475-0.563,0.713-1.438,0.713-2.622
			c0-1.129-0.232-1.974-0.696-2.535c-0.465-0.562-1.02-0.843-1.664-0.843c-0.64,0-1.205,0.3-1.697,0.896
			C124.863,498.897,124.617,499.767,124.617,500.906z"/>
		<path d="M138.039,504.191c-0.556,0.473-1.091,0.807-1.604,1.001c-0.515,0.194-1.066,0.292-1.655,0.292
			c-0.974,0-1.721-0.237-2.243-0.713c-0.523-0.476-0.784-1.083-0.784-1.822c0-0.434,0.099-0.83,0.296-1.188s0.456-0.646,0.775-0.863
			s0.68-0.38,1.08-0.491c0.295-0.078,0.739-0.153,1.334-0.226c1.212-0.145,2.104-0.316,2.677-0.517
			c0.006-0.206,0.009-0.337,0.009-0.393c0-0.611-0.142-1.042-0.426-1.292c-0.383-0.34-0.953-0.509-1.709-0.509
			c-0.706,0-1.228,0.124-1.563,0.371c-0.337,0.247-0.585,0.685-0.746,1.313l-1.468-0.2c0.133-0.628,0.353-1.136,0.658-1.522
			c0.306-0.386,0.748-0.684,1.326-0.892c0.578-0.209,1.248-0.313,2.01-0.313c0.756,0,1.37,0.09,1.843,0.268s0.82,0.401,1.042,0.671
			c0.223,0.27,0.379,0.61,0.468,1.021c0.05,0.256,0.074,0.718,0.074,1.385v2.001c0,1.396,0.032,2.278,0.097,2.647
			c0.063,0.37,0.19,0.725,0.379,1.063h-1.567C138.184,504.973,138.084,504.608,138.039,504.191z M137.914,500.84
			c-0.545,0.222-1.361,0.411-2.451,0.566c-0.617,0.089-1.054,0.189-1.31,0.301s-0.453,0.273-0.592,0.487s-0.209,0.452-0.209,0.713
			c0,0.4,0.151,0.734,0.455,1.001c0.303,0.267,0.746,0.4,1.33,0.4c0.578,0,1.092-0.127,1.543-0.38
			c0.45-0.253,0.78-0.599,0.992-1.038c0.161-0.339,0.241-0.839,0.241-1.501V500.84z"/>
		<path d="M141.247,505.284v-8.856h1.351v1.343c0.345-0.628,0.663-1.042,0.955-1.242s0.612-0.301,0.963-0.301
			c0.506,0,1.021,0.162,1.543,0.484l-0.518,1.393c-0.366-0.217-0.733-0.325-1.101-0.325c-0.328,0-0.622,0.099-0.884,0.296
			s-0.447,0.471-0.559,0.821c-0.167,0.533-0.25,1.117-0.25,1.751v4.637H141.247z"/>
		<path d="M152.234,504.191c-0.556,0.473-1.091,0.807-1.604,1.001c-0.515,0.194-1.066,0.292-1.655,0.292
			c-0.974,0-1.721-0.237-2.243-0.713c-0.523-0.476-0.784-1.083-0.784-1.822c0-0.434,0.099-0.83,0.296-1.188s0.456-0.646,0.775-0.863
			s0.68-0.38,1.08-0.491c0.295-0.078,0.739-0.153,1.334-0.226c1.212-0.145,2.104-0.316,2.677-0.517
			c0.006-0.206,0.009-0.337,0.009-0.393c0-0.611-0.142-1.042-0.426-1.292c-0.383-0.34-0.953-0.509-1.709-0.509
			c-0.706,0-1.228,0.124-1.563,0.371c-0.337,0.247-0.585,0.685-0.746,1.313l-1.468-0.2c0.133-0.628,0.353-1.136,0.658-1.522
			c0.306-0.386,0.748-0.684,1.326-0.892c0.578-0.209,1.248-0.313,2.01-0.313c0.756,0,1.37,0.09,1.843,0.268s0.82,0.401,1.042,0.671
			c0.223,0.27,0.379,0.61,0.468,1.021c0.05,0.256,0.074,0.718,0.074,1.385v2.001c0,1.396,0.032,2.278,0.097,2.647
			c0.063,0.37,0.19,0.725,0.379,1.063h-1.567C152.379,504.973,152.279,504.608,152.234,504.191z M152.109,500.84
			c-0.545,0.222-1.361,0.411-2.451,0.566c-0.617,0.089-1.054,0.189-1.31,0.301s-0.453,0.273-0.592,0.487s-0.209,0.452-0.209,0.713
			c0,0.4,0.151,0.734,0.455,1.001c0.303,0.267,0.746,0.4,1.33,0.4c0.578,0,1.092-0.127,1.543-0.38
			c0.45-0.253,0.78-0.599,0.992-1.038c0.161-0.339,0.241-0.839,0.241-1.501V500.84z"/>
		<path d="M159.708,505.284v-8.856h1.343v1.243c0.277-0.434,0.647-0.783,1.108-1.047c0.462-0.264,0.987-0.396,1.576-0.396
			c0.656,0,1.194,0.137,1.614,0.409c0.419,0.272,0.715,0.653,0.888,1.143c0.7-1.034,1.612-1.552,2.735-1.552
			c0.878,0,1.554,0.244,2.026,0.73s0.709,1.235,0.709,2.247v6.079h-1.493v-5.579c0-0.601-0.049-1.032-0.146-1.297
			c-0.098-0.264-0.274-0.477-0.529-0.638c-0.256-0.161-0.557-0.241-0.901-0.241c-0.622,0-1.14,0.207-1.551,0.621
			s-0.617,1.077-0.617,1.988v5.146h-1.501v-5.754c0-0.667-0.122-1.168-0.367-1.501c-0.244-0.334-0.645-0.5-1.2-0.5
			c-0.423,0-0.813,0.11-1.172,0.333s-0.618,0.548-0.78,0.976c-0.161,0.429-0.241,1.046-0.241,1.852v4.595H159.708z"/>
		<path d="M179.218,504.191c-0.556,0.473-1.091,0.807-1.604,1.001c-0.515,0.194-1.066,0.292-1.655,0.292
			c-0.974,0-1.721-0.237-2.243-0.713c-0.523-0.476-0.784-1.083-0.784-1.822c0-0.434,0.099-0.83,0.296-1.188s0.456-0.646,0.775-0.863
			s0.68-0.38,1.08-0.491c0.295-0.078,0.739-0.153,1.334-0.226c1.212-0.145,2.104-0.316,2.677-0.517
			c0.006-0.206,0.009-0.337,0.009-0.393c0-0.611-0.142-1.042-0.426-1.292c-0.383-0.34-0.953-0.509-1.709-0.509
			c-0.706,0-1.228,0.124-1.563,0.371c-0.337,0.247-0.585,0.685-0.746,1.313l-1.468-0.2c0.133-0.628,0.353-1.136,0.658-1.522
			c0.306-0.386,0.748-0.684,1.326-0.892c0.578-0.209,1.248-0.313,2.01-0.313c0.756,0,1.37,0.09,1.843,0.268s0.82,0.401,1.042,0.671
			c0.223,0.27,0.379,0.61,0.468,1.021c0.05,0.256,0.074,0.718,0.074,1.385v2.001c0,1.396,0.032,2.278,0.097,2.647
			c0.063,0.37,0.19,0.725,0.379,1.063h-1.567C179.362,504.973,179.263,504.608,179.218,504.191z M179.093,500.84
			c-0.545,0.222-1.361,0.411-2.451,0.566c-0.617,0.089-1.054,0.189-1.31,0.301s-0.453,0.273-0.592,0.487s-0.209,0.452-0.209,0.713
			c0,0.4,0.151,0.734,0.455,1.001c0.303,0.267,0.746,0.4,1.33,0.4c0.578,0,1.092-0.127,1.543-0.38
			c0.45-0.253,0.78-0.599,0.992-1.038c0.161-0.339,0.241-0.839,0.241-1.501V500.84z M176.175,495.327l1.108-2.335h1.969
			l-1.835,2.335H176.175z"/>
		<path d="M181.842,502.641l1.484-0.233c0.083,0.595,0.315,1.051,0.696,1.367c0.381,0.317,0.913,0.476,1.597,0.476
			c0.689,0,1.201-0.141,1.534-0.421c0.334-0.28,0.501-0.61,0.501-0.988c0-0.339-0.147-0.605-0.442-0.801
			c-0.205-0.133-0.717-0.303-1.534-0.509c-1.101-0.277-1.864-0.518-2.289-0.721c-0.426-0.203-0.748-0.484-0.968-0.843
			s-0.329-0.755-0.329-1.188c0-0.395,0.091-0.76,0.271-1.096c0.181-0.337,0.427-0.616,0.737-0.839
			c0.233-0.172,0.552-0.317,0.955-0.438c0.403-0.119,0.835-0.18,1.297-0.18c0.695,0,1.305,0.101,1.83,0.301s0.913,0.471,1.164,0.813
			c0.25,0.343,0.422,0.8,0.517,1.372l-1.468,0.2c-0.066-0.456-0.26-0.812-0.579-1.067c-0.32-0.256-0.771-0.384-1.355-0.384
			c-0.689,0-1.182,0.114-1.476,0.342c-0.295,0.229-0.442,0.495-0.442,0.801c0,0.194,0.062,0.37,0.184,0.525
			c0.122,0.161,0.313,0.295,0.575,0.4c0.15,0.056,0.592,0.184,1.326,0.384c1.062,0.283,1.803,0.516,2.222,0.696
			c0.42,0.181,0.75,0.443,0.988,0.788c0.239,0.345,0.359,0.772,0.359,1.284c0,0.5-0.146,0.972-0.438,1.413
			c-0.292,0.442-0.713,0.784-1.263,1.025c-0.551,0.242-1.174,0.363-1.868,0.363c-1.151,0-2.028-0.239-2.631-0.717
			C182.394,504.289,182.009,503.58,181.842,502.641z"/>
		<path d="M194.744,494.785v-1.726h1.501v1.726H194.744z M194.744,505.284v-8.856h1.501v8.856H194.744z"/>
		<path d="M198.034,505.284v-8.856h1.351v1.26c0.65-0.973,1.59-1.46,2.818-1.46c0.534,0,1.024,0.097,1.473,0.288
			c0.447,0.191,0.782,0.443,1.005,0.755c0.222,0.312,0.378,0.681,0.467,1.109c0.056,0.277,0.083,0.764,0.083,1.459v5.445h-1.501
			v-5.387c0-0.611-0.059-1.069-0.175-1.372c-0.117-0.303-0.324-0.545-0.621-0.726c-0.298-0.181-0.646-0.271-1.047-0.271
			c-0.64,0-1.191,0.202-1.655,0.608c-0.465,0.406-0.696,1.176-0.696,2.31v4.837H198.034z"/>
		<path d="M207.395,505.284v-7.688h-1.326v-1.168h1.326v-0.942c0-0.595,0.053-1.036,0.158-1.325c0.145-0.39,0.399-0.705,0.764-0.946
			c0.363-0.242,0.874-0.363,1.529-0.363c0.423,0,0.89,0.05,1.401,0.15l-0.225,1.309c-0.312-0.055-0.606-0.083-0.885-0.083
			c-0.455,0-0.778,0.098-0.967,0.292c-0.189,0.194-0.284,0.559-0.284,1.093v0.816h1.727v1.168h-1.727v7.688H207.395z"/>
		<path d="M210.728,500.856c0-1.641,0.455-2.855,1.367-3.645c0.762-0.656,1.69-0.984,2.785-0.984c1.218,0,2.213,0.399,2.985,1.197
			s1.159,1.899,1.159,3.307c0,1.14-0.171,2.036-0.513,2.688c-0.342,0.653-0.84,1.161-1.493,1.522s-1.366,0.542-2.139,0.542
			c-1.239,0-2.242-0.397-3.006-1.192C211.11,503.497,210.728,502.352,210.728,500.856z M212.27,500.856
			c0,1.134,0.248,1.983,0.742,2.547c0.495,0.564,1.118,0.847,1.868,0.847c0.745,0,1.365-0.283,1.859-0.851
			c0.495-0.567,0.742-1.432,0.742-2.594c0-1.095-0.248-1.925-0.746-2.488c-0.497-0.564-1.116-0.847-1.855-0.847
			c-0.75,0-1.373,0.28-1.868,0.842C212.519,498.874,212.27,499.722,212.27,500.856z"/>
		<path d="M220.273,505.284v-8.856h1.351v1.343c0.345-0.628,0.663-1.042,0.955-1.242s0.612-0.301,0.963-0.301
			c0.506,0,1.021,0.162,1.543,0.484l-0.518,1.393c-0.366-0.217-0.733-0.325-1.101-0.325c-0.328,0-0.622,0.099-0.884,0.296
			s-0.447,0.471-0.559,0.821c-0.167,0.533-0.25,1.117-0.25,1.751v4.637H220.273z"/>
		<path d="M225.482,505.284v-8.856h1.343v1.243c0.277-0.434,0.647-0.783,1.108-1.047c0.462-0.264,0.987-0.396,1.576-0.396
			c0.656,0,1.194,0.137,1.614,0.409c0.419,0.272,0.715,0.653,0.888,1.143c0.7-1.034,1.612-1.552,2.735-1.552
			c0.878,0,1.554,0.244,2.026,0.73s0.709,1.235,0.709,2.247v6.079h-1.493v-5.579c0-0.601-0.049-1.032-0.146-1.297
			c-0.098-0.264-0.274-0.477-0.529-0.638c-0.256-0.161-0.557-0.241-0.901-0.241c-0.622,0-1.14,0.207-1.551,0.621
			s-0.617,1.077-0.617,1.988v5.146h-1.501v-5.754c0-0.667-0.122-1.168-0.367-1.501c-0.244-0.334-0.645-0.5-1.2-0.5
			c-0.423,0-0.813,0.11-1.172,0.333s-0.618,0.548-0.78,0.976c-0.161,0.429-0.241,1.046-0.241,1.852v4.595H225.482z"/>
		<path d="M244.992,504.191c-0.556,0.473-1.091,0.807-1.604,1.001c-0.515,0.194-1.066,0.292-1.655,0.292
			c-0.974,0-1.721-0.237-2.243-0.713c-0.523-0.476-0.784-1.083-0.784-1.822c0-0.434,0.099-0.83,0.296-1.188s0.456-0.646,0.775-0.863
			s0.68-0.38,1.08-0.491c0.295-0.078,0.739-0.153,1.334-0.226c1.212-0.145,2.104-0.316,2.677-0.517
			c0.006-0.206,0.009-0.337,0.009-0.393c0-0.611-0.142-1.042-0.426-1.292c-0.383-0.34-0.953-0.509-1.709-0.509
			c-0.706,0-1.228,0.124-1.563,0.371c-0.337,0.247-0.585,0.685-0.746,1.313l-1.468-0.2c0.133-0.628,0.353-1.136,0.658-1.522
			c0.306-0.386,0.748-0.684,1.326-0.892c0.578-0.209,1.248-0.313,2.01-0.313c0.756,0,1.37,0.09,1.843,0.268s0.82,0.401,1.042,0.671
			c0.223,0.27,0.379,0.61,0.468,1.021c0.05,0.256,0.074,0.718,0.074,1.385v2.001c0,1.396,0.032,2.278,0.097,2.647
			c0.063,0.37,0.19,0.725,0.379,1.063h-1.567C245.137,504.973,245.037,504.608,244.992,504.191z M244.867,500.84
			c-0.545,0.222-1.361,0.411-2.451,0.566c-0.617,0.089-1.054,0.189-1.31,0.301s-0.453,0.273-0.592,0.487s-0.209,0.452-0.209,0.713
			c0,0.4,0.151,0.734,0.455,1.001c0.303,0.267,0.746,0.4,1.33,0.4c0.578,0,1.092-0.127,1.543-0.38
			c0.45-0.253,0.78-0.599,0.992-1.038c0.161-0.339,0.241-0.839,0.241-1.501V500.84z"/>
		<path d="M253.994,502.04l1.477,0.192c-0.161,1.017-0.574,1.813-1.238,2.389c-0.665,0.575-1.48,0.863-2.447,0.863
			c-1.213,0-2.187-0.396-2.923-1.188c-0.737-0.792-1.105-1.928-1.105-3.406c0-0.956,0.158-1.793,0.476-2.51
			c0.316-0.718,0.799-1.256,1.446-1.614c0.648-0.358,1.353-0.538,2.114-0.538c0.962,0,1.748,0.244,2.36,0.73
			c0.611,0.486,1.003,1.177,1.176,2.072l-1.46,0.225c-0.139-0.595-0.385-1.042-0.737-1.343c-0.354-0.3-0.78-0.45-1.28-0.45
			c-0.756,0-1.37,0.271-1.843,0.813s-0.709,1.399-0.709,2.572c0,1.189,0.228,2.055,0.684,2.594s1.051,0.809,1.784,0.809
			c0.59,0,1.082-0.181,1.477-0.542S253.889,502.791,253.994,502.04z"/>
		<path d="M256.268,494.785v-1.726h1.501v1.726H256.268z M256.268,505.284v-8.856h1.501v8.856H256.268z"/>
		<path d="M259,500.856c0-1.641,0.455-2.855,1.367-3.645c0.762-0.656,1.69-0.984,2.785-0.984c1.218,0,2.213,0.399,2.985,1.197
			s1.159,1.899,1.159,3.307c0,1.14-0.171,2.036-0.513,2.688c-0.342,0.653-0.84,1.161-1.493,1.522s-1.366,0.542-2.139,0.542
			c-1.239,0-2.242-0.397-3.006-1.192C259.382,503.497,259,502.352,259,500.856z M260.542,500.856c0,1.134,0.248,1.983,0.742,2.547
			c0.495,0.564,1.118,0.847,1.868,0.847c0.745,0,1.365-0.283,1.859-0.851c0.495-0.567,0.742-1.432,0.742-2.594
			c0-1.095-0.248-1.925-0.746-2.488c-0.497-0.564-1.116-0.847-1.855-0.847c-0.75,0-1.373,0.28-1.868,0.842
			C260.79,498.874,260.542,499.722,260.542,500.856z M262.318,495.327l1.109-2.335h1.968l-1.834,2.335H262.318z"/>
		<path d="M268.561,505.284v-8.856h1.351v1.26c0.65-0.973,1.59-1.46,2.818-1.46c0.534,0,1.024,0.097,1.473,0.288
			c0.447,0.191,0.782,0.443,1.005,0.755c0.222,0.312,0.378,0.681,0.467,1.109c0.056,0.277,0.083,0.764,0.083,1.459v5.445h-1.501
			v-5.387c0-0.611-0.059-1.069-0.175-1.372c-0.117-0.303-0.324-0.545-0.621-0.726c-0.298-0.181-0.646-0.271-1.047-0.271
			c-0.64,0-1.191,0.202-1.655,0.608c-0.465,0.406-0.696,1.176-0.696,2.31v4.837H268.561z"/>
	</g>
</g>
<g>
	<g>
		<g>
			
				<image overflow="visible" width="977" height="570" xlink:href="39CD3530.png"  transform="matrix(0.3065 0 0 0.3575 44.9853 144.1367)">
			</image>
			<g>
				
					<rect x="53.894" y="152.362" fill="#FFFFFF" stroke="#000000" stroke-width="2" stroke-linejoin="round" stroke-miterlimit="10" width="281.597" height="16.362"/>
				<g>
					<path d="M326.853,161.773h-8.052c-0.679,0-1.229-0.549-1.229-1.227c0-0.682,0.551-1.23,1.229-1.23h8.052
						c0.679,0,1.23,0.549,1.23,1.23C328.083,161.224,327.532,161.773,326.853,161.773z"/>
				</g>
				<g>
					<radialGradient id="SVGID_4_" cx="309.5073" cy="160.5444" r="5.4673" gradientUnits="userSpaceOnUse">
						<stop  offset="0" style="stop-color:#8CBB69"/>
						<stop  offset="0.7837" style="stop-color:#6BAD44"/>
					</radialGradient>
					<path fill="url(#SVGID_4_)" d="M309.508,166.011c-3.016,0-5.469-2.451-5.469-5.465c0-3.018,2.453-5.468,5.469-5.468
						c3.015,0,5.468,2.449,5.468,5.468C314.975,163.56,312.522,166.011,309.508,166.011z M309.508,157.537
						c-1.659,0-3.009,1.349-3.009,3.009c0,1.658,1.35,3.006,3.009,3.006c1.658,0,3.008-1.348,3.008-3.006
						C312.516,158.886,311.166,157.537,309.508,157.537z"/>
				</g>
			</g>
			<g>
				<path fill="#FFFFFF" stroke="#000000" stroke-width="2" stroke-linejoin="round" stroke-miterlimit="10" d="M335.491,334.563
					c0,1.276-1.035,2.313-2.312,2.313H56.206c-1.276,0-2.312-1.036-2.312-2.313V170.354c0-1.277,1.035-2.313,2.312-2.313H333.18
					c1.276,0,2.312,1.035,2.312,2.313V334.563z"/>
			</g>
		</g>
	</g>
</g>
<g>
	<defs>
		<rect id="SVGID_5_" x="177.385" y="118.793" width="276.371" height="439.93"/>
	</defs>
	<clipPath id="SVGID_6_">
		<use xlink:href="#SVGID_5_"  overflow="visible"/>
	</clipPath>
	<g clip-path="url(#SVGID_6_)">
		<path fill="#E4BCA7" d="M244.279,385.127c0,0-7.977-7.268-12.91-8.494c-4.934-1.227-9.014-2.342-11.199-5.481
			c-2.188-3.141-10.211-12.707-11.235-15.295c-1.025-2.588,1.034-12.184,1.562-14.493c0.529-2.311,3.877,1.381,3.28,4.71
			c-0.595,3.329-0.235,8.874,0.601,9.885c0.836,1.011,4.04,5.145,6.977,6.015c2.936,0.869,6.73,1.018,10.39,0.412
			c3.659-0.605,11.598-3.378,15.556,2.024c3.957,5.403,2.521,7.266,6.44,10.085C257.66,377.315,244.279,385.127,244.279,385.127"/>
		
			<path fill="none" stroke="#734538" stroke-width="0.941" stroke-linecap="round" stroke-linejoin="round" stroke-miterlimit="10" d="
			M244.279,385.127c0,0-7.977-7.268-12.91-8.494c-4.934-1.227-9.014-2.342-11.199-5.481c-2.188-3.141-10.211-12.707-11.235-15.295
			c-1.025-2.588,1.034-12.184,1.562-14.493c0.529-2.311,3.877,1.381,3.28,4.71c-0.595,3.329-0.235,8.874,0.601,9.885
			c0.836,1.011,4.04,5.145,6.977,6.015c2.936,0.869,6.73,1.018,10.39,0.412c3.659-0.605,11.598-3.378,15.556,2.024
			c3.957,5.403,2.521,7.266,6.44,10.085C257.66,377.315,244.279,385.127,244.279,385.127z"/>
		<path fill="#E4BCA7" d="M252.688,374.607c0,0-2.745-4.5-3.298-7.806c-0.554-3.306-5.192-5.13-6.93-7.995
			c-2.621-4.32-2.152-6.098-2.571-11.226c-0.265-3.24-4.725,0.271-5.058,3.418c-0.374,3.51,0.227,7.483,1.369,9.404
			c1.146,1.925-4.064,1.938-4.064,1.938"/>
		
			<path fill="none" stroke="#734538" stroke-width="0.941" stroke-linecap="round" stroke-linejoin="round" stroke-miterlimit="10" d="
			M252.688,374.607c0,0-2.745-4.5-3.298-7.806c-0.554-3.306-5.192-5.13-6.93-7.995c-2.621-4.32-2.152-6.098-2.571-11.226
			c-0.265-3.24-4.725,0.271-5.058,3.418c-0.374,3.51,0.227,7.483,1.369,9.404c1.146,1.925-4.064,1.938-4.064,1.938"/>
		<path fill="#E4BCA7" d="M221.477,372.218c-3.848-5.069-7.873-9.803-7.73-12.583c0.142-2.781,5.1-11.776,6.316-13.811
			c1.218-2.033,3.26,2.512,1.662,5.494c-1.596,2.981-2.914,8.656-2.572,9.924c0.34,1.268,3.795,4.944,4.887,7.577"/>
		
			<path fill="none" stroke="#734538" stroke-width="0.941" stroke-linecap="round" stroke-linejoin="round" stroke-miterlimit="10" d="
			M221.477,372.218c-3.848-5.069-7.873-9.803-7.73-12.583c0.142-2.781,5.1-11.776,6.316-13.811c1.218-2.033,3.26,2.512,1.662,5.494
			c-1.596,2.981-2.914,8.656-2.572,9.924c0.34,1.268,3.795,4.944,4.887,7.577"/>
		<path fill="#E4BCA7" d="M222.377,373.471c-2.197-2.107-4.557-5.709-5.356-8.376c-0.804-2.666,6.313-13.001,7.758-14.878
			c1.447-1.878,2.942,2.876,1.01,5.649c-1.934,2.775-3.928,7.962-3.591,9.229c0.913,0.872,4.742,4.204,6.679,5.896"/>
		
			<path fill="none" stroke="#734538" stroke-width="0.941" stroke-linecap="round" stroke-linejoin="round" stroke-miterlimit="10" d="
			M222.377,373.471c-2.197-2.107-4.557-5.709-5.356-8.376c-0.804-2.666,6.313-13.001,7.758-14.878
			c1.447-1.878,2.942,2.876,1.01,5.649c-1.934,2.775-3.928,7.962-3.591,9.229c0.913,0.872,4.742,4.204,6.679,5.896"/>
		<path fill="#E4BCA7" d="M223.573,373.394c-1.114-0.346-2.364-1.14-2.226-3.825c0.163-3.102-0.619-6.215-0.306-7.652
			c0.506-2.298,5.868-7.413,7.33-8.781c1.462-1.371,2.063,2.797,0.074,4.849c-1.991,2.053-2.877,3.649-2.768,4.753
			c0.051,0.523,0.753,4.295,1.101,6.009c3.09,0.588,6.782-0.01,9.501,3.154"/>
		
			<path fill="none" stroke="#734538" stroke-width="0.941" stroke-linecap="round" stroke-linejoin="round" stroke-miterlimit="10" d="
			M223.573,373.394c-1.114-0.346-2.364-1.14-2.226-3.825c0.163-3.102-0.619-6.215-0.306-7.652c0.506-2.298,5.868-7.413,7.33-8.781
			c1.462-1.371,2.063,2.797,0.074,4.849c-1.991,2.053-2.877,3.649-2.768,4.753c0.051,0.523,0.753,4.295,1.101,6.009
			c3.09,0.588,6.782-0.01,9.501,3.154"/>
		<path fill="#FFFFFF" d="M242.689,384.336c0,0-0.712-5.789,4.282-9.033c4.994-3.245,5.764-3.526,7.48-2.879
			c1.717,0.647,5.398,5.721,5.398,5.721l-9.686,12.974C250.164,391.118,243.622,386.782,242.689,384.336"/>
		<path fill="none" stroke="#B4B4B5" stroke-width="0.957" stroke-miterlimit="10" d="M242.689,384.336c0,0-0.712-5.789,4.282-9.033
			c4.994-3.245,5.764-3.526,7.48-2.879c1.717,0.647,5.398,5.721,5.398,5.721l-9.686,12.974
			C250.164,391.118,243.622,386.782,242.689,384.336z"/>
		<path opacity="0.2" d="M250.98,390.024l-0.816,1.094c0,0-6.542-4.335-7.476-6.782c0,0-0.533-4.375,2.609-7.651
			C243.948,382.068,245.281,387.147,250.98,390.024"/>
		<path opacity="0.1" d="M257.332,381.515c-2.075-3.784-4.495-6.381-7.594-7.959c2.61-1.57,3.383-1.635,4.714-1.132
			c1.717,0.647,5.398,5.721,5.398,5.721L257.332,381.515z"/>
		<path fill="#FFFFFF" d="M299.447,436.458c2.26-2.46,4.09-5.31,5.556-8.306c1.755-3.583,2.75-7.057,1.874-11.055
			c-0.641-2.926-1.641-5.697-2.778-8.463c-0.009-0.024-0.012-0.044-0.021-0.065c-0.467-0.276-0.943-0.544-1.43-0.8
			c-16.491-8.71-42.799-29.625-42.799-29.625s-3.541-1.948-7.624,2.901c-4.084,4.847-2.061,10.072-2.061,10.072
			c14.071,15.421,27.955,29.052,42.314,42.022C293.535,434.607,298.915,437.039,299.447,436.458"/>
		<path fill="none" stroke="#B4B4B5" stroke-width="0.957" stroke-miterlimit="10" d="M299.447,436.458
			c2.26-2.46,4.09-5.31,5.556-8.306c1.755-3.583,2.75-7.057,1.874-11.055c-0.641-2.926-1.641-5.697-2.778-8.463
			c-0.009-0.024-0.012-0.044-0.021-0.065c-0.467-0.276-0.943-0.544-1.43-0.8c-16.491-8.71-42.799-29.625-42.799-29.625
			s-3.541-1.948-7.624,2.901c-4.084,4.847-2.061,10.072-2.061,10.072c14.071,15.421,27.955,29.052,42.314,42.022
			C293.535,434.607,298.915,437.039,299.447,436.458z"/>
		<path opacity="0.1" d="M306.577,415.902c-0.634-2.488-1.497-4.883-2.478-7.268c-0.009-0.022-0.012-0.044-0.021-0.066
			c-0.467-0.273-0.944-0.54-1.43-0.799c-16.491-8.711-42.799-29.625-42.799-29.625s-2.829-0.736-4.2,0.424
			c13.403,10.479,24.966,21.787,40.084,31.543C298.783,412.388,303.182,413.839,306.577,415.902"/>
		<path opacity="0.2" d="M250.206,388.789c0.062,1.67-0.042,2.329-0.042,2.329c11.564,12.675,26.586,27.507,39.544,39.592
			c-1.796-2.952-3.195-6.175-4.23-9.343C273.97,410.07,262.693,399.061,250.206,388.789"/>
		<path fill="#FFFFFF" d="M292.028,432.823c2.589,2.525,6.564,4.275,10.093,4.858c1.977,0.328,6.602-2.788,6.936-4.38
			c4.314-20.616,13.902-58.011,11.506-74.311c3.126-11.168,8.514-23.811,15.343-37.395c0,0-20.615,4.794-28.767,4.314
			c-8.15-0.479-14.897,8.149-13.939,13.424c0.96,5.273,0.48,29.245-1.438,39.313c-1.162,6.11-0.821,17.866-1.552,29.382"/>
		<path fill="none" stroke="#B4B4B5" stroke-width="0.957" stroke-miterlimit="10" d="M292.028,432.823
			c2.589,2.525,6.564,4.275,10.093,4.858c1.977,0.328,6.602-2.788,6.936-4.38c4.314-20.616,13.902-58.011,11.506-74.311
			c3.126-11.168,8.514-23.811,15.343-37.395c0,0-20.615,4.794-28.767,4.314c-8.15-0.479-14.897,8.149-13.939,13.424
			c0.96,5.273,0.48,29.245-1.438,39.313c-1.162,6.11-0.821,17.866-1.552,29.382"/>
		<path opacity="0.2" d="M319.03,348.044c-4.237-1.988-5.003-0.505-9.51,2.139c6.011,5.783,6.513,8.948,4.045,18.964
			c-0.707,21.635-2.628,47.87-10.087,67.612c1.336,0.205,4.762-1.524,5.115-3.114c9.304-41.677,9.927-65.084,8.471-81.496
			L319.03,348.044z"/>
		<path opacity="0.1" d="M307.139,325.911c-8.15-0.479-14.897,8.149-13.938,13.424c0.959,5.273,0.478,29.245-1.439,39.313
			c-1.286,6.752-0.735,20.398-1.823,32.994c0.368,1.928,0.88,3.854,1.464,5.782c6.553-27.352-0.379-50.871,5.832-79.266
			c0-1.809,0.904-4.523,2.714-5.429c12.024-1.602,22.634-4.624,34.335-7.181l1.622-3.952
			C335.905,321.597,315.29,326.391,307.139,325.911"/>
		<path fill="#144B8B" d="M322.629,646.623c10.135,3.633,21.442,4.369,32.071,4.328c4.084-0.017,12.11-0.354,12.11-0.354
			l11.601-1.144c0,0,17.021-3.38,25.328-7.067c5.234-2.325,10.3-4.972,15.317-7.712c-4.268-21.042-5.637-39.306-4.699-90.348
			c0.783-42.755-11.385-67.9-21.163-88.104c-2.561-5.292-4.979-10.289-6.828-14.993l-0.431-1.118
			c-0.935-2.479-1.652-4.725-2.186-6.871l-0.906-3.629l-2.186,2.009l-0.8,0.604c-6.26,4.743-22.672,6.433-35.943,6.433
			c-4.817,0-7.741-0.236-8.533-0.394c-1.987-0.396-3.076-0.51-4.048-0.428l-16.312-1.956l-0.525,2.119
			c-1.877,7.57-5.517,13.814-9.103,21.421c-6.804,14.432-15.781,32.198-14.568,66.458c1.08,30.657,11.876,61.605,21.4,88.907
			C316.124,625.961,319.886,636.753,322.629,646.623"/>
		<path opacity="0.2" d="M378.411,649.451c0,0,17.021-3.378,25.326-7.066c5.236-2.326,10.302-4.972,15.319-7.712
			c-4.269-21.042-5.637-39.304-4.7-90.348c0.784-42.754-11.385-67.9-21.162-88.105c-0.771-1.591-1.523-3.151-2.257-4.688
			c-13.917,12.926-0.021,20.147-1.875,32.194c-3.164,20.569-7.749,26.775-45.088,35.665c-37.338,8.891,13.034,44.117,23.734,87.088
			c10.702,42.973-32.512,24.9-13.009,44.473c4.084-0.017,12.11-0.353,12.11-0.353L378.411,649.451z"/>
		<path opacity="0.2" d="M306.637,570.952c-9.779-16.889-1.777-37.335,0.89-56.895c4.955-26.435,9.908-51.336,12.726-77.552
			l-5.23-0.625l-0.525,2.116c-1.877,7.57-5.517,13.814-9.103,21.421c-6.804,14.431-15.781,32.197-14.568,66.458
			c1.08,30.657,11.876,61.605,21.4,88.909c3.899,11.175,7.661,21.968,10.404,31.838c5.805,2.079,11.993,3.207,18.217,3.787
			c-0.288-3.669-0.705-7.336-1.316-11.002C334.195,613.628,319.971,594.067,306.637,570.952"/>
		<path fill="#FFFFFF" d="M357.818,317.008c0,0-21.107,4.34-25.842,6.512c-4.734,2.169-10.455,18.74-13.415,28.209
			c-2.958,9.469,83.25,6.314,86.011,2.17c2.762-4.142,5.326-23.87-3.549-28.013C392.145,321.743,370.248,316.417,357.818,317.008"/>
		<path fill="#9F664C" d="M442.755,549.966c0.042,3.039,0.394,10.118-0.084,12.278c-0.476,2.16-6.099,7.56-7.474,8.846
			c-1.375,1.285-1.938-2.633-0.064-4.558c1.871-1.93,4.102-5.737,4-6.775c-0.1-1.039-0.371-5.184-1.918-7.062"/>
		<path fill="none" stroke="#734538" stroke-width="0.941" stroke-miterlimit="10" d="M442.755,549.966
			c0.042,3.039,0.394,10.118-0.084,12.278c-0.476,2.16-6.099,7.56-7.474,8.846c-1.375,1.285-1.938-2.633-0.064-4.558
			c1.871-1.93,4.102-5.737,4-6.775c-0.1-1.039-0.371-5.184-1.918-7.062"/>
		<path fill="#9F664C" d="M446.021,553.161c-0.221,3.589,0.025,10.419-0.73,12.923c-0.754,2.507-7.869,8.375-9.606,9.77
			c-1.738,1.395-2.052-3.28,0.33-5.385c2.381-2.104,5.354-6.401,5.327-7.634c-0.027-1.234,0.024-6.149-1.634-8.504"/>
		<path fill="none" stroke="#734538" stroke-width="0.941" stroke-miterlimit="10" d="M446.021,553.161
			c-0.221,3.589,0.025,10.419-0.73,12.923c-0.754,2.507-7.869,8.375-9.606,9.77c-1.738,1.395-2.052-3.28,0.33-5.385
			c2.381-2.104,5.354-6.401,5.327-7.634c-0.027-1.234,0.024-6.149-1.634-8.504"/>
		<path fill="#9F664C" d="M448.267,556.216c-0.465,3.565-0.847,12.787-1.771,15.234c-0.925,2.45-8.425,7.818-10.254,9.09
			c-1.828,1.273-1.822-3.411,0.697-5.349c2.52-1.938,5.779-6.02,5.836-7.253c0.059-1.23,0.445-6.132-1.046-8.595"/>
		<path fill="none" stroke="#734538" stroke-width="0.941" stroke-miterlimit="10" d="M448.267,556.216
			c-0.465,3.565-0.847,12.787-1.771,15.234c-0.925,2.45-8.425,7.818-10.254,9.09c-1.828,1.273-1.822-3.411,0.697-5.349
			c2.52-1.938,5.779-6.02,5.836-7.253c0.059-1.23,0.445-6.132-1.046-8.595"/>
		<path fill="#BB7A55" d="M440.209,532.088c0,0,1.885,9.967,4.9,13.676c3.013,3.707,5.448,6.85,5.317,10.443
			c-0.131,3.595,0.491,15.315-0.2,17.837c-0.692,2.525-7.658,8.568-9.363,10.006c-1.701,1.438-2.129-3.226,0.197-5.391
			c2.329-2.163,5.192-6.531,5.135-7.766c-0.059-1.232-0.128-6.147-1.844-8.459c-1.715-2.311-4.481-4.567-7.572-6.18
			c-3.09-1.61-10.623-4.014-10.542-10.309c0.079-6.295,2.209-6.884,0.857-11.215C425.742,530.399,440.209,532.088,440.209,532.088"
			/>
		
			<path fill="none" stroke="#734538" stroke-width="0.941" stroke-linecap="round" stroke-linejoin="round" stroke-miterlimit="10" d="
			M440.209,532.088c0,0,1.885,9.967,4.9,13.676c3.013,3.707,5.448,6.85,5.317,10.443c-0.131,3.595,0.491,15.315-0.2,17.837
			c-0.692,2.525-7.658,8.568-9.363,10.006c-1.701,1.438-2.129-3.226,0.197-5.391c2.329-2.163,5.192-6.531,5.135-7.766
			c-0.059-1.232-0.128-6.147-1.844-8.459c-1.715-2.311-4.481-4.567-7.572-6.18c-3.09-1.61-10.623-4.014-10.542-10.309
			c0.079-6.295,2.209-6.884,0.857-11.215C425.742,530.399,440.209,532.088,440.209,532.088z"/>
		<path fill="#BB7A55" d="M427.947,535.241c0,0-0.479,4.931-1.93,7.728c-1.451,2.795,1.002,6.787,0.689,9.921
			c-0.473,4.726-1.828,5.798-4.41,9.886c-1.632,2.583,3.702,2.465,5.731,0.288c2.262-2.425,4.058-5.748,4.284-7.84
			c0.226-2.09,4.147,0.843,4.147,0.843"/>
		
			<path fill="none" stroke="#734538" stroke-width="0.941" stroke-linecap="round" stroke-linejoin="round" stroke-miterlimit="10" d="
			M427.947,535.241c0,0-0.479,4.931-1.93,7.728c-1.451,2.795,1.002,6.787,0.689,9.921c-0.473,4.726-1.828,5.798-4.41,9.886
			c-1.632,2.583,3.702,2.465,5.731,0.288c2.262-2.425,4.058-5.748,4.284-7.84c0.226-2.09,4.147,0.843,4.147,0.843"/>
		<path fill="#CCA656" d="M423.237,520.777c0,0,2.653,12.647,3.591,14.129c0.938,1.484,13.783,0.155,13.628-1.953
			c-0.158-2.107-0.902-15.454-0.902-15.454L423.237,520.777z"/>
		<path fill="#B1904A" d="M440.456,532.953c-0.158-2.107-0.904-15.454-0.904-15.454l-4.658,0.936
			c1.29,0.352,0.663,2.618,2.305,2.618c-0.785,4.701-1.564,9.401,0.697,13.494C439.441,534.116,440.501,533.567,440.456,532.953"/>
		<path fill="#B1904A" d="M423.237,520.777c0,0,2.653,12.647,3.591,14.129l2.158,0.597c1.594-4.748-3.971-10.042-2.456-15.34
			L423.237,520.777z"/>
		<path fill="#FFFFFF" d="M387.699,321.049c0,0,31.654,6.109,30.544,12.218c-1.111,6.108,0.098,10.122,0.555,13.327
			c1.11,7.773,7.774,54.976,8.886,81.076c1.111,26.099,8.884,26.654,9.44,41.092c0.555,14.44,1.666,44.426,3.33,49.979
			c1.668,5.553-14.558,5.89-17.214,4.997c-2.657-0.892-6.108-27.21-13.327-39.425c-7.219-12.22-6.108-34.432-8.885-44.981
			c-2.777-10.552-11.106-38.317-10.552-54.422"/>
		<path opacity="0.2" d="M411.417,466.823c-8.001-21.335-7.112-42.673-11.558-65.785c-2.666-11.559-3.557-24.895,7.113-32.895
			c-5.53,3.952-13.16,3.676-17.286-1.423l0.79,18.19c-0.555,16.104,7.774,43.87,10.552,54.421
			c2.775,10.551,1.665,32.762,8.885,44.98c7.22,12.217,10.67,38.535,13.327,39.427c0.578,0.194,1.799,0.331,3.337,0.366
			c0.205-3.684-0.598-7.366-1.825-11.052C421.195,497.05,416.75,481.935,411.417,466.823"/>
		<path opacity="0.2" d="M413.195,334.361c1.777,0.89-0.891,3.557-3.557,4.445c2.666,4.445,5.334,9.779,6.224,15.112
			c8.89,38.228-2.667,76.455,16.002,112.017c9.224,16.911-4.146,39.805,4.136,57.188c2.982-0.812,5.112-2.191,4.456-4.383
			c-1.666-5.554-2.777-35.539-3.332-49.979c-0.557-14.438-8.329-14.993-9.44-41.094c-1.111-26.099-7.775-73.3-8.885-81.074
			c-0.458-3.205-1.667-7.219-0.557-13.326L413.195,334.361z"/>
		<path opacity="0.1" d="M418.243,333.267c1.11-6.109-30.544-12.218-30.544-12.218l0.148,3.375
			c8.629,3.157,17.653,4.553,25.349,9.938"/>
		<path fill="#FFFFFF" d="M392.736,348.63c-2.066,9.198,5.944,19.923,4.308,32.033c-1.637,12.112-10.237,17.065-11.547,22.303
			c-1.31,5.238-3.073,36.192,7.436,50.898c0,3.599-23.663,18.913-46.418,16.935c-6.434,0-10.49-15.766-10.49-15.766
			s-9.48,13.049-12.762,14.28c-3.283,1.23-18.207-8.408-16.82-11.873c5.935-14.84,10.626-27.399,11.049-35.17
			c0.339-6.202,1.93-19.721-7.564-27.575c-9.492-7.857-11.129-18.986-4.583-31.425c6.547-12.439,17.022-17.022,17.022-22.912"/>
		<path fill="none" stroke="#B4B4B5" stroke-width="0.957" stroke-miterlimit="10" d="M392.736,348.63
			c-2.066,9.198,5.944,19.923,4.308,32.033c-1.637,12.112-10.237,17.065-11.547,22.303c-1.31,5.238-3.073,36.192,7.436,50.898
			c0,3.599-23.663,18.913-46.418,16.935c-6.434,0-10.49-15.766-10.49-15.766s-9.48,13.049-12.762,14.28
			c-3.283,1.23-18.207-8.408-16.82-11.873c5.935-14.84,10.626-27.399,11.049-35.17c0.339-6.202,1.93-19.721-7.564-27.575
			c-9.492-7.857-11.129-18.986-4.583-31.425c6.547-12.439,17.022-17.022,17.022-22.912"/>
		<path opacity="0.2" d="M352.42,400.511c-19.919,1.32-40.402-1.563-50.62-18.902c0.95,4.949,3.656,9.384,8.128,13.086
			c9.493,7.854,8.446,20.268,7.771,26.441c-1.546,14.107-8.194,30.049-11.431,37.375c7.73-8.887,18.417-42.266,13.581-55.696
			c16.002,11.558,44.451-7.111,57.785,4.445c9.615,8.817,1.17,24.13-11.659,32.273c5.022,10.473,25.302,7.772,19.338,20.961
			c4.048-2.011,6.276-4.24,7.483-6.59c-10.954-19.149-8.607-45.7-7.3-50.939c1.194-4.778,8.442-9.34,10.95-19.3"/>
		<path fill="none" stroke="#B4B4B5" stroke-width="0.957" stroke-miterlimit="10" d="M336.228,455.043
			c-0.789-8.794-1.509-19.372-1.601-23.689c-0.131-6.112,2.946-20.949-0.326-26.515c-3.274-5.564-7.53-17.021-5.565-24.548
			c1.964-7.53,14.402-21.932,15.711-29.134"/>
		<path fill="#3E4548" d="M338.801,232.16l-14.572,0.055c0,0-0.217,5.55-0.326,6.895c-0.107,1.348,5.768-1.993,6.52-3.017
			c0.755-1.023,6.359-2.103,7.275-2.157C338.092,233.019,338.801,232.16,338.801,232.16"/>
		<path fill="#44140C" d="M377.982,317.995c0,0,19.576-0.833,19.991-9.163c0.416-8.329-9.995-14.576-5.831-14.576
			c4.165,0,11.662,0.832,9.58-7.08c-2.083-7.912-14.161-10.829-0.833-14.994c13.326-4.166,32.901-2.499,31.652-34.984
			c-0.702-18.256-24.286-71.385-58.723-71.796c-34.985-0.416-28.739,10.827-38.735,18.325c-9.994,7.497-20.478,10.303-10.828,32.149
			c11.954,27.06-0.834,59.222,3.332,67.552c4.166,8.329,11.246,7.079,6.663,18.742c-4.58,11.661,6.248,23.738,14.162,17.908
			C356.325,314.248,377.982,317.995,377.982,317.995"/>
		<path fill="#E4BCA7" d="M343.813,288.601c0,0,5.722,17.952-0.593,30.775c-8.033,16.319-2.367,12.626-1.183,19.727
			c1.183,7.103,2.408,12.055,2.408,12.055s11.4-18.171,15.346-20.934c3.946-2.761,15.388-15.977,15.388-15.977
			c-7.821-7.8-7.234-18.482-0.789-31.17L343.813,288.601z"/>
		
			<path fill="none" stroke="#734538" stroke-width="0.941" stroke-linecap="round" stroke-linejoin="round" stroke-miterlimit="10" d="
			M343.813,288.601c0,0,5.722,17.952-0.593,30.775c-8.033,16.319-2.367,12.626-1.183,19.727c1.183,7.103,2.408,12.055,2.408,12.055
			s11.4-18.171,15.346-20.934c3.946-2.761,15.388-15.977,15.388-15.977c-7.821-7.8-7.234-18.482-0.789-31.17L343.813,288.601z"/>
		<path fill="#BC988A" d="M351.953,303.269c3.195,0.207,11.397-5.374,19.392-13.106c0.788-2.283,1.807-4.647,3.046-7.085
			l-30.577,5.524c0,0,1.327,4.174,1.995,9.928C348.036,301.415,350.108,303.15,351.953,303.269"/>
		<path fill="#44140C" d="M335.917,186.594c0,0-12.078-0.624-16.45,12.911c-4.372,13.536,2.291,27.489,9.371,30.195
			C335.917,232.407,335.917,186.594,335.917,186.594"/>
		<path fill="#E4BCA7" d="M362.156,181.389c-22.774,0-37.068,7.913-36.026,25.822c1.043,17.908,6.04,18.532,2.292,29.569
			c-3.75,11.038-6.25,16.724-1.043,28.737c8.874,20.475,18.117,32.069,24.574,32.486c6.455,0.417,33.318-17.492,37.691-34.36
			c4.373-16.868,10.827-42.689,6.246-57.683C391.31,190.969,384.23,181.389,362.156,181.389"/>
		
			<path fill="none" stroke="#734538" stroke-width="0.941" stroke-linecap="round" stroke-linejoin="round" stroke-miterlimit="10" d="
			M362.156,181.389c-22.774,0-37.068,7.913-36.026,25.822c1.043,17.908,6.04,18.532,2.292,29.569
			c-3.75,11.038-6.25,16.724-1.043,28.737c8.874,20.475,18.117,32.069,24.574,32.486c6.455,0.417,33.318-17.492,37.691-34.36
			c4.373-16.868,10.827-42.689,6.246-57.683C391.31,190.969,384.23,181.389,362.156,181.389z"/>
		<path fill="#E4BCA7" d="M347.927,234.142c0.347,3.542,0.138,15.411-5.483,19.161c-5.623,3.747,0.139,5.065,3.261,5.414
			c3.126,0.347,8.054-0.21,9.163-1.251"/>
		
			<path fill="none" stroke="#734538" stroke-width="0.941" stroke-linecap="round" stroke-linejoin="round" stroke-miterlimit="10" d="
			M347.927,234.142c0.347,3.542,0.138,15.411-5.483,19.161c-5.623,3.747,0.139,5.065,3.261,5.414
			c3.126,0.347,8.054-0.21,9.163-1.251"/>
		<path fill="#A43E3E" d="M349.972,276.332c-2.975-0.145-7.587-2.684-7.829-5.157l16.467-0.326
			C358.609,270.849,357.04,276.675,349.972,276.332"/>
		<path fill="#7F1416" d="M360.611,269.908c0.453-0.107-1.238,2.644-11.766,2.102c-10.525-0.543-10.249-2.642-10.249-2.642
			s2.454,0.795,4.468-0.371c1.94-1.124,4.805-1.019,8.279-0.522C354.815,268.972,357.125,270.735,360.611,269.908"/>
		<path fill="#551F0D" d="M378.869,239.359c0,0-2.951-6.119-8.634-5.246c-5.683,0.874-9.817,5.744-9.662,6.447
			c0.155,0.705,1.522,3.389,9.144,2.732C377.339,242.638,378.322,240.561,378.869,239.359"/>
		<path fill="#FFFFFF" d="M378.869,239.359c0,0-4.262-3.714-9.944-2.841c-5.683,0.874-8.507,3.339-8.352,4.042
			c0.155,0.705,1.522,3.389,9.144,2.732C377.339,242.638,378.322,240.561,378.869,239.359"/>
		<g>
			<defs>
				<path id="SVGID_7_" d="M368.925,236.519c-5.683,0.874-8.507,3.339-8.352,4.042c0.155,0.705,1.522,3.388,9.144,2.732
					c7.622-0.655,8.607-2.732,9.154-3.934c0,0-3.415-2.974-8.203-2.974C370.103,236.386,369.522,236.428,368.925,236.519"/>
			</defs>
			<clipPath id="SVGID_8_">
				<use xlink:href="#SVGID_7_"  overflow="visible"/>
			</clipPath>
			<path clip-path="url(#SVGID_8_)" d="M366.52,239.37c0,2.775,2.252,5.027,5.028,5.027c2.775,0,5.026-2.252,5.026-5.027
				c0-2.776-2.251-5.027-5.026-5.027C368.771,234.343,366.52,236.594,366.52,239.37"/>
			<path clip-path="url(#SVGID_8_)" fill="#1D1D1D" d="M368.823,239.37c0,1.505,1.22,2.724,2.725,2.724
				c1.505,0,2.724-1.219,2.724-2.724c0-1.505-1.219-2.725-2.724-2.725C370.043,236.645,368.823,237.865,368.823,239.37"/>
			<path clip-path="url(#SVGID_8_)" fill="#FFFFFF" d="M372.552,238.267c0,0.663,0.539,1.201,1.203,1.201
				c0.663,0,1.202-0.538,1.202-1.201c0-0.664-0.539-1.202-1.202-1.202C373.091,237.064,372.552,237.603,372.552,238.267"/>
		</g>
		<path fill="#551F0D" d="M328.867,238.595c0,0,2.733-5.661,7.99-4.854c5.258,0.809,9.083,5.316,8.939,5.967
			c-0.143,0.652-1.408,3.135-8.46,2.527C330.282,241.628,329.374,239.707,328.867,238.595"/>
		<path fill="#FFFFFF" d="M328.867,238.595c0,0,3.943-3.436,9.203-2.628c5.26,0.808,7.87,3.09,7.727,3.74
			c-0.143,0.652-1.408,3.135-8.46,2.527C330.282,241.628,329.374,239.707,328.867,238.595"/>
		<g>
			<defs>
				<path id="SVGID_9_" d="M328.867,238.595c0.507,1.113,1.418,3.033,8.47,3.64c7.052,0.607,8.318-1.876,8.46-2.526
					c0.143-0.652-2.467-2.934-7.727-3.741c-0.553-0.086-1.093-0.123-1.612-0.123C332.025,235.844,328.867,238.595,328.867,238.595"
					/>
			</defs>
			<clipPath id="SVGID_10_">
				<use xlink:href="#SVGID_9_"  overflow="visible"/>
			</clipPath>
			<path clip-path="url(#SVGID_10_)" d="M334.564,238.605c0,2.569,2.083,4.652,4.652,4.652c2.569,0,4.651-2.083,4.651-4.652
				c0-2.568-2.082-4.65-4.651-4.65C336.647,233.954,334.564,236.036,334.564,238.605"/>
			<path clip-path="url(#SVGID_10_)" fill="#1D1D1D" d="M336.695,238.605c0,1.392,1.13,2.52,2.521,2.52
				c1.392,0,2.52-1.129,2.52-2.52c0-1.392-1.128-2.52-2.52-2.52C337.825,236.085,336.695,237.213,336.695,238.605"/>
			<path clip-path="url(#SVGID_10_)" fill="#FFFFFF" d="M340.146,237.584c0,0.614,0.497,1.112,1.111,1.112
				c0.614,0,1.113-0.498,1.113-1.112c0-0.615-0.499-1.112-1.113-1.112C340.643,236.472,340.146,236.969,340.146,237.584"/>
		</g>
		<path fill="#44140C" d="M383.258,229.458c-0.938-1.33-3.948-5.223-8.884-4.748c-4.936,0.476-9.491,1.893-9.558,3.48
			c-0.068,1.583,2.523,0.792,5.607,0c3.086-0.793,7.774-1.427,9.75-0.159C382.148,229.299,384.196,230.786,383.258,229.458"/>
		<path fill="#BC988A" d="M389.488,257.018c-1.563,20.427-34.375,42.079-40.762,38.956c-0.423-0.205-0.955-0.125-1.451-0.273
			c1.721,1.19,3.33,1.848,4.783,1.94c6.457,0.419,33.32-17.491,37.692-34.36L389.488,257.018z"/>
		<path fill="#BC988A" d="M360.491,196.222c-4.166,3.331-5-2.5-7.497-3.331c-13.467-3.962-22.41,10.908-25.403,23.123
			c3.618-2.684,7.078-6.881,7.078-6.881l8.931-9.708c3.404-1.088,7.051-0.862,8.145,0.962c2.794,4.656,9.163,6.246,17.493-0.417
			c8.329-6.664,12.911,1.441,10.412,9.771c-2.5,8.329-0.417,10.604,4.58,11.437c4.999,0.834,10.829,14.354,8.331,19.35
			c0,0,1.079,1.116,6.008-4.096c-1.499-15.857-10.291-21.841-13.922-36.879C381.314,188.726,369.652,189.558,360.491,196.222"/>
		<path fill="#D2AC9B" d="M330.711,267.184c-8.538-20.614-2.367-19.852-0.453-32.406c1.758-11.521,0.246-7.992-0.796-25.9
			c-0.173-2.977,0.088-5.673,0.728-8.107c-1.178,0.811-2.488,1.426-3.964,1.792c-0.156,1.469-0.19,3.018-0.097,4.65
			c1.043,17.908,6.039,18.532,2.29,29.569c-3.748,11.038-6.248,16.724-1.039,28.737c8.227,18.987,16.772,30.329,23.12,32.211
			C344.57,293.632,337.329,283.162,330.711,267.184"/>
		<path fill="#44140C" d="M343.772,229.978c1.749,1.076,2.96-1.154,0.986-2.58c-1.975-1.428-6.171-1.894-9.009-1.735
			c-2.838,0.157-5.676,2.211-6.293,3.637c-0.617,1.427,0.921-0.402,2.097-0.792C335.133,227.318,339.452,227.33,343.772,229.978"/>
		<path fill="#44140C" d="M335.084,180.171c0,0-22.073,10.524-15.617,28.225c6.455,17.7,15.202-2.707,15.202-2.707l9.578-10.413
			L335.084,180.171z"/>
		<path fill="#4E1A13" d="M351.744,196.942c2.794,4.655,9.163,6.247,17.492-0.417c8.33-6.663,12.912-3.891,10.413,4.439
			c-2.5,8.328-0.417,14.159,4.58,14.991c4.999,0.833,10.829,17.909,8.331,22.907c-2.5,4.998-0.835,9.579-0.835,9.579
			s2.916-12.911,10.829-16.659c7.914-3.749,2.916-27.905-4.998-29.569c-7.912-1.667,9.164,1.392,2.915-13.184
			c-6.246-14.577-12.077-23.741-29.151-25.823c-17.076-2.082-35.403,6.664-36.236,18.742c-0.832,12.078,3.332,16.242,7.082,14.576
			C345.914,194.86,350.495,194.86,351.744,196.942"/>
		<path opacity="0.2" d="M371.828,306.853c0,0,16.805,12.005,16.524,16.92c-0.282,4.915-2.05,16.255-8.274,18.7
			c-4.768,1.874-4.862-12.544-12.391-9.598c-7.529,2.946-20.667,14.51-23.286,18.765c0,0,15.43-30.222,24.595-33.495
			c2.023-0.467,6.66-3.148,4.979-5.151C372.717,311.497,372.008,308.478,371.828,306.853"/>
		<path opacity="0.2" d="M345.589,312.574c-0.197,9.863-8.334,13.795-1.798,24.885c0,0,1.92,9.338,0.61,14.575
			c0,0-2.901-12.283-8.138-14.575c-5.237-2.291-10.476,6.218-10.476,6.218s0.983-21.603,8.839-27.494
			S345.589,312.574,345.589,312.574"/>
		<path fill="#C6C5C5" d="M345.589,309.907c-0.197,9.863-8.334,13.796-1.798,24.884c0,0,1.965,11.13,0.655,16.367
			c0,0-2.946-14.076-8.183-16.367c-5.237-2.291-10.476,6.22-10.476,6.22s0.983-21.604,8.839-27.496
			C342.482,307.621,345.589,309.907,345.589,309.907"/>
		
			<path fill="none" stroke="#585A5B" stroke-width="0.957" stroke-linecap="round" stroke-linejoin="round" stroke-miterlimit="10" d="
			M345.589,309.907c-0.197,9.863-8.334,13.796-1.798,24.884c0,0,1.965,11.13,0.655,16.367c0,0-2.946-14.076-8.183-16.367
			c-5.237-2.291-10.476,6.22-10.476,6.22s0.983-21.604,8.839-27.496C342.482,307.621,345.589,309.907,345.589,309.907z"/>
		<path fill="#144B8B" d="M345.336,309.772c-0.867-0.388-4.104-1.21-10.709,3.743c-7.855,5.89-8.839,27.495-8.839,27.495
			s4.673-7.587,9.604-6.499C334.758,325.551,338.802,316.454,345.336,309.772"/>
		<path opacity="0.2" d="M345.336,309.772c-6.534,6.682-10.578,15.778-9.943,24.739c0.291,0.065,0.581,0.152,0.871,0.279
			c5.236,2.291,8.183,16.367,8.183,16.367c1.31-5.237-0.655-16.367-0.655-16.367c-6.535-11.088,1.601-15.02,1.798-24.884
			C345.589,309.907,345.5,309.847,345.336,309.772"/>
		<path fill="#C6C5C5" d="M370.051,304.186c0,0,18.213,7.032,17.931,11.948c-0.282,4.916-3.928,21.276-8.511,23.568
			c-4.582,2.29-4.255-12.441-11.783-9.494c-7.529,2.946-20.622,16.694-23.241,20.95c0,0,15.385-32.406,24.552-35.68
			c2.022-0.469,4.881-3.149,3.198-5.151C370.938,308.83,370.23,305.811,370.051,304.186"/>
		
			<path fill="none" stroke="#585A5B" stroke-width="0.957" stroke-linecap="round" stroke-linejoin="round" stroke-miterlimit="10" d="
			M370.051,304.186c0,0,18.213,7.032,17.931,11.948c-0.282,4.916-3.928,21.276-8.511,23.568c-4.582,2.29-4.255-12.441-11.783-9.494
			c-7.529,2.946-20.622,16.694-23.241,20.95c0,0,15.385-32.406,24.552-35.68c2.022-0.469,4.881-3.149,3.198-5.151
			C370.938,308.83,370.23,305.811,370.051,304.186z"/>
		<path fill="#144B8B" d="M370.199,304.511c0.176,1.595,0.871,4.56,2.106,6.029c0.443,0.529,0.558,1.106,0.46,1.676
			c0.724,1.668,1.267,3.714,0.516,4.465c-4.722,3.777-5.1,8.319-4.315,13.076c6.278-1.119,6.218,11.759,10.483,9.625
			c4.501-2.251,8.08-18.314,8.356-23.141C388.081,311.414,370.199,304.511,370.199,304.511"/>
		<path opacity="0.2" d="M373.189,316.581c0.767-0.765,0.211-2.848-0.525-4.546c-0.271,1.577-2.189,3.102-3.666,3.444
			c-9.167,3.273-24.552,35.679-24.552,35.679c2.619-4.256,15.712-18.004,23.241-20.95c0.392-0.152,0.756-0.246,1.107-0.31
			C367.996,325.054,368.382,320.429,373.189,316.581"/>
		<g opacity="0.3">
			<g>
				<defs>
					<rect id="SVGID_11_" x="383.463" y="235.716" width="14.896" height="7.267"/>
				</defs>
				<clipPath id="SVGID_12_">
					<use xlink:href="#SVGID_11_"  overflow="visible"/>
				</clipPath>
				<path clip-path="url(#SVGID_12_)" d="M398.363,235.717l-14.572,0.055c0,0-0.216,5.548-0.325,6.895
					c-0.106,1.349,5.769-1.992,6.521-3.016c0.755-1.023,6.359-2.103,7.275-2.157C397.655,236.574,398.363,235.717,398.363,235.717"
					/>
			</g>
		</g>
		<g opacity="0.3">
			<g>
				<defs>
					<rect id="SVGID_13_" x="326.139" y="231.524" width="57.918" height="15.8"/>
				</defs>
				<clipPath id="SVGID_14_">
					<use xlink:href="#SVGID_13_"  overflow="visible"/>
				</clipPath>
				<path clip-path="url(#SVGID_14_)" fill="none" stroke="#000000" stroke-width="0.957" stroke-miterlimit="10" d="
					M329.103,231.975c5.465-0.043,11.011,0.338,16.653,1.197c0.78,0.043,1.37,0.823,1.317,1.742c0.111,2.477-0.626,5.05-1.174,8.166
					c-0.053,0.96-0.786,1.681-1.597,1.572c-6.57,0.163-12.585-0.578-18.038-2.236"/>
				<path clip-path="url(#SVGID_14_)" fill="none" stroke="#000000" stroke-width="0.957" stroke-miterlimit="10" d="
					M358.713,245.614c6.887,0.959,17.129,1.896,23.004,0.689c0.745-0.014,1.365-0.708,1.416-1.584
					c0.277-1.942,0.51-5.841,0.478-8.421c0.053-0.917-0.538-1.699-1.317-1.742c-6.398-0.975-16.933-0.771-23.722-0.517
					c-0.78-0.045-1.454,0.663-1.506,1.583c-0.393,2.447,0.05,5.089,0.238,8.246C357.249,244.829,357.895,245.629,358.713,245.614z"
					/>
				<path clip-path="url(#SVGID_14_)" fill="none" stroke="#000000" stroke-width="0.957" stroke-miterlimit="10" d="
					M347.142,235.787c0,0,0.602-2.204,4.222-2.207c3.62-0.002,5.472,4.998,5.472,4.998"/>
			</g>
		</g>
		<g opacity="0.24">
			<g>
				<defs>
					<rect id="SVGID_15_" x="324.084" y="231.403" width="59.525" height="14.898"/>
				</defs>
				<clipPath id="SVGID_16_">
					<use xlink:href="#SVGID_15_"  overflow="visible"/>
				</clipPath>
				<path clip-path="url(#SVGID_16_)" fill="#F3F2F2" d="M344.304,244.083c-6.95,0.171-13.279-0.668-18.978-2.534
					c-0.742-0.098-1.276-0.856-1.228-1.736c-0.056-1.96,0.061-4.194,0.384-6.756c0.053-0.918,0.728-1.626,1.508-1.583
					c6.467-0.24,13.051,0.105,19.767,1.126c0.781,0.046,1.369,0.826,1.317,1.744c0.11,2.479-0.626,5.05-1.172,8.166
					C345.848,243.471,345.115,244.191,344.304,244.083"/>
				<path clip-path="url(#SVGID_16_)" fill="#F3F2F2" d="M358.713,245.043c6.887,0.96,17.129,1.898,23.004,0.691
					c0.745-0.015,1.365-0.708,1.416-1.584c0.277-1.942,0.51-5.843,0.478-8.422c0.053-0.918-0.538-1.698-1.317-1.742
					c-6.398-0.975-16.933-0.77-23.722-0.517c-0.78-0.044-1.454,0.664-1.506,1.582c-0.393,2.449,0.05,5.09,0.238,8.246
					C357.249,244.259,357.895,245.06,358.713,245.043"/>
			</g>
		</g>
		<path fill="#4E595F" d="M398.363,234.826l-14.572,0.055c0,0-0.216,5.551-0.325,6.896c-0.106,1.349,5.769-1.992,6.521-3.016
			c0.755-1.024,6.359-2.103,7.275-2.156C397.655,235.686,398.363,234.826,398.363,234.826"/>
		<path fill="none" stroke="#4E595F" stroke-width="0.957" stroke-miterlimit="10" d="M344.304,244.083
			c-6.95,0.171-13.279-0.668-18.978-2.534c-0.742-0.098-1.276-0.856-1.228-1.736c-0.056-1.96,0.061-4.194,0.384-6.756
			c0.053-0.918,0.728-1.626,1.508-1.583c6.467-0.24,13.051,0.105,19.767,1.126c0.781,0.046,1.369,0.826,1.317,1.744
			c0.11,2.479-0.626,5.05-1.172,8.166C345.848,243.471,345.115,244.191,344.304,244.083z"/>
		<path fill="none" stroke="#4E595F" stroke-width="0.957" stroke-miterlimit="10" d="M358.713,245.043
			c6.887,0.96,17.129,1.898,23.004,0.691c0.745-0.015,1.365-0.708,1.416-1.584c0.277-1.942,0.51-5.843,0.478-8.422
			c0.053-0.918-0.538-1.698-1.317-1.742c-6.398-0.975-16.933-0.77-23.722-0.517c-0.78-0.044-1.454,0.664-1.506,1.582
			c-0.393,2.449,0.05,5.09,0.238,8.246C357.249,244.259,357.895,245.06,358.713,245.043z"/>
		<path fill="none" stroke="#4E595F" stroke-width="0.957" stroke-miterlimit="10" d="M347.142,235.218c0,0,0.602-2.204,4.222-2.208
			c3.62-0.002,5.472,4.997,5.472,4.997"/>
		<path fill="#E4BCA7" d="M394.1,240.778c1.313-2.345,7.403-11.372,10.501-5.837c3.096,5.534,2.068,18.408-3.466,20.471
			c-5.536,2.066-1.97,5.911-5.159,9.1c-3.19,3.191-5.868-0.22-6.338-2.752"/>
		
			<path fill="none" stroke="#734538" stroke-width="0.941" stroke-linecap="round" stroke-linejoin="round" stroke-miterlimit="10" d="
			M394.1,240.778c1.313-2.345,7.403-11.372,10.501-5.837c3.096,5.534,2.068,18.408-3.466,20.471c-5.536,2.066-1.97,5.911-5.159,9.1
			c-3.19,3.191-5.868-0.22-6.338-2.752"/>
		<path fill="#E4BCA7" d="M398.52,243.166c5.104-2.242,5.6,6.886-0.624,8.219c-3.487,0.748-6.35,3.86-6.226,6.973"/>
		
			<path fill="none" stroke="#734538" stroke-width="0.941" stroke-linecap="round" stroke-linejoin="round" stroke-miterlimit="10" d="
			M398.52,243.166c5.104-2.242,5.6,6.886-0.624,8.219c-3.487,0.748-6.35,3.86-6.226,6.973"/>
	</g>
</g>
<g>
	<g id="XMLID_22_">
		<g id="XMLID_26_">
			
				<line id="XMLID_28_" fill="none" stroke="#000000" stroke-width="1.5" stroke-miterlimit="10" x1="137.732" y1="314.558" x2="134.006" y2="318.284"/>
			
				<line id="XMLID_27_" fill="none" stroke="#000000" stroke-width="1.5" stroke-miterlimit="10" x1="128.917" y1="323.373" x2="125.191" y2="327.1"/>
		</g>
		<g id="XMLID_23_">
			
				<line id="XMLID_25_" fill="none" stroke="#000000" stroke-width="1.5" stroke-miterlimit="10" x1="125.191" y1="314.558" x2="128.917" y2="318.284"/>
			
				<line id="XMLID_24_" fill="none" stroke="#000000" stroke-width="1.5" stroke-miterlimit="10" x1="134.006" y1="323.373" x2="137.732" y2="327.1"/>
		</g>
	</g>
	<g id="XMLID_15_">
		<g id="XMLID_19_">
			
				<line id="XMLID_21_" fill="none" stroke="#000000" stroke-width="1.5" stroke-miterlimit="10" x1="257.043" y1="310.35" x2="254.424" y2="312.969"/>
			
				<line id="XMLID_20_" fill="none" stroke="#000000" stroke-width="1.5" stroke-miterlimit="10" x1="250.847" y1="316.546" x2="248.229" y2="319.165"/>
		</g>
		<g id="XMLID_16_">
			
				<line id="XMLID_18_" fill="none" stroke="#000000" stroke-width="1.5" stroke-miterlimit="10" x1="248.229" y1="310.35" x2="250.847" y2="312.969"/>
			
				<line id="XMLID_17_" fill="none" stroke="#000000" stroke-width="1.5" stroke-miterlimit="10" x1="254.424" y1="316.546" x2="257.043" y2="319.165"/>
		</g>
	</g>
	<g id="XMLID_8_">
		<g id="XMLID_12_">
			
				<line id="XMLID_14_" fill="none" stroke="#000000" stroke-width="1.5" stroke-miterlimit="10" x1="290.839" y1="173.923" x2="287.112" y2="177.649"/>
			
				<line id="XMLID_13_" fill="none" stroke="#000000" stroke-width="1.5" stroke-miterlimit="10" x1="282.023" y1="182.738" x2="278.298" y2="186.465"/>
		</g>
		<g id="XMLID_9_">
			
				<line id="XMLID_11_" fill="none" stroke="#000000" stroke-width="1.5" stroke-miterlimit="10" x1="278.298" y1="173.923" x2="282.023" y2="177.649"/>
			
				<line id="XMLID_10_" fill="none" stroke="#000000" stroke-width="1.5" stroke-miterlimit="10" x1="287.112" y1="182.738" x2="290.839" y2="186.465"/>
		</g>
	</g>
	<g id="XMLID_1_">
		<g id="XMLID_5_">
			
				<line id="XMLID_7_" fill="none" stroke="#000000" stroke-width="1.5" stroke-miterlimit="10" x1="102.511" y1="185.309" x2="99.892" y2="187.928"/>
			
				<line id="XMLID_6_" fill="none" stroke="#000000" stroke-width="1.5" stroke-miterlimit="10" x1="96.314" y1="191.505" x2="93.696" y2="194.124"/>
		</g>
		<g id="XMLID_2_">
			
				<line id="XMLID_4_" fill="none" stroke="#000000" stroke-width="1.5" stroke-miterlimit="10" x1="93.696" y1="185.309" x2="96.314" y2="187.928"/>
			
				<line id="XMLID_3_" fill="none" stroke="#000000" stroke-width="1.5" stroke-miterlimit="10" x1="99.892" y1="191.505" x2="102.511" y2="194.124"/>
		</g>
	</g>
	<g>
		<rect x="166.734" y="182.828" width="55.405" height="1.365"/>
		<rect x="185.69" y="178.455" width="36.449" height="1.366"/>
	</g>
	<g>
		<rect x="166.058" y="315.255" width="55.405" height="1.365"/>
		<rect x="166.058" y="310.882" width="36.449" height="1.366"/>
	</g>
	<rect x="71.347" y="306.189" width="36.449" height="1.366"/>
	<rect x="277.602" y="311.846" width="36.449" height="1.366"/>
	<rect x="219.84" y="193.842" width="36.449" height="1.366"/>
	<rect x="114.58" y="182.055" width="36.449" height="1.366"/>
	<rect x="60.885" y="175.103" width="36.449" height="1.366"/>
</g>
</svg>