<!-- Generator: Adobe Illustrator 17.0.0, SVG Export Plug-In  -->
<svg version="1.1"
	 xmlns="http://www.w3.org/2000/svg" xmlns:xlink="http://www.w3.org/1999/xlink" xmlns:a="http://ns.adobe.com/AdobeSVGViewerExtensions/3.0/"
	 x="0px" y="0px" width="279.452px" height="344.502px" viewBox="0 0 279.452 344.502" enable-background="new 0 0 279.452 344.502"
	 xml:space="preserve">
<defs>
</defs>
<g>
	<g>
		<radialGradient id="SVGID_1_" cx="139.7261" cy="23.1558" r="98.4442" gradientUnits="userSpaceOnUse">
			<stop  offset="0" style="stop-color:#8CBB69"/>
			<stop  offset="0.7837" style="stop-color:#6BAD44"/>
		</radialGradient>
		<rect x="2.106" y="2.106" fill="url(#SVGID_1_)" width="275.241" height="42.099"/>
		<path d="M277.347,46.31H2.105C0.943,46.31,0,45.368,0,44.205V2.106C0,0.943,0.943,0,2.105,0h275.241
			c1.163,0,2.105,0.943,2.105,2.106v42.099C279.452,45.368,278.51,46.31,277.347,46.31z M4.212,42.101h271.031V4.212H4.212V42.101z"
			/>
	</g>
</g>
<g>
	<g>
		<path fill="#FFFFFF" d="M49.965,33.367V16.832h2.188v6.79h8.594v-6.79h2.188v16.535h-2.188v-7.794h-8.594v7.794H49.965z"/>
		<path fill="#FFFFFF" d="M66.625,33.367V16.832h11.956v1.951h-9.768v5.064h9.146v1.94h-9.146v5.628h10.15v1.951H66.625z"/>
		<path fill="#FFFFFF" d="M82.02,33.367V16.832h7.332c1.474,0,2.594,0.149,3.36,0.446c0.768,0.297,1.38,0.821,1.839,1.573
			s0.688,1.583,0.688,2.492c0,1.173-0.379,2.162-1.139,2.967s-1.933,1.315-3.519,1.533c0.578,0.278,1.019,0.553,1.319,0.824
			c0.639,0.586,1.244,1.319,1.815,2.199l2.876,4.5H93.84l-2.188-3.44c-0.64-0.992-1.166-1.752-1.579-2.278
			c-0.414-0.525-0.784-0.895-1.111-1.104c-0.327-0.211-0.659-0.357-0.998-0.44c-0.248-0.053-0.654-0.079-1.218-0.079h-2.538v7.343
			H82.02z M84.209,24.13h4.703c1,0,1.782-0.104,2.347-0.311c0.563-0.206,0.992-0.537,1.285-0.992s0.44-0.949,0.44-1.483
			c0-0.781-0.284-1.425-0.852-1.929c-0.568-0.504-1.465-0.756-2.69-0.756h-5.233V24.13z"/>
		<path fill="#FFFFFF" d="M98.702,33.367V16.832h7.332c1.474,0,2.594,0.149,3.36,0.446c0.768,0.297,1.38,0.821,1.839,1.573
			s0.688,1.583,0.688,2.492c0,1.173-0.379,2.162-1.139,2.967s-1.933,1.315-3.519,1.533c0.578,0.278,1.019,0.553,1.319,0.824
			c0.639,0.586,1.244,1.319,1.815,2.199l2.876,4.5h-2.752l-2.188-3.44c-0.64-0.992-1.166-1.752-1.579-2.278
			c-0.414-0.525-0.784-0.895-1.111-1.104c-0.327-0.211-0.659-0.357-0.998-0.44c-0.248-0.053-0.654-0.079-1.218-0.079h-2.538v7.343
			H98.702z M100.89,24.13h4.703c1,0,1.782-0.104,2.347-0.311c0.563-0.206,0.992-0.537,1.285-0.992s0.44-0.949,0.44-1.483
			c0-0.781-0.284-1.425-0.852-1.929c-0.568-0.504-1.465-0.756-2.69-0.756h-5.233V24.13z"/>
		<path fill="#FFFFFF" d="M113.534,33.367l6.351-16.535h2.357l6.767,16.535h-2.492l-1.929-5.008h-6.914l-1.815,5.008H113.534z
			 M118.305,26.577h5.605l-1.726-4.579c-0.526-1.391-0.918-2.534-1.173-3.429c-0.211,1.061-0.508,2.113-0.892,3.158L118.305,26.577z
			"/>
		<path fill="#FFFFFF" d="M130.69,33.367V16.832h3.293l3.914,11.708c0.36,1.09,0.624,1.906,0.789,2.447
			c0.188-0.602,0.481-1.485,0.88-2.65l3.959-11.505h2.943v16.535h-2.108V19.528l-4.806,13.839h-1.974l-4.782-14.076v14.076H130.69z"
			/>
		<path fill="#FFFFFF" d="M150.371,33.367V16.832h2.188v16.535H150.371z"/>
		<path fill="#FFFFFF" d="M156.461,33.367V16.832h11.956v1.951h-9.768v5.064h9.146v1.94h-9.146v5.628h10.15v1.951H156.461z"/>
		<path fill="#FFFFFF" d="M171.801,33.367V16.832h2.244l8.685,12.982V16.832h2.098v16.535h-2.244l-8.685-12.993v12.993H171.801z"/>
		<path fill="#FFFFFF" d="M192.712,33.367V18.783h-5.448v-1.951h13.106v1.951H194.9v14.584H192.712z"/>
		<path fill="#FFFFFF" d="M200.798,33.367l6.351-16.535h2.357l6.767,16.535h-2.492l-1.929-5.008h-6.914l-1.815,5.008H200.798z
			 M205.57,26.577h5.605l-1.726-4.579c-0.526-1.391-0.918-2.534-1.173-3.429c-0.211,1.061-0.508,2.113-0.892,3.158L205.57,26.577z"
			/>
		<path fill="#FFFFFF" d="M217.278,28.055l2.063-0.181c0.098,0.827,0.325,1.506,0.683,2.036c0.356,0.53,0.911,0.959,1.663,1.286
			s1.598,0.49,2.538,0.49c0.835,0,1.571-0.124,2.211-0.372c0.639-0.248,1.114-0.588,1.427-1.021
			c0.312-0.433,0.468-0.904,0.468-1.416c0-0.519-0.15-0.972-0.451-1.358c-0.301-0.388-0.797-0.713-1.488-0.976
			c-0.444-0.173-1.426-0.442-2.944-0.807c-1.519-0.365-2.583-0.709-3.191-1.032c-0.79-0.413-1.378-0.927-1.766-1.54
			c-0.388-0.612-0.581-1.299-0.581-2.058c0-0.835,0.237-1.615,0.711-2.341s1.165-1.276,2.075-1.652s1.921-0.563,3.034-0.563
			c1.226,0,2.307,0.197,3.242,0.592c0.937,0.395,1.656,0.976,2.16,1.742c0.504,0.768,0.774,1.636,0.813,2.605l-2.099,0.158
			c-0.112-1.045-0.494-1.835-1.145-2.368c-0.65-0.534-1.611-0.801-2.882-0.801c-1.323,0-2.287,0.242-2.893,0.728
			c-0.605,0.484-0.908,1.069-0.908,1.754c0,0.594,0.215,1.082,0.643,1.466c0.422,0.384,1.521,0.776,3.3,1.179
			c1.777,0.402,2.998,0.754,3.659,1.055c0.963,0.443,1.674,1.006,2.132,1.686c0.459,0.681,0.688,1.465,0.688,2.353
			c0,0.879-0.252,1.708-0.756,2.486s-1.228,1.384-2.171,1.816c-0.944,0.432-2.006,0.648-3.187,0.648
			c-1.496,0-2.75-0.219-3.762-0.654c-1.011-0.437-1.805-1.092-2.38-1.969C217.61,30.151,217.307,29.16,217.278,28.055z"/>
	</g>
</g>
<g>
	<path fill="#020202" d="M68.504,117.635h-3.615l-1.438-3.74H56.87l-1.358,3.74h-3.526l6.412-16.464h3.516L68.504,117.635z
		 M62.384,111.121l-2.269-6.109l-2.224,6.109H62.384z"/>
	<path fill="#020202" d="M69.954,118.421l3.604,0.438c0.06,0.419,0.198,0.707,0.415,0.864c0.3,0.225,0.771,0.337,1.416,0.337
		c0.823,0,1.44-0.123,1.853-0.371c0.277-0.164,0.486-0.43,0.629-0.797c0.098-0.262,0.146-0.745,0.146-1.449v-1.74
		c-0.943,1.288-2.133,1.932-3.57,1.932c-1.603,0-2.872-0.678-3.808-2.033c-0.733-1.07-1.101-2.402-1.101-3.998
		c0-1.998,0.481-3.525,1.443-4.582c0.962-1.055,2.158-1.583,3.588-1.583c1.475,0,2.691,0.647,3.65,1.942v-1.673h2.953v10.702
		c0,1.408-0.116,2.46-0.348,3.156c-0.232,0.696-0.559,1.243-0.978,1.64s-0.979,0.708-1.679,0.933s-1.586,0.336-2.656,0.336
		c-2.021,0-3.455-0.346-4.301-1.038c-0.847-0.692-1.27-1.57-1.27-2.634C69.942,118.698,69.946,118.57,69.954,118.421z
		 M72.772,111.424c0,1.266,0.245,2.192,0.735,2.78s1.095,0.882,1.813,0.882c0.771,0,1.423-0.302,1.955-0.904
		c0.531-0.603,0.797-1.496,0.797-2.679c0-1.235-0.255-2.152-0.764-2.751c-0.509-0.6-1.153-0.898-1.932-0.898
		c-0.756,0-1.38,0.293-1.87,0.881S72.772,110.219,72.772,111.424z"/>
	<path fill="#020202" d="M84.293,104.091v-2.92h3.156v2.92H84.293z M84.293,117.635v-11.927h3.156v11.927H84.293z"/>
	<path fill="#020202" d="M90.684,117.635v-16.464h3.156v16.464H90.684z"/>
	<path fill="#020202" d="M103.982,113.839l3.145,0.528c-0.404,1.152-1.043,2.03-1.915,2.633s-1.963,0.904-3.273,0.904
		c-2.074,0-3.608-0.678-4.604-2.033c-0.786-1.085-1.179-2.455-1.179-4.109c0-1.977,0.516-3.525,1.549-4.645s2.34-1.679,3.92-1.679
		c1.774,0,3.175,0.586,4.2,1.758s1.517,2.967,1.472,5.385h-7.906c0.021,0.936,0.276,1.664,0.764,2.185
		c0.486,0.521,1.093,0.78,1.818,0.78c0.494,0,0.91-0.135,1.247-0.404S103.81,114.438,103.982,113.839z M104.162,110.649
		c-0.022-0.913-0.259-1.607-0.708-2.083s-0.995-0.713-1.639-0.713c-0.689,0-1.258,0.25-1.707,0.752s-0.671,1.183-0.663,2.044
		H104.162z"/>
	<path fill="#020202" d="M119.985,117.635v-13.679H115.1v-2.785h13.084v2.785h-4.875v13.679H119.985z"/>
	<path fill="#020202" d="M132.057,117.635h-3.156v-11.927h2.932v1.696c0.502-0.802,0.953-1.329,1.354-1.584s0.855-0.382,1.364-0.382
		c0.719,0,1.411,0.198,2.077,0.595l-0.977,2.752c-0.531-0.345-1.025-0.517-1.482-0.517c-0.441,0-0.816,0.122-1.123,0.365
		s-0.549,0.683-0.725,1.319s-0.264,1.969-0.264,3.998V117.635z"/>
	<path fill="#020202" d="M140.346,109.347l-2.864-0.517c0.322-1.153,0.876-2.007,1.662-2.561s1.954-0.831,3.504-0.831
		c1.407,0,2.456,0.167,3.145,0.5s1.174,0.756,1.454,1.269c0.281,0.513,0.422,1.455,0.422,2.824l-0.034,3.684
		c0,1.049,0.051,1.821,0.151,2.319c0.102,0.498,0.29,1.031,0.567,1.601h-3.122c-0.082-0.21-0.184-0.521-0.303-0.932
		c-0.053-0.188-0.09-0.312-0.113-0.371c-0.539,0.524-1.115,0.917-1.729,1.18c-0.614,0.262-1.27,0.393-1.966,0.393
		c-1.228,0-2.195-0.333-2.903-1c-0.707-0.666-1.061-1.508-1.061-2.526c0-0.674,0.16-1.274,0.482-1.803
		c0.322-0.527,0.773-0.932,1.354-1.213c0.58-0.28,1.417-0.525,2.51-0.735c1.475-0.277,2.497-0.535,3.066-0.775v-0.314
		c0-0.605-0.15-1.038-0.449-1.297c-0.3-0.258-0.865-0.387-1.696-0.387c-0.562,0-0.999,0.11-1.313,0.331
		S140.541,108.793,140.346,109.347z M144.569,111.907c-0.404,0.135-1.045,0.296-1.921,0.483c-0.876,0.187-1.448,0.37-1.718,0.55
		c-0.412,0.292-0.618,0.663-0.618,1.112c0,0.441,0.165,0.823,0.494,1.145c0.329,0.322,0.749,0.483,1.258,0.483
		c0.569,0,1.112-0.188,1.628-0.562c0.383-0.284,0.633-0.633,0.753-1.045c0.082-0.27,0.124-0.782,0.124-1.538V111.907z"/>
	<path fill="#020202" d="M161.178,109.234l-3.111,0.562c-0.104-0.621-0.343-1.089-0.713-1.403c-0.371-0.314-0.852-0.473-1.443-0.473
		c-0.786,0-1.413,0.271-1.881,0.814s-0.702,1.451-0.702,2.724c0,1.415,0.237,2.415,0.713,2.999s1.114,0.875,1.915,0.875
		c0.599,0,1.09-0.17,1.471-0.511c0.383-0.341,0.652-0.927,0.809-1.757l3.1,0.527c-0.321,1.423-0.939,2.497-1.853,3.223
		c-0.913,0.727-2.138,1.09-3.673,1.09c-1.744,0-3.135-0.551-4.172-1.65c-1.037-1.102-1.555-2.625-1.555-4.571
		c0-1.969,0.52-3.502,1.561-4.599s2.448-1.646,4.223-1.646c1.452,0,2.607,0.313,3.465,0.938S160.803,107.954,161.178,109.234z"/>
	<path fill="#020202" d="M163.458,117.635v-16.464h3.155v8.737l3.694-4.2h3.887l-4.077,4.357l4.368,7.569h-3.402l-2.998-5.357
		l-1.472,1.539v3.818H163.458z"/>
	<path fill="#020202" d="M176.36,117.635v-3.156h3.156v3.156H176.36z"/>
	<path fill="#020202" d="M61.317,144.582v-2.774h7.166v6.559c-0.697,0.674-1.706,1.268-3.027,1.78s-2.659,0.77-4.015,0.77
		c-1.722,0-3.224-0.361-4.503-1.084c-1.281-0.723-2.243-1.756-2.887-3.1s-0.966-2.806-0.966-4.386c0-1.715,0.359-3.238,1.078-4.571
		c0.719-1.332,1.771-2.354,3.155-3.065c1.057-0.547,2.37-0.819,3.942-0.819c2.044,0,3.641,0.428,4.79,1.285s1.889,2.042,2.218,3.555
		l-3.302,0.617c-0.232-0.809-0.668-1.446-1.309-1.914c-0.64-0.468-1.439-0.702-2.397-0.702c-1.452,0-2.607,0.46-3.465,1.382
		c-0.857,0.92-1.286,2.287-1.286,4.099c0,1.954,0.435,3.42,1.303,4.396c0.869,0.978,2.007,1.466,3.414,1.466
		c0.697,0,1.395-0.137,2.095-0.41c0.7-0.273,1.301-0.604,1.803-0.994v-2.088H61.317z"/>
	<path fill="#020202" d="M73.885,142.347l-2.864-0.517c0.322-1.153,0.876-2.007,1.662-2.561s1.954-0.831,3.504-0.831
		c1.407,0,2.456,0.167,3.145,0.5s1.174,0.756,1.454,1.269c0.281,0.513,0.422,1.455,0.422,2.824l-0.034,3.684
		c0,1.049,0.051,1.821,0.151,2.319c0.102,0.498,0.29,1.031,0.567,1.601H78.77c-0.082-0.21-0.184-0.521-0.303-0.932
		c-0.053-0.188-0.09-0.312-0.113-0.371c-0.539,0.524-1.115,0.917-1.729,1.18c-0.614,0.262-1.27,0.393-1.966,0.393
		c-1.228,0-2.195-0.333-2.903-1c-0.707-0.666-1.061-1.508-1.061-2.526c0-0.674,0.16-1.274,0.482-1.803
		c0.322-0.527,0.773-0.932,1.354-1.213c0.58-0.28,1.417-0.525,2.51-0.735c1.475-0.277,2.497-0.535,3.066-0.775v-0.314
		c0-0.605-0.15-1.038-0.449-1.297c-0.3-0.258-0.865-0.387-1.696-0.387c-0.562,0-0.999,0.11-1.313,0.331
		S74.08,141.793,73.885,142.347z M78.108,144.907c-0.404,0.135-1.045,0.296-1.921,0.483c-0.876,0.187-1.448,0.37-1.718,0.55
		c-0.412,0.292-0.618,0.663-0.618,1.112c0,0.441,0.165,0.823,0.494,1.145c0.329,0.322,0.749,0.483,1.258,0.483
		c0.569,0,1.112-0.188,1.628-0.562c0.383-0.284,0.633-0.633,0.753-1.045c0.082-0.27,0.124-0.782,0.124-1.538V144.907z"/>
	<path fill="#020202" d="M95.167,150.635H92.01v-6.087c0-1.288-0.067-2.121-0.202-2.499s-0.354-0.672-0.657-0.881
		c-0.303-0.21-0.668-0.314-1.095-0.314c-0.547,0-1.037,0.149-1.472,0.449c-0.434,0.299-0.731,0.695-0.893,1.189
		s-0.241,1.408-0.241,2.74v5.402h-3.155v-11.927h2.931v1.752c1.041-1.348,2.351-2.021,3.931-2.021c0.696,0,1.333,0.125,1.909,0.376
		s1.013,0.571,1.309,0.961c0.296,0.389,0.501,0.83,0.617,1.324s0.175,1.202,0.175,2.123V150.635z"/>
	<path fill="#020202" d="M109.215,150.635h-3.156v-6.087c0-1.288-0.067-2.121-0.202-2.499s-0.354-0.672-0.657-0.881
		c-0.303-0.21-0.668-0.314-1.095-0.314c-0.547,0-1.037,0.149-1.472,0.449c-0.434,0.299-0.731,0.695-0.893,1.189
		s-0.241,1.408-0.241,2.74v5.402h-3.155v-11.927h2.931v1.752c1.041-1.348,2.351-2.021,3.931-2.021c0.696,0,1.333,0.125,1.909,0.376
		s1.013,0.571,1.309,0.961c0.296,0.389,0.501,0.83,0.617,1.324s0.175,1.202,0.175,2.123V150.635z"/>
	<path fill="#020202" d="M116.143,150.635v-13.679h-4.885v-2.785h13.084v2.785h-4.875v13.679H116.143z"/>
	<path fill="#020202" d="M129.743,150.635l-4.807-11.927h3.313l2.246,6.087l0.651,2.033c0.172-0.518,0.281-0.857,0.326-1.022
		c0.104-0.337,0.217-0.674,0.336-1.011l2.27-6.087h3.245l-4.739,11.927H129.743z"/>
	<path fill="#020202" d="M137.547,150.635v-3.156h3.156v3.156H137.547z"/>
	<path fill="#020202" d="M53.647,167.171h6.076c1.369,0,2.414,0.104,3.133,0.314c0.966,0.284,1.793,0.79,2.482,1.517
		c0.688,0.726,1.213,1.615,1.572,2.667s0.539,2.349,0.539,3.892c0,1.354-0.169,2.522-0.506,3.504c-0.412,1.197-1,2.167-1.764,2.908
		c-0.576,0.562-1.354,1-2.336,1.314c-0.733,0.231-1.714,0.348-2.941,0.348h-6.256V167.171z M56.971,169.956v10.905h2.482
		c0.928,0,1.598-0.053,2.01-0.158c0.539-0.135,0.986-0.362,1.342-0.685s0.646-0.852,0.871-1.589s0.336-1.743,0.336-3.016
		s-0.111-2.25-0.336-2.932c-0.225-0.681-0.539-1.213-0.943-1.594c-0.404-0.383-0.918-0.641-1.539-0.775
		c-0.464-0.104-1.374-0.157-2.729-0.157H56.971z"/>
	<path fill="#020202" d="M69.515,177.503c0-1.048,0.259-2.063,0.774-3.044c0.518-0.98,1.249-1.729,2.196-2.246
		c0.947-0.516,2.005-0.774,3.173-0.774c1.804,0,3.282,0.586,4.436,1.758s1.729,2.652,1.729,4.441c0,1.805-0.582,3.3-1.746,4.486
		s-2.63,1.78-4.397,1.78c-1.093,0-2.135-0.247-3.127-0.741s-1.746-1.219-2.264-2.173C69.774,180.035,69.515,178.873,69.515,177.503z
		 M72.75,177.672c0,1.183,0.28,2.088,0.843,2.717c0.561,0.629,1.254,0.943,2.077,0.943s1.515-0.314,2.072-0.943
		s0.837-1.542,0.837-2.74c0-1.168-0.279-2.066-0.837-2.695s-1.249-0.943-2.072-0.943s-1.517,0.314-2.077,0.943
		C73.03,175.582,72.75,176.488,72.75,177.672z"/>
	<path fill="#020202" d="M89.763,171.708v2.516h-2.156v4.807c0,0.974,0.021,1.54,0.062,1.701s0.135,0.294,0.281,0.399
		c0.146,0.104,0.323,0.156,0.533,0.156c0.292,0,0.715-0.101,1.27-0.303l0.27,2.448c-0.734,0.314-1.565,0.472-2.494,0.472
		c-0.568,0-1.081-0.096-1.538-0.286c-0.457-0.191-0.792-0.438-1.005-0.741c-0.214-0.304-0.361-0.713-0.443-1.23
		c-0.068-0.366-0.102-1.107-0.102-2.223v-5.2h-1.449v-2.516h1.449v-2.37l3.167-1.842v4.212H89.763z"/>
	<path fill="#020202" d="M98.366,183.635v-16.464h5.334c2.021,0,3.339,0.082,3.953,0.247c0.943,0.247,1.733,0.784,2.369,1.611
		c0.637,0.827,0.955,1.896,0.955,3.207c0,1.01-0.184,1.86-0.551,2.549c-0.366,0.688-0.832,1.229-1.397,1.623
		c-0.565,0.393-1.14,0.653-1.724,0.78c-0.794,0.157-1.943,0.235-3.448,0.235h-2.167v6.211H98.366z M101.69,169.956v4.672h1.818
		c1.311,0,2.187-0.086,2.629-0.259c0.441-0.172,0.787-0.441,1.038-0.809c0.251-0.366,0.376-0.793,0.376-1.279
		c0-0.6-0.176-1.094-0.527-1.482c-0.352-0.39-0.797-0.633-1.336-0.73c-0.397-0.075-1.194-0.112-2.393-0.112H101.69z"/>
	<path fill="#020202" d="M116.705,183.635h-3.156v-11.927h2.932v1.696c0.502-0.802,0.953-1.329,1.354-1.584s0.855-0.382,1.364-0.382
		c0.719,0,1.411,0.198,2.077,0.595l-0.977,2.752c-0.531-0.345-1.025-0.517-1.482-0.517c-0.441,0-0.816,0.122-1.123,0.365
		s-0.549,0.683-0.725,1.319s-0.264,1.969-0.264,3.998V183.635z"/>
	<path fill="#020202" d="M121.904,177.503c0-1.048,0.259-2.063,0.774-3.044c0.518-0.98,1.249-1.729,2.196-2.246
		c0.947-0.516,2.005-0.774,3.173-0.774c1.804,0,3.282,0.586,4.436,1.758s1.729,2.652,1.729,4.441c0,1.805-0.582,3.3-1.746,4.486
		s-2.63,1.78-4.397,1.78c-1.093,0-2.135-0.247-3.127-0.741s-1.746-1.219-2.264-2.173
		C122.163,180.035,121.904,178.873,121.904,177.503z M125.138,177.672c0,1.183,0.28,2.088,0.843,2.717
		c0.561,0.629,1.254,0.943,2.077,0.943c0.823,0,1.515-0.314,2.072-0.943s0.837-1.542,0.837-2.74c0-1.168-0.279-2.066-0.837-2.695
		s-1.249-0.943-2.072-0.943c-0.823,0-1.517,0.314-2.077,0.943C125.418,175.582,125.138,176.488,125.138,177.672z"/>
	<path fill="#020202" d="M139.771,171.708v11.556c0,1.521-0.1,2.593-0.298,3.218s-0.58,1.114-1.146,1.466s-1.286,0.527-2.161,0.527
		c-0.314,0-0.653-0.027-1.017-0.084c-0.363-0.056-0.755-0.141-1.174-0.252l0.55-2.695c0.15,0.029,0.291,0.054,0.422,0.072
		s0.252,0.028,0.365,0.028c0.321,0,0.585-0.069,0.791-0.208s0.343-0.305,0.41-0.5c0.067-0.194,0.102-0.778,0.102-1.752v-11.376
		H139.771z M136.616,170.091v-2.92h3.155v2.92H136.616z"/>
	<path fill="#020202" d="M149.98,179.839l3.145,0.528c-0.404,1.152-1.043,2.03-1.915,2.633s-1.963,0.904-3.273,0.904
		c-2.074,0-3.608-0.678-4.604-2.033c-0.786-1.085-1.179-2.455-1.179-4.109c0-1.977,0.516-3.525,1.549-4.645s2.34-1.679,3.92-1.679
		c1.774,0,3.175,0.586,4.2,1.758s1.517,2.967,1.472,5.385h-7.906c0.021,0.936,0.276,1.664,0.764,2.185
		c0.486,0.521,1.093,0.78,1.818,0.78c0.494,0,0.91-0.135,1.247-0.404S149.808,180.438,149.98,179.839z M150.16,176.649
		c-0.022-0.913-0.259-1.607-0.708-2.083s-0.995-0.713-1.639-0.713c-0.689,0-1.258,0.25-1.707,0.752s-0.671,1.183-0.663,2.044H150.16
		z"/>
	<path fill="#020202" d="M166.264,175.234l-3.111,0.562c-0.104-0.621-0.343-1.089-0.713-1.403c-0.371-0.314-0.852-0.473-1.443-0.473
		c-0.786,0-1.413,0.271-1.881,0.814s-0.702,1.451-0.702,2.724c0,1.415,0.237,2.415,0.713,2.999s1.114,0.875,1.915,0.875
		c0.599,0,1.09-0.17,1.471-0.511c0.383-0.341,0.652-0.927,0.809-1.757l3.1,0.527c-0.321,1.423-0.939,2.497-1.853,3.223
		c-0.913,0.727-2.138,1.09-3.673,1.09c-1.744,0-3.135-0.551-4.172-1.65c-1.037-1.102-1.555-2.625-1.555-4.571
		c0-1.969,0.52-3.502,1.561-4.599s2.448-1.646,4.223-1.646c1.452,0,2.607,0.313,3.465,0.938S165.889,173.954,166.264,175.234z"/>
	<path fill="#020202" d="M174.125,171.708v2.516h-2.156v4.807c0,0.974,0.021,1.54,0.062,1.701s0.135,0.294,0.281,0.399
		c0.146,0.104,0.323,0.156,0.533,0.156c0.292,0,0.715-0.101,1.27-0.303l0.27,2.448c-0.734,0.314-1.565,0.472-2.494,0.472
		c-0.568,0-1.081-0.096-1.538-0.286c-0.457-0.191-0.792-0.438-1.005-0.741c-0.214-0.304-0.361-0.713-0.443-1.23
		c-0.068-0.366-0.102-1.107-0.102-2.223v-5.2h-1.449v-2.516h1.449v-2.37l3.167-1.842v4.212H174.125z"/>
	<path fill="#020202" d="M176.314,183.635v-3.156h3.156v3.156H176.314z"/>
	<path fill="#020202" d="M52.985,208.504c0-1.677,0.25-3.085,0.752-4.223c0.374-0.839,0.886-1.591,1.533-2.258
		c0.647-0.666,1.356-1.16,2.128-1.482c1.025-0.434,2.209-0.65,3.549-0.65c2.426,0,4.367,0.752,5.823,2.257s2.184,3.598,2.184,6.278
		c0,2.657-0.722,4.737-2.167,6.238s-3.377,2.252-5.795,2.252c-2.448,0-4.395-0.747-5.84-2.241
		C53.707,213.182,52.985,211.124,52.985,208.504z M56.41,208.392c0,1.864,0.431,3.277,1.292,4.239
		c0.86,0.962,1.953,1.443,3.279,1.443c1.324,0,2.412-0.478,3.262-1.432c0.85-0.955,1.275-2.387,1.275-4.296
		c0-1.887-0.414-3.294-1.241-4.223c-0.827-0.929-1.927-1.393-3.296-1.393c-1.371,0-2.475,0.47-3.313,1.409
		S56.41,206.497,56.41,208.392z"/>
	<path fill="#020202" d="M71.436,204.708h2.943v1.752c0.381-0.599,0.898-1.086,1.549-1.46c0.652-0.374,1.374-0.562,2.168-0.562
		c1.385,0,2.561,0.543,3.526,1.628c0.966,1.086,1.448,2.599,1.448,4.537c0,1.992-0.486,3.54-1.459,4.645
		c-0.974,1.104-2.153,1.656-3.538,1.656c-0.659,0-1.256-0.131-1.791-0.393c-0.535-0.263-1.099-0.712-1.69-1.348v6.008h-3.156
		V204.708z M74.559,210.469c0,1.341,0.266,2.331,0.797,2.971c0.531,0.641,1.18,0.961,1.943,0.961c0.733,0,1.344-0.294,1.83-0.882
		s0.73-1.552,0.73-2.892c0-1.251-0.251-2.18-0.753-2.785c-0.502-0.607-1.123-0.91-1.864-0.91c-0.771,0-1.411,0.298-1.92,0.893
		C74.813,208.42,74.559,209.301,74.559,210.469z"/>
	<path fill="#020202" d="M92.482,212.839l3.145,0.528c-0.404,1.152-1.043,2.03-1.915,2.633s-1.963,0.904-3.273,0.904
		c-2.074,0-3.608-0.678-4.604-2.033c-0.786-1.085-1.179-2.455-1.179-4.109c0-1.977,0.516-3.525,1.549-4.645s2.34-1.679,3.92-1.679
		c1.774,0,3.175,0.586,4.2,1.758s1.517,2.967,1.472,5.385h-7.906c0.021,0.936,0.276,1.664,0.764,2.185
		c0.486,0.521,1.093,0.78,1.818,0.78c0.494,0,0.91-0.135,1.247-0.404S92.31,213.438,92.482,212.839z M92.662,209.649
		c-0.022-0.913-0.259-1.607-0.708-2.083s-0.995-0.713-1.639-0.713c-0.689,0-1.258,0.25-1.707,0.752s-0.671,1.183-0.663,2.044H92.662
		z"/>
	<path fill="#020202" d="M109.215,216.635h-3.156v-6.087c0-1.288-0.067-2.121-0.202-2.499s-0.354-0.672-0.657-0.881
		c-0.303-0.21-0.668-0.314-1.095-0.314c-0.547,0-1.037,0.149-1.472,0.449c-0.434,0.299-0.731,0.695-0.893,1.189
		s-0.241,1.408-0.241,2.74v5.402h-3.155v-11.927h2.931v1.752c1.041-1.348,2.351-2.021,3.931-2.021c0.696,0,1.333,0.125,1.909,0.376
		s1.013,0.571,1.309,0.961c0.296,0.389,0.501,0.83,0.617,1.324s0.175,1.202,0.175,2.123V216.635z"/>
	<path fill="#020202" d="M121.165,216.635l-3.932-16.464h3.403l2.481,11.31l3.01-11.31h3.953l2.887,11.5l2.527-11.5h3.346
		l-3.998,16.464h-3.525l-3.279-12.309l-3.269,12.309H121.165z"/>
	<path fill="#020202" d="M139.369,210.503c0-1.048,0.259-2.063,0.774-3.044c0.518-0.98,1.249-1.729,2.196-2.246
		c0.947-0.516,2.005-0.774,3.173-0.774c1.804,0,3.282,0.586,4.436,1.758s1.729,2.652,1.729,4.441c0,1.805-0.582,3.3-1.746,4.486
		s-2.63,1.78-4.397,1.78c-1.093,0-2.135-0.247-3.127-0.741s-1.746-1.219-2.264-2.173
		C139.627,213.035,139.369,211.873,139.369,210.503z M142.603,210.672c0,1.183,0.28,2.088,0.843,2.717
		c0.561,0.629,1.254,0.943,2.077,0.943s1.515-0.314,2.072-0.943s0.837-1.542,0.837-2.74c0-1.168-0.279-2.066-0.837-2.695
		s-1.249-0.943-2.072-0.943s-1.517,0.314-2.077,0.943C142.883,208.582,142.603,209.488,142.603,210.672z"/>
	<path fill="#020202" d="M157.168,216.635h-3.156v-11.927h2.932v1.696c0.502-0.802,0.953-1.329,1.354-1.584s0.855-0.382,1.364-0.382
		c0.719,0,1.411,0.198,2.077,0.595l-0.977,2.752c-0.531-0.345-1.025-0.517-1.482-0.517c-0.441,0-0.816,0.122-1.123,0.365
		s-0.549,0.683-0.725,1.319s-0.264,1.969-0.264,3.998V216.635z"/>
	<path fill="#020202" d="M162.987,216.635v-16.464h3.155v8.737l3.694-4.2h3.887l-4.077,4.357l4.368,7.569h-3.402l-2.998-5.357
		l-1.472,1.539v3.818H162.987z"/>
	<path fill="#020202" d="M175.754,216.635v-16.464h3.156v5.93c0.974-1.108,2.126-1.662,3.459-1.662c1.452,0,2.654,0.526,3.605,1.578
		c0.95,1.052,1.426,2.563,1.426,4.531c0,2.036-0.484,3.604-1.454,4.706c-0.97,1.1-2.147,1.65-3.532,1.65
		c-0.682,0-1.354-0.17-2.016-0.511c-0.663-0.341-1.233-0.845-1.713-1.511v1.752H175.754z M178.888,210.413
		c0,1.235,0.194,2.148,0.584,2.74c0.547,0.839,1.272,1.258,2.179,1.258c0.696,0,1.29-0.298,1.78-0.893
		c0.49-0.596,0.735-1.533,0.735-2.813c0-1.362-0.247-2.346-0.741-2.948s-1.127-0.903-1.897-0.903c-0.757,0-1.386,0.293-1.887,0.881
		C179.139,208.322,178.888,209.215,178.888,210.413z"/>
	<path fill="#020202" d="M196.845,212.839l3.145,0.528c-0.404,1.152-1.043,2.03-1.915,2.633s-1.963,0.904-3.273,0.904
		c-2.074,0-3.608-0.678-4.604-2.033c-0.786-1.085-1.179-2.455-1.179-4.109c0-1.977,0.516-3.525,1.549-4.645s2.34-1.679,3.92-1.679
		c1.774,0,3.175,0.586,4.2,1.758s1.517,2.967,1.472,5.385h-7.906c0.021,0.936,0.276,1.664,0.764,2.185
		c0.486,0.521,1.093,0.78,1.818,0.78c0.494,0,0.91-0.135,1.247-0.404S196.673,213.438,196.845,212.839z M197.025,209.649
		c-0.022-0.913-0.259-1.607-0.708-2.083s-0.995-0.713-1.639-0.713c-0.689,0-1.258,0.25-1.707,0.752s-0.671,1.183-0.663,2.044
		H197.025z"/>
	<path fill="#020202" d="M213.579,216.635h-3.156v-6.087c0-1.288-0.067-2.121-0.202-2.499s-0.354-0.672-0.657-0.881
		c-0.303-0.21-0.668-0.314-1.095-0.314c-0.547,0-1.037,0.149-1.472,0.449c-0.434,0.299-0.731,0.695-0.893,1.189
		s-0.241,1.408-0.241,2.74v5.402h-3.155v-11.927h2.931v1.752c1.041-1.348,2.351-2.021,3.931-2.021c0.696,0,1.333,0.125,1.909,0.376
		s1.013,0.571,1.309,0.961c0.296,0.389,0.501,0.83,0.617,1.324s0.175,1.202,0.175,2.123V216.635z"/>
	<path fill="#020202" d="M227.178,208.234l-3.111,0.562c-0.104-0.621-0.343-1.089-0.713-1.403c-0.371-0.314-0.852-0.473-1.443-0.473
		c-0.786,0-1.413,0.271-1.881,0.814s-0.702,1.451-0.702,2.724c0,1.415,0.237,2.415,0.713,2.999s1.114,0.875,1.915,0.875
		c0.599,0,1.09-0.17,1.471-0.511c0.383-0.341,0.652-0.927,0.809-1.757l3.1,0.527c-0.321,1.423-0.939,2.497-1.853,3.223
		c-0.913,0.727-2.138,1.09-3.673,1.09c-1.744,0-3.135-0.551-4.172-1.65c-1.037-1.102-1.555-2.625-1.555-4.571
		c0-1.969,0.52-3.502,1.561-4.599s2.448-1.646,4.223-1.646c1.452,0,2.607,0.313,3.465,0.938S226.803,206.954,227.178,208.234z"/>
	<path fill="#020202" d="M232.713,200.171v6.054c1.019-1.191,2.235-1.786,3.65-1.786c0.727,0,1.381,0.135,1.965,0.404
		s1.024,0.614,1.32,1.033s0.498,0.884,0.606,1.393s0.163,1.299,0.163,2.37v6.996h-3.156v-6.301c0-1.25-0.06-2.043-0.18-2.381
		c-0.12-0.336-0.331-0.604-0.635-0.803c-0.303-0.198-0.683-0.297-1.14-0.297c-0.524,0-0.992,0.127-1.403,0.381
		c-0.412,0.255-0.714,0.639-0.904,1.151c-0.191,0.513-0.287,1.271-0.287,2.274v5.975h-3.155v-16.464H232.713z"/>
	<path fill="#020202" d="M243.618,216.635v-3.156h3.156v3.156H243.618z"/>
	<path fill="#020202" d="M53.614,249.635v-16.464h4.975l2.987,11.23l2.954-11.23h4.986v16.464h-3.089v-12.96l-3.269,12.96h-3.2
		l-3.257-12.96v12.96H53.614z"/>
	<path fill="#020202" d="M71.683,246.232l3.167-0.483c0.135,0.614,0.408,1.08,0.819,1.398c0.412,0.318,0.988,0.478,1.73,0.478
		c0.815,0,1.43-0.15,1.842-0.449c0.276-0.21,0.415-0.491,0.415-0.843c0-0.239-0.075-0.438-0.225-0.595
		c-0.157-0.15-0.509-0.289-1.056-0.416c-2.546-0.562-4.159-1.074-4.84-1.539c-0.943-0.644-1.416-1.538-1.416-2.684
		c0-1.033,0.408-1.901,1.225-2.605s2.081-1.056,3.796-1.056c1.632,0,2.845,0.266,3.639,0.798c0.794,0.531,1.34,1.317,1.64,2.357
		l-2.977,0.551c-0.127-0.464-0.368-0.82-0.724-1.066c-0.355-0.248-0.863-0.371-1.522-0.371c-0.83,0-1.426,0.116-1.785,0.348
		c-0.239,0.165-0.359,0.379-0.359,0.641c0,0.225,0.104,0.416,0.314,0.572c0.284,0.21,1.268,0.506,2.948,0.888
		s2.854,0.85,3.521,1.403c0.659,0.563,0.988,1.345,0.988,2.348c0,1.093-0.457,2.033-1.37,2.818c-0.913,0.787-2.265,1.18-4.054,1.18
		c-1.625,0-2.911-0.329-3.858-0.988S71.975,247.362,71.683,246.232z"/>
	<path fill="#020202" d="M85.61,249.635v-16.464h5.334c2.021,0,3.339,0.082,3.953,0.247c0.943,0.247,1.733,0.784,2.369,1.611
		c0.637,0.827,0.955,1.896,0.955,3.207c0,1.01-0.184,1.86-0.551,2.549c-0.366,0.688-0.832,1.229-1.397,1.623
		c-0.565,0.393-1.14,0.653-1.724,0.78c-0.794,0.157-1.943,0.235-3.448,0.235h-2.167v6.211H85.61z M88.934,235.956v4.672h1.818
		c1.311,0,2.187-0.086,2.629-0.259c0.441-0.172,0.787-0.441,1.038-0.809c0.251-0.366,0.376-0.793,0.376-1.279
		c0-0.6-0.176-1.094-0.527-1.482c-0.352-0.39-0.797-0.633-1.336-0.73c-0.397-0.075-1.194-0.112-2.393-0.112H88.934z"/>
	<path fill="#020202" d="M103.949,249.635h-3.156v-11.927h2.932v1.696c0.502-0.802,0.953-1.329,1.354-1.584s0.855-0.382,1.364-0.382
		c0.719,0,1.411,0.198,2.077,0.595l-0.977,2.752c-0.531-0.345-1.025-0.517-1.482-0.517c-0.441,0-0.816,0.122-1.123,0.365
		s-0.549,0.683-0.725,1.319s-0.264,1.969-0.264,3.998V249.635z"/>
	<path fill="#020202" d="M109.148,243.503c0-1.048,0.259-2.063,0.774-3.044c0.518-0.98,1.249-1.729,2.196-2.246
		c0.947-0.516,2.005-0.774,3.173-0.774c1.804,0,3.282,0.586,4.436,1.758s1.729,2.652,1.729,4.441c0,1.805-0.582,3.3-1.746,4.486
		s-2.63,1.78-4.397,1.78c-1.093,0-2.135-0.247-3.127-0.741s-1.746-1.219-2.264-2.173
		C109.407,246.035,109.148,244.873,109.148,243.503z M112.382,243.672c0,1.183,0.28,2.088,0.843,2.717
		c0.561,0.629,1.254,0.943,2.077,0.943s1.515-0.314,2.072-0.943s0.837-1.542,0.837-2.74c0-1.168-0.279-2.066-0.837-2.695
		s-1.249-0.943-2.072-0.943s-1.517,0.314-2.077,0.943C112.663,241.582,112.382,242.488,112.382,243.672z"/>
	<path fill="#020202" d="M127.015,237.708v11.556c0,1.521-0.1,2.593-0.298,3.218s-0.58,1.114-1.146,1.466s-1.286,0.527-2.161,0.527
		c-0.314,0-0.653-0.027-1.017-0.084c-0.363-0.056-0.755-0.141-1.174-0.252l0.55-2.695c0.15,0.029,0.291,0.054,0.422,0.072
		s0.252,0.028,0.365,0.028c0.321,0,0.585-0.069,0.791-0.208s0.343-0.305,0.41-0.5c0.067-0.194,0.102-0.778,0.102-1.752v-11.376
		H127.015z M123.86,236.091v-2.92h3.155v2.92H123.86z"/>
	<path fill="#020202" d="M137.224,245.839l3.145,0.528c-0.404,1.152-1.043,2.03-1.915,2.633s-1.963,0.904-3.273,0.904
		c-2.074,0-3.608-0.678-4.604-2.033c-0.786-1.085-1.179-2.455-1.179-4.109c0-1.977,0.516-3.525,1.549-4.645s2.34-1.679,3.92-1.679
		c1.774,0,3.175,0.586,4.2,1.758s1.517,2.967,1.472,5.385h-7.906c0.021,0.936,0.276,1.664,0.764,2.185
		c0.486,0.521,1.093,0.78,1.818,0.78c0.494,0,0.91-0.135,1.247-0.404S137.052,246.438,137.224,245.839z M137.404,242.649
		c-0.022-0.913-0.259-1.607-0.708-2.083s-0.995-0.713-1.639-0.713c-0.689,0-1.258,0.25-1.707,0.752s-0.671,1.183-0.663,2.044
		H137.404z"/>
	<path fill="#020202" d="M153.508,241.234l-3.111,0.562c-0.104-0.621-0.343-1.089-0.713-1.403c-0.371-0.314-0.852-0.473-1.443-0.473
		c-0.786,0-1.413,0.271-1.881,0.814s-0.702,1.451-0.702,2.724c0,1.415,0.237,2.415,0.713,2.999s1.114,0.875,1.915,0.875
		c0.599,0,1.09-0.17,1.471-0.511c0.383-0.341,0.652-0.927,0.809-1.757l3.1,0.527c-0.321,1.423-0.939,2.497-1.853,3.223
		c-0.913,0.727-2.138,1.09-3.673,1.09c-1.744,0-3.135-0.551-4.172-1.65c-1.037-1.102-1.555-2.625-1.555-4.571
		c0-1.969,0.52-3.502,1.561-4.599s2.448-1.646,4.223-1.646c1.452,0,2.607,0.313,3.465,0.938S153.133,239.954,153.508,241.234z"/>
	<path fill="#020202" d="M161.369,237.708v2.516h-2.156v4.807c0,0.974,0.021,1.54,0.062,1.701s0.135,0.294,0.281,0.399
		c0.146,0.104,0.323,0.156,0.533,0.156c0.292,0,0.715-0.101,1.27-0.303l0.27,2.448c-0.734,0.314-1.565,0.472-2.494,0.472
		c-0.568,0-1.081-0.096-1.538-0.286c-0.457-0.191-0.792-0.438-1.005-0.741c-0.214-0.304-0.361-0.713-0.443-1.23
		c-0.068-0.366-0.102-1.107-0.102-2.223v-5.2h-1.449v-2.516h1.449v-2.37l3.167-1.842v4.212H161.369z"/>
	<path fill="#020202" d="M163.558,249.635v-3.156h3.156v3.156H163.558z"/>
	<path fill="#020202" d="M53.614,282.635v-16.464h4.975l2.987,11.23l2.954-11.23h4.986v16.464h-3.089v-12.96l-3.269,12.96h-3.2
		l-3.257-12.96v12.96H53.614z"/>
	<path fill="#020202" d="M75.154,274.347l-2.864-0.517c0.322-1.153,0.876-2.007,1.662-2.561s1.954-0.831,3.504-0.831
		c1.407,0,2.456,0.167,3.145,0.5s1.174,0.756,1.454,1.269c0.281,0.513,0.422,1.455,0.422,2.824l-0.034,3.684
		c0,1.049,0.051,1.821,0.151,2.319c0.102,0.498,0.29,1.031,0.567,1.601h-3.122c-0.082-0.21-0.184-0.521-0.303-0.932
		c-0.053-0.188-0.09-0.312-0.113-0.371c-0.539,0.524-1.115,0.917-1.729,1.18c-0.614,0.262-1.27,0.393-1.966,0.393
		c-1.228,0-2.195-0.333-2.903-1c-0.707-0.666-1.061-1.508-1.061-2.526c0-0.674,0.16-1.274,0.482-1.803
		c0.322-0.527,0.773-0.932,1.354-1.213c0.58-0.28,1.417-0.525,2.51-0.735c1.475-0.277,2.497-0.535,3.066-0.775v-0.314
		c0-0.605-0.15-1.038-0.449-1.297c-0.3-0.258-0.865-0.387-1.696-0.387c-0.562,0-0.999,0.11-1.313,0.331
		S75.348,273.793,75.154,274.347z M79.377,276.907c-0.404,0.135-1.045,0.296-1.921,0.483c-0.876,0.187-1.448,0.37-1.718,0.55
		c-0.412,0.292-0.618,0.663-0.618,1.112c0,0.441,0.165,0.823,0.494,1.145c0.329,0.322,0.749,0.483,1.258,0.483
		c0.569,0,1.112-0.188,1.628-0.562c0.383-0.284,0.633-0.633,0.753-1.045c0.082-0.27,0.124-0.782,0.124-1.538V276.907z"/>
	<path fill="#020202" d="M88.608,282.635h-3.156v-11.927h2.932v1.696c0.502-0.802,0.953-1.329,1.354-1.584s0.855-0.382,1.364-0.382
		c0.719,0,1.411,0.198,2.077,0.595l-0.977,2.752c-0.531-0.345-1.025-0.517-1.482-0.517c-0.441,0-0.816,0.122-1.123,0.365
		s-0.549,0.683-0.725,1.319s-0.264,1.969-0.264,3.998V282.635z"/>
	<path fill="#020202" d="M104.938,274.234l-3.111,0.562c-0.104-0.621-0.343-1.089-0.713-1.403c-0.371-0.314-0.852-0.473-1.443-0.473
		c-0.786,0-1.413,0.271-1.881,0.814s-0.702,1.451-0.702,2.724c0,1.415,0.237,2.415,0.713,2.999s1.114,0.875,1.915,0.875
		c0.599,0,1.09-0.17,1.471-0.511c0.383-0.341,0.652-0.927,0.809-1.757l3.1,0.527c-0.321,1.423-0.939,2.497-1.853,3.223
		c-0.913,0.727-2.138,1.09-3.673,1.09c-1.744,0-3.135-0.551-4.172-1.65c-1.037-1.102-1.555-2.625-1.555-4.571
		c0-1.969,0.52-3.502,1.561-4.599s2.448-1.646,4.223-1.646c1.452,0,2.607,0.313,3.465,0.938S104.563,272.954,104.938,274.234z"/>
	<path fill="#020202" d="M106.599,276.503c0-1.048,0.259-2.063,0.774-3.044c0.518-0.98,1.249-1.729,2.196-2.246
		c0.947-0.516,2.005-0.774,3.173-0.774c1.804,0,3.282,0.586,4.436,1.758s1.729,2.652,1.729,4.441c0,1.805-0.582,3.3-1.746,4.486
		s-2.63,1.78-4.397,1.78c-1.093,0-2.135-0.247-3.127-0.741s-1.746-1.219-2.264-2.173
		C106.858,279.035,106.599,277.873,106.599,276.503z M109.834,276.672c0,1.183,0.28,2.088,0.843,2.717
		c0.561,0.629,1.254,0.943,2.077,0.943s1.515-0.314,2.072-0.943s0.837-1.542,0.837-2.74c0-1.168-0.279-2.066-0.837-2.695
		s-1.249-0.943-2.072-0.943s-1.517,0.314-2.077,0.943C110.114,274.582,109.834,275.488,109.834,276.672z"/>
	<path fill="#020202" d="M127.881,282.635v-16.329h3.324v13.556h8.266v2.773H127.881z"/>
	<path fill="#020202" d="M141.087,276.503c0-1.048,0.259-2.063,0.774-3.044c0.518-0.98,1.249-1.729,2.196-2.246
		c0.947-0.516,2.005-0.774,3.173-0.774c1.804,0,3.282,0.586,4.436,1.758s1.729,2.652,1.729,4.441c0,1.805-0.582,3.3-1.746,4.486
		s-2.63,1.78-4.397,1.78c-1.093,0-2.135-0.247-3.127-0.741s-1.746-1.219-2.264-2.173
		C141.346,279.035,141.087,277.873,141.087,276.503z M144.322,276.672c0,1.183,0.28,2.088,0.843,2.717
		c0.561,0.629,1.254,0.943,2.077,0.943s1.515-0.314,2.072-0.943s0.837-1.542,0.837-2.74c0-1.168-0.279-2.066-0.837-2.695
		s-1.249-0.943-2.072-0.943s-1.517,0.314-2.077,0.943C144.602,274.582,144.322,275.488,144.322,276.672z M145.647,269.248
		l1.55-3.357h3.538l-3.089,3.357H145.647z"/>
	<path fill="#020202" d="M155.575,283.421l3.604,0.438c0.06,0.419,0.198,0.707,0.415,0.864c0.3,0.225,0.771,0.337,1.416,0.337
		c0.823,0,1.44-0.123,1.853-0.371c0.277-0.164,0.486-0.43,0.629-0.797c0.098-0.262,0.146-0.745,0.146-1.449v-1.74
		c-0.943,1.288-2.133,1.932-3.57,1.932c-1.603,0-2.872-0.678-3.808-2.033c-0.733-1.07-1.101-2.402-1.101-3.998
		c0-1.998,0.481-3.525,1.443-4.582c0.962-1.055,2.158-1.583,3.588-1.583c1.475,0,2.691,0.647,3.65,1.942v-1.673h2.953v10.702
		c0,1.408-0.116,2.46-0.348,3.156c-0.232,0.696-0.559,1.243-0.978,1.64s-0.979,0.708-1.679,0.933s-1.586,0.336-2.656,0.336
		c-2.021,0-3.455-0.346-4.301-1.038c-0.847-0.692-1.27-1.57-1.27-2.634C155.563,283.698,155.567,283.57,155.575,283.421z
		 M158.393,276.424c0,1.266,0.245,2.192,0.735,2.78s1.095,0.882,1.813,0.882c0.771,0,1.423-0.302,1.955-0.904
		c0.531-0.603,0.797-1.496,0.797-2.679c0-1.235-0.255-2.152-0.764-2.751c-0.509-0.6-1.153-0.898-1.932-0.898
		c-0.756,0-1.38,0.293-1.87,0.881S158.393,275.219,158.393,276.424z"/>
	<path fill="#020202" d="M169.915,269.091v-2.92h3.156v2.92H169.915z M169.915,282.635v-11.927h3.156v11.927H169.915z"/>
	<path fill="#020202" d="M186.706,274.234l-3.111,0.562c-0.104-0.621-0.343-1.089-0.713-1.403c-0.371-0.314-0.852-0.473-1.443-0.473
		c-0.786,0-1.413,0.271-1.881,0.814s-0.702,1.451-0.702,2.724c0,1.415,0.237,2.415,0.713,2.999s1.114,0.875,1.915,0.875
		c0.599,0,1.09-0.17,1.471-0.511c0.383-0.341,0.652-0.927,0.809-1.757l3.1,0.527c-0.321,1.423-0.939,2.497-1.853,3.223
		c-0.913,0.727-2.138,1.09-3.673,1.09c-1.744,0-3.135-0.551-4.172-1.65c-1.037-1.102-1.555-2.625-1.555-4.571
		c0-1.969,0.52-3.502,1.561-4.599s2.448-1.646,4.223-1.646c1.452,0,2.607,0.313,3.465,0.938S186.331,272.954,186.706,274.234z"/>
	<path fill="#020202" d="M188.367,276.503c0-1.048,0.259-2.063,0.774-3.044c0.518-0.98,1.249-1.729,2.196-2.246
		c0.947-0.516,2.005-0.774,3.173-0.774c1.804,0,3.282,0.586,4.436,1.758s1.729,2.652,1.729,4.441c0,1.805-0.582,3.3-1.746,4.486
		s-2.63,1.78-4.397,1.78c-1.093,0-2.135-0.247-3.127-0.741s-1.746-1.219-2.264-2.173
		C188.626,279.035,188.367,277.873,188.367,276.503z M191.601,276.672c0,1.183,0.28,2.088,0.843,2.717
		c0.561,0.629,1.254,0.943,2.077,0.943s1.515-0.314,2.072-0.943s0.837-1.542,0.837-2.74c0-1.168-0.279-2.066-0.837-2.695
		s-1.249-0.943-2.072-0.943s-1.517,0.314-2.077,0.943C191.881,274.582,191.601,275.488,191.601,276.672z"/>
	<path fill="#020202" d="M203.145,282.635v-3.156h3.156v3.156H203.145z"/>
</g>
<g>
	<radialGradient id="SVGID_2_" cx="40.5537" cy="108.9346" r="9.1016" gradientUnits="userSpaceOnUse">
		<stop  offset="0" style="stop-color:#8CBB69"/>
		<stop  offset="0.7837" style="stop-color:#6BAD44"/>
	</radialGradient>
	<path fill="url(#SVGID_2_)" d="M42.752,117.685v-2.212c0.313-0.129,0.791-0.294,1.172-0.496l1.55,1.563
		c0.146,0.148,0.383,0.148,0.53,0l2.238-2.241c0.149-0.148,0.148-0.389-0.003-0.536l-1.565-1.655
		c0.205-0.381,0.37-0.661,0.497-1.289h2.214c0.21,0,0.271,0.01,0.271-0.2v-3.17c0-0.21-0.061-0.396-0.271-0.396h-2.214
		c-0.127-0.628-0.292-0.81-0.497-1.189l1.565-1.56c0.15-0.149,0.15-0.388,0-0.536l-2.243-2.24c-0.147-0.15-0.389-0.148-0.536,0.001
		l-1.536,1.563c-0.381-0.199-0.858-0.367-1.172-0.496v-2.212c0-0.21-0.226-0.549-0.433-0.549h-3.171
		c-0.21,0-0.476,0.339-0.476,0.549v2.212c-0.315,0.129-0.773,0.297-1.15,0.496l-1.542-1.563c-0.147-0.149-0.376-0.149-0.522,0
		l-2.238,2.24c-0.15,0.15-0.145,0.389,0.002,0.539l1.568,1.557c-0.201,0.379-0.369,0.561-0.496,1.189h-2.211
		c-0.211,0-0.631,0.186-0.631,0.396v3.17c0,0.21,0.42,0.2,0.631,0.2h2.211c0.129,0.628,0.295,0.908,0.496,1.289l-1.564,1.61
		c-0.147,0.148-0.147,0.41,0,0.559l2.242,2.252c0.147,0.15,0.389,0.155,0.536,0.006l1.519-1.561c0.378,0.202,0.835,0.37,1.15,0.499
		v2.212c0,0.21,0.266,0.352,0.476,0.352h3.171C42.526,118.036,42.752,117.895,42.752,117.685z"/>
	<circle fill="#F1F1F1" stroke="#144B8B" stroke-linejoin="round" stroke-miterlimit="10" cx="40.651" cy="109.139" r="2.845"/>
</g>
<g>
	<radialGradient id="SVGID_3_" cx="40.5537" cy="142.2559" r="9.1016" gradientUnits="userSpaceOnUse">
		<stop  offset="0" style="stop-color:#8CBB69"/>
		<stop  offset="0.7837" style="stop-color:#6BAD44"/>
	</radialGradient>
	<path fill="url(#SVGID_3_)" d="M42.752,151.006v-2.212c0.313-0.129,0.791-0.294,1.172-0.496l1.55,1.564
		c0.146,0.148,0.383,0.148,0.53,0l2.238-2.241c0.149-0.148,0.148-0.389-0.003-0.536l-1.565-1.655
		c0.205-0.381,0.37-0.661,0.497-1.289h2.214c0.21,0,0.271,0.01,0.271-0.2v-3.17c0-0.21-0.061-0.397-0.271-0.397h-2.214
		c-0.127-0.628-0.292-0.81-0.497-1.188l1.565-1.561c0.15-0.148,0.15-0.388,0-0.536l-2.243-2.24c-0.147-0.15-0.389-0.148-0.536,0.001
		l-1.536,1.563c-0.381-0.199-0.858-0.367-1.172-0.496v-2.212c0-0.21-0.226-0.549-0.433-0.549h-3.171
		c-0.21,0-0.476,0.339-0.476,0.549v2.212c-0.315,0.129-0.773,0.297-1.15,0.496l-1.542-1.563c-0.147-0.149-0.376-0.149-0.522,0
		l-2.238,2.24c-0.15,0.15-0.145,0.389,0.002,0.539l1.568,1.557c-0.201,0.379-0.369,0.561-0.496,1.188h-2.211
		c-0.211,0-0.631,0.187-0.631,0.397v3.17c0,0.21,0.42,0.2,0.631,0.2h2.211c0.129,0.628,0.295,0.908,0.496,1.289l-1.564,1.61
		c-0.147,0.148-0.147,0.41,0,0.559l2.242,2.252c0.147,0.15,0.389,0.155,0.536,0.006l1.519-1.561c0.378,0.202,0.835,0.37,1.15,0.499
		v2.212c0,0.21,0.266,0.352,0.476,0.352h3.171C42.526,151.357,42.752,151.216,42.752,151.006z"/>
	<circle fill="#F1F1F1" stroke="#144B8B" stroke-linejoin="round" stroke-miterlimit="10" cx="40.651" cy="142.46" r="2.845"/>
</g>
<g>
	<radialGradient id="SVGID_4_" cx="40.5537" cy="175.2559" r="9.1016" gradientUnits="userSpaceOnUse">
		<stop  offset="0" style="stop-color:#8CBB69"/>
		<stop  offset="0.7837" style="stop-color:#6BAD44"/>
	</radialGradient>
	<path fill="url(#SVGID_4_)" d="M42.752,184.006v-2.212c0.313-0.129,0.791-0.294,1.172-0.496l1.55,1.564
		c0.146,0.148,0.383,0.148,0.53,0l2.238-2.241c0.149-0.148,0.148-0.389-0.003-0.536l-1.565-1.655
		c0.205-0.381,0.37-0.661,0.497-1.289h2.214c0.21,0,0.271,0.01,0.271-0.2v-3.17c0-0.21-0.061-0.397-0.271-0.397h-2.214
		c-0.127-0.628-0.292-0.81-0.497-1.188l1.565-1.561c0.15-0.148,0.15-0.388,0-0.536l-2.243-2.24c-0.147-0.15-0.389-0.148-0.536,0.001
		l-1.536,1.563c-0.381-0.199-0.858-0.367-1.172-0.496v-2.212c0-0.21-0.226-0.549-0.433-0.549h-3.171
		c-0.21,0-0.476,0.339-0.476,0.549v2.212c-0.315,0.129-0.773,0.297-1.15,0.496l-1.542-1.563c-0.147-0.149-0.376-0.149-0.522,0
		l-2.238,2.24c-0.15,0.15-0.145,0.389,0.002,0.539l1.568,1.557c-0.201,0.379-0.369,0.561-0.496,1.188h-2.211
		c-0.211,0-0.631,0.187-0.631,0.397v3.17c0,0.21,0.42,0.2,0.631,0.2h2.211c0.129,0.628,0.295,0.908,0.496,1.289l-1.564,1.61
		c-0.147,0.148-0.147,0.41,0,0.559l2.242,2.252c0.147,0.15,0.389,0.155,0.536,0.006l1.519-1.561c0.378,0.202,0.835,0.37,1.15,0.499
		v2.212c0,0.21,0.266,0.352,0.476,0.352h3.171C42.526,184.357,42.752,184.216,42.752,184.006z"/>
	<circle fill="#F1F1F1" stroke="#144B8B" stroke-linejoin="round" stroke-miterlimit="10" cx="40.651" cy="175.46" r="2.845"/>
</g>
<g>
	<radialGradient id="SVGID_5_" cx="40.5537" cy="206.6719" r="9.1016" gradientUnits="userSpaceOnUse">
		<stop  offset="0" style="stop-color:#8CBB69"/>
		<stop  offset="0.7837" style="stop-color:#6BAD44"/>
	</radialGradient>
	<path fill="url(#SVGID_5_)" d="M42.752,215.422v-2.212c0.313-0.129,0.791-0.294,1.172-0.496l1.55,1.564
		c0.146,0.148,0.383,0.148,0.53,0l2.238-2.241c0.149-0.148,0.148-0.389-0.003-0.536l-1.565-1.655
		c0.205-0.381,0.37-0.661,0.497-1.289h2.214c0.21,0,0.271,0.01,0.271-0.2v-3.17c0-0.21-0.061-0.396-0.271-0.396h-2.214
		c-0.127-0.628-0.292-0.81-0.497-1.188l1.565-1.561c0.15-0.148,0.15-0.388,0-0.536l-2.243-2.24c-0.147-0.15-0.389-0.148-0.536,0.001
		l-1.536,1.563c-0.381-0.199-0.858-0.367-1.172-0.496v-2.212c0-0.21-0.226-0.549-0.433-0.549h-3.171
		c-0.21,0-0.476,0.339-0.476,0.549v2.212c-0.315,0.129-0.773,0.297-1.15,0.496l-1.542-1.563c-0.147-0.149-0.376-0.149-0.522,0
		l-2.238,2.24c-0.15,0.15-0.145,0.389,0.002,0.539l1.568,1.557c-0.201,0.379-0.369,0.561-0.496,1.188h-2.211
		c-0.211,0-0.631,0.187-0.631,0.396v3.17c0,0.21,0.42,0.2,0.631,0.2h2.211c0.129,0.628,0.295,0.908,0.496,1.289l-1.564,1.61
		c-0.147,0.148-0.147,0.41,0,0.559l2.242,2.252c0.147,0.15,0.389,0.155,0.536,0.006l1.519-1.561c0.378,0.202,0.835,0.37,1.15,0.499
		v2.212c0,0.21,0.266,0.352,0.476,0.352h3.171C42.526,215.773,42.752,215.632,42.752,215.422z"/>
	<circle fill="#F1F1F1" stroke="#144B8B" stroke-linejoin="round" stroke-miterlimit="10" cx="40.651" cy="206.876" r="2.845"/>
</g>
<g>
	<radialGradient id="SVGID_6_" cx="40.5537" cy="240.3018" r="9.1016" gradientUnits="userSpaceOnUse">
		<stop  offset="0" style="stop-color:#8CBB69"/>
		<stop  offset="0.7837" style="stop-color:#6BAD44"/>
	</radialGradient>
	<path fill="url(#SVGID_6_)" d="M42.752,249.052v-2.212c0.313-0.129,0.791-0.294,1.172-0.496l1.55,1.564
		c0.146,0.148,0.383,0.148,0.53,0l2.238-2.241c0.149-0.148,0.148-0.389-0.003-0.536l-1.565-1.655
		c0.205-0.381,0.37-0.661,0.497-1.289h2.214c0.21,0,0.271,0.01,0.271-0.2v-3.17c0-0.21-0.061-0.396-0.271-0.396h-2.214
		c-0.127-0.628-0.292-0.81-0.497-1.189l1.565-1.561c0.15-0.148,0.15-0.388,0-0.536l-2.243-2.24c-0.147-0.15-0.389-0.148-0.536,0.001
		l-1.536,1.563c-0.381-0.199-0.858-0.367-1.172-0.496v-2.212c0-0.21-0.226-0.549-0.433-0.549h-3.171
		c-0.21,0-0.476,0.339-0.476,0.549v2.212c-0.315,0.129-0.773,0.297-1.15,0.496l-1.542-1.563c-0.147-0.149-0.376-0.149-0.522,0
		l-2.238,2.24c-0.15,0.15-0.145,0.389,0.002,0.539l1.568,1.557c-0.201,0.379-0.369,0.561-0.496,1.189h-2.211
		c-0.211,0-0.631,0.186-0.631,0.396v3.17c0,0.21,0.42,0.2,0.631,0.2h2.211c0.129,0.628,0.295,0.908,0.496,1.289l-1.564,1.61
		c-0.147,0.147-0.147,0.41,0,0.559l2.242,2.252c0.147,0.15,0.389,0.155,0.536,0.006l1.519-1.561c0.378,0.202,0.835,0.37,1.15,0.499
		v2.212c0,0.21,0.266,0.352,0.476,0.352h3.171C42.526,249.403,42.752,249.262,42.752,249.052z"/>
	<circle fill="#F1F1F1" stroke="#144B8B" stroke-linejoin="round" stroke-miterlimit="10" cx="40.651" cy="240.506" r="2.845"/>
</g>
<g>
	<radialGradient id="SVGID_7_" cx="40.5537" cy="273.2794" r="9.1016" gradientUnits="userSpaceOnUse">
		<stop  offset="0" style="stop-color:#8CBB69"/>
		<stop  offset="0.7837" style="stop-color:#6BAD44"/>
	</radialGradient>
	<path fill="url(#SVGID_7_)" d="M42.752,282.029v-2.212c0.313-0.129,0.791-0.294,1.172-0.496l1.55,1.564
		c0.146,0.148,0.383,0.148,0.53,0l2.238-2.241c0.149-0.148,0.148-0.389-0.003-0.536l-1.565-1.655
		c0.205-0.381,0.37-0.661,0.497-1.289h2.214c0.21,0,0.271,0.01,0.271-0.2v-3.17c0-0.21-0.061-0.396-0.271-0.396h-2.214
		c-0.127-0.628-0.292-0.81-0.497-1.189l1.565-1.561c0.15-0.148,0.15-0.388,0-0.536l-2.243-2.24c-0.147-0.15-0.389-0.148-0.536,0.001
		l-1.536,1.563c-0.381-0.199-0.858-0.367-1.172-0.496v-2.212c0-0.21-0.226-0.549-0.433-0.549h-3.171
		c-0.21,0-0.476,0.339-0.476,0.549v2.212c-0.315,0.129-0.773,0.297-1.15,0.496l-1.542-1.563c-0.147-0.149-0.376-0.149-0.522,0
		l-2.238,2.24c-0.15,0.15-0.145,0.389,0.002,0.539l1.568,1.557c-0.201,0.379-0.369,0.561-0.496,1.189h-2.211
		c-0.211,0-0.631,0.186-0.631,0.396v3.17c0,0.21,0.42,0.2,0.631,0.2h2.211c0.129,0.628,0.295,0.908,0.496,1.289l-1.564,1.61
		c-0.147,0.147-0.147,0.41,0,0.559l2.242,2.252c0.147,0.15,0.389,0.155,0.536,0.006l1.519-1.561c0.378,0.202,0.835,0.37,1.15,0.499
		v2.212c0,0.21,0.266,0.352,0.476,0.352h3.171C42.526,282.381,42.752,282.239,42.752,282.029z"/>
	<circle fill="#F1F1F1" stroke="#144B8B" stroke-linejoin="round" stroke-miterlimit="10" cx="40.651" cy="273.484" r="2.845"/>
</g>
<g>
	<g>
		
			<radialGradient id="SVGID_8_" cx="5962.5571" cy="4972.8525" r="17.3909" gradientTransform="matrix(0 1 -1 0 5112.752 -5891.7417)" gradientUnits="userSpaceOnUse">
			<stop  offset="0" style="stop-color:#8CBB69"/>
			<stop  offset="0.7837" style="stop-color:#6BAD44"/>
		</radialGradient>
		<polygon fill="url(#SVGID_8_)" points="131.077,52.654 131.077,60.25 123.314,60.25 131.607,74.613 139.899,88.977 
			148.193,74.613 156.484,60.25 148.722,60.25 148.722,52.654 		"/>
	</g>
</g>
<g>
	<path fill="#D1D3D4" d="M191.996,326.701V316.47l7.237-7.234h19.003c-3.982-5.935-10.752-9.841-18.437-9.841
		c-7.952,0-14.909,4.198-18.827,10.486H98.657c-3.917-6.288-10.874-10.486-18.828-10.486c-7.684,0-14.45,3.906-18.435,9.841h19.003
		l7.235,7.234v10.231l-7.235,7.233H61.394c3.985,5.935,10.751,9.841,18.435,9.841c7.954,0,14.911-4.198,18.828-10.486h82.315
		c3.918,6.288,10.876,10.486,18.827,10.486c7.685,0,14.454-3.906,18.437-9.841h-19.003L191.996,326.701z"/>
	<path d="M199.799,344.502c-7.815,0-14.972-3.912-19.225-10.485H99.056c-4.254,6.573-11.412,10.485-19.227,10.485
		c-7.648,0-14.766-3.798-19.037-10.163c-0.151-0.222-0.166-0.509-0.04-0.746c0.126-0.236,0.374-0.385,0.642-0.385h18.703
		l6.809-6.807v-9.633l-6.809-6.807H61.394c-0.268,0-0.515-0.147-0.642-0.385c-0.126-0.236-0.112-0.523,0.04-0.746
		c4.271-6.364,11.389-10.162,19.037-10.162c7.815,0,14.973,3.912,19.227,10.486h81.519c4.253-6.574,11.41-10.486,19.225-10.486
		c7.595,0,14.662,3.743,18.943,10.02c0.153,0.134,0.249,0.329,0.249,0.547c0,0.402-0.326,0.727-0.727,0.727
		c-0.008,0.001-0.018,0.001-0.029,0h-18.703l-6.81,6.807v9.633l6.81,6.807h18.703c0.267,0,0.515,0.148,0.641,0.385
		c0.127,0.237,0.112,0.524-0.039,0.746C214.568,340.704,207.451,344.502,199.799,344.502z M98.657,332.564h82.315
		c0.251,0,0.484,0.13,0.618,0.343c3.957,6.351,10.766,10.143,18.209,10.143c6.702,0,12.964-3.111,17.021-8.389h-17.588
		c-0.193,0-0.377-0.076-0.514-0.213l-7.235-7.234c-0.137-0.136-0.214-0.319-0.214-0.513V316.47c0-0.192,0.077-0.378,0.214-0.514
		l7.235-7.234c0.137-0.135,0.321-0.212,0.514-0.212h17.588c-4.057-5.278-10.32-8.388-17.021-8.388
		c-7.444,0-14.252,3.792-18.209,10.145c-0.134,0.212-0.366,0.341-0.618,0.341H98.657c-0.25,0-0.483-0.129-0.617-0.341
		c-3.957-6.353-10.765-10.145-18.211-10.145c-6.698,0-12.962,3.109-17.02,8.388h17.587c0.193,0,0.378,0.077,0.514,0.212l7.235,7.234
		c0.137,0.136,0.212,0.321,0.212,0.514v10.231c0,0.193-0.075,0.377-0.212,0.513l-7.235,7.234c-0.136,0.137-0.321,0.213-0.514,0.213
		H62.81c4.057,5.277,10.322,8.389,17.02,8.389c7.446,0,14.254-3.793,18.211-10.143C98.174,332.693,98.407,332.564,98.657,332.564z"
		/>
</g>
<g>
	<path d="M180.12,327.251H99.51c-0.401,0-0.725-0.326-0.725-0.727v-7.02c0-0.4,0.324-0.727,0.725-0.727s0.726,0.326,0.726,0.727
		v6.293h79.156v-6.293c0-0.4,0.327-0.727,0.728-0.727c0.401,0,0.725,0.326,0.725,0.727v7.02
		C180.845,326.925,180.52,327.251,180.12,327.251z"/>
</g>
</svg>