<!-- Generator: Adobe Illustrator 17.0.0, SVG Export Plug-In  -->
<svg version="1.1"
	 xmlns="http://www.w3.org/2000/svg" xmlns:xlink="http://www.w3.org/1999/xlink" xmlns:a="http://ns.adobe.com/AdobeSVGViewerExtensions/3.0/"
	 x="0px" y="0px" width="279.452px" height="326.305px" viewBox="0 0 279.452 326.305" enable-background="new 0 0 279.452 326.305"
	 xml:space="preserve">
<defs>
</defs>
<g>
	<g>
		<radialGradient id="SVGID_1_" cx="139.7261" cy="23.1558" r="98.4442" gradientUnits="userSpaceOnUse">
			<stop  offset="0" style="stop-color:#8CBB69"/>
			<stop  offset="0.7837" style="stop-color:#6BAD44"/>
		</radialGradient>
		<rect x="2.105" y="2.106" fill="url(#SVGID_1_)" width="275.241" height="42.099"/>
		<path d="M277.347,46.31H2.105C0.943,46.31,0,45.368,0,44.205V2.106C0,0.943,0.943,0,2.105,0h275.241
			c1.163,0,2.105,0.943,2.105,2.106v42.099C279.452,45.368,278.51,46.31,277.347,46.31z M4.212,42.101h271.031V4.212H4.212V42.101z"
			/>
	</g>
</g>
<g>
	<g>
		<path fill="#FFFFFF" d="M74.897,33.367V16.832h6.237c1.098,0,1.936,0.053,2.515,0.158c0.813,0.136,1.493,0.394,2.042,0.772
			c0.549,0.38,0.99,0.912,1.325,1.597c0.334,0.684,0.502,1.436,0.502,2.255c0,1.406-0.447,2.597-1.343,3.57
			c-0.895,0.974-2.511,1.46-4.85,1.46h-4.241v6.723H74.897z M77.085,24.693h4.275c1.413,0,2.417-0.263,3.011-0.789
			c0.595-0.526,0.892-1.267,0.892-2.222c0-0.692-0.175-1.284-0.524-1.776c-0.35-0.493-0.811-0.818-1.382-0.976
			c-0.368-0.098-1.049-0.147-2.042-0.147h-4.229V24.693z"/>
		<path fill="#FFFFFF" d="M90.338,33.367V16.832h7.332c1.474,0,2.594,0.149,3.36,0.446c0.768,0.297,1.38,0.821,1.839,1.573
			s0.688,1.583,0.688,2.492c0,1.173-0.379,2.162-1.139,2.967s-1.933,1.315-3.519,1.533c0.578,0.278,1.019,0.553,1.319,0.824
			c0.639,0.586,1.244,1.319,1.815,2.199l2.876,4.5h-2.752l-2.188-3.44c-0.64-0.992-1.166-1.752-1.579-2.278
			c-0.414-0.525-0.784-0.895-1.111-1.104c-0.327-0.211-0.659-0.357-0.998-0.44c-0.248-0.053-0.654-0.079-1.218-0.079h-2.538v7.343
			H90.338z M92.526,24.13h4.703c1,0,1.782-0.104,2.347-0.311c0.563-0.206,0.992-0.537,1.285-0.992s0.44-0.949,0.44-1.483
			c0-0.781-0.284-1.425-0.852-1.929c-0.568-0.504-1.465-0.756-2.69-0.756h-5.233V24.13z"/>
		<path fill="#FFFFFF" d="M107.358,33.367V16.832h2.188v16.535H107.358z"/>
		<path fill="#FFFFFF" d="M113.382,33.367V16.832h2.244l8.685,12.982V16.832h2.098v16.535h-2.244l-8.685-12.993v12.993H113.382z"/>
		<path fill="#FFFFFF" d="M141.884,27.57l2.188,0.552c-0.459,1.798-1.284,3.168-2.476,4.111c-1.191,0.944-2.648,1.416-4.37,1.416
			c-1.782,0-3.231-0.363-4.349-1.089c-1.116-0.726-1.966-1.776-2.549-3.152s-0.874-2.854-0.874-4.433
			c0-1.722,0.329-3.224,0.987-4.506c0.657-1.282,1.594-2.256,2.808-2.921c1.215-0.666,2.551-0.998,4.01-0.998
			c1.654,0,3.046,0.421,4.174,1.263c1.128,0.843,1.913,2.026,2.356,3.553l-2.153,0.508c-0.384-1.203-0.94-2.079-1.67-2.628
			s-1.646-0.823-2.752-0.823c-1.271,0-2.333,0.305-3.187,0.913c-0.854,0.609-1.453,1.427-1.799,2.453s-0.519,2.085-0.519,3.176
			c0,1.406,0.205,2.633,0.614,3.683c0.41,1.049,1.048,1.832,1.912,2.352c0.864,0.519,1.801,0.778,2.809,0.778
			c1.226,0,2.263-0.354,3.113-1.061C141.008,30.01,141.583,28.961,141.884,27.57z"/>
		<path fill="#FFFFFF" d="M147.14,33.367V16.832h2.188v16.535H147.14z"/>
		<path fill="#FFFFFF" d="M153.186,33.367V16.832h6.237c1.098,0,1.936,0.053,2.515,0.158c0.813,0.136,1.493,0.394,2.042,0.772
			c0.549,0.38,0.99,0.912,1.325,1.597c0.334,0.684,0.502,1.436,0.502,2.255c0,1.406-0.447,2.597-1.343,3.57
			c-0.895,0.974-2.511,1.46-4.85,1.46h-4.241v6.723H153.186z M155.373,24.693h4.275c1.413,0,2.417-0.263,3.011-0.789
			c0.595-0.526,0.892-1.267,0.892-2.222c0-0.692-0.175-1.284-0.524-1.776c-0.35-0.493-0.811-0.818-1.382-0.976
			c-0.368-0.098-1.049-0.147-2.042-0.147h-4.229V24.693z"/>
		<path fill="#FFFFFF" d="M168.965,33.367V16.832h2.188v16.535H168.965z"/>
		<path fill="#FFFFFF" d="M174.345,25.314c0-2.745,0.737-4.894,2.211-6.446s3.376-2.329,5.707-2.329
			c1.526,0,2.902,0.365,4.128,1.094c1.226,0.729,2.16,1.747,2.803,3.052c0.644,1.305,0.965,2.784,0.965,4.438
			c0,1.677-0.339,3.177-1.016,4.501c-0.677,1.323-1.635,2.325-2.876,3.006c-1.24,0.68-2.579,1.021-4.015,1.021
			c-1.557,0-2.948-0.376-4.174-1.128c-1.226-0.752-2.154-1.778-2.785-3.079C174.661,28.142,174.345,26.766,174.345,25.314z
			 M176.601,25.348c0,1.993,0.536,3.563,1.607,4.709s2.416,1.721,4.032,1.721c1.646,0,3.002-0.579,4.066-1.737
			c1.063-1.158,1.596-2.801,1.596-4.929c0-1.346-0.228-2.521-0.683-3.524c-0.455-1.004-1.12-1.782-1.996-2.335
			s-1.859-0.829-2.949-0.829c-1.55,0-2.882,0.532-3.999,1.596C177.159,21.083,176.601,22.859,176.601,25.348z"/>
		<path fill="#FFFFFF" d="M192.233,28.055l2.063-0.181c0.098,0.827,0.325,1.506,0.683,2.036c0.356,0.53,0.911,0.959,1.663,1.286
			s1.598,0.49,2.538,0.49c0.835,0,1.571-0.124,2.211-0.372c0.639-0.248,1.114-0.588,1.427-1.021
			c0.312-0.433,0.468-0.904,0.468-1.416c0-0.519-0.15-0.972-0.451-1.358c-0.301-0.388-0.797-0.713-1.488-0.976
			c-0.444-0.173-1.426-0.442-2.944-0.807c-1.519-0.365-2.583-0.709-3.191-1.032c-0.79-0.413-1.378-0.927-1.766-1.54
			c-0.388-0.612-0.581-1.299-0.581-2.058c0-0.835,0.237-1.615,0.711-2.341s1.165-1.276,2.075-1.652s1.921-0.563,3.034-0.563
			c1.226,0,2.307,0.197,3.242,0.592c0.937,0.395,1.656,0.976,2.16,1.742c0.504,0.768,0.774,1.636,0.813,2.605l-2.099,0.158
			c-0.112-1.045-0.494-1.835-1.145-2.368c-0.65-0.534-1.611-0.801-2.882-0.801c-1.323,0-2.287,0.242-2.893,0.728
			c-0.605,0.484-0.908,1.069-0.908,1.754c0,0.594,0.215,1.082,0.643,1.466c0.422,0.384,1.521,0.776,3.3,1.179
			c1.777,0.402,2.998,0.754,3.659,1.055c0.963,0.443,1.674,1.006,2.132,1.686c0.459,0.681,0.688,1.465,0.688,2.353
			c0,0.879-0.252,1.708-0.756,2.486s-1.228,1.384-2.171,1.816c-0.944,0.432-2.006,0.648-3.187,0.648
			c-1.496,0-2.75-0.219-3.762-0.654c-1.011-0.437-1.805-1.092-2.38-1.969C192.565,30.151,192.263,29.16,192.233,28.055z"/>
	</g>
</g>
<g>
	<path fill="#020202" d="M95.659,121.635v-16.464h5.334c2.021,0,3.338,0.082,3.953,0.247c0.943,0.247,1.732,0.784,2.369,1.611
		s0.955,1.896,0.955,3.207c0,1.01-0.184,1.86-0.551,2.549s-0.832,1.229-1.398,1.623c-0.564,0.393-1.139,0.653-1.723,0.78
		c-0.795,0.157-1.943,0.235-3.449,0.235h-2.166v6.211H95.659z M98.983,107.956v4.672h1.818c1.311,0,2.186-0.086,2.629-0.259
		c0.441-0.172,0.787-0.441,1.037-0.809c0.252-0.366,0.377-0.793,0.377-1.279c0-0.6-0.176-1.094-0.527-1.482
		c-0.352-0.39-0.797-0.633-1.336-0.73c-0.398-0.075-1.195-0.112-2.393-0.112H98.983z"/>
	<path fill="#020202" d="M113.997,121.635h-3.156v-11.927h2.932v1.696c0.502-0.802,0.953-1.329,1.354-1.584s0.855-0.382,1.365-0.382
		c0.719,0,1.41,0.198,2.076,0.595l-0.977,2.752c-0.531-0.345-1.025-0.517-1.482-0.517c-0.441,0-0.816,0.122-1.123,0.365
		s-0.549,0.683-0.725,1.319s-0.264,1.969-0.264,3.998V121.635z"/>
	<path fill="#020202" d="M119.196,115.503c0-1.048,0.26-2.063,0.775-3.044c0.518-0.98,1.248-1.729,2.195-2.246
		c0.947-0.516,2.006-0.774,3.174-0.774c1.803,0,3.281,0.586,4.436,1.758c1.152,1.172,1.729,2.652,1.729,4.441
		c0,1.805-0.582,3.3-1.746,4.486s-2.629,1.78-4.396,1.78c-1.094,0-2.135-0.247-3.127-0.741s-1.746-1.219-2.264-2.173
		C119.456,118.035,119.196,116.873,119.196,115.503z M122.431,115.672c0,1.183,0.281,2.088,0.844,2.717
		c0.561,0.629,1.254,0.943,2.076,0.943c0.824,0,1.516-0.314,2.072-0.943c0.559-0.629,0.838-1.542,0.838-2.74
		c0-1.168-0.279-2.066-0.838-2.695c-0.557-0.629-1.248-0.943-2.072-0.943c-0.822,0-1.516,0.314-2.076,0.943
		C122.712,113.582,122.431,114.488,122.431,115.672z"/>
	<path fill="#020202" d="M132.481,109.708h3.359l2.852,8.468l2.785-8.468h3.268l-4.211,11.478l-0.752,2.078
		c-0.277,0.695-0.541,1.228-0.793,1.594c-0.25,0.367-0.539,0.665-0.863,0.894c-0.326,0.229-0.727,0.406-1.203,0.533
		c-0.475,0.127-1.012,0.19-1.611,0.19c-0.605,0-1.201-0.063-1.785-0.19l-0.281-2.471c0.494,0.098,0.939,0.146,1.338,0.146
		c0.732,0,1.275-0.215,1.627-0.646s0.621-0.979,0.809-1.646L132.481,109.708z"/>
	<path fill="#020202" d="M153.673,117.839l3.145,0.528c-0.404,1.152-1.043,2.03-1.914,2.633c-0.873,0.603-1.963,0.904-3.273,0.904
		c-2.074,0-3.609-0.678-4.605-2.033c-0.785-1.085-1.178-2.455-1.178-4.109c0-1.977,0.516-3.525,1.549-4.645s2.34-1.679,3.92-1.679
		c1.773,0,3.174,0.586,4.199,1.758s1.518,2.967,1.473,5.385h-7.906c0.021,0.936,0.275,1.664,0.764,2.185
		c0.486,0.521,1.092,0.78,1.818,0.78c0.494,0,0.91-0.135,1.246-0.404C153.247,118.872,153.501,118.438,153.673,117.839z
		 M153.853,114.649c-0.021-0.913-0.258-1.607-0.707-2.083s-0.996-0.713-1.639-0.713c-0.689,0-1.258,0.25-1.707,0.752
		s-0.672,1.183-0.664,2.044H153.853z"/>
	<path fill="#020202" d="M169.958,113.234l-3.111,0.562c-0.105-0.621-0.344-1.089-0.713-1.403c-0.371-0.314-0.852-0.473-1.443-0.473
		c-0.787,0-1.414,0.271-1.881,0.814c-0.469,0.543-0.703,1.451-0.703,2.724c0,1.415,0.238,2.415,0.713,2.999
		c0.477,0.584,1.115,0.875,1.916,0.875c0.598,0,1.09-0.17,1.471-0.511c0.383-0.341,0.652-0.927,0.809-1.757l3.1,0.527
		c-0.322,1.423-0.939,2.497-1.854,3.223c-0.912,0.727-2.137,1.09-3.672,1.09c-1.744,0-3.135-0.551-4.172-1.65
		c-1.037-1.102-1.555-2.625-1.555-4.571c0-1.969,0.52-3.502,1.561-4.599s2.447-1.646,4.223-1.646c1.451,0,2.607,0.313,3.465,0.938
		S169.583,111.954,169.958,113.234z"/>
	<path fill="#020202" d="M177.817,109.708v2.516h-2.156v4.807c0,0.974,0.021,1.54,0.063,1.701s0.135,0.294,0.281,0.399
		c0.145,0.104,0.322,0.156,0.533,0.156c0.291,0,0.715-0.101,1.27-0.303l0.27,2.448c-0.734,0.314-1.566,0.472-2.494,0.472
		c-0.568,0-1.082-0.096-1.539-0.286c-0.457-0.191-0.791-0.438-1.004-0.741c-0.215-0.304-0.361-0.713-0.443-1.23
		c-0.068-0.366-0.102-1.107-0.102-2.223v-5.2h-1.449v-2.516h1.449v-2.37l3.166-1.842v4.212H177.817z"/>
	<path fill="#020202" d="M179.278,115.503c0-1.048,0.258-2.063,0.773-3.044c0.518-0.98,1.25-1.729,2.197-2.246
		c0.947-0.516,2.004-0.774,3.172-0.774c1.805,0,3.283,0.586,4.436,1.758c1.154,1.172,1.73,2.652,1.73,4.441
		c0,1.805-0.582,3.3-1.746,4.486s-2.631,1.78-4.398,1.78c-1.092,0-2.135-0.247-3.127-0.741s-1.746-1.219-2.264-2.173
		C179.536,118.035,179.278,116.873,179.278,115.503z M182.513,115.672c0,1.183,0.279,2.088,0.842,2.717
		c0.561,0.629,1.254,0.943,2.078,0.943c0.822,0,1.514-0.314,2.072-0.943c0.557-0.629,0.836-1.542,0.836-2.74
		c0-1.168-0.279-2.066-0.836-2.695c-0.559-0.629-1.25-0.943-2.072-0.943c-0.824,0-1.518,0.314-2.078,0.943
		C182.792,113.582,182.513,114.488,182.513,115.672z"/>
	<path fill="#020202" d="M194.058,121.635v-3.156h3.156v3.156H194.058z"/>
	<path fill="#020202" d="M95.659,154.635v-16.464h5.334c2.021,0,3.338,0.082,3.953,0.247c0.943,0.247,1.732,0.784,2.369,1.611
		s0.955,1.896,0.955,3.207c0,1.01-0.184,1.86-0.551,2.549s-0.832,1.229-1.398,1.623c-0.564,0.393-1.139,0.653-1.723,0.78
		c-0.795,0.157-1.943,0.235-3.449,0.235h-2.166v6.211H95.659z M98.983,140.956v4.672h1.818c1.311,0,2.186-0.086,2.629-0.259
		c0.441-0.172,0.787-0.441,1.037-0.809c0.252-0.366,0.377-0.793,0.377-1.279c0-0.6-0.176-1.094-0.527-1.482
		c-0.352-0.39-0.797-0.633-1.336-0.73c-0.398-0.075-1.195-0.112-2.393-0.112H98.983z"/>
	<path fill="#020202" d="M113.997,154.635h-3.156v-11.927h2.932v1.696c0.502-0.802,0.953-1.329,1.354-1.584s0.855-0.382,1.365-0.382
		c0.719,0,1.41,0.198,2.076,0.595l-0.977,2.752c-0.531-0.345-1.025-0.517-1.482-0.517c-0.441,0-0.816,0.122-1.123,0.365
		s-0.549,0.683-0.725,1.319s-0.264,1.969-0.264,3.998V154.635z"/>
	<path fill="#020202" d="M119.196,148.503c0-1.048,0.26-2.063,0.775-3.044c0.518-0.98,1.248-1.729,2.195-2.246
		c0.947-0.516,2.006-0.774,3.174-0.774c1.803,0,3.281,0.586,4.436,1.758c1.152,1.172,1.729,2.652,1.729,4.441
		c0,1.805-0.582,3.3-1.746,4.486s-2.629,1.78-4.396,1.78c-1.094,0-2.135-0.247-3.127-0.741s-1.746-1.219-2.264-2.173
		C119.456,151.035,119.196,149.873,119.196,148.503z M122.431,148.672c0,1.183,0.281,2.088,0.844,2.717
		c0.561,0.629,1.254,0.943,2.076,0.943c0.824,0,1.516-0.314,2.072-0.943c0.559-0.629,0.838-1.542,0.838-2.74
		c0-1.168-0.279-2.066-0.838-2.695c-0.557-0.629-1.248-0.943-2.072-0.943c-0.822,0-1.516,0.314-2.076,0.943
		C122.712,146.582,122.431,147.488,122.431,148.672z"/>
	<path fill="#020202" d="M144.376,146.234l-3.111,0.562c-0.105-0.621-0.344-1.089-0.713-1.403c-0.371-0.314-0.852-0.473-1.443-0.473
		c-0.787,0-1.414,0.271-1.881,0.814c-0.469,0.543-0.703,1.451-0.703,2.724c0,1.415,0.238,2.415,0.713,2.999
		c0.477,0.584,1.115,0.875,1.916,0.875c0.598,0,1.09-0.17,1.471-0.511c0.383-0.341,0.652-0.927,0.809-1.757l3.1,0.527
		c-0.322,1.423-0.939,2.497-1.854,3.223c-0.912,0.727-2.137,1.09-3.672,1.09c-1.744,0-3.135-0.551-4.172-1.65
		c-1.037-1.102-1.555-2.625-1.555-4.571c0-1.969,0.52-3.502,1.561-4.599s2.447-1.646,4.223-1.646c1.451,0,2.607,0.313,3.465,0.938
		S144.001,144.954,144.376,146.234z"/>
	<path fill="#020202" d="M153.673,150.839l3.145,0.528c-0.404,1.152-1.043,2.03-1.914,2.633c-0.873,0.603-1.963,0.904-3.273,0.904
		c-2.074,0-3.609-0.678-4.605-2.033c-0.785-1.085-1.178-2.455-1.178-4.109c0-1.977,0.516-3.525,1.549-4.645s2.34-1.679,3.92-1.679
		c1.773,0,3.174,0.586,4.199,1.758s1.518,2.967,1.473,5.385h-7.906c0.021,0.936,0.275,1.664,0.764,2.185
		c0.486,0.521,1.092,0.78,1.818,0.78c0.494,0,0.91-0.135,1.246-0.404C153.247,151.872,153.501,151.438,153.673,150.839z
		 M153.853,147.649c-0.021-0.913-0.258-1.607-0.707-2.083s-0.996-0.713-1.639-0.713c-0.689,0-1.258,0.25-1.707,0.752
		s-0.672,1.183-0.664,2.044H153.853z"/>
	<path fill="#020202" d="M158.446,151.232l3.166-0.483c0.135,0.614,0.408,1.08,0.82,1.398s0.988,0.478,1.73,0.478
		c0.814,0,1.43-0.15,1.842-0.449c0.275-0.21,0.414-0.491,0.414-0.843c0-0.239-0.074-0.438-0.225-0.595
		c-0.156-0.15-0.508-0.289-1.055-0.416c-2.547-0.562-4.16-1.074-4.84-1.539c-0.943-0.644-1.416-1.538-1.416-2.684
		c0-1.033,0.408-1.901,1.225-2.605s2.08-1.056,3.795-1.056c1.633,0,2.846,0.266,3.639,0.798c0.795,0.531,1.34,1.317,1.641,2.357
		l-2.977,0.551c-0.127-0.464-0.369-0.82-0.725-1.066c-0.355-0.248-0.863-0.371-1.521-0.371c-0.83,0-1.426,0.116-1.785,0.348
		c-0.24,0.165-0.359,0.379-0.359,0.641c0,0.225,0.104,0.416,0.314,0.572c0.283,0.21,1.268,0.506,2.947,0.888
		c1.682,0.382,2.855,0.85,3.521,1.403c0.658,0.563,0.988,1.345,0.988,2.348c0,1.093-0.457,2.033-1.371,2.818
		c-0.912,0.787-2.264,1.18-4.053,1.18c-1.625,0-2.912-0.329-3.859-0.988S158.737,152.362,158.446,151.232z"/>
	<path fill="#020202" d="M171.618,148.503c0-1.048,0.26-2.063,0.775-3.044c0.518-0.98,1.248-1.729,2.195-2.246
		c0.947-0.516,2.006-0.774,3.174-0.774c1.803,0,3.281,0.586,4.436,1.758c1.152,1.172,1.729,2.652,1.729,4.441
		c0,1.805-0.582,3.3-1.746,4.486s-2.629,1.78-4.396,1.78c-1.094,0-2.135-0.247-3.127-0.741s-1.746-1.219-2.264-2.173
		C171.878,151.035,171.618,149.873,171.618,148.503z M174.853,148.672c0,1.183,0.281,2.088,0.844,2.717
		c0.561,0.629,1.254,0.943,2.076,0.943c0.824,0,1.516-0.314,2.072-0.943c0.559-0.629,0.838-1.542,0.838-2.74
		c0-1.168-0.279-2.066-0.838-2.695c-0.557-0.629-1.248-0.943-2.072-0.943c-0.822,0-1.516,0.314-2.076,0.943
		C175.134,146.582,174.853,147.488,174.853,148.672z"/>
	<path fill="#020202" d="M186.397,154.635v-3.156h3.156v3.156H186.397z"/>
	<path fill="#020202" d="M95.659,187.635v-16.464h5.334c2.021,0,3.338,0.082,3.953,0.247c0.943,0.247,1.732,0.784,2.369,1.611
		s0.955,1.896,0.955,3.207c0,1.01-0.184,1.86-0.551,2.549s-0.832,1.229-1.398,1.623c-0.564,0.393-1.139,0.653-1.723,0.78
		c-0.795,0.157-1.943,0.235-3.449,0.235h-2.166v6.211H95.659z M98.983,173.956v4.672h1.818c1.311,0,2.186-0.086,2.629-0.259
		c0.441-0.172,0.787-0.441,1.037-0.809c0.252-0.366,0.377-0.793,0.377-1.279c0-0.6-0.176-1.094-0.527-1.482
		c-0.352-0.39-0.797-0.633-1.336-0.73c-0.398-0.075-1.195-0.112-2.393-0.112H98.983z"/>
	<path fill="#020202" d="M113.997,187.635h-3.156v-11.927h2.932v1.696c0.502-0.802,0.953-1.329,1.354-1.584s0.855-0.382,1.365-0.382
		c0.719,0,1.41,0.198,2.076,0.595l-0.977,2.752c-0.531-0.345-1.025-0.517-1.482-0.517c-0.441,0-0.816,0.122-1.123,0.365
		s-0.549,0.683-0.725,1.319s-0.264,1.969-0.264,3.998V187.635z"/>
	<path fill="#020202" d="M119.196,181.503c0-1.048,0.26-2.063,0.775-3.044c0.518-0.98,1.248-1.729,2.195-2.246
		c0.947-0.516,2.006-0.774,3.174-0.774c1.803,0,3.281,0.586,4.436,1.758c1.152,1.172,1.729,2.652,1.729,4.441
		c0,1.805-0.582,3.3-1.746,4.486s-2.629,1.78-4.396,1.78c-1.094,0-2.135-0.247-3.127-0.741s-1.746-1.219-2.264-2.173
		C119.456,184.035,119.196,182.873,119.196,181.503z M122.431,181.672c0,1.183,0.281,2.088,0.844,2.717
		c0.561,0.629,1.254,0.943,2.076,0.943c0.824,0,1.516-0.314,2.072-0.943c0.559-0.629,0.838-1.542,0.838-2.74
		c0-1.168-0.279-2.066-0.838-2.695c-0.557-0.629-1.248-0.943-2.072-0.943c-0.822,0-1.516,0.314-2.076,0.943
		C122.712,179.582,122.431,180.488,122.431,181.672z"/>
	<path fill="#020202" d="M144.915,187.635h-2.932v-1.752c-0.486,0.682-1.063,1.188-1.725,1.521s-1.33,0.5-2.004,0.5
		c-1.371,0-2.545-0.552-3.521-1.656s-1.465-2.645-1.465-4.621c0-2.021,0.475-3.559,1.426-4.61s2.152-1.578,3.605-1.578
		c1.332,0,2.484,0.554,3.459,1.662v-5.93h3.156V187.635z M136.491,181.413c0,1.272,0.176,2.193,0.527,2.763
		c0.51,0.823,1.221,1.235,2.135,1.235c0.727,0,1.344-0.309,1.854-0.927c0.508-0.617,0.764-1.54,0.764-2.768
		c0-1.371-0.248-2.357-0.742-2.96s-1.127-0.903-1.898-0.903c-0.748,0-1.375,0.297-1.881,0.893
		C136.743,179.341,136.491,180.23,136.491,181.413z"/>
	<path fill="#020202" d="M155.874,187.635v-1.785c-0.434,0.636-1.004,1.138-1.713,1.504c-0.707,0.367-1.453,0.551-2.24,0.551
		c-0.801,0-1.52-0.176-2.156-0.527c-0.637-0.353-1.096-0.847-1.381-1.482c-0.285-0.637-0.426-1.517-0.426-2.64v-7.547h3.154v5.48
		c0,1.677,0.059,2.705,0.174,3.083c0.117,0.378,0.328,0.678,0.635,0.898s0.697,0.331,1.168,0.331c0.539,0,1.023-0.147,1.449-0.443
		c0.428-0.296,0.719-0.663,0.877-1.101c0.156-0.438,0.234-1.511,0.234-3.218v-5.031h3.156v11.927H155.874z"/>
	<path fill="#020202" d="M172.474,179.234l-3.111,0.562c-0.105-0.621-0.344-1.089-0.713-1.403c-0.371-0.314-0.852-0.473-1.443-0.473
		c-0.787,0-1.414,0.271-1.881,0.814c-0.469,0.543-0.703,1.451-0.703,2.724c0,1.415,0.238,2.415,0.713,2.999
		c0.477,0.584,1.115,0.875,1.916,0.875c0.598,0,1.09-0.17,1.471-0.511c0.383-0.341,0.652-0.927,0.809-1.757l3.1,0.527
		c-0.322,1.423-0.939,2.497-1.854,3.223c-0.912,0.727-2.137,1.09-3.672,1.09c-1.744,0-3.135-0.551-4.172-1.65
		c-1.037-1.102-1.555-2.625-1.555-4.571c0-1.969,0.52-3.502,1.561-4.599s2.447-1.646,4.223-1.646c1.451,0,2.607,0.313,3.465,0.938
		S172.099,177.954,172.474,179.234z"/>
	<path fill="#020202" d="M180.333,175.708v2.516h-2.156v4.807c0,0.974,0.021,1.54,0.063,1.701s0.135,0.294,0.281,0.399
		c0.145,0.104,0.322,0.156,0.533,0.156c0.291,0,0.715-0.101,1.27-0.303l0.27,2.448c-0.734,0.314-1.566,0.472-2.494,0.472
		c-0.568,0-1.082-0.096-1.539-0.286c-0.457-0.191-0.791-0.438-1.004-0.741c-0.215-0.304-0.361-0.713-0.443-1.23
		c-0.068-0.366-0.102-1.107-0.102-2.223v-5.2h-1.449v-2.516h1.449v-2.37l3.166-1.842v4.212H180.333z"/>
	<path fill="#020202" d="M181.794,181.503c0-1.048,0.258-2.063,0.773-3.044c0.518-0.98,1.25-1.729,2.197-2.246
		c0.947-0.516,2.004-0.774,3.172-0.774c1.805,0,3.283,0.586,4.436,1.758c1.154,1.172,1.73,2.652,1.73,4.441
		c0,1.805-0.582,3.3-1.746,4.486s-2.631,1.78-4.398,1.78c-1.092,0-2.135-0.247-3.127-0.741s-1.746-1.219-2.264-2.173
		C182.052,184.035,181.794,182.873,181.794,181.503z M185.028,181.672c0,1.183,0.279,2.088,0.842,2.717
		c0.561,0.629,1.254,0.943,2.078,0.943c0.822,0,1.514-0.314,2.072-0.943c0.557-0.629,0.836-1.542,0.836-2.74
		c0-1.168-0.279-2.066-0.836-2.695c-0.559-0.629-1.25-0.943-2.072-0.943c-0.824,0-1.518,0.314-2.078,0.943
		C185.308,179.582,185.028,180.488,185.028,181.672z"/>
	<path fill="#020202" d="M196.573,187.635v-3.156h3.156v3.156H196.573z"/>
	<path fill="#020202" d="M95.659,220.635v-16.464h5.334c2.021,0,3.338,0.082,3.953,0.247c0.943,0.247,1.732,0.784,2.369,1.611
		s0.955,1.896,0.955,3.207c0,1.01-0.184,1.86-0.551,2.549s-0.832,1.229-1.398,1.623c-0.564,0.393-1.139,0.653-1.723,0.78
		c-0.795,0.157-1.943,0.235-3.449,0.235h-2.166v6.211H95.659z M98.983,206.956v4.672h1.818c1.311,0,2.186-0.086,2.629-0.259
		c0.441-0.172,0.787-0.441,1.037-0.809c0.252-0.366,0.377-0.793,0.377-1.279c0-0.6-0.176-1.094-0.527-1.482
		c-0.352-0.39-0.797-0.633-1.336-0.73c-0.398-0.075-1.195-0.112-2.393-0.112H98.983z"/>
	<path fill="#020202" d="M117.884,216.839l3.145,0.528c-0.404,1.152-1.043,2.03-1.916,2.633c-0.871,0.603-1.963,0.904-3.273,0.904
		c-2.074,0-3.607-0.678-4.604-2.033c-0.787-1.085-1.18-2.455-1.18-4.109c0-1.977,0.516-3.525,1.549-4.645s2.34-1.679,3.92-1.679
		c1.775,0,3.176,0.586,4.201,1.758s1.516,2.967,1.471,5.385h-7.906c0.021,0.936,0.277,1.664,0.764,2.185s1.094,0.78,1.818,0.78
		c0.494,0,0.91-0.135,1.248-0.404C117.456,217.872,117.712,217.438,117.884,216.839z M118.063,213.649
		c-0.023-0.913-0.26-1.607-0.709-2.083s-0.994-0.713-1.639-0.713c-0.689,0-1.258,0.25-1.707,0.752s-0.67,1.183-0.662,2.044H118.063z
		"/>
	<path fill="#020202" d="M126.79,220.635h-3.156v-11.927h2.932v1.696c0.502-0.802,0.953-1.329,1.354-1.584s0.855-0.382,1.363-0.382
		c0.719,0,1.412,0.198,2.078,0.595l-0.977,2.752c-0.531-0.345-1.025-0.517-1.482-0.517c-0.441,0-0.816,0.122-1.123,0.365
		s-0.549,0.683-0.725,1.319s-0.264,1.969-0.264,3.998V220.635z"/>
	<path fill="#020202" d="M131.608,217.232l3.166-0.483c0.135,0.614,0.408,1.08,0.82,1.398s0.988,0.478,1.73,0.478
		c0.814,0,1.43-0.15,1.842-0.449c0.275-0.21,0.414-0.491,0.414-0.843c0-0.239-0.074-0.438-0.225-0.595
		c-0.156-0.15-0.508-0.289-1.055-0.416c-2.547-0.562-4.16-1.074-4.84-1.539c-0.943-0.644-1.416-1.538-1.416-2.684
		c0-1.033,0.408-1.901,1.225-2.605s2.08-1.056,3.795-1.056c1.633,0,2.846,0.266,3.639,0.798c0.795,0.531,1.34,1.317,1.641,2.357
		l-2.977,0.551c-0.127-0.464-0.369-0.82-0.725-1.066c-0.355-0.248-0.863-0.371-1.521-0.371c-0.83,0-1.426,0.116-1.785,0.348
		c-0.24,0.165-0.359,0.379-0.359,0.641c0,0.225,0.104,0.416,0.314,0.572c0.283,0.21,1.268,0.506,2.947,0.888
		c1.682,0.382,2.855,0.85,3.521,1.403c0.658,0.563,0.988,1.345,0.988,2.348c0,1.093-0.457,2.033-1.371,2.818
		c-0.912,0.787-2.264,1.18-4.053,1.18c-1.625,0-2.912-0.329-3.859-0.988S131.899,218.362,131.608,217.232z"/>
	<path fill="#020202" d="M144.78,214.503c0-1.048,0.26-2.063,0.775-3.044c0.518-0.98,1.248-1.729,2.195-2.246
		c0.947-0.516,2.006-0.774,3.174-0.774c1.803,0,3.281,0.586,4.436,1.758c1.152,1.172,1.729,2.652,1.729,4.441
		c0,1.805-0.582,3.3-1.746,4.486s-2.629,1.78-4.396,1.78c-1.094,0-2.135-0.247-3.127-0.741s-1.746-1.219-2.264-2.173
		C145.04,217.035,144.78,215.873,144.78,214.503z M148.015,214.672c0,1.183,0.281,2.088,0.844,2.717
		c0.561,0.629,1.254,0.943,2.076,0.943c0.824,0,1.516-0.314,2.072-0.943c0.559-0.629,0.838-1.542,0.838-2.74
		c0-1.168-0.279-2.066-0.838-2.695c-0.557-0.629-1.248-0.943-2.072-0.943c-0.822,0-1.516,0.314-2.076,0.943
		C148.296,212.582,148.015,213.488,148.015,214.672z"/>
	<path fill="#020202" d="M170.409,220.635h-3.156v-6.087c0-1.288-0.068-2.121-0.203-2.499s-0.354-0.672-0.656-0.881
		c-0.303-0.21-0.668-0.314-1.096-0.314c-0.547,0-1.037,0.149-1.471,0.449c-0.434,0.299-0.732,0.695-0.893,1.189
		c-0.162,0.494-0.242,1.408-0.242,2.74v5.402h-3.154v-11.927h2.93v1.752c1.041-1.348,2.352-2.021,3.932-2.021
		c0.695,0,1.332,0.125,1.908,0.376s1.014,0.571,1.309,0.961c0.297,0.389,0.502,0.83,0.617,1.324
		c0.117,0.494,0.176,1.202,0.176,2.123V220.635z"/>
	<path fill="#020202" d="M175.968,212.347l-2.865-0.517c0.322-1.153,0.877-2.007,1.662-2.561c0.787-0.554,1.955-0.831,3.504-0.831
		c1.408,0,2.457,0.167,3.145,0.5c0.689,0.333,1.174,0.756,1.455,1.269s0.422,1.455,0.422,2.824l-0.035,3.684
		c0,1.049,0.051,1.821,0.152,2.319s0.289,1.031,0.566,1.601h-3.121c-0.082-0.21-0.184-0.521-0.303-0.932
		c-0.053-0.188-0.09-0.312-0.113-0.371c-0.539,0.524-1.115,0.917-1.729,1.18c-0.615,0.262-1.27,0.393-1.967,0.393
		c-1.227,0-2.195-0.333-2.902-1c-0.707-0.666-1.061-1.508-1.061-2.526c0-0.674,0.16-1.274,0.482-1.803
		c0.322-0.527,0.773-0.932,1.354-1.213c0.58-0.28,1.416-0.525,2.51-0.735c1.475-0.277,2.496-0.535,3.066-0.775v-0.314
		c0-0.605-0.15-1.038-0.449-1.297c-0.301-0.258-0.865-0.387-1.697-0.387c-0.561,0-0.998,0.11-1.313,0.331
		S176.161,211.793,175.968,212.347z M180.19,214.907c-0.404,0.135-1.045,0.296-1.922,0.483c-0.875,0.187-1.447,0.37-1.717,0.55
		c-0.412,0.292-0.619,0.663-0.619,1.112c0,0.441,0.166,0.823,0.494,1.145c0.33,0.322,0.75,0.483,1.258,0.483
		c0.57,0,1.113-0.188,1.629-0.562c0.383-0.284,0.633-0.633,0.752-1.045c0.082-0.27,0.125-0.782,0.125-1.538V214.907z"/>
	<path fill="#020202" d="M186.399,220.635v-16.464h3.156v16.464H186.399z"/>
	<path fill="#020202" d="M192.79,220.635v-3.156h3.156v3.156H192.79z"/>
</g>
<g>
	<radialGradient id="SVGID_2_" cx="82.5537" cy="112.9345" r="9.1016" gradientUnits="userSpaceOnUse">
		<stop  offset="0" style="stop-color:#8CBB69"/>
		<stop  offset="0.7837" style="stop-color:#6BAD44"/>
	</radialGradient>
	<path fill="url(#SVGID_2_)" d="M84.752,121.685v-2.212c0.313-0.129,0.791-0.294,1.172-0.496l1.55,1.563
		c0.146,0.148,0.383,0.148,0.53,0l2.238-2.241c0.149-0.148,0.147-0.389-0.003-0.536l-1.566-1.655
		c0.205-0.381,0.37-0.661,0.497-1.289h2.214c0.21,0,0.27,0.01,0.27-0.2v-3.17c0-0.21-0.061-0.396-0.27-0.396h-2.214
		c-0.127-0.628-0.292-0.81-0.497-1.189l1.566-1.561c0.15-0.148,0.15-0.388,0-0.536l-2.243-2.24c-0.147-0.15-0.389-0.148-0.536,0.001
		l-1.536,1.563c-0.381-0.199-0.858-0.367-1.172-0.496v-2.212c0-0.21-0.226-0.549-0.433-0.549h-3.171
		c-0.21,0-0.476,0.339-0.476,0.549v2.212c-0.315,0.129-0.772,0.297-1.15,0.496l-1.542-1.563c-0.147-0.149-0.376-0.149-0.522,0
		l-2.238,2.24c-0.15,0.15-0.145,0.389,0.002,0.539l1.568,1.557c-0.201,0.379-0.369,0.561-0.496,1.189h-2.211
		c-0.211,0-0.631,0.186-0.631,0.396v3.17c0,0.21,0.42,0.2,0.631,0.2h2.211c0.129,0.628,0.295,0.908,0.496,1.289l-1.564,1.61
		c-0.147,0.147-0.147,0.41,0,0.559l2.242,2.252c0.147,0.15,0.389,0.155,0.536,0.006l1.519-1.561c0.378,0.202,0.835,0.37,1.15,0.499
		v2.212c0,0.21,0.266,0.352,0.476,0.352h3.171C84.526,122.036,84.752,121.895,84.752,121.685z"/>
	<circle fill="#F1F1F1" stroke="#144B8B" stroke-linejoin="round" stroke-miterlimit="10" cx="82.651" cy="113.139" r="2.845"/>
</g>
<g>
	<radialGradient id="SVGID_3_" cx="82.5537" cy="146.2558" r="9.1016" gradientUnits="userSpaceOnUse">
		<stop  offset="0" style="stop-color:#8CBB69"/>
		<stop  offset="0.7837" style="stop-color:#6BAD44"/>
	</radialGradient>
	<path fill="url(#SVGID_3_)" d="M84.752,155.006v-2.212c0.313-0.129,0.791-0.294,1.172-0.496l1.55,1.563
		c0.146,0.148,0.383,0.148,0.53,0l2.238-2.241c0.149-0.148,0.147-0.389-0.003-0.536l-1.566-1.655
		c0.205-0.381,0.37-0.661,0.497-1.289h2.214c0.21,0,0.27,0.01,0.27-0.2v-3.17c0-0.21-0.061-0.396-0.27-0.396h-2.214
		c-0.127-0.628-0.292-0.81-0.497-1.188l1.566-1.561c0.15-0.148,0.15-0.388,0-0.536l-2.243-2.24c-0.147-0.15-0.389-0.148-0.536,0.001
		l-1.536,1.563c-0.381-0.199-0.858-0.367-1.172-0.496v-2.212c0-0.21-0.226-0.549-0.433-0.549h-3.171
		c-0.21,0-0.476,0.339-0.476,0.549v2.212c-0.315,0.129-0.772,0.297-1.15,0.496l-1.542-1.563c-0.147-0.149-0.376-0.149-0.522,0
		l-2.238,2.24c-0.15,0.15-0.145,0.389,0.002,0.539l1.568,1.557c-0.201,0.379-0.369,0.561-0.496,1.188h-2.211
		c-0.211,0-0.631,0.187-0.631,0.396v3.17c0,0.21,0.42,0.2,0.631,0.2h2.211c0.129,0.628,0.295,0.908,0.496,1.289l-1.564,1.61
		c-0.147,0.147-0.147,0.41,0,0.559l2.242,2.252c0.147,0.15,0.389,0.155,0.536,0.006l1.519-1.561c0.378,0.202,0.835,0.37,1.15,0.499
		v2.212c0,0.21,0.266,0.352,0.476,0.352h3.171C84.526,155.357,84.752,155.216,84.752,155.006z"/>
	<circle fill="#F1F1F1" stroke="#144B8B" stroke-linejoin="round" stroke-miterlimit="10" cx="82.651" cy="146.46" r="2.845"/>
</g>
<g>
	<radialGradient id="SVGID_4_" cx="82.5537" cy="179.2558" r="9.1016" gradientUnits="userSpaceOnUse">
		<stop  offset="0" style="stop-color:#8CBB69"/>
		<stop  offset="0.7837" style="stop-color:#6BAD44"/>
	</radialGradient>
	<path fill="url(#SVGID_4_)" d="M84.752,188.006v-2.212c0.313-0.129,0.791-0.294,1.172-0.496l1.55,1.563
		c0.146,0.148,0.383,0.148,0.53,0l2.238-2.241c0.149-0.148,0.147-0.389-0.003-0.536l-1.566-1.655
		c0.205-0.381,0.37-0.661,0.497-1.289h2.214c0.21,0,0.27,0.01,0.27-0.2v-3.17c0-0.21-0.061-0.396-0.27-0.396h-2.214
		c-0.127-0.628-0.292-0.81-0.497-1.188l1.566-1.561c0.15-0.148,0.15-0.388,0-0.536l-2.243-2.24c-0.147-0.15-0.389-0.148-0.536,0.001
		l-1.536,1.563c-0.381-0.199-0.858-0.367-1.172-0.496v-2.212c0-0.21-0.226-0.549-0.433-0.549h-3.171
		c-0.21,0-0.476,0.339-0.476,0.549v2.212c-0.315,0.129-0.772,0.297-1.15,0.496l-1.542-1.563c-0.147-0.149-0.376-0.149-0.522,0
		l-2.238,2.24c-0.15,0.15-0.145,0.389,0.002,0.539l1.568,1.557c-0.201,0.379-0.369,0.561-0.496,1.188h-2.211
		c-0.211,0-0.631,0.187-0.631,0.396v3.17c0,0.21,0.42,0.2,0.631,0.2h2.211c0.129,0.628,0.295,0.908,0.496,1.289l-1.564,1.61
		c-0.147,0.147-0.147,0.41,0,0.559l2.242,2.252c0.147,0.15,0.389,0.155,0.536,0.006l1.519-1.561c0.378,0.202,0.835,0.37,1.15,0.499
		v2.212c0,0.21,0.266,0.352,0.476,0.352h3.171C84.526,188.357,84.752,188.216,84.752,188.006z"/>
	<circle fill="#F1F1F1" stroke="#144B8B" stroke-linejoin="round" stroke-miterlimit="10" cx="82.651" cy="179.46" r="2.845"/>
</g>
<g>
	<radialGradient id="SVGID_5_" cx="82.5537" cy="210.6718" r="9.1016" gradientUnits="userSpaceOnUse">
		<stop  offset="0" style="stop-color:#8CBB69"/>
		<stop  offset="0.7837" style="stop-color:#6BAD44"/>
	</radialGradient>
	<path fill="url(#SVGID_5_)" d="M84.752,219.422v-2.212c0.313-0.129,0.791-0.294,1.172-0.496l1.55,1.564
		c0.146,0.148,0.383,0.148,0.53,0l2.238-2.241c0.149-0.148,0.147-0.389-0.003-0.536l-1.566-1.655
		c0.205-0.381,0.37-0.661,0.497-1.289h2.214c0.21,0,0.27,0.01,0.27-0.2v-3.17c0-0.21-0.061-0.396-0.27-0.396h-2.214
		c-0.127-0.628-0.292-0.81-0.497-1.188l1.566-1.561c0.15-0.148,0.15-0.388,0-0.536l-2.243-2.24c-0.147-0.15-0.389-0.148-0.536,0.001
		l-1.536,1.563c-0.381-0.199-0.858-0.367-1.172-0.496v-2.212c0-0.21-0.226-0.549-0.433-0.549h-3.171
		c-0.21,0-0.476,0.339-0.476,0.549v2.212c-0.315,0.129-0.772,0.297-1.15,0.496l-1.542-1.563c-0.147-0.149-0.376-0.149-0.522,0
		l-2.238,2.24c-0.15,0.15-0.145,0.389,0.002,0.539l1.568,1.557c-0.201,0.379-0.369,0.561-0.496,1.188h-2.211
		c-0.211,0-0.631,0.187-0.631,0.396v3.17c0,0.21,0.42,0.2,0.631,0.2h2.211c0.129,0.628,0.295,0.908,0.496,1.289l-1.564,1.61
		c-0.147,0.147-0.147,0.41,0,0.559l2.242,2.252c0.147,0.15,0.389,0.155,0.536,0.006l1.519-1.561c0.378,0.202,0.835,0.37,1.15,0.499
		v2.212c0,0.21,0.266,0.352,0.476,0.352h3.171C84.526,219.773,84.752,219.632,84.752,219.422z"/>
	<circle fill="#F1F1F1" stroke="#144B8B" stroke-linejoin="round" stroke-miterlimit="10" cx="82.651" cy="210.876" r="2.845"/>
</g>
<g>
	<g>
		
			<radialGradient id="SVGID_6_" cx="-115.1392" cy="187.7207" r="17.3909" gradientTransform="matrix(0 1 -1 0 329.6201 184.9546)" gradientUnits="userSpaceOnUse">
			<stop  offset="0" style="stop-color:#8CBB69"/>
			<stop  offset="0.7837" style="stop-color:#6BAD44"/>
		</radialGradient>
		<polygon fill="url(#SVGID_6_)" points="133.077,51.654 133.077,59.25 125.314,59.25 133.607,73.613 141.899,87.977 
			150.193,73.613 158.484,59.25 150.722,59.25 150.722,51.654 		"/>
	</g>
</g>
<g>
	<g>
		<path fill="#D1D3D4" d="M144.257,311.397l-0.766-9.06c-1.069-9.301-8.229-10.554-8.229-10.554l-11.846-4.246l-4.043-4.592
			l-0.526,0.715l-9.481,12.941l-9.484-12.941l-0.521-0.715l-4.046,4.592l-11.845,4.246c0,0-7.157,1.253-8.231,10.554l-0.874,9.06
			H144.257z"/>
		<path d="M144.257,312.482H74.364c-0.307,0-0.6-0.128-0.805-0.355c-0.209-0.227-0.311-0.528-0.278-0.834l0.876-9.055
			c1.155-10.018,9.046-11.507,9.125-11.522l11.401-4.105l3.86-4.382c0.223-0.247,0.519-0.367,0.865-0.367
			c0.328,0.016,0.629,0.178,0.825,0.443l9.132,12.459l9.132-12.464c0.199-0.261,0.5-0.423,0.831-0.439
			c0.336,0.016,0.645,0.127,0.86,0.367l3.856,4.382l11.585,4.147l0,0c0.067,0,7.806,1.568,8.94,11.459l0.768,9.088
			c0.027,0.303-0.074,0.603-0.281,0.827C144.854,312.353,144.564,312.482,144.257,312.482z M75.562,310.311h67.514l-0.666-7.885
			c-0.952-8.3-7.076-9.526-7.34-9.574l-12.019-4.293c-0.174-0.065-0.324-0.165-0.45-0.304l-3.15-3.578l-9.208,12.566
			c-0.208,0.275-0.532,0.446-0.876,0.446l0,0c-0.348,0-0.674-0.171-0.875-0.446l-9.209-12.566l-3.154,3.578
			c-0.12,0.139-0.273,0.238-0.445,0.304l-11.847,4.246c-0.435,0.095-6.559,1.321-7.521,9.656L75.562,310.311z"/>
	</g>
	<g>
		<path fill="#FFF5D1" d="M123.827,267.703c0,7.853-6.373,14.22-14.223,14.22h-0.594c-7.85,0-14.217-6.367-14.217-14.22v-8
			c0-7.854,6.367-14.217,14.217-14.217h0.594c7.85,0,14.223,6.362,14.223,14.217V267.703z"/>
		<path d="M109.604,283.007h-0.594c-8.435,0-15.302-6.867-15.302-15.304v-8c0-8.436,6.866-15.303,15.302-15.303h0.594
			c8.439,0,15.307,6.866,15.307,15.303v8C124.911,276.14,118.044,283.007,109.604,283.007z M109.011,246.57
			c-7.238,0-13.13,5.893-13.13,13.133v8c0,7.24,5.892,13.133,13.13,13.133h0.594c7.242,0,13.137-5.893,13.137-13.133v-8
			c0-7.24-5.895-13.133-13.137-13.133H109.011z"/>
	</g>
	<g>
		<path fill="#D1D3D4" d="M202.735,311.397l-0.764-9.06c-1.07-9.301-8.23-10.554-8.23-10.554l-11.844-4.246l-4.045-4.592
			l-0.526,0.715l-9.482,12.941l-9.48-12.941l-0.526-0.715l-4.041,4.592l-11.849,4.246c0,0-7.157,1.253-8.228,10.554l-0.878,9.06
			H202.735z"/>
		<path d="M202.735,312.482h-69.894c-0.302,0-0.599-0.128-0.804-0.355c-0.209-0.227-0.307-0.528-0.275-0.834l0.871-9.055
			c1.158-10.018,9.048-11.507,9.129-11.522l11.4-4.105l3.863-4.382c0.219-0.247,0.514-0.367,0.861-0.367
			c0.327,0.016,0.633,0.178,0.828,0.443l9.128,12.459l9.134-12.464c0.197-0.261,0.502-0.423,0.83-0.439
			c0.335,0.016,0.645,0.127,0.859,0.367l3.859,4.382l11.586,4.147l0,0c0.064,0,7.804,1.568,8.941,11.459l0.766,9.088
			c0.027,0.303-0.078,0.603-0.279,0.827C203.332,312.353,203.041,312.482,202.735,312.482z M134.041,310.311h67.513l-0.662-7.885
			c-0.956-8.3-7.08-9.526-7.342-9.574l-12.019-4.293c-0.171-0.065-0.326-0.165-0.45-0.304l-3.154-3.578l-9.208,12.566
			c-0.204,0.275-0.53,0.446-0.875,0.446l0,0c-0.348,0-0.674-0.171-0.876-0.446l-9.209-12.566l-3.149,3.578
			c-0.12,0.139-0.275,0.238-0.446,0.304l-11.849,4.246c-0.437,0.095-6.556,1.321-7.519,9.656L134.041,310.311z"/>
	</g>
	<g>
		<path fill="#FFF5D1" d="M182.31,267.703c0,7.853-6.373,14.22-14.225,14.22h-0.592c-7.852,0-14.219-6.367-14.219-14.22v-8
			c0-7.854,6.367-14.217,14.219-14.217h0.592c7.851,0,14.225,6.362,14.225,14.217V267.703z"/>
		<path d="M168.085,283.007h-0.592c-8.438,0-15.303-6.867-15.303-15.304v-8c0-8.436,6.864-15.303,15.303-15.303h0.592
			c8.441,0,15.307,6.866,15.307,15.303v8C183.392,276.14,176.526,283.007,168.085,283.007z M167.493,246.57
			c-7.242,0-13.133,5.893-13.133,13.133v8c0,7.24,5.891,13.133,13.133,13.133h0.592c7.242,0,13.133-5.893,13.133-13.133v-8
			c0-7.24-5.891-13.133-13.133-13.133H167.493z"/>
	</g>
	<g>
		<path fill="#D1D3D4" d="M228.243,325.22l-0.77-9.06c-1.072-9.303-8.23-10.554-8.23-10.554l-11.842-4.244l-4.047-4.591
			l-0.525,0.715l-9.484,12.938l-9.482-12.938l-0.523-0.715l-4.043,4.591l-11.846,4.244c0,0-7.154,1.251-8.232,10.554l-0.878,9.06
			H228.243z"/>
		<path d="M228.243,326.305H158.34c-0.306,0-0.597-0.128-0.806-0.355c-0.203-0.225-0.305-0.529-0.277-0.834l0.881-9.061
			c1.157-10.011,9.045-11.501,9.127-11.517l11.402-4.104l3.857-4.381c0.215-0.243,0.513-0.35,0.862-0.368
			c0.327,0.018,0.633,0.179,0.827,0.442l9.131,12.463l9.131-12.463c0.197-0.264,0.502-0.425,0.83-0.442
			c0.351,0,0.645,0.122,0.859,0.368l3.865,4.381l11.578,4.149l0,0c0.066,0,7.806,1.567,8.946,11.455l0.768,9.09
			c0.027,0.307-0.072,0.603-0.283,0.825C228.835,326.177,228.546,326.305,228.243,326.305z M159.537,324.135h67.525l-0.672-7.88
			c-0.956-8.306-7.081-9.528-7.343-9.581l-12.016-4.291c-0.171-0.064-0.326-0.166-0.449-0.304l-3.151-3.58l-9.21,12.568
			c-0.204,0.278-0.53,0.444-0.877,0.444l0,0c-0.345,0-0.67-0.166-0.875-0.444l-9.207-12.568l-3.152,3.578
			c-0.12,0.14-0.273,0.242-0.444,0.306l-11.851,4.246c-0.434,0.098-6.553,1.32-7.514,9.656L159.537,324.135z"/>
	</g>
	<g>
		<path fill="#FFF5D1" d="M207.804,281.526c0,7.853-6.365,14.218-14.22,14.218h-0.591c-7.85,0-14.218-6.365-14.218-14.218v-7.999
			c0-7.855,6.368-14.217,14.218-14.217h0.591c7.855,0,14.22,6.361,14.22,14.217V281.526z"/>
		<path d="M193.584,296.83h-0.591c-8.439,0-15.307-6.865-15.307-15.304v-7.999c0-8.438,6.867-15.302,15.307-15.302h0.591
			c8.439,0,15.31,6.864,15.31,15.302v7.999C208.894,289.965,202.023,296.83,193.584,296.83z M192.993,260.395
			c-7.242,0-13.129,5.893-13.129,13.133v7.999c0,7.239,5.887,13.133,13.129,13.133h0.591c7.242,0,13.135-5.894,13.135-13.133v-7.999
			c0-7.24-5.893-13.133-13.135-13.133H192.993z"/>
	</g>
	<g>
		<path fill="#D1D3D4" d="M121.104,325.22l-0.766-9.06c-1.066-9.303-8.229-10.554-8.229-10.554l-11.844-4.244l-4.044-4.591
			l-0.525,0.715l-9.483,12.938l-9.482-12.938l-0.523-0.715l-4.043,4.591l-11.848,4.244c0,0-7.158,1.251-8.23,10.554l-0.876,9.06
			H121.104z"/>
		<path d="M121.104,326.305H51.212c-0.303,0-0.599-0.128-0.801-0.355c-0.211-0.225-0.31-0.527-0.281-0.832l0.876-9.059
			c1.156-10.016,9.046-11.506,9.124-11.521l11.404-4.104l3.862-4.381c0.217-0.246,0.515-0.368,0.86-0.368
			c0.328,0.018,0.635,0.179,0.829,0.442l9.128,12.463l9.134-12.464c0.196-0.268,0.5-0.424,0.829-0.441
			c0.336,0.018,0.646,0.125,0.861,0.368l3.859,4.381l11.584,4.149l0,0c0.066,0,7.801,1.567,8.939,11.456l0.77,9.089
			c0.023,0.307-0.078,0.603-0.281,0.825C121.7,326.177,121.412,326.305,121.104,326.305z M52.411,324.135h67.516l-0.668-7.88
			c-0.953-8.306-7.077-9.528-7.34-9.581l-12.02-4.291c-0.171-0.064-0.326-0.166-0.447-0.304l-3.153-3.58l-9.21,12.568
			c-0.206,0.278-0.529,0.444-0.875,0.444l0,0c-0.348,0-0.672-0.166-0.877-0.444l-9.207-12.568l-3.15,3.58
			c-0.122,0.138-0.277,0.24-0.448,0.304l-11.852,4.246c-0.433,0.098-6.551,1.32-7.514,9.656L52.411,324.135z"/>
	</g>
	<g>
		<path fill="#FFF5D1" d="M100.679,281.526c0,7.853-6.373,14.218-14.227,14.218h-0.59c-7.852,0-14.22-6.365-14.22-14.218v-7.999
			c0-7.855,6.368-14.217,14.22-14.217h0.59c7.854,0,14.227,6.361,14.227,14.217V281.526z"/>
		<path d="M86.452,296.83h-0.59c-8.437,0-15.304-6.865-15.304-15.304v-7.999c0-8.438,6.867-15.302,15.304-15.302h0.59
			c8.443,0,15.308,6.864,15.308,15.302v7.999C101.76,289.965,94.896,296.83,86.452,296.83z M85.862,260.395
			c-7.24,0-13.131,5.893-13.131,13.133v7.999c0,7.239,5.891,13.133,13.131,13.133h0.59c7.242,0,13.137-5.894,13.137-13.133v-7.999
			c0-7.24-5.895-13.133-13.137-13.133H85.862z"/>
	</g>
	<g>
		<radialGradient id="SVGID_7_" cx="139.7251" cy="307.9419" r="32.4108" gradientUnits="userSpaceOnUse">
			<stop  offset="0" style="stop-color:#8CBB69"/>
			<stop  offset="0.7837" style="stop-color:#6BAD44"/>
		</radialGradient>
		<path fill="url(#SVGID_7_)" d="M182.18,325.22l-0.937-11.001c-1.299-11.303-9.993-12.825-9.993-12.825l-14.399-5.155l-4.906-5.574
			l-0.635,0.865l-11.519,15.717l-11.52-15.717l-0.634-0.865l-4.909,5.574l-14.397,5.155c0,0-8.694,1.522-9.992,12.825l-1.068,11.001
			H182.18z"/>
		<path d="M182.18,326.305H97.271c-0.306,0-0.599-0.128-0.803-0.355c-0.209-0.225-0.309-0.529-0.278-0.832l1.066-11.001
			c1.38-11.99,10.797-13.772,10.89-13.794l13.951-5.013l4.725-5.367c0.218-0.247,0.55-0.4,0.865-0.369
			c0.327,0.015,0.634,0.179,0.825,0.446l11.279,15.393l11.278-15.393c0.194-0.267,0.498-0.432,0.827-0.446
			c0.34-0.031,0.648,0.122,0.862,0.369l4.724,5.367l14.133,5.064l0,0c0.073,0,9.343,1.852,10.706,13.719l0.939,11.036
			c0.023,0.307-0.078,0.603-0.285,0.825C182.773,326.177,182.479,326.305,182.18,326.305z M98.468,324.135h82.528l-0.832-9.827
			c-1.185-10.276-8.782-11.782-9.105-11.845l-14.569-5.204c-0.174-0.063-0.326-0.166-0.449-0.304l-4.018-4.565l-11.355,15.5
			c-0.407,0.557-1.341,0.557-1.753,0l-11.352-15.5l-4.018,4.565c-0.123,0.138-0.276,0.24-0.449,0.304l-14.397,5.159
			c-0.496,0.107-8.096,1.613-9.279,11.926L98.468,324.135z"/>
	</g>
	<g>
		<path fill="#FFF5D1" d="M157.355,272.144c0,9.539-7.732,17.271-17.272,17.271h-0.719c-9.537,0-17.272-7.732-17.272-17.271v-9.715
			c0-9.54,7.734-17.273,17.272-17.273h0.719c9.54,0,17.272,7.733,17.272,17.273V272.144z"/>
		<path d="M140.083,290.504h-0.719c-10.121,0-18.356-8.239-18.356-18.36v-9.715c0-10.126,8.234-18.361,18.356-18.361h0.719
			c10.122,0,18.357,8.235,18.357,18.361v9.715C158.44,282.265,150.205,290.504,140.083,290.504z M139.364,246.24
			c-8.924,0-16.186,7.264-16.186,16.189v9.715c0,8.924,7.262,16.187,16.186,16.187h0.719c8.925,0,16.184-7.263,16.184-16.187v-9.715
			c0-8.925-7.259-16.189-16.184-16.189H139.364z"/>
	</g>
</g>
</svg>