<!-- Generator: Adobe Illustrator 17.0.0, SVG Export Plug-In  -->
<svg version="1.1"
	 xmlns="http://www.w3.org/2000/svg" xmlns:xlink="http://www.w3.org/1999/xlink" xmlns:a="http://ns.adobe.com/AdobeSVGViewerExtensions/3.0/"
	 x="0px" y="0px" width="348.151px" height="57.694px" viewBox="0 0 348.151 57.694" enable-background="new 0 0 348.151 57.694"
	 xml:space="preserve">
<defs>
</defs>
<g>
	<g>
		<radialGradient id="SVGID_1_" cx="174.0757" cy="28.8482" r="122.6453" gradientUnits="userSpaceOnUse">
			<stop  offset="0" style="stop-color:#8CBB69"/>
			<stop  offset="0.7837" style="stop-color:#6BAD44"/>
		</radialGradient>
		<rect x="2.623" y="2.624" fill="url(#SVGID_1_)" width="342.905" height="52.448"/>
		<path d="M345.528,57.694H2.623C1.176,57.694,0,56.521,0,55.072V2.624C0,1.176,1.176,0,2.623,0h342.905
			c1.449,0,2.623,1.176,2.623,2.624v52.448C348.151,56.521,346.978,57.694,345.528,57.694z M5.247,52.45h337.661V5.247H5.247V52.45z
			"/>
	</g>
</g>
<g>
	<g>
		<path fill="#FFFFFF" d="M80.383,36.619V19.362h2.283v7.086h8.971v-7.086h2.283v17.257h-2.283v-8.134h-8.971v8.134H80.383z"/>
		<path fill="#FFFFFF" d="M97.77,36.619V19.362h12.478v2.036h-10.194v5.285h9.547v2.025h-9.547v5.874h10.595v2.036H97.77z"/>
		<path fill="#FFFFFF" d="M113.838,36.619V19.362h7.651c1.538,0,2.707,0.155,3.508,0.465s1.44,0.857,1.919,1.642
			c0.479,0.785,0.718,1.652,0.718,2.602c0,1.225-0.396,2.257-1.188,3.097c-0.793,0.84-2.018,1.373-3.673,1.601
			c0.604,0.29,1.063,0.577,1.377,0.859c0.667,0.612,1.299,1.377,1.896,2.295l3.002,4.697h-2.873l-2.283-3.59
			c-0.667-1.036-1.217-1.829-1.648-2.378c-0.432-0.55-0.817-0.935-1.159-1.154s-0.688-0.372-1.042-0.459
			c-0.259-0.055-0.683-0.082-1.271-0.082h-2.648v7.663H113.838z M116.122,26.979h4.909c1.043,0,1.859-0.108,2.448-0.324
			s1.036-0.561,1.342-1.036c0.307-0.475,0.459-0.99,0.459-1.548c0-0.815-0.296-1.486-0.889-2.013
			c-0.593-0.525-1.528-0.789-2.808-0.789h-5.462V26.979z"/>
		<path fill="#FFFFFF" d="M131.249,36.619V19.362h7.651c1.538,0,2.707,0.155,3.508,0.465s1.44,0.857,1.919,1.642
			c0.479,0.785,0.718,1.652,0.718,2.602c0,1.225-0.396,2.257-1.188,3.097c-0.793,0.84-2.018,1.373-3.673,1.601
			c0.604,0.29,1.063,0.577,1.377,0.859c0.667,0.612,1.299,1.377,1.896,2.295l3.002,4.697h-2.873l-2.283-3.59
			c-0.667-1.036-1.217-1.829-1.648-2.378c-0.432-0.55-0.817-0.935-1.159-1.154s-0.688-0.372-1.042-0.459
			c-0.259-0.055-0.683-0.082-1.271-0.082h-2.648v7.663H131.249z M133.532,26.979h4.909c1.043,0,1.859-0.108,2.448-0.324
			s1.036-0.561,1.342-1.036c0.307-0.475,0.459-0.99,0.459-1.548c0-0.815-0.296-1.486-0.889-2.013
			c-0.593-0.525-1.528-0.789-2.808-0.789h-5.462V26.979z"/>
		<path fill="#FFFFFF" d="M146.728,36.619l6.627-17.257h2.461l7.063,17.257h-2.602l-2.013-5.227h-7.216l-1.896,5.227H146.728z
			 M151.707,29.532h5.851l-1.802-4.779c-0.549-1.451-0.957-2.645-1.224-3.578c-0.22,1.106-0.53,2.205-0.931,3.296L151.707,29.532z"
			/>
		<path fill="#FFFFFF" d="M164.632,36.619V19.362h3.438l4.085,12.219c0.377,1.138,0.651,1.989,0.824,2.555
			c0.195-0.628,0.502-1.55,0.918-2.767l4.132-12.007h3.072v17.257H178.9V22.176l-5.015,14.443h-2.061l-4.991-14.69v14.69H164.632z"
			/>
		<path fill="#FFFFFF" d="M185.173,36.619V19.362h2.284v17.257H185.173z"/>
		<path fill="#FFFFFF" d="M191.531,36.619V19.362h12.478v2.036h-10.194v5.285h9.547v2.025h-9.547v5.874h10.595v2.036H191.531z"/>
		<path fill="#FFFFFF" d="M207.54,36.619V19.362h2.343l9.064,13.549V19.362h2.189v17.257h-2.343l-9.064-13.561v13.561H207.54z"/>
		<path fill="#FFFFFF" d="M229.365,36.619V21.398h-5.686v-2.036h13.678v2.036h-5.709v15.221H229.365z"/>
		<path fill="#FFFFFF" d="M237.805,36.619l6.627-17.257h2.461l7.063,17.257h-2.602l-2.013-5.227h-7.216l-1.896,5.227H237.805z
			 M242.785,29.532h5.851l-1.802-4.779c-0.549-1.451-0.957-2.645-1.224-3.578c-0.22,1.106-0.53,2.205-0.931,3.296L242.785,29.532z"
			/>
		<path fill="#FFFFFF" d="M255.003,31.075l2.154-0.188c0.102,0.863,0.339,1.571,0.712,2.124c0.373,0.554,0.951,1.001,1.736,1.343
			c0.785,0.341,1.668,0.512,2.648,0.512c0.871,0,1.641-0.13,2.308-0.389s1.163-0.614,1.489-1.065
			c0.325-0.451,0.488-0.943,0.488-1.478c0-0.541-0.157-1.014-0.471-1.418c-0.314-0.404-0.832-0.743-1.554-1.019
			c-0.464-0.18-1.487-0.461-3.072-0.842c-1.586-0.38-2.696-0.739-3.332-1.077c-0.824-0.431-1.438-0.967-1.842-1.606
			s-0.606-1.355-0.606-2.148c0-0.871,0.247-1.685,0.741-2.442c0.495-0.757,1.217-1.332,2.166-1.725
			c0.95-0.393,2.006-0.589,3.167-0.589c1.279,0,2.407,0.206,3.384,0.618c0.978,0.412,1.729,1.019,2.255,1.819
			c0.525,0.8,0.808,1.706,0.848,2.719l-2.189,0.165c-0.118-1.091-0.517-1.915-1.195-2.473c-0.679-0.557-1.682-0.835-3.008-0.835
			c-1.381,0-2.388,0.253-3.02,0.759c-0.631,0.506-0.947,1.116-0.947,1.831c0,0.619,0.224,1.13,0.671,1.53
			c0.439,0.399,1.587,0.81,3.443,1.229c1.855,0.42,3.129,0.787,3.82,1.101c1.004,0.464,1.746,1.05,2.225,1.76
			c0.479,0.711,0.718,1.528,0.718,2.455c0,0.918-0.263,1.783-0.789,2.596c-0.525,0.812-1.281,1.443-2.266,1.895
			c-0.985,0.451-2.094,0.677-3.325,0.677c-1.562,0-2.871-0.228-3.926-0.683c-1.056-0.455-1.884-1.14-2.484-2.054
			C255.351,33.263,255.035,32.229,255.003,31.075z"/>
	</g>
</g>
</svg>