<!-- Generator: Adobe Illustrator 17.0.0, SVG Export Plug-In  -->
<svg version="1.1"
	 xmlns="http://www.w3.org/2000/svg" xmlns:xlink="http://www.w3.org/1999/xlink" xmlns:a="http://ns.adobe.com/AdobeSVGViewerExtensions/3.0/"
	 x="0px" y="0px" width="69.366px" height="98.137px" viewBox="0 0 69.366 98.137" enable-background="new 0 0 69.366 98.137"
	 xml:space="preserve">
<defs>
</defs>
<g>
	<g>
		<polygon fill="#144B8B" points="54.191,0.398 0.398,0.398 0.398,97.738 68.969,97.738 68.969,15.177 		"/>
		<path fill="#231F20" d="M68.969,98.137H0.398C0.18,98.137,0,97.96,0,97.738V0.398C0,0.178,0.18,0,0.398,0h53.793
			c0.107,0,0.207,0.041,0.281,0.117L69.25,14.896c0.076,0.074,0.116,0.176,0.116,0.281v82.562
			C69.366,97.96,69.189,98.137,68.969,98.137z M0.795,97.342H68.57V15.341L54.026,0.795H0.795V97.342z"/>
	</g>
	<g>
		<path fill="#FFFFFF" d="M60.105,56.399H6.307c-0.219,0-0.397-0.179-0.397-0.396c0-0.221,0.178-0.399,0.397-0.399h53.799
			c0.221,0,0.399,0.179,0.399,0.399C60.505,56.22,60.326,56.399,60.105,56.399z"/>
	</g>
	<g>
		<path fill="#FFFFFF" d="M60.105,64.564H6.307c-0.219,0-0.397-0.179-0.397-0.397c0-0.22,0.178-0.398,0.397-0.398h53.799
			c0.221,0,0.399,0.179,0.399,0.398C60.505,64.385,60.326,64.564,60.105,64.564z"/>
	</g>
	<g>
		<path fill="#FFFFFF" d="M25.613,72.728H6.307c-0.219,0-0.397-0.178-0.397-0.398c0-0.22,0.178-0.397,0.397-0.397h19.307
			c0.22,0,0.396,0.178,0.396,0.397C26.01,72.55,25.833,72.728,25.613,72.728z"/>
	</g>
	<g>
		<polygon fill="#FFFFFF" points="54.191,15.177 68.969,15.177 54.191,0.398 		"/>
		<path fill="#231F20" d="M68.969,15.574H54.191c-0.221,0-0.398-0.177-0.398-0.398V0.398c0-0.161,0.098-0.306,0.248-0.368
			c0.145-0.061,0.317-0.026,0.432,0.088L69.25,14.896c0.114,0.114,0.147,0.283,0.086,0.433
			C69.274,15.479,69.129,15.574,68.969,15.574z M54.591,14.778h13.42l-13.42-13.42V14.778z"/>
	</g>
	<g>
		<path fill="#FFFFFF" d="M60.105,48.571H20.175c-0.219,0-0.397-0.178-0.397-0.397s0.178-0.398,0.397-0.398h39.931
			c0.221,0,0.399,0.178,0.399,0.398S60.326,48.571,60.105,48.571z"/>
	</g>
	<g>
		<path fill="#FFFFFF" d="M60.105,40.262H20.175c-0.219,0-0.397-0.178-0.397-0.396c0-0.221,0.178-0.398,0.397-0.398h39.931
			c0.221,0,0.399,0.178,0.399,0.398C60.505,40.084,60.326,40.262,60.105,40.262z"/>
	</g>
	<g>
		<radialGradient id="SVGID_1_" cx="10.462" cy="44.0198" r="4.1548" gradientUnits="userSpaceOnUse">
			<stop  offset="0" style="stop-color:#8CBB69"/>
			<stop  offset="0.7837" style="stop-color:#6BAD44"/>
		</radialGradient>
		
			<rect x="6.307" y="39.865" fill="url(#SVGID_1_)" stroke="#000000" stroke-width="0.5" stroke-miterlimit="10" width="8.311" height="8.309"/>
		<path fill="#FFFFFF" d="M14.617,48.571h-8.31c-0.219,0-0.397-0.178-0.397-0.397v-8.309c0-0.221,0.178-0.398,0.397-0.398h8.31
			c0.219,0,0.398,0.178,0.398,0.398v8.309C15.015,48.394,14.836,48.571,14.617,48.571z M6.704,47.777h7.516v-7.515H6.704V47.777z"/>
	</g>
	<g>
		<path fill="#FFFFFF" d="M18.628,85.076v-5.208h1.574l0.945,3.553l0.934-3.553h1.578v5.208h-0.978v-4.1l-1.033,4.1h-1.013
			l-1.03-4.1v4.1H18.628z"/>
		<path fill="#FFFFFF" d="M24.703,85.076v-5.208h3.861v0.881h-2.81v1.154h2.614v0.878h-2.614v1.417h2.909v0.878H24.703z
			 M26.039,79.57l0.49-1.062h1.119l-0.978,1.062H26.039z"/>
		<path fill="#FFFFFF" d="M30.729,85.076v-4.327h-1.546v-0.881h4.139v0.881h-1.542v4.327H30.729z"/>
		<path fill="#FFFFFF" d="M33.655,82.504c0-0.53,0.079-0.976,0.238-1.336c0.118-0.265,0.279-0.503,0.484-0.714
			s0.43-0.367,0.673-0.469c0.325-0.138,0.699-0.206,1.123-0.206c0.768,0,1.382,0.238,1.842,0.714
			c0.461,0.477,0.691,1.139,0.691,1.986c0,0.841-0.229,1.498-0.686,1.974c-0.457,0.475-1.068,0.712-1.833,0.712
			c-0.774,0-1.391-0.236-1.848-0.709S33.655,83.333,33.655,82.504z M34.738,82.469c0,0.59,0.137,1.037,0.409,1.341
			c0.272,0.305,0.618,0.457,1.037,0.457s0.763-0.151,1.032-0.453c0.269-0.302,0.403-0.755,0.403-1.359
			c0-0.597-0.131-1.042-0.393-1.336c-0.262-0.293-0.609-0.44-1.043-0.44s-0.783,0.149-1.048,0.446
			C34.871,81.421,34.738,81.869,34.738,82.469z"/>
		<path fill="#FFFFFF" d="M39.523,79.868h1.922c0.434,0,0.765,0.033,0.991,0.1c0.306,0.09,0.567,0.25,0.785,0.479
			c0.219,0.229,0.384,0.511,0.498,0.844c0.113,0.333,0.17,0.743,0.17,1.23c0,0.429-0.053,0.799-0.159,1.108
			c-0.131,0.379-0.316,0.687-0.559,0.921c-0.182,0.177-0.429,0.315-0.738,0.415c-0.232,0.073-0.543,0.11-0.931,0.11h-1.979V79.868z
			 M40.575,80.749v3.449h0.785c0.294,0,0.506-0.016,0.636-0.049c0.171-0.043,0.313-0.115,0.425-0.217
			c0.112-0.103,0.204-0.27,0.275-0.503s0.106-0.552,0.106-0.954s-0.035-0.712-0.106-0.927c-0.071-0.216-0.171-0.384-0.299-0.505
			s-0.29-0.202-0.486-0.245c-0.146-0.033-0.435-0.05-0.863-0.05H40.575z"/>
		<path fill="#FFFFFF" d="M44.568,82.504c0-0.53,0.079-0.976,0.238-1.336c0.118-0.265,0.279-0.503,0.484-0.714
			s0.43-0.367,0.673-0.469c0.325-0.138,0.699-0.206,1.123-0.206c0.768,0,1.382,0.238,1.842,0.714
			c0.461,0.477,0.691,1.139,0.691,1.986c0,0.841-0.229,1.498-0.686,1.974c-0.457,0.475-1.068,0.712-1.833,0.712
			c-0.774,0-1.391-0.236-1.848-0.709S44.568,83.333,44.568,82.504z M45.651,82.469c0,0.59,0.137,1.037,0.409,1.341
			c0.272,0.305,0.618,0.457,1.037,0.457s0.763-0.151,1.032-0.453c0.269-0.302,0.403-0.755,0.403-1.359
			c0-0.597-0.131-1.042-0.393-1.336c-0.262-0.293-0.609-0.44-1.043-0.44s-0.783,0.149-1.048,0.446
			C45.784,81.421,45.651,81.869,45.651,82.469z"/>
		<path fill="#FFFFFF" d="M20.938,92.113l1.023-0.1c0.062,0.344,0.187,0.596,0.375,0.757s0.442,0.241,0.762,0.241
			c0.339,0,0.594-0.071,0.766-0.215s0.258-0.311,0.258-0.503c0-0.123-0.036-0.228-0.108-0.314c-0.072-0.086-0.198-0.161-0.379-0.226
			c-0.123-0.042-0.403-0.118-0.842-0.227c-0.563-0.141-0.959-0.312-1.187-0.516c-0.319-0.286-0.479-0.636-0.479-1.048
			c0-0.266,0.075-0.514,0.226-0.744c0.15-0.231,0.367-0.407,0.65-0.528c0.283-0.12,0.624-0.181,1.024-0.181
			c0.654,0,1.146,0.144,1.477,0.43c0.33,0.287,0.504,0.669,0.521,1.147l-1.052,0.046c-0.045-0.268-0.142-0.46-0.29-0.577
			c-0.147-0.117-0.37-0.176-0.666-0.176c-0.306,0-0.544,0.063-0.718,0.188c-0.111,0.081-0.166,0.188-0.166,0.323
			c0,0.123,0.052,0.229,0.156,0.316c0.132,0.111,0.454,0.228,0.966,0.348c0.512,0.121,0.89,0.246,1.135,0.375
			s0.438,0.306,0.576,0.529s0.208,0.501,0.208,0.83c0,0.298-0.083,0.577-0.249,0.838s-0.4,0.454-0.703,0.581
			c-0.304,0.127-0.682,0.19-1.134,0.19c-0.658,0-1.164-0.152-1.517-0.457C21.217,93.139,21.007,92.695,20.938,92.113z"/>
		<path fill="#FFFFFF" d="M29.389,91.892l1.02,0.323c-0.156,0.568-0.416,0.991-0.779,1.267c-0.363,0.276-0.825,0.414-1.384,0.414
			c-0.691,0-1.26-0.236-1.705-0.709s-0.668-1.118-0.668-1.938c0-0.867,0.224-1.54,0.671-2.02c0.448-0.479,1.036-0.72,1.766-0.72
			c0.638,0,1.155,0.188,1.553,0.564c0.237,0.223,0.415,0.543,0.533,0.96l-1.041,0.248c-0.062-0.27-0.19-0.482-0.386-0.64
			c-0.195-0.156-0.433-0.234-0.712-0.234c-0.386,0-0.699,0.139-0.939,0.416c-0.241,0.277-0.361,0.726-0.361,1.347
			c0,0.658,0.119,1.127,0.355,1.406c0.237,0.28,0.545,0.42,0.924,0.42c0.279,0,0.52-0.089,0.722-0.267
			C29.157,92.553,29.302,92.274,29.389,91.892z"/>
		<path fill="#FFFFFF" d="M31.314,93.807v-5.208h2.213c0.557,0,0.961,0.047,1.213,0.141c0.253,0.093,0.454,0.26,0.606,0.499
			c0.151,0.239,0.227,0.513,0.227,0.82c0,0.391-0.114,0.714-0.344,0.968c-0.23,0.255-0.573,0.415-1.03,0.481
			c0.227,0.133,0.415,0.278,0.563,0.438c0.148,0.158,0.348,0.44,0.599,0.846l0.636,1.016h-1.257l-0.761-1.133
			c-0.27-0.405-0.455-0.66-0.554-0.766c-0.1-0.105-0.205-0.178-0.316-0.217s-0.288-0.059-0.529-0.059h-0.214v2.174H31.314z
			 M32.365,90.801h0.778c0.505,0,0.819-0.021,0.945-0.063c0.125-0.043,0.224-0.116,0.295-0.221c0.071-0.104,0.106-0.234,0.106-0.391
			c0-0.175-0.047-0.316-0.141-0.425c-0.094-0.107-0.226-0.176-0.396-0.204c-0.086-0.012-0.342-0.018-0.768-0.018h-0.821V90.801z"/>
		<path fill="#FFFFFF" d="M36.558,88.599h1.052v2.82c0,0.448,0.013,0.738,0.039,0.871c0.045,0.213,0.151,0.384,0.321,0.513
			c0.169,0.13,0.4,0.194,0.694,0.194c0.299,0,0.523-0.062,0.675-0.184s0.243-0.271,0.273-0.449c0.031-0.178,0.047-0.473,0.047-0.885
			v-2.881h1.051v2.735c0,0.625-0.028,1.067-0.085,1.325s-0.161,0.476-0.314,0.653c-0.152,0.178-0.356,0.319-0.612,0.425
			s-0.59,0.158-1.002,0.158c-0.498,0-0.875-0.058-1.132-0.172c-0.257-0.115-0.46-0.265-0.609-0.448s-0.247-0.376-0.295-0.577
			c-0.068-0.299-0.103-0.739-0.103-1.321V88.599z"/>
		<path fill="#FFFFFF" d="M41.804,93.807v-5.208h1.574l0.945,3.553l0.934-3.553h1.578v5.208h-0.978v-4.1l-1.033,4.1h-1.013
			l-1.03-4.1v4.1H41.804z"/>
	</g>
	<g>
		<g>
			<circle fill="#FFFFFF" stroke="#000000" stroke-width="0.5" stroke-miterlimit="10" cx="32.492" cy="19.67" r="13.59"/>
			<radialGradient id="SVGID_2_" cx="32.4922" cy="19.6701" r="11.0234" gradientUnits="userSpaceOnUse">
				<stop  offset="0" style="stop-color:#8CBB69"/>
				<stop  offset="0.7837" style="stop-color:#6BAD44"/>
			</radialGradient>
			<circle fill="url(#SVGID_2_)" stroke="#000000" stroke-width="0.5" stroke-miterlimit="10" cx="32.492" cy="19.67" r="11.023"/>
		</g>
		<g>
			<g>
				<g>
					<rect x="26.408" y="14.47" fill="#FFFFFF" width="12.686" height="11.835"/>
					<path d="M39.094,26.392H26.408c-0.049,0-0.086-0.039-0.086-0.087V14.47c0-0.048,0.037-0.086,0.086-0.086h12.686
						c0.048,0,0.087,0.038,0.087,0.086v11.835C39.181,26.353,39.142,26.392,39.094,26.392z M26.494,26.219h12.514V14.557H26.494
						V26.219z"/>
				</g>
				<g>
					<path fill="#154B8A" d="M39.094,13.422c0-0.772-0.626-1.397-1.396-1.397h-9.892c-0.773,0-1.398,0.625-1.398,1.397v1.048h12.686
						V13.422z"/>
					<path d="M39.094,14.557H26.408c-0.049,0-0.086-0.039-0.086-0.087v-1.048c0-0.818,0.665-1.483,1.483-1.483h9.892
						c0.816,0,1.483,0.665,1.483,1.483v1.048C39.181,14.518,39.142,14.557,39.094,14.557z M26.494,14.384h12.514v-0.962
						c0-0.723-0.588-1.311-1.311-1.311h-9.892c-0.724,0-1.312,0.588-1.312,1.311V14.384z"/>
				</g>
			</g>
			<g>
				<circle fill="#FFFFFF" cx="27.61" cy="13.248" r="0.446"/>
				<path d="M27.609,13.78c-0.293,0-0.531-0.237-0.531-0.531c0-0.294,0.238-0.532,0.531-0.532c0.295,0,0.534,0.238,0.534,0.532
					C28.144,13.542,27.904,13.78,27.609,13.78z M27.609,12.888c-0.196,0-0.359,0.162-0.359,0.36s0.163,0.359,0.359,0.359
					c0.199,0,0.361-0.161,0.361-0.359S27.809,12.888,27.609,12.888z"/>
			</g>
			<g>
				<circle fill="#FFFFFF" cx="28.973" cy="13.248" r="0.447"/>
				<path d="M28.973,13.78c-0.293,0-0.532-0.237-0.532-0.531c0-0.294,0.239-0.532,0.532-0.532c0.294,0,0.533,0.238,0.533,0.532
					C29.506,13.542,29.267,13.78,28.973,13.78z M28.973,12.888c-0.198,0-0.36,0.162-0.36,0.36s0.162,0.359,0.36,0.359
					c0.199,0,0.36-0.161,0.36-0.359S29.172,12.888,28.973,12.888z"/>
			</g>
			<g>
				<circle fill="#FFFFFF" cx="30.337" cy="13.248" r="0.446"/>
				<path d="M30.336,13.78c-0.293,0-0.532-0.237-0.532-0.531c0-0.294,0.239-0.532,0.532-0.532c0.294,0,0.533,0.238,0.533,0.532
					C30.869,13.542,30.63,13.78,30.336,13.78z M30.336,12.888c-0.198,0-0.359,0.162-0.359,0.36s0.161,0.359,0.359,0.359
					c0.199,0,0.361-0.161,0.361-0.359S30.535,12.888,30.336,12.888z"/>
			</g>
			<g>
				<line fill="#FFFFFF" x1="36.285" y1="13.695" x2="37.18" y2="13.695"/>
				<path d="M37.18,13.78h-0.895c-0.047,0-0.085-0.037-0.085-0.085c0-0.048,0.038-0.087,0.085-0.087h0.895
					c0.045,0,0.084,0.039,0.084,0.087C37.264,13.742,37.225,13.78,37.18,13.78z"/>
			</g>
			<g>
				<g>
					<line fill="#FFFFFF" x1="37.555" y1="12.902" x2="38.347" y2="13.695"/>
					<path d="M38.347,13.78c-0.021,0-0.044-0.008-0.062-0.024l-0.792-0.792c-0.034-0.033-0.034-0.087,0-0.122
						c0.035-0.033,0.088-0.033,0.122,0l0.793,0.793c0.033,0.033,0.033,0.088,0,0.121C38.392,13.772,38.369,13.78,38.347,13.78z"/>
				</g>
				<g>
					<line fill="#FFFFFF" x1="37.555" y1="13.695" x2="38.347" y2="12.902"/>
					<path d="M37.555,13.78c-0.022,0-0.045-0.008-0.062-0.024c-0.034-0.033-0.034-0.088,0-0.121l0.792-0.793
						c0.034-0.034,0.088-0.034,0.121,0c0.035,0.032,0.035,0.089,0,0.121l-0.791,0.793C37.598,13.772,37.576,13.78,37.555,13.78z"/>
				</g>
			</g>
			<g>
				<radialGradient id="SVGID_3_" cx="32.7509" cy="16.0129" r="3.5982" gradientUnits="userSpaceOnUse">
					<stop  offset="0" style="stop-color:#8CBB69"/>
					<stop  offset="0.7837" style="stop-color:#6BAD44"/>
				</radialGradient>
				<rect x="27.687" y="15.518" fill="url(#SVGID_3_)" width="10.129" height="0.99"/>
				<path d="M37.815,16.594H27.687c-0.048,0-0.087-0.039-0.087-0.086v-0.99c0-0.047,0.039-0.086,0.087-0.086h10.129
					c0.048,0,0.086,0.039,0.086,0.086v0.99C37.901,16.555,37.863,16.594,37.815,16.594z M27.773,16.422h9.956v-0.817h-9.956V16.422z
					"/>
			</g>
			<g>
				<rect x="27.687" y="17.497" fill="#154B8A" width="4.523" height="0.989"/>
				<path d="M32.209,18.573h-4.522c-0.048,0-0.087-0.04-0.087-0.087v-0.989c0-0.048,0.039-0.087,0.087-0.087h4.522
					c0.047,0,0.086,0.039,0.086,0.087v0.989C32.295,18.533,32.256,18.573,32.209,18.573z M27.773,18.4h4.349v-0.816h-4.349V18.4z"/>
			</g>
			<g>
				<rect x="33.74" y="17.497" fill="#154B8A" width="4.075" height="0.989"/>
				<path d="M37.815,18.573H33.74c-0.047,0-0.086-0.04-0.086-0.087v-0.989c0-0.048,0.039-0.087,0.086-0.087h4.075
					c0.048,0,0.086,0.039,0.086,0.087v0.989C37.901,18.533,37.863,18.573,37.815,18.573z M33.827,18.4h3.902v-0.816h-3.902V18.4z"/>
			</g>
			<g>
				<radialGradient id="SVGID_4_" cx="31.2768" cy="19.9709" r="2.5628" gradientUnits="userSpaceOnUse">
					<stop  offset="0" style="stop-color:#8CBB69"/>
					<stop  offset="0.7837" style="stop-color:#6BAD44"/>
				</radialGradient>
				<rect x="27.687" y="19.476" fill="url(#SVGID_4_)" width="7.181" height="0.99"/>
				<path d="M34.867,20.551h-7.181c-0.048,0-0.087-0.037-0.087-0.085v-0.99c0-0.048,0.039-0.086,0.087-0.086h7.181
					c0.049,0,0.086,0.038,0.086,0.086v0.99C34.953,20.514,34.916,20.551,34.867,20.551z M27.773,20.379h7.009v-0.816h-7.009V20.379z
					"/>
			</g>
			<g>
				<rect x="27.687" y="21.455" fill="#FFFFFF" width="2.204" height="0.99"/>
				<path d="M29.891,22.531h-2.204c-0.048,0-0.087-0.038-0.087-0.086v-0.99c0-0.047,0.039-0.086,0.087-0.086h2.204
					c0.047,0,0.086,0.039,0.086,0.086v0.99C29.977,22.493,29.938,22.531,29.891,22.531z M27.773,22.359h2.03v-0.816h-2.03V22.359z"
					/>
			</g>
			<g>
				<rect x="31.402" y="21.455" fill="#FFFFFF" width="6.413" height="0.99"/>
				<path d="M37.815,22.531h-6.413c-0.048,0-0.086-0.038-0.086-0.086v-0.99c0-0.047,0.038-0.086,0.086-0.086h6.413
					c0.048,0,0.086,0.039,0.086,0.086v0.99C37.901,22.493,37.863,22.531,37.815,22.531z M31.488,22.359h6.241v-0.816h-6.241V22.359z
					"/>
			</g>
			<g>
				<rect x="27.686" y="23.435" fill="#154B8A" width="3.92" height="0.989"/>
				<path d="M31.607,24.511h-3.92c-0.048,0-0.087-0.039-0.087-0.087v-0.989c0-0.048,0.039-0.087,0.087-0.087h3.92
					c0.049,0,0.088,0.039,0.088,0.087v0.989C31.694,24.472,31.655,24.511,31.607,24.511z M27.773,24.337h3.747v-0.816h-3.747V24.337
					z"/>
			</g>
		</g>
	</g>
</g>
</svg>