<!-- Generator: Adobe Illustrator 17.0.0, SVG Export Plug-In  -->
<svg version="1.1"
	 xmlns="http://www.w3.org/2000/svg" xmlns:xlink="http://www.w3.org/1999/xlink" xmlns:a="http://ns.adobe.com/AdobeSVGViewerExtensions/3.0/"
	 x="0px" y="0px" width="236.43px" height="341.225px" viewBox="0 0 236.43 341.225" enable-background="new 0 0 236.43 341.225"
	 xml:space="preserve">
<defs>
</defs>
<g>
	<polyline fill="none" stroke="#000000" stroke-width="4" stroke-miterlimit="10" points="78.01,18.258 55.307,18.258 
		55.307,322.967 78.01,322.967 	"/>
	<line fill="none" stroke="#000000" stroke-width="4" stroke-miterlimit="10" x1="79.313" y1="171.006" x2="30.393" y2="171.006"/>
	<line fill="none" stroke="#000000" stroke-width="4" stroke-miterlimit="10" x1="79.309" y1="68.777" x2="54.396" y2="68.777"/>
	<line fill="none" stroke="#000000" stroke-width="4" stroke-miterlimit="10" x1="79.309" y1="120.094" x2="54.396" y2="120.094"/>
	<line fill="none" stroke="#000000" stroke-width="4" stroke-miterlimit="10" x1="79.309" y1="221.93" x2="54.396" y2="221.93"/>
	<line fill="none" stroke="#000000" stroke-width="4" stroke-miterlimit="10" x1="79.309" y1="273.248" x2="54.396" y2="273.248"/>
	<g>
		
			<radialGradient id="SVGID_1_" cx="-2265.7441" cy="3528.4019" r="87.5" gradientTransform="matrix(0 -1 1 0 -3510.1421 -2094.6738)" gradientUnits="userSpaceOnUse">
			<stop  offset="0" style="stop-color:#8CBB69"/>
			<stop  offset="0.7837" style="stop-color:#6BAD44"/>
		</radialGradient>
		<rect x="1.203" y="48.508" fill="url(#SVGID_1_)" width="34.113" height="245.125"/>
		<path d="M36.518,48.508v245.125c0,0.664-0.537,1.201-1.201,1.201H1.203c-0.664,0-1.203-0.537-1.203-1.201V48.508
			c0-0.662,0.539-1.201,1.203-1.201h34.113C35.98,47.307,36.518,47.846,36.518,48.508z M34.113,292.43V49.711H2.406V292.43H34.113z"
			/>
	</g>
	<g>
		<path d="M24.48,254.926v0.433l-1.213,0.791c0.437,0.331,0.782,0.731,1.039,1.202c0.257,0.472,0.385,0.995,0.385,1.572v0.791
			c0,0.514-0.097,0.996-0.29,1.45c-0.193,0.453-0.459,0.849-0.797,1.187c-0.337,0.338-0.73,0.604-1.181,0.796
			c-0.45,0.194-0.932,0.29-1.445,0.29h-8.122c-0.513,0-0.994-0.096-1.444-0.29c-0.45-0.192-0.844-0.458-1.182-0.796
			c-0.337-0.338-0.603-0.733-0.796-1.187c-0.193-0.454-0.291-0.937-0.291-1.45v-1.076c0-0.513,0.098-0.995,0.291-1.445
			c0.193-0.449,0.459-0.844,0.796-1.181c0.338-0.338,0.731-0.604,1.182-0.797s0.932-0.29,1.444-0.29h0.612l0.211,1.361h-0.823
			c-0.337,0-0.652,0.063-0.943,0.189c-0.292,0.127-0.547,0.299-0.765,0.517s-0.391,0.474-0.517,0.765
			c-0.127,0.292-0.19,0.606-0.19,0.944v0.949c0,0.338,0.063,0.652,0.19,0.944c0.126,0.292,0.299,0.548,0.517,0.77
			s0.473,0.396,0.765,0.522c0.291,0.126,0.606,0.189,0.943,0.189h8.122c0.338,0,0.652-0.063,0.944-0.189
			c0.291-0.127,0.549-0.301,0.77-0.522c0.222-0.222,0.396-0.478,0.522-0.77s0.19-0.606,0.19-0.944v-0.949
			c0-0.338-0.064-0.652-0.19-0.944c-0.126-0.291-0.301-0.547-0.522-0.765c-0.221-0.218-0.479-0.39-0.77-0.517
			c-0.292-0.127-0.606-0.189-0.944-0.189h-3.153v2.415h-1.298v-3.776H24.48z"/>
		<path d="M22.751,245.144c0.387,0.165,0.725,0.392,1.012,0.68c0.289,0.289,0.516,0.626,0.681,1.013s0.248,0.798,0.248,1.234v0.864
			c0,0.437-0.083,0.848-0.248,1.234s-0.392,0.725-0.681,1.013c-0.287,0.288-0.625,0.516-1.012,0.681s-0.799,0.248-1.234,0.248
			h-4.873c-0.436,0-0.848-0.083-1.234-0.248s-0.724-0.393-1.012-0.681c-0.289-0.288-0.516-0.626-0.681-1.013
			s-0.248-0.798-0.248-1.234v-0.864c0-0.437,0.083-0.848,0.248-1.234s0.392-0.724,0.681-1.013c0.288-0.288,0.625-0.515,1.012-0.68
			c0.387-0.166,0.799-0.248,1.234-0.248h2.542v5.917h2.405c0.26,0,0.504-0.049,0.732-0.147s0.428-0.232,0.596-0.401
			c0.17-0.168,0.303-0.367,0.401-0.596s0.147-0.473,0.147-0.733v-0.864c0-0.261-0.049-0.505-0.147-0.733s-0.231-0.427-0.401-0.596
			c-0.168-0.169-0.367-0.303-0.596-0.401c-0.229-0.098-0.473-0.147-0.732-0.147h-0.718l0.211-1.297h0.433
			C21.952,244.895,22.364,244.978,22.751,245.144z M16.569,246.192c-0.26,0-0.504,0.05-0.732,0.147
			c-0.229,0.099-0.428,0.232-0.596,0.401c-0.17,0.169-0.303,0.367-0.401,0.596s-0.147,0.473-0.147,0.733v0.864
			c0,0.261,0.049,0.505,0.147,0.733s0.231,0.428,0.401,0.596c0.168,0.169,0.367,0.303,0.596,0.401
			c0.229,0.099,0.473,0.147,0.732,0.147h1.604v-4.62H16.569z"/>
		<path d="M14.913,239.125c0,0.261,0.05,0.505,0.148,0.733s0.232,0.428,0.4,0.596c0.169,0.169,0.367,0.303,0.596,0.401
			c0.229,0.099,0.474,0.147,0.733,0.147h7.689v1.298H13.68v-0.433l1.097-0.707c-0.4-0.295-0.719-0.666-0.954-1.112
			c-0.235-0.447-0.354-0.934-0.354-1.461v-0.76h1.444V239.125z"/>
		<path d="M22.751,229.132c0.387,0.165,0.725,0.392,1.012,0.68c0.289,0.289,0.516,0.626,0.681,1.013s0.248,0.798,0.248,1.234v0.864
			c0,0.437-0.083,0.848-0.248,1.234s-0.392,0.725-0.681,1.013c-0.287,0.288-0.625,0.516-1.012,0.681s-0.799,0.248-1.234,0.248
			h-4.873c-0.436,0-0.848-0.083-1.234-0.248s-0.724-0.393-1.012-0.681c-0.289-0.288-0.516-0.626-0.681-1.013
			s-0.248-0.798-0.248-1.234v-0.864c0-0.437,0.083-0.848,0.248-1.234s0.392-0.724,0.681-1.013c0.288-0.288,0.625-0.515,1.012-0.68
			c0.387-0.166,0.799-0.248,1.234-0.248h2.542v5.917h2.405c0.26,0,0.504-0.049,0.732-0.147s0.428-0.232,0.596-0.401
			c0.17-0.168,0.303-0.367,0.401-0.596s0.147-0.473,0.147-0.733v-0.864c0-0.261-0.049-0.505-0.147-0.733s-0.231-0.427-0.401-0.596
			c-0.168-0.169-0.367-0.303-0.596-0.401c-0.229-0.098-0.473-0.147-0.732-0.147h-0.718l0.211-1.297h0.433
			C21.952,228.884,22.364,228.966,22.751,229.132z M16.569,230.181c-0.26,0-0.504,0.05-0.732,0.147
			c-0.229,0.099-0.428,0.232-0.596,0.401c-0.17,0.169-0.303,0.367-0.401,0.596s-0.147,0.473-0.147,0.733v0.864
			c0,0.261,0.049,0.505,0.147,0.733s0.231,0.428,0.401,0.596c0.168,0.169,0.367,0.303,0.596,0.401
			c0.229,0.099,0.473,0.147,0.732,0.147h1.604v-4.62H16.569z"/>
		<path d="M24.48,220.371h-7.911c-0.26,0-0.504,0.05-0.732,0.147c-0.229,0.099-0.428,0.232-0.596,0.401
			c-0.17,0.169-0.303,0.367-0.401,0.596s-0.147,0.473-0.147,0.733v0.864c0,0.261,0.049,0.505,0.147,0.733s0.231,0.428,0.401,0.596
			c0.168,0.169,0.367,0.303,0.596,0.401c0.229,0.099,0.473,0.147,0.732,0.147h7.911v1.298H13.68v-0.433l1.097-0.707
			c-0.4-0.295-0.719-0.666-0.954-1.112c-0.235-0.447-0.354-0.934-0.354-1.461v-0.327c0-0.437,0.083-0.848,0.248-1.234
			s0.392-0.724,0.681-1.013c0.288-0.288,0.625-0.515,1.012-0.68c0.387-0.166,0.799-0.248,1.234-0.248h7.837V220.371z"/>
		<path d="M22.751,209.513c0.387,0.165,0.725,0.392,1.012,0.68c0.289,0.289,0.516,0.626,0.681,1.013s0.248,0.798,0.248,1.234v0.864
			c0,0.437-0.083,0.848-0.248,1.234s-0.392,0.725-0.681,1.013c-0.287,0.288-0.625,0.516-1.012,0.681s-0.799,0.248-1.234,0.248
			h-4.873c-0.436,0-0.848-0.083-1.234-0.248s-0.724-0.393-1.012-0.681c-0.289-0.288-0.516-0.626-0.681-1.013
			s-0.248-0.798-0.248-1.234v-0.864c0-0.437,0.083-0.848,0.248-1.234s0.392-0.724,0.681-1.013c0.288-0.288,0.625-0.515,1.012-0.68
			c0.387-0.166,0.799-0.248,1.234-0.248h0.433l0.211,1.297h-0.718c-0.26,0-0.504,0.05-0.732,0.147
			c-0.229,0.099-0.428,0.232-0.596,0.401c-0.17,0.169-0.303,0.367-0.401,0.596s-0.147,0.473-0.147,0.733v0.864
			c0,0.261,0.049,0.505,0.147,0.733s0.231,0.428,0.401,0.596c0.168,0.169,0.367,0.303,0.596,0.401
			c0.229,0.099,0.473,0.147,0.732,0.147h5.021c0.26,0,0.504-0.049,0.732-0.147s0.428-0.232,0.596-0.401
			c0.17-0.168,0.303-0.367,0.401-0.596s0.147-0.473,0.147-0.733v-0.864c0-0.261-0.049-0.505-0.147-0.733s-0.231-0.427-0.401-0.596
			c-0.168-0.169-0.367-0.303-0.596-0.401c-0.229-0.098-0.473-0.147-0.732-0.147h-0.718l0.211-1.297h0.433
			C21.952,209.265,22.364,209.347,22.751,209.513z"/>
		<path d="M11.085,206.343h-1.73v-1.509h1.73V206.343z M24.48,206.237H13.68v-1.298H24.48V206.237z"/>
		<path d="M24.48,195.131l-1.075,0.717c0.387,0.295,0.697,0.665,0.933,1.107c0.235,0.443,0.354,0.929,0.354,1.456v0.326
			c0,0.437-0.083,0.848-0.248,1.234s-0.392,0.725-0.681,1.013c-0.287,0.288-0.625,0.516-1.012,0.681s-0.799,0.248-1.234,0.248
			h-0.105c-0.436,0-0.848-0.083-1.234-0.248s-0.725-0.393-1.012-0.681c-0.289-0.288-0.516-0.626-0.681-1.013
			s-0.248-0.798-0.248-1.234v-2.742h-1.667c-0.26,0-0.504,0.05-0.732,0.147c-0.229,0.099-0.428,0.232-0.596,0.401
			c-0.17,0.169-0.303,0.367-0.401,0.596s-0.147,0.473-0.147,0.733v0.759c0,0.261,0.049,0.505,0.147,0.733s0.231,0.428,0.401,0.596
			c0.168,0.169,0.367,0.303,0.596,0.401c0.229,0.099,0.473,0.147,0.732,0.147h0.391l-0.211,1.297h-0.105
			c-0.436,0-0.848-0.082-1.234-0.247s-0.724-0.393-1.012-0.681c-0.289-0.288-0.516-0.626-0.681-1.013s-0.248-0.798-0.248-1.234
			v-0.759c0-0.437,0.083-0.848,0.248-1.234s0.392-0.724,0.681-1.013c0.288-0.288,0.625-0.515,1.012-0.68
			c0.387-0.166,0.799-0.248,1.234-0.248h7.837V195.131z M19.249,195.995v2.742c0,0.261,0.049,0.505,0.147,0.733
			s0.233,0.428,0.406,0.596c0.173,0.169,0.372,0.303,0.601,0.401s0.474,0.147,0.733,0.147h0.454c0.26,0,0.504-0.049,0.732-0.147
			s0.428-0.232,0.596-0.401c0.17-0.168,0.303-0.367,0.401-0.596s0.147-0.473,0.147-0.733v-0.864c0-0.261-0.049-0.505-0.147-0.733
			s-0.231-0.427-0.401-0.596c-0.168-0.169-0.367-0.303-0.596-0.401c-0.229-0.098-0.473-0.147-0.732-0.147H19.249z"/>
		<path d="M24.48,180.354l-1.097,0.717c0.4,0.295,0.719,0.665,0.954,1.107c0.235,0.443,0.354,0.929,0.354,1.456v0.326
			c0,0.437-0.083,0.848-0.248,1.234s-0.392,0.725-0.681,1.013c-0.287,0.288-0.625,0.516-1.012,0.681s-0.799,0.248-1.234,0.248
			h-4.873c-0.436,0-0.848-0.083-1.234-0.248s-0.724-0.393-1.012-0.681c-0.289-0.288-0.516-0.626-0.681-1.013
			s-0.248-0.798-0.248-1.234v-0.326c0-0.485,0.099-0.936,0.296-1.351c0.196-0.415,0.471-0.77,0.822-1.065H9.355v-1.297H24.48
			V180.354z M16.569,181.218c-0.26,0-0.504,0.05-0.732,0.147c-0.229,0.099-0.428,0.232-0.596,0.401
			c-0.17,0.169-0.303,0.367-0.401,0.596s-0.147,0.473-0.147,0.733v0.864c0,0.261,0.049,0.505,0.147,0.733s0.231,0.428,0.401,0.596
			c0.168,0.169,0.367,0.303,0.596,0.401c0.229,0.099,0.473,0.147,0.732,0.147h5.021c0.26,0,0.504-0.049,0.732-0.147
			s0.428-0.232,0.596-0.401c0.17-0.168,0.303-0.367,0.401-0.596s0.147-0.473,0.147-0.733v-0.864c0-0.261-0.049-0.505-0.147-0.733
			s-0.231-0.427-0.401-0.596c-0.168-0.169-0.367-0.303-0.596-0.401c-0.229-0.098-0.473-0.147-0.732-0.147H16.569z"/>
		<path d="M22.751,170.359c0.387,0.165,0.725,0.392,1.012,0.68c0.289,0.289,0.516,0.626,0.681,1.013s0.248,0.798,0.248,1.234v0.864
			c0,0.437-0.083,0.848-0.248,1.234s-0.392,0.725-0.681,1.013c-0.287,0.288-0.625,0.516-1.012,0.681s-0.799,0.248-1.234,0.248
			h-4.873c-0.436,0-0.848-0.083-1.234-0.248s-0.724-0.393-1.012-0.681c-0.289-0.288-0.516-0.626-0.681-1.013
			s-0.248-0.798-0.248-1.234v-0.864c0-0.437,0.083-0.848,0.248-1.234s0.392-0.724,0.681-1.013c0.288-0.288,0.625-0.515,1.012-0.68
			c0.387-0.166,0.799-0.248,1.234-0.248h2.542v5.917h2.405c0.26,0,0.504-0.049,0.732-0.147s0.428-0.232,0.596-0.401
			c0.17-0.168,0.303-0.367,0.401-0.596s0.147-0.473,0.147-0.733v-0.864c0-0.261-0.049-0.505-0.147-0.733s-0.231-0.427-0.401-0.596
			c-0.168-0.169-0.367-0.303-0.596-0.401c-0.229-0.098-0.473-0.147-0.732-0.147h-0.718l0.211-1.297h0.433
			C21.952,170.111,22.364,170.193,22.751,170.359z M16.569,171.408c-0.26,0-0.504,0.05-0.732,0.147
			c-0.229,0.099-0.428,0.232-0.596,0.401c-0.17,0.169-0.303,0.367-0.401,0.596s-0.147,0.473-0.147,0.733v0.864
			c0,0.261,0.049,0.505,0.147,0.733s0.231,0.428,0.401,0.596c0.168,0.169,0.367,0.303,0.596,0.401
			c0.229,0.099,0.473,0.147,0.732,0.147h1.604v-4.62H16.569z"/>
		<path d="M22.751,155.582c0.387,0.165,0.725,0.392,1.012,0.68c0.289,0.289,0.516,0.626,0.681,1.013s0.248,0.798,0.248,1.234v0.327
			c0,0.484-0.099,0.935-0.296,1.35c-0.196,0.415-0.471,0.771-0.822,1.065h5.232v1.298H13.68v-0.433l1.097-0.707
			c-0.4-0.295-0.719-0.666-0.954-1.112c-0.235-0.447-0.354-0.934-0.354-1.461v-0.327c0-0.437,0.083-0.848,0.248-1.234
			s0.392-0.724,0.681-1.013c0.288-0.288,0.625-0.515,1.012-0.68c0.387-0.166,0.799-0.248,1.234-0.248h4.873
			C21.952,155.334,22.364,155.416,22.751,155.582z M16.569,156.631c-0.26,0-0.504,0.05-0.732,0.147
			c-0.229,0.099-0.428,0.232-0.596,0.401c-0.17,0.169-0.303,0.367-0.401,0.596s-0.147,0.473-0.147,0.733v0.864
			c0,0.261,0.049,0.505,0.147,0.733s0.231,0.428,0.401,0.596c0.168,0.169,0.367,0.303,0.596,0.401
			c0.229,0.099,0.473,0.147,0.732,0.147h5.021c0.26,0,0.504-0.049,0.732-0.147s0.428-0.232,0.596-0.401
			c0.17-0.168,0.303-0.367,0.401-0.596s0.147-0.473,0.147-0.733v-0.864c0-0.261-0.049-0.505-0.147-0.733s-0.231-0.427-0.401-0.596
			c-0.168-0.169-0.367-0.303-0.596-0.401c-0.229-0.098-0.473-0.147-0.732-0.147H16.569z"/>
		<path d="M14.913,149.563c0,0.261,0.05,0.505,0.148,0.733s0.232,0.428,0.4,0.596c0.169,0.169,0.367,0.303,0.596,0.401
			c0.229,0.099,0.474,0.147,0.733,0.147h7.689v1.298H13.68v-0.433l1.097-0.707c-0.4-0.295-0.719-0.666-0.954-1.112
			c-0.235-0.447-0.354-0.934-0.354-1.461v-0.76h1.444V149.563z"/>
		<path d="M22.751,139.57c0.387,0.165,0.725,0.392,1.012,0.68c0.289,0.289,0.516,0.626,0.681,1.013s0.248,0.798,0.248,1.234v0.864
			c0,0.437-0.083,0.848-0.248,1.234s-0.392,0.725-0.681,1.013c-0.287,0.288-0.625,0.516-1.012,0.681s-0.799,0.248-1.234,0.248
			h-4.873c-0.436,0-0.848-0.083-1.234-0.248s-0.724-0.393-1.012-0.681c-0.289-0.288-0.516-0.626-0.681-1.013
			s-0.248-0.798-0.248-1.234v-0.864c0-0.437,0.083-0.848,0.248-1.234s0.392-0.724,0.681-1.013c0.288-0.288,0.625-0.515,1.012-0.68
			c0.387-0.166,0.799-0.248,1.234-0.248h4.873C21.952,139.322,22.364,139.404,22.751,139.57z M16.569,140.619
			c-0.26,0-0.504,0.05-0.732,0.147c-0.229,0.099-0.428,0.232-0.596,0.401c-0.17,0.169-0.303,0.367-0.401,0.596
			s-0.147,0.473-0.147,0.733v0.864c0,0.261,0.049,0.505,0.147,0.733s0.231,0.428,0.401,0.596c0.168,0.169,0.367,0.303,0.596,0.401
			c0.229,0.099,0.473,0.147,0.732,0.147h5.021c0.26,0,0.504-0.049,0.732-0.147s0.428-0.232,0.596-0.401
			c0.17-0.168,0.303-0.367,0.401-0.596s0.147-0.473,0.147-0.733v-0.864c0-0.261-0.049-0.505-0.147-0.733s-0.231-0.427-0.401-0.596
			c-0.168-0.169-0.367-0.303-0.596-0.401c-0.229-0.098-0.473-0.147-0.732-0.147H16.569z"/>
		<path d="M28.806,134.977v1.255l-5.254-1.92l-9.872,3.502v-1.298l8.185-2.815l0.56-0.043l-0.56-0.042l-8.185-2.806v-1.297
			L28.806,134.977z"/>
		<path d="M22.751,121.249c0.387,0.165,0.725,0.392,1.012,0.68c0.289,0.289,0.516,0.626,0.681,1.013s0.248,0.798,0.248,1.234v0.864
			c0,0.437-0.083,0.848-0.248,1.234s-0.392,0.725-0.681,1.013c-0.287,0.288-0.625,0.516-1.012,0.681
			c-0.387,0.165-0.799,0.248-1.234,0.248h-4.873c-0.436,0-0.848-0.083-1.234-0.248c-0.387-0.165-0.724-0.393-1.012-0.681
			c-0.289-0.288-0.516-0.626-0.681-1.013s-0.248-0.798-0.248-1.234v-0.864c0-0.437,0.083-0.848,0.248-1.234s0.392-0.724,0.681-1.013
			c0.288-0.288,0.625-0.515,1.012-0.68c0.387-0.166,0.799-0.248,1.234-0.248h2.542v5.917h2.405c0.26,0,0.504-0.049,0.732-0.147
			s0.428-0.232,0.596-0.401c0.17-0.168,0.303-0.367,0.401-0.596s0.147-0.473,0.147-0.733v-0.864c0-0.261-0.049-0.505-0.147-0.733
			s-0.231-0.427-0.401-0.596c-0.168-0.169-0.367-0.303-0.596-0.401c-0.229-0.098-0.473-0.147-0.732-0.147h-0.718l0.211-1.297h0.433
			C21.952,121.001,22.364,121.083,22.751,121.249z M16.569,122.298c-0.26,0-0.504,0.05-0.732,0.147
			c-0.229,0.099-0.428,0.232-0.596,0.401c-0.17,0.169-0.303,0.367-0.401,0.596s-0.147,0.473-0.147,0.733v0.864
			c0,0.261,0.049,0.505,0.147,0.733s0.231,0.428,0.401,0.596c0.168,0.169,0.367,0.303,0.596,0.401
			c0.229,0.099,0.473,0.147,0.732,0.147h1.604v-4.62H16.569z"/>
		<path d="M22.751,111.439c0.387,0.165,0.725,0.392,1.012,0.68c0.289,0.289,0.516,0.626,0.681,1.013s0.248,0.798,0.248,1.234v0.864
			c0,0.437-0.083,0.848-0.248,1.234s-0.392,0.725-0.681,1.013c-0.287,0.288-0.625,0.516-1.012,0.681s-0.799,0.248-1.234,0.248
			h-4.873c-0.436,0-0.848-0.083-1.234-0.248s-0.724-0.393-1.012-0.681c-0.289-0.288-0.516-0.626-0.681-1.013
			s-0.248-0.798-0.248-1.234v-0.864c0-0.437,0.083-0.848,0.248-1.234s0.392-0.724,0.681-1.013c0.288-0.288,0.625-0.515,1.012-0.68
			c0.387-0.166,0.799-0.248,1.234-0.248h0.433l0.211,1.297h-0.718c-0.26,0-0.504,0.05-0.732,0.147
			c-0.229,0.099-0.428,0.232-0.596,0.401c-0.17,0.169-0.303,0.367-0.401,0.596s-0.147,0.473-0.147,0.733v0.864
			c0,0.261,0.049,0.505,0.147,0.733s0.231,0.428,0.401,0.596c0.168,0.169,0.367,0.303,0.596,0.401
			c0.229,0.099,0.473,0.147,0.732,0.147h5.021c0.26,0,0.504-0.049,0.732-0.147s0.428-0.232,0.596-0.401
			c0.17-0.168,0.303-0.367,0.401-0.596s0.147-0.473,0.147-0.733v-0.864c0-0.261-0.049-0.505-0.147-0.733s-0.231-0.427-0.401-0.596
			c-0.168-0.169-0.367-0.303-0.596-0.401c-0.229-0.098-0.473-0.147-0.732-0.147h-0.718l0.211-1.297h0.433
			C21.952,111.191,22.364,111.273,22.751,111.439z"/>
		<path d="M24.48,104.662c0,0.394-0.073,0.765-0.222,1.112c-0.147,0.349-0.352,0.65-0.611,0.907s-0.563,0.461-0.907,0.612
			s-0.714,0.227-1.107,0.227h-6.72v1.94H13.68v-1.94h-2.595l-0.211-1.298h2.806v-2.742h1.233v2.742h6.783
			c0.218,0,0.42-0.04,0.605-0.121c0.188-0.081,0.351-0.191,0.491-0.332s0.251-0.306,0.332-0.496
			c0.081-0.189,0.122-0.394,0.122-0.611v-1.182h1.233V104.662z"/>
		<path d="M22.751,94.131c0.387,0.165,0.725,0.392,1.012,0.68c0.289,0.289,0.516,0.626,0.681,1.013s0.248,0.798,0.248,1.234v0.864
			c0,0.437-0.083,0.848-0.248,1.234s-0.392,0.725-0.681,1.013c-0.287,0.288-0.625,0.516-1.012,0.681s-0.799,0.248-1.234,0.248
			h-4.873c-0.436,0-0.848-0.083-1.234-0.248s-0.724-0.393-1.012-0.681c-0.289-0.288-0.516-0.626-0.681-1.013
			s-0.248-0.798-0.248-1.234v-0.864c0-0.437,0.083-0.848,0.248-1.234s0.392-0.724,0.681-1.013c0.288-0.288,0.625-0.515,1.012-0.68
			c0.387-0.166,0.799-0.248,1.234-0.248h4.873C21.952,93.883,22.364,93.965,22.751,94.131z M16.569,95.18
			c-0.26,0-0.504,0.05-0.732,0.147c-0.229,0.099-0.428,0.232-0.596,0.401c-0.17,0.169-0.303,0.367-0.401,0.596
			s-0.147,0.473-0.147,0.733v0.864c0,0.261,0.049,0.505,0.147,0.733s0.231,0.428,0.401,0.596c0.168,0.169,0.367,0.303,0.596,0.401
			c0.229,0.099,0.473,0.147,0.732,0.147h5.021c0.26,0,0.504-0.049,0.732-0.147s0.428-0.232,0.596-0.401
			c0.17-0.168,0.303-0.367,0.401-0.596s0.147-0.473,0.147-0.733v-0.864c0-0.261-0.049-0.505-0.147-0.733s-0.231-0.427-0.401-0.596
			c-0.168-0.169-0.367-0.303-0.596-0.401c-0.229-0.098-0.473-0.147-0.732-0.147H16.569z"/>
		<path d="M21.738,83.862c0.437,0,0.835,0.088,1.196,0.264c0.363,0.176,0.674,0.415,0.934,0.717c0.261,0.303,0.463,0.652,0.607,1.05
			c0.144,0.397,0.216,0.813,0.216,1.25v0.864c0,0.437-0.083,0.854-0.248,1.25c-0.165,0.397-0.392,0.746-0.681,1.045
			c-0.287,0.299-0.625,0.537-1.012,0.717s-0.799,0.27-1.234,0.27h-0.433l-0.211-1.298h0.718c0.26,0,0.504-0.055,0.732-0.163
			c0.229-0.109,0.428-0.255,0.596-0.438c0.17-0.183,0.303-0.394,0.401-0.633c0.099-0.238,0.147-0.488,0.147-0.749v-0.864
			c0-0.261-0.039-0.51-0.115-0.749c-0.078-0.239-0.188-0.452-0.333-0.639c-0.144-0.186-0.317-0.333-0.522-0.442
			c-0.203-0.109-0.436-0.164-0.695-0.164c-0.387,0-0.703,0.085-0.949,0.254c-0.246,0.168-0.452,0.392-0.617,0.67
			c-0.166,0.277-0.303,0.594-0.412,0.949c-0.108,0.354-0.217,0.719-0.326,1.091c-0.109,0.373-0.234,0.737-0.375,1.092
			c-0.141,0.355-0.325,0.672-0.554,0.949c-0.228,0.278-0.515,0.501-0.859,0.67s-0.773,0.253-1.287,0.253
			c-0.436,0-0.835-0.084-1.196-0.253c-0.363-0.169-0.674-0.396-0.934-0.686c-0.261-0.288-0.463-0.624-0.607-1.007
			c-0.144-0.384-0.216-0.793-0.216-1.229v-0.759c0-0.437,0.083-0.848,0.248-1.234s0.392-0.724,0.681-1.013
			c0.288-0.288,0.625-0.515,1.012-0.68c0.387-0.166,0.799-0.248,1.234-0.248h0.042l0.211,1.297h-0.327
			c-0.26,0-0.504,0.05-0.732,0.147c-0.229,0.099-0.428,0.232-0.596,0.401c-0.17,0.169-0.303,0.367-0.401,0.596
			s-0.147,0.473-0.147,0.733v0.759c0,0.261,0.039,0.505,0.115,0.733c0.078,0.229,0.189,0.428,0.333,0.596
			c0.144,0.169,0.318,0.303,0.522,0.401c0.203,0.099,0.436,0.147,0.695,0.147c0.373,0,0.678-0.084,0.912-0.253
			c0.236-0.169,0.436-0.393,0.597-0.67s0.297-0.594,0.405-0.949c0.109-0.355,0.223-0.718,0.338-1.087
			c0.116-0.369,0.248-0.73,0.396-1.086c0.146-0.355,0.337-0.672,0.568-0.949c0.232-0.278,0.523-0.501,0.871-0.67
			S21.226,83.862,21.738,83.862z"/>
	</g>
	<g>
		<rect x="78.109" y="1.203" fill="#144B8B" width="157.119" height="34.113"/>
		<path d="M235.229,36.518H78.109c-0.664,0-1.201-0.537-1.201-1.201V1.203C76.908,0.537,77.445,0,78.109,0h157.119
			c0.662,0,1.201,0.537,1.201,1.203v34.113C236.43,35.98,235.891,36.518,235.229,36.518z M79.313,34.113h154.713V2.404H79.313
			V34.113z"/>
	</g>
	<g>
		<path fill="#FFFFFF" d="M131.819,22.56h-4.788l-0.991,3.522h-1.414l4.431-15.125h0.718l4.45,15.125h-1.403L131.819,22.56z
			 M127.4,21.262h4.062l-1.994-6.972l-0.042-0.56l-0.042,0.56L127.4,21.262z"/>
		<path fill="#FFFFFF" d="M136.165,26.082V10.957h1.298v15.125H136.165z"/>
		<path fill="#FFFFFF" d="M147.456,24.353c-0.165,0.387-0.392,0.724-0.68,1.013c-0.289,0.288-0.626,0.515-1.013,0.68
			s-0.798,0.248-1.234,0.248h-0.864c-0.437,0-0.848-0.083-1.234-0.248s-0.725-0.392-1.013-0.68
			c-0.288-0.289-0.515-0.626-0.681-1.013c-0.165-0.387-0.248-0.798-0.248-1.234v-4.873c0-0.436,0.083-0.848,0.248-1.234
			c0.166-0.387,0.393-0.724,0.681-1.013c0.288-0.288,0.626-0.515,1.013-0.68s0.798-0.248,1.234-0.248h0.864
			c0.437,0,0.848,0.083,1.234,0.248s0.724,0.392,1.013,0.68c0.288,0.289,0.515,0.626,0.68,1.013
			c0.166,0.387,0.248,0.799,0.248,1.234v0.433l-1.297,0.211v-0.718c0-0.26-0.049-0.504-0.148-0.732
			c-0.098-0.229-0.231-0.428-0.4-0.596c-0.168-0.169-0.367-0.303-0.596-0.401s-0.473-0.147-0.733-0.147h-0.864
			c-0.261,0-0.505,0.049-0.733,0.147s-0.427,0.232-0.597,0.401c-0.168,0.168-0.302,0.367-0.4,0.596
			c-0.098,0.229-0.147,0.473-0.147,0.732v5.021c0,0.26,0.05,0.504,0.147,0.732c0.099,0.229,0.232,0.428,0.4,0.596
			c0.17,0.169,0.368,0.303,0.597,0.401s0.473,0.147,0.733,0.147h0.864c0.261,0,0.505-0.049,0.733-0.147s0.428-0.232,0.596-0.401
			c0.169-0.168,0.303-0.367,0.4-0.596c0.1-0.229,0.148-0.473,0.148-0.732v-0.718l1.297,0.211v0.433
			C147.704,23.555,147.622,23.966,147.456,24.353z"/>
		<path fill="#FFFFFF" d="M157.081,26.082l-0.717-1.076c-0.296,0.387-0.665,0.698-1.107,0.934c-0.443,0.235-0.929,0.354-1.456,0.354
			h-0.327c-0.436,0-0.848-0.083-1.234-0.248s-0.725-0.392-1.012-0.68c-0.289-0.289-0.516-0.626-0.681-1.013
			s-0.248-0.798-0.248-1.234v-0.105c0-0.436,0.083-0.848,0.248-1.234s0.392-0.724,0.681-1.013c0.287-0.288,0.625-0.515,1.012-0.68
			s0.799-0.248,1.234-0.248h2.742v-1.667c0-0.26-0.049-0.504-0.147-0.732s-0.231-0.428-0.401-0.596
			c-0.168-0.169-0.367-0.303-0.596-0.401s-0.473-0.147-0.732-0.147h-0.76c-0.26,0-0.504,0.049-0.732,0.147s-0.428,0.232-0.597,0.401
			c-0.169,0.168-0.302,0.367-0.401,0.596c-0.098,0.229-0.146,0.473-0.146,0.732v0.391l-1.298-0.211v-0.105
			c0-0.436,0.083-0.848,0.248-1.234s0.392-0.724,0.681-1.013c0.287-0.288,0.625-0.515,1.012-0.68s0.799-0.248,1.234-0.248h0.76
			c0.436,0,0.848,0.083,1.234,0.248s0.724,0.392,1.012,0.68c0.289,0.289,0.516,0.626,0.681,1.013s0.247,0.799,0.247,1.234v7.837
			H157.081z M156.216,20.851h-2.742c-0.26,0-0.504,0.049-0.732,0.147s-0.428,0.233-0.597,0.406
			c-0.169,0.172-0.302,0.373-0.401,0.601c-0.098,0.229-0.146,0.474-0.146,0.733v0.454c0,0.26,0.049,0.504,0.146,0.732
			c0.1,0.229,0.232,0.428,0.401,0.596c0.169,0.169,0.368,0.303,0.597,0.401s0.473,0.147,0.732,0.147h0.865
			c0.26,0,0.504-0.049,0.732-0.147s0.428-0.232,0.596-0.401c0.17-0.168,0.303-0.367,0.401-0.596s0.147-0.473,0.147-0.732V20.851z"/>
		<path fill="#FFFFFF" d="M166.024,26.082v-7.911c0-0.26-0.049-0.504-0.146-0.732c-0.1-0.229-0.232-0.428-0.401-0.596
			c-0.169-0.169-0.367-0.303-0.596-0.401s-0.474-0.147-0.733-0.147h-0.865c-0.26,0-0.504,0.049-0.732,0.147
			s-0.428,0.232-0.596,0.401c-0.169,0.168-0.303,0.367-0.401,0.596s-0.147,0.473-0.147,0.732v7.911h-1.297V15.281h0.432l0.707,1.097
			c0.295-0.4,0.666-0.719,1.113-0.954c0.445-0.235,0.934-0.354,1.461-0.354h0.326c0.436,0,0.848,0.083,1.234,0.248
			s0.725,0.392,1.013,0.68c0.288,0.289,0.515,0.626,0.681,1.013c0.164,0.387,0.247,0.799,0.247,1.234v7.837H166.024z"/>
		<path fill="#FFFFFF" d="M176.884,24.353c-0.166,0.387-0.393,0.724-0.68,1.013c-0.289,0.288-0.627,0.515-1.014,0.68
			s-0.798,0.248-1.234,0.248h-0.864c-0.437,0-0.847-0.083-1.233-0.248s-0.725-0.392-1.014-0.68c-0.288-0.289-0.515-0.626-0.68-1.013
			c-0.166-0.387-0.248-0.798-0.248-1.234v-4.873c0-0.436,0.082-0.848,0.248-1.234c0.165-0.387,0.392-0.724,0.68-1.013
			c0.289-0.288,0.627-0.515,1.014-0.68s0.797-0.248,1.233-0.248h0.864c0.437,0,0.848,0.083,1.234,0.248s0.725,0.392,1.014,0.68
			c0.287,0.289,0.514,0.626,0.68,1.013c0.165,0.387,0.248,0.799,0.248,1.234v0.433l-1.298,0.211v-0.718
			c0-0.26-0.049-0.504-0.147-0.732s-0.232-0.428-0.4-0.596c-0.169-0.169-0.367-0.303-0.596-0.401s-0.474-0.147-0.734-0.147h-0.864
			c-0.261,0-0.505,0.049-0.733,0.147s-0.427,0.232-0.596,0.401c-0.168,0.168-0.303,0.367-0.4,0.596
			c-0.099,0.229-0.148,0.473-0.148,0.732v5.021c0,0.26,0.05,0.504,0.148,0.732c0.098,0.229,0.232,0.428,0.4,0.596
			c0.169,0.169,0.367,0.303,0.596,0.401s0.473,0.147,0.733,0.147h0.864c0.261,0,0.506-0.049,0.734-0.147s0.427-0.232,0.596-0.401
			c0.168-0.168,0.302-0.367,0.4-0.596s0.147-0.473,0.147-0.732v-0.718l1.298,0.211v0.433
			C177.132,23.555,177.049,23.966,176.884,24.353z"/>
		<path fill="#FFFFFF" d="M186.692,24.353c-0.165,0.387-0.392,0.724-0.68,1.013c-0.289,0.288-0.626,0.515-1.013,0.68
			s-0.798,0.248-1.234,0.248h-0.864c-0.437,0-0.848-0.083-1.234-0.248s-0.725-0.392-1.013-0.68
			c-0.288-0.289-0.515-0.626-0.681-1.013c-0.165-0.387-0.248-0.798-0.248-1.234v-4.873c0-0.436,0.083-0.848,0.248-1.234
			c0.166-0.387,0.393-0.724,0.681-1.013c0.288-0.288,0.626-0.515,1.013-0.68s0.798-0.248,1.234-0.248h0.864
			c0.437,0,0.848,0.083,1.234,0.248s0.724,0.392,1.013,0.68c0.288,0.289,0.515,0.626,0.68,1.013
			c0.166,0.387,0.248,0.799,0.248,1.234v2.542h-5.917v2.405c0,0.26,0.05,0.504,0.147,0.732c0.099,0.229,0.232,0.428,0.4,0.596
			c0.17,0.169,0.368,0.303,0.597,0.401s0.473,0.147,0.733,0.147h0.864c0.261,0,0.505-0.049,0.733-0.147s0.428-0.232,0.596-0.401
			c0.169-0.168,0.303-0.367,0.4-0.596c0.1-0.229,0.148-0.473,0.148-0.732v-0.718l1.297,0.211v0.433
			C186.94,23.555,186.858,23.966,186.692,24.353z M185.644,18.171c0-0.26-0.049-0.504-0.148-0.732
			c-0.098-0.229-0.231-0.428-0.4-0.596c-0.168-0.169-0.367-0.303-0.596-0.401s-0.473-0.147-0.733-0.147h-0.864
			c-0.261,0-0.505,0.049-0.733,0.147s-0.427,0.232-0.597,0.401c-0.168,0.168-0.302,0.367-0.4,0.596
			c-0.098,0.229-0.147,0.473-0.147,0.732v1.604h4.62V18.171z"/>
	</g>
	<g>
		<rect x="78.109" y="51.721" fill="#144B8B" width="157.119" height="34.113"/>
		<path d="M235.229,87.035H78.109c-0.664,0-1.201-0.537-1.201-1.201V51.721c0-0.666,0.537-1.203,1.201-1.203h157.119
			c0.662,0,1.201,0.537,1.201,1.203v34.113C236.43,86.498,235.891,87.035,235.229,87.035z M79.313,84.631h154.713V52.924H79.313
			V84.631z"/>
	</g>
	<g>
		<path fill="#FFFFFF" d="M136.925,74.543c-0.193,0.45-0.459,0.844-0.796,1.182c-0.338,0.337-0.731,0.603-1.182,0.796
			s-0.932,0.29-1.444,0.29h-1.076c-0.514,0-0.997-0.097-1.451-0.29c-0.453-0.193-0.849-0.459-1.186-0.796
			c-0.338-0.338-0.604-0.731-0.797-1.182s-0.29-0.932-0.29-1.445v-8.121c0-0.514,0.097-0.995,0.29-1.445s0.459-0.844,0.797-1.182
			c0.337-0.337,0.732-0.603,1.186-0.796c0.454-0.193,0.938-0.29,1.451-0.29h1.076c0.513,0,0.994,0.097,1.444,0.29
			s0.844,0.459,1.182,0.796c0.337,0.338,0.603,0.731,0.796,1.182s0.29,0.932,0.29,1.445v0.611l-1.36,0.211v-0.822
			c0-0.338-0.063-0.652-0.189-0.944c-0.127-0.292-0.299-0.547-0.518-0.765c-0.218-0.218-0.473-0.391-0.765-0.517
			c-0.292-0.127-0.606-0.19-0.944-0.19h-0.949c-0.337,0-0.652,0.063-0.943,0.19c-0.292,0.126-0.549,0.299-0.77,0.517
			c-0.223,0.218-0.396,0.473-0.523,0.765c-0.126,0.292-0.189,0.606-0.189,0.944v8.121c0,0.338,0.063,0.652,0.189,0.944
			c0.127,0.292,0.301,0.548,0.523,0.77c0.221,0.222,0.478,0.396,0.77,0.522c0.291,0.127,0.606,0.189,0.943,0.189h0.949
			c0.338,0,0.652-0.063,0.944-0.189s0.547-0.301,0.765-0.522c0.219-0.222,0.391-0.478,0.518-0.77
			c0.126-0.292,0.189-0.606,0.189-0.944v-0.822l1.36,0.221v0.602C137.215,73.611,137.118,74.093,136.925,74.543z"/>
		<path fill="#FFFFFF" d="M146.776,74.87c-0.166,0.387-0.393,0.724-0.68,1.013c-0.289,0.288-0.627,0.515-1.014,0.68
			s-0.798,0.248-1.234,0.248h-0.864c-0.437,0-0.847-0.083-1.233-0.248s-0.725-0.392-1.014-0.68c-0.288-0.289-0.515-0.626-0.68-1.013
			c-0.166-0.387-0.248-0.798-0.248-1.234v-4.873c0-0.436,0.082-0.848,0.248-1.234c0.165-0.387,0.392-0.724,0.68-1.013
			c0.289-0.288,0.627-0.515,1.014-0.68s0.797-0.248,1.233-0.248h0.864c0.437,0,0.848,0.083,1.234,0.248s0.725,0.392,1.014,0.68
			c0.287,0.289,0.514,0.626,0.68,1.013c0.165,0.387,0.248,0.799,0.248,1.234v4.873C147.024,74.072,146.941,74.483,146.776,74.87z
			 M145.727,68.688c0-0.26-0.049-0.504-0.147-0.732s-0.232-0.428-0.4-0.596c-0.169-0.169-0.367-0.303-0.596-0.401
			s-0.474-0.147-0.734-0.147h-0.864c-0.261,0-0.505,0.049-0.733,0.147s-0.427,0.232-0.596,0.401c-0.168,0.168-0.303,0.367-0.4,0.596
			c-0.099,0.229-0.148,0.473-0.148,0.732v5.021c0,0.26,0.05,0.504,0.148,0.732c0.098,0.229,0.232,0.428,0.4,0.596
			c0.169,0.169,0.367,0.303,0.596,0.401s0.473,0.147,0.733,0.147h0.864c0.261,0,0.506-0.049,0.734-0.147s0.427-0.232,0.596-0.401
			c0.168-0.168,0.302-0.367,0.4-0.596s0.147-0.473,0.147-0.732V68.688z"/>
		<path fill="#FFFFFF" d="M157.044,73.857c0,0.436-0.088,0.835-0.264,1.197s-0.414,0.673-0.717,0.934
			c-0.303,0.26-0.652,0.462-1.05,0.606c-0.397,0.144-0.813,0.216-1.25,0.216h-0.864c-0.437,0-0.854-0.083-1.25-0.248
			c-0.397-0.165-0.746-0.392-1.045-0.68c-0.299-0.289-0.537-0.626-0.717-1.013s-0.27-0.798-0.27-1.234v-0.433l1.298-0.211v0.718
			c0,0.26,0.054,0.504,0.163,0.732s0.256,0.428,0.438,0.596c0.184,0.169,0.395,0.303,0.633,0.401c0.24,0.099,0.489,0.147,0.75,0.147
			h0.864c0.261,0,0.51-0.038,0.749-0.116c0.239-0.077,0.451-0.188,0.639-0.332c0.186-0.144,0.334-0.318,0.442-0.522
			c0.108-0.203,0.163-0.436,0.163-0.695c0-0.387-0.084-0.703-0.252-0.949c-0.17-0.246-0.393-0.452-0.67-0.617
			c-0.278-0.165-0.595-0.303-0.949-0.412c-0.355-0.108-0.72-0.218-1.092-0.326c-0.373-0.109-0.737-0.234-1.092-0.375
			c-0.355-0.141-0.672-0.325-0.949-0.554c-0.278-0.229-0.502-0.515-0.67-0.859c-0.169-0.345-0.254-0.773-0.254-1.287
			c0-0.436,0.085-0.835,0.254-1.197c0.168-0.361,0.396-0.673,0.686-0.934c0.288-0.26,0.623-0.462,1.008-0.606
			c0.383-0.144,0.792-0.216,1.229-0.216h0.759c0.437,0,0.848,0.083,1.234,0.248s0.724,0.392,1.013,0.68
			c0.288,0.289,0.515,0.626,0.68,1.013c0.166,0.387,0.248,0.799,0.248,1.234v0.042l-1.297,0.211v-0.327
			c0-0.26-0.049-0.504-0.148-0.732c-0.098-0.229-0.231-0.428-0.4-0.596c-0.168-0.169-0.367-0.303-0.596-0.401
			s-0.473-0.147-0.733-0.147h-0.759c-0.261,0-0.505,0.039-0.733,0.116s-0.427,0.188-0.597,0.332c-0.168,0.145-0.302,0.318-0.4,0.522
			c-0.098,0.203-0.147,0.436-0.147,0.695c0,0.373,0.085,0.678,0.253,0.913c0.169,0.235,0.393,0.434,0.67,0.596
			s0.594,0.297,0.949,0.406c0.355,0.108,0.717,0.222,1.086,0.337c0.369,0.116,0.732,0.248,1.087,0.396
			c0.354,0.148,0.671,0.338,0.949,0.57c0.278,0.231,0.501,0.521,0.67,0.87C156.96,72.913,157.044,73.344,157.044,73.857z"/>
		<path fill="#FFFFFF" d="M163.468,76.6c-0.395,0-0.766-0.074-1.113-0.222s-0.65-0.352-0.906-0.611
			c-0.258-0.261-0.461-0.563-0.612-0.907s-0.228-0.714-0.228-1.107v-6.719h-1.939v-1.234h1.939v-2.595l1.298-0.211v2.806h2.743
			v1.234h-2.743v6.782c0,0.218,0.04,0.42,0.122,0.606c0.08,0.187,0.191,0.35,0.332,0.49s0.306,0.251,0.495,0.332
			c0.19,0.081,0.394,0.121,0.612,0.121h1.182V76.6H163.468z"/>
		<path fill="#FFFFFF" d="M173.999,74.87c-0.165,0.387-0.392,0.724-0.68,1.013c-0.289,0.288-0.626,0.515-1.013,0.68
			s-0.798,0.248-1.234,0.248h-0.864c-0.437,0-0.848-0.083-1.234-0.248s-0.725-0.392-1.013-0.68
			c-0.288-0.289-0.515-0.626-0.681-1.013c-0.165-0.387-0.248-0.798-0.248-1.234v-4.873c0-0.436,0.083-0.848,0.248-1.234
			c0.166-0.387,0.393-0.724,0.681-1.013c0.288-0.288,0.626-0.515,1.013-0.68s0.798-0.248,1.234-0.248h0.864
			c0.437,0,0.848,0.083,1.234,0.248s0.724,0.392,1.013,0.68c0.288,0.289,0.515,0.626,0.68,1.013
			c0.166,0.387,0.248,0.799,0.248,1.234v4.873C174.247,74.072,174.165,74.483,173.999,74.87z M172.95,68.688
			c0-0.26-0.049-0.504-0.148-0.732c-0.098-0.229-0.231-0.428-0.4-0.596c-0.168-0.169-0.367-0.303-0.596-0.401
			s-0.473-0.147-0.733-0.147h-0.864c-0.261,0-0.505,0.049-0.733,0.147s-0.427,0.232-0.597,0.401c-0.168,0.168-0.302,0.367-0.4,0.596
			c-0.098,0.229-0.147,0.473-0.147,0.732v5.021c0,0.26,0.05,0.504,0.147,0.732c0.099,0.229,0.232,0.428,0.4,0.596
			c0.17,0.169,0.368,0.303,0.597,0.401s0.473,0.147,0.733,0.147h0.864c0.261,0,0.505-0.049,0.733-0.147s0.428-0.232,0.596-0.401
			c0.169-0.168,0.303-0.367,0.4-0.596c0.1-0.229,0.148-0.473,0.148-0.732V68.688z"/>
		<path fill="#FFFFFF" d="M184.267,73.857c0,0.436-0.088,0.835-0.264,1.197s-0.414,0.673-0.717,0.934
			c-0.303,0.26-0.652,0.462-1.049,0.606c-0.398,0.144-0.814,0.216-1.25,0.216h-0.865c-0.436,0-0.853-0.083-1.25-0.248
			c-0.396-0.165-0.745-0.392-1.044-0.68c-0.3-0.289-0.538-0.626-0.718-1.013c-0.179-0.387-0.269-0.798-0.269-1.234v-0.433
			l1.298-0.211v0.718c0,0.26,0.054,0.504,0.163,0.732c0.108,0.229,0.255,0.428,0.438,0.596c0.183,0.169,0.394,0.303,0.633,0.401
			s0.489,0.147,0.749,0.147h0.865c0.26,0,0.51-0.038,0.748-0.116c0.24-0.077,0.452-0.188,0.639-0.332
			c0.186-0.144,0.334-0.318,0.443-0.522c0.108-0.203,0.163-0.436,0.163-0.695c0-0.387-0.085-0.703-0.253-0.949
			c-0.169-0.246-0.393-0.452-0.67-0.617s-0.594-0.303-0.949-0.412c-0.355-0.108-0.719-0.218-1.092-0.326
			c-0.373-0.109-0.736-0.234-1.092-0.375s-0.672-0.325-0.949-0.554s-0.501-0.515-0.67-0.859c-0.168-0.345-0.253-0.773-0.253-1.287
			c0-0.436,0.085-0.835,0.253-1.197c0.169-0.361,0.397-0.673,0.686-0.934c0.289-0.26,0.624-0.462,1.008-0.606
			c0.383-0.144,0.793-0.216,1.229-0.216h0.76c0.436,0,0.848,0.083,1.234,0.248s0.724,0.392,1.012,0.68
			c0.289,0.289,0.516,0.626,0.681,1.013s0.247,0.799,0.247,1.234v0.042l-1.297,0.211v-0.327c0-0.26-0.049-0.504-0.147-0.732
			s-0.231-0.428-0.401-0.596c-0.168-0.169-0.367-0.303-0.596-0.401s-0.473-0.147-0.732-0.147h-0.76c-0.26,0-0.504,0.039-0.732,0.116
			s-0.428,0.188-0.597,0.332s-0.302,0.318-0.401,0.522c-0.098,0.203-0.146,0.436-0.146,0.695c0,0.373,0.084,0.678,0.252,0.913
			c0.17,0.235,0.393,0.434,0.67,0.596c0.278,0.162,0.595,0.297,0.949,0.406c0.355,0.108,0.718,0.222,1.087,0.337
			c0.369,0.116,0.731,0.248,1.087,0.396c0.354,0.148,0.671,0.338,0.949,0.57c0.277,0.231,0.5,0.521,0.67,0.87
			C184.183,72.913,184.267,73.344,184.267,73.857z"/>
	</g>
	<g>
		<rect x="78.109" y="103.039" fill="#144B8B" width="157.119" height="34.113"/>
		<path d="M235.229,138.354H78.109c-0.664,0-1.201-0.539-1.201-1.201v-34.113c0-0.666,0.537-1.203,1.201-1.203h157.119
			c0.662,0,1.201,0.537,1.201,1.203v34.113C236.43,137.814,235.891,138.354,235.229,138.354z M79.313,135.949h154.713V104.24H79.313
			V135.949z"/>
	</g>
	<g>
		<path fill="#FFFFFF" d="M132.269,114.089v13.828h-1.361v-13.828H127.3v-1.297h8.576v1.297H132.269z"/>
		<path fill="#FFFFFF" d="M137.933,114.521v-1.729h1.508v1.729H137.933z M138.038,127.917v-10.801h1.297v10.801H138.038z"/>
		<path fill="#FFFFFF" d="M149.329,126.187c-0.166,0.387-0.393,0.724-0.681,1.013c-0.288,0.288-0.626,0.515-1.013,0.68
			c-0.387,0.165-0.799,0.248-1.234,0.248h-0.865c-0.436,0-0.847-0.083-1.233-0.248c-0.387-0.165-0.725-0.392-1.013-0.68
			c-0.289-0.289-0.516-0.626-0.68-1.013c-0.166-0.387-0.248-0.798-0.248-1.234v-4.873c0-0.436,0.082-0.848,0.248-1.234
			c0.164-0.387,0.391-0.724,0.68-1.013c0.288-0.288,0.626-0.515,1.013-0.68s0.798-0.248,1.233-0.248h0.865
			c0.436,0,0.848,0.083,1.234,0.248s0.725,0.392,1.013,0.68c0.288,0.289,0.515,0.626,0.681,1.013
			c0.164,0.387,0.247,0.799,0.247,1.234v2.542h-5.917v2.405c0,0.26,0.049,0.504,0.147,0.732s0.232,0.428,0.401,0.596
			c0.168,0.169,0.367,0.303,0.596,0.401s0.473,0.147,0.732,0.147h0.865c0.26,0,0.505-0.049,0.733-0.147s0.427-0.232,0.596-0.401
			c0.169-0.168,0.302-0.367,0.401-0.596c0.098-0.229,0.146-0.473,0.146-0.732v-0.718l1.298,0.211v0.433
			C149.576,125.39,149.493,125.801,149.329,126.187z M148.278,120.006c0-0.26-0.049-0.504-0.146-0.732
			c-0.1-0.229-0.232-0.428-0.401-0.596c-0.169-0.169-0.367-0.303-0.596-0.401s-0.474-0.147-0.733-0.147h-0.865
			c-0.26,0-0.504,0.049-0.732,0.147s-0.428,0.232-0.596,0.401c-0.169,0.168-0.303,0.367-0.401,0.596s-0.147,0.473-0.147,0.732v1.604
			h4.619V120.006z"/>
		<path fill="#FFFFFF" d="M163.573,127.917v-7.911c0-0.26-0.05-0.504-0.148-0.732c-0.098-0.229-0.231-0.428-0.4-0.596
			c-0.169-0.169-0.367-0.303-0.596-0.401s-0.473-0.147-0.733-0.147h-0.644c-0.26,0-0.504,0.049-0.732,0.147s-0.43,0.232-0.602,0.401
			c-0.172,0.168-0.308,0.367-0.406,0.596s-0.147,0.473-0.147,0.732v7.911h-1.287v-7.911c0-0.26-0.049-0.504-0.147-0.732
			s-0.234-0.428-0.406-0.596c-0.172-0.169-0.373-0.303-0.602-0.401s-0.473-0.147-0.732-0.147h-0.644
			c-0.261,0-0.505,0.049-0.733,0.147s-0.427,0.232-0.596,0.401c-0.168,0.168-0.303,0.367-0.4,0.596
			c-0.099,0.229-0.148,0.473-0.148,0.732v7.911h-1.297v-10.801h0.433l0.706,1.097c0.296-0.4,0.666-0.719,1.113-0.954
			c0.446-0.235,0.934-0.354,1.461-0.354h0.105c0.611,0,1.164,0.151,1.656,0.453c0.492,0.303,0.871,0.704,1.139,1.203
			c0.134-0.246,0.299-0.472,0.496-0.676c0.196-0.203,0.414-0.378,0.654-0.521c0.238-0.145,0.498-0.257,0.779-0.338
			c0.281-0.08,0.574-0.121,0.876-0.121h0.105c0.437,0,0.847,0.083,1.234,0.248c0.386,0.165,0.724,0.392,1.013,0.68
			c0.288,0.289,0.515,0.626,0.68,1.013c0.166,0.387,0.248,0.799,0.248,1.234v7.837H163.573z"/>
		<path fill="#FFFFFF" d="M174.432,126.187c-0.165,0.387-0.392,0.724-0.681,1.013c-0.288,0.288-0.625,0.515-1.012,0.68
			c-0.387,0.165-0.799,0.248-1.234,0.248h-0.327c-0.485,0-0.936-0.099-1.351-0.295c-0.414-0.197-0.77-0.472-1.064-0.823v5.231
			h-1.298v-15.125h0.433l0.707,1.097c0.295-0.4,0.666-0.719,1.112-0.954s0.934-0.354,1.461-0.354h0.327
			c0.436,0,0.848,0.083,1.234,0.248s0.724,0.392,1.012,0.68c0.289,0.289,0.516,0.626,0.681,1.013s0.247,0.799,0.247,1.234v4.873
			C174.679,125.39,174.597,125.801,174.432,126.187z M173.382,120.006c0-0.26-0.049-0.504-0.147-0.732s-0.231-0.428-0.401-0.596
			c-0.168-0.169-0.367-0.303-0.596-0.401s-0.473-0.147-0.732-0.147h-0.865c-0.26,0-0.504,0.049-0.732,0.147
			s-0.428,0.232-0.597,0.401c-0.169,0.168-0.302,0.367-0.401,0.596c-0.098,0.229-0.146,0.473-0.146,0.732v5.021
			c0,0.26,0.049,0.504,0.146,0.732c0.1,0.229,0.232,0.428,0.401,0.596c0.169,0.169,0.368,0.303,0.597,0.401s0.473,0.147,0.732,0.147
			h0.865c0.26,0,0.504-0.049,0.732-0.147s0.428-0.232,0.596-0.401c0.17-0.168,0.303-0.367,0.401-0.596s0.147-0.473,0.147-0.732
			V120.006z"/>
		<path fill="#FFFFFF" d="M184.241,126.187c-0.166,0.387-0.393,0.724-0.681,1.013c-0.288,0.288-0.626,0.515-1.013,0.68
			c-0.387,0.165-0.799,0.248-1.234,0.248h-0.865c-0.436,0-0.847-0.083-1.233-0.248c-0.387-0.165-0.725-0.392-1.013-0.68
			c-0.289-0.289-0.516-0.626-0.68-1.013c-0.166-0.387-0.248-0.798-0.248-1.234v-4.873c0-0.436,0.082-0.848,0.248-1.234
			c0.164-0.387,0.391-0.724,0.68-1.013c0.288-0.288,0.626-0.515,1.013-0.68s0.798-0.248,1.233-0.248h0.865
			c0.436,0,0.848,0.083,1.234,0.248s0.725,0.392,1.013,0.68c0.288,0.289,0.515,0.626,0.681,1.013
			c0.164,0.387,0.247,0.799,0.247,1.234v4.873C184.488,125.39,184.405,125.801,184.241,126.187z M183.19,120.006
			c0-0.26-0.049-0.504-0.146-0.732c-0.1-0.229-0.232-0.428-0.401-0.596c-0.169-0.169-0.367-0.303-0.596-0.401
			s-0.474-0.147-0.733-0.147h-0.865c-0.26,0-0.504,0.049-0.732,0.147s-0.428,0.232-0.596,0.401
			c-0.169,0.168-0.303,0.367-0.401,0.596s-0.147,0.473-0.147,0.732v5.021c0,0.26,0.049,0.504,0.147,0.732s0.232,0.428,0.401,0.596
			c0.168,0.169,0.367,0.303,0.596,0.401s0.473,0.147,0.732,0.147h0.865c0.26,0,0.505-0.049,0.733-0.147s0.427-0.232,0.596-0.401
			c0.169-0.168,0.302-0.367,0.401-0.596c0.098-0.229,0.146-0.473,0.146-0.732V120.006z"/>
	</g>
	<g>
		<rect x="78.109" y="154.355" fill="#144B8B" width="157.119" height="34.113"/>
		<path d="M235.229,189.672H78.109c-0.664,0-1.201-0.539-1.201-1.203v-34.113c0-0.664,0.537-1.203,1.201-1.203h157.119
			c0.662,0,1.201,0.539,1.201,1.203v34.113C236.43,189.133,235.891,189.672,235.229,189.672z M79.313,187.266h154.713v-31.707
			H79.313V187.266z"/>
	</g>
	<g>
		<path fill="#FFFFFF" d="M136.022,177.179c-0.193,0.45-0.458,0.844-0.795,1.182c-0.338,0.337-0.732,0.603-1.182,0.796
			c-0.451,0.193-0.932,0.29-1.445,0.29h-1.076c-0.514,0-0.996-0.097-1.45-0.29s-0.849-0.459-1.187-0.796
			c-0.338-0.338-0.604-0.731-0.797-1.182c-0.193-0.45-0.289-0.932-0.289-1.445v-8.121c0-0.514,0.096-0.995,0.289-1.445
			c0.193-0.45,0.459-0.844,0.797-1.182c0.338-0.337,0.732-0.603,1.187-0.796s0.937-0.29,1.45-0.29h1.076
			c0.514,0,0.994,0.097,1.445,0.29c0.449,0.193,0.844,0.459,1.182,0.796c0.337,0.338,0.602,0.731,0.795,1.182
			s0.291,0.932,0.291,1.445v0.611l-1.361,0.211v-0.822c0-0.338-0.063-0.652-0.189-0.944s-0.299-0.547-0.517-0.765
			s-0.474-0.391-0.765-0.517c-0.292-0.127-0.607-0.19-0.944-0.19h-0.949c-0.337,0-0.652,0.063-0.944,0.19
			c-0.291,0.126-0.549,0.299-0.77,0.517c-0.222,0.218-0.396,0.473-0.522,0.765c-0.126,0.292-0.189,0.606-0.189,0.944v8.121
			c0,0.338,0.063,0.652,0.189,0.944c0.127,0.292,0.301,0.548,0.522,0.77c0.221,0.222,0.479,0.396,0.77,0.522
			c0.292,0.127,0.607,0.189,0.944,0.189h0.949c0.337,0,0.652-0.063,0.944-0.189c0.291-0.127,0.547-0.301,0.765-0.522
			s0.39-0.478,0.517-0.77s0.189-0.606,0.189-0.944v-0.822l1.361,0.221v0.602C136.314,176.247,136.216,176.729,136.022,177.179z"/>
		<path fill="#FFFFFF" d="M145.69,179.235l-0.718-1.076c-0.296,0.387-0.665,0.698-1.107,0.934c-0.443,0.235-0.929,0.354-1.456,0.354
			h-0.326c-0.437,0-0.848-0.083-1.234-0.248s-0.725-0.392-1.013-0.68c-0.288-0.289-0.515-0.626-0.681-1.013
			c-0.165-0.387-0.248-0.798-0.248-1.234v-0.105c0-0.436,0.083-0.848,0.248-1.234c0.166-0.387,0.393-0.724,0.681-1.013
			c0.288-0.288,0.626-0.515,1.013-0.68s0.798-0.248,1.234-0.248h2.742v-1.667c0-0.26-0.049-0.504-0.148-0.732
			c-0.098-0.229-0.231-0.428-0.4-0.596c-0.168-0.169-0.367-0.303-0.596-0.401s-0.473-0.147-0.733-0.147h-0.759
			c-0.261,0-0.505,0.049-0.733,0.147s-0.427,0.232-0.597,0.401c-0.168,0.168-0.302,0.367-0.4,0.596
			c-0.098,0.229-0.147,0.473-0.147,0.732v0.391l-1.298-0.211v-0.105c0-0.436,0.083-0.848,0.248-1.234
			c0.166-0.387,0.393-0.724,0.681-1.013c0.288-0.288,0.626-0.515,1.013-0.68s0.798-0.248,1.234-0.248h0.759
			c0.437,0,0.848,0.083,1.234,0.248s0.724,0.392,1.013,0.68c0.288,0.289,0.515,0.626,0.68,1.013
			c0.166,0.387,0.248,0.799,0.248,1.234v7.837H145.69z M144.825,174.004h-2.742c-0.261,0-0.505,0.049-0.733,0.147
			s-0.427,0.233-0.597,0.406c-0.168,0.172-0.302,0.373-0.4,0.601c-0.098,0.229-0.147,0.474-0.147,0.733v0.454
			c0,0.26,0.05,0.504,0.147,0.732c0.099,0.229,0.232,0.428,0.4,0.596c0.17,0.169,0.368,0.303,0.597,0.401s0.473,0.147,0.733,0.147
			h0.864c0.261,0,0.505-0.049,0.733-0.147s0.428-0.232,0.596-0.401c0.169-0.168,0.303-0.367,0.4-0.596
			c0.1-0.229,0.148-0.473,0.148-0.732V174.004z"/>
		<path fill="#FFFFFF" d="M149.149,179.235V164.11h1.297v15.125H149.149z"/>
		<path fill="#FFFFFF" d="M153.801,165.84v-1.729h1.509v1.729H153.801z M153.906,179.235v-10.801h1.298v10.801H153.906z"/>
		<path fill="#FFFFFF" d="M165.013,179.235l-0.717-1.097c-0.296,0.4-0.665,0.719-1.107,0.954c-0.443,0.235-0.929,0.354-1.456,0.354
			h-0.327c-0.436,0-0.848-0.083-1.234-0.248s-0.725-0.392-1.012-0.68c-0.289-0.289-0.516-0.626-0.681-1.013
			s-0.248-0.798-0.248-1.234v-4.873c0-0.436,0.083-0.848,0.248-1.234s0.392-0.724,0.681-1.013c0.287-0.288,0.625-0.515,1.012-0.68
			s0.799-0.248,1.234-0.248h0.327c0.485,0,0.935,0.099,1.351,0.295c0.414,0.197,0.77,0.472,1.064,0.823v-5.231h1.297v15.125H165.013
			z M164.147,171.324c0-0.26-0.049-0.504-0.147-0.732s-0.231-0.428-0.401-0.596c-0.168-0.169-0.367-0.303-0.596-0.401
			s-0.473-0.147-0.732-0.147h-0.865c-0.26,0-0.504,0.049-0.732,0.147s-0.428,0.232-0.597,0.401
			c-0.169,0.168-0.302,0.367-0.401,0.596c-0.098,0.229-0.146,0.473-0.146,0.732v5.021c0,0.26,0.049,0.504,0.146,0.732
			c0.1,0.229,0.232,0.428,0.401,0.596c0.169,0.169,0.368,0.303,0.597,0.401s0.473,0.147,0.732,0.147h0.865
			c0.26,0,0.504-0.049,0.732-0.147s0.428-0.232,0.596-0.401c0.17-0.168,0.303-0.367,0.401-0.596s0.147-0.473,0.147-0.732V171.324z"
			/>
		<path fill="#FFFFFF" d="M174.821,179.235l-0.717-1.076c-0.295,0.387-0.664,0.698-1.107,0.934s-0.928,0.354-1.455,0.354h-0.328
			c-0.436,0-0.847-0.083-1.233-0.248s-0.725-0.392-1.013-0.68c-0.289-0.289-0.516-0.626-0.68-1.013
			c-0.166-0.387-0.248-0.798-0.248-1.234v-0.105c0-0.436,0.082-0.848,0.248-1.234c0.164-0.387,0.391-0.724,0.68-1.013
			c0.288-0.288,0.626-0.515,1.013-0.68s0.798-0.248,1.233-0.248h2.742v-1.667c0-0.26-0.049-0.504-0.146-0.732
			c-0.1-0.229-0.232-0.428-0.401-0.596c-0.169-0.169-0.367-0.303-0.596-0.401s-0.474-0.147-0.733-0.147h-0.76
			c-0.26,0-0.504,0.049-0.732,0.147s-0.428,0.232-0.596,0.401c-0.169,0.168-0.303,0.367-0.401,0.596s-0.147,0.473-0.147,0.732v0.391
			l-1.297-0.211v-0.105c0-0.436,0.082-0.848,0.248-1.234c0.164-0.387,0.391-0.724,0.68-1.013c0.288-0.288,0.626-0.515,1.013-0.68
			s0.798-0.248,1.233-0.248h0.76c0.436,0,0.848,0.083,1.234,0.248s0.725,0.392,1.013,0.68c0.288,0.289,0.515,0.626,0.681,1.013
			c0.164,0.387,0.247,0.799,0.247,1.234v7.837H174.821z M173.956,174.004h-2.742c-0.26,0-0.504,0.049-0.732,0.147
			s-0.428,0.233-0.596,0.406c-0.169,0.172-0.303,0.373-0.401,0.601c-0.099,0.229-0.147,0.474-0.147,0.733v0.454
			c0,0.26,0.049,0.504,0.147,0.732s0.232,0.428,0.401,0.596c0.168,0.169,0.367,0.303,0.596,0.401s0.473,0.147,0.732,0.147h0.865
			c0.26,0,0.505-0.049,0.733-0.147s0.427-0.232,0.596-0.401c0.169-0.168,0.302-0.367,0.401-0.596
			c0.098-0.229,0.146-0.473,0.146-0.732V174.004z"/>
		<path fill="#FFFFFF" d="M184.631,179.235l-0.718-1.097c-0.295,0.4-0.664,0.719-1.107,0.954s-0.928,0.354-1.455,0.354h-0.327
			c-0.437,0-0.847-0.083-1.233-0.248s-0.725-0.392-1.014-0.68c-0.288-0.289-0.515-0.626-0.68-1.013
			c-0.166-0.387-0.248-0.798-0.248-1.234v-4.873c0-0.436,0.082-0.848,0.248-1.234c0.165-0.387,0.392-0.724,0.68-1.013
			c0.289-0.288,0.627-0.515,1.014-0.68s0.797-0.248,1.233-0.248h0.327c0.484,0,0.936,0.099,1.35,0.295
			c0.415,0.197,0.771,0.472,1.065,0.823v-5.231h1.298v15.125H184.631z M183.766,171.324c0-0.26-0.049-0.504-0.147-0.732
			s-0.232-0.428-0.4-0.596c-0.169-0.169-0.367-0.303-0.596-0.401s-0.474-0.147-0.734-0.147h-0.864c-0.261,0-0.505,0.049-0.733,0.147
			s-0.427,0.232-0.596,0.401c-0.168,0.168-0.303,0.367-0.4,0.596c-0.099,0.229-0.148,0.473-0.148,0.732v5.021
			c0,0.26,0.05,0.504,0.148,0.732c0.098,0.229,0.232,0.428,0.4,0.596c0.169,0.169,0.367,0.303,0.596,0.401s0.473,0.147,0.733,0.147
			h0.864c0.261,0,0.506-0.049,0.734-0.147s0.427-0.232,0.596-0.401c0.168-0.168,0.302-0.367,0.4-0.596s0.147-0.473,0.147-0.732
			V171.324z"/>
	</g>
	<g>
		<rect x="78.109" y="204.873" fill="#144B8B" width="157.119" height="34.113"/>
		<path d="M235.229,240.189H78.109c-0.664,0-1.201-0.539-1.201-1.203v-34.113c0-0.664,0.537-1.203,1.201-1.203h157.119
			c0.662,0,1.201,0.539,1.201,1.203v34.113C236.43,239.65,235.891,240.189,235.229,240.189z M79.313,237.783h154.713v-31.707H79.313
			V237.783z"/>
	</g>
	<g>
		<path fill="#FFFFFF" d="M109.991,229.753v-15.125h1.361v15.125H109.991z"/>
		<path fill="#FFFFFF" d="M120.296,229.753v-7.911c0-0.26-0.049-0.504-0.146-0.732c-0.1-0.229-0.232-0.428-0.401-0.596
			c-0.169-0.169-0.367-0.303-0.596-0.401s-0.474-0.147-0.733-0.147h-0.865c-0.26,0-0.504,0.049-0.732,0.147
			s-0.428,0.232-0.596,0.401c-0.169,0.168-0.303,0.367-0.401,0.596s-0.147,0.473-0.147,0.732v7.911h-1.297v-10.801h0.432
			l0.707,1.097c0.295-0.4,0.666-0.719,1.113-0.954c0.445-0.235,0.934-0.354,1.461-0.354h0.326c0.436,0,0.848,0.083,1.234,0.248
			s0.725,0.392,1.013,0.68c0.288,0.289,0.515,0.626,0.681,1.013c0.164,0.387,0.247,0.799,0.247,1.234v7.837H120.296z"/>
		<path fill="#FFFFFF" d="M127.901,215.861c-0.219,0-0.42,0.041-0.606,0.122c-0.187,0.08-0.351,0.191-0.491,0.332
			s-0.251,0.306-0.332,0.495c-0.08,0.19-0.121,0.395-0.121,0.612v1.529h2.521v1.234h-2.521v9.566h-1.297v-9.566h-1.951v-1.234h1.951
			v-1.466c0-0.394,0.074-0.765,0.221-1.113c0.148-0.348,0.352-0.652,0.612-0.912c0.26-0.26,0.563-0.464,0.907-0.612
			c0.344-0.147,0.713-0.221,1.107-0.221h1.191v1.233H127.901z"/>
		<path fill="#FFFFFF" d="M137.357,228.023c-0.165,0.387-0.392,0.724-0.681,1.013c-0.288,0.288-0.625,0.515-1.012,0.68
			s-0.799,0.248-1.234,0.248h-0.865c-0.436,0-0.848-0.083-1.234-0.248s-0.725-0.392-1.012-0.68
			c-0.289-0.289-0.516-0.626-0.681-1.013s-0.248-0.798-0.248-1.234v-4.873c0-0.436,0.083-0.848,0.248-1.234s0.392-0.724,0.681-1.013
			c0.287-0.288,0.625-0.515,1.012-0.68s0.799-0.248,1.234-0.248h0.865c0.436,0,0.848,0.083,1.234,0.248s0.724,0.392,1.012,0.68
			c0.289,0.289,0.516,0.626,0.681,1.013s0.247,0.799,0.247,1.234v4.873C137.605,227.226,137.522,227.637,137.357,228.023z
			 M136.308,221.842c0-0.26-0.049-0.504-0.147-0.732s-0.231-0.428-0.401-0.596c-0.168-0.169-0.367-0.303-0.596-0.401
			s-0.473-0.147-0.732-0.147h-0.865c-0.26,0-0.504,0.049-0.732,0.147s-0.428,0.232-0.597,0.401
			c-0.169,0.168-0.302,0.367-0.401,0.596c-0.098,0.229-0.146,0.473-0.146,0.732v5.021c0,0.26,0.049,0.504,0.146,0.732
			c0.1,0.229,0.232,0.428,0.401,0.596c0.169,0.169,0.368,0.303,0.597,0.401s0.473,0.147,0.732,0.147h0.865
			c0.26,0,0.504-0.049,0.732-0.147s0.428-0.232,0.596-0.401c0.17-0.168,0.303-0.367,0.401-0.596s0.147-0.473,0.147-0.732V221.842z"
			/>
		<path fill="#FFFFFF" d="M143.374,220.187c-0.26,0-0.504,0.049-0.732,0.147s-0.428,0.232-0.596,0.4
			c-0.169,0.169-0.303,0.368-0.401,0.597s-0.147,0.473-0.147,0.732v7.689H140.2v-10.801h0.432l0.707,1.097
			c0.295-0.4,0.666-0.719,1.113-0.954c0.445-0.235,0.934-0.354,1.461-0.354h0.759v1.445H143.374z"/>
		<path fill="#FFFFFF" d="M157.804,229.753v-7.911c0-0.26-0.049-0.504-0.147-0.732s-0.231-0.428-0.401-0.596
			c-0.168-0.169-0.367-0.303-0.596-0.401s-0.473-0.147-0.732-0.147h-0.644c-0.261,0-0.505,0.049-0.733,0.147
			s-0.429,0.232-0.602,0.401c-0.172,0.168-0.307,0.367-0.406,0.596c-0.098,0.229-0.146,0.473-0.146,0.732v7.911h-1.287v-7.911
			c0-0.26-0.049-0.504-0.148-0.732c-0.098-0.229-0.233-0.428-0.406-0.596c-0.172-0.169-0.372-0.303-0.601-0.401
			s-0.474-0.147-0.733-0.147h-0.643c-0.261,0-0.505,0.049-0.733,0.147s-0.427,0.232-0.597,0.401c-0.168,0.168-0.302,0.367-0.4,0.596
			c-0.098,0.229-0.147,0.473-0.147,0.732v7.911h-1.298v-10.801h0.434l0.706,1.097c0.296-0.4,0.666-0.719,1.112-0.954
			c0.447-0.235,0.934-0.354,1.461-0.354h0.105c0.612,0,1.164,0.151,1.656,0.453c0.492,0.303,0.872,0.704,1.139,1.203
			c0.135-0.246,0.299-0.472,0.496-0.676c0.197-0.203,0.415-0.378,0.654-0.521c0.238-0.145,0.499-0.257,0.78-0.338
			c0.281-0.08,0.573-0.121,0.876-0.121h0.105c0.436,0,0.847,0.083,1.234,0.248c0.386,0.165,0.724,0.392,1.012,0.68
			c0.289,0.289,0.516,0.626,0.681,1.013s0.247,0.799,0.247,1.234v7.837H157.804z"/>
		<path fill="#FFFFFF" d="M168.478,229.753l-0.717-1.076c-0.295,0.387-0.664,0.698-1.107,0.934s-0.928,0.354-1.455,0.354h-0.328
			c-0.436,0-0.847-0.083-1.233-0.248s-0.725-0.392-1.013-0.68c-0.289-0.289-0.516-0.626-0.68-1.013
			c-0.166-0.387-0.248-0.798-0.248-1.234v-0.105c0-0.436,0.082-0.848,0.248-1.234c0.164-0.387,0.391-0.724,0.68-1.013
			c0.288-0.288,0.626-0.515,1.013-0.68s0.798-0.248,1.233-0.248h2.742v-1.667c0-0.26-0.049-0.504-0.146-0.732
			c-0.1-0.229-0.232-0.428-0.401-0.596c-0.169-0.169-0.367-0.303-0.596-0.401s-0.474-0.147-0.733-0.147h-0.76
			c-0.26,0-0.504,0.049-0.732,0.147s-0.428,0.232-0.596,0.401c-0.169,0.168-0.303,0.367-0.401,0.596s-0.147,0.473-0.147,0.732v0.391
			l-1.297-0.211v-0.105c0-0.436,0.082-0.848,0.248-1.234c0.164-0.387,0.391-0.724,0.68-1.013c0.288-0.288,0.626-0.515,1.013-0.68
			s0.798-0.248,1.233-0.248h0.76c0.436,0,0.848,0.083,1.234,0.248s0.725,0.392,1.013,0.68c0.288,0.289,0.515,0.626,0.681,1.013
			c0.164,0.387,0.247,0.799,0.247,1.234v7.837H168.478z M167.612,224.521h-2.742c-0.26,0-0.504,0.049-0.732,0.147
			s-0.428,0.233-0.596,0.406c-0.169,0.172-0.303,0.373-0.401,0.601c-0.099,0.229-0.147,0.474-0.147,0.733v0.454
			c0,0.26,0.049,0.504,0.147,0.732s0.232,0.428,0.401,0.596c0.168,0.169,0.367,0.303,0.596,0.401s0.473,0.147,0.732,0.147h0.865
			c0.26,0,0.505-0.049,0.733-0.147s0.427-0.232,0.596-0.401c0.169-0.168,0.302-0.367,0.401-0.596
			c0.098-0.229,0.146-0.473,0.146-0.732V224.521z"/>
		<path fill="#FFFFFF" d="M178.472,228.023c-0.166,0.387-0.393,0.724-0.68,1.013c-0.289,0.288-0.627,0.515-1.014,0.68
			s-0.798,0.248-1.234,0.248h-0.864c-0.437,0-0.847-0.083-1.233-0.248s-0.725-0.392-1.014-0.68c-0.288-0.289-0.515-0.626-0.68-1.013
			c-0.166-0.387-0.248-0.798-0.248-1.234v-4.873c0-0.436,0.082-0.848,0.248-1.234c0.165-0.387,0.392-0.724,0.68-1.013
			c0.289-0.288,0.627-0.515,1.014-0.68s0.797-0.248,1.233-0.248h0.864c0.437,0,0.848,0.083,1.234,0.248s0.725,0.392,1.014,0.68
			c0.287,0.289,0.514,0.626,0.68,1.013c0.165,0.387,0.248,0.799,0.248,1.234v0.433l-1.298,0.211v-0.718
			c0-0.26-0.049-0.504-0.147-0.732s-0.232-0.428-0.4-0.596c-0.169-0.169-0.367-0.303-0.596-0.401s-0.474-0.147-0.734-0.147h-0.864
			c-0.261,0-0.505,0.049-0.733,0.147s-0.427,0.232-0.596,0.401c-0.168,0.168-0.303,0.367-0.4,0.596
			c-0.099,0.229-0.148,0.473-0.148,0.732v5.021c0,0.26,0.05,0.504,0.148,0.732c0.098,0.229,0.232,0.428,0.4,0.596
			c0.169,0.169,0.367,0.303,0.596,0.401s0.473,0.147,0.733,0.147h0.864c0.261,0,0.506-0.049,0.734-0.147s0.427-0.232,0.596-0.401
			c0.168-0.168,0.302-0.367,0.4-0.596s0.147-0.473,0.147-0.732v-0.718l1.298,0.211v0.433
			C178.72,227.226,178.637,227.637,178.472,228.023z"/>
		<path fill="#FFFFFF" d="M181.642,216.357v-1.729h1.508v1.729H181.642z M181.747,229.753v-10.801h1.297v10.801H181.747z"/>
		<path fill="#FFFFFF" d="M193.038,228.023c-0.166,0.387-0.393,0.724-0.681,1.013c-0.288,0.288-0.626,0.515-1.013,0.68
			s-0.799,0.248-1.234,0.248h-0.865c-0.436,0-0.847-0.083-1.233-0.248s-0.725-0.392-1.013-0.68c-0.289-0.289-0.516-0.626-0.68-1.013
			c-0.166-0.387-0.248-0.798-0.248-1.234v-4.873c0-0.436,0.082-0.848,0.248-1.234c0.164-0.387,0.391-0.724,0.68-1.013
			c0.288-0.288,0.626-0.515,1.013-0.68s0.798-0.248,1.233-0.248h0.865c0.436,0,0.848,0.083,1.234,0.248s0.725,0.392,1.013,0.68
			c0.288,0.289,0.515,0.626,0.681,1.013c0.164,0.387,0.247,0.799,0.247,1.234v4.873
			C193.285,227.226,193.202,227.637,193.038,228.023z M191.987,221.842c0-0.26-0.049-0.504-0.146-0.732
			c-0.1-0.229-0.232-0.428-0.401-0.596c-0.169-0.169-0.367-0.303-0.596-0.401s-0.474-0.147-0.733-0.147h-0.865
			c-0.26,0-0.504,0.049-0.732,0.147s-0.428,0.232-0.596,0.401c-0.169,0.168-0.303,0.367-0.401,0.596s-0.147,0.473-0.147,0.732v5.021
			c0,0.26,0.049,0.504,0.147,0.732s0.232,0.428,0.401,0.596c0.168,0.169,0.367,0.303,0.596,0.401s0.473,0.147,0.732,0.147h0.865
			c0.26,0,0.505-0.049,0.733-0.147s0.427-0.232,0.596-0.401c0.169-0.168,0.302-0.367,0.401-0.596
			c0.098-0.229,0.146-0.473,0.146-0.732V221.842z M189.14,217.223h-0.97l1.72-2.595h2.162L189.14,217.223z"/>
		<path fill="#FFFFFF" d="M201.797,229.753v-7.911c0-0.26-0.049-0.504-0.147-0.732s-0.232-0.428-0.4-0.596
			c-0.169-0.169-0.367-0.303-0.596-0.401s-0.474-0.147-0.734-0.147h-0.864c-0.261,0-0.505,0.049-0.733,0.147
			s-0.427,0.232-0.596,0.401c-0.168,0.168-0.303,0.367-0.4,0.596c-0.099,0.229-0.148,0.473-0.148,0.732v7.911h-1.297v-10.801h0.433
			l0.706,1.097c0.296-0.4,0.666-0.719,1.113-0.954c0.446-0.235,0.934-0.354,1.461-0.354h0.326c0.437,0,0.848,0.083,1.234,0.248
			s0.725,0.392,1.014,0.68c0.287,0.289,0.514,0.626,0.68,1.013c0.165,0.387,0.248,0.799,0.248,1.234v7.837H201.797z"/>
	</g>
	<g>
		<rect x="78.109" y="256.191" fill="#144B8B" width="157.119" height="34.113"/>
		<path d="M235.229,291.506H78.109c-0.664,0-1.201-0.537-1.201-1.201v-34.113c0-0.664,0.537-1.203,1.201-1.203h157.119
			c0.662,0,1.201,0.539,1.201,1.203v34.113C236.43,290.969,235.891,291.506,235.229,291.506z M79.313,289.102h154.713v-31.707
			H79.313V289.102z"/>
	</g>
	<g>
		<path fill="#FFFFFF" d="M129.98,279.014c-0.193,0.45-0.459,0.844-0.797,1.182c-0.338,0.337-0.73,0.603-1.182,0.796
			c-0.449,0.193-0.932,0.29-1.444,0.29h-1.076c-0.513,0-0.997-0.097-1.45-0.29s-0.85-0.459-1.187-0.796
			c-0.337-0.338-0.603-0.731-0.796-1.182s-0.291-0.932-0.291-1.445v-8.121c0-0.514,0.098-0.995,0.291-1.445s0.459-0.844,0.796-1.182
			c0.337-0.337,0.733-0.603,1.187-0.796s0.938-0.29,1.45-0.29h1.076c0.513,0,0.995,0.097,1.444,0.29
			c0.451,0.193,0.844,0.459,1.182,0.796c0.338,0.338,0.604,0.731,0.797,1.182s0.289,0.932,0.289,1.445v0.611l-1.359,0.211v-0.822
			c0-0.338-0.064-0.652-0.19-0.944s-0.299-0.547-0.517-0.765c-0.219-0.218-0.473-0.391-0.766-0.517
			c-0.291-0.127-0.605-0.19-0.943-0.19h-0.949c-0.338,0-0.652,0.063-0.943,0.19c-0.293,0.126-0.549,0.299-0.771,0.517
			s-0.396,0.473-0.522,0.765s-0.189,0.606-0.189,0.944v8.121c0,0.338,0.063,0.652,0.189,0.944s0.301,0.548,0.522,0.77
			s0.478,0.396,0.771,0.522c0.291,0.127,0.605,0.189,0.943,0.189h0.949c0.338,0,0.652-0.063,0.943-0.189
			c0.293-0.127,0.547-0.301,0.766-0.522c0.218-0.222,0.391-0.478,0.517-0.77s0.19-0.606,0.19-0.944v-0.822l1.359,0.221v0.602
			C130.269,278.082,130.173,278.563,129.98,279.014z"/>
		<path fill="#FFFFFF" d="M139.831,279.341c-0.166,0.387-0.393,0.724-0.681,1.013c-0.288,0.288-0.626,0.515-1.013,0.68
			s-0.799,0.248-1.234,0.248h-0.865c-0.436,0-0.847-0.083-1.233-0.248s-0.725-0.392-1.013-0.68c-0.289-0.289-0.516-0.626-0.68-1.013
			c-0.166-0.387-0.248-0.798-0.248-1.234v-4.873c0-0.436,0.082-0.848,0.248-1.234c0.164-0.387,0.391-0.724,0.68-1.013
			c0.288-0.288,0.626-0.515,1.013-0.68s0.798-0.248,1.233-0.248h0.865c0.436,0,0.848,0.083,1.234,0.248s0.725,0.392,1.013,0.68
			c0.288,0.289,0.515,0.626,0.681,1.013c0.164,0.387,0.247,0.799,0.247,1.234v4.873
			C140.078,278.543,139.995,278.954,139.831,279.341z M138.78,273.159c0-0.26-0.049-0.504-0.146-0.732
			c-0.1-0.229-0.232-0.428-0.401-0.596c-0.169-0.169-0.367-0.303-0.596-0.401s-0.474-0.147-0.733-0.147h-0.865
			c-0.26,0-0.504,0.049-0.732,0.147s-0.428,0.232-0.596,0.401c-0.169,0.168-0.303,0.367-0.401,0.596s-0.147,0.473-0.147,0.732v5.021
			c0,0.26,0.049,0.504,0.147,0.732s0.232,0.428,0.401,0.596c0.168,0.169,0.367,0.303,0.596,0.401s0.473,0.147,0.732,0.147h0.865
			c0.26,0,0.505-0.049,0.733-0.147s0.427-0.232,0.596-0.401c0.169-0.168,0.302-0.367,0.401-0.596
			c0.098-0.229,0.146-0.473,0.146-0.732V273.159z"/>
		<path fill="#FFFFFF" d="M154.075,281.07v-7.911c0-0.26-0.05-0.504-0.148-0.732c-0.098-0.229-0.231-0.428-0.4-0.596
			c-0.169-0.169-0.367-0.303-0.596-0.401s-0.473-0.147-0.733-0.147h-0.644c-0.26,0-0.504,0.049-0.732,0.147s-0.43,0.232-0.602,0.401
			c-0.172,0.168-0.308,0.367-0.406,0.596s-0.147,0.473-0.147,0.732v7.911h-1.287v-7.911c0-0.26-0.049-0.504-0.147-0.732
			s-0.234-0.428-0.406-0.596c-0.172-0.169-0.373-0.303-0.602-0.401s-0.473-0.147-0.732-0.147h-0.644
			c-0.261,0-0.505,0.049-0.733,0.147s-0.427,0.232-0.596,0.401c-0.168,0.168-0.303,0.367-0.4,0.596
			c-0.099,0.229-0.148,0.473-0.148,0.732v7.911h-1.297V270.27h0.433l0.706,1.097c0.296-0.4,0.666-0.719,1.113-0.954
			c0.446-0.235,0.934-0.354,1.461-0.354h0.105c0.611,0,1.164,0.151,1.656,0.453c0.492,0.303,0.871,0.704,1.139,1.203
			c0.134-0.246,0.299-0.472,0.496-0.676c0.196-0.203,0.414-0.378,0.654-0.521c0.238-0.145,0.498-0.257,0.779-0.338
			c0.281-0.08,0.574-0.121,0.876-0.121h0.105c0.437,0,0.847,0.083,1.234,0.248c0.386,0.165,0.724,0.392,1.013,0.68
			c0.288,0.289,0.515,0.626,0.68,1.013c0.166,0.387,0.248,0.799,0.248,1.234v7.837H154.075z"/>
		<path fill="#FFFFFF" d="M164.934,279.341c-0.165,0.387-0.392,0.724-0.681,1.013c-0.288,0.288-0.625,0.515-1.012,0.68
			s-0.799,0.248-1.234,0.248h-0.327c-0.485,0-0.936-0.099-1.351-0.295c-0.414-0.197-0.77-0.472-1.064-0.823v5.231h-1.298V270.27
			h0.433l0.707,1.097c0.295-0.4,0.666-0.719,1.112-0.954s0.934-0.354,1.461-0.354h0.327c0.436,0,0.848,0.083,1.234,0.248
			s0.724,0.392,1.012,0.68c0.289,0.289,0.516,0.626,0.681,1.013s0.247,0.799,0.247,1.234v4.873
			C165.181,278.543,165.099,278.954,164.934,279.341z M163.884,273.159c0-0.26-0.049-0.504-0.147-0.732s-0.231-0.428-0.401-0.596
			c-0.168-0.169-0.367-0.303-0.596-0.401s-0.473-0.147-0.732-0.147h-0.865c-0.26,0-0.504,0.049-0.732,0.147
			s-0.428,0.232-0.597,0.401c-0.169,0.168-0.302,0.367-0.401,0.596c-0.098,0.229-0.146,0.473-0.146,0.732v5.021
			c0,0.26,0.049,0.504,0.146,0.732c0.1,0.229,0.232,0.428,0.401,0.596c0.169,0.169,0.368,0.303,0.597,0.401s0.473,0.147,0.732,0.147
			h0.865c0.26,0,0.504-0.049,0.732-0.147s0.428-0.232,0.596-0.401c0.17-0.168,0.303-0.367,0.401-0.596s0.147-0.473,0.147-0.732
			V273.159z"/>
		<path fill="#FFFFFF" d="M170.95,271.504c-0.26,0-0.504,0.049-0.732,0.147s-0.428,0.232-0.596,0.4
			c-0.169,0.169-0.303,0.368-0.401,0.597s-0.147,0.473-0.147,0.732v7.689h-1.297V270.27h0.432l0.707,1.097
			c0.295-0.4,0.666-0.719,1.113-0.954c0.445-0.235,0.934-0.354,1.461-0.354h0.759v1.445H170.95z"/>
		<path fill="#FFFFFF" d="M180.761,281.07l-0.718-1.076c-0.296,0.387-0.665,0.698-1.107,0.934c-0.443,0.235-0.929,0.354-1.456,0.354
			h-0.326c-0.437,0-0.848-0.083-1.234-0.248s-0.725-0.392-1.013-0.68c-0.288-0.289-0.515-0.626-0.681-1.013
			c-0.165-0.387-0.248-0.798-0.248-1.234v-0.105c0-0.436,0.083-0.848,0.248-1.234c0.166-0.387,0.393-0.724,0.681-1.013
			c0.288-0.288,0.626-0.515,1.013-0.68s0.798-0.248,1.234-0.248h2.742v-1.667c0-0.26-0.049-0.504-0.148-0.732
			c-0.098-0.229-0.231-0.428-0.4-0.596c-0.168-0.169-0.367-0.303-0.596-0.401s-0.473-0.147-0.733-0.147h-0.759
			c-0.261,0-0.505,0.049-0.733,0.147s-0.427,0.232-0.597,0.401c-0.168,0.168-0.302,0.367-0.4,0.596
			c-0.098,0.229-0.147,0.473-0.147,0.732v0.391l-1.298-0.211v-0.105c0-0.436,0.083-0.848,0.248-1.234
			c0.166-0.387,0.393-0.724,0.681-1.013c0.288-0.288,0.626-0.515,1.013-0.68s0.798-0.248,1.234-0.248h0.759
			c0.437,0,0.848,0.083,1.234,0.248s0.724,0.392,1.013,0.68c0.288,0.289,0.515,0.626,0.68,1.013
			c0.166,0.387,0.248,0.799,0.248,1.234v7.837H180.761z M179.896,275.839h-2.742c-0.261,0-0.505,0.049-0.733,0.147
			s-0.427,0.233-0.597,0.406c-0.168,0.172-0.302,0.373-0.4,0.601c-0.098,0.229-0.147,0.474-0.147,0.733v0.454
			c0,0.26,0.05,0.504,0.147,0.732c0.099,0.229,0.232,0.428,0.4,0.596c0.17,0.169,0.368,0.303,0.597,0.401s0.473,0.147,0.733,0.147
			h0.864c0.261,0,0.505-0.049,0.733-0.147s0.428-0.232,0.596-0.401c0.169-0.168,0.303-0.367,0.4-0.596
			c0.1-0.229,0.148-0.473,0.148-0.732V275.839z"/>
		<path fill="#FFFFFF" d="M191.212,278.328c0,0.436-0.088,0.835-0.264,1.197s-0.414,0.673-0.717,0.934
			c-0.303,0.26-0.652,0.462-1.049,0.606c-0.398,0.144-0.814,0.216-1.25,0.216h-0.865c-0.436,0-0.853-0.083-1.25-0.248
			c-0.396-0.165-0.745-0.392-1.044-0.68c-0.3-0.289-0.538-0.626-0.718-1.013c-0.179-0.387-0.269-0.798-0.269-1.234v-0.433
			l1.298-0.211v0.718c0,0.26,0.054,0.504,0.163,0.732c0.108,0.229,0.255,0.428,0.438,0.596c0.183,0.169,0.394,0.303,0.633,0.401
			s0.489,0.147,0.749,0.147h0.865c0.26,0,0.51-0.038,0.748-0.116c0.24-0.077,0.452-0.188,0.639-0.332
			c0.186-0.144,0.334-0.318,0.443-0.522c0.108-0.203,0.163-0.436,0.163-0.695c0-0.387-0.085-0.703-0.253-0.949
			c-0.169-0.246-0.393-0.452-0.67-0.617s-0.594-0.303-0.949-0.412c-0.355-0.108-0.719-0.218-1.092-0.326
			c-0.373-0.109-0.736-0.234-1.092-0.375s-0.672-0.325-0.949-0.554s-0.501-0.515-0.67-0.859c-0.168-0.345-0.253-0.773-0.253-1.287
			c0-0.436,0.085-0.835,0.253-1.197c0.169-0.361,0.397-0.673,0.686-0.934c0.289-0.26,0.624-0.462,1.008-0.606
			c0.383-0.144,0.793-0.216,1.229-0.216h0.76c0.436,0,0.848,0.083,1.234,0.248s0.724,0.392,1.012,0.68
			c0.289,0.289,0.516,0.626,0.681,1.013s0.247,0.799,0.247,1.234v0.042l-1.297,0.211v-0.327c0-0.26-0.049-0.504-0.147-0.732
			s-0.231-0.428-0.401-0.596c-0.168-0.169-0.367-0.303-0.596-0.401s-0.473-0.147-0.732-0.147h-0.76c-0.26,0-0.504,0.039-0.732,0.116
			s-0.428,0.188-0.597,0.332s-0.302,0.318-0.401,0.522c-0.098,0.203-0.146,0.436-0.146,0.695c0,0.373,0.084,0.678,0.252,0.913
			c0.17,0.235,0.393,0.434,0.67,0.596c0.278,0.162,0.595,0.297,0.949,0.406c0.355,0.108,0.718,0.222,1.087,0.337
			c0.369,0.116,0.731,0.248,1.087,0.396c0.354,0.148,0.671,0.338,0.949,0.57c0.277,0.231,0.5,0.521,0.67,0.87
			C191.128,277.384,191.212,277.814,191.212,278.328z"/>
	</g>
	<g>
		<rect x="78.109" y="305.91" fill="#144B8B" width="157.119" height="34.113"/>
		<path d="M235.229,341.225H78.109c-0.664,0-1.201-0.539-1.201-1.201V305.91c0-0.666,0.537-1.205,1.201-1.205h157.119
			c0.662,0,1.201,0.539,1.201,1.205v34.113C236.43,340.685,235.891,341.225,235.229,341.225z M79.313,338.82h154.713v-31.709H79.313
			V338.82z"/>
	</g>
	<g>
		<path fill="#FFFFFF" d="M112.085,330.788v-15.125h1.361v15.125H112.085z"/>
		<path fill="#FFFFFF" d="M122.39,330.788v-7.911c0-0.26-0.049-0.504-0.146-0.732c-0.1-0.229-0.232-0.428-0.401-0.596
			c-0.169-0.169-0.367-0.303-0.596-0.401S120.772,321,120.513,321h-0.865c-0.26,0-0.504,0.049-0.732,0.147s-0.428,0.232-0.596,0.401
			c-0.169,0.168-0.303,0.367-0.401,0.596s-0.147,0.473-0.147,0.732v7.911h-1.297v-10.801h0.432l0.707,1.097
			c0.295-0.4,0.666-0.719,1.113-0.954c0.445-0.235,0.934-0.354,1.461-0.354h0.326c0.436,0,0.848,0.083,1.234,0.248
			s0.725,0.392,1.013,0.68c0.288,0.289,0.515,0.626,0.681,1.013c0.164,0.387,0.247,0.799,0.247,1.234v7.837H122.39z"/>
		<path fill="#FFFFFF" d="M130.216,330.788c-0.393,0-0.764-0.074-1.112-0.222c-0.348-0.147-0.65-0.352-0.907-0.611
			c-0.256-0.261-0.461-0.563-0.611-0.907c-0.151-0.345-0.227-0.714-0.227-1.107v-6.719h-1.941v-1.234h1.941v-2.595l1.297-0.211
			v2.806h2.742v1.234h-2.742v6.782c0,0.218,0.041,0.42,0.121,0.606c0.081,0.187,0.191,0.35,0.332,0.49s0.307,0.251,0.496,0.332
			s0.395,0.121,0.611,0.121h1.182v1.234H130.216z"/>
		<path fill="#FFFFFF" d="M140.749,329.059c-0.166,0.387-0.393,0.724-0.681,1.013c-0.288,0.288-0.626,0.515-1.013,0.68
			s-0.799,0.248-1.234,0.248h-0.865c-0.436,0-0.847-0.083-1.233-0.248s-0.725-0.392-1.013-0.68c-0.289-0.289-0.516-0.626-0.68-1.013
			c-0.166-0.387-0.248-0.798-0.248-1.234v-4.873c0-0.436,0.082-0.848,0.248-1.234c0.164-0.387,0.391-0.724,0.68-1.013
			c0.288-0.288,0.626-0.515,1.013-0.68s0.798-0.248,1.233-0.248h0.865c0.436,0,0.848,0.083,1.234,0.248s0.725,0.392,1.013,0.68
			c0.288,0.289,0.515,0.626,0.681,1.013c0.164,0.387,0.247,0.799,0.247,1.234v2.542h-5.917v2.405c0,0.26,0.049,0.504,0.147,0.732
			s0.232,0.428,0.401,0.596c0.168,0.169,0.367,0.303,0.596,0.401s0.473,0.147,0.732,0.147h0.865c0.26,0,0.505-0.049,0.733-0.147
			s0.427-0.232,0.596-0.401c0.169-0.168,0.302-0.367,0.401-0.596c0.098-0.229,0.146-0.473,0.146-0.732v-0.718l1.298,0.211v0.433
			C140.996,328.261,140.913,328.672,140.749,329.059z M139.698,322.877c0-0.26-0.049-0.504-0.146-0.732
			c-0.1-0.229-0.232-0.428-0.401-0.596c-0.169-0.169-0.367-0.303-0.596-0.401S138.081,321,137.821,321h-0.865
			c-0.26,0-0.504,0.049-0.732,0.147s-0.428,0.232-0.596,0.401c-0.169,0.168-0.303,0.367-0.401,0.596s-0.147,0.473-0.147,0.732v1.604
			h4.619V322.877z"/>
		<path fill="#FFFFFF" d="M150.663,333.352c-0.166,0.365-0.393,0.678-0.68,0.938c-0.289,0.26-0.627,0.462-1.014,0.606
			c-0.387,0.144-0.798,0.216-1.234,0.216h-0.537c-0.436,0-0.848-0.072-1.234-0.216c-0.387-0.145-0.725-0.347-1.012-0.606
			c-0.289-0.261-0.516-0.573-0.682-0.938c-0.164-0.366-0.247-0.767-0.247-1.203v-0.042c0-0.422,0.077-0.809,0.231-1.16
			s0.366-0.657,0.633-0.918c-0.337-0.203-0.605-0.479-0.807-0.828c-0.2-0.348-0.301-0.732-0.301-1.154
			c0-0.38,0.081-0.733,0.243-1.061c0.161-0.327,0.383-0.592,0.665-0.796c-0.338-0.296-0.605-0.65-0.803-1.065
			s-0.295-0.868-0.295-1.36v-0.813c0-0.436,0.082-0.848,0.248-1.234c0.165-0.387,0.392-0.724,0.68-1.013
			c0.289-0.288,0.627-0.515,1.014-0.68s0.797-0.248,1.233-0.248h0.538c0.527,0,1.014,0.118,1.461,0.354
			c0.446,0.235,0.817,0.554,1.113,0.954l0.706-1.097h0.433v3.776c0,0.436-0.083,0.847-0.248,1.233
			c-0.166,0.387-0.393,0.725-0.68,1.013c-0.289,0.289-0.627,0.516-1.014,0.681s-0.798,0.248-1.234,0.248h-1.877
			c-0.147,0-0.288,0.029-0.422,0.09c-0.133,0.06-0.252,0.139-0.354,0.237c-0.102,0.098-0.181,0.216-0.236,0.353
			c-0.057,0.138-0.085,0.28-0.085,0.428s0.028,0.288,0.085,0.422c0.056,0.134,0.135,0.251,0.236,0.354
			c0.102,0.102,0.221,0.181,0.354,0.237c0.134,0.056,0.274,0.084,0.422,0.084h1.771c0.437,0,0.848,0.072,1.234,0.216
			c0.387,0.145,0.725,0.347,1.014,0.607c0.287,0.26,0.514,0.572,0.68,0.938c0.165,0.365,0.248,0.767,0.248,1.202v0.042
			C150.911,332.585,150.828,332.985,150.663,333.352z M149.73,322.877c0-0.26-0.049-0.504-0.147-0.732s-0.233-0.428-0.406-0.596
			c-0.173-0.169-0.372-0.303-0.601-0.401S148.102,321,147.841,321h-1.075c-0.261,0-0.505,0.049-0.733,0.147
			s-0.427,0.232-0.596,0.401c-0.168,0.168-0.303,0.367-0.4,0.596c-0.099,0.229-0.148,0.473-0.148,0.732v0.96
			c0,0.261,0.05,0.505,0.148,0.733c0.098,0.229,0.232,0.427,0.4,0.596c0.169,0.169,0.367,0.303,0.596,0.401s0.473,0.147,0.733,0.147
			h1.075c0.261,0,0.506-0.049,0.734-0.147s0.428-0.232,0.601-0.401s0.308-0.367,0.406-0.596s0.147-0.473,0.147-0.733V322.877z
			 M149.677,332.043c0-0.26-0.049-0.494-0.147-0.701s-0.232-0.382-0.401-0.522c-0.168-0.141-0.367-0.249-0.596-0.326
			c-0.229-0.078-0.473-0.116-0.732-0.116h-0.665c-0.261,0-0.505,0.038-0.733,0.116c-0.229,0.077-0.427,0.186-0.596,0.326
			c-0.168,0.141-0.303,0.315-0.4,0.522c-0.099,0.207-0.148,0.441-0.148,0.701v0.169c0,0.26,0.05,0.492,0.148,0.696
			c0.098,0.204,0.232,0.378,0.4,0.522c0.169,0.144,0.367,0.255,0.596,0.332s0.473,0.116,0.733,0.116h0.665
			c0.26,0,0.504-0.039,0.732-0.116s0.428-0.188,0.596-0.332c0.169-0.145,0.303-0.318,0.401-0.522s0.147-0.437,0.147-0.696V332.043z"
			/>
		<path fill="#FFFFFF" d="M156.575,321.222c-0.261,0-0.505,0.049-0.733,0.147s-0.427,0.232-0.597,0.4
			c-0.168,0.169-0.302,0.368-0.4,0.597c-0.098,0.229-0.147,0.473-0.147,0.732v7.689h-1.298v-10.801h0.434l0.706,1.097
			c0.296-0.4,0.666-0.719,1.112-0.954c0.447-0.235,0.934-0.354,1.461-0.354h0.76v1.445H156.575z"/>
		<path fill="#FFFFFF" d="M166.384,330.788l-0.717-1.076c-0.295,0.387-0.664,0.698-1.107,0.934s-0.928,0.354-1.455,0.354h-0.328
			c-0.436,0-0.847-0.083-1.233-0.248s-0.725-0.392-1.013-0.68c-0.289-0.289-0.516-0.626-0.68-1.013
			c-0.166-0.387-0.248-0.798-0.248-1.234v-0.105c0-0.436,0.082-0.848,0.248-1.234c0.164-0.387,0.391-0.724,0.68-1.013
			c0.288-0.288,0.626-0.515,1.013-0.68s0.798-0.248,1.233-0.248h2.742v-1.667c0-0.26-0.049-0.504-0.146-0.732
			c-0.1-0.229-0.232-0.428-0.401-0.596c-0.169-0.169-0.367-0.303-0.596-0.401S163.901,321,163.642,321h-0.76
			c-0.26,0-0.504,0.049-0.732,0.147s-0.428,0.232-0.596,0.401c-0.169,0.168-0.303,0.367-0.401,0.596s-0.147,0.473-0.147,0.732v0.391
			l-1.297-0.211v-0.105c0-0.436,0.082-0.848,0.248-1.234c0.164-0.387,0.391-0.724,0.68-1.013c0.288-0.288,0.626-0.515,1.013-0.68
			s0.798-0.248,1.233-0.248h0.76c0.436,0,0.848,0.083,1.234,0.248s0.725,0.392,1.013,0.68c0.288,0.289,0.515,0.626,0.681,1.013
			c0.164,0.387,0.247,0.799,0.247,1.234v7.837H166.384z M165.519,325.557h-2.742c-0.26,0-0.504,0.049-0.732,0.147
			s-0.428,0.233-0.596,0.406c-0.169,0.172-0.303,0.373-0.401,0.601c-0.099,0.229-0.147,0.474-0.147,0.733v0.454
			c0,0.26,0.049,0.504,0.147,0.732s0.232,0.428,0.401,0.596c0.168,0.169,0.367,0.303,0.596,0.401s0.473,0.147,0.732,0.147h0.865
			c0.26,0,0.505-0.049,0.733-0.147s0.427-0.232,0.596-0.401c0.169-0.168,0.302-0.367,0.401-0.596
			c0.098-0.229,0.146-0.473,0.146-0.732V325.557z"/>
		<path fill="#FFFFFF" d="M176.378,329.059c-0.166,0.387-0.393,0.724-0.68,1.013c-0.289,0.288-0.627,0.515-1.014,0.68
			s-0.798,0.248-1.234,0.248h-0.864c-0.437,0-0.847-0.083-1.233-0.248s-0.725-0.392-1.014-0.68c-0.288-0.289-0.515-0.626-0.68-1.013
			c-0.166-0.387-0.248-0.798-0.248-1.234v-4.873c0-0.436,0.082-0.848,0.248-1.234c0.165-0.387,0.392-0.724,0.68-1.013
			c0.289-0.288,0.627-0.515,1.014-0.68s0.797-0.248,1.233-0.248h0.864c0.437,0,0.848,0.083,1.234,0.248s0.725,0.392,1.014,0.68
			c0.287,0.289,0.514,0.626,0.68,1.013c0.165,0.387,0.248,0.799,0.248,1.234v0.433l-1.298,0.211v-0.718
			c0-0.26-0.049-0.504-0.147-0.732s-0.232-0.428-0.4-0.596c-0.169-0.169-0.367-0.303-0.596-0.401S173.711,321,173.45,321h-0.864
			c-0.261,0-0.505,0.049-0.733,0.147s-0.427,0.232-0.596,0.401c-0.168,0.168-0.303,0.367-0.4,0.596
			c-0.099,0.229-0.148,0.473-0.148,0.732v5.021c0,0.26,0.05,0.504,0.148,0.732c0.098,0.229,0.232,0.428,0.4,0.596
			c0.169,0.169,0.367,0.303,0.596,0.401s0.473,0.147,0.733,0.147h0.864c0.261,0,0.506-0.049,0.734-0.147s0.427-0.232,0.596-0.401
			c0.168-0.168,0.302-0.367,0.4-0.596s0.147-0.473,0.147-0.732v-0.718l1.298,0.211v0.433
			C176.626,328.261,176.543,328.672,176.378,329.059z"/>
		<path fill="#FFFFFF" d="M179.548,317.393v-1.729h1.508v1.729H179.548z M179.653,330.788v-10.801h1.297v10.801H179.653z"/>
		<path fill="#FFFFFF" d="M190.944,329.059c-0.166,0.387-0.393,0.724-0.681,1.013c-0.288,0.288-0.626,0.515-1.013,0.68
			s-0.799,0.248-1.234,0.248h-0.865c-0.436,0-0.847-0.083-1.233-0.248s-0.725-0.392-1.013-0.68c-0.289-0.289-0.516-0.626-0.68-1.013
			c-0.166-0.387-0.248-0.798-0.248-1.234v-4.873c0-0.436,0.082-0.848,0.248-1.234c0.164-0.387,0.391-0.724,0.68-1.013
			c0.288-0.288,0.626-0.515,1.013-0.68s0.798-0.248,1.233-0.248h0.865c0.436,0,0.848,0.083,1.234,0.248s0.725,0.392,1.013,0.68
			c0.288,0.289,0.515,0.626,0.681,1.013c0.164,0.387,0.247,0.799,0.247,1.234v4.873
			C191.191,328.261,191.108,328.672,190.944,329.059z M189.894,322.877c0-0.26-0.049-0.504-0.146-0.732
			c-0.1-0.229-0.232-0.428-0.401-0.596c-0.169-0.169-0.367-0.303-0.596-0.401S188.276,321,188.017,321h-0.865
			c-0.26,0-0.504,0.049-0.732,0.147s-0.428,0.232-0.596,0.401c-0.169,0.168-0.303,0.367-0.401,0.596s-0.147,0.473-0.147,0.732v5.021
			c0,0.26,0.049,0.504,0.147,0.732s0.232,0.428,0.401,0.596c0.168,0.169,0.367,0.303,0.596,0.401s0.473,0.147,0.732,0.147h0.865
			c0.26,0,0.505-0.049,0.733-0.147s0.427-0.232,0.596-0.401c0.169-0.168,0.302-0.367,0.401-0.596
			c0.098-0.229,0.146-0.473,0.146-0.732V322.877z M187.046,318.258h-0.97l1.72-2.595h2.162L187.046,318.258z"/>
		<path fill="#FFFFFF" d="M199.703,330.788v-7.911c0-0.26-0.049-0.504-0.147-0.732s-0.232-0.428-0.4-0.596
			c-0.169-0.169-0.367-0.303-0.596-0.401S198.086,321,197.825,321h-0.864c-0.261,0-0.505,0.049-0.733,0.147
			s-0.427,0.232-0.596,0.401c-0.168,0.168-0.303,0.367-0.4,0.596c-0.099,0.229-0.148,0.473-0.148,0.732v7.911h-1.297v-10.801h0.433
			l0.706,1.097c0.296-0.4,0.666-0.719,1.113-0.954c0.446-0.235,0.934-0.354,1.461-0.354h0.326c0.437,0,0.848,0.083,1.234,0.248
			s0.725,0.392,1.014,0.68c0.287,0.289,0.514,0.626,0.68,1.013c0.165,0.387,0.248,0.799,0.248,1.234v7.837H199.703z"/>
	</g>
</g>
</svg>