<?xml version="1.0" encoding="utf-8"?>
<!-- Generator: Adobe Illustrator 17.0.0, SVG Export Plug-In . SVG Version: 6.00 Build 0)  -->
<!DOCTYPE svg PUBLIC "-//W3C//DTD SVG 1.1//EN" "http://www.w3.org/Graphics/SVG/1.1/DTD/svg11.dtd" [
	<!ENTITY ns_extend "http://ns.adobe.com/Extensibility/1.0/">
	<!ENTITY ns_ai "http://ns.adobe.com/AdobeIllustrator/10.0/">
	<!ENTITY ns_graphs "http://ns.adobe.com/Graphs/1.0/">
	<!ENTITY ns_vars "http://ns.adobe.com/Variables/1.0/">
	<!ENTITY ns_imrep "http://ns.adobe.com/ImageReplacement/1.0/">
	<!ENTITY ns_sfw "http://ns.adobe.com/SaveForWeb/1.0/">
	<!ENTITY ns_custom "http://ns.adobe.com/GenericCustomNamespace/1.0/">
	<!ENTITY ns_adobe_xpath "http://ns.adobe.com/XPath/1.0/">
]>
<svg version="1.1" id="Capa_1" xmlns:x="&ns_extend;" xmlns:i="&ns_ai;" xmlns:graph="&ns_graphs;"
	 xmlns="http://www.w3.org/2000/svg" xmlns:xlink="http://www.w3.org/1999/xlink" x="0px" y="0px" width="958.918px"
	 height="510.545px" viewBox="0 0 958.918 510.545" enable-background="new 0 0 958.918 510.545" xml:space="preserve">
<metadata>
	<sfw  xmlns="&ns_sfw;">
		<slices></slices>
		<sliceSourceBounds  width="958.918" height="510.545" x="-11.959" y="425.228" bottomLeftOrigin="true"></sliceSourceBounds>
	</sfw>
</metadata>
<g>
	<path fill="#144B8B" d="M9.896,91.397c-0.232,0.542-0.553,1.016-0.959,1.422s-0.882,0.726-1.428,0.958
		c-0.546,0.233-1.128,0.35-1.746,0.35H1.639v6.995H0V82.917h5.764c0.618,0,1.2,0.116,1.746,0.349
		c0.546,0.233,1.021,0.553,1.428,0.959s0.727,0.883,0.959,1.428c0.232,0.547,0.35,1.129,0.35,1.746v2.26
		C10.246,90.275,10.129,90.855,9.896,91.397z M8.607,87.398c0-0.406-0.076-0.785-0.229-1.137c-0.152-0.351-0.361-0.66-0.628-0.926
		c-0.267-0.268-0.575-0.477-0.927-0.629s-0.73-0.229-1.137-0.229H1.639v8.087h4.049c0.406,0,0.785-0.076,1.137-0.229
		s0.66-0.36,0.927-0.622s0.476-0.569,0.628-0.92c0.152-0.352,0.229-0.73,0.229-1.137v-2.258H8.607z"/>
	<path fill="#144B8B" d="M16.67,89.607c-0.313,0-0.607,0.059-0.883,0.178s-0.514,0.279-0.717,0.482s-0.364,0.442-0.482,0.717
		c-0.119,0.275-0.178,0.57-0.178,0.883v9.255h-1.563v-13h0.521l0.85,1.32c0.355-0.482,0.803-0.865,1.34-1.149
		c0.537-0.283,1.123-0.425,1.758-0.425h0.914v1.739H16.67z"/>
	<path fill="#144B8B" d="M20.707,84.999v-2.082h1.814v2.082H20.707z M20.834,101.122v-13h1.561v13H20.834z"/>
	<path fill="#144B8B" d="M33.16,101.122v-9.521c0-0.313-0.059-0.607-0.178-0.882c-0.118-0.275-0.279-0.515-0.482-0.718
		s-0.441-0.364-0.717-0.482s-0.569-0.178-0.883-0.178h-1.041c-0.313,0-0.607,0.06-0.882,0.178s-0.515,0.279-0.718,0.482
		s-0.363,0.442-0.482,0.718c-0.118,0.274-0.178,0.568-0.178,0.882v9.521h-1.561v-13h0.52l0.852,1.32
		c0.355-0.482,0.801-0.865,1.339-1.149c0.538-0.283,1.124-0.425,1.759-0.425H30.9c0.525,0,1.021,0.1,1.486,0.298
		c0.465,0.199,0.871,0.473,1.219,0.819c0.347,0.347,0.619,0.753,0.818,1.219s0.299,0.96,0.299,1.485v9.433L33.16,101.122
		L33.16,101.122z"/>
	<path fill="#144B8B" d="M46.23,99.04c-0.199,0.466-0.472,0.872-0.818,1.219c-0.348,0.347-0.754,0.62-1.219,0.819
		c-0.466,0.198-0.961,0.298-1.486,0.298h-1.041c-0.524,0-1.02-0.1-1.484-0.298c-0.466-0.199-0.872-0.473-1.219-0.819
		c-0.348-0.347-0.621-0.753-0.819-1.219s-0.298-0.96-0.298-1.485V91.69c0-0.525,0.1-1.02,0.298-1.485s0.472-0.872,0.819-1.219
		s0.753-0.62,1.219-0.819c0.465-0.198,0.96-0.298,1.484-0.298h1.041c0.525,0,1.021,0.1,1.486,0.298
		c0.465,0.199,0.871,0.473,1.219,0.819c0.347,0.347,0.619,0.753,0.818,1.219s0.299,0.96,0.299,1.485v0.521l-1.563,0.254v-0.863
		c0-0.313-0.059-0.607-0.178-0.882c-0.118-0.275-0.279-0.515-0.482-0.718s-0.441-0.364-0.717-0.482s-0.569-0.178-0.883-0.178h-1.041
		c-0.313,0-0.607,0.06-0.882,0.178s-0.515,0.279-0.718,0.482s-0.363,0.442-0.482,0.718c-0.118,0.274-0.178,0.568-0.178,0.882v6.043
		c0,0.313,0.06,0.607,0.178,0.882c0.119,0.275,0.279,0.515,0.482,0.718s0.443,0.364,0.718,0.482s0.569,0.178,0.882,0.178h1.041
		c0.313,0,0.607-0.06,0.883-0.178s0.514-0.279,0.717-0.482s0.364-0.442,0.482-0.718c0.119-0.274,0.178-0.568,0.178-0.882V96.78
		l1.563,0.254v0.521C46.529,98.08,46.43,98.574,46.23,99.04z"/>
	<path fill="#144B8B" d="M50.045,84.999v-2.082h1.816v2.082H50.045z M50.172,101.122v-13h1.563v13H50.172z"/>
	<path fill="#144B8B" d="M63.763,99.04c-0.198,0.466-0.472,0.872-0.819,1.219s-0.753,0.62-1.219,0.819
		c-0.465,0.198-0.96,0.298-1.484,0.298h-0.395c-0.584,0-1.125-0.118-1.625-0.355c-0.499-0.237-0.926-0.567-1.281-0.99v6.297h-1.563
		V88.122h0.521l0.85,1.32c0.355-0.482,0.803-0.865,1.34-1.149c0.537-0.283,1.123-0.425,1.758-0.425h0.395
		c0.524,0,1.02,0.1,1.484,0.298c0.466,0.199,0.872,0.473,1.219,0.819c0.348,0.347,0.621,0.753,0.819,1.219s0.298,0.96,0.298,1.485
		v5.865C64.061,98.08,63.961,98.574,63.763,99.04z M62.5,91.601c0-0.313-0.06-0.607-0.178-0.882
		c-0.119-0.275-0.279-0.515-0.482-0.718s-0.443-0.364-0.718-0.482s-0.569-0.178-0.882-0.178h-1.041c-0.313,0-0.607,0.06-0.883,0.178
		s-0.514,0.279-0.717,0.482s-0.364,0.442-0.482,0.718c-0.119,0.274-0.178,0.568-0.178,0.882v6.043c0,0.313,0.059,0.607,0.178,0.882
		c0.118,0.275,0.279,0.515,0.482,0.718s0.441,0.364,0.717,0.482s0.569,0.178,0.883,0.178h1.041c0.313,0,0.607-0.06,0.882-0.178
		s0.515-0.279,0.718-0.482s0.363-0.442,0.482-0.718c0.118-0.274,0.178-0.568,0.178-0.882V91.601z"/>
	<path fill="#144B8B" d="M67.578,84.999v-2.082h1.814v2.082H67.578z M67.705,101.122v-13h1.561v13H67.705z"/>
	<path fill="#144B8B" d="M81.295,99.04c-0.199,0.466-0.472,0.872-0.818,1.219c-0.348,0.347-0.754,0.62-1.219,0.819
		c-0.466,0.198-0.961,0.298-1.486,0.298H76.73c-0.524,0-1.02-0.1-1.484-0.298c-0.466-0.199-0.872-0.473-1.219-0.819
		c-0.348-0.347-0.621-0.753-0.819-1.219s-0.298-0.96-0.298-1.485V91.69c0-0.525,0.1-1.02,0.298-1.485s0.472-0.872,0.819-1.219
		s0.753-0.62,1.219-0.819c0.465-0.198,0.96-0.298,1.484-0.298h1.041c0.525,0,1.021,0.1,1.486,0.298
		c0.465,0.199,0.871,0.473,1.219,0.819c0.347,0.347,0.619,0.753,0.818,1.219s0.299,0.96,0.299,1.485v5.865
		C81.594,98.08,81.494,98.574,81.295,99.04z M80.031,91.601c0-0.313-0.059-0.607-0.178-0.882c-0.118-0.275-0.279-0.515-0.482-0.718
		s-0.441-0.364-0.717-0.482s-0.569-0.178-0.883-0.178H76.73c-0.313,0-0.607,0.06-0.882,0.178s-0.515,0.279-0.718,0.482
		s-0.363,0.442-0.482,0.718c-0.118,0.274-0.178,0.568-0.178,0.882v6.043c0,0.313,0.06,0.607,0.178,0.882
		c0.119,0.275,0.279,0.515,0.482,0.718s0.443,0.364,0.718,0.482s0.569,0.178,0.882,0.178h1.041c0.313,0,0.607-0.06,0.883-0.178
		s0.514-0.279,0.717-0.482s0.364-0.442,0.482-0.718c0.119-0.274,0.178-0.568,0.178-0.882L80.031,91.601L80.031,91.601z"/>
	<path fill="#144B8B" d="M93.654,97.821c0,0.524-0.106,1.005-0.318,1.44c-0.211,0.437-0.499,0.811-0.863,1.124
		c-0.363,0.313-0.785,0.557-1.263,0.729c-0.478,0.174-0.979,0.261-1.505,0.261h-1.041c-0.524,0-1.025-0.1-1.504-0.298
		c-0.479-0.199-0.896-0.473-1.257-0.819s-0.647-0.753-0.863-1.219s-0.323-0.96-0.323-1.485v-0.521l1.561-0.254v0.863
		c0,0.313,0.066,0.607,0.197,0.882s0.307,0.515,0.527,0.718s0.474,0.364,0.762,0.482c0.287,0.118,0.588,0.178,0.9,0.178h1.041
		c0.313,0,0.614-0.046,0.902-0.14c0.287-0.094,0.543-0.227,0.768-0.4c0.225-0.173,0.402-0.383,0.533-0.628s0.197-0.524,0.197-0.838
		c0-0.466-0.102-0.847-0.305-1.143s-0.473-0.544-0.807-0.743c-0.334-0.198-0.715-0.363-1.143-0.494
		c-0.428-0.132-0.865-0.263-1.314-0.395c-0.448-0.131-0.887-0.281-1.313-0.45s-0.808-0.392-1.143-0.667
		c-0.335-0.274-0.603-0.619-0.806-1.034s-0.305-0.931-0.305-1.549c0-0.524,0.102-1.005,0.305-1.44
		c0.203-0.437,0.478-0.811,0.824-1.124c0.348-0.313,0.752-0.557,1.213-0.729c0.461-0.174,0.954-0.261,1.479-0.261h0.914
		c0.525,0,1.021,0.1,1.486,0.298c0.465,0.199,0.871,0.473,1.219,0.819c0.347,0.347,0.619,0.753,0.818,1.219s0.299,0.96,0.299,1.485
		v0.051l-1.563,0.254v-0.394c0-0.313-0.059-0.607-0.178-0.882c-0.118-0.275-0.279-0.515-0.482-0.718s-0.441-0.364-0.717-0.482
		s-0.569-0.178-0.883-0.178h-0.914c-0.313,0-0.607,0.046-0.882,0.14s-0.515,0.227-0.718,0.4c-0.203,0.173-0.363,0.383-0.482,0.628
		c-0.118,0.245-0.178,0.524-0.178,0.838c0,0.448,0.102,0.814,0.305,1.099c0.203,0.283,0.473,0.521,0.807,0.717
		s0.715,0.357,1.143,0.488c0.428,0.132,0.863,0.268,1.308,0.406c0.444,0.141,0.88,0.299,1.308,0.477s0.809,0.406,1.143,0.686
		s0.604,0.629,0.807,1.047C93.553,96.686,93.654,97.203,93.654,97.821z"/>
	<path fill="#144B8B" d="M111.015,99.04c-0.198,0.466-0.472,0.872-0.819,1.219s-0.753,0.62-1.219,0.819
		c-0.465,0.198-0.96,0.298-1.484,0.298h-1.041c-0.525,0-1.021-0.1-1.486-0.298c-0.465-0.199-0.871-0.473-1.219-0.819
		c-0.347-0.347-0.619-0.753-0.818-1.219s-0.299-0.96-0.299-1.485V82.917h1.563v6.297c0.355-0.423,0.782-0.753,1.281-0.99
		c0.5-0.237,1.041-0.355,1.625-0.355h0.395c0.524,0,1.02,0.1,1.484,0.298c0.466,0.199,0.872,0.473,1.219,0.819
		c0.348,0.347,0.621,0.753,0.819,1.219s0.298,0.96,0.298,1.485v5.865C111.313,98.08,111.213,98.574,111.015,99.04z M109.752,91.601
		c0-0.313-0.06-0.607-0.178-0.882c-0.119-0.275-0.279-0.515-0.482-0.718s-0.443-0.364-0.718-0.482s-0.569-0.178-0.882-0.178h-1.041
		c-0.313,0-0.607,0.06-0.883,0.178s-0.514,0.279-0.717,0.482s-0.364,0.442-0.482,0.718c-0.119,0.274-0.178,0.568-0.178,0.882v6.043
		c0,0.313,0.059,0.607,0.178,0.882c0.118,0.275,0.279,0.515,0.482,0.718s0.441,0.364,0.717,0.482s0.569,0.178,0.883,0.178h1.041
		c0.313,0,0.607-0.06,0.882-0.178s0.515-0.279,0.718-0.482s0.363-0.442,0.482-0.718c0.118-0.274,0.178-0.568,0.178-0.882V91.601z"/>
	<path fill="#144B8B" d="M122.6,101.122l-0.863-1.295c-0.355,0.466-0.801,0.84-1.334,1.124c-0.533,0.283-1.117,0.425-1.752,0.425
		h-0.393c-0.525,0-1.021-0.1-1.486-0.298c-0.465-0.199-0.871-0.473-1.219-0.819c-0.347-0.347-0.619-0.753-0.818-1.219
		s-0.299-0.96-0.299-1.485v-0.127c0-0.525,0.1-1.02,0.299-1.485s0.472-0.872,0.818-1.219c0.348-0.347,0.754-0.62,1.219-0.819
		c0.466-0.198,0.961-0.298,1.486-0.298h3.301v-2.006c0-0.313-0.06-0.607-0.178-0.882c-0.119-0.275-0.279-0.515-0.482-0.718
		s-0.443-0.364-0.718-0.482s-0.569-0.178-0.882-0.178h-0.914c-0.313,0-0.607,0.06-0.883,0.178s-0.514,0.279-0.717,0.482
		s-0.364,0.442-0.482,0.718c-0.119,0.274-0.178,0.568-0.178,0.882v0.47l-1.563-0.254V91.69c0-0.525,0.1-1.02,0.299-1.485
		s0.472-0.872,0.818-1.219c0.348-0.347,0.754-0.62,1.219-0.819c0.466-0.198,0.961-0.298,1.486-0.298h0.914
		c0.524,0,1.02,0.1,1.484,0.298c0.466,0.199,0.872,0.473,1.219,0.819c0.348,0.347,0.621,0.753,0.819,1.219s0.298,0.96,0.298,1.485
		v9.433L122.6,101.122L122.6,101.122z M121.559,94.825h-3.301c-0.313,0-0.607,0.06-0.883,0.178s-0.514,0.281-0.717,0.489
		c-0.203,0.207-0.364,0.448-0.482,0.723c-0.119,0.275-0.178,0.57-0.178,0.883v0.546c0,0.313,0.059,0.607,0.178,0.882
		c0.118,0.275,0.279,0.515,0.482,0.718s0.441,0.364,0.717,0.482s0.569,0.178,0.883,0.178h1.041c0.313,0,0.607-0.06,0.882-0.178
		s0.515-0.279,0.718-0.482s0.363-0.442,0.482-0.718c0.118-0.274,0.178-0.568,0.178-0.882
		C121.559,97.644,121.559,94.825,121.559,94.825z M118.131,86.04h-1.168l2.068-3.123h2.604L118.131,86.04z"/>
	<path fill="#144B8B" d="M135.18,97.821c0,0.524-0.105,1.005-0.316,1.44c-0.212,0.437-0.5,0.811-0.863,1.124
		c-0.364,0.313-0.785,0.557-1.264,0.729c-0.479,0.174-0.979,0.261-1.504,0.261h-1.041c-0.525,0-1.027-0.1-1.505-0.298
		c-0.478-0.199-0.897-0.473-1.257-0.819s-0.647-0.753-0.863-1.219s-0.324-0.96-0.324-1.485v-0.521l1.563-0.254v0.863
		c0,0.313,0.064,0.607,0.196,0.882c0.132,0.275,0.307,0.515,0.526,0.718c0.221,0.203,0.475,0.364,0.762,0.482
		c0.288,0.118,0.589,0.178,0.902,0.178h1.041c0.313,0,0.613-0.046,0.9-0.14c0.288-0.094,0.545-0.227,0.769-0.4
		c0.224-0.173,0.401-0.383,0.533-0.628s0.196-0.524,0.196-0.838c0-0.466-0.102-0.847-0.305-1.143s-0.471-0.544-0.806-0.743
		c-0.335-0.198-0.716-0.363-1.143-0.494c-0.427-0.132-0.865-0.263-1.313-0.395c-0.449-0.131-0.887-0.281-1.314-0.45
		s-0.809-0.392-1.143-0.667c-0.334-0.274-0.604-0.619-0.807-1.034s-0.305-0.931-0.305-1.549c0-0.524,0.102-1.005,0.305-1.44
		c0.203-0.437,0.479-0.811,0.826-1.124s0.75-0.557,1.212-0.729c0.462-0.174,0.954-0.261,1.479-0.261h0.914
		c0.524,0,1.02,0.1,1.484,0.298c0.466,0.199,0.872,0.473,1.219,0.819c0.348,0.347,0.621,0.753,0.819,1.219s0.298,0.96,0.298,1.485
		v0.051l-1.561,0.254v-0.394c0-0.313-0.06-0.607-0.178-0.882c-0.119-0.275-0.279-0.515-0.482-0.718s-0.443-0.364-0.718-0.482
		s-0.569-0.178-0.882-0.178h-0.914c-0.313,0-0.607,0.046-0.883,0.14s-0.514,0.227-0.717,0.4c-0.203,0.173-0.364,0.383-0.482,0.628
		c-0.119,0.245-0.178,0.524-0.178,0.838c0,0.448,0.102,0.814,0.305,1.099c0.203,0.283,0.471,0.521,0.806,0.717
		s0.716,0.357,1.143,0.488c0.427,0.132,0.863,0.268,1.308,0.406c0.444,0.141,0.881,0.299,1.308,0.477s0.808,0.406,1.143,0.686
		s0.603,0.629,0.806,1.047C135.078,96.686,135.18,97.203,135.18,97.821z"/>
	<path fill="#144B8B" d="M138.57,84.999v-2.082h1.814v2.082H138.57z M138.697,101.122v-13h1.561v13H138.697z"/>
	<path fill="#144B8B" d="M152.287,99.04c-0.199,0.466-0.472,0.872-0.818,1.219c-0.348,0.347-0.754,0.62-1.219,0.819
		c-0.466,0.198-0.961,0.298-1.486,0.298h-1.041c-0.524,0-1.02-0.1-1.484-0.298c-0.466-0.199-0.872-0.473-1.219-0.819
		c-0.348-0.347-0.621-0.753-0.819-1.219s-0.298-0.96-0.298-1.485V91.69c0-0.525,0.1-1.02,0.298-1.485s0.472-0.872,0.819-1.219
		s0.753-0.62,1.219-0.819c0.465-0.198,0.96-0.298,1.484-0.298h1.041c0.525,0,1.021,0.1,1.486,0.298
		c0.465,0.199,0.871,0.473,1.219,0.819c0.347,0.347,0.619,0.753,0.818,1.219s0.299,0.96,0.299,1.485v0.521l-1.563,0.254v-0.863
		c0-0.313-0.059-0.607-0.178-0.882c-0.118-0.275-0.279-0.515-0.482-0.718s-0.441-0.364-0.717-0.482s-0.569-0.178-0.883-0.178h-1.041
		c-0.313,0-0.607,0.06-0.882,0.178s-0.515,0.279-0.718,0.482s-0.363,0.442-0.482,0.718c-0.118,0.274-0.178,0.568-0.178,0.882v6.043
		c0,0.313,0.06,0.607,0.178,0.882c0.119,0.275,0.279,0.515,0.482,0.718s0.443,0.364,0.718,0.482s0.569,0.178,0.882,0.178h1.041
		c0.313,0,0.607-0.06,0.883-0.178s0.514-0.279,0.717-0.482s0.364-0.442,0.482-0.718c0.119-0.274,0.178-0.568,0.178-0.882V96.78
		l1.563,0.254v0.521C152.586,98.08,152.486,98.574,152.287,99.04z"/>
	<path fill="#144B8B" d="M164.094,99.04c-0.199,0.466-0.472,0.872-0.818,1.219c-0.348,0.347-0.754,0.62-1.219,0.819
		c-0.466,0.198-0.961,0.298-1.486,0.298h-1.041c-0.524,0-1.02-0.1-1.484-0.298c-0.466-0.199-0.872-0.473-1.219-0.819
		c-0.348-0.347-0.621-0.753-0.819-1.219s-0.298-0.96-0.298-1.485V91.69c0-0.525,0.1-1.02,0.298-1.485s0.472-0.872,0.819-1.219
		s0.753-0.62,1.219-0.819c0.465-0.198,0.96-0.298,1.484-0.298h1.041c0.525,0,1.021,0.1,1.486,0.298
		c0.465,0.199,0.871,0.473,1.219,0.819c0.347,0.347,0.619,0.753,0.818,1.219s0.299,0.96,0.299,1.485v5.865
		C164.393,98.08,164.293,98.574,164.094,99.04z M162.83,91.601c0-0.313-0.059-0.607-0.178-0.882
		c-0.118-0.275-0.279-0.515-0.482-0.718s-0.441-0.364-0.717-0.482s-0.569-0.178-0.883-0.178h-1.041c-0.313,0-0.607,0.06-0.882,0.178
		s-0.515,0.279-0.718,0.482s-0.363,0.442-0.482,0.718c-0.118,0.274-0.178,0.568-0.178,0.882v6.043c0,0.313,0.06,0.607,0.178,0.882
		c0.119,0.275,0.279,0.515,0.482,0.718s0.443,0.364,0.718,0.482s0.569,0.178,0.882,0.178h1.041c0.313,0,0.607-0.06,0.883-0.178
		s0.514-0.279,0.717-0.482s0.364-0.442,0.482-0.718c0.119-0.274,0.178-0.568,0.178-0.882V91.601z"/>
	<path fill="#144B8B" d="M176.453,97.821c0,0.524-0.106,1.005-0.318,1.44c-0.211,0.437-0.499,0.811-0.863,1.124
		c-0.363,0.313-0.785,0.557-1.263,0.729c-0.478,0.174-0.979,0.261-1.505,0.261h-1.041c-0.524,0-1.025-0.1-1.504-0.298
		c-0.479-0.199-0.896-0.473-1.257-0.819s-0.647-0.753-0.863-1.219s-0.323-0.96-0.323-1.485v-0.521l1.561-0.254v0.863
		c0,0.313,0.066,0.607,0.197,0.882c0.131,0.275,0.307,0.515,0.527,0.718c0.22,0.203,0.474,0.364,0.762,0.482
		c0.287,0.118,0.588,0.178,0.9,0.178h1.041c0.313,0,0.614-0.046,0.902-0.14c0.287-0.094,0.543-0.227,0.768-0.4
		c0.225-0.173,0.402-0.383,0.533-0.628s0.197-0.524,0.197-0.838c0-0.466-0.102-0.847-0.305-1.143s-0.473-0.544-0.807-0.743
		c-0.334-0.198-0.715-0.363-1.143-0.494c-0.428-0.132-0.865-0.263-1.314-0.395c-0.448-0.131-0.887-0.281-1.313-0.45
		s-0.808-0.392-1.143-0.667c-0.335-0.274-0.603-0.619-0.806-1.034s-0.305-0.931-0.305-1.549c0-0.524,0.102-1.005,0.305-1.44
		c0.203-0.437,0.478-0.811,0.824-1.124c0.348-0.313,0.752-0.557,1.213-0.729c0.461-0.174,0.954-0.261,1.479-0.261h0.914
		c0.525,0,1.021,0.1,1.486,0.298c0.465,0.199,0.871,0.473,1.219,0.819c0.347,0.347,0.619,0.753,0.818,1.219s0.299,0.96,0.299,1.485
		v0.051l-1.563,0.254v-0.394c0-0.313-0.059-0.607-0.178-0.882c-0.118-0.275-0.279-0.515-0.482-0.718s-0.441-0.364-0.717-0.482
		s-0.569-0.178-0.883-0.178h-0.914c-0.313,0-0.607,0.046-0.882,0.14s-0.515,0.227-0.718,0.4c-0.203,0.173-0.363,0.383-0.482,0.628
		c-0.118,0.245-0.178,0.524-0.178,0.838c0,0.448,0.102,0.814,0.305,1.099c0.203,0.283,0.473,0.521,0.807,0.717
		s0.715,0.357,1.143,0.488c0.428,0.132,0.863,0.268,1.308,0.406c0.444,0.141,0.88,0.299,1.308,0.477s0.809,0.406,1.143,0.686
		s0.604,0.629,0.807,1.047C176.352,96.686,176.453,97.203,176.453,97.821z"/>
	<path fill="#144B8B" d="M193.592,101.122l-0.863-1.32c-0.355,0.482-0.801,0.865-1.334,1.149c-0.533,0.283-1.117,0.425-1.752,0.425
		h-0.393c-0.525,0-1.021-0.1-1.486-0.298c-0.465-0.199-0.871-0.473-1.219-0.819c-0.347-0.347-0.619-0.753-0.818-1.219
		s-0.299-0.96-0.299-1.485V91.69c0-0.525,0.1-1.02,0.299-1.485s0.472-0.872,0.818-1.219c0.348-0.347,0.754-0.62,1.219-0.819
		c0.466-0.198,0.961-0.298,1.486-0.298h0.393c0.584,0,1.126,0.118,1.625,0.355c0.5,0.237,0.928,0.567,1.283,0.99v-6.297h1.561
		v18.205L193.592,101.122L193.592,101.122z M192.551,91.601c0-0.313-0.06-0.607-0.178-0.882c-0.119-0.275-0.279-0.515-0.482-0.718
		s-0.443-0.364-0.718-0.482s-0.569-0.178-0.882-0.178h-1.041c-0.313,0-0.607,0.06-0.883,0.178s-0.514,0.279-0.717,0.482
		s-0.364,0.442-0.482,0.718c-0.119,0.274-0.178,0.568-0.178,0.882v6.043c0,0.313,0.059,0.607,0.178,0.882
		c0.118,0.275,0.279,0.515,0.482,0.718s0.441,0.364,0.717,0.482s0.569,0.178,0.883,0.178h1.041c0.313,0,0.607-0.06,0.882-0.178
		s0.515-0.279,0.718-0.482s0.363-0.442,0.482-0.718c0.118-0.274,0.178-0.568,0.178-0.882V91.601z"/>
	<path fill="#144B8B" d="M205.62,99.04c-0.198,0.466-0.472,0.872-0.819,1.219s-0.753,0.62-1.219,0.819
		c-0.465,0.198-0.96,0.298-1.484,0.298h-1.041c-0.525,0-1.021-0.1-1.486-0.298c-0.465-0.199-0.871-0.473-1.219-0.819
		c-0.347-0.347-0.619-0.753-0.818-1.219s-0.299-0.96-0.299-1.485V91.69c0-0.525,0.1-1.02,0.299-1.485s0.472-0.872,0.818-1.219
		c0.348-0.347,0.754-0.62,1.219-0.819c0.466-0.198,0.961-0.298,1.486-0.298h1.041c0.524,0,1.02,0.1,1.484,0.298
		c0.466,0.199,0.872,0.473,1.219,0.819c0.348,0.347,0.621,0.753,0.819,1.219s0.298,0.96,0.298,1.485v3.06h-7.121v2.895
		c0,0.313,0.059,0.607,0.178,0.882c0.118,0.275,0.279,0.515,0.482,0.718s0.441,0.364,0.717,0.482s0.569,0.178,0.883,0.178h1.041
		c0.313,0,0.607-0.06,0.882-0.178s0.515-0.279,0.718-0.482s0.363-0.442,0.482-0.718c0.118-0.274,0.178-0.568,0.178-0.882V96.78
		l1.561,0.254v0.521C205.918,98.08,205.818,98.574,205.62,99.04z M204.357,91.601c0-0.313-0.06-0.607-0.178-0.882
		c-0.119-0.275-0.279-0.515-0.482-0.718s-0.443-0.364-0.718-0.482s-0.569-0.178-0.882-0.178h-1.041c-0.313,0-0.607,0.06-0.883,0.178
		s-0.514,0.279-0.717,0.482s-0.364,0.442-0.482,0.718c-0.119,0.274-0.178,0.568-0.178,0.882v1.93h5.561L204.357,91.601
		L204.357,91.601z"/>
	<path fill="#144B8B" d="M215.541,101.122V82.917h1.563v18.205H215.541z"/>
	<path fill="#144B8B" d="M228.91,101.122l-0.863-1.295c-0.355,0.466-0.801,0.84-1.334,1.124c-0.533,0.283-1.117,0.425-1.752,0.425
		h-0.393c-0.525,0-1.021-0.1-1.486-0.298c-0.465-0.199-0.871-0.473-1.219-0.819c-0.347-0.347-0.619-0.753-0.818-1.219
		s-0.299-0.96-0.299-1.485v-0.127c0-0.525,0.1-1.02,0.299-1.485s0.472-0.872,0.818-1.219c0.348-0.347,0.754-0.62,1.219-0.819
		c0.466-0.198,0.961-0.298,1.486-0.298h3.301v-2.006c0-0.313-0.06-0.607-0.178-0.882c-0.119-0.275-0.279-0.515-0.482-0.718
		s-0.443-0.364-0.718-0.482s-0.569-0.178-0.882-0.178h-0.914c-0.313,0-0.607,0.06-0.883,0.178s-0.514,0.279-0.717,0.482
		s-0.364,0.442-0.482,0.718c-0.119,0.274-0.178,0.568-0.178,0.882v0.47l-1.563-0.254V91.69c0-0.525,0.1-1.02,0.299-1.485
		s0.472-0.872,0.818-1.219c0.348-0.347,0.754-0.62,1.219-0.819c0.466-0.198,0.961-0.298,1.486-0.298h0.914
		c0.524,0,1.02,0.1,1.484,0.298c0.466,0.199,0.872,0.473,1.219,0.819c0.348,0.347,0.621,0.753,0.819,1.219s0.298,0.96,0.298,1.485
		v9.433L228.91,101.122L228.91,101.122L228.91,101.122z M227.869,94.825h-3.301c-0.313,0-0.607,0.06-0.883,0.178
		s-0.514,0.281-0.717,0.489c-0.203,0.207-0.364,0.448-0.482,0.723c-0.119,0.275-0.178,0.57-0.178,0.883v0.546
		c0,0.313,0.059,0.607,0.178,0.882c0.118,0.275,0.279,0.515,0.482,0.718s0.441,0.364,0.717,0.482s0.569,0.178,0.883,0.178h1.041
		c0.313,0,0.607-0.06,0.882-0.178s0.515-0.279,0.718-0.482s0.363-0.442,0.482-0.718c0.118-0.274,0.178-0.568,0.178-0.882V94.825z"/>
	<path fill="#144B8B" d="M247.045,104.207c-0.199,0.439-0.472,0.816-0.818,1.13c-0.348,0.313-0.754,0.557-1.219,0.729
		c-0.466,0.174-0.961,0.261-1.486,0.261h-0.646c-0.525,0-1.021-0.087-1.486-0.261c-0.465-0.173-0.871-0.416-1.219-0.729
		c-0.347-0.313-0.619-0.69-0.818-1.13s-0.299-0.922-0.299-1.447v-0.051c0-0.508,0.094-0.973,0.279-1.396
		c0.187-0.424,0.44-0.791,0.762-1.104c-0.406-0.245-0.729-0.577-0.971-0.997c-0.241-0.418-0.361-0.882-0.361-1.39
		c0-0.457,0.097-0.882,0.291-1.276c0.195-0.393,0.462-0.713,0.801-0.958c-0.406-0.355-0.729-0.782-0.965-1.282
		c-0.237-0.5-0.355-1.045-0.355-1.638V91.69c0-0.525,0.1-1.02,0.298-1.485s0.472-0.872,0.819-1.219s0.753-0.62,1.219-0.819
		c0.465-0.198,0.96-0.298,1.484-0.298h0.648c0.635,0,1.221,0.142,1.758,0.425c0.537,0.284,0.984,0.667,1.34,1.149l0.85-1.32h0.521
		v4.545c0,0.524-0.1,1.021-0.299,1.485s-0.472,0.871-0.818,1.219c-0.348,0.348-0.754,0.62-1.219,0.818
		c-0.466,0.199-0.961,0.299-1.486,0.299h-2.26c-0.178,0-0.347,0.036-0.508,0.107c-0.16,0.072-0.303,0.168-0.425,0.286
		s-0.218,0.261-0.286,0.425c-0.067,0.166-0.102,0.337-0.102,0.515s0.034,0.347,0.102,0.508c0.068,0.161,0.164,0.303,0.286,0.425
		c0.122,0.123,0.265,0.219,0.425,0.286c0.161,0.067,0.33,0.102,0.508,0.102h2.133c0.525,0,1.021,0.087,1.486,0.261
		c0.465,0.173,0.871,0.416,1.219,0.729c0.347,0.313,0.619,0.69,0.818,1.13s0.299,0.922,0.299,1.447v0.051
		C247.344,103.285,247.244,103.768,247.045,104.207z M245.922,91.601c0-0.313-0.06-0.607-0.178-0.882
		c-0.119-0.275-0.281-0.515-0.489-0.718s-0.448-0.364-0.724-0.482s-0.569-0.178-0.883-0.178h-1.295c-0.313,0-0.607,0.06-0.882,0.178
		s-0.515,0.279-0.718,0.482s-0.363,0.442-0.482,0.718c-0.118,0.274-0.178,0.568-0.178,0.882v1.155c0,0.313,0.06,0.607,0.178,0.883
		c0.119,0.274,0.279,0.514,0.482,0.717s0.443,0.363,0.718,0.482s0.569,0.178,0.882,0.178h1.295c0.313,0,0.607-0.059,0.883-0.178
		s0.516-0.279,0.724-0.482s0.37-0.442,0.489-0.717c0.118-0.275,0.178-0.57,0.178-0.883V91.601z M245.857,102.633
		c0-0.313-0.059-0.595-0.178-0.844c-0.118-0.25-0.279-0.459-0.482-0.629s-0.441-0.301-0.717-0.394s-0.569-0.14-0.883-0.14h-0.799
		c-0.313,0-0.607,0.047-0.883,0.14s-0.514,0.224-0.717,0.394s-0.364,0.379-0.482,0.629c-0.119,0.249-0.178,0.531-0.178,0.844v0.203
		c0,0.313,0.059,0.592,0.178,0.838c0.118,0.246,0.279,0.455,0.482,0.629c0.203,0.173,0.441,0.307,0.717,0.399s0.569,0.14,0.883,0.14
		h0.799c0.313,0,0.607-0.047,0.883-0.14s0.514-0.227,0.717-0.399c0.203-0.174,0.364-0.383,0.482-0.629
		c0.119-0.246,0.178-0.525,0.178-0.838V102.633z"/>
	<path fill="#144B8B" d="M258.725,99.04c-0.199,0.466-0.472,0.872-0.818,1.219c-0.348,0.347-0.754,0.62-1.219,0.819
		c-0.466,0.198-0.961,0.298-1.486,0.298h-1.041c-0.524,0-1.02-0.1-1.484-0.298c-0.466-0.199-0.872-0.473-1.219-0.819
		c-0.348-0.347-0.621-0.753-0.819-1.219s-0.298-0.96-0.298-1.485V91.69c0-0.525,0.1-1.02,0.298-1.485s0.472-0.872,0.819-1.219
		s0.753-0.62,1.219-0.819c0.465-0.198,0.96-0.298,1.484-0.298h1.041c0.525,0,1.021,0.1,1.486,0.298
		c0.465,0.199,0.871,0.473,1.219,0.819c0.347,0.347,0.619,0.753,0.818,1.219s0.299,0.96,0.299,1.485v3.06H251.9v2.895
		c0,0.313,0.06,0.607,0.178,0.882c0.119,0.275,0.279,0.515,0.482,0.718s0.443,0.364,0.718,0.482s0.569,0.178,0.882,0.178h1.041
		c0.313,0,0.607-0.06,0.883-0.178s0.514-0.279,0.717-0.482s0.364-0.442,0.482-0.718c0.119-0.274,0.178-0.568,0.178-0.882V96.78
		l1.563,0.254v0.521C259.023,98.08,258.924,98.574,258.725,99.04z M257.461,91.601c0-0.313-0.059-0.607-0.178-0.882
		c-0.118-0.275-0.279-0.515-0.482-0.718s-0.441-0.364-0.717-0.482s-0.569-0.178-0.883-0.178h-1.041c-0.313,0-0.607,0.06-0.882,0.178
		s-0.515,0.279-0.718,0.482s-0.363,0.442-0.482,0.718c-0.118,0.274-0.178,0.568-0.178,0.882v1.93h5.561V91.601z"/>
	<path fill="#144B8B" d="M265.967,89.607c-0.313,0-0.607,0.059-0.882,0.178s-0.515,0.279-0.718,0.482s-0.363,0.442-0.482,0.717
		c-0.118,0.275-0.178,0.57-0.178,0.883v9.255h-1.561v-13h0.52l0.852,1.32c0.355-0.482,0.801-0.865,1.339-1.149
		c0.538-0.283,1.124-0.425,1.759-0.425h0.914v1.739H265.967z"/>
	<path fill="#144B8B" d="M277.996,99.04c-0.199,0.466-0.472,0.872-0.818,1.219c-0.348,0.347-0.754,0.62-1.219,0.819
		c-0.466,0.198-0.961,0.298-1.486,0.298h-1.041c-0.524,0-1.02-0.1-1.484-0.298c-0.466-0.199-0.872-0.473-1.219-0.819
		c-0.348-0.347-0.621-0.753-0.819-1.219s-0.298-0.96-0.298-1.485V91.69c0-0.525,0.1-1.02,0.298-1.485s0.472-0.872,0.819-1.219
		c0.347-0.347,0.753-0.62,1.219-0.819c0.465-0.198,0.96-0.298,1.484-0.298h1.041c0.525,0,1.021,0.1,1.486,0.298
		c0.465,0.199,0.871,0.473,1.219,0.819c0.347,0.347,0.619,0.753,0.818,1.219s0.299,0.96,0.299,1.485v3.06h-7.123v2.895
		c0,0.313,0.06,0.607,0.178,0.882c0.119,0.275,0.279,0.515,0.482,0.718s0.443,0.364,0.718,0.482s0.569,0.178,0.882,0.178h1.041
		c0.313,0,0.607-0.06,0.883-0.178s0.514-0.279,0.717-0.482s0.364-0.442,0.482-0.718c0.119-0.274,0.178-0.568,0.178-0.882V96.78
		l1.563,0.254v0.521C278.295,98.08,278.195,98.574,277.996,99.04z M276.732,91.601c0-0.313-0.059-0.607-0.178-0.882
		c-0.118-0.275-0.279-0.515-0.482-0.718s-0.441-0.364-0.717-0.482s-0.569-0.178-0.883-0.178h-1.041c-0.313,0-0.607,0.06-0.882,0.178
		s-0.515,0.279-0.718,0.482s-0.363,0.442-0.482,0.718c-0.118,0.274-0.178,0.568-0.178,0.882v1.93h5.561L276.732,91.601
		L276.732,91.601z"/>
	<path fill="#144B8B" d="M288.539,101.122v-9.521c0-0.313-0.059-0.607-0.178-0.882c-0.118-0.275-0.279-0.515-0.482-0.718
		s-0.441-0.364-0.717-0.482s-0.569-0.178-0.883-0.178h-1.041c-0.313,0-0.607,0.06-0.882,0.178s-0.515,0.279-0.718,0.482
		s-0.363,0.442-0.482,0.718c-0.118,0.274-0.178,0.568-0.178,0.882v9.521h-1.561v-13h0.52l0.852,1.32
		c0.355-0.482,0.801-0.865,1.339-1.149c0.538-0.283,1.124-0.425,1.759-0.425h0.393c0.525,0,1.021,0.1,1.486,0.298
		c0.465,0.199,0.871,0.473,1.219,0.819c0.347,0.347,0.619,0.753,0.818,1.219s0.299,0.96,0.299,1.485v9.433L288.539,101.122
		L288.539,101.122z"/>
	<path fill="#144B8B" d="M301.609,99.04c-0.199,0.466-0.472,0.872-0.818,1.219c-0.348,0.347-0.754,0.62-1.219,0.819
		c-0.466,0.198-0.961,0.298-1.486,0.298h-1.041c-0.524,0-1.02-0.1-1.484-0.298c-0.466-0.199-0.872-0.473-1.219-0.819
		c-0.348-0.347-0.621-0.753-0.819-1.219s-0.298-0.96-0.298-1.485V91.69c0-0.525,0.1-1.02,0.298-1.485s0.472-0.872,0.819-1.219
		c0.347-0.347,0.753-0.62,1.219-0.819c0.465-0.198,0.96-0.298,1.484-0.298h1.041c0.525,0,1.021,0.1,1.486,0.298
		c0.465,0.199,0.871,0.473,1.219,0.819c0.347,0.347,0.619,0.753,0.818,1.219s0.299,0.96,0.299,1.485v0.521l-1.563,0.254v-0.863
		c0-0.313-0.059-0.607-0.178-0.882c-0.118-0.275-0.279-0.515-0.482-0.718s-0.441-0.364-0.717-0.482s-0.569-0.178-0.883-0.178h-1.041
		c-0.313,0-0.607,0.06-0.882,0.178s-0.515,0.279-0.718,0.482s-0.363,0.442-0.482,0.718c-0.118,0.274-0.178,0.568-0.178,0.882v6.043
		c0,0.313,0.06,0.607,0.178,0.882c0.119,0.275,0.279,0.515,0.482,0.718s0.443,0.364,0.718,0.482s0.569,0.178,0.882,0.178h1.041
		c0.313,0,0.607-0.06,0.883-0.178s0.514-0.279,0.717-0.482s0.364-0.442,0.482-0.718c0.119-0.274,0.178-0.568,0.178-0.882V96.78
		l1.563,0.254v0.521C301.908,98.08,301.809,98.574,301.609,99.04z"/>
	<path fill="#144B8B" d="M305.424,84.999v-2.082h1.816v2.082H305.424z M305.551,101.122v-13h1.563v13H305.551z"/>
	<path fill="#144B8B" d="M318.92,101.122l-0.863-1.295c-0.355,0.466-0.801,0.84-1.334,1.124c-0.533,0.283-1.117,0.425-1.752,0.425
		h-0.393c-0.525,0-1.021-0.1-1.486-0.298c-0.465-0.199-0.871-0.473-1.219-0.819c-0.347-0.347-0.619-0.753-0.818-1.219
		s-0.299-0.96-0.299-1.485v-0.127c0-0.525,0.1-1.02,0.299-1.485s0.472-0.872,0.818-1.219c0.348-0.347,0.754-0.62,1.219-0.819
		c0.466-0.198,0.961-0.298,1.486-0.298h3.301v-2.006c0-0.313-0.06-0.607-0.178-0.882c-0.119-0.275-0.279-0.515-0.482-0.718
		s-0.443-0.364-0.718-0.482s-0.569-0.178-0.882-0.178h-0.914c-0.313,0-0.607,0.06-0.883,0.178s-0.514,0.279-0.717,0.482
		s-0.364,0.442-0.482,0.718c-0.119,0.274-0.178,0.568-0.178,0.882v0.47l-1.563-0.254V91.69c0-0.525,0.1-1.02,0.299-1.485
		s0.472-0.872,0.818-1.219c0.348-0.347,0.754-0.62,1.219-0.819c0.466-0.198,0.961-0.298,1.486-0.298h0.914
		c0.524,0,1.02,0.1,1.484,0.298c0.466,0.199,0.872,0.473,1.219,0.819c0.348,0.347,0.621,0.753,0.819,1.219s0.298,0.96,0.298,1.485
		v9.433L318.92,101.122L318.92,101.122L318.92,101.122z M317.879,94.825h-3.301c-0.313,0-0.607,0.06-0.883,0.178
		s-0.514,0.281-0.717,0.489c-0.203,0.207-0.364,0.448-0.482,0.723c-0.119,0.275-0.178,0.57-0.178,0.883v0.546
		c0,0.313,0.059,0.607,0.178,0.882c0.118,0.275,0.279,0.515,0.482,0.718s0.441,0.364,0.717,0.482s0.569,0.178,0.883,0.178h1.041
		c0.313,0,0.607-0.06,0.882-0.178s0.515-0.279,0.718-0.482s0.363-0.442,0.482-0.718c0.118-0.274,0.178-0.568,0.178-0.882
		L317.879,94.825L317.879,94.825z"/>
	<path fill="#144B8B" d="M336.705,101.122l-0.863-1.32c-0.355,0.482-0.799,0.865-1.332,1.149c-0.533,0.283-1.117,0.425-1.752,0.425
		h-0.395c-0.523,0-1.02-0.1-1.484-0.298c-0.467-0.199-0.873-0.473-1.219-0.819c-0.348-0.347-0.621-0.753-0.82-1.219
		c-0.197-0.466-0.297-0.96-0.297-1.485V91.69c0-0.525,0.1-1.02,0.297-1.485c0.199-0.466,0.473-0.872,0.82-1.219
		c0.346-0.347,0.752-0.62,1.219-0.819c0.465-0.198,0.961-0.298,1.484-0.298h0.395c0.584,0,1.125,0.118,1.625,0.355
		c0.498,0.237,0.926,0.567,1.281,0.99v-6.297h1.563v18.205L336.705,101.122L336.705,101.122z M335.664,91.601
		c0-0.313-0.059-0.607-0.178-0.882c-0.117-0.275-0.279-0.515-0.482-0.718s-0.441-0.364-0.717-0.482s-0.568-0.178-0.883-0.178h-1.041
		c-0.313,0-0.607,0.06-0.883,0.178c-0.273,0.118-0.514,0.279-0.717,0.482s-0.363,0.442-0.482,0.718
		c-0.117,0.274-0.178,0.568-0.178,0.882v6.043c0,0.313,0.061,0.607,0.178,0.882c0.119,0.275,0.279,0.515,0.482,0.718
		s0.443,0.364,0.717,0.482c0.275,0.118,0.57,0.178,0.883,0.178h1.041c0.314,0,0.607-0.06,0.883-0.178s0.514-0.279,0.717-0.482
		s0.365-0.442,0.482-0.718c0.119-0.274,0.178-0.568,0.178-0.882V91.601z"/>
	<path fill="#144B8B" d="M348.734,99.04c-0.199,0.466-0.473,0.872-0.818,1.219c-0.348,0.347-0.754,0.62-1.219,0.819
		c-0.467,0.198-0.961,0.298-1.486,0.298h-1.041c-0.523,0-1.02-0.1-1.484-0.298c-0.467-0.199-0.873-0.473-1.219-0.819
		c-0.348-0.347-0.621-0.753-0.82-1.219c-0.197-0.466-0.297-0.96-0.297-1.485V91.69c0-0.525,0.1-1.02,0.297-1.485
		c0.199-0.466,0.473-0.872,0.82-1.219c0.346-0.347,0.752-0.62,1.219-0.819c0.465-0.198,0.961-0.298,1.484-0.298h1.041
		c0.525,0,1.02,0.1,1.486,0.298c0.465,0.199,0.871,0.473,1.219,0.819c0.346,0.347,0.619,0.753,0.818,1.219s0.299,0.96,0.299,1.485
		v3.06h-7.123v2.895c0,0.313,0.061,0.607,0.178,0.882c0.119,0.275,0.279,0.515,0.482,0.718s0.443,0.364,0.717,0.482
		c0.275,0.118,0.57,0.178,0.883,0.178h1.041c0.314,0,0.607-0.06,0.883-0.178s0.514-0.279,0.717-0.482s0.365-0.442,0.482-0.718
		c0.119-0.274,0.178-0.568,0.178-0.882V96.78l1.563,0.254v0.521C349.033,98.08,348.934,98.574,348.734,99.04z M347.471,91.601
		c0-0.313-0.059-0.607-0.178-0.882c-0.117-0.275-0.279-0.515-0.482-0.718s-0.441-0.364-0.717-0.482s-0.568-0.178-0.883-0.178h-1.041
		c-0.313,0-0.607,0.06-0.883,0.178c-0.273,0.118-0.514,0.279-0.717,0.482s-0.363,0.442-0.482,0.718
		c-0.117,0.274-0.178,0.568-0.178,0.882v1.93h5.561V91.601z"/>
	<path fill="#144B8B" d="M366.521,99.04c-0.199,0.466-0.473,0.872-0.82,1.219c-0.346,0.347-0.752,0.62-1.219,0.819
		c-0.465,0.198-0.961,0.298-1.484,0.298h-0.395c-0.584,0-1.125-0.118-1.625-0.355c-0.498-0.237-0.926-0.567-1.281-0.99v6.297h-1.563
		V88.122h0.521l0.85,1.32c0.355-0.482,0.803-0.865,1.34-1.149c0.537-0.283,1.123-0.425,1.758-0.425h0.395
		c0.523,0,1.02,0.1,1.484,0.298c0.467,0.199,0.873,0.473,1.219,0.819c0.348,0.347,0.621,0.753,0.82,1.219
		c0.197,0.466,0.297,0.96,0.297,1.485v5.865C366.818,98.08,366.719,98.574,366.521,99.04z M365.258,91.601
		c0-0.313-0.061-0.607-0.178-0.882c-0.119-0.275-0.279-0.515-0.482-0.718s-0.443-0.364-0.717-0.482
		c-0.275-0.118-0.57-0.178-0.883-0.178h-1.041c-0.314,0-0.607,0.06-0.883,0.178s-0.514,0.279-0.717,0.482s-0.365,0.442-0.482,0.718
		c-0.119,0.274-0.178,0.568-0.178,0.882v6.043c0,0.313,0.059,0.607,0.178,0.882c0.117,0.275,0.279,0.515,0.482,0.718
		s0.441,0.364,0.717,0.482s0.568,0.178,0.883,0.178h1.041c0.313,0,0.607-0.06,0.883-0.178c0.273-0.118,0.514-0.279,0.717-0.482
		s0.363-0.442,0.482-0.718c0.117-0.274,0.178-0.568,0.178-0.882V91.601z"/>
	<path fill="#144B8B" d="M373.764,89.607c-0.314,0-0.607,0.059-0.883,0.178s-0.514,0.279-0.717,0.482s-0.365,0.442-0.482,0.717
		c-0.119,0.275-0.178,0.57-0.178,0.883v9.255h-1.563v-13h0.521l0.85,1.32c0.355-0.482,0.803-0.865,1.34-1.149
		c0.537-0.283,1.123-0.425,1.758-0.425h0.914v1.739H373.764z"/>
	<path fill="#144B8B" d="M385.793,99.04c-0.199,0.466-0.473,0.872-0.82,1.219c-0.346,0.347-0.752,0.62-1.219,0.819
		c-0.465,0.198-0.961,0.298-1.484,0.298h-1.041c-0.525,0-1.02-0.1-1.486-0.298c-0.465-0.199-0.871-0.473-1.219-0.819
		c-0.346-0.347-0.619-0.753-0.818-1.219s-0.299-0.96-0.299-1.485V91.69c0-0.525,0.1-1.02,0.299-1.485s0.473-0.872,0.818-1.219
		c0.348-0.347,0.754-0.62,1.219-0.819c0.467-0.198,0.961-0.298,1.486-0.298h1.041c0.523,0,1.02,0.1,1.484,0.298
		c0.467,0.199,0.873,0.473,1.219,0.819c0.348,0.347,0.621,0.753,0.82,1.219c0.197,0.466,0.297,0.96,0.297,1.485v5.865
		C386.09,98.08,385.99,98.574,385.793,99.04z M384.529,91.601c0-0.313-0.061-0.607-0.178-0.882
		c-0.119-0.275-0.279-0.515-0.482-0.718s-0.443-0.364-0.717-0.482c-0.275-0.118-0.57-0.178-0.883-0.178h-1.041
		c-0.314,0-0.607,0.06-0.883,0.178s-0.514,0.279-0.717,0.482s-0.365,0.442-0.482,0.718c-0.119,0.274-0.178,0.568-0.178,0.882v6.043
		c0,0.313,0.059,0.607,0.178,0.882c0.117,0.275,0.279,0.515,0.482,0.718s0.441,0.364,0.717,0.482s0.568,0.178,0.883,0.178h1.041
		c0.313,0,0.607-0.06,0.883-0.178c0.273-0.118,0.514-0.279,0.717-0.482s0.363-0.442,0.482-0.718
		c0.117-0.274,0.178-0.568,0.178-0.882V91.601z"/>
	<path fill="#144B8B" d="M391.32,106.327h-1.51l2.311-6.322l-4.215-11.883h1.561l3.391,9.852l0.051,0.673l0.051-0.673l3.377-9.852
		h1.561L391.32,106.327z"/>
	<path fill="#144B8B" d="M407.844,99.04c-0.199,0.466-0.473,0.872-0.818,1.219c-0.348,0.347-0.754,0.62-1.219,0.819
		c-0.467,0.198-0.961,0.298-1.486,0.298h-1.041c-0.523,0-1.02-0.1-1.484-0.298c-0.467-0.199-0.873-0.473-1.219-0.819
		c-0.348-0.347-0.621-0.753-0.82-1.219c-0.197-0.466-0.297-0.96-0.297-1.485V91.69c0-0.525,0.1-1.02,0.297-1.485
		c0.199-0.466,0.473-0.872,0.82-1.219c0.346-0.347,0.752-0.62,1.219-0.819c0.465-0.198,0.961-0.298,1.484-0.298h1.041
		c0.525,0,1.02,0.1,1.486,0.298c0.465,0.199,0.871,0.473,1.219,0.819c0.346,0.347,0.619,0.753,0.818,1.219s0.299,0.96,0.299,1.485
		v3.06h-7.123v2.895c0,0.313,0.061,0.607,0.178,0.882c0.119,0.275,0.279,0.515,0.482,0.718s0.443,0.364,0.717,0.482
		c0.275,0.118,0.57,0.178,0.883,0.178h1.041c0.314,0,0.607-0.06,0.883-0.178s0.514-0.279,0.717-0.482s0.365-0.442,0.482-0.718
		c0.119-0.274,0.178-0.568,0.178-0.882V96.78l1.563,0.254v0.521C408.143,98.08,408.043,98.574,407.844,99.04z M406.58,91.601
		c0-0.313-0.059-0.607-0.178-0.882c-0.117-0.275-0.279-0.515-0.482-0.718s-0.441-0.364-0.717-0.482s-0.568-0.178-0.883-0.178h-1.041
		c-0.313,0-0.607,0.06-0.883,0.178c-0.273,0.118-0.514,0.279-0.717,0.482s-0.363,0.442-0.482,0.718
		c-0.117,0.274-0.178,0.568-0.178,0.882v1.93h5.561V91.601z"/>
	<path fill="#144B8B" d="M419.65,99.04c-0.199,0.466-0.473,0.872-0.818,1.219c-0.348,0.347-0.754,0.62-1.219,0.819
		c-0.467,0.198-0.961,0.298-1.486,0.298h-1.041c-0.523,0-1.02-0.1-1.484-0.298c-0.467-0.199-0.873-0.473-1.219-0.819
		c-0.348-0.347-0.621-0.753-0.82-1.219c-0.197-0.466-0.297-0.96-0.297-1.485V91.69c0-0.525,0.1-1.02,0.297-1.485
		c0.199-0.466,0.473-0.872,0.82-1.219c0.346-0.347,0.752-0.62,1.219-0.819c0.465-0.198,0.961-0.298,1.484-0.298h1.041
		c0.525,0,1.02,0.1,1.486,0.298c0.465,0.199,0.871,0.473,1.219,0.819c0.346,0.347,0.619,0.753,0.818,1.219s0.299,0.96,0.299,1.485
		v0.521l-1.563,0.254v-0.863c0-0.313-0.059-0.607-0.178-0.882c-0.117-0.275-0.279-0.515-0.482-0.718s-0.441-0.364-0.717-0.482
		s-0.568-0.178-0.883-0.178h-1.041c-0.313,0-0.607,0.06-0.883,0.178c-0.273,0.118-0.514,0.279-0.717,0.482s-0.363,0.442-0.482,0.718
		c-0.117,0.274-0.178,0.568-0.178,0.882v6.043c0,0.313,0.061,0.607,0.178,0.882c0.119,0.275,0.279,0.515,0.482,0.718
		s0.443,0.364,0.717,0.482c0.275,0.118,0.57,0.178,0.883,0.178h1.041c0.314,0,0.607-0.06,0.883-0.178s0.514-0.279,0.717-0.482
		s0.365-0.442,0.482-0.718c0.119-0.274,0.178-0.568,0.178-0.882V96.78l1.563,0.254v0.521C419.949,98.08,419.85,98.574,419.65,99.04z
		"/>
	<path fill="#144B8B" d="M427.807,101.122c-0.473,0-0.92-0.089-1.34-0.267c-0.418-0.178-0.781-0.424-1.092-0.736
		c-0.309-0.313-0.553-0.678-0.736-1.092c-0.182-0.414-0.271-0.859-0.271-1.333v-8.087h-2.336v-1.485h2.336v-3.123l1.561-0.254v3.377
		h3.301v1.485h-3.301v8.163c0,0.263,0.049,0.506,0.146,0.729c0.098,0.225,0.23,0.422,0.4,0.591c0.168,0.169,0.367,0.303,0.596,0.399
		c0.229,0.098,0.475,0.146,0.736,0.146h1.422v1.485h-1.422V101.122z"/>
	<path fill="#144B8B" d="M440.484,99.04c-0.199,0.466-0.473,0.872-0.82,1.219c-0.346,0.347-0.752,0.62-1.219,0.819
		c-0.465,0.198-0.961,0.298-1.484,0.298h-1.041c-0.525,0-1.02-0.1-1.486-0.298c-0.465-0.199-0.871-0.473-1.219-0.819
		c-0.346-0.347-0.619-0.753-0.818-1.219s-0.299-0.96-0.299-1.485V91.69c0-0.525,0.1-1.02,0.299-1.485s0.473-0.872,0.818-1.219
		c0.348-0.347,0.754-0.62,1.219-0.819c0.467-0.198,0.961-0.298,1.486-0.298h1.041c0.523,0,1.02,0.1,1.484,0.298
		c0.467,0.199,0.873,0.473,1.219,0.819c0.348,0.347,0.621,0.753,0.82,1.219c0.197,0.466,0.297,0.96,0.297,1.485v5.865
		C440.781,98.08,440.682,98.574,440.484,99.04z M439.221,91.601c0-0.313-0.061-0.607-0.178-0.882
		c-0.119-0.275-0.279-0.515-0.482-0.718s-0.443-0.364-0.717-0.482c-0.275-0.118-0.57-0.178-0.883-0.178h-1.041
		c-0.314,0-0.607,0.06-0.883,0.178s-0.514,0.279-0.717,0.482s-0.365,0.442-0.482,0.718c-0.119,0.274-0.178,0.568-0.178,0.882v6.043
		c0,0.313,0.059,0.607,0.178,0.882c0.117,0.275,0.279,0.515,0.482,0.718s0.441,0.364,0.717,0.482s0.568,0.178,0.883,0.178h1.041
		c0.313,0,0.607-0.06,0.883-0.178c0.273-0.118,0.514-0.279,0.717-0.482s0.363-0.442,0.482-0.718
		c0.117-0.274,0.178-0.568,0.178-0.882V91.601z"/>
	<path fill="#144B8B" d="M452.842,97.821c0,0.524-0.105,1.005-0.316,1.44c-0.213,0.437-0.5,0.811-0.863,1.124
		c-0.365,0.313-0.785,0.557-1.264,0.729c-0.479,0.174-0.98,0.261-1.504,0.261h-1.041c-0.525,0-1.027-0.1-1.504-0.298
		c-0.479-0.199-0.898-0.473-1.258-0.819s-0.646-0.753-0.863-1.219c-0.215-0.466-0.324-0.96-0.324-1.485v-0.521l1.563-0.254v0.863
		c0,0.313,0.064,0.607,0.197,0.882c0.131,0.275,0.307,0.515,0.525,0.718c0.221,0.203,0.475,0.364,0.762,0.482
		c0.289,0.118,0.588,0.178,0.902,0.178h1.041c0.313,0,0.613-0.046,0.9-0.14c0.289-0.094,0.545-0.227,0.77-0.4
		c0.223-0.173,0.4-0.383,0.533-0.628c0.131-0.245,0.195-0.524,0.195-0.838c0-0.466-0.102-0.847-0.305-1.143
		s-0.471-0.544-0.805-0.743c-0.336-0.198-0.717-0.363-1.143-0.494c-0.428-0.132-0.867-0.263-1.314-0.395
		c-0.449-0.131-0.887-0.281-1.314-0.45s-0.809-0.392-1.143-0.667c-0.334-0.274-0.604-0.619-0.807-1.034s-0.305-0.931-0.305-1.549
		c0-0.524,0.102-1.005,0.305-1.44c0.203-0.437,0.479-0.811,0.826-1.124c0.346-0.313,0.75-0.557,1.213-0.729
		c0.461-0.174,0.953-0.261,1.479-0.261h0.914c0.523,0,1.02,0.1,1.484,0.298c0.467,0.199,0.873,0.473,1.219,0.819
		c0.348,0.347,0.621,0.753,0.82,1.219c0.197,0.466,0.297,0.96,0.297,1.485v0.051l-1.561,0.254v-0.394
		c0-0.313-0.061-0.607-0.178-0.882c-0.119-0.275-0.279-0.515-0.482-0.718s-0.443-0.364-0.717-0.482
		c-0.275-0.118-0.57-0.178-0.883-0.178h-0.914c-0.314,0-0.607,0.046-0.883,0.14s-0.514,0.227-0.717,0.4
		c-0.203,0.173-0.365,0.383-0.482,0.628c-0.119,0.245-0.178,0.524-0.178,0.838c0,0.448,0.102,0.814,0.305,1.099
		c0.203,0.283,0.471,0.521,0.807,0.717c0.334,0.195,0.715,0.357,1.143,0.488c0.426,0.132,0.863,0.268,1.307,0.406
		c0.445,0.141,0.881,0.299,1.309,0.477c0.426,0.178,0.807,0.406,1.143,0.686c0.334,0.279,0.602,0.629,0.805,1.047
		C452.74,96.686,452.842,97.203,452.842,97.821z"/>
</g>
<g>
	<g>
		<path fill="#144B8B" d="M175.928,456.924c-2.112,0-4.073,0.943-5.384,2.594c-2.356,2.965-1.863,7.299,1.106,9.65
			c1.226,0.978,2.704,1.494,4.268,1.494c2.112,0,4.072-0.946,5.383-2.596c2.355-2.965,1.863-7.297-1.103-9.65
			C178.97,457.438,177.493,456.924,175.928,456.924"/>
		
			<radialGradient id="SVGID_1_" cx="-229.7864" cy="1034.561" r="22.3972" gradientTransform="matrix(1 0 0 1 405.715 -570.7699)" gradientUnits="userSpaceOnUse">
			<stop  offset="0" style="stop-color:#8CBB69"/>
			<stop  offset="0.7837" style="stop-color:#6BAD44"/>
		</radialGradient>
		<path fill="url(#SVGID_1_)" d="M175.917,486.191c-5.036,0-9.984-1.728-13.927-4.863c-9.67-7.682-11.288-21.799-3.607-31.469
			c4.278-5.382,10.671-8.468,17.545-8.468c5.036,0,9.981,1.729,13.927,4.864c4.685,3.722,7.639,9.042,8.319,14.988
			c0.325,2.832,0.118,5.64-0.609,8.359c-0.453,1.692-1.112,3.336-1.953,4.88c-0.391,0.712-1.282,0.975-1.995,0.586
			c-0.715-0.387-0.975-1.28-0.589-1.994c0.73-1.341,1.305-2.764,1.698-4.233c0.634-2.361,0.811-4.802,0.529-7.262
			c-0.59-5.163-3.159-9.791-7.227-13.021c-3.432-2.724-7.726-4.223-12.098-4.223c-5.974,0-11.529,2.68-15.242,7.352
			c-6.674,8.399-5.269,20.665,3.132,27.338c3.43,2.727,7.727,4.225,12.099,4.225c0.812,0,1.468,0.66,1.468,1.472
			C177.385,485.532,176.73,486.191,175.917,486.191"/>
		
			<radialGradient id="SVGID_2_" cx="-229.7868" cy="1034.5614" r="15.782" gradientTransform="matrix(1 0 0 1 405.715 -570.7699)" gradientUnits="userSpaceOnUse">
			<stop  offset="0" style="stop-color:#8CBB69"/>
			<stop  offset="0.7837" style="stop-color:#6BAD44"/>
		</radialGradient>
		<path fill="url(#SVGID_2_)" d="M175.917,479.575c-3.548,0-7.031-1.217-9.813-3.427c-6.811-5.413-7.951-15.364-2.537-22.176
			c3.01-3.79,7.515-5.965,12.362-5.965c3.546,0,7.036,1.216,9.812,3.424c3.299,2.624,5.386,6.375,5.865,10.565
			c0.238,2.093,0.067,4.171-0.51,6.172c-0.228,0.778-1.041,1.228-1.82,1.004c-0.783-0.226-1.228-1.041-1.005-1.816
			c0.468-1.63,0.605-3.319,0.412-5.028c-0.391-3.408-2.084-6.457-4.769-8.594c-2.264-1.798-5.098-2.786-7.985-2.786
			c-3.942,0-7.612,1.769-10.061,4.854c-4.404,5.544-3.477,13.637,2.067,18.044c2.262,1.801,5.096,2.789,7.984,2.789
			c0.812,0,1.468,0.658,1.468,1.47C177.385,478.914,176.73,479.575,175.917,479.575"/>
		<path fill="none" stroke="#FFFFFF" stroke-width="0.115" stroke-miterlimit="10" d="M183.621,463.792
			c0,4.251-3.449,7.697-7.698,7.697c-4.251,0-7.698-3.446-7.698-7.697c0-4.25,3.447-7.698,7.698-7.698
			C180.172,456.094,183.621,459.541,183.621,463.792z"/>
		
			<radialGradient id="SVGID_3_" cx="-229.7932" cy="1034.5603" r="9.1656" gradientTransform="matrix(1 0 0 1 405.715 -570.7699)" gradientUnits="userSpaceOnUse">
			<stop  offset="0" style="stop-color:#8CBB69"/>
			<stop  offset="0.7837" style="stop-color:#6BAD44"/>
		</radialGradient>
		<path fill="url(#SVGID_3_)" d="M175.917,472.958c-2.059,0-4.082-0.705-5.699-1.99c-3.957-3.142-4.619-8.921-1.474-12.88
			c1.749-2.201,4.368-3.465,7.183-3.465c2.061,0,4.082,0.708,5.696,1.991c3.961,3.145,4.619,8.923,1.475,12.881
			C181.351,471.696,178.732,472.958,175.917,472.958 M175.928,457.563c-1.917,0-3.693,0.857-4.883,2.353
			c-2.135,2.689-1.687,6.616,1.004,8.75c1.112,0.882,2.451,1.353,3.868,1.353c1.913,0,3.692-0.857,4.882-2.353
			c2.134-2.688,1.686-6.612-1.001-8.751C178.684,458.031,177.347,457.563,175.928,457.563"/>
		<g>
			<path fill="#FFFFFF" d="M185.536,490.594c2.085,0,3.775-1.692,3.775-3.778v-9.658c0-2.817-2.283-5.097-5.097-5.097l-5.163-0.011
				v-7.553c0-1.593-1.24-2.949-2.836-3.007c-1.668-0.06-3.045,1.279-3.045,2.939v13.193l-0.77-1.607
				c-0.419-0.877-1.213-1.374-2.03-1.374c-0.38,0-0.76,0.106-1.112,0.324c-1.121,0.703-1.535,2.31-0.918,3.591
				c0,0,2.545,5.955,4.364,9.855c0.614,1.332,1.949,2.182,3.42,2.182L185.536,490.594L185.536,490.594z"/>
			<path fill="none" stroke="#000000" stroke-width="1.714" stroke-miterlimit="10" d="M185.536,490.594
				c2.085,0,3.775-1.692,3.775-3.778v-9.658c0-2.817-2.283-5.097-5.097-5.097l-5.163-0.011v-7.553c0-1.593-1.24-2.949-2.836-3.007
				c-1.668-0.06-3.045,1.279-3.045,2.939v13.193l-0.77-1.607c-0.419-0.877-1.213-1.374-2.03-1.374c-0.38,0-0.76,0.106-1.112,0.324
				c-1.121,0.703-1.535,2.31-0.918,3.591c0,0,2.545,5.955,4.364,9.855c0.614,1.332,1.949,2.182,3.42,2.182L185.536,490.594
				L185.536,490.594z"/>
		</g>
	</g>
	<g>
		<path d="M216.133,460.119l1.36,0.344c-0.285,1.117-0.798,1.969-1.539,2.555c-0.742,0.586-1.646,0.88-2.716,0.88
			c-1.108,0-2.008-0.226-2.702-0.677c-0.694-0.451-1.222-1.104-1.584-1.959c-0.362-0.855-0.543-1.773-0.543-2.755
			c0-1.07,0.204-2.003,0.613-2.801c0.409-0.796,0.991-1.402,1.745-1.815c0.754-0.415,1.585-0.621,2.492-0.621
			c1.028,0,1.893,0.262,2.594,0.785c0.701,0.523,1.189,1.259,1.465,2.207l-1.339,0.315c-0.238-0.747-0.584-1.292-1.037-1.633
			c-0.454-0.341-1.023-0.512-1.71-0.512c-0.79,0-1.45,0.189-1.98,0.567c-0.53,0.379-0.903,0.887-1.118,1.525
			c-0.215,0.638-0.322,1.295-0.322,1.972c0,0.874,0.127,1.637,0.382,2.289c0.255,0.652,0.651,1.139,1.188,1.462
			c0.538,0.321,1.119,0.483,1.746,0.483c0.761,0,1.407-0.22,1.934-0.659C215.588,461.636,215.944,460.984,216.133,460.119z"/>
		<path d="M218.562,463.722v-10.275h1.262v10.275H218.562z"/>
		<path d="M221.37,454.897v-1.45h1.262v1.45H221.37z M221.37,463.722v-7.444h1.262v7.444H221.37z"/>
		<path d="M228.995,460.996l1.24,0.161c-0.135,0.855-0.482,1.524-1.041,2.008c-0.559,0.483-1.244,0.726-2.057,0.726
			c-1.018,0-1.838-0.333-2.457-0.999c-0.619-0.666-0.928-1.62-0.928-2.863c0-0.804,0.133-1.508,0.399-2.11
			c0.267-0.602,0.671-1.054,1.216-1.356c0.544-0.302,1.137-0.452,1.777-0.452c0.808,0,1.47,0.204,1.983,0.613
			c0.514,0.41,0.844,0.99,0.988,1.742l-1.227,0.189c-0.116-0.5-0.323-0.877-0.62-1.129s-0.656-0.379-1.076-0.379
			c-0.636,0-1.151,0.228-1.549,0.683c-0.397,0.455-0.595,1.177-0.595,2.163c0,1,0.191,1.727,0.574,2.179
			c0.383,0.454,0.883,0.679,1.501,0.679c0.495,0,0.909-0.151,1.241-0.455C228.695,462.092,228.905,461.627,228.995,460.996z"/>
		<path d="M233.965,461.5l1.248-0.196c0.07,0.5,0.265,0.882,0.585,1.149c0.32,0.267,0.768,0.399,1.343,0.399
			c0.58,0,1.01-0.117,1.29-0.353s0.42-0.513,0.42-0.831c0-0.285-0.123-0.51-0.372-0.673c-0.173-0.113-0.603-0.255-1.29-0.428
			c-0.925-0.233-1.567-0.435-1.924-0.606c-0.357-0.17-0.629-0.407-0.813-0.708c-0.184-0.302-0.277-0.635-0.277-0.999
			c0-0.332,0.076-0.639,0.228-0.921c0.152-0.282,0.359-0.517,0.621-0.705c0.196-0.145,0.463-0.267,0.803-0.368
			c0.339-0.1,0.702-0.15,1.089-0.15c0.584,0,1.097,0.084,1.54,0.252c0.442,0.168,0.767,0.395,0.978,0.683
			c0.211,0.287,0.355,0.672,0.434,1.153l-1.233,0.169c-0.056-0.383-0.219-0.682-0.487-0.897c-0.269-0.216-0.648-0.322-1.139-0.322
			c-0.58,0-0.993,0.095-1.241,0.287s-0.372,0.415-0.372,0.673c0,0.163,0.051,0.311,0.154,0.442c0.103,0.136,0.264,0.248,0.484,0.337
			c0.126,0.047,0.497,0.154,1.114,0.322c0.893,0.239,1.515,0.434,1.868,0.586c0.352,0.151,0.63,0.372,0.831,0.662
			c0.201,0.29,0.302,0.649,0.302,1.079c0,0.421-0.123,0.816-0.368,1.188c-0.246,0.372-0.6,0.659-1.062,0.862
			c-0.463,0.204-0.986,0.306-1.571,0.306c-0.967,0-1.705-0.201-2.211-0.603C234.429,462.885,234.106,462.29,233.965,461.5z"/>
		<path d="M240.761,460c0-1.378,0.383-2.4,1.15-3.064c0.64-0.551,1.42-0.827,2.341-0.827c1.023,0,1.86,0.335,2.509,1.006
			c0.649,0.671,0.975,1.598,0.975,2.779c0,0.958-0.144,1.711-0.431,2.261c-0.287,0.548-0.706,0.975-1.255,1.279
			c-0.549,0.303-1.148,0.456-1.798,0.456c-1.042,0-1.884-0.334-2.527-1.003C241.083,462.219,240.761,461.257,240.761,460z
			 M242.058,460c0,0.953,0.208,1.667,0.624,2.141c0.416,0.474,0.94,0.711,1.571,0.711c0.626,0,1.146-0.238,1.563-0.714
			c0.415-0.477,0.624-1.203,0.624-2.179c0-0.921-0.209-1.618-0.628-2.092c-0.418-0.475-0.938-0.712-1.559-0.712
			c-0.631,0-1.154,0.236-1.571,0.708S242.058,459.047,242.058,460z"/>
		<path d="M249.961,463.722h-1.17v-10.275h1.262v3.665c0.532-0.668,1.212-1.003,2.039-1.003c0.457,0,0.891,0.092,1.3,0.277
			c0.41,0.185,0.746,0.445,1.01,0.779c0.264,0.334,0.471,0.737,0.621,1.209c0.15,0.472,0.224,0.977,0.224,1.513
			c0,1.276-0.315,2.262-0.946,2.958c-0.631,0.697-1.388,1.045-2.271,1.045c-0.878,0-1.568-0.368-2.069-1.101L249.961,463.722
			L249.961,463.722z M249.947,459.944c0,0.893,0.122,1.538,0.364,1.935c0.398,0.649,0.935,0.975,1.612,0.975
			c0.551,0,1.028-0.239,1.431-0.718c0.402-0.48,0.603-1.193,0.603-2.141c0-0.972-0.193-1.69-0.579-2.152
			c-0.385-0.462-0.851-0.694-1.398-0.694c-0.551,0-1.029,0.239-1.431,0.718C250.149,458.345,249.947,459.038,249.947,459.944z"/>
		<path d="M256.351,463.722v-7.444h1.135v1.129c0.29-0.528,0.557-0.877,0.803-1.045c0.246-0.169,0.515-0.252,0.81-0.252
			c0.425,0,0.858,0.135,1.297,0.407l-0.434,1.171c-0.309-0.182-0.617-0.274-0.925-0.274c-0.276,0-0.523,0.083-0.743,0.249
			c-0.22,0.166-0.376,0.396-0.47,0.691c-0.14,0.448-0.21,0.94-0.21,1.472v3.897L256.351,463.722L256.351,463.722L256.351,463.722z"
			/>
		<path d="M265.826,461.325l1.304,0.161c-0.205,0.762-0.586,1.353-1.143,1.773c-0.556,0.42-1.267,0.631-2.131,0.631
			c-1.088,0-1.952-0.336-2.59-1.006s-0.956-1.61-0.956-2.821c0-1.252,0.322-2.225,0.967-2.916c0.645-0.691,1.481-1.037,2.509-1.037
			c0.995,0,1.808,0.339,2.439,1.016c0.631,0.677,0.946,1.631,0.946,2.86c0,0.075-0.003,0.186-0.008,0.337h-5.551
			c0.047,0.817,0.278,1.443,0.694,1.878c0.415,0.435,0.934,0.652,1.555,0.652c0.463,0,0.858-0.121,1.185-0.364
			C265.374,462.246,265.633,461.857,265.826,461.325z M261.684,459.284h4.156c-0.056-0.625-0.215-1.096-0.477-1.409
			c-0.402-0.485-0.923-0.729-1.563-0.729c-0.58,0-1.067,0.194-1.462,0.582C261.943,458.116,261.725,458.636,261.684,459.284z"/>
		<path d="M276.727,460.996l1.24,0.161c-0.135,0.855-0.482,1.524-1.041,2.008c-0.559,0.483-1.244,0.726-2.057,0.726
			c-1.018,0-1.838-0.333-2.457-0.999c-0.619-0.666-0.928-1.62-0.928-2.863c0-0.804,0.133-1.508,0.399-2.11s0.672-1.054,1.216-1.356
			c0.544-0.302,1.137-0.452,1.777-0.452c0.808,0,1.469,0.204,1.983,0.613c0.514,0.41,0.844,0.99,0.988,1.742l-1.227,0.189
			c-0.116-0.5-0.323-0.877-0.62-1.129c-0.297-0.252-0.656-0.379-1.076-0.379c-0.636,0-1.151,0.228-1.549,0.683
			c-0.397,0.455-0.595,1.177-0.595,2.163c0,1,0.191,1.727,0.574,2.179c0.383,0.454,0.883,0.679,1.501,0.679
			c0.495,0,0.909-0.151,1.241-0.455C276.427,462.092,276.638,461.627,276.727,460.996z"/>
		<path d="M283.487,462.803c-0.468,0.397-0.917,0.678-1.349,0.842c-0.432,0.163-0.896,0.246-1.392,0.246
			c-0.817,0-1.446-0.201-1.885-0.6c-0.44-0.399-0.659-0.91-0.659-1.532c0-0.364,0.083-0.698,0.249-0.999
			c0.165-0.301,0.383-0.543,0.652-0.725c0.269-0.182,0.571-0.32,0.908-0.414c0.248-0.066,0.621-0.129,1.122-0.189
			c1.018-0.121,1.769-0.267,2.249-0.434c0.005-0.173,0.007-0.282,0.007-0.329c0-0.514-0.119-0.877-0.357-1.087
			c-0.322-0.284-0.801-0.427-1.437-0.427c-0.594,0-1.032,0.104-1.314,0.312c-0.282,0.208-0.492,0.577-0.627,1.104l-1.234-0.168
			c0.113-0.528,0.297-0.955,0.554-1.279c0.257-0.325,0.629-0.574,1.114-0.749c0.486-0.175,1.049-0.263,1.689-0.263
			c0.636,0,1.152,0.075,1.549,0.224c0.397,0.15,0.689,0.338,0.877,0.565c0.186,0.226,0.317,0.513,0.392,0.858
			c0.042,0.216,0.063,0.603,0.063,1.163v1.682c0,1.174,0.027,1.915,0.081,2.226c0.054,0.311,0.16,0.609,0.318,0.893h-1.318
			C283.609,463.461,283.525,463.154,283.487,462.803z M283.381,459.986c-0.457,0.186-1.144,0.346-2.061,0.477
			c-0.518,0.075-0.886,0.159-1.1,0.252c-0.216,0.093-0.381,0.23-0.498,0.411c-0.116,0.18-0.175,0.38-0.175,0.599
			c0,0.337,0.126,0.617,0.381,0.841c0.255,0.224,0.628,0.337,1.118,0.337c0.486,0,0.918-0.107,1.297-0.319
			c0.379-0.212,0.656-0.504,0.835-0.873c0.135-0.285,0.203-0.706,0.203-1.262L283.381,459.986L283.381,459.986z"/>
		<path d="M291.028,463.722v-0.94c-0.473,0.738-1.166,1.108-2.082,1.108c-0.594,0-1.139-0.164-1.637-0.491
			c-0.498-0.327-0.883-0.784-1.157-1.371c-0.274-0.586-0.411-1.26-0.411-2.022c0-0.744,0.124-1.417,0.372-2.022
			c0.247-0.605,0.618-1.069,1.114-1.392c0.495-0.322,1.049-0.483,1.661-0.483c0.448,0,0.848,0.095,1.199,0.283
			c0.35,0.189,0.636,0.436,0.854,0.74v-3.687h1.255v10.275L291.028,463.722L291.028,463.722z M287.039,460.008
			c0,0.953,0.201,1.666,0.603,2.138c0.402,0.473,0.877,0.708,1.423,0.708c0.551,0,1.019-0.225,1.405-0.676s0.579-1.139,0.579-2.065
			c0-1.018-0.197-1.766-0.589-2.243c-0.392-0.477-0.877-0.714-1.451-0.714c-0.56,0-1.029,0.229-1.405,0.687
			C287.227,458.299,287.039,459.021,287.039,460.008z"/>
		<path d="M298.622,462.803c-0.468,0.397-0.917,0.678-1.349,0.842c-0.432,0.163-0.896,0.246-1.392,0.246
			c-0.817,0-1.446-0.201-1.885-0.6c-0.44-0.399-0.659-0.91-0.659-1.532c0-0.364,0.083-0.698,0.249-0.999
			c0.165-0.301,0.383-0.543,0.652-0.725c0.269-0.182,0.571-0.32,0.908-0.414c0.248-0.066,0.621-0.129,1.122-0.189
			c1.018-0.121,1.769-0.267,2.249-0.434c0.005-0.173,0.007-0.282,0.007-0.329c0-0.514-0.119-0.877-0.357-1.087
			c-0.322-0.284-0.801-0.427-1.437-0.427c-0.594,0-1.032,0.104-1.314,0.312c-0.282,0.208-0.492,0.577-0.627,1.104l-1.234-0.168
			c0.113-0.528,0.297-0.955,0.554-1.279c0.257-0.325,0.629-0.574,1.114-0.749c0.486-0.175,1.049-0.263,1.689-0.263
			c0.636,0,1.152,0.075,1.549,0.224c0.397,0.15,0.689,0.338,0.877,0.565c0.186,0.226,0.317,0.513,0.392,0.858
			c0.042,0.216,0.063,0.603,0.063,1.163v1.682c0,1.174,0.027,1.915,0.081,2.226c0.054,0.311,0.16,0.609,0.318,0.893h-1.318
			C298.743,463.461,298.66,463.154,298.622,462.803z M298.517,459.986c-0.457,0.186-1.144,0.346-2.061,0.477
			c-0.518,0.075-0.886,0.159-1.1,0.252c-0.216,0.093-0.381,0.23-0.498,0.411c-0.116,0.18-0.175,0.38-0.175,0.599
			c0,0.337,0.126,0.617,0.381,0.841c0.255,0.224,0.628,0.337,1.118,0.337c0.486,0,0.918-0.107,1.297-0.319s0.656-0.504,0.835-0.873
			c0.135-0.285,0.203-0.706,0.203-1.262L298.517,459.986L298.517,459.986z"/>
		<path d="M306.067,463.722h-1.17v-10.275h1.262v3.665c0.532-0.668,1.212-1.003,2.039-1.003c0.457,0,0.891,0.092,1.3,0.277
			c0.41,0.185,0.746,0.445,1.01,0.779c0.264,0.334,0.471,0.737,0.621,1.209c0.15,0.472,0.224,0.977,0.224,1.513
			c0,1.276-0.315,2.262-0.946,2.958c-0.631,0.697-1.388,1.045-2.271,1.045c-0.878,0-1.568-0.368-2.069-1.101V463.722z
			 M306.053,459.944c0,0.893,0.122,1.538,0.364,1.935c0.398,0.649,0.935,0.975,1.612,0.975c0.551,0,1.028-0.239,1.431-0.718
			c0.402-0.48,0.603-1.193,0.603-2.141c0-0.972-0.193-1.69-0.579-2.152c-0.385-0.462-0.851-0.694-1.398-0.694
			c-0.551,0-1.029,0.239-1.431,0.718C306.254,458.345,306.053,459.038,306.053,459.944z"/>
		<path d="M312.001,460c0-1.378,0.383-2.4,1.15-3.064c0.64-0.551,1.42-0.827,2.341-0.827c1.023,0,1.86,0.335,2.509,1.006
			s0.975,1.598,0.975,2.779c0,0.958-0.144,1.711-0.431,2.261c-0.287,0.548-0.706,0.975-1.255,1.279
			c-0.549,0.303-1.148,0.456-1.798,0.456c-1.042,0-1.884-0.334-2.527-1.003C312.322,462.219,312.001,461.257,312.001,460z
			 M313.298,460c0,0.953,0.208,1.667,0.624,2.141c0.416,0.474,0.94,0.711,1.571,0.711c0.626,0,1.146-0.238,1.563-0.714
			c0.415-0.477,0.624-1.203,0.624-2.179c0-0.921-0.209-1.618-0.628-2.092c-0.418-0.475-0.938-0.712-1.559-0.712
			c-0.631,0-1.154,0.236-1.571,0.708C313.505,458.334,313.298,459.047,313.298,460z"/>
		<path d="M322.792,462.594l0.182,1.114c-0.355,0.075-0.673,0.112-0.953,0.112c-0.458,0-0.813-0.072-1.065-0.216
			c-0.252-0.146-0.43-0.336-0.533-0.572c-0.103-0.236-0.154-0.732-0.154-1.489v-4.283h-0.925v-0.981h0.925v-1.843l1.254-0.757v2.601
			h1.269v0.981h-1.269v4.354c0,0.36,0.022,0.59,0.067,0.694c0.045,0.103,0.116,0.184,0.217,0.245c0.1,0.061,0.244,0.091,0.431,0.091
			C322.38,462.643,322.564,462.627,322.792,462.594z"/>
		<path d="M323.14,460c0-1.378,0.384-2.4,1.15-3.064c0.64-0.551,1.42-0.827,2.341-0.827c1.023,0,1.86,0.335,2.509,1.006
			c0.649,0.671,0.975,1.598,0.975,2.779c0,0.958-0.144,1.711-0.431,2.261c-0.287,0.548-0.706,0.975-1.255,1.279
			c-0.549,0.303-1.148,0.456-1.798,0.456c-1.042,0-1.884-0.334-2.527-1.003C323.461,462.219,323.14,461.257,323.14,460z
			 M324.437,460c0,0.953,0.208,1.667,0.624,2.141c0.416,0.474,0.94,0.711,1.571,0.711c0.626,0,1.147-0.238,1.563-0.714
			c0.415-0.477,0.624-1.203,0.624-2.179c0-0.921-0.209-1.618-0.628-2.092c-0.418-0.475-0.938-0.712-1.559-0.712
			c-0.631,0-1.154,0.236-1.571,0.708S324.437,459.047,324.437,460z M325.931,455.353l0.932-1.963h1.654l-1.542,1.963H325.931z"/>
		<path d="M331.177,463.722v-7.444h1.135v1.059c0.547-0.818,1.337-1.227,2.37-1.227c0.448,0,0.861,0.081,1.237,0.242
			c0.376,0.162,0.657,0.373,0.845,0.634c0.186,0.262,0.317,0.573,0.392,0.932c0.047,0.234,0.07,0.643,0.07,1.227v4.577h-1.262
			v-4.528c0-0.514-0.049-0.898-0.147-1.153c-0.098-0.255-0.272-0.457-0.522-0.61c-0.25-0.151-0.543-0.228-0.879-0.228
			c-0.538,0-1.002,0.171-1.392,0.512c-0.39,0.341-0.585,0.988-0.585,1.941v4.065L331.177,463.722L331.177,463.722z"/>
		<path d="M208.842,483.801v-10.297h1.149v0.967c0.271-0.379,0.578-0.662,0.918-0.851c0.341-0.189,0.754-0.283,1.241-0.283
			c0.636,0,1.197,0.163,1.682,0.49c0.486,0.327,0.853,0.788,1.1,1.384c0.248,0.596,0.372,1.248,0.372,1.959
			c0,0.762-0.137,1.447-0.411,2.057c-0.274,0.61-0.671,1.077-1.192,1.403c-0.52,0.324-1.069,0.487-1.643,0.487
			c-0.421,0-0.798-0.089-1.132-0.267c-0.334-0.178-0.609-0.402-0.823-0.673v3.624L208.842,483.801L208.842,483.801z
			 M209.984,477.269c0,0.958,0.194,1.666,0.582,2.124c0.387,0.458,0.858,0.687,1.409,0.687c0.561,0,1.041-0.237,1.441-0.711
			c0.4-0.475,0.6-1.209,0.6-2.205c0-0.948-0.196-1.658-0.586-2.131c-0.39-0.472-0.856-0.708-1.398-0.708
			c-0.538,0-1.013,0.251-1.427,0.753C210.19,475.58,209.984,476.311,209.984,477.269z"/>
		<path d="M221.266,480.03c-0.468,0.397-0.917,0.678-1.349,0.842c-0.432,0.163-0.896,0.246-1.392,0.246
			c-0.817,0-1.446-0.201-1.885-0.6c-0.44-0.399-0.659-0.91-0.659-1.532c0-0.364,0.083-0.698,0.249-0.999
			c0.165-0.301,0.383-0.543,0.652-0.725c0.269-0.182,0.571-0.32,0.908-0.414c0.248-0.066,0.621-0.129,1.122-0.189
			c1.018-0.121,1.769-0.267,2.249-0.434c0.005-0.173,0.007-0.282,0.007-0.329c0-0.514-0.119-0.877-0.357-1.087
			c-0.322-0.284-0.801-0.427-1.437-0.427c-0.594,0-1.032,0.104-1.314,0.312c-0.282,0.208-0.492,0.577-0.627,1.104l-1.234-0.168
			c0.113-0.528,0.297-0.955,0.554-1.279c0.257-0.325,0.629-0.574,1.114-0.749c0.486-0.175,1.049-0.263,1.689-0.263
			c0.636,0,1.152,0.075,1.549,0.224c0.397,0.15,0.689,0.338,0.877,0.565c0.186,0.226,0.317,0.513,0.392,0.858
			c0.042,0.216,0.063,0.603,0.063,1.163v1.682c0,1.174,0.027,1.915,0.081,2.226c0.054,0.311,0.16,0.609,0.318,0.893h-1.318
			C221.387,480.687,221.303,480.38,221.266,480.03z M221.16,477.213c-0.457,0.186-1.144,0.346-2.061,0.477
			c-0.518,0.075-0.886,0.159-1.1,0.252c-0.216,0.093-0.381,0.23-0.498,0.411c-0.116,0.18-0.175,0.38-0.175,0.599
			c0,0.337,0.126,0.617,0.381,0.841c0.255,0.224,0.628,0.337,1.118,0.337c0.486,0,0.918-0.107,1.297-0.319
			c0.379-0.212,0.656-0.504,0.835-0.873c0.135-0.285,0.203-0.706,0.203-1.262L221.16,477.213L221.16,477.213z"/>
		<path d="M223.962,480.948v-7.444h1.135v1.129c0.29-0.528,0.557-0.877,0.803-1.045c0.246-0.169,0.515-0.252,0.81-0.252
			c0.425,0,0.858,0.135,1.297,0.407l-0.434,1.171c-0.309-0.182-0.617-0.274-0.925-0.274c-0.276,0-0.524,0.083-0.743,0.249
			c-0.22,0.166-0.376,0.396-0.47,0.691c-0.14,0.448-0.21,0.94-0.21,1.472v3.897L223.962,480.948L223.962,480.948z"/>
		<path d="M233.198,480.03c-0.468,0.397-0.917,0.678-1.349,0.842c-0.432,0.163-0.896,0.246-1.392,0.246
			c-0.817,0-1.446-0.201-1.885-0.6c-0.44-0.399-0.659-0.91-0.659-1.532c0-0.364,0.083-0.698,0.249-0.999
			c0.165-0.301,0.383-0.543,0.652-0.725c0.269-0.182,0.571-0.32,0.908-0.414c0.248-0.066,0.621-0.129,1.122-0.189
			c1.018-0.121,1.769-0.267,2.249-0.434c0.005-0.173,0.007-0.282,0.007-0.329c0-0.514-0.119-0.877-0.357-1.087
			c-0.322-0.284-0.801-0.427-1.437-0.427c-0.594,0-1.032,0.104-1.314,0.312c-0.282,0.208-0.492,0.577-0.627,1.104l-1.234-0.168
			c0.113-0.528,0.297-0.955,0.554-1.279c0.257-0.325,0.629-0.574,1.114-0.749c0.486-0.175,1.049-0.263,1.689-0.263
			c0.636,0,1.152,0.075,1.549,0.224c0.397,0.15,0.689,0.338,0.877,0.565c0.186,0.226,0.317,0.513,0.392,0.858
			c0.042,0.216,0.063,0.603,0.063,1.163v1.682c0,1.174,0.027,1.915,0.081,2.226c0.054,0.311,0.16,0.609,0.318,0.893h-1.318
			C233.319,480.687,233.236,480.38,233.198,480.03z M233.092,477.213c-0.457,0.186-1.144,0.346-2.061,0.477
			c-0.518,0.075-0.886,0.159-1.1,0.252c-0.216,0.093-0.381,0.23-0.498,0.411c-0.116,0.18-0.175,0.38-0.175,0.599
			c0,0.337,0.126,0.617,0.381,0.841c0.255,0.224,0.628,0.337,1.118,0.337c0.486,0,0.918-0.107,1.297-0.319
			c0.379-0.212,0.656-0.504,0.835-0.873c0.135-0.285,0.203-0.706,0.203-1.262L233.092,477.213L233.092,477.213z"/>
		<path d="M239.479,480.948v-7.444h1.128v1.045c0.234-0.365,0.545-0.658,0.932-0.88c0.387-0.221,0.83-0.333,1.325-0.333
			c0.551,0,1.004,0.115,1.357,0.344c0.352,0.229,0.601,0.549,0.746,0.96c0.588-0.87,1.355-1.304,2.299-1.304
			c0.738,0,1.306,0.204,1.703,0.613c0.397,0.41,0.596,1.039,0.596,1.889v5.11h-1.255v-4.689c0-0.505-0.041-0.868-0.123-1.09
			c-0.081-0.222-0.23-0.401-0.446-0.536c-0.216-0.136-0.467-0.204-0.757-0.204c-0.524,0-0.958,0.174-1.304,0.522
			c-0.346,0.348-0.519,0.906-0.519,1.672v4.325h-1.262v-4.837c0-0.56-0.103-0.981-0.309-1.262c-0.205-0.28-0.542-0.42-1.01-0.42
			c-0.355,0-0.683,0.094-0.984,0.281c-0.302,0.187-0.52,0.46-0.656,0.819c-0.135,0.36-0.203,0.878-0.203,1.556v3.862
			L239.479,480.948L239.479,480.948z"/>
		<path d="M255.878,480.03c-0.468,0.397-0.917,0.678-1.349,0.842c-0.432,0.163-0.896,0.246-1.392,0.246
			c-0.817,0-1.446-0.201-1.885-0.6c-0.44-0.399-0.659-0.91-0.659-1.532c0-0.364,0.083-0.698,0.249-0.999
			c0.165-0.301,0.383-0.543,0.652-0.725c0.269-0.182,0.571-0.32,0.908-0.414c0.248-0.066,0.621-0.129,1.122-0.189
			c1.018-0.121,1.769-0.267,2.249-0.434c0.005-0.173,0.007-0.282,0.007-0.329c0-0.514-0.119-0.877-0.357-1.087
			c-0.322-0.284-0.801-0.427-1.437-0.427c-0.594,0-1.032,0.104-1.314,0.312c-0.282,0.208-0.492,0.577-0.627,1.104l-1.234-0.168
			c0.113-0.528,0.297-0.955,0.554-1.279c0.257-0.325,0.629-0.574,1.114-0.749c0.486-0.175,1.049-0.263,1.689-0.263
			c0.636,0,1.152,0.075,1.549,0.224c0.397,0.15,0.689,0.338,0.877,0.565c0.186,0.226,0.317,0.513,0.392,0.858
			c0.042,0.216,0.063,0.603,0.063,1.163v1.682c0,1.174,0.027,1.915,0.081,2.226c0.054,0.311,0.16,0.609,0.318,0.893h-1.318
			C255.999,480.687,255.916,480.38,255.878,480.03z M255.773,477.213c-0.458,0.186-1.144,0.346-2.061,0.477
			c-0.518,0.075-0.886,0.159-1.1,0.252c-0.216,0.093-0.381,0.23-0.498,0.411c-0.116,0.18-0.175,0.38-0.175,0.599
			c0,0.337,0.127,0.617,0.381,0.841c0.255,0.224,0.628,0.337,1.118,0.337c0.486,0,0.918-0.107,1.297-0.319
			c0.379-0.212,0.656-0.504,0.835-0.873c0.135-0.285,0.203-0.706,0.203-1.262L255.773,477.213L255.773,477.213z M253.32,472.579
			l0.932-1.963h1.654l-1.542,1.963H253.32z"/>
		<path d="M258.082,478.726l1.248-0.196c0.07,0.5,0.265,0.882,0.585,1.149c0.32,0.267,0.768,0.399,1.343,0.399
			c0.58,0,1.01-0.117,1.29-0.353c0.28-0.236,0.42-0.513,0.42-0.831c0-0.285-0.123-0.51-0.372-0.673
			c-0.173-0.113-0.603-0.255-1.29-0.428c-0.925-0.233-1.567-0.435-1.924-0.606c-0.357-0.17-0.629-0.407-0.813-0.708
			c-0.184-0.302-0.277-0.635-0.277-0.999c0-0.332,0.076-0.639,0.228-0.921c0.152-0.282,0.359-0.517,0.621-0.705
			c0.196-0.145,0.463-0.267,0.803-0.368c0.339-0.1,0.702-0.15,1.089-0.15c0.584,0,1.097,0.084,1.54,0.252
			c0.442,0.168,0.767,0.395,0.978,0.683c0.211,0.287,0.355,0.672,0.434,1.153l-1.233,0.169c-0.056-0.383-0.219-0.682-0.487-0.897
			c-0.269-0.216-0.648-0.322-1.139-0.322c-0.58,0-0.993,0.095-1.241,0.287c-0.248,0.192-0.372,0.415-0.372,0.673
			c0,0.163,0.051,0.311,0.154,0.442c0.103,0.136,0.264,0.248,0.484,0.337c0.126,0.047,0.497,0.154,1.114,0.322
			c0.893,0.239,1.515,0.434,1.868,0.586c0.352,0.151,0.63,0.372,0.831,0.662c0.201,0.29,0.302,0.649,0.302,1.079
			c0,0.421-0.122,0.816-0.368,1.188c-0.246,0.372-0.6,0.659-1.062,0.862c-0.463,0.204-0.986,0.306-1.571,0.306
			c-0.967,0-1.705-0.201-2.211-0.603C258.545,480.111,258.222,479.516,258.082,478.726z"/>
		<path d="M268.928,472.123v-1.45h1.262v1.45H268.928z M268.928,480.948v-7.444h1.262v7.444H268.928z"/>
		<path d="M271.694,480.948v-7.444h1.135v1.059c0.547-0.818,1.337-1.227,2.37-1.227c0.448,0,0.861,0.081,1.237,0.242
			c0.376,0.161,0.657,0.373,0.845,0.634c0.186,0.262,0.317,0.573,0.392,0.932c0.047,0.234,0.07,0.643,0.07,1.227v4.577h-1.262
			v-4.528c0-0.514-0.049-0.898-0.147-1.153c-0.098-0.255-0.272-0.458-0.522-0.61c-0.25-0.151-0.543-0.228-0.879-0.228
			c-0.538,0-1.002,0.171-1.392,0.512c-0.39,0.341-0.585,0.988-0.585,1.941v4.065L271.694,480.948L271.694,480.948z"/>
		<path d="M279.562,480.948v-6.463h-1.115v-0.981h1.115v-0.792c0-0.5,0.045-0.872,0.133-1.114c0.122-0.327,0.336-0.593,0.642-0.796
			c0.306-0.204,0.734-0.306,1.286-0.306c0.355,0,0.747,0.042,1.178,0.127l-0.189,1.1c-0.262-0.047-0.51-0.07-0.743-0.07
			c-0.383,0-0.654,0.082-0.813,0.245c-0.158,0.164-0.238,0.47-0.238,0.918v0.687h1.45v0.981h-1.45v6.463H279.562z"/>
		<path d="M282.362,477.226c0-1.378,0.383-2.4,1.15-3.064c0.64-0.551,1.42-0.827,2.341-0.827c1.023,0,1.86,0.335,2.509,1.006
			c0.649,0.671,0.975,1.598,0.975,2.779c0,0.958-0.144,1.711-0.431,2.261c-0.287,0.548-0.706,0.975-1.255,1.279
			s-1.148,0.456-1.798,0.456c-1.042,0-1.884-0.334-2.527-1.003C282.685,479.445,282.362,478.483,282.362,477.226z M283.659,477.226
			c0,0.953,0.208,1.667,0.624,2.141c0.416,0.474,0.94,0.711,1.571,0.711c0.626,0,1.146-0.238,1.563-0.714
			c0.415-0.477,0.624-1.203,0.624-2.179c0-0.921-0.209-1.618-0.628-2.092c-0.418-0.475-0.938-0.712-1.559-0.712
			c-0.631,0-1.154,0.236-1.571,0.708C283.868,475.561,283.659,476.273,283.659,477.226z"/>
		<path d="M290.387,480.948v-7.444h1.135v1.129c0.29-0.528,0.557-0.877,0.803-1.045c0.246-0.169,0.515-0.252,0.81-0.252
			c0.425,0,0.858,0.135,1.297,0.407l-0.434,1.171c-0.309-0.182-0.617-0.274-0.925-0.274c-0.276,0-0.524,0.083-0.743,0.249
			c-0.22,0.166-0.376,0.396-0.47,0.691c-0.14,0.448-0.21,0.94-0.21,1.472v3.897L290.387,480.948L290.387,480.948L290.387,480.948z"
			/>
		<path d="M294.765,480.948v-7.444h1.128v1.045c0.234-0.365,0.545-0.658,0.932-0.88c0.387-0.221,0.83-0.333,1.325-0.333
			c0.551,0,1.004,0.115,1.357,0.344c0.352,0.229,0.602,0.549,0.746,0.96c0.588-0.87,1.355-1.304,2.299-1.304
			c0.738,0,1.306,0.204,1.703,0.613c0.397,0.41,0.596,1.039,0.596,1.889v5.11h-1.255v-4.689c0-0.505-0.041-0.868-0.123-1.09
			c-0.081-0.222-0.23-0.401-0.446-0.536c-0.216-0.136-0.467-0.204-0.757-0.204c-0.523,0-0.958,0.174-1.304,0.522
			c-0.346,0.348-0.519,0.906-0.519,1.672v4.325h-1.262v-4.837c0-0.56-0.103-0.981-0.309-1.262c-0.205-0.28-0.542-0.42-1.01-0.42
			c-0.355,0-0.683,0.094-0.984,0.281c-0.302,0.187-0.52,0.46-0.656,0.819c-0.135,0.36-0.203,0.878-0.203,1.556v3.862
			L294.765,480.948L294.765,480.948z"/>
		<path d="M311.164,480.03c-0.468,0.397-0.917,0.678-1.349,0.842c-0.432,0.163-0.896,0.246-1.392,0.246
			c-0.817,0-1.446-0.201-1.885-0.6c-0.44-0.399-0.659-0.91-0.659-1.532c0-0.364,0.083-0.698,0.249-0.999
			c0.165-0.301,0.383-0.543,0.652-0.725c0.269-0.182,0.571-0.32,0.908-0.414c0.248-0.066,0.621-0.129,1.122-0.189
			c1.018-0.121,1.769-0.267,2.249-0.434c0.005-0.173,0.007-0.282,0.007-0.329c0-0.514-0.119-0.877-0.357-1.087
			c-0.322-0.284-0.801-0.427-1.437-0.427c-0.594,0-1.032,0.104-1.314,0.312c-0.282,0.208-0.492,0.577-0.627,1.104l-1.234-0.168
			c0.113-0.528,0.297-0.955,0.554-1.279c0.257-0.325,0.629-0.574,1.114-0.749c0.486-0.175,1.049-0.263,1.689-0.263
			c0.636,0,1.152,0.075,1.549,0.224c0.397,0.15,0.689,0.338,0.877,0.565c0.186,0.226,0.317,0.513,0.392,0.858
			c0.042,0.216,0.063,0.603,0.063,1.163v1.682c0,1.174,0.027,1.915,0.081,2.226c0.054,0.311,0.16,0.609,0.318,0.893h-1.318
			C311.285,480.687,311.201,480.38,311.164,480.03z M311.058,477.213c-0.457,0.186-1.144,0.346-2.061,0.477
			c-0.518,0.075-0.886,0.159-1.1,0.252c-0.216,0.093-0.381,0.23-0.498,0.411c-0.116,0.18-0.175,0.38-0.175,0.599
			c0,0.337,0.126,0.617,0.381,0.841c0.255,0.224,0.628,0.337,1.118,0.337c0.486,0,0.918-0.107,1.297-0.319
			c0.379-0.212,0.656-0.504,0.835-0.873c0.135-0.285,0.203-0.706,0.203-1.262L311.058,477.213L311.058,477.213z"/>
		<path d="M318.731,478.222l1.24,0.161c-0.135,0.855-0.482,1.524-1.041,2.008c-0.559,0.483-1.244,0.726-2.057,0.726
			c-1.018,0-1.838-0.333-2.457-0.999c-0.619-0.666-0.928-1.62-0.928-2.863c0-0.804,0.133-1.508,0.399-2.11
			c0.267-0.602,0.672-1.054,1.216-1.356s1.137-0.452,1.777-0.452c0.808,0,1.47,0.204,1.983,0.613c0.514,0.41,0.844,0.99,0.988,1.742
			l-1.227,0.189c-0.116-0.5-0.323-0.877-0.62-1.129s-0.656-0.379-1.076-0.379c-0.636,0-1.151,0.228-1.549,0.683
			c-0.397,0.455-0.595,1.177-0.595,2.163c0,1,0.191,1.727,0.574,2.179c0.383,0.453,0.883,0.679,1.501,0.679
			c0.495,0,0.909-0.151,1.241-0.455C318.432,479.318,318.642,478.853,318.731,478.222z"/>
		<path d="M320.641,472.123v-1.45h1.262v1.45H320.641z M320.641,480.948v-7.444h1.262v7.444H320.641z"/>
		<path d="M322.938,477.226c0-1.378,0.384-2.4,1.15-3.064c0.64-0.551,1.42-0.827,2.341-0.827c1.023,0,1.86,0.335,2.509,1.006
			c0.649,0.671,0.975,1.598,0.975,2.779c0,0.958-0.144,1.711-0.431,2.261c-0.287,0.548-0.706,0.975-1.255,1.279
			s-1.148,0.456-1.798,0.456c-1.042,0-1.884-0.334-2.527-1.003C323.26,479.445,322.938,478.483,322.938,477.226z M324.234,477.226
			c0,0.953,0.208,1.667,0.624,2.141c0.416,0.474,0.94,0.711,1.571,0.711c0.626,0,1.146-0.238,1.563-0.714
			c0.415-0.477,0.624-1.203,0.624-2.179c0-0.921-0.209-1.618-0.628-2.092c-0.418-0.475-0.938-0.712-1.559-0.712
			c-0.631,0-1.154,0.236-1.571,0.708C324.444,475.561,324.234,476.273,324.234,477.226z M325.728,472.579l0.932-1.963h1.654
			l-1.542,1.963H325.728z"/>
		<path d="M330.974,480.948v-7.444h1.135v1.059c0.547-0.818,1.337-1.227,2.37-1.227c0.448,0,0.861,0.081,1.237,0.242
			c0.376,0.161,0.657,0.373,0.845,0.634c0.186,0.262,0.317,0.573,0.392,0.932c0.047,0.234,0.07,0.643,0.07,1.227v4.577h-1.262
			v-4.528c0-0.514-0.049-0.898-0.147-1.153c-0.098-0.255-0.272-0.458-0.522-0.61c-0.25-0.151-0.543-0.228-0.879-0.228
			c-0.538,0-1.002,0.171-1.392,0.512c-0.39,0.341-0.585,0.988-0.585,1.941v4.065L330.974,480.948L330.974,480.948z"/>
	</g>
</g>
<g>
	<rect x="550.509" y="192.419" width="41.301" height="2.044"/>
	<rect x="497.589" y="192.419" width="41.304" height="2.044"/>
	<rect x="485.975" y="192.419" width="3.871" height="2.044"/>
</g>
<g>
	<rect x="640.617" y="1.2" width="41.301" height="2.044"/>
	<rect x="587.697" y="1.2" width="41.304" height="2.044"/>
	<rect x="576.083" y="1.2" width="3.871" height="2.044"/>
</g>
<g>
	<rect x="789.139" y="497.659" width="41.301" height="2.044"/>
	<rect x="736.219" y="497.659" width="41.304" height="2.044"/>
	<rect x="724.604" y="497.659" width="3.871" height="2.044"/>
</g>
<g>
	<rect x="842.536" y="353.642" width="41.301" height="2.044"/>
	<rect x="895.453" y="353.642" width="41.304" height="2.044"/>
	<rect x="944.5" y="353.642" width="3.871" height="2.044"/>
</g>
<g>
	<rect x="869.513" y="103.398" width="83.854" height="2.066"/>
	<rect x="869.513" y="96.779" width="55.165" height="2.068"/>
</g>
<g>
	<rect x="476.933" y="446.901" width="83.854" height="2.066"/>
	<rect x="505.622" y="440.282" width="55.165" height="2.068"/>
</g>
<g id="XMLID_15_">
	<g id="XMLID_19_">
		
			<line id="XMLID_21_" fill="none" stroke="#000000" stroke-width="3" stroke-miterlimit="10" x1="934.399" y1="151.895" x2="927.717" y2="158.577"/>
		
			<line id="XMLID_20_" fill="none" stroke="#000000" stroke-width="3" stroke-miterlimit="10" x1="918.594" y1="167.699" x2="911.914" y2="174.38"/>
	</g>
	<g id="XMLID_16_">
		
			<line id="XMLID_18_" fill="none" stroke="#000000" stroke-width="3" stroke-miterlimit="10" x1="911.914" y1="151.895" x2="918.594" y2="158.577"/>
		
			<line id="XMLID_17_" fill="none" stroke="#000000" stroke-width="3" stroke-miterlimit="10" x1="927.717" y1="167.699" x2="934.399" y2="174.38"/>
	</g>
</g>
<g id="XMLID_8_">
	<g id="XMLID_12_">
		
			<line id="XMLID_14_" fill="none" stroke="#000000" stroke-width="3" stroke-miterlimit="10" x1="682.739" y1="487" x2="676.057" y2="493.682"/>
		
			<line id="XMLID_13_" fill="none" stroke="#000000" stroke-width="3" stroke-miterlimit="10" x1="666.934" y1="502.804" x2="660.254" y2="509.484"/>
	</g>
	<g id="XMLID_9_">
		
			<line id="XMLID_11_" fill="none" stroke="#000000" stroke-width="3" stroke-miterlimit="10" x1="660.254" y1="487" x2="666.934" y2="493.682"/>
		
			<line id="XMLID_10_" fill="none" stroke="#000000" stroke-width="3" stroke-miterlimit="10" x1="676.057" y1="502.804" x2="682.739" y2="509.484"/>
	</g>
</g>
<g id="XMLID_1_">
	<g id="XMLID_5_">
		
			<line id="XMLID_7_" fill="none" stroke="#000000" stroke-width="3" stroke-miterlimit="10" x1="828.517" y1="3.702" x2="821.834" y2="10.384"/>
		
			<line id="XMLID_6_" fill="none" stroke="#000000" stroke-width="3" stroke-miterlimit="10" x1="812.711" y1="19.506" x2="806.031" y2="26.187"/>
	</g>
	<g id="XMLID_2_">
		
			<line id="XMLID_4_" fill="none" stroke="#000000" stroke-width="3" stroke-miterlimit="10" x1="806.031" y1="3.702" x2="812.711" y2="10.384"/>
		
			<line id="XMLID_3_" fill="none" stroke="#000000" stroke-width="3" stroke-miterlimit="10" x1="821.834" y1="19.506" x2="828.517" y2="26.187"/>
	</g>
</g>
<g>
	<g>
		
			<radialGradient id="SVGID_4_" cx="311.802" cy="832.1735" r="199.4146" gradientTransform="matrix(1 0 0 1 405.715 -570.7699)" gradientUnits="userSpaceOnUse">
			<stop  offset="0" style="stop-color:#8CBB69"/>
			<stop  offset="0.7837" style="stop-color:#6BAD44"/>
		</radialGradient>
		<rect x="538.893" y="43.17" fill="url(#SVGID_4_)" width="357.248" height="436.467"/>
		<path d="M896.141,481.861H538.893c-1.23,0-2.229-0.996-2.229-2.225V43.17c0-1.23,0.998-2.223,2.229-2.223h357.248
			c1.231,0,2.227,0.992,2.227,2.223v436.467C898.367,480.865,897.371,481.861,896.141,481.861z M541.115,477.413H893.92V45.393
			H541.115V477.413z"/>
	</g>
	<g>
		<rect x="562.738" y="67.023" fill="#FFFFFF" width="309.553" height="388.759"/>
		<path d="M872.291,458.008H562.738c-1.225,0-2.223-0.997-2.223-2.226V67.023c0-1.23,0.998-2.223,2.223-2.223h309.553
			c1.23,0,2.228,0.992,2.228,2.223v388.759C874.519,457.011,873.521,458.008,872.291,458.008z M564.965,453.561H870.07V69.249
			H564.965V453.561z"/>
	</g>
	<g>
		<rect x="654.59" y="27.669" fill="#FFFFFF" width="125.859" height="56.456"/>
		<path d="M780.449,86.348H654.59c-1.227,0-2.221-0.996-2.221-2.223V27.669c0-1.227,0.994-2.221,2.221-2.221h125.859
			c1.231,0,2.223,0.993,2.223,2.221v56.456C782.672,85.352,781.68,86.348,780.449,86.348z M656.818,81.898h121.41V29.895h-121.41
			V81.898z"/>
	</g>
	<g>
		<rect x="703.211" y="2.223" fill="#FFFFFF" width="28.617" height="25.442"/>
		<path d="M731.828,29.888h-28.617c-1.229,0-2.221-0.995-2.221-2.223V2.223c0-1.229,0.992-2.223,2.221-2.223h28.617
			c1.233,0,2.229,0.994,2.229,2.223v25.442C734.057,28.893,733.061,29.888,731.828,29.888z M705.434,25.438h24.172V4.445h-24.172
			V25.438z"/>
	</g>
</g>
<g>
	
		<line fill="none" stroke="#231F20" stroke-width="3.2" stroke-linejoin="round" stroke-miterlimit="10" x1="911.44" y1="480.457" x2="946.079" y2="480.457"/>
	
		<line fill="none" stroke="#231F20" stroke-width="3.2" stroke-linejoin="round" stroke-miterlimit="10" x1="915.514" y1="463.142" x2="958.918" y2="463.142"/>
	
		<line fill="none" stroke="#231F20" stroke-width="3.2" stroke-linejoin="round" stroke-miterlimit="10" x1="913.479" y1="443.782" x2="932.835" y2="443.782"/>
</g>
<g>
	
		<line fill="none" stroke="#231F20" stroke-width="3.2" stroke-linejoin="round" stroke-miterlimit="10" x1="527.309" y1="66.501" x2="492.67" y2="66.501"/>
	
		<line fill="none" stroke="#231F20" stroke-width="3.2" stroke-linejoin="round" stroke-miterlimit="10" x1="523.235" y1="49.186" x2="479.831" y2="49.186"/>
	
		<line fill="none" stroke="#231F20" stroke-width="3.2" stroke-linejoin="round" stroke-miterlimit="10" x1="525.271" y1="29.826" x2="505.914" y2="29.826"/>
</g>
</svg>
