<!-- Generator: Adobe Illustrator 17.0.0, SVG Export Plug-In  -->
<svg version="1.1"
	 xmlns="http://www.w3.org/2000/svg" xmlns:xlink="http://www.w3.org/1999/xlink" xmlns:a="http://ns.adobe.com/AdobeSVGViewerExtensions/3.0/"
	 x="0px" y="0px" width="348.151px" height="57.694px" viewBox="0 0 348.151 57.694" enable-background="new 0 0 348.151 57.694"
	 xml:space="preserve">
<defs>
</defs>
<g>
	<g>
		<radialGradient id="SVGID_1_" cx="174.0757" cy="28.8482" r="122.6452" gradientUnits="userSpaceOnUse">
			<stop  offset="0" style="stop-color:#8CBB69"/>
			<stop  offset="0.7837" style="stop-color:#6BAD44"/>
		</radialGradient>
		<rect x="2.623" y="2.624" fill="url(#SVGID_1_)" width="342.905" height="52.448"/>
		<path d="M345.528,57.694H2.623C1.176,57.694,0,56.521,0,55.072V2.624C0,1.176,1.176,0,2.623,0h342.905
			c1.449,0,2.623,1.176,2.623,2.624v52.448C348.151,56.521,346.978,57.694,345.528,57.694z M5.247,52.45h337.661V5.247H5.247V52.45z
			"/>
	</g>
</g>
<g>
	<g>
		<path fill="#FFFFFF" d="M106.442,37.833V20.576h6.509c1.146,0,2.021,0.055,2.626,0.164c0.847,0.142,1.558,0.41,2.13,0.807
			c0.573,0.396,1.034,0.952,1.384,1.666c0.349,0.714,0.523,1.499,0.523,2.354c0,1.467-0.467,2.709-1.4,3.726
			c-0.935,1.017-2.621,1.524-5.063,1.524h-4.426v7.016H106.442z M108.726,28.78h4.462c1.475,0,2.522-0.274,3.143-0.823
			c0.62-0.55,0.93-1.322,0.93-2.319c0-0.722-0.183-1.34-0.547-1.854c-0.365-0.514-0.846-0.853-1.442-1.018
			c-0.385-0.103-1.095-0.153-2.131-0.153h-4.414V28.78z"/>
		<path fill="#FFFFFF" d="M122.558,37.833V20.576h7.651c1.538,0,2.707,0.155,3.508,0.465s1.44,0.857,1.919,1.642
			c0.479,0.785,0.718,1.652,0.718,2.602c0,1.225-0.396,2.257-1.188,3.097c-0.793,0.84-2.018,1.373-3.673,1.601
			c0.604,0.29,1.063,0.577,1.377,0.859c0.667,0.612,1.299,1.377,1.896,2.295l3.002,4.697h-2.873l-2.283-3.59
			c-0.667-1.036-1.217-1.829-1.648-2.378c-0.432-0.55-0.817-0.935-1.159-1.154s-0.688-0.372-1.042-0.459
			c-0.259-0.055-0.683-0.082-1.271-0.082h-2.648v7.663H122.558z M124.841,28.192h4.909c1.043,0,1.859-0.108,2.448-0.324
			s1.036-0.561,1.342-1.036c0.307-0.475,0.459-0.99,0.459-1.548c0-0.815-0.296-1.486-0.889-2.013
			c-0.593-0.525-1.528-0.789-2.808-0.789h-5.462V28.192z"/>
		<path fill="#FFFFFF" d="M140.32,37.833V20.576h2.284v17.257H140.32z"/>
		<path fill="#FFFFFF" d="M146.606,37.833V20.576h2.343l9.064,13.549V20.576h2.189v17.257h-2.343l-9.064-13.561v13.561H146.606z"/>
		<path fill="#FFFFFF" d="M176.353,31.782l2.284,0.577c-0.479,1.876-1.341,3.306-2.584,4.291c-1.244,0.984-2.765,1.477-4.562,1.477
			c-1.86,0-3.373-0.378-4.538-1.136c-1.165-0.757-2.053-1.854-2.66-3.29c-0.608-1.437-0.912-2.979-0.912-4.626
			c0-1.797,0.343-3.365,1.029-4.703s1.664-2.354,2.932-3.049c1.267-0.694,2.662-1.042,4.185-1.042c1.727,0,3.179,0.44,4.355,1.318
			c1.177,0.88,1.997,2.115,2.46,3.708l-2.248,0.53c-0.4-1.256-0.981-2.17-1.742-2.743c-0.762-0.572-1.719-0.859-2.872-0.859
			c-1.326,0-2.436,0.318-3.326,0.954s-1.517,1.489-1.877,2.56c-0.361,1.071-0.542,2.177-0.542,3.314
			c0,1.468,0.214,2.748,0.642,3.843s1.093,1.913,1.995,2.455c0.902,0.541,1.88,0.812,2.932,0.812c1.279,0,2.362-0.368,3.249-1.106
			C175.439,34.329,176.04,33.234,176.353,31.782z"/>
		<path fill="#FFFFFF" d="M181.839,37.833V20.576h2.284v17.257H181.839z"/>
		<path fill="#FFFFFF" d="M188.149,37.833V20.576h6.509c1.146,0,2.021,0.055,2.626,0.164c0.847,0.142,1.558,0.41,2.13,0.807
			c0.573,0.396,1.034,0.952,1.384,1.666c0.349,0.714,0.523,1.499,0.523,2.354c0,1.467-0.467,2.709-1.4,3.726
			c-0.935,1.017-2.621,1.524-5.063,1.524h-4.426v7.016H188.149z M190.433,28.78h4.462c1.475,0,2.522-0.274,3.143-0.823
			c0.62-0.55,0.93-1.322,0.93-2.319c0-0.722-0.183-1.34-0.547-1.854c-0.365-0.514-0.846-0.853-1.442-1.018
			c-0.385-0.103-1.095-0.153-2.131-0.153h-4.414V28.78z"/>
		<path fill="#FFFFFF" d="M204.617,37.833V20.576h2.284v17.257H204.617z"/>
		<path fill="#FFFFFF" d="M210.232,29.428c0-2.864,0.77-5.106,2.308-6.728c1.538-1.62,3.523-2.431,5.956-2.431
			c1.594,0,3.029,0.381,4.309,1.143c1.279,0.761,2.254,1.822,2.926,3.184c0.671,1.362,1.006,2.906,1.006,4.632
			c0,1.751-0.353,3.316-1.06,4.697c-0.706,1.382-1.707,2.427-3.001,3.137c-1.295,0.711-2.692,1.065-4.191,1.065
			c-1.624,0-3.076-0.392-4.355-1.177s-2.248-1.855-2.907-3.214C210.562,32.379,210.232,30.942,210.232,29.428z M212.587,29.464
			c0,2.079,0.56,3.718,1.678,4.914c1.118,1.197,2.521,1.795,4.208,1.795c1.719,0,3.133-0.604,4.244-1.813
			c1.11-1.208,1.665-2.923,1.665-5.145c0-1.404-0.237-2.631-0.712-3.678c-0.475-1.048-1.169-1.86-2.083-2.438
			c-0.915-0.576-1.941-0.865-3.079-0.865c-1.616,0-3.007,0.556-4.173,1.666C213.17,25.012,212.587,26.866,212.587,29.464z"/>
		<path fill="#FFFFFF" d="M228.902,32.289l2.154-0.188c0.102,0.863,0.339,1.571,0.712,2.124c0.373,0.554,0.951,1.001,1.736,1.343
			c0.785,0.341,1.668,0.512,2.648,0.512c0.871,0,1.641-0.13,2.308-0.389s1.163-0.614,1.489-1.065
			c0.325-0.451,0.488-0.943,0.488-1.478c0-0.541-0.157-1.014-0.471-1.418c-0.314-0.404-0.832-0.743-1.554-1.019
			c-0.464-0.18-1.487-0.461-3.072-0.842c-1.586-0.38-2.696-0.739-3.332-1.077c-0.824-0.431-1.438-0.967-1.842-1.606
			s-0.606-1.355-0.606-2.148c0-0.871,0.247-1.685,0.741-2.442c0.495-0.757,1.217-1.332,2.166-1.725
			c0.95-0.393,2.006-0.589,3.167-0.589c1.279,0,2.407,0.206,3.384,0.618c0.978,0.412,1.729,1.019,2.255,1.819
			c0.525,0.8,0.808,1.706,0.848,2.719l-2.189,0.165c-0.118-1.091-0.517-1.915-1.195-2.473c-0.679-0.557-1.682-0.835-3.008-0.835
			c-1.381,0-2.388,0.253-3.02,0.759c-0.631,0.506-0.947,1.116-0.947,1.831c0,0.619,0.224,1.13,0.671,1.53
			c0.439,0.399,1.587,0.81,3.443,1.229c1.855,0.42,3.129,0.787,3.82,1.101c1.004,0.464,1.746,1.05,2.225,1.76
			c0.479,0.711,0.718,1.528,0.718,2.455c0,0.918-0.263,1.783-0.789,2.596c-0.525,0.812-1.281,1.443-2.266,1.895
			c-0.985,0.451-2.094,0.677-3.325,0.677c-1.562,0-2.871-0.228-3.926-0.683c-1.056-0.455-1.884-1.14-2.484-2.054
			C229.25,34.477,228.934,33.442,228.902,32.289z"/>
	</g>
</g>
</svg>