<?xml version="1.0" encoding="utf-8"?>
<!-- Generator: Adobe Illustrator 17.0.0, SVG Export Plug-In . SVG Version: 6.00 Build 0)  -->
<!DOCTYPE svg PUBLIC "-//W3C//DTD SVG 1.1//EN" "http://www.w3.org/Graphics/SVG/1.1/DTD/svg11.dtd" [
	<!ENTITY ns_extend "http://ns.adobe.com/Extensibility/1.0/">
	<!ENTITY ns_ai "http://ns.adobe.com/AdobeIllustrator/10.0/">
	<!ENTITY ns_graphs "http://ns.adobe.com/Graphs/1.0/">
	<!ENTITY ns_vars "http://ns.adobe.com/Variables/1.0/">
	<!ENTITY ns_imrep "http://ns.adobe.com/ImageReplacement/1.0/">
	<!ENTITY ns_sfw "http://ns.adobe.com/SaveForWeb/1.0/">
	<!ENTITY ns_custom "http://ns.adobe.com/GenericCustomNamespace/1.0/">
	<!ENTITY ns_adobe_xpath "http://ns.adobe.com/XPath/1.0/">
]>
<svg version="1.1" id="Capa_1" xmlns:x="&ns_extend;" xmlns:i="&ns_ai;" xmlns:graph="&ns_graphs;"
	 xmlns="http://www.w3.org/2000/svg" xmlns:xlink="http://www.w3.org/1999/xlink" x="0px" y="0px" width="480.234px"
	 height="434.415px" viewBox="0 0 480.234 434.415" enable-background="new 0 0 480.234 434.415" xml:space="preserve">
<metadata>
	<sfw  xmlns="&ns_sfw;">
		<slices></slices>
		<sliceSourceBounds  width="480.234" height="429.415" y="468.293" x="227.383" bottomLeftOrigin="true"></sliceSourceBounds>
	</sfw>
</metadata>
<g>
	<path fill="#144B8B" d="M42.784,8.48c-0.233,0.542-0.552,1.016-0.958,1.422s-0.883,0.726-1.429,0.958s-1.128,0.349-1.745,0.349
		h-4.127v6.995h-1.637V0h5.764c0.617,0,1.199,0.116,1.745,0.349s1.022,0.552,1.429,0.958s0.725,0.882,0.958,1.428
		s0.349,1.128,0.349,1.746v2.26C43.133,7.359,43.018,7.939,42.784,8.48z M41.496,4.481c0-0.406-0.076-0.785-0.229-1.136
		s-0.362-0.66-0.629-0.927s-0.576-0.476-0.927-0.628s-0.729-0.229-1.136-0.229h-4.051v8.087h4.051c0.406,0,0.785-0.076,1.136-0.229
		s0.66-0.36,0.927-0.622s0.477-0.569,0.629-0.92s0.229-0.73,0.229-1.136V4.481z"/>
	<path fill="#144B8B" d="M49.557,6.69c-0.313,0-0.607,0.059-0.882,0.178S48.16,7.147,47.957,7.35s-0.363,0.442-0.482,0.717
		c-0.118,0.275-0.178,0.569-0.178,0.882v9.255h-1.561v-13h0.52l0.852,1.32c0.355-0.482,0.801-0.865,1.339-1.149
		s1.124-0.425,1.759-0.425h0.914v1.74C51.12,6.69,49.557,6.69,49.557,6.69z"/>
	<path fill="#144B8B" d="M61.586,16.123c-0.199,0.465-0.472,0.872-0.818,1.219c-0.348,0.347-0.754,0.62-1.219,0.819
		c-0.466,0.199-0.961,0.298-1.486,0.298h-1.041c-0.524,0-1.02-0.1-1.484-0.298c-0.466-0.199-0.872-0.472-1.219-0.819
		c-0.348-0.347-0.621-0.753-0.819-1.219s-0.298-0.96-0.298-1.485V8.772c0-0.525,0.1-1.02,0.298-1.485s0.472-0.872,0.819-1.219
		c0.347-0.347,0.753-0.62,1.219-0.819c0.465-0.199,0.96-0.298,1.484-0.298h1.041c0.525,0,1.021,0.1,1.486,0.298
		c0.465,0.199,0.871,0.472,1.219,0.819c0.347,0.347,0.619,0.753,0.818,1.219s0.299,0.96,0.299,1.485v5.865
		C61.885,15.163,61.785,15.658,61.586,16.123z M60.322,8.684c0-0.313-0.059-0.607-0.178-0.882c-0.118-0.275-0.279-0.514-0.482-0.717
		s-0.441-0.364-0.717-0.482s-0.569-0.178-0.883-0.178h-1.041c-0.313,0-0.607,0.059-0.882,0.178s-0.515,0.279-0.718,0.482
		s-0.363,0.442-0.482,0.717c-0.118,0.275-0.178,0.569-0.178,0.882v6.043c0,0.313,0.06,0.607,0.178,0.882
		c0.119,0.275,0.279,0.514,0.482,0.717s0.443,0.364,0.718,0.482s0.569,0.178,0.882,0.178h1.041c0.313,0,0.607-0.059,0.883-0.178
		s0.514-0.279,0.717-0.482s0.364-0.442,0.482-0.717c0.119-0.275,0.178-0.569,0.178-0.882V8.684z"/>
	<path fill="#144B8B" d="M67.115,23.41h-1.512l2.311-6.322L63.699,5.205h1.563l3.389,9.852l0.051,0.673l0.051-0.673l3.377-9.852
		h1.563L67.115,23.41z"/>
	<path fill="#144B8B" d="M83.638,16.123c-0.198,0.465-0.472,0.872-0.819,1.219s-0.753,0.62-1.219,0.819
		c-0.465,0.199-0.96,0.298-1.484,0.298h-1.041c-0.525,0-1.021-0.1-1.486-0.298c-0.465-0.199-0.871-0.472-1.219-0.819
		c-0.347-0.347-0.619-0.753-0.818-1.219s-0.299-0.96-0.299-1.485V8.772c0-0.525,0.1-1.02,0.299-1.485s0.472-0.872,0.818-1.219
		c0.348-0.347,0.754-0.62,1.219-0.819c0.466-0.199,0.961-0.298,1.486-0.298h1.041c0.524,0,1.02,0.1,1.484,0.298
		c0.466,0.199,0.872,0.472,1.219,0.819c0.348,0.347,0.621,0.753,0.819,1.219s0.298,0.96,0.298,1.485v3.06h-7.121v2.895
		c0,0.313,0.059,0.607,0.178,0.882c0.118,0.275,0.279,0.514,0.482,0.717s0.441,0.364,0.717,0.482s0.569,0.178,0.883,0.178h1.041
		c0.313,0,0.607-0.059,0.882-0.178s0.515-0.279,0.718-0.482s0.363-0.442,0.482-0.717c0.118-0.275,0.178-0.569,0.178-0.882v-0.863
		l1.561,0.254v0.521C83.936,15.163,83.836,15.658,83.638,16.123z M82.375,8.684c0-0.313-0.06-0.607-0.178-0.882
		c-0.119-0.275-0.279-0.514-0.482-0.717s-0.443-0.364-0.718-0.482s-0.569-0.178-0.882-0.178h-1.041
		c-0.313,0-0.607,0.059-0.883,0.178s-0.514,0.279-0.717,0.482s-0.364,0.442-0.482,0.717c-0.119,0.275-0.178,0.569-0.178,0.882v1.93
		h5.561L82.375,8.684L82.375,8.684z"/>
	<path fill="#144B8B" d="M95.444,16.123c-0.198,0.465-0.472,0.872-0.819,1.219s-0.753,0.62-1.219,0.819
		c-0.465,0.199-0.96,0.298-1.484,0.298h-1.041c-0.525,0-1.021-0.1-1.486-0.298c-0.465-0.199-0.871-0.472-1.219-0.819
		c-0.347-0.347-0.619-0.753-0.818-1.219s-0.299-0.96-0.299-1.485V8.772c0-0.525,0.1-1.02,0.299-1.485s0.472-0.872,0.818-1.219
		c0.348-0.347,0.754-0.62,1.219-0.819c0.466-0.199,0.961-0.298,1.486-0.298h1.041c0.524,0,1.02,0.1,1.484,0.298
		c0.466,0.199,0.872,0.472,1.219,0.819c0.348,0.347,0.621,0.753,0.819,1.219s0.298,0.96,0.298,1.485v0.521l-1.561,0.254V8.684
		c0-0.313-0.06-0.607-0.178-0.882c-0.119-0.275-0.279-0.514-0.482-0.717s-0.443-0.364-0.718-0.482s-0.569-0.178-0.882-0.178H90.88
		c-0.313,0-0.607,0.059-0.883,0.178s-0.514,0.279-0.717,0.482s-0.364,0.442-0.482,0.717c-0.119,0.275-0.178,0.569-0.178,0.882v6.043
		c0,0.313,0.059,0.607,0.178,0.882c0.118,0.275,0.279,0.514,0.482,0.717s0.441,0.364,0.717,0.482s0.569,0.178,0.883,0.178h1.041
		c0.313,0,0.607-0.059,0.882-0.178s0.515-0.279,0.718-0.482s0.363-0.442,0.482-0.717c0.118-0.275,0.178-0.569,0.178-0.882v-0.863
		l1.561,0.254v0.521C95.742,15.163,95.643,15.658,95.444,16.123z"/>
	<path fill="#144B8B" d="M103.602,18.205c-0.475,0-0.921-0.089-1.34-0.267s-0.783-0.423-1.092-0.736s-0.555-0.677-0.736-1.092
		s-0.273-0.859-0.273-1.333V6.69h-2.336V5.205h2.336V2.082l1.563-0.254v3.377h3.301V6.69h-3.301v8.163
		c0,0.262,0.049,0.506,0.146,0.73s0.23,0.421,0.399,0.59c0.17,0.169,0.369,0.303,0.598,0.4s0.474,0.146,0.736,0.146h1.422v1.485
		L103.602,18.205L103.602,18.205z"/>
	<path fill="#144B8B" d="M116.277,16.123c-0.199,0.465-0.472,0.872-0.818,1.219c-0.348,0.347-0.754,0.62-1.219,0.819
		c-0.466,0.199-0.961,0.298-1.486,0.298h-1.041c-0.524,0-1.02-0.1-1.484-0.298c-0.466-0.199-0.872-0.472-1.219-0.819
		c-0.348-0.347-0.621-0.753-0.819-1.219s-0.298-0.96-0.298-1.485V8.772c0-0.525,0.1-1.02,0.298-1.485s0.472-0.872,0.819-1.219
		c0.347-0.347,0.753-0.62,1.219-0.819c0.465-0.199,0.96-0.298,1.484-0.298h1.041c0.525,0,1.021,0.1,1.486,0.298
		c0.465,0.199,0.871,0.472,1.219,0.819c0.347,0.347,0.619,0.753,0.818,1.219s0.299,0.96,0.299,1.485v5.865
		C116.576,15.163,116.477,15.658,116.277,16.123z M115.014,8.684c0-0.313-0.059-0.607-0.178-0.882
		c-0.118-0.275-0.279-0.514-0.482-0.717s-0.441-0.364-0.717-0.482s-0.569-0.178-0.883-0.178h-1.041
		c-0.313,0-0.607,0.059-0.882,0.178s-0.515,0.279-0.718,0.482s-0.363,0.442-0.482,0.717c-0.118,0.275-0.178,0.569-0.178,0.882v6.043
		c0,0.313,0.06,0.607,0.178,0.882c0.119,0.275,0.279,0.514,0.482,0.717s0.443,0.364,0.718,0.482s0.569,0.178,0.882,0.178h1.041
		c0.313,0,0.607-0.059,0.883-0.178s0.514-0.279,0.717-0.482s0.364-0.442,0.482-0.717c0.119-0.275,0.178-0.569,0.178-0.882V8.684z"/>
	<path fill="#144B8B" d="M134.615,14.904c0,0.525-0.105,1.005-0.316,1.441c-0.212,0.436-0.5,0.811-0.863,1.124
		c-0.364,0.313-0.785,0.557-1.264,0.73s-0.979,0.26-1.504,0.26h-1.041c-0.525,0-1.027-0.1-1.505-0.298
		c-0.478-0.199-0.897-0.472-1.257-0.819s-0.647-0.753-0.863-1.219s-0.324-0.96-0.324-1.485v-0.521l1.563-0.254v0.863
		c0,0.313,0.064,0.607,0.196,0.882s0.307,0.514,0.526,0.717c0.221,0.203,0.475,0.364,0.762,0.482
		c0.288,0.119,0.589,0.178,0.902,0.178h1.041c0.313,0,0.613-0.046,0.9-0.14c0.288-0.093,0.545-0.227,0.769-0.4
		s0.401-0.383,0.533-0.628s0.196-0.525,0.196-0.838c0-0.465-0.102-0.846-0.305-1.143s-0.471-0.544-0.806-0.743
		s-0.716-0.364-1.143-0.495s-0.865-0.262-1.313-0.394c-0.449-0.131-0.887-0.281-1.314-0.451c-0.428-0.169-0.809-0.392-1.143-0.667
		s-0.604-0.62-0.807-1.035s-0.305-0.931-0.305-1.549c0-0.525,0.102-1.005,0.305-1.441s0.479-0.811,0.826-1.124
		s0.75-0.557,1.212-0.73c0.462-0.173,0.954-0.26,1.479-0.26h0.914c0.524,0,1.02,0.1,1.484,0.298
		c0.466,0.199,0.872,0.472,1.219,0.819c0.348,0.347,0.621,0.753,0.819,1.219s0.298,0.96,0.298,1.485v0.051l-1.561,0.254V8.684
		c0-0.313-0.06-0.607-0.178-0.882c-0.119-0.275-0.279-0.514-0.482-0.717s-0.443-0.364-0.718-0.482s-0.569-0.178-0.882-0.178h-0.914
		c-0.313,0-0.607,0.046-0.883,0.14s-0.514,0.227-0.717,0.4c-0.203,0.173-0.364,0.383-0.482,0.628
		c-0.119,0.246-0.178,0.525-0.178,0.838c0,0.449,0.102,0.814,0.305,1.098s0.471,0.522,0.806,0.717s0.716,0.357,1.143,0.489
		s0.863,0.267,1.308,0.406s0.881,0.298,1.308,0.476s0.808,0.406,1.143,0.686s0.603,0.628,0.806,1.047S134.615,14.287,134.615,14.904
		z"/>
	<path fill="#144B8B" d="M145.997,16.123c-0.198,0.465-0.472,0.872-0.819,1.219s-0.753,0.62-1.219,0.819
		c-0.465,0.199-0.96,0.298-1.484,0.298h-1.041c-0.525,0-1.021-0.1-1.486-0.298c-0.465-0.199-0.871-0.472-1.219-0.819
		c-0.347-0.347-0.619-0.753-0.818-1.219s-0.299-0.96-0.299-1.485V8.772c0-0.525,0.1-1.02,0.299-1.485s0.472-0.872,0.818-1.219
		c0.348-0.347,0.754-0.62,1.219-0.819c0.466-0.199,0.961-0.298,1.486-0.298h1.041c0.524,0,1.02,0.1,1.484,0.298
		c0.466,0.199,0.872,0.472,1.219,0.819c0.348,0.347,0.621,0.753,0.819,1.219s0.298,0.96,0.298,1.485v5.865
		C146.295,15.163,146.195,15.658,145.997,16.123z M144.734,8.684c0-0.313-0.06-0.607-0.178-0.882
		c-0.119-0.275-0.279-0.514-0.482-0.717s-0.443-0.364-0.718-0.482s-0.569-0.178-0.882-0.178h-1.041
		c-0.313,0-0.607,0.059-0.883,0.178s-0.514,0.279-0.717,0.482s-0.364,0.442-0.482,0.717c-0.119,0.275-0.178,0.569-0.178,0.882v6.043
		c0,0.313,0.059,0.607,0.178,0.882c0.118,0.275,0.279,0.514,0.482,0.717s0.441,0.364,0.717,0.482s0.569,0.178,0.883,0.178h1.041
		c0.313,0,0.607-0.059,0.882-0.178s0.515-0.279,0.718-0.482s0.363-0.442,0.482-0.717c0.118-0.275,0.178-0.569,0.178-0.882V8.684z"/>
	<path fill="#144B8B" d="M153.887,1.485c-0.262,0-0.506,0.049-0.729,0.146s-0.421,0.23-0.591,0.4
		c-0.169,0.169-0.303,0.368-0.399,0.597s-0.146,0.474-0.146,0.736v1.841h3.033V6.69h-3.033v11.515h-1.563V6.69h-2.348V5.205h2.348
		V3.44c0-0.474,0.09-0.92,0.268-1.339s0.423-0.785,0.736-1.098c0.313-0.313,0.677-0.559,1.092-0.736
		C152.969,0.089,153.413,0,153.887,0h1.436v1.485H153.887z"/>
	<path fill="#144B8B" d="M161.619,18.205c-0.475,0-0.921-0.089-1.34-0.267s-0.783-0.423-1.092-0.736s-0.555-0.677-0.736-1.092
		s-0.273-0.859-0.273-1.333V6.69h-2.336V5.205h2.336V2.082l1.563-0.254v3.377h3.301V6.69h-3.301v8.163
		c0,0.262,0.049,0.506,0.146,0.73s0.23,0.421,0.399,0.59c0.17,0.169,0.369,0.303,0.598,0.4s0.474,0.146,0.736,0.146h1.422v1.485
		L161.619,18.205L161.619,18.205z"/>
	<path fill="#144B8B" d="M176.853,18.205h-0.852l-3.047-9.801l-0.051-0.673l-0.051,0.673l-3.047,9.801h-0.863l-4.342-13h1.588
		l3.098,9.826l0.051,0.673l0.051-0.673l3.047-9.826h0.939l3.033,9.826l0.051,0.673l0.051-0.673l3.098-9.826h1.588L176.853,18.205z"
		/>
	<path fill="#144B8B" d="M191.186,18.205l-0.863-1.295c-0.355,0.465-0.799,0.84-1.332,1.124s-1.117,0.425-1.752,0.425h-0.395
		c-0.524,0-1.02-0.1-1.484-0.298c-0.466-0.199-0.872-0.472-1.219-0.819c-0.348-0.347-0.621-0.753-0.819-1.219
		s-0.298-0.96-0.298-1.485v-0.127c0-0.525,0.1-1.02,0.298-1.485s0.472-0.872,0.819-1.219s0.753-0.62,1.219-0.819
		c0.465-0.199,0.96-0.298,1.484-0.298h3.301V8.684c0-0.313-0.059-0.607-0.178-0.882c-0.118-0.275-0.279-0.514-0.482-0.717
		s-0.441-0.364-0.717-0.482s-0.569-0.178-0.883-0.178h-0.914c-0.313,0-0.607,0.059-0.882,0.178s-0.515,0.279-0.718,0.482
		s-0.363,0.442-0.482,0.717c-0.118,0.275-0.178,0.569-0.178,0.882v0.47L183.15,8.9V8.772c0-0.525,0.1-1.02,0.298-1.485
		s0.472-0.872,0.819-1.219c0.347-0.347,0.753-0.62,1.219-0.819c0.465-0.199,0.96-0.298,1.484-0.298h0.914
		c0.525,0,1.021,0.1,1.486,0.298c0.465,0.199,0.871,0.472,1.219,0.819c0.347,0.347,0.619,0.753,0.818,1.219s0.299,0.96,0.299,1.485
		v9.433H191.186z M190.144,11.908h-3.301c-0.313,0-0.607,0.059-0.882,0.178s-0.515,0.281-0.718,0.489s-0.363,0.449-0.482,0.724
		c-0.118,0.275-0.178,0.569-0.178,0.882v0.546c0,0.313,0.06,0.607,0.178,0.882c0.119,0.275,0.279,0.514,0.482,0.717
		s0.443,0.364,0.718,0.482s0.569,0.178,0.882,0.178h1.041c0.313,0,0.607-0.059,0.883-0.178s0.514-0.279,0.717-0.482
		s0.364-0.442,0.482-0.717c0.119-0.275,0.178-0.569,0.178-0.882L190.144,11.908L190.144,11.908z"/>
	<path fill="#144B8B" d="M198.65,6.69c-0.313,0-0.607,0.059-0.882,0.178s-0.515,0.279-0.718,0.482s-0.363,0.442-0.482,0.717
		c-0.118,0.275-0.178,0.569-0.178,0.882v9.255h-1.561v-13h0.52l0.852,1.32c0.355-0.482,0.801-0.865,1.339-1.149
		s1.124-0.425,1.759-0.425h0.914v1.74C200.213,6.69,198.65,6.69,198.65,6.69z"/>
	<path fill="#144B8B" d="M210.68,16.123c-0.199,0.465-0.472,0.872-0.818,1.219c-0.348,0.347-0.754,0.62-1.219,0.819
		c-0.466,0.199-0.961,0.298-1.486,0.298h-1.041c-0.524,0-1.02-0.1-1.484-0.298c-0.466-0.199-0.872-0.472-1.219-0.819
		c-0.348-0.347-0.621-0.753-0.819-1.219s-0.298-0.96-0.298-1.485V8.772c0-0.525,0.1-1.02,0.298-1.485s0.472-0.872,0.819-1.219
		c0.347-0.347,0.753-0.62,1.219-0.819c0.465-0.199,0.96-0.298,1.484-0.298h1.041c0.525,0,1.021,0.1,1.486,0.298
		c0.465,0.199,0.871,0.472,1.219,0.819c0.347,0.347,0.619,0.753,0.818,1.219s0.299,0.96,0.299,1.485v3.06h-7.123v2.895
		c0,0.313,0.06,0.607,0.178,0.882c0.119,0.275,0.279,0.514,0.482,0.717s0.443,0.364,0.718,0.482s0.569,0.178,0.882,0.178h1.041
		c0.313,0,0.607-0.059,0.883-0.178s0.514-0.279,0.717-0.482s0.364-0.442,0.482-0.717c0.119-0.275,0.178-0.569,0.178-0.882v-0.863
		l1.563,0.254v0.521C210.978,15.163,210.879,15.658,210.68,16.123z M209.416,8.684c0-0.313-0.059-0.607-0.178-0.882
		c-0.118-0.275-0.279-0.514-0.482-0.717s-0.441-0.364-0.717-0.482s-0.569-0.178-0.883-0.178h-1.041
		c-0.313,0-0.607,0.059-0.882,0.178s-0.515,0.279-0.718,0.482s-0.363,0.442-0.482,0.717c-0.118,0.275-0.178,0.569-0.178,0.882v1.93
		h5.561L209.416,8.684L209.416,8.684z"/>
</g>
<g>
	<g>
		<path fill="none" stroke="#231F20" stroke-width="3.2" stroke-linejoin="round" stroke-dasharray="9.9219,9.9219" d="
			M462.847,205.854c0,26.379-21.383,47.76-47.756,47.76c-26.381,0-47.762-21.381-47.762-47.76c0-26.375,21.381-47.76,47.762-47.76
			C441.464,158.095,462.847,179.479,462.847,205.854z"/>
	</g>
	<g>
		<g>
			<path fill="#C4C5C6" d="M74.006,220.477v-5.607c0.797-0.324,2.006-0.746,2.971-1.26l3.93,3.967c0.375,0.377,0.971,0.377,1.348,0
				l5.674-5.684c0.375-0.377,0.371-0.984-0.006-1.361l-3.969-4.195c0.518-0.963,0.934-1.674,1.256-3.268h5.611
				c0.533,0,0.691,0.027,0.691-0.506v-8.037c0-0.533-0.158-1.006-0.691-1.006H85.21c-0.322-1.592-0.742-2.053-1.256-3.014
				l3.965-3.957c0.379-0.377,0.379-0.98,0-1.357l-5.686-5.682c-0.373-0.379-0.984-0.375-1.359,0.002l-3.896,3.965
				c-0.965-0.51-2.174-0.934-2.971-1.26v-5.609c0-0.531-0.568-1.389-1.1-1.389H64.87c-0.533,0-1.207,0.857-1.207,1.389v5.609
				c-0.797,0.326-1.957,0.75-2.914,1.26l-3.908-3.963c-0.373-0.379-0.955-0.379-1.33,0l-5.672,5.682
				c-0.375,0.377-0.367,0.984,0.008,1.361l3.975,3.949c-0.514,0.961-0.938,1.422-1.256,3.014h-5.611
				c-0.531,0-1.596,0.473-1.596,1.006v8.037c0,0.533,1.064,0.506,1.596,0.506h5.611c0.322,1.594,0.748,2.305,1.26,3.268
				l-3.971,4.082c-0.375,0.377-0.375,1.041,0,1.418l5.688,5.711c0.375,0.377,0.982,0.393,1.359,0.014l3.848-3.959
				c0.957,0.514,2.117,0.943,2.914,1.268v5.607c0,0.533,0.674,0.895,1.207,0.895h8.037C73.438,221.371,74.006,221.01,74.006,220.477
				z"/>
			<path fill="#F1F1F1" stroke="#231F20" stroke-width="3.2" stroke-linejoin="round" stroke-miterlimit="10" d="M68.682,206.023
				c-3.982,0-7.213-3.232-7.213-7.215c0-3.98,3.231-7.213,7.213-7.213s7.211,3.232,7.211,7.213
				C75.893,202.791,72.664,206.023,68.682,206.023z"/>
		</g>
		
			<line fill="none" stroke="#231F20" stroke-width="3.2" stroke-linejoin="round" stroke-miterlimit="10" x1="40.584" y1="211.822" x2="13.527" y2="211.822"/>
		
			<line fill="none" stroke="#231F20" stroke-width="3.2" stroke-linejoin="round" stroke-miterlimit="10" x1="37.402" y1="198.297" x2="0" y2="198.297"/>
		
			<line fill="none" stroke="#231F20" stroke-width="3.2" stroke-linejoin="round" stroke-miterlimit="10" x1="38.992" y1="183.176" x2="23.873" y2="183.176"/>
	</g>
	<g>
		<g>
			<path fill="#C4C5C6" d="M406.228,413.319v-5.607c-0.797-0.324-2.006-0.746-2.971-1.26l-3.93,3.967
				c-0.375,0.377-0.971,0.377-1.348,0l-5.674-5.684c-0.375-0.377-0.371-0.984,0.006-1.361l3.969-4.195
				c-0.518-0.963-0.934-1.674-1.256-3.268h-5.611c-0.533,0-0.691,0.027-0.691-0.506v-8.037c0-0.533,0.158-1.006,0.691-1.006h5.611
				c0.322-1.592,0.742-2.053,1.256-3.014l-3.965-3.957c-0.379-0.377-0.379-0.98,0-1.357l5.685-5.682
				c0.373-0.379,0.984-0.375,1.359,0.002l3.897,3.965c0.965-0.51,2.174-0.934,2.971-1.26v-5.609c0-0.531,0.568-1.389,1.1-1.389
				h8.037c0.533,0,1.207,0.857,1.207,1.389v5.609c0.797,0.326,1.957,0.75,2.914,1.26l3.908-3.963c0.373-0.379,0.955-0.379,1.33,0
				l5.672,5.682c0.375,0.377,0.367,0.984-0.008,1.361l-3.975,3.949c0.514,0.961,0.938,1.422,1.256,3.014h5.611
				c0.531,0,1.596,0.473,1.596,1.006v8.037c0,0.533-1.064,0.506-1.596,0.506h-5.611c-0.322,1.594-0.748,2.305-1.26,3.268
				l3.971,4.082c0.375,0.377,0.375,1.041,0,1.418l-5.688,5.711c-0.375,0.377-0.982,0.392-1.359,0.014l-3.848-3.959
				c-0.957,0.514-2.117,0.943-2.914,1.268v5.607c0,0.533-0.674,0.895-1.207,0.895h-8.037
				C406.797,414.214,406.228,413.853,406.228,413.319z"/>
			<path fill="#F1F1F1" stroke="#231F20" stroke-width="3.2" stroke-linejoin="round" stroke-miterlimit="10" d="M411.553,398.866
				c3.982,0,7.213-3.232,7.213-7.215c0-3.98-3.23-7.213-7.213-7.213s-7.211,3.232-7.211,7.213
				C404.342,395.634,407.57,398.866,411.553,398.866z"/>
		</g>
		
			<line fill="none" stroke="#231F20" stroke-width="3.2" stroke-linejoin="round" stroke-miterlimit="10" x1="439.65" y1="404.665" x2="466.707" y2="404.665"/>
		
			<line fill="none" stroke="#231F20" stroke-width="3.2" stroke-linejoin="round" stroke-miterlimit="10" x1="442.832" y1="391.14" x2="480.234" y2="391.14"/>
		
			<line fill="none" stroke="#231F20" stroke-width="3.2" stroke-linejoin="round" stroke-miterlimit="10" x1="441.242" y1="376.019" x2="456.361" y2="376.019"/>
	</g>
	<g>
		
			<polygon fill="#6BAD44" stroke="#000000" stroke-width="3" stroke-linecap="round" stroke-linejoin="round" stroke-miterlimit="10" points="
			458.902,281.72 312.706,135.52 312.706,221.911 97.476,221.911 97.476,340.317 312.706,340.317 312.706,427.915 		"/>
	</g>
	<g>
		
			<radialGradient id="SVGID_1_" cx="-196.0355" cy="820.3234" r="32.1124" gradientTransform="matrix(1 0 0 1 405.715 -646.8999)" gradientUnits="userSpaceOnUse">
			<stop  offset="0" style="stop-color:#8CBB69"/>
			<stop  offset="0.7837" style="stop-color:#6BAD44"/>
		</radialGradient>
		<polygon fill="url(#SVGID_1_)" points="243.498,143.113 175.861,143.113 175.861,186.879 211.668,186.879 211.668,203.734 
			228.193,186.879 243.498,186.879 		"/>
		<polyline fill="none" stroke="#231F20" stroke-width="3.2" stroke-linejoin="round" stroke-miterlimit="10" points="
			196.912,156.592 189.309,164.199 197.129,172.02 		"/>
		<polyline fill="none" stroke="#231F20" stroke-width="3.2" stroke-linejoin="round" stroke-miterlimit="10" points="
			223.115,172.4 231.102,164.414 223.115,156.428 		"/>
		
			<line fill="none" stroke="#231F20" stroke-width="3.2" stroke-linejoin="round" stroke-miterlimit="10" x1="204.527" y1="178.203" x2="216.883" y2="150.408"/>
	</g>
	<g>
		<rect x="346.795" y="142.481" width="83.854" height="2.066"/>
		<rect x="346.795" y="135.862" width="55.165" height="2.068"/>
	</g>
	<g>
		<rect x="51.083" y="391.143" width="83.854" height="2.066"/>
		<rect x="79.772" y="384.523" width="55.165" height="2.068"/>
	</g>
	<g id="XMLID_1_">
		<g id="XMLID_5_">
			
				<line id="XMLID_7_" fill="none" stroke="#000000" stroke-width="3" stroke-miterlimit="10" x1="270.447" y1="195.75" x2="266.72" y2="199.477"/>
			
				<line id="XMLID_6_" fill="none" stroke="#000000" stroke-width="3" stroke-miterlimit="10" x1="261.631" y1="204.565" x2="257.904" y2="208.292"/>
		</g>
		<g id="XMLID_2_">
			
				<line id="XMLID_4_" fill="none" stroke="#000000" stroke-width="3" stroke-miterlimit="10" x1="257.904" y1="195.75" x2="261.631" y2="199.477"/>
			
				<line id="XMLID_3_" fill="none" stroke="#000000" stroke-width="3" stroke-miterlimit="10" x1="266.72" y1="204.565" x2="270.447" y2="208.292"/>
		</g>
	</g>
	<g>
		<rect x="118.972" y="154.047" width="41.301" height="2.044"/>
		<rect x="66.052" y="154.047" width="41.304" height="2.044"/>
		<rect x="54.437" y="154.047" width="3.871" height="2.044"/>
	</g>
	<g>
		<g>
			<path d="M221.836,368.869c-1.597,0-3.082,0.711-4.074,1.961c-1.783,2.243-1.409,5.523,0.835,7.301
				c0.929,0.739,2.047,1.129,3.23,1.129c1.597,0,3.081-0.715,4.072-1.965c1.781-2.243,1.41-5.52-0.834-7.301
				C224.137,369.256,223.02,368.869,221.836,368.869"/>
			
				<radialGradient id="SVGID_2_" cx="-183.8788" cy="1020.9634" r="16.944" gradientTransform="matrix(1 0 0 1 405.715 -646.8999)" gradientUnits="userSpaceOnUse">
				<stop  offset="0" style="stop-color:#8CBB69"/>
				<stop  offset="0.7837" style="stop-color:#6BAD44"/>
			</radialGradient>
			<path fill="url(#SVGID_2_)" d="M221.828,391.009c-3.809,0-7.553-1.306-10.536-3.679c-7.316-5.811-8.54-16.492-2.729-23.806
				c3.237-4.071,8.073-6.406,13.274-6.406c3.81,0,7.551,1.308,10.536,3.679c3.542,2.817,5.778,6.84,6.293,11.339
				c0.246,2.141,0.088,4.266-0.462,6.323c-0.343,1.281-0.841,2.525-1.478,3.692c-0.296,0.539-0.969,0.737-1.51,0.443
				c-0.541-0.293-0.737-0.969-0.445-1.508c0.552-1.015,0.987-2.091,1.284-3.203c0.48-1.785,0.614-3.634,0.402-5.494
				c-0.446-3.906-2.39-7.408-5.467-9.851c-2.596-2.062-5.846-3.196-9.153-3.196c-4.52,0-8.724,2.027-11.531,5.562
				c-5.049,6.354-3.987,15.635,2.369,20.683c2.595,2.063,5.846,3.196,9.153,3.196c0.614,0,1.11,0.499,1.11,1.114
				C222.938,390.511,222.442,391.009,221.828,391.009"/>
			
				<radialGradient id="SVGID_3_" cx="-183.8794" cy="1020.9642" r="11.9396" gradientTransform="matrix(1 0 0 1 405.715 -646.8999)" gradientUnits="userSpaceOnUse">
				<stop  offset="0" style="stop-color:#8CBB69"/>
				<stop  offset="0.7837" style="stop-color:#6BAD44"/>
			</radialGradient>
			<path fill="url(#SVGID_3_)" d="M221.828,386.005c-2.685,0-5.32-0.92-7.424-2.593c-5.153-4.095-6.015-11.623-1.919-16.776
				c2.278-2.869,5.686-4.514,9.352-4.514c2.683,0,5.322,0.921,7.422,2.59c2.497,1.985,4.075,4.822,4.437,7.993
				c0.179,1.583,0.05,3.156-0.386,4.67c-0.172,0.589-0.787,0.928-1.377,0.759c-0.593-0.172-0.93-0.787-0.76-1.374
				c0.354-1.234,0.458-2.511,0.312-3.804c-0.296-2.577-1.576-4.885-3.607-6.502c-1.712-1.36-3.857-2.107-6.041-2.107
				c-2.984,0-5.76,1.338-7.612,3.672c-3.333,4.194-2.631,10.316,1.562,13.65c1.712,1.362,3.856,2.11,6.041,2.11
				c0.614,0,1.11,0.498,1.11,1.111C222.938,385.505,222.442,386.005,221.828,386.005"/>
			<path fill="none" stroke="#FFFFFF" stroke-width="0.115" stroke-miterlimit="10" d="M227.655,374.063
				c0,3.217-2.609,5.824-5.822,5.824c-3.215,0-5.825-2.607-5.825-5.824c0-3.214,2.609-5.823,5.825-5.823
				C225.046,368.24,227.655,370.848,227.655,374.063z"/>
			
				<radialGradient id="SVGID_4_" cx="-183.8836" cy="1020.9626" r="6.9343" gradientTransform="matrix(1 0 0 1 405.715 -646.8999)" gradientUnits="userSpaceOnUse">
				<stop  offset="0" style="stop-color:#8CBB69"/>
				<stop  offset="0.7837" style="stop-color:#6BAD44"/>
			</radialGradient>
			<path fill="url(#SVGID_4_)" d="M221.828,380.999c-1.558,0-3.089-0.534-4.312-1.506c-2.994-2.376-3.494-6.749-1.115-9.744
				c1.322-1.665,3.304-2.622,5.434-2.622c1.558,0,3.088,0.535,4.309,1.507c2.998,2.379,3.495,6.749,1.117,9.744
				C225.938,380.043,223.957,380.999,221.828,380.999 M221.836,369.352c-1.451,0-2.794,0.648-3.695,1.78
				c-1.615,2.034-1.276,5.005,0.761,6.62c0.841,0.667,1.853,1.024,2.926,1.024c1.447,0,2.793-0.648,3.693-1.78
				c1.615-2.034,1.275-5.004-0.757-6.621C223.92,369.706,222.909,369.352,221.836,369.352"/>
			<g>
				<path fill="#FFFFFF" d="M229.104,394.341c1.576,0,2.855-1.279,2.855-2.858v-7.306c0-2.131-1.727-3.855-3.857-3.855l-3.906-0.009
					v-5.714c0-1.205-0.937-2.231-2.145-2.274c-1.262-0.045-2.303,0.967-2.303,2.224v9.981l-0.583-1.215
					c-0.317-0.663-0.918-1.039-1.535-1.039c-0.287,0-0.575,0.08-0.841,0.247c-0.849,0.532-1.161,1.747-0.696,2.717
					c0,0,1.926,4.505,3.303,7.456c0.465,1.008,1.475,1.65,2.587,1.65L229.104,394.341L229.104,394.341z"/>
				<path fill="none" stroke="#000000" stroke-width="1.714" stroke-miterlimit="10" d="M229.104,394.341
					c1.576,0,2.855-1.279,2.855-2.858v-7.306c0-2.131-1.727-3.855-3.857-3.855l-3.906-0.009v-5.714c0-1.205-0.937-2.231-2.145-2.274
					c-1.262-0.045-2.303,0.967-2.303,2.224v9.981l-0.583-1.215c-0.317-0.663-0.918-1.039-1.535-1.039
					c-0.287,0-0.575,0.08-0.841,0.247c-0.849,0.532-1.161,1.747-0.696,2.717c0,0,1.926,4.505,3.303,7.456
					c0.465,1.008,1.475,1.65,2.587,1.65L229.104,394.341L229.104,394.341z"/>
			</g>
		</g>
		<g>
			<path d="M180.052,407.075l1.028,0.26c-0.215,0.845-0.603,1.489-1.164,1.933c-0.56,0.443-1.245,0.665-2.054,0.665
				c-0.837,0-1.519-0.171-2.044-0.511c-0.524-0.341-0.924-0.835-1.198-1.482c-0.274-0.647-0.41-1.342-0.41-2.084
				c0-0.809,0.154-1.516,0.464-2.119c0.309-0.603,0.749-1.06,1.32-1.374c0.571-0.312,1.199-0.47,1.885-0.47
				c0.777,0,1.432,0.198,1.962,0.594c0.531,0.397,0.899,0.953,1.108,1.671l-1.013,0.239c-0.18-0.566-0.441-0.978-0.785-1.235
				c-0.343-0.258-0.774-0.387-1.294-0.387c-0.598,0-1.097,0.143-1.498,0.43c-0.402,0.286-0.683,0.671-0.846,1.154
				c-0.162,0.482-0.244,0.981-0.244,1.493c0,0.661,0.096,1.238,0.289,1.731c0.193,0.494,0.492,0.862,0.898,1.106
				c0.406,0.243,0.847,0.366,1.321,0.366c0.576,0,1.064-0.167,1.464-0.499C179.64,408.222,179.91,407.729,180.052,407.075z"/>
			<path d="M181.889,409.801v-7.774h0.955v7.774H181.889z"/>
			<path d="M184.014,403.125v-1.097h0.954v1.097H184.014z M184.014,409.801v-5.631h0.954v5.631H184.014z"/>
			<path d="M189.782,407.738l0.938,0.122c-0.103,0.646-0.366,1.154-0.788,1.518c-0.422,0.366-0.941,0.549-1.556,0.549
				c-0.77,0-1.39-0.252-1.859-0.756s-0.702-1.226-0.702-2.166c0-0.608,0.101-1.14,0.303-1.597c0.201-0.456,0.507-0.798,0.92-1.026
				c0.412-0.229,0.86-0.343,1.345-0.343c0.611,0,1.112,0.155,1.501,0.464c0.388,0.31,0.637,0.749,0.747,1.318l-0.928,0.144
				c-0.088-0.378-0.245-0.663-0.47-0.854c-0.225-0.191-0.496-0.286-0.814-0.286c-0.481,0-0.872,0.173-1.172,0.517
				c-0.301,0.344-0.45,0.89-0.45,1.636c0,0.757,0.145,1.306,0.434,1.649c0.29,0.343,0.668,0.514,1.135,0.514
				c0.375,0,0.688-0.115,0.938-0.344C189.555,408.569,189.714,408.215,189.782,407.738z"/>
			<path d="M193.543,408.12l0.944-0.149c0.052,0.378,0.201,0.668,0.442,0.87c0.243,0.202,0.581,0.303,1.016,0.303
				c0.439,0,0.764-0.089,0.976-0.268c0.212-0.178,0.318-0.387,0.318-0.628c0-0.215-0.094-0.385-0.281-0.509
				c-0.131-0.085-0.456-0.193-0.975-0.323c-0.701-0.177-1.186-0.329-1.456-0.459s-0.475-0.308-0.615-0.536
				c-0.139-0.228-0.21-0.48-0.21-0.756c0-0.25,0.057-0.483,0.173-0.697c0.114-0.214,0.272-0.391,0.47-0.533
				c0.148-0.11,0.351-0.203,0.607-0.279c0.256-0.076,0.531-0.114,0.825-0.114c0.441,0,0.83,0.064,1.164,0.191
				c0.334,0.128,0.581,0.3,0.74,0.517c0.159,0.217,0.268,0.507,0.329,0.872l-0.933,0.127c-0.043-0.29-0.165-0.516-0.369-0.679
				c-0.203-0.162-0.491-0.244-0.863-0.244c-0.438,0-0.751,0.073-0.938,0.218c-0.187,0.145-0.281,0.314-0.281,0.509
				c0,0.124,0.039,0.235,0.117,0.334c0.078,0.103,0.2,0.187,0.366,0.254c0.095,0.035,0.376,0.116,0.843,0.244
				c0.675,0.18,1.147,0.328,1.413,0.442c0.267,0.115,0.476,0.282,0.628,0.502c0.153,0.22,0.228,0.492,0.228,0.816
				c0,0.319-0.092,0.618-0.278,0.899c-0.185,0.281-0.453,0.499-0.803,0.653s-0.746,0.231-1.188,0.231
				c-0.732,0-1.289-0.152-1.673-0.456C193.894,409.165,193.65,408.717,193.543,408.12z"/>
			<path d="M198.685,406.985c0-1.043,0.29-1.815,0.87-2.317c0.484-0.417,1.075-0.626,1.771-0.626c0.774,0,1.407,0.254,1.899,0.762
				c0.492,0.508,0.736,1.208,0.736,2.103c0,0.725-0.109,1.295-0.326,1.71c-0.217,0.416-0.534,0.738-0.949,0.968
				c-0.416,0.229-0.869,0.344-1.36,0.344c-0.789,0-1.425-0.253-1.911-0.759C198.929,408.664,198.685,407.936,198.685,406.985z
				 M199.666,406.985c0,0.721,0.157,1.261,0.473,1.619c0.314,0.359,0.711,0.538,1.188,0.538c0.474,0,0.867-0.18,1.183-0.541
				s0.473-0.91,0.473-1.649c0-0.697-0.158-1.223-0.474-1.583c-0.316-0.358-0.71-0.538-1.18-0.538c-0.477,0-0.873,0.179-1.188,0.536
				C199.823,405.725,199.666,406.263,199.666,406.985z"/>
			<path d="M205.645,409.801h-0.885v-7.774h0.955v2.773c0.403-0.506,0.917-0.758,1.543-0.758c0.346,0,0.674,0.07,0.984,0.21
				c0.309,0.14,0.564,0.337,0.764,0.589c0.2,0.253,0.356,0.558,0.47,0.915c0.113,0.358,0.17,0.739,0.17,1.146
				c0,0.965-0.239,1.712-0.716,2.238s-1.05,0.79-1.718,0.79c-0.665,0-1.187-0.278-1.565-0.833v0.705L205.645,409.801
				L205.645,409.801z M205.635,406.942c0,0.675,0.092,1.163,0.276,1.464c0.301,0.492,0.707,0.737,1.22,0.737
				c0.417,0,0.778-0.181,1.082-0.543c0.304-0.363,0.456-0.902,0.456-1.62c0-0.735-0.146-1.278-0.438-1.628
				c-0.292-0.35-0.644-0.525-1.058-0.525c-0.417,0-0.778,0.181-1.082,0.543C205.786,405.732,205.635,406.257,205.635,406.942z"/>
			<path d="M210.478,409.801v-5.631h0.859v0.854c0.218-0.4,0.421-0.663,0.607-0.79c0.185-0.127,0.39-0.191,0.612-0.191
				c0.322,0,0.649,0.103,0.981,0.308l-0.329,0.885c-0.233-0.138-0.467-0.207-0.7-0.207c-0.209,0-0.396,0.063-0.562,0.188
				c-0.167,0.125-0.285,0.3-0.355,0.522c-0.106,0.34-0.159,0.711-0.159,1.114v2.949L210.478,409.801L210.478,409.801z"/>
			<path d="M217.647,407.986l0.986,0.122c-0.156,0.576-0.443,1.024-0.864,1.341c-0.42,0.318-0.958,0.477-1.612,0.477
				c-0.824,0-1.477-0.254-1.96-0.762c-0.482-0.507-0.724-1.219-0.724-2.135c0-0.947,0.245-1.682,0.733-2.206
				c0.488-0.523,1.121-0.785,1.899-0.785c0.753,0,1.368,0.257,1.845,0.769c0.477,0.513,0.716,1.234,0.716,2.164
				c0,0.056-0.002,0.142-0.005,0.254h-4.2c0.035,0.619,0.211,1.093,0.525,1.421c0.314,0.329,0.707,0.494,1.177,0.494
				c0.35,0,0.649-0.092,0.896-0.276C217.305,408.683,217.501,408.39,217.647,407.986z M214.512,406.444h3.145
				c-0.042-0.474-0.162-0.829-0.36-1.065c-0.304-0.368-0.699-0.552-1.183-0.552c-0.438,0-0.806,0.147-1.105,0.441
				C214.71,405.561,214.544,405.952,214.512,406.444z"/>
			<path d="M225.894,407.738l0.938,0.122c-0.103,0.646-0.365,1.154-0.788,1.518c-0.422,0.366-0.941,0.549-1.556,0.549
				c-0.77,0-1.39-0.252-1.859-0.756c-0.469-0.504-0.702-1.226-0.702-2.166c0-0.608,0.101-1.14,0.303-1.597
				c0.201-0.456,0.507-0.798,0.92-1.026c0.412-0.229,0.86-0.343,1.345-0.343c0.611,0,1.112,0.155,1.501,0.464
				c0.388,0.31,0.637,0.749,0.747,1.318l-0.928,0.144c-0.088-0.378-0.245-0.663-0.47-0.854c-0.225-0.191-0.496-0.286-0.814-0.286
				c-0.481,0-0.872,0.173-1.172,0.517c-0.301,0.344-0.45,0.89-0.45,1.636c0,0.757,0.145,1.306,0.434,1.649
				c0.29,0.343,0.668,0.514,1.135,0.514c0.375,0,0.688-0.115,0.938-0.344C225.668,408.569,225.826,408.215,225.894,407.738z"/>
			<path d="M231.009,409.106c-0.354,0.301-0.694,0.513-1.021,0.636s-0.678,0.185-1.053,0.185c-0.619,0-1.094-0.151-1.426-0.454
				c-0.333-0.302-0.499-0.688-0.499-1.158c0-0.275,0.063-0.528,0.189-0.755c0.125-0.229,0.29-0.411,0.493-0.549
				c0.203-0.139,0.432-0.243,0.686-0.313c0.188-0.049,0.471-0.097,0.849-0.143c0.77-0.092,1.338-0.202,1.702-0.329
				c0.003-0.131,0.005-0.214,0.005-0.249c0-0.389-0.09-0.664-0.271-0.823c-0.244-0.215-0.607-0.323-1.088-0.323
				c-0.448,0-0.78,0.079-0.994,0.236c-0.214,0.157-0.373,0.436-0.474,0.835l-0.934-0.128c0.085-0.4,0.225-0.722,0.42-0.967
				c0.194-0.246,0.475-0.435,0.843-0.568c0.368-0.132,0.794-0.199,1.278-0.199c0.481,0,0.871,0.056,1.172,0.17
				c0.301,0.113,0.521,0.256,0.663,0.427c0.142,0.171,0.241,0.387,0.297,0.65c0.032,0.163,0.048,0.456,0.048,0.88v1.273
				c0,0.888,0.02,1.449,0.061,1.683c0.041,0.236,0.121,0.461,0.242,0.676H231.2C231.101,409.603,231.037,409.371,231.009,409.106z
				 M230.929,406.975c-0.347,0.142-0.866,0.261-1.559,0.361c-0.393,0.056-0.67,0.12-0.832,0.191c-0.163,0.07-0.288,0.174-0.376,0.31
				c-0.088,0.137-0.132,0.287-0.132,0.454c0,0.254,0.095,0.466,0.289,0.636c0.193,0.17,0.474,0.254,0.845,0.254
				c0.368,0,0.695-0.081,0.981-0.241c0.286-0.161,0.497-0.381,0.631-0.661c0.103-0.215,0.154-0.535,0.154-0.955L230.929,406.975
				L230.929,406.975z"/>
			<path d="M236.713,409.801v-0.711c-0.357,0.559-0.882,0.838-1.576,0.838c-0.448,0-0.862-0.124-1.238-0.372
				c-0.376-0.247-0.668-0.593-0.874-1.037c-0.207-0.443-0.31-0.953-0.31-1.529c0-0.563,0.093-1.072,0.28-1.53
				c0.187-0.458,0.469-0.809,0.844-1.053c0.375-0.244,0.794-0.366,1.256-0.366c0.34,0,0.641,0.072,0.906,0.214
				c0.265,0.144,0.481,0.33,0.647,0.56v-2.789h0.949v7.774L236.713,409.801L236.713,409.801z M233.695,406.99
				c0,0.721,0.152,1.26,0.456,1.617c0.304,0.357,0.663,0.536,1.076,0.536c0.417,0,0.772-0.171,1.063-0.512
				c0.292-0.341,0.438-0.862,0.438-1.561c0-0.77-0.149-1.336-0.445-1.697c-0.297-0.361-0.663-0.541-1.097-0.541
				c-0.424,0-0.779,0.174-1.063,0.52C233.837,405.698,233.695,406.244,233.695,406.99z"/>
			<path d="M242.459,409.106c-0.354,0.301-0.694,0.513-1.021,0.636c-0.327,0.124-0.678,0.185-1.053,0.185
				c-0.619,0-1.094-0.151-1.426-0.454c-0.333-0.302-0.499-0.688-0.499-1.158c0-0.275,0.063-0.528,0.189-0.755
				c0.125-0.229,0.29-0.411,0.493-0.549c0.203-0.139,0.432-0.243,0.686-0.313c0.188-0.049,0.471-0.097,0.849-0.143
				c0.77-0.092,1.338-0.202,1.702-0.329c0.003-0.131,0.005-0.214,0.005-0.249c0-0.389-0.09-0.664-0.271-0.823
				c-0.244-0.215-0.607-0.323-1.088-0.323c-0.448,0-0.78,0.079-0.994,0.236c-0.214,0.157-0.373,0.436-0.474,0.835l-0.934-0.128
				c0.085-0.4,0.225-0.722,0.42-0.967c0.194-0.246,0.475-0.435,0.843-0.568c0.368-0.132,0.794-0.199,1.278-0.199
				c0.481,0,0.871,0.056,1.172,0.17c0.301,0.113,0.521,0.256,0.663,0.427c0.142,0.171,0.241,0.387,0.297,0.65
				c0.032,0.163,0.048,0.456,0.048,0.88v1.273c0,0.888,0.02,1.449,0.061,1.683c0.041,0.236,0.121,0.461,0.242,0.676h-0.997
				C242.55,409.603,242.487,409.371,242.459,409.106z M242.379,406.975c-0.347,0.142-0.866,0.261-1.559,0.361
				c-0.393,0.056-0.67,0.12-0.832,0.191c-0.163,0.07-0.288,0.174-0.376,0.31c-0.088,0.137-0.132,0.287-0.132,0.454
				c0,0.254,0.095,0.466,0.289,0.636c0.193,0.17,0.474,0.254,0.845,0.254c0.368,0,0.695-0.081,0.981-0.241
				c0.286-0.161,0.497-0.381,0.631-0.661c0.103-0.215,0.154-0.535,0.154-0.955L242.379,406.975L242.379,406.975z"/>
			<path d="M248.091,409.801h-0.885v-7.774h0.955v2.773c0.403-0.506,0.917-0.758,1.543-0.758c0.346,0,0.674,0.07,0.984,0.21
				c0.309,0.14,0.564,0.337,0.764,0.589c0.2,0.253,0.356,0.558,0.47,0.915c0.113,0.358,0.17,0.739,0.17,1.146
				c0,0.965-0.239,1.712-0.716,2.238s-1.05,0.79-1.718,0.79c-0.665,0-1.187-0.278-1.565-0.833v0.705L248.091,409.801
				L248.091,409.801z M248.08,406.942c0,0.675,0.092,1.163,0.276,1.464c0.301,0.492,0.707,0.737,1.22,0.737
				c0.417,0,0.778-0.181,1.082-0.543c0.304-0.363,0.456-0.902,0.456-1.62c0-0.735-0.146-1.278-0.438-1.628
				c-0.292-0.35-0.644-0.525-1.058-0.525c-0.417,0-0.778,0.181-1.082,0.543C248.233,405.732,248.08,406.257,248.08,406.942z"/>
			<path d="M252.58,406.985c0-1.043,0.29-1.815,0.87-2.317c0.484-0.417,1.075-0.626,1.771-0.626c0.774,0,1.407,0.254,1.899,0.762
				c0.491,0.508,0.736,1.208,0.736,2.103c0,0.725-0.109,1.295-0.326,1.71c-0.217,0.416-0.534,0.738-0.949,0.968
				c-0.416,0.229-0.869,0.344-1.36,0.344c-0.789,0-1.425-0.253-1.911-0.759C252.824,408.664,252.58,407.936,252.58,406.985z
				 M253.561,406.985c0,0.721,0.157,1.261,0.473,1.619c0.314,0.359,0.711,0.538,1.188,0.538c0.474,0,0.867-0.18,1.183-0.541
				s0.473-0.91,0.473-1.649c0-0.697-0.158-1.223-0.474-1.583c-0.316-0.358-0.71-0.538-1.18-0.538c-0.477,0-0.873,0.179-1.188,0.536
				C253.719,405.725,253.561,406.263,253.561,406.985z"/>
			<path d="M260.744,408.947l0.139,0.843c-0.269,0.056-0.509,0.085-0.722,0.085c-0.346,0-0.615-0.055-0.805-0.164
				c-0.191-0.11-0.326-0.254-0.404-0.432c-0.078-0.179-0.116-0.554-0.116-1.127v-3.24h-0.701v-0.742h0.701v-1.395l0.949-0.572v1.968
				h0.96v0.742h-0.96v3.293c0,0.272,0.016,0.447,0.05,0.525c0.034,0.077,0.088,0.139,0.164,0.185c0.077,0.047,0.185,0.07,0.326,0.07
				C260.432,408.984,260.571,408.971,260.744,408.947z"/>
			<path d="M261.008,406.985c0-1.043,0.29-1.815,0.87-2.317c0.484-0.417,1.075-0.626,1.771-0.626c0.774,0,1.407,0.254,1.899,0.762
				s0.736,1.208,0.736,2.103c0,0.725-0.109,1.295-0.326,1.71c-0.217,0.416-0.534,0.738-0.949,0.968
				c-0.416,0.229-0.869,0.344-1.36,0.344c-0.789,0-1.425-0.253-1.911-0.759C261.251,408.664,261.008,407.936,261.008,406.985z
				 M261.989,406.985c0,0.721,0.157,1.261,0.473,1.619c0.314,0.359,0.711,0.538,1.188,0.538c0.474,0,0.867-0.18,1.183-0.541
				s0.473-0.91,0.473-1.649c0-0.697-0.158-1.223-0.474-1.583c-0.316-0.358-0.71-0.538-1.18-0.538c-0.477,0-0.873,0.179-1.188,0.536
				C262.146,405.725,261.989,406.263,261.989,406.985z M263.118,403.469l0.705-1.485h1.251l-1.166,1.485H263.118z"/>
			<path d="M267.089,409.801v-5.631h0.859v0.8c0.413-0.618,1.01-0.928,1.792-0.928c0.34,0,0.651,0.061,0.935,0.183
				c0.284,0.121,0.498,0.282,0.639,0.48c0.141,0.198,0.241,0.433,0.297,0.704c0.035,0.178,0.052,0.486,0.052,0.928v3.463h-0.955
				v-3.426c0-0.389-0.037-0.679-0.111-0.872c-0.075-0.193-0.207-0.347-0.395-0.462c-0.189-0.114-0.411-0.172-0.666-0.172
				c-0.407,0-0.758,0.129-1.053,0.387c-0.295,0.258-0.443,0.747-0.443,1.469v3.076L267.089,409.801L267.089,409.801L267.089,409.801
				z"/>
			<path d="M174.536,424.991v-7.79h0.869v0.732c0.206-0.286,0.438-0.501,0.695-0.644c0.258-0.143,0.571-0.214,0.938-0.214
				c0.481,0,0.905,0.124,1.273,0.372c0.368,0.247,0.645,0.596,0.832,1.047c0.187,0.451,0.281,0.945,0.281,1.482
				c0,0.576-0.104,1.095-0.31,1.557c-0.207,0.461-0.507,0.815-0.902,1.06c-0.394,0.246-0.808,0.369-1.244,0.369
				c-0.318,0-0.603-0.067-0.856-0.202c-0.253-0.135-0.461-0.304-0.624-0.509v2.742h-0.953L174.536,424.991L174.536,424.991z
				 M175.4,420.05c0,0.725,0.146,1.26,0.44,1.607c0.294,0.347,0.649,0.52,1.066,0.52c0.424,0,0.787-0.179,1.09-0.538
				c0.302-0.358,0.453-0.914,0.453-1.668c0-0.717-0.147-1.255-0.442-1.612c-0.296-0.357-0.648-0.535-1.059-0.535
				c-0.407,0-0.766,0.189-1.079,0.57C175.556,418.772,175.4,419.324,175.4,420.05z"/>
			<path d="M183.935,422.139c-0.354,0.301-0.694,0.513-1.021,0.636s-0.678,0.185-1.053,0.185c-0.619,0-1.094-0.151-1.426-0.454
				c-0.333-0.302-0.499-0.688-0.499-1.158c0-0.276,0.063-0.528,0.189-0.755c0.125-0.229,0.29-0.411,0.493-0.549
				c0.203-0.139,0.432-0.243,0.686-0.313c0.188-0.049,0.471-0.097,0.849-0.143c0.77-0.092,1.338-0.202,1.702-0.329
				c0.003-0.131,0.005-0.214,0.005-0.249c0-0.389-0.09-0.664-0.271-0.823c-0.244-0.215-0.607-0.323-1.088-0.323
				c-0.448,0-0.78,0.079-0.994,0.236c-0.214,0.157-0.373,0.436-0.474,0.835l-0.934-0.128c0.085-0.4,0.225-0.722,0.419-0.967
				c0.194-0.246,0.475-0.435,0.843-0.568c0.368-0.132,0.794-0.199,1.278-0.199c0.481,0,0.871,0.056,1.172,0.17
				c0.301,0.114,0.521,0.256,0.663,0.427s0.241,0.387,0.297,0.65c0.032,0.163,0.048,0.456,0.048,0.88v1.273
				c0,0.888,0.02,1.449,0.061,1.683c0.041,0.236,0.121,0.461,0.242,0.676h-0.997C184.028,422.635,183.964,422.403,183.935,422.139z
				 M183.856,420.007c-0.347,0.142-0.866,0.261-1.559,0.361c-0.393,0.056-0.67,0.12-0.832,0.191c-0.163,0.07-0.288,0.174-0.376,0.31
				c-0.088,0.137-0.132,0.287-0.132,0.454c0,0.254,0.095,0.466,0.289,0.636c0.193,0.17,0.474,0.254,0.845,0.254
				c0.368,0,0.695-0.081,0.981-0.241c0.286-0.161,0.497-0.381,0.631-0.661c0.103-0.215,0.154-0.535,0.154-0.955L183.856,420.007
				L183.856,420.007z"/>
			<path d="M185.975,422.833v-5.631h0.859v0.854c0.218-0.4,0.421-0.663,0.607-0.79c0.185-0.127,0.39-0.191,0.612-0.191
				c0.322,0,0.649,0.103,0.981,0.308l-0.329,0.885c-0.233-0.138-0.467-0.207-0.7-0.207c-0.209,0-0.396,0.063-0.562,0.188
				c-0.167,0.125-0.285,0.3-0.355,0.522c-0.106,0.34-0.159,0.711-0.159,1.114v2.949L185.975,422.833L185.975,422.833z"/>
			<path d="M192.962,422.139c-0.354,0.301-0.694,0.513-1.021,0.636c-0.327,0.124-0.678,0.185-1.053,0.185
				c-0.619,0-1.094-0.151-1.426-0.454c-0.333-0.302-0.499-0.688-0.499-1.158c0-0.276,0.063-0.528,0.189-0.755
				c0.125-0.229,0.29-0.411,0.493-0.549c0.203-0.139,0.432-0.243,0.686-0.313c0.188-0.049,0.471-0.097,0.849-0.143
				c0.77-0.092,1.338-0.202,1.702-0.329c0.003-0.131,0.005-0.214,0.005-0.249c0-0.389-0.09-0.664-0.271-0.823
				c-0.244-0.215-0.607-0.323-1.088-0.323c-0.448,0-0.78,0.079-0.994,0.236c-0.214,0.157-0.373,0.436-0.474,0.835l-0.934-0.128
				c0.085-0.4,0.225-0.722,0.42-0.967c0.194-0.246,0.475-0.435,0.843-0.568c0.368-0.132,0.794-0.199,1.278-0.199
				c0.481,0,0.871,0.056,1.172,0.17c0.301,0.114,0.521,0.256,0.663,0.427c0.142,0.171,0.241,0.387,0.297,0.65
				c0.032,0.163,0.048,0.456,0.048,0.88v1.273c0,0.888,0.02,1.449,0.061,1.683c0.041,0.236,0.121,0.461,0.242,0.676h-0.997
				C193.054,422.635,192.991,422.403,192.962,422.139z M192.883,420.007c-0.347,0.142-0.866,0.261-1.559,0.361
				c-0.393,0.056-0.67,0.12-0.832,0.191c-0.163,0.07-0.288,0.174-0.376,0.31c-0.088,0.137-0.132,0.287-0.132,0.454
				c0,0.254,0.095,0.466,0.289,0.636c0.193,0.17,0.474,0.254,0.845,0.254c0.368,0,0.695-0.081,0.981-0.241
				c0.286-0.161,0.497-0.381,0.631-0.661c0.103-0.215,0.154-0.535,0.154-0.955L192.883,420.007L192.883,420.007z"/>
			<path d="M197.715,422.833v-5.631h0.854v0.79c0.177-0.276,0.411-0.498,0.704-0.666c0.294-0.168,0.628-0.252,1.003-0.252
				c0.416,0,0.759,0.087,1.026,0.26c0.267,0.174,0.456,0.416,0.565,0.727c0.445-0.658,1.025-0.987,1.74-0.987
				c0.559,0,0.988,0.155,1.288,0.464c0.301,0.31,0.45,0.786,0.45,1.429v3.866h-0.949v-3.548c0-0.381-0.031-0.657-0.093-0.824
				c-0.062-0.168-0.175-0.304-0.337-0.406c-0.163-0.103-0.354-0.153-0.573-0.153c-0.396,0-0.725,0.132-0.986,0.395
				c-0.262,0.263-0.393,0.685-0.393,1.264v3.272h-0.954v-3.659c0-0.424-0.078-0.743-0.234-0.955
				c-0.155-0.212-0.409-0.318-0.764-0.318c-0.268,0-0.517,0.07-0.745,0.212c-0.228,0.142-0.393,0.348-0.495,0.621
				c-0.103,0.272-0.154,0.665-0.154,1.177v2.922L197.715,422.833L197.715,422.833z"/>
			<path d="M210.121,422.139c-0.354,0.301-0.694,0.513-1.021,0.636c-0.327,0.124-0.678,0.185-1.053,0.185
				c-0.619,0-1.094-0.151-1.426-0.454c-0.333-0.302-0.499-0.688-0.499-1.158c0-0.276,0.063-0.528,0.189-0.755
				c0.125-0.229,0.29-0.411,0.493-0.549c0.203-0.139,0.432-0.243,0.686-0.313c0.188-0.049,0.471-0.097,0.849-0.143
				c0.77-0.092,1.338-0.202,1.702-0.329c0.003-0.131,0.005-0.214,0.005-0.249c0-0.389-0.09-0.664-0.271-0.823
				c-0.244-0.215-0.607-0.323-1.088-0.323c-0.448,0-0.78,0.079-0.994,0.236c-0.214,0.157-0.373,0.436-0.474,0.835l-0.934-0.128
				c0.085-0.4,0.225-0.722,0.419-0.967c0.194-0.246,0.475-0.435,0.843-0.568c0.368-0.132,0.794-0.199,1.278-0.199
				c0.481,0,0.871,0.056,1.172,0.17c0.301,0.114,0.521,0.256,0.663,0.427s0.241,0.387,0.297,0.65
				c0.032,0.163,0.048,0.456,0.048,0.88v1.273c0,0.888,0.02,1.449,0.061,1.683c0.041,0.236,0.121,0.461,0.242,0.676h-0.997
				C210.213,422.635,210.15,422.403,210.121,422.139z M210.042,420.007c-0.347,0.142-0.866,0.261-1.559,0.361
				c-0.393,0.056-0.67,0.12-0.832,0.191c-0.163,0.07-0.288,0.174-0.376,0.31c-0.088,0.137-0.132,0.287-0.132,0.454
				c0,0.254,0.095,0.466,0.289,0.636c0.193,0.17,0.474,0.254,0.845,0.254c0.368,0,0.695-0.081,0.981-0.241
				c0.286-0.161,0.497-0.381,0.631-0.661c0.103-0.215,0.154-0.535,0.154-0.955L210.042,420.007L210.042,420.007z M208.185,416.501
				l0.705-1.485h1.251l-1.166,1.485H208.185z"/>
			<path d="M211.789,421.152l0.944-0.149c0.052,0.378,0.201,0.668,0.442,0.87c0.243,0.202,0.581,0.303,1.016,0.303
				c0.439,0,0.764-0.089,0.976-0.268c0.212-0.178,0.318-0.387,0.318-0.628c0-0.215-0.094-0.385-0.281-0.509
				c-0.131-0.085-0.456-0.193-0.975-0.323c-0.7-0.177-1.186-0.329-1.456-0.459s-0.475-0.308-0.615-0.536
				c-0.139-0.228-0.21-0.48-0.21-0.756c0-0.25,0.057-0.483,0.173-0.697c0.114-0.214,0.272-0.391,0.47-0.533
				c0.148-0.11,0.351-0.203,0.607-0.279c0.256-0.076,0.531-0.114,0.825-0.114c0.441,0,0.83,0.064,1.164,0.191
				c0.334,0.128,0.581,0.3,0.74,0.517c0.159,0.217,0.268,0.507,0.329,0.872l-0.933,0.127c-0.043-0.29-0.165-0.516-0.369-0.679
				c-0.203-0.162-0.491-0.244-0.863-0.244c-0.438,0-0.751,0.073-0.938,0.218c-0.187,0.145-0.281,0.314-0.281,0.509
				c0,0.124,0.039,0.235,0.117,0.334c0.078,0.103,0.2,0.187,0.366,0.254c0.095,0.035,0.376,0.116,0.843,0.244
				c0.675,0.18,1.147,0.328,1.413,0.442c0.267,0.115,0.476,0.282,0.628,0.502c0.153,0.22,0.228,0.491,0.228,0.816
				c0,0.319-0.092,0.618-0.278,0.898c-0.185,0.281-0.453,0.499-0.803,0.653c-0.35,0.153-0.746,0.231-1.188,0.231
				c-0.732,0-1.289-0.152-1.673-0.456C212.139,422.198,211.895,421.749,211.789,421.152z"/>
			<path d="M219.994,416.157v-1.097h0.954v1.097H219.994z M219.994,422.833v-5.631h0.954v5.631H219.994z"/>
			<path d="M222.087,422.833v-5.631h0.859v0.8c0.413-0.618,1.01-0.928,1.792-0.928c0.34,0,0.651,0.061,0.935,0.183
				c0.284,0.121,0.498,0.282,0.639,0.48c0.141,0.198,0.241,0.433,0.297,0.704c0.035,0.178,0.052,0.486,0.052,0.928v3.463h-0.955
				v-3.426c0-0.389-0.037-0.679-0.111-0.872c-0.075-0.193-0.207-0.347-0.395-0.462c-0.189-0.114-0.411-0.172-0.666-0.172
				c-0.407,0-0.758,0.129-1.053,0.387c-0.295,0.258-0.443,0.747-0.443,1.469v3.076L222.087,422.833L222.087,422.833L222.087,422.833
				z"/>
			<path d="M228.039,422.833v-4.889h-0.843v-0.742h0.843v-0.6c0-0.378,0.034-0.66,0.101-0.843c0.092-0.247,0.254-0.448,0.485-0.603
				c0.232-0.154,0.556-0.231,0.973-0.231c0.268,0,0.566,0.032,0.891,0.095l-0.143,0.833c-0.198-0.036-0.385-0.053-0.562-0.053
				c-0.29,0-0.495,0.062-0.615,0.186c-0.121,0.124-0.18,0.355-0.18,0.695v0.52h1.097v0.742h-1.097v4.889L228.039,422.833
				L228.039,422.833z"/>
			<path d="M230.159,420.018c0-1.043,0.29-1.815,0.87-2.317c0.484-0.417,1.075-0.626,1.771-0.626c0.774,0,1.407,0.254,1.899,0.762
				s0.736,1.208,0.736,2.103c0,0.725-0.109,1.295-0.326,1.71c-0.217,0.416-0.534,0.738-0.949,0.968
				c-0.416,0.229-0.869,0.344-1.36,0.344c-0.789,0-1.425-0.253-1.911-0.759C230.402,421.696,230.159,420.968,230.159,420.018z
				 M231.139,420.018c0,0.721,0.157,1.261,0.473,1.619c0.314,0.359,0.711,0.538,1.188,0.538c0.474,0,0.867-0.18,1.183-0.541
				s0.473-0.91,0.473-1.649c0-0.697-0.158-1.223-0.474-1.583c-0.316-0.358-0.71-0.538-1.18-0.538c-0.477,0-0.873,0.179-1.188,0.536
				C231.297,418.757,231.139,419.296,231.139,420.018z"/>
			<path d="M236.228,422.833v-5.631h0.859v0.854c0.218-0.4,0.421-0.663,0.607-0.79c0.186-0.127,0.39-0.191,0.612-0.191
				c0.322,0,0.649,0.103,0.981,0.308l-0.329,0.885c-0.233-0.138-0.467-0.207-0.7-0.207c-0.209,0-0.396,0.063-0.562,0.188
				c-0.167,0.125-0.285,0.3-0.355,0.522c-0.106,0.34-0.159,0.711-0.159,1.114v2.949L236.228,422.833L236.228,422.833z"/>
			<path d="M239.54,422.833v-5.631h0.854v0.79c0.177-0.276,0.411-0.498,0.704-0.666c0.294-0.168,0.628-0.252,1.003-0.252
				c0.416,0,0.759,0.087,1.026,0.26c0.267,0.174,0.456,0.416,0.565,0.727c0.445-0.658,1.025-0.987,1.74-0.987
				c0.559,0,0.989,0.155,1.288,0.464c0.301,0.31,0.45,0.786,0.45,1.429v3.866h-0.949v-3.548c0-0.381-0.031-0.657-0.093-0.824
				c-0.062-0.168-0.175-0.304-0.337-0.406c-0.163-0.103-0.354-0.153-0.573-0.153c-0.396,0-0.725,0.132-0.986,0.395
				c-0.262,0.263-0.393,0.685-0.393,1.264v3.272h-0.954v-3.659c0-0.424-0.078-0.743-0.234-0.955
				c-0.155-0.212-0.409-0.318-0.764-0.318c-0.268,0-0.517,0.07-0.745,0.212c-0.228,0.142-0.393,0.348-0.495,0.621
				c-0.103,0.272-0.154,0.665-0.154,1.177v2.922L239.54,422.833L239.54,422.833z"/>
			<path d="M251.947,422.139c-0.354,0.301-0.694,0.513-1.021,0.636c-0.327,0.124-0.678,0.185-1.053,0.185
				c-0.619,0-1.094-0.151-1.426-0.454c-0.333-0.302-0.499-0.688-0.499-1.158c0-0.276,0.063-0.528,0.189-0.755
				c0.125-0.229,0.29-0.411,0.493-0.549c0.203-0.139,0.432-0.243,0.686-0.313c0.188-0.049,0.471-0.097,0.849-0.143
				c0.77-0.092,1.338-0.202,1.702-0.329c0.003-0.131,0.005-0.214,0.005-0.249c0-0.389-0.09-0.664-0.271-0.823
				c-0.244-0.215-0.607-0.323-1.088-0.323c-0.448,0-0.78,0.079-0.994,0.236c-0.214,0.157-0.373,0.436-0.474,0.835l-0.934-0.128
				c0.085-0.4,0.225-0.722,0.419-0.967c0.194-0.246,0.475-0.435,0.843-0.568c0.368-0.132,0.794-0.199,1.278-0.199
				c0.481,0,0.871,0.056,1.172,0.17c0.301,0.114,0.521,0.256,0.663,0.427s0.241,0.387,0.297,0.65
				c0.032,0.163,0.048,0.456,0.048,0.88v1.273c0,0.888,0.02,1.449,0.061,1.683c0.041,0.236,0.121,0.461,0.242,0.676h-0.997
				C252.039,422.635,251.975,422.403,251.947,422.139z M251.867,420.007c-0.347,0.142-0.866,0.261-1.559,0.361
				c-0.393,0.056-0.67,0.12-0.832,0.191c-0.163,0.07-0.288,0.174-0.376,0.31c-0.088,0.137-0.132,0.287-0.132,0.454
				c0,0.254,0.095,0.466,0.289,0.636c0.193,0.17,0.474,0.254,0.845,0.254c0.368,0,0.695-0.081,0.981-0.241
				c0.286-0.161,0.497-0.381,0.631-0.661c0.103-0.215,0.154-0.535,0.154-0.955L251.867,420.007L251.867,420.007z"/>
			<path d="M257.672,420.77l0.938,0.122c-0.103,0.646-0.366,1.154-0.788,1.518c-0.422,0.366-0.941,0.549-1.556,0.549
				c-0.77,0-1.39-0.252-1.859-0.756c-0.469-0.504-0.702-1.226-0.702-2.166c0-0.608,0.101-1.14,0.303-1.597
				c0.201-0.456,0.507-0.798,0.92-1.026c0.412-0.229,0.86-0.343,1.345-0.343c0.611,0,1.112,0.155,1.501,0.464
				c0.388,0.31,0.637,0.749,0.747,1.318l-0.928,0.144c-0.088-0.378-0.245-0.663-0.47-0.854c-0.225-0.191-0.496-0.286-0.814-0.286
				c-0.481,0-0.872,0.173-1.172,0.517c-0.301,0.344-0.45,0.89-0.45,1.636c0,0.757,0.145,1.306,0.434,1.649
				c0.29,0.343,0.668,0.514,1.135,0.514c0.375,0,0.688-0.115,0.938-0.344C257.445,421.601,257.604,421.248,257.672,420.77z"/>
			<path d="M259.118,416.157v-1.097h0.954v1.097H259.118z M259.118,422.833v-5.631h0.954v5.631H259.118z"/>
			<path d="M260.855,420.018c0-1.043,0.29-1.815,0.87-2.317c0.484-0.417,1.075-0.626,1.771-0.626c0.774,0,1.407,0.254,1.899,0.762
				c0.492,0.508,0.737,1.208,0.737,2.103c0,0.725-0.109,1.295-0.326,1.71c-0.217,0.416-0.534,0.738-0.949,0.968
				c-0.416,0.229-0.869,0.344-1.36,0.344c-0.789,0-1.425-0.253-1.911-0.759C261.098,421.696,260.855,420.968,260.855,420.018z
				 M261.836,420.018c0,0.721,0.157,1.261,0.473,1.619c0.314,0.359,0.711,0.538,1.188,0.538c0.474,0,0.867-0.18,1.183-0.541
				c0.315-0.361,0.473-0.91,0.473-1.649c0-0.697-0.158-1.223-0.474-1.583c-0.316-0.358-0.71-0.538-1.18-0.538
				c-0.477,0-0.873,0.179-1.188,0.536C261.993,418.757,261.836,419.296,261.836,420.018z M262.965,416.501l0.705-1.485h1.251
				l-1.166,1.485H262.965z"/>
			<path d="M266.935,422.833v-5.631h0.859v0.8c0.413-0.618,1.01-0.928,1.792-0.928c0.34,0,0.651,0.061,0.935,0.183
				c0.284,0.121,0.498,0.282,0.639,0.48c0.141,0.198,0.241,0.433,0.297,0.704c0.035,0.178,0.052,0.486,0.052,0.928v3.463h-0.955
				v-3.426c0-0.389-0.037-0.679-0.111-0.872c-0.075-0.193-0.207-0.347-0.395-0.462c-0.189-0.114-0.411-0.172-0.666-0.172
				c-0.407,0-0.758,0.129-1.053,0.387c-0.295,0.258-0.443,0.747-0.443,1.469v3.076L266.935,422.833L266.935,422.833L266.935,422.833
				z"/>
		</g>
	</g>
</g>
</svg>
