<!-- Generator: Adobe Illustrator 17.0.0, SVG Export Plug-In  -->
<svg version="1.1"
	 xmlns="http://www.w3.org/2000/svg" xmlns:xlink="http://www.w3.org/1999/xlink" xmlns:a="http://ns.adobe.com/AdobeSVGViewerExtensions/3.0/"
	 x="0px" y="0px" width="438.24px" height="384.148px" viewBox="0 0 438.24 384.148" enable-background="new 0 0 438.24 384.148"
	 xml:space="preserve">
<defs>
</defs>
<g>
	<path fill="#144B8B" d="M10.245,18.459H9.725l-0.952-1.46c-0.398,0.525-0.881,0.941-1.447,1.25
		c-0.566,0.31-1.197,0.464-1.892,0.464H4.481c-0.617,0-1.199-0.116-1.746-0.349c-0.545-0.233-1.021-0.553-1.428-0.959
		s-0.726-0.881-0.959-1.422C0.116,15.442,0,14.862,0,14.244V4.469c0-0.618,0.116-1.198,0.349-1.739
		c0.233-0.541,0.553-1.016,0.959-1.422S2.19,0.582,2.735,0.349C3.282,0.116,3.864,0,4.481,0h1.295c0.617,0,1.197,0.116,1.739,0.349
		c0.542,0.233,1.016,0.553,1.422,0.959s0.726,0.881,0.958,1.422c0.233,0.541,0.35,1.121,0.35,1.739v0.736L8.607,5.459v-0.99
		c0-0.406-0.076-0.785-0.229-1.136c-0.152-0.352-0.36-0.658-0.622-0.921s-0.569-0.47-0.92-0.622C6.485,1.638,6.106,1.562,5.7,1.562
		H4.558c-0.406,0-0.785,0.076-1.137,0.229C3.07,1.942,2.761,2.149,2.495,2.412C2.228,2.675,2.019,2.981,1.866,3.333
		C1.714,3.684,1.638,4.063,1.638,4.469v9.775c0,0.406,0.076,0.785,0.229,1.136c0.152,0.352,0.361,0.66,0.629,0.928
		c0.266,0.266,0.575,0.476,0.926,0.628c0.352,0.152,0.73,0.229,1.137,0.229H5.7c0.406,0,0.785-0.076,1.137-0.229
		c0.351-0.152,0.658-0.362,0.92-0.628c0.262-0.268,0.47-0.576,0.622-0.928c0.152-0.351,0.229-0.729,0.229-1.136v-3.796H5.7V8.887
		h4.545V18.459z"/>
	<path fill="#144B8B" d="M22.021,16.377c-0.199,0.466-0.473,0.872-0.819,1.219s-0.753,0.62-1.219,0.819
		c-0.466,0.198-0.96,0.298-1.485,0.298h-1.041c-0.525,0-1.02-0.1-1.485-0.298c-0.466-0.199-0.872-0.473-1.219-0.819
		s-0.62-0.753-0.819-1.219c-0.198-0.466-0.298-0.96-0.298-1.485V9.026c0-0.525,0.1-1.02,0.298-1.485
		c0.199-0.466,0.473-0.872,0.819-1.219s0.753-0.62,1.219-0.819c0.466-0.198,0.96-0.298,1.485-0.298h1.041
		c0.525,0,1.02,0.1,1.485,0.298c0.466,0.199,0.872,0.473,1.219,0.819s0.62,0.753,0.819,1.219c0.198,0.466,0.298,0.96,0.298,1.485
		v3.06h-7.122v2.895c0,0.313,0.059,0.607,0.178,0.882c0.119,0.275,0.279,0.515,0.482,0.718s0.442,0.364,0.717,0.482
		c0.275,0.118,0.57,0.178,0.883,0.178h1.041c0.313,0,0.607-0.06,0.883-0.178c0.274-0.118,0.514-0.279,0.717-0.482
		s0.363-0.442,0.482-0.718c0.119-0.274,0.178-0.568,0.178-0.882v-0.863l1.562,0.254v0.521
		C22.318,15.417,22.219,15.911,22.021,16.377z M20.757,8.938c0-0.313-0.059-0.607-0.178-0.882C20.46,7.78,20.3,7.541,20.097,7.338
		s-0.442-0.364-0.717-0.482c-0.275-0.118-0.57-0.178-0.883-0.178h-1.041c-0.313,0-0.607,0.06-0.883,0.178
		c-0.274,0.118-0.514,0.279-0.717,0.482s-0.363,0.442-0.482,0.718c-0.119,0.274-0.178,0.568-0.178,0.882v1.93h5.561V8.938z"/>
	<path fill="#144B8B" d="M29.263,6.944c-0.313,0-0.607,0.059-0.883,0.178c-0.274,0.119-0.514,0.279-0.717,0.482
		S27.3,8.047,27.181,8.321c-0.119,0.275-0.178,0.57-0.178,0.883v9.255h-1.562v-13h0.521l0.851,1.32
		c0.355-0.482,0.802-0.865,1.339-1.149c0.538-0.283,1.124-0.425,1.759-0.425h0.914v1.739H29.263z"/>
	<path fill="#144B8B" d="M41.292,16.377c-0.199,0.466-0.473,0.872-0.819,1.219s-0.753,0.62-1.219,0.819
		c-0.466,0.198-0.96,0.298-1.485,0.298h-1.041c-0.525,0-1.02-0.1-1.485-0.298c-0.466-0.199-0.872-0.473-1.219-0.819
		s-0.62-0.753-0.819-1.219c-0.198-0.466-0.298-0.96-0.298-1.485V9.026c0-0.525,0.1-1.02,0.298-1.485
		c0.199-0.466,0.473-0.872,0.819-1.219s0.753-0.62,1.219-0.819c0.466-0.198,0.96-0.298,1.485-0.298h1.041
		c0.525,0,1.02,0.1,1.485,0.298c0.466,0.199,0.872,0.473,1.219,0.819s0.62,0.753,0.819,1.219c0.198,0.466,0.298,0.96,0.298,1.485
		v3.06h-7.122v2.895c0,0.313,0.059,0.607,0.178,0.882c0.119,0.275,0.279,0.515,0.482,0.718s0.442,0.364,0.717,0.482
		c0.275,0.118,0.57,0.178,0.883,0.178h1.041c0.313,0,0.607-0.06,0.883-0.178c0.274-0.118,0.514-0.279,0.717-0.482
		s0.363-0.442,0.482-0.718c0.119-0.274,0.178-0.568,0.178-0.882v-0.863l1.562,0.254v0.521C41.59,15.417,41.49,15.911,41.292,16.377z
		 M40.028,8.938c0-0.313-0.059-0.607-0.178-0.882c-0.119-0.275-0.279-0.515-0.482-0.718s-0.442-0.364-0.717-0.482
		c-0.275-0.118-0.57-0.178-0.883-0.178h-1.041c-0.313,0-0.607,0.06-0.883,0.178c-0.274,0.118-0.514,0.279-0.717,0.482
		s-0.363,0.442-0.482,0.718c-0.119,0.274-0.178,0.568-0.178,0.882v1.93h5.561V8.938z"/>
	<path fill="#144B8B" d="M51.835,18.459V8.938c0-0.313-0.059-0.607-0.178-0.882c-0.119-0.275-0.279-0.515-0.482-0.718
		s-0.442-0.364-0.717-0.482c-0.275-0.118-0.57-0.178-0.883-0.178h-1.041c-0.313,0-0.607,0.06-0.883,0.178
		c-0.274,0.118-0.514,0.279-0.717,0.482s-0.363,0.442-0.482,0.718c-0.119,0.274-0.178,0.568-0.178,0.882v9.521h-1.562v-13h0.521
		l0.851,1.32c0.355-0.482,0.802-0.865,1.339-1.149c0.538-0.283,1.124-0.425,1.759-0.425h0.394c0.525,0,1.02,0.1,1.485,0.298
		c0.466,0.199,0.872,0.473,1.219,0.819s0.62,0.753,0.819,1.219c0.198,0.466,0.298,0.96,0.298,1.485v9.433H51.835z"/>
	<path fill="#144B8B" d="M64.905,16.377c-0.199,0.466-0.473,0.872-0.819,1.219s-0.753,0.62-1.219,0.819
		c-0.466,0.198-0.96,0.298-1.485,0.298h-1.041c-0.525,0-1.02-0.1-1.485-0.298c-0.466-0.199-0.872-0.473-1.219-0.819
		s-0.62-0.753-0.819-1.219c-0.198-0.466-0.298-0.96-0.298-1.485V9.026c0-0.525,0.1-1.02,0.298-1.485
		c0.199-0.466,0.473-0.872,0.819-1.219s0.753-0.62,1.219-0.819c0.466-0.198,0.96-0.298,1.485-0.298h1.041
		c0.525,0,1.02,0.1,1.485,0.298c0.466,0.199,0.872,0.473,1.219,0.819s0.62,0.753,0.819,1.219c0.198,0.466,0.298,0.96,0.298,1.485
		v0.521l-1.562,0.254V8.938c0-0.313-0.059-0.607-0.178-0.882c-0.119-0.275-0.279-0.515-0.482-0.718s-0.442-0.364-0.717-0.482
		c-0.275-0.118-0.57-0.178-0.883-0.178h-1.041c-0.313,0-0.607,0.06-0.883,0.178c-0.274,0.118-0.514,0.279-0.717,0.482
		s-0.363,0.442-0.482,0.718c-0.119,0.274-0.178,0.568-0.178,0.882v6.043c0,0.313,0.059,0.607,0.178,0.882
		c0.119,0.275,0.279,0.515,0.482,0.718s0.442,0.364,0.717,0.482c0.275,0.118,0.57,0.178,0.883,0.178h1.041
		c0.313,0,0.607-0.06,0.883-0.178c0.274-0.118,0.514-0.279,0.717-0.482s0.363-0.442,0.482-0.718
		c0.119-0.274,0.178-0.568,0.178-0.882v-0.863l1.562,0.254v0.521C65.203,15.417,65.104,15.911,64.905,16.377z"/>
	<path fill="#144B8B" d="M68.72,2.336V0.254h1.815v2.082H68.72z M68.847,18.459v-13h1.562v13H68.847z"/>
	<path fill="#144B8B" d="M82.215,18.459l-0.863-1.295c-0.355,0.466-0.8,0.84-1.333,1.124c-0.533,0.283-1.117,0.425-1.752,0.425
		h-0.394c-0.524,0-1.021-0.1-1.485-0.298c-0.465-0.199-0.871-0.473-1.219-0.819s-0.62-0.753-0.818-1.219
		c-0.199-0.466-0.299-0.96-0.299-1.485v-0.127c0-0.525,0.1-1.02,0.299-1.485c0.198-0.466,0.471-0.872,0.818-1.219
		s0.754-0.62,1.219-0.819c0.465-0.198,0.961-0.298,1.485-0.298h3.301V8.938c0-0.313-0.06-0.607-0.178-0.882
		c-0.118-0.275-0.279-0.515-0.482-0.718s-0.442-0.364-0.718-0.482c-0.274-0.118-0.568-0.178-0.882-0.178H78
		c-0.313,0-0.607,0.06-0.882,0.178c-0.275,0.118-0.515,0.279-0.718,0.482s-0.364,0.442-0.482,0.718
		C75.8,8.33,75.74,8.624,75.74,8.938v0.47l-1.562-0.254V9.026c0-0.525,0.1-1.02,0.299-1.485c0.198-0.466,0.471-0.872,0.818-1.219
		s0.754-0.62,1.219-0.819C76.979,5.305,77.476,5.205,78,5.205h0.914c0.524,0,1.021,0.1,1.485,0.298
		c0.465,0.199,0.871,0.473,1.219,0.819s0.62,0.753,0.818,1.219c0.199,0.466,0.299,0.96,0.299,1.485v9.433H82.215z M81.174,12.162
		h-3.301c-0.313,0-0.607,0.06-0.882,0.178c-0.275,0.118-0.515,0.281-0.718,0.489c-0.203,0.207-0.364,0.448-0.482,0.723
		c-0.118,0.275-0.178,0.57-0.178,0.883v0.546c0,0.313,0.06,0.607,0.178,0.882c0.118,0.275,0.279,0.515,0.482,0.718
		s0.442,0.364,0.718,0.482c0.274,0.118,0.568,0.178,0.882,0.178h1.041c0.313,0,0.607-0.06,0.882-0.178
		c0.275-0.118,0.515-0.279,0.718-0.482s0.364-0.442,0.482-0.718c0.118-0.274,0.178-0.568,0.178-0.882V12.162z"/>
	<path fill="#144B8B" d="M100.001,18.459l-0.863-1.32c-0.355,0.482-0.8,0.865-1.333,1.149c-0.533,0.283-1.117,0.425-1.752,0.425
		h-0.394c-0.525,0-1.02-0.1-1.485-0.298c-0.466-0.199-0.872-0.473-1.219-0.819s-0.62-0.753-0.819-1.219
		c-0.198-0.466-0.298-0.96-0.298-1.485V9.026c0-0.525,0.1-1.02,0.298-1.485c0.199-0.466,0.473-0.872,0.819-1.219
		s0.753-0.62,1.219-0.819c0.466-0.198,0.96-0.298,1.485-0.298h0.394c0.584,0,1.126,0.118,1.625,0.355s0.927,0.567,1.282,0.99V0.254
		h1.562v18.205H100.001z M98.96,8.938c0-0.313-0.059-0.607-0.178-0.882C98.663,7.78,98.503,7.541,98.3,7.338
		s-0.442-0.364-0.717-0.482c-0.275-0.118-0.57-0.178-0.883-0.178h-1.041c-0.313,0-0.607,0.06-0.883,0.178
		c-0.274,0.118-0.514,0.279-0.717,0.482s-0.363,0.442-0.482,0.718c-0.119,0.274-0.178,0.568-0.178,0.882v6.043
		c0,0.313,0.059,0.607,0.178,0.882c0.119,0.275,0.279,0.515,0.482,0.718s0.442,0.364,0.717,0.482
		c0.275,0.118,0.57,0.178,0.883,0.178H96.7c0.313,0,0.607-0.06,0.883-0.178c0.274-0.118,0.514-0.279,0.717-0.482
		s0.363-0.442,0.482-0.718c0.119-0.274,0.178-0.568,0.178-0.882V8.938z"/>
	<path fill="#144B8B" d="M112.03,16.377c-0.199,0.466-0.473,0.872-0.819,1.219s-0.753,0.62-1.219,0.819
		c-0.466,0.198-0.96,0.298-1.485,0.298h-1.041c-0.525,0-1.02-0.1-1.485-0.298c-0.466-0.199-0.872-0.473-1.219-0.819
		s-0.62-0.753-0.819-1.219c-0.198-0.466-0.298-0.96-0.298-1.485V9.026c0-0.525,0.1-1.02,0.298-1.485
		c0.199-0.466,0.473-0.872,0.819-1.219s0.753-0.62,1.219-0.819c0.466-0.198,0.96-0.298,1.485-0.298h1.041
		c0.525,0,1.02,0.1,1.485,0.298c0.466,0.199,0.872,0.473,1.219,0.819s0.62,0.753,0.819,1.219c0.198,0.466,0.298,0.96,0.298,1.485
		v3.06h-7.122v2.895c0,0.313,0.059,0.607,0.178,0.882c0.119,0.275,0.279,0.515,0.482,0.718s0.442,0.364,0.717,0.482
		c0.275,0.118,0.57,0.178,0.883,0.178h1.041c0.313,0,0.607-0.06,0.883-0.178c0.274-0.118,0.514-0.279,0.717-0.482
		s0.363-0.442,0.482-0.718c0.119-0.274,0.178-0.568,0.178-0.882v-0.863l1.562,0.254v0.521
		C112.328,15.417,112.229,15.911,112.03,16.377z M110.767,8.938c0-0.313-0.059-0.607-0.178-0.882
		c-0.119-0.275-0.279-0.515-0.482-0.718s-0.442-0.364-0.717-0.482c-0.275-0.118-0.57-0.178-0.883-0.178h-1.041
		c-0.313,0-0.607,0.06-0.883,0.178c-0.274,0.118-0.514,0.279-0.717,0.482s-0.363,0.442-0.482,0.718
		c-0.119,0.274-0.178,0.568-0.178,0.882v1.93h5.561V8.938z"/>
	<path fill="#144B8B" d="M129.815,16.377c-0.198,0.466-0.471,0.872-0.818,1.219s-0.754,0.62-1.219,0.819
		c-0.465,0.198-0.961,0.298-1.485,0.298h-0.394c-0.584,0-1.125-0.118-1.625-0.355s-0.927-0.567-1.282-0.99v6.297h-1.562V5.459h0.521
		l0.851,1.32c0.355-0.482,0.802-0.865,1.34-1.149c0.537-0.283,1.123-0.425,1.758-0.425h0.394c0.524,0,1.021,0.1,1.485,0.298
		c0.465,0.199,0.871,0.473,1.219,0.819s0.62,0.753,0.818,1.219c0.199,0.466,0.299,0.96,0.299,1.485v5.865
		C130.114,15.417,130.015,15.911,129.815,16.377z M128.553,8.938c0-0.313-0.06-0.607-0.178-0.882
		c-0.118-0.275-0.279-0.515-0.482-0.718s-0.442-0.364-0.718-0.482c-0.274-0.118-0.568-0.178-0.882-0.178h-1.041
		c-0.313,0-0.607,0.06-0.882,0.178c-0.275,0.118-0.515,0.279-0.718,0.482s-0.364,0.442-0.482,0.718
		c-0.118,0.274-0.178,0.568-0.178,0.882v6.043c0,0.313,0.06,0.607,0.178,0.882c0.118,0.275,0.279,0.515,0.482,0.718
		s0.442,0.364,0.718,0.482c0.274,0.118,0.568,0.178,0.882,0.178h1.041c0.313,0,0.607-0.06,0.882-0.178
		c0.275-0.118,0.515-0.279,0.718-0.482s0.364-0.442,0.482-0.718c0.118-0.274,0.178-0.568,0.178-0.882V8.938z"/>
	<path fill="#144B8B" d="M137.059,6.944c-0.313,0-0.607,0.059-0.882,0.178c-0.275,0.119-0.515,0.279-0.718,0.482
		s-0.364,0.442-0.482,0.717c-0.118,0.275-0.178,0.57-0.178,0.883v9.255h-1.562v-13h0.521l0.851,1.32
		c0.355-0.482,0.802-0.865,1.34-1.149c0.537-0.283,1.123-0.425,1.758-0.425h0.914v1.739H137.059z"/>
	<path fill="#144B8B" d="M149.087,16.377c-0.198,0.466-0.471,0.872-0.818,1.219s-0.754,0.62-1.219,0.819
		c-0.465,0.198-0.961,0.298-1.485,0.298h-1.041c-0.524,0-1.021-0.1-1.485-0.298c-0.465-0.199-0.871-0.473-1.219-0.819
		s-0.62-0.753-0.818-1.219c-0.199-0.466-0.299-0.96-0.299-1.485V9.026c0-0.525,0.1-1.02,0.299-1.485
		c0.198-0.466,0.471-0.872,0.818-1.219s0.754-0.62,1.219-0.819c0.465-0.198,0.961-0.298,1.485-0.298h1.041
		c0.524,0,1.021,0.1,1.485,0.298c0.465,0.199,0.871,0.473,1.219,0.819s0.62,0.753,0.818,1.219c0.199,0.466,0.299,0.96,0.299,1.485
		v5.865C149.386,15.417,149.286,15.911,149.087,16.377z M147.824,8.938c0-0.313-0.06-0.607-0.178-0.882
		c-0.118-0.275-0.279-0.515-0.482-0.718s-0.442-0.364-0.718-0.482c-0.274-0.118-0.568-0.178-0.882-0.178h-1.041
		c-0.313,0-0.607,0.06-0.882,0.178c-0.275,0.118-0.515,0.279-0.718,0.482s-0.364,0.442-0.482,0.718
		c-0.118,0.274-0.178,0.568-0.178,0.882v6.043c0,0.313,0.06,0.607,0.178,0.882c0.118,0.275,0.279,0.515,0.482,0.718
		s0.442,0.364,0.718,0.482c0.274,0.118,0.568,0.178,0.882,0.178h1.041c0.313,0,0.607-0.06,0.882-0.178
		c0.275-0.118,0.515-0.279,0.718-0.482s0.364-0.442,0.482-0.718c0.118-0.274,0.178-0.568,0.178-0.882V8.938z"/>
	<path fill="#144B8B" d="M154.616,23.664h-1.511l2.311-6.322l-4.215-11.883h1.562l3.39,9.852l0.051,0.673l0.051-0.673l3.377-9.852
		h1.562L154.616,23.664z"/>
	<path fill="#144B8B" d="M171.14,16.377c-0.199,0.466-0.473,0.872-0.819,1.219s-0.753,0.62-1.219,0.819
		c-0.466,0.198-0.96,0.298-1.485,0.298h-1.041c-0.525,0-1.02-0.1-1.485-0.298c-0.466-0.199-0.872-0.473-1.219-0.819
		s-0.62-0.753-0.819-1.219c-0.198-0.466-0.298-0.96-0.298-1.485V9.026c0-0.525,0.1-1.02,0.298-1.485
		c0.199-0.466,0.473-0.872,0.819-1.219s0.753-0.62,1.219-0.819c0.466-0.198,0.96-0.298,1.485-0.298h1.041
		c0.525,0,1.02,0.1,1.485,0.298c0.466,0.199,0.872,0.473,1.219,0.819s0.62,0.753,0.819,1.219c0.198,0.466,0.298,0.96,0.298,1.485
		v3.06h-7.122v2.895c0,0.313,0.059,0.607,0.178,0.882c0.119,0.275,0.279,0.515,0.482,0.718s0.442,0.364,0.717,0.482
		c0.275,0.118,0.57,0.178,0.883,0.178h1.041c0.313,0,0.607-0.06,0.883-0.178c0.274-0.118,0.514-0.279,0.717-0.482
		s0.363-0.442,0.482-0.718c0.119-0.274,0.178-0.568,0.178-0.882v-0.863l1.562,0.254v0.521
		C171.438,15.417,171.338,15.911,171.14,16.377z M169.876,8.938c0-0.313-0.059-0.607-0.178-0.882
		c-0.119-0.275-0.279-0.515-0.482-0.718s-0.442-0.364-0.717-0.482c-0.275-0.118-0.57-0.178-0.883-0.178h-1.041
		c-0.313,0-0.607,0.06-0.883,0.178c-0.274,0.118-0.514,0.279-0.717,0.482s-0.363,0.442-0.482,0.718
		c-0.119,0.274-0.178,0.568-0.178,0.882v1.93h5.561V8.938z"/>
	<path fill="#144B8B" d="M182.946,16.377c-0.199,0.466-0.473,0.872-0.819,1.219s-0.753,0.62-1.219,0.819
		c-0.466,0.198-0.96,0.298-1.485,0.298h-1.041c-0.525,0-1.02-0.1-1.485-0.298c-0.466-0.199-0.872-0.473-1.219-0.819
		s-0.62-0.753-0.819-1.219c-0.198-0.466-0.298-0.96-0.298-1.485V9.026c0-0.525,0.1-1.02,0.298-1.485
		c0.199-0.466,0.473-0.872,0.819-1.219s0.753-0.62,1.219-0.819c0.466-0.198,0.96-0.298,1.485-0.298h1.041
		c0.525,0,1.02,0.1,1.485,0.298c0.466,0.199,0.872,0.473,1.219,0.819s0.62,0.753,0.819,1.219c0.198,0.466,0.298,0.96,0.298,1.485
		v0.521l-1.562,0.254V8.938c0-0.313-0.059-0.607-0.178-0.882c-0.119-0.275-0.279-0.515-0.482-0.718s-0.442-0.364-0.717-0.482
		c-0.275-0.118-0.57-0.178-0.883-0.178h-1.041c-0.313,0-0.607,0.06-0.883,0.178c-0.274,0.118-0.514,0.279-0.717,0.482
		s-0.363,0.442-0.482,0.718c-0.119,0.274-0.178,0.568-0.178,0.882v6.043c0,0.313,0.059,0.607,0.178,0.882
		c0.119,0.275,0.279,0.515,0.482,0.718s0.442,0.364,0.717,0.482c0.275,0.118,0.57,0.178,0.883,0.178h1.041
		c0.313,0,0.607-0.06,0.883-0.178c0.274-0.118,0.514-0.279,0.717-0.482s0.363-0.442,0.482-0.718
		c0.119-0.274,0.178-0.568,0.178-0.882v-0.863l1.562,0.254v0.521C183.244,15.417,183.145,15.911,182.946,16.377z"/>
	<path fill="#144B8B" d="M191.103,18.459c-0.475,0-0.92-0.089-1.34-0.267c-0.418-0.178-0.782-0.424-1.092-0.736
		c-0.309-0.313-0.554-0.678-0.736-1.092c-0.182-0.414-0.272-0.859-0.272-1.333V6.944h-2.336V5.459h2.336V2.336l1.562-0.254v3.377
		h3.301v1.485h-3.301v8.163c0,0.263,0.049,0.506,0.146,0.729c0.097,0.225,0.23,0.422,0.399,0.591s0.368,0.303,0.597,0.399
		c0.229,0.098,0.475,0.146,0.736,0.146h1.422v1.485H191.103z"/>
	<path fill="#144B8B" d="M203.778,16.377c-0.198,0.466-0.471,0.872-0.818,1.219s-0.754,0.62-1.219,0.819
		c-0.465,0.198-0.961,0.298-1.485,0.298h-1.041c-0.524,0-1.021-0.1-1.485-0.298c-0.465-0.199-0.871-0.473-1.219-0.819
		s-0.62-0.753-0.818-1.219c-0.199-0.466-0.299-0.96-0.299-1.485V9.026c0-0.525,0.1-1.02,0.299-1.485
		c0.198-0.466,0.471-0.872,0.818-1.219s0.754-0.62,1.219-0.819c0.465-0.198,0.961-0.298,1.485-0.298h1.041
		c0.524,0,1.021,0.1,1.485,0.298c0.465,0.199,0.871,0.473,1.219,0.819s0.62,0.753,0.818,1.219c0.199,0.466,0.299,0.96,0.299,1.485
		v5.865C204.077,15.417,203.978,15.911,203.778,16.377z M202.516,8.938c0-0.313-0.06-0.607-0.178-0.882
		c-0.118-0.275-0.279-0.515-0.482-0.718s-0.442-0.364-0.718-0.482c-0.274-0.118-0.568-0.178-0.882-0.178h-1.041
		c-0.313,0-0.607,0.06-0.882,0.178c-0.275,0.118-0.515,0.279-0.718,0.482s-0.364,0.442-0.482,0.718
		c-0.118,0.274-0.178,0.568-0.178,0.882v6.043c0,0.313,0.06,0.607,0.178,0.882c0.118,0.275,0.279,0.515,0.482,0.718
		s0.442,0.364,0.718,0.482c0.274,0.118,0.568,0.178,0.882,0.178h1.041c0.313,0,0.607-0.06,0.882-0.178
		c0.275-0.118,0.515-0.279,0.718-0.482s0.364-0.442,0.482-0.718c0.118-0.274,0.178-0.568,0.178-0.882V8.938z"/>
	<path fill="#144B8B" d="M216.138,15.158c0,0.524-0.105,1.005-0.317,1.44c-0.212,0.437-0.499,0.811-0.863,1.124
		s-0.785,0.557-1.263,0.729c-0.479,0.174-0.98,0.261-1.505,0.261h-1.041c-0.524,0-1.026-0.1-1.505-0.298
		c-0.478-0.199-0.896-0.473-1.256-0.819c-0.36-0.347-0.648-0.753-0.863-1.219c-0.217-0.466-0.324-0.96-0.324-1.485v-0.521
		l1.562-0.254v0.863c0,0.313,0.065,0.607,0.196,0.882c0.132,0.275,0.307,0.515,0.527,0.718s0.475,0.364,0.762,0.482
		s0.588,0.178,0.901,0.178h1.041c0.313,0,0.614-0.046,0.901-0.14s0.544-0.227,0.768-0.4c0.225-0.173,0.402-0.383,0.533-0.628
		c0.132-0.245,0.197-0.524,0.197-0.838c0-0.466-0.102-0.847-0.305-1.143s-0.472-0.544-0.807-0.743
		c-0.334-0.198-0.715-0.363-1.143-0.494c-0.427-0.132-0.865-0.263-1.313-0.395c-0.448-0.131-0.887-0.281-1.313-0.45
		c-0.428-0.169-0.809-0.392-1.143-0.667c-0.335-0.274-0.604-0.619-0.807-1.034s-0.305-0.931-0.305-1.549
		c0-0.524,0.102-1.005,0.305-1.44c0.203-0.437,0.479-0.811,0.825-1.124s0.751-0.557,1.212-0.729
		c0.462-0.174,0.955-0.261,1.479-0.261h0.914c0.524,0,1.021,0.1,1.485,0.298c0.465,0.199,0.871,0.473,1.219,0.819
		s0.62,0.753,0.818,1.219c0.199,0.466,0.299,0.96,0.299,1.485v0.051l-1.562,0.254V8.938c0-0.313-0.06-0.607-0.178-0.882
		c-0.118-0.275-0.279-0.515-0.482-0.718s-0.442-0.364-0.718-0.482c-0.274-0.118-0.568-0.178-0.882-0.178h-0.914
		c-0.313,0-0.607,0.046-0.882,0.14c-0.275,0.094-0.515,0.227-0.718,0.4c-0.203,0.173-0.364,0.383-0.482,0.628
		s-0.178,0.524-0.178,0.838c0,0.448,0.102,0.814,0.305,1.099c0.203,0.283,0.472,0.521,0.806,0.717
		c0.335,0.195,0.716,0.357,1.143,0.488c0.428,0.132,0.863,0.268,1.309,0.406c0.443,0.141,0.88,0.299,1.307,0.477
		c0.428,0.178,0.809,0.406,1.143,0.686c0.335,0.279,0.604,0.629,0.807,1.047C216.036,14.022,216.138,14.54,216.138,15.158z"/>
</g>
<g>
	<g>
		<g>
			<radialGradient id="SVGID_1_" cx="223.5469" cy="245.667" r="151.1901" gradientUnits="userSpaceOnUse">
				<stop  offset="0" style="stop-color:#8CBB69"/>
				<stop  offset="0.7837" style="stop-color:#6BAD44"/>
			</radialGradient>
			<rect x="10.355" y="229.348" fill="url(#SVGID_1_)" width="426.383" height="32.639"/>
			<path d="M436.738,263.488H10.356c-0.832,0-1.502-0.672-1.502-1.502v-32.639c0-0.83,0.67-1.504,1.502-1.504h426.383
				c0.828,0,1.502,0.674,1.502,1.504v32.639C438.24,262.816,437.566,263.488,436.738,263.488z M11.859,260.482h423.375v-29.631
				H11.859V260.482z"/>
		</g>
		<g>
			<path d="M436.738,384.148H10.356c-0.832,0-1.502-0.672-1.502-1.504V261.986c0-0.83,0.67-1.504,1.502-1.504h426.383
				c0.828,0,1.502,0.674,1.502,1.504v120.658C438.24,383.477,437.566,384.148,436.738,384.148z M11.859,381.143h423.375V263.488
				H11.859V381.143z"/>
		</g>
	</g>
	<g>
		<path d="M426.904,247.17h-15.783c-0.832,0-1.506-0.672-1.506-1.504c0-0.83,0.674-1.504,1.506-1.504h15.783
			c0.828,0,1.502,0.674,1.502,1.504C428.406,246.498,427.732,247.17,426.904,247.17z"/>
	</g>
	<g>
		<path fill="#FFFFFF" d="M401.211,245.666c0,4.586-3.715,8.307-8.299,8.307c-4.592,0-8.311-3.721-8.311-8.307
			c0-4.588,3.719-8.305,8.311-8.305C397.496,237.361,401.211,241.078,401.211,245.666z"/>
		<path d="M392.912,255.477c-5.412,0-9.811-4.4-9.811-9.811c0-5.406,4.398-9.807,9.811-9.807c5.402,0,9.803,4.4,9.803,9.807
			C402.715,251.076,398.314,255.477,392.912,255.477z M392.912,238.865c-3.754,0-6.809,3.051-6.809,6.801
			c0,3.752,3.055,6.803,6.809,6.803c3.744,0,6.797-3.051,6.797-6.803C399.709,241.916,396.656,238.865,392.912,238.865z"/>
	</g>
	<g>
		<path fill="#144B8B" d="M105.732,322.314c0,20.166-16.346,36.512-36.51,36.512c-20.162,0-36.51-16.346-36.51-36.512
			c0-20.162,16.348-36.508,36.51-36.508C89.387,285.807,105.732,302.152,105.732,322.314z"/>
		<path d="M69.223,360.328c-20.961,0-38.014-17.051-38.014-38.014c0-20.957,17.053-38.012,38.014-38.012
			c20.961,0,38.012,17.055,38.012,38.012C107.234,343.277,90.184,360.328,69.223,360.328z M69.223,287.311
			c-19.303,0-35.008,15.703-35.008,35.004c0,19.305,15.705,35.008,35.008,35.008c19.303,0,35.006-15.703,35.006-35.008
			C104.229,303.014,88.525,287.311,69.223,287.311z"/>
	</g>
	<g>
		<path d="M411.121,304.522H125.773c-0.83,0-1.502-0.674-1.502-1.504v-14.092c0-0.832,0.672-1.502,1.502-1.502h285.348
			c0.83,0,1.498,0.67,1.498,1.502v14.092C412.619,303.848,411.951,304.522,411.121,304.522z M127.275,301.518h282.34v-11.09h-282.34
			V301.518z"/>
	</g>
	<g>
		<path d="M411.121,330.865H125.773c-0.83,0-1.502-0.674-1.502-1.502v-14.092c0-0.83,0.672-1.502,1.502-1.502h285.348
			c0.83,0,1.498,0.672,1.498,1.502v14.092C412.619,330.191,411.951,330.865,411.121,330.865z M127.275,327.859h282.34v-11.084
			h-282.34V327.859z"/>
	</g>
	<g>
		<path d="M411.121,357.209H125.773c-0.83,0-1.502-0.674-1.502-1.504v-14.088c0-0.832,0.672-1.504,1.502-1.504h285.348
			c0.83,0,1.498,0.672,1.498,1.504v14.088C412.619,356.535,411.951,357.209,411.121,357.209z M127.275,354.203h282.34v-11.084
			h-282.34V354.203z"/>
	</g>
	<g>
		<path fill="#FFFFFF" d="M90.648,323.818H47.795c-0.826,0-1.5-0.67-1.5-1.502c0-0.83,0.674-1.502,1.5-1.502h42.854
			c0.834,0,1.506,0.672,1.506,1.502C92.154,323.148,91.482,323.818,90.648,323.818z"/>
	</g>
	<g>
		<path fill="#FFFFFF" d="M69.223,345.248c-0.83,0-1.502-0.674-1.502-1.502v-42.855c0-0.83,0.672-1.504,1.502-1.504
			c0.832,0,1.504,0.674,1.504,1.504v42.855C70.727,344.574,70.055,345.248,69.223,345.248z"/>
	</g>
</g>
</svg>