<!-- Generator: Adobe Illustrator 17.0.0, SVG Export Plug-In  -->
<svg version="1.1"
	 xmlns="http://www.w3.org/2000/svg" xmlns:xlink="http://www.w3.org/1999/xlink" xmlns:a="http://ns.adobe.com/AdobeSVGViewerExtensions/3.0/"
	 x="0px" y="0px" width="69.366px" height="98.137px" viewBox="0 0 69.366 98.137" enable-background="new 0 0 69.366 98.137"
	 xml:space="preserve">
<defs>
</defs>
<g>
	<g>
		<polygon fill="#144B8B" points="54.191,0.398 0.398,0.398 0.398,97.738 68.969,97.738 68.969,15.177 		"/>
		<path fill="#231F20" d="M68.969,98.137H0.398C0.179,98.137,0,97.96,0,97.738V0.398C0,0.178,0.179,0,0.398,0h53.793
			c0.106,0,0.207,0.041,0.28,0.117L69.25,14.896c0.076,0.074,0.116,0.176,0.116,0.281v82.562
			C69.366,97.96,69.189,98.137,68.969,98.137z M0.795,97.342H68.57V15.341L54.026,0.795H0.795V97.342z"/>
	</g>
	<g>
		<path fill="#FFFFFF" d="M60.105,56.399H6.307c-0.219,0-0.397-0.179-0.397-0.396c0-0.221,0.178-0.399,0.397-0.399h53.799
			c0.221,0,0.398,0.179,0.398,0.399C60.504,56.22,60.326,56.399,60.105,56.399z"/>
	</g>
	<g>
		<path fill="#FFFFFF" d="M60.105,64.564H6.307c-0.219,0-0.397-0.179-0.397-0.397c0-0.22,0.178-0.398,0.397-0.398h53.799
			c0.221,0,0.398,0.179,0.398,0.398C60.504,64.385,60.326,64.564,60.105,64.564z"/>
	</g>
	<g>
		<path fill="#FFFFFF" d="M25.612,72.728H6.307c-0.219,0-0.397-0.178-0.397-0.398c0-0.22,0.178-0.397,0.397-0.397h19.306
			c0.22,0,0.397,0.178,0.397,0.397C26.01,72.55,25.832,72.728,25.612,72.728z"/>
	</g>
	<g>
		<polygon fill="#FFFFFF" points="54.191,15.177 68.969,15.177 54.191,0.398 		"/>
		<path fill="#231F20" d="M68.969,15.574H54.191c-0.221,0-0.398-0.177-0.398-0.398V0.398c0-0.161,0.098-0.306,0.247-0.368
			c0.146-0.061,0.318-0.026,0.432,0.088L69.25,14.896c0.114,0.114,0.146,0.283,0.086,0.433
			C69.274,15.479,69.129,15.574,68.969,15.574z M54.591,14.778H68.01L54.591,1.358V14.778z"/>
	</g>
	<g>
		<path fill="#FFFFFF" d="M60.105,48.571H20.175c-0.22,0-0.397-0.178-0.397-0.397s0.177-0.398,0.397-0.398h39.931
			c0.221,0,0.398,0.178,0.398,0.398S60.326,48.571,60.105,48.571z"/>
	</g>
	<g>
		<path fill="#FFFFFF" d="M60.105,40.262H20.175c-0.22,0-0.397-0.178-0.397-0.396c0-0.221,0.177-0.398,0.397-0.398h39.931
			c0.221,0,0.398,0.178,0.398,0.398C60.504,40.084,60.326,40.262,60.105,40.262z"/>
	</g>
	<g>
		<radialGradient id="SVGID_1_" cx="10.4619" cy="44.0198" r="4.1548" gradientUnits="userSpaceOnUse">
			<stop  offset="0" style="stop-color:#8CBB69"/>
			<stop  offset="0.7837" style="stop-color:#6BAD44"/>
		</radialGradient>
		
			<rect x="6.307" y="39.865" fill="url(#SVGID_1_)" stroke="#000000" stroke-width="0.5" stroke-miterlimit="10" width="8.311" height="8.309"/>
		<path fill="#FFFFFF" d="M14.617,48.571H6.307c-0.219,0-0.397-0.178-0.397-0.397v-8.309c0-0.221,0.178-0.398,0.397-0.398h8.311
			c0.219,0,0.397,0.178,0.397,0.398v8.309C15.015,48.394,14.836,48.571,14.617,48.571z M6.703,47.777h7.516v-7.515H6.703V47.777z"/>
	</g>
	<g>
		<path fill="#FFFFFF" d="M11.905,85.076v-5.208h3.861v0.881h-2.81v1.154h2.614v0.878h-2.614v1.417h2.909v0.878H11.905z"/>
		<path fill="#FFFFFF" d="M16.769,85.076v-5.208h1.023l2.131,3.478v-3.478H20.9v5.208h-1.056l-2.1-3.396v3.396H16.769z"/>
		<path fill="#FFFFFF" d="M23.185,85.076v-4.327h-1.546v-0.881h4.139v0.881h-1.542v4.327H23.185z"/>
		<path fill="#FFFFFF" d="M26.46,85.076v-5.208h2.213c0.557,0,0.961,0.047,1.213,0.141c0.253,0.093,0.454,0.26,0.606,0.499
			c0.151,0.239,0.227,0.513,0.227,0.82c0,0.391-0.114,0.714-0.344,0.968c-0.23,0.255-0.573,0.415-1.03,0.481
			c0.227,0.133,0.415,0.278,0.563,0.438c0.148,0.158,0.348,0.44,0.599,0.846l0.636,1.016h-1.257l-0.761-1.133
			c-0.27-0.405-0.455-0.66-0.554-0.766c-0.1-0.105-0.205-0.178-0.316-0.217s-0.288-0.059-0.529-0.059h-0.214v2.174H26.46z
			 M27.511,82.071h0.778c0.505,0,0.819-0.021,0.945-0.063c0.125-0.043,0.224-0.116,0.295-0.221c0.071-0.104,0.106-0.234,0.106-0.391
			c0-0.175-0.047-0.316-0.141-0.425c-0.094-0.107-0.226-0.176-0.396-0.204c-0.086-0.012-0.342-0.018-0.768-0.018h-0.821V82.071z"/>
		<path fill="#FFFFFF" d="M31.71,85.076v-5.208h3.861v0.881h-2.81v1.154h2.614v0.878h-2.614v1.417h2.909v0.878H31.71z"/>
		<path fill="#FFFFFF" d="M37.892,85.076l-1.862-5.208h1.141l1.318,3.854l1.275-3.854h1.115l-1.865,5.208H37.892z"/>
		<path fill="#FFFFFF" d="M41.383,85.076v-5.208h1.052v5.208H41.383z"/>
		<path fill="#FFFFFF" d="M43.17,83.382l1.023-0.1c0.062,0.344,0.187,0.596,0.375,0.757s0.442,0.241,0.762,0.241
			c0.339,0,0.594-0.071,0.766-0.215s0.258-0.311,0.258-0.503c0-0.123-0.036-0.228-0.108-0.314c-0.072-0.086-0.198-0.161-0.379-0.226
			c-0.123-0.042-0.403-0.118-0.842-0.227c-0.563-0.141-0.959-0.312-1.187-0.516c-0.319-0.286-0.479-0.636-0.479-1.048
			c0-0.266,0.075-0.514,0.226-0.744c0.15-0.231,0.367-0.407,0.65-0.528c0.283-0.12,0.624-0.181,1.024-0.181
			c0.654,0,1.146,0.144,1.477,0.43c0.33,0.287,0.504,0.669,0.521,1.147l-1.052,0.046c-0.045-0.268-0.142-0.46-0.29-0.577
			c-0.147-0.117-0.37-0.176-0.666-0.176c-0.306,0-0.544,0.063-0.718,0.188c-0.111,0.081-0.166,0.188-0.166,0.323
			c0,0.123,0.052,0.229,0.156,0.316c0.132,0.111,0.454,0.228,0.966,0.348c0.512,0.121,0.89,0.246,1.135,0.375
			s0.438,0.306,0.576,0.529s0.208,0.501,0.208,0.83c0,0.298-0.083,0.577-0.249,0.838s-0.4,0.454-0.703,0.581
			c-0.304,0.127-0.682,0.19-1.134,0.19c-0.658,0-1.164-0.152-1.517-0.457C43.449,84.408,43.239,83.964,43.17,83.382z"/>
		<path fill="#FFFFFF" d="M49.462,85.076v-4.327h-1.546v-0.881h4.139v0.881h-1.542v4.327H49.462z"/>
		<path fill="#FFFFFF" d="M56.89,85.076h-1.144l-0.455-1.183h-2.082l-0.43,1.183h-1.115l2.028-5.208h1.112L56.89,85.076z
			 M54.954,83.016l-0.718-1.933l-0.703,1.933H54.954z"/>
		<path fill="#FFFFFF" d="M20.937,92.113l1.023-0.1c0.062,0.344,0.187,0.596,0.375,0.757s0.442,0.241,0.762,0.241
			c0.339,0,0.594-0.071,0.766-0.215s0.258-0.311,0.258-0.503c0-0.123-0.036-0.228-0.108-0.314c-0.072-0.086-0.198-0.161-0.379-0.226
			c-0.123-0.042-0.403-0.118-0.842-0.227c-0.563-0.141-0.959-0.312-1.187-0.516c-0.319-0.286-0.479-0.636-0.479-1.048
			c0-0.266,0.075-0.514,0.226-0.744c0.15-0.231,0.367-0.407,0.65-0.528c0.283-0.12,0.624-0.181,1.024-0.181
			c0.654,0,1.146,0.144,1.477,0.43c0.33,0.287,0.504,0.669,0.521,1.147l-1.052,0.046c-0.045-0.268-0.142-0.46-0.29-0.577
			c-0.147-0.117-0.37-0.176-0.666-0.176c-0.306,0-0.544,0.063-0.718,0.188c-0.111,0.081-0.166,0.188-0.166,0.323
			c0,0.123,0.052,0.229,0.156,0.316c0.132,0.111,0.454,0.228,0.966,0.348c0.512,0.121,0.89,0.246,1.135,0.375
			s0.438,0.306,0.576,0.529s0.208,0.501,0.208,0.83c0,0.298-0.083,0.577-0.249,0.838s-0.4,0.454-0.703,0.581
			c-0.304,0.127-0.682,0.19-1.134,0.19c-0.658,0-1.164-0.152-1.517-0.457C21.217,93.139,21.007,92.695,20.937,92.113z"/>
		<path fill="#FFFFFF" d="M29.389,91.892l1.02,0.323c-0.156,0.568-0.416,0.991-0.779,1.267c-0.363,0.276-0.825,0.414-1.384,0.414
			c-0.691,0-1.26-0.236-1.705-0.709s-0.668-1.118-0.668-1.938c0-0.867,0.224-1.54,0.671-2.02c0.448-0.479,1.036-0.72,1.766-0.72
			c0.638,0,1.155,0.188,1.553,0.564c0.237,0.223,0.415,0.543,0.533,0.96l-1.041,0.248c-0.062-0.27-0.19-0.482-0.386-0.64
			c-0.195-0.156-0.433-0.234-0.712-0.234c-0.386,0-0.699,0.139-0.939,0.416c-0.241,0.277-0.361,0.726-0.361,1.347
			c0,0.658,0.119,1.127,0.355,1.406c0.237,0.28,0.545,0.42,0.924,0.42c0.279,0,0.52-0.089,0.722-0.267
			C29.157,92.553,29.302,92.274,29.389,91.892z"/>
		<path fill="#FFFFFF" d="M31.314,93.807v-5.208h2.213c0.557,0,0.961,0.047,1.213,0.141c0.253,0.093,0.454,0.26,0.606,0.499
			c0.151,0.239,0.227,0.513,0.227,0.82c0,0.391-0.114,0.714-0.344,0.968c-0.23,0.255-0.573,0.415-1.03,0.481
			c0.227,0.133,0.415,0.278,0.563,0.438c0.148,0.158,0.348,0.44,0.599,0.846l0.636,1.016h-1.257l-0.761-1.133
			c-0.27-0.405-0.455-0.66-0.554-0.766c-0.1-0.105-0.205-0.178-0.316-0.217s-0.288-0.059-0.529-0.059h-0.214v2.174H31.314z
			 M32.365,90.801h0.778c0.505,0,0.819-0.021,0.945-0.063c0.125-0.043,0.224-0.116,0.295-0.221c0.071-0.104,0.106-0.234,0.106-0.391
			c0-0.175-0.047-0.316-0.141-0.425c-0.094-0.107-0.226-0.176-0.396-0.204c-0.086-0.012-0.342-0.018-0.768-0.018h-0.821V90.801z"/>
		<path fill="#FFFFFF" d="M36.558,88.599h1.052v2.82c0,0.448,0.013,0.738,0.039,0.871c0.045,0.213,0.151,0.384,0.321,0.513
			c0.169,0.13,0.4,0.194,0.694,0.194c0.299,0,0.523-0.062,0.675-0.184s0.243-0.271,0.273-0.449c0.031-0.178,0.047-0.473,0.047-0.885
			v-2.881h1.051v2.735c0,0.625-0.028,1.067-0.085,1.325s-0.161,0.476-0.314,0.653c-0.152,0.178-0.356,0.319-0.612,0.425
			s-0.59,0.158-1.002,0.158c-0.498,0-0.875-0.058-1.132-0.172c-0.257-0.115-0.46-0.265-0.609-0.448s-0.247-0.376-0.295-0.577
			c-0.068-0.299-0.103-0.739-0.103-1.321V88.599z"/>
		<path fill="#FFFFFF" d="M41.804,93.807v-5.208h1.574l0.945,3.553l0.934-3.553h1.578v5.208h-0.978v-4.1l-1.033,4.1h-1.013
			l-1.03-4.1v4.1H41.804z"/>
	</g>
	<g>
		<g>
			<circle fill="#FFFFFF" stroke="#000000" stroke-width="0.5" stroke-miterlimit="10" cx="32.492" cy="19.67" r="13.589"/>
			<radialGradient id="SVGID_2_" cx="32.4921" cy="19.6701" r="11.0234" gradientUnits="userSpaceOnUse">
				<stop  offset="0" style="stop-color:#8CBB69"/>
				<stop  offset="0.7837" style="stop-color:#6BAD44"/>
			</radialGradient>
			<circle fill="url(#SVGID_2_)" stroke="#000000" stroke-width="0.5" stroke-miterlimit="10" cx="32.492" cy="19.67" r="11.023"/>
		</g>
		<g>
			<polyline fill="none" stroke="#144B8B" stroke-width="0.5" stroke-linejoin="round" stroke-miterlimit="10" points="28.538,13.6 
				40.204,13.6 40.204,21.111 			"/>
			
				<polygon fill="#F1F1F1" stroke="#000000" stroke-width="0.5" stroke-linecap="round" stroke-linejoin="round" stroke-miterlimit="10" points="
				39.244,14.559 26.78,14.559 26.78,22.709 33.332,22.709 33.332,25.744 36.367,22.709 39.244,22.709 			"/>
			
				<polygon fill="#144B8B" stroke="#000000" stroke-width="0.5" stroke-linecap="round" stroke-linejoin="round" stroke-miterlimit="10" points="
				25.183,20.471 31.893,20.471 31.893,24.946 28.538,24.946 28.538,26.523 26.738,24.946 25.183,24.946 			"/>
			
				<line fill="none" stroke="#231F20" stroke-width="0.5" stroke-linejoin="round" stroke-miterlimit="10" x1="28.379" y1="18.073" x2="37.806" y2="18.073"/>
			
				<line fill="none" stroke="#231F20" stroke-width="0.5" stroke-linejoin="round" stroke-miterlimit="10" x1="28.379" y1="16.316" x2="37.806" y2="16.316"/>
			
				<line fill="none" stroke="#231F20" stroke-width="0.5" stroke-linejoin="round" stroke-miterlimit="10" x1="28.379" y1="19.672" x2="37.806" y2="19.672"/>
			
				<line fill="none" stroke="#231F20" stroke-width="0.5" stroke-linejoin="round" stroke-miterlimit="10" x1="28.379" y1="21.749" x2="30.775" y2="21.749"/>
			
				<line fill="none" stroke="#231F20" stroke-width="0.5" stroke-linejoin="round" stroke-miterlimit="10" x1="31.893" y1="21.271" x2="34.291" y2="21.271"/>
			
				<line fill="none" stroke="#231F20" stroke-width="0.5" stroke-linejoin="round" stroke-miterlimit="10" x1="35.409" y1="21.271" x2="37.806" y2="21.271"/>
			
				<line fill="#F1F1F1" stroke="#000000" stroke-width="0.5" stroke-linecap="round" stroke-linejoin="round" stroke-miterlimit="10" x1="30.775" y1="23.347" x2="26.141" y2="23.347"/>
		</g>
	</g>
</g>
</svg>