<!-- Generator: Adobe Illustrator 17.0.0, SVG Export Plug-In  -->
<svg version="1.1"
	 xmlns="http://www.w3.org/2000/svg" xmlns:xlink="http://www.w3.org/1999/xlink" xmlns:a="http://ns.adobe.com/AdobeSVGViewerExtensions/3.0/"
	 x="0px" y="0px" width="454.272px" height="60.297px" viewBox="0 0 454.272 60.297" enable-background="new 0 0 454.272 60.297"
	 xml:space="preserve">
<defs>
</defs>
<g>
	<path fill="#6BAD44" d="M63.77,35.953h-0.5l-0.916-1.404c-0.383,0.505-0.847,0.905-1.392,1.203
		c-0.546,0.297-1.151,0.445-1.819,0.445h-0.915c-0.595,0-1.153-0.112-1.679-0.336c-0.524-0.224-0.982-0.531-1.373-0.921
		s-0.697-0.846-0.922-1.367c-0.224-0.521-0.336-1.078-0.336-1.672v-9.399c0-0.594,0.112-1.151,0.336-1.672
		c0.225-0.521,0.531-0.977,0.922-1.367s0.849-0.698,1.373-0.921c0.525-0.224,1.084-0.336,1.679-0.336h1.245
		c0.594,0,1.151,0.112,1.672,0.336c0.521,0.224,0.977,0.531,1.367,0.921s0.698,0.847,0.922,1.367
		c0.225,0.521,0.336,1.079,0.336,1.672v0.708l-1.574,0.244v-0.952c0-0.391-0.074-0.755-0.221-1.093
		c-0.146-0.337-0.346-0.632-0.598-0.885c-0.252-0.252-0.547-0.452-0.885-0.598s-0.702-0.22-1.093-0.22h-1.099
		c-0.391,0-0.755,0.073-1.093,0.22c-0.337,0.146-0.635,0.346-0.891,0.598c-0.257,0.252-0.458,0.547-0.604,0.885
		c-0.146,0.338-0.22,0.702-0.22,1.093V31.9c0,0.391,0.073,0.755,0.22,1.093c0.146,0.337,0.348,0.635,0.604,0.891
		c0.256,0.257,0.554,0.458,0.891,0.604c0.338,0.146,0.702,0.22,1.093,0.22h1.099c0.391,0,0.755-0.073,1.093-0.22
		s0.633-0.348,0.885-0.604c0.252-0.256,0.451-0.553,0.598-0.891c0.146-0.338,0.221-0.702,0.221-1.093v-3.65h-2.796v-1.501h4.37
		V35.953z"/>
	<path fill="#6BAD44" d="M67.529,35.953V18.448h9.852v1.501h-8.277v6.506h6.702v1.501h-6.702v6.494h8.277v1.501H67.529z"/>
	<path fill="#6BAD44" d="M89.404,35.953l-7.3-12.744l-0.146-0.757v13.501h-1.575V18.448h0.818l7.3,12.756l0.159,0.745V18.448h1.574
		v17.505H89.404z"/>
	<path fill="#6BAD44" d="M94.238,35.953V18.448h9.852v1.501h-8.277v6.506h6.702v1.501h-6.702v6.494h8.277v1.501H94.238z"/>
	<path fill="#6BAD44" d="M115.32,35.953l-4.749-7.471h-2.161v7.471h-1.574V18.448h5.555c0.594,0,1.15,0.112,1.672,0.336
		c0.521,0.224,0.977,0.531,1.367,0.921s0.697,0.848,0.922,1.374c0.224,0.524,0.336,1.084,0.336,1.678v1.416
		c0,0.594-0.112,1.154-0.336,1.678c-0.225,0.525-0.531,0.983-0.922,1.374s-0.847,0.698-1.367,0.921
		c-0.521,0.224-1.078,0.336-1.672,0.336l4.748,7.471H115.32z M115.112,22.757c0-0.391-0.073-0.755-0.22-1.092
		c-0.146-0.338-0.346-0.635-0.598-0.892c-0.253-0.256-0.548-0.458-0.885-0.604c-0.338-0.146-0.703-0.22-1.094-0.22h-3.906v7.031
		h3.906c0.391,0,0.756-0.073,1.094-0.22c0.337-0.146,0.632-0.348,0.885-0.604c0.252-0.257,0.451-0.554,0.598-0.892
		c0.146-0.337,0.22-0.702,0.22-1.092V22.757z"/>
	<path fill="#6BAD44" d="M126.709,31.876h-5.542l-1.147,4.077h-1.636l5.127-17.505h0.83l5.151,17.505h-1.623L126.709,31.876z
		 M121.594,30.375h4.7l-2.308-8.069l-0.049-0.647l-0.049,0.647L121.594,30.375z"/>
	<path fill="#6BAD44" d="M131.482,35.953V18.448h1.574v16.003h6.701v1.501H131.482z"/>
	<path fill="#6BAD44" d="M142.261,35.953V18.448h1.575v17.505H142.261z"/>
	<path fill="#6BAD44" d="M157.355,33.329c-0.225,0.521-0.531,0.977-0.922,1.367s-0.85,0.698-1.373,0.921
		c-0.525,0.224-1.086,0.336-1.68,0.336h-5.541V18.448h5.541c0.594,0,1.154,0.112,1.68,0.336c0.523,0.224,0.982,0.531,1.373,0.921
		s0.697,0.848,0.922,1.374c0.223,0.524,0.335,1.084,0.335,1.678v8.899C157.69,32.251,157.578,32.808,157.355,33.329z
		 M156.115,22.757c0-0.391-0.072-0.755-0.219-1.092c-0.146-0.338-0.348-0.635-0.605-0.892c-0.256-0.256-0.553-0.458-0.891-0.604
		s-0.701-0.22-1.092-0.22h-3.895v14.502h3.895c0.391,0,0.754-0.073,1.092-0.22s0.635-0.346,0.891-0.598
		c0.258-0.252,0.459-0.547,0.605-0.885c0.146-0.338,0.219-0.702,0.219-1.093V22.757z"/>
	<path fill="#6BAD44" d="M168.006,31.876h-5.543l-1.146,4.077h-1.637l5.127-17.505h0.83l5.152,17.505h-1.624L168.006,31.876z
		 M162.891,30.375h4.699l-2.307-8.069l-0.049-0.647l-0.049,0.647L162.891,30.375z"/>
	<path fill="#6BAD44" d="M182.551,33.329c-0.225,0.521-0.531,0.977-0.922,1.367s-0.85,0.698-1.373,0.921
		c-0.525,0.224-1.086,0.336-1.68,0.336h-5.541V18.448h5.541c0.594,0,1.154,0.112,1.68,0.336c0.523,0.224,0.982,0.531,1.373,0.921
		s0.697,0.848,0.922,1.374c0.223,0.524,0.335,1.084,0.335,1.678v8.899C182.886,32.251,182.773,32.808,182.551,33.329z
		 M181.311,22.757c0-0.391-0.072-0.755-0.219-1.092c-0.146-0.338-0.348-0.635-0.605-0.892c-0.256-0.256-0.553-0.458-0.891-0.604
		s-0.701-0.22-1.092-0.22h-3.895v14.502h3.895c0.391,0,0.754-0.073,1.092-0.22s0.635-0.346,0.891-0.598
		c0.258-0.252,0.459-0.547,0.605-0.885c0.146-0.338,0.219-0.702,0.219-1.093V22.757z"/>
	<path fill="#6BAD44" d="M186.633,35.953V18.448h9.852v1.501h-8.276v6.506h6.702v1.501h-6.702v6.494h8.276v1.501H186.633z"/>
	<path fill="#6BAD44" d="M209.082,31.9c0,0.594-0.12,1.152-0.36,1.672c-0.239,0.521-0.562,0.977-0.964,1.367
		c-0.403,0.391-0.871,0.698-1.404,0.921c-0.533,0.224-1.097,0.336-1.69,0.336h-1.257c-0.595,0-1.158-0.112-1.691-0.336
		c-0.533-0.224-1.001-0.531-1.403-0.921c-0.403-0.391-0.725-0.846-0.965-1.367c-0.239-0.521-0.36-1.078-0.36-1.672v-0.696
		l1.575-0.256V31.9c0,0.391,0.079,0.755,0.238,1.093c0.158,0.337,0.372,0.635,0.641,0.891c0.269,0.257,0.58,0.458,0.934,0.604
		c0.354,0.146,0.727,0.22,1.117,0.22h1.099c0.391,0,0.761-0.073,1.111-0.22c0.35-0.146,0.658-0.348,0.928-0.604
		c0.268-0.256,0.481-0.553,0.641-0.891c0.158-0.338,0.238-0.702,0.238-1.093v-0.525c0-0.602-0.119-1.103-0.354-1.501
		c-0.236-0.398-0.55-0.738-0.94-1.02c-0.391-0.28-0.832-0.519-1.324-0.714s-0.999-0.391-1.52-0.586
		c-0.521-0.195-1.027-0.411-1.52-0.647c-0.492-0.236-0.934-0.531-1.324-0.885c-0.391-0.354-0.705-0.787-0.94-1.3
		c-0.236-0.513-0.354-1.143-0.354-1.892v-0.33c0-0.594,0.112-1.151,0.336-1.672c0.225-0.521,0.531-0.977,0.922-1.367
		s0.849-0.698,1.373-0.921c0.525-0.224,1.084-0.336,1.679-0.336h1.123c0.594,0,1.151,0.112,1.673,0.336
		c0.52,0.224,0.977,0.531,1.367,0.921s0.697,0.847,0.921,1.367c0.224,0.521,0.336,1.079,0.336,1.672v0.452l-1.575,0.256v-0.708
		c0-0.391-0.072-0.755-0.219-1.093c-0.146-0.337-0.347-0.632-0.599-0.885c-0.253-0.252-0.548-0.452-0.885-0.598
		c-0.338-0.146-0.702-0.22-1.093-0.22h-0.977c-0.391,0-0.755,0.073-1.093,0.22c-0.337,0.146-0.635,0.346-0.891,0.598
		c-0.257,0.252-0.458,0.547-0.604,0.885c-0.146,0.338-0.22,0.702-0.22,1.093v0.33c0,0.562,0.118,1.034,0.354,1.416
		c0.235,0.383,0.549,0.71,0.939,0.983c0.391,0.272,0.832,0.508,1.324,0.708c0.492,0.199,0.999,0.402,1.52,0.61
		c0.521,0.207,1.027,0.435,1.521,0.684c0.492,0.248,0.934,0.553,1.324,0.915c0.391,0.362,0.704,0.804,0.94,1.325
		c0.235,0.521,0.354,1.156,0.354,1.904V31.9z"/>
</g>
<rect x="51.508" y="46.887" fill="#144B8B" width="396.523" height="1.872"/>
<path fill="#144B8B" d="M454.272,47.822c0,2.674-2.162,4.838-4.836,4.838c-2.672,0-4.834-2.164-4.834-4.838s2.162-4.837,4.834-4.837
	C452.109,42.985,454.272,45.148,454.272,47.822"/>
<g id="XMLID_1_">
	<path id="XMLID_8_" fill="#144B8B" stroke="#000000" stroke-width="0.5" stroke-miterlimit="10" d="M46.984,55.531l-5.479-5.479
		c1.127-1.775,1.773-4.029,1.773-6.286c0-6.449-5.318-11.763-11.768-11.763c-6.443,0-11.764,5.314-11.764,11.763
		c0,6.448,5.32,11.765,11.764,11.765c2.258,0,4.516-0.644,6.287-1.77l5.48,5.479c0.482,0.482,1.127,0.807,1.773,0.807
		s1.287-0.324,1.771-0.807C47.953,58.114,47.953,56.496,46.984,55.531L46.984,55.531z M31.512,51.828
		c-4.51,0-8.055-3.551-8.055-8.061c0-4.511,3.545-8.059,8.055-8.059c4.516,0,8.063,3.548,8.063,8.059
		C39.574,48.115,36.027,51.828,31.512,51.828L31.512,51.828z"/>
	<path id="XMLID_7_" fill="#144B8B" stroke="#000000" stroke-width="0.5" stroke-miterlimit="10" d="M21.844,34.095H7.984
		c-0.484,0-0.805,0.325-0.805,0.808v0.806c0,0.486,0.32,0.807,0.805,0.807H19.91C20.555,35.708,21.199,34.902,21.844,34.095
		L21.844,34.095z"/>
	<path id="XMLID_6_" fill="#144B8B" stroke="#000000" stroke-width="0.5" stroke-miterlimit="10" d="M13.947,9.598h10.961
		c1.447,0,2.576-1.127,2.576-2.58l0,0c0-1.449-1.129-2.572-2.576-2.572h-1.293c-0.642,0-1.289-0.647-1.289-1.291l0,0
		c0-1.614-1.287-2.904-2.899-2.904l0,0c-1.613,0-2.904,1.29-2.904,2.904l0,0c0,0.805-0.642,1.291-1.287,1.291h-1.289
		c-1.451,0-2.578,1.123-2.578,2.572l0,0C11.369,8.471,12.496,9.598,13.947,9.598L13.947,9.598z M19.428,2.022
		c0.645,0,1.287,0.647,1.287,1.29c0,0.648-0.642,1.134-1.287,1.134c-0.646,0-1.293-0.647-1.293-1.291
		C18.135,2.507,18.781,2.022,19.428,2.022L19.428,2.022z"/>
	<path id="XMLID_5_" fill="#144B8B" stroke="#000000" stroke-width="0.5" stroke-miterlimit="10" d="M7.984,41.671
		c-0.484,0-0.805,0.32-0.805,0.807v0.807c0,0.482,0.32,0.806,0.805,0.806h9.992c0-0.161,0-0.323,0-0.485
		c0-0.641,0-1.289,0.158-2.095H7.984V41.671z"/>
	<path id="XMLID_4_" fill="#144B8B" stroke="#000000" stroke-width="0.5" stroke-miterlimit="10" d="M31.678,29.098v-0.807
		c0-0.479-0.326-0.803-0.813-0.803H7.984c-0.484,0-0.805,0.324-0.805,0.803v0.807c0,0.486,0.32,0.81,0.805,0.81h22.881
		C31.352,29.908,31.678,29.422,31.678,29.098L31.678,29.098z"/>
	<path id="XMLID_3_" fill="#144B8B" stroke="#000000" stroke-width="0.5" stroke-miterlimit="10" d="M4.598,49.246V15.399h29.656
		v14.987c1.451,0.324,2.898,0.811,4.188,1.617v-21.6c0-1.611-1.289-2.902-2.9-2.902h-6.443c-0.162,2.258-1.938,3.869-4.19,3.869
		H13.787c-2.256,0-4.029-1.773-4.191-3.869H3.15c-1.609,0-2.9,1.291-2.9,2.902v40.131c0,1.608,1.291,2.901,2.9,2.901h18.855
		c-1.291-1.131-2.258-2.577-3.064-4.19H4.598z"/>
	<path id="XMLID_2_" fill="#144B8B" stroke="#000000" stroke-width="0.5" stroke-miterlimit="10" d="M31.678,20.557
		c0-0.486-0.326-0.804-0.813-0.804H7.984c-0.484,0-0.805,0.317-0.805,0.804v0.811c0,0.48,0.32,0.805,0.805,0.805h22.881
		c0.486,0,0.813-0.324,0.813-0.805V20.557z"/>
</g>
</svg>