<!-- Generator: Adobe Illustrator 17.0.0, SVG Export Plug-In  -->
<svg version="1.1"
	 xmlns="http://www.w3.org/2000/svg" xmlns:xlink="http://www.w3.org/1999/xlink" xmlns:a="http://ns.adobe.com/AdobeSVGViewerExtensions/3.0/"
	 x="0px" y="0px" width="401.861px" height="234.761px" viewBox="0 0 401.861 234.761" enable-background="new 0 0 401.861 234.761"
	 xml:space="preserve">
<defs>
</defs>
<g>
	<g>
		
			<rect x="1.6" y="113.006" fill="#FFFFFF" stroke="#231F20" stroke-width="3.2" stroke-linejoin="round" stroke-miterlimit="10" width="98.673" height="78.779"/>
		<rect x="10.357" y="121.76" fill="#144B8B" width="80.367" height="60.477"/>
		<polyline fill="none" stroke="#231F20" stroke-width="3.2" stroke-linejoin="round" stroke-miterlimit="10" points="
			9.465,161.746 43.355,144.145 76.501,163.244 		"/>
		<polyline fill="none" stroke="#231F20" stroke-width="3.2" stroke-linejoin="round" stroke-miterlimit="10" points="
			62.324,155.074 74.626,144.145 91.483,155.074 		"/>
		<circle fill="#FFFFFF" cx="57.963" cy="133.471" r="7.677"/>
	</g>
	<g>
		<path fill="#C4C5C6" d="M108.232,58v-5.607c0.797-0.324,2.006-0.746,2.971-1.26l3.93,3.967c0.375,0.377,0.971,0.377,1.348,0
			l5.674-5.684c0.375-0.377,0.371-0.984-0.006-1.361l-3.969-4.195c0.517-0.963,0.934-1.674,1.256-3.268h5.61
			c0.534,0,0.692,0.027,0.692-0.506v-8.037c0-0.533-0.158-1.006-0.692-1.006h-5.61c-0.322-1.592-0.742-2.053-1.256-3.014
			l3.965-3.957c0.379-0.377,0.379-0.98,0-1.357l-5.686-5.682c-0.373-0.379-0.984-0.375-1.36,0.002L111.203,21
			c-0.965-0.51-2.174-0.934-2.971-1.26v-5.609c0-0.531-0.568-1.389-1.1-1.389h-8.037c-0.533,0-1.207,0.857-1.207,1.389v5.609
			c-0.797,0.326-1.958,0.75-2.914,1.26l-3.908-3.963c-0.373-0.379-0.955-0.379-1.33,0l-5.672,5.682
			c-0.375,0.377-0.368,0.984,0.008,1.361l3.974,3.949c-0.514,0.961-0.937,1.422-1.255,3.014h-5.611
			c-0.531,0-1.596,0.473-1.596,1.006v8.037c0,0.533,1.064,0.506,1.596,0.506h5.611c0.322,1.594,0.748,2.305,1.259,3.268l-3.97,4.082
			c-0.375,0.377-0.375,1.041,0,1.418l5.687,5.711c0.376,0.377,0.982,0.393,1.36,0.014l3.848-3.959
			c0.956,0.514,2.117,0.943,2.914,1.268V58c0,0.533,0.674,0.895,1.207,0.895h8.037C107.663,58.895,108.232,58.533,108.232,58z"/>
		<path fill="#F1F1F1" stroke="#231F20" stroke-width="3.2" stroke-linejoin="round" stroke-miterlimit="10" d="M102.908,43.547
			c-3.982,0-7.213-3.232-7.213-7.215c0-3.98,3.23-7.213,7.213-7.213c3.982,0,7.211,3.233,7.211,7.213
			C110.119,40.314,106.89,43.547,102.908,43.547z"/>
	</g>
	<g>
		<rect x="160.748" y="191.785" fill="#BCBDBF" width="45.36" height="30.237"/>
		<g>
			<path fill="#F1F1F1" d="M288.072,62.107c0-6.291-4.676-11.965-11.246-11.965H89.423c-6.573,0-12.228,5.674-12.228,11.965v93.869
				h210.876V62.107z"/>
			<path fill="#F1F1F1" stroke="#231F20" stroke-width="3.2" stroke-linejoin="round" stroke-miterlimit="10" d="M77.196,155.977
				v25.102c0,6.297,5.654,10.707,12.228,10.707h187.402c6.57,0,11.246-4.41,11.246-10.707v-25.102H77.196z"/>
		</g>
		<circle fill="#BCBDBF" cx="183.124" cy="173.977" r="7.354"/>
		
			<rect x="151.997" y="222.022" fill="#F1F1F1" stroke="#231F20" stroke-width="3.2" stroke-linejoin="round" stroke-miterlimit="10" width="61.276" height="7.957"/>
		
			<rect x="90.724" y="62.875" fill="#929497" stroke="#231F20" stroke-width="3.2" stroke-linejoin="round" stroke-miterlimit="10" width="184.613" height="93.102"/>
		<g opacity="0.3">
			<rect x="103.458" y="74.809" fill="#F1F1F1" width="159.942" height="24.67"/>
			<rect x="103.458" y="105.844" fill="#F1F1F1" width="105.832" height="19.892"/>
			<rect x="219.636" y="105.844" fill="#F1F1F1" width="42.969" height="19.892"/>
			<rect x="103.458" y="132.898" fill="#F1F1F1" width="159.146" height="11.141"/>
		</g>
	</g>
	<rect x="276.929" y="96.295" fill="#E7E6E6" width="11.143" height="4.775"/>
	<rect x="77.196" y="147.223" fill="#E7E6E6" width="11.938" height="3.98"/>
	<g>
		<g>
			<path fill="#D1D2D3" d="M54.119,229.755c0,2.176,1.633,4.203,3.69,4.203h53.64c2.056,0,3.946-2.027,3.946-4.203v-9.324H54.119
				V229.755z"/>
			<path fill="#D1D2D3" d="M115.394,155.188c0-2.174-1.891-3.984-3.946-3.984h-53.64c-2.057,0-3.69,1.811-3.69,3.984v9.543h61.275
				V155.188z"/>
			
				<rect x="54.119" y="164.73" fill="#BCBDBF" stroke="#231F20" stroke-width="3.2" stroke-linejoin="round" stroke-miterlimit="10" width="61.275" height="55.7"/>
		</g>
		
			<line fill="#F1F1F1" stroke="#231F20" stroke-width="3.2" stroke-linejoin="round" stroke-miterlimit="10" x1="76.401" y1="158.365" x2="85.154" y2="158.365"/>
		
			<line fill="#F1F1F1" stroke="#231F20" stroke-width="3.2" stroke-linejoin="round" stroke-miterlimit="10" x1="89.133" y1="158.365" x2="93.113" y2="158.365"/>
		<rect x="61.283" y="171.893" opacity="0.8" fill="#FFFFFF" width="46.152" height="23.076"/>
		<rect x="61.283" y="200.541" opacity="0.8" fill="#FFFFFF" width="46.152" height="13.523"/>
		
			<line fill="#F1F1F1" stroke="#231F20" stroke-width="3.2" stroke-linejoin="round" stroke-miterlimit="10" x1="67.648" y1="179.848" x2="76.401" y2="179.848"/>
		
			<line fill="#F1F1F1" stroke="#231F20" stroke-width="3.2" stroke-linejoin="round" stroke-miterlimit="10" x1="67.648" y1="206.904" x2="78.789" y2="206.904"/>
		
			<line fill="#F1F1F1" stroke="#231F20" stroke-width="3.2" stroke-linejoin="round" stroke-miterlimit="10" x1="89.929" y1="206.904" x2="101.864" y2="206.904"/>
		
			<line fill="#F1F1F1" stroke="#231F20" stroke-width="3.2" stroke-linejoin="round" stroke-miterlimit="10" x1="67.648" y1="186.215" x2="101.864" y2="186.215"/>
	</g>
	<g>
		<path fill="#D1D2D3" d="M179.787,46.164h7.287c0-13.529,13.224-22.252,13.224-22.252L179.787,0l-20.512,23.969
			c0,0,13.225,8.666,13.225,22.195H179.787z"/>
		<g>
			<radialGradient id="SVGID_1_" cx="179.0522" cy="147.6211" r="12.2148" gradientUnits="userSpaceOnUse">
				<stop  offset="0" style="stop-color:#8CBB69"/>
				<stop  offset="0.7837" style="stop-color:#6BAD44"/>
			</radialGradient>
			
				<rect x="163.933" y="139.266" fill="url(#SVGID_1_)" stroke="#231F20" stroke-width="3.2" stroke-linecap="round" stroke-linejoin="round" stroke-miterlimit="10" width="30.238" height="16.711"/>
			<polygon fill="#144B8B" points="194.171,53.324 191.784,53.324 191.784,46.164 166.322,46.164 166.322,53.324 163.933,53.324 
				163.933,132.102 194.171,132.102 			"/>
			
				<rect x="163.933" y="132.102" fill="#A7A8AC" stroke="#231F20" stroke-width="3.2" stroke-linejoin="round" stroke-miterlimit="10" width="30.238" height="7.164"/>
		</g>
		
			<line fill="none" stroke="#231F20" stroke-width="3.2" stroke-linejoin="round" stroke-miterlimit="10" x1="165.525" y1="53.324" x2="183.031" y2="53.324"/>
		
			<line fill="none" stroke="#231F20" stroke-width="3.2" stroke-linejoin="round" stroke-miterlimit="10" x1="179.85" y1="0.008" x2="179.85" y2="21.496"/>
		
			<circle fill="#929497" stroke="#231F20" stroke-width="3.2" stroke-linejoin="round" stroke-miterlimit="10" cx="179.885" cy="26.574" r="4.634"/>
	</g>
	<g>
		<g>
			<radialGradient id="SVGID_2_" cx="218.0444" cy="89.5313" r="46.7335" gradientUnits="userSpaceOnUse">
				<stop  offset="0" style="stop-color:#8CBB69"/>
				<stop  offset="0.7837" style="stop-color:#6BAD44"/>
			</radialGradient>
			<rect x="205.314" y="24.678" fill="url(#SVGID_2_)" width="25.461" height="129.707"/>
			
				<line fill="none" stroke="#231F20" stroke-width="3.2" stroke-linejoin="round" stroke-miterlimit="10" x1="219.636" y1="34.229" x2="206.109" y2="34.229"/>
			
				<line fill="none" stroke="#231F20" stroke-width="3.2" stroke-linejoin="round" stroke-miterlimit="10" x1="216.45" y1="43.773" x2="206.109" y2="43.773"/>
			
				<line fill="none" stroke="#231F20" stroke-width="3.2" stroke-linejoin="round" stroke-miterlimit="10" x1="219.636" y1="54.918" x2="206.109" y2="54.918"/>
			
				<line fill="none" stroke="#231F20" stroke-width="3.2" stroke-linejoin="round" stroke-miterlimit="10" x1="216.45" y1="66.854" x2="206.109" y2="66.854"/>
			
				<line fill="none" stroke="#231F20" stroke-width="3.2" stroke-linejoin="round" stroke-miterlimit="10" x1="219.636" y1="77.197" x2="206.109" y2="77.197"/>
			
				<line fill="none" stroke="#231F20" stroke-width="3.2" stroke-linejoin="round" stroke-miterlimit="10" x1="216.45" y1="89.93" x2="206.109" y2="89.93"/>
			
				<line fill="none" stroke="#231F20" stroke-width="3.2" stroke-linejoin="round" stroke-miterlimit="10" x1="219.636" y1="101.07" x2="206.109" y2="101.07"/>
			
				<line fill="none" stroke="#231F20" stroke-width="3.2" stroke-linejoin="round" stroke-miterlimit="10" x1="216.45" y1="112.211" x2="206.109" y2="112.211"/>
			
				<line fill="none" stroke="#231F20" stroke-width="3.2" stroke-linejoin="round" stroke-miterlimit="10" x1="219.636" y1="123.352" x2="206.109" y2="123.352"/>
			
				<line fill="none" stroke="#231F20" stroke-width="3.2" stroke-linejoin="round" stroke-miterlimit="10" x1="216.45" y1="133.695" x2="206.109" y2="133.695"/>
			
				<line fill="none" stroke="#231F20" stroke-width="3.2" stroke-linejoin="round" stroke-miterlimit="10" x1="219.636" y1="146.428" x2="206.109" y2="146.428"/>
		</g>
		
			<line fill="none" stroke="#231F20" stroke-width="3.2" stroke-linejoin="round" stroke-miterlimit="10" x1="205.314" y1="24.678" x2="205.314" y2="154.385"/>
	</g>
	<g>
		<g>
			<rect x="140.062" y="136.877" fill="#D1D2D3" width="15.912" height="3.98"/>
			<rect x="140.062" y="52.527" fill="#144B8B" width="15.912" height="84.35"/>
			
				<rect x="140.857" y="140.857" fill="#929497" stroke="#231F20" stroke-width="3.2" stroke-linejoin="round" stroke-miterlimit="10" width="14.322" height="15.119"/>
		</g>
		<polygon fill="#F1F1F1" stroke="#231F20" stroke-width="3.2" stroke-linejoin="round" stroke-miterlimit="10" points="
			148.361,37.154 141.007,52.527 155.716,52.527 		"/>
		
			<line fill="none" stroke="#231F20" stroke-width="3.2" stroke-linejoin="round" stroke-miterlimit="10" x1="147.222" y1="52.527" x2="147.222" y2="130.512"/>
	</g>
	<g>
		<path fill="#D1D2D3" d="M377.99,108.629c0-4.234-3.192-7.559-7.426-7.559H221.232c-4.235,0-7.959,3.324-7.959,7.559v109.415
			H377.99V108.629z"/>
		<path fill="#F1F1F1" stroke="#231F20" stroke-width="3.2" stroke-linejoin="round" stroke-miterlimit="10" d="M201.333,218.044
			v7.574c0,4.23,3.727,7.543,8.601,7.543h171.926c4.877,0,8.861-3.313,8.861-7.543v-7.574H201.333z"/>
		<radialGradient id="SVGID_3_" cx="296.0278" cy="158.3642" r="60.3956" gradientUnits="userSpaceOnUse">
			<stop  offset="0" style="stop-color:#8CBB69"/>
			<stop  offset="0.7837" style="stop-color:#6BAD44"/>
		</radialGradient>
		<rect x="225.206" y="110.619" fill="url(#SVGID_3_)" width="141.643" height="95.49"/>
		
			<line fill="none" stroke="#231F20" stroke-width="3.2" stroke-linejoin="round" stroke-miterlimit="10" x1="286.48" y1="225.999" x2="304.78" y2="225.999"/>
		<g opacity="0.3">
			<rect x="234.755" y="119.371" fill="#FFFFFF" width="124.135" height="25.465"/>
			<rect x="234.755" y="152.793" fill="#FFFFFF" width="81.961" height="22.283"/>
			<rect x="324.675" y="152.793" fill="#FFFFFF" width="33.42" height="22.283"/>
			<rect x="234.755" y="182.236" fill="#FFFFFF" width="123.34" height="12.733"/>
		</g>
	</g>
	<g>
		
			<rect x="294.437" y="73.219" fill="#FFFFFF" stroke="#231F20" stroke-width="3.2" stroke-linejoin="round" stroke-miterlimit="10" width="62.863" height="49.336"/>
		<rect x="301.597" y="77.994" fill="#144B8B" width="49.336" height="38.195"/>
		<polyline fill="none" stroke="#231F20" stroke-width="3.2" stroke-linejoin="round" stroke-miterlimit="10" points="
			299.392,103.701 320.704,92.633 341.545,104.645 		"/>
		<polyline fill="none" stroke="#231F20" stroke-width="3.2" stroke-linejoin="round" stroke-miterlimit="10" points="
			332.633,99.51 340.369,92.633 350.965,99.51 		"/>
		<path fill="#FFFFFF" d="M334.718,85.92c0,2.668-2.158,4.83-4.828,4.83c-2.666,0-4.828-2.162-4.828-4.83
			c0-2.664,2.162-4.826,4.828-4.826C332.56,81.094,334.718,83.256,334.718,85.92z"/>
	</g>
	
		<line fill="none" stroke="#231F20" stroke-width="3.2" stroke-linejoin="round" stroke-miterlimit="10" x1="241.919" y1="188.602" x2="250.669" y2="188.602"/>
	
		<line fill="none" stroke="#231F20" stroke-width="3.2" stroke-linejoin="round" stroke-miterlimit="10" x1="262.605" y1="188.602" x2="269.766" y2="188.602"/>
	
		<line fill="none" stroke="#231F20" stroke-width="3.2" stroke-linejoin="round" stroke-miterlimit="10" x1="281.706" y1="188.602" x2="290.456" y2="188.602"/>
	
		<line fill="none" stroke="#231F20" stroke-width="3.2" stroke-linejoin="round" stroke-miterlimit="10" x1="301.597" y1="188.602" x2="310.35" y2="188.602"/>
	
		<line fill="none" stroke="#231F20" stroke-width="3.2" stroke-linejoin="round" stroke-miterlimit="10" x1="281.706" y1="139.266" x2="285.681" y2="139.266"/>
	
		<line fill="none" stroke="#231F20" stroke-width="3.2" stroke-linejoin="round" stroke-miterlimit="10" x1="292.048" y1="139.266" x2="296.826" y2="139.266"/>
	
		<line fill="none" stroke="#231F20" stroke-width="3.2" stroke-linejoin="round" stroke-miterlimit="10" x1="303.189" y1="139.266" x2="307.169" y2="139.266"/>
	
		<line fill="none" stroke="#231F20" stroke-width="3.2" stroke-linejoin="round" stroke-miterlimit="10" x1="321.492" y1="188.602" x2="329.448" y2="188.602"/>
	
		<line fill="none" stroke="#231F20" stroke-width="3.2" stroke-linejoin="round" stroke-miterlimit="10" x1="340.589" y1="188.602" x2="349.343" y2="188.602"/>
	<polyline fill="none" stroke="#231F20" stroke-width="3.2" stroke-linejoin="round" stroke-miterlimit="10" points="
		234.755,152.793 234.755,175.076 316.716,175.076 	"/>
	<g>
		
			<line fill="none" stroke="#231F20" stroke-width="3.2" stroke-linejoin="round" stroke-miterlimit="10" x1="357.3" y1="171.893" x2="337.406" y2="171.893"/>
		
			<line fill="none" stroke="#231F20" stroke-width="3.2" stroke-linejoin="round" stroke-miterlimit="10" x1="332.633" y1="171.893" x2="325.47" y2="171.893"/>
		
			<line fill="none" stroke="#231F20" stroke-width="3.2" stroke-linejoin="round" stroke-miterlimit="10" x1="357.3" y1="164.73" x2="337.406" y2="164.73"/>
		
			<line fill="none" stroke="#231F20" stroke-width="3.2" stroke-linejoin="round" stroke-miterlimit="10" x1="332.633" y1="164.73" x2="325.47" y2="164.73"/>
		
			<line fill="none" stroke="#231F20" stroke-width="3.2" stroke-linejoin="round" stroke-miterlimit="10" x1="357.3" y1="154.385" x2="337.406" y2="154.385"/>
		
			<line fill="none" stroke="#231F20" stroke-width="3.2" stroke-linejoin="round" stroke-miterlimit="10" x1="332.633" y1="154.385" x2="325.47" y2="154.385"/>
	</g>
	<g>
		<radialGradient id="SVGID_4_" cx="84.7572" cy="102.7344" r="32.1124" gradientUnits="userSpaceOnUse">
			<stop  offset="0" style="stop-color:#8CBB69"/>
			<stop  offset="0.7837" style="stop-color:#6BAD44"/>
		</radialGradient>
		<polygon fill="url(#SVGID_4_)" points="118.576,72.424 50.939,72.424 50.939,116.189 86.746,116.189 86.746,133.045 
			103.271,116.189 118.576,116.189 		"/>
		<polyline fill="none" stroke="#231F20" stroke-width="3.2" stroke-linejoin="round" stroke-miterlimit="10" points="71.99,85.902 
			64.386,93.51 72.206,101.33 		"/>
		<polyline fill="none" stroke="#231F20" stroke-width="3.2" stroke-linejoin="round" stroke-miterlimit="10" points="
			98.193,101.711 106.179,93.725 98.193,85.738 		"/>
		
			<line fill="none" stroke="#231F20" stroke-width="3.2" stroke-linejoin="round" stroke-miterlimit="10" x1="79.605" y1="107.514" x2="91.96" y2="79.719"/>
	</g>
	
		<line fill="none" stroke="#231F20" stroke-width="3.2" stroke-linejoin="round" stroke-miterlimit="10" x1="74.81" y1="49.346" x2="47.753" y2="49.346"/>
	
		<line fill="none" stroke="#231F20" stroke-width="3.2" stroke-linejoin="round" stroke-miterlimit="10" x1="71.628" y1="35.82" x2="34.226" y2="35.82"/>
	
		<line fill="none" stroke="#231F20" stroke-width="3.2" stroke-linejoin="round" stroke-miterlimit="10" x1="73.218" y1="20.699" x2="58.098" y2="20.699"/>
	<g>
		<polygon fill="#E7E6E6" points="401.861,143.244 344.567,143.244 344.567,182.236 374.011,182.236 374.011,196.486 
			388.726,182.236 401.861,182.236 		"/>
		
			<line fill="none" stroke="#231F20" stroke-width="3.2" stroke-linejoin="round" stroke-miterlimit="10" x1="351.73" y1="151.203" x2="362.871" y2="151.203"/>
		
			<line fill="none" stroke="#231F20" stroke-width="3.2" stroke-linejoin="round" stroke-miterlimit="10" x1="351.73" y1="159.955" x2="395.499" y2="159.955"/>
		
			<line fill="none" stroke="#231F20" stroke-width="3.2" stroke-linejoin="round" stroke-miterlimit="10" x1="351.73" y1="168.709" x2="395.499" y2="168.709"/>
		
			<line fill="none" stroke="#231F20" stroke-width="3.2" stroke-linejoin="round" stroke-miterlimit="10" x1="351.73" y1="175.869" x2="361.28" y2="175.869"/>
		
			<line fill="none" stroke="#231F20" stroke-width="3.2" stroke-linejoin="round" stroke-miterlimit="10" x1="367.646" y1="175.869" x2="379.581" y2="175.869"/>
		
			<line fill="none" stroke="#231F20" stroke-width="3.2" stroke-linejoin="round" stroke-miterlimit="10" x1="383.56" y1="175.869" x2="395.499" y2="175.869"/>
		
			<line fill="none" stroke="#231F20" stroke-width="3.2" stroke-linejoin="round" stroke-miterlimit="10" x1="368.442" y1="151.203" x2="395.499" y2="151.203"/>
	</g>
	<g>
		<polygon fill="#E7E6E6" points="19.109,92.318 58.098,92.318 58.098,66.854 37.41,66.854 37.41,57.445 28.003,66.854 
			19.109,66.854 		"/>
		
			<line fill="none" stroke="#231F20" stroke-width="3.2" stroke-linejoin="round" stroke-miterlimit="10" x1="23.881" y1="78.787" x2="30.249" y2="78.787"/>
		
			<line fill="none" stroke="#231F20" stroke-width="3.2" stroke-linejoin="round" stroke-miterlimit="10" x1="35.818" y1="78.787" x2="41.39" y2="78.787"/>
		
			<line fill="none" stroke="#231F20" stroke-width="3.2" stroke-linejoin="round" stroke-miterlimit="10" x1="46.958" y1="78.787" x2="52.529" y2="78.787"/>
	</g>
</g>
</svg>