<!-- Generator: Adobe Illustrator 17.0.0, SVG Export Plug-In  -->
<svg version="1.1"
	 xmlns="http://www.w3.org/2000/svg" xmlns:xlink="http://www.w3.org/1999/xlink" xmlns:a="http://ns.adobe.com/AdobeSVGViewerExtensions/3.0/"
	 x="0px" y="0px" width="461.056px" height="57.479px" viewBox="0 0 461.056 57.479" enable-background="new 0 0 461.056 57.479"
	 xml:space="preserve">
<defs>
</defs>
<g>
	<path fill-rule="evenodd" clip-rule="evenodd" fill="#144B8B" stroke="#000000" stroke-width="0.5" stroke-miterlimit="10" d="
		M26.49,11.492L26.49,11.492c-9.371,0-16.861,7.124-16.861,16.114c0,5.632,2.99,10.484,6.742,13.485
		c1.112,0.774,2.245,1.52,3.356,2.271h-0.749v11.229h3.384c0.383,1.504,2.242,2.638,4.129,2.638c1.501,0,3.358-1.134,3.743-2.638
		h3.357V43.362H32.48c1.503-0.75,2.255-1.497,3.385-2.271c4.109-3.001,6.74-7.854,6.74-13.485
		C42.605,18.616,35.09,11.492,26.49,11.492L26.49,11.492z"/>
	
		<polygon fill-rule="evenodd" clip-rule="evenodd" fill="#144B8B" stroke="#000000" stroke-width="0.5" stroke-miterlimit="10" points="
		48.214,12.235 48.214,12.235 41.11,16.368 42.226,18.232 49.346,14.122 	"/>
	
		<polygon fill-rule="evenodd" clip-rule="evenodd" fill="#144B8B" stroke="#000000" stroke-width="0.5" stroke-miterlimit="10" points="
		38.475,3.247 38.475,3.247 34.341,10.351 35.865,11.104 39.975,4.365 	"/>
	
		<polygon fill-rule="evenodd" clip-rule="evenodd" fill="#144B8B" stroke="#000000" stroke-width="0.5" stroke-miterlimit="10" points="
		0.25,27.244 0.25,27.244 8.49,27.244 8.49,25.356 0.25,25.356 	"/>
	
		<polygon fill-rule="evenodd" clip-rule="evenodd" fill="#144B8B" stroke="#000000" stroke-width="0.5" stroke-miterlimit="10" points="
		2.858,14.122 2.858,14.122 10.373,18.232 11.123,16.368 4.359,12.235 	"/>
	
		<polygon fill-rule="evenodd" clip-rule="evenodd" fill="#144B8B" stroke="#000000" stroke-width="0.5" stroke-miterlimit="10" points="
		12.619,4.365 12.619,4.365 16.371,11.104 18.227,10.351 14.121,3.247 	"/>
	
		<polygon fill-rule="evenodd" clip-rule="evenodd" fill="#144B8B" stroke="#000000" stroke-width="0.5" stroke-miterlimit="10" points="
		24.991,0.25 24.991,0.25 24.991,8.1 27.246,8.1 27.246,0.25 	"/>
	<path fill-rule="evenodd" clip-rule="evenodd" fill="#FFFFFF" stroke="#000000" stroke-width="0.5" stroke-miterlimit="10" d="
		M26.49,34.73L26.49,34.73c-1.499,0-2.629,1.113-2.629,2.247c0,1.113,1.13,2.25,2.629,2.25c1.109,0,1.863-1.137,1.863-2.25
		C28.354,35.843,27.6,34.73,26.49,34.73L26.49,34.73z"/>
	<path fill-rule="evenodd" clip-rule="evenodd" fill="#FFFFFF" stroke="#000000" stroke-width="0.5" stroke-miterlimit="10" d="
		M26.49,18.232L26.49,18.232c-1.887,0-2.992,3.384-2.992,7.873c0,4.49,1.105,7.881,2.992,7.881c1.501,0,2.61-3.392,2.61-7.881
		C29.101,21.616,27.991,18.232,26.49,18.232L26.49,18.232z"/>
	
		<polygon fill-rule="evenodd" clip-rule="evenodd" fill="#144B8B" stroke="#000000" stroke-width="0.5" stroke-miterlimit="10" points="
		52.345,25.356 52.345,25.356 44.104,25.356 44.104,27.244 52.345,27.244 	"/>
	
		<polygon fill-rule="evenodd" clip-rule="evenodd" fill="#FFFFFF" stroke="#000000" stroke-width="0.5" stroke-miterlimit="10" points="
		20.471,45.608 20.471,45.608 20.471,47.852 32.094,47.852 32.094,45.608 	"/>
	
		<polygon fill-rule="evenodd" clip-rule="evenodd" fill="#FFFFFF" stroke="#000000" stroke-width="0.5" stroke-miterlimit="10" points="
		20.471,49.711 20.471,49.711 20.471,51.958 32.094,51.958 32.094,49.711 	"/>
</g>
<g>
	<path fill="#6BAD44" d="M60.957,36.61V19.105h1.575V36.61H60.957z"/>
	<path fill="#6BAD44" d="M75.556,36.61l-7.3-12.744l-0.146-0.757V36.61h-1.575V19.105h0.818l7.3,12.756l0.159,0.745V19.105h1.575
		V36.61H75.556z"/>
	<path fill="#6BAD44" d="M84.638,20.606V36.61h-1.575V20.606h-4.175v-1.501h9.924v1.501H84.638z"/>
	<path fill="#6BAD44" d="M99.543,36.61l-4.749-7.471h-2.161v7.471h-1.575V19.105h5.554c0.594,0,1.151,0.112,1.672,0.336
		c0.521,0.224,0.977,0.531,1.367,0.921s0.698,0.848,0.921,1.374c0.224,0.524,0.336,1.084,0.336,1.678v1.416
		c0,0.594-0.112,1.154-0.336,1.678c-0.224,0.525-0.531,0.983-0.921,1.374s-0.847,0.698-1.367,0.921
		c-0.521,0.224-1.079,0.336-1.672,0.336l4.749,7.471H99.543z M99.335,23.414c0-0.391-0.073-0.755-0.22-1.092
		c-0.146-0.338-0.346-0.635-0.598-0.892c-0.252-0.256-0.547-0.458-0.885-0.604c-0.338-0.146-0.702-0.22-1.093-0.22h-3.906v7.031
		h3.906c0.391,0,0.755-0.073,1.093-0.22c0.337-0.146,0.632-0.348,0.885-0.604c0.252-0.257,0.452-0.554,0.598-0.892
		c0.146-0.337,0.22-0.702,0.22-1.092V23.414z"/>
	<path fill="#6BAD44" d="M113.624,34.229c-0.224,0.521-0.531,0.977-0.921,1.367s-0.847,0.698-1.367,0.921
		c-0.521,0.224-1.079,0.336-1.672,0.336h-1.245c-0.594,0-1.153-0.112-1.679-0.336c-0.524-0.224-0.982-0.531-1.373-0.921
		s-0.698-0.846-0.922-1.367c-0.224-0.521-0.335-1.078-0.335-1.672v-9.399c0-0.594,0.112-1.151,0.335-1.672
		c0.224-0.521,0.531-0.977,0.922-1.367s0.849-0.698,1.373-0.921c0.525-0.224,1.084-0.336,1.679-0.336h1.245
		c0.594,0,1.151,0.112,1.672,0.336c0.521,0.224,0.977,0.531,1.367,0.921s0.698,0.847,0.921,1.367
		c0.224,0.521,0.336,1.079,0.336,1.672v9.399C113.96,33.151,113.848,33.709,113.624,34.229z M112.385,23.158
		c0-0.391-0.073-0.755-0.22-1.093c-0.146-0.337-0.346-0.632-0.598-0.885c-0.252-0.252-0.547-0.452-0.885-0.598
		c-0.338-0.146-0.702-0.22-1.093-0.22h-1.099c-0.391,0-0.755,0.073-1.093,0.22c-0.337,0.146-0.635,0.346-0.891,0.598
		c-0.257,0.252-0.458,0.547-0.604,0.885c-0.146,0.338-0.22,0.702-0.22,1.093v9.399c0,0.391,0.073,0.755,0.22,1.093
		c0.146,0.337,0.348,0.635,0.604,0.891c0.256,0.257,0.553,0.458,0.891,0.604c0.338,0.146,0.702,0.22,1.093,0.22h1.099
		c0.391,0,0.755-0.073,1.093-0.22c0.337-0.146,0.632-0.348,0.885-0.604c0.252-0.256,0.452-0.553,0.598-0.891
		c0.146-0.338,0.22-0.702,0.22-1.093V23.158z"/>
	<path fill="#6BAD44" d="M127.235,33.985c-0.224,0.521-0.531,0.977-0.922,1.367s-0.849,0.698-1.373,0.921
		c-0.525,0.224-1.085,0.336-1.679,0.336h-5.542V19.105h5.542c0.594,0,1.153,0.112,1.679,0.336c0.524,0.224,0.982,0.531,1.373,0.921
		s0.698,0.848,0.922,1.374c0.224,0.524,0.335,1.084,0.335,1.678v8.899C127.57,32.907,127.459,33.465,127.235,33.985z
		 M125.996,23.414c0-0.391-0.073-0.755-0.22-1.092c-0.146-0.338-0.348-0.635-0.604-0.892c-0.256-0.256-0.553-0.458-0.891-0.604
		c-0.338-0.146-0.702-0.22-1.093-0.22h-3.894v14.502h3.894c0.391,0,0.755-0.073,1.093-0.22c0.337-0.146,0.635-0.346,0.891-0.598
		c0.257-0.252,0.458-0.547,0.604-0.885c0.146-0.338,0.22-0.702,0.22-1.093V23.414z"/>
	<path fill="#6BAD44" d="M140.577,34.229c-0.224,0.521-0.531,0.977-0.921,1.367s-0.847,0.698-1.367,0.921
		c-0.521,0.224-1.079,0.336-1.672,0.336h-1.245c-0.594,0-1.153-0.112-1.679-0.336c-0.524-0.224-0.982-0.531-1.373-0.921
		s-0.698-0.846-0.922-1.367c-0.224-0.521-0.335-1.078-0.335-1.672V19.105h1.575v13.452c0,0.391,0.073,0.755,0.22,1.093
		c0.146,0.337,0.348,0.635,0.604,0.891c0.256,0.257,0.553,0.458,0.891,0.604c0.338,0.146,0.702,0.22,1.093,0.22h1.099
		c0.391,0,0.755-0.073,1.093-0.22c0.337-0.146,0.632-0.348,0.885-0.604c0.252-0.256,0.452-0.553,0.598-0.891
		c0.146-0.338,0.22-0.702,0.22-1.093V19.105h1.575v13.452C140.913,33.151,140.801,33.709,140.577,34.229z"/>
	<path fill="#6BAD44" d="M153.931,34.229c-0.224,0.521-0.531,0.977-0.921,1.367s-0.847,0.698-1.367,0.921
		c-0.521,0.224-1.079,0.336-1.672,0.336h-1.245c-0.594,0-1.153-0.112-1.679-0.336c-0.524-0.224-0.982-0.531-1.373-0.921
		s-0.698-0.846-0.922-1.367c-0.224-0.521-0.335-1.078-0.335-1.672v-9.399c0-0.594,0.112-1.151,0.335-1.672
		c0.224-0.521,0.531-0.977,0.922-1.367s0.849-0.698,1.373-0.921c0.525-0.224,1.084-0.336,1.679-0.336h1.245
		c0.594,0,1.151,0.112,1.672,0.336c0.521,0.224,0.977,0.531,1.367,0.921s0.698,0.847,0.921,1.367
		c0.224,0.521,0.336,1.079,0.336,1.672v0.708l-1.575,0.244v-0.952c0-0.391-0.073-0.755-0.22-1.093
		c-0.146-0.337-0.346-0.632-0.598-0.885c-0.252-0.252-0.547-0.452-0.885-0.598c-0.338-0.146-0.702-0.22-1.093-0.22h-1.099
		c-0.391,0-0.755,0.073-1.093,0.22c-0.337,0.146-0.635,0.346-0.891,0.598c-0.257,0.252-0.458,0.547-0.604,0.885
		c-0.146,0.338-0.22,0.702-0.22,1.093v9.399c0,0.391,0.073,0.755,0.22,1.093c0.146,0.337,0.348,0.635,0.604,0.891
		c0.256,0.257,0.553,0.458,0.891,0.604c0.338,0.146,0.702,0.22,1.093,0.22h1.099c0.391,0,0.755-0.073,1.093-0.22
		c0.337-0.146,0.632-0.348,0.885-0.604c0.252-0.256,0.452-0.553,0.598-0.891c0.146-0.338,0.22-0.702,0.22-1.093v-0.952l1.575,0.256
		v0.696C154.267,33.151,154.155,33.709,153.931,34.229z"/>
	<path fill="#6BAD44" d="M167.029,34.229c-0.224,0.521-0.531,0.977-0.921,1.367s-0.847,0.698-1.367,0.921
		c-0.521,0.224-1.079,0.336-1.672,0.336h-1.245c-0.594,0-1.153-0.112-1.679-0.336c-0.524-0.224-0.982-0.531-1.373-0.921
		s-0.698-0.846-0.922-1.367c-0.224-0.521-0.335-1.078-0.335-1.672v-9.399c0-0.594,0.112-1.151,0.335-1.672
		c0.224-0.521,0.531-0.977,0.922-1.367s0.849-0.698,1.373-0.921c0.525-0.224,1.084-0.336,1.679-0.336h1.245
		c0.594,0,1.151,0.112,1.672,0.336c0.521,0.224,0.977,0.531,1.367,0.921s0.698,0.847,0.921,1.367
		c0.224,0.521,0.336,1.079,0.336,1.672v0.708l-1.575,0.244v-0.952c0-0.391-0.073-0.755-0.22-1.093
		c-0.146-0.337-0.346-0.632-0.598-0.885c-0.252-0.252-0.547-0.452-0.885-0.598c-0.338-0.146-0.702-0.22-1.093-0.22h-1.099
		c-0.391,0-0.755,0.073-1.093,0.22c-0.337,0.146-0.635,0.346-0.891,0.598c-0.257,0.252-0.458,0.547-0.604,0.885
		c-0.146,0.338-0.22,0.702-0.22,1.093v9.399c0,0.391,0.073,0.755,0.22,1.093c0.146,0.337,0.348,0.635,0.604,0.891
		c0.256,0.257,0.553,0.458,0.891,0.604c0.338,0.146,0.702,0.22,1.093,0.22h1.099c0.391,0,0.755-0.073,1.093-0.22
		c0.337-0.146,0.632-0.348,0.885-0.604c0.252-0.256,0.452-0.553,0.598-0.891c0.146-0.338,0.22-0.702,0.22-1.093v-0.952l1.575,0.256
		v0.696C167.365,33.151,167.253,33.709,167.029,34.229z"/>
	<path fill="#6BAD44" d="M170.869,36.61V19.105h1.575V36.61H170.869z"/>
	<path fill="#6BAD44" d="M185.706,34.229c-0.224,0.521-0.531,0.977-0.921,1.367s-0.847,0.698-1.367,0.921
		c-0.521,0.224-1.079,0.336-1.672,0.336H180.5c-0.594,0-1.153-0.112-1.679-0.336c-0.524-0.224-0.982-0.531-1.373-0.921
		s-0.698-0.846-0.922-1.367c-0.224-0.521-0.335-1.078-0.335-1.672v-9.399c0-0.594,0.112-1.151,0.335-1.672
		c0.224-0.521,0.531-0.977,0.922-1.367s0.849-0.698,1.373-0.921c0.525-0.224,1.084-0.336,1.679-0.336h1.245
		c0.594,0,1.151,0.112,1.672,0.336c0.521,0.224,0.977,0.531,1.367,0.921s0.698,0.847,0.921,1.367
		c0.224,0.521,0.336,1.079,0.336,1.672v9.399C186.042,33.151,185.93,33.709,185.706,34.229z M184.467,23.158
		c0-0.391-0.073-0.755-0.22-1.093c-0.146-0.337-0.346-0.632-0.598-0.885c-0.252-0.252-0.547-0.452-0.885-0.598
		c-0.338-0.146-0.702-0.22-1.093-0.22h-1.099c-0.391,0-0.755,0.073-1.093,0.22c-0.337,0.146-0.635,0.346-0.891,0.598
		c-0.257,0.252-0.458,0.547-0.604,0.885c-0.146,0.338-0.22,0.702-0.22,1.093v9.399c0,0.391,0.073,0.755,0.22,1.093
		c0.146,0.337,0.348,0.635,0.604,0.891c0.256,0.257,0.553,0.458,0.891,0.604c0.338,0.146,0.702,0.22,1.093,0.22h1.099
		c0.391,0,0.755-0.073,1.093-0.22c0.337-0.146,0.632-0.348,0.885-0.604c0.252-0.256,0.452-0.553,0.598-0.891
		c0.146-0.338,0.22-0.702,0.22-1.093V23.158z M180.744,17.115h-1.123l2.002-3.003h2.502L180.744,17.115z"/>
	<path fill="#6BAD44" d="M198.823,36.61l-7.3-12.744l-0.146-0.757V36.61h-1.575V19.105h0.818l7.3,12.756l0.159,0.745V19.105h1.575
		V36.61H198.823z"/>
</g>
<rect x="58.29" y="47.543" fill="#144B8B" width="396.525" height="1.872"/>
<path fill="#144B8B" d="M461.056,48.479c0,2.674-2.164,4.838-4.838,4.838c-2.672,0-4.834-2.164-4.834-4.838
	c0-2.674,2.162-4.837,4.834-4.837C458.892,43.642,461.056,45.805,461.056,48.479"/>
</svg>