<?xml version="1.0" encoding="utf-8"?>
<!-- Generator: Adobe Illustrator 17.0.0, SVG Export Plug-In . SVG Version: 6.00 Build 0)  -->
<!DOCTYPE svg PUBLIC "-//W3C//DTD SVG 1.1//EN" "http://www.w3.org/Graphics/SVG/1.1/DTD/svg11.dtd" [
	<!ENTITY ns_extend "http://ns.adobe.com/Extensibility/1.0/">
	<!ENTITY ns_ai "http://ns.adobe.com/AdobeIllustrator/10.0/">
	<!ENTITY ns_graphs "http://ns.adobe.com/Graphs/1.0/">
	<!ENTITY ns_vars "http://ns.adobe.com/Variables/1.0/">
	<!ENTITY ns_imrep "http://ns.adobe.com/ImageReplacement/1.0/">
	<!ENTITY ns_sfw "http://ns.adobe.com/SaveForWeb/1.0/">
	<!ENTITY ns_custom "http://ns.adobe.com/GenericCustomNamespace/1.0/">
	<!ENTITY ns_adobe_xpath "http://ns.adobe.com/XPath/1.0/">
]>
<svg version="1.1" id="Capa_1" xmlns:x="&ns_extend;" xmlns:i="&ns_ai;" xmlns:graph="&ns_graphs;"
	 xmlns="http://www.w3.org/2000/svg" xmlns:xlink="http://www.w3.org/1999/xlink" x="0px" y="0px" width="1280px" height="600px"
	 viewBox="0 0 1280 600" enable-background="new 0 0 1280 600" xml:space="preserve">
<metadata><?xpacket begin="﻿" id="W5M0MpCehiHzreSzNTczkc9d"?>
<x:xmpmeta xmlns:x="adobe:ns:meta/" x:xmptk="Adobe XMP Core 5.5-c014 79.151739, 2013/04/03-12:12:15        ">
   <rdf:RDF xmlns:rdf="http://www.w3.org/1999/02/22-rdf-syntax-ns#">
      <rdf:Description rdf:about=""
            xmlns:dc="http://purl.org/dc/elements/1.1/"
            xmlns:xmp="http://ns.adobe.com/xap/1.0/"
            xmlns:xmpGImg="http://ns.adobe.com/xap/1.0/g/img/"
            xmlns:xmpMM="http://ns.adobe.com/xap/1.0/mm/"
            xmlns:stRef="http://ns.adobe.com/xap/1.0/sType/ResourceRef#"
            xmlns:stEvt="http://ns.adobe.com/xap/1.0/sType/ResourceEvent#"
            xmlns:illustrator="http://ns.adobe.com/illustrator/1.0/"
            xmlns:xmpTPg="http://ns.adobe.com/xap/1.0/t/pg/"
            xmlns:stDim="http://ns.adobe.com/xap/1.0/sType/Dimensions#"
            xmlns:xmpG="http://ns.adobe.com/xap/1.0/g/"
            xmlns:pdf="http://ns.adobe.com/pdf/1.3/">
         <dc:format>image/svg+xml</dc:format>
         <dc:title>
            <rdf:Alt>
               <rdf:li xml:lang="x-default">Imprimir</rdf:li>
            </rdf:Alt>
         </dc:title>
         <xmp:MetadataDate>2017-06-07T16:18:18-05:00</xmp:MetadataDate>
         <xmp:ModifyDate>2017-06-07T16:18:18-05:00</xmp:ModifyDate>
         <xmp:CreateDate>2017-06-07T16:18:17-05:00</xmp:CreateDate>
         <xmp:CreatorTool>Adobe Illustrator CC (Windows)</xmp:CreatorTool>
         <xmp:Thumbnails>
            <rdf:Alt>
               <rdf:li rdf:parseType="Resource">
                  <xmpGImg:width>256</xmpGImg:width>
                  <xmpGImg:height>120</xmpGImg:height>
                  <xmpGImg:format>JPEG</xmpGImg:format>
                  <xmpGImg:image>/9j/4AAQSkZJRgABAgEASABIAAD/7QAsUGhvdG9zaG9wIDMuMAA4QklNA+0AAAAAABAASAAAAAEA&#xA;AQBIAAAAAQAB/+4ADkFkb2JlAGTAAAAAAf/bAIQABgQEBAUEBgUFBgkGBQYJCwgGBggLDAoKCwoK&#xA;DBAMDAwMDAwQDA4PEA8ODBMTFBQTExwbGxscHx8fHx8fHx8fHwEHBwcNDA0YEBAYGhURFRofHx8f&#xA;Hx8fHx8fHx8fHx8fHx8fHx8fHx8fHx8fHx8fHx8fHx8fHx8fHx8fHx8fHx8f/8AAEQgAeAEAAwER&#xA;AAIRAQMRAf/EAaIAAAAHAQEBAQEAAAAAAAAAAAQFAwIGAQAHCAkKCwEAAgIDAQEBAQEAAAAAAAAA&#xA;AQACAwQFBgcICQoLEAACAQMDAgQCBgcDBAIGAnMBAgMRBAAFIRIxQVEGE2EicYEUMpGhBxWxQiPB&#xA;UtHhMxZi8CRygvElQzRTkqKyY3PCNUQnk6OzNhdUZHTD0uIIJoMJChgZhJRFRqS0VtNVKBry4/PE&#xA;1OT0ZXWFlaW1xdXl9WZ2hpamtsbW5vY3R1dnd4eXp7fH1+f3OEhYaHiImKi4yNjo+Ck5SVlpeYmZ&#xA;qbnJ2en5KjpKWmp6ipqqusra6voRAAICAQIDBQUEBQYECAMDbQEAAhEDBCESMUEFURNhIgZxgZEy&#xA;obHwFMHR4SNCFVJicvEzJDRDghaSUyWiY7LCB3PSNeJEgxdUkwgJChgZJjZFGidkdFU38qOzwygp&#xA;0+PzhJSktMTU5PRldYWVpbXF1eX1RlZmdoaWprbG1ub2R1dnd4eXp7fH1+f3OEhYaHiImKi4yNjo&#xA;+DlJWWl5iZmpucnZ6fkqOkpaanqKmqq6ytrq+v/aAAwDAQACEQMRAD8AMs5B0bsVXN8I49z9r+mB&#xA;VuFVx+Ja9x1+XjgVbhVwBJoBU4qqgIUoxq69APD54EqZckUGw8BhQ1irsVdiq77f+v8Ar/twKtwq&#xA;7FXYq2qkmn3nFXM1dh9kdMVaxV2KuxVsO1KHceB3xVv4D4qfvGKrhCwX1DunanfAmljMSan6BhQ2&#xA;/wBqngAPuGKrcVbCsegJ+WKt8D3IH04q6id2r8h/WmKuHGtApJ9z/TAq4sFFABy+VQPvxSp4ULl2&#xA;HI9ug98VW4q7FW05cvhFfH5YqvkSNG2PMHcU6ffgSsLkinQeAwoaBINR1GKrmA+0Oh7eBxVbirqH&#xA;FW6Yq7jiq+nPY/a7HxxSt4kbHFXBCTQDfFVzAAcR/sj44qt44q1xxV3HFDqYq1Q4qqLC1OTKePb3&#xA;wJpo8q1LAU6UPT7q4oXxmNnAkPIE0rSn44pdL6JkPChr/NWn0UxVYS69gB2IA/XihaWY9ST88KtY&#xA;q2FJNBirZYKKL9Lf0wKtwq2oJNMVcxqdug2GKuCk9BirdEHX4j4DpgVosTt0HgOmFW13HE9+h98V&#xA;W0OKt8cVXoB0P2T1/rilxQg0PXCruOKt8cVdxwpb44qqIhlPECr9j4/PFNNvC8Iowozd/AYrSnwx&#xA;Q36L9xT57frxWnemO7D6N8VprjGPE/cP64Fd8PZR9NTjStjkByOw7AbV+7FVjszn4j06DwxpCzji&#xA;raL8VfCp+4VwKspihsMw6GmKt8lP2h9I2xVtY+W4bbvXbAlpjT4QOI8D1PzxQtwq7FV/EhaAbndj&#xA;4DAlr4B/lH8MUNFidu3gOmFWsVbpirYGKVQjkvLuPtf1wq0BirYXCleF5L/lL+IxS1xxQuCE9BX5&#xA;YU0u9Ju+3zIGK0701HVvuB/jTFaVYWSI+oASegB2rjTIbL5p1lIAHGnQmhxpSbUD6gJBJHiOmNIW&#xA;8cUNccVdxxVsIAOTdOw8cVpa1WNTgVbxxQ0VxVtV2Y+38cCqZGKGiMCthNuTbDt4nFVrMT7AdBih&#xA;wdgKdR4HfFW/gPbifbcYq7ge3xD2xVpnZjufoxVrFXYq2BilcBhVcBilfGr1qqkjvhVUe3KEVICk&#xA;VBJ7fRimmgid2r8h/WmFVylVYELUjxP9MUr3O/JVAU9qDY4qtJY9SSPDCruOKrljB3P2R1/pimnN&#xA;VjU/QMKtccVXgBhxbbwb+uKrShBoRvitNccUNhABybp2HjgTS1qsanFC0rirRGBC0jFW6fuz7n9X&#xA;+3gVTIxQ3wC7t17L/XAqxqk1PXFC0jAq0jFDsVXJ1J8Af6YqtxVcI3PY08cVXBPFgPx/VXFLYEY7&#xA;k/RTCq4FR0X7z/SmKVwdu1B8gBhS6rHqSfnhVUQVHA/7H54paphVcFJNBufDFVUBUVlb4iR0HQHx&#xA;wpWgYquVCTT7zhTTbUNAPsjp/XFXccVdxxV3HGlXAAji30N4f2Yq4wlN3FB2HjitLGqTU4qtIwIc&#xA;qVPt1J9sVbkZZGrQIe1OmBSpMhBoRTFDmU8VA3Jqfv2/hgVogJ03fx7DFCkfHAhaRirRGBC0jAq0&#xA;4oXDZCfEgfxxV3N+xp8tv1Yq174quGFK4YpXDCrYwpXDFVwwpV1iMiGTpx+2T+vFNNVAFF28T3OF&#xA;XAYquAqaDCleaKOI/wBkf4YUtAYqu44q7jhVvjirYQAcm6dh44E04uX2c/6p8MVU2QqaHFC0jAhz&#xA;DivHud2/gMVUyMCG0qfhO69/b3wKqXCooAiNaD4j3pgUoU4sVpxVacCFpwKtOKFpwIbbZVHzP3/7&#xA;WKtcT4Yq3TFLYwquGKVwwquGFK4YqqBQv2+v8v8AXClcJGrv06ce1MU22y0O24O4PthVsYUqg+Bf&#xA;8o/gMUtDCq4YVXDFK4UwquCqBybp2HjilYxJNT1wIWnFDgwpxbp2PhgVrgV+Jh8I6eBOBVIkkknq&#xA;euKGgtd+ijqcCGmavwrsP1/PFVsh/eEg9DscCC0Srdfhbx7YFU2Ug0OKFhwIWnFWjgQtOBXSfbI8&#xA;Nvu2xQXeq/ff5/1wKuD1/aZT7mowpX1lpsxYexrilwkkH7R+/CrYkf8AmP34VXq0jHr06k4pVVnZ&#xA;NkO/QtT9WFNrRIfb7h/TCtrg59vuGKVVZSy+mQta1U0HXwwptdHJxozKDToKDfFQWvVqSSoJO+Fb&#xA;bDj+Ufj/AFwptdzX+UD7/wCuK236i/yD8f64U22sig1KAjwqcVtppCxqcVtbyxQ0TgVrcmg6nFVz&#xA;SjiIiaxjoffxwLa1oygDP9k/Zp3xRSm7k+wHQDAhan2wfA1P0b4FWE4oWnAhoPTY7r4Yq0yg7puO&#xA;47jAqmcCFpxQ5ftDwG5+jfAqzFDsVcMVXA9xilUEhP2gG+fX78KbVFSIryZuB7Kd64pbPMjYfCOy&#xA;7jCq0HCq4HFWwcKVRKHc7KOuKVSWT1PjpQ9CBhSTawHFDYbCrfLFLfLFW+WKu5Yq1yxVrliq4NxX&#xA;l3bYfLucVa2XduvZf64FaMpOzmo/V8sUWpuKe4PQ4Fcp+0fAH8dv44oUycCFpOKrScCGqkbjriri&#xA;yt9rZv5u304FWMCDv9GBDQ6Mfag+nFC3FXYq7FW1BJoMVXhlXpu3j2HyxS7lU1PXCrYam/fFKoJC&#xA;ftAN8+v34VtsFD0JX57j8MUr1idvs7gbkg7DClzONgPsjp/XFW0eh8R0I9sK222x8R1B9sVa5Yq3&#xA;ywpb5Yq7liruWKu5Yq2lWan34q20gBqPtdvAYFtTLYoWlsVbD02O6nqMC24jijEbgkAH8f4YqpE4&#xA;ENE4oWk4q0TgQtJwK4OQKdV8DiheUHpAoakmpXuKYEqWFDsVXBdqtsPxPyxVottQbL4f1xVrFWwc&#xA;VbBwpXA4q2DXbFKpzKDipof2iP1YVb9Un7QDfPr94xTbdUPQ8fnv+rFV6qxXjStN1I3+jDaVPlih&#xA;vliruWKu5Ypb5Yq1yxQuEpCkDavU+2KbWcsUO5Yq1yxVrlgQvEpWIKfssSSPuxTamwpuN1PQ4ELC&#xA;cUNE4qtJwIaxV2KrmrVQOoApT33wKuIqPjorePf6Rilb8K/5TeHYYoWkkmp3OFXYq7FXYq7FW64q&#xA;vDcBX9o9PYYpa5YVb5Yq3yxVsOQag0Pjil3LCruWKt8sVdyxV3LFXcsVa5Yq7lirXLFXcsCGuWKt&#xA;u2yjwH698VWiSlR1B6jArTCm43U9Diq3FDgCegriq7gB9oge3U/hiraFQ68RU1H2un3YEueVmYmt&#xA;AT0G2KFmFV3Ov2hy9+/34q7gD9k19uhwKtwq7FXYq7FVygAcj07DxOKrSSTU9TirsVdU4q3XFXcs&#xA;Vb5YpdyxV3LCruWKu5Yq7liruWBXcsVa5YodXFWqnFV0n2yPDb7tsVaCseg+nFVy8VPxGoPVRvgS&#xA;2/pg1jFV7E70xVYWY7E7eHbChrFVydSfAH+mKrcVdirsVdiq7mejfEPfr9+Ku4g/ZP0HrgVaQQaH&#xA;Y4VbVa7nZR1OKuZqnwHYe2KtYq7FXYq7FXYq7FXYq7FXYq7FXYq7FXYq7FXYq4dcVXFxUkKN+53w&#xA;K0WY9TXCrWKtqxB8Qeo8cVcyinJfs/q+eKtYquGyH3IH8cVW4q7FX//Z</xmpGImg:image>
               </rdf:li>
            </rdf:Alt>
         </xmp:Thumbnails>
         <xmpMM:InstanceID>xmp.iid:38f229ca-7953-b446-9d4c-68120f9509da</xmpMM:InstanceID>
         <xmpMM:DocumentID>xmp.did:38f229ca-7953-b446-9d4c-68120f9509da</xmpMM:DocumentID>
         <xmpMM:OriginalDocumentID>uuid:5D20892493BFDB11914A8590D31508C8</xmpMM:OriginalDocumentID>
         <xmpMM:RenditionClass>proof:pdf</xmpMM:RenditionClass>
         <xmpMM:DerivedFrom rdf:parseType="Resource">
            <stRef:instanceID>uuid:ff470bc6-f939-440e-8f31-27b0eb70075c</stRef:instanceID>
            <stRef:documentID>xmp.did:4de20fe2-e96f-dd46-b8bd-1606dc72d06f</stRef:documentID>
            <stRef:originalDocumentID>uuid:5D20892493BFDB11914A8590D31508C8</stRef:originalDocumentID>
            <stRef:renditionClass>proof:pdf</stRef:renditionClass>
         </xmpMM:DerivedFrom>
         <xmpMM:History>
            <rdf:Seq>
               <rdf:li rdf:parseType="Resource">
                  <stEvt:action>saved</stEvt:action>
                  <stEvt:instanceID>xmp.iid:38f229ca-7953-b446-9d4c-68120f9509da</stEvt:instanceID>
                  <stEvt:when>2017-06-07T16:18:18-05:00</stEvt:when>
                  <stEvt:softwareAgent>Adobe Illustrator CC (Windows)</stEvt:softwareAgent>
                  <stEvt:changed>/</stEvt:changed>
               </rdf:li>
            </rdf:Seq>
         </xmpMM:History>
         <illustrator:StartupProfile>Print</illustrator:StartupProfile>
         <xmpTPg:HasVisibleOverprint>False</xmpTPg:HasVisibleOverprint>
         <xmpTPg:HasVisibleTransparency>True</xmpTPg:HasVisibleTransparency>
         <xmpTPg:NPages>1</xmpTPg:NPages>
         <xmpTPg:MaxPageSize rdf:parseType="Resource">
            <stDim:w>1280.000000</stDim:w>
            <stDim:h>600.000000</stDim:h>
            <stDim:unit>Pixels</stDim:unit>
         </xmpTPg:MaxPageSize>
         <xmpTPg:PlateNames>
            <rdf:Seq>
               <rdf:li>Cyan</rdf:li>
               <rdf:li>Magenta</rdf:li>
               <rdf:li>Yellow</rdf:li>
            </rdf:Seq>
         </xmpTPg:PlateNames>
         <xmpTPg:SwatchGroups>
            <rdf:Seq>
               <rdf:li rdf:parseType="Resource">
                  <xmpG:groupName>Grupo de muestras por defecto</xmpG:groupName>
                  <xmpG:groupType>0</xmpG:groupType>
                  <xmpG:Colorants>
                     <rdf:Seq>
                        <rdf:li rdf:parseType="Resource">
                           <xmpG:swatchName>Blanco</xmpG:swatchName>
                           <xmpG:mode>RGB</xmpG:mode>
                           <xmpG:type>PROCESS</xmpG:type>
                           <xmpG:red>255</xmpG:red>
                           <xmpG:green>255</xmpG:green>
                           <xmpG:blue>255</xmpG:blue>
                        </rdf:li>
                        <rdf:li rdf:parseType="Resource">
                           <xmpG:swatchName>Negro</xmpG:swatchName>
                           <xmpG:mode>RGB</xmpG:mode>
                           <xmpG:type>PROCESS</xmpG:type>
                           <xmpG:red>30</xmpG:red>
                           <xmpG:green>18</xmpG:green>
                           <xmpG:blue>13</xmpG:blue>
                        </rdf:li>
                        <rdf:li rdf:parseType="Resource">
                           <xmpG:swatchName>Rojo CMYK</xmpG:swatchName>
                           <xmpG:mode>RGB</xmpG:mode>
                           <xmpG:type>PROCESS</xmpG:type>
                           <xmpG:red>224</xmpG:red>
                           <xmpG:green>1</xmpG:green>
                           <xmpG:blue>9</xmpG:blue>
                        </rdf:li>
                        <rdf:li rdf:parseType="Resource">
                           <xmpG:swatchName>Amarillo CMYK</xmpG:swatchName>
                           <xmpG:mode>RGB</xmpG:mode>
                           <xmpG:type>PROCESS</xmpG:type>
                           <xmpG:red>255</xmpG:red>
                           <xmpG:green>239</xmpG:green>
                           <xmpG:blue>0</xmpG:blue>
                        </rdf:li>
                        <rdf:li rdf:parseType="Resource">
                           <xmpG:swatchName>Verde CMYK</xmpG:swatchName>
                           <xmpG:mode>RGB</xmpG:mode>
                           <xmpG:type>PROCESS</xmpG:type>
                           <xmpG:red>0</xmpG:red>
                           <xmpG:green>145</xmpG:green>
                           <xmpG:blue>61</xmpG:blue>
                        </rdf:li>
                        <rdf:li rdf:parseType="Resource">
                           <xmpG:swatchName>Cian CMYK</xmpG:swatchName>
                           <xmpG:mode>RGB</xmpG:mode>
                           <xmpG:type>PROCESS</xmpG:type>
                           <xmpG:red>0</xmpG:red>
                           <xmpG:green>156</xmpG:green>
                           <xmpG:blue>222</xmpG:blue>
                        </rdf:li>
                        <rdf:li rdf:parseType="Resource">
                           <xmpG:swatchName>Azul CMYK</xmpG:swatchName>
                           <xmpG:mode>RGB</xmpG:mode>
                           <xmpG:type>PROCESS</xmpG:type>
                           <xmpG:red>0</xmpG:red>
                           <xmpG:green>23</xmpG:green>
                           <xmpG:blue>129</xmpG:blue>
                        </rdf:li>
                        <rdf:li rdf:parseType="Resource">
                           <xmpG:swatchName>Magenta CMYK</xmpG:swatchName>
                           <xmpG:mode>RGB</xmpG:mode>
                           <xmpG:type>PROCESS</xmpG:type>
                           <xmpG:red>218</xmpG:red>
                           <xmpG:green>0</xmpG:green>
                           <xmpG:blue>128</xmpG:blue>
                        </rdf:li>
                        <rdf:li rdf:parseType="Resource">
                           <xmpG:swatchName>C=15 M=100 Y=90 K=10</xmpG:swatchName>
                           <xmpG:mode>RGB</xmpG:mode>
                           <xmpG:type>PROCESS</xmpG:type>
                           <xmpG:red>188</xmpG:red>
                           <xmpG:green>9</xmpG:green>
                           <xmpG:blue>35</xmpG:blue>
                        </rdf:li>
                        <rdf:li rdf:parseType="Resource">
                           <xmpG:swatchName>C=0 M=90 Y=85 K=0</xmpG:swatchName>
                           <xmpG:mode>RGB</xmpG:mode>
                           <xmpG:type>PROCESS</xmpG:type>
                           <xmpG:red>228</xmpG:red>
                           <xmpG:green>71</xmpG:green>
                           <xmpG:blue>45</xmpG:blue>
                        </rdf:li>
                        <rdf:li rdf:parseType="Resource">
                           <xmpG:swatchName>C=0 M=80 Y=95 K=0</xmpG:swatchName>
                           <xmpG:mode>RGB</xmpG:mode>
                           <xmpG:type>PROCESS</xmpG:type>
                           <xmpG:red>231</xmpG:red>
                           <xmpG:green>97</xmpG:green>
                           <xmpG:blue>18</xmpG:blue>
                        </rdf:li>
                        <rdf:li rdf:parseType="Resource">
                           <xmpG:swatchName>C=0 M=50 Y=100 K=0</xmpG:swatchName>
                           <xmpG:mode>RGB</xmpG:mode>
                           <xmpG:type>PROCESS</xmpG:type>
                           <xmpG:red>241</xmpG:red>
                           <xmpG:green>152</xmpG:green>
                           <xmpG:blue>0</xmpG:blue>
                        </rdf:li>
                        <rdf:li rdf:parseType="Resource">
                           <xmpG:swatchName>C=0 M=35 Y=85 K=0</xmpG:swatchName>
                           <xmpG:mode>RGB</xmpG:mode>
                           <xmpG:type>PROCESS</xmpG:type>
                           <xmpG:red>246</xmpG:red>
                           <xmpG:green>182</xmpG:green>
                           <xmpG:blue>62</xmpG:blue>
                        </rdf:li>
                        <rdf:li rdf:parseType="Resource">
                           <xmpG:swatchName>C=5 M=0 Y=90 K=0</xmpG:swatchName>
                           <xmpG:mode>RGB</xmpG:mode>
                           <xmpG:type>PROCESS</xmpG:type>
                           <xmpG:red>252</xmpG:red>
                           <xmpG:green>237</xmpG:green>
                           <xmpG:blue>42</xmpG:blue>
                        </rdf:li>
                        <rdf:li rdf:parseType="Resource">
                           <xmpG:swatchName>C=20 M=0 Y=100 K=0</xmpG:swatchName>
                           <xmpG:mode>RGB</xmpG:mode>
                           <xmpG:type>PROCESS</xmpG:type>
                           <xmpG:red>223</xmpG:red>
                           <xmpG:green>221</xmpG:green>
                           <xmpG:blue>0</xmpG:blue>
                        </rdf:li>
                        <rdf:li rdf:parseType="Resource">
                           <xmpG:swatchName>C=50 M=0 Y=100 K=0</xmpG:swatchName>
                           <xmpG:mode>RGB</xmpG:mode>
                           <xmpG:type>PROCESS</xmpG:type>
                           <xmpG:red>152</xmpG:red>
                           <xmpG:green>191</xmpG:green>
                           <xmpG:blue>17</xmpG:blue>
                        </rdf:li>
                        <rdf:li rdf:parseType="Resource">
                           <xmpG:swatchName>C=75 M=0 Y=100 K=0</xmpG:swatchName>
                           <xmpG:mode>RGB</xmpG:mode>
                           <xmpG:type>PROCESS</xmpG:type>
                           <xmpG:red>76</xmpG:red>
                           <xmpG:green>169</xmpG:green>
                           <xmpG:blue>43</xmpG:blue>
                        </rdf:li>
                        <rdf:li rdf:parseType="Resource">
                           <xmpG:swatchName>C=85 M=10 Y=100 K=10</xmpG:swatchName>
                           <xmpG:mode>RGB</xmpG:mode>
                           <xmpG:type>PROCESS</xmpG:type>
                           <xmpG:red>0</xmpG:red>
                           <xmpG:green>144</xmpG:green>
                           <xmpG:blue>47</xmpG:blue>
                        </rdf:li>
                        <rdf:li rdf:parseType="Resource">
                           <xmpG:swatchName>C=90 M=30 Y=95 K=30</xmpG:swatchName>
                           <xmpG:mode>RGB</xmpG:mode>
                           <xmpG:type>PROCESS</xmpG:type>
                           <xmpG:red>0</xmpG:red>
                           <xmpG:green>101</xmpG:green>
                           <xmpG:blue>46</xmpG:blue>
                        </rdf:li>
                        <rdf:li rdf:parseType="Resource">
                           <xmpG:swatchName>C=75 M=0 Y=75 K=0</xmpG:swatchName>
                           <xmpG:mode>RGB</xmpG:mode>
                           <xmpG:type>PROCESS</xmpG:type>
                           <xmpG:red>68</xmpG:red>
                           <xmpG:green>172</xmpG:green>
                           <xmpG:blue>108</xmpG:blue>
                        </rdf:li>
                        <rdf:li rdf:parseType="Resource">
                           <xmpG:swatchName>C=80 M=10 Y=45 K=0</xmpG:swatchName>
                           <xmpG:mode>RGB</xmpG:mode>
                           <xmpG:type>PROCESS</xmpG:type>
                           <xmpG:red>31</xmpG:red>
                           <xmpG:green>162</xmpG:green>
                           <xmpG:blue>155</xmpG:blue>
                        </rdf:li>
                        <rdf:li rdf:parseType="Resource">
                           <xmpG:swatchName>C=70 M=15 Y=0 K=0</xmpG:swatchName>
                           <xmpG:mode>RGB</xmpG:mode>
                           <xmpG:type>PROCESS</xmpG:type>
                           <xmpG:red>86</xmpG:red>
                           <xmpG:green>172</xmpG:green>
                           <xmpG:blue>222</xmpG:blue>
                        </rdf:li>
                        <rdf:li rdf:parseType="Resource">
                           <xmpG:swatchName>C=85 M=50 Y=0 K=0</xmpG:swatchName>
                           <xmpG:mode>RGB</xmpG:mode>
                           <xmpG:type>PROCESS</xmpG:type>
                           <xmpG:red>44</xmpG:red>
                           <xmpG:green>115</xmpG:green>
                           <xmpG:blue>181</xmpG:blue>
                        </rdf:li>
                        <rdf:li rdf:parseType="Resource">
                           <xmpG:swatchName>C=100 M=95 Y=5 K=0</xmpG:swatchName>
                           <xmpG:mode>RGB</xmpG:mode>
                           <xmpG:type>PROCESS</xmpG:type>
                           <xmpG:red>0</xmpG:red>
                           <xmpG:green>42</xmpG:green>
                           <xmpG:blue>133</xmpG:blue>
                        </rdf:li>
                        <rdf:li rdf:parseType="Resource">
                           <xmpG:swatchName>C=100 M=100 Y=25 K=25</xmpG:swatchName>
                           <xmpG:mode>RGB</xmpG:mode>
                           <xmpG:type>PROCESS</xmpG:type>
                           <xmpG:red>0</xmpG:red>
                           <xmpG:green>19</xmpG:green>
                           <xmpG:blue>92</xmpG:blue>
                        </rdf:li>
                        <rdf:li rdf:parseType="Resource">
                           <xmpG:swatchName>C=75 M=100 Y=0 K=0</xmpG:swatchName>
                           <xmpG:mode>RGB</xmpG:mode>
                           <xmpG:type>PROCESS</xmpG:type>
                           <xmpG:red>101</xmpG:red>
                           <xmpG:green>14</xmpG:green>
                           <xmpG:blue>129</xmpG:blue>
                        </rdf:li>
                        <rdf:li rdf:parseType="Resource">
                           <xmpG:swatchName>C=50 M=100 Y=0 K=0</xmpG:swatchName>
                           <xmpG:mode>RGB</xmpG:mode>
                           <xmpG:type>PROCESS</xmpG:type>
                           <xmpG:red>145</xmpG:red>
                           <xmpG:green>2</xmpG:green>
                           <xmpG:blue>129</xmpG:blue>
                        </rdf:li>
                        <rdf:li rdf:parseType="Resource">
                           <xmpG:swatchName>C=35 M=100 Y=35 K=10</xmpG:swatchName>
                           <xmpG:mode>RGB</xmpG:mode>
                           <xmpG:type>PROCESS</xmpG:type>
                           <xmpG:red>156</xmpG:red>
                           <xmpG:green>6</xmpG:green>
                           <xmpG:blue>92</xmpG:blue>
                        </rdf:li>
                        <rdf:li rdf:parseType="Resource">
                           <xmpG:swatchName>C=10 M=100 Y=50 K=0</xmpG:swatchName>
                           <xmpG:mode>RGB</xmpG:mode>
                           <xmpG:type>PROCESS</xmpG:type>
                           <xmpG:red>208</xmpG:red>
                           <xmpG:green>0</xmpG:green>
                           <xmpG:blue>84</xmpG:blue>
                        </rdf:li>
                        <rdf:li rdf:parseType="Resource">
                           <xmpG:swatchName>C=0 M=95 Y=20 K=0</xmpG:swatchName>
                           <xmpG:mode>RGB</xmpG:mode>
                           <xmpG:type>PROCESS</xmpG:type>
                           <xmpG:red>222</xmpG:red>
                           <xmpG:green>47</xmpG:green>
                           <xmpG:blue>121</xmpG:blue>
                        </rdf:li>
                        <rdf:li rdf:parseType="Resource">
                           <xmpG:swatchName>C=25 M=25 Y=40 K=0</xmpG:swatchName>
                           <xmpG:mode>RGB</xmpG:mode>
                           <xmpG:type>PROCESS</xmpG:type>
                           <xmpG:red>202</xmpG:red>
                           <xmpG:green>188</xmpG:green>
                           <xmpG:blue>159</xmpG:blue>
                        </rdf:li>
                        <rdf:li rdf:parseType="Resource">
                           <xmpG:swatchName>C=40 M=45 Y=50 K=5</xmpG:swatchName>
                           <xmpG:mode>RGB</xmpG:mode>
                           <xmpG:type>PROCESS</xmpG:type>
                           <xmpG:red>163</xmpG:red>
                           <xmpG:green>138</xmpG:green>
                           <xmpG:blue>123</xmpG:blue>
                        </rdf:li>
                        <rdf:li rdf:parseType="Resource">
                           <xmpG:swatchName>C=50 M=50 Y=60 K=25</xmpG:swatchName>
                           <xmpG:mode>RGB</xmpG:mode>
                           <xmpG:type>PROCESS</xmpG:type>
                           <xmpG:red>118</xmpG:red>
                           <xmpG:green>105</xmpG:green>
                           <xmpG:blue>87</xmpG:blue>
                        </rdf:li>
                        <rdf:li rdf:parseType="Resource">
                           <xmpG:swatchName>C=55 M=60 Y=65 K=40</xmpG:swatchName>
                           <xmpG:mode>RGB</xmpG:mode>
                           <xmpG:type>PROCESS</xmpG:type>
                           <xmpG:red>92</xmpG:red>
                           <xmpG:green>77</xmpG:green>
                           <xmpG:blue>62</xmpG:blue>
                        </rdf:li>
                        <rdf:li rdf:parseType="Resource">
                           <xmpG:swatchName>C=25 M=40 Y=65 K=0</xmpG:swatchName>
                           <xmpG:mode>RGB</xmpG:mode>
                           <xmpG:type>PROCESS</xmpG:type>
                           <xmpG:red>200</xmpG:red>
                           <xmpG:green>159</xmpG:green>
                           <xmpG:blue>106</xmpG:blue>
                        </rdf:li>
                        <rdf:li rdf:parseType="Resource">
                           <xmpG:swatchName>C=30 M=50 Y=75 K=10</xmpG:swatchName>
                           <xmpG:mode>RGB</xmpG:mode>
                           <xmpG:type>PROCESS</xmpG:type>
                           <xmpG:red>176</xmpG:red>
                           <xmpG:green>129</xmpG:green>
                           <xmpG:blue>77</xmpG:blue>
                        </rdf:li>
                        <rdf:li rdf:parseType="Resource">
                           <xmpG:swatchName>C=35 M=60 Y=80 K=25</xmpG:swatchName>
                           <xmpG:mode>RGB</xmpG:mode>
                           <xmpG:type>PROCESS</xmpG:type>
                           <xmpG:red>142</xmpG:red>
                           <xmpG:green>98</xmpG:green>
                           <xmpG:blue>55</xmpG:blue>
                        </rdf:li>
                        <rdf:li rdf:parseType="Resource">
                           <xmpG:swatchName>C=40 M=65 Y=90 K=35</xmpG:swatchName>
                           <xmpG:mode>RGB</xmpG:mode>
                           <xmpG:type>PROCESS</xmpG:type>
                           <xmpG:red>119</xmpG:red>
                           <xmpG:green>80</xmpG:green>
                           <xmpG:blue>32</xmpG:blue>
                        </rdf:li>
                        <rdf:li rdf:parseType="Resource">
                           <xmpG:swatchName>C=40 M=70 Y=100 K=50</xmpG:swatchName>
                           <xmpG:mode>RGB</xmpG:mode>
                           <xmpG:type>PROCESS</xmpG:type>
                           <xmpG:red>99</xmpG:red>
                           <xmpG:green>62</xmpG:green>
                           <xmpG:blue>0</xmpG:blue>
                        </rdf:li>
                        <rdf:li rdf:parseType="Resource">
                           <xmpG:swatchName>C=50 M=70 Y=80 K=70</xmpG:swatchName>
                           <xmpG:mode>RGB</xmpG:mode>
                           <xmpG:type>PROCESS</xmpG:type>
                           <xmpG:red>63</xmpG:red>
                           <xmpG:green>40</xmpG:green>
                           <xmpG:blue>13</xmpG:blue>
                        </rdf:li>
                     </rdf:Seq>
                  </xmpG:Colorants>
               </rdf:li>
               <rdf:li rdf:parseType="Resource">
                  <xmpG:groupName>Grises</xmpG:groupName>
                  <xmpG:groupType>1</xmpG:groupType>
                  <xmpG:Colorants>
                     <rdf:Seq>
                        <rdf:li rdf:parseType="Resource">
                           <xmpG:swatchName>C=0 M=0 Y=0 K=100</xmpG:swatchName>
                           <xmpG:mode>RGB</xmpG:mode>
                           <xmpG:type>PROCESS</xmpG:type>
                           <xmpG:red>30</xmpG:red>
                           <xmpG:green>18</xmpG:green>
                           <xmpG:blue>13</xmpG:blue>
                        </rdf:li>
                        <rdf:li rdf:parseType="Resource">
                           <xmpG:swatchName>C=0 M=0 Y=0 K=90</xmpG:swatchName>
                           <xmpG:mode>RGB</xmpG:mode>
                           <xmpG:type>PROCESS</xmpG:type>
                           <xmpG:red>67</xmpG:red>
                           <xmpG:green>64</xmpG:green>
                           <xmpG:blue>64</xmpG:blue>
                        </rdf:li>
                        <rdf:li rdf:parseType="Resource">
                           <xmpG:swatchName>C=0 M=0 Y=0 K=80</xmpG:swatchName>
                           <xmpG:mode>RGB</xmpG:mode>
                           <xmpG:type>PROCESS</xmpG:type>
                           <xmpG:red>91</xmpG:red>
                           <xmpG:green>91</xmpG:green>
                           <xmpG:blue>95</xmpG:blue>
                        </rdf:li>
                        <rdf:li rdf:parseType="Resource">
                           <xmpG:swatchName>C=0 M=0 Y=0 K=70</xmpG:swatchName>
                           <xmpG:mode>RGB</xmpG:mode>
                           <xmpG:type>PROCESS</xmpG:type>
                           <xmpG:red>114</xmpG:red>
                           <xmpG:green>114</xmpG:green>
                           <xmpG:blue>119</xmpG:blue>
                        </rdf:li>
                        <rdf:li rdf:parseType="Resource">
                           <xmpG:swatchName>C=0 M=0 Y=0 K=60</xmpG:swatchName>
                           <xmpG:mode>RGB</xmpG:mode>
                           <xmpG:type>PROCESS</xmpG:type>
                           <xmpG:red>137</xmpG:red>
                           <xmpG:green>135</xmpG:green>
                           <xmpG:blue>140</xmpG:blue>
                        </rdf:li>
                        <rdf:li rdf:parseType="Resource">
                           <xmpG:swatchName>C=0 M=0 Y=0 K=50</xmpG:swatchName>
                           <xmpG:mode>RGB</xmpG:mode>
                           <xmpG:type>PROCESS</xmpG:type>
                           <xmpG:red>156</xmpG:red>
                           <xmpG:green>154</xmpG:green>
                           <xmpG:blue>160</xmpG:blue>
                        </rdf:li>
                        <rdf:li rdf:parseType="Resource">
                           <xmpG:swatchName>C=0 M=0 Y=0 K=40</xmpG:swatchName>
                           <xmpG:mode>RGB</xmpG:mode>
                           <xmpG:type>PROCESS</xmpG:type>
                           <xmpG:red>176</xmpG:red>
                           <xmpG:green>175</xmpG:green>
                           <xmpG:blue>181</xmpG:blue>
                        </rdf:li>
                        <rdf:li rdf:parseType="Resource">
                           <xmpG:swatchName>C=0 M=0 Y=0 K=30</xmpG:swatchName>
                           <xmpG:mode>RGB</xmpG:mode>
                           <xmpG:type>PROCESS</xmpG:type>
                           <xmpG:red>195</xmpG:red>
                           <xmpG:green>197</xmpG:green>
                           <xmpG:blue>202</xmpG:blue>
                        </rdf:li>
                        <rdf:li rdf:parseType="Resource">
                           <xmpG:swatchName>C=0 M=0 Y=0 K=20</xmpG:swatchName>
                           <xmpG:mode>RGB</xmpG:mode>
                           <xmpG:type>PROCESS</xmpG:type>
                           <xmpG:red>216</xmpG:red>
                           <xmpG:green>218</xmpG:green>
                           <xmpG:blue>222</xmpG:blue>
                        </rdf:li>
                        <rdf:li rdf:parseType="Resource">
                           <xmpG:swatchName>C=0 M=0 Y=0 K=10</xmpG:swatchName>
                           <xmpG:mode>RGB</xmpG:mode>
                           <xmpG:type>PROCESS</xmpG:type>
                           <xmpG:red>237</xmpG:red>
                           <xmpG:green>238</xmpG:green>
                           <xmpG:blue>240</xmpG:blue>
                        </rdf:li>
                        <rdf:li rdf:parseType="Resource">
                           <xmpG:swatchName>C=0 M=0 Y=0 K=5</xmpG:swatchName>
                           <xmpG:mode>RGB</xmpG:mode>
                           <xmpG:type>PROCESS</xmpG:type>
                           <xmpG:red>247</xmpG:red>
                           <xmpG:green>248</xmpG:green>
                           <xmpG:blue>248</xmpG:blue>
                        </rdf:li>
                     </rdf:Seq>
                  </xmpG:Colorants>
               </rdf:li>
               <rdf:li rdf:parseType="Resource">
                  <xmpG:groupName>Brillantes</xmpG:groupName>
                  <xmpG:groupType>1</xmpG:groupType>
                  <xmpG:Colorants>
                     <rdf:Seq>
                        <rdf:li rdf:parseType="Resource">
                           <xmpG:swatchName>C=0 M=100 Y=100 K=0</xmpG:swatchName>
                           <xmpG:mode>RGB</xmpG:mode>
                           <xmpG:type>PROCESS</xmpG:type>
                           <xmpG:red>224</xmpG:red>
                           <xmpG:green>1</xmpG:green>
                           <xmpG:blue>9</xmpG:blue>
                        </rdf:li>
                        <rdf:li rdf:parseType="Resource">
                           <xmpG:swatchName>C=0 M=75 Y=100 K=0</xmpG:swatchName>
                           <xmpG:mode>RGB</xmpG:mode>
                           <xmpG:type>PROCESS</xmpG:type>
                           <xmpG:red>233</xmpG:red>
                           <xmpG:green>107</xmpG:green>
                           <xmpG:blue>0</xmpG:blue>
                        </rdf:li>
                        <rdf:li rdf:parseType="Resource">
                           <xmpG:swatchName>C=0 M=10 Y=95 K=0</xmpG:swatchName>
                           <xmpG:mode>RGB</xmpG:mode>
                           <xmpG:type>PROCESS</xmpG:type>
                           <xmpG:red>255</xmpG:red>
                           <xmpG:green>226</xmpG:green>
                           <xmpG:blue>0</xmpG:blue>
                        </rdf:li>
                        <rdf:li rdf:parseType="Resource">
                           <xmpG:swatchName>C=85 M=10 Y=100 K=0</xmpG:swatchName>
                           <xmpG:mode>RGB</xmpG:mode>
                           <xmpG:type>PROCESS</xmpG:type>
                           <xmpG:red>0</xmpG:red>
                           <xmpG:green>152</xmpG:green>
                           <xmpG:blue>50</xmpG:blue>
                        </rdf:li>
                        <rdf:li rdf:parseType="Resource">
                           <xmpG:swatchName>C=100 M=90 Y=0 K=0</xmpG:swatchName>
                           <xmpG:mode>RGB</xmpG:mode>
                           <xmpG:type>PROCESS</xmpG:type>
                           <xmpG:red>0</xmpG:red>
                           <xmpG:green>53</xmpG:green>
                           <xmpG:blue>142</xmpG:blue>
                        </rdf:li>
                        <rdf:li rdf:parseType="Resource">
                           <xmpG:swatchName>C=60 M=90 Y=0 K=0</xmpG:swatchName>
                           <xmpG:mode>RGB</xmpG:mode>
                           <xmpG:type>PROCESS</xmpG:type>
                           <xmpG:red>128</xmpG:red>
                           <xmpG:green>62</xmpG:green>
                           <xmpG:blue>144</xmpG:blue>
                        </rdf:li>
                     </rdf:Seq>
                  </xmpG:Colorants>
               </rdf:li>
            </rdf:Seq>
         </xmpTPg:SwatchGroups>
         <pdf:Producer>Adobe PDF library 10.01</pdf:Producer>
      </rdf:Description>
   </rdf:RDF>
</x:xmpmeta>
                                                                                                    
                                                                                                    
                                                                                                    
                                                                                                    
                                                                                                    
                                                                                                    
                                                                                                    
                                                                                                    
                                                                                                    
                                                                                                    
                                                                                                    
                                                                                                    
                                                                                                    
                                                                                                    
                                                                                                    
                                                                                                    
                                                                                                    
                                                                                                    
                                                                                                    
                                                                                                    
                           
<?xpacket end="w"?>
	</metadata>
<radialGradient id="SVGID_1_" cx="640" cy="300" r="786.6858" gradientTransform="matrix(1 0 0 0.4229 0 173.1216)" gradientUnits="userSpaceOnUse">
	<stop  offset="0" style="stop-color:#8CBB69"/>
	<stop  offset="0.7837" style="stop-color:#6BAD44"/>
</radialGradient>
<rect x="0.5" fill="url(#SVGID_1_)" width="1279" height="600"/>
<g>
	<defs>
		<rect id="SVGID_2_" x="0.5" width="1279" height="600"/>
	</defs>
	<clipPath id="SVGID_3_">
		<use xlink:href="#SVGID_2_"  overflow="visible"/>
	</clipPath>
	<path opacity="0.2" clip-path="url(#SVGID_3_)" fill="#FFFFFF" d="M1222.136,426.129c0-2.527-1.425-4.701-3.502-5.828
		l57.905-260.822l0.156-0.709l-126.744-47.042L1278.735,4.608l-268.451,51.033c-1.512-3.14-4.452-5.458-7.983-6.106l14.748-94.198
		l-75.446,74.784c-1.199-1.159-2.826-1.88-4.626-1.88c-2.102,0-3.953,0.993-5.178,2.514L732.907-43.066l-0.565-0.21L610.016,110.536
		c-1.928-0.777-4.029-1.216-6.234-1.216c-2.451,0-4.773,0.543-6.869,1.495L436.23-43.289L307.885,19.425
		c-0.906-1.53-2.557-2.567-4.464-2.567c-0.682,0-1.327,0.14-1.923,0.377l-39.453-59.979l-1.391,0.917l39.422,59.933
		c-1.131,0.955-1.861,2.364-1.861,3.958c0,0.674,0.138,1.314,0.371,1.906l-84.879,41.475c-0.744-2.868-3.328-4.995-6.428-4.995
		c-0.785,0-1.527,0.16-2.227,0.41L136.195-43.806L-6.088,174.699L203.265,72.401c1.119,0.852,2.501,1.376,4.015,1.376
		c1.321,0,2.546-0.396,3.581-1.06l75.773,115.178c-1.642,1.213-2.72,3.147-2.72,5.347c0,0.163,0.037,0.315,0.049,0.475
		L-3.898,248.442l0.311,1.638l287.877-54.727c0.887,2.639,3.352,4.553,6.289,4.553c1.225,0,2.357-0.354,3.344-0.931l46.777,71.101
		c-1.166,1.199-1.891,2.832-1.891,4.637c0,0.953,0.207,1.857,0.568,2.676l-63.008,43.904c-1.184-1.85-3.245-3.08-5.604-3.08
		c-3.613,0-6.537,2.877-6.645,6.465l-273.33-6.406l189.677,63.865c-0.593,0.996-0.954,2.147-0.954,3.389
		c0,1.006,0.24,1.953,0.64,2.809L-5.393,517.617l212.129,101.625l0.6,0.289l139.801-175.783c0.722,0.266,1.492,0.434,2.307,0.434
		c2.42,0,4.519-1.303,5.686-3.234l128.426,43.242l-72.767-110.605c1.212-1.207,1.962-2.875,1.962-4.721
		c0-1.94-0.844-3.674-2.168-4.891l22.795-28.662c1.08,0.754,2.39,1.205,3.807,1.205c3.441,0,6.239-2.615,6.594-5.963l188.327,4.414
		c0.662,1.986,2.513,3.424,4.72,3.424c2.758,0,4.997-2.24,4.997-4.998c0-1.07-0.341-2.055-0.914-2.869l85.551-84.799
		c1.104,0.816,2.458,1.314,3.938,1.314c1.691,0,3.218-0.648,4.393-1.686l77.116,73.959c-0.788,1.094-1.264,2.426-1.264,3.877
		c0,2.115,1.003,3.976,2.539,5.195l-76.576,127.148l112.043-93.193c1.15,0.939,2.599,1.525,4.197,1.525
		c1.533,0,2.927-0.537,4.052-1.406L936,438.326c-0.936,1.148-1.523,2.594-1.523,4.188c0,2.605,1.509,4.836,3.687,5.934
		L917.676,579.31l119.384-37.543c1.019,2.375,3.376,4.037,6.122,4.037c1.374,0,2.648-0.416,3.709-1.127l118.83,113.965
		l36.422-164.057c2.545-0.904,4.377-3.289,4.433-6.129l71.073-22.35l-56.236-37.012
		C1221.861,428.201,1222.136,427.201,1222.136,426.129z M200.615,67.114c0,1.529,0.535,2.919,1.4,4.043L-1.4,170.554L136.201-40.764
		l67.342,102.361C201.777,62.796,200.615,64.819,200.615,67.114z M1274.756,159.825l-57.691,259.856
		c-0.513-0.125-1.041-0.215-1.592-0.215c-2.043,0-3.846,0.94-5.068,2.383L977.222,268.391c0.89-1.549,1.403-3.336,1.403-5.246
		c0-2.605-0.946-4.986-2.512-6.826l172.361-143.363L1274.756,159.825z M1272.715,7.449L1148.15,111.058l-136.768-50.763
		c-0.014-1.069-0.176-2.101-0.473-3.077L1272.715,7.449z M1011.266,62.028l135.406,50.258l-171.74,142.848
		c-1.266-1.084-2.787-1.871-4.464-2.26l28.401-181.418c0.464,0.059,0.934,0.1,1.414,0.1
		C1005.881,71.557,1010.497,67.413,1011.266,62.028z M1014.618-39.907l-13.976,89.269c-0.121-0.004-0.236-0.018-0.359-0.018
		c-3.308,0-6.27,1.455-8.303,3.75l-48.363-17.951c0.003-0.081,0.022-0.156,0.022-0.237c0-1.275-0.376-2.456-0.997-3.469
		L1014.618-39.907z M933.455,40.542c1.025,0.641,2.227,1.028,3.521,1.028c3.013,0,5.529-2.013,6.354-4.757l47.598,17.667
		c-0.966,1.513-1.574,3.272-1.71,5.167l-91.015,17.302c-0.186-0.299-0.398-0.575-0.628-0.84L933.455,40.542z M732.894-41.294
		l198.004,73.492c-0.37,0.829-0.586,1.741-0.586,2.707c0,1.779,0.709,3.385,1.843,4.58l-35.805,35.492
		c-1.079-0.752-2.384-1.199-3.8-1.199c-3.277,0-5.988,2.371-6.545,5.49l-266.032,50.574c0.294-1.242,0.467-2.53,0.467-3.863
		c0-6.387-3.595-11.927-8.872-14.724L732.894-41.294z M435.916-41.281l159.438,152.907c-4.92,2.896-8.231,8.232-8.231,14.353
		c0,3.55,1.118,6.833,3.011,9.536L407.992,170.14c-0.657-2.867-3.213-5.011-6.279-5.011c-0.918,0-1.787,0.197-2.578,0.543
		L307.098,25.75c0.944-0.943,1.529-2.246,1.529-3.685c0-0.375-0.043-0.737-0.118-1.089L435.916-41.281z M290.578,186.579
		c-0.883,0-1.723,0.179-2.494,0.492l-75.94-115.43c1.092-1.173,1.773-2.729,1.792-4.454L299.454,25.4
		c0.955,1.134,2.367,1.87,3.967,1.87c0.835,0,1.612-0.214,2.311-0.565l91.986,139.843c-1.488,1.184-2.461,2.986-2.461,5.037
		c0,0.328,0.049,0.642,0.096,0.956l-98.445,18.716C296.06,188.553,293.564,186.579,290.578,186.579z M295.26,197.979
		c1.223-1.208,1.982-2.883,1.982-4.736c0-0.12-0.029-0.23-0.034-0.346l98.587-18.742c0.994,2.284,3.268,3.885,5.918,3.885
		c1.107,0,2.131-0.304,3.043-0.794l22.109,33.612c-1.706,0.967-2.869,2.776-2.869,4.874c0,0.836,0.193,1.622,0.522,2.337
		l-74.426,51.857c-1.199-1.156-2.822-1.875-4.62-1.875c-1.272,0-2.447,0.375-3.46,0.994L295.26,197.979z M340.253,278.81
		c1.22,1.551,3.093,2.567,5.219,2.567c0.835,0,1.627-0.172,2.364-0.453l27.691,42.094c-1.365,0.992-2.335,2.482-2.643,4.209
		l-95.467-2.238c0-0.039,0.01-0.074,0.01-0.111c0-0.719-0.142-1.399-0.352-2.047L340.253,278.81z M1.723,320.193l262.554,6.152
		c0.212,0.943,0.634,1.795,1.196,2.537l-74.563,51.955c-1.207-1.219-2.881-1.977-4.732-1.977c-1.801,0-3.43,0.721-4.629,1.881
		L1.723,320.193z M206.857,617.455L-2.095,517.35l183.147-127.613c1.223,1.486,3.051,2.453,5.125,2.453
		c3.422,0,6.21-2.59,6.588-5.912l150.084,50.537c-0.025,0.234-0.07,0.461-0.07,0.701c0,2.26,1.13,4.248,2.848,5.453L206.857,617.455
		z M353.887,432.584c-1.181-1.065-2.728-1.732-4.443-1.732c-2.855,0-5.271,1.807-6.221,4.33l-150.484-50.67
		c-0.129-0.844-0.416-1.629-0.832-2.338l74.754-52.086c1.135,0.895,2.549,1.451,4.105,1.451c3.063,0,5.613-2.078,6.395-4.891
		l95.656,2.242c0.258,3.443,3.103,6.168,6.613,6.168c1.244,0,2.395-0.361,3.391-0.955l19.342,29.399
		c-1.654,1.213-2.74,3.154-2.74,5.361c0,1.68,0.643,3.195,1.668,4.367L353.887,432.584z M479.506,481.07L355.8,439.416
		c0.181-0.605,0.308-1.234,0.308-1.9c0-1.353-0.41-2.607-1.103-3.66l47.318-59.496c1.072,0.734,2.366,1.168,3.764,1.168
		c1.234,0,2.375-0.357,3.367-0.943L479.506,481.07z M409.217,363.014c-0.938-0.502-1.992-0.815-3.131-0.815
		c-0.875,0-1.703,0.18-2.469,0.484l-19.465-29.588c1.02-1.023,1.678-2.387,1.861-3.897l44.547,1.045
		c0.088,1.502,0.67,2.857,1.591,3.93L409.217,363.014z M437.184,323.19c-3.244,0-5.939,2.32-6.535,5.391l-44.641-1.047
		c-0.428-3.268-3.192-5.803-6.578-5.803c-0.863,0-1.684,0.18-2.441,0.479l-27.673-42.066c1.702-1.207,2.82-3.184,2.82-5.43
		c0-1.279-0.379-2.465-1.005-3.48l74.305-51.773c1.029,1.154,2.514,1.896,4.183,1.896c3.107,0,5.623-2.517,5.623-5.623
		c0-3.104-2.517-5.621-5.623-5.621c-0.401,0-0.792,0.045-1.169,0.124l-22.334-33.952c1.206-1.129,1.971-2.711,2.031-4.478
		l180.415-34.297L440.264,323.977C439.339,323.49,438.302,323.19,437.184,323.19z M639.732,329.342
		c-0.819-0.59-1.82-0.947-2.908-0.947c-2.727,0-4.935,2.186-4.988,4.9l-188.084-4.408c-0.23-1.566-0.994-2.945-2.115-3.961
		L591.07,137.032l0.231-0.044c3.053,3.458,7.504,5.651,12.479,5.651c6.371,0,11.898-3.576,14.702-8.828l106.759,102.389
		c-0.928,1.145-1.512,2.586-1.512,4.176c0,1.599,0.588,3.047,1.526,4.193L639.732,329.342z M734.635,235.273
		c-1.154-0.961-2.619-1.563-4.239-1.563c-1.487,0-2.847,0.504-3.954,1.328L619.225,132.213c0.076-0.189,0.139-0.38,0.209-0.573
		l266.508-50.664c0.096,1.186,0.473,2.293,1.107,3.22L734.635,235.273z M813.047,318.1l-77.139-73.98
		c0.727-1.067,1.151-2.356,1.151-3.745c0-1.459-0.482-2.795-1.276-3.894L888.172,85.429c1.175,1.031,2.694,1.676,4.379,1.676
		c3.68,0,6.665-2.982,6.665-6.664c0-0.674-0.131-1.313-0.319-1.929l90.327-17.17c0.371,4.678,3.638,8.533,8.013,9.781
		l-28.418,181.508c-0.246-0.019-0.492-0.038-0.743-0.038c-3.451,0-6.507,1.667-8.433,4.228l-68.211-44.891
		c0.707-1.058,1.119-2.326,1.119-3.693c0-3.681-2.983-6.664-6.664-6.664c-3.68,0-6.664,2.983-6.664,6.664
		c0,2.316,1.185,4.354,2.979,5.548l-62.221,103.31c-0.82-0.359-1.721-0.568-2.677-0.568
		C815.676,316.525,814.204,317.133,813.047,318.1z M743.117,447.949l71.479-118.684c0.829,0.369,1.741,0.586,2.708,0.586
		c1.552,0,2.96-0.551,4.092-1.438l26.015,24.951c-0.768,1.086-1.23,2.404-1.23,3.836c0,1.477,0.499,2.83,1.31,3.934L743.117,447.949
		z M852.844,350.537c-1.646,0-3.133,0.621-4.295,1.611l-25.98-24.916c0.863-1.125,1.398-2.516,1.398-4.043
		c0-2.129-1.015-4.002-2.569-5.221l62.313-103.463c0.686,0.238,1.41,0.395,2.176,0.395c1.705,0,3.244-0.66,4.424-1.715
		l68.434,45.039c-0.776,1.469-1.221,3.141-1.221,4.92c0,1.926,0.525,3.727,1.428,5.281l-101.26,84.227
		C856.476,351.357,854.762,350.537,852.844,350.537z M937.2,437.168l-79.124-75.883c0.886-1.131,1.432-2.537,1.432-4.084
		c0-1.162-0.323-2.238-0.847-3.191l101.235-84.205c1.428,1.752,3.41,3.027,5.675,3.578l-25.452,162.572
		C939.036,436.123,938.043,436.543,937.2,437.168z M1036.518,539.141c0,0.348,0.053,0.684,0.105,1.018l-116.886,36.758
		l20.021-127.885c0.446,0.096,0.908,0.148,1.383,0.148c1.699,0,3.228-0.654,4.406-1.699l91.967,88.201
		C1036.896,536.693,1036.518,537.871,1036.518,539.141z M1164.736,655.389l-116.602-111.826c1.054-1.178,1.711-2.717,1.711-4.422
		c0-0.463-0.047-0.914-0.136-1.352l144.84-45.549c1.213,1.662,3.159,2.752,5.374,2.752c0.147,0,0.286-0.033,0.432-0.043
		L1164.736,655.389z M1199.924,481.664c-3.68,0-6.664,2.984-6.664,6.664c0,0.857,0.176,1.67,0.471,2.424l-144.584,45.467
		c-1.087-2.207-3.335-3.74-5.965-3.74c-1.803,0-3.436,0.725-4.635,1.889l-91.883-88.121c0.721-1.063,1.141-2.35,1.141-3.732
		c0-3.447-2.633-6.256-5.993-6.594l25.402-162.268c0.286,0.021,0.57,0.041,0.861,0.041c3.317,0,6.274-1.531,8.207-3.928
		l233.209,153.479c-0.424,0.875-0.683,1.848-0.683,2.885c0,3.242,2.312,5.936,5.374,6.537l-11.067,49.848
		C1202.164,481.99,1201.088,481.664,1199.924,481.664z M1273.803,465.57l-67.417,21.199c-0.296-1.232-0.924-2.334-1.8-3.195
		l11.283-50.818c1.847-0.109,3.477-0.963,4.615-2.273L1273.803,465.57z"/>
</g>
</svg>
