<!-- Generator: Adobe Illustrator 17.0.0, SVG Export Plug-In  -->
<svg version="1.1"
	 xmlns="http://www.w3.org/2000/svg" xmlns:xlink="http://www.w3.org/1999/xlink" xmlns:a="http://ns.adobe.com/AdobeSVGViewerExtensions/3.0/"
	 x="0px" y="0px" width="470.824px" height="162.507px" viewBox="0 0 470.824 162.507"
	 style="enable-background:new 0 0 470.824 162.507;" xml:space="preserve">
<style type="text/css">
	.st0{fill-rule:evenodd;clip-rule:evenodd;fill:url(#SVGID_1_);stroke:#020202;stroke-width:0.25;stroke-miterlimit:10;}
	.st1{fill-rule:evenodd;clip-rule:evenodd;fill:url(#SVGID_2_);stroke:#020202;stroke-width:0.25;stroke-miterlimit:10;}
	.st2{fill-rule:evenodd;clip-rule:evenodd;fill:#144B8B;}
	.st3{fill-rule:evenodd;clip-rule:evenodd;fill:url(#SVGID_3_);}
	.st4{fill-rule:evenodd;clip-rule:evenodd;fill:#FFFFFF;}
	.st5{fill-rule:evenodd;clip-rule:evenodd;}
	.st6{fill-rule:evenodd;clip-rule:evenodd;fill:url(#SVGID_4_);}
	.st7{fill:#D1D2D3;}
	.st8{fill:#F1F1F1;}
	.st9{fill:#231F20;}
	.st10{fill:#FFFFFF;}
	.st11{opacity:0.6;}
	.st12{fill:#E7E6E6;}
	.st13{fill:#A7A8AC;}
	.st14{fill:url(#SVGID_5_);}
	.st15{fill:none;stroke:#000000;stroke-width:2;stroke-miterlimit:10;}
	.st16{fill:none;stroke:#231F20;stroke-width:2;stroke-linejoin:round;stroke-miterlimit:10;}
	.st17{fill-rule:evenodd;clip-rule:evenodd;fill:url(#SVGID_6_);stroke:#020202;stroke-width:0.25;stroke-miterlimit:10;}
	.st18{fill-rule:evenodd;clip-rule:evenodd;fill:url(#SVGID_7_);stroke:#020202;stroke-width:0.25;stroke-miterlimit:10;}
	.st19{fill-rule:evenodd;clip-rule:evenodd;fill:url(#SVGID_8_);}
	.st20{fill-rule:evenodd;clip-rule:evenodd;fill:url(#SVGID_9_);}
	.st21{fill:url(#SVGID_10_);}
</style>
<defs>
</defs>
<g>
	<g>
		<g>
			<g id="Red_Attribut_1_">
				<radialGradient id="SVGID_1_" cx="109.6729" cy="128.7031" r="44.7212" gradientUnits="userSpaceOnUse">
					<stop  offset="0" style="stop-color:#8CBB69"/>
					<stop  offset="0.7837" style="stop-color:#6BAD44"/>
				</radialGradient>
				<path class="st0" d="M51.155,115.748h94.738c1.84,0,3.356,1.517,3.356,3.388l0,0c0,1.839-1.516,3.357-3.356,3.357H51.155
					c-1.871,0-3.387-1.518-3.387-3.357l0,0C47.769,117.265,49.284,115.748,51.155,115.748L51.155,115.748z M73.452,134.915h94.738
					c1.871,0,3.387,1.516,3.387,3.387l0,0c0,1.84-1.516,3.357-3.387,3.357H73.452c-1.838,0-3.354-1.517-3.354-3.357l0,0
					C70.098,136.431,71.614,134.915,73.452,134.915L73.452,134.915z M62.288,125.233h94.769c1.839,0,3.355,1.518,3.355,3.357l0,0
					c0,1.871-1.517,3.386-3.355,3.386H62.288c-1.84,0-3.356-1.515-3.356-3.386l0,0C58.933,126.751,60.448,125.233,62.288,125.233
					L62.288,125.233z"/>
				<radialGradient id="SVGID_2_" cx="167.77" cy="73.7235" r="33.6694" gradientUnits="userSpaceOnUse">
					<stop  offset="0" style="stop-color:#8CBB69"/>
					<stop  offset="0.7837" style="stop-color:#6BAD44"/>
				</radialGradient>
				<path class="st1" d="M164.317,39.307c17.973-1.905,34.074,11.132,35.979,29.105c1.903,17.941-11.133,34.043-29.073,35.945
					c-4.614,0.484-9.067,0-13.23-1.291l-13.617,5.26l3.324-10.648c-6.777-5.292-11.487-13.197-12.456-22.394
					C133.341,57.312,146.376,41.211,164.317,39.307L164.317,39.307z M163.02,93.384h9.39c-0.05-0.549-0.1-1.073-0.148-1.624h-9.066
					C163.12,92.311,163.069,92.835,163.02,93.384L163.02,93.384z M166.942,77.001c0.223,0.248,0.223,0.649-0.052,0.875
					c-0.249,0.249-0.624,0.225-0.874-0.025c-0.099-0.148-0.324-0.351-0.624-0.574c0.024,0.6,0.274,1.148,0.699,1.572
					c0.399,0.4,0.974,0.674,1.624,0.674c0.648,0,1.223-0.273,1.647-0.674l0,0c0.4-0.424,0.649-0.973,0.675-1.572
					c-0.299,0.224-0.5,0.426-0.624,0.574c-0.226,0.25-0.624,0.274-0.874,0.025c-0.275-0.226-0.275-0.627-0.051-0.875
					c0.199-0.223,0.648-0.598,1.174-1.049c-0.076-0.149-0.199-0.274-0.3-0.375c-0.425-0.423-0.999-0.699-1.647-0.699
					c-0.65,0-1.225,0.276-1.648,0.676c-0.1,0.124-0.199,0.249-0.301,0.398C166.292,76.403,166.741,76.778,166.942,77.001
					L166.942,77.001z M164.269,76.327c-1.023-0.824-2.123-1.648-2.123-1.648c-0.274-0.2-0.324-0.574-0.125-0.849l0.025-0.05l0,0
					l2.797-3.222c0.226-0.249,0.625-0.275,0.875-0.075c0.25,0.225,0.299,0.625,0.074,0.898l-2.373,2.723
					c0.351,0.275,0.85,0.649,1.375,1.072c0.124-0.172,0.25-0.348,0.398-0.498l0,0c0.648-0.625,1.549-1.024,2.523-1.024
					c0.973,0,1.871,0.399,2.522,1.024c0.149,0.15,0.273,0.326,0.398,0.498c0.525-0.423,1.025-0.797,1.374-1.072l-2.348-2.723
					c-0.225-0.273-0.199-0.674,0.05-0.898c0.25-0.2,0.649-0.174,0.875,0.075l2.798,3.222l0,0l0.023,0.05
					c0.199,0.274,0.15,0.648-0.125,0.849c0,0-1.074,0.824-2.122,1.648c0.074,0.275,0.124,0.574,0.124,0.875
					c0,0.974-0.398,1.871-1.048,2.521l0,0l0,0l0,0c-0.651,0.649-1.55,1.049-2.522,1.049c-0.975,0-1.875-0.399-2.523-1.049
					c-0.623-0.65-1.023-1.548-1.023-2.521C164.169,76.901,164.194,76.603,164.269,76.327L164.269,76.327z M172.46,94.632h-9.49
					v0.176c0,0.199,0.1,0.375,0.225,0.498c0.124,0.127,0.299,0.202,0.474,0.202h8.093c0.175,0,0.35-0.075,0.474-0.202
					c0.15-0.123,0.225-0.299,0.225-0.498V94.632z M162.246,87.49c0-0.325,0.025-0.624,0.075-0.924c0-0.075,0.025-0.149,0.025-0.25
					c0-0.024-0.025-0.051-0.051-0.101c-2.572-1.047-4.795-2.822-6.369-5.068c-1.647-2.348-2.621-5.195-2.621-8.291
					c0-3.996,1.598-7.594,4.221-10.189c2.598-2.622,6.219-4.247,10.189-4.247c3.971,0,7.592,1.625,10.188,4.247
					c2.622,2.596,4.22,6.193,4.22,10.189c0,3.096-0.973,5.943-2.622,8.291c-1.573,2.246-3.796,4.021-6.368,5.068
					c-0.023,0.05-0.023,0.076-0.049,0.101c0,0.101,0.025,0.175,0.025,0.25c0.049,0.3,0.073,0.599,0.073,0.924
					c0,1.449,0.126,2.648,0.251,3.797c0.15,1.147,0.249,2.245,0.249,3.521c0,0.55-0.199,1.023-0.55,1.373
					c-0.35,0.351-0.848,0.573-1.372,0.573h-8.093c-0.523,0-0.998-0.223-1.373-0.573c-0.35-0.35-0.549-0.823-0.549-1.373
					c0-1.275,0.124-2.373,0.25-3.521C162.12,90.138,162.246,88.939,162.246,87.49L162.246,87.49z M163.545,86.741
					c-0.025,0.251-0.051,0.474-0.051,0.749v0.175h8.442V87.49c0-0.275-0.025-0.498-0.051-0.749c0-0.05-0.025-0.1-0.025-0.15h-8.291
					C163.569,86.642,163.545,86.691,163.545,86.741L163.545,86.741z M163.444,88.914c-0.025,0.575-0.074,1.099-0.125,1.624h8.792
					c-0.051-0.525-0.101-1.049-0.125-1.624H163.444z M171.96,85.342c0.051-0.024,0.101-0.05,0.151-0.074
					c2.597-0.899,4.818-2.622,6.368-4.819c1.523-2.147,2.422-4.771,2.422-7.592c0-3.646-1.475-6.944-3.872-9.314
					c-2.371-2.398-5.667-3.872-9.313-3.872c-3.646,0-6.943,1.474-9.316,3.872c-2.396,2.37-3.87,5.668-3.87,9.314
					c0,2.821,0.898,5.444,2.422,7.592c1.548,2.197,3.772,3.92,6.368,4.819l0,0c0.051,0.024,0.1,0.05,0.15,0.074H171.96z
					 M167.267,53.226h0.899v-5.594h-0.899V53.226z M151.432,63.84l-0.324,0.823l-3.97-1.597l0.35-0.849L151.432,63.84z
					 M161.322,54.399l-0.824,0.35l-1.624-3.943l0.824-0.351L161.322,54.399z M150.358,67.161l-0.175,0.899l-2.747-0.524l0.175-0.9
					L150.358,67.161z M153.155,60.793l-0.499,0.749l-2.323-1.547l0.476-0.751L153.155,60.793z M158.15,55.999l-0.749,0.498
					l-1.574-2.297l0.75-0.525L158.15,55.999z M164.618,53.476l-0.873,0.199l-0.55-2.746l0.874-0.176L164.618,53.476z
					 M150.209,53.126l-0.625,0.65l0.575,0.574l0.624-0.651L150.209,53.126z M155.353,58.197l-0.623,0.648l-3.996-3.922l0.649-0.648
					L155.353,58.197z M183.998,63.84l0.324,0.823l3.972-1.597l-0.324-0.849L183.998,63.84z M174.108,54.399l0.824,0.35l1.649-3.943
					l-0.85-0.351L174.108,54.399z M185.072,67.161l0.175,0.899l2.748-0.524l-0.176-0.9L185.072,67.161z M182.274,60.793l0.5,0.749
					l2.322-1.547l-0.475-0.751L182.274,60.793z M177.28,55.999l0.75,0.498l1.572-2.297l-0.75-0.525L177.28,55.999z M170.812,53.476
					l0.875,0.199l0.574-2.746l-0.899-0.176L170.812,53.476z M185.222,53.126l0.648,0.65l-0.598,0.574l-0.625-0.651L185.222,53.126z
					 M167.267,45.984h0.899v0.824h-0.899V45.984z M180.077,58.197l0.625,0.648l3.995-3.922l-0.624-0.648L180.077,58.197z"/>
			</g>
			<g id="Line_Attribut_1_">
				<path d="M328.59,19.462h0.451l0.452,0.033h0.452l0.355,0.031c0.482,0,0.838,0.418,0.808,0.871c0,0.484-0.421,0.84-0.873,0.84
					l-0.355-0.033h-0.45l-0.452-0.033h-0.452l-0.451-0.031h-0.452h-0.227c-0.482,0-0.838-0.387-0.838-0.871
					c0-0.451,0.386-0.84,0.838-0.84h0.259h0.452L328.59,19.462z M323.944,19.495c0.484-0.033,0.871,0.322,0.904,0.805
					c0,0.485-0.355,0.871-0.839,0.904h-0.391l-0.417,0.033h-0.451l-0.422,0.033c-0.449,0.03-0.871-0.324-0.901-0.809
					c-0.033-0.451,0.322-0.871,0.805-0.903h0.42l0.454-0.032l0.449-0.031H323.944z M318.781,19.882
					c0.485-0.064,0.904,0.258,0.937,0.74c0.064,0.453-0.259,0.904-0.743,0.938l-0.163,0.031l-0.449,0.033l-0.419,0.064l-0.422,0.064
					l-0.226,0.031c-0.45,0.065-0.902-0.29-0.968-0.741c-0.064-0.452,0.259-0.903,0.744-0.968l0.224-0.031l0.419-0.066l0.452-0.033
					l0.452-0.063H318.781z M313.651,20.622c0.449-0.096,0.904,0.227,1,0.679c0.098,0.483-0.226,0.903-0.678,1.001l-0.322,0.063
					l-0.419,0.099l-0.421,0.063l-0.42,0.097h-0.063c-0.485,0.097-0.937-0.193-1.033-0.645c-0.097-0.453,0.192-0.904,0.678-1.002
					l0.065-0.031l0.42-0.098l0.449-0.063l0.422-0.097L313.651,20.622z M308.585,21.753c0.452-0.097,0.935,0.162,1.064,0.612
					c0.096,0.452-0.16,0.937-0.612,1.033l-0.389,0.13l-0.419,0.096l-0.42,0.13l-0.419,0.097c-0.452,0.129-0.903-0.129-1.033-0.582
					c-0.128-0.451,0.13-0.903,0.581-1.031l0.42-0.129l0.42-0.129l0.418-0.098L308.585,21.753z M303.647,23.268
					c0.419-0.16,0.938,0.098,1.065,0.518c0.161,0.451-0.064,0.935-0.517,1.097h-0.032l-0.419,0.161l-0.389,0.129l-0.387,0.129
					l-0.354,0.162c-0.453,0.162-0.938-0.065-1.098-0.516c-0.162-0.453,0.032-0.937,0.483-1.098l0.355-0.129l0.419-0.162l0.419-0.129
					l0.421-0.162H303.647z M298.808,25.141c0.42-0.192,0.936,0,1.098,0.452c0.193,0.419,0,0.935-0.42,1.098l-0.064,0.032
					l-0.388,0.16l-0.387,0.163l-0.388,0.192l-0.322,0.13c-0.451,0.226-0.936,0.031-1.13-0.42c-0.192-0.421-0.032-0.937,0.419-1.129
					l0.324-0.162l0.419-0.161l0.386-0.162l0.389-0.193H298.808z M294.097,27.335c0.42-0.226,0.936-0.031,1.161,0.387
					c0.226,0.388,0.065,0.904-0.354,1.129l-0.033,0.033l-0.386,0.193l-0.355,0.194l-0.388,0.192l-0.322,0.195
					c-0.42,0.226-0.938,0.065-1.162-0.355c-0.226-0.42-0.098-0.936,0.322-1.161l0.355-0.193l0.387-0.195l0.354-0.192l0.39-0.193
					L294.097,27.335z M289.579,29.885c0.419-0.259,0.936-0.13,1.193,0.29c0.227,0.388,0.13,0.936-0.291,1.161l0,0l-0.354,0.226
					l-0.354,0.227l-0.355,0.225l-0.355,0.228l0,0c-0.388,0.258-0.936,0.161-1.192-0.258c-0.26-0.388-0.13-0.904,0.256-1.163l0,0
					l0.388-0.257l0.355-0.226l0.355-0.227L289.579,29.885L289.579,29.885z M285.287,32.757c0.355-0.259,0.903-0.195,1.194,0.193
					c0.258,0.387,0.162,0.902-0.195,1.193l-0.322,0.227l-0.321,0.226l-0.355,0.257l-0.323,0.259l-0.031,0.032
					c-0.387,0.29-0.935,0.227-1.226-0.162c-0.258-0.386-0.193-0.902,0.162-1.193l0.064-0.031l0.356-0.258l0.321-0.26l0.354-0.256
					L285.287,32.757z M281.189,35.95c0.355-0.323,0.871-0.258,1.194,0.098c0.289,0.355,0.258,0.903-0.098,1.193l-0.258,0.193
					l-0.322,0.291l-0.323,0.258l-0.29,0.291l-0.096,0.064c-0.355,0.322-0.904,0.289-1.195-0.064
					c-0.321-0.355-0.289-0.904,0.064-1.227l0.097-0.064l0.323-0.29l0.322-0.291l0.323-0.258L281.189,35.95z M277.317,39.403
					c0.355-0.322,0.871-0.322,1.227,0c0.322,0.355,0.29,0.904-0.032,1.226l-0.193,0.161l-0.292,0.29l-0.289,0.29l-0.291,0.323
					l-0.129,0.129c-0.322,0.322-0.871,0.322-1.227,0c-0.322-0.322-0.322-0.871,0-1.193l0.129-0.162l0.291-0.29l0.322-0.291
					l0.291-0.322L277.317,39.403z M273.735,43.146c0.29-0.355,0.84-0.388,1.194-0.097c0.354,0.322,0.388,0.871,0.064,1.226
					l-0.127,0.129l-0.26,0.32l-0.29,0.324l-0.258,0.291l-0.161,0.193c-0.322,0.355-0.84,0.418-1.226,0.096
					c-0.355-0.289-0.388-0.838-0.098-1.193l0.161-0.193l0.291-0.322l0.291-0.322l0.29-0.322L273.735,43.146z M270.412,47.114
					c0.291-0.387,0.808-0.451,1.194-0.161c0.387,0.291,0.451,0.841,0.161,1.194l-0.097,0.129l-0.259,0.322l-0.226,0.324
					l-0.258,0.354l-0.193,0.227c-0.259,0.387-0.807,0.452-1.195,0.193c-0.354-0.291-0.45-0.807-0.161-1.193l0.161-0.26l0.259-0.354
					l0.259-0.323l0.258-0.354L270.412,47.114z M267.38,51.342c0.258-0.419,0.805-0.516,1.193-0.258
					c0.387,0.258,0.517,0.806,0.258,1.194l-0.065,0.064l-0.226,0.355l-0.227,0.354l-0.226,0.355l-0.192,0.29
					c-0.258,0.388-0.773,0.517-1.161,0.258c-0.42-0.258-0.518-0.774-0.29-1.161l0.193-0.322l0.225-0.355l0.227-0.355l0.258-0.354
					L267.38,51.342z M264.7,55.763c0.227-0.42,0.742-0.581,1.163-0.355c0.388,0.26,0.548,0.775,0.322,1.193l-0.033,0.033
					l-0.225,0.387l-0.195,0.355l-0.192,0.387l-0.161,0.291c-0.226,0.419-0.743,0.582-1.162,0.355
					c-0.419-0.194-0.581-0.711-0.354-1.13l0.161-0.355l0.226-0.354l0.193-0.387l0.227-0.388L264.7,55.763z M262.314,60.345
					c0.192-0.42,0.71-0.58,1.129-0.387c0.42,0.193,0.613,0.709,0.42,1.128l-0.033,0.065l-0.16,0.356l-0.193,0.387l-0.162,0.387
					l-0.162,0.323c-0.193,0.45-0.676,0.646-1.129,0.45c-0.42-0.192-0.612-0.676-0.42-1.129l0.13-0.322l0.193-0.42l0.193-0.387
					l0.163-0.388L262.314,60.345z M255.763,98.128c-0.031-0.482,0.322-0.869,0.808-0.934c0.451-0.033,0.872,0.322,0.902,0.807
					l0.032,0.355l0.032,0.418l0.034,0.453l0.03,0.418v0.032c0.064,0.452-0.29,0.871-0.741,0.937
					c-0.484,0.032-0.904-0.291-0.936-0.773v-0.033l-0.064-0.42l-0.033-0.451l-0.032-0.453L255.763,98.128z M256.313,103.26
					c-0.065-0.45,0.258-0.871,0.741-0.968c0.451-0.064,0.903,0.258,0.968,0.742v0.098l0.065,0.418l0.064,0.453l0.065,0.419
					l0.064,0.259c0.063,0.482-0.227,0.935-0.709,1c-0.453,0.064-0.904-0.227-0.97-0.711l-0.065-0.289l-0.064-0.422l-0.064-0.45
					l-0.065-0.419L256.313,103.26z M257.247,108.392c-0.097-0.485,0.195-0.937,0.646-1.034c0.482-0.097,0.936,0.194,1.031,0.646
					l0.033,0.225l0.096,0.421l0.098,0.418l0.097,0.421l0.064,0.161c0.097,0.451-0.161,0.902-0.647,1.032
					c-0.45,0.13-0.902-0.161-1.031-0.613l-0.033-0.192l-0.097-0.421l-0.097-0.419l-0.097-0.452L257.247,108.392z M258.538,113.392
					c-0.129-0.451,0.128-0.936,0.58-1.064c0.452-0.129,0.935,0.129,1.064,0.582l0.098,0.289l0.129,0.388l0.129,0.42l0.13,0.418
					l0.032,0.098c0.129,0.452-0.098,0.935-0.548,1.064c-0.452,0.162-0.937-0.097-1.099-0.549l-0.031-0.097l-0.13-0.419l-0.128-0.419
					l-0.129-0.42L258.538,113.392z M260.216,118.297c-0.162-0.419,0.064-0.937,0.484-1.097c0.451-0.162,0.936,0.064,1.097,0.483
					l0.129,0.322l0.161,0.389l0.161,0.386l0.163,0.42l0.03,0.064c0.162,0.42-0.03,0.936-0.483,1.097
					c-0.418,0.194-0.936,0-1.098-0.452l-0.031-0.096l-0.161-0.388l-0.162-0.386l-0.161-0.421L260.216,118.297z M262.248,123.072
					c-0.226-0.419-0.031-0.935,0.387-1.13c0.42-0.193,0.936-0.031,1.13,0.419c1.389,2.937-0.193,3.454-0.773,2.291l-0.033-0.097
					l-0.193-0.387l-0.193-0.387l-0.193-0.387L262.248,123.072z M376.702,39.919c0.355,0.355,0.355,0.872,0.03,1.227
					c-0.322,0.322-0.871,0.322-1.227,0l-0.16-0.162l-0.292-0.29l-0.32-0.29l-0.292-0.291l-0.129-0.128
					c-0.355-0.322-0.387-0.871-0.063-1.193c0.322-0.355,0.871-0.389,1.226-0.065l0.129,0.129l0.322,0.322l0.29,0.291l0.322,0.291
					L376.702,39.919z M372.893,36.435c0.356,0.291,0.419,0.839,0.097,1.193c-0.29,0.355-0.838,0.419-1.193,0.098l-0.16-0.129
					l-0.323-0.258l-0.289-0.26l-0.325-0.258l-0.193-0.161c-0.386-0.29-0.419-0.838-0.129-1.193c0.292-0.389,0.84-0.452,1.193-0.13
					l0.195,0.162l0.322,0.258l0.323,0.258l0.355,0.29L372.893,36.435z M368.829,33.208c0.386,0.291,0.482,0.807,0.19,1.193
					c-0.289,0.387-0.805,0.451-1.191,0.194l-0.099-0.097l-0.354-0.227l-0.322-0.258l-0.355-0.226l-0.259-0.193
					c-0.386-0.258-0.485-0.807-0.193-1.193c0.259-0.389,0.808-0.452,1.194-0.193l0.225,0.16l0.355,0.26l0.354,0.258l0.355,0.258
					L368.829,33.208z M364.535,30.304c0.421,0.226,0.551,0.774,0.292,1.162c-0.26,0.419-0.775,0.517-1.194,0.291l-0.065-0.065
					l-0.353-0.226l-0.355-0.227l-0.355-0.193l-0.292-0.193c-0.419-0.227-0.546-0.742-0.32-1.161c0.257-0.42,0.774-0.548,1.194-0.292
					l0.289,0.162l0.355,0.227l0.387,0.227l0.355,0.225L364.535,30.304z M360.05,27.69c0.422,0.227,0.582,0.742,0.355,1.16
					c-0.193,0.421-0.741,0.582-1.128,0.355l-0.066-0.031l-0.389-0.194l-0.386-0.192l-0.354-0.193l-0.322-0.162
					c-0.422-0.193-0.582-0.711-0.389-1.129c0.224-0.453,0.741-0.613,1.161-0.388l0.322,0.161l0.389,0.193l0.386,0.193l0.355,0.193
					L360.05,27.69z M355.405,25.432c0.419,0.194,0.611,0.71,0.419,1.129c-0.16,0.419-0.679,0.612-1.098,0.452l-0.097-0.033
					l-0.386-0.193l-0.389-0.161l-0.388-0.161l-0.323-0.129c-0.419-0.16-0.645-0.678-0.452-1.098
					c0.195-0.452,0.679-0.645,1.098-0.484l0.324,0.13l0.42,0.161l0.386,0.193l0.421,0.161L355.405,25.432z M350.564,23.528
					c0.452,0.16,0.678,0.645,0.549,1.097c-0.16,0.419-0.645,0.677-1.098,0.516l-0.129-0.032l-0.387-0.16l-0.388-0.13l-0.42-0.13
					l-0.289-0.096c-0.452-0.16-0.679-0.646-0.551-1.098c0.162-0.42,0.647-0.678,1.097-0.516l0.292,0.063l0.419,0.163l0.389,0.128
					l0.419,0.161L350.564,23.528z M345.627,21.979c0.452,0.096,0.742,0.58,0.615,1.031c-0.13,0.451-0.615,0.743-1.066,0.613
					l-0.163-0.065l-0.417-0.098l-0.421-0.128l-0.419-0.097l-0.193-0.065c-0.452-0.098-0.741-0.549-0.645-1.033
					c0.127-0.451,0.579-0.709,1.031-0.613l0.226,0.064l0.421,0.098l0.417,0.096l0.42,0.131L345.627,21.979z M340.594,20.785
					c0.452,0.097,0.742,0.516,0.678,0.999c-0.096,0.453-0.551,0.743-1,0.68l-0.322-0.066l-0.422-0.096l-0.452-0.064l-0.417-0.066
					l-0.065-0.032c-0.452-0.064-0.774-0.516-0.678-0.969c0.065-0.483,0.517-0.774,0.968-0.709h0.066l0.452,0.098l0.419,0.063
					l0.452,0.098L340.594,20.785z M335.464,19.944c0.484,0.066,0.806,0.485,0.741,0.969c-0.064,0.453-0.484,0.807-0.937,0.743
					h-0.097l-0.419-0.065l-0.452-0.031l-0.419-0.065l-0.29-0.03c-0.484-0.033-0.807-0.453-0.774-0.938
					c0.033-0.451,0.45-0.807,0.935-0.742l0.292,0.033l0.45,0.031l0.454,0.065l0.45,0.03H335.464z"/>
				<path d="M217.462,66.701c0,0.485-0.388,0.838-0.839,0.838c-0.484,0-0.871-0.353-0.871-0.838v-1.71
					c0-0.484,0.387-0.839,0.871-0.839c0.451,0,0.839,0.354,0.839,0.839V66.701z M353.5,92.321c0.485,0,0.873,0.388,0.873,0.84
					c0,0.482-0.388,0.871-0.873,0.871h-1.709c-0.452,0-0.838-0.389-0.838-0.871c0-0.452,0.386-0.84,0.838-0.84H353.5z
					 M348.37,92.321c0.482,0,0.871,0.388,0.871,0.84c0,0.482-0.389,0.871-0.871,0.871h-1.679c-0.482,0-0.871-0.389-0.871-0.871
					c0-0.452,0.389-0.84,0.871-0.84H348.37z M343.27,92.321c0.452,0,0.841,0.388,0.841,0.84c0,0.482-0.389,0.871-0.841,0.871h-1.709
					c-0.482,0-0.871-0.389-0.871-0.871c0-0.452,0.389-0.84,0.871-0.84H343.27z M338.141,92.321c0.485,0,0.841,0.388,0.841,0.84
					c0,0.482-0.356,0.871-0.841,0.871h-1.709c-0.483,0-0.841-0.389-0.841-0.871c0-0.452,0.357-0.84,0.841-0.84H338.141z
					 M333.011,92.321c0.482,0,0.871,0.388,0.871,0.84c0,0.482-0.389,0.871-0.871,0.871h-1.709c-0.452,0-0.841-0.389-0.841-0.871
					c0-0.452,0.389-0.84,0.841-0.84H333.011z M327.881,92.321c0.484,0,0.871,0.388,0.871,0.84c0,0.482-0.387,0.871-0.871,0.871
					h-1.712c-0.449,0-0.838-0.389-0.838-0.871c0-0.452,0.389-0.84,0.838-0.84H327.881z M322.783,92.321
					c0.45,0,0.836,0.388,0.836,0.84c0,0.482-0.386,0.871-0.836,0.871h-1.711c-0.483,0-0.871-0.389-0.871-0.871
					c0-0.452,0.388-0.84,0.871-0.84H322.783z M317.651,92.321c0.452,0,0.838,0.388,0.838,0.84c0,0.482-0.386,0.871-0.838,0.871
					h-1.709c-0.485,0-0.873-0.389-0.873-0.871c0-0.452,0.388-0.84,0.873-0.84H317.651z M281.803,92.321
					c0.451,0,0.839,0.388,0.839,0.84c0,0.482-0.388,0.871-0.839,0.871h-1.71c-0.484,0-0.873-0.389-0.873-0.871
					c0-0.452,0.389-0.84,0.873-0.84H281.803z M276.672,92.321c0.452,0,0.839,0.388,0.839,0.84c0,0.482-0.387,0.871-0.839,0.871
					h-1.71c-0.483,0-0.871-0.389-0.871-0.871c0-0.452,0.388-0.84,0.871-0.84H276.672z M271.542,92.321
					c0.482,0,0.839,0.388,0.839,0.84c0,0.482-0.357,0.871-0.839,0.871h-1.71c-0.453,0-0.839-0.389-0.839-0.871
					c0-0.452,0.386-0.84,0.839-0.84H271.542z M266.411,92.321c0.484,0,0.871,0.388,0.871,0.84c0,0.482-0.387,0.871-0.871,0.871
					H264.7c-0.451,0-0.838-0.389-0.838-0.871c0-0.452,0.387-0.84,0.838-0.84H266.411z M261.313,92.321
					c0.452,0,0.841,0.388,0.841,0.84c0,0.482-0.389,0.871-0.841,0.871h-1.71c-0.484,0-0.871-0.389-0.871-0.871
					c0-0.452,0.387-0.84,0.871-0.84H261.313z M256.184,92.321c0.451,0,0.838,0.388,0.838,0.84c0,0.482-0.387,0.871-0.838,0.871
					h-1.711c-0.483,0-0.872-0.389-0.872-0.871c0-0.452,0.389-0.84,0.872-0.84H256.184z M251.052,92.321
					c0.484,0,0.84,0.388,0.84,0.84c0,0.482-0.355,0.871-0.84,0.871h-1.709c-0.485,0-0.84-0.389-0.84-0.871
					c0-0.452,0.355-0.84,0.84-0.84H251.052z M245.922,92.321c0.483,0,0.87,0.388,0.87,0.84c0,0.482-0.387,0.871-0.87,0.871h-1.71
					c-0.453,0-0.839-0.389-0.839-0.871c0-0.452,0.386-0.84,0.839-0.84H245.922z M241.663,93.095c0,0,0,0.033,0,0.066
					c0,0.482-0.389,0.838-0.841,0.871h-0.03l0,0c-0.453,0-0.84-0.389-0.84-0.871V91.45c0-0.453,0.387-0.839,0.84-0.839
					c0.482,0,0.871,0.386,0.871,0.839V93.095z M241.663,88.062c0,0.452-0.389,0.84-0.871,0.84c-0.453,0-0.84-0.388-0.84-0.84v-1.709
					c0-0.484,0.387-0.871,0.84-0.871c0.482,0,0.871,0.387,0.871,0.871V88.062z M241.663,82.932c0,0.452-0.389,0.839-0.871,0.839
					c-0.453,0-0.84-0.387-0.84-0.839v-1.71c0-0.484,0.387-0.871,0.84-0.871c0.482,0,0.871,0.387,0.871,0.871V82.932z M241.663,77.8
					c0,0.484-0.389,0.873-0.871,0.873c-0.453,0-0.84-0.389-0.84-0.873v-1.71c0-0.45,0.387-0.838,0.84-0.838
					c0.482,0,0.871,0.388,0.871,0.838V77.8z M241.663,72.671c0,0.483-0.389,0.871-0.871,0.871c-0.453,0-0.84-0.388-0.84-0.871V70.96
					c0-0.452,0.387-0.838,0.84-0.838c0.482,0,0.871,0.386,0.871,0.838V72.671z M241.663,67.572c0,0.452-0.389,0.839-0.871,0.839
					c-0.453,0-0.84-0.387-0.84-0.839v-1.71c0-0.484,0.387-0.871,0.84-0.871c0.482,0,0.871,0.387,0.871,0.871V67.572z
					 M241.663,62.442c0,0.451-0.389,0.838-0.871,0.838c-0.453,0-0.84-0.387-0.84-0.838v-1.711c0-0.483,0.387-0.871,0.84-0.871
					c0.482,0,0.871,0.388,0.871,0.871V62.442z M241.663,57.312c0,0.483-0.389,0.839-0.871,0.839c-0.453,0-0.84-0.355-0.84-0.839
					v-1.711c0-0.483,0.387-0.838,0.84-0.838c0.482,0,0.871,0.355,0.871,0.838V57.312z M237.661,54.472
					c0.484,0,0.871,0.387,0.871,0.84c0,0.483-0.387,0.871-0.871,0.871h-1.71c-0.452,0-0.839-0.388-0.839-0.871
					c0-0.453,0.387-0.84,0.839-0.84H237.661z M232.563,54.472c0.451,0,0.838,0.387,0.838,0.84c0,0.483-0.387,0.871-0.838,0.871
					h-1.71c-0.485,0-0.872-0.388-0.872-0.871c0-0.453,0.387-0.84,0.872-0.84H232.563z M227.433,54.472
					c0.451,0,0.838,0.387,0.838,0.84c0,0.483-0.387,0.871-0.838,0.871h-1.711c-0.483,0-0.87-0.388-0.87-0.871
					c0-0.453,0.387-0.84,0.87-0.84H227.433z M222.302,54.472c0.484,0,0.871,0.387,0.871,0.84c0,0.483-0.387,0.871-0.871,0.871h-1.71
					c-0.452,0-0.839-0.388-0.839-0.871c0-0.453,0.387-0.84,0.839-0.84H222.302z M217.171,54.472c0.484,0,0.871,0.387,0.871,0.84
					c0,0.387-0.258,0.709-0.58,0.806v0.323c0,0.483-0.388,0.871-0.839,0.871c-0.484,0-0.871-0.388-0.871-0.871v-1.129
					c0-0.453,0.387-0.84,0.871-0.84H217.171z M215.752,59.86c0-0.451,0.387-0.839,0.871-0.839c0.451,0,0.839,0.388,0.839,0.839
					v1.711c0,0.483-0.388,0.871-0.839,0.871c-0.484,0-0.871-0.388-0.871-0.871V59.86z"/>
			</g>
			<g id="Black_Attribut_1_">
				<path d="M245.631,106.486c-0.419,2.905-1.903,5.519-4.033,7.357c-2.098,1.807-4.841,2.936-7.841,2.936h-19.038
					c-0.128,0-0.259-0.032-0.452-0.032c-0.193,0-0.322,0-0.451,0v-0.031c-3.098-0.227-5.872-1.679-7.874-3.84
					c-2-2.162-3.225-5.033-3.225-8.164v-30.88v-0.871h0.87h22.427h0.839v0.871v31.687h17.94h0.969L245.631,106.486z M208.169,80.641
					h13.648v1.581h-13.648V80.641z M208.169,100.292h13.648v1.549h-13.648V100.292z M208.169,93.741h13.648v1.549h-13.648V93.741z
					 M208.169,87.19h13.648v1.582h-13.648V87.19z M215.429,114.779L215.429,114.779h0.032l0.064-0.032
					c0.129-0.032,0.227-0.032,0.323-0.064l0,0l0.031-0.033h0.064c0.098-0.031,0.227-0.064,0.323-0.096l0,0l0.032-0.032h0.064
					l0.033-0.032l0.064-0.032h0.033l0.063-0.033h0.033l0.064-0.032h0.064l0.031-0.032h0.064l0.064-0.032l0.033-0.031h0.064
					l0.033-0.033l0.063-0.031h0.032l0.064-0.032l0.032-0.033h0.065l0.031-0.032l0.066-0.031h0.032l0.064-0.033l0.031-0.033
					l0.065-0.03h0.032l0.193-0.098l0.032-0.032l0.064-0.032l0.032-0.033l0.064-0.03h0.033l0.064-0.033l0.032-0.033l0.063-0.031
					c0.098-0.032,0.162-0.097,0.259-0.162l0,0l0.032-0.032l0.064-0.033c0.258-0.127,0.484-0.29,0.709-0.482l0,0h0.033l0.064-0.063
					c0.162-0.13,0.322-0.26,0.484-0.42l0,0c0.096-0.065,0.161-0.13,0.226-0.195l0.032-0.031l0.064-0.031v-0.033l0.064-0.064
					l0.064-0.065h0.033l0.064-0.063l0.064-0.097l0,0l0.064-0.066l0.031-0.031l0.065-0.065l0.064-0.063l0,0l0.064-0.098l0,0
					l0.066-0.064h0.031l0.032-0.098h0.032l0.064-0.063l0,0l0.064-0.098l0,0l0.064-0.066v-0.03l0.064-0.066l0,0l0.065-0.096l0,0
					l0.063-0.065l0,0l0.064-0.097l0,0l0.066-0.098l0,0l0.063-0.063v-0.032l0.065-0.064l0,0l0.064-0.096l0,0l0.032-0.098h0.033
					l0.031-0.065v-0.032l0.064-0.064l0,0l0.064-0.096l0,0l0.064-0.098l0,0l0.033-0.096l0,0l0.064-0.098l0,0l0.064-0.098l0,0
					l0.032-0.064v-0.031l0.065-0.064v-0.033l0.032-0.063v-0.033l0.064-0.063v-0.033l0.032-0.064v-0.031l0.063-0.066v-0.032
					l0.033-0.065v-0.032l0.064-0.096l0,0l0.033-0.098l0,0l0.031-0.096l0,0l0.064-0.098l0,0l0.033-0.097l0,0l0.031-0.097l0,0
					l0.033-0.096l0,0l0.064-0.098v-0.032l0.031-0.097l0,0l0.033-0.097l0,0l0.032-0.098l0,0l0.031-0.098l0,0l0.032-0.095v-0.032
					l0.033-0.098l0,0l0.031-0.097l0,0l0.033-0.097l0,0l0.033-0.13l0,0l0,0l0.031-0.16v-0.033l0,0l0.032-0.129l0,0l0.032-0.096l0,0
					v-0.098l0,0l0.033-0.13l0,0l0.031-0.097l0,0v-0.097v-0.032l0.033-0.098l0,0v-0.096l0.129-0.742h0.742h1.064V74.671h-20.716
					v30.041c0,2.679,1.065,5.164,2.774,7.002c1.711,1.872,4.066,3.098,6.712,3.323C214.429,114.974,214.944,114.907,215.429,114.779
					L215.429,114.779z M240.47,112.554c1.611-1.387,2.773-3.229,3.289-5.324h-16.907h-2.065l-0.032,0.096l0,0l-0.032,0.13l0,0
					l-0.033,0.097v0.031l-0.031,0.098l0,0v0.129h-0.031v0.097l0,0l-0.033,0.13l-0.032,0.096l0,0l-0.032,0.097v0.033l-0.032,0.097
					h-0.032l-0.032,0.096l0,0l-0.032,0.13l0,0l-0.064,0.194v0.031l-0.032,0.098l0,0l-0.064,0.096l0,0l-0.032,0.13l0,0l-0.033,0.097
					l0,0l-0.031,0.096h-0.033l-0.031,0.098v0.032l-0.033,0.097l0,0l-0.064,0.098l0,0l-0.032,0.096l0,0l-0.064,0.098v0.033
					l-0.033,0.096l0,0l-0.064,0.097l0,0l-0.032,0.098h-0.032l-0.033,0.096l0,0l-0.063,0.097v0.033l-0.032,0.064v0.033l-0.064,0.096
					l0,0l-0.064,0.097l0,0l-0.064,0.097l0,0l-0.033,0.097h-0.031l-0.033,0.097l0,0l-0.064,0.098l0,0l-0.064,0.098l0,0l-0.064,0.096
					l0,0l-0.064,0.098l0,0l-0.064,0.096l0,0l-0.064,0.097l0,0l-0.066,0.097l0,0l-0.063,0.064v0.032l-0.064,0.065v0.031l-0.064,0.066
					v0.03l-0.064,0.066l0,0l-0.064,0.097l0,0l-0.064,0.063l-0.033,0.033l-0.031,0.065l-0.033,0.031l-0.064,0.065l0,0l-0.064,0.097
					l0,0l-0.064,0.064l-0.032,0.033l-0.032,0.063l-0.032,0.032l-0.065,0.064l-0.064,0.065l0,0l-0.031,0.032l-0.065,0.064l0,0
					l-0.064,0.097l0,0l-0.064,0.064l-0.033,0.032l-0.064,0.064l0,0l-0.065,0.064l-0.032,0.033l-0.065,0.063l0,0l-0.063,0.063
					l-0.033,0.033l-0.064,0.063l0,0l-0.064,0.065h-0.032l-0.032,0.033l-0.033,0.032v0.032h-0.031l-0.033,0.064h-0.031l-0.064,0.064
					l-0.033,0.033l0,0c-0.29,0.226-0.58,0.483-0.871,0.677l0,0c-0.291,0.226-0.58,0.42-0.871,0.613h14.553
					C236.338,115.07,238.661,114.103,240.47,112.554L240.47,112.554z"/>
				<path d="M262.346,82.318v3.452h12.358v-1.709v-1.743H262.346z M248.342,87.546h3.001V76.575h-1.484h-1.517V87.546z
					 M251.892,88.708h-4.1c-0.322,0-0.58-0.26-0.58-0.582V75.993l0,0l0,0l0,0l0,0l0,0V75.93l0,0l0,0v-0.032l0,0l0,0l0,0l0,0l0,0l0,0
					l0.032-0.032l0,0l0,0v-0.032l0,0V75.8l0,0l0,0l0,0v-0.032l0,0l0,0h0.033l0,0v-0.03c0,0,0.032-0.033,0.032-0.066l0,0l0,0l0,0l0,0
					l0,0l0,0l0.031-0.031l0,0l0,0l0,0l0,0l2.032-3.034c0.163-0.259,0.517-0.322,0.776-0.161c0.064,0.064,0.129,0.098,0.16,0.161
					l2.033,3.034c0.096,0.098,0.129,0.226,0.129,0.354v12.133C252.472,88.448,252.214,88.708,251.892,88.708L251.892,88.708z
					 M249.858,73.929l-1.001,1.518h1.001h0.968L249.858,73.929z M253.439,67.476l2.873-4.259c0.16-0.259,0.516-0.323,0.773-0.163
					c0.064,0.066,0.129,0.098,0.161,0.163l2.84,4.259c0.096,0.097,0.129,0.193,0.129,0.355v16.875c0,0.323-0.258,0.581-0.581,0.581
					h-5.743c-0.323,0-0.549-0.258-0.549-0.581V67.831l0,0v-0.033l0,0l0,0l0,0v-0.031l0,0l0,0v-0.032l0,0l0,0v-0.032l0,0l0,0l0,0
					v-0.033l0,0l0,0v-0.032l0,0h0.032l0,0l0,0v-0.032l0,0l0,0l0,0v-0.032l0,0l0,0c0.032-0.033,0.032-0.063,0.064-0.063l0,0V67.476
					L253.439,67.476L253.439,67.476L253.439,67.476L253.439,67.476L253.439,67.476L253.439,67.476L253.439,67.476L253.439,67.476
					L253.439,67.476z M256.764,64.54l-1.808,2.709h1.808h1.808L256.764,64.54z M254.473,84.158h4.614V68.38h-2.323h-2.291V84.158z
					 M275.64,81.319l3.388,2.258c0.258,0.193,0.323,0.549,0.13,0.807c-0.033,0.064-0.098,0.097-0.13,0.162l-3.388,2.258
					c-0.097,0.064-0.227,0.128-0.355,0.128h-13.52c-0.29,0-0.548-0.257-0.548-0.579v-4.582c0-0.323,0.258-0.581,0.548-0.581h13.52
					l0,0l0,0l0,0l0,0l0,0h0.033l0,0h0.031l0,0h0.031l0,0l0,0l0,0l0,0l0,0l0.033,0.032l0,0l0,0h0.032l0,0h0.032l0,0l0,0l0,0l0,0l0,0
					l0.032,0.031l0,0l0,0l0,0c0.033,0,0.065,0.033,0.097,0.033l0,0l0,0l0,0l0,0v0.033l0,0l0,0l0,0H275.64L275.64,81.319
					L275.64,81.319z M277.673,84.062l-1.84-1.227v1.227v1.226L277.673,84.062z"/>
				<path d="M294.161,56.698h22.392h0.839v0.839v27.848v0.839h-0.839h-22.392h-0.84v-0.839V57.537v-0.839H294.161z M315.683,58.376
					h-20.65v26.17h20.65V58.376z"/>
				<path d="M341.82,38.112l-1.968,5.775l19.682,6.68l1.001-2.873l0.97-2.871L341.82,38.112z M365.31,49.342l-2.58-3.421
					l-0.775,2.259l-0.774,2.259L365.31,49.342z M363.085,43.952l4.096,5.357c0.26,0.322,0.195,0.806-0.127,1.064
					c-0.099,0.064-0.195,0.097-0.259,0.129l-6.519,1.742c-0.16,0.065-0.354,0.065-0.516,0l-21.103-7.195
					c-0.388-0.129-0.581-0.549-0.451-0.936l2.45-7.195c0.13-0.389,0.549-0.614,0.938-0.451l21.104,7.162l0,0v0.032h0.031l0,0l0,0
					h0.032l0,0h0.031l0.032,0.032l0,0l0,0l0,0l0,0l0,0l0,0l0.033,0.033h0.033l0,0l0.03,0.031l0,0l0,0l0,0l0,0l0.033,0.033l0,0l0,0
					l0,0l0.033,0.031l0,0l0,0c0.03,0.033,0.064,0.064,0.064,0.098l0,0h0.033l0,0l0,0l0,0l0,0V43.952L363.085,43.952L363.085,43.952
					L363.085,43.952L363.085,43.952z"/>
			</g>
			<g id="White_Attribut_1_">
				<g id="Book_1_">
					<path class="st2" d="M375.363,100.97V71.315c0-1.226,1.001-2.193,2.194-2.193h21.167c1.227,0,2.194,0.968,2.194,2.193v29.654
						c0,1.227-0.968,2.193-2.194,2.193h-21.167C376.364,103.163,375.363,102.196,375.363,100.97L375.363,100.97z"/>
					<radialGradient id="SVGID_3_" cx="375.3795" cy="86.1094" r="9.8509" gradientUnits="userSpaceOnUse">
						<stop  offset="0" style="stop-color:#8CBB69"/>
						<stop  offset="0.7837" style="stop-color:#6BAD44"/>
					</radialGradient>
					<path class="st3" d="M373.428,99.097L373.428,99.097c0-0.451,0.353-0.806,0.806-0.806h2.291c0.451,0,0.807,0.354,0.807,0.806
						l0,0c0,0.453-0.356,0.807-0.807,0.807h-2.291C373.781,99.903,373.428,99.55,373.428,99.097L373.428,99.097z M373.428,73.122
						L373.428,73.122c0-0.451,0.353-0.807,0.806-0.807h2.291c0.451,0,0.807,0.355,0.807,0.807l0,0c0,0.452-0.356,0.808-0.807,0.808
						h-2.291C373.781,73.93,373.428,73.574,373.428,73.122L373.428,73.122z M373.428,77.446L373.428,77.446
						c0-0.451,0.353-0.808,0.806-0.808h2.291c0.451,0,0.807,0.356,0.807,0.808l0,0c0,0.451-0.356,0.807-0.807,0.807h-2.291
						C373.781,78.253,373.428,77.897,373.428,77.446L373.428,77.446z M373.428,81.77L373.428,81.77c0-0.452,0.353-0.806,0.806-0.806
						h2.291c0.451,0,0.807,0.354,0.807,0.806l0,0c0,0.452-0.356,0.839-0.807,0.839h-2.291
						C373.781,82.608,373.428,82.222,373.428,81.77L373.428,81.77z M373.428,86.095L373.428,86.095c0-0.452,0.353-0.808,0.806-0.808
						h2.291c0.451,0,0.807,0.355,0.807,0.808l0,0c0,0.449-0.356,0.838-0.807,0.838h-2.291
						C373.781,86.933,373.428,86.544,373.428,86.095L373.428,86.095z M373.428,90.45L373.428,90.45c0-0.452,0.353-0.838,0.806-0.838
						h2.291c0.451,0,0.807,0.386,0.807,0.838l0,0c0,0.451-0.356,0.807-0.807,0.807h-2.291
						C373.781,91.257,373.428,90.901,373.428,90.45L373.428,90.45z M373.428,94.772L373.428,94.772c0-0.449,0.353-0.805,0.806-0.805
						h2.291c0.451,0,0.807,0.355,0.807,0.805l0,0c0,0.453-0.356,0.808-0.807,0.808h-2.291
						C373.781,95.58,373.428,95.226,373.428,94.772L373.428,94.772z"/>
					<path class="st4" d="M381.72,73.315h13.747c0.612,0,1.128,0.484,1.128,1.098v4.969c0,0.613-0.516,1.098-1.128,1.098H381.72
						c-0.614,0-1.097-0.484-1.097-1.098v-4.969C380.623,73.8,381.105,73.315,381.72,73.315L381.72,73.315z"/>
				</g>
				<path d="M388.044,59.667c7.486,0,14.262,3.033,19.168,7.939c4.871,4.902,7.903,11.678,7.903,19.166
					c0,7.453-3.032,14.229-7.937,19.133c-4.873,4.906-11.648,7.938-19.135,7.938c-7.487,0-14.263-3.032-19.167-7.938
					c-4.903-4.904-7.939-11.68-7.939-19.133c0-7.488,3.035-14.264,7.939-19.166C373.781,62.7,380.557,59.667,388.044,59.667
					L388.044,59.667z M405.341,69.477c-4.422-4.42-10.553-7.164-17.297-7.164c-6.776,0-12.876,2.711-17.295,7.164
					c-4.422,4.421-7.164,10.519-7.164,17.296c0,6.742,2.742,12.842,7.164,17.262c4.419,4.455,10.518,7.164,17.295,7.164
					c6.744,0,12.875-2.709,17.297-7.164c4.419-4.42,7.161-10.52,7.161-17.262C412.502,79.995,409.76,73.897,405.341,69.477
					L405.341,69.477z"/>
				<path class="st5" d="M387.236,57.344h1.582V47.6h-1.582V57.344z M359.617,75.897l-0.581,1.42l-6.939-2.809l0.612-1.452
					L359.617,75.897z M376.88,59.409l-1.453,0.58l-2.839-6.871l1.452-0.615L376.88,59.409z M357.713,81.705l-0.292,1.517
					l-4.808-0.902l0.325-1.551L357.713,81.705z M362.617,70.54l-0.871,1.322l-4.065-2.709l0.871-1.291L362.617,70.54z
					 M371.33,62.216l-1.292,0.871l-2.743-4.033l1.29-0.902L371.33,62.216z M382.624,57.827l-1.519,0.291l-1.001-4.775l1.55-0.321
					L382.624,57.827z M357.454,57.183l-1.097,1.129l1.033,1l1.097-1.129L357.454,57.183z M366.457,66.022l-1.097,1.129l-6.97-6.839
					l1.098-1.13L366.457,66.022z M416.438,75.897l0.614,1.42l6.903-2.809l-0.579-1.452L416.438,75.897z M399.177,59.409l1.45,0.58
					l2.84-6.871l-1.42-0.615L399.177,59.409z M418.344,81.705l0.289,1.517l4.808-0.902l-0.29-1.551L418.344,81.705z M413.439,70.54
					l0.869,1.322l4.067-2.709l-0.84-1.291L413.439,70.54z M404.726,62.216l1.323,0.871l2.71-4.033l-1.29-0.902L404.726,62.216z
					 M393.433,57.827l1.549,0.291l0.968-4.775l-1.549-0.321L393.433,57.827z M418.6,57.183l1.1,1.129l-1.033,1l-1.098-1.129
					L418.6,57.183z M387.236,44.728h1.582v1.42h-1.582V44.728z M409.6,66.022l1.095,1.129l6.971-6.839l-1.097-1.13L409.6,66.022z"/>
			</g>
			<g id="Paper_1_">
				<rect x="284.513" y="63.7" class="st4" width="27.557" height="31.525"/>
				<radialGradient id="SVGID_4_" cx="298.6636" cy="79.2846" r="9.5434" gradientUnits="userSpaceOnUse">
					<stop  offset="0" style="stop-color:#8CBB69"/>
					<stop  offset="0.7837" style="stop-color:#6BAD44"/>
				</radialGradient>
				<path class="st6" d="M298.679,87.384h-9.646v1.355h9.646V87.384z M308.295,69.83h-19.263v1.356h19.263V69.83z M297.032,74.994
					h-8v1.354h8V74.994z M305.712,80.898h-16.68v1.323h16.68V80.898z"/>
			</g>
		</g>
		<path class="st5" d="M285.787,139.901h-2.776l-1.902,11.938h1.742l0.323-2.16h2.29l0.323,2.16h1.904L285.787,139.901z
			 M273.363,136.319h5.26v-5.97h-21.327v15.52h15.229v-8.679C272.525,136.706,272.881,136.319,273.363,136.319L273.363,136.319z
			 M280.335,136.319h21.779c0.452,0,0.838,0.387,0.838,0.871v16.648c0,0.451-0.386,0.84-0.838,0.84h-28.751
			c-0.482,0-0.838-0.389-0.838-0.84v-6.258h-16.101c-0.453,0-0.839-0.387-0.839-0.871v-17.199c0-0.484,0.386-0.871,0.839-0.871
			h23.071c0.45,0,0.839,0.387,0.839,0.871V136.319z M301.243,138.029h-21.747h-5.292v8.681v6.26h27.039V138.029z M291.401,139.901
			h-2.839v11.938h2.937c1.904,0,2.871-0.999,2.871-2.839v-0.97c0-1.258-0.388-2.161-1.419-2.547c0.838-0.42,1.227-1.194,1.227-2.421
			v-0.419C294.178,140.804,293.337,139.901,291.401,139.901L291.401,139.901z M291.272,146.45c0.838,0,1.227,0.355,1.227,1.453
			v1.031c0,0.904-0.356,1.194-1,1.194h-1.065v-3.679H291.272z M291.336,141.578c0.679,0,0.97,0.388,0.97,1.259v0.645
			c0,0.969-0.451,1.26-1.13,1.26h-0.741v-3.163H291.336z M284.304,141.997l0.902,6.033h-1.807L284.304,141.997z"/>
	</g>
	<g>
		<g>
			<path class="st7" d="M117.813,64.314c0-1.603-1.346-2.849-2.948-2.849H58.36c-1.604,0-2.951,1.246-2.951,2.849v41.366h62.403
				V64.314z"/>
			<g>
				<path class="st8" d="M50.706,105.681v2.9c0,1.602,1.535,3.059,3.379,3.059h65.053c1.846,0,3.379-1.457,3.379-3.059v-2.9H50.706z
					"/>
				<path class="st9" d="M119.138,112.152H54.085c-2.073,0-3.893-1.668-3.893-3.571v-2.9c0-0.283,0.23-0.512,0.514-0.512h71.81
					c0.283,0,0.514,0.229,0.514,0.512v2.9C123.03,110.517,121.248,112.152,119.138,112.152z M51.219,106.194v2.387
					c0,1.357,1.339,2.545,2.866,2.545h65.053c1.526,0,2.867-1.188,2.867-2.545v-2.387H51.219z"/>
			</g>
			<g>
				<rect x="59.8" y="65.228" class="st10" width="53.623" height="35.75"/>
				<path class="st9" d="M113.423,101.49H59.8c-0.283,0-0.514-0.229-0.514-0.513v-35.75c0-0.282,0.23-0.512,0.514-0.512h53.623
					c0.283,0,0.512,0.229,0.512,0.512v35.75C113.935,101.261,113.706,101.49,113.423,101.49z M60.312,100.464h52.599V65.741H60.312
					V100.464z"/>
			</g>
			<g>
				<rect x="83.005" y="107.991" class="st9" width="7.211" height="1.025"/>
			</g>
			<g class="st11">
				<rect x="63.249" y="68.364" class="st12" width="47.037" height="9.721"/>
				<rect x="63.249" y="81.222" class="st12" width="31.359" height="8.152"/>
				<rect x="97.431" y="81.222" class="st12" width="12.543" height="8.152"/>
				<rect x="63.249" y="92.196" class="st12" width="46.725" height="4.704"/>
			</g>
		</g>
		<g>
			<g>
				<path class="st12" d="M104.723,58.45c0-10.02-8.134-18.141-18.151-18.141c-10.02,0-18.243,8.121-18.243,18.141
					c0,8.869,6.523,16.252,14.677,17.827v24.7h6.898V76.29C98.37,74.741,104.724,67.344,104.723,58.45z"/>
				<path class="st9" d="M89.903,101.49h-6.898c-0.283,0-0.514-0.229-0.514-0.513V76.695c-8.396-1.833-14.677-9.601-14.677-18.245
					c0-10.286,8.415-18.653,18.757-18.653c10.291,0,18.666,8.367,18.666,18.653c0,8.869-6.206,16.482-14.82,18.263v24.265
					C90.417,101.261,90.187,101.49,89.903,101.49z M83.517,100.464h5.874V76.29c0-0.248,0.177-0.461,0.421-0.504
					c8.344-1.527,14.4-8.816,14.4-17.336c0-9.721-7.914-17.627-17.641-17.627c-9.776,0-17.73,7.906-17.73,17.627
					c0,8.305,6.131,15.752,14.262,17.323c0.24,0.047,0.414,0.259,0.414,0.504V100.464z"/>
			</g>
			<g>
				<rect x="83.005" y="75.69" class="st9" width="3.763" height="1.025"/>
			</g>
			<rect x="80.81" y="81.222" class="st13" width="11.604" height="15.365"/>
			<g>
				<rect x="82.691" y="84.158" class="st9" width="7.524" height="1.024"/>
			</g>
			<g>
				<rect x="82.691" y="88.234" class="st9" width="7.524" height="1.026"/>
			</g>
			<g>
				<rect x="82.691" y="92.311" class="st9" width="7.524" height="1.025"/>
			</g>
		</g>
		<g>
			<radialGradient id="SVGID_5_" cx="86.6543" cy="58.5801" r="13.7412" gradientUnits="userSpaceOnUse">
				<stop  offset="0" style="stop-color:#8CBB69"/>
				<stop  offset="0.7837" style="stop-color:#6BAD44"/>
			</radialGradient>
			<circle class="st14" cx="86.654" cy="58.581" r="13.741"/>
			<path class="st9" d="M86.653,72.835c-7.859,0-14.255-6.395-14.255-14.254c0-7.861,6.396-14.256,14.255-14.256
				c7.861,0,14.255,6.395,14.255,14.256C100.908,66.44,94.515,72.835,86.653,72.835z M86.653,45.351
				c-7.295,0-13.229,5.935-13.229,13.23c0,7.293,5.934,13.229,13.229,13.229c7.295,0,13.229-5.936,13.229-13.229
				C99.883,51.286,93.948,45.351,86.653,45.351z"/>
			<g>
				<line class="st10" x1="79.243" y1="58.764" x2="94.491" y2="58.761"/>
				<path class="st10" d="M79.243,59.12c-0.196,0-0.355-0.159-0.355-0.356c0-0.196,0.158-0.356,0.355-0.356l15.248-0.002
					c0.197,0,0.356,0.159,0.356,0.355c0,0.197-0.159,0.357-0.356,0.357L79.243,59.12z"/>
			</g>
			<g>
				<line class="st10" x1="81.614" y1="64.354" x2="92.12" y2="64.353"/>
				<path class="st10" d="M81.614,64.71c-0.195,0-0.357-0.16-0.357-0.356s0.162-0.357,0.357-0.357l10.506-0.002
					c0.197,0,0.356,0.16,0.356,0.358c0,0.196-0.159,0.356-0.356,0.356L81.614,64.71z"/>
			</g>
			<g>
				<line class="st10" x1="81.614" y1="53.177" x2="92.12" y2="53.175"/>
				<path class="st10" d="M81.614,53.533c-0.195,0-0.357-0.159-0.357-0.356c0-0.197,0.162-0.357,0.357-0.357l10.506-0.002
					c0.197,0,0.356,0.16,0.356,0.358c0,0.197-0.159,0.357-0.356,0.357L81.614,53.533z"/>
			</g>
		</g>
	</g>
	<g id="XMLID_8_">
		<g id="XMLID_12_">
			<line id="XMLID_14_" class="st15" x1="264.509" y1="18.716" x2="259.205" y2="24.018"/>
			<line id="XMLID_13_" class="st15" x1="251.965" y1="31.26" x2="246.663" y2="36.563"/>
		</g>
		<g id="XMLID_9_">
			<line id="XMLID_11_" class="st15" x1="246.663" y1="18.716" x2="251.965" y2="24.018"/>
			<line id="XMLID_10_" class="st15" x1="259.205" y1="31.26" x2="264.509" y2="36.563"/>
		</g>
	</g>
	<g>
		<rect x="214.333" y="160.463" width="41.301" height="2.044"/>
		<rect x="161.413" y="160.463" width="41.303" height="2.044"/>
		<rect x="149.798" y="160.463" width="3.871" height="2.044"/>
	</g>
	<g>
		<rect x="245.745" y="0" width="41.301" height="2.044"/>
		<rect x="298.663" y="0" width="41.303" height="2.044"/>
		<rect x="347.71" y="0" width="3.871" height="2.044"/>
	</g>
	<g>
		<rect x="335.045" y="143.935" width="83.854" height="2.066"/>
		<rect x="335.045" y="137.315" width="55.165" height="2.068"/>
	</g>
	<g>
		<rect x="58.981" y="23.644" width="83.854" height="2.066"/>
		<rect x="87.671" y="17.024" width="55.164" height="2.068"/>
	</g>
	<g>
		<line class="st16" x1="430.24" y1="106.52" x2="457.297" y2="106.52"/>
		<line class="st16" x1="433.422" y1="92.994" x2="470.824" y2="92.994"/>
		<line class="st16" x1="431.832" y1="77.873" x2="446.951" y2="77.873"/>
	</g>
	<g>
		<line class="st16" x1="40.584" y1="130.071" x2="13.527" y2="130.071"/>
		<line class="st16" x1="37.402" y1="116.546" x2="0" y2="116.546"/>
		<line class="st16" x1="38.992" y1="101.425" x2="23.873" y2="101.425"/>
	</g>
	<g id="XMLID_1_">
		<g id="XMLID_5_">
			<line id="XMLID_7_" class="st15" x1="193.708" y1="118.958" x2="189.98" y2="122.685"/>
			<line id="XMLID_6_" class="st15" x1="184.892" y1="127.773" x2="181.165" y2="131.5"/>
		</g>
		<g id="XMLID_2_">
			<line id="XMLID_4_" class="st15" x1="181.165" y1="118.958" x2="184.892" y2="122.685"/>
			<line id="XMLID_3_" class="st15" x1="189.98" y1="127.773" x2="193.708" y2="131.5"/>
		</g>
	</g>
</g>
</svg>