<!-- Generator: Adobe Illustrator 17.0.0, SVG Export Plug-In  -->
<svg version="1.1"
	 xmlns="http://www.w3.org/2000/svg" xmlns:xlink="http://www.w3.org/1999/xlink" xmlns:a="http://ns.adobe.com/AdobeSVGViewerExtensions/3.0/"
	 x="0px" y="0px" width="467.762px" height="54.456px" viewBox="0 0 467.762 54.456" enable-background="new 0 0 467.762 54.456"
	 xml:space="preserve">
<defs>
</defs>
<g>
	<path fill="#6BAD44" d="M78.443,33.878V21.879l-0.11,0.744l-4.065,11.255h-0.83l-4.102-11.255l-0.098-0.744v11.999h-1.575V16.373
		h0.818l5.31,14.355l0.049,0.646l0.049-0.646l5.298-14.355h0.83v17.505H78.443z"/>
	<path fill="#6BAD44" d="M90.577,29.801h-5.542l-1.147,4.077h-1.636l5.127-17.505h0.83l5.151,17.505h-1.624L90.577,29.801z
		 M85.462,28.299h4.7l-2.307-8.068l-0.049-0.646l-0.049,0.646L85.462,28.299z"/>
	<path fill="#6BAD44" d="M103.833,33.878l-4.749-7.471h-2.161v7.471H95.35V16.373h5.554c0.594,0,1.151,0.111,1.672,0.336
		c0.521,0.224,0.977,0.531,1.367,0.922s0.698,0.848,0.921,1.373c0.224,0.524,0.336,1.084,0.336,1.678v1.416
		c0,0.595-0.112,1.154-0.336,1.679c-0.224,0.525-0.531,0.983-0.921,1.374s-0.847,0.697-1.367,0.921
		c-0.521,0.224-1.079,0.336-1.672,0.336l4.749,7.471H103.833z M103.626,20.682c0-0.391-0.073-0.754-0.22-1.092
		s-0.346-0.635-0.598-0.892c-0.252-0.256-0.547-0.458-0.885-0.604c-0.338-0.146-0.702-0.219-1.093-0.219h-3.906v7.031h3.906
		c0.391,0,0.755-0.074,1.093-0.221c0.337-0.146,0.632-0.348,0.885-0.604c0.252-0.257,0.452-0.554,0.598-0.892
		c0.146-0.337,0.22-0.702,0.22-1.093V20.682z"/>
	<path fill="#6BAD44" d="M117.914,31.498c-0.224,0.521-0.531,0.977-0.921,1.367s-0.847,0.697-1.367,0.921
		c-0.521,0.224-1.079,0.336-1.672,0.336h-1.245c-0.594,0-1.153-0.112-1.679-0.336c-0.524-0.224-0.982-0.53-1.373-0.921
		s-0.698-0.847-0.922-1.367c-0.224-0.521-0.335-1.078-0.335-1.673v-9.399c0-0.594,0.112-1.151,0.335-1.672
		c0.224-0.521,0.531-0.977,0.922-1.367s0.849-0.698,1.373-0.922c0.525-0.225,1.084-0.336,1.679-0.336h1.245
		c0.594,0,1.151,0.111,1.672,0.336c0.521,0.224,0.977,0.531,1.367,0.922s0.698,0.846,0.921,1.367
		c0.224,0.521,0.336,1.078,0.336,1.672v0.708l-1.575,0.244v-0.952c0-0.391-0.073-0.755-0.22-1.093
		c-0.146-0.337-0.346-0.632-0.598-0.885c-0.252-0.252-0.547-0.452-0.885-0.599c-0.338-0.146-0.702-0.219-1.093-0.219h-1.099
		c-0.391,0-0.755,0.072-1.093,0.219c-0.337,0.146-0.635,0.347-0.891,0.599c-0.257,0.253-0.458,0.548-0.604,0.885
		c-0.146,0.338-0.22,0.702-0.22,1.093v9.399c0,0.391,0.073,0.755,0.22,1.093s0.348,0.635,0.604,0.891
		c0.256,0.257,0.553,0.458,0.891,0.604c0.338,0.146,0.702,0.22,1.093,0.22h1.099c0.391,0,0.755-0.073,1.093-0.22
		c0.337-0.146,0.632-0.348,0.885-0.604c0.252-0.256,0.452-0.553,0.598-0.891s0.22-0.702,0.22-1.093v-0.952l1.575,0.256v0.696
		C118.25,30.42,118.138,30.977,117.914,31.498z"/>
	<path fill="#6BAD44" d="M131.012,31.498c-0.224,0.521-0.531,0.977-0.921,1.367s-0.847,0.697-1.367,0.921
		c-0.521,0.224-1.079,0.336-1.672,0.336h-1.245c-0.594,0-1.153-0.112-1.679-0.336c-0.524-0.224-0.982-0.53-1.373-0.921
		s-0.698-0.847-0.922-1.367c-0.224-0.521-0.335-1.078-0.335-1.673v-9.399c0-0.594,0.112-1.151,0.335-1.672
		c0.224-0.521,0.531-0.977,0.922-1.367s0.849-0.698,1.373-0.922c0.525-0.225,1.084-0.336,1.679-0.336h1.245
		c0.594,0,1.151,0.111,1.672,0.336c0.521,0.224,0.977,0.531,1.367,0.922s0.698,0.846,0.921,1.367
		c0.224,0.521,0.336,1.078,0.336,1.672v9.399C131.348,30.42,131.236,30.977,131.012,31.498z M129.773,20.426
		c0-0.391-0.073-0.755-0.22-1.093c-0.146-0.337-0.346-0.632-0.598-0.885c-0.252-0.252-0.547-0.452-0.885-0.599
		c-0.338-0.146-0.702-0.219-1.093-0.219h-1.099c-0.391,0-0.755,0.072-1.093,0.219c-0.337,0.146-0.635,0.347-0.891,0.599
		c-0.257,0.253-0.458,0.548-0.604,0.885c-0.146,0.338-0.22,0.702-0.22,1.093v9.399c0,0.391,0.073,0.755,0.22,1.093
		s0.348,0.635,0.604,0.891c0.256,0.257,0.553,0.458,0.891,0.604c0.338,0.146,0.702,0.22,1.093,0.22h1.099
		c0.391,0,0.755-0.073,1.093-0.22c0.337-0.146,0.632-0.348,0.885-0.604c0.252-0.256,0.452-0.553,0.598-0.891s0.22-0.702,0.22-1.093
		V20.426z"/>
	<path fill="#6BAD44" d="M140.601,33.878V16.373h1.575v16.004h6.702v1.501H140.601z"/>
	<path fill="#6BAD44" d="M160.639,31.498c-0.224,0.521-0.531,0.977-0.921,1.367s-0.847,0.697-1.367,0.921
		c-0.521,0.224-1.079,0.336-1.672,0.336h-1.245c-0.594,0-1.153-0.112-1.679-0.336c-0.524-0.224-0.982-0.53-1.373-0.921
		s-0.698-0.847-0.922-1.367c-0.224-0.521-0.335-1.078-0.335-1.673v-9.399c0-0.594,0.112-1.151,0.335-1.672
		c0.224-0.521,0.531-0.977,0.922-1.367s0.849-0.698,1.373-0.922c0.525-0.225,1.084-0.336,1.679-0.336h1.245
		c0.594,0,1.151,0.111,1.672,0.336c0.521,0.224,0.977,0.531,1.367,0.922s0.698,0.846,0.921,1.367
		c0.224,0.521,0.336,1.078,0.336,1.672v9.399C160.975,30.42,160.863,30.977,160.639,31.498z M159.4,20.426
		c0-0.391-0.073-0.755-0.22-1.093c-0.146-0.337-0.346-0.632-0.598-0.885c-0.252-0.252-0.547-0.452-0.885-0.599
		c-0.338-0.146-0.702-0.219-1.093-0.219h-1.099c-0.391,0-0.755,0.072-1.093,0.219c-0.337,0.146-0.635,0.347-0.891,0.599
		c-0.257,0.253-0.458,0.548-0.604,0.885c-0.146,0.338-0.22,0.702-0.22,1.093v9.399c0,0.391,0.073,0.755,0.22,1.093
		s0.348,0.635,0.604,0.891c0.256,0.257,0.553,0.458,0.891,0.604c0.338,0.146,0.702,0.22,1.093,0.22h1.099
		c0.391,0,0.755-0.073,1.093-0.22c0.337-0.146,0.632-0.348,0.885-0.604c0.252-0.256,0.452-0.553,0.598-0.891s0.22-0.702,0.22-1.093
		V20.426z M155.677,14.383h-1.123l2.002-3.002h2.502L155.677,14.383z"/>
	<path fill="#6BAD44" d="M174.329,33.878h-0.5l-0.916-1.403c-0.383,0.504-0.847,0.904-1.392,1.202
		c-0.545,0.297-1.152,0.445-1.819,0.445h-0.916c-0.594,0-1.153-0.112-1.679-0.336c-0.524-0.224-0.982-0.53-1.373-0.921
		s-0.698-0.847-0.922-1.367c-0.224-0.521-0.335-1.078-0.335-1.673v-9.399c0-0.594,0.112-1.151,0.335-1.672
		c0.224-0.521,0.531-0.977,0.922-1.367s0.849-0.698,1.373-0.922c0.525-0.225,1.084-0.336,1.679-0.336h1.245
		c0.594,0,1.151,0.111,1.672,0.336c0.521,0.224,0.977,0.531,1.367,0.922s0.698,0.846,0.921,1.367
		c0.224,0.521,0.336,1.078,0.336,1.672v0.708l-1.575,0.244v-0.952c0-0.391-0.073-0.755-0.22-1.093
		c-0.146-0.337-0.346-0.632-0.598-0.885c-0.252-0.252-0.547-0.452-0.885-0.599c-0.338-0.146-0.702-0.219-1.093-0.219h-1.099
		c-0.391,0-0.755,0.072-1.093,0.219c-0.337,0.146-0.635,0.347-0.891,0.599c-0.257,0.253-0.458,0.548-0.604,0.885
		c-0.146,0.338-0.22,0.702-0.22,1.093v9.399c0,0.391,0.073,0.755,0.22,1.093s0.348,0.635,0.604,0.891
		c0.256,0.257,0.553,0.458,0.891,0.604c0.338,0.146,0.702,0.22,1.093,0.22h1.099c0.391,0,0.755-0.073,1.093-0.22
		c0.337-0.146,0.632-0.348,0.885-0.604c0.252-0.256,0.452-0.553,0.598-0.891s0.22-0.702,0.22-1.093v-3.649h-2.795v-1.502h4.37
		V33.878z"/>
	<path fill="#6BAD44" d="M178.089,33.878V16.373h1.575v17.505H178.089z"/>
	<path fill="#6BAD44" d="M192.926,31.498c-0.224,0.521-0.531,0.977-0.921,1.367s-0.847,0.697-1.367,0.921
		c-0.521,0.224-1.079,0.336-1.672,0.336h-1.245c-0.594,0-1.153-0.112-1.679-0.336c-0.524-0.224-0.982-0.53-1.373-0.921
		s-0.698-0.847-0.922-1.367c-0.224-0.521-0.335-1.078-0.335-1.673v-9.399c0-0.594,0.112-1.151,0.335-1.672
		c0.224-0.521,0.531-0.977,0.922-1.367s0.849-0.698,1.373-0.922c0.525-0.225,1.084-0.336,1.679-0.336h1.245
		c0.594,0,1.151,0.111,1.672,0.336c0.521,0.224,0.977,0.531,1.367,0.922s0.698,0.846,0.921,1.367
		c0.224,0.521,0.336,1.078,0.336,1.672v0.708l-1.575,0.244v-0.952c0-0.391-0.073-0.755-0.22-1.093
		c-0.146-0.337-0.346-0.632-0.598-0.885c-0.252-0.252-0.547-0.452-0.885-0.599c-0.338-0.146-0.702-0.219-1.093-0.219h-1.099
		c-0.391,0-0.755,0.072-1.093,0.219c-0.337,0.146-0.635,0.347-0.891,0.599c-0.257,0.253-0.458,0.548-0.604,0.885
		c-0.146,0.338-0.22,0.702-0.22,1.093v9.399c0,0.391,0.073,0.755,0.22,1.093s0.348,0.635,0.604,0.891
		c0.256,0.257,0.553,0.458,0.891,0.604c0.338,0.146,0.702,0.22,1.093,0.22h1.099c0.391,0,0.755-0.073,1.093-0.22
		c0.337-0.146,0.632-0.348,0.885-0.604c0.252-0.256,0.452-0.553,0.598-0.891s0.22-0.702,0.22-1.093v-0.952l1.575,0.256v0.696
		C193.262,30.42,193.15,30.977,192.926,31.498z"/>
	<path fill="#6BAD44" d="M206.024,31.498c-0.224,0.521-0.531,0.977-0.921,1.367s-0.847,0.697-1.367,0.921
		c-0.521,0.224-1.079,0.336-1.672,0.336h-1.245c-0.594,0-1.153-0.112-1.679-0.336c-0.524-0.224-0.982-0.53-1.373-0.921
		s-0.698-0.847-0.922-1.367c-0.224-0.521-0.335-1.078-0.335-1.673v-9.399c0-0.594,0.112-1.151,0.335-1.672
		c0.224-0.521,0.531-0.977,0.922-1.367s0.849-0.698,1.373-0.922c0.525-0.225,1.084-0.336,1.679-0.336h1.245
		c0.594,0,1.151,0.111,1.672,0.336c0.521,0.224,0.977,0.531,1.367,0.922s0.698,0.846,0.921,1.367
		c0.224,0.521,0.336,1.078,0.336,1.672v9.399C206.36,30.42,206.249,30.977,206.024,31.498z M204.786,20.426
		c0-0.391-0.073-0.755-0.22-1.093c-0.146-0.337-0.346-0.632-0.598-0.885c-0.252-0.252-0.547-0.452-0.885-0.599
		c-0.338-0.146-0.702-0.219-1.093-0.219h-1.099c-0.391,0-0.755,0.072-1.093,0.219c-0.337,0.146-0.635,0.347-0.891,0.599
		c-0.257,0.253-0.458,0.548-0.604,0.885c-0.146,0.338-0.22,0.702-0.22,1.093v9.399c0,0.391,0.073,0.755,0.22,1.093
		s0.348,0.635,0.604,0.891c0.256,0.257,0.553,0.458,0.891,0.604c0.338,0.146,0.702,0.22,1.093,0.22h1.099
		c0.391,0,0.755-0.073,1.093-0.22c0.337-0.146,0.632-0.348,0.885-0.604c0.252-0.256,0.452-0.553,0.598-0.891s0.22-0.702,0.22-1.093
		V20.426z"/>
</g>
<rect x="64.998" y="44.811" fill="#144B8B" width="396.523" height="1.872"/>
<path fill="#144B8B" d="M467.762,45.747c0,2.674-2.164,4.838-4.836,4.838c-2.674,0-4.836-2.164-4.836-4.838
	c0-2.674,2.162-4.837,4.836-4.837C465.598,40.91,467.762,43.073,467.762,45.747"/>
<g id="XMLID_1_">
	<g id="XMLID_6_">
		<g>
			<g>
				<defs>
					<rect id="SVGID_1_" x="0" y="0.238" width="61.624" height="54.218"/>
				</defs>
				<clipPath id="SVGID_2_">
					<use xlink:href="#SVGID_1_"  overflow="visible"/>
				</clipPath>
				<path id="XMLID_8_" clip-path="url(#SVGID_2_)" fill="#144B8B" stroke="#000000" stroke-width="0.5" stroke-miterlimit="10" d="
					M56.609,22.927h-12.9l-6.926,6.688v-6.688H33.92c-2.153,0-3.826-1.669-3.826-3.821V5.015c0-2.147,1.673-3.82,3.826-3.82h22.926
					c2.148,0,3.818,1.673,3.818,3.82v14.091C60.431,21.258,58.758,22.927,56.609,22.927L56.609,22.927z"/>
			</g>
		</g>
		<g>
			<g>
				<defs>
					<rect id="SVGID_3_" x="0" y="0.238" width="61.624" height="54.218"/>
				</defs>
				<clipPath id="SVGID_4_">
					<use xlink:href="#SVGID_3_"  overflow="visible"/>
				</clipPath>
				<path id="XMLID_7_" clip-path="url(#SVGID_4_)" d="M10.03,49.441L10.03,49.441l4.777-0.717v4.539
					c0,0.717,0.48,1.192,1.193,1.192h23.886c0.718,0,1.194-0.476,1.194-1.192V37.021c1.915-1.911,3.584-4.302,4.777-6.692
					c0.243-0.477,0-1.188-0.476-1.432c-0.479-0.236-1.192,0-1.43,0.485c-0.956,2.387-2.629,4.529-4.54,6.446
					c-0.238,0.237-0.48,0.481-0.48,0.956v15.523H17.435v-4.778c0-0.242-0.238-0.717-0.476-0.953
					c-0.237-0.239-0.484-0.239-0.959-0.239l-5.733,0.95c-1.672,0-3.104-1.43-3.104-3.103v-7.64c0-0.717-0.475-1.197-1.192-1.197
					H4.063c-0.722,0-1.197-0.238-1.435-0.48C2.39,34.63,2.39,33.911,2.866,33.437l4.059-7.88c0-0.243,0.238-0.243,0.238-0.481
					v-3.343c0-7.4,4.302-14.09,10.986-17.194c2.391-1.197,4.777-1.672,7.406-1.916c0.718,0,1.198-0.477,1.198-1.191
					c0-0.718-0.48-1.193-1.198-1.193c-2.861,0.238-5.49,0.717-8.119,1.907C10.03,5.732,5.015,13.134,5.015,21.496v3.108
					l-4.059,7.639c-0.718,1.193-0.718,2.624,0,3.585c0.713,0.956,1.911,1.668,3.337,1.668h0.723v6.455
					C4.535,47.052,6.925,49.441,10.03,49.441L10.03,49.441z"/>
			</g>
		</g>
	</g>
	<path id="XMLID_5_" d="M36.302,30.813c0.242,0,0.242,0,0.48,0c0.238,0,0.476,0,0.718-0.243l6.688-6.449h12.42
		c2.625,0,5.015-2.149,5.015-5.015V5.015C61.624,2.388,59.471,0,56.609,0h-22.93c-2.629,0-5.016,2.145-5.016,5.015v14.091
		c0,2.628,2.145,5.015,5.016,5.015h1.906v5.495C35.584,30.092,35.826,30.569,36.302,30.813L36.302,30.813z M33.679,21.975
		c-1.436,0-2.629-1.196-2.629-2.627V5.254c0-1.436,1.193-2.631,2.629-2.631h22.93c1.431,0,2.625,1.195,2.625,2.631v14.094
		c0,1.431-1.193,2.627-2.625,2.627h-12.9c-0.238,0-0.48,0-0.713,0.24l-5.019,4.775v-4.063c0-0.712-0.476-1.193-1.194-1.193h-3.104
		V21.975z"/>
	<path id="XMLID_4_" d="M45.139,13.848c0.242,0,0.484-0.238,0.718-0.238c0.243-0.237,0.243-0.476,0.243-0.712
		c0-0.239-0.243-0.476-0.243-0.719c-0.233-0.237-0.476-0.237-0.718-0.237c-0.238,0-0.475,0.237-0.713,0.237
		c-0.238,0.243-0.238,0.479-0.238,0.719c0,0.236,0.238,0.475,0.238,0.712C44.664,13.848,44.901,13.848,45.139,13.848L45.139,13.848z
		"/>
	<path id="XMLID_3_" d="M49.44,13.848c0.239,0,0.48-0.238,0.718-0.238c0.243-0.237,0.243-0.476,0.243-0.712
		c0-0.239-0.243-0.476-0.243-0.719c-0.238-0.237-0.479-0.237-0.718-0.237c-0.237,0-0.475,0.237-0.713,0.237
		c-0.247,0.243-0.247,0.479-0.247,0.719c0,0.236,0.247,0.475,0.247,0.712C48.965,13.848,49.203,13.848,49.44,13.848L49.44,13.848z"
		/>
	<path id="XMLID_2_" d="M40.847,13.848c0.233,0,0.476-0.238,0.708-0.238c0.242-0.237,0.242-0.476,0.242-0.712
		c0-0.239-0.242-0.476-0.242-0.719c-0.233-0.237-0.475-0.237-0.708-0.237c-0.242,0-0.484,0.237-0.723,0.237
		c-0.238,0.243-0.238,0.479-0.238,0.719c0,0.236,0.238,0.475,0.238,0.712C40.362,13.848,40.604,13.848,40.847,13.848L40.847,13.848z
		"/>
</g>
</svg>