<!-- Generator: Adobe Illustrator 17.0.0, SVG Export Plug-In  -->
<svg version="1.1"
	 xmlns="http://www.w3.org/2000/svg" xmlns:xlink="http://www.w3.org/1999/xlink" xmlns:a="http://ns.adobe.com/AdobeSVGViewerExtensions/3.0/"
	 x="0px" y="0px" width="246.799px" height="23.618px" viewBox="0 0 246.799 23.618"
	 style="enable-background:new 0 0 246.799 23.618;" xml:space="preserve">
<style type="text/css">
	.st0{clip-path:url(#SVGID_2_);fill:url(#XMLID_9_);}
	.st1{clip-path:url(#SVGID_4_);}
	.st2{fill:#144B8B;}
	.st3{clip-path:url(#SVGID_6_);fill:url(#XMLID_10_);}
	.st4{clip-path:url(#SVGID_8_);}
</style>
<defs>
</defs>
<g id="XMLID_1_">
	<g id="XMLID_6_">
		<g>
			<g>
				<defs>
					<rect id="SVGID_1_" x="0" y="0.08" width="20.676" height="18.191"/>
				</defs>
				<clipPath id="SVGID_2_">
					<use xlink:href="#SVGID_1_"  style="overflow:visible;"/>
				</clipPath>
				<radialGradient id="XMLID_9_" cx="15.2247" cy="5.169" r="4.952" gradientUnits="userSpaceOnUse">
					<stop  offset="0" style="stop-color:#8CBB69"/>
					<stop  offset="0.7837" style="stop-color:#6BAD44"/>
				</radialGradient>
				<path id="XMLID_8_" class="st0" d="M18.994,7.691h-4.33l-2.322,2.246V7.691H11.38c-0.722,0-1.284-0.559-1.284-1.281V1.683
					c0-0.722,0.563-1.282,1.284-1.282h7.692c0.721,0,1.281,0.561,1.281,1.282V6.41C20.275,7.133,19.715,7.691,18.994,7.691
					L18.994,7.691z"/>
			</g>
		</g>
		<g>
			<g>
				<defs>
					<rect id="SVGID_3_" x="0" y="0.08" width="20.676" height="18.191"/>
				</defs>
				<clipPath id="SVGID_4_">
					<use xlink:href="#SVGID_3_"  style="overflow:visible;"/>
				</clipPath>
				<path id="XMLID_7_" class="st1" d="M3.365,16.589L3.365,16.589l1.603-0.241v1.523c0,0.24,0.16,0.4,0.4,0.4h8.015
					c0.24,0,0.4-0.16,0.4-0.4v-5.449c0.644-0.642,1.202-1.443,1.602-2.246c0.083-0.159,0-0.399-0.159-0.479
					c-0.161-0.08-0.4,0-0.479,0.16c-0.319,0.802-0.882,1.521-1.523,2.164c-0.08,0.078-0.16,0.16-0.16,0.32v5.208H5.851v-1.603
					c0-0.081-0.08-0.24-0.161-0.32c-0.078-0.08-0.16-0.08-0.321-0.08l-1.923,0.319c-0.563,0-1.043-0.481-1.043-1.041v-2.564
					c0-0.24-0.158-0.401-0.398-0.401H1.363c-0.242,0-0.402-0.08-0.48-0.161c-0.081-0.081-0.081-0.32,0.078-0.48l1.362-2.644
					c0-0.083,0.079-0.083,0.079-0.161V7.293c0-2.484,1.444-4.729,3.688-5.771c0.802-0.4,1.602-0.562,2.484-0.642
					c0.24,0,0.4-0.16,0.4-0.4c0-0.24-0.16-0.4-0.4-0.4C7.613,0.16,6.733,0.321,5.851,0.721C3.365,1.924,1.682,4.406,1.682,7.212
					v1.043L0.32,10.818c-0.24,0.4-0.24,0.881,0,1.203c0.24,0.32,0.641,0.559,1.12,0.559h0.241v2.168
					C1.521,15.786,2.323,16.589,3.365,16.589L3.365,16.589z"/>
			</g>
		</g>
	</g>
	<path id="XMLID_5_" d="M12.181,10.338c0.081,0,0.081,0,0.161,0c0.079,0,0.158,0,0.24-0.081l2.243-2.165h4.169
		c0.88,0,1.682-0.721,1.682-1.682V1.683C20.676,0.802,19.953,0,18.994,0H11.3c-0.882,0-1.683,0.721-1.683,1.683V6.41
		c0,0.883,0.719,1.682,1.683,1.682h0.639v1.846C11.939,10.096,12.021,10.257,12.181,10.338L12.181,10.338z M11.3,7.374
		c-0.482,0-0.882-0.403-0.882-0.883V1.762c0-0.48,0.399-0.881,0.882-0.881h7.694c0.479,0,0.88,0.4,0.88,0.881v4.729
		c0,0.479-0.4,0.883-0.88,0.883h-4.33c-0.079,0-0.16,0-0.237,0.08l-1.685,1.601V7.691c0-0.237-0.16-0.398-0.4-0.398H11.3V7.374z"/>
	<path id="XMLID_4_" d="M15.145,4.646c0.081,0,0.163-0.08,0.24-0.08c0.083-0.08,0.083-0.16,0.083-0.238
		c0-0.08-0.083-0.161-0.083-0.242c-0.077-0.078-0.159-0.078-0.24-0.078c-0.08,0-0.159,0.078-0.239,0.078
		c-0.08,0.081-0.08,0.162-0.08,0.242c0,0.078,0.08,0.158,0.08,0.238C14.985,4.646,15.064,4.646,15.145,4.646L15.145,4.646z"/>
	<path id="XMLID_3_" d="M16.589,4.646c0.08,0,0.16-0.08,0.24-0.08c0.081-0.08,0.081-0.16,0.081-0.238
		c0-0.08-0.081-0.161-0.081-0.242c-0.08-0.078-0.16-0.078-0.24-0.078c-0.08,0-0.16,0.078-0.24,0.078
		c-0.083,0.081-0.083,0.162-0.083,0.242c0,0.078,0.083,0.158,0.083,0.238C16.429,4.646,16.509,4.646,16.589,4.646L16.589,4.646z"/>
	<path id="XMLID_2_" d="M13.705,4.646c0.078,0,0.159-0.08,0.238-0.08c0.08-0.08,0.08-0.16,0.08-0.238c0-0.08-0.08-0.161-0.08-0.242
		c-0.079-0.078-0.16-0.078-0.238-0.078c-0.082,0-0.162,0.078-0.242,0.078c-0.08,0.081-0.08,0.162-0.08,0.242
		c0,0.078,0.08,0.158,0.08,0.238C13.543,4.646,13.623,4.646,13.705,4.646L13.705,4.646z"/>
</g>
<g>
	<path class="st2" d="M38.342,18.413V5.934l-0.114,0.774l-4.228,11.705h-0.863L28.872,6.708L28.77,5.934v12.479h-1.638V0.208h0.851
		l5.522,14.93l0.051,0.673l0.051-0.673l5.51-14.93h0.863v18.205H38.342z"/>
	<path class="st2" d="M51.774,18.413l-0.863-1.295c-0.355,0.465-0.8,0.84-1.333,1.123c-0.533,0.284-1.117,0.426-1.752,0.426h-0.394
		c-0.525,0-1.02-0.1-1.485-0.299c-0.465-0.198-0.872-0.471-1.219-0.818s-0.62-0.754-0.819-1.219s-0.298-0.961-0.298-1.485v-0.127
		c0-0.524,0.1-1.021,0.298-1.485s0.472-0.871,0.819-1.219s0.753-0.62,1.219-0.818c0.465-0.199,0.96-0.299,1.485-0.299h3.301V8.892
		c0-0.313-0.059-0.607-0.178-0.883c-0.119-0.274-0.279-0.514-0.482-0.717S49.63,6.929,49.356,6.81s-0.569-0.178-0.882-0.178h-0.914
		c-0.313,0-0.607,0.059-0.882,0.178s-0.514,0.279-0.717,0.482s-0.364,0.442-0.482,0.717c-0.119,0.275-0.178,0.57-0.178,0.883v0.47
		l-1.562-0.254V8.98c0-0.524,0.1-1.021,0.298-1.485s0.472-0.871,0.819-1.219s0.753-0.62,1.219-0.818
		c0.465-0.199,0.96-0.299,1.485-0.299h0.914c0.525,0,1.02,0.1,1.485,0.299c0.465,0.198,0.872,0.471,1.219,0.818
		s0.62,0.754,0.819,1.219s0.298,0.961,0.298,1.485v9.433H51.774z M50.733,12.116h-3.301c-0.313,0-0.607,0.059-0.882,0.178
		s-0.514,0.281-0.717,0.488c-0.203,0.208-0.364,0.449-0.482,0.725c-0.119,0.274-0.178,0.568-0.178,0.882v0.546
		c0,0.313,0.059,0.607,0.178,0.883c0.119,0.274,0.279,0.514,0.482,0.717s0.442,0.363,0.717,0.482s0.569,0.178,0.882,0.178h1.041
		c0.313,0,0.607-0.059,0.882-0.178s0.514-0.279,0.717-0.482s0.364-0.442,0.482-0.717c0.119-0.275,0.178-0.57,0.178-0.883V12.116z"/>
	<path class="st2" d="M60.153,18.413c-0.474,0-0.92-0.089-1.339-0.267s-0.783-0.423-1.092-0.736s-0.554-0.677-0.736-1.092
		s-0.273-0.858-0.273-1.333V6.898h-2.336V5.413h2.336V2.29l1.562-0.254v3.377h3.301v1.485h-3.301v8.163
		c0,0.262,0.049,0.506,0.146,0.73c0.097,0.224,0.23,0.42,0.4,0.59s0.368,0.303,0.597,0.4c0.229,0.097,0.474,0.146,0.736,0.146h1.422
		v1.485H60.153z"/>
	<path class="st2" d="M68.265,6.898c-0.313,0-0.607,0.06-0.882,0.178s-0.514,0.279-0.717,0.482s-0.364,0.442-0.482,0.718
		c-0.119,0.274-0.178,0.568-0.178,0.882v9.255h-1.562v-13h0.521l0.851,1.32c0.355-0.482,0.802-0.865,1.339-1.148
		c0.538-0.284,1.124-0.426,1.758-0.426h0.914v1.739H68.265z"/>
	<path class="st2" d="M72.302,2.29V0.208h1.815V2.29H72.302z M72.429,18.413v-13h1.562v13H72.429z"/>
	<path class="st2" d="M77.114,18.413v-0.698l6.551-10.816h-6.297V5.413h8.43v0.698l-6.551,10.816h6.551v1.485H77.114z"/>
	<path class="st2" d="M102.543,18.413l-0.863-1.32c-0.355,0.482-0.8,0.865-1.333,1.148c-0.533,0.284-1.117,0.426-1.752,0.426h-0.394
		c-0.525,0-1.02-0.1-1.485-0.299c-0.465-0.198-0.872-0.471-1.219-0.818s-0.62-0.754-0.819-1.219s-0.298-0.961-0.298-1.485V8.98
		c0-0.524,0.1-1.021,0.298-1.485s0.472-0.871,0.819-1.219s0.753-0.62,1.219-0.818c0.465-0.199,0.96-0.299,1.485-0.299h0.394
		c0.584,0,1.125,0.119,1.625,0.355s0.927,0.566,1.282,0.99V0.208h1.562v18.205H102.543z M101.502,8.892
		c0-0.313-0.059-0.607-0.178-0.883c-0.119-0.274-0.279-0.514-0.482-0.717s-0.442-0.363-0.717-0.482s-0.569-0.178-0.882-0.178h-1.041
		c-0.313,0-0.607,0.059-0.882,0.178s-0.514,0.279-0.717,0.482s-0.364,0.442-0.482,0.717C96,8.284,95.941,8.579,95.941,8.892v6.043
		c0,0.313,0.059,0.607,0.178,0.883c0.119,0.274,0.279,0.514,0.482,0.717s0.442,0.363,0.717,0.482s0.569,0.178,0.882,0.178h1.041
		c0.313,0,0.607-0.059,0.882-0.178s0.514-0.279,0.717-0.482s0.364-0.442,0.482-0.717c0.119-0.275,0.178-0.57,0.178-0.883V8.892z"/>
	<path class="st2" d="M114.571,16.331c-0.199,0.465-0.472,0.871-0.819,1.219s-0.753,0.62-1.219,0.818
		c-0.465,0.199-0.96,0.299-1.485,0.299h-1.041c-0.525,0-1.02-0.1-1.485-0.299c-0.465-0.198-0.872-0.471-1.219-0.818
		s-0.62-0.754-0.819-1.219s-0.298-0.961-0.298-1.485V8.98c0-0.524,0.1-1.021,0.298-1.485s0.472-0.871,0.819-1.219
		s0.753-0.62,1.219-0.818c0.465-0.199,0.96-0.299,1.485-0.299h1.041c0.525,0,1.02,0.1,1.485,0.299
		c0.465,0.198,0.872,0.471,1.219,0.818s0.62,0.754,0.819,1.219s0.298,0.961,0.298,1.485v3.06h-7.122v2.895
		c0,0.313,0.059,0.607,0.178,0.883c0.119,0.274,0.279,0.514,0.482,0.717s0.442,0.363,0.717,0.482s0.569,0.178,0.882,0.178h1.041
		c0.313,0,0.607-0.059,0.882-0.178s0.514-0.279,0.717-0.482s0.364-0.442,0.482-0.717c0.119-0.275,0.178-0.57,0.178-0.883v-0.863
		l1.562,0.254v0.521C114.87,15.37,114.77,15.866,114.571,16.331z M113.308,8.892c0-0.313-0.059-0.607-0.178-0.883
		c-0.119-0.274-0.279-0.514-0.482-0.717s-0.442-0.363-0.717-0.482s-0.569-0.178-0.882-0.178h-1.041
		c-0.313,0-0.607,0.059-0.882,0.178s-0.514,0.279-0.717,0.482s-0.364,0.442-0.482,0.717c-0.119,0.275-0.178,0.57-0.178,0.883v1.93
		h5.561V8.892z"/>
	<path class="st2" d="M137.696,18.413V8.892c0-0.313-0.059-0.607-0.178-0.883c-0.119-0.274-0.279-0.514-0.482-0.717
		s-0.442-0.363-0.717-0.482s-0.569-0.178-0.882-0.178h-0.774c-0.313,0-0.607,0.059-0.882,0.178s-0.516,0.279-0.724,0.482
		s-0.37,0.442-0.489,0.717c-0.119,0.275-0.178,0.57-0.178,0.883v9.521h-1.549V8.892c0-0.313-0.059-0.607-0.178-0.883
		c-0.119-0.274-0.281-0.514-0.489-0.717s-0.449-0.363-0.724-0.482s-0.569-0.178-0.882-0.178h-0.774
		c-0.313,0-0.607,0.059-0.882,0.178s-0.514,0.279-0.717,0.482s-0.364,0.442-0.482,0.717c-0.119,0.275-0.178,0.57-0.178,0.883v9.521
		h-1.562v-13h0.521l0.851,1.32c0.355-0.482,0.802-0.865,1.339-1.148c0.538-0.284,1.124-0.426,1.758-0.426h0.127
		c0.736,0,1.401,0.182,1.993,0.546s1.049,0.847,1.371,1.447c0.161-0.296,0.36-0.567,0.597-0.813s0.5-0.455,0.787-0.628
		c0.288-0.174,0.601-0.31,0.939-0.406c0.338-0.098,0.69-0.146,1.054-0.146h0.127c0.525,0,1.02,0.1,1.485,0.299
		c0.465,0.198,0.872,0.471,1.219,0.818s0.62,0.754,0.819,1.219s0.298,0.961,0.298,1.485v9.433H137.696z"/>
	<path class="st2" d="M150.543,18.413l-0.863-1.295c-0.355,0.465-0.8,0.84-1.333,1.123c-0.533,0.284-1.117,0.426-1.752,0.426h-0.394
		c-0.525,0-1.02-0.1-1.485-0.299c-0.465-0.198-0.872-0.471-1.219-0.818s-0.62-0.754-0.819-1.219s-0.298-0.961-0.298-1.485v-0.127
		c0-0.524,0.1-1.021,0.298-1.485s0.472-0.871,0.819-1.219s0.753-0.62,1.219-0.818c0.465-0.199,0.96-0.299,1.485-0.299h3.301V8.892
		c0-0.313-0.059-0.607-0.178-0.883c-0.119-0.274-0.279-0.514-0.482-0.717s-0.442-0.363-0.717-0.482s-0.569-0.178-0.882-0.178h-0.914
		c-0.313,0-0.607,0.059-0.882,0.178s-0.514,0.279-0.717,0.482s-0.364,0.442-0.482,0.717c-0.119,0.275-0.178,0.57-0.178,0.883v0.47
		l-1.562-0.254V8.98c0-0.524,0.1-1.021,0.298-1.485s0.472-0.871,0.819-1.219s0.753-0.62,1.219-0.818
		c0.465-0.199,0.96-0.299,1.485-0.299h0.914c0.525,0,1.02,0.1,1.485,0.299c0.465,0.198,0.872,0.471,1.219,0.818
		s0.62,0.754,0.819,1.219s0.298,0.961,0.298,1.485v9.433H150.543z M149.502,12.116h-3.301c-0.313,0-0.607,0.059-0.882,0.178
		s-0.514,0.281-0.717,0.488c-0.203,0.208-0.364,0.449-0.482,0.725c-0.119,0.274-0.178,0.568-0.178,0.882v0.546
		c0,0.313,0.059,0.607,0.178,0.883c0.119,0.274,0.279,0.514,0.482,0.717s0.442,0.363,0.717,0.482s0.569,0.178,0.882,0.178h1.041
		c0.313,0,0.607-0.059,0.882-0.178s0.514-0.279,0.717-0.482s0.364-0.442,0.482-0.717c0.119-0.275,0.178-0.57,0.178-0.883V12.116z"/>
	<path class="st2" d="M158.008,6.898c-0.313,0-0.607,0.06-0.882,0.178s-0.514,0.279-0.717,0.482s-0.364,0.442-0.482,0.718
		c-0.119,0.274-0.178,0.568-0.178,0.882v9.255h-1.562v-13h0.521l0.851,1.32c0.355-0.482,0.802-0.865,1.339-1.148
		c0.538-0.284,1.124-0.426,1.758-0.426h0.914v1.739H158.008z"/>
	<path class="st2" d="M170.037,16.331c-0.199,0.465-0.472,0.871-0.819,1.219s-0.753,0.62-1.219,0.818
		c-0.465,0.199-0.96,0.299-1.485,0.299h-1.041c-0.525,0-1.02-0.1-1.485-0.299c-0.465-0.198-0.872-0.471-1.219-0.818
		s-0.62-0.754-0.819-1.219s-0.298-0.961-0.298-1.485V8.98c0-0.524,0.1-1.021,0.298-1.485s0.472-0.871,0.819-1.219
		s0.753-0.62,1.219-0.818c0.465-0.199,0.96-0.299,1.485-0.299h1.041c0.525,0,1.02,0.1,1.485,0.299
		c0.465,0.198,0.872,0.471,1.219,0.818s0.62,0.754,0.819,1.219s0.298,0.961,0.298,1.485v0.521l-1.562,0.254V8.892
		c0-0.313-0.059-0.607-0.178-0.883c-0.119-0.274-0.279-0.514-0.482-0.717s-0.442-0.363-0.717-0.482s-0.569-0.178-0.882-0.178h-1.041
		c-0.313,0-0.607,0.059-0.882,0.178s-0.514,0.279-0.717,0.482s-0.364,0.442-0.482,0.717c-0.119,0.275-0.178,0.57-0.178,0.883v6.043
		c0,0.313,0.059,0.607,0.178,0.883c0.119,0.274,0.279,0.514,0.482,0.717s0.442,0.363,0.717,0.482s0.569,0.178,0.882,0.178h1.041
		c0.313,0,0.607-0.059,0.882-0.178s0.514-0.279,0.717-0.482s0.364-0.442,0.482-0.717c0.119-0.275,0.178-0.57,0.178-0.883v-0.863
		l1.562,0.254v0.521C170.335,15.37,170.236,15.866,170.037,16.331z"/>
	<path class="st2" d="M181.844,16.331c-0.199,0.465-0.472,0.871-0.819,1.219s-0.753,0.62-1.219,0.818
		c-0.465,0.199-0.96,0.299-1.485,0.299h-1.041c-0.525,0-1.02-0.1-1.485-0.299c-0.465-0.198-0.872-0.471-1.219-0.818
		s-0.62-0.754-0.819-1.219s-0.298-0.961-0.298-1.485V8.98c0-0.524,0.1-1.021,0.298-1.485s0.472-0.871,0.819-1.219
		s0.753-0.62,1.219-0.818c0.465-0.199,0.96-0.299,1.485-0.299h1.041c0.525,0,1.02,0.1,1.485,0.299
		c0.465,0.198,0.872,0.471,1.219,0.818s0.62,0.754,0.819,1.219s0.298,0.961,0.298,1.485v5.865
		C182.142,15.37,182.043,15.866,181.844,16.331z M180.581,8.892c0-0.313-0.059-0.607-0.178-0.883
		c-0.119-0.274-0.279-0.514-0.482-0.717s-0.442-0.363-0.717-0.482s-0.569-0.178-0.882-0.178h-1.041
		c-0.313,0-0.607,0.059-0.882,0.178s-0.514,0.279-0.717,0.482s-0.364,0.442-0.482,0.717c-0.119,0.275-0.178,0.57-0.178,0.883v6.043
		c0,0.313,0.059,0.607,0.178,0.883c0.119,0.274,0.279,0.514,0.482,0.717s0.442,0.363,0.717,0.482s0.569,0.178,0.882,0.178h1.041
		c0.313,0,0.607-0.059,0.882-0.178s0.514-0.279,0.717-0.482s0.364-0.442,0.482-0.717c0.119-0.275,0.178-0.57,0.178-0.883V8.892z"/>
	<path class="st2" d="M191.765,18.413V0.208h1.562v18.205H191.765z"/>
	<path class="st2" d="M205.355,16.331c-0.199,0.465-0.472,0.871-0.819,1.219s-0.753,0.62-1.219,0.818
		c-0.465,0.199-0.96,0.299-1.485,0.299h-1.041c-0.525,0-1.02-0.1-1.485-0.299c-0.465-0.198-0.872-0.471-1.219-0.818
		s-0.62-0.754-0.819-1.219s-0.298-0.961-0.298-1.485V8.98c0-0.524,0.1-1.021,0.298-1.485s0.472-0.871,0.819-1.219
		s0.753-0.62,1.219-0.818c0.465-0.199,0.96-0.299,1.485-0.299h1.041c0.525,0,1.02,0.1,1.485,0.299
		c0.465,0.198,0.872,0.471,1.219,0.818s0.62,0.754,0.819,1.219s0.298,0.961,0.298,1.485v5.865
		C205.654,15.37,205.554,15.866,205.355,16.331z M204.092,8.892c0-0.313-0.059-0.607-0.178-0.883
		c-0.119-0.274-0.279-0.514-0.482-0.717s-0.442-0.363-0.717-0.482s-0.569-0.178-0.882-0.178h-1.041
		c-0.313,0-0.607,0.059-0.882,0.178s-0.514,0.279-0.717,0.482s-0.364,0.442-0.482,0.717c-0.119,0.275-0.178,0.57-0.178,0.883v6.043
		c0,0.313,0.059,0.607,0.178,0.883c0.119,0.274,0.279,0.514,0.482,0.717s0.442,0.363,0.717,0.482s0.569,0.178,0.882,0.178h1.041
		c0.313,0,0.607-0.059,0.882-0.178s0.514-0.279,0.717-0.482s0.364-0.442,0.482-0.717c0.119-0.275,0.178-0.57,0.178-0.883V8.892z
		 M200.665,3.331h-1.168l2.069-3.123h2.603L200.665,3.331z"/>
	<path class="st2" d="M217.289,21.498c-0.199,0.44-0.472,0.817-0.819,1.13s-0.753,0.557-1.219,0.73
		c-0.465,0.173-0.96,0.26-1.485,0.26h-0.647c-0.525,0-1.02-0.087-1.485-0.26c-0.465-0.174-0.872-0.418-1.219-0.73
		s-0.62-0.689-0.819-1.13s-0.298-0.923-0.298-1.447V20c0-0.508,0.093-0.974,0.279-1.396s0.44-0.792,0.762-1.104
		c-0.406-0.246-0.73-0.578-0.971-0.996c-0.241-0.42-0.362-0.883-0.362-1.391c0-0.457,0.097-0.883,0.292-1.275
		c0.195-0.395,0.461-0.713,0.8-0.959c-0.406-0.355-0.728-0.783-0.965-1.282s-0.355-1.046-0.355-1.638V8.98
		c0-0.524,0.1-1.021,0.298-1.485s0.472-0.871,0.819-1.219s0.753-0.62,1.219-0.818c0.465-0.199,0.96-0.299,1.485-0.299h0.647
		c0.635,0,1.221,0.142,1.758,0.426c0.538,0.283,0.984,0.666,1.339,1.148l0.851-1.32h0.521v4.545c0,0.525-0.1,1.02-0.298,1.485
		s-0.472,0.872-0.819,1.219s-0.753,0.62-1.219,0.819c-0.465,0.198-0.96,0.298-1.485,0.298h-2.26c-0.178,0-0.347,0.036-0.508,0.108
		c-0.161,0.071-0.303,0.166-0.425,0.285s-0.218,0.26-0.286,0.426c-0.068,0.164-0.102,0.336-0.102,0.514s0.034,0.348,0.102,0.508
		s0.163,0.303,0.286,0.426c0.123,0.122,0.265,0.217,0.425,0.285s0.33,0.102,0.508,0.102h2.133c0.525,0,1.02,0.087,1.485,0.26
		c0.465,0.174,0.872,0.418,1.219,0.73s0.62,0.689,0.819,1.13s0.298,0.923,0.298,1.447v0.051
		C217.587,20.575,217.488,21.058,217.289,21.498z M216.166,8.892c0-0.313-0.059-0.607-0.178-0.883
		c-0.119-0.274-0.281-0.514-0.489-0.717s-0.449-0.363-0.724-0.482s-0.569-0.178-0.882-0.178h-1.295
		c-0.313,0-0.607,0.059-0.882,0.178s-0.514,0.279-0.717,0.482s-0.364,0.442-0.482,0.717c-0.119,0.275-0.178,0.57-0.178,0.883v1.155
		c0,0.313,0.059,0.607,0.178,0.882c0.119,0.275,0.279,0.515,0.482,0.718s0.442,0.364,0.717,0.482s0.569,0.178,0.882,0.178h1.295
		c0.313,0,0.607-0.06,0.882-0.178s0.516-0.279,0.724-0.482s0.37-0.442,0.489-0.718c0.119-0.274,0.178-0.568,0.178-0.882V8.892z
		 M216.102,19.924c0-0.313-0.059-0.595-0.178-0.845c-0.119-0.249-0.279-0.459-0.482-0.628s-0.442-0.3-0.717-0.394
		s-0.569-0.14-0.882-0.14h-0.8c-0.313,0-0.607,0.046-0.882,0.14s-0.514,0.225-0.717,0.394s-0.364,0.379-0.482,0.628
		c-0.119,0.25-0.178,0.531-0.178,0.845v0.203c0,0.313,0.059,0.593,0.178,0.838s0.279,0.455,0.482,0.628
		c0.203,0.174,0.442,0.307,0.717,0.4s0.569,0.14,0.882,0.14h0.8c0.313,0,0.607-0.046,0.882-0.14s0.514-0.227,0.717-0.4
		c0.203-0.173,0.364-0.383,0.482-0.628s0.178-0.524,0.178-0.838V19.924z"/>
	<path class="st2" d="M220.977,2.29V0.208h1.815V2.29H220.977z M221.104,18.413v-13h1.562v13H221.104z"/>
	<path class="st2" d="M234.694,16.331c-0.199,0.465-0.472,0.871-0.819,1.219s-0.753,0.62-1.219,0.818
		c-0.465,0.199-0.96,0.299-1.485,0.299h-1.041c-0.525,0-1.02-0.1-1.485-0.299c-0.465-0.198-0.872-0.471-1.219-0.818
		s-0.62-0.754-0.819-1.219s-0.298-0.961-0.298-1.485V8.98c0-0.524,0.1-1.021,0.298-1.485s0.472-0.871,0.819-1.219
		s0.753-0.62,1.219-0.818c0.465-0.199,0.96-0.299,1.485-0.299h1.041c0.525,0,1.02,0.1,1.485,0.299
		c0.465,0.198,0.872,0.471,1.219,0.818s0.62,0.754,0.819,1.219s0.298,0.961,0.298,1.485v0.521l-1.562,0.254V8.892
		c0-0.313-0.059-0.607-0.178-0.883c-0.119-0.274-0.279-0.514-0.482-0.717s-0.442-0.363-0.717-0.482s-0.569-0.178-0.882-0.178h-1.041
		c-0.313,0-0.607,0.059-0.882,0.178s-0.514,0.279-0.717,0.482s-0.364,0.442-0.482,0.717c-0.119,0.275-0.178,0.57-0.178,0.883v6.043
		c0,0.313,0.059,0.607,0.178,0.883c0.119,0.274,0.279,0.514,0.482,0.717s0.442,0.363,0.717,0.482s0.569,0.178,0.882,0.178h1.041
		c0.313,0,0.607-0.059,0.882-0.178s0.514-0.279,0.717-0.482s0.364-0.442,0.482-0.717c0.119-0.275,0.178-0.57,0.178-0.883v-0.863
		l1.562,0.254v0.521C234.993,15.37,234.893,15.866,234.694,16.331z"/>
	<path class="st2" d="M246.501,16.331c-0.199,0.465-0.472,0.871-0.819,1.219s-0.753,0.62-1.219,0.818
		c-0.465,0.199-0.96,0.299-1.485,0.299h-1.041c-0.525,0-1.02-0.1-1.485-0.299c-0.465-0.198-0.872-0.471-1.219-0.818
		s-0.62-0.754-0.819-1.219s-0.298-0.961-0.298-1.485V8.98c0-0.524,0.1-1.021,0.298-1.485s0.472-0.871,0.819-1.219
		s0.753-0.62,1.219-0.818c0.465-0.199,0.96-0.299,1.485-0.299h1.041c0.525,0,1.02,0.1,1.485,0.299
		c0.465,0.198,0.872,0.471,1.219,0.818s0.62,0.754,0.819,1.219s0.298,0.961,0.298,1.485v5.865
		C246.799,15.37,246.7,15.866,246.501,16.331z M245.238,8.892c0-0.313-0.059-0.607-0.178-0.883
		c-0.119-0.274-0.279-0.514-0.482-0.717s-0.442-0.363-0.717-0.482s-0.569-0.178-0.882-0.178h-1.041
		c-0.313,0-0.607,0.059-0.882,0.178s-0.514,0.279-0.717,0.482s-0.364,0.442-0.482,0.717c-0.119,0.275-0.178,0.57-0.178,0.883v6.043
		c0,0.313,0.059,0.607,0.178,0.883c0.119,0.274,0.279,0.514,0.482,0.717s0.442,0.363,0.717,0.482s0.569,0.178,0.882,0.178h1.041
		c0.313,0,0.607-0.059,0.882-0.178s0.514-0.279,0.717-0.482s0.364-0.442,0.482-0.717c0.119-0.275,0.178-0.57,0.178-0.883V8.892z"/>
</g>
</svg>