<!-- Generator: Adobe Illustrator 17.0.0, SVG Export Plug-In  -->
<svg version="1.1"
	 xmlns="http://www.w3.org/2000/svg" xmlns:xlink="http://www.w3.org/1999/xlink" xmlns:a="http://ns.adobe.com/AdobeSVGViewerExtensions/3.0/"
	 x="0px" y="0px" width="436.951px" height="298.071px" viewBox="0 0 436.951 298.071"
	 style="enable-background:new 0 0 436.951 298.071;" xml:space="preserve">
<style type="text/css">
	.st0{fill:none;stroke:#231F20;stroke-width:3;stroke-linejoin:round;stroke-miterlimit:10;stroke-dasharray:8.3228;}
	.st1{fill:url(#SVGID_1_);}
	.st2{fill:url(#SVGID_2_);}
	.st3{fill:#C9C9C9;}
	.st4{fill:#F1F2F2;}
	.st5{fill:#ABABAB;}
	.st6{fill:#E6E7E8;}
	.st7{fill:none;stroke:#231F20;stroke-width:5;stroke-linejoin:round;stroke-miterlimit:10;}
	.st8{fill:none;stroke:#231F20;stroke-width:3;stroke-linejoin:round;stroke-miterlimit:10;}
	.st9{fill:#144B8B;}
	.st10{opacity:0.3;}
	.st11{fill:#FFFFFF;}
	.st12{fill:none;stroke:#231F20;stroke-width:4.9937;stroke-linejoin:round;stroke-miterlimit:10;}
	.st13{fill:url(#SVGID_3_);}
	.st14{opacity:0.3;fill:#FFFFFF;}
	.st15{fill:url(#SVGID_4_);}
	.st16{fill:url(#SVGID_5_);}
	.st17{fill:none;stroke:#000000;stroke-width:3;stroke-miterlimit:10;}
	.st18{fill:none;stroke:#231F20;stroke-width:3.2;stroke-linejoin:round;stroke-miterlimit:10;}
	.st19{fill:url(#SVGID_6_);}
	.st20{fill:url(#SVGID_7_);}
	.st21{fill:url(#SVGID_8_);}
	.st22{fill:url(#SVGID_9_);}
	.st23{fill:url(#SVGID_10_);}
</style>
<defs>
</defs>
<g>
	<g>
		<circle class="st0" cx="205.214" cy="66.271" r="32.311"/>
		<path class="st0" d="M117.856,198.669c0,17.847-14.466,32.313-32.312,32.313c-17.845,0-32.31-14.466-32.31-32.313
			c0-17.842,14.466-32.311,32.31-32.311C103.39,166.359,117.856,180.827,117.856,198.669z"/>
		<path class="st0" d="M364.833,178.3c0,17.848-14.465,32.313-32.31,32.313s-32.311-14.465-32.311-32.313
			c0-17.842,14.465-32.31,32.311-32.31S364.833,160.458,364.833,178.3z"/>
		<g>
			<g>
				<radialGradient id="SVGID_1_" cx="234.7915" cy="235.3287" r="71.9488" gradientUnits="userSpaceOnUse">
					<stop  offset="0" style="stop-color:#8CBB69"/>
					<stop  offset="0.7837" style="stop-color:#6BAD44"/>
				</radialGradient>
				<polygon class="st1" points="306.879,242.071 306.879,254.586 334.704,235.328 306.879,216.071 306.879,226.071 
					134.879,226.071 134.879,242.071 				"/>
			</g>
		</g>
		<g>
			<g>
				<radialGradient id="SVGID_2_" cx="125.9673" cy="120.7521" r="71.9488" gradientUnits="userSpaceOnUse">
					<stop  offset="0" style="stop-color:#8CBB69"/>
					<stop  offset="0.7837" style="stop-color:#6BAD44"/>
				</radialGradient>
				<polygon class="st2" points="53.879,114.071 53.879,101.495 26.055,120.752 53.879,140.009 53.879,130.071 225.879,130.071 
					225.879,114.071 				"/>
			</g>
		</g>
		<g>
			<path class="st3" d="M338.429,139.253c0-44.012-35.884-79.688-79.898-79.688c-44.013,0-79.9,35.677-79.9,79.688
				c0,34.451,21.249,63.785,52.249,74.915v23.903h55v-23.735C315.879,203.347,338.429,173.889,338.429,139.253z"/>
			<g>
				<path class="st4" d="M258.244,87.876c-29.16,0-52.794,23.637-52.794,52.793c0,29.157,23.634,52.795,52.794,52.795
					c29.156,0,52.793-23.638,52.793-52.795C311.037,111.513,287.4,87.876,258.244,87.876z M258.369,174.727
					c-18.743,0-33.935-15.192-33.935-33.933c0-18.741,15.192-33.933,33.935-33.933c18.74,0,33.932,15.191,33.932,33.933
					C292.3,159.534,277.109,174.727,258.369,174.727z"/>
			</g>
			<rect x="230.879" y="238.071" class="st5" width="55" height="11"/>
			<rect x="230.879" y="249.071" class="st6" width="55" height="5"/>
			<rect x="230.879" y="264.071" class="st6" width="55" height="6"/>
			<rect x="230.879" y="254.071" class="st5" width="55" height="10"/>
			<rect x="248.879" y="270.071" class="st5" width="21" height="15"/>
			<line class="st7" x1="225.879" y1="248.571" x2="288.879" y2="248.571"/>
			<line class="st7" x1="225.879" y1="255.571" x2="288.879" y2="255.571"/>
			<line class="st7" x1="225.879" y1="264.571" x2="288.879" y2="264.571"/>
			<line class="st7" x1="225.879" y1="271.571" x2="288.879" y2="271.571"/>
			<line class="st7" x1="248.879" y1="286.571" x2="269.879" y2="286.571"/>
			<line class="st8" x1="253.379" y1="238.071" x2="253.379" y2="198.071"/>
			<line class="st8" x1="263.379" y1="238.071" x2="263.379" y2="198.071"/>
		</g>
		<g>
			<path class="st9" d="M230.322,137.98c0-44.012-35.938-79.689-79.951-79.689c-44.01,0-80.32,35.678-80.32,79.689
				c0,34.449,20.829,63.787,51.829,74.914v23.178h56v-23.008C207.879,202.073,230.322,172.613,230.322,137.98z"/>
			<g class="st10">
				<path class="st11" d="M150.032,86.605c-29.158,0-52.793,23.636-52.793,52.791c0,29.158,23.635,52.794,52.793,52.794
					c29.156,0,52.792-23.636,52.792-52.794C202.823,110.24,179.188,86.605,150.032,86.605z M150.156,173.454
					c-18.741,0-33.934-15.192-33.934-33.934c0-18.74,15.192-33.932,33.934-33.932c18.74,0,33.932,15.191,33.932,33.932
					C184.087,158.262,168.895,173.454,150.156,173.454z"/>
			</g>
			<rect x="121.879" y="236.071" class="st5" width="56" height="12"/>
			<rect x="121.879" y="248.071" class="st6" width="56" height="6"/>
			<rect x="121.879" y="262.071" class="st6" width="56" height="8"/>
			<rect x="121.879" y="254.071" class="st5" width="56" height="8"/>
			<rect x="139.879" y="270.071" class="st5" width="22" height="15"/>
			<line class="st7" x1="117.879" y1="247.571" x2="181.879" y2="247.571"/>
			<line class="st7" x1="117.879" y1="254.571" x2="181.879" y2="254.571"/>
			<line class="st7" x1="117.879" y1="263.571" x2="181.879" y2="263.571"/>
			<line class="st7" x1="117.879" y1="270.571" x2="181.879" y2="270.571"/>
			<line class="st7" x1="139.879" y1="284.571" x2="161.879" y2="284.571"/>
			<line class="st8" x1="145.379" y1="236.071" x2="145.379" y2="199.071"/>
			<line class="st8" x1="154.379" y1="236.071" x2="154.379" y2="199.071"/>
		</g>
		<g>
			<polygon class="st3" points="178.879,148.071 178.879,135.759 151.055,155.016 178.879,174.273 178.879,165.071 252.879,165.071 
				252.879,148.071 			"/>
		</g>
		<g>
			<polygon class="st9" points="246.879,132.071 246.879,143.719 274.704,124.462 246.879,105.205 246.879,115.071 173.879,115.071 
				173.879,132.071 			"/>
		</g>
		<g>
			<path class="st8" d="M140.448,190.267c2.708,0.428,5.483,0.65,8.31,0.65 M95.965,138.122c0,24.639,16.874,45.334,39.698,51.157"
				/>
		</g>
		<g>
			<path class="st8" d="M263.086,88.749c-1.787-0.184-3.602-0.275-5.438-0.275 M310.441,141.267
				c0-25.486-18.06-46.756-42.082-51.705"/>
		</g>
		<polyline class="st12" points="88.111,146.374 95.965,137.929 104.899,146.761 		"/>
		<polyline class="st12" points="317.503,134.495 310.441,141.267 301.708,134.839 		"/>
		<g>
			<line class="st7" x1="258.879" y1="167.571" x2="264.879" y2="167.571"/>
			<line class="st7" x1="258.879" y1="158.571" x2="301.879" y2="158.571"/>
			<line class="st7" x1="258.879" y1="151.571" x2="293.879" y2="151.571"/>
			<line class="st7" x1="269.879" y1="167.571" x2="275.879" y2="167.571"/>
			<line class="st7" x1="280.879" y1="167.571" x2="288.879" y2="167.571"/>
		</g>
		<g>
			<line class="st8" x1="153.879" y1="120.571" x2="146.879" y2="120.571"/>
			<line class="st8" x1="153.879" y1="128.571" x2="110.879" y2="128.571"/>
			<line class="st8" x1="153.879" y1="135.571" x2="118.879" y2="135.571"/>
			<line class="st8" x1="142.879" y1="120.571" x2="135.879" y2="120.571"/>
			<line class="st8" x1="130.879" y1="120.571" x2="123.879" y2="120.571"/>
		</g>
		<g>
			<radialGradient id="SVGID_3_" cx="205.4719" cy="67.2585" r="24.5065" gradientUnits="userSpaceOnUse">
				<stop  offset="0" style="stop-color:#8CBB69"/>
				<stop  offset="0.7837" style="stop-color:#6BAD44"/>
			</radialGradient>
			<circle class="st13" cx="205.472" cy="67.259" r="24.507"/>
			<circle class="st14" cx="205.233" cy="67.02" r="15.356"/>
			<g>
				<g>
					<path class="st7" d="M218.379,80.071v-5.322c0-3.719-3.074-4.178-6.795-4.178h-11.231c-3.721,0-6.974,0.459-6.974,4.178v5.322"
						/>
					<path class="st7" d="M210.379,56.148c0-2.481-1.773-4.576-4.253-4.576h-2.488c-2.48,0-5.258,2.096-5.258,4.576v2.49
						c0,2.478,2.778,3.934,5.258,3.934h2.488c2.48,0,4.253-1.455,4.253-3.934V56.148z"/>
				</g>
				<line class="st7" x1="200.379" y1="80.071" x2="200.379" y2="77.071"/>
				<line class="st7" x1="210.379" y1="80.071" x2="210.379" y2="77.071"/>
			</g>
		</g>
		<g>
			<path class="st3" d="M110.31,199.657c0,13.537-10.972,24.506-24.507,24.506c-13.535,0-24.506-10.969-24.506-24.506
				c0-13.533,10.972-24.508,24.506-24.508C99.338,175.15,110.31,186.124,110.31,199.657z"/>
			<path class="st14" d="M100.921,199.417c0,8.482-6.874,15.358-15.356,15.358c-8.481,0-15.356-6.876-15.356-15.358
				c0-8.479,6.876-15.354,15.356-15.354C94.046,184.063,100.921,190.939,100.921,199.417z"/>
			<g>
				<g>
					<path class="st7" d="M98.379,213.071v-5.924c0-3.719-2.742-5.576-6.463-5.576H80.685c-3.72,0-6.306,1.857-6.306,5.576v5.924"/>
					<path class="st7" d="M91.379,189.225c0-2.481-2.083-3.653-4.563-3.653h-2.488c-2.48,0-4.948,1.172-4.948,3.653v2.489
						c0,2.479,2.468,4.857,4.948,4.857h2.488c2.48,0,4.563-2.379,4.563-4.857V189.225z"/>
				</g>
				<line class="st7" x1="81.379" y1="213.071" x2="81.379" y2="210.071"/>
				<line class="st7" x1="91.379" y1="213.071" x2="91.379" y2="210.071"/>
			</g>
		</g>
		<g>
			<circle class="st9" cx="332.782" cy="178.016" r="24.507"/>
			<circle class="st14" cx="332.542" cy="177.777" r="15.357"/>
			<g>
				<g>
					<path class="st7" d="M345.379,191.071v-5.564c0-3.719-2.765-4.936-6.485-4.936h-11.23c-3.721,0-8.284,1.217-8.284,4.936v5.564"
						/>
					<path class="st7" d="M337.379,166.575c0-2.373-1.784-4.004-4.101-4.004h-2.637c-2.318,0-4.263,1.631-4.263,4.004v2.436
						c0,2.373,1.944,4.561,4.263,4.561h2.637c2.316,0,4.101-2.188,4.101-4.561V166.575z"/>
				</g>
				<line class="st7" x1="327.379" y1="191.071" x2="327.379" y2="187.071"/>
				<line class="st7" x1="338.379" y1="191.071" x2="338.379" y2="187.071"/>
			</g>
		</g>
		<g>
			<g>
				<line class="st8" x1="138.879" y1="29.571" x2="133.879" y2="29.571"/>
				<line class="st8" x1="128.879" y1="29.571" x2="123.879" y2="29.571"/>
				<line class="st8" x1="118.879" y1="29.571" x2="112.879" y2="29.571"/>
			</g>
			<line class="st8" x1="138.879" y1="38.571" x2="123.879" y2="38.571"/>
		</g>
		<g>
			<g>
				<line class="st8" x1="92.879" y1="250.571" x2="87.879" y2="250.571"/>
				<line class="st8" x1="82.879" y1="250.571" x2="77.879" y2="250.571"/>
				<line class="st8" x1="71.879" y1="250.571" x2="67.879" y2="250.571"/>
			</g>
			<line class="st8" x1="92.879" y1="259.571" x2="77.879" y2="259.571"/>
		</g>
		<g>
			<g>
				<line class="st8" x1="339.879" y1="91.571" x2="344.879" y2="91.571"/>
				<line class="st8" x1="349.879" y1="91.571" x2="355.879" y2="91.571"/>
				<line class="st8" x1="359.879" y1="91.571" x2="365.879" y2="91.571"/>
			</g>
			<line class="st8" x1="339.879" y1="82.571" x2="355.879" y2="82.571"/>
		</g>
		<g>
			<g>
				<line class="st8" x1="312.879" y1="273.571" x2="317.879" y2="273.571"/>
				<line class="st8" x1="322.879" y1="273.571" x2="327.879" y2="273.571"/>
				<line class="st8" x1="333.879" y1="273.571" x2="337.879" y2="273.571"/>
			</g>
			<line class="st8" x1="312.879" y1="264.571" x2="327.879" y2="264.571"/>
		</g>
		<g>
			<line class="st8" x1="61.546" y1="70.708" x2="66.048" y2="75.206"/>
			<line class="st8" x1="69.649" y1="78.808" x2="75.05" y2="84.208"/>
			<line class="st8" x1="60.646" y1="85.109" x2="65.148" y2="80.609"/>
			<line class="st8" x1="71.449" y1="74.308" x2="75.95" y2="69.808"/>
		</g>
		<g>
			<line class="st8" x1="206.676" y1="1.961" x2="211.178" y2="6.462"/>
			<line class="st8" x1="214.779" y1="10.063" x2="220.181" y2="15.462"/>
			<line class="st8" x1="205.776" y1="16.363" x2="210.278" y2="11.862"/>
			<line class="st8" x1="216.579" y1="5.562" x2="221.08" y2="1.061"/>
		</g>
		<g>
			<line class="st8" x1="299.613" y1="38.88" x2="304.115" y2="43.381"/>
			<line class="st8" x1="307.714" y1="46.98" x2="313.117" y2="52.382"/>
			<line class="st8" x1="298.712" y1="53.28" x2="303.214" y2="48.78"/>
			<line class="st8" x1="309.515" y1="42.48" x2="314.017" y2="37.981"/>
		</g>
		<g>
			<line class="st8" x1="351.81" y1="224.747" x2="356.31" y2="229.249"/>
			<line class="st8" x1="359.912" y1="232.848" x2="365.312" y2="238.251"/>
			<line class="st8" x1="350.91" y1="239.149" x2="355.41" y2="234.65"/>
			<line class="st8" x1="361.711" y1="228.349" x2="366.212" y2="223.849"/>
		</g>
		<g>
			<line class="st8" x1="24.627" y1="214.564" x2="29.13" y2="219.064"/>
			<line class="st8" x1="32.729" y1="222.663" x2="38.132" y2="228.066"/>
			<line class="st8" x1="23.728" y1="228.964" x2="28.229" y2="224.464"/>
			<line class="st8" x1="34.53" y1="218.163" x2="39.032" y2="213.663"/>
		</g>
		<circle class="st6" cx="166.688" cy="20.956" r="5.243"/>
		<radialGradient id="SVGID_4_" cx="259.6235" cy="28.5949" r="5.2427" gradientUnits="userSpaceOnUse">
			<stop  offset="0" style="stop-color:#8CBB69"/>
			<stop  offset="0.7837" style="stop-color:#6BAD44"/>
		</radialGradient>
		<circle class="st15" cx="259.624" cy="28.595" r="5.243"/>
		<circle class="st6" cx="365.29" cy="130.441" r="5.243"/>
		<circle class="st6" cx="41.927" cy="166.087" r="5.243"/>
		<radialGradient id="SVGID_5_" cx="96.6692" cy="50.237" r="5.2425" gradientUnits="userSpaceOnUse">
			<stop  offset="0" style="stop-color:#8CBB69"/>
			<stop  offset="0.7837" style="stop-color:#6BAD44"/>
		</radialGradient>
		<circle class="st16" cx="96.669" cy="50.237" r="5.242"/>
	</g>
	<g>
		<rect x="278.945" y="296.027" width="41.303" height="2.044"/>
		<rect x="331.863" y="296.027" width="41.305" height="2.044"/>
		<rect x="380.91" y="296.027" width="3.871" height="2.044"/>
	</g>
	<g>
		<rect x="122.496" y="10.841" width="41.301" height="2.044"/>
		<rect x="69.576" y="10.841" width="41.304" height="2.044"/>
		<rect x="57.962" y="10.841" width="3.871" height="2.044"/>
	</g>
	<g>
		<rect x="0" y="42.993" width="83.854" height="2.066"/>
		<rect x="28.689" y="36.374" width="55.165" height="2.068"/>
	</g>
	<g>
		<rect x="353.097" y="260.348" width="83.854" height="2.066"/>
		<rect x="353.097" y="253.729" width="55.164" height="2.068"/>
	</g>
	<g id="XMLID_1_">
		<g id="XMLID_5_">
			<line id="XMLID_7_" class="st17" x1="210.89" y1="271.795" x2="205.586" y2="277.098"/>
			<line id="XMLID_6_" class="st17" x1="198.346" y1="284.339" x2="193.044" y2="289.642"/>
		</g>
		<g id="XMLID_2_">
			<line id="XMLID_4_" class="st17" x1="193.044" y1="271.795" x2="198.346" y2="277.098"/>
			<line id="XMLID_3_" class="st17" x1="205.586" y1="284.339" x2="210.89" y2="289.642"/>
		</g>
	</g>
	<g>
		<line class="st18" x1="373.14" y1="180.725" x2="400.197" y2="180.725"/>
		<line class="st18" x1="376.322" y1="167.199" x2="413.724" y2="167.199"/>
		<line class="st18" x1="374.732" y1="152.078" x2="389.851" y2="152.078"/>
	</g>
</g>
</svg>