<?xml version="1.0" encoding="utf-8"?>
<!-- Generator: Adobe Illustrator 17.0.0, SVG Export Plug-In . SVG Version: 6.00 Build 0)  -->
<!DOCTYPE svg PUBLIC "-//W3C//DTD SVG 1.1//EN" "http://www.w3.org/Graphics/SVG/1.1/DTD/svg11.dtd" [
	<!ENTITY ns_extend "http://ns.adobe.com/Extensibility/1.0/">
	<!ENTITY ns_ai "http://ns.adobe.com/AdobeIllustrator/10.0/">
	<!ENTITY ns_graphs "http://ns.adobe.com/Graphs/1.0/">
	<!ENTITY ns_vars "http://ns.adobe.com/Variables/1.0/">
	<!ENTITY ns_imrep "http://ns.adobe.com/ImageReplacement/1.0/">
	<!ENTITY ns_sfw "http://ns.adobe.com/SaveForWeb/1.0/">
	<!ENTITY ns_custom "http://ns.adobe.com/GenericCustomNamespace/1.0/">
	<!ENTITY ns_adobe_xpath "http://ns.adobe.com/XPath/1.0/">
]>
<svg version="1.1" id="Capa_1" xmlns:x="&ns_extend;" xmlns:i="&ns_ai;" xmlns:graph="&ns_graphs;"
	 xmlns="http://www.w3.org/2000/svg" xmlns:xlink="http://www.w3.org/1999/xlink" x="0px" y="0px" width="452.996px"
	 height="156.373px" viewBox="0 0 452.996 156.373" enable-background="new 0 0 452.996 156.373" xml:space="preserve">
<metadata><?xpacket begin="﻿" id="W5M0MpCehiHzreSzNTczkc9d"?>
<x:xmpmeta xmlns:x="adobe:ns:meta/" x:xmptk="Adobe XMP Core 5.5-c014 79.151739, 2013/04/03-12:12:15        ">
   <rdf:RDF xmlns:rdf="http://www.w3.org/1999/02/22-rdf-syntax-ns#">
      <rdf:Description rdf:about=""
            xmlns:dc="http://purl.org/dc/elements/1.1/"
            xmlns:xmp="http://ns.adobe.com/xap/1.0/"
            xmlns:xmpGImg="http://ns.adobe.com/xap/1.0/g/img/"
            xmlns:xmpMM="http://ns.adobe.com/xap/1.0/mm/"
            xmlns:stRef="http://ns.adobe.com/xap/1.0/sType/ResourceRef#"
            xmlns:stEvt="http://ns.adobe.com/xap/1.0/sType/ResourceEvent#"
            xmlns:illustrator="http://ns.adobe.com/illustrator/1.0/"
            xmlns:xmpTPg="http://ns.adobe.com/xap/1.0/t/pg/"
            xmlns:stDim="http://ns.adobe.com/xap/1.0/sType/Dimensions#"
            xmlns:xmpG="http://ns.adobe.com/xap/1.0/g/"
            xmlns:pdf="http://ns.adobe.com/pdf/1.3/">
         <dc:format>image/svg+xml</dc:format>
         <dc:title>
            <rdf:Alt>
               <rdf:li xml:lang="x-default">Imprimir</rdf:li>
            </rdf:Alt>
         </dc:title>
         <xmp:MetadataDate>2017-06-17T14:05:55-05:00</xmp:MetadataDate>
         <xmp:ModifyDate>2017-06-17T14:05:55-05:00</xmp:ModifyDate>
         <xmp:CreateDate>2017-06-17T14:05:54-05:00</xmp:CreateDate>
         <xmp:CreatorTool>Adobe Illustrator CC (Windows)</xmp:CreatorTool>
         <xmp:Thumbnails>
            <rdf:Alt>
               <rdf:li rdf:parseType="Resource">
                  <xmpGImg:width>256</xmpGImg:width>
                  <xmpGImg:height>88</xmpGImg:height>
                  <xmpGImg:format>JPEG</xmpGImg:format>
                  <xmpGImg:image>/9j/4AAQSkZJRgABAgEASABIAAD/7QAsUGhvdG9zaG9wIDMuMAA4QklNA+0AAAAAABAASAAAAAEA&#xA;AQBIAAAAAQAB/+4ADkFkb2JlAGTAAAAAAf/bAIQABgQEBAUEBgUFBgkGBQYJCwgGBggLDAoKCwoK&#xA;DBAMDAwMDAwQDA4PEA8ODBMTFBQTExwbGxscHx8fHx8fHx8fHwEHBwcNDA0YEBAYGhURFRofHx8f&#xA;Hx8fHx8fHx8fHx8fHx8fHx8fHx8fHx8fHx8fHx8fHx8fHx8fHx8fHx8fHx8f/8AAEQgAWAEAAwER&#xA;AAIRAQMRAf/EAaIAAAAHAQEBAQEAAAAAAAAAAAQFAwIGAQAHCAkKCwEAAgIDAQEBAQEAAAAAAAAA&#xA;AQACAwQFBgcICQoLEAACAQMDAgQCBgcDBAIGAnMBAgMRBAAFIRIxQVEGE2EicYEUMpGhBxWxQiPB&#xA;UtHhMxZi8CRygvElQzRTkqKyY3PCNUQnk6OzNhdUZHTD0uIIJoMJChgZhJRFRqS0VtNVKBry4/PE&#xA;1OT0ZXWFlaW1xdXl9WZ2hpamtsbW5vY3R1dnd4eXp7fH1+f3OEhYaHiImKi4yNjo+Ck5SVlpeYmZ&#xA;qbnJ2en5KjpKWmp6ipqqusra6voRAAICAQIDBQUEBQYECAMDbQEAAhEDBCESMUEFURNhIgZxgZEy&#xA;obHwFMHR4SNCFVJicvEzJDRDghaSUyWiY7LCB3PSNeJEgxdUkwgJChgZJjZFGidkdFU38qOzwygp&#xA;0+PzhJSktMTU5PRldYWVpbXF1eX1RlZmdoaWprbG1ub2R1dnd4eXp7fH1+f3OEhYaHiImKi4yNjo&#xA;+DlJWWl5iZmpucnZ6fkqOkpaanqKmqq6ytrq+v/aAAwDAQACEQMRAD8A7B5H8j+XNW8uQXt7A0lx&#xA;I0gZhI6iiuQNgQOgzUaPR454xKQ3cLBgjKNlP/8AlWHk7/llf/kbJ/zVmV/J+Lu+1t/Kw7nf8qw8&#xA;nf8ALK//ACNk/wCasf5Pxd32r+Vh3O/5Vh5O/wCWV/8AkbJ/zVj/ACfi7vtX8rDud/yrDyd/yyv/&#xA;AMjZP+asf5Pxd32r+Vh3O/5Vh5O/5ZX/AORsn/NWP8n4u77V/Kw7nf8AKsPJ3/LK/wDyNk/5qx/k&#xA;/F3fav5WHc7/AJVj5P8A+WV/+Rsn/NWP8n4u77V/Kw7m/wDlWflD/llf/kbJ/XH+T8Xd9q/lodzf&#xA;/KtPKP8Ayyv/AMjZP64/kMXd9qfy0O5v/lW3lL/llf8A5Gyf1w/kMXcv5aDf/KuPKf8Ayyv/AMjZ&#xA;P64/kMXcv5eDf/KufKn/ACzP/wAjZP64/kcXcn8vB3/Ku/Kv/LM//I2T+uH8ji7l/Lwb/wCVeeVv&#xA;+WZ/+Rr/ANcfyOLuXwIt/wDKvvK3/LM//I1/64/kcXcvgRd/yr7yv/yzP/yNf+uP5HF3L4EWv+Ve&#xA;+Vv+WZ/+Rr/1x/I4u5fAi1/yrvyr/wAsz/8AI2T+uP5HF3L+Xg7/AJV15U/5Zn/5Gyf1wfkcXcv5&#xA;eDX/ACrjyn/yzP8A8jZP64/kMXcj8vBr/lW3lL/llf8A5Gyf1x/IYu5fy0Gv+Va+Uf8Allf/AJGy&#xA;f1wfkMXd9q/lodzX/Ks/KH/LK/8AyNk/rj/J+Lu+1fy0O5r/AJVj5P8A+WV/+Rsn/NWP8n4u77Uf&#xA;lYdzv+VYeTv+WV/+Rsn/ADVj/J+Lu+1fysO53/KsPJ3/ACyv/wAjZP8AmrH+T8Xd9q/lYdzHPPOl&#xA;/lp5N0Y6nqltKxdvTtbWOVzJNJSvFasAABuSenzoMuwdkY8sqA+1qzY8WMWQwrRfNnkmTVrSx8y+&#xA;U77y5BqFBY3txPM0b1NFZuaQ0U1+0vIDvtvmVPsDFRMDxV+O9x4yx3UomNvWP+VYeTv+WV/+Rsn/&#xA;ADVmv/k/F3fa5v5WHc7/AJVh5O/5ZX/5Gyf81Y/yfi7vtX8rDuSDzx5H8uaT5cnvbKBo7iNowrGR&#xA;2FGcA7EkdDmLrNHjhjMojdqz4IxjYT/8sP8AlDrX/Xl/5ONmV2f/AHQ+LbpfoDKszXIdirsVdirs&#xA;VdirsVdirsVdirsVdirsVdirsVdirsVdirsVdirsVdirsVdirsVdiryf8+9I1Rl8t+ZbS0OoW3l2&#xA;8M99ZKC3ONmierAA/CPR4sabcvCubDQTHqiTXEHC1kT6ZDfhLEPzB8/2f5qWml+VvK2mXUt9LdJc&#xA;TzzoqrAArIalGf4fjqzGgoO9dsnT6c4CZzIqmjNmGYCMRu9l13yndambUw6vc2X1aMRssRPF6ftE&#xA;Bl+LxzndRpzkNiRi52TEZVvSjpXky9sdThvH1u6nSKvK3Yni9RSjcmcU+jK8ekMZA8RKI4SDdlb+&#xA;Z/8Ayh11/rxf8nFx7Q/uj8Ear6CkHkfS/Nlx5cgl07W1srQtJwtzbRykEOQTyYV3OYujx5TjBjKh&#xA;7mrBCZjsa+Cf/oPz9/1Mqf8ASHD/AEzK8HP/AD/9iG3gyfzvsd+g/P3/AFMqf9IcP9MfBz/z/wDY&#xA;heDJ/O+x36D8/f8AUyp/0hw/0x8HP/P/ANiF4Mn877HfoPz9/wBTKn/SHD/THwc/8/8A2IXgyfzv&#xA;sd+g/P3/AFMqf9IcP9MfBz/z/wDYheDJ/O+x36D8/f8AUyp/0hw/0x8HP/P/ANiF4Mn877HfoPz7&#xA;/wBTKn/SHD/THwc/8/8A2IXgyfzvsb/Qnnz/AKmRP+kOH+mPg5/5/wDsQvBk/nfY3+hPPf8A1Mif&#xA;9IkP9MfBz/z/ALAngyfzvsb/AEL55/6mNP8ApEh/ph8LN/P+wLwZP532N/oXzx/1MSf9IkX9MfCz&#xA;fz/sC8E/532N/obzv/1MKf8ASJF/THws38/7Angn/O+x36H86/8AUwJ/0ixf0w+Fm/n/AGBeCf8A&#xA;O+xv9D+dP+pgT/pFi/pj4Wb+f9gXgn/O+xv9Eec/+r+n/SLF/THws38/7AvBPv8Asd+iPOf/AFf0&#xA;/wCkWL+mPhZv5/2BeCff9jX6H86f9TAn/SLF/THws38/7AvBP+d9jv0P51/6mBP+kWL+mPhZv5/2&#xA;BeCf877Gv0N53/6mFP8ApEi/pg8LN/P+wLwT/nfY1+hfPH/UxJ/0iRf0x8LN/P8AsCOCf877Gv0L&#xA;55/6mNP+kSH+mPhZv5/2BeDJ/O+xr9Cee/8AqY0/6RIf6YPBz/z/ALAvBk/nfY1+hPPn/UyJ/wBI&#xA;cP8ATHwc/wDP+wLwZP532NfoPz7/ANTKn/SHD/THwc/8/wD2IRwZP532O/Qfn7/qZU/6Q4f6Y+Dn&#xA;/n/7ELwZP532O/Qfn7/qZU/6Q4f6Y+Dn/n/7ELwZP532O/Qfn7/qZU/6Q4f6Y+Dn/n/7ELwZP532&#xA;KcXlvzvFyMXmGGMt9rjYwLWnjQYnFn/1T7Avh5P532Kn6D8/f9TKn/SHD/THwc/8/wD2IXgyfzvs&#xA;d+g/P3/Uyp/0hw/0x8HP/P8A9iF4Mn877Eg88aX5st/Lk8uo62t7aBo+duLaOIklwAeSiuxzF1mP&#xA;KMZMpWPc1Z4TEdzfwT/8sP8AlDrX/Xl/5ONmV2f/AHQ+LbpfoDKszXIdirsVdirsVdirsVdirsVd&#xA;irsVdirsVdirsVdirsVdirsVdirsVdirsVdirsVdirsVea3nnrz5rHmbWNL8l22jtZ6FJFbXdxqk&#xA;1xzkmlj9QmIWyuAig8fiNajFLKvy/wDNf+LPJul+Yjb/AFVtQiLvb8uQV1do2AO1RyQ09sUMgxVi&#xA;v5n/APKHXX+vF/ycXMLtD+6PwcfVfQXflh/yh1r/AK8v/Jxsez/7ofFdL9AZDqeo22mabd6ldkra&#xA;2UMlxOwFSI4kLsQO+y5muQxWP8yI7G1luPM+nSaIq2cmpQkSLdh7aCB7iY/uRVXiSP4lpQn7LNiq&#xA;VXH56+UbbV76zuCYrXTrk293dsJVZFFvNKJPSMQY85bWSJFUktTl0Zaqp75c/NLyV5k1OLTdGvmu&#xA;7qaA3KhYZQoRWKMGZlCqQykb9xTrirK8VYl5h/NPyZ5f1d9I1O6ljv0i9b0kt5pOS8edEKI3NuO9&#xA;Fr9+KqL/AJv+REi9WS8mRFaSOdmtblVhmhMvqwzMY+McsYtpWZGNQqE9KVVWXH5y/l/BfGylvpRP&#xA;SUoBbXDc/Rco/p0Q8/skqVqGHSuKsp0XWbHWdNj1CyLm3laRAJUaJ1eKRopEdHCsrK6MpBHbFW9Y&#xA;1ax0fS7rVL9zHZ2cbTTuFLEIu5PFak4qxy7/ADX8l2l9PZz3M6y2xlE7ra3MkatAbkMnNI2HI/UJ&#xA;+K9W47dRVVOvLPmfR/MukpqukTGazeSWEOyshDwyGORSGA6MpxVG6jqFlpun3Wo30q29lZQyXF1O&#xA;1eKRRKXdzTsqqTirBJPz08j2/rR30k1pfK8y22nywypcy+iu1Y2RTG0j1RA/UjFVWw/PD8v7yVLS&#xA;K6mfU2WDnp0VvPLOsk4T92FRDyMbSqr0+yeuKrV/O/yRPbW81nLOxuZbOOEXFrdWysl7NbojI7xU&#xA;YmK7SVVHVfAbhVEj85vIAjspZLyeCPUJ0trZp7W5iBeVIJIyeca0V0vImB8Gr2aiqGsvzu8mz3fp&#xA;TfWbWGe6htNNnltrhRcfWIreRJOLRqY1P1yMLy6j4hsDRV6BirsVdirzj89Zbv8AwzpFjBdT2kWq&#xA;a5p9heSW0hika3ndg6B13FaDFXl+vwflXoOpyabqN3rCXcQVnWO41KRaOoYfEjFehxSl/wCl/wAm&#xA;v+W3W/8Akbqn9cV3THVf0F5WtPLPnXQr/U4rNtVsxch7m5k9WykZvXjaGdj9pFOxpkoR4iAOrGUq&#xA;BJ6J1r3/ADlInxJoGiE/yXF/JT74Yq/8nM2uPsv+cfk66faH80JV+XUt9+but+Y5fOV/dy2OnCzW&#xA;30izuJbWypOsvPnHG3Jv7ob8q9cwNVjEMhiOQ/U5unyGUBI82WflHo+maL51/MDS9Lt1tbC1urBI&#xA;IEqQoNszHdiT1Nd8x25kn5Af+Sg8t/8AGGX/AKiJMUF6DirFfzP/AOUOuv8AXi/5OLmF2h/dH4OP&#xA;qvoLvyw/5Q61/wBeX/k42PZ/90Piul+gMluzarazG8MYtBGxuDNT0xHQ8+fL4ePHrXM1yHlOoRfk&#xA;DFpMvq3CXUDW8shSO9vJZ3t7a3lRrbl6vqel6JkVLcsEIrRcVXJb/wDOP8clwyyQmeSaWN42nvDI&#xA;k8Lyq0cau9Yikt1IqKnGkjUX4sVTDQ7/APJuGe08yW13HFf29nHLG11dXEk8cd4qULxSyScp3Fwi&#xA;sxBk+Nan4hVVkGl/md5I1OaGK21SEtdTLb2VWFJy8cciNHQn4XE6heVKtsMVY/8AmF5e/KafUrhv&#xA;MN4um61fQrK0y3M8cnBEaISiJX9IMYkdA/DlQGh+HZVq68s/lI06aXa3cNnrF0k9tacriWZ2muY5&#xA;BJNJDcO8c8zrdyD1ZlZ25sOVScVVZ/LH5OaFq1rbXr29rqVjaQyRRz3UsarDZwNFFK0fqLAGEED/&#xA;ABFeTKjdlNFWUQa95S03y3JrUN5DDoPqyzSXYYtGJZ7lvWr1YMbiRgy9m2oMVSvVvPf5Y6jpl1Ya&#xA;lrFpJYXUPp3SPIyKY5lbYuOPE8UcncFeLE04miqQy2v5EDT7/T7i4tGtoZ3ttQE91O0huC12snOS&#xA;SQyO3Ke65PyO/Ik/DUKp5onmb8sPL9jc6fp2r20FvaTM1yklzJM/rTSMHYvM0kjs0iMWNT4nxxVO&#xA;PM+ueU7TRK+YLu3TR9UVrXlMawzJLC7stVqCphR2J6cQTirDBD+R1pdej9dh+sRTm0lre3chlml9&#xA;UlJ2MrC4oYJd5CwRlbowOKpnoGh/lWumnXtKdG03Sf3jXUl3cvDbm2RZGlZZpCqNwCu7kVcUZi3X&#xA;FUAbf8jv0XDMWtBp+nfV5I2MkwEJsYiIeVWqDFHpRFG/30a71xVSubf8hpltbua4suNrAbmGl1Mo&#xA;ENiiL+9jVxzES6aKJIp3iJAqGxVDxad+QKPHNHcRepYtFLGfrl8WHqG3SJKGSrohjt1WM1WOiAKu&#xA;2KvV8Vdiryez/MDzL5u0mO+PlkWHluaaZbbVTfxyyO1vLJDRrYRoy8mRv2tvfEKWK+fvteWP/Ah0&#xA;3/k6cKhkOt6H53u9Rkn0rzPHplkwUR2bafFcFSAAx9RpEJqd+mKoD/DH5mf9TtF/3CYP+q2Kse/O&#xA;2C+t/wAu9Nhv7oXt4moWwnuxGIRI1JPi9NSwX5Vy3T/3kf6w+9rzfRL3F4pnUPPPav8AnFj/AI6H&#xA;nH/t2/8AEbjOd1/99L4fcHeaT+6Hx+9nX5ef+TI/Mf8A5jLD/qFOYblMc/JPzfqOl+SdDgd/V09U&#xA;cNCQKqplckqetd8NIL3sEEAjcHcHArFfzP8A+UOuv9eL/k4uYXaH90fg4+q+gu/LD/lDrX/Xl/5O&#xA;Nj2f/dD4rpfoDINVs7C90u8s9QCmwuYJIbsMeKmGRCslW2oOJO+ZrkPOF/Jz8sY5LezW9aO4pPCI&#xA;o5raKSU3MJR14xxoQfTI2jC8qAuGpiqJ1L8sPy/e60631LVZTd6ZPNqiRXFzbiR3kv21KSZ1ZAUH&#xA;rsatFwqvwkkYqx/Ufy5/LPSLSG50jX4bDVXe0g0/Vpmin9GRVjuEdpLf0XX1YLIUaST0+/H4iGVR&#xA;vl78q/y4sRpLHWpZb7RJY5ucksUayXGlrEk0qxzrI6J/o49QxtuDuxAWiqbedfLHknzVcxanJr0E&#xA;EUYt49WEdzF6FxaIbhYkkNaqQ1zN6bhhuT17KqV9+XP5caDLaeadav5Gk05xcrfXskMjStD+/jpS&#xA;PkWQx8kWDiT03G2Kpp5j/LryR5z1ptSvpTdXNpA+nXEVvMlFDpIOEnEGRSvrluHIKTxZlJVaKpcu&#xA;i+SL3ydc+SfL2txWwgvoUe5Rog/1r6xHqDrFwWOEyNXYRLRSem1MVbHkT8updNS0h1plN9dTyLex&#xA;XkPrz3MkUkV4oYDizSrPJ6gC7FqjiQKKpfY/l1+XXpTcvMfK4+tXb2U1tewp9Uiv7i7Jt4QeYo4v&#xA;JUbnyJb7NOK8VXL5G/KDzBbQ2sN4eFhcT2lokrKvG4aeeSRES6jKysDNIo+Fvh9wGxVlHmjyXpGr&#xA;6bo+hJfvplnpEiH0reRUma3lsrnT0hBblxEizFa0rseNG3CqS2/5U/l3pvmB7qPUJbe/LtKLX6zD&#xA;G6ieK6tk3VFnPFdQlEbM5YfCAaKoCqYeW/K/knRLPUPJFheyStrUVxezwAxq4idI7OVka3jiij+y&#xA;KD7Rbkd6GirHNW/KL8vLfSb7So9eewljtJopY5bm3jijaeO5jimlhVYhGIxqUgRU4LQrtsMVROq/&#xA;lD+Vt9Kz6nfma/1KGS2nu5bi2+sXTXYm4uGKbP8A6Y/D0goPw1DBVoqmS+R/y9Xzi/mk6mDq01wb&#xA;cK1xbkev60M5grx9ViHtlpGzniKhQAcVegYq7FXjXlrSPP8A5b8r23lrWNKtE0iznuHj1SG79SR2&#xA;muJZ1Ho8FoP3tPtdsQpSLz99ryx/4EOm/wDJ04VCbfmDfXa/UNMhmeCK89aS4eNijskPBfS5CjAM&#xA;ZqmhrtToTmDr80oQ9PVx9RMxjsxeANoEsOoad+5KOnrW8XwpPGWAaNkHwszLshIqGpmt0uonGYFk&#xA;guLiySEhvdoz/nID/lCrT/tp23/EZM6XT/3kf6w+9zc30S9xeF51Dz72r/nFj/joecf+3b/xG4zn&#xA;df8A30vh9wd5pP7ofH72dfl5/wCTI/Mf/mMsP+oU5huUxD8mfL2o6r5O0VIYmWAo3qXBBCKvqtU1&#xA;7n2woL6GVQqhR0UUH0YFYt+Z/wDyh11/rxf8nFzC7Q/uj8HH1X0F35Yf8oda/wCvL/ycbHs/+6Hx&#xA;XS/QE+1rS4NW0e/0q4Zkg1C3ltZXSgYJMhjYrUEVo22ZrkMJ0/8AJ6xgv21K71F7zUGvLW9+sNDG&#xA;hVrSSJwiAV4q/oKpxVb5u/KSPzT5hvr++vfQsri3iihihjRpfUSC6tyzyOvIJwvW+BT8R67VBVQ+&#xA;p/kfpt3qf1+DUntzFczXNrCbaCVENzJJLKkgZf3oDzH0uX92vwjFUu1P8gvK9zIunDWrqCS402ez&#xA;jt+SszQIssQkC1CkxnUPiJU1qtONTVVE3n5MeV9f08z6VqZtra7uLq6+sWaIiyC5kkbhzjMbFYvU&#xA;KpRu1DVaqVU/8z/ljaa9omlaZJfPA+mWr2QnEUcnqRSwrFJ8EgIVz6alXXdd6dcVVPJ35Z6Z5Xn1&#xA;mS2vLm4XVwEZZnLenGsk0oCkljXldNv06fDXkWVYxB/zj5pUc9nO2s3Qls5YmQwxxQKYoUtI0UpH&#xA;ROdNOjPMg7knjXjxVWQf8486VBFZxR61dCKzuoruOLiAlYHtnReCsop/oS1U1Van01QUAVR835Fa&#xA;E+mfUYrx4CY44GmWCFj6Q05dOkAV1ZQ7oDIHpVXJ6gkFVcv5IaWrhk1OcVmnkl5RxOTHc3EVy6Iz&#xA;hijh7dAJBvSvtRVP9W8myal+YOj+YZPTSy0q2lDgSN6k9yxK24ki4ceECySsrepXk/2dq4qkfmv8&#xA;pH1nzUur22oC2guJjd3isivKl1HFbRQPEePxJ/oUfKNmA6kbnFUT5e/KLT9H8z2/mI6ndXV5CHZ0&#xA;eixvLJG8TPwU8FBWQ7Ba1702xVLh+Ud3c/mJc69qElqdFDyT2tuoEk0k01zZ3LesGhSiq1iAAZH6&#xA;7cemKoS5/IqSXUrI/plpNOjtGsbsyRR+uLeOOCGCOGi8Q3pwfFITyB3HWgVVz+QelGa0lGr3Aeye&#xA;BYGWONGFvbMWRGZOLPIanm71D7ckPFaKvU8VdiqldWltdR+lcRiWOvLi3SoxV5d+d9hpGm6N5cvB&#xA;HHbJD5j0xppyeKpGrsWZmJoAKbnFUv8AMF75G1u0SC41yzilhf1ba5huoBJE9CKryLKQQSCGBByG&#xA;THGYqXJjKAkKKU6ZZeT4byG61HzPZXxtnWS3gWaCGL1ENVeRfUkZ2U7r8QUHelQKY+HRQxmxuWrH&#xA;pxE2g/zTu9C8zWOg6BYatayXOpa3Y24MEiTuiyMyNJ6aNUhOdTuPnmdjnwyB7i2zjxRI7wkGvf8A&#xA;OOPn/Twz6f8AVtWiG4EEnpS090m4D6AxzeY+0cZ57OpnoZjlujvyEvrLyf5l816T5qnj0PUbkaeb&#xA;e3v2FuX4LNy4mTiD/eL33rtmq1kxLKSOW33Ox0sSMYB/G7P/AMt5Y5fzF/MWSJw8bXenlXUggj6q&#xA;dwRmK5Cc/kB/5KDy3/xhl/6iJMUF6DirFfzP/wCUOuv9eL/k4uYXaH90fg4+q+gu/LD/AJQ61/15&#xA;f+TjY9n/AN0Piul+gJ9rVg+o6Pf6eknoveW8tus3xHgZUKBvgaNtq12YH3GZrkPNfLH5N65o+vaL&#xA;qcuvpNBpYZRaJb+kEQyXDmOExsigSC5Akqu/Ba8tuKqH8yfk7r17qclxbXtpcw3moT3FxFcwyFGj&#xA;mF1KjXYEoMxt2nSCHhxogFemyqItfySuhcKuoaumoWa19YzQv694SSyG8Yysr+hskVF+zUHFUNpv&#xA;5D3Uep2NzqmqQajFamM3LPBJ692qvDIVnkaVgwUwcU22Wla4q3H+R+rvrdrdXmuRXGnxQWFtcWv1&#xA;cq80NmtoskTuH5FJDZs25P2+goeSr0PyfoV9oWiwaTcXMdzBaKI7V0RkYJyY8W5M4ooIVaUoBiqd&#xA;4q7FXYq7FXYq7FXYq7FXYq7FXYq7FXYq7FUNqWl6Zqlm9lqdpDfWclPUtrmNJomoajkjhlND7Yq8&#xA;H/Ovyb5Q07zX5Mg0/Q9Ps4bpNUNzFb2sMSy+nHAU9RUUBuPI8a9K4hUk8qeVfLE/5qeV7KbR7KWz&#xA;uItRM9s9tE0UhjgUoXQrxbidxUbYSofQGneRPJGmXkd7pvl7TLK8ir6Vzb2dvFKtRQ8XRFYVB8cC&#xA;p5iqXaz5c8v63B6Gs6ba6jCOiXUKTAfLmDQ/LFXk+j6a/wCWfmjzJb2HlLVL3R9WmgudMfRoVuok&#xA;iSLi0cnqSoyMJCxp4HwpilnP5QaDqmgflroWk6pF6GoW0DevDUEoZJXkCkjaoDivvihmGKsV/M//&#xA;AJQ66/14v+Ti5hdof3R+Dj6r6C78sP8AlDrX/Xl/5ONj2f8A3Q+K6X6AyrM1yHYq7FXYq7FXYq7F&#xA;XYq7FXYq7FXYq7FXYq7FXYq7FXYq7FXYq7FXYq8o/O3yn5w1jWfK+p+XNK/Sw0sX63cIuILcr9ZW&#xA;FYzWdkB/u26YqkHkLyX+Yo/MfRNZ1ny8dJ07TIr1ZZmvLW4q1xCEQBYXZuo8MVe7Yq7FXYq7FXYq&#xA;7FWK/mf/AModdf68X/Jxcwu0P7o/Bx9V9BSPyJ508s6X5bt7O/vPRuUaQtH6crUDOSN0Rh0zG0er&#xA;xwxgSO/xasGaEY0SyD/lZPkr/q4/8kZ/+qeZX5/D/O+w/qbvzMO93/KyfJX/AFcf+SM//VPH8/h/&#xA;nfYf1L+Zh3u/5WT5K/6uP/JGf/qnj+fw/wA77D+pfzMO93/KyfJX/Vx/5Iz/APVPH8/h/nfYf1L+&#xA;Zh3u/wCVk+Sv+rj/AMkZ/wDqnj+fw/zvsP6l/Mw73f8AKyfJX/Vx/wCSM/8A1Tx/P4f532H9S/mY&#xA;d7v+Vk+Sv+rj/wAkZ/8Aqnj+fw/zvsP6l/Mw72/+VkeS/wDq4/8AJGf/AKp4/n8P877D+pfzMO9v&#xA;/lY/kz/q4/8AJGf/AKp4fz+H+d9hX8zDvd/ysXyb/wBXD/kjP/zRj+ew9/2FP5iHe3/ysTyd/wBX&#xA;D/kjP/zRj+exd/2FfzEO93/Kw/J//Vw/5Iz/APNGP57F3/YV/MQ72/8AlYXk/wD6uH/JGf8A5ox/&#xA;PYu/7Cv5iHe7/lYXlD/lv/5Iz/8ANGP57F3/AGFfHh3u/wCVg+UP+W//AJIzf80Y/nsXf9hXx4d7&#xA;f/KwfKH/AC3/APJGb/mjH89i7/sK+PDva/5WF5Q/5b/+SM3/ADRj+exd/wBhXx4d7v8AlYXk/wD5&#xA;b/8AkjP/AM0Y/nsXf9hX8xDvd/ysPyf/ANXD/kjP/wA0Y/nsXf8AYV/MQ72v+VieTv8Aq4f8kZ/+&#xA;aMfz2Lv+wr+Yh3tf8rF8m/8AVw/5Iz/80Y/nsPf9hX8xDvd/ysbyZ/1cf+SM/wD1Tx/P4f532FH5&#xA;iHe1/wArI8l/9XH/AJIz/wDVPB+fw/zvsP6l/Mw72v8AlZPkv/q4/wDJGf8A6p4/n8P877D+pfzM&#xA;O93/ACsnyV/1cf8AkjP/ANU8fz+H+d9h/Uv5mHe7/lZPkr/q4/8AJGf/AKp4/n8P877D+pfzMO93&#xA;/KyfJX/Vx/5Iz/8AVPH8/h/nfYf1L+Zh3u/5WT5K/wCrj/yRn/6p4/n8P877D+pfzMO93/KyfJX/&#xA;AFcf+SM//VPH8/h/nfYf1L+Zh3u/5WT5K/6uP/JGf/qnj+fw/wA77D+pfzMO9j/nvzp5Z1Ty3cWd&#xA;heetcu0ZWP05VqFcE7uijpmLrNXjnjIid/i0580JRoF//9k=</xmpGImg:image>
               </rdf:li>
            </rdf:Alt>
         </xmp:Thumbnails>
         <xmpMM:InstanceID>xmp.iid:0d71ffb3-1dd2-fb4c-aeda-064a559b279a</xmpMM:InstanceID>
         <xmpMM:DocumentID>xmp.did:0d71ffb3-1dd2-fb4c-aeda-064a559b279a</xmpMM:DocumentID>
         <xmpMM:OriginalDocumentID>uuid:5D20892493BFDB11914A8590D31508C8</xmpMM:OriginalDocumentID>
         <xmpMM:RenditionClass>proof:pdf</xmpMM:RenditionClass>
         <xmpMM:DerivedFrom rdf:parseType="Resource">
            <stRef:instanceID>xmp.iid:d44f057c-79f1-a749-a47a-387731c6193c</stRef:instanceID>
            <stRef:documentID>xmp.did:d44f057c-79f1-a749-a47a-387731c6193c</stRef:documentID>
            <stRef:originalDocumentID>uuid:5D20892493BFDB11914A8590D31508C8</stRef:originalDocumentID>
            <stRef:renditionClass>proof:pdf</stRef:renditionClass>
         </xmpMM:DerivedFrom>
         <xmpMM:History>
            <rdf:Seq>
               <rdf:li rdf:parseType="Resource">
                  <stEvt:action>saved</stEvt:action>
                  <stEvt:instanceID>xmp.iid:d44f057c-79f1-a749-a47a-387731c6193c</stEvt:instanceID>
                  <stEvt:when>2017-06-17T13:56:55-05:00</stEvt:when>
                  <stEvt:softwareAgent>Adobe Illustrator CC (Windows)</stEvt:softwareAgent>
                  <stEvt:changed>/</stEvt:changed>
               </rdf:li>
               <rdf:li rdf:parseType="Resource">
                  <stEvt:action>saved</stEvt:action>
                  <stEvt:instanceID>xmp.iid:0d71ffb3-1dd2-fb4c-aeda-064a559b279a</stEvt:instanceID>
                  <stEvt:when>2017-06-17T14:05:55-05:00</stEvt:when>
                  <stEvt:softwareAgent>Adobe Illustrator CC (Windows)</stEvt:softwareAgent>
                  <stEvt:changed>/</stEvt:changed>
               </rdf:li>
            </rdf:Seq>
         </xmpMM:History>
         <illustrator:StartupProfile>Print</illustrator:StartupProfile>
         <xmpTPg:HasVisibleOverprint>False</xmpTPg:HasVisibleOverprint>
         <xmpTPg:HasVisibleTransparency>False</xmpTPg:HasVisibleTransparency>
         <xmpTPg:NPages>1</xmpTPg:NPages>
         <xmpTPg:MaxPageSize rdf:parseType="Resource">
            <stDim:w>452.996002</stDim:w>
            <stDim:h>156.372986</stDim:h>
            <stDim:unit>Pixels</stDim:unit>
         </xmpTPg:MaxPageSize>
         <xmpTPg:PlateNames>
            <rdf:Seq>
               <rdf:li>Cyan</rdf:li>
               <rdf:li>Magenta</rdf:li>
               <rdf:li>Yellow</rdf:li>
               <rdf:li>Black</rdf:li>
            </rdf:Seq>
         </xmpTPg:PlateNames>
         <xmpTPg:SwatchGroups>
            <rdf:Seq>
               <rdf:li rdf:parseType="Resource">
                  <xmpG:groupName>Grupo de muestras por defecto</xmpG:groupName>
                  <xmpG:groupType>0</xmpG:groupType>
               </rdf:li>
            </rdf:Seq>
         </xmpTPg:SwatchGroups>
         <pdf:Producer>Adobe PDF library 10.01</pdf:Producer>
      </rdf:Description>
   </rdf:RDF>
</x:xmpmeta>
                                                                                                    
                                                                                                    
                                                                                                    
                                                                                                    
                                                                                                    
                                                                                                    
                                                                                                    
                                                                                                    
                                                                                                    
                                                                                                    
                                                                                                    
                                                                                                    
                                                                                                    
                                                                                                    
                                                                                                    
                                                                                                    
                                                                                                    
                                                                                                    
                                                                                                    
                                                                                                    
                           
<?xpacket end="w"?>
	</metadata>
<g>
	
		<radialGradient id="SVGID_1_" cx="226.498" cy="63.495" r="166.143" gradientTransform="matrix(1 0 0 -1 0 157.373)" gradientUnits="userSpaceOnUse">
		<stop  offset="0" style="stop-color:#8CBB69"/>
		<stop  offset="0.7837" style="stop-color:#6BAD44"/>
	</radialGradient>
	
		<rect x="2" y="33.383" fill="#FFFFFF" stroke="url(#SVGID_1_)" stroke-width="4" stroke-miterlimit="10" width="448.996" height="120.99"/>
	<g>
		
			<radialGradient id="SVGID_2_" cx="226.498" cy="139.361" r="160.6639" gradientTransform="matrix(1 0 0 -1 0 157.373)" gradientUnits="userSpaceOnUse">
			<stop  offset="0" style="stop-color:#8CBB69"/>
			<stop  offset="0.7837" style="stop-color:#6BAD44"/>
		</radialGradient>
		
			<rect x="2" y="2" fill="#FFFFFF" stroke="url(#SVGID_2_)" stroke-width="4" stroke-miterlimit="10" width="448.996" height="32.024"/>
		<g>
			
				<radialGradient id="SVGID_3_" cx="426.212" cy="139.3605" r="7.4692" gradientTransform="matrix(1 0 0 -1 0 157.373)" gradientUnits="userSpaceOnUse">
				<stop  offset="0" style="stop-color:#8CBB69"/>
				<stop  offset="0.7837" style="stop-color:#6BAD44"/>
			</radialGradient>
			<path fill="url(#SVGID_3_)" d="M434.09,20.416h-15.758c-1.332,0-2.406-1.072-2.406-2.399c0-1.335,1.074-2.408,2.406-2.408h15.758
				c1.33,0,2.408,1.073,2.408,2.408C436.498,19.344,435.42,20.416,434.09,20.416z"/>
		</g>
		<g>
			<path fill="#154B8A" d="M400.141,28.711c-5.902,0-10.707-4.799-10.707-10.694c0-5.906,4.805-10.702,10.707-10.702
				c5.898,0,10.699,4.796,10.699,10.702C410.84,23.912,406.039,28.711,400.141,28.711z M400.141,12.127
				c-3.248,0-5.889,2.639-5.889,5.89c0,3.245,2.641,5.883,5.889,5.883c3.245,0,5.885-2.638,5.885-5.883
				C406.025,14.765,403.386,12.127,400.141,12.127z"/>
		</g>
	</g>
</g>
<g>
	<g>
		<g>
			<path fill="#A7A8AC" d="M413.01,98.159c6.762,0,12.107-5.481,12.107-12.245c0-6.761-5.279-12.243-12.039-12.243
				c-0.075,0-0.018,0.01-0.018,0.01v24.467C413.061,98.147,412.934,98.159,413.01,98.159z"/>
		</g>
		<rect x="306.906" y="71.059" fill="#BCBDBF" width="15.284" height="30.572"/>
		<g>
			<path fill="#F1F1F1" d="M412.211,121.929c0,0.984-0.799,1.783-1.782,1.783h-7.478c-0.983,0-1.781-0.799-1.781-1.783v-70.32
				c0-0.983,0.799-1.78,1.781-1.78h7.478c0.983,0,1.782,0.797,1.782,1.78V121.929z"/>
			<path fill="#231F20" d="M410.429,125.1h-7.478c-1.746,0-3.17-1.423-3.17-3.171v-70.32c0-1.748,1.424-3.169,3.17-3.169h7.478
				c1.747,0,3.169,1.421,3.169,3.169v70.32C413.598,123.678,412.176,125.1,410.429,125.1z M402.951,51.217
				c-0.217,0-0.393,0.176-0.393,0.393v70.32c0,0.218,0.176,0.394,0.393,0.394h7.478c0.217,0,0.394-0.176,0.394-0.394V51.61
				c0-0.217-0.177-0.393-0.394-0.393H402.951z"/>
		</g>
		<g>
			<rect x="334.08" y="113.52" fill="#929497" width="14.438" height="22.93"/>
			<path fill="#231F20" d="M348.518,137.839H334.08c-0.768,0-1.389-0.621-1.389-1.389v-22.93c0-0.767,0.621-1.389,1.389-1.389
				h14.438c0.767,0,1.389,0.622,1.389,1.389v22.93C349.906,137.218,349.285,137.839,348.518,137.839z M335.469,135.062h11.66
				v-20.153h-11.66V135.062z"/>
		</g>
		<g>
			<path fill="#231F20" d="M306.906,94.527h-7.645c-0.768,0-1.389-0.621-1.389-1.389V79.551c0-0.767,0.621-1.388,1.389-1.388h7.645
				v2.776h-6.256V91.75h6.256V94.527z"/>
		</g>
		<g>
			<polygon fill="#154B8A" points="364.652,66.968 387.583,60.632 387.583,111.644 364.652,105.307 			"/>
			<g>
				<polygon fill="#F1F1F1" points="401.17,56.975 401.17,74.921 401.17,97.353 401.17,115.3 387.583,111.644 387.583,60.632 				
					"/>
				<path fill="#231F20" d="M401.17,116.688c-0.121,0-0.242-0.016-0.36-0.047l-13.589-3.656c-0.605-0.163-1.025-0.713-1.025-1.341
					V60.632c0-0.629,0.42-1.179,1.025-1.342l13.589-3.655c0.419-0.114,0.863-0.023,1.206,0.238c0.342,0.264,0.543,0.669,0.543,1.103
					V115.3c0,0.433-0.201,0.84-0.543,1.103C401.772,116.59,401.473,116.688,401.17,116.688z M388.971,110.58l10.81,2.908V58.786
					l-10.81,2.909V110.58z"/>
			</g>
		</g>
		<g>
			<path fill="#D1D2D3" d="M364.652,110.849c0,1.475-1.195,2.671-2.672,2.671h-37.117c-1.477,0-2.673-1.196-2.673-2.671V61.842
				c0-1.477,1.196-2.672,2.673-2.672h37.117c1.477,0,2.672,1.195,2.672,2.672V110.849z"/>
			<path fill="#231F20" d="M361.981,114.909h-37.117c-2.239,0-4.061-1.821-4.061-4.059V61.842c0-2.239,1.821-4.061,4.061-4.061
				h37.117c2.238,0,4.06,1.821,4.06,4.061v49.008C366.041,113.088,364.219,114.909,361.981,114.909z M324.863,60.558
				c-0.707,0-1.285,0.575-1.285,1.283v49.008c0,0.708,0.578,1.282,1.285,1.282h37.117c0.707,0,1.284-0.574,1.284-1.282V61.842
				c0-0.708-0.577-1.283-1.284-1.283L324.863,60.558L324.863,60.558z"/>
		</g>
		
			<radialGradient id="SVGID_4_" cx="342.984" cy="61.961" r="9.498" gradientTransform="matrix(1 0 0 -1 0 157.373)" gradientUnits="userSpaceOnUse">
			<stop  offset="0" style="stop-color:#8CBB69"/>
			<stop  offset="0.7837" style="stop-color:#6BAD44"/>
		</radialGradient>
		<circle fill="url(#SVGID_4_)" stroke="#000000" stroke-miterlimit="10" cx="342.984" cy="95.412" r="9.498"/>
	</g>
	<g>
		<rect x="329.834" y="67.123" fill="#231F20" width="26.326" height="2.776"/>
	</g>
	<g>
		<rect x="329.834" y="74.766" fill="#231F20" width="26.326" height="2.776"/>
	</g>
</g>
<g>
	<path d="M34.123,70.582l1.231,0.312c-0.258,1.011-0.723,1.782-1.394,2.313s-1.49,0.796-2.459,0.796
		c-1.004,0-1.819-0.204-2.447-0.612c-0.629-0.408-1.106-0.999-1.435-1.774c-0.328-0.773-0.492-1.605-0.492-2.494
		c0-0.969,0.186-1.814,0.556-2.536s0.896-1.27,1.58-1.644c0.684-0.375,1.436-0.563,2.257-0.563c0.931,0,1.714,0.237,2.349,0.711
		c0.635,0.475,1.077,1.141,1.326,2l-1.212,0.285c-0.216-0.677-0.529-1.17-0.939-1.479s-0.927-0.463-1.549-0.463
		c-0.715,0-1.313,0.171-1.793,0.514s-0.818,0.803-1.013,1.381c-0.194,0.577-0.292,1.173-0.292,1.787
		c0,0.791,0.115,1.481,0.346,2.072c0.23,0.59,0.59,1.031,1.076,1.323s1.014,0.438,1.581,0.438c0.689,0,1.273-0.199,1.752-0.598
		C33.63,71.955,33.954,71.365,34.123,70.582z"/>
	<path d="M41.144,73.845v-0.99c-0.525,0.762-1.238,1.143-2.14,1.143c-0.397,0-0.77-0.076-1.114-0.229s-0.601-0.344-0.768-0.574
		s-0.285-0.514-0.353-0.848c-0.047-0.225-0.069-0.58-0.069-1.066v-4.177h1.143v3.739c0,0.596,0.022,0.998,0.069,1.205
		c0.072,0.301,0.225,0.537,0.457,0.708c0.232,0.172,0.521,0.257,0.863,0.257s0.664-0.087,0.965-0.263s0.513-0.415,0.638-0.718
		s0.188-0.741,0.188-1.316v-3.612h1.143v6.741H41.144z"/>
	<path d="M48.355,73.013c-0.423,0.36-0.83,0.614-1.222,0.762c-0.392,0.148-0.812,0.223-1.261,0.223c-0.74,0-1.31-0.181-1.707-0.543
		c-0.397-0.361-0.597-0.824-0.597-1.387c0-0.33,0.075-0.632,0.226-0.904c0.15-0.273,0.347-0.492,0.59-0.657s0.518-0.29,0.822-0.374
		c0.225-0.06,0.563-0.117,1.016-0.172c0.923-0.11,1.602-0.241,2.037-0.394c0.005-0.156,0.007-0.256,0.007-0.298
		c0-0.466-0.108-0.794-0.323-0.984c-0.293-0.258-0.727-0.387-1.302-0.387c-0.537,0-0.935,0.094-1.19,0.282s-0.445,0.521-0.568,0.999
		l-1.117-0.152c0.102-0.478,0.27-0.864,0.502-1.158s0.569-0.521,1.01-0.679c0.439-0.159,0.949-0.238,1.529-0.238
		c0.575,0,1.043,0.067,1.402,0.203c0.36,0.136,0.625,0.306,0.794,0.511s0.288,0.465,0.355,0.777
		c0.038,0.195,0.058,0.547,0.058,1.055v1.523c0,1.062,0.023,1.733,0.072,2.015s0.146,0.552,0.289,0.81h-1.193
		C48.466,73.607,48.39,73.331,48.355,73.013z M48.26,70.462c-0.414,0.169-1.036,0.313-1.865,0.432
		c-0.471,0.067-0.803,0.144-0.997,0.229c-0.194,0.084-0.345,0.208-0.45,0.371c-0.106,0.163-0.159,0.344-0.159,0.543
		c0,0.305,0.115,0.559,0.346,0.762s0.568,0.305,1.013,0.305c0.44,0,0.832-0.097,1.174-0.289c0.344-0.192,0.595-0.456,0.756-0.791
		c0.123-0.258,0.184-0.639,0.184-1.143V70.462z M46.039,66.266l0.844-1.777h1.498l-1.396,1.777H46.039z"/>
	<path d="M51.162,73.845v-9.306h1.143v9.306H51.162z"/>
	<path d="M58.69,71.674l1.181,0.146c-0.187,0.69-0.531,1.226-1.035,1.606c-0.503,0.381-1.146,0.571-1.93,0.571
		c-0.985,0-1.768-0.304-2.345-0.911c-0.578-0.607-0.866-1.459-0.866-2.555c0-1.134,0.291-2.015,0.875-2.641s1.342-0.939,2.273-0.939
		c0.9,0,1.637,0.307,2.209,0.921c0.57,0.613,0.856,1.477,0.856,2.59c0,0.067-0.002,0.169-0.007,0.305h-5.027
		c0.043,0.74,0.252,1.307,0.629,1.701c0.377,0.393,0.847,0.59,1.409,0.59c0.419,0,0.776-0.11,1.073-0.33
		C58.282,72.508,58.517,72.156,58.69,71.674z M54.939,69.827h3.764c-0.051-0.567-0.194-0.993-0.432-1.276
		c-0.364-0.44-0.836-0.66-1.416-0.66c-0.524,0-0.966,0.176-1.323,0.526C55.175,68.769,54.977,69.238,54.939,69.827z"/>
	<path d="M60.85,71.833l1.129-0.178c0.064,0.452,0.24,0.799,0.53,1.041c0.29,0.24,0.695,0.361,1.216,0.361
		c0.524,0,0.914-0.106,1.168-0.32s0.381-0.465,0.381-0.752c0-0.259-0.112-0.462-0.336-0.609c-0.157-0.102-0.547-0.231-1.168-0.388
		c-0.838-0.212-1.419-0.395-1.743-0.549c-0.323-0.154-0.569-0.368-0.736-0.642c-0.167-0.272-0.251-0.574-0.251-0.904
		c0-0.301,0.069-0.579,0.207-0.835s0.324-0.469,0.562-0.638c0.178-0.131,0.42-0.242,0.727-0.333s0.636-0.137,0.987-0.137
		c0.529,0,0.993,0.076,1.394,0.229c0.399,0.152,0.694,0.358,0.886,0.619c0.189,0.26,0.321,0.608,0.393,1.044l-1.117,0.152
		c-0.051-0.347-0.197-0.618-0.44-0.813s-0.587-0.292-1.032-0.292c-0.524,0-0.898,0.087-1.123,0.261
		c-0.225,0.173-0.336,0.376-0.336,0.609c0,0.147,0.046,0.281,0.139,0.399c0.094,0.123,0.239,0.225,0.438,0.305
		c0.114,0.042,0.45,0.14,1.009,0.292c0.809,0.216,1.373,0.393,1.692,0.53s0.57,0.337,0.752,0.6s0.272,0.588,0.272,0.978
		c0,0.381-0.11,0.739-0.333,1.076c-0.222,0.336-0.542,0.597-0.962,0.78c-0.418,0.185-0.893,0.276-1.422,0.276
		c-0.875,0-1.543-0.182-2.002-0.546S60.977,72.548,60.85,71.833z"/>
	<path d="M93.844,73.013c-0.423,0.36-0.83,0.614-1.222,0.762c-0.392,0.148-0.812,0.223-1.261,0.223c-0.74,0-1.31-0.181-1.707-0.543
		c-0.397-0.361-0.597-0.824-0.597-1.387c0-0.33,0.075-0.632,0.226-0.904c0.15-0.273,0.347-0.492,0.59-0.657s0.518-0.29,0.822-0.374
		c0.225-0.06,0.563-0.117,1.016-0.172c0.923-0.11,1.602-0.241,2.037-0.394c0.005-0.156,0.007-0.256,0.007-0.298
		c0-0.466-0.108-0.794-0.323-0.984c-0.293-0.258-0.727-0.387-1.302-0.387c-0.537,0-0.935,0.094-1.19,0.282s-0.445,0.521-0.568,0.999
		l-1.117-0.152c0.102-0.478,0.27-0.864,0.502-1.158s0.569-0.521,1.01-0.679c0.439-0.159,0.949-0.238,1.529-0.238
		c0.575,0,1.043,0.067,1.402,0.203c0.36,0.136,0.625,0.306,0.794,0.511s0.288,0.465,0.355,0.777
		c0.038,0.195,0.058,0.547,0.058,1.055v1.523c0,1.062,0.023,1.733,0.072,2.015s0.146,0.552,0.289,0.81h-1.193
		C93.954,73.607,93.878,73.331,93.844,73.013z M93.748,70.462c-0.414,0.169-1.036,0.313-1.865,0.432
		c-0.471,0.067-0.803,0.144-0.997,0.229c-0.194,0.084-0.345,0.208-0.45,0.371c-0.106,0.163-0.159,0.344-0.159,0.543
		c0,0.305,0.115,0.559,0.346,0.762s0.568,0.305,1.013,0.305c0.44,0,0.832-0.097,1.174-0.289c0.344-0.192,0.595-0.456,0.756-0.791
		c0.123-0.258,0.184-0.639,0.184-1.143V70.462z"/>
	<path d="M96.676,76.429v-9.325h1.041v0.876c0.245-0.343,0.522-0.6,0.831-0.771c0.309-0.171,0.684-0.257,1.124-0.257
		c0.575,0,1.083,0.148,1.523,0.444c0.439,0.296,0.771,0.714,0.996,1.254c0.225,0.539,0.336,1.131,0.336,1.773
		c0,0.69-0.123,1.312-0.371,1.863c-0.247,0.553-0.607,0.976-1.079,1.27s-0.968,0.441-1.488,0.441c-0.381,0-0.723-0.08-1.025-0.241
		s-0.551-0.364-0.745-0.609v3.282H96.676z M97.71,70.513c0,0.867,0.176,1.508,0.526,1.923c0.352,0.415,0.777,0.622,1.276,0.622
		c0.508,0,0.942-0.215,1.305-0.645c0.361-0.43,0.542-1.095,0.542-1.996c0-0.859-0.176-1.502-0.529-1.93s-0.775-0.641-1.267-0.641
		c-0.486,0-0.917,0.227-1.292,0.682C97.897,68.983,97.71,69.645,97.71,70.513z"/>
	<path d="M103.48,70.474c0-1.248,0.347-2.173,1.041-2.773c0.58-0.499,1.286-0.749,2.12-0.749c0.927,0,1.685,0.304,2.272,0.911
		s0.883,1.446,0.883,2.517c0,0.867-0.131,1.55-0.391,2.047c-0.261,0.497-0.64,0.884-1.137,1.159
		c-0.497,0.274-1.04,0.412-1.628,0.412c-0.943,0-1.706-0.303-2.288-0.908C103.771,72.484,103.48,71.612,103.48,70.474z
		 M104.654,70.474c0,0.863,0.188,1.51,0.565,1.939s0.851,0.645,1.422,0.645c0.567,0,1.039-0.216,1.415-0.647
		c0.377-0.432,0.565-1.09,0.565-1.974c0-0.834-0.189-1.466-0.568-1.896s-0.85-0.644-1.412-0.644c-0.571,0-1.045,0.213-1.422,0.641
		S104.654,69.61,104.654,70.474z"/>
	<path d="M111.086,76.44l-0.127-1.072c0.249,0.067,0.467,0.102,0.653,0.102c0.254,0,0.457-0.042,0.609-0.127
		s0.277-0.203,0.374-0.355c0.072-0.114,0.188-0.397,0.35-0.851c0.021-0.063,0.055-0.156,0.102-0.279l-2.559-6.754h1.232l1.402,3.903
		c0.182,0.496,0.345,1.016,0.488,1.563c0.132-0.525,0.288-1.037,0.471-1.537l1.44-3.929h1.143l-2.564,6.855
		c-0.275,0.74-0.489,1.251-0.642,1.53c-0.203,0.376-0.436,0.652-0.697,0.828c-0.263,0.176-0.576,0.264-0.939,0.264
		C111.602,76.581,111.356,76.534,111.086,76.44z"/>
	<path d="M122.035,73.013c-0.423,0.36-0.83,0.614-1.222,0.762c-0.392,0.148-0.812,0.223-1.261,0.223c-0.74,0-1.31-0.181-1.707-0.543
		c-0.397-0.361-0.597-0.824-0.597-1.387c0-0.33,0.075-0.632,0.226-0.904c0.15-0.273,0.347-0.492,0.59-0.657s0.518-0.29,0.822-0.374
		c0.225-0.06,0.563-0.117,1.016-0.172c0.923-0.11,1.602-0.241,2.037-0.394c0.005-0.156,0.007-0.256,0.007-0.298
		c0-0.466-0.108-0.794-0.323-0.984c-0.293-0.258-0.727-0.387-1.302-0.387c-0.537,0-0.935,0.094-1.19,0.282s-0.445,0.521-0.568,0.999
		l-1.117-0.152c0.102-0.478,0.27-0.864,0.502-1.158s0.569-0.521,1.01-0.679c0.439-0.159,0.949-0.238,1.529-0.238
		c0.575,0,1.043,0.067,1.402,0.203c0.36,0.136,0.625,0.306,0.794,0.511s0.288,0.465,0.355,0.777
		c0.038,0.195,0.058,0.547,0.058,1.055v1.523c0,1.062,0.023,1.733,0.072,2.015s0.146,0.552,0.289,0.81h-1.193
		C122.145,73.607,122.069,73.331,122.035,73.013z M121.939,70.462c-0.414,0.169-1.036,0.313-1.865,0.432
		c-0.471,0.067-0.803,0.144-0.997,0.229c-0.194,0.084-0.345,0.208-0.45,0.371c-0.106,0.163-0.159,0.344-0.159,0.543
		c0,0.305,0.115,0.559,0.346,0.762s0.568,0.305,1.013,0.305c0.44,0,0.832-0.097,1.174-0.289c0.344-0.192,0.595-0.456,0.756-0.791
		c0.123-0.258,0.184-0.639,0.184-1.143V70.462z"/>
	<path d="M124.867,73.845v-6.741h1.027v0.958c0.496-0.74,1.211-1.11,2.146-1.11c0.406,0,0.779,0.073,1.12,0.219
		c0.341,0.146,0.596,0.338,0.765,0.575c0.169,0.236,0.288,0.518,0.355,0.844c0.042,0.212,0.063,0.582,0.063,1.111v4.145h-1.143
		v-4.101c0-0.466-0.044-0.813-0.134-1.044c-0.088-0.23-0.246-0.415-0.473-0.553s-0.492-0.206-0.797-0.206
		c-0.486,0-0.906,0.154-1.26,0.464c-0.354,0.309-0.529,0.895-0.529,1.758v3.682H124.867z"/>
	<path d="M158.155,73.845v-0.99c-0.525,0.762-1.238,1.143-2.14,1.143c-0.397,0-0.77-0.076-1.114-0.229s-0.601-0.344-0.768-0.574
		s-0.285-0.514-0.353-0.848c-0.047-0.225-0.069-0.58-0.069-1.066v-4.177h1.143v3.739c0,0.596,0.022,0.998,0.069,1.205
		c0.072,0.301,0.225,0.537,0.457,0.708c0.232,0.172,0.521,0.257,0.863,0.257s0.664-0.087,0.965-0.263s0.513-0.415,0.638-0.718
		s0.188-0.741,0.188-1.316v-3.612h1.143v6.741H158.155z"/>
	<path d="M160.968,73.845v-6.741h1.027v0.958c0.496-0.74,1.211-1.11,2.146-1.11c0.406,0,0.779,0.073,1.12,0.219
		c0.341,0.146,0.596,0.338,0.765,0.575c0.169,0.236,0.288,0.518,0.355,0.844c0.042,0.212,0.063,0.582,0.063,1.111v4.145h-1.143
		v-4.101c0-0.466-0.044-0.813-0.134-1.044c-0.088-0.23-0.246-0.415-0.473-0.553s-0.492-0.206-0.797-0.206
		c-0.486,0-0.906,0.154-1.26,0.464c-0.354,0.309-0.529,0.895-0.529,1.758v3.682H160.968z"/>
	<path d="M172.597,73.013c-0.423,0.36-0.83,0.614-1.222,0.762c-0.392,0.148-0.812,0.223-1.261,0.223c-0.74,0-1.31-0.181-1.707-0.543
		c-0.397-0.361-0.597-0.824-0.597-1.387c0-0.33,0.075-0.632,0.226-0.904c0.15-0.273,0.347-0.492,0.59-0.657s0.518-0.29,0.822-0.374
		c0.225-0.06,0.563-0.117,1.016-0.172c0.923-0.11,1.602-0.241,2.037-0.394c0.005-0.156,0.007-0.256,0.007-0.298
		c0-0.466-0.108-0.794-0.323-0.984c-0.293-0.258-0.727-0.387-1.302-0.387c-0.537,0-0.935,0.094-1.19,0.282s-0.445,0.521-0.568,0.999
		l-1.117-0.152c0.102-0.478,0.27-0.864,0.502-1.158s0.569-0.521,1.01-0.679c0.439-0.159,0.949-0.238,1.529-0.238
		c0.575,0,1.043,0.067,1.402,0.203c0.36,0.136,0.625,0.306,0.794,0.511s0.288,0.465,0.355,0.777
		c0.038,0.195,0.058,0.547,0.058,1.055v1.523c0,1.062,0.023,1.733,0.072,2.015s0.146,0.552,0.289,0.81h-1.193
		C172.707,73.607,172.631,73.331,172.597,73.013z M172.501,70.462c-0.414,0.169-1.036,0.313-1.865,0.432
		c-0.471,0.067-0.803,0.144-0.997,0.229c-0.194,0.084-0.345,0.208-0.45,0.371c-0.106,0.163-0.159,0.344-0.159,0.543
		c0,0.305,0.115,0.559,0.346,0.762s0.568,0.305,1.013,0.305c0.44,0,0.832-0.097,1.174-0.289c0.344-0.192,0.595-0.456,0.756-0.791
		c0.123-0.258,0.184-0.639,0.184-1.143V70.462z"/>
	<path d="M201.44,73.845v-0.851c-0.428,0.669-1.056,1.003-1.885,1.003c-0.538,0-1.032-0.148-1.482-0.444
		c-0.451-0.296-0.8-0.71-1.048-1.241c-0.247-0.531-0.371-1.142-0.371-1.831c0-0.673,0.112-1.283,0.337-1.831
		c0.224-0.548,0.561-0.969,1.009-1.26c0.448-0.293,0.95-0.438,1.505-0.438c0.406,0,0.768,0.086,1.085,0.257
		c0.317,0.172,0.575,0.395,0.774,0.67v-3.339h1.137v9.306H201.44z M197.829,70.48c0,0.863,0.182,1.509,0.545,1.937
		c0.364,0.427,0.794,0.641,1.289,0.641c0.499,0,0.924-0.204,1.272-0.612c0.35-0.408,0.524-1.032,0.524-1.87
		c0-0.922-0.178-1.6-0.533-2.031s-0.794-0.646-1.314-0.646c-0.508,0-0.932,0.207-1.272,0.621
		C197.999,68.934,197.829,69.588,197.829,70.48z"/>
	<path d="M208.912,71.674l1.181,0.146c-0.187,0.69-0.531,1.226-1.035,1.606c-0.503,0.381-1.146,0.571-1.93,0.571
		c-0.985,0-1.768-0.304-2.345-0.911c-0.578-0.607-0.866-1.459-0.866-2.555c0-1.134,0.291-2.015,0.875-2.641s1.342-0.939,2.273-0.939
		c0.9,0,1.637,0.307,2.209,0.921c0.57,0.613,0.856,1.477,0.856,2.59c0,0.067-0.002,0.169-0.007,0.305h-5.027
		c0.043,0.74,0.252,1.307,0.629,1.701c0.377,0.393,0.847,0.59,1.409,0.59c0.419,0,0.776-0.11,1.073-0.33
		C208.504,72.508,208.738,72.156,208.912,71.674z M205.161,69.827h3.764c-0.051-0.567-0.194-0.993-0.432-1.276
		c-0.364-0.44-0.836-0.66-1.416-0.66c-0.524,0-0.966,0.176-1.323,0.526C205.396,68.769,205.198,69.238,205.161,69.827z"/>
	<path d="M214.022,72.823l0.165,1.009c-0.321,0.067-0.609,0.102-0.863,0.102c-0.415,0-0.736-0.065-0.965-0.196
		c-0.229-0.132-0.39-0.304-0.482-0.518s-0.14-0.664-0.14-1.35v-3.878h-0.838v-0.889h0.838v-1.669l1.137-0.686v2.354h1.148v0.889
		h-1.148v3.942c0,0.325,0.02,0.535,0.06,0.628s0.106,0.167,0.197,0.222c0.091,0.056,0.221,0.083,0.39,0.083
		C213.647,72.867,213.815,72.853,214.022,72.823z"/>
	<path d="M219.754,71.674l1.181,0.146c-0.187,0.69-0.531,1.226-1.035,1.606c-0.503,0.381-1.146,0.571-1.93,0.571
		c-0.985,0-1.768-0.304-2.345-0.911c-0.578-0.607-0.866-1.459-0.866-2.555c0-1.134,0.291-2.015,0.875-2.641s1.342-0.939,2.273-0.939
		c0.9,0,1.637,0.307,2.209,0.921c0.57,0.613,0.856,1.477,0.856,2.59c0,0.067-0.002,0.169-0.007,0.305h-5.027
		c0.043,0.74,0.252,1.307,0.629,1.701c0.377,0.393,0.847,0.59,1.409,0.59c0.419,0,0.776-0.11,1.073-0.33
		C219.346,72.508,219.58,72.156,219.754,71.674z M216.003,69.827h3.764c-0.051-0.567-0.194-0.993-0.432-1.276
		c-0.364-0.44-0.836-0.66-1.416-0.66c-0.524,0-0.966,0.176-1.323,0.526C216.238,68.769,216.04,69.238,216.003,69.827z"/>
	<path d="M222.356,73.845v-6.741h1.029v1.022c0.262-0.479,0.504-0.794,0.727-0.946c0.222-0.152,0.467-0.229,0.732-0.229
		c0.386,0,0.777,0.123,1.175,0.368l-0.394,1.061c-0.279-0.166-0.559-0.248-0.838-0.248c-0.25,0-0.474,0.075-0.673,0.226
		s-0.341,0.358-0.425,0.625c-0.127,0.406-0.191,0.851-0.191,1.333v3.529H222.356z"/>
	<path d="M226.699,73.845v-6.741h1.021v0.946c0.212-0.33,0.493-0.596,0.844-0.797c0.352-0.201,0.752-0.302,1.2-0.302
		c0.499,0,0.909,0.104,1.229,0.312c0.319,0.207,0.545,0.497,0.676,0.869c0.533-0.787,1.228-1.181,2.082-1.181
		c0.669,0,1.183,0.186,1.542,0.556c0.36,0.37,0.54,0.94,0.54,1.711v4.627h-1.136v-4.246c0-0.457-0.037-0.786-0.111-0.987
		s-0.209-0.363-0.403-0.485c-0.194-0.123-0.423-0.185-0.686-0.185c-0.474,0-0.867,0.157-1.181,0.473s-0.47,0.82-0.47,1.515v3.916
		h-1.143v-4.38c0-0.508-0.093-0.889-0.279-1.143s-0.491-0.381-0.914-0.381c-0.321,0-0.619,0.085-0.892,0.254
		c-0.273,0.169-0.471,0.417-0.594,0.743c-0.123,0.325-0.184,0.795-0.184,1.408v3.498H226.699z"/>
	<path d="M237.534,65.853v-1.313h1.143v1.313H237.534z M237.534,73.845v-6.741h1.143v6.741H237.534z"/>
	<path d="M240.417,73.845v-6.741h1.027v0.958c0.496-0.74,1.211-1.11,2.146-1.11c0.406,0,0.779,0.073,1.12,0.219
		c0.341,0.146,0.596,0.338,0.765,0.575c0.169,0.236,0.288,0.518,0.355,0.844c0.042,0.212,0.063,0.582,0.063,1.111v4.145h-1.143
		v-4.101c0-0.466-0.044-0.813-0.134-1.044c-0.088-0.23-0.246-0.415-0.473-0.553s-0.492-0.206-0.797-0.206
		c-0.486,0-0.906,0.154-1.26,0.464c-0.354,0.309-0.529,0.895-0.529,1.758v3.682H240.417z"/>
	<path d="M252.046,73.013c-0.423,0.36-0.83,0.614-1.222,0.762c-0.392,0.148-0.812,0.223-1.261,0.223c-0.74,0-1.31-0.181-1.707-0.543
		c-0.397-0.361-0.597-0.824-0.597-1.387c0-0.33,0.075-0.632,0.226-0.904c0.15-0.273,0.347-0.492,0.59-0.657s0.518-0.29,0.822-0.374
		c0.225-0.06,0.563-0.117,1.016-0.172c0.923-0.11,1.602-0.241,2.037-0.394c0.005-0.156,0.007-0.256,0.007-0.298
		c0-0.466-0.108-0.794-0.323-0.984c-0.293-0.258-0.727-0.387-1.302-0.387c-0.537,0-0.935,0.094-1.19,0.282s-0.445,0.521-0.568,0.999
		l-1.117-0.152c0.102-0.478,0.27-0.864,0.502-1.158s0.569-0.521,1.01-0.679c0.439-0.159,0.949-0.238,1.529-0.238
		c0.575,0,1.043,0.067,1.402,0.203c0.36,0.136,0.625,0.306,0.794,0.511s0.288,0.465,0.355,0.777
		c0.038,0.195,0.058,0.547,0.058,1.055v1.523c0,1.062,0.023,1.733,0.072,2.015s0.146,0.552,0.289,0.81h-1.193
		C252.156,73.607,252.08,73.331,252.046,73.013z M251.95,70.462c-0.414,0.169-1.036,0.313-1.865,0.432
		c-0.471,0.067-0.803,0.144-0.997,0.229c-0.194,0.084-0.345,0.208-0.45,0.371c-0.106,0.163-0.159,0.344-0.159,0.543
		c0,0.305,0.115,0.559,0.346,0.762s0.568,0.305,1.013,0.305c0.44,0,0.832-0.097,1.174-0.289c0.344-0.192,0.595-0.456,0.756-0.791
		c0.123-0.258,0.184-0.639,0.184-1.143V70.462z"/>
	<path d="M259.251,73.845v-0.851c-0.428,0.669-1.056,1.003-1.885,1.003c-0.538,0-1.032-0.148-1.482-0.444
		c-0.451-0.296-0.8-0.71-1.048-1.241c-0.247-0.531-0.371-1.142-0.371-1.831c0-0.673,0.112-1.283,0.337-1.831
		c0.224-0.548,0.561-0.969,1.009-1.26c0.448-0.293,0.95-0.438,1.505-0.438c0.406,0,0.768,0.086,1.085,0.257
		c0.317,0.172,0.575,0.395,0.774,0.67v-3.339h1.137v9.306H259.251z M255.64,70.48c0,0.863,0.182,1.509,0.545,1.937
		c0.364,0.427,0.794,0.641,1.289,0.641c0.499,0,0.924-0.204,1.272-0.612c0.35-0.408,0.524-1.032,0.524-1.87
		c0-0.922-0.178-1.6-0.533-2.031s-0.794-0.646-1.314-0.646c-0.508,0-0.932,0.207-1.272,0.621
		C255.81,68.934,255.64,69.588,255.64,70.48z"/>
	<path d="M266.507,73.013c-0.423,0.36-0.83,0.614-1.222,0.762c-0.392,0.148-0.812,0.223-1.261,0.223c-0.74,0-1.31-0.181-1.707-0.543
		c-0.397-0.361-0.597-0.824-0.597-1.387c0-0.33,0.075-0.632,0.226-0.904c0.15-0.273,0.347-0.492,0.59-0.657s0.518-0.29,0.822-0.374
		c0.225-0.06,0.563-0.117,1.016-0.172c0.923-0.11,1.602-0.241,2.037-0.394c0.005-0.156,0.007-0.256,0.007-0.298
		c0-0.466-0.108-0.794-0.323-0.984c-0.293-0.258-0.727-0.387-1.302-0.387c-0.537,0-0.935,0.094-1.19,0.282s-0.445,0.521-0.568,0.999
		l-1.117-0.152c0.102-0.478,0.27-0.864,0.502-1.158s0.569-0.521,1.01-0.679c0.439-0.159,0.949-0.238,1.529-0.238
		c0.575,0,1.043,0.067,1.402,0.203c0.36,0.136,0.625,0.306,0.794,0.511s0.288,0.465,0.355,0.777
		c0.038,0.195,0.058,0.547,0.058,1.055v1.523c0,1.062,0.023,1.733,0.072,2.015s0.146,0.552,0.289,0.81h-1.193
		C266.617,73.607,266.541,73.331,266.507,73.013z M266.411,70.462c-0.414,0.169-1.036,0.313-1.865,0.432
		c-0.471,0.067-0.803,0.144-0.997,0.229c-0.194,0.084-0.345,0.208-0.45,0.371c-0.106,0.163-0.159,0.344-0.159,0.543
		c0,0.305,0.115,0.559,0.346,0.762s0.568,0.305,1.013,0.305c0.44,0,0.832-0.097,1.174-0.289c0.344-0.192,0.595-0.456,0.756-0.791
		c0.123-0.258,0.184-0.639,0.184-1.143V70.462z"/>
	<path d="M31.952,87.274l1.181,0.146c-0.187,0.69-0.531,1.226-1.035,1.606c-0.503,0.381-1.146,0.571-1.93,0.571
		c-0.985,0-1.768-0.304-2.345-0.911c-0.578-0.607-0.866-1.459-0.866-2.555c0-1.134,0.291-2.015,0.875-2.641s1.342-0.939,2.273-0.939
		c0.9,0,1.637,0.307,2.209,0.921c0.57,0.613,0.856,1.477,0.856,2.59c0,0.067-0.002,0.169-0.007,0.305h-5.027
		c0.043,0.74,0.252,1.307,0.629,1.701c0.377,0.393,0.847,0.59,1.409,0.59c0.419,0,0.776-0.11,1.073-0.33
		C31.544,88.108,31.778,87.757,31.952,87.274z M28.201,85.428h3.764c-0.051-0.567-0.194-0.993-0.432-1.276
		c-0.364-0.44-0.836-0.66-1.416-0.66c-0.524,0-0.966,0.176-1.323,0.526C28.436,84.369,28.238,84.839,28.201,85.428z"/>
	<path d="M34.111,87.434l1.129-0.178c0.064,0.452,0.24,0.799,0.53,1.041c0.29,0.24,0.695,0.361,1.216,0.361
		c0.524,0,0.914-0.106,1.168-0.32s0.381-0.465,0.381-0.752c0-0.259-0.112-0.462-0.336-0.609c-0.157-0.102-0.547-0.231-1.168-0.388
		c-0.838-0.212-1.419-0.395-1.743-0.549c-0.323-0.154-0.569-0.368-0.736-0.642c-0.167-0.272-0.251-0.574-0.251-0.904
		c0-0.301,0.069-0.579,0.207-0.835s0.324-0.469,0.562-0.638c0.178-0.131,0.42-0.242,0.727-0.333s0.636-0.137,0.987-0.137
		c0.529,0,0.993,0.076,1.394,0.229c0.399,0.152,0.694,0.358,0.886,0.619c0.189,0.26,0.321,0.608,0.393,1.044l-1.117,0.152
		c-0.051-0.347-0.197-0.618-0.44-0.813s-0.587-0.292-1.032-0.292c-0.524,0-0.898,0.087-1.123,0.261
		c-0.225,0.173-0.336,0.376-0.336,0.609c0,0.147,0.046,0.281,0.139,0.399c0.094,0.123,0.239,0.225,0.438,0.305
		c0.114,0.042,0.45,0.14,1.009,0.292c0.809,0.216,1.373,0.393,1.692,0.53s0.57,0.337,0.752,0.6s0.272,0.588,0.272,0.978
		c0,0.381-0.11,0.739-0.333,1.076c-0.222,0.336-0.542,0.597-0.962,0.78c-0.418,0.185-0.893,0.276-1.422,0.276
		c-0.875,0-1.543-0.182-2.002-0.546S34.238,88.148,34.111,87.434z"/>
	<path d="M43.562,88.424l0.165,1.009c-0.321,0.067-0.609,0.102-0.863,0.102c-0.415,0-0.736-0.065-0.965-0.196
		c-0.229-0.132-0.39-0.304-0.482-0.518s-0.14-0.664-0.14-1.35v-3.878h-0.838v-0.889h0.838v-1.669l1.137-0.686v2.354h1.148v0.889
		h-1.148v3.942c0,0.325,0.02,0.535,0.06,0.628s0.106,0.167,0.197,0.222c0.091,0.056,0.221,0.083,0.39,0.083
		C43.187,88.468,43.355,88.453,43.562,88.424z"/>
	<path d="M44.666,89.445v-6.741h1.029v1.022c0.262-0.479,0.504-0.794,0.727-0.946c0.222-0.152,0.467-0.229,0.732-0.229
		c0.386,0,0.777,0.123,1.175,0.368l-0.394,1.061c-0.279-0.166-0.559-0.248-0.838-0.248c-0.25,0-0.474,0.075-0.673,0.226
		S46.084,84.316,46,84.583c-0.127,0.406-0.191,0.851-0.191,1.333v3.529H44.666z"/>
	<path d="M53.407,88.613c-0.423,0.36-0.83,0.614-1.222,0.762c-0.392,0.148-0.812,0.223-1.261,0.223c-0.74,0-1.31-0.181-1.707-0.543
		c-0.397-0.361-0.597-0.824-0.597-1.387c0-0.33,0.075-0.632,0.226-0.904c0.15-0.273,0.347-0.492,0.59-0.657s0.518-0.29,0.822-0.374
		c0.225-0.06,0.563-0.117,1.016-0.172c0.923-0.11,1.602-0.241,2.037-0.394c0.005-0.156,0.007-0.256,0.007-0.298
		c0-0.466-0.108-0.794-0.323-0.984c-0.293-0.258-0.727-0.387-1.302-0.387c-0.537,0-0.935,0.094-1.19,0.282s-0.445,0.521-0.568,0.999
		l-1.117-0.152c0.102-0.478,0.27-0.864,0.502-1.158s0.569-0.521,1.01-0.679c0.439-0.159,0.949-0.238,1.529-0.238
		c0.575,0,1.043,0.067,1.402,0.203c0.36,0.136,0.625,0.306,0.794,0.511s0.288,0.465,0.355,0.777
		c0.038,0.195,0.058,0.547,0.058,1.055v1.523c0,1.062,0.023,1.733,0.072,2.015s0.146,0.552,0.289,0.81h-1.193
		C53.518,89.208,53.441,88.932,53.407,88.613z M53.311,86.062c-0.414,0.169-1.036,0.313-1.865,0.432
		c-0.471,0.067-0.803,0.144-0.997,0.229c-0.194,0.084-0.345,0.208-0.45,0.371c-0.106,0.163-0.159,0.344-0.159,0.543
		c0,0.305,0.115,0.559,0.346,0.762s0.568,0.305,1.013,0.305c0.44,0,0.832-0.097,1.174-0.289c0.344-0.192,0.595-0.456,0.756-0.791
		c0.123-0.258,0.184-0.639,0.184-1.143V86.062z"/>
	<path d="M58.732,88.424l0.165,1.009c-0.321,0.067-0.609,0.102-0.863,0.102c-0.415,0-0.736-0.065-0.965-0.196
		c-0.229-0.132-0.39-0.304-0.482-0.518s-0.14-0.664-0.14-1.35v-3.878h-0.838v-0.889h0.838v-1.669l1.137-0.686v2.354h1.148v0.889
		h-1.148v3.942c0,0.325,0.02,0.535,0.06,0.628s0.106,0.167,0.197,0.222c0.091,0.056,0.221,0.083,0.39,0.083
		C58.357,88.468,58.525,88.453,58.732,88.424z"/>
	<path d="M64.464,87.274l1.181,0.146c-0.187,0.69-0.531,1.226-1.035,1.606c-0.503,0.381-1.146,0.571-1.93,0.571
		c-0.985,0-1.768-0.304-2.345-0.911c-0.578-0.607-0.866-1.459-0.866-2.555c0-1.134,0.291-2.015,0.875-2.641s1.342-0.939,2.273-0.939
		c0.9,0,1.637,0.307,2.209,0.921c0.57,0.613,0.856,1.477,0.856,2.59c0,0.067-0.002,0.169-0.007,0.305h-5.027
		c0.043,0.74,0.252,1.307,0.629,1.701c0.377,0.393,0.847,0.59,1.409,0.59c0.419,0,0.776-0.11,1.073-0.33
		C64.056,88.108,64.29,87.757,64.464,87.274z M60.713,85.428h3.764c-0.051-0.567-0.194-0.993-0.432-1.276
		c-0.364-0.44-0.836-0.66-1.416-0.66c-0.524,0-0.966,0.176-1.323,0.526C60.948,84.369,60.75,84.839,60.713,85.428z"/>
	<path d="M66.87,90.004l1.11,0.165c0.047,0.343,0.176,0.593,0.388,0.749c0.283,0.212,0.671,0.317,1.161,0.317
		c0.529,0,0.938-0.105,1.226-0.317s0.482-0.508,0.584-0.889c0.06-0.232,0.087-0.722,0.083-1.467c-0.5,0.589-1.122,0.883-1.867,0.883
		c-0.926,0-1.644-0.334-2.151-1.003s-0.762-1.471-0.762-2.405c0-0.644,0.116-1.237,0.349-1.781c0.233-0.544,0.57-0.964,1.013-1.26
		s0.962-0.444,1.559-0.444c0.796,0,1.451,0.321,1.968,0.965v-0.813h1.054v5.827c0,1.05-0.106,1.793-0.32,2.231
		c-0.214,0.438-0.553,0.784-1.016,1.038c-0.464,0.254-1.034,0.381-1.711,0.381c-0.804,0-1.454-0.182-1.948-0.543
		C67.092,91.276,66.853,90.731,66.87,90.004z M67.816,85.954c0,0.885,0.175,1.53,0.526,1.937s0.791,0.609,1.32,0.609
		c0.524,0,0.965-0.202,1.32-0.606s0.533-1.038,0.533-1.901c0-0.825-0.183-1.447-0.549-1.866s-0.808-0.628-1.323-0.628
		c-0.508,0-0.939,0.206-1.295,0.618C67.994,84.529,67.816,85.142,67.816,85.954z"/>
	<path d="M74.316,81.453V80.14h1.143v1.313H74.316z M74.316,89.445v-6.741h1.143v6.741H74.316z"/>
	<path d="M81.598,88.613c-0.423,0.36-0.83,0.614-1.222,0.762c-0.392,0.148-0.812,0.223-1.261,0.223c-0.74,0-1.31-0.181-1.707-0.543
		c-0.397-0.361-0.597-0.824-0.597-1.387c0-0.33,0.075-0.632,0.226-0.904c0.15-0.273,0.347-0.492,0.59-0.657s0.518-0.29,0.822-0.374
		c0.225-0.06,0.563-0.117,1.016-0.172c0.923-0.11,1.602-0.241,2.037-0.394c0.005-0.156,0.007-0.256,0.007-0.298
		c0-0.466-0.108-0.794-0.323-0.984c-0.293-0.258-0.727-0.387-1.302-0.387c-0.537,0-0.935,0.094-1.19,0.282s-0.445,0.521-0.568,0.999
		l-1.117-0.152c0.102-0.478,0.27-0.864,0.502-1.158s0.569-0.521,1.01-0.679c0.439-0.159,0.949-0.238,1.529-0.238
		c0.575,0,1.043,0.067,1.402,0.203c0.36,0.136,0.625,0.306,0.794,0.511s0.288,0.465,0.355,0.777
		c0.038,0.195,0.058,0.547,0.058,1.055v1.523c0,1.062,0.023,1.733,0.072,2.015s0.146,0.552,0.289,0.81h-1.193
		C81.708,89.208,81.632,88.932,81.598,88.613z M81.502,86.062c-0.414,0.169-1.036,0.313-1.865,0.432
		c-0.471,0.067-0.803,0.144-0.997,0.229c-0.194,0.084-0.345,0.208-0.45,0.371c-0.106,0.163-0.159,0.344-0.159,0.543
		c0,0.305,0.115,0.559,0.346,0.762s0.568,0.305,1.013,0.305c0.44,0,0.832-0.097,1.174-0.289c0.344-0.192,0.595-0.456,0.756-0.791
		c0.123-0.258,0.184-0.639,0.184-1.143V86.062z"/>
	<path d="M95.062,92.029v-3.301c-0.178,0.249-0.427,0.457-0.746,0.621c-0.319,0.166-0.659,0.248-1.019,0.248
		c-0.8,0-1.488-0.319-2.066-0.959c-0.577-0.639-0.866-1.515-0.866-2.627c0-0.678,0.117-1.285,0.353-1.822
		c0.234-0.537,0.575-0.944,1.021-1.222s0.937-0.416,1.47-0.416c0.834,0,1.489,0.352,1.968,1.054v-0.901h1.028v9.325H95.062z
		 M91.539,86.056c0,0.867,0.183,1.519,0.547,1.952c0.363,0.434,0.799,0.65,1.307,0.65c0.487,0,0.906-0.206,1.258-0.619
		c0.351-0.412,0.526-1.04,0.526-1.882c0-0.897-0.186-1.572-0.556-2.024c-0.37-0.453-0.805-0.68-1.305-0.68
		c-0.494,0-0.915,0.211-1.26,0.632S91.539,85.163,91.539,86.056z"/>
	<path d="M102.414,89.445v-0.99c-0.525,0.762-1.238,1.143-2.14,1.143c-0.397,0-0.77-0.076-1.114-0.229s-0.601-0.344-0.768-0.574
		s-0.285-0.514-0.353-0.848c-0.047-0.225-0.069-0.58-0.069-1.066v-4.177h1.143v3.739c0,0.596,0.022,0.998,0.069,1.205
		c0.072,0.301,0.225,0.537,0.457,0.708c0.232,0.172,0.521,0.257,0.863,0.257s0.664-0.087,0.965-0.263s0.513-0.415,0.638-0.718
		s0.188-0.741,0.188-1.316v-3.612h1.143v6.741H102.414z"/>
	<path d="M109.841,87.274l1.181,0.146c-0.187,0.69-0.531,1.226-1.035,1.606c-0.503,0.381-1.146,0.571-1.93,0.571
		c-0.985,0-1.768-0.304-2.345-0.911c-0.578-0.607-0.866-1.459-0.866-2.555c0-1.134,0.291-2.015,0.875-2.641s1.342-0.939,2.273-0.939
		c0.9,0,1.637,0.307,2.209,0.921c0.57,0.613,0.856,1.477,0.856,2.59c0,0.067-0.002,0.169-0.007,0.305h-5.027
		c0.043,0.74,0.252,1.307,0.629,1.701c0.377,0.393,0.847,0.59,1.409,0.59c0.419,0,0.776-0.11,1.073-0.33
		C109.433,88.108,109.667,87.757,109.841,87.274z M106.09,85.428h3.764c-0.051-0.567-0.194-0.993-0.432-1.276
		c-0.364-0.44-0.836-0.66-1.416-0.66c-0.524,0-0.966,0.176-1.323,0.526C106.325,84.369,106.127,84.839,106.09,85.428z"/>
	<path d="M118.336,87.434l1.129-0.178c0.064,0.452,0.24,0.799,0.53,1.041c0.29,0.24,0.695,0.361,1.216,0.361
		c0.524,0,0.914-0.106,1.168-0.32s0.381-0.465,0.381-0.752c0-0.259-0.112-0.462-0.336-0.609c-0.157-0.102-0.547-0.231-1.168-0.388
		c-0.838-0.212-1.419-0.395-1.743-0.549c-0.323-0.154-0.569-0.368-0.736-0.642c-0.167-0.272-0.251-0.574-0.251-0.904
		c0-0.301,0.069-0.579,0.207-0.835s0.324-0.469,0.562-0.638c0.178-0.131,0.42-0.242,0.727-0.333s0.636-0.137,0.987-0.137
		c0.529,0,0.993,0.076,1.394,0.229c0.399,0.152,0.694,0.358,0.886,0.619c0.189,0.26,0.321,0.608,0.393,1.044l-1.117,0.152
		c-0.051-0.347-0.197-0.618-0.44-0.813s-0.587-0.292-1.032-0.292c-0.524,0-0.898,0.087-1.123,0.261
		c-0.225,0.173-0.336,0.376-0.336,0.609c0,0.147,0.046,0.281,0.139,0.399c0.094,0.123,0.239,0.225,0.438,0.305
		c0.114,0.042,0.45,0.14,1.009,0.292c0.809,0.216,1.373,0.393,1.692,0.53s0.57,0.337,0.752,0.6s0.272,0.588,0.272,0.978
		c0,0.381-0.11,0.739-0.333,1.076c-0.222,0.336-0.542,0.597-0.962,0.78c-0.418,0.185-0.893,0.276-1.422,0.276
		c-0.875,0-1.543-0.182-2.002-0.546S118.463,88.148,118.336,87.434z"/>
	<path d="M129.907,87.274l1.181,0.146c-0.187,0.69-0.531,1.226-1.035,1.606c-0.503,0.381-1.146,0.571-1.93,0.571
		c-0.985,0-1.768-0.304-2.345-0.911c-0.578-0.607-0.866-1.459-0.866-2.555c0-1.134,0.291-2.015,0.875-2.641s1.342-0.939,2.273-0.939
		c0.9,0,1.637,0.307,2.209,0.921c0.57,0.613,0.856,1.477,0.856,2.59c0,0.067-0.002,0.169-0.007,0.305h-5.027
		c0.043,0.74,0.252,1.307,0.629,1.701c0.377,0.393,0.847,0.59,1.409,0.59c0.419,0,0.776-0.11,1.073-0.33
		C129.499,88.108,129.733,87.757,129.907,87.274z M126.156,85.428h3.764c-0.051-0.567-0.194-0.993-0.432-1.276
		c-0.364-0.44-0.836-0.66-1.416-0.66c-0.524,0-0.966,0.176-1.323,0.526C126.392,84.369,126.193,84.839,126.156,85.428z"/>
	<path d="M138.858,92.029v-9.325h1.041v0.876c0.245-0.343,0.522-0.6,0.831-0.771c0.309-0.171,0.684-0.257,1.124-0.257
		c0.575,0,1.083,0.148,1.523,0.444c0.439,0.296,0.771,0.714,0.996,1.254c0.225,0.539,0.336,1.131,0.336,1.773
		c0,0.69-0.123,1.312-0.371,1.863c-0.247,0.553-0.607,0.976-1.079,1.27s-0.968,0.441-1.488,0.441c-0.381,0-0.723-0.08-1.025-0.241
		s-0.551-0.364-0.745-0.609v3.282H138.858z M139.893,86.113c0,0.867,0.176,1.508,0.526,1.923c0.352,0.415,0.777,0.622,1.276,0.622
		c0.508,0,0.942-0.215,1.305-0.645c0.361-0.43,0.542-1.095,0.542-1.996c0-0.859-0.176-1.502-0.529-1.93s-0.775-0.641-1.267-0.641
		c-0.486,0-0.917,0.227-1.292,0.682C140.08,84.584,139.893,85.245,139.893,86.113z"/>
	<path d="M146.075,89.445v-6.741h1.029v1.022c0.262-0.479,0.504-0.794,0.727-0.946c0.222-0.152,0.467-0.229,0.732-0.229
		c0.386,0,0.777,0.123,1.175,0.368l-0.394,1.061c-0.279-0.166-0.559-0.248-0.838-0.248c-0.25,0-0.474,0.075-0.673,0.226
		s-0.341,0.358-0.425,0.625c-0.127,0.406-0.191,0.851-0.191,1.333v3.529H146.075z"/>
	<path d="M149.992,86.074c0-1.248,0.347-2.173,1.041-2.773c0.58-0.499,1.286-0.749,2.12-0.749c0.927,0,1.685,0.304,2.272,0.911
		s0.883,1.446,0.883,2.517c0,0.867-0.131,1.55-0.391,2.047c-0.261,0.497-0.64,0.884-1.137,1.159
		c-0.497,0.274-1.04,0.412-1.628,0.412c-0.943,0-1.706-0.303-2.288-0.908C150.283,88.085,149.992,87.213,149.992,86.074z
		 M151.166,86.074c0,0.863,0.188,1.51,0.565,1.939s0.851,0.645,1.422,0.645c0.567,0,1.039-0.216,1.415-0.647
		c0.377-0.432,0.565-1.09,0.565-1.974c0-0.834-0.189-1.466-0.568-1.896s-0.85-0.644-1.412-0.644c-0.571,0-1.045,0.213-1.422,0.641
		S151.166,85.211,151.166,86.074z"/>
	<path d="M157.647,92.029v-9.325h1.041v0.876c0.245-0.343,0.522-0.6,0.831-0.771c0.309-0.171,0.684-0.257,1.124-0.257
		c0.575,0,1.083,0.148,1.523,0.444c0.439,0.296,0.771,0.714,0.996,1.254c0.225,0.539,0.336,1.131,0.336,1.773
		c0,0.69-0.123,1.312-0.371,1.863c-0.247,0.553-0.607,0.976-1.079,1.27s-0.968,0.441-1.488,0.441c-0.381,0-0.723-0.08-1.025-0.241
		s-0.551-0.364-0.745-0.609v3.282H157.647z M158.682,86.113c0,0.867,0.176,1.508,0.526,1.923c0.352,0.415,0.777,0.622,1.276,0.622
		c0.508,0,0.942-0.215,1.305-0.645c0.361-0.43,0.542-1.095,0.542-1.996c0-0.859-0.176-1.502-0.529-1.93s-0.775-0.641-1.267-0.641
		c-0.486,0-0.917,0.227-1.292,0.682C158.869,84.584,158.682,85.245,158.682,86.113z"/>
	<path d="M164.452,86.074c0-1.248,0.347-2.173,1.041-2.773c0.58-0.499,1.286-0.749,2.12-0.749c0.927,0,1.685,0.304,2.272,0.911
		s0.883,1.446,0.883,2.517c0,0.867-0.131,1.55-0.391,2.047c-0.261,0.497-0.64,0.884-1.137,1.159
		c-0.497,0.274-1.04,0.412-1.628,0.412c-0.943,0-1.706-0.303-2.288-0.908C164.743,88.085,164.452,87.213,164.452,86.074z
		 M165.626,86.074c0,0.863,0.188,1.51,0.565,1.939s0.851,0.645,1.422,0.645c0.567,0,1.039-0.216,1.415-0.647
		c0.377-0.432,0.565-1.09,0.565-1.974c0-0.834-0.189-1.466-0.568-1.896s-0.85-0.644-1.412-0.644c-0.571,0-1.045,0.213-1.422,0.641
		S165.626,85.211,165.626,86.074z"/>
	<path d="M172.108,89.445v-6.741h1.027v0.958c0.496-0.74,1.211-1.11,2.146-1.11c0.406,0,0.779,0.073,1.12,0.219
		c0.341,0.146,0.596,0.338,0.765,0.575c0.169,0.236,0.288,0.518,0.355,0.844c0.042,0.212,0.063,0.582,0.063,1.111v4.145h-1.143
		v-4.101c0-0.466-0.044-0.813-0.134-1.044c-0.088-0.23-0.246-0.415-0.473-0.553s-0.492-0.206-0.797-0.206
		c-0.486,0-0.906,0.154-1.26,0.464c-0.354,0.309-0.529,0.895-0.529,1.758v3.682H172.108z"/>
	<path d="M183.953,87.274l1.181,0.146c-0.187,0.69-0.531,1.226-1.035,1.606c-0.503,0.381-1.146,0.571-1.93,0.571
		c-0.985,0-1.768-0.304-2.345-0.911c-0.578-0.607-0.866-1.459-0.866-2.555c0-1.134,0.291-2.015,0.875-2.641s1.342-0.939,2.273-0.939
		c0.9,0,1.637,0.307,2.209,0.921c0.57,0.613,0.856,1.477,0.856,2.59c0,0.067-0.002,0.169-0.007,0.305h-5.027
		c0.043,0.74,0.252,1.307,0.629,1.701c0.377,0.393,0.847,0.59,1.409,0.59c0.419,0,0.776-0.11,1.073-0.33
		C183.545,88.108,183.779,87.757,183.953,87.274z M180.202,85.428h3.764c-0.051-0.567-0.194-0.993-0.432-1.276
		c-0.364-0.44-0.836-0.66-1.416-0.66c-0.524,0-0.966,0.176-1.323,0.526C180.437,84.369,180.239,84.839,180.202,85.428z"/>
	<path d="M192.905,92.029v-9.325h1.041v0.876c0.245-0.343,0.522-0.6,0.831-0.771c0.309-0.171,0.684-0.257,1.124-0.257
		c0.575,0,1.083,0.148,1.523,0.444c0.439,0.296,0.771,0.714,0.996,1.254c0.225,0.539,0.336,1.131,0.336,1.773
		c0,0.69-0.123,1.312-0.371,1.863c-0.247,0.553-0.607,0.976-1.079,1.27s-0.968,0.441-1.488,0.441c-0.381,0-0.723-0.08-1.025-0.241
		s-0.551-0.364-0.745-0.609v3.282H192.905z M193.939,86.113c0,0.867,0.176,1.508,0.526,1.923c0.352,0.415,0.777,0.622,1.276,0.622
		c0.508,0,0.942-0.215,1.305-0.645c0.361-0.43,0.542-1.095,0.542-1.996c0-0.859-0.176-1.502-0.529-1.93s-0.775-0.641-1.267-0.641
		c-0.486,0-0.917,0.227-1.292,0.682C194.127,84.584,193.939,85.245,193.939,86.113z"/>
	<path d="M204.534,88.613c-0.423,0.36-0.83,0.614-1.222,0.762c-0.392,0.148-0.812,0.223-1.261,0.223c-0.74,0-1.31-0.181-1.707-0.543
		c-0.397-0.361-0.597-0.824-0.597-1.387c0-0.33,0.075-0.632,0.226-0.904c0.15-0.273,0.347-0.492,0.59-0.657s0.518-0.29,0.822-0.374
		c0.225-0.06,0.563-0.117,1.016-0.172c0.923-0.11,1.602-0.241,2.037-0.394c0.005-0.156,0.007-0.256,0.007-0.298
		c0-0.466-0.108-0.794-0.323-0.984c-0.293-0.258-0.727-0.387-1.302-0.387c-0.537,0-0.935,0.094-1.19,0.282s-0.445,0.521-0.568,0.999
		l-1.117-0.152c0.102-0.478,0.27-0.864,0.502-1.158s0.569-0.521,1.01-0.679c0.439-0.159,0.949-0.238,1.529-0.238
		c0.575,0,1.043,0.067,1.402,0.203c0.36,0.136,0.625,0.306,0.794,0.511s0.288,0.465,0.355,0.777
		c0.038,0.195,0.058,0.547,0.058,1.055v1.523c0,1.062,0.023,1.733,0.072,2.015s0.146,0.552,0.289,0.81h-1.193
		C204.644,89.208,204.568,88.932,204.534,88.613z M204.438,86.062c-0.414,0.169-1.036,0.313-1.865,0.432
		c-0.471,0.067-0.803,0.144-0.997,0.229c-0.194,0.084-0.345,0.208-0.45,0.371c-0.106,0.163-0.159,0.344-0.159,0.543
		c0,0.305,0.115,0.559,0.346,0.762s0.568,0.305,1.013,0.305c0.44,0,0.832-0.097,1.174-0.289c0.344-0.192,0.595-0.456,0.756-0.791
		c0.123-0.258,0.184-0.639,0.184-1.143V86.062z"/>
	<path d="M207.352,89.445v-6.741h1.029v1.022c0.262-0.479,0.504-0.794,0.727-0.946c0.222-0.152,0.467-0.229,0.732-0.229
		c0.386,0,0.777,0.123,1.175,0.368l-0.394,1.061c-0.279-0.166-0.559-0.248-0.838-0.248c-0.25,0-0.474,0.075-0.673,0.226
		s-0.341,0.358-0.425,0.625c-0.127,0.406-0.191,0.851-0.191,1.333v3.529H207.352z"/>
	<path d="M216.094,88.613c-0.423,0.36-0.83,0.614-1.222,0.762c-0.392,0.148-0.812,0.223-1.261,0.223c-0.74,0-1.31-0.181-1.707-0.543
		c-0.397-0.361-0.597-0.824-0.597-1.387c0-0.33,0.075-0.632,0.226-0.904c0.15-0.273,0.347-0.492,0.59-0.657s0.518-0.29,0.822-0.374
		c0.225-0.06,0.563-0.117,1.016-0.172c0.923-0.11,1.602-0.241,2.037-0.394c0.005-0.156,0.007-0.256,0.007-0.298
		c0-0.466-0.108-0.794-0.323-0.984c-0.293-0.258-0.727-0.387-1.302-0.387c-0.537,0-0.935,0.094-1.19,0.282s-0.445,0.521-0.568,0.999
		l-1.117-0.152c0.102-0.478,0.27-0.864,0.502-1.158s0.569-0.521,1.01-0.679c0.439-0.159,0.949-0.238,1.529-0.238
		c0.575,0,1.043,0.067,1.402,0.203c0.36,0.136,0.625,0.306,0.794,0.511s0.288,0.465,0.355,0.777
		c0.038,0.195,0.058,0.547,0.058,1.055v1.523c0,1.062,0.023,1.733,0.072,2.015s0.146,0.552,0.289,0.81h-1.193
		C216.204,89.208,216.128,88.932,216.094,88.613z M215.998,86.062c-0.414,0.169-1.036,0.313-1.865,0.432
		c-0.471,0.067-0.803,0.144-0.997,0.229c-0.194,0.084-0.345,0.208-0.45,0.371c-0.106,0.163-0.159,0.344-0.159,0.543
		c0,0.305,0.115,0.559,0.346,0.762s0.568,0.305,1.013,0.305c0.44,0,0.832-0.097,1.174-0.289c0.344-0.192,0.595-0.456,0.756-0.791
		c0.123-0.258,0.184-0.639,0.184-1.143V86.062z"/>
	<path d="M224.804,87.434l1.129-0.178c0.064,0.452,0.24,0.799,0.53,1.041c0.29,0.24,0.695,0.361,1.216,0.361
		c0.524,0,0.914-0.106,1.168-0.32s0.381-0.465,0.381-0.752c0-0.259-0.112-0.462-0.336-0.609c-0.157-0.102-0.547-0.231-1.168-0.388
		c-0.838-0.212-1.419-0.395-1.743-0.549c-0.323-0.154-0.569-0.368-0.736-0.642c-0.167-0.272-0.251-0.574-0.251-0.904
		c0-0.301,0.069-0.579,0.207-0.835s0.324-0.469,0.562-0.638c0.178-0.131,0.42-0.242,0.727-0.333s0.636-0.137,0.987-0.137
		c0.529,0,0.993,0.076,1.394,0.229c0.399,0.152,0.694,0.358,0.886,0.619c0.189,0.26,0.321,0.608,0.393,1.044l-1.117,0.152
		c-0.051-0.347-0.197-0.618-0.44-0.813s-0.587-0.292-1.032-0.292c-0.524,0-0.898,0.087-1.123,0.261
		c-0.225,0.173-0.336,0.376-0.336,0.609c0,0.147,0.046,0.281,0.139,0.399c0.094,0.123,0.239,0.225,0.438,0.305
		c0.114,0.042,0.45,0.14,1.009,0.292c0.809,0.216,1.373,0.393,1.692,0.53s0.57,0.337,0.752,0.6s0.272,0.588,0.272,0.978
		c0,0.381-0.11,0.739-0.333,1.076c-0.222,0.336-0.542,0.597-0.962,0.78c-0.418,0.185-0.893,0.276-1.422,0.276
		c-0.875,0-1.543-0.182-2.002-0.546S224.931,88.148,224.804,87.434z"/>
	<path d="M236.179,89.445v-0.99c-0.525,0.762-1.238,1.143-2.14,1.143c-0.397,0-0.77-0.076-1.114-0.229s-0.601-0.344-0.768-0.574
		s-0.285-0.514-0.353-0.848c-0.047-0.225-0.069-0.58-0.069-1.066v-4.177h1.143v3.739c0,0.596,0.022,0.998,0.069,1.205
		c0.072,0.301,0.225,0.537,0.457,0.708c0.232,0.172,0.521,0.257,0.863,0.257s0.664-0.087,0.965-0.263s0.513-0.415,0.638-0.718
		s0.188-0.741,0.188-1.316v-3.612h1.143v6.741H236.179z"/>
	<path d="M238.991,92.029v-9.325h1.041v0.876c0.245-0.343,0.522-0.6,0.831-0.771c0.309-0.171,0.684-0.257,1.124-0.257
		c0.575,0,1.083,0.148,1.523,0.444c0.439,0.296,0.771,0.714,0.996,1.254c0.225,0.539,0.336,1.131,0.336,1.773
		c0,0.69-0.123,1.312-0.371,1.863c-0.247,0.553-0.607,0.976-1.079,1.27s-0.968,0.441-1.488,0.441c-0.381,0-0.723-0.08-1.025-0.241
		s-0.551-0.364-0.745-0.609v3.282H238.991z M240.025,86.113c0,0.867,0.176,1.508,0.526,1.923c0.352,0.415,0.777,0.622,1.276,0.622
		c0.508,0,0.942-0.215,1.305-0.645c0.361-0.43,0.542-1.095,0.542-1.996c0-0.859-0.176-1.502-0.529-1.93s-0.775-0.641-1.267-0.641
		c-0.486,0-0.917,0.227-1.292,0.682C240.213,84.584,240.025,85.245,240.025,86.113z"/>
	<path d="M250.836,87.274l1.181,0.146c-0.187,0.69-0.531,1.226-1.035,1.606c-0.503,0.381-1.146,0.571-1.93,0.571
		c-0.985,0-1.768-0.304-2.345-0.911c-0.578-0.607-0.866-1.459-0.866-2.555c0-1.134,0.291-2.015,0.875-2.641s1.342-0.939,2.273-0.939
		c0.9,0,1.637,0.307,2.209,0.921c0.57,0.613,0.856,1.477,0.856,2.59c0,0.067-0.002,0.169-0.007,0.305h-5.027
		c0.043,0.74,0.252,1.307,0.629,1.701c0.377,0.393,0.847,0.59,1.409,0.59c0.419,0,0.776-0.11,1.073-0.33
		C250.428,88.108,250.662,87.757,250.836,87.274z M247.085,85.428h3.764c-0.051-0.567-0.194-0.993-0.432-1.276
		c-0.364-0.44-0.836-0.66-1.416-0.66c-0.524,0-0.966,0.176-1.323,0.526C247.32,84.369,247.122,84.839,247.085,85.428z"/>
	<path d="M253.438,89.445v-6.741h1.029v1.022c0.262-0.479,0.504-0.794,0.727-0.946c0.222-0.152,0.467-0.229,0.732-0.229
		c0.386,0,0.777,0.123,1.175,0.368l-0.394,1.061c-0.279-0.166-0.559-0.248-0.838-0.248c-0.25,0-0.474,0.075-0.673,0.226
		s-0.341,0.358-0.425,0.625c-0.127,0.406-0.191,0.851-0.191,1.333v3.529H253.438z"/>
	<path d="M262.18,88.613c-0.423,0.36-0.83,0.614-1.222,0.762c-0.392,0.148-0.812,0.223-1.261,0.223c-0.74,0-1.31-0.181-1.707-0.543
		c-0.397-0.361-0.597-0.824-0.597-1.387c0-0.33,0.075-0.632,0.226-0.904c0.15-0.273,0.347-0.492,0.59-0.657s0.518-0.29,0.822-0.374
		c0.225-0.06,0.563-0.117,1.016-0.172c0.923-0.11,1.602-0.241,2.037-0.394c0.005-0.156,0.007-0.256,0.007-0.298
		c0-0.466-0.108-0.794-0.323-0.984c-0.293-0.258-0.727-0.387-1.302-0.387c-0.537,0-0.935,0.094-1.19,0.282s-0.445,0.521-0.568,0.999
		l-1.117-0.152c0.102-0.478,0.27-0.864,0.502-1.158s0.569-0.521,1.01-0.679c0.439-0.159,0.949-0.238,1.529-0.238
		c0.575,0,1.043,0.067,1.402,0.203c0.36,0.136,0.625,0.306,0.794,0.511s0.288,0.465,0.355,0.777
		c0.038,0.195,0.058,0.547,0.058,1.055v1.523c0,1.062,0.023,1.733,0.072,2.015s0.146,0.552,0.289,0.81h-1.193
		C262.29,89.208,262.214,88.932,262.18,88.613z M262.084,86.062c-0.414,0.169-1.036,0.313-1.865,0.432
		c-0.471,0.067-0.803,0.144-0.997,0.229c-0.194,0.084-0.345,0.208-0.45,0.371c-0.106,0.163-0.159,0.344-0.159,0.543
		c0,0.305,0.115,0.559,0.346,0.762s0.568,0.305,1.013,0.305c0.44,0,0.832-0.097,1.174-0.289c0.344-0.192,0.595-0.456,0.756-0.791
		c0.123-0.258,0.184-0.639,0.184-1.143V86.062z"/>
	<path d="M264.997,89.445v-6.741h1.029v1.022c0.262-0.479,0.504-0.794,0.727-0.946c0.222-0.152,0.467-0.229,0.732-0.229
		c0.386,0,0.777,0.123,1.175,0.368l-0.394,1.061c-0.279-0.166-0.559-0.248-0.838-0.248c-0.25,0-0.474,0.075-0.673,0.226
		s-0.341,0.358-0.425,0.625c-0.127,0.406-0.191,0.851-0.191,1.333v3.529H264.997z"/>
	<path d="M31.756,105.045v-0.99c-0.525,0.762-1.238,1.143-2.14,1.143c-0.397,0-0.77-0.076-1.114-0.229s-0.601-0.344-0.768-0.574
		s-0.285-0.514-0.353-0.848c-0.047-0.225-0.069-0.58-0.069-1.066v-4.177h1.143v3.739c0,0.596,0.022,0.998,0.069,1.205
		c0.072,0.301,0.225,0.537,0.457,0.708c0.232,0.172,0.521,0.257,0.863,0.257s0.664-0.087,0.965-0.263s0.513-0.415,0.638-0.718
		s0.188-0.741,0.188-1.316v-3.612h1.143v6.741H31.756z"/>
	<path d="M34.568,105.045v-6.741h1.027v0.958c0.496-0.74,1.211-1.11,2.146-1.11c0.406,0,0.779,0.073,1.12,0.219
		c0.341,0.146,0.596,0.338,0.765,0.575c0.169,0.236,0.288,0.518,0.355,0.844c0.042,0.212,0.063,0.582,0.063,1.111v4.145h-1.143
		v-4.101c0-0.466-0.044-0.813-0.134-1.044c-0.088-0.23-0.246-0.415-0.473-0.553s-0.492-0.206-0.797-0.206
		c-0.486,0-0.906,0.154-1.26,0.464c-0.354,0.309-0.529,0.895-0.529,1.758v3.682H34.568z"/>
	<path d="M47.441,107.629v-9.325h1.041v0.876c0.245-0.343,0.522-0.6,0.831-0.771c0.309-0.171,0.684-0.257,1.124-0.257
		c0.575,0,1.083,0.148,1.523,0.444c0.439,0.296,0.771,0.714,0.996,1.254c0.225,0.539,0.336,1.131,0.336,1.773
		c0,0.69-0.123,1.312-0.371,1.863c-0.247,0.553-0.607,0.976-1.079,1.27s-0.968,0.441-1.488,0.441c-0.381,0-0.723-0.08-1.025-0.241
		s-0.551-0.364-0.745-0.609v3.282H47.441z M48.476,101.713c0,0.867,0.176,1.508,0.526,1.923c0.352,0.415,0.777,0.622,1.276,0.622
		c0.508,0,0.942-0.215,1.305-0.645c0.361-0.43,0.542-1.095,0.542-1.996c0-0.859-0.176-1.502-0.529-1.93s-0.775-0.641-1.267-0.641
		c-0.486,0-0.917,0.227-1.292,0.682C48.663,100.184,48.476,100.845,48.476,101.713z"/>
	<path d="M54.658,105.045v-6.741h1.029v1.022c0.262-0.479,0.504-0.794,0.727-0.946c0.222-0.152,0.467-0.229,0.732-0.229
		c0.386,0,0.777,0.123,1.175,0.368l-0.394,1.061c-0.279-0.166-0.559-0.248-0.838-0.248c-0.25,0-0.474,0.075-0.673,0.226
		s-0.341,0.358-0.425,0.625c-0.127,0.406-0.191,0.851-0.191,1.333v3.529H54.658z"/>
	<path d="M58.575,101.674c0-1.248,0.347-2.173,1.041-2.773c0.58-0.499,1.286-0.749,2.12-0.749c0.927,0,1.685,0.304,2.272,0.911
		s0.883,1.446,0.883,2.517c0,0.867-0.131,1.55-0.391,2.047c-0.261,0.497-0.64,0.884-1.137,1.159
		c-0.497,0.274-1.04,0.412-1.628,0.412c-0.943,0-1.706-0.303-2.288-0.908C58.866,103.685,58.575,102.812,58.575,101.674z
		 M59.749,101.674c0,0.863,0.188,1.51,0.565,1.939s0.851,0.645,1.422,0.645c0.567,0,1.039-0.216,1.415-0.647
		c0.377-0.432,0.565-1.09,0.565-1.974c0-0.834-0.189-1.466-0.568-1.896s-0.85-0.644-1.412-0.644c-0.571,0-1.045,0.213-1.422,0.641
		S59.749,100.811,59.749,101.674z"/>
	<path d="M67.283,105.045h-1.06v-9.306h1.143v3.319c0.482-0.604,1.099-0.907,1.847-0.907c0.415,0,0.808,0.084,1.178,0.251
		s0.675,0.401,0.914,0.704s0.427,0.668,0.563,1.095c0.135,0.428,0.203,0.885,0.203,1.371c0,1.156-0.286,2.049-0.857,2.68
		c-0.571,0.63-1.257,0.945-2.057,0.945c-0.796,0-1.42-0.332-1.873-0.996V105.045z M67.271,101.623c0,0.809,0.109,1.393,0.33,1.752
		c0.359,0.589,0.846,0.883,1.459,0.883c0.5,0,0.932-0.217,1.295-0.65c0.364-0.434,0.547-1.08,0.547-1.939
		c0-0.88-0.175-1.529-0.524-1.949c-0.349-0.418-0.771-0.628-1.267-0.628c-0.499,0-0.931,0.217-1.295,0.65
		C67.453,100.175,67.271,100.803,67.271,101.623z"/>
	<path d="M73.436,105.045v-9.306h1.143v9.306H73.436z"/>
	<path d="M80.964,102.874l1.181,0.146c-0.187,0.69-0.531,1.226-1.035,1.606c-0.503,0.381-1.146,0.571-1.93,0.571
		c-0.985,0-1.768-0.304-2.345-0.911c-0.578-0.607-0.866-1.459-0.866-2.555c0-1.134,0.291-2.015,0.875-2.641s1.342-0.939,2.273-0.939
		c0.9,0,1.637,0.307,2.209,0.921c0.57,0.613,0.856,1.477,0.856,2.59c0,0.067-0.002,0.169-0.007,0.305h-5.027
		c0.043,0.74,0.252,1.307,0.629,1.701c0.377,0.393,0.847,0.59,1.409,0.59c0.419,0,0.776-0.11,1.073-0.33
		C80.556,103.708,80.79,103.356,80.964,102.874z M77.213,101.027h3.764c-0.051-0.567-0.194-0.993-0.432-1.276
		c-0.364-0.44-0.836-0.66-1.416-0.66c-0.524,0-0.966,0.176-1.323,0.526C77.448,99.969,77.25,100.438,77.213,101.027z"/>
	<path d="M83.58,105.045v-6.741h1.021v0.946c0.212-0.33,0.493-0.596,0.844-0.797c0.352-0.201,0.752-0.302,1.2-0.302
		c0.499,0,0.909,0.104,1.229,0.312c0.319,0.207,0.545,0.497,0.676,0.869c0.533-0.787,1.228-1.181,2.082-1.181
		c0.669,0,1.183,0.186,1.542,0.556c0.36,0.37,0.54,0.94,0.54,1.711v4.627h-1.136v-4.246c0-0.457-0.037-0.786-0.111-0.987
		s-0.209-0.363-0.403-0.485c-0.194-0.123-0.423-0.185-0.686-0.185c-0.474,0-0.867,0.157-1.181,0.473s-0.47,0.82-0.47,1.515v3.916
		h-1.143v-4.38c0-0.508-0.093-0.889-0.279-1.143s-0.491-0.381-0.914-0.381c-0.321,0-0.619,0.085-0.892,0.254
		c-0.273,0.169-0.471,0.417-0.594,0.743c-0.123,0.325-0.184,0.795-0.184,1.408v3.498H83.58z"/>
	<path d="M98.808,104.213c-0.423,0.36-0.83,0.614-1.222,0.762c-0.392,0.148-0.812,0.223-1.261,0.223c-0.74,0-1.31-0.181-1.707-0.543
		c-0.397-0.361-0.597-0.824-0.597-1.387c0-0.33,0.075-0.632,0.226-0.904c0.15-0.273,0.347-0.492,0.59-0.657s0.518-0.29,0.822-0.374
		c0.225-0.06,0.563-0.117,1.016-0.172c0.923-0.11,1.602-0.241,2.037-0.394c0.005-0.156,0.007-0.256,0.007-0.298
		c0-0.466-0.108-0.794-0.323-0.984c-0.293-0.258-0.727-0.387-1.302-0.387c-0.537,0-0.935,0.094-1.19,0.282s-0.445,0.521-0.568,0.999
		l-1.117-0.152c0.102-0.478,0.27-0.864,0.502-1.158s0.569-0.521,1.01-0.679c0.439-0.159,0.949-0.238,1.529-0.238
		c0.575,0,1.043,0.067,1.402,0.203c0.36,0.136,0.625,0.306,0.794,0.511s0.288,0.465,0.355,0.777
		c0.038,0.195,0.058,0.547,0.058,1.055v1.523c0,1.062,0.023,1.733,0.072,2.015s0.146,0.552,0.289,0.81h-1.193
		C98.918,104.808,98.842,104.531,98.808,104.213z M98.712,101.662c-0.414,0.169-1.036,0.313-1.865,0.432
		c-0.471,0.067-0.803,0.144-0.997,0.229c-0.194,0.084-0.345,0.208-0.45,0.371c-0.106,0.163-0.159,0.344-0.159,0.543
		c0,0.305,0.115,0.559,0.346,0.762s0.568,0.305,1.013,0.305c0.44,0,0.832-0.097,1.174-0.289c0.344-0.192,0.595-0.456,0.756-0.791
		c0.123-0.258,0.184-0.639,0.184-1.143V101.662z"/>
	<path d="M111.654,105.045v-0.851c-0.428,0.669-1.056,1.003-1.885,1.003c-0.538,0-1.032-0.148-1.482-0.444
		c-0.451-0.296-0.8-0.71-1.048-1.241c-0.247-0.531-0.371-1.142-0.371-1.831c0-0.673,0.112-1.283,0.337-1.831
		c0.224-0.548,0.561-0.969,1.009-1.26c0.448-0.293,0.95-0.438,1.505-0.438c0.406,0,0.768,0.086,1.085,0.257
		c0.317,0.172,0.575,0.395,0.774,0.67v-3.339h1.137v9.306H111.654z M108.043,101.681c0,0.863,0.182,1.509,0.545,1.937
		c0.364,0.427,0.794,0.641,1.289,0.641c0.499,0,0.924-0.204,1.272-0.612c0.35-0.408,0.524-1.032,0.524-1.87
		c0-0.922-0.178-1.6-0.533-2.031s-0.794-0.646-1.314-0.646c-0.508,0-0.932,0.207-1.272,0.621
		C108.213,100.134,108.043,100.788,108.043,101.681z"/>
	<path d="M119.126,102.874l1.181,0.146c-0.187,0.69-0.531,1.226-1.035,1.606c-0.503,0.381-1.146,0.571-1.93,0.571
		c-0.985,0-1.768-0.304-2.345-0.911c-0.578-0.607-0.866-1.459-0.866-2.555c0-1.134,0.291-2.015,0.875-2.641s1.342-0.939,2.273-0.939
		c0.9,0,1.637,0.307,2.209,0.921c0.57,0.613,0.856,1.477,0.856,2.59c0,0.067-0.002,0.169-0.007,0.305h-5.027
		c0.043,0.74,0.252,1.307,0.629,1.701c0.377,0.393,0.847,0.59,1.409,0.59c0.419,0,0.776-0.11,1.073-0.33
		C118.718,103.708,118.952,103.356,119.126,102.874z M115.375,101.027h3.764c-0.051-0.567-0.194-0.993-0.432-1.276
		c-0.364-0.44-0.836-0.66-1.416-0.66c-0.524,0-0.966,0.176-1.323,0.526C115.61,99.969,115.412,100.438,115.375,101.027z"/>
	<path d="M131.758,105.045v-0.851c-0.428,0.669-1.056,1.003-1.885,1.003c-0.538,0-1.032-0.148-1.482-0.444
		c-0.451-0.296-0.8-0.71-1.048-1.241c-0.247-0.531-0.371-1.142-0.371-1.831c0-0.673,0.112-1.283,0.337-1.831
		c0.224-0.548,0.561-0.969,1.009-1.26c0.448-0.293,0.95-0.438,1.505-0.438c0.406,0,0.768,0.086,1.085,0.257
		c0.317,0.172,0.575,0.395,0.774,0.67v-3.339h1.137v9.306H131.758z M128.146,101.681c0,0.863,0.182,1.509,0.545,1.937
		c0.364,0.427,0.794,0.641,1.289,0.641c0.499,0,0.924-0.204,1.272-0.612c0.35-0.408,0.524-1.032,0.524-1.87
		c0-0.922-0.178-1.6-0.533-2.031s-0.794-0.646-1.314-0.646c-0.508,0-0.932,0.207-1.272,0.621
		C128.316,100.134,128.146,100.788,128.146,101.681z"/>
	<path d="M139.229,102.874l1.181,0.146c-0.187,0.69-0.531,1.226-1.035,1.606c-0.503,0.381-1.146,0.571-1.93,0.571
		c-0.985,0-1.768-0.304-2.345-0.911c-0.578-0.607-0.866-1.459-0.866-2.555c0-1.134,0.291-2.015,0.875-2.641s1.342-0.939,2.273-0.939
		c0.9,0,1.637,0.307,2.209,0.921c0.57,0.613,0.856,1.477,0.856,2.59c0,0.067-0.002,0.169-0.007,0.305h-5.027
		c0.043,0.74,0.252,1.307,0.629,1.701c0.377,0.393,0.847,0.59,1.409,0.59c0.419,0,0.776-0.11,1.073-0.33
		C138.821,103.708,139.056,103.356,139.229,102.874z M135.478,101.027h3.764c-0.051-0.567-0.194-0.993-0.432-1.276
		c-0.364-0.44-0.836-0.66-1.416-0.66c-0.524,0-0.966,0.176-1.323,0.526C135.714,99.969,135.516,100.438,135.478,101.027z"/>
	<path d="M141.389,103.033l1.129-0.178c0.064,0.452,0.24,0.799,0.53,1.041c0.29,0.24,0.695,0.361,1.216,0.361
		c0.524,0,0.914-0.106,1.168-0.32s0.381-0.465,0.381-0.752c0-0.259-0.112-0.462-0.336-0.609c-0.157-0.102-0.547-0.231-1.168-0.388
		c-0.838-0.212-1.419-0.395-1.743-0.549c-0.323-0.154-0.569-0.368-0.736-0.642c-0.167-0.272-0.251-0.574-0.251-0.904
		c0-0.301,0.069-0.579,0.207-0.835s0.324-0.469,0.562-0.638c0.178-0.131,0.42-0.242,0.727-0.333s0.636-0.137,0.987-0.137
		c0.529,0,0.993,0.076,1.394,0.229c0.399,0.152,0.694,0.358,0.886,0.619c0.189,0.26,0.321,0.608,0.393,1.044l-1.117,0.152
		c-0.051-0.347-0.197-0.618-0.44-0.813s-0.587-0.292-1.032-0.292c-0.524,0-0.898,0.087-1.123,0.261
		c-0.225,0.173-0.336,0.376-0.336,0.609c0,0.147,0.046,0.281,0.139,0.399c0.094,0.123,0.239,0.225,0.438,0.305
		c0.114,0.042,0.45,0.14,1.009,0.292c0.809,0.216,1.373,0.393,1.692,0.53s0.57,0.337,0.752,0.6s0.272,0.588,0.272,0.978
		c0,0.381-0.11,0.739-0.333,1.076c-0.222,0.336-0.542,0.597-0.962,0.78c-0.418,0.185-0.893,0.276-1.422,0.276
		c-0.875,0-1.543-0.182-2.002-0.546S141.516,103.748,141.389,103.033z"/>
	<path d="M152.744,104.213c-0.423,0.36-0.83,0.614-1.222,0.762c-0.392,0.148-0.812,0.223-1.261,0.223
		c-0.74,0-1.31-0.181-1.707-0.543c-0.397-0.361-0.597-0.824-0.597-1.387c0-0.33,0.075-0.632,0.226-0.904
		c0.15-0.273,0.347-0.492,0.59-0.657s0.518-0.29,0.822-0.374c0.225-0.06,0.563-0.117,1.016-0.172
		c0.923-0.11,1.602-0.241,2.037-0.394c0.005-0.156,0.007-0.256,0.007-0.298c0-0.466-0.108-0.794-0.323-0.984
		c-0.293-0.258-0.727-0.387-1.302-0.387c-0.537,0-0.935,0.094-1.19,0.282s-0.445,0.521-0.568,0.999l-1.117-0.152
		c0.102-0.478,0.27-0.864,0.502-1.158s0.569-0.521,1.01-0.679c0.439-0.159,0.949-0.238,1.529-0.238c0.575,0,1.043,0.067,1.402,0.203
		c0.36,0.136,0.625,0.306,0.794,0.511s0.288,0.465,0.355,0.777c0.038,0.195,0.058,0.547,0.058,1.055v1.523
		c0,1.062,0.023,1.733,0.072,2.015s0.146,0.552,0.289,0.81h-1.193C152.854,104.808,152.778,104.531,152.744,104.213z
		 M152.648,101.662c-0.414,0.169-1.036,0.313-1.865,0.432c-0.471,0.067-0.803,0.144-0.997,0.229
		c-0.194,0.084-0.345,0.208-0.45,0.371c-0.106,0.163-0.159,0.344-0.159,0.543c0,0.305,0.115,0.559,0.346,0.762
		s0.568,0.305,1.013,0.305c0.44,0,0.832-0.097,1.174-0.289c0.344-0.192,0.595-0.456,0.756-0.791
		c0.123-0.258,0.184-0.639,0.184-1.143V101.662z"/>
	<path d="M155.562,105.045v-6.741h1.029v1.022c0.262-0.479,0.504-0.794,0.727-0.946c0.222-0.152,0.467-0.229,0.732-0.229
		c0.386,0,0.777,0.123,1.175,0.368l-0.394,1.061c-0.279-0.166-0.559-0.248-0.838-0.248c-0.25,0-0.474,0.075-0.673,0.226
		s-0.341,0.358-0.425,0.625c-0.127,0.406-0.191,0.851-0.191,1.333v3.529H155.562z"/>
	<path d="M159.892,105.045v-6.741h1.029v1.022c0.262-0.479,0.504-0.794,0.727-0.946c0.222-0.152,0.467-0.229,0.732-0.229
		c0.386,0,0.777,0.123,1.175,0.368l-0.394,1.061c-0.279-0.166-0.559-0.248-0.838-0.248c-0.25,0-0.474,0.075-0.673,0.226
		s-0.341,0.358-0.425,0.625c-0.127,0.406-0.191,0.851-0.191,1.333v3.529H159.892z"/>
	<path d="M163.809,101.674c0-1.248,0.347-2.173,1.041-2.773c0.58-0.499,1.286-0.749,2.12-0.749c0.927,0,1.685,0.304,2.272,0.911
		s0.883,1.446,0.883,2.517c0,0.867-0.131,1.55-0.391,2.047c-0.261,0.497-0.64,0.884-1.137,1.159
		c-0.497,0.274-1.04,0.412-1.628,0.412c-0.943,0-1.706-0.303-2.288-0.908C164.1,103.685,163.809,102.812,163.809,101.674z
		 M164.982,101.674c0,0.863,0.188,1.51,0.565,1.939s0.851,0.645,1.422,0.645c0.567,0,1.039-0.216,1.415-0.647
		c0.377-0.432,0.565-1.09,0.565-1.974c0-0.834-0.189-1.466-0.568-1.896s-0.85-0.644-1.412-0.644c-0.571,0-1.045,0.213-1.422,0.641
		S164.982,100.811,164.982,101.674z"/>
	<path d="M171.439,105.045v-9.306h1.143v9.306H171.439z"/>
	<path d="M174.328,105.045v-9.306h1.143v9.306H174.328z"/>
	<path d="M176.816,101.674c0-1.248,0.347-2.173,1.041-2.773c0.58-0.499,1.286-0.749,2.12-0.749c0.927,0,1.685,0.304,2.272,0.911
		s0.883,1.446,0.883,2.517c0,0.867-0.131,1.55-0.391,2.047c-0.261,0.497-0.64,0.884-1.137,1.159
		c-0.497,0.274-1.04,0.412-1.628,0.412c-0.943,0-1.706-0.303-2.288-0.908C177.107,103.685,176.816,102.812,176.816,101.674z
		 M177.99,101.674c0,0.863,0.188,1.51,0.565,1.939s0.851,0.645,1.422,0.645c0.567,0,1.039-0.216,1.415-0.647
		c0.377-0.432,0.565-1.09,0.565-1.974c0-0.834-0.189-1.466-0.568-1.896s-0.85-0.644-1.412-0.644c-0.571,0-1.045,0.213-1.422,0.641
		S177.99,100.811,177.99,101.674z"/>
	<path d="M190.064,107.641l-0.127-1.072c0.249,0.067,0.467,0.102,0.653,0.102c0.254,0,0.457-0.042,0.609-0.127
		s0.277-0.203,0.374-0.355c0.072-0.114,0.188-0.397,0.35-0.851c0.021-0.063,0.055-0.156,0.102-0.279l-2.559-6.754h1.232l1.402,3.903
		c0.182,0.496,0.345,1.016,0.488,1.563c0.132-0.525,0.288-1.037,0.471-1.537l1.44-3.929h1.143l-2.564,6.855
		c-0.275,0.74-0.489,1.251-0.642,1.53c-0.203,0.376-0.436,0.652-0.697,0.828c-0.263,0.176-0.576,0.264-0.939,0.264
		C190.58,107.781,190.335,107.734,190.064,107.641z"/>
	<path d="M206.555,107.629v-3.301c-0.178,0.249-0.427,0.457-0.746,0.621c-0.319,0.166-0.659,0.248-1.019,0.248
		c-0.8,0-1.488-0.319-2.066-0.959c-0.577-0.639-0.866-1.515-0.866-2.627c0-0.678,0.117-1.285,0.353-1.822
		c0.234-0.537,0.575-0.944,1.021-1.222s0.937-0.416,1.47-0.416c0.834,0,1.489,0.352,1.968,1.054v-0.901h1.028v9.325H206.555z
		 M203.031,101.655c0,0.867,0.183,1.519,0.547,1.952c0.363,0.434,0.799,0.65,1.307,0.65c0.487,0,0.906-0.206,1.258-0.619
		c0.351-0.412,0.526-1.04,0.526-1.882c0-0.897-0.186-1.572-0.556-2.024c-0.37-0.453-0.805-0.68-1.305-0.68
		c-0.494,0-0.915,0.211-1.26,0.632S203.031,100.763,203.031,101.655z"/>
	<path d="M213.906,105.045v-0.99c-0.525,0.762-1.238,1.143-2.14,1.143c-0.397,0-0.77-0.076-1.114-0.229s-0.601-0.344-0.768-0.574
		s-0.285-0.514-0.353-0.848c-0.047-0.225-0.069-0.58-0.069-1.066v-4.177h1.143v3.739c0,0.596,0.022,0.998,0.069,1.205
		c0.072,0.301,0.225,0.537,0.457,0.708c0.232,0.172,0.521,0.257,0.863,0.257s0.664-0.087,0.965-0.263s0.513-0.415,0.638-0.718
		s0.188-0.741,0.188-1.316v-3.612h1.143v6.741H213.906z"/>
	<path d="M221.333,102.874l1.181,0.146c-0.187,0.69-0.531,1.226-1.035,1.606c-0.503,0.381-1.146,0.571-1.93,0.571
		c-0.985,0-1.768-0.304-2.345-0.911c-0.578-0.607-0.866-1.459-0.866-2.555c0-1.134,0.291-2.015,0.875-2.641s1.342-0.939,2.273-0.939
		c0.9,0,1.637,0.307,2.209,0.921c0.57,0.613,0.856,1.477,0.856,2.59c0,0.067-0.002,0.169-0.007,0.305h-5.027
		c0.043,0.74,0.252,1.307,0.629,1.701c0.377,0.393,0.847,0.59,1.409,0.59c0.419,0,0.776-0.11,1.073-0.33
		C220.925,103.708,221.159,103.356,221.333,102.874z M217.582,101.027h3.764c-0.051-0.567-0.194-0.993-0.432-1.276
		c-0.364-0.44-0.836-0.66-1.416-0.66c-0.524,0-0.966,0.176-1.323,0.526C217.817,99.969,217.619,100.438,217.582,101.027z
		 M218.812,97.466l0.845-1.777h1.498l-1.396,1.777H218.812z"/>
	<path d="M229.382,105.603l1.11,0.165c0.047,0.343,0.176,0.593,0.388,0.749c0.283,0.212,0.671,0.317,1.161,0.317
		c0.529,0,0.938-0.105,1.226-0.317s0.482-0.508,0.584-0.889c0.06-0.232,0.087-0.722,0.083-1.467c-0.5,0.589-1.122,0.883-1.867,0.883
		c-0.926,0-1.644-0.334-2.151-1.003s-0.762-1.471-0.762-2.405c0-0.644,0.116-1.237,0.349-1.781c0.233-0.544,0.57-0.964,1.013-1.26
		s0.962-0.444,1.559-0.444c0.796,0,1.451,0.321,1.968,0.965v-0.813h1.054v5.827c0,1.05-0.106,1.793-0.32,2.231
		c-0.214,0.438-0.553,0.784-1.016,1.038c-0.464,0.254-1.034,0.381-1.711,0.381c-0.804,0-1.454-0.182-1.948-0.543
		C229.603,106.876,229.365,106.331,229.382,105.603z M230.328,101.554c0,0.885,0.175,1.53,0.526,1.937s0.791,0.609,1.32,0.609
		c0.524,0,0.965-0.202,1.32-0.606s0.533-1.038,0.533-1.901c0-0.825-0.183-1.447-0.549-1.866s-0.808-0.628-1.323-0.628
		c-0.508,0-0.939,0.206-1.295,0.618C230.506,100.129,230.328,100.741,230.328,101.554z"/>
	<path d="M236.809,105.045v-6.741h1.029v1.022c0.262-0.479,0.504-0.794,0.727-0.946c0.222-0.152,0.467-0.229,0.732-0.229
		c0.386,0,0.777,0.123,1.175,0.368l-0.394,1.061c-0.279-0.166-0.559-0.248-0.838-0.248c-0.25,0-0.474,0.075-0.673,0.226
		s-0.341,0.358-0.425,0.625c-0.127,0.406-0.191,0.851-0.191,1.333v3.529H236.809z"/>
	<path d="M245.569,105.045v-0.99c-0.525,0.762-1.238,1.143-2.14,1.143c-0.397,0-0.77-0.076-1.114-0.229s-0.601-0.344-0.768-0.574
		s-0.285-0.514-0.353-0.848c-0.047-0.225-0.069-0.58-0.069-1.066v-4.177h1.143v3.739c0,0.596,0.022,0.998,0.069,1.205
		c0.072,0.301,0.225,0.537,0.457,0.708c0.232,0.172,0.521,0.257,0.863,0.257s0.664-0.087,0.965-0.263s0.513-0.415,0.638-0.718
		s0.188-0.741,0.188-1.316v-3.612h1.143v6.741H245.569z"/>
	<path d="M248.381,107.629v-9.325h1.041v0.876c0.245-0.343,0.522-0.6,0.831-0.771c0.309-0.171,0.684-0.257,1.124-0.257
		c0.575,0,1.083,0.148,1.523,0.444c0.439,0.296,0.771,0.714,0.996,1.254c0.225,0.539,0.336,1.131,0.336,1.773
		c0,0.69-0.123,1.312-0.371,1.863c-0.247,0.553-0.607,0.976-1.079,1.27s-0.968,0.441-1.488,0.441c-0.381,0-0.723-0.08-1.025-0.241
		s-0.551-0.364-0.745-0.609v3.282H248.381z M249.415,101.713c0,0.867,0.176,1.508,0.526,1.923c0.352,0.415,0.777,0.622,1.276,0.622
		c0.508,0,0.942-0.215,1.305-0.645c0.361-0.43,0.542-1.095,0.542-1.996c0-0.859-0.176-1.502-0.529-1.93s-0.775-0.641-1.267-0.641
		c-0.486,0-0.917,0.227-1.292,0.682C249.602,100.184,249.415,100.845,249.415,101.713z"/>
	<path d="M255.186,101.674c0-1.248,0.347-2.173,1.041-2.773c0.58-0.499,1.286-0.749,2.12-0.749c0.927,0,1.685,0.304,2.272,0.911
		s0.883,1.446,0.883,2.517c0,0.867-0.131,1.55-0.391,2.047c-0.261,0.497-0.64,0.884-1.137,1.159
		c-0.497,0.274-1.04,0.412-1.628,0.412c-0.943,0-1.706-0.303-2.288-0.908C255.477,103.685,255.186,102.812,255.186,101.674z
		 M256.359,101.674c0,0.863,0.188,1.51,0.565,1.939s0.851,0.645,1.422,0.645c0.567,0,1.039-0.216,1.415-0.647
		c0.377-0.432,0.565-1.09,0.565-1.974c0-0.834-0.189-1.466-0.568-1.896s-0.85-0.644-1.412-0.644c-0.571,0-1.045,0.213-1.422,0.641
		S256.359,100.811,256.359,101.674z"/>
	<path d="M262.385,103.033l1.129-0.178c0.064,0.452,0.24,0.799,0.53,1.041c0.29,0.24,0.695,0.361,1.216,0.361
		c0.524,0,0.914-0.106,1.168-0.32s0.381-0.465,0.381-0.752c0-0.259-0.112-0.462-0.336-0.609c-0.157-0.102-0.547-0.231-1.168-0.388
		c-0.838-0.212-1.419-0.395-1.743-0.549c-0.323-0.154-0.569-0.368-0.736-0.642c-0.167-0.272-0.251-0.574-0.251-0.904
		c0-0.301,0.069-0.579,0.207-0.835s0.324-0.469,0.562-0.638c0.178-0.131,0.42-0.242,0.727-0.333s0.636-0.137,0.987-0.137
		c0.529,0,0.993,0.076,1.394,0.229c0.399,0.152,0.694,0.358,0.886,0.619c0.189,0.26,0.321,0.608,0.393,1.044l-1.117,0.152
		c-0.051-0.347-0.197-0.618-0.44-0.813s-0.587-0.292-1.032-0.292c-0.524,0-0.898,0.087-1.123,0.261
		c-0.225,0.173-0.336,0.376-0.336,0.609c0,0.147,0.046,0.281,0.139,0.399c0.094,0.123,0.239,0.225,0.438,0.305
		c0.114,0.042,0.45,0.14,1.009,0.292c0.809,0.216,1.373,0.393,1.692,0.53s0.57,0.337,0.752,0.6s0.272,0.588,0.272,0.978
		c0,0.381-0.11,0.739-0.333,1.076c-0.222,0.336-0.542,0.597-0.962,0.78c-0.418,0.185-0.893,0.276-1.422,0.276
		c-0.875,0-1.543-0.182-2.002-0.546S262.512,103.748,262.385,103.033z"/>
	<path d="M26.881,118.633l1.129-0.178c0.064,0.452,0.24,0.799,0.53,1.041c0.29,0.24,0.695,0.361,1.216,0.361
		c0.524,0,0.914-0.106,1.168-0.32s0.381-0.465,0.381-0.752c0-0.259-0.112-0.462-0.336-0.609c-0.157-0.102-0.547-0.231-1.168-0.388
		c-0.838-0.212-1.419-0.395-1.743-0.549c-0.323-0.154-0.569-0.368-0.736-0.642c-0.167-0.272-0.251-0.574-0.251-0.904
		c0-0.301,0.069-0.579,0.207-0.835s0.324-0.469,0.562-0.638c0.178-0.131,0.42-0.242,0.727-0.333s0.636-0.137,0.987-0.137
		c0.529,0,0.993,0.076,1.394,0.229c0.399,0.152,0.694,0.358,0.886,0.619c0.189,0.26,0.321,0.608,0.393,1.044l-1.117,0.152
		c-0.051-0.347-0.197-0.618-0.44-0.813s-0.587-0.292-1.032-0.292c-0.524,0-0.898,0.087-1.123,0.261
		c-0.225,0.173-0.336,0.376-0.336,0.609c0,0.147,0.046,0.281,0.139,0.399c0.094,0.123,0.239,0.225,0.438,0.305
		c0.114,0.042,0.45,0.14,1.009,0.292c0.809,0.216,1.373,0.393,1.692,0.53s0.57,0.337,0.752,0.6s0.272,0.588,0.272,0.978
		c0,0.381-0.11,0.739-0.333,1.076c-0.222,0.336-0.542,0.597-0.962,0.78c-0.418,0.185-0.893,0.276-1.422,0.276
		c-0.875,0-1.543-0.182-2.002-0.546S27.008,119.348,26.881,118.633z"/>
	<path d="M38.452,118.474l1.181,0.146c-0.187,0.69-0.531,1.226-1.035,1.606c-0.503,0.381-1.146,0.571-1.93,0.571
		c-0.985,0-1.768-0.304-2.345-0.911c-0.578-0.607-0.866-1.459-0.866-2.555c0-1.134,0.291-2.015,0.875-2.641s1.342-0.939,2.273-0.939
		c0.9,0,1.637,0.307,2.209,0.921c0.57,0.613,0.856,1.477,0.856,2.59c0,0.067-0.002,0.169-0.007,0.305h-5.027
		c0.043,0.74,0.252,1.307,0.629,1.701c0.377,0.393,0.847,0.59,1.409,0.59c0.419,0,0.776-0.11,1.073-0.33
		C38.044,119.308,38.278,118.956,38.452,118.474z M34.701,116.627h3.764c-0.051-0.567-0.194-0.993-0.432-1.276
		c-0.364-0.44-0.836-0.66-1.416-0.66c-0.524,0-0.966,0.176-1.323,0.526C34.936,115.568,34.738,116.038,34.701,116.627z"/>
	<path d="M44.254,117.273c0-1.248,0.347-2.173,1.041-2.773c0.58-0.499,1.286-0.749,2.12-0.749c0.927,0,1.685,0.304,2.272,0.911
		s0.883,1.446,0.883,2.517c0,0.867-0.131,1.55-0.391,2.047c-0.261,0.497-0.64,0.884-1.137,1.159
		c-0.497,0.274-1.04,0.412-1.628,0.412c-0.943,0-1.706-0.303-2.288-0.908C44.545,119.284,44.254,118.412,44.254,117.273z
		 M45.428,117.273c0,0.863,0.188,1.51,0.565,1.939s0.851,0.645,1.422,0.645c0.567,0,1.039-0.216,1.415-0.647
		c0.377-0.432,0.565-1.09,0.565-1.974c0-0.834-0.189-1.466-0.568-1.896s-0.85-0.644-1.412-0.644c-0.571,0-1.045,0.213-1.422,0.641
		S45.428,116.41,45.428,117.273z"/>
	<path d="M51.91,123.228v-9.325h1.041v0.876c0.245-0.343,0.522-0.6,0.831-0.771c0.309-0.171,0.684-0.257,1.124-0.257
		c0.575,0,1.083,0.148,1.523,0.444c0.439,0.296,0.771,0.714,0.996,1.254c0.225,0.539,0.336,1.131,0.336,1.773
		c0,0.69-0.123,1.312-0.371,1.863c-0.247,0.553-0.607,0.976-1.079,1.27s-0.968,0.441-1.488,0.441c-0.381,0-0.723-0.08-1.025-0.241
		s-0.551-0.364-0.745-0.609v3.282H51.91z M52.944,117.312c0,0.867,0.176,1.508,0.526,1.923c0.352,0.415,0.777,0.622,1.276,0.622
		c0.508,0,0.942-0.215,1.305-0.645c0.361-0.43,0.542-1.095,0.542-1.996c0-0.859-0.176-1.502-0.529-1.93s-0.775-0.641-1.267-0.641
		c-0.486,0-0.917,0.227-1.292,0.682C53.132,115.783,52.944,116.444,52.944,117.312z"/>
	<path d="M58.715,117.273c0-1.248,0.347-2.173,1.041-2.773c0.58-0.499,1.286-0.749,2.12-0.749c0.927,0,1.685,0.304,2.272,0.911
		s0.883,1.446,0.883,2.517c0,0.867-0.131,1.55-0.391,2.047c-0.261,0.497-0.64,0.884-1.137,1.159
		c-0.497,0.274-1.04,0.412-1.628,0.412c-0.943,0-1.706-0.303-2.288-0.908C59.006,119.284,58.715,118.412,58.715,117.273z
		 M59.889,117.273c0,0.863,0.188,1.51,0.565,1.939s0.851,0.645,1.422,0.645c0.567,0,1.039-0.216,1.415-0.647
		c0.377-0.432,0.565-1.09,0.565-1.974c0-0.834-0.189-1.466-0.568-1.896s-0.85-0.644-1.412-0.644c-0.571,0-1.045,0.213-1.422,0.641
		S59.889,116.41,59.889,117.273z"/>
	<path d="M66.371,120.645v-6.741h1.027v0.958c0.496-0.74,1.211-1.11,2.146-1.11c0.406,0,0.779,0.073,1.12,0.219
		c0.341,0.146,0.596,0.338,0.765,0.575c0.169,0.236,0.288,0.518,0.355,0.844c0.042,0.212,0.063,0.582,0.063,1.111v4.145h-1.143
		v-4.101c0-0.466-0.044-0.813-0.134-1.044c-0.088-0.23-0.246-0.415-0.473-0.553s-0.492-0.206-0.797-0.206
		c-0.486,0-0.906,0.154-1.26,0.464c-0.354,0.309-0.529,0.895-0.529,1.758v3.682H66.371z"/>
	<path d="M77.975,120.645v-0.851c-0.428,0.669-1.056,1.003-1.885,1.003c-0.538,0-1.032-0.148-1.482-0.444
		c-0.451-0.296-0.8-0.71-1.048-1.241c-0.247-0.531-0.371-1.142-0.371-1.831c0-0.673,0.112-1.283,0.337-1.831
		c0.224-0.548,0.561-0.969,1.009-1.26c0.448-0.293,0.95-0.438,1.505-0.438c0.406,0,0.768,0.086,1.085,0.257
		c0.317,0.172,0.575,0.395,0.774,0.67v-3.339h1.137v9.306H77.975z M74.363,117.28c0,0.863,0.182,1.509,0.545,1.937
		c0.364,0.427,0.794,0.641,1.289,0.641c0.499,0,0.924-0.204,1.272-0.612c0.35-0.408,0.524-1.032,0.524-1.87
		c0-0.922-0.178-1.6-0.533-2.031s-0.794-0.646-1.314-0.646c-0.508,0-0.932,0.207-1.272,0.621
		C74.533,115.733,74.363,116.388,74.363,117.28z"/>
	<path d="M80.818,120.645v-6.741h1.029v1.022c0.262-0.479,0.504-0.794,0.727-0.946c0.222-0.152,0.467-0.229,0.732-0.229
		c0.386,0,0.777,0.123,1.175,0.368l-0.394,1.061c-0.279-0.166-0.559-0.248-0.838-0.248c-0.25,0-0.474,0.075-0.673,0.226
		s-0.341,0.358-0.425,0.625c-0.127,0.406-0.191,0.851-0.191,1.333v3.529H80.818z"/>
	<path d="M85.503,113.065l0.845-1.777h1.498l-1.396,1.777H85.503z M85.561,120.645v-6.741h1.143v6.741H85.561z"/>
	<path d="M93.172,119.812c-0.423,0.36-0.83,0.614-1.222,0.762c-0.392,0.148-0.812,0.223-1.261,0.223c-0.74,0-1.31-0.181-1.707-0.543
		c-0.397-0.361-0.597-0.824-0.597-1.387c0-0.33,0.075-0.632,0.226-0.904c0.15-0.273,0.347-0.492,0.59-0.657s0.518-0.29,0.822-0.374
		c0.225-0.06,0.563-0.117,1.016-0.172c0.923-0.11,1.602-0.241,2.037-0.394c0.005-0.156,0.007-0.256,0.007-0.298
		c0-0.466-0.108-0.794-0.323-0.984c-0.293-0.258-0.727-0.387-1.302-0.387c-0.537,0-0.935,0.094-1.19,0.282s-0.445,0.521-0.568,0.999
		l-1.117-0.152c0.102-0.478,0.27-0.864,0.502-1.158s0.569-0.521,1.01-0.679c0.439-0.159,0.949-0.238,1.529-0.238
		c0.575,0,1.043,0.067,1.402,0.203c0.36,0.136,0.625,0.306,0.794,0.511s0.288,0.465,0.355,0.777
		c0.038,0.195,0.058,0.547,0.058,1.055v1.523c0,1.062,0.023,1.733,0.072,2.015s0.146,0.552,0.289,0.81H93.4
		C93.282,120.407,93.206,120.131,93.172,119.812z M93.076,117.262c-0.414,0.169-1.036,0.313-1.865,0.432
		c-0.471,0.067-0.803,0.144-0.997,0.229c-0.194,0.084-0.345,0.208-0.45,0.371c-0.106,0.163-0.159,0.344-0.159,0.543
		c0,0.305,0.115,0.559,0.346,0.762s0.568,0.305,1.013,0.305c0.44,0,0.832-0.097,1.174-0.289c0.344-0.192,0.595-0.456,0.756-0.791
		c0.123-0.258,0.184-0.639,0.184-1.143V117.262z"/>
	<path d="M96.004,120.645v-6.741h1.027v0.958c0.496-0.74,1.211-1.11,2.146-1.11c0.406,0,0.779,0.073,1.12,0.219
		c0.341,0.146,0.596,0.338,0.765,0.575c0.169,0.236,0.288,0.518,0.355,0.844c0.042,0.212,0.063,0.582,0.063,1.111v4.145h-1.143
		v-4.101c0-0.466-0.044-0.813-0.134-1.044c-0.088-0.23-0.246-0.415-0.473-0.553s-0.492-0.206-0.797-0.206
		c-0.486,0-0.906,0.154-1.26,0.464c-0.354,0.309-0.529,0.895-0.529,1.758v3.682H96.004z"/>
	<path d="M103.558,120.645v-1.301h1.302v1.301H103.558z"/>
</g>
</svg>
