<!-- Generator: Adobe Illustrator 17.0.0, SVG Export Plug-In  -->
<svg version="1.1"
	 xmlns="http://www.w3.org/2000/svg" xmlns:xlink="http://www.w3.org/1999/xlink" xmlns:a="http://ns.adobe.com/AdobeSVGViewerExtensions/3.0/"
	 x="0px" y="0px" width="107.825px" height="152.544px" viewBox="0 0 107.825 152.544" enable-background="new 0 0 107.825 152.544"
	 xml:space="preserve">
<defs>
</defs>
<g>
	<g>
		<polygon fill="#FFFFFF" points="84.236,0.619 0.62,0.619 0.62,151.925 107.206,151.925 107.206,23.591 		"/>
		<path fill="#231F20" d="M107.206,152.544H0.62c-0.341,0-0.62-0.274-0.62-0.619V0.619c0-0.343,0.279-0.618,0.62-0.618h83.616
			c0.165,0,0.319,0.064,0.437,0.183l22.972,22.971c0.114,0.115,0.18,0.274,0.18,0.437v128.334
			C107.825,152.269,107.55,152.544,107.206,152.544z M1.238,151.307h105.352V23.847L83.98,1.237H1.238V151.307z"/>
	</g>
	<g>
		<path fill="#231F20" d="M93.432,87.666H9.808c-0.342,0-0.62-0.277-0.62-0.615c0-0.345,0.278-0.621,0.62-0.621h83.624
			c0.341,0,0.619,0.276,0.619,0.621C94.051,87.388,93.773,87.666,93.432,87.666z"/>
	</g>
	<g>
		<path fill="#231F20" d="M93.432,100.357H9.808c-0.342,0-0.62-0.277-0.62-0.617c0-0.342,0.278-0.619,0.62-0.619h83.624
			c0.341,0,0.619,0.277,0.619,0.619C94.051,100.08,93.773,100.357,93.432,100.357z"/>
	</g>
	<g>
		<path fill="#231F20" d="M39.815,113.048H9.808c-0.342,0-0.62-0.276-0.62-0.618c0-0.344,0.278-0.619,0.62-0.619h30.007
			c0.341,0,0.618,0.275,0.618,0.619C40.433,112.771,40.156,113.048,39.815,113.048z"/>
	</g>
	<g>
		<polygon fill="#FFFFFF" points="84.236,23.591 107.206,23.591 84.236,0.619 		"/>
		<path fill="#231F20" d="M107.206,24.209h-22.97c-0.343,0-0.618-0.275-0.618-0.618V0.619c0-0.25,0.149-0.475,0.383-0.573
			c0.228-0.094,0.495-0.041,0.671,0.138l22.972,22.971c0.176,0.178,0.228,0.441,0.133,0.674
			C107.682,24.059,107.457,24.209,107.206,24.209z M84.855,22.97h20.862L84.855,2.11V22.97z"/>
	</g>
	<g>
		<radialGradient id="SVGID_1_" cx="51.6189" cy="32.3606" r="20.2572" gradientUnits="userSpaceOnUse">
			<stop  offset="0" style="stop-color:#8CBB69"/>
			<stop  offset="0.7837" style="stop-color:#6BAD44"/>
		</radialGradient>
		<circle fill="url(#SVGID_1_)" cx="51.619" cy="32.361" r="20.257"/>
		<path fill="#231F20" d="M51.618,53.233c-11.509,0-20.872-9.362-20.872-20.872c0-11.509,9.363-20.874,20.872-20.874
			c11.51,0,20.874,9.365,20.874,20.874C72.492,43.871,63.127,53.233,51.618,53.233z M51.618,12.723
			c-10.827,0-19.635,8.81-19.635,19.638c0,10.83,8.808,19.638,19.635,19.638c10.831,0,19.64-8.808,19.64-19.638
			C71.257,21.533,62.448,12.723,51.618,12.723z"/>
	</g>
	<g>
		<path fill="#231F20" d="M93.432,75.5h-62.07c-0.343,0-0.616-0.276-0.616-0.618c0-0.342,0.274-0.618,0.616-0.618h62.07
			c0.341,0,0.619,0.276,0.619,0.618C94.051,75.223,93.773,75.5,93.432,75.5z"/>
	</g>
	<g>
		<path fill="#231F20" d="M93.432,62.584h-62.07c-0.343,0-0.616-0.276-0.616-0.617c0-0.344,0.274-0.619,0.616-0.619h62.07
			c0.341,0,0.619,0.275,0.619,0.619C94.051,62.307,93.773,62.584,93.432,62.584z"/>
	</g>
	<g>
		<rect x="9.808" y="61.967" fill="#144B8B" width="12.915" height="12.915"/>
		<path fill="#231F20" d="M22.723,75.5H9.808c-0.342,0-0.62-0.276-0.62-0.618V61.967c0-0.344,0.278-0.619,0.62-0.619h12.915
			c0.34,0,0.618,0.275,0.618,0.619v12.915C23.341,75.223,23.063,75.5,22.723,75.5z M10.424,74.263h11.679v-11.68H10.424V74.263z"/>
	</g>
	<g>
		<g>
			<path fill="#144B8B" d="M19.658,140.05l1.713,0.543c-0.263,0.955-0.7,1.665-1.311,2.129c-0.611,0.463-1.386,0.695-2.325,0.695
				c-1.162,0-2.117-0.397-2.866-1.191c-0.748-0.794-1.122-1.879-1.122-3.256c0-1.457,0.376-2.588,1.128-3.395
				c0.752-0.806,1.741-1.208,2.967-1.208c1.07,0,1.94,0.315,2.609,0.948c0.398,0.375,0.696,0.912,0.896,1.612l-1.75,0.418
				c-0.104-0.454-0.319-0.812-0.647-1.074c-0.329-0.263-0.728-0.395-1.197-0.395c-0.649,0-1.175,0.233-1.579,0.698
				c-0.404,0.466-0.606,1.22-0.606,2.263c0,1.106,0.199,1.895,0.597,2.364c0.398,0.47,0.916,0.704,1.552,0.704
				c0.47,0,0.874-0.149,1.212-0.447C19.268,141.16,19.511,140.69,19.658,140.05z"/>
			<path fill="#144B8B" d="M22.529,138.945c0-0.892,0.133-1.64,0.4-2.244c0.199-0.446,0.471-0.846,0.815-1.2
				s0.721-0.617,1.131-0.788c0.545-0.23,1.174-0.346,1.886-0.346c1.29,0,2.321,0.399,3.096,1.199c0.774,0.8,1.161,1.912,1.161,3.337
				c0,1.413-0.384,2.519-1.152,3.316s-1.795,1.197-3.081,1.197c-1.301,0-2.336-0.397-3.104-1.191S22.529,140.339,22.529,138.945z
				 M24.35,138.886c0,0.991,0.229,1.742,0.687,2.254c0.458,0.511,1.039,0.767,1.743,0.767s1.283-0.254,1.734-0.761
				c0.452-0.508,0.677-1.269,0.677-2.283c0-1.003-0.22-1.752-0.66-2.245c-0.439-0.493-1.023-0.74-1.752-0.74
				s-1.315,0.25-1.761,0.749C24.573,137.126,24.35,137.879,24.35,138.886z"/>
			<path fill="#144B8B" d="M32.415,143.267v-8.752h1.719l3.582,5.845v-5.845h1.642v8.752h-1.773l-3.528-5.707v5.707H32.415z"/>
			<path fill="#144B8B" d="M46.826,140.05l1.713,0.543c-0.263,0.955-0.7,1.665-1.311,2.129c-0.611,0.463-1.386,0.695-2.325,0.695
				c-1.162,0-2.117-0.397-2.866-1.191c-0.748-0.794-1.122-1.879-1.122-3.256c0-1.457,0.376-2.588,1.128-3.395
				c0.752-0.806,1.741-1.208,2.967-1.208c1.07,0,1.94,0.315,2.609,0.948c0.398,0.375,0.696,0.912,0.896,1.612l-1.75,0.418
				c-0.104-0.454-0.319-0.812-0.647-1.074c-0.329-0.263-0.728-0.395-1.197-0.395c-0.649,0-1.175,0.233-1.579,0.698
				c-0.404,0.466-0.606,1.22-0.606,2.263c0,1.106,0.199,1.895,0.597,2.364s0.916,0.704,1.552,0.704c0.47,0,0.874-0.149,1.212-0.447
				C46.436,141.16,46.679,140.69,46.826,140.05z"/>
			<path fill="#144B8B" d="M50.056,143.267v-8.752h6.489v1.48h-4.722v1.94h4.394v1.475h-4.394v2.382h4.889v1.475H50.056z"/>
			<path fill="#144B8B" d="M58.21,143.267v-8.752h2.835c1.075,0,1.775,0.044,2.102,0.132c0.501,0.131,0.921,0.417,1.259,0.856
				s0.507,1.008,0.507,1.704c0,0.537-0.097,0.989-0.292,1.355c-0.195,0.366-0.442,0.653-0.743,0.862
				c-0.3,0.209-0.606,0.348-0.916,0.415c-0.422,0.084-1.033,0.126-1.833,0.126h-1.152v3.301H58.21z M59.978,135.996v2.483h0.967
				c0.696,0,1.162-0.045,1.397-0.137s0.419-0.235,0.552-0.43c0.133-0.195,0.2-0.422,0.2-0.681c0-0.318-0.094-0.581-0.281-0.788
				s-0.424-0.337-0.71-0.389c-0.211-0.039-0.635-0.06-1.271-0.06H59.978z"/>
			<path fill="#144B8B" d="M71.965,140.05l1.713,0.543c-0.263,0.955-0.7,1.665-1.311,2.129c-0.611,0.463-1.386,0.695-2.325,0.695
				c-1.162,0-2.117-0.397-2.866-1.191c-0.748-0.794-1.122-1.879-1.122-3.256c0-1.457,0.376-2.588,1.128-3.395
				c0.752-0.806,1.741-1.208,2.967-1.208c1.07,0,1.94,0.315,2.609,0.948c0.398,0.375,0.696,0.912,0.896,1.612l-1.75,0.418
				c-0.104-0.454-0.319-0.812-0.647-1.074c-0.329-0.263-0.728-0.395-1.197-0.395c-0.649,0-1.175,0.233-1.579,0.698
				c-0.404,0.466-0.606,1.22-0.606,2.263c0,1.106,0.199,1.895,0.597,2.364s0.916,0.704,1.552,0.704c0.47,0,0.874-0.149,1.212-0.447
				C71.575,141.16,71.817,140.69,71.965,140.05z"/>
			<path fill="#144B8B" d="M75.141,143.267v-8.752h1.767v8.752H75.141z"/>
			<path fill="#144B8B" d="M78.233,138.945c0-0.892,0.133-1.64,0.4-2.244c0.199-0.446,0.471-0.846,0.815-1.2
				s0.721-0.617,1.131-0.788c0.545-0.23,1.174-0.346,1.886-0.346c1.29,0,2.321,0.399,3.096,1.199c0.774,0.8,1.161,1.912,1.161,3.337
				c0,1.413-0.384,2.519-1.152,3.316s-1.795,1.197-3.081,1.197c-1.301,0-2.336-0.397-3.104-1.191S78.233,140.339,78.233,138.945z
				 M80.054,138.886c0,0.991,0.229,1.742,0.687,2.254c0.458,0.511,1.039,0.767,1.743,0.767s1.283-0.254,1.734-0.761
				c0.452-0.508,0.677-1.269,0.677-2.283c0-1.003-0.22-1.752-0.66-2.245c-0.439-0.493-1.023-0.74-1.752-0.74
				s-1.315,0.25-1.761,0.749C80.276,137.126,80.054,137.879,80.054,138.886z M81.391,134.014l0.824-1.785h1.88l-1.642,1.785H81.391z
				"/>
			<path fill="#144B8B" d="M88.119,143.267v-8.752h1.719l3.582,5.845v-5.845h1.642v8.752h-1.773l-3.528-5.707v5.707H88.119z"/>
		</g>
	</g>
	<g>
		<path fill="#FFFFFF" d="M56.923,37.896v3.003H45.588c0.123-1.136,0.491-2.211,1.104-3.228s1.826-2.365,3.636-4.045
			c1.458-1.358,2.352-2.278,2.682-2.762c0.445-0.668,0.667-1.327,0.667-1.979c0-0.721-0.194-1.275-0.581-1.663
			c-0.387-0.387-0.922-0.581-1.605-0.581c-0.675,0-1.212,0.204-1.611,0.61s-0.629,1.081-0.69,2.025l-3.222-0.322
			c0.191-1.78,0.794-3.058,1.807-3.832s2.278-1.162,3.797-1.162c1.665,0,2.973,0.448,3.924,1.346
			c0.951,0.898,1.427,2.015,1.427,3.349c0,0.76-0.136,1.483-0.408,2.17c-0.272,0.687-0.704,1.405-1.295,2.157
			c-0.391,0.499-1.097,1.216-2.117,2.151c-1.021,0.937-1.667,1.558-1.939,1.864c-0.272,0.308-0.493,0.606-0.662,0.898H56.923z"/>
	</g>
</g>
</svg>