<!-- Generator: Adobe Illustrator 17.0.0, SVG Export Plug-In  -->
<svg version="1.1"
	 xmlns="http://www.w3.org/2000/svg" xmlns:xlink="http://www.w3.org/1999/xlink" xmlns:a="http://ns.adobe.com/AdobeSVGViewerExtensions/3.0/"
	 x="0px" y="0px" width="447.765px" height="232.46px" viewBox="0 0 447.765 232.46"
	 style="enable-background:new 0 0 447.765 232.46;" xml:space="preserve">
<style type="text/css">
	.st0{fill:url(#SVGID_1_);}
	.st1{fill:none;stroke:#000000;stroke-width:3;stroke-miterlimit:10;}
	.st2{fill:#FFFFFF;}
	.st3{fill:url(#SVGID_2_);}
</style>
<defs>
</defs>
<g>
	<g>
		<g>
			<radialGradient id="SVGID_1_" cx="223.8828" cy="116.2305" r="175.7588" gradientUnits="userSpaceOnUse">
				<stop  offset="0" style="stop-color:#8CBB69"/>
				<stop  offset="0.7837" style="stop-color:#6BAD44"/>
			</radialGradient>
			<rect x="2.742" y="2.744" class="st0" width="442.281" height="226.973"/>
			<path d="M445.023,232.46H2.742c-1.514,0-2.742-1.227-2.742-2.743V2.744C0,1.229,1.229,0,2.742,0h442.281
				c1.514,0,2.741,1.229,2.741,2.744v226.973C447.765,231.233,446.537,232.46,445.023,232.46z M5.486,226.976h436.795V5.486H5.486
				V226.976z"/>
		</g>
	</g>
	<line class="st1" x1="105.467" y1="2.886" x2="105.467" y2="228.852"/>
	<line class="st1" x1="447.765" y1="66.205" x2="2.742" y2="66.205"/>
	<line class="st1" x1="447.765" y1="110.494" x2="2.742" y2="110.494"/>
	<line class="st1" x1="216.926" y1="2.886" x2="216.926" y2="229.718"/>
	<line class="st1" x1="329.541" y1="2.886" x2="329.541" y2="228.854"/>
	<g>
		<g>
			<path class="st2" d="M28.008,32.671v-1.669l6.025-0.01v5.278c-0.925,0.737-1.879,1.292-2.862,1.664
				c-0.983,0.372-1.992,0.558-3.027,0.558c-1.396,0-2.666-0.299-3.808-0.897c-1.142-0.598-2.004-1.463-2.586-2.595
				s-0.873-2.396-0.873-3.794c0-1.384,0.289-2.676,0.868-3.876s1.412-2.091,2.498-2.673c1.087-0.582,2.339-0.873,3.755-0.873
				c1.029,0,1.959,0.166,2.79,0.499s1.482,0.798,1.955,1.393c0.472,0.595,0.831,1.371,1.077,2.328l-1.698,0.466
				c-0.214-0.724-0.479-1.293-0.796-1.707c-0.316-0.414-0.77-0.746-1.358-0.995s-1.241-0.373-1.96-0.373
				c-0.86,0-1.604,0.131-2.231,0.393c-0.627,0.262-1.134,0.606-1.519,1.033s-0.684,0.896-0.897,1.407
				c-0.362,0.88-0.543,1.834-0.543,2.862c0,1.268,0.219,2.328,0.655,3.183c0.437,0.854,1.071,1.487,1.906,1.901
				c0.834,0.414,1.721,0.621,2.658,0.621c0.815,0,1.61-0.157,2.387-0.471s1.365-0.648,1.766-1.004v-2.649H28.008z"/>
			<path class="st2" d="M36.565,38.25V27.946h1.572v1.562c0.4-0.73,0.771-1.213,1.11-1.445c0.34-0.232,0.714-0.35,1.121-0.35
				c0.589,0,1.187,0.188,1.795,0.563l-0.602,1.62c-0.427-0.253-0.854-0.379-1.28-0.379c-0.382,0-0.725,0.115-1.029,0.345
				c-0.304,0.229-0.521,0.548-0.649,0.956c-0.194,0.62-0.291,1.3-0.291,2.037v5.395H36.565z"/>
			<path class="st2" d="M49.955,38.25v-1.514c-0.802,1.164-1.892,1.746-3.27,1.746c-0.608,0-1.176-0.116-1.703-0.349
				c-0.527-0.233-0.918-0.525-1.174-0.878s-0.435-0.784-0.538-1.296c-0.071-0.343-0.106-0.886-0.106-1.63v-6.384h1.746v5.715
				c0,0.912,0.035,1.526,0.106,1.843c0.11,0.46,0.343,0.82,0.698,1.082c0.356,0.262,0.796,0.393,1.32,0.393
				c0.523,0,1.015-0.134,1.475-0.402c0.459-0.269,0.784-0.634,0.975-1.097c0.191-0.462,0.286-1.133,0.286-2.013v-5.521h1.747V38.25
				H49.955z"/>
			<path class="st2" d="M54.253,42.199V27.946h1.592v1.339c0.375-0.524,0.799-0.917,1.271-1.179
				c0.473-0.263,1.045-0.394,1.718-0.394c0.879,0,1.655,0.227,2.328,0.68s1.181,1.092,1.523,1.916
				c0.343,0.825,0.515,1.729,0.515,2.712c0,1.055-0.189,2.004-0.568,2.848c-0.378,0.844-0.928,1.491-1.649,1.94
				c-0.721,0.449-1.479,0.674-2.274,0.674c-0.583,0-1.105-0.122-1.567-0.368c-0.463-0.246-0.843-0.557-1.14-0.932v5.017H54.253z
				 M55.835,33.156c0,1.326,0.268,2.306,0.805,2.939c0.537,0.635,1.188,0.951,1.95,0.951c0.776,0,1.441-0.328,1.994-0.984
				c0.553-0.657,0.829-1.674,0.829-3.052c0-1.313-0.27-2.296-0.81-2.949s-1.186-0.98-1.936-0.98c-0.744,0-1.402,0.348-1.975,1.043
				S55.835,31.83,55.835,33.156z"/>
			<path class="st2" d="M64.654,33.098c0-1.907,0.53-3.321,1.591-4.239c0.886-0.764,1.966-1.146,3.24-1.146
				c1.417,0,2.574,0.465,3.474,1.393c0.899,0.929,1.349,2.211,1.349,3.847c0,1.326-0.199,2.369-0.597,3.129
				c-0.397,0.761-0.977,1.351-1.736,1.771c-0.761,0.42-1.59,0.63-2.489,0.63c-1.442,0-2.608-0.462-3.497-1.387
				C65.099,36.171,64.654,34.838,64.654,33.098z M66.449,33.098c0,1.32,0.287,2.308,0.863,2.965c0.575,0.656,1.3,0.984,2.173,0.984
				c0.867,0,1.588-0.33,2.164-0.989c0.575-0.66,0.863-1.666,0.863-3.018c0-1.274-0.289-2.24-0.868-2.896s-1.299-0.984-2.159-0.984
				c-0.873,0-1.598,0.326-2.173,0.979C66.736,30.792,66.449,31.778,66.449,33.098z"/>
			<path class="st2" d="M75.656,35.175l1.727-0.272c0.098,0.692,0.367,1.223,0.811,1.592c0.443,0.368,1.063,0.553,1.858,0.553
				c0.802,0,1.396-0.163,1.785-0.49c0.388-0.326,0.582-0.71,0.582-1.149c0-0.395-0.172-0.705-0.515-0.932
				c-0.239-0.155-0.834-0.353-1.785-0.592c-1.28-0.323-2.168-0.603-2.663-0.839s-0.87-0.563-1.126-0.98
				c-0.255-0.417-0.383-0.878-0.383-1.382c0-0.46,0.105-0.885,0.315-1.276s0.496-0.716,0.858-0.975
				c0.271-0.201,0.642-0.371,1.111-0.51c0.469-0.139,0.972-0.209,1.509-0.209c0.809,0,1.519,0.117,2.129,0.35
				c0.611,0.232,1.063,0.548,1.354,0.946c0.291,0.397,0.492,0.93,0.602,1.596l-1.707,0.232c-0.078-0.53-0.303-0.943-0.675-1.241
				s-0.897-0.446-1.576-0.446c-0.803,0-1.375,0.133-1.718,0.397c-0.343,0.266-0.514,0.576-0.514,0.932
				c0,0.227,0.071,0.43,0.213,0.611c0.143,0.188,0.365,0.343,0.67,0.466c0.175,0.064,0.688,0.213,1.543,0.446
				c1.235,0.33,2.097,0.6,2.585,0.81c0.488,0.211,0.872,0.517,1.15,0.917c0.277,0.401,0.417,0.899,0.417,1.494
				c0,0.582-0.17,1.131-0.51,1.645c-0.34,0.515-0.829,0.912-1.47,1.193s-1.365,0.422-2.173,0.422c-1.34,0-2.359-0.277-3.062-0.834
				S75.851,36.268,75.656,35.175z"/>
		</g>
	</g>
	<g>
		<g>
			<path class="st2" d="M24.689,90.19v-1.669l6.025-0.01v5.278c-0.925,0.737-1.879,1.292-2.862,1.664s-1.992,0.558-3.027,0.558
				c-1.396,0-2.666-0.299-3.808-0.897c-1.142-0.598-2.004-1.463-2.586-2.595s-0.873-2.396-0.873-3.794
				c0-1.384,0.289-2.676,0.868-3.876s1.412-2.091,2.498-2.673c1.087-0.582,2.339-0.873,3.755-0.873c1.029,0,1.959,0.166,2.79,0.499
				s1.482,0.798,1.955,1.393c0.472,0.595,0.831,1.371,1.077,2.328l-1.698,0.466c-0.214-0.724-0.479-1.293-0.796-1.707
				c-0.316-0.414-0.77-0.746-1.358-0.995s-1.241-0.373-1.96-0.373c-0.86,0-1.604,0.131-2.231,0.393
				c-0.627,0.262-1.134,0.606-1.519,1.033s-0.684,0.896-0.897,1.407c-0.362,0.88-0.543,1.834-0.543,2.862
				c0,1.268,0.219,2.328,0.655,3.183c0.437,0.854,1.071,1.487,1.906,1.901c0.834,0.414,1.721,0.621,2.658,0.621
				c0.815,0,1.61-0.157,2.387-0.471s1.365-0.648,1.766-1.004V90.19H24.689z"/>
			<path class="st2" d="M33.247,95.77V85.466h1.572v1.562c0.4-0.73,0.771-1.213,1.11-1.445c0.34-0.232,0.714-0.35,1.121-0.35
				c0.589,0,1.187,0.188,1.795,0.563l-0.602,1.62c-0.427-0.253-0.854-0.379-1.28-0.379c-0.382,0-0.725,0.115-1.029,0.345
				c-0.304,0.229-0.521,0.548-0.649,0.956c-0.194,0.62-0.291,1.3-0.291,2.037v5.395H33.247z"/>
			<path class="st2" d="M46.637,95.77v-1.514c-0.802,1.164-1.892,1.746-3.27,1.746c-0.608,0-1.176-0.116-1.703-0.349
				c-0.527-0.233-0.918-0.525-1.174-0.878s-0.435-0.784-0.538-1.296c-0.071-0.343-0.106-0.886-0.106-1.63v-6.384h1.746v5.715
				c0,0.912,0.035,1.526,0.106,1.843c0.11,0.46,0.343,0.82,0.698,1.082c0.356,0.262,0.796,0.393,1.32,0.393
				c0.523,0,1.015-0.134,1.475-0.402c0.459-0.269,0.784-0.634,0.975-1.097c0.191-0.462,0.286-1.133,0.286-2.013v-5.521h1.747V95.77
				H46.637z"/>
			<path class="st2" d="M50.935,99.719V85.466h1.592v1.339c0.375-0.524,0.799-0.917,1.271-1.179
				c0.473-0.263,1.045-0.394,1.718-0.394c0.879,0,1.655,0.227,2.328,0.68s1.181,1.092,1.523,1.916
				c0.343,0.825,0.515,1.729,0.515,2.712c0,1.055-0.189,2.004-0.568,2.848c-0.378,0.844-0.928,1.491-1.649,1.94
				c-0.721,0.449-1.479,0.674-2.274,0.674c-0.583,0-1.105-0.122-1.567-0.368c-0.463-0.246-0.843-0.557-1.14-0.932v5.017H50.935z
				 M52.517,90.676c0,1.326,0.268,2.306,0.805,2.939c0.537,0.635,1.188,0.951,1.95,0.951c0.776,0,1.441-0.328,1.994-0.984
				c0.553-0.657,0.829-1.674,0.829-3.052c0-1.313-0.27-2.296-0.81-2.949s-1.186-0.98-1.936-0.98c-0.744,0-1.402,0.348-1.975,1.043
				S52.517,89.35,52.517,90.676z"/>
			<path class="st2" d="M61.336,90.617c0-1.907,0.53-3.321,1.591-4.239c0.886-0.764,1.966-1.146,3.24-1.146
				c1.417,0,2.574,0.465,3.474,1.393c0.899,0.929,1.349,2.211,1.349,3.847c0,1.326-0.199,2.369-0.597,3.129
				c-0.397,0.761-0.977,1.351-1.736,1.771c-0.761,0.42-1.59,0.63-2.489,0.63c-1.442,0-2.608-0.462-3.497-1.387
				C61.78,93.69,61.336,92.357,61.336,90.617z M63.131,90.617c0,1.32,0.287,2.308,0.863,2.965c0.575,0.656,1.3,0.984,2.173,0.984
				c0.867,0,1.588-0.33,2.164-0.989c0.575-0.66,0.863-1.666,0.863-3.018c0-1.274-0.289-2.24-0.868-2.896s-1.299-0.984-2.159-0.984
				c-0.873,0-1.598,0.326-2.173,0.979C63.418,88.312,63.131,89.298,63.131,90.617z"/>
			<path class="st2" d="M84.65,95.77h-1.747V84.641c-0.42,0.401-0.972,0.803-1.654,1.203c-0.683,0.401-1.295,0.702-1.838,0.902
				v-1.688c0.977-0.46,1.83-1.016,2.561-1.669c0.731-0.653,1.249-1.287,1.553-1.902h1.126V95.77z"/>
		</g>
	</g>
	<g>
		<g>
			<path class="st2" d="M24.689,132.022v-1.669l6.025-0.01v5.278c-0.925,0.737-1.879,1.292-2.862,1.664s-1.992,0.558-3.027,0.558
				c-1.396,0-2.666-0.299-3.808-0.897c-1.142-0.598-2.004-1.463-2.586-2.595s-0.873-2.396-0.873-3.794
				c0-1.384,0.289-2.676,0.868-3.876s1.412-2.091,2.498-2.673c1.087-0.582,2.339-0.873,3.755-0.873c1.029,0,1.959,0.166,2.79,0.499
				s1.482,0.798,1.955,1.393c0.472,0.595,0.831,1.371,1.077,2.328l-1.698,0.466c-0.214-0.724-0.479-1.293-0.796-1.707
				c-0.316-0.414-0.77-0.746-1.358-0.995s-1.241-0.373-1.96-0.373c-0.86,0-1.604,0.131-2.231,0.393
				c-0.627,0.262-1.134,0.606-1.519,1.033s-0.684,0.896-0.897,1.407c-0.362,0.88-0.543,1.834-0.543,2.862
				c0,1.268,0.219,2.328,0.655,3.183c0.437,0.854,1.071,1.487,1.906,1.901c0.834,0.414,1.721,0.621,2.658,0.621
				c0.815,0,1.61-0.157,2.387-0.471s1.365-0.648,1.766-1.004v-2.649H24.689z"/>
			<path class="st2" d="M33.247,137.602v-10.304h1.572v1.562c0.4-0.73,0.771-1.213,1.11-1.445c0.34-0.232,0.714-0.35,1.121-0.35
				c0.589,0,1.187,0.188,1.795,0.563l-0.602,1.62c-0.427-0.253-0.854-0.379-1.28-0.379c-0.382,0-0.725,0.115-1.029,0.345
				c-0.304,0.229-0.521,0.548-0.649,0.956c-0.194,0.62-0.291,1.3-0.291,2.037v5.395H33.247z"/>
			<path class="st2" d="M46.637,137.602v-1.514c-0.802,1.164-1.892,1.746-3.27,1.746c-0.608,0-1.176-0.116-1.703-0.349
				c-0.527-0.233-0.918-0.525-1.174-0.878s-0.435-0.784-0.538-1.296c-0.071-0.343-0.106-0.886-0.106-1.63v-6.384h1.746v5.715
				c0,0.912,0.035,1.526,0.106,1.843c0.11,0.46,0.343,0.82,0.698,1.082c0.356,0.262,0.796,0.393,1.32,0.393
				c0.523,0,1.015-0.134,1.475-0.402c0.459-0.269,0.784-0.634,0.975-1.097c0.191-0.462,0.286-1.133,0.286-2.013v-5.521h1.747v10.304
				H46.637z"/>
			<path class="st2" d="M50.935,141.551v-14.253h1.592v1.339c0.375-0.524,0.799-0.917,1.271-1.179
				c0.473-0.263,1.045-0.394,1.718-0.394c0.879,0,1.655,0.227,2.328,0.68c0.673,0.453,1.181,1.092,1.523,1.916
				c0.343,0.825,0.515,1.729,0.515,2.712c0,1.055-0.189,2.004-0.568,2.848c-0.378,0.844-0.928,1.491-1.649,1.94
				c-0.721,0.449-1.479,0.674-2.274,0.674c-0.583,0-1.105-0.122-1.567-0.368c-0.463-0.246-0.843-0.557-1.14-0.932v5.017H50.935z
				 M52.517,132.508c0,1.326,0.268,2.306,0.805,2.939c0.537,0.635,1.188,0.951,1.95,0.951c0.776,0,1.441-0.328,1.994-0.984
				c0.553-0.657,0.829-1.674,0.829-3.052c0-1.313-0.27-2.296-0.81-2.949s-1.186-0.98-1.936-0.98c-0.744,0-1.402,0.348-1.975,1.043
				S52.517,131.182,52.517,132.508z"/>
			<path class="st2" d="M61.336,132.449c0-1.907,0.53-3.321,1.591-4.239c0.886-0.764,1.966-1.146,3.24-1.146
				c1.417,0,2.574,0.465,3.474,1.393c0.899,0.929,1.349,2.211,1.349,3.847c0,1.326-0.199,2.369-0.597,3.129
				c-0.397,0.761-0.977,1.351-1.736,1.771c-0.761,0.42-1.59,0.63-2.489,0.63c-1.442,0-2.608-0.462-3.497-1.387
				C61.78,135.522,61.336,134.189,61.336,132.449z M63.131,132.449c0,1.32,0.287,2.308,0.863,2.965
				c0.575,0.656,1.3,0.984,2.173,0.984c0.867,0,1.588-0.33,2.164-0.989c0.575-0.66,0.863-1.666,0.863-3.018
				c0-1.274-0.289-2.24-0.868-2.896s-1.299-0.984-2.159-0.984c-0.873,0-1.598,0.326-2.173,0.979
				C63.418,130.144,63.131,131.13,63.131,132.449z"/>
			<path class="st2" d="M87.25,135.923v1.679h-9.401c-0.013-0.42,0.055-0.824,0.204-1.213c0.239-0.641,0.622-1.271,1.149-1.892
				s1.289-1.339,2.285-2.154c1.546-1.268,2.59-2.271,3.134-3.013c0.543-0.74,0.814-1.44,0.814-2.101
				c0-0.691-0.247-1.275-0.742-1.751c-0.494-0.476-1.14-0.713-1.936-0.713c-0.841,0-1.514,0.252-2.018,0.757
				c-0.505,0.504-0.761,1.203-0.767,2.096l-1.795-0.185c0.123-1.339,0.585-2.359,1.388-3.062c0.802-0.701,1.879-1.053,3.23-1.053
				c1.364,0,2.445,0.379,3.24,1.136c0.796,0.757,1.193,1.694,1.193,2.813c0,0.569-0.116,1.129-0.349,1.679
				c-0.233,0.55-0.62,1.129-1.16,1.736c-0.54,0.608-1.438,1.442-2.692,2.503c-1.048,0.88-1.721,1.477-2.018,1.791
				c-0.298,0.313-0.544,0.629-0.737,0.945H87.25z"/>
		</g>
	</g>
	<line class="st1" x1="447.765" y1="148.301" x2="2.742" y2="148.301"/>
	<line class="st1" x1="447.765" y1="190.59" x2="2.742" y2="190.59"/>
	<g>
		<g>
			<path class="st2" d="M24.689,172.286v-1.669l6.025-0.01v5.278c-0.925,0.737-1.879,1.292-2.862,1.664s-1.992,0.558-3.027,0.558
				c-1.396,0-2.666-0.299-3.808-0.897c-1.142-0.598-2.004-1.463-2.586-2.595s-0.873-2.396-0.873-3.794
				c0-1.384,0.289-2.676,0.868-3.876s1.412-2.091,2.498-2.673c1.087-0.582,2.339-0.873,3.755-0.873c1.029,0,1.959,0.166,2.79,0.499
				s1.482,0.798,1.955,1.393c0.472,0.595,0.831,1.371,1.077,2.328l-1.698,0.466c-0.214-0.724-0.479-1.293-0.796-1.707
				c-0.316-0.414-0.77-0.746-1.358-0.995s-1.241-0.373-1.96-0.373c-0.86,0-1.604,0.131-2.231,0.393
				c-0.627,0.262-1.134,0.606-1.519,1.033s-0.684,0.896-0.897,1.407c-0.362,0.88-0.543,1.834-0.543,2.862
				c0,1.268,0.219,2.328,0.655,3.183c0.437,0.854,1.071,1.487,1.906,1.901c0.834,0.414,1.721,0.621,2.658,0.621
				c0.815,0,1.61-0.157,2.387-0.471s1.365-0.648,1.766-1.004v-2.649H24.689z"/>
			<path class="st2" d="M33.247,177.865v-10.304h1.572v1.562c0.4-0.73,0.771-1.213,1.11-1.445c0.34-0.232,0.714-0.35,1.121-0.35
				c0.589,0,1.187,0.188,1.795,0.563l-0.602,1.62c-0.427-0.253-0.854-0.379-1.28-0.379c-0.382,0-0.725,0.115-1.029,0.345
				c-0.304,0.229-0.521,0.548-0.649,0.956c-0.194,0.62-0.291,1.3-0.291,2.037v5.395H33.247z"/>
			<path class="st2" d="M46.637,177.865v-1.514c-0.802,1.164-1.892,1.746-3.27,1.746c-0.608,0-1.176-0.116-1.703-0.349
				c-0.527-0.233-0.918-0.525-1.174-0.878s-0.435-0.784-0.538-1.296c-0.071-0.343-0.106-0.886-0.106-1.63v-6.384h1.746v5.715
				c0,0.912,0.035,1.526,0.106,1.843c0.11,0.46,0.343,0.82,0.698,1.082c0.356,0.262,0.796,0.393,1.32,0.393
				c0.523,0,1.015-0.134,1.475-0.402c0.459-0.269,0.784-0.634,0.975-1.097c0.191-0.462,0.286-1.133,0.286-2.013v-5.521h1.747v10.304
				H46.637z"/>
			<path class="st2" d="M50.935,181.814v-14.253h1.592v1.339c0.375-0.524,0.799-0.917,1.271-1.179
				c0.473-0.263,1.045-0.394,1.718-0.394c0.879,0,1.655,0.227,2.328,0.68s1.181,1.092,1.523,1.916
				c0.343,0.825,0.515,1.729,0.515,2.712c0,1.055-0.189,2.004-0.568,2.848c-0.378,0.844-0.928,1.491-1.649,1.94
				c-0.721,0.449-1.479,0.674-2.274,0.674c-0.583,0-1.105-0.122-1.567-0.368c-0.463-0.246-0.843-0.557-1.14-0.932v5.017H50.935z
				 M52.517,172.771c0,1.326,0.268,2.306,0.805,2.939c0.537,0.635,1.188,0.951,1.95,0.951c0.776,0,1.441-0.328,1.994-0.984
				c0.553-0.657,0.829-1.674,0.829-3.052c0-1.313-0.27-2.296-0.81-2.949s-1.186-0.98-1.936-0.98c-0.744,0-1.402,0.348-1.975,1.043
				S52.517,171.445,52.517,172.771z"/>
			<path class="st2" d="M61.336,172.713c0-1.907,0.53-3.321,1.591-4.239c0.886-0.764,1.966-1.146,3.24-1.146
				c1.417,0,2.574,0.465,3.474,1.393c0.899,0.929,1.349,2.211,1.349,3.847c0,1.326-0.199,2.369-0.597,3.129
				c-0.397,0.761-0.977,1.351-1.736,1.771c-0.761,0.42-1.59,0.63-2.489,0.63c-1.442,0-2.608-0.462-3.497-1.387
				C61.78,175.786,61.336,174.453,61.336,172.713z M63.131,172.713c0,1.32,0.287,2.308,0.863,2.965
				c0.575,0.656,1.3,0.984,2.173,0.984c0.867,0,1.588-0.33,2.164-0.989c0.575-0.66,0.863-1.666,0.863-3.018
				c0-1.274-0.289-2.24-0.868-2.896s-1.299-0.984-2.159-0.984c-0.873,0-1.598,0.326-2.173,0.979
				C63.418,170.407,63.131,171.394,63.131,172.713z"/>
			<path class="st2" d="M78.081,174.11l1.747-0.232c0.2,0.989,0.541,1.702,1.023,2.139c0.481,0.437,1.068,0.655,1.761,0.655
				c0.821,0,1.516-0.284,2.081-0.854c0.566-0.569,0.85-1.274,0.85-2.115c0-0.802-0.263-1.464-0.786-1.984
				c-0.524-0.521-1.19-0.781-1.999-0.781c-0.33,0-0.74,0.065-1.232,0.194l0.194-1.533c0.116,0.014,0.21,0.02,0.281,0.02
				c0.744,0,1.413-0.194,2.009-0.582c0.595-0.388,0.893-0.986,0.893-1.795c0-0.641-0.217-1.171-0.65-1.591
				c-0.434-0.421-0.993-0.631-1.679-0.631c-0.679,0-1.245,0.213-1.697,0.641c-0.453,0.427-0.744,1.066-0.873,1.921l-1.747-0.311
				c0.214-1.171,0.699-2.078,1.456-2.722c0.756-0.644,1.697-0.966,2.823-0.966c0.776,0,1.49,0.167,2.144,0.5
				s1.153,0.787,1.499,1.363c0.347,0.576,0.52,1.187,0.52,1.834c0,0.614-0.165,1.174-0.495,1.678
				c-0.33,0.505-0.818,0.906-1.465,1.203c0.841,0.194,1.494,0.597,1.96,1.208s0.698,1.377,0.698,2.295
				c0,1.242-0.452,2.295-1.358,3.158c-0.905,0.863-2.05,1.295-3.435,1.295c-1.248,0-2.285-0.371-3.109-1.115
				S78.198,175.294,78.081,174.11z"/>
		</g>
	</g>
	<g>
		<g>
			<path class="st2" d="M24.689,211.118v-1.669l6.025-0.01v5.278c-0.925,0.737-1.879,1.292-2.862,1.664s-1.992,0.558-3.027,0.558
				c-1.396,0-2.666-0.299-3.808-0.897c-1.142-0.598-2.004-1.463-2.586-2.595s-0.873-2.396-0.873-3.794
				c0-1.384,0.289-2.676,0.868-3.876s1.412-2.091,2.498-2.673c1.087-0.582,2.339-0.873,3.755-0.873c1.029,0,1.959,0.166,2.79,0.499
				s1.482,0.798,1.955,1.393c0.472,0.595,0.831,1.371,1.077,2.328l-1.698,0.466c-0.214-0.724-0.479-1.293-0.796-1.707
				c-0.316-0.414-0.77-0.746-1.358-0.995s-1.241-0.373-1.96-0.373c-0.86,0-1.604,0.131-2.231,0.393
				c-0.627,0.262-1.134,0.606-1.519,1.033s-0.684,0.896-0.897,1.407c-0.362,0.88-0.543,1.834-0.543,2.862
				c0,1.268,0.219,2.328,0.655,3.183c0.437,0.854,1.071,1.487,1.906,1.901c0.834,0.414,1.721,0.621,2.658,0.621
				c0.815,0,1.61-0.157,2.387-0.471s1.365-0.648,1.766-1.004v-2.649H24.689z"/>
			<path class="st2" d="M33.247,216.697v-10.304h1.572v1.562c0.4-0.73,0.771-1.213,1.11-1.445c0.34-0.232,0.714-0.35,1.121-0.35
				c0.589,0,1.187,0.188,1.795,0.563l-0.602,1.62c-0.427-0.253-0.854-0.379-1.28-0.379c-0.382,0-0.725,0.115-1.029,0.345
				c-0.304,0.229-0.521,0.548-0.649,0.956c-0.194,0.62-0.291,1.3-0.291,2.037v5.395H33.247z"/>
			<path class="st2" d="M46.637,216.697v-1.514c-0.802,1.164-1.892,1.746-3.27,1.746c-0.608,0-1.176-0.116-1.703-0.349
				c-0.527-0.233-0.918-0.525-1.174-0.878s-0.435-0.784-0.538-1.296c-0.071-0.343-0.106-0.886-0.106-1.63v-6.384h1.746v5.715
				c0,0.912,0.035,1.526,0.106,1.843c0.11,0.46,0.343,0.82,0.698,1.082c0.356,0.262,0.796,0.393,1.32,0.393
				c0.523,0,1.015-0.134,1.475-0.402c0.459-0.269,0.784-0.634,0.975-1.097c0.191-0.462,0.286-1.133,0.286-2.013v-5.521h1.747v10.304
				H46.637z"/>
			<path class="st2" d="M50.935,220.646v-14.253h1.592v1.339c0.375-0.524,0.799-0.917,1.271-1.179
				c0.473-0.263,1.045-0.394,1.718-0.394c0.879,0,1.655,0.227,2.328,0.68s1.181,1.092,1.523,1.916
				c0.343,0.825,0.515,1.729,0.515,2.712c0,1.055-0.189,2.004-0.568,2.848c-0.378,0.844-0.928,1.491-1.649,1.94
				c-0.721,0.449-1.479,0.674-2.274,0.674c-0.583,0-1.105-0.122-1.567-0.368c-0.463-0.246-0.843-0.557-1.14-0.932v5.017H50.935z
				 M52.517,211.604c0,1.326,0.268,2.306,0.805,2.939c0.537,0.635,1.188,0.951,1.95,0.951c0.776,0,1.441-0.328,1.994-0.984
				c0.553-0.657,0.829-1.674,0.829-3.052c0-1.313-0.27-2.296-0.81-2.949s-1.186-0.98-1.936-0.98c-0.744,0-1.402,0.348-1.975,1.043
				S52.517,210.277,52.517,211.604z"/>
			<path class="st2" d="M61.336,211.545c0-1.907,0.53-3.321,1.591-4.239c0.886-0.764,1.966-1.146,3.24-1.146
				c1.417,0,2.574,0.465,3.474,1.393c0.899,0.929,1.349,2.211,1.349,3.847c0,1.326-0.199,2.369-0.597,3.129
				c-0.397,0.761-0.977,1.351-1.736,1.771c-0.761,0.42-1.59,0.63-2.489,0.63c-1.442,0-2.608-0.462-3.497-1.387
				C61.78,214.618,61.336,213.285,61.336,211.545z M63.131,211.545c0,1.32,0.287,2.308,0.863,2.965
				c0.575,0.656,1.3,0.984,2.173,0.984c0.867,0,1.588-0.33,2.164-0.989c0.575-0.66,0.863-1.666,0.863-3.018
				c0-1.274-0.289-2.24-0.868-2.896s-1.299-0.984-2.159-0.984c-0.873,0-1.598,0.326-2.173,0.979
				C63.418,209.239,63.131,210.226,63.131,211.545z"/>
			<path class="st2" d="M83.67,216.697v-3.405h-6.171v-1.602l6.491-9.217h1.426v9.217h1.922v1.602h-1.922v3.405H83.67z
				 M83.67,211.69v-6.413l-4.453,6.413H83.67z"/>
		</g>
	</g>
	<g>
		<g>
			<path class="st2" d="M121.106,38.25V24.026h1.882V38.25H121.106z"/>
			<path class="st2" d="M126.083,38.25V27.946h1.572v1.465c0.757-1.132,1.85-1.698,3.279-1.698c0.621,0,1.191,0.112,1.712,0.335
				c0.521,0.224,0.911,0.516,1.17,0.878c0.258,0.362,0.439,0.793,0.543,1.291c0.064,0.323,0.097,0.889,0.097,1.697v6.336h-1.746
				v-6.268c0-0.712-0.068-1.243-0.204-1.596s-0.377-0.635-0.723-0.845s-0.752-0.315-1.218-0.315c-0.743,0-1.386,0.236-1.926,0.709
				c-0.54,0.472-0.81,1.367-0.81,2.687v5.627H126.083z"/>
			<path class="st2" d="M140.947,36.688l0.252,1.543c-0.491,0.104-0.932,0.155-1.319,0.155c-0.634,0-1.126-0.101-1.475-0.301
				c-0.35-0.2-0.596-0.464-0.737-0.791c-0.143-0.326-0.214-1.014-0.214-2.062v-5.928h-1.28v-1.358h1.28v-2.552l1.737-1.048v3.6
				h1.756v1.358h-1.756v6.025c0,0.498,0.03,0.817,0.092,0.96s0.161,0.256,0.301,0.34c0.139,0.084,0.338,0.126,0.597,0.126
				C140.375,36.756,140.63,36.733,140.947,36.688z"/>
			<path class="st2" d="M149.708,34.932l1.805,0.224c-0.284,1.054-0.812,1.872-1.581,2.454c-0.771,0.582-1.753,0.873-2.95,0.873
				c-1.507,0-2.702-0.464-3.585-1.392c-0.883-0.929-1.324-2.23-1.324-3.905c0-1.733,0.446-3.079,1.339-4.036
				s2.051-1.437,3.474-1.437c1.378,0,2.503,0.47,3.376,1.407c0.874,0.938,1.311,2.258,1.311,3.959c0,0.104-0.004,0.259-0.01,0.465
				h-7.685c0.064,1.133,0.385,1.999,0.961,2.601c0.575,0.602,1.293,0.902,2.153,0.902c0.641,0,1.188-0.168,1.64-0.505
				C149.084,36.206,149.442,35.669,149.708,34.932z M143.974,32.108h5.754c-0.077-0.866-0.298-1.517-0.66-1.95
				c-0.556-0.673-1.277-1.009-2.163-1.009c-0.802,0-1.477,0.269-2.023,0.805C144.335,30.491,144.032,31.209,143.974,32.108z"/>
			<path class="st2" d="M153.686,38.25V27.946h1.572v1.562c0.4-0.73,0.771-1.213,1.11-1.445c0.34-0.232,0.714-0.35,1.121-0.35
				c0.589,0,1.187,0.188,1.795,0.563l-0.602,1.62c-0.427-0.253-0.854-0.379-1.28-0.379c-0.382,0-0.725,0.115-1.029,0.345
				c-0.304,0.229-0.521,0.548-0.649,0.956c-0.194,0.62-0.291,1.3-0.291,2.037v5.395H153.686z"/>
			<path class="st2" d="M167.376,34.932l1.805,0.224c-0.284,1.054-0.812,1.872-1.581,2.454c-0.771,0.582-1.753,0.873-2.95,0.873
				c-1.507,0-2.702-0.464-3.585-1.392c-0.883-0.929-1.324-2.23-1.324-3.905c0-1.733,0.446-3.079,1.339-4.036
				s2.051-1.437,3.474-1.437c1.378,0,2.503,0.47,3.376,1.407c0.874,0.938,1.311,2.258,1.311,3.959c0,0.104-0.004,0.259-0.01,0.465
				h-7.685c0.064,1.133,0.385,1.999,0.961,2.601c0.575,0.602,1.293,0.902,2.153,0.902c0.641,0,1.188-0.168,1.64-0.505
				C166.752,36.206,167.11,35.669,167.376,34.932z M161.642,32.108h5.754c-0.077-0.866-0.298-1.517-0.66-1.95
				c-0.556-0.673-1.277-1.009-2.163-1.009c-0.802,0-1.477,0.269-2.023,0.805C162.003,30.491,161.7,31.209,161.642,32.108z"/>
			<path class="st2" d="M170.675,35.175l1.727-0.272c0.098,0.692,0.367,1.223,0.811,1.592c0.443,0.368,1.063,0.553,1.858,0.553
				c0.802,0,1.396-0.163,1.785-0.49c0.388-0.326,0.582-0.71,0.582-1.149c0-0.395-0.172-0.705-0.515-0.932
				c-0.239-0.155-0.834-0.353-1.785-0.592c-1.28-0.323-2.168-0.603-2.663-0.839s-0.87-0.563-1.126-0.98
				c-0.255-0.417-0.383-0.878-0.383-1.382c0-0.46,0.105-0.885,0.315-1.276s0.496-0.716,0.858-0.975
				c0.271-0.201,0.642-0.371,1.111-0.51c0.469-0.139,0.972-0.209,1.509-0.209c0.809,0,1.519,0.117,2.129,0.35
				c0.611,0.232,1.063,0.548,1.354,0.946c0.291,0.397,0.492,0.93,0.602,1.596l-1.707,0.232c-0.078-0.53-0.303-0.943-0.675-1.241
				s-0.897-0.446-1.576-0.446c-0.803,0-1.375,0.133-1.718,0.397c-0.343,0.266-0.514,0.576-0.514,0.932
				c0,0.227,0.071,0.43,0.213,0.611c0.143,0.188,0.365,0.343,0.67,0.466c0.175,0.064,0.688,0.213,1.543,0.446
				c1.235,0.33,2.097,0.6,2.585,0.81c0.488,0.211,0.872,0.517,1.15,0.917c0.277,0.401,0.417,0.899,0.417,1.494
				c0,0.582-0.17,1.131-0.51,1.645c-0.34,0.515-0.829,0.912-1.47,1.193s-1.365,0.422-2.173,0.422c-1.34,0-2.359-0.277-3.062-0.834
				S170.869,36.268,170.675,35.175z"/>
			<path class="st2" d="M188.362,34.932l1.805,0.224c-0.284,1.054-0.812,1.872-1.581,2.454c-0.771,0.582-1.753,0.873-2.95,0.873
				c-1.507,0-2.702-0.464-3.585-1.392c-0.883-0.929-1.324-2.23-1.324-3.905c0-1.733,0.446-3.079,1.339-4.036
				s2.051-1.437,3.474-1.437c1.378,0,2.503,0.47,3.376,1.407c0.874,0.938,1.311,2.258,1.311,3.959c0,0.104-0.004,0.259-0.01,0.465
				h-7.685c0.064,1.133,0.385,1.999,0.961,2.601c0.575,0.602,1.293,0.902,2.153,0.902c0.641,0,1.188-0.168,1.64-0.505
				C187.738,36.206,188.097,35.669,188.362,34.932z M182.628,32.108h5.754c-0.077-0.866-0.298-1.517-0.66-1.95
				c-0.556-0.673-1.277-1.009-2.163-1.009c-0.802,0-1.477,0.269-2.023,0.805C182.989,30.491,182.687,31.209,182.628,32.108z"/>
			<path class="st2" d="M191.661,35.175l1.727-0.272c0.098,0.692,0.367,1.223,0.811,1.592c0.443,0.368,1.063,0.553,1.858,0.553
				c0.802,0,1.396-0.163,1.785-0.49c0.388-0.326,0.582-0.71,0.582-1.149c0-0.395-0.172-0.705-0.515-0.932
				c-0.239-0.155-0.834-0.353-1.785-0.592c-1.28-0.323-2.168-0.603-2.663-0.839s-0.87-0.563-1.126-0.98
				c-0.255-0.417-0.383-0.878-0.383-1.382c0-0.46,0.105-0.885,0.315-1.276s0.496-0.716,0.858-0.975
				c0.271-0.201,0.642-0.371,1.111-0.51c0.469-0.139,0.972-0.209,1.509-0.209c0.809,0,1.519,0.117,2.129,0.35
				c0.611,0.232,1.063,0.548,1.354,0.946c0.291,0.397,0.492,0.93,0.602,1.596l-1.707,0.232c-0.078-0.53-0.303-0.943-0.675-1.241
				s-0.897-0.446-1.576-0.446c-0.803,0-1.375,0.133-1.718,0.397c-0.343,0.266-0.514,0.576-0.514,0.932
				c0,0.227,0.071,0.43,0.213,0.611c0.143,0.188,0.365,0.343,0.67,0.466c0.175,0.064,0.688,0.213,1.543,0.446
				c1.235,0.33,2.097,0.6,2.585,0.81c0.488,0.211,0.872,0.517,1.15,0.917c0.277,0.401,0.417,0.899,0.417,1.494
				c0,0.582-0.17,1.131-0.51,1.645c-0.34,0.515-0.829,0.912-1.47,1.193s-1.365,0.422-2.173,0.422c-1.34,0-2.359-0.277-3.062-0.834
				S191.855,36.268,191.661,35.175z"/>
		</g>
	</g>
	<g>
		<g>
			<path class="st2" d="M227.111,27.793V13.569h5.365c0.944,0,1.665,0.045,2.163,0.136c0.699,0.116,1.284,0.338,1.757,0.665
				c0.472,0.326,0.852,0.784,1.14,1.372c0.288,0.589,0.432,1.236,0.432,1.941c0,1.209-0.385,2.232-1.154,3.07
				s-2.16,1.257-4.172,1.257h-3.648v5.782H227.111z M228.993,20.332h3.678c1.216,0,2.079-0.227,2.59-0.68
				c0.511-0.452,0.767-1.09,0.767-1.911c0-0.595-0.15-1.104-0.451-1.528c-0.301-0.423-0.697-0.703-1.188-0.839
				c-0.316-0.084-0.902-0.126-1.756-0.126h-3.639V20.332z"/>
			<path class="st2" d="M240.122,27.793V17.489h1.572v1.562c0.4-0.73,0.771-1.213,1.11-1.445c0.34-0.232,0.714-0.35,1.121-0.35
				c0.589,0,1.187,0.188,1.795,0.563l-0.602,1.62c-0.427-0.253-0.854-0.379-1.28-0.379c-0.382,0-0.725,0.115-1.029,0.345
				c-0.304,0.229-0.521,0.548-0.649,0.956c-0.194,0.62-0.291,1.3-0.291,2.037v5.395H240.122z"/>
			<path class="st2" d="M246.109,22.641c0-1.907,0.53-3.321,1.591-4.239c0.886-0.764,1.966-1.146,3.24-1.146
				c1.417,0,2.574,0.465,3.474,1.393c0.899,0.929,1.349,2.211,1.349,3.847c0,1.326-0.199,2.369-0.597,3.129
				c-0.397,0.761-0.977,1.351-1.736,1.771c-0.761,0.42-1.59,0.63-2.489,0.63c-1.442,0-2.608-0.462-3.497-1.387
				C246.554,25.714,246.109,24.381,246.109,22.641z M247.904,22.641c0,1.32,0.287,2.308,0.863,2.965
				c0.575,0.656,1.3,0.984,2.173,0.984c0.867,0,1.588-0.33,2.164-0.989c0.575-0.66,0.863-1.666,0.863-3.018
				c0-1.274-0.289-2.24-0.868-2.896s-1.299-0.984-2.159-0.984c-0.873,0-1.598,0.326-2.173,0.979
				C248.191,20.335,247.904,21.321,247.904,22.641z"/>
			<path class="st2" d="M259.42,27.793h-1.62V13.569h1.747v5.074c0.737-0.925,1.678-1.388,2.823-1.388
				c0.634,0,1.233,0.128,1.8,0.384c0.565,0.256,1.031,0.614,1.396,1.077c0.366,0.462,0.652,1.021,0.859,1.673
				c0.207,0.654,0.311,1.353,0.311,2.096c0,1.767-0.437,3.131-1.311,4.095c-0.873,0.964-1.921,1.445-3.144,1.445
				c-1.216,0-2.17-0.507-2.862-1.522V27.793z M259.401,22.563c0,1.235,0.168,2.128,0.504,2.678c0.55,0.899,1.294,1.349,2.231,1.349
				c0.764,0,1.423-0.331,1.979-0.994s0.835-1.651,0.835-2.965c0-1.345-0.268-2.338-0.801-2.979c-0.534-0.64-1.179-0.96-1.936-0.96
				c-0.764,0-1.423,0.331-1.979,0.994S259.401,21.309,259.401,22.563z"/>
			<path class="st2" d="M268.822,27.793V13.569h1.746v14.224H268.822z"/>
			<path class="st2" d="M280.329,24.475l1.805,0.224c-0.284,1.054-0.812,1.872-1.581,2.454c-0.771,0.582-1.753,0.873-2.95,0.873
				c-1.507,0-2.702-0.464-3.585-1.392c-0.883-0.929-1.324-2.23-1.324-3.905c0-1.733,0.446-3.079,1.339-4.036
				s2.051-1.437,3.474-1.437c1.378,0,2.503,0.47,3.376,1.407c0.874,0.938,1.311,2.258,1.311,3.959c0,0.104-0.004,0.259-0.01,0.465
				h-7.685c0.064,1.133,0.385,1.999,0.961,2.601c0.575,0.602,1.293,0.902,2.153,0.902c0.641,0,1.188-0.168,1.64-0.505
				C279.705,25.749,280.063,25.212,280.329,24.475z M274.595,21.651h5.754c-0.077-0.866-0.298-1.517-0.66-1.95
				c-0.556-0.673-1.277-1.009-2.163-1.009c-0.802,0-1.477,0.269-2.023,0.805C274.956,20.034,274.653,20.752,274.595,21.651z"/>
			<path class="st2" d="M284.326,27.793V17.489h1.563v1.445c0.323-0.504,0.753-0.91,1.29-1.218c0.537-0.307,1.148-0.461,1.834-0.461
				c0.763,0,1.389,0.159,1.877,0.476c0.488,0.317,0.833,0.761,1.034,1.329c0.814-1.203,1.875-1.805,3.182-1.805
				c1.022,0,1.808,0.283,2.358,0.85c0.549,0.565,0.824,1.438,0.824,2.614v7.073h-1.736v-6.491c0-0.698-0.057-1.201-0.17-1.509
				c-0.113-0.307-0.319-0.554-0.616-0.742c-0.298-0.188-0.647-0.281-1.048-0.281c-0.725,0-1.326,0.241-1.805,0.723
				c-0.479,0.482-0.718,1.254-0.718,2.314v5.986h-1.747v-6.694c0-0.776-0.142-1.358-0.427-1.747
				c-0.284-0.388-0.75-0.582-1.396-0.582c-0.492,0-0.946,0.13-1.363,0.389c-0.418,0.259-0.72,0.637-0.907,1.135
				s-0.281,1.216-0.281,2.154v5.346H284.326z"/>
			<path class="st2" d="M307.602,26.521c-0.646,0.551-1.27,0.938-1.867,1.165c-0.599,0.226-1.24,0.339-1.926,0.339
				c-1.132,0-2.002-0.276-2.61-0.829s-0.912-1.26-0.912-2.12c0-0.504,0.115-0.965,0.345-1.383c0.229-0.417,0.53-0.752,0.902-1.004
				s0.791-0.443,1.256-0.572c0.343-0.091,0.86-0.178,1.553-0.262c1.41-0.169,2.448-0.369,3.114-0.602
				c0.007-0.239,0.01-0.392,0.01-0.456c0-0.712-0.165-1.213-0.494-1.504c-0.446-0.395-1.109-0.592-1.989-0.592
				c-0.821,0-1.428,0.144-1.819,0.432s-0.681,0.797-0.868,1.528l-1.708-0.233c0.155-0.73,0.411-1.321,0.767-1.771
				s0.87-0.796,1.543-1.038s1.452-0.364,2.338-0.364c0.88,0,1.595,0.104,2.145,0.311s0.954,0.468,1.213,0.781
				s0.439,0.71,0.543,1.188c0.059,0.298,0.088,0.835,0.088,1.61v2.329c0,1.623,0.037,2.65,0.111,3.08
				c0.074,0.431,0.222,0.843,0.441,1.237h-1.824C307.77,27.431,307.653,27.007,307.602,26.521z M307.456,22.622
				c-0.634,0.259-1.585,0.479-2.853,0.659c-0.718,0.104-1.226,0.22-1.522,0.35c-0.298,0.129-0.527,0.318-0.689,0.567
				c-0.161,0.249-0.242,0.525-0.242,0.829c0,0.466,0.176,0.854,0.528,1.165s0.868,0.466,1.548,0.466
				c0.673,0,1.271-0.147,1.795-0.441c0.523-0.295,0.908-0.697,1.154-1.208c0.188-0.395,0.281-0.977,0.281-1.747V22.622z"/>
			<path class="st2" d="M311.23,24.718l1.727-0.272c0.098,0.692,0.367,1.223,0.811,1.592c0.443,0.368,1.063,0.553,1.858,0.553
				c0.802,0,1.396-0.163,1.785-0.49c0.388-0.326,0.582-0.71,0.582-1.149c0-0.395-0.172-0.705-0.515-0.932
				c-0.239-0.155-0.834-0.353-1.785-0.592c-1.28-0.323-2.168-0.603-2.663-0.839s-0.87-0.563-1.126-0.98
				c-0.255-0.417-0.383-0.878-0.383-1.382c0-0.46,0.105-0.885,0.315-1.276s0.496-0.716,0.858-0.975
				c0.271-0.201,0.642-0.371,1.111-0.51c0.469-0.139,0.972-0.209,1.509-0.209c0.809,0,1.519,0.117,2.129,0.35
				c0.611,0.232,1.063,0.548,1.354,0.946c0.291,0.397,0.492,0.93,0.602,1.596l-1.707,0.232c-0.078-0.53-0.303-0.943-0.675-1.241
				s-0.897-0.446-1.576-0.446c-0.803,0-1.375,0.133-1.718,0.397c-0.343,0.266-0.514,0.576-0.514,0.932
				c0,0.227,0.071,0.43,0.213,0.611c0.143,0.188,0.365,0.343,0.67,0.466c0.175,0.064,0.688,0.213,1.543,0.446
				c1.235,0.33,2.097,0.6,2.585,0.81c0.488,0.211,0.872,0.517,1.15,0.917c0.277,0.401,0.417,0.899,0.417,1.494
				c0,0.582-0.17,1.131-0.51,1.645c-0.34,0.515-0.829,0.912-1.47,1.193s-1.365,0.422-2.173,0.422c-1.34,0-2.359-0.277-3.062-0.834
				S311.425,25.811,311.23,24.718z"/>
			<path class="st2" d="M229.09,55.587V41.334h1.592v1.339c0.375-0.524,0.799-0.917,1.271-1.179
				c0.473-0.263,1.045-0.394,1.718-0.394c0.879,0,1.655,0.227,2.328,0.68s1.181,1.092,1.523,1.916
				c0.343,0.825,0.515,1.729,0.515,2.712c0,1.055-0.189,2.004-0.568,2.848c-0.378,0.844-0.928,1.491-1.649,1.94
				c-0.721,0.449-1.479,0.674-2.274,0.674c-0.583,0-1.105-0.122-1.567-0.368c-0.463-0.246-0.843-0.557-1.14-0.932v5.017H229.09z
				 M230.672,46.544c0,1.326,0.268,2.306,0.805,2.939c0.537,0.635,1.188,0.951,1.95,0.951c0.776,0,1.441-0.328,1.994-0.984
				c0.553-0.657,0.829-1.674,0.829-3.052c0-1.313-0.27-2.296-0.81-2.949s-1.186-0.98-1.936-0.98c-0.744,0-1.402,0.348-1.975,1.043
				S230.672,45.218,230.672,46.544z"/>
			<path class="st2" d="M247.194,48.319l1.805,0.224c-0.284,1.054-0.812,1.872-1.581,2.454c-0.771,0.582-1.753,0.873-2.95,0.873
				c-1.507,0-2.702-0.464-3.585-1.392c-0.883-0.929-1.324-2.23-1.324-3.905c0-1.733,0.446-3.079,1.339-4.036
				s2.051-1.437,3.474-1.437c1.378,0,2.503,0.47,3.376,1.407c0.874,0.938,1.311,2.258,1.311,3.959c0,0.104-0.004,0.259-0.01,0.465
				h-7.685c0.064,1.133,0.385,1.999,0.961,2.601c0.575,0.602,1.293,0.902,2.153,0.902c0.641,0,1.188-0.168,1.64-0.505
				C246.57,49.594,246.929,49.057,247.194,48.319z M241.46,45.496h5.754c-0.077-0.866-0.298-1.517-0.66-1.95
				c-0.556-0.673-1.277-1.009-2.163-1.009c-0.802,0-1.477,0.269-2.023,0.805C241.821,43.879,241.519,44.597,241.46,45.496z"/>
			<path class="st2" d="M251.172,51.638V41.334h1.572v1.562c0.4-0.73,0.771-1.213,1.11-1.445c0.34-0.232,0.714-0.35,1.121-0.35
				c0.589,0,1.187,0.188,1.795,0.563l-0.602,1.62c-0.427-0.253-0.854-0.379-1.28-0.379c-0.382,0-0.725,0.115-1.029,0.345
				c-0.304,0.229-0.521,0.548-0.649,0.956c-0.194,0.62-0.291,1.3-0.291,2.037v5.395H251.172z"/>
			<path class="st2" d="M264.532,47.863l1.718,0.224c-0.188,1.184-0.668,2.11-1.44,2.779c-0.773,0.67-1.723,1.004-2.848,1.004
				c-1.41,0-2.544-0.46-3.401-1.382c-0.856-0.922-1.285-2.243-1.285-3.964c0-1.112,0.185-2.086,0.553-2.92
				c0.369-0.835,0.93-1.461,1.684-1.878c0.753-0.417,1.573-0.626,2.459-0.626c1.119,0,2.034,0.283,2.746,0.85
				c0.712,0.565,1.168,1.369,1.368,2.411l-1.698,0.262c-0.161-0.692-0.447-1.213-0.858-1.563c-0.411-0.349-0.907-0.523-1.489-0.523
				c-0.88,0-1.595,0.315-2.145,0.945c-0.55,0.631-0.824,1.629-0.824,2.993c0,1.385,0.265,2.391,0.796,3.018
				c0.53,0.628,1.222,0.941,2.076,0.941c0.686,0,1.258-0.21,1.717-0.631C264.118,49.384,264.409,48.736,264.532,47.863z"/>
			<path class="st2" d="M267.754,39.423v-2.009h1.747v2.009H267.754z M267.754,51.638V41.334h1.747v10.304H267.754z"/>
			<path class="st2" d="M273.77,51.638h-1.62V37.414h1.747v5.074c0.737-0.925,1.678-1.388,2.823-1.388
				c0.634,0,1.233,0.128,1.8,0.384c0.565,0.256,1.031,0.614,1.396,1.077c0.366,0.462,0.652,1.021,0.859,1.673
				c0.207,0.654,0.311,1.353,0.311,2.096c0,1.767-0.437,3.131-1.311,4.095c-0.873,0.964-1.921,1.445-3.144,1.445
				c-1.216,0-2.17-0.507-2.862-1.522V51.638z M273.751,46.408c0,1.235,0.168,2.128,0.504,2.678c0.55,0.899,1.294,1.349,2.231,1.349
				c0.764,0,1.423-0.331,1.979-0.994s0.835-1.651,0.835-2.965c0-1.345-0.268-2.338-0.801-2.979c-0.534-0.64-1.179-0.96-1.936-0.96
				c-0.764,0-1.423,0.331-1.979,0.994S273.751,45.153,273.751,46.408z"/>
			<path class="st2" d="M283.22,39.423v-2.009h1.747v2.009H283.22z M283.22,51.638V41.334h1.747v10.304H283.22z"/>
			<path class="st2" d="M294.311,51.638v-1.3c-0.653,1.021-1.614,1.532-2.882,1.532c-0.821,0-1.577-0.226-2.266-0.679
				s-1.223-1.085-1.601-1.896c-0.379-0.812-0.568-1.745-0.568-2.8c0-1.028,0.172-1.961,0.515-2.799s0.857-1.479,1.543-1.926
				s1.452-0.67,2.299-0.67c0.621,0,1.175,0.131,1.659,0.394c0.485,0.262,0.88,0.603,1.184,1.023v-5.104h1.737v14.224H294.311z
				 M288.789,46.495c0,1.32,0.278,2.307,0.835,2.96c0.556,0.653,1.213,0.979,1.97,0.979c0.763,0,1.411-0.312,1.945-0.937
				c0.533-0.624,0.8-1.576,0.8-2.857c0-1.41-0.271-2.444-0.814-3.104c-0.544-0.659-1.213-0.989-2.009-0.989
				c-0.776,0-1.425,0.316-1.945,0.95C289.05,44.132,288.789,45.131,288.789,46.495z"/>
			<path class="st2" d="M298.026,46.485c0-1.907,0.53-3.321,1.591-4.239c0.886-0.764,1.966-1.146,3.24-1.146
				c1.417,0,2.574,0.465,3.474,1.393c0.899,0.929,1.349,2.211,1.349,3.847c0,1.326-0.199,2.369-0.597,3.129
				c-0.397,0.761-0.977,1.351-1.736,1.771c-0.761,0.42-1.59,0.63-2.489,0.63c-1.442,0-2.608-0.462-3.497-1.387
				C298.471,49.559,298.026,48.226,298.026,46.485z M299.821,46.485c0,1.32,0.287,2.308,0.863,2.965
				c0.575,0.656,1.3,0.984,2.173,0.984c0.867,0,1.588-0.33,2.164-0.989c0.575-0.66,0.863-1.666,0.863-3.018
				c0-1.274-0.289-2.24-0.868-2.896s-1.299-0.984-2.159-0.984c-0.873,0-1.598,0.326-2.173,0.979
				C300.108,44.18,299.821,45.166,299.821,46.485z"/>
			<path class="st2" d="M309.028,48.563l1.727-0.272c0.098,0.692,0.367,1.223,0.811,1.592c0.443,0.368,1.063,0.553,1.858,0.553
				c0.802,0,1.396-0.163,1.785-0.49c0.388-0.326,0.582-0.71,0.582-1.149c0-0.395-0.172-0.705-0.515-0.932
				c-0.239-0.155-0.834-0.353-1.785-0.592c-1.28-0.323-2.168-0.603-2.663-0.839s-0.87-0.563-1.126-0.98
				c-0.255-0.417-0.383-0.878-0.383-1.382c0-0.46,0.105-0.885,0.315-1.276s0.496-0.716,0.858-0.975
				c0.271-0.201,0.642-0.371,1.111-0.51c0.469-0.139,0.972-0.209,1.509-0.209c0.809,0,1.519,0.117,2.129,0.35
				c0.611,0.232,1.063,0.548,1.354,0.946c0.291,0.397,0.492,0.93,0.602,1.596l-1.707,0.232c-0.078-0.53-0.303-0.943-0.675-1.241
				s-0.897-0.446-1.576-0.446c-0.803,0-1.375,0.133-1.718,0.397c-0.343,0.266-0.514,0.576-0.514,0.932
				c0,0.227,0.071,0.43,0.213,0.611c0.143,0.188,0.365,0.343,0.67,0.466c0.175,0.064,0.688,0.213,1.543,0.446
				c1.235,0.33,2.097,0.6,2.585,0.81c0.488,0.211,0.872,0.517,1.15,0.917c0.277,0.401,0.417,0.899,0.417,1.494
				c0,0.582-0.17,1.131-0.51,1.645c-0.34,0.515-0.829,0.912-1.47,1.193s-1.365,0.422-2.173,0.422c-1.34,0-2.359-0.277-3.062-0.834
				S309.223,49.655,309.028,48.563z"/>
		</g>
	</g>
	<g>
		<g>
			<path class="st2" d="M337.886,27.793V13.569h6.306c1.269,0,2.232,0.128,2.892,0.383c0.66,0.256,1.188,0.707,1.582,1.354
				c0.395,0.647,0.592,1.362,0.592,2.145c0,1.009-0.327,1.859-0.98,2.552s-1.662,1.132-3.027,1.319
				c0.498,0.239,0.877,0.476,1.136,0.708c0.55,0.505,1.07,1.136,1.562,1.893l2.475,3.871h-2.367l-1.883-2.959
				c-0.55-0.854-1.002-1.507-1.358-1.96c-0.355-0.453-0.674-0.77-0.955-0.951c-0.281-0.181-0.568-0.307-0.859-0.378
				c-0.213-0.046-0.563-0.068-1.048-0.068h-2.183v6.316H337.886z M339.768,19.847h4.046c0.86,0,1.533-0.089,2.019-0.267
				c0.484-0.178,0.854-0.463,1.105-0.854c0.252-0.392,0.379-0.817,0.379-1.276c0-0.673-0.244-1.226-0.733-1.659
				c-0.488-0.434-1.26-0.65-2.313-0.65h-4.502V19.847z"/>
			<path class="st2" d="M359.036,24.475l1.805,0.224c-0.284,1.054-0.812,1.872-1.581,2.454c-0.771,0.582-1.753,0.873-2.95,0.873
				c-1.507,0-2.702-0.464-3.585-1.392c-0.883-0.929-1.324-2.23-1.324-3.905c0-1.733,0.446-3.079,1.339-4.036
				s2.051-1.437,3.474-1.437c1.378,0,2.503,0.47,3.376,1.407c0.874,0.938,1.311,2.258,1.311,3.959c0,0.104-0.004,0.259-0.01,0.465
				h-7.685c0.064,1.133,0.385,1.999,0.961,2.601c0.575,0.602,1.293,0.902,2.153,0.902c0.641,0,1.188-0.168,1.64-0.505
				C358.412,25.749,358.77,25.212,359.036,24.475z M353.302,21.651h5.754c-0.077-0.866-0.298-1.517-0.66-1.95
				c-0.556-0.673-1.277-1.009-2.163-1.009c-0.802,0-1.477,0.269-2.023,0.805C353.663,20.034,353.36,20.752,353.302,21.651z"/>
			<path class="st2" d="M369.757,24.019l1.718,0.224c-0.188,1.184-0.668,2.11-1.44,2.779c-0.773,0.67-1.723,1.004-2.848,1.004
				c-1.41,0-2.544-0.46-3.401-1.382c-0.856-0.922-1.285-2.243-1.285-3.964c0-1.112,0.185-2.086,0.553-2.92
				c0.369-0.835,0.93-1.461,1.684-1.878c0.753-0.417,1.573-0.626,2.459-0.626c1.119,0,2.034,0.283,2.746,0.85
				c0.712,0.565,1.168,1.369,1.368,2.411l-1.698,0.262c-0.161-0.692-0.447-1.213-0.858-1.563c-0.411-0.349-0.907-0.523-1.489-0.523
				c-0.88,0-1.595,0.315-2.145,0.945c-0.55,0.631-0.824,1.629-0.824,2.993c0,1.385,0.265,2.391,0.796,3.018
				c0.53,0.628,1.222,0.941,2.076,0.941c0.686,0,1.258-0.21,1.717-0.631C369.343,25.539,369.634,24.892,369.757,24.019z"/>
			<path class="st2" d="M379.722,27.793v-1.514c-0.802,1.164-1.892,1.746-3.27,1.746c-0.608,0-1.176-0.116-1.703-0.349
				c-0.527-0.233-0.918-0.525-1.174-0.878s-0.435-0.784-0.538-1.296c-0.071-0.343-0.106-0.886-0.106-1.63v-6.384h1.746v5.715
				c0,0.912,0.035,1.526,0.106,1.843c0.11,0.46,0.343,0.82,0.698,1.082c0.356,0.262,0.796,0.393,1.32,0.393
				c0.523,0,1.015-0.134,1.475-0.402c0.459-0.269,0.784-0.634,0.975-1.097c0.191-0.462,0.286-1.133,0.286-2.013v-5.521h1.747v10.304
				H379.722z"/>
			<path class="st2" d="M384,27.793V17.489h1.572v1.562c0.4-0.73,0.771-1.213,1.11-1.445c0.34-0.232,0.714-0.35,1.121-0.35
				c0.589,0,1.187,0.188,1.795,0.563l-0.602,1.62c-0.427-0.253-0.854-0.379-1.28-0.379c-0.382,0-0.725,0.115-1.029,0.345
				c-0.304,0.229-0.521,0.548-0.649,0.956c-0.194,0.62-0.291,1.3-0.291,2.037v5.395H384z"/>
			<path class="st2" d="M389.938,24.718l1.727-0.272c0.098,0.692,0.367,1.223,0.811,1.592c0.443,0.368,1.063,0.553,1.858,0.553
				c0.802,0,1.396-0.163,1.785-0.49c0.388-0.326,0.582-0.71,0.582-1.149c0-0.395-0.172-0.705-0.515-0.932
				c-0.239-0.155-0.834-0.353-1.785-0.592c-1.28-0.323-2.168-0.603-2.663-0.839s-0.87-0.563-1.126-0.98
				c-0.255-0.417-0.383-0.878-0.383-1.382c0-0.46,0.105-0.885,0.315-1.276s0.496-0.716,0.858-0.975
				c0.271-0.201,0.642-0.371,1.111-0.51c0.469-0.139,0.972-0.209,1.509-0.209c0.809,0,1.519,0.117,2.129,0.35
				c0.611,0.232,1.063,0.548,1.354,0.946c0.291,0.397,0.492,0.93,0.602,1.596L396.4,20.38c-0.078-0.53-0.303-0.943-0.675-1.241
				s-0.897-0.446-1.576-0.446c-0.803,0-1.375,0.133-1.718,0.397c-0.343,0.266-0.514,0.576-0.514,0.932
				c0,0.227,0.071,0.43,0.213,0.611c0.143,0.188,0.365,0.343,0.67,0.466c0.175,0.064,0.688,0.213,1.543,0.446
				c1.235,0.33,2.097,0.6,2.585,0.81c0.488,0.211,0.872,0.517,1.15,0.917c0.277,0.401,0.417,0.899,0.417,1.494
				c0,0.582-0.17,1.131-0.51,1.645c-0.34,0.515-0.829,0.912-1.47,1.193s-1.365,0.422-2.173,0.422c-1.34,0-2.359-0.277-3.062-0.834
				S390.133,25.811,389.938,24.718z"/>
			<path class="st2" d="M399.923,22.641c0-1.907,0.53-3.321,1.591-4.239c0.886-0.764,1.966-1.146,3.24-1.146
				c1.417,0,2.574,0.465,3.474,1.393c0.899,0.929,1.349,2.211,1.349,3.847c0,1.326-0.199,2.369-0.597,3.129
				c-0.397,0.761-0.977,1.351-1.736,1.771c-0.761,0.42-1.59,0.63-2.489,0.63c-1.442,0-2.608-0.462-3.497-1.387
				C400.367,25.714,399.923,24.381,399.923,22.641z M401.718,22.641c0,1.32,0.287,2.308,0.863,2.965
				c0.575,0.656,1.3,0.984,2.173,0.984c0.867,0,1.588-0.33,2.164-0.989c0.575-0.66,0.863-1.666,0.863-3.018
				c0-1.274-0.289-2.24-0.868-2.896s-1.299-0.984-2.159-0.984c-0.873,0-1.598,0.326-2.173,0.979
				C402.005,20.335,401.718,21.321,401.718,22.641z"/>
			<path class="st2" d="M410.925,24.718l1.727-0.272c0.098,0.692,0.367,1.223,0.811,1.592c0.443,0.368,1.063,0.553,1.858,0.553
				c0.802,0,1.396-0.163,1.785-0.49c0.388-0.326,0.582-0.71,0.582-1.149c0-0.395-0.172-0.705-0.515-0.932
				c-0.239-0.155-0.834-0.353-1.785-0.592c-1.28-0.323-2.168-0.603-2.663-0.839s-0.87-0.563-1.126-0.98
				c-0.255-0.417-0.383-0.878-0.383-1.382c0-0.46,0.105-0.885,0.315-1.276s0.496-0.716,0.858-0.975
				c0.271-0.201,0.642-0.371,1.111-0.51c0.469-0.139,0.972-0.209,1.509-0.209c0.809,0,1.519,0.117,2.129,0.35
				c0.611,0.232,1.063,0.548,1.354,0.946c0.291,0.397,0.492,0.93,0.602,1.596l-1.707,0.232c-0.078-0.53-0.303-0.943-0.675-1.241
				s-0.897-0.446-1.576-0.446c-0.803,0-1.375,0.133-1.718,0.397c-0.343,0.266-0.514,0.576-0.514,0.932
				c0,0.227,0.071,0.43,0.213,0.611c0.143,0.188,0.365,0.343,0.67,0.466c0.175,0.064,0.688,0.213,1.543,0.446
				c1.235,0.33,2.097,0.6,2.585,0.81c0.488,0.211,0.872,0.517,1.15,0.917c0.277,0.401,0.417,0.899,0.417,1.494
				c0,0.582-0.17,1.131-0.51,1.645c-0.34,0.515-0.829,0.912-1.47,1.193s-1.365,0.422-2.173,0.422c-1.34,0-2.359-0.277-3.062-0.834
				S411.119,25.811,410.925,24.718z"/>
			<path class="st2" d="M427.002,31.762l-0.194-1.641c0.382,0.104,0.715,0.155,0.999,0.155c0.389,0,0.699-0.064,0.932-0.193
				c0.233-0.13,0.424-0.311,0.572-0.544c0.11-0.174,0.288-0.607,0.534-1.3c0.032-0.097,0.084-0.239,0.155-0.427l-3.91-10.323h1.882
				l2.145,5.967c0.278,0.757,0.527,1.553,0.747,2.387c0.2-0.802,0.439-1.585,0.718-2.348l2.202-6.006h1.747l-3.92,10.479
				c-0.421,1.132-0.747,1.911-0.979,2.338c-0.311,0.576-0.667,0.998-1.067,1.267c-0.401,0.269-0.88,0.402-1.437,0.402
				C427.791,31.975,427.416,31.903,427.002,31.762z"/>
			<path class="st2" d="M343.691,51.638V41.334h1.563v1.445c0.323-0.504,0.753-0.91,1.29-1.218c0.537-0.307,1.148-0.461,1.834-0.461
				c0.763,0,1.389,0.159,1.877,0.476c0.488,0.317,0.833,0.761,1.034,1.329c0.814-1.203,1.875-1.805,3.182-1.805
				c1.022,0,1.808,0.283,2.358,0.85c0.549,0.565,0.824,1.438,0.824,2.614v7.073h-1.736v-6.491c0-0.698-0.057-1.201-0.17-1.509
				c-0.113-0.307-0.319-0.554-0.616-0.742c-0.298-0.188-0.647-0.281-1.048-0.281c-0.725,0-1.326,0.241-1.805,0.723
				c-0.479,0.482-0.718,1.254-0.718,2.314v5.986h-1.747v-6.694c0-0.776-0.142-1.358-0.427-1.747
				c-0.284-0.388-0.75-0.582-1.396-0.582c-0.492,0-0.946,0.13-1.363,0.389c-0.418,0.259-0.72,0.637-0.907,1.135
				s-0.281,1.216-0.281,2.154v5.346H343.691z"/>
			<path class="st2" d="M366.967,50.366c-0.646,0.551-1.27,0.938-1.867,1.165c-0.599,0.226-1.24,0.339-1.926,0.339
				c-1.132,0-2.002-0.276-2.61-0.829s-0.912-1.26-0.912-2.12c0-0.504,0.115-0.965,0.345-1.383c0.229-0.417,0.53-0.752,0.902-1.004
				s0.791-0.443,1.256-0.572c0.343-0.091,0.86-0.178,1.553-0.262c1.41-0.169,2.448-0.369,3.114-0.602
				c0.007-0.239,0.01-0.392,0.01-0.456c0-0.712-0.165-1.213-0.494-1.504c-0.446-0.395-1.109-0.592-1.989-0.592
				c-0.821,0-1.428,0.144-1.819,0.432s-0.681,0.797-0.868,1.528l-1.708-0.233c0.155-0.73,0.411-1.321,0.767-1.771
				s0.87-0.796,1.543-1.038s1.452-0.364,2.338-0.364c0.88,0,1.595,0.104,2.145,0.311s0.954,0.468,1.213,0.781
				s0.439,0.71,0.543,1.188c0.059,0.298,0.088,0.835,0.088,1.61v2.329c0,1.623,0.037,2.65,0.111,3.08
				c0.074,0.431,0.222,0.843,0.441,1.237h-1.824C367.136,51.275,367.019,50.852,366.967,50.366z M366.821,46.467
				c-0.634,0.259-1.585,0.479-2.853,0.659c-0.718,0.104-1.226,0.22-1.522,0.35c-0.298,0.129-0.527,0.318-0.689,0.567
				c-0.161,0.249-0.242,0.525-0.242,0.829c0,0.466,0.176,0.854,0.528,1.165s0.868,0.466,1.548,0.466
				c0.673,0,1.271-0.147,1.795-0.441c0.523-0.295,0.908-0.697,1.154-1.208c0.188-0.395,0.281-0.977,0.281-1.747V46.467z"/>
			<path class="st2" d="M371.294,51.638V41.334h1.572v1.465c0.757-1.132,1.85-1.698,3.279-1.698c0.621,0,1.191,0.112,1.712,0.335
				c0.521,0.224,0.911,0.516,1.17,0.878c0.258,0.362,0.439,0.793,0.543,1.291c0.064,0.323,0.097,0.889,0.097,1.697v6.336h-1.746
				V45.37c0-0.712-0.068-1.243-0.204-1.596s-0.377-0.635-0.723-0.845s-0.752-0.315-1.218-0.315c-0.743,0-1.386,0.236-1.926,0.709
				c-0.54,0.472-0.81,1.367-0.81,2.688v5.627H371.294z"/>
			<path class="st2" d="M389.03,51.638v-1.3c-0.653,1.021-1.614,1.532-2.882,1.532c-0.821,0-1.577-0.226-2.266-0.679
				s-1.223-1.085-1.601-1.896c-0.379-0.812-0.568-1.745-0.568-2.8c0-1.028,0.172-1.961,0.515-2.799s0.857-1.479,1.543-1.926
				s1.452-0.67,2.299-0.67c0.621,0,1.175,0.131,1.659,0.394c0.485,0.262,0.88,0.603,1.184,1.023v-5.104h1.737v14.224H389.03z
				 M383.509,46.495c0,1.32,0.278,2.307,0.835,2.96c0.556,0.653,1.213,0.979,1.97,0.979c0.763,0,1.411-0.312,1.945-0.937
				c0.533-0.624,0.8-1.576,0.8-2.857c0-1.41-0.271-2.444-0.814-3.104c-0.544-0.659-1.213-0.989-2.009-0.989
				c-0.776,0-1.425,0.316-1.945,0.95C383.77,44.132,383.509,45.131,383.509,46.495z"/>
			<path class="st2" d="M400.119,50.366c-0.646,0.551-1.27,0.938-1.867,1.165c-0.599,0.226-1.24,0.339-1.926,0.339
				c-1.132,0-2.002-0.276-2.61-0.829s-0.912-1.26-0.912-2.12c0-0.504,0.115-0.965,0.345-1.383c0.229-0.417,0.53-0.752,0.902-1.004
				s0.791-0.443,1.256-0.572c0.343-0.091,0.86-0.178,1.553-0.262c1.41-0.169,2.448-0.369,3.114-0.602
				c0.007-0.239,0.01-0.392,0.01-0.456c0-0.712-0.165-1.213-0.494-1.504c-0.446-0.395-1.109-0.592-1.989-0.592
				c-0.821,0-1.428,0.144-1.819,0.432s-0.681,0.797-0.868,1.528l-1.708-0.233c0.155-0.73,0.411-1.321,0.767-1.771
				s0.87-0.796,1.543-1.038s1.452-0.364,2.338-0.364c0.88,0,1.595,0.104,2.145,0.311s0.954,0.468,1.213,0.781
				s0.439,0.71,0.543,1.188c0.059,0.298,0.088,0.835,0.088,1.61v2.329c0,1.623,0.037,2.65,0.111,3.08
				c0.074,0.431,0.222,0.843,0.441,1.237h-1.824C400.288,51.275,400.171,50.852,400.119,50.366z M399.974,46.467
				c-0.634,0.259-1.585,0.479-2.853,0.659c-0.718,0.104-1.226,0.22-1.522,0.35c-0.298,0.129-0.527,0.318-0.689,0.567
				c-0.161,0.249-0.242,0.525-0.242,0.829c0,0.466,0.176,0.854,0.528,1.165s0.868,0.466,1.548,0.466
				c0.673,0,1.271-0.147,1.795-0.441c0.523-0.295,0.908-0.697,1.154-1.208c0.188-0.395,0.281-0.977,0.281-1.747V46.467z"/>
			<path class="st2" d="M408.26,50.075l0.252,1.543c-0.491,0.104-0.932,0.155-1.319,0.155c-0.634,0-1.126-0.101-1.475-0.301
				c-0.35-0.2-0.596-0.464-0.737-0.791c-0.143-0.326-0.214-1.014-0.214-2.062v-5.928h-1.28v-1.358h1.28v-2.552l1.737-1.048v3.6
				h1.756v1.358h-1.756v6.025c0,0.498,0.03,0.817,0.092,0.96s0.161,0.256,0.301,0.34c0.139,0.084,0.338,0.126,0.597,0.126
				C407.687,50.144,407.942,50.121,408.26,50.075z"/>
			<path class="st2" d="M409.317,46.485c0-1.907,0.53-3.321,1.591-4.239c0.886-0.764,1.966-1.146,3.24-1.146
				c1.417,0,2.574,0.465,3.474,1.393c0.899,0.929,1.349,2.211,1.349,3.847c0,1.326-0.199,2.369-0.597,3.129
				c-0.397,0.761-0.977,1.351-1.736,1.771c-0.761,0.42-1.59,0.63-2.489,0.63c-1.442,0-2.608-0.462-3.497-1.387
				C409.762,49.559,409.317,48.226,409.317,46.485z M411.112,46.485c0,1.32,0.287,2.308,0.863,2.965
				c0.575,0.656,1.3,0.984,2.173,0.984c0.867,0,1.588-0.33,2.164-0.989c0.575-0.66,0.863-1.666,0.863-3.018
				c0-1.274-0.289-2.24-0.868-2.896s-1.299-0.984-2.159-0.984c-0.873,0-1.598,0.326-2.173,0.979
				C411.399,44.18,411.112,45.166,411.112,46.485z"/>
			<path class="st2" d="M420.319,48.563l1.727-0.272c0.098,0.692,0.367,1.223,0.811,1.592c0.443,0.368,1.063,0.553,1.858,0.553
				c0.802,0,1.396-0.163,1.785-0.49c0.388-0.326,0.582-0.71,0.582-1.149c0-0.395-0.172-0.705-0.515-0.932
				c-0.239-0.155-0.834-0.353-1.785-0.592c-1.28-0.323-2.168-0.603-2.663-0.839s-0.87-0.563-1.126-0.98
				c-0.255-0.417-0.383-0.878-0.383-1.382c0-0.46,0.105-0.885,0.315-1.276s0.496-0.716,0.858-0.975
				c0.271-0.201,0.642-0.371,1.111-0.51c0.469-0.139,0.972-0.209,1.509-0.209c0.809,0,1.519,0.117,2.129,0.35
				c0.611,0.232,1.063,0.548,1.354,0.946c0.291,0.397,0.492,0.93,0.602,1.596l-1.707,0.232c-0.078-0.53-0.303-0.943-0.675-1.241
				s-0.897-0.446-1.576-0.446c-0.803,0-1.375,0.133-1.718,0.397c-0.343,0.266-0.514,0.576-0.514,0.932
				c0,0.227,0.071,0.43,0.213,0.611c0.143,0.188,0.365,0.343,0.67,0.466c0.175,0.064,0.688,0.213,1.543,0.446
				c1.235,0.33,2.097,0.6,2.585,0.81c0.488,0.211,0.872,0.517,1.15,0.917c0.277,0.401,0.417,0.899,0.417,1.494
				c0,0.582-0.17,1.131-0.51,1.645c-0.34,0.515-0.829,0.912-1.47,1.193s-1.365,0.422-2.173,0.422c-1.34,0-2.359-0.277-3.062-0.834
				S420.514,49.655,420.319,48.563z"/>
		</g>
	</g>
</g>
</svg>