<!-- Generator: Adobe Illustrator 17.0.0, SVG Export Plug-In  -->
<svg version="1.1"
	 xmlns="http://www.w3.org/2000/svg" xmlns:xlink="http://www.w3.org/1999/xlink" xmlns:a="http://ns.adobe.com/AdobeSVGViewerExtensions/3.0/"
	 x="0px" y="0px" width="452.997px" height="107.373px" viewBox="0 0 452.997 107.373"
	 style="enable-background:new 0 0 452.997 107.373;" xml:space="preserve">
<style type="text/css">
	.st0{fill:#FFFFFF;stroke:url(#SVGID_1_);stroke-width:4;stroke-miterlimit:10;}
	.st1{fill:#FFFFFF;stroke:url(#SVGID_2_);stroke-width:4;stroke-miterlimit:10;}
	.st2{fill:url(#SVGID_3_);}
	.st3{fill:#154B8A;}
	.st4{fill:#144B8B;}
	.st5{fill:#F1F1F1;}
	.st6{fill:#D1D2D3;}
	.st7{fill:url(#SVGID_4_);stroke:#000000;stroke-miterlimit:10;}
	.st8{fill:#FFFFFF;stroke:url(#SVGID_5_);stroke-width:4;stroke-miterlimit:10;}
	.st9{fill:#FFFFFF;stroke:url(#SVGID_6_);stroke-width:4;stroke-miterlimit:10;}
	.st10{fill:url(#SVGID_7_);}
	.st11{fill:url(#SVGID_8_);stroke:#000000;stroke-miterlimit:10;}
</style>
<defs>
</defs>
<g>
	<radialGradient id="SVGID_1_" cx="226.4986" cy="69.3779" r="162.3965" gradientUnits="userSpaceOnUse">
		<stop  offset="0" style="stop-color:#8CBB69"/>
		<stop  offset="0.7837" style="stop-color:#6BAD44"/>
	</radialGradient>
	<rect x="2" y="33.383" class="st0" width="448.997" height="71.99"/>
	<g>
		<radialGradient id="SVGID_2_" cx="226.4986" cy="18.0122" r="160.6643" gradientUnits="userSpaceOnUse">
			<stop  offset="0" style="stop-color:#8CBB69"/>
			<stop  offset="0.7837" style="stop-color:#6BAD44"/>
		</radialGradient>
		<rect x="2" y="2" class="st1" width="448.997" height="32.024"/>
		<g>
			<radialGradient id="SVGID_3_" cx="426.213" cy="18.0122" r="7.4694" gradientUnits="userSpaceOnUse">
				<stop  offset="0" style="stop-color:#8CBB69"/>
				<stop  offset="0.7837" style="stop-color:#6BAD44"/>
			</radialGradient>
			<path class="st2" d="M434.091,20.416h-15.758c-1.332,0-2.406-1.072-2.406-2.399c0-1.335,1.074-2.408,2.406-2.408h15.758
				c1.33,0,2.408,1.073,2.408,2.408C436.499,19.344,435.421,20.416,434.091,20.416z"/>
		</g>
		<g>
			<path class="st3" d="M400.142,28.711c-5.902,0-10.707-4.799-10.707-10.694c0-5.906,4.805-10.702,10.707-10.702
				c5.898,0,10.699,4.796,10.699,10.702C410.841,23.912,406.04,28.711,400.142,28.711z M400.142,12.127
				c-3.248,0-5.889,2.639-5.889,5.89c0,3.245,2.641,5.883,5.889,5.883c3.244,0,5.885-2.638,5.885-5.883
				C406.026,14.766,403.386,12.127,400.142,12.127z"/>
		</g>
	</g>
</g>
<g>
	<path d="M10.522,66.121l3.574-9.306h1.326l3.809,9.306h-1.402l-1.086-2.818h-3.891l-1.021,2.818H10.522z M13.207,62.3h3.154
		l-0.971-2.577c-0.296-0.783-0.517-1.426-0.66-1.93c-0.118,0.597-0.285,1.189-0.502,1.777L13.207,62.3z"/>
	<path d="M20.044,66.121v-9.306h1.143v9.306H20.044z"/>
	<path d="M26.904,58.129v-1.313h1.143v1.313H26.904z M26.904,66.121V59.38h1.143v6.741H26.904z"/>
	<path d="M29.787,66.121V59.38h1.027v0.958c0.496-0.74,1.211-1.11,2.146-1.11c0.406,0,0.779,0.073,1.12,0.219
		c0.341,0.146,0.596,0.338,0.765,0.575c0.169,0.236,0.288,0.518,0.355,0.844c0.042,0.212,0.063,0.582,0.063,1.111v4.145h-1.143
		V62.02c0-0.466-0.044-0.813-0.134-1.044c-0.088-0.23-0.246-0.415-0.473-0.553s-0.492-0.206-0.797-0.206
		c-0.486,0-0.906,0.154-1.26,0.464c-0.354,0.309-0.529,0.895-0.529,1.758v3.682H29.787z"/>
	<path d="M41.416,63.652l1.123,0.146c-0.122,0.774-0.437,1.381-0.942,1.818c-0.506,0.438-1.126,0.657-1.862,0.657
		c-0.923,0-1.665-0.302-2.226-0.904c-0.561-0.604-0.841-1.468-0.841-2.594c0-0.728,0.121-1.364,0.361-1.91
		c0.242-0.546,0.608-0.955,1.102-1.229c0.493-0.272,1.029-0.409,1.609-0.409c0.732,0,1.331,0.186,1.797,0.556
		c0.465,0.37,0.764,0.896,0.895,1.577l-1.111,0.171c-0.105-0.452-0.293-0.793-0.562-1.021s-0.593-0.343-0.974-0.343
		c-0.576,0-1.044,0.206-1.403,0.619c-0.359,0.412-0.54,1.065-0.54,1.958c0,0.905,0.174,1.563,0.521,1.975
		c0.347,0.41,0.799,0.615,1.357,0.615c0.449,0,0.823-0.138,1.124-0.412C41.146,64.646,41.336,64.223,41.416,63.652z"/>
	<path d="M43.492,66.121v-9.306h1.143v9.306H43.492z"/>
	<path d="M50.824,66.121v-0.99c-0.525,0.762-1.238,1.143-2.14,1.143c-0.397,0-0.77-0.076-1.114-0.229s-0.601-0.344-0.768-0.574
		s-0.285-0.514-0.353-0.848c-0.047-0.225-0.069-0.58-0.069-1.066V59.38h1.143v3.739c0,0.596,0.022,0.998,0.069,1.205
		c0.072,0.301,0.225,0.537,0.457,0.708c0.232,0.172,0.521,0.257,0.863,0.257s0.664-0.087,0.965-0.263s0.513-0.415,0.638-0.718
		s0.188-0.741,0.188-1.316V59.38h1.143v6.741H50.824z"/>
	<path d="M53.643,58.129v-1.313h1.143v1.313H53.643z M53.643,66.121V59.38h1.143v6.741H53.643z"/>
	<path d="M56.512,66.121V59.38h1.029v1.022c0.262-0.479,0.504-0.794,0.727-0.946c0.222-0.152,0.467-0.229,0.732-0.229
		c0.386,0,0.777,0.123,1.175,0.368l-0.394,1.061c-0.279-0.166-0.559-0.248-0.838-0.248c-0.25,0-0.474,0.075-0.673,0.226
		s-0.341,0.358-0.425,0.625c-0.127,0.406-0.191,0.851-0.191,1.333v3.529H56.512z"/>
	<path d="M60.829,66.121v-9.306h1.143v9.306H60.829z"/>
	<path d="M63.316,62.75c0-1.248,0.347-2.173,1.041-2.773c0.58-0.499,1.286-0.749,2.12-0.749c0.927,0,1.685,0.304,2.272,0.911
		s0.883,1.446,0.883,2.517c0,0.867-0.131,1.55-0.391,2.047c-0.261,0.497-0.64,0.884-1.137,1.159
		c-0.497,0.274-1.04,0.412-1.628,0.412c-0.943,0-1.706-0.303-2.288-0.908C63.607,64.761,63.316,63.889,63.316,62.75z M64.49,62.75
		c0,0.863,0.188,1.51,0.565,1.939s0.851,0.645,1.422,0.645c0.567,0,1.039-0.216,1.415-0.647c0.377-0.432,0.565-1.09,0.565-1.974
		c0-0.834-0.189-1.466-0.568-1.896s-0.85-0.644-1.412-0.644c-0.571,0-1.045,0.213-1.422,0.641S64.49,61.887,64.49,62.75z"/>
	<path d="M70.516,64.109l1.129-0.178c0.064,0.452,0.24,0.799,0.53,1.041c0.29,0.24,0.695,0.361,1.216,0.361
		c0.524,0,0.914-0.106,1.168-0.32s0.381-0.465,0.381-0.752c0-0.259-0.112-0.462-0.336-0.609c-0.157-0.102-0.547-0.231-1.168-0.388
		c-0.838-0.212-1.419-0.395-1.743-0.549c-0.323-0.154-0.569-0.368-0.736-0.642c-0.167-0.272-0.251-0.574-0.251-0.904
		c0-0.301,0.069-0.579,0.207-0.835s0.324-0.469,0.562-0.638c0.178-0.131,0.42-0.242,0.727-0.333s0.636-0.137,0.987-0.137
		c0.529,0,0.993,0.076,1.394,0.229c0.399,0.152,0.694,0.358,0.886,0.619c0.189,0.26,0.321,0.608,0.393,1.044l-1.117,0.152
		c-0.051-0.347-0.197-0.618-0.44-0.813s-0.587-0.292-1.032-0.292c-0.524,0-0.898,0.087-1.123,0.261
		c-0.225,0.173-0.336,0.376-0.336,0.609c0,0.147,0.046,0.281,0.139,0.399c0.094,0.123,0.239,0.225,0.438,0.305
		c0.114,0.042,0.45,0.14,1.009,0.292c0.809,0.216,1.373,0.393,1.692,0.53s0.57,0.337,0.752,0.6s0.272,0.588,0.272,0.978
		c0,0.381-0.11,0.739-0.333,1.076c-0.222,0.336-0.542,0.597-0.962,0.78c-0.418,0.185-0.893,0.276-1.422,0.276
		c-0.875,0-1.543-0.182-2.002-0.546S70.643,64.824,70.516,64.109z"/>
	<path d="M86.028,63.95l1.181,0.146c-0.187,0.69-0.531,1.226-1.035,1.606c-0.503,0.381-1.146,0.571-1.93,0.571
		c-0.985,0-1.768-0.304-2.345-0.911c-0.578-0.607-0.866-1.459-0.866-2.555c0-1.134,0.291-2.015,0.875-2.641s1.342-0.939,2.273-0.939
		c0.9,0,1.637,0.307,2.209,0.921c0.57,0.613,0.856,1.477,0.856,2.59c0,0.067-0.002,0.169-0.007,0.305h-5.027
		c0.043,0.74,0.252,1.307,0.629,1.701c0.377,0.393,0.847,0.59,1.409,0.59c0.419,0,0.776-0.11,1.073-0.33
		C85.62,64.784,85.855,64.433,86.028,63.95z M82.277,62.103h3.764c-0.051-0.567-0.194-0.993-0.432-1.276
		c-0.364-0.44-0.836-0.66-1.416-0.66c-0.524,0-0.966,0.176-1.323,0.526C82.513,61.045,82.314,61.515,82.277,62.103z"/>
	<path d="M88.188,64.109l1.129-0.178c0.064,0.452,0.24,0.799,0.53,1.041c0.29,0.24,0.695,0.361,1.216,0.361
		c0.524,0,0.914-0.106,1.168-0.32s0.381-0.465,0.381-0.752c0-0.259-0.112-0.462-0.336-0.609c-0.157-0.102-0.547-0.231-1.168-0.388
		c-0.838-0.212-1.419-0.395-1.743-0.549c-0.323-0.154-0.569-0.368-0.736-0.642c-0.167-0.272-0.251-0.574-0.251-0.904
		c0-0.301,0.069-0.579,0.207-0.835s0.324-0.469,0.562-0.638c0.178-0.131,0.42-0.242,0.727-0.333s0.636-0.137,0.987-0.137
		c0.529,0,0.993,0.076,1.394,0.229c0.399,0.152,0.694,0.358,0.886,0.619c0.189,0.26,0.321,0.608,0.393,1.044l-1.117,0.152
		c-0.051-0.347-0.197-0.618-0.44-0.813s-0.587-0.292-1.032-0.292c-0.524,0-0.898,0.087-1.123,0.261
		c-0.225,0.173-0.336,0.376-0.336,0.609c0,0.147,0.046,0.281,0.139,0.399c0.094,0.123,0.239,0.225,0.438,0.305
		c0.114,0.042,0.45,0.14,1.009,0.292c0.809,0.216,1.373,0.393,1.692,0.53s0.57,0.337,0.752,0.6s0.272,0.588,0.272,0.978
		c0,0.381-0.11,0.739-0.333,1.076c-0.222,0.336-0.542,0.597-0.962,0.78c-0.418,0.185-0.893,0.276-1.422,0.276
		c-0.875,0-1.543-0.182-2.002-0.546S88.314,64.824,88.188,64.109z"/>
	<path d="M97.639,65.1l0.165,1.009c-0.321,0.067-0.609,0.102-0.863,0.102c-0.415,0-0.736-0.065-0.965-0.196
		c-0.229-0.132-0.39-0.304-0.482-0.518s-0.14-0.664-0.14-1.35v-3.878h-0.838V59.38h0.838v-1.669l1.137-0.686v2.354h1.148v0.889
		H96.49v3.942c0,0.325,0.02,0.535,0.06,0.628s0.106,0.167,0.197,0.222c0.091,0.056,0.221,0.083,0.39,0.083
		C97.264,65.144,97.432,65.129,97.639,65.1z"/>
	<path d="M103.154,65.289c-0.423,0.36-0.83,0.614-1.222,0.762c-0.392,0.148-0.812,0.223-1.261,0.223c-0.74,0-1.31-0.181-1.707-0.543
		c-0.397-0.361-0.597-0.824-0.597-1.387c0-0.33,0.075-0.632,0.226-0.904c0.15-0.273,0.347-0.492,0.59-0.657s0.518-0.29,0.822-0.374
		c0.225-0.06,0.563-0.117,1.016-0.172c0.923-0.11,1.602-0.241,2.037-0.394c0.005-0.156,0.007-0.256,0.007-0.298
		c0-0.466-0.108-0.794-0.323-0.984c-0.293-0.258-0.727-0.387-1.302-0.387c-0.537,0-0.935,0.094-1.19,0.282s-0.445,0.521-0.568,0.999
		l-1.117-0.152c0.102-0.478,0.27-0.864,0.502-1.158s0.569-0.521,1.01-0.679c0.439-0.159,0.949-0.238,1.529-0.238
		c0.575,0,1.043,0.067,1.402,0.203c0.36,0.136,0.625,0.306,0.794,0.511s0.288,0.465,0.355,0.777
		c0.038,0.195,0.058,0.547,0.058,1.055v1.523c0,1.062,0.023,1.733,0.072,2.015s0.146,0.552,0.289,0.81h-1.193
		C103.265,65.884,103.189,65.607,103.154,65.289z M103.059,62.738c-0.414,0.169-1.036,0.313-1.865,0.432
		c-0.471,0.067-0.803,0.144-0.997,0.229c-0.194,0.084-0.345,0.208-0.45,0.371c-0.106,0.163-0.159,0.344-0.159,0.543
		c0,0.305,0.115,0.559,0.346,0.762s0.568,0.305,1.013,0.305c0.44,0,0.832-0.097,1.174-0.289c0.344-0.192,0.595-0.456,0.756-0.791
		c0.123-0.258,0.184-0.639,0.184-1.143V62.738z"/>
	<path d="M105.986,66.121V59.38h1.021v0.946c0.212-0.33,0.493-0.596,0.844-0.797c0.352-0.201,0.752-0.302,1.2-0.302
		c0.499,0,0.909,0.104,1.229,0.312c0.319,0.207,0.545,0.497,0.676,0.869c0.533-0.787,1.228-1.181,2.082-1.181
		c0.669,0,1.183,0.186,1.542,0.556c0.36,0.37,0.54,0.94,0.54,1.711v4.627h-1.136v-4.246c0-0.457-0.037-0.786-0.111-0.987
		s-0.209-0.363-0.403-0.485c-0.194-0.123-0.423-0.185-0.686-0.185c-0.474,0-0.867,0.157-1.181,0.473s-0.47,0.82-0.47,1.515v3.916
		h-1.143v-4.38c0-0.508-0.093-0.889-0.279-1.143s-0.491-0.381-0.914-0.381c-0.321,0-0.619,0.085-0.892,0.254
		c-0.273,0.169-0.471,0.417-0.594,0.743c-0.123,0.325-0.184,0.795-0.184,1.408v3.498H105.986z"/>
	<path d="M116.39,62.75c0-1.248,0.347-2.173,1.041-2.773c0.58-0.499,1.286-0.749,2.12-0.749c0.927,0,1.685,0.304,2.272,0.911
		s0.883,1.446,0.883,2.517c0,0.867-0.131,1.55-0.391,2.047c-0.261,0.497-0.64,0.884-1.137,1.159
		c-0.497,0.274-1.04,0.412-1.628,0.412c-0.943,0-1.706-0.303-2.288-0.908C116.681,64.761,116.39,63.889,116.39,62.75z
		 M117.564,62.75c0,0.863,0.188,1.51,0.565,1.939s0.851,0.645,1.422,0.645c0.567,0,1.039-0.216,1.415-0.647
		c0.377-0.432,0.565-1.09,0.565-1.974c0-0.834-0.189-1.466-0.568-1.896s-0.85-0.644-1.412-0.644c-0.571,0-1.045,0.213-1.422,0.641
		S117.564,61.887,117.564,62.75z"/>
	<path d="M123.588,64.109l1.129-0.178c0.064,0.452,0.24,0.799,0.53,1.041c0.29,0.24,0.695,0.361,1.216,0.361
		c0.524,0,0.914-0.106,1.168-0.32s0.381-0.465,0.381-0.752c0-0.259-0.112-0.462-0.336-0.609c-0.157-0.102-0.547-0.231-1.168-0.388
		c-0.838-0.212-1.419-0.395-1.743-0.549c-0.323-0.154-0.569-0.368-0.736-0.642c-0.167-0.272-0.251-0.574-0.251-0.904
		c0-0.301,0.069-0.579,0.207-0.835s0.324-0.469,0.562-0.638c0.178-0.131,0.42-0.242,0.727-0.333s0.636-0.137,0.987-0.137
		c0.529,0,0.993,0.076,1.394,0.229c0.399,0.152,0.694,0.358,0.886,0.619c0.189,0.26,0.321,0.608,0.393,1.044l-1.117,0.152
		c-0.051-0.347-0.197-0.618-0.44-0.813s-0.587-0.292-1.032-0.292c-0.524,0-0.898,0.087-1.123,0.261
		c-0.225,0.173-0.336,0.376-0.336,0.609c0,0.147,0.046,0.281,0.139,0.399c0.094,0.123,0.239,0.225,0.438,0.305
		c0.114,0.042,0.45,0.14,1.009,0.292c0.809,0.216,1.373,0.393,1.692,0.53c0.319,0.138,0.57,0.337,0.752,0.6s0.272,0.588,0.272,0.978
		c0,0.381-0.11,0.739-0.333,1.076c-0.222,0.336-0.542,0.597-0.962,0.78c-0.418,0.185-0.893,0.276-1.422,0.276
		c-0.875,0-1.543-0.182-2.002-0.546S123.715,64.824,123.588,64.109z"/>
	<path d="M134.492,58.129v-1.313h1.143v1.313H134.492z M134.492,66.121V59.38h1.143v6.741H134.492z"/>
	<path d="M137.375,66.121V59.38h1.027v0.958c0.496-0.74,1.211-1.11,2.146-1.11c0.406,0,0.779,0.073,1.12,0.219
		c0.341,0.146,0.596,0.338,0.765,0.575c0.169,0.236,0.288,0.518,0.355,0.844c0.042,0.212,0.063,0.582,0.063,1.111v4.145h-1.143
		V62.02c0-0.466-0.044-0.813-0.134-1.044c-0.088-0.23-0.246-0.415-0.473-0.553s-0.492-0.206-0.797-0.206
		c-0.486,0-0.906,0.154-1.26,0.464c-0.354,0.309-0.529,0.895-0.529,1.758v3.682H137.375z"/>
	<path d="M147.1,65.1l0.165,1.009c-0.321,0.067-0.609,0.102-0.863,0.102c-0.415,0-0.736-0.065-0.965-0.196
		c-0.229-0.132-0.39-0.304-0.482-0.518s-0.14-0.664-0.14-1.35v-3.878h-0.838V59.38h0.838v-1.669l1.137-0.686v2.354h1.148v0.889
		h-1.148v3.942c0,0.325,0.02,0.535,0.06,0.628s0.106,0.167,0.197,0.222c0.091,0.056,0.221,0.083,0.39,0.083
		C146.725,65.144,146.893,65.129,147.1,65.1z"/>
	<path d="M152.831,63.95l1.181,0.146c-0.187,0.69-0.531,1.226-1.035,1.606c-0.503,0.381-1.146,0.571-1.93,0.571
		c-0.985,0-1.768-0.304-2.345-0.911c-0.578-0.607-0.866-1.459-0.866-2.555c0-1.134,0.291-2.015,0.875-2.641s1.342-0.939,2.273-0.939
		c0.9,0,1.637,0.307,2.209,0.921c0.57,0.613,0.856,1.477,0.856,2.59c0,0.067-0.002,0.169-0.007,0.305h-5.027
		c0.043,0.74,0.252,1.307,0.629,1.701c0.377,0.393,0.847,0.59,1.409,0.59c0.419,0,0.776-0.11,1.073-0.33
		C152.423,64.784,152.657,64.433,152.831,63.95z M149.08,62.103h3.764c-0.051-0.567-0.194-0.993-0.432-1.276
		c-0.364-0.44-0.836-0.66-1.416-0.66c-0.524,0-0.966,0.176-1.323,0.526C149.315,61.045,149.117,61.515,149.08,62.103z"/>
	<path d="M155.447,66.121V59.38h1.027v0.958c0.496-0.74,1.211-1.11,2.146-1.11c0.406,0,0.779,0.073,1.12,0.219
		c0.341,0.146,0.596,0.338,0.765,0.575c0.169,0.236,0.288,0.518,0.355,0.844c0.042,0.212,0.063,0.582,0.063,1.111v4.145h-1.143
		V62.02c0-0.466-0.044-0.813-0.134-1.044c-0.088-0.23-0.246-0.415-0.473-0.553s-0.492-0.206-0.797-0.206
		c-0.486,0-0.906,0.154-1.26,0.464c-0.354,0.309-0.529,0.895-0.529,1.758v3.682H155.447z"/>
	<path d="M165.172,65.1l0.165,1.009c-0.321,0.067-0.609,0.102-0.863,0.102c-0.415,0-0.736-0.065-0.965-0.196
		c-0.229-0.132-0.39-0.304-0.482-0.518s-0.14-0.664-0.14-1.35v-3.878h-0.838V59.38h0.838v-1.669l1.137-0.686v2.354h1.148v0.889
		h-1.148v3.942c0,0.325,0.02,0.535,0.06,0.628s0.106,0.167,0.197,0.222c0.091,0.056,0.221,0.083,0.39,0.083
		C164.797,65.144,164.965,65.129,165.172,65.1z"/>
	<path d="M170.688,65.289c-0.423,0.36-0.83,0.614-1.222,0.762c-0.392,0.148-0.812,0.223-1.261,0.223c-0.74,0-1.31-0.181-1.707-0.543
		c-0.397-0.361-0.597-0.824-0.597-1.387c0-0.33,0.075-0.632,0.226-0.904c0.15-0.273,0.347-0.492,0.59-0.657s0.518-0.29,0.822-0.374
		c0.225-0.06,0.563-0.117,1.016-0.172c0.923-0.11,1.602-0.241,2.037-0.394c0.005-0.156,0.007-0.256,0.007-0.298
		c0-0.466-0.108-0.794-0.323-0.984c-0.293-0.258-0.727-0.387-1.302-0.387c-0.537,0-0.935,0.094-1.19,0.282s-0.445,0.521-0.568,0.999
		l-1.117-0.152c0.102-0.478,0.27-0.864,0.502-1.158s0.569-0.521,1.01-0.679c0.439-0.159,0.949-0.238,1.529-0.238
		c0.575,0,1.043,0.067,1.402,0.203c0.36,0.136,0.625,0.306,0.794,0.511s0.288,0.465,0.355,0.777
		c0.038,0.195,0.058,0.547,0.058,1.055v1.523c0,1.062,0.023,1.733,0.072,2.015s0.146,0.552,0.289,0.81h-1.193
		C170.798,65.884,170.722,65.607,170.688,65.289z M170.592,62.738c-0.414,0.169-1.036,0.313-1.865,0.432
		c-0.471,0.067-0.803,0.144-0.997,0.229c-0.194,0.084-0.345,0.208-0.45,0.371c-0.106,0.163-0.159,0.344-0.159,0.543
		c0,0.305,0.115,0.559,0.346,0.762s0.568,0.305,1.013,0.305c0.44,0,0.832-0.097,1.174-0.289c0.344-0.192,0.595-0.456,0.756-0.791
		c0.123-0.258,0.184-0.639,0.184-1.143V62.738z"/>
	<path d="M173.52,66.121V59.38h1.027v0.958c0.496-0.74,1.211-1.11,2.146-1.11c0.406,0,0.779,0.073,1.12,0.219
		c0.341,0.146,0.596,0.338,0.765,0.575c0.169,0.236,0.288,0.518,0.355,0.844c0.042,0.212,0.063,0.582,0.063,1.111v4.145h-1.143
		V62.02c0-0.466-0.044-0.813-0.134-1.044c-0.088-0.23-0.246-0.415-0.473-0.553s-0.492-0.206-0.797-0.206
		c-0.486,0-0.906,0.154-1.26,0.464c-0.354,0.309-0.529,0.895-0.529,1.758v3.682H173.52z"/>
	<path d="M185.123,66.121V65.27c-0.428,0.669-1.056,1.003-1.885,1.003c-0.538,0-1.032-0.148-1.482-0.444
		c-0.451-0.296-0.8-0.71-1.048-1.241c-0.247-0.531-0.371-1.142-0.371-1.831c0-0.673,0.112-1.283,0.337-1.831
		c0.224-0.548,0.561-0.969,1.009-1.26c0.448-0.293,0.95-0.438,1.505-0.438c0.406,0,0.768,0.086,1.085,0.257
		c0.317,0.172,0.575,0.395,0.774,0.67v-3.339h1.137v9.306H185.123z M181.512,62.757c0,0.863,0.182,1.509,0.545,1.937
		c0.364,0.427,0.794,0.641,1.289,0.641c0.499,0,0.924-0.204,1.272-0.612c0.35-0.408,0.524-1.032,0.524-1.87
		c0-0.922-0.178-1.6-0.533-2.031s-0.794-0.646-1.314-0.646c-0.508,0-0.932,0.207-1.272,0.621
		C181.682,61.21,181.512,61.864,181.512,62.757z"/>
	<path d="M187.555,62.75c0-1.248,0.347-2.173,1.041-2.773c0.58-0.499,1.286-0.749,2.12-0.749c0.927,0,1.685,0.304,2.272,0.911
		s0.883,1.446,0.883,2.517c0,0.867-0.131,1.55-0.391,2.047c-0.261,0.497-0.64,0.884-1.137,1.159
		c-0.497,0.274-1.04,0.412-1.628,0.412c-0.943,0-1.706-0.303-2.288-0.908C187.846,64.761,187.555,63.889,187.555,62.75z
		 M188.729,62.75c0,0.863,0.188,1.51,0.565,1.939s0.851,0.645,1.422,0.645c0.567,0,1.039-0.216,1.415-0.647
		c0.377-0.432,0.565-1.09,0.565-1.974c0-0.834-0.189-1.466-0.568-1.896s-0.85-0.644-1.412-0.644c-0.571,0-1.045,0.213-1.422,0.641
		S188.729,61.887,188.729,62.75z"/>
	<path d="M199.152,66.121v-9.306h1.143v3.339c0.533-0.618,1.205-0.927,2.018-0.927c0.5,0,0.934,0.099,1.302,0.295
		c0.368,0.197,0.632,0.469,0.79,0.815c0.159,0.348,0.238,0.852,0.238,1.512v4.271H203.5V61.85c0-0.572-0.124-0.987-0.371-1.248
		c-0.248-0.26-0.598-0.391-1.051-0.391c-0.339,0-0.657,0.088-0.955,0.264c-0.299,0.176-0.512,0.414-0.639,0.715
		c-0.127,0.3-0.189,0.715-0.189,1.244v3.688H199.152z"/>
	<path d="M210.781,65.289c-0.423,0.36-0.83,0.614-1.222,0.762c-0.392,0.148-0.812,0.223-1.261,0.223c-0.74,0-1.31-0.181-1.707-0.543
		c-0.397-0.361-0.597-0.824-0.597-1.387c0-0.33,0.075-0.632,0.226-0.904c0.15-0.273,0.347-0.492,0.59-0.657s0.518-0.29,0.822-0.374
		c0.225-0.06,0.563-0.117,1.016-0.172c0.923-0.11,1.602-0.241,2.037-0.394c0.005-0.156,0.007-0.256,0.007-0.298
		c0-0.466-0.108-0.794-0.323-0.984c-0.293-0.258-0.727-0.387-1.302-0.387c-0.537,0-0.935,0.094-1.19,0.282s-0.445,0.521-0.568,0.999
		l-1.117-0.152c0.102-0.478,0.27-0.864,0.502-1.158s0.569-0.521,1.01-0.679c0.439-0.159,0.949-0.238,1.529-0.238
		c0.575,0,1.043,0.067,1.402,0.203c0.36,0.136,0.625,0.306,0.794,0.511s0.288,0.465,0.355,0.777
		c0.038,0.195,0.058,0.547,0.058,1.055v1.523c0,1.062,0.023,1.733,0.072,2.015s0.146,0.552,0.289,0.81h-1.193
		C210.892,65.884,210.815,65.607,210.781,65.289z M210.686,62.738c-0.414,0.169-1.036,0.313-1.865,0.432
		c-0.471,0.067-0.803,0.144-0.997,0.229c-0.194,0.084-0.345,0.208-0.45,0.371c-0.106,0.163-0.159,0.344-0.159,0.543
		c0,0.305,0.115,0.559,0.346,0.762s0.568,0.305,1.013,0.305c0.44,0,0.832-0.097,1.174-0.289c0.344-0.192,0.595-0.456,0.756-0.791
		c0.123-0.258,0.184-0.639,0.184-1.143V62.738z"/>
	<path d="M218.012,63.652l1.123,0.146c-0.122,0.774-0.437,1.381-0.942,1.818c-0.506,0.438-1.126,0.657-1.862,0.657
		c-0.923,0-1.665-0.302-2.226-0.904c-0.561-0.604-0.841-1.468-0.841-2.594c0-0.728,0.121-1.364,0.361-1.91
		c0.242-0.546,0.608-0.955,1.102-1.229c0.493-0.272,1.029-0.409,1.609-0.409c0.732,0,1.331,0.186,1.797,0.556
		c0.465,0.37,0.764,0.896,0.895,1.577l-1.111,0.171c-0.105-0.452-0.293-0.793-0.562-1.021s-0.593-0.343-0.974-0.343
		c-0.576,0-1.044,0.206-1.403,0.619c-0.359,0.412-0.54,1.065-0.54,1.958c0,0.905,0.174,1.563,0.521,1.975
		c0.347,0.41,0.799,0.615,1.357,0.615c0.449,0,0.823-0.138,1.124-0.412C217.741,64.646,217.932,64.223,218.012,63.652z"/>
	<path d="M224.728,63.95l1.181,0.146c-0.187,0.69-0.531,1.226-1.035,1.606c-0.503,0.381-1.146,0.571-1.93,0.571
		c-0.985,0-1.768-0.304-2.345-0.911c-0.578-0.607-0.866-1.459-0.866-2.555c0-1.134,0.291-2.015,0.875-2.641s1.342-0.939,2.273-0.939
		c0.9,0,1.637,0.307,2.209,0.921c0.57,0.613,0.856,1.477,0.856,2.59c0,0.067-0.002,0.169-0.007,0.305h-5.027
		c0.043,0.74,0.252,1.307,0.629,1.701c0.377,0.393,0.847,0.59,1.409,0.59c0.419,0,0.776-0.11,1.073-0.33
		C224.319,64.784,224.554,64.433,224.728,63.95z M220.977,62.103h3.764c-0.051-0.567-0.194-0.993-0.432-1.276
		c-0.364-0.44-0.836-0.66-1.416-0.66c-0.524,0-0.966,0.176-1.323,0.526C221.212,61.045,221.014,61.515,220.977,62.103z"/>
	<path d="M227.33,66.121V59.38h1.029v1.022c0.262-0.479,0.504-0.794,0.727-0.946c0.222-0.152,0.467-0.229,0.732-0.229
		c0.386,0,0.777,0.123,1.175,0.368l-0.394,1.061c-0.279-0.166-0.559-0.248-0.838-0.248c-0.25,0-0.474,0.075-0.673,0.226
		s-0.341,0.358-0.425,0.625c-0.127,0.406-0.191,0.851-0.191,1.333v3.529H227.33z"/>
	<path d="M235.615,66.121V59.38h1.021v0.946c0.212-0.33,0.493-0.596,0.844-0.797c0.352-0.201,0.752-0.302,1.2-0.302
		c0.499,0,0.909,0.104,1.229,0.312c0.319,0.207,0.545,0.497,0.676,0.869c0.533-0.787,1.228-1.181,2.082-1.181
		c0.669,0,1.183,0.186,1.542,0.556c0.36,0.37,0.54,0.94,0.54,1.711v4.627h-1.136v-4.246c0-0.457-0.037-0.786-0.111-0.987
		s-0.209-0.363-0.403-0.485c-0.194-0.123-0.423-0.185-0.686-0.185c-0.474,0-0.867,0.157-1.181,0.473s-0.47,0.82-0.47,1.515v3.916
		h-1.143v-4.38c0-0.508-0.093-0.889-0.279-1.143s-0.491-0.381-0.914-0.381c-0.321,0-0.619,0.085-0.892,0.254
		c-0.273,0.169-0.471,0.417-0.594,0.743c-0.123,0.325-0.184,0.795-0.184,1.408v3.498H235.615z"/>
	<path d="M250.843,65.289c-0.423,0.36-0.83,0.614-1.222,0.762c-0.392,0.148-0.812,0.223-1.261,0.223c-0.74,0-1.31-0.181-1.707-0.543
		c-0.397-0.361-0.597-0.824-0.597-1.387c0-0.33,0.075-0.632,0.226-0.904c0.15-0.273,0.347-0.492,0.59-0.657s0.518-0.29,0.822-0.374
		c0.225-0.06,0.563-0.117,1.016-0.172c0.923-0.11,1.602-0.241,2.037-0.394c0.005-0.156,0.007-0.256,0.007-0.298
		c0-0.466-0.108-0.794-0.323-0.984c-0.293-0.258-0.727-0.387-1.302-0.387c-0.537,0-0.935,0.094-1.19,0.282s-0.445,0.521-0.568,0.999
		l-1.117-0.152c0.102-0.478,0.27-0.864,0.502-1.158s0.569-0.521,1.01-0.679c0.439-0.159,0.949-0.238,1.529-0.238
		c0.575,0,1.043,0.067,1.402,0.203c0.36,0.136,0.625,0.306,0.794,0.511s0.288,0.465,0.355,0.777
		c0.038,0.195,0.058,0.547,0.058,1.055v1.523c0,1.062,0.023,1.733,0.072,2.015s0.146,0.552,0.289,0.81h-1.193
		C250.953,65.884,250.877,65.607,250.843,65.289z M250.747,62.738c-0.414,0.169-1.036,0.313-1.865,0.432
		c-0.471,0.067-0.803,0.144-0.997,0.229c-0.194,0.084-0.345,0.208-0.45,0.371c-0.106,0.163-0.159,0.344-0.159,0.543
		c0,0.305,0.115,0.559,0.346,0.762s0.568,0.305,1.013,0.305c0.44,0,0.832-0.097,1.174-0.289c0.344-0.192,0.595-0.456,0.756-0.791
		c0.123-0.258,0.184-0.639,0.184-1.143V62.738z M248.526,58.542l0.844-1.777h1.498l-1.396,1.777H248.526z"/>
	<path d="M253.217,64.109l1.129-0.178c0.064,0.452,0.24,0.799,0.53,1.041c0.29,0.24,0.695,0.361,1.216,0.361
		c0.524,0,0.914-0.106,1.168-0.32s0.381-0.465,0.381-0.752c0-0.259-0.112-0.462-0.336-0.609c-0.157-0.102-0.547-0.231-1.168-0.388
		c-0.838-0.212-1.419-0.395-1.743-0.549c-0.323-0.154-0.569-0.368-0.736-0.642c-0.167-0.272-0.251-0.574-0.251-0.904
		c0-0.301,0.069-0.579,0.207-0.835s0.324-0.469,0.562-0.638c0.178-0.131,0.42-0.242,0.727-0.333s0.636-0.137,0.987-0.137
		c0.529,0,0.993,0.076,1.394,0.229c0.399,0.152,0.694,0.358,0.886,0.619c0.189,0.26,0.321,0.608,0.393,1.044l-1.117,0.152
		c-0.051-0.347-0.197-0.618-0.44-0.813s-0.587-0.292-1.032-0.292c-0.524,0-0.898,0.087-1.123,0.261
		c-0.225,0.173-0.336,0.376-0.336,0.609c0,0.147,0.046,0.281,0.139,0.399c0.094,0.123,0.239,0.225,0.438,0.305
		c0.114,0.042,0.45,0.14,1.009,0.292c0.809,0.216,1.373,0.393,1.692,0.53s0.57,0.337,0.752,0.6s0.272,0.588,0.272,0.978
		c0,0.381-0.11,0.739-0.333,1.076c-0.222,0.336-0.542,0.597-0.962,0.78c-0.418,0.185-0.893,0.276-1.422,0.276
		c-0.875,0-1.543-0.182-2.002-0.546S253.344,64.824,253.217,64.109z"/>
	<path d="M263.689,62.75c0-1.248,0.347-2.173,1.041-2.773c0.58-0.499,1.286-0.749,2.12-0.749c0.927,0,1.685,0.304,2.272,0.911
		s0.883,1.446,0.883,2.517c0,0.867-0.131,1.55-0.391,2.047c-0.261,0.497-0.64,0.884-1.137,1.159
		c-0.497,0.274-1.04,0.412-1.628,0.412c-0.943,0-1.706-0.303-2.288-0.908C263.98,64.761,263.689,63.889,263.689,62.75z
		 M264.863,62.75c0,0.863,0.188,1.51,0.565,1.939s0.851,0.645,1.422,0.645c0.567,0,1.039-0.216,1.415-0.647
		c0.377-0.432,0.565-1.09,0.565-1.974c0-0.834-0.189-1.466-0.568-1.896s-0.85-0.644-1.412-0.644c-0.571,0-1.045,0.213-1.422,0.641
		S264.863,61.887,264.863,62.75z"/>
	<path d="M272.398,66.121h-1.06v-9.306h1.143v3.319c0.482-0.604,1.099-0.907,1.847-0.907c0.415,0,0.808,0.084,1.178,0.251
		s0.675,0.401,0.914,0.704s0.427,0.668,0.563,1.095c0.135,0.428,0.203,0.885,0.203,1.371c0,1.156-0.286,2.049-0.857,2.68
		c-0.571,0.63-1.257,0.945-2.057,0.945c-0.796,0-1.42-0.332-1.873-0.996V66.121z M272.387,62.699c0,0.809,0.109,1.393,0.33,1.752
		c0.359,0.589,0.846,0.883,1.459,0.883c0.5,0,0.932-0.217,1.295-0.65c0.364-0.434,0.547-1.08,0.547-1.939
		c0-0.88-0.175-1.529-0.524-1.949c-0.349-0.418-0.771-0.628-1.267-0.628c-0.499,0-0.931,0.217-1.295,0.65
		C272.568,61.251,272.387,61.879,272.387,62.699z"/>
	<path d="M277.122,68.736l0.216-0.971c0.229,0.059,0.408,0.088,0.539,0.088c0.233,0,0.406-0.077,0.521-0.231
		c0.113-0.154,0.171-0.54,0.171-1.158V59.38h1.143v7.109c0,0.829-0.108,1.407-0.323,1.733c-0.275,0.423-0.732,0.635-1.371,0.635
		C277.708,68.857,277.41,68.816,277.122,68.736z M278.569,58.143v-1.327h1.143v1.327H278.569z"/>
	<path d="M286.079,63.95l1.181,0.146c-0.187,0.69-0.531,1.226-1.035,1.606c-0.503,0.381-1.146,0.571-1.93,0.571
		c-0.985,0-1.768-0.304-2.345-0.911c-0.578-0.607-0.866-1.459-0.866-2.555c0-1.134,0.291-2.015,0.875-2.641s1.342-0.939,2.273-0.939
		c0.9,0,1.637,0.307,2.209,0.921c0.57,0.613,0.856,1.477,0.856,2.59c0,0.067-0.002,0.169-0.007,0.305h-5.027
		c0.043,0.74,0.252,1.307,0.629,1.701c0.377,0.393,0.847,0.59,1.409,0.59c0.419,0,0.776-0.11,1.073-0.33
		C285.671,64.784,285.905,64.433,286.079,63.95z M282.328,62.103h3.764c-0.051-0.567-0.194-0.993-0.432-1.276
		c-0.364-0.44-0.836-0.66-1.416-0.66c-0.524,0-0.966,0.176-1.323,0.526C282.564,61.045,282.365,61.515,282.328,62.103z"/>
	<path d="M291.189,65.1l0.165,1.009c-0.321,0.067-0.609,0.102-0.863,0.102c-0.415,0-0.736-0.065-0.965-0.196
		c-0.229-0.132-0.39-0.304-0.482-0.518s-0.14-0.664-0.14-1.35v-3.878h-0.838V59.38h0.838v-1.669l1.137-0.686v2.354h1.148v0.889
		h-1.148v3.942c0,0.325,0.02,0.535,0.06,0.628s0.106,0.167,0.197,0.222c0.091,0.056,0.221,0.083,0.39,0.083
		C290.814,65.144,290.982,65.129,291.189,65.1z"/>
	<path d="M292.313,58.129v-1.313h1.143v1.313H292.313z M292.313,66.121V59.38h1.143v6.741H292.313z"/>
	<path d="M297.067,66.121l-2.564-6.741h1.206l1.447,4.037c0.156,0.436,0.301,0.889,0.432,1.358c0.102-0.355,0.243-0.783,0.426-1.282
		l1.498-4.113h1.174l-2.552,6.741H297.067z"/>
	<path d="M301.27,62.75c0-1.248,0.347-2.173,1.041-2.773c0.58-0.499,1.286-0.749,2.12-0.749c0.927,0,1.685,0.304,2.272,0.911
		s0.883,1.446,0.883,2.517c0,0.867-0.131,1.55-0.391,2.047c-0.261,0.497-0.64,0.884-1.137,1.159
		c-0.497,0.274-1.04,0.412-1.628,0.412c-0.943,0-1.706-0.303-2.288-0.908C301.561,64.761,301.27,63.889,301.27,62.75z
		 M302.443,62.75c0,0.863,0.188,1.51,0.565,1.939s0.851,0.645,1.422,0.645c0.567,0,1.039-0.216,1.415-0.647
		c0.377-0.432,0.565-1.09,0.565-1.974c0-0.834-0.189-1.466-0.568-1.896s-0.85-0.644-1.412-0.644c-0.571,0-1.045,0.213-1.422,0.641
		S302.443,61.887,302.443,62.75z"/>
	<path d="M315.051,68.857c-0.631-0.796-1.164-1.727-1.6-2.793c-0.437-1.066-0.654-2.172-0.654-3.314
		c0-1.007,0.163-1.972,0.488-2.895c0.381-1.07,0.97-2.137,1.766-3.199h0.818c-0.512,0.881-0.851,1.509-1.016,1.886
		c-0.258,0.584-0.461,1.193-0.609,1.828c-0.182,0.791-0.273,1.587-0.273,2.387c0,2.035,0.633,4.069,1.898,6.101H315.051z"/>
	<path d="M317.196,66.121V59.38h1.021v0.946c0.212-0.33,0.493-0.596,0.844-0.797c0.352-0.201,0.752-0.302,1.2-0.302
		c0.499,0,0.909,0.104,1.229,0.312c0.319,0.207,0.545,0.497,0.676,0.869c0.533-0.787,1.228-1.181,2.082-1.181
		c0.669,0,1.183,0.186,1.542,0.556c0.36,0.37,0.54,0.94,0.54,1.711v4.627h-1.136v-4.246c0-0.457-0.037-0.786-0.111-0.987
		s-0.209-0.363-0.403-0.485c-0.194-0.123-0.423-0.185-0.686-0.185c-0.474,0-0.867,0.157-1.181,0.473s-0.47,0.82-0.47,1.515v3.916
		h-1.143v-4.38c0-0.508-0.093-0.889-0.279-1.143s-0.491-0.381-0.914-0.381c-0.321,0-0.619,0.085-0.892,0.254
		c-0.273,0.169-0.471,0.417-0.594,0.743c-0.123,0.325-0.184,0.795-0.184,1.408v3.498H317.196z"/>
	<path d="M332.64,63.95l1.181,0.146c-0.187,0.69-0.531,1.226-1.035,1.606c-0.503,0.381-1.146,0.571-1.93,0.571
		c-0.985,0-1.768-0.304-2.345-0.911c-0.578-0.607-0.866-1.459-0.866-2.555c0-1.134,0.291-2.015,0.875-2.641s1.342-0.939,2.273-0.939
		c0.9,0,1.637,0.307,2.209,0.921c0.57,0.613,0.856,1.477,0.856,2.59c0,0.067-0.002,0.169-0.007,0.305h-5.027
		c0.043,0.74,0.252,1.307,0.629,1.701c0.377,0.393,0.847,0.59,1.409,0.59c0.419,0,0.776-0.11,1.073-0.33
		C332.231,64.784,332.466,64.433,332.64,63.95z M328.889,62.103h3.764c-0.051-0.567-0.194-0.993-0.432-1.276
		c-0.364-0.44-0.836-0.66-1.416-0.66c-0.524,0-0.966,0.176-1.323,0.526C329.124,61.045,328.926,61.515,328.889,62.103z"/>
	<path d="M335.256,66.121V59.38h1.027v0.958c0.496-0.74,1.211-1.11,2.146-1.11c0.406,0,0.779,0.073,1.12,0.219
		c0.341,0.146,0.596,0.338,0.765,0.575c0.169,0.236,0.288,0.518,0.355,0.844c0.042,0.212,0.063,0.582,0.063,1.111v4.145h-1.143
		V62.02c0-0.466-0.044-0.813-0.134-1.044c-0.088-0.23-0.246-0.415-0.473-0.553s-0.492-0.206-0.797-0.206
		c-0.486,0-0.906,0.154-1.26,0.464c-0.354,0.309-0.529,0.895-0.529,1.758v3.682H335.256z"/>
	<path d="M342.061,62.75c0-1.248,0.347-2.173,1.041-2.773c0.58-0.499,1.286-0.749,2.12-0.749c0.927,0,1.685,0.304,2.272,0.911
		s0.883,1.446,0.883,2.517c0,0.867-0.131,1.55-0.391,2.047c-0.261,0.497-0.64,0.884-1.137,1.159
		c-0.497,0.274-1.04,0.412-1.628,0.412c-0.943,0-1.706-0.303-2.288-0.908C342.352,64.761,342.061,63.889,342.061,62.75z
		 M343.234,62.75c0,0.863,0.188,1.51,0.565,1.939s0.851,0.645,1.422,0.645c0.567,0,1.039-0.216,1.415-0.647
		c0.377-0.432,0.565-1.09,0.565-1.974c0-0.834-0.189-1.466-0.568-1.896s-0.85-0.644-1.412-0.644c-0.571,0-1.045,0.213-1.422,0.641
		S343.234,61.887,343.234,62.75z"/>
	<path d="M349.26,64.109l1.129-0.178c0.064,0.452,0.24,0.799,0.53,1.041c0.29,0.24,0.695,0.361,1.216,0.361
		c0.524,0,0.914-0.106,1.168-0.32s0.381-0.465,0.381-0.752c0-0.259-0.112-0.462-0.336-0.609c-0.157-0.102-0.547-0.231-1.168-0.388
		c-0.838-0.212-1.419-0.395-1.743-0.549c-0.323-0.154-0.569-0.368-0.736-0.642c-0.167-0.272-0.251-0.574-0.251-0.904
		c0-0.301,0.069-0.579,0.207-0.835s0.324-0.469,0.562-0.638c0.178-0.131,0.42-0.242,0.727-0.333s0.636-0.137,0.987-0.137
		c0.529,0,0.993,0.076,1.394,0.229c0.399,0.152,0.694,0.358,0.886,0.619c0.189,0.26,0.321,0.608,0.393,1.044l-1.117,0.152
		c-0.051-0.347-0.197-0.618-0.44-0.813s-0.587-0.292-1.032-0.292c-0.524,0-0.898,0.087-1.123,0.261
		c-0.225,0.173-0.336,0.376-0.336,0.609c0,0.147,0.046,0.281,0.139,0.399c0.094,0.123,0.239,0.225,0.438,0.305
		c0.114,0.042,0.45,0.14,1.009,0.292c0.809,0.216,1.373,0.393,1.692,0.53s0.57,0.337,0.752,0.6s0.272,0.588,0.272,0.978
		c0,0.381-0.11,0.739-0.333,1.076c-0.222,0.336-0.542,0.597-0.962,0.78c-0.418,0.185-0.893,0.276-1.422,0.276
		c-0.875,0-1.543-0.182-2.002-0.546S349.387,64.824,349.26,64.109z"/>
	<path d="M10.941,79.71l1.129-0.178c0.064,0.452,0.24,0.799,0.53,1.041c0.29,0.24,0.695,0.361,1.216,0.361
		c0.524,0,0.914-0.106,1.168-0.32s0.381-0.465,0.381-0.752c0-0.259-0.112-0.462-0.336-0.609c-0.157-0.102-0.547-0.231-1.168-0.388
		c-0.838-0.212-1.419-0.395-1.743-0.549c-0.323-0.154-0.569-0.368-0.736-0.642c-0.167-0.272-0.251-0.574-0.251-0.904
		c0-0.301,0.069-0.579,0.207-0.835s0.324-0.469,0.562-0.638c0.178-0.131,0.42-0.242,0.727-0.333s0.636-0.137,0.987-0.137
		c0.529,0,0.993,0.076,1.394,0.229c0.399,0.152,0.694,0.358,0.886,0.619c0.189,0.26,0.321,0.608,0.393,1.044l-1.117,0.152
		c-0.051-0.347-0.197-0.618-0.44-0.813s-0.587-0.292-1.032-0.292c-0.524,0-0.898,0.087-1.123,0.261
		c-0.225,0.173-0.336,0.376-0.336,0.609c0,0.147,0.046,0.281,0.139,0.399c0.094,0.123,0.239,0.225,0.438,0.305
		c0.114,0.042,0.45,0.14,1.009,0.292c0.809,0.216,1.373,0.393,1.692,0.53s0.57,0.337,0.752,0.6s0.272,0.588,0.272,0.978
		c0,0.381-0.11,0.739-0.333,1.076c-0.222,0.336-0.542,0.597-0.962,0.78c-0.418,0.185-0.893,0.276-1.422,0.276
		c-0.875,0-1.543-0.182-2.002-0.546S11.068,80.425,10.941,79.71z"/>
	<path d="M22.316,81.722v-0.99c-0.525,0.762-1.238,1.143-2.14,1.143c-0.397,0-0.77-0.076-1.114-0.229s-0.601-0.344-0.768-0.574
		s-0.285-0.514-0.353-0.848c-0.047-0.225-0.069-0.58-0.069-1.066V74.98h1.143v3.739c0,0.596,0.022,0.998,0.069,1.205
		c0.072,0.301,0.225,0.537,0.457,0.708c0.232,0.172,0.521,0.257,0.863,0.257s0.664-0.087,0.965-0.263s0.513-0.415,0.638-0.718
		s0.188-0.741,0.188-1.316V74.98h1.143v6.741H22.316z"/>
	<path d="M26.182,81.722h-1.06v-9.306h1.143v3.319c0.482-0.604,1.099-0.907,1.847-0.907c0.415,0,0.808,0.084,1.178,0.251
		s0.675,0.401,0.914,0.704s0.427,0.668,0.563,1.095c0.135,0.428,0.203,0.885,0.203,1.371c0,1.156-0.286,2.049-0.857,2.68
		c-0.571,0.63-1.257,0.945-2.057,0.945c-0.796,0-1.42-0.332-1.873-0.996V81.722z M26.17,78.3c0,0.809,0.109,1.393,0.33,1.752
		c0.359,0.589,0.846,0.883,1.459,0.883c0.5,0,0.932-0.217,1.295-0.65c0.364-0.434,0.547-1.08,0.547-1.939
		c0-0.88-0.175-1.529-0.524-1.949c-0.349-0.418-0.771-0.628-1.267-0.628c-0.499,0-0.931,0.217-1.295,0.65
		C26.352,76.852,26.17,77.479,26.17,78.3z"/>
	<path d="M30.905,84.337l0.216-0.971c0.229,0.059,0.408,0.088,0.539,0.088c0.233,0,0.406-0.077,0.521-0.231
		c0.113-0.154,0.171-0.54,0.171-1.158V74.98h1.143v7.109c0,0.829-0.108,1.407-0.323,1.733c-0.275,0.423-0.732,0.635-1.371,0.635
		C31.491,84.458,31.193,84.417,30.905,84.337z M32.353,73.743v-1.327h1.143v1.327H32.353z"/>
	<path d="M39.862,79.551l1.181,0.146c-0.187,0.69-0.531,1.226-1.035,1.606c-0.503,0.381-1.146,0.571-1.93,0.571
		c-0.985,0-1.768-0.304-2.345-0.911c-0.578-0.607-0.866-1.459-0.866-2.555c0-1.134,0.291-2.015,0.875-2.641s1.342-0.939,2.273-0.939
		c0.9,0,1.637,0.307,2.209,0.921c0.57,0.613,0.856,1.477,0.856,2.59c0,0.067-0.002,0.169-0.007,0.305h-5.027
		c0.043,0.74,0.252,1.307,0.629,1.701c0.377,0.393,0.847,0.59,1.409,0.59c0.419,0,0.776-0.11,1.073-0.33
		C39.454,80.385,39.689,80.033,39.862,79.551z M36.111,77.704h3.764c-0.051-0.567-0.194-0.993-0.432-1.276
		c-0.364-0.44-0.836-0.66-1.416-0.66c-0.524,0-0.966,0.176-1.323,0.526C36.347,76.645,36.148,77.115,36.111,77.704z"/>
	<path d="M44.973,80.7l0.165,1.009c-0.321,0.067-0.609,0.102-0.863,0.102c-0.415,0-0.736-0.065-0.965-0.196
		c-0.229-0.132-0.39-0.304-0.482-0.518s-0.14-0.664-0.14-1.35v-3.878H41.85V74.98h0.838v-1.669l1.137-0.686v2.354h1.148v0.889
		h-1.148v3.942c0,0.325,0.02,0.535,0.06,0.628s0.106,0.167,0.197,0.222c0.091,0.056,0.221,0.083,0.39,0.083
		C44.598,80.744,44.766,80.729,44.973,80.7z"/>
	<path d="M46.096,73.729v-1.313h1.143v1.313H46.096z M46.096,81.722V74.98h1.143v6.741H46.096z"/>
	<path d="M50.851,81.722l-2.564-6.741h1.206l1.447,4.037c0.156,0.436,0.301,0.889,0.432,1.358c0.102-0.355,0.243-0.783,0.426-1.282
		l1.498-4.113h1.174l-2.552,6.741H50.851z"/>
	<path d="M55.053,78.351c0-1.248,0.347-2.173,1.041-2.773c0.58-0.499,1.286-0.749,2.12-0.749c0.927,0,1.685,0.304,2.272,0.911
		s0.883,1.446,0.883,2.517c0,0.867-0.131,1.55-0.391,2.047c-0.261,0.497-0.64,0.884-1.137,1.159
		c-0.497,0.274-1.04,0.412-1.628,0.412c-0.943,0-1.706-0.303-2.288-0.908C55.344,80.361,55.053,79.489,55.053,78.351z
		 M56.227,78.351c0,0.863,0.188,1.51,0.565,1.939s0.851,0.645,1.422,0.645c0.567,0,1.039-0.216,1.415-0.647
		c0.377-0.432,0.565-1.09,0.565-1.974c0-0.834-0.189-1.466-0.568-1.896s-0.85-0.644-1.412-0.644c-0.571,0-1.045,0.213-1.422,0.641
		S56.227,77.487,56.227,78.351z"/>
	<path d="M63.457,84.458h-0.818c1.266-2.031,1.898-4.065,1.898-6.101c0-0.796-0.092-1.585-0.273-2.368
		c-0.144-0.635-0.345-1.244-0.604-1.828c-0.164-0.381-0.505-1.016-1.021-1.904h0.818c0.796,1.063,1.385,2.129,1.766,3.199
		c0.325,0.923,0.488,1.888,0.488,2.895c0,1.143-0.219,2.248-0.657,3.314C64.616,82.731,64.084,83.662,63.457,84.458z"/>
	<path d="M75.265,79.551l1.181,0.146c-0.187,0.69-0.531,1.226-1.035,1.606c-0.503,0.381-1.146,0.571-1.93,0.571
		c-0.985,0-1.768-0.304-2.345-0.911c-0.578-0.607-0.866-1.459-0.866-2.555c0-1.134,0.291-2.015,0.875-2.641s1.342-0.939,2.273-0.939
		c0.9,0,1.637,0.307,2.209,0.921c0.57,0.613,0.856,1.477,0.856,2.59c0,0.067-0.002,0.169-0.007,0.305h-5.027
		c0.043,0.74,0.252,1.307,0.629,1.701c0.377,0.393,0.847,0.59,1.409,0.59c0.419,0,0.776-0.11,1.073-0.33
		C74.856,80.385,75.091,80.033,75.265,79.551z M71.514,77.704h3.764c-0.051-0.567-0.194-0.993-0.432-1.276
		c-0.364-0.44-0.836-0.66-1.416-0.66c-0.524,0-0.966,0.176-1.323,0.526C71.749,76.645,71.551,77.115,71.514,77.704z"/>
	<path d="M77.856,81.722v-9.306h1.143v9.306H77.856z"/>
	<path d="M84.381,84.306V74.98h1.041v0.876c0.245-0.343,0.522-0.6,0.831-0.771c0.309-0.171,0.684-0.257,1.124-0.257
		c0.575,0,1.083,0.148,1.523,0.444c0.439,0.296,0.771,0.714,0.996,1.254c0.225,0.539,0.336,1.131,0.336,1.773
		c0,0.69-0.123,1.312-0.371,1.863c-0.247,0.553-0.607,0.976-1.079,1.27s-0.968,0.441-1.488,0.441c-0.381,0-0.723-0.08-1.025-0.241
		s-0.551-0.364-0.745-0.609v3.282H84.381z M85.415,78.39c0,0.867,0.176,1.508,0.526,1.923c0.352,0.415,0.777,0.622,1.276,0.622
		c0.508,0,0.942-0.215,1.305-0.645c0.361-0.43,0.542-1.095,0.542-1.996c0-0.859-0.176-1.502-0.529-1.93s-0.775-0.641-1.267-0.641
		c-0.486,0-0.917,0.227-1.292,0.682C85.603,76.86,85.415,77.521,85.415,78.39z"/>
	<path d="M91.598,81.722V74.98h1.029v1.022c0.262-0.479,0.504-0.794,0.727-0.946c0.222-0.152,0.467-0.229,0.732-0.229
		c0.386,0,0.777,0.123,1.175,0.368l-0.394,1.061c-0.279-0.166-0.559-0.248-0.838-0.248c-0.25,0-0.474,0.075-0.673,0.226
		s-0.341,0.358-0.425,0.625c-0.127,0.406-0.191,0.851-0.191,1.333v3.529H91.598z"/>
	<path d="M95.515,78.351c0-1.248,0.347-2.173,1.041-2.773c0.58-0.499,1.286-0.749,2.12-0.749c0.927,0,1.685,0.304,2.272,0.911
		s0.883,1.446,0.883,2.517c0,0.867-0.131,1.55-0.391,2.047c-0.261,0.497-0.64,0.884-1.137,1.159
		c-0.497,0.274-1.04,0.412-1.628,0.412c-0.943,0-1.706-0.303-2.288-0.908C95.806,80.361,95.515,79.489,95.515,78.351z
		 M96.689,78.351c0,0.863,0.188,1.51,0.565,1.939s0.851,0.645,1.422,0.645c0.567,0,1.039-0.216,1.415-0.647
		c0.377-0.432,0.565-1.09,0.565-1.974c0-0.834-0.189-1.466-0.568-1.896s-0.85-0.644-1.412-0.644c-0.571,0-1.045,0.213-1.422,0.641
		S96.689,77.487,96.689,78.351z"/>
	<path d="M107.568,79.253l1.123,0.146c-0.122,0.774-0.437,1.381-0.942,1.818c-0.506,0.438-1.126,0.657-1.862,0.657
		c-0.923,0-1.665-0.302-2.226-0.904c-0.561-0.604-0.841-1.468-0.841-2.594c0-0.728,0.121-1.364,0.361-1.91
		c0.242-0.546,0.608-0.955,1.102-1.229c0.493-0.272,1.029-0.409,1.609-0.409c0.732,0,1.331,0.186,1.797,0.556
		c0.465,0.37,0.764,0.896,0.895,1.577l-1.111,0.171c-0.105-0.452-0.293-0.793-0.562-1.021s-0.593-0.343-0.974-0.343
		c-0.576,0-1.044,0.206-1.403,0.619c-0.359,0.412-0.54,1.065-0.54,1.958c0,0.905,0.174,1.563,0.521,1.975
		c0.347,0.41,0.799,0.615,1.357,0.615c0.449,0,0.823-0.138,1.124-0.412C107.298,80.247,107.488,79.823,107.568,79.253z"/>
	<path d="M114.284,79.551l1.181,0.146c-0.187,0.69-0.531,1.226-1.035,1.606c-0.503,0.381-1.146,0.571-1.93,0.571
		c-0.985,0-1.768-0.304-2.345-0.911c-0.578-0.607-0.866-1.459-0.866-2.555c0-1.134,0.291-2.015,0.875-2.641s1.342-0.939,2.273-0.939
		c0.9,0,1.637,0.307,2.209,0.921c0.57,0.613,0.856,1.477,0.856,2.59c0,0.067-0.002,0.169-0.007,0.305h-5.027
		c0.043,0.74,0.252,1.307,0.629,1.701c0.377,0.393,0.847,0.59,1.409,0.59c0.419,0,0.776-0.11,1.073-0.33
		C113.876,80.385,114.11,80.033,114.284,79.551z M110.533,77.704h3.764c-0.051-0.567-0.194-0.993-0.432-1.276
		c-0.364-0.44-0.836-0.66-1.416-0.66c-0.524,0-0.966,0.176-1.323,0.526C110.769,76.645,110.57,77.115,110.533,77.704z"/>
	<path d="M116.443,79.71l1.129-0.178c0.064,0.452,0.24,0.799,0.53,1.041c0.29,0.24,0.695,0.361,1.216,0.361
		c0.524,0,0.914-0.106,1.168-0.32s0.381-0.465,0.381-0.752c0-0.259-0.112-0.462-0.336-0.609c-0.157-0.102-0.547-0.231-1.168-0.388
		c-0.838-0.212-1.419-0.395-1.743-0.549c-0.323-0.154-0.569-0.368-0.736-0.642c-0.167-0.272-0.251-0.574-0.251-0.904
		c0-0.301,0.069-0.579,0.207-0.835s0.324-0.469,0.562-0.638c0.178-0.131,0.42-0.242,0.727-0.333s0.636-0.137,0.987-0.137
		c0.529,0,0.993,0.076,1.394,0.229c0.399,0.152,0.694,0.358,0.886,0.619c0.189,0.26,0.321,0.608,0.393,1.044l-1.117,0.152
		c-0.051-0.347-0.197-0.618-0.44-0.813s-0.587-0.292-1.032-0.292c-0.524,0-0.898,0.087-1.123,0.261
		c-0.225,0.173-0.336,0.376-0.336,0.609c0,0.147,0.046,0.281,0.139,0.399c0.094,0.123,0.239,0.225,0.438,0.305
		c0.114,0.042,0.45,0.14,1.009,0.292c0.809,0.216,1.373,0.393,1.692,0.53s0.57,0.337,0.752,0.6s0.272,0.588,0.272,0.978
		c0,0.381-0.11,0.739-0.333,1.076c-0.222,0.336-0.542,0.597-0.962,0.78c-0.418,0.185-0.893,0.276-1.422,0.276
		c-0.875,0-1.543-0.182-2.002-0.546S116.57,80.425,116.443,79.71z"/>
	<path d="M122.975,78.351c0-1.248,0.347-2.173,1.041-2.773c0.58-0.499,1.286-0.749,2.12-0.749c0.927,0,1.685,0.304,2.272,0.911
		c0.588,0.607,0.883,1.446,0.883,2.517c0,0.867-0.131,1.55-0.391,2.047c-0.261,0.497-0.64,0.884-1.137,1.159
		c-0.497,0.274-1.04,0.412-1.628,0.412c-0.943,0-1.706-0.303-2.288-0.908C123.266,80.361,122.975,79.489,122.975,78.351z
		 M124.148,78.351c0,0.863,0.188,1.51,0.565,1.939s0.851,0.645,1.422,0.645c0.567,0,1.039-0.216,1.415-0.647
		c0.377-0.432,0.565-1.09,0.565-1.974c0-0.834-0.189-1.466-0.568-1.896s-0.85-0.644-1.412-0.644c-0.571,0-1.045,0.213-1.422,0.641
		S124.148,77.487,124.148,78.351z"/>
	<path d="M138.615,81.722v-0.851c-0.428,0.669-1.056,1.003-1.885,1.003c-0.538,0-1.032-0.148-1.482-0.444
		c-0.451-0.296-0.8-0.71-1.048-1.241c-0.247-0.531-0.371-1.142-0.371-1.831c0-0.673,0.112-1.283,0.337-1.831
		c0.224-0.548,0.561-0.969,1.009-1.26c0.448-0.293,0.95-0.438,1.505-0.438c0.406,0,0.768,0.086,1.085,0.257
		c0.317,0.172,0.575,0.395,0.774,0.67v-3.339h1.137v9.306H138.615z M135.004,78.357c0,0.863,0.182,1.509,0.545,1.937
		c0.364,0.427,0.794,0.641,1.289,0.641c0.499,0,0.924-0.204,1.272-0.612c0.35-0.408,0.524-1.032,0.524-1.87
		c0-0.922-0.178-1.6-0.533-2.031s-0.794-0.646-1.314-0.646c-0.508,0-0.932,0.207-1.272,0.621
		C135.174,76.811,135.004,77.465,135.004,78.357z"/>
	<path d="M146.087,79.551l1.181,0.146c-0.187,0.69-0.531,1.226-1.035,1.606c-0.503,0.381-1.146,0.571-1.93,0.571
		c-0.985,0-1.768-0.304-2.345-0.911c-0.578-0.607-0.866-1.459-0.866-2.555c0-1.134,0.291-2.015,0.875-2.641s1.342-0.939,2.273-0.939
		c0.9,0,1.637,0.307,2.209,0.921c0.57,0.613,0.856,1.477,0.856,2.59c0,0.067-0.002,0.169-0.007,0.305h-5.027
		c0.043,0.74,0.252,1.307,0.629,1.701c0.377,0.393,0.847,0.59,1.409,0.59c0.419,0,0.776-0.11,1.073-0.33
		C145.679,80.385,145.913,80.033,146.087,79.551z M142.336,77.704h3.764c-0.051-0.567-0.194-0.993-0.432-1.276
		c-0.364-0.44-0.836-0.66-1.416-0.66c-0.524,0-0.966,0.176-1.323,0.526C142.571,76.645,142.373,77.115,142.336,77.704z"/>
	<path d="M152.314,84.306V74.98h1.041v0.876c0.245-0.343,0.522-0.6,0.831-0.771c0.309-0.171,0.684-0.257,1.124-0.257
		c0.575,0,1.083,0.148,1.523,0.444c0.439,0.296,0.771,0.714,0.996,1.254c0.225,0.539,0.336,1.131,0.336,1.773
		c0,0.69-0.123,1.312-0.371,1.863c-0.247,0.553-0.607,0.976-1.079,1.27s-0.968,0.441-1.488,0.441c-0.381,0-0.723-0.08-1.025-0.241
		s-0.551-0.364-0.745-0.609v3.282H152.314z M153.349,78.39c0,0.867,0.176,1.508,0.526,1.923c0.352,0.415,0.777,0.622,1.276,0.622
		c0.508,0,0.942-0.215,1.305-0.645c0.361-0.43,0.542-1.095,0.542-1.996c0-0.859-0.176-1.502-0.529-1.93s-0.775-0.641-1.267-0.641
		c-0.486,0-0.917,0.227-1.292,0.682C153.536,76.86,153.349,77.521,153.349,78.39z"/>
	<path d="M159.52,81.722v-9.306h1.143v9.306H159.52z"/>
	<path d="M166.832,80.89c-0.423,0.36-0.83,0.614-1.222,0.762c-0.392,0.148-0.812,0.223-1.261,0.223c-0.74,0-1.31-0.181-1.707-0.543
		c-0.397-0.361-0.597-0.824-0.597-1.387c0-0.33,0.075-0.632,0.226-0.904c0.15-0.273,0.347-0.492,0.59-0.657s0.518-0.29,0.822-0.374
		c0.225-0.06,0.563-0.117,1.016-0.172c0.923-0.11,1.602-0.241,2.037-0.394c0.005-0.156,0.007-0.256,0.007-0.298
		c0-0.466-0.108-0.794-0.323-0.984c-0.293-0.258-0.727-0.387-1.302-0.387c-0.537,0-0.935,0.094-1.19,0.282s-0.445,0.521-0.568,0.999
		l-1.117-0.152c0.102-0.478,0.27-0.864,0.502-1.158s0.569-0.521,1.01-0.679c0.439-0.159,0.949-0.238,1.529-0.238
		c0.575,0,1.043,0.067,1.402,0.203c0.36,0.136,0.625,0.306,0.794,0.511s0.288,0.465,0.355,0.777
		c0.038,0.195,0.058,0.547,0.058,1.055v1.523c0,1.062,0.023,1.733,0.072,2.015s0.146,0.552,0.289,0.81h-1.193
		C166.942,81.484,166.866,81.208,166.832,80.89z M166.736,78.339c-0.414,0.169-1.036,0.313-1.865,0.432
		c-0.471,0.067-0.803,0.144-0.997,0.229c-0.194,0.084-0.345,0.208-0.45,0.371c-0.106,0.163-0.159,0.344-0.159,0.543
		c0,0.305,0.115,0.559,0.346,0.762s0.568,0.305,1.013,0.305c0.44,0,0.832-0.097,1.174-0.289c0.344-0.192,0.595-0.456,0.756-0.791
		c0.123-0.258,0.184-0.639,0.184-1.143V78.339z"/>
	<path d="M169.664,81.722V74.98h1.027v0.958c0.496-0.74,1.211-1.11,2.146-1.11c0.406,0,0.779,0.073,1.12,0.219
		c0.341,0.146,0.596,0.338,0.765,0.575c0.169,0.236,0.288,0.518,0.355,0.844c0.042,0.212,0.063,0.582,0.063,1.111v4.145h-1.143
		v-4.101c0-0.466-0.044-0.813-0.134-1.044c-0.088-0.23-0.246-0.415-0.473-0.553s-0.492-0.206-0.797-0.206
		c-0.486,0-0.906,0.154-1.26,0.464c-0.354,0.309-0.529,0.895-0.529,1.758v3.682H169.664z"/>
	<path d="M176.9,73.729v-1.313h1.143v1.313H176.9z M176.9,81.722V74.98h1.143v6.741H176.9z"/>
	<path d="M180.056,81.722v-5.853h-1.009V74.98h1.009v-0.718c0-0.452,0.04-0.789,0.12-1.009c0.11-0.296,0.304-0.536,0.581-0.721
		c0.277-0.184,0.666-0.276,1.165-0.276c0.321,0,0.677,0.039,1.066,0.115l-0.172,0.996c-0.236-0.042-0.461-0.063-0.672-0.063
		c-0.348,0-0.593,0.074-0.736,0.222c-0.145,0.148-0.217,0.426-0.217,0.832v0.622h1.314v0.889h-1.314v5.853H180.056z"/>
	<path d="M183.4,73.729v-1.313h1.143v1.313H183.4z M183.4,81.722V74.98h1.143v6.741H183.4z"/>
	<path d="M190.682,79.253l1.123,0.146c-0.122,0.774-0.437,1.381-0.942,1.818c-0.506,0.438-1.126,0.657-1.862,0.657
		c-0.923,0-1.665-0.302-2.226-0.904c-0.561-0.604-0.841-1.468-0.841-2.594c0-0.728,0.121-1.364,0.361-1.91
		c0.242-0.546,0.608-0.955,1.102-1.229c0.493-0.272,1.029-0.409,1.609-0.409c0.732,0,1.331,0.186,1.797,0.556
		c0.465,0.37,0.764,0.896,0.895,1.577l-1.111,0.171c-0.105-0.452-0.293-0.793-0.562-1.021s-0.593-0.343-0.974-0.343
		c-0.576,0-1.044,0.206-1.403,0.619c-0.359,0.412-0.54,1.065-0.54,1.958c0,0.905,0.174,1.563,0.521,1.975
		c0.347,0.41,0.799,0.615,1.357,0.615c0.449,0,0.823-0.138,1.124-0.412C190.411,80.247,190.602,79.823,190.682,79.253z"/>
	<path d="M197.182,80.89c-0.423,0.36-0.83,0.614-1.222,0.762c-0.392,0.148-0.812,0.223-1.261,0.223c-0.74,0-1.31-0.181-1.707-0.543
		c-0.397-0.361-0.597-0.824-0.597-1.387c0-0.33,0.075-0.632,0.226-0.904c0.15-0.273,0.347-0.492,0.59-0.657s0.518-0.29,0.822-0.374
		c0.225-0.06,0.563-0.117,1.016-0.172c0.923-0.11,1.602-0.241,2.037-0.394c0.005-0.156,0.007-0.256,0.007-0.298
		c0-0.466-0.108-0.794-0.323-0.984c-0.293-0.258-0.727-0.387-1.302-0.387c-0.537,0-0.935,0.094-1.19,0.282s-0.445,0.521-0.568,0.999
		l-1.117-0.152c0.102-0.478,0.27-0.864,0.502-1.158s0.569-0.521,1.01-0.679c0.439-0.159,0.949-0.238,1.529-0.238
		c0.575,0,1.043,0.067,1.402,0.203c0.36,0.136,0.625,0.306,0.794,0.511s0.288,0.465,0.355,0.777
		c0.038,0.195,0.058,0.547,0.058,1.055v1.523c0,1.062,0.023,1.733,0.072,2.015s0.146,0.552,0.289,0.81h-1.193
		C197.292,81.484,197.216,81.208,197.182,80.89z M197.086,78.339c-0.414,0.169-1.036,0.313-1.865,0.432
		c-0.471,0.067-0.803,0.144-0.997,0.229c-0.194,0.084-0.345,0.208-0.45,0.371c-0.106,0.163-0.159,0.344-0.159,0.543
		c0,0.305,0.115,0.559,0.346,0.762s0.568,0.305,1.013,0.305c0.44,0,0.832-0.097,1.174-0.289c0.344-0.192,0.595-0.456,0.756-0.791
		c0.123-0.258,0.184-0.639,0.184-1.143V78.339z"/>
	<path d="M204.412,79.253l1.123,0.146c-0.122,0.774-0.437,1.381-0.942,1.818c-0.506,0.438-1.126,0.657-1.862,0.657
		c-0.923,0-1.665-0.302-2.226-0.904c-0.561-0.604-0.841-1.468-0.841-2.594c0-0.728,0.121-1.364,0.361-1.91
		c0.242-0.546,0.608-0.955,1.102-1.229c0.493-0.272,1.029-0.409,1.609-0.409c0.732,0,1.331,0.186,1.797,0.556
		c0.465,0.37,0.764,0.896,0.895,1.577l-1.111,0.171c-0.105-0.452-0.293-0.793-0.562-1.021s-0.593-0.343-0.974-0.343
		c-0.576,0-1.044,0.206-1.403,0.619c-0.359,0.412-0.54,1.065-0.54,1.958c0,0.905,0.174,1.563,0.521,1.975
		c0.347,0.41,0.799,0.615,1.357,0.615c0.449,0,0.823-0.138,1.124-0.412C204.142,80.247,204.332,79.823,204.412,79.253z"/>
	<path d="M206.52,73.729v-1.313h1.143v1.313H206.52z M206.52,81.722V74.98h1.143v6.741H206.52z"/>
	<path d="M208.977,78.351c0-1.248,0.347-2.173,1.041-2.773c0.58-0.499,1.286-0.749,2.12-0.749c0.927,0,1.685,0.304,2.272,0.911
		s0.883,1.446,0.883,2.517c0,0.867-0.131,1.55-0.391,2.047c-0.261,0.497-0.64,0.884-1.137,1.159
		c-0.497,0.274-1.04,0.412-1.628,0.412c-0.943,0-1.706-0.303-2.288-0.908C209.268,80.361,208.977,79.489,208.977,78.351z
		 M210.15,78.351c0,0.863,0.188,1.51,0.565,1.939s0.851,0.645,1.422,0.645c0.567,0,1.039-0.216,1.415-0.647
		c0.377-0.432,0.565-1.09,0.565-1.974c0-0.834-0.189-1.466-0.568-1.896s-0.85-0.644-1.412-0.644c-0.571,0-1.045,0.213-1.422,0.641
		S210.15,77.487,210.15,78.351z M211.503,74.143l0.845-1.777h1.498l-1.396,1.777H211.503z"/>
	<path d="M216.633,81.722V74.98h1.027v0.958c0.496-0.74,1.211-1.11,2.146-1.11c0.406,0,0.779,0.073,1.12,0.219
		c0.341,0.146,0.596,0.338,0.765,0.575c0.169,0.236,0.288,0.518,0.355,0.844c0.042,0.212,0.063,0.582,0.063,1.111v4.145h-1.143
		v-4.101c0-0.466-0.044-0.813-0.134-1.044c-0.088-0.23-0.246-0.415-0.473-0.553s-0.492-0.206-0.797-0.206
		c-0.486,0-0.906,0.154-1.26,0.464c-0.354,0.309-0.529,0.895-0.529,1.758v3.682H216.633z"/>
	<path d="M231.848,81.722v-0.851c-0.428,0.669-1.056,1.003-1.885,1.003c-0.538,0-1.032-0.148-1.482-0.444
		c-0.451-0.296-0.8-0.71-1.048-1.241c-0.247-0.531-0.371-1.142-0.371-1.831c0-0.673,0.112-1.283,0.337-1.831
		c0.224-0.548,0.561-0.969,1.009-1.26c0.448-0.293,0.95-0.438,1.505-0.438c0.406,0,0.768,0.086,1.085,0.257
		c0.317,0.172,0.575,0.395,0.774,0.67v-3.339h1.137v9.306H231.848z M228.236,78.357c0,0.863,0.182,1.509,0.545,1.937
		c0.364,0.427,0.794,0.641,1.289,0.641c0.499,0,0.924-0.204,1.272-0.612c0.35-0.408,0.524-1.032,0.524-1.87
		c0-0.922-0.178-1.6-0.533-2.031s-0.794-0.646-1.314-0.646c-0.508,0-0.932,0.207-1.272,0.621
		C228.406,76.811,228.236,77.465,228.236,78.357z"/>
	<path d="M239.319,79.551l1.181,0.146c-0.187,0.69-0.531,1.226-1.035,1.606c-0.503,0.381-1.146,0.571-1.93,0.571
		c-0.985,0-1.768-0.304-2.345-0.911c-0.578-0.607-0.866-1.459-0.866-2.555c0-1.134,0.291-2.015,0.875-2.641s1.342-0.939,2.273-0.939
		c0.9,0,1.637,0.307,2.209,0.921c0.57,0.613,0.856,1.477,0.856,2.59c0,0.067-0.002,0.169-0.007,0.305h-5.027
		c0.043,0.74,0.252,1.307,0.629,1.701c0.377,0.393,0.847,0.59,1.409,0.59c0.419,0,0.776-0.11,1.073-0.33
		C238.911,80.385,239.146,80.033,239.319,79.551z M235.568,77.704h3.764c-0.051-0.567-0.194-0.993-0.432-1.276
		c-0.364-0.44-0.836-0.66-1.416-0.66c-0.524,0-0.966,0.176-1.323,0.526C235.804,76.645,235.606,77.115,235.568,77.704z"/>
	<path d="M241.91,81.722v-9.306h1.143v9.306H241.91z"/>
	<path d="M252.809,81.722v-0.851c-0.428,0.669-1.056,1.003-1.885,1.003c-0.538,0-1.032-0.148-1.482-0.444
		c-0.451-0.296-0.8-0.71-1.048-1.241c-0.247-0.531-0.371-1.142-0.371-1.831c0-0.673,0.112-1.283,0.337-1.831
		c0.224-0.548,0.561-0.969,1.009-1.26c0.448-0.293,0.95-0.438,1.505-0.438c0.406,0,0.768,0.086,1.085,0.257
		c0.317,0.172,0.575,0.395,0.774,0.67v-3.339h1.137v9.306H252.809z M249.197,78.357c0,0.863,0.182,1.509,0.545,1.937
		c0.364,0.427,0.794,0.641,1.289,0.641c0.499,0,0.924-0.204,1.272-0.612c0.35-0.408,0.524-1.032,0.524-1.87
		c0-0.922-0.178-1.6-0.533-2.031s-0.794-0.646-1.314-0.646c-0.508,0-0.932,0.207-1.272,0.621
		C249.367,76.811,249.197,77.465,249.197,78.357z"/>
	<path d="M260.28,79.551l1.181,0.146c-0.187,0.69-0.531,1.226-1.035,1.606c-0.503,0.381-1.146,0.571-1.93,0.571
		c-0.985,0-1.768-0.304-2.345-0.911c-0.578-0.607-0.866-1.459-0.866-2.555c0-1.134,0.291-2.015,0.875-2.641
		c0.584-0.626,1.342-0.939,2.273-0.939c0.9,0,1.637,0.307,2.209,0.921c0.57,0.613,0.856,1.477,0.856,2.59
		c0,0.067-0.002,0.169-0.007,0.305h-5.027c0.043,0.74,0.252,1.307,0.629,1.701c0.377,0.393,0.847,0.59,1.409,0.59
		c0.419,0,0.776-0.11,1.073-0.33C259.872,80.385,260.106,80.033,260.28,79.551z M256.529,77.704h3.764
		c-0.051-0.567-0.194-0.993-0.432-1.276c-0.364-0.44-0.836-0.66-1.416-0.66c-0.524,0-0.966,0.176-1.323,0.526
		C256.765,76.645,256.566,77.115,256.529,77.704z"/>
	<path d="M262.439,79.71l1.129-0.178c0.064,0.452,0.24,0.799,0.53,1.041c0.29,0.24,0.695,0.361,1.216,0.361
		c0.524,0,0.914-0.106,1.168-0.32s0.381-0.465,0.381-0.752c0-0.259-0.112-0.462-0.336-0.609c-0.157-0.102-0.547-0.231-1.168-0.388
		c-0.838-0.212-1.419-0.395-1.743-0.549c-0.323-0.154-0.569-0.368-0.736-0.642c-0.167-0.272-0.251-0.574-0.251-0.904
		c0-0.301,0.069-0.579,0.207-0.835s0.324-0.469,0.562-0.638c0.178-0.131,0.42-0.242,0.727-0.333s0.636-0.137,0.987-0.137
		c0.529,0,0.993,0.076,1.394,0.229c0.399,0.152,0.694,0.358,0.886,0.619c0.189,0.26,0.321,0.608,0.393,1.044l-1.117,0.152
		c-0.051-0.347-0.197-0.618-0.44-0.813s-0.587-0.292-1.032-0.292c-0.524,0-0.898,0.087-1.123,0.261
		c-0.225,0.173-0.336,0.376-0.336,0.609c0,0.147,0.046,0.281,0.139,0.399c0.094,0.123,0.239,0.225,0.438,0.305
		c0.114,0.042,0.45,0.14,1.009,0.292c0.809,0.216,1.373,0.393,1.692,0.53s0.57,0.337,0.752,0.6s0.272,0.588,0.272,0.978
		c0,0.381-0.11,0.739-0.333,1.076c-0.222,0.336-0.542,0.597-0.962,0.78c-0.418,0.185-0.893,0.276-1.422,0.276
		c-0.875,0-1.543-0.182-2.002-0.546S262.566,80.425,262.439,79.71z"/>
	<path d="M273.795,80.89c-0.423,0.36-0.83,0.614-1.222,0.762c-0.392,0.148-0.812,0.223-1.261,0.223c-0.74,0-1.31-0.181-1.707-0.543
		c-0.397-0.361-0.597-0.824-0.597-1.387c0-0.33,0.075-0.632,0.226-0.904c0.15-0.273,0.347-0.492,0.59-0.657s0.518-0.29,0.822-0.374
		c0.225-0.06,0.563-0.117,1.016-0.172c0.923-0.11,1.602-0.241,2.037-0.394c0.005-0.156,0.007-0.256,0.007-0.298
		c0-0.466-0.108-0.794-0.323-0.984c-0.293-0.258-0.727-0.387-1.302-0.387c-0.537,0-0.935,0.094-1.19,0.282s-0.445,0.521-0.568,0.999
		l-1.117-0.152c0.102-0.478,0.27-0.864,0.502-1.158s0.569-0.521,1.01-0.679c0.439-0.159,0.949-0.238,1.529-0.238
		c0.575,0,1.043,0.067,1.402,0.203c0.36,0.136,0.625,0.306,0.794,0.511s0.288,0.465,0.355,0.777
		c0.038,0.195,0.058,0.547,0.058,1.055v1.523c0,1.062,0.023,1.733,0.072,2.015s0.146,0.552,0.289,0.81h-1.193
		C273.905,81.484,273.829,81.208,273.795,80.89z M273.699,78.339c-0.414,0.169-1.036,0.313-1.865,0.432
		c-0.471,0.067-0.803,0.144-0.997,0.229c-0.194,0.084-0.345,0.208-0.45,0.371c-0.106,0.163-0.159,0.344-0.159,0.543
		c0,0.305,0.115,0.559,0.346,0.762s0.568,0.305,1.013,0.305c0.44,0,0.832-0.097,1.174-0.289c0.344-0.192,0.595-0.456,0.756-0.791
		c0.123-0.258,0.184-0.639,0.184-1.143V78.339z"/>
	<path d="M276.613,81.722V74.98h1.029v1.022c0.262-0.479,0.504-0.794,0.727-0.946c0.222-0.152,0.467-0.229,0.732-0.229
		c0.386,0,0.777,0.123,1.175,0.368l-0.394,1.061c-0.279-0.166-0.559-0.248-0.838-0.248c-0.25,0-0.474,0.075-0.673,0.226
		s-0.341,0.358-0.425,0.625c-0.127,0.406-0.191,0.851-0.191,1.333v3.529H276.613z"/>
	<path d="M280.942,81.722V74.98h1.029v1.022c0.262-0.479,0.504-0.794,0.727-0.946c0.222-0.152,0.467-0.229,0.732-0.229
		c0.386,0,0.777,0.123,1.175,0.368l-0.394,1.061c-0.279-0.166-0.559-0.248-0.838-0.248c-0.25,0-0.474,0.075-0.673,0.226
		s-0.341,0.358-0.425,0.625c-0.127,0.406-0.191,0.851-0.191,1.333v3.529H280.942z"/>
	<path d="M284.859,78.351c0-1.248,0.347-2.173,1.041-2.773c0.58-0.499,1.286-0.749,2.12-0.749c0.927,0,1.685,0.304,2.272,0.911
		s0.883,1.446,0.883,2.517c0,0.867-0.131,1.55-0.391,2.047c-0.261,0.497-0.64,0.884-1.137,1.159
		c-0.497,0.274-1.04,0.412-1.628,0.412c-0.943,0-1.706-0.303-2.288-0.908C285.15,80.361,284.859,79.489,284.859,78.351z
		 M286.033,78.351c0,0.863,0.188,1.51,0.565,1.939s0.851,0.645,1.422,0.645c0.567,0,1.039-0.216,1.415-0.647
		c0.377-0.432,0.565-1.09,0.565-1.974c0-0.834-0.189-1.466-0.568-1.896s-0.85-0.644-1.412-0.644c-0.571,0-1.045,0.213-1.422,0.641
		S286.033,77.487,286.033,78.351z"/>
	<path d="M292.49,81.722v-9.306h1.143v9.306H292.49z"/>
	<path d="M295.379,81.722v-9.306h1.143v9.306H295.379z"/>
	<path d="M297.867,78.351c0-1.248,0.347-2.173,1.041-2.773c0.58-0.499,1.286-0.749,2.12-0.749c0.927,0,1.685,0.304,2.272,0.911
		s0.883,1.446,0.883,2.517c0,0.867-0.131,1.55-0.391,2.047c-0.261,0.497-0.64,0.884-1.137,1.159
		c-0.497,0.274-1.04,0.412-1.628,0.412c-0.943,0-1.706-0.303-2.288-0.908C298.158,80.361,297.867,79.489,297.867,78.351z
		 M299.041,78.351c0,0.863,0.188,1.51,0.565,1.939s0.851,0.645,1.422,0.645c0.567,0,1.039-0.216,1.415-0.647
		c0.377-0.432,0.565-1.09,0.565-1.974c0-0.834-0.189-1.466-0.568-1.896s-0.85-0.644-1.412-0.644c-0.571,0-1.045,0.213-1.422,0.641
		S299.041,77.487,299.041,78.351z"/>
	<path d="M305.847,81.722v-1.301h1.302v1.301H305.847z"/>
</g>
<g>
	<path class="st4" d="M11.974,17.267c0-1.094,0.163-2.012,0.49-2.754c0.244-0.547,0.577-1.037,1-1.473
		c0.422-0.434,0.885-0.756,1.388-0.967c0.669-0.282,1.44-0.424,2.314-0.424c1.582,0,2.848,0.49,3.798,1.472
		c0.949,0.981,1.424,2.347,1.424,4.095c0,1.733-0.471,3.089-1.413,4.068c-0.942,0.979-2.202,1.469-3.779,1.469
		c-1.597,0-2.866-0.487-3.809-1.462C12.444,20.317,11.974,18.976,11.974,17.267z M14.207,17.193c0,1.216,0.28,2.138,0.843,2.765
		c0.561,0.628,1.273,0.941,2.139,0.941c0.863,0,1.573-0.312,2.127-0.934c0.555-0.623,0.832-1.557,0.832-2.802
		c0-1.23-0.271-2.148-0.81-2.754c-0.54-0.605-1.257-0.908-2.149-0.908c-0.895,0-1.614,0.307-2.161,0.919
		C14.481,15.034,14.207,15.958,14.207,17.193z"/>
	<path class="st4" d="M23.977,22.569V11.832h2.059v3.867c0.635-0.723,1.387-1.084,2.256-1.084c0.947,0,1.73,0.343,2.352,1.029
		c0.619,0.686,0.93,1.671,0.93,2.955c0,1.328-0.316,2.351-0.948,3.069c-0.633,0.717-1.4,1.076-2.304,1.076
		c-0.444,0-0.883-0.111-1.314-0.333c-0.433-0.223-0.805-0.551-1.117-0.985v1.143H23.977z M26.021,18.512
		c0,0.806,0.127,1.401,0.381,1.787c0.356,0.547,0.83,0.82,1.421,0.82c0.454,0,0.841-0.194,1.161-0.582
		c0.319-0.389,0.479-1,0.479-1.835c0-0.889-0.161-1.529-0.483-1.923c-0.322-0.393-0.735-0.589-1.237-0.589
		c-0.494,0-0.904,0.191-1.23,0.574C26.184,17.148,26.021,17.73,26.021,18.512z"/>
	<path class="st4" d="M35.241,14.791v7.536c0,0.991-0.064,1.691-0.194,2.099c-0.129,0.408-0.378,0.727-0.747,0.956
		c-0.368,0.229-0.839,0.344-1.409,0.344c-0.205,0-0.427-0.018-0.663-0.055c-0.237-0.036-0.492-0.092-0.766-0.164l0.358-1.758
		c0.099,0.019,0.189,0.035,0.275,0.047c0.085,0.013,0.164,0.019,0.238,0.019c0.209,0,0.382-0.045,0.516-0.136
		c0.135-0.09,0.224-0.199,0.268-0.326s0.066-0.508,0.066-1.143v-7.419H35.241z M33.184,13.736v-1.904h2.058v1.904H33.184z"/>
	<path class="st4" d="M41.899,20.094l2.051,0.345c-0.264,0.752-0.68,1.324-1.249,1.717c-0.568,0.394-1.28,0.59-2.135,0.59
		c-1.353,0-2.354-0.441-3.003-1.326c-0.513-0.707-0.769-1.601-0.769-2.68c0-1.289,0.336-2.299,1.01-3.029
		c0.674-0.729,1.526-1.095,2.557-1.095c1.157,0,2.07,0.382,2.739,1.146c0.669,0.764,0.989,1.935,0.96,3.512h-5.156
		c0.014,0.61,0.18,1.085,0.498,1.425c0.316,0.339,0.712,0.509,1.186,0.509c0.322,0,0.594-0.088,0.813-0.264
		S41.787,20.484,41.899,20.094z M42.017,18.014c-0.015-0.596-0.169-1.049-0.462-1.358c-0.293-0.311-0.649-0.465-1.068-0.465
		c-0.45,0-0.82,0.163-1.113,0.49s-0.438,0.771-0.433,1.333H42.017z"/>
	<path class="st4" d="M49.304,14.791v1.641h-1.406v3.135c0,0.635,0.014,1.005,0.04,1.109c0.027,0.105,0.088,0.192,0.184,0.261
		c0.095,0.068,0.211,0.102,0.348,0.102c0.19,0,0.466-0.065,0.828-0.197l0.176,1.597c-0.479,0.205-1.021,0.308-1.627,0.308
		c-0.371,0-0.705-0.063-1.003-0.187c-0.298-0.125-0.517-0.286-0.655-0.483c-0.14-0.198-0.236-0.465-0.289-0.803
		c-0.045-0.238-0.066-0.722-0.066-1.449v-3.392h-0.945v-1.641h0.945v-1.546l2.065-1.201v2.747H49.304z"/>
	<path class="st4" d="M50.731,13.736v-1.904h2.059v1.904H50.731z M50.731,22.569v-7.778h2.059v7.778H50.731z"/>
	<path class="st4" d="M57.037,22.569l-3.135-7.778h2.161l1.465,3.97l0.425,1.326c0.112-0.338,0.184-0.56,0.213-0.667
		c0.067-0.22,0.141-0.439,0.219-0.659l1.48-3.97h2.116l-3.091,7.778H57.037z"/>
	<path class="st4" d="M63.24,13.736v-1.904h2.059v1.904H63.24z M63.24,22.569v-7.778h2.059v7.778H63.24z"/>
	<path class="st4" d="M74.543,22.569h-1.912v-1.143c-0.317,0.444-0.692,0.775-1.124,0.992c-0.433,0.218-0.868,0.326-1.308,0.326
		c-0.894,0-1.659-0.36-2.296-1.08c-0.638-0.721-0.956-1.725-0.956-3.014c0-1.318,0.31-2.321,0.93-3.007
		c0.62-0.687,1.404-1.029,2.352-1.029c0.869,0,1.621,0.361,2.256,1.084v-3.867h2.059V22.569z M69.049,18.512
		c0,0.83,0.115,1.431,0.345,1.802c0.332,0.537,0.796,0.806,1.392,0.806c0.474,0,0.876-0.201,1.209-0.604
		c0.331-0.402,0.498-1.004,0.498-1.805c0-0.895-0.162-1.537-0.484-1.931c-0.322-0.393-0.734-0.589-1.237-0.589
		c-0.488,0-0.897,0.193-1.227,0.582C69.214,17.16,69.049,17.74,69.049,18.512z"/>
	<path class="st4" d="M78.109,17.164l-1.868-0.337c0.21-0.752,0.571-1.309,1.084-1.67s1.274-0.542,2.285-0.542
		c0.918,0,1.602,0.108,2.051,0.326c0.449,0.217,0.766,0.493,0.948,0.827c0.184,0.335,0.275,0.949,0.275,1.842l-0.022,2.402
		c0,0.685,0.033,1.188,0.099,1.513c0.066,0.325,0.189,0.673,0.37,1.044h-2.036c-0.054-0.137-0.12-0.339-0.197-0.607
		c-0.035-0.122-0.059-0.203-0.074-0.242c-0.352,0.342-0.728,0.599-1.127,0.77c-0.401,0.17-0.828,0.256-1.282,0.256
		c-0.801,0-1.432-0.217-1.894-0.652c-0.461-0.434-0.691-0.983-0.691-1.647c0-0.439,0.104-0.831,0.314-1.176
		c0.21-0.344,0.504-0.607,0.883-0.791c0.378-0.183,0.924-0.343,1.637-0.479c0.962-0.181,1.628-0.349,2-0.506v-0.205
		c0-0.395-0.099-0.677-0.293-0.846c-0.196-0.168-0.564-0.252-1.106-0.252c-0.366,0-0.651,0.071-0.856,0.216
		C78.402,16.55,78.235,16.803,78.109,17.164z M80.863,18.834c-0.264,0.088-0.682,0.193-1.253,0.315s-0.944,0.241-1.12,0.358
		c-0.27,0.19-0.403,0.433-0.403,0.726c0,0.288,0.107,0.537,0.322,0.746c0.215,0.211,0.488,0.315,0.82,0.315
		c0.371,0,0.726-0.122,1.062-0.366c0.25-0.186,0.413-0.412,0.491-0.682c0.054-0.176,0.081-0.51,0.081-1.003V18.834z"/>
	<path class="st4" d="M92.047,22.569h-1.912v-1.143c-0.317,0.444-0.692,0.775-1.124,0.992c-0.433,0.218-0.868,0.326-1.308,0.326
		c-0.894,0-1.659-0.36-2.296-1.08c-0.638-0.721-0.956-1.725-0.956-3.014c0-1.318,0.31-2.321,0.93-3.007
		c0.62-0.687,1.404-1.029,2.352-1.029c0.869,0,1.621,0.361,2.256,1.084v-3.867h2.059V22.569z M86.553,18.512
		c0,0.83,0.115,1.431,0.345,1.802c0.332,0.537,0.796,0.806,1.392,0.806c0.474,0,0.876-0.201,1.209-0.604
		c0.331-0.402,0.498-1.004,0.498-1.805c0-0.895-0.162-1.537-0.484-1.931c-0.322-0.393-0.734-0.589-1.237-0.589
		c-0.488,0-0.897,0.193-1.227,0.582C86.718,17.16,86.553,17.74,86.553,18.512z"/>
	<path class="st4" d="M94.074,22.569v-2.059h2.059v2.059H94.074z"/>
</g>
<g>
	<g>
		<g>
			<path class="st3" d="M434.29,70.562l3.596-2.333l-2.039-2.699l-0.756-3.298l-4.102,1.255c-0.969-1.09-2.08-1.988-3.283-2.691
				l0.416-4.266l-3.381-0.089l-3.047-1.466l-1.578,3.988c-0.699,0.038-1.396,0.13-2.084,0.275v5.459
				c3.24-1.151,6.986-0.175,9.209,2.69c2.775,3.571,2.125,8.716-1.445,11.49c-2.289,1.776-5.221,2.143-7.764,1.241v5.667
				c0.576,0.122,1.156,0.218,1.744,0.265l1.477,4.023l3.086-1.388l3.383-0.006l-0.31-4.274c0.611-0.336,1.203-0.725,1.771-1.166
				c0.574-0.444,1.1-0.928,1.58-1.438l4.064,1.355l0.84-3.28l2.105-2.646l-3.535-2.424C434.476,73.409,434.491,71.976,434.29,70.562
				z"/>
			<path d="M421.253,90.614c-0.07,0-0.143-0.014-0.211-0.043c-0.139-0.058-0.244-0.171-0.297-0.312l-1.359-3.705
				c-0.457-0.05-0.94-0.13-1.465-0.241c-0.25-0.054-0.43-0.273-0.43-0.528v-5.667c0-0.176,0.088-0.34,0.229-0.44
				c0.145-0.102,0.328-0.127,0.492-0.068c2.442,0.862,5.205,0.43,7.254-1.159c3.33-2.588,3.936-7.402,1.35-10.732
				c-1.457-1.876-3.658-2.952-6.041-2.952c-0.875,0-1.738,0.148-2.563,0.44c-0.16,0.061-0.348,0.035-0.492-0.066
				c-0.141-0.103-0.229-0.267-0.229-0.442v-5.459c0-0.256,0.18-0.477,0.43-0.529c0.598-0.126,1.209-0.214,1.818-0.263l1.453-3.671
				c0.055-0.14,0.166-0.25,0.305-0.306c0.141-0.054,0.297-0.048,0.432,0.017l2.943,1.417l3.264,0.086
				c0.152,0.004,0.295,0.07,0.393,0.183c0.1,0.112,0.146,0.261,0.133,0.41l-0.385,3.926c1.06,0.654,2.027,1.446,2.881,2.36
				l3.775-1.153c0.143-0.044,0.299-0.025,0.428,0.049c0.131,0.075,0.223,0.201,0.256,0.347l0.73,3.185l1.971,2.606
				c0.09,0.12,0.127,0.271,0.1,0.42c-0.023,0.147-0.111,0.277-0.236,0.359l-3.311,2.149c0.148,1.245,0.133,2.495-0.047,3.724
				l3.254,2.231c0.125,0.085,0.207,0.217,0.229,0.365c0.023,0.148-0.018,0.3-0.109,0.417l-2.033,2.555l-0.81,3.168
				c-0.037,0.145-0.135,0.268-0.266,0.339c-0.131,0.072-0.287,0.087-0.43,0.039l-3.742-1.247c-0.443,0.448-0.912,0.866-1.4,1.246
				c-0.49,0.38-1.006,0.729-1.539,1.041l0.287,3.933c0.01,0.149-0.041,0.297-0.145,0.407c-0.102,0.109-0.244,0.172-0.395,0.172
				l-3.27,0.006l-2.98,1.341C421.403,90.598,421.329,90.614,421.253,90.614z M418.573,85.342c0.445,0.082,0.855,0.138,1.244,0.168
				c0.211,0.018,0.393,0.155,0.467,0.353l1.275,3.479l2.557-1.149c0.07-0.031,0.145-0.049,0.221-0.049l2.805-0.003l-0.27-3.695
				c-0.016-0.21,0.094-0.409,0.279-0.513c0.59-0.326,1.162-0.703,1.699-1.119c0.535-0.416,1.047-0.882,1.518-1.383
				c0.145-0.154,0.365-0.21,0.566-0.144l3.514,1.172l0.695-2.718c0.018-0.073,0.053-0.143,0.1-0.202l1.744-2.19l-3.057-2.096
				c-0.174-0.119-0.262-0.329-0.227-0.537c0.229-1.341,0.246-2.713,0.051-4.078c-0.029-0.208,0.065-0.415,0.24-0.529l3.109-2.018
				l-1.689-2.236c-0.047-0.061-0.08-0.131-0.096-0.205l-0.627-2.731l-3.545,1.085c-0.205,0.063-0.422,0-0.563-0.157
				c-0.912-1.026-1.973-1.896-3.152-2.584c-0.182-0.106-0.285-0.31-0.266-0.52l0.361-3.688l-2.801-0.074
				c-0.078-0.001-0.152-0.021-0.221-0.053l-2.523-1.215l-1.365,3.449c-0.078,0.196-0.262,0.329-0.475,0.341
				c-0.523,0.028-1.051,0.089-1.57,0.181v4.283c0.717-0.188,1.455-0.282,2.201-0.282c2.719,0,5.23,1.229,6.895,3.37
				c2.951,3.8,2.262,9.296-1.541,12.25c-2.137,1.657-4.955,2.223-7.555,1.545V85.342z"/>
		</g>
	</g>
	<g>
		<polygon class="st5" points="411.229,44.602 380.06,44.602 380.06,94.156 418.032,94.156 418.032,51.404 		"/>
		<path d="M418.032,94.696H380.06c-0.301,0-0.541-0.241-0.541-0.54V44.602c0-0.299,0.24-0.541,0.541-0.541h31.17
			c0.143,0,0.281,0.058,0.381,0.159l6.805,6.803c0.1,0.102,0.158,0.238,0.158,0.382v42.752
			C418.573,94.455,418.331,94.696,418.032,94.696z M380.599,93.616h36.892V51.629l-6.486-6.487h-30.406V93.616z"/>
	</g>
	<g>
		<polygon class="st6" points="411.229,51.404 418.032,51.404 411.229,44.602 		"/>
		<path d="M418.032,51.944h-6.803c-0.297,0-0.539-0.24-0.539-0.54v-6.803c0-0.219,0.131-0.416,0.334-0.5
			c0.199-0.083,0.434-0.036,0.59,0.118l6.801,6.803c0.152,0.155,0.201,0.387,0.117,0.59
			C418.448,51.813,418.251,51.944,418.032,51.944z M411.77,50.864h4.957l-4.957-4.958V50.864z"/>
	</g>
	<g>
		<path d="M406.456,51.944h-31.103c-0.299,0-0.541-0.24-0.541-0.54c0-0.298,0.242-0.54,0.541-0.54h31.103
			c0.299,0,0.541,0.242,0.541,0.54C406.997,51.704,406.755,51.944,406.456,51.944z"/>
	</g>
	<g>
		<path d="M406.456,59.465h-31.103c-0.299,0-0.541-0.241-0.541-0.54c0-0.299,0.242-0.541,0.541-0.541h31.103
			c0.299,0,0.541,0.242,0.541,0.541C406.997,59.224,406.755,59.465,406.456,59.465z"/>
	</g>
	<g>
		<path d="M406.456,66.983h-31.103c-0.299,0-0.541-0.241-0.541-0.541c0-0.299,0.242-0.539,0.541-0.539h31.103
			c0.299,0,0.541,0.24,0.541,0.539C406.997,66.742,406.755,66.983,406.456,66.983z"/>
	</g>
	<g>
		<path d="M406.456,74.503h-31.103c-0.299,0-0.541-0.241-0.541-0.541c0-0.298,0.242-0.54,0.541-0.54h31.103
			c0.299,0,0.541,0.242,0.541,0.54C406.997,74.262,406.755,74.503,406.456,74.503z"/>
	</g>
	<g>
		<path d="M395.571,82.022h-20.219c-0.299,0-0.541-0.242-0.541-0.541c0-0.299,0.242-0.54,0.541-0.54h20.219
			c0.299,0,0.541,0.241,0.541,0.54C396.112,81.78,395.87,82.022,395.571,82.022z"/>
	</g>
	<g>
		<radialGradient id="SVGID_4_" cx="406.4551" cy="85.4199" r="4.7744" gradientUnits="userSpaceOnUse">
			<stop  offset="0" style="stop-color:#8CBB69"/>
			<stop  offset="0.7837" style="stop-color:#6BAD44"/>
		</radialGradient>
		<circle class="st7" cx="406.455" cy="85.419" r="4.774"/>
		<path d="M406.456,90.735c-2.93,0-5.314-2.385-5.314-5.316c0-2.931,2.385-5.314,5.314-5.314c2.93,0,5.314,2.384,5.314,5.314
			C411.77,88.351,409.386,90.735,406.456,90.735z M406.456,81.186c-2.334,0-4.234,1.899-4.234,4.233c0,2.336,1.9,4.235,4.234,4.235
			c2.334,0,4.234-1.899,4.234-4.235C410.69,83.085,408.79,81.186,406.456,81.186z"/>
	</g>
</g>
</svg>