<!-- Generator: Adobe Illustrator 17.0.0, SVG Export Plug-In  -->
<svg version="1.1"
	 xmlns="http://www.w3.org/2000/svg" xmlns:xlink="http://www.w3.org/1999/xlink" xmlns:a="http://ns.adobe.com/AdobeSVGViewerExtensions/3.0/"
	 x="0px" y="0px" width="217.425px" height="36.031px" viewBox="0 0 217.425 36.031"
	 style="enable-background:new 0 0 217.425 36.031;" xml:space="preserve">
<style type="text/css">
	.st0{fill:url(#SVGID_1_);}
	.st1{fill:#FFFFFF;}
	.st2{fill:url(#SVGID_2_);}
</style>
<defs>
</defs>
<g>
	<g>
		<radialGradient id="SVGID_1_" cx="108.7126" cy="18.0161" r="76.5932" gradientUnits="userSpaceOnUse">
			<stop  offset="0" style="stop-color:#8CBB69"/>
			<stop  offset="0.7837" style="stop-color:#6BAD44"/>
		</radialGradient>
		<rect x="1.639" y="1.639" class="st0" width="214.148" height="32.755"/>
		<path d="M215.787,36.031H1.639C0.734,36.031,0,35.299,0,34.394V1.639C0,0.734,0.734,0,1.639,0h214.148
			c0.904,0,1.639,0.734,1.639,1.639v32.755C217.425,35.299,216.691,36.031,215.787,36.031z M3.277,32.756H214.15V3.277H3.277V32.756
			z"/>
	</g>
</g>
<g>
	<g>
		<path class="st1" d="M25.06,23.318V13.26h2.004l2.381,7.122c0.219,0.663,0.379,1.159,0.479,1.489
			c0.114-0.366,0.293-0.904,0.535-1.613l2.409-6.998h1.79v10.059h-1.282v-8.419l-2.924,8.419h-1.2l-2.909-8.563v8.563H25.06z"/>
		<path class="st1" d="M34.662,23.318l3.863-10.059h1.434l4.117,10.059h-1.517l-1.174-3.047h-4.206l-1.104,3.047H34.662z
			 M37.564,19.188h3.41l-1.05-2.785c-0.32-0.847-0.559-1.542-0.714-2.086c-0.128,0.645-0.309,1.285-0.542,1.921L37.564,19.188z"/>
		<path class="st1" d="M46.659,23.318v-8.872h-3.314V13.26h7.974v1.187H47.99v8.872H46.659z"/>
		<path class="st1" d="M51.665,23.318V13.26h4.46c0.896,0,1.578,0.09,2.045,0.271s0.839,0.5,1.118,0.957
			c0.279,0.458,0.419,0.964,0.419,1.517c0,0.714-0.231,1.315-0.693,1.805s-1.176,0.801-2.141,0.934
			c0.353,0.169,0.62,0.336,0.803,0.501c0.389,0.356,0.757,0.803,1.104,1.338l1.75,2.737h-1.675l-1.331-2.093
			c-0.389-0.604-0.709-1.065-0.96-1.386c-0.252-0.32-0.478-0.545-0.676-0.673c-0.199-0.128-0.401-0.217-0.607-0.268
			c-0.151-0.031-0.398-0.048-0.741-0.048h-1.544v4.467H51.665z M52.996,17.699h2.861c0.608,0,1.084-0.063,1.428-0.189
			c0.343-0.125,0.604-0.326,0.781-0.604c0.179-0.276,0.269-0.577,0.269-0.902c0-0.476-0.173-0.866-0.519-1.173
			s-0.891-0.46-1.637-0.46h-3.184V17.699z"/>
		<path class="st1" d="M60.979,23.318V13.26h1.331v10.059H60.979z"/>
		<path class="st1" d="M62.814,23.318v-1.235l5.153-6.442c0.365-0.457,0.713-0.855,1.043-1.194h-5.613V13.26h7.205v1.187
			l-5.647,6.979l-0.61,0.706h6.422v1.188H62.814z"/>
		<path class="st1" d="M74.025,23.318V13.26h3.465c0.782,0,1.38,0.048,1.791,0.144c0.576,0.133,1.068,0.373,1.476,0.721
			c0.53,0.448,0.927,1.021,1.19,1.719c0.263,0.697,0.395,1.495,0.395,2.392c0,0.764-0.09,1.44-0.268,2.03
			c-0.179,0.591-0.407,1.079-0.687,1.465c-0.279,0.387-0.584,0.691-0.916,0.913s-0.731,0.39-1.2,0.504
			c-0.47,0.114-1.008,0.172-1.616,0.172H74.025z M75.356,22.131h2.147c0.663,0,1.184-0.062,1.562-0.185
			c0.377-0.124,0.678-0.298,0.902-0.521c0.315-0.315,0.562-0.74,0.737-1.273c0.176-0.532,0.264-1.179,0.264-1.938
			c0-1.053-0.172-1.861-0.518-2.426c-0.346-0.565-0.765-0.943-1.259-1.136c-0.357-0.137-0.932-0.206-1.723-0.206h-2.113V22.131z"/>
		<path class="st1" d="M83.162,23.318V13.26h7.273v1.187h-5.942v3.081h5.564v1.18h-5.564v3.424h6.176v1.188H83.162z"/>
		<path class="st1" d="M94.291,23.318V13.26h2.004l2.381,7.122c0.219,0.663,0.379,1.159,0.479,1.489
			c0.114-0.366,0.293-0.904,0.535-1.613l2.409-6.998h1.79v10.059h-1.282v-8.419l-2.924,8.419h-1.2l-2.909-8.563v8.563H94.291z"/>
		<path class="st1" d="M103.892,23.318l3.863-10.059h1.434l4.117,10.059h-1.517l-1.174-3.047h-4.206l-1.104,3.047H103.892z
			 M106.794,19.188h3.41l-1.05-2.785c-0.32-0.847-0.559-1.542-0.714-2.086c-0.128,0.645-0.309,1.285-0.542,1.921L106.794,19.188z"/>
		<path class="st1" d="M113.35,23.318V13.26h4.46c0.896,0,1.578,0.09,2.045,0.271s0.839,0.5,1.118,0.957
			c0.279,0.458,0.419,0.964,0.419,1.517c0,0.714-0.231,1.315-0.693,1.805s-1.176,0.801-2.141,0.934
			c0.353,0.169,0.62,0.336,0.803,0.501c0.389,0.356,0.757,0.803,1.104,1.338l1.75,2.737h-1.675l-1.331-2.093
			c-0.389-0.604-0.709-1.065-0.96-1.386c-0.252-0.32-0.478-0.545-0.676-0.673c-0.199-0.128-0.401-0.217-0.607-0.268
			c-0.151-0.031-0.398-0.048-0.741-0.048h-1.544v4.467H113.35z M114.681,17.699h2.861c0.608,0,1.084-0.063,1.428-0.189
			c0.343-0.125,0.604-0.326,0.781-0.604c0.179-0.276,0.269-0.577,0.269-0.902c0-0.476-0.173-0.866-0.519-1.173
			s-0.891-0.46-1.637-0.46h-3.184V17.699z"/>
		<path class="st1" d="M129.616,19.792l1.331,0.336c-0.278,1.093-0.78,1.927-1.506,2.501c-0.725,0.574-1.611,0.861-2.658,0.861
			c-1.085,0-1.966-0.221-2.646-0.662s-1.196-1.081-1.551-1.918s-0.531-1.736-0.531-2.696c0-1.048,0.2-1.962,0.6-2.741
			c0.4-0.78,0.97-1.372,1.709-1.777c0.738-0.405,1.552-0.607,2.439-0.607c1.006,0,1.853,0.257,2.538,0.769
			c0.687,0.513,1.164,1.232,1.435,2.161l-1.311,0.309c-0.233-0.731-0.572-1.265-1.016-1.599c-0.443-0.333-1.002-0.501-1.674-0.501
			c-0.773,0-1.42,0.186-1.938,0.557c-0.52,0.37-0.885,0.867-1.095,1.492c-0.21,0.624-0.315,1.268-0.315,1.932
			c0,0.855,0.124,1.602,0.374,2.24c0.249,0.638,0.637,1.114,1.163,1.431c0.525,0.315,1.095,0.473,1.708,0.473
			c0.746,0,1.377-0.215,1.894-0.645C129.084,21.276,129.433,20.638,129.616,19.792z"/>
		<path class="st1" d="M131.143,18.419c0-1.669,0.448-2.977,1.345-3.921s2.054-1.417,3.472-1.417c0.929,0,1.766,0.222,2.511,0.666
			c0.746,0.443,1.314,1.063,1.705,1.855c0.392,0.794,0.587,1.694,0.587,2.7c0,1.021-0.206,1.933-0.617,2.737
			c-0.412,0.806-0.995,1.415-1.75,1.829s-1.569,0.621-2.442,0.621c-0.947,0-1.793-0.229-2.539-0.687
			c-0.745-0.457-1.311-1.082-1.694-1.873C131.334,20.14,131.143,19.302,131.143,18.419z M132.515,18.439
			c0,1.213,0.326,2.168,0.978,2.865s1.47,1.046,2.453,1.046c1.002,0,1.826-0.352,2.474-1.057c0.646-0.704,0.971-1.703,0.971-2.998
			c0-0.818-0.139-1.533-0.415-2.145c-0.277-0.61-0.682-1.084-1.215-1.42s-1.131-0.505-1.794-0.505c-0.942,0-1.753,0.324-2.433,0.972
			C132.855,15.846,132.515,16.926,132.515,18.439z"/>
		<path class="st1" d="M144.247,23.318V13.26h1.331v8.871h4.954v1.188H144.247z"/>
		<path class="st1" d="M150.672,18.419c0-1.669,0.448-2.977,1.345-3.921s2.054-1.417,3.472-1.417c0.929,0,1.766,0.222,2.511,0.666
			c0.746,0.443,1.314,1.063,1.705,1.855c0.392,0.794,0.587,1.694,0.587,2.7c0,1.021-0.206,1.933-0.617,2.737
			c-0.412,0.806-0.995,1.415-1.75,1.829s-1.569,0.621-2.442,0.621c-0.947,0-1.793-0.229-2.539-0.687
			c-0.745-0.457-1.311-1.082-1.694-1.873C150.864,20.14,150.672,19.302,150.672,18.419z M152.044,18.439
			c0,1.213,0.326,2.168,0.978,2.865s1.47,1.046,2.453,1.046c1.002,0,1.826-0.352,2.474-1.057c0.646-0.704,0.971-1.703,0.971-2.998
			c0-0.818-0.139-1.533-0.415-2.145c-0.277-0.61-0.682-1.084-1.215-1.42s-1.131-0.505-1.794-0.505c-0.942,0-1.753,0.324-2.433,0.972
			C152.384,15.846,152.044,16.926,152.044,18.439z M154.638,12.642l0.912-1.921h1.619l-1.509,1.921H154.638z"/>
		<path class="st1" d="M165.673,19.373v-1.18l4.261-0.007v3.732c-0.654,0.521-1.329,0.913-2.024,1.177
			c-0.695,0.263-1.408,0.395-2.141,0.395c-0.987,0-1.886-0.212-2.692-0.635c-0.808-0.423-1.417-1.035-1.829-1.836
			c-0.411-0.8-0.617-1.694-0.617-2.683c0-0.979,0.204-1.893,0.614-2.741c0.409-0.849,0.998-1.479,1.767-1.89
			c0.769-0.412,1.653-0.618,2.655-0.618c0.728,0,1.385,0.118,1.973,0.354s1.049,0.563,1.383,0.984s0.588,0.97,0.762,1.646
			l-1.201,0.33c-0.151-0.513-0.339-0.915-0.563-1.208c-0.225-0.293-0.545-0.527-0.961-0.703s-0.878-0.265-1.386-0.265
			c-0.608,0-1.135,0.093-1.578,0.278s-0.802,0.429-1.074,0.73c-0.271,0.302-0.483,0.634-0.634,0.995
			c-0.257,0.622-0.385,1.297-0.385,2.024c0,0.896,0.154,1.646,0.463,2.25c0.309,0.604,0.759,1.053,1.349,1.345
			c0.59,0.293,1.217,0.439,1.88,0.439c0.576,0,1.139-0.11,1.688-0.333c0.55-0.222,0.966-0.458,1.249-0.71v-1.873H165.673z"/>
		<path class="st1" d="M171.084,23.318V13.26h1.331v10.059H171.084z"/>
		<path class="st1" d="M180.898,19.792l1.331,0.336c-0.278,1.093-0.78,1.927-1.506,2.501c-0.725,0.574-1.611,0.861-2.658,0.861
			c-1.085,0-1.966-0.221-2.646-0.662s-1.196-1.081-1.551-1.918s-0.531-1.736-0.531-2.696c0-1.048,0.2-1.962,0.6-2.741
			c0.4-0.78,0.97-1.372,1.709-1.777c0.738-0.405,1.552-0.607,2.439-0.607c1.006,0,1.853,0.257,2.538,0.769
			c0.687,0.513,1.164,1.232,1.435,2.161l-1.311,0.309c-0.233-0.731-0.572-1.265-1.016-1.599c-0.443-0.333-1.002-0.501-1.674-0.501
			c-0.773,0-1.42,0.186-1.938,0.557c-0.52,0.37-0.885,0.867-1.095,1.492c-0.21,0.624-0.315,1.268-0.315,1.932
			c0,0.855,0.124,1.602,0.374,2.24c0.249,0.638,0.637,1.114,1.163,1.431c0.525,0.315,1.095,0.473,1.708,0.473
			c0.746,0,1.377-0.215,1.894-0.645C180.366,21.276,180.715,20.638,180.898,19.792z"/>
		<path class="st1" d="M182.425,18.419c0-1.669,0.448-2.977,1.345-3.921s2.054-1.417,3.472-1.417c0.929,0,1.766,0.222,2.511,0.666
			c0.746,0.443,1.314,1.063,1.705,1.855c0.392,0.794,0.587,1.694,0.587,2.7c0,1.021-0.206,1.933-0.617,2.737
			c-0.412,0.806-0.995,1.415-1.75,1.829s-1.569,0.621-2.442,0.621c-0.947,0-1.793-0.229-2.539-0.687
			c-0.745-0.457-1.311-1.082-1.694-1.873C182.617,20.14,182.425,19.302,182.425,18.419z M183.797,18.439
			c0,1.213,0.326,2.168,0.978,2.865s1.47,1.046,2.453,1.046c1.002,0,1.826-0.352,2.474-1.057c0.646-0.704,0.971-1.703,0.971-2.998
			c0-0.818-0.139-1.533-0.415-2.145c-0.277-0.61-0.682-1.084-1.215-1.42s-1.131-0.505-1.794-0.505c-0.942,0-1.753,0.324-2.433,0.972
			C184.137,15.846,183.797,16.926,183.797,18.439z"/>
	</g>
</g>
</svg>