<!-- Generator: Adobe Illustrator 17.0.0, SVG Export Plug-In  -->
<svg version="1.1"
	 xmlns="http://www.w3.org/2000/svg" xmlns:xlink="http://www.w3.org/1999/xlink" xmlns:a="http://ns.adobe.com/AdobeSVGViewerExtensions/3.0/"
	 x="0px" y="0px" width="107.823px" height="152.544px" viewBox="0 0 107.823 152.544" enable-background="new 0 0 107.823 152.544"
	 xml:space="preserve">
<defs>
</defs>
<g>
	<g>
		<polygon fill="#FFFFFF" points="84.235,0.619 0.62,0.619 0.62,151.925 107.205,151.925 107.205,23.591 		"/>
		<path fill="#231F20" d="M107.205,152.544H0.62c-0.341,0-0.62-0.275-0.62-0.619V0.619C0,0.277,0.279,0,0.62,0h83.616
			c0.165,0,0.321,0.064,0.436,0.183l22.972,22.972c0.117,0.115,0.18,0.273,0.18,0.437v128.334
			C107.823,152.269,107.547,152.544,107.205,152.544z M1.236,151.308h105.35V23.847L83.979,1.237H1.236V151.308z"/>
	</g>
	<g>
		<path fill="#231F20" d="M93.429,87.665H9.805c-0.341,0-0.617-0.276-0.617-0.615c0-0.344,0.276-0.621,0.617-0.621h83.624
			c0.343,0,0.62,0.277,0.62,0.621C94.048,87.389,93.771,87.665,93.429,87.665z"/>
	</g>
	<g>
		<path fill="#231F20" d="M93.429,100.357H9.805c-0.341,0-0.617-0.276-0.617-0.617c0-0.341,0.276-0.619,0.617-0.619h83.624
			c0.343,0,0.62,0.278,0.62,0.619C94.048,100.08,93.771,100.357,93.429,100.357z"/>
	</g>
	<g>
		<path fill="#231F20" d="M39.813,113.048H9.805c-0.341,0-0.617-0.277-0.617-0.619c0-0.343,0.276-0.618,0.617-0.618h30.008
			c0.342,0,0.618,0.275,0.618,0.618C40.43,112.771,40.155,113.048,39.813,113.048z"/>
	</g>
	<g>
		<polygon fill="#FFFFFF" points="84.235,23.591 107.205,23.591 84.235,0.619 		"/>
		<path fill="#231F20" d="M107.205,24.209H84.235c-0.343,0-0.619-0.275-0.619-0.618V0.619c0-0.251,0.152-0.476,0.384-0.573
			c0.226-0.095,0.494-0.041,0.671,0.137l22.972,22.972c0.177,0.178,0.228,0.44,0.132,0.673
			C107.68,24.06,107.454,24.209,107.205,24.209z M84.856,22.971h20.859L84.856,2.111V22.971z"/>
	</g>
	<g>
		<radialGradient id="SVGID_1_" cx="51.6182" cy="32.3606" r="20.2571" gradientUnits="userSpaceOnUse">
			<stop  offset="0" style="stop-color:#8CBB69"/>
			<stop  offset="0.7837" style="stop-color:#6BAD44"/>
		</radialGradient>
		<path fill="url(#SVGID_1_)" d="M71.876,32.361c0,11.188-9.072,20.257-20.257,20.257c-11.188,0-20.258-9.068-20.258-20.257
			c0-11.186,9.069-20.257,20.258-20.257C62.804,12.104,71.876,21.175,71.876,32.361z"/>
		<path fill="#231F20" d="M51.619,53.234c-11.512,0-20.874-9.363-20.874-20.873c0-11.508,9.363-20.873,20.874-20.873
			c11.51,0,20.874,9.365,20.874,20.873C72.493,43.87,63.128,53.234,51.619,53.234z M51.619,12.724
			c-10.83,0-19.638,8.809-19.638,19.637c0,10.83,8.808,19.639,19.638,19.639c10.828,0,19.639-8.809,19.639-19.639
			C71.258,21.532,62.447,12.724,51.619,12.724z"/>
	</g>
	<g>
		<path fill="#231F20" d="M93.429,75.499H31.361c-0.341,0-0.617-0.275-0.617-0.617s0.276-0.618,0.617-0.618h62.068
			c0.343,0,0.62,0.276,0.62,0.618S93.771,75.499,93.429,75.499z"/>
	</g>
	<g>
		<path fill="#231F20" d="M93.429,62.584H31.361c-0.341,0-0.617-0.277-0.617-0.618c0-0.343,0.276-0.618,0.617-0.618h62.068
			c0.343,0,0.62,0.275,0.62,0.618C94.048,62.307,93.771,62.584,93.429,62.584z"/>
	</g>
	<g>
		<rect x="9.805" y="61.966" fill="#144B8B" width="12.916" height="12.916"/>
		<path fill="#231F20" d="M22.721,75.499H9.805c-0.341,0-0.617-0.275-0.617-0.617V61.966c0-0.343,0.276-0.618,0.617-0.618h12.916
			c0.341,0,0.619,0.275,0.619,0.618v12.916C23.339,75.224,23.062,75.499,22.721,75.499z M10.421,74.264h11.682v-11.68H10.421V74.264
			z"/>
	</g>
	<g>
		<path fill="#144B8B" d="M5.234,143.267v-8.752h1.767v8.752H5.234z"/>
		<path fill="#144B8B" d="M8.679,134.515h3.23c0.728,0,1.283,0.056,1.666,0.167c0.513,0.151,0.953,0.421,1.319,0.807
			s0.645,0.858,0.835,1.418c0.191,0.559,0.287,1.248,0.287,2.068c0,0.72-0.089,1.341-0.269,1.862
			c-0.219,0.637-0.531,1.152-0.937,1.546c-0.307,0.299-0.721,0.531-1.242,0.698c-0.39,0.124-0.912,0.186-1.564,0.186H8.679V134.515z
			 M10.446,135.995v5.797h1.319c0.494,0,0.85-0.027,1.069-0.083c0.287-0.072,0.524-0.193,0.713-0.364
			c0.189-0.172,0.343-0.453,0.462-0.845c0.12-0.393,0.179-0.927,0.179-1.604c0-0.676-0.06-1.195-0.179-1.558
			c-0.119-0.362-0.287-0.645-0.501-0.848s-0.487-0.341-0.818-0.412c-0.247-0.056-0.73-0.084-1.451-0.084H10.446z"/>
		<path fill="#144B8B" d="M17.514,143.267v-8.752h6.489v1.48h-4.722v1.94h4.394v1.475h-4.394v2.382h4.889v1.475H17.514z"/>
		<path fill="#144B8B" d="M25.687,143.267v-8.752h1.719l3.582,5.845v-5.845h1.642v8.752h-1.773l-3.528-5.707v5.707H25.687z"/>
		<path fill="#144B8B" d="M36.468,143.267v-7.271h-2.597v-1.48h6.955v1.48h-2.591v7.271H36.468z"/>
		<path fill="#144B8B" d="M41.913,143.267v-8.752h1.767v8.752H41.913z"/>
		<path fill="#144B8B" d="M45.375,143.267v-8.752h6v1.48h-4.232v2.072h3.653v1.48h-3.653v3.719H45.375z"/>
		<path fill="#144B8B" d="M52.778,143.267v-8.752h1.767v8.752H52.778z"/>
		<path fill="#144B8B" d="M61.828,140.049l1.713,0.543c-0.263,0.955-0.7,1.665-1.311,2.129c-0.611,0.463-1.386,0.695-2.325,0.695
			c-1.162,0-2.117-0.397-2.866-1.191c-0.748-0.794-1.122-1.879-1.122-3.256c0-1.457,0.376-2.588,1.128-3.395
			c0.752-0.806,1.741-1.208,2.967-1.208c1.07,0,1.94,0.315,2.609,0.948c0.398,0.375,0.696,0.912,0.896,1.612l-1.75,0.418
			c-0.104-0.454-0.319-0.812-0.647-1.074c-0.329-0.263-0.728-0.395-1.197-0.395c-0.649,0-1.175,0.233-1.579,0.698
			c-0.404,0.466-0.606,1.22-0.606,2.263c0,1.106,0.199,1.895,0.597,2.364s0.916,0.704,1.552,0.704c0.47,0,0.874-0.149,1.212-0.447
			C61.438,141.159,61.681,140.69,61.828,140.049z"/>
		<path fill="#144B8B" d="M72.949,143.267h-1.922l-0.764-1.988h-3.499l-0.722,1.988h-1.875l3.409-8.752h1.869L72.949,143.267z
			 M69.696,139.804l-1.206-3.247l-1.182,3.247H69.696z"/>
		<path fill="#144B8B" d="M79.486,140.049l1.713,0.543c-0.263,0.955-0.7,1.665-1.311,2.129c-0.611,0.463-1.386,0.695-2.325,0.695
			c-1.162,0-2.117-0.397-2.866-1.191c-0.748-0.794-1.122-1.879-1.122-3.256c0-1.457,0.376-2.588,1.128-3.395
			c0.752-0.806,1.741-1.208,2.967-1.208c1.07,0,1.94,0.315,2.609,0.948c0.398,0.375,0.696,0.912,0.896,1.612l-1.75,0.418
			c-0.104-0.454-0.319-0.812-0.647-1.074c-0.329-0.263-0.728-0.395-1.197-0.395c-0.649,0-1.175,0.233-1.579,0.698
			c-0.404,0.466-0.606,1.22-0.606,2.263c0,1.106,0.199,1.895,0.597,2.364s0.916,0.704,1.552,0.704c0.47,0,0.874-0.149,1.212-0.447
			C79.096,141.159,79.339,140.69,79.486,140.049z"/>
		<path fill="#144B8B" d="M82.662,143.267v-8.752h1.767v8.752H82.662z"/>
		<path fill="#144B8B" d="M85.754,138.945c0-0.892,0.133-1.64,0.4-2.244c0.199-0.446,0.471-0.846,0.815-1.2s0.721-0.617,1.131-0.788
			c0.545-0.23,1.174-0.346,1.886-0.346c1.29,0,2.321,0.399,3.096,1.199c0.774,0.8,1.161,1.912,1.161,3.337
			c0,1.413-0.384,2.519-1.152,3.316s-1.795,1.197-3.081,1.197c-1.301,0-2.336-0.397-3.104-1.191S85.754,140.338,85.754,138.945z
			 M87.575,138.885c0,0.991,0.229,1.742,0.687,2.254c0.458,0.511,1.039,0.767,1.743,0.767s1.283-0.254,1.734-0.761
			c0.452-0.508,0.677-1.269,0.677-2.283c0-1.003-0.22-1.752-0.66-2.245c-0.439-0.493-1.023-0.74-1.752-0.74s-1.315,0.25-1.761,0.749
			C87.798,137.125,87.575,137.878,87.575,138.885z M88.913,134.014l0.824-1.785h1.88l-1.642,1.785H88.913z"/>
		<path fill="#144B8B" d="M95.64,143.267v-8.752h1.719l3.582,5.845v-5.845h1.642v8.752h-1.773l-3.528-5.707v5.707H95.64z"/>
	</g>
	<g>
		<path fill="#FFFFFF" d="M54.516,40.9h-3.233V28.713c-1.182,1.105-2.574,1.922-4.177,2.451V28.23c0.844-0.275,1.761-0.8,2.75-1.57
			c0.99-0.771,1.669-1.67,2.037-2.698h2.624V40.9z"/>
	</g>
</g>
</svg>