<!-- Generator: Adobe Illustrator 17.0.0, SVG Export Plug-In  -->
<svg version="1.1"
	 xmlns="http://www.w3.org/2000/svg" xmlns:xlink="http://www.w3.org/1999/xlink" xmlns:a="http://ns.adobe.com/AdobeSVGViewerExtensions/3.0/"
	 x="0px" y="0px" width="217.426px" height="36.031px" viewBox="0 0 217.426 36.031"
	 style="enable-background:new 0 0 217.426 36.031;" xml:space="preserve">
<style type="text/css">
	.st0{fill:url(#SVGID_1_);}
	.st1{fill:#FFFFFF;}
	.st2{fill:url(#SVGID_2_);}
</style>
<defs>
</defs>
<g>
	<g>
		<radialGradient id="SVGID_1_" cx="108.7129" cy="18.0161" r="76.5934" gradientUnits="userSpaceOnUse">
			<stop  offset="0" style="stop-color:#8CBB69"/>
			<stop  offset="0.7837" style="stop-color:#6BAD44"/>
		</radialGradient>
		<rect x="1.639" y="1.639" class="st0" width="214.148" height="32.755"/>
		<path d="M215.787,36.031H1.639C0.734,36.031,0,35.299,0,34.394V1.639C0,0.734,0.734,0,1.639,0h214.148
			c0.904,0,1.639,0.734,1.639,1.639v32.755C217.426,35.299,216.691,36.031,215.787,36.031z M3.277,32.756H214.15V3.277H3.277V32.756
			z"/>
	</g>
</g>
<g>
	<g>
		<path class="st1" d="M22.996,23.318l3.863-10.059h1.434l4.117,10.059h-1.517l-1.174-3.047h-4.206l-1.104,3.047H22.996z
			 M25.898,19.188h3.41l-1.05-2.785c-0.32-0.847-0.559-1.542-0.714-2.086c-0.128,0.645-0.309,1.285-0.542,1.921L25.898,19.188z"/>
		<path class="st1" d="M32.42,23.318V13.26h1.365l5.283,7.897V13.26h1.276v10.059h-1.365l-5.283-7.904v7.904H32.42z"/>
		<path class="st1" d="M40.438,23.318l3.863-10.059h1.434l4.117,10.059h-1.517l-1.174-3.047h-4.206l-1.104,3.047H40.438z
			 M43.34,19.188h3.41l-1.05-2.785c-0.32-0.847-0.559-1.542-0.714-2.086c-0.128,0.645-0.309,1.285-0.542,1.921L43.34,19.188z
			 M44.17,12.642l0.913-1.921h1.619l-1.51,1.921H44.17z"/>
		<path class="st1" d="M49.821,23.318V13.26h1.331v8.871h4.954v1.188H49.821z"/>
		<path class="st1" d="M56.878,23.318V13.26h1.331v10.059H56.878z"/>
		<path class="st1" d="M59.063,20.087l1.256-0.11c0.06,0.504,0.198,0.916,0.415,1.239c0.218,0.322,0.555,0.583,1.013,0.781
			c0.457,0.199,0.972,0.299,1.543,0.299c0.508,0,0.956-0.075,1.346-0.227c0.389-0.15,0.678-0.357,0.867-0.621
			c0.19-0.263,0.285-0.55,0.285-0.86c0-0.316-0.092-0.592-0.274-0.827c-0.184-0.235-0.485-0.434-0.906-0.594
			c-0.27-0.104-0.866-0.269-1.79-0.49c-0.925-0.222-1.571-0.432-1.942-0.628c-0.48-0.252-0.838-0.563-1.073-0.937
			c-0.236-0.373-0.354-0.79-0.354-1.252c0-0.508,0.144-0.982,0.432-1.424c0.289-0.441,0.709-0.776,1.263-1.006
			c0.554-0.229,1.169-0.343,1.846-0.343c0.746,0,1.403,0.12,1.973,0.36s1.008,0.594,1.314,1.061
			c0.307,0.466,0.471,0.994,0.494,1.585l-1.276,0.096c-0.068-0.636-0.301-1.116-0.696-1.441c-0.396-0.324-0.98-0.486-1.753-0.486
			c-0.806,0-1.393,0.147-1.761,0.442s-0.552,0.65-0.552,1.066c0,0.361,0.13,0.659,0.391,0.893c0.256,0.233,0.926,0.472,2.007,0.717
			c1.082,0.245,1.824,0.459,2.227,0.642c0.586,0.27,1.018,0.611,1.297,1.025s0.419,0.892,0.419,1.431c0,0.535-0.153,1.04-0.46,1.513
			c-0.307,0.474-0.747,0.842-1.32,1.105c-0.574,0.263-1.221,0.395-1.938,0.395c-0.91,0-1.674-0.133-2.289-0.398
			c-0.615-0.265-1.098-0.664-1.447-1.197S59.081,20.759,59.063,20.087z"/>
		<path class="st1" d="M68.075,23.318V13.26h1.331v10.059H68.075z"/>
		<path class="st1" d="M70.26,20.087l1.256-0.11c0.06,0.504,0.198,0.916,0.415,1.239c0.218,0.322,0.555,0.583,1.013,0.781
			c0.457,0.199,0.972,0.299,1.543,0.299c0.508,0,0.956-0.075,1.346-0.227c0.389-0.15,0.678-0.357,0.867-0.621
			c0.19-0.263,0.285-0.55,0.285-0.86c0-0.316-0.092-0.592-0.274-0.827c-0.184-0.235-0.485-0.434-0.906-0.594
			c-0.27-0.104-0.866-0.269-1.79-0.49c-0.925-0.222-1.571-0.432-1.942-0.628c-0.48-0.252-0.838-0.563-1.073-0.937
			c-0.236-0.373-0.354-0.79-0.354-1.252c0-0.508,0.144-0.982,0.432-1.424c0.289-0.441,0.709-0.776,1.263-1.006
			c0.554-0.229,1.169-0.343,1.846-0.343c0.746,0,1.403,0.12,1.973,0.36s1.008,0.594,1.314,1.061
			c0.307,0.466,0.471,0.994,0.494,1.585l-1.276,0.096c-0.068-0.636-0.301-1.116-0.696-1.441c-0.396-0.324-0.98-0.486-1.753-0.486
			c-0.806,0-1.393,0.147-1.761,0.442s-0.552,0.65-0.552,1.066c0,0.361,0.13,0.659,0.391,0.893c0.256,0.233,0.926,0.472,2.007,0.717
			c1.082,0.245,1.824,0.459,2.227,0.642c0.586,0.27,1.018,0.611,1.297,1.025s0.419,0.892,0.419,1.431c0,0.535-0.153,1.04-0.46,1.513
			c-0.307,0.474-0.747,0.842-1.32,1.105c-0.574,0.263-1.221,0.395-1.938,0.395c-0.91,0-1.674-0.133-2.289-0.398
			c-0.615-0.265-1.098-0.664-1.447-1.197S70.278,20.759,70.26,20.087z"/>
		<path class="st1" d="M81.911,23.318V13.26h3.465c0.782,0,1.38,0.048,1.791,0.144c0.576,0.133,1.068,0.373,1.476,0.721
			c0.53,0.448,0.927,1.021,1.19,1.719c0.263,0.697,0.395,1.495,0.395,2.392c0,0.764-0.09,1.44-0.268,2.03
			c-0.179,0.591-0.407,1.079-0.687,1.465c-0.279,0.387-0.584,0.691-0.916,0.913s-0.731,0.39-1.2,0.504
			c-0.47,0.114-1.008,0.172-1.616,0.172H81.911z M83.242,22.131h2.147c0.663,0,1.184-0.062,1.562-0.185
			c0.377-0.124,0.678-0.298,0.902-0.521c0.315-0.315,0.562-0.74,0.737-1.273c0.176-0.532,0.264-1.179,0.264-1.938
			c0-1.053-0.172-1.861-0.518-2.426c-0.346-0.565-0.765-0.943-1.259-1.136c-0.357-0.137-0.932-0.206-1.723-0.206h-2.113V22.131z"/>
		<path class="st1" d="M91.047,23.318V13.26h7.273v1.187h-5.942v3.081h5.564v1.18h-5.564v3.424h6.176v1.188H91.047z"/>
		<path class="st1" d="M101.112,23.318l3.863-10.059h1.434l4.117,10.059h-1.517l-1.174-3.047h-4.206l-1.104,3.047H101.112z
			 M104.015,19.188h3.41l-1.05-2.785c-0.32-0.847-0.559-1.542-0.714-2.086c-0.128,0.645-0.309,1.285-0.542,1.921L104.015,19.188z"/>
		<path class="st1" d="M110.496,23.318V13.26h1.331v8.871h4.954v1.188H110.496z"/>
		<path class="st1" d="M119.886,23.318v-8.872h-3.314V13.26h7.974v1.187h-3.328v8.872H119.886z"/>
		<path class="st1" d="M124.897,23.318V13.26h7.273v1.187h-5.942v3.081h5.564v1.18h-5.564v3.424h6.176v1.188H124.897z"/>
		<path class="st1" d="M133.224,23.318V13.26h4.46c0.896,0,1.578,0.09,2.045,0.271s0.839,0.5,1.118,0.957
			c0.279,0.458,0.419,0.964,0.419,1.517c0,0.714-0.231,1.315-0.693,1.805s-1.176,0.801-2.141,0.934
			c0.353,0.169,0.62,0.336,0.803,0.501c0.389,0.356,0.757,0.803,1.104,1.338l1.75,2.737h-1.675l-1.331-2.093
			c-0.389-0.604-0.709-1.065-0.96-1.386c-0.252-0.32-0.478-0.545-0.676-0.673c-0.199-0.128-0.401-0.217-0.607-0.268
			c-0.151-0.031-0.398-0.048-0.741-0.048h-1.544v4.467H133.224z M134.555,17.699h2.861c0.608,0,1.084-0.063,1.428-0.189
			c0.343-0.125,0.604-0.326,0.781-0.604c0.179-0.276,0.269-0.577,0.269-0.902c0-0.476-0.173-0.866-0.519-1.173
			s-0.891-0.46-1.637-0.46h-3.184V17.699z"/>
		<path class="st1" d="M142.298,23.318V13.26h1.365l5.283,7.897V13.26h1.276v10.059h-1.365l-5.283-7.904v7.904H142.298z"/>
		<path class="st1" d="M150.315,23.318l3.863-10.059h1.434l4.117,10.059h-1.517l-1.174-3.047h-4.206l-1.104,3.047H150.315z
			 M153.218,19.188h3.41l-1.05-2.785c-0.32-0.847-0.559-1.542-0.714-2.086c-0.128,0.645-0.309,1.285-0.542,1.921L153.218,19.188z"/>
		<path class="st1" d="M162.313,23.318v-8.872h-3.314V13.26h7.974v1.187h-3.328v8.872H162.313z"/>
		<path class="st1" d="M167.524,23.318V13.26h1.331v10.059H167.524z"/>
		<path class="st1" d="M173.037,23.318L169.14,13.26h1.441l2.614,7.308c0.21,0.585,0.386,1.134,0.528,1.646
			c0.155-0.549,0.336-1.098,0.542-1.646l2.717-7.308h1.358l-3.938,10.059H173.037z"/>
		<path class="st1" d="M177.391,23.318l3.863-10.059h1.434l4.117,10.059h-1.517l-1.174-3.047h-4.206l-1.104,3.047H177.391z
			 M180.293,19.188h3.41l-1.05-2.785c-0.32-0.847-0.559-1.542-0.714-2.086c-0.128,0.645-0.309,1.285-0.542,1.921L180.293,19.188z"/>
		<path class="st1" d="M186.375,20.087l1.256-0.11c0.06,0.504,0.198,0.916,0.415,1.239c0.218,0.322,0.555,0.583,1.013,0.781
			c0.457,0.199,0.972,0.299,1.543,0.299c0.508,0,0.956-0.075,1.346-0.227c0.389-0.15,0.678-0.357,0.867-0.621
			c0.19-0.263,0.285-0.55,0.285-0.86c0-0.316-0.092-0.592-0.274-0.827c-0.184-0.235-0.485-0.434-0.906-0.594
			c-0.27-0.104-0.866-0.269-1.79-0.49c-0.925-0.222-1.571-0.432-1.942-0.628c-0.48-0.252-0.838-0.563-1.073-0.937
			c-0.236-0.373-0.354-0.79-0.354-1.252c0-0.508,0.144-0.982,0.432-1.424c0.289-0.441,0.709-0.776,1.263-1.006
			c0.554-0.229,1.169-0.343,1.846-0.343c0.746,0,1.403,0.12,1.973,0.36s1.008,0.594,1.314,1.061
			c0.307,0.466,0.471,0.994,0.494,1.585l-1.276,0.096c-0.068-0.636-0.301-1.116-0.696-1.441c-0.396-0.324-0.98-0.486-1.753-0.486
			c-0.806,0-1.393,0.147-1.761,0.442s-0.552,0.65-0.552,1.066c0,0.361,0.13,0.659,0.391,0.893c0.256,0.233,0.926,0.472,2.007,0.717
			c1.082,0.245,1.824,0.459,2.227,0.642c0.586,0.27,1.018,0.611,1.297,1.025s0.419,0.892,0.419,1.431c0,0.535-0.153,1.04-0.46,1.513
			c-0.307,0.474-0.747,0.842-1.32,1.105c-0.574,0.263-1.221,0.395-1.938,0.395c-0.91,0-1.674-0.133-2.289-0.398
			c-0.615-0.265-1.098-0.664-1.447-1.197S186.394,20.759,186.375,20.087z"/>
	</g>
</g>
</svg>