<!-- Generator: Adobe Illustrator 17.0.0, SVG Export Plug-In  -->
<svg version="1.1"
	 xmlns="http://www.w3.org/2000/svg" xmlns:xlink="http://www.w3.org/1999/xlink" xmlns:a="http://ns.adobe.com/AdobeSVGViewerExtensions/3.0/"
	 x="0px" y="0px" width="280.514px" height="46.486px" viewBox="0 0 280.514 46.486"
	 style="enable-background:new 0 0 280.514 46.486;" xml:space="preserve">
<style type="text/css">
	.st0{fill:url(#SVGID_1_);}
	.st1{fill:#FFFFFF;}
	.st2{fill:url(#SVGID_2_);}
</style>
<defs>
</defs>
<g>
	<g>
		<radialGradient id="SVGID_1_" cx="140.2573" cy="23.2436" r="98.8179" gradientUnits="userSpaceOnUse">
			<stop  offset="0" style="stop-color:#8CBB69"/>
			<stop  offset="0.7837" style="stop-color:#6BAD44"/>
		</radialGradient>
		<rect x="2.114" y="2.114" class="st0" width="276.286" height="42.259"/>
		<path d="M278.4,46.486H2.114C0.947,46.486,0,45.541,0,44.373V2.114C0,0.947,0.947,0,2.114,0H278.4
			c1.166,0,2.113,0.947,2.113,2.114v42.259C280.514,45.541,279.566,46.486,278.4,46.486z M4.228,42.262h272.061V4.228H4.228V42.262z
			"/>
	</g>
</g>
<g>
	<g>
		<path class="st1" d="M52.732,30.239l4.984-12.978h1.85l5.311,12.978h-1.956l-1.514-3.931h-5.427l-1.425,3.931H52.732z
			 M56.477,24.91h4.4l-1.354-3.594c-0.413-1.092-0.72-1.989-0.921-2.691c-0.165,0.832-0.398,1.658-0.699,2.479L56.477,24.91z
			 M57.548,16.465l1.177-2.479h2.089l-1.948,2.479H57.548z"/>
		<path class="st1" d="M64.935,30.239V17.262h5.754c1.157,0,2.036,0.116,2.638,0.35c0.602,0.233,1.083,0.645,1.443,1.235
			c0.36,0.59,0.54,1.242,0.54,1.956c0,0.921-0.298,1.696-0.894,2.328c-0.596,0.632-1.517,1.033-2.762,1.204
			c0.455,0.218,0.8,0.434,1.036,0.646c0.501,0.46,0.977,1.035,1.425,1.726l2.257,3.532h-2.16l-1.718-2.7
			c-0.501-0.778-0.915-1.375-1.239-1.788s-0.615-0.702-0.872-0.867c-0.257-0.165-0.518-0.28-0.784-0.346
			c-0.195-0.041-0.513-0.062-0.956-0.062h-1.992v5.763H64.935z M66.652,22.989h3.691c0.785,0,1.398-0.081,1.841-0.243
			c0.442-0.162,0.779-0.422,1.009-0.779c0.23-0.357,0.345-0.745,0.345-1.164c0-0.613-0.223-1.118-0.668-1.514
			c-0.446-0.396-1.149-0.593-2.111-0.593h-4.107V22.989z"/>
		<path class="st1" d="M76.588,30.239V17.262h4.869c0.991,0,1.787,0.132,2.386,0.394c0.599,0.263,1.068,0.667,1.407,1.213
			s0.509,1.117,0.509,1.713c0,0.555-0.151,1.077-0.452,1.567c-0.301,0.489-0.755,0.885-1.363,1.186
			c0.785,0.23,1.388,0.623,1.811,1.178c0.422,0.555,0.633,1.21,0.633,1.965c0,0.608-0.128,1.174-0.385,1.695
			c-0.257,0.522-0.574,0.926-0.952,1.209c-0.377,0.283-0.851,0.497-1.421,0.642c-0.569,0.145-1.267,0.217-2.093,0.217H76.588z
			 M78.306,22.715h2.806c0.761,0,1.307-0.05,1.638-0.15c0.437-0.13,0.766-0.346,0.987-0.646s0.332-0.679,0.332-1.133
			c0-0.431-0.104-0.811-0.31-1.138s-0.501-0.552-0.885-0.673c-0.383-0.121-1.042-0.182-1.974-0.182h-2.593V22.715z M78.306,28.708
			h3.231c0.555,0,0.944-0.021,1.168-0.063c0.396-0.07,0.726-0.188,0.991-0.354c0.266-0.165,0.484-0.406,0.655-0.722
			c0.171-0.315,0.257-0.68,0.257-1.094c0-0.483-0.124-0.904-0.372-1.261c-0.248-0.357-0.592-0.608-1.031-0.753
			s-1.073-0.217-1.899-0.217h-3V28.708z"/>
		<path class="st1" d="M86.888,23.919c0-2.154,0.578-3.841,1.735-5.06s2.65-1.828,4.479-1.828c1.198,0,2.278,0.287,3.24,0.859
			s1.695,1.37,2.2,2.395c0.505,1.023,0.757,2.185,0.757,3.483c0,1.315-0.265,2.493-0.796,3.532
			c-0.531,1.038-1.284,1.824-2.257,2.358c-0.974,0.534-2.024,0.802-3.151,0.802c-1.222,0-2.313-0.295-3.275-0.886
			c-0.962-0.59-1.691-1.396-2.187-2.417C87.135,26.138,86.888,25.058,86.888,23.919z M88.658,23.945c0,1.563,0.42,2.796,1.261,3.695
			c0.841,0.9,1.896,1.351,3.165,1.351c1.292,0,2.356-0.454,3.191-1.363s1.252-2.198,1.252-3.868c0-1.057-0.178-1.979-0.535-2.767
			c-0.357-0.788-0.879-1.398-1.567-1.833c-0.688-0.434-1.459-0.65-2.315-0.65c-1.216,0-2.262,0.418-3.138,1.253
			S88.658,21.992,88.658,23.945z"/>
		<path class="st1" d="M100.099,30.239V17.262h1.718v11.446h6.391v1.531H100.099z"/>
		<path class="st1" d="M112.607,30.239V17.262h4.471c1.009,0,1.779,0.063,2.311,0.186c0.744,0.172,1.378,0.481,1.903,0.93
			c0.684,0.579,1.196,1.317,1.536,2.218s0.509,1.929,0.509,3.085c0,0.985-0.115,1.859-0.345,2.62
			c-0.23,0.762-0.525,1.392-0.885,1.891c-0.36,0.498-0.754,0.891-1.182,1.177s-0.944,0.503-1.549,0.65
			c-0.605,0.148-1.3,0.222-2.084,0.222H112.607z M114.325,28.708h2.771c0.855,0,1.527-0.08,2.014-0.239
			c0.487-0.159,0.875-0.384,1.164-0.673c0.407-0.407,0.724-0.954,0.952-1.642c0.227-0.688,0.341-1.521,0.341-2.501
			c0-1.357-0.223-2.4-0.668-3.13c-0.446-0.729-0.987-1.217-1.625-1.465c-0.46-0.177-1.201-0.266-2.222-0.266h-2.726V28.708z"/>
		<path class="st1" d="M124.394,30.239V17.262h9.383v1.531h-7.666v3.975h7.179v1.522h-7.179v4.418h7.967v1.531H124.394z"/>
		<path class="st1" d="M138.282,23.919c0-2.154,0.578-3.841,1.735-5.06s2.65-1.828,4.479-1.828c1.198,0,2.278,0.287,3.24,0.859
			s1.695,1.37,2.2,2.395c0.505,1.023,0.757,2.185,0.757,3.483c0,1.315-0.265,2.493-0.796,3.532
			c-0.531,1.038-1.284,1.824-2.257,2.358c-0.974,0.534-2.024,0.802-3.151,0.802c-1.222,0-2.313-0.295-3.275-0.886
			c-0.962-0.59-1.691-1.396-2.187-2.417C138.53,26.138,138.282,25.058,138.282,23.919z M140.053,23.945
			c0,1.563,0.42,2.796,1.261,3.695c0.841,0.9,1.896,1.351,3.165,1.351c1.292,0,2.356-0.454,3.191-1.363s1.252-2.198,1.252-3.868
			c0-1.057-0.178-1.979-0.535-2.767c-0.357-0.788-0.879-1.398-1.567-1.833c-0.688-0.434-1.459-0.65-2.315-0.65
			c-1.216,0-2.262,0.418-3.138,1.253S140.053,21.992,140.053,23.945z"/>
		<path class="st1" d="M151.493,30.239V17.262h4.869c0.991,0,1.787,0.132,2.386,0.394c0.599,0.263,1.068,0.667,1.407,1.213
			s0.509,1.117,0.509,1.713c0,0.555-0.151,1.077-0.452,1.567c-0.301,0.489-0.755,0.885-1.363,1.186
			c0.785,0.23,1.388,0.623,1.811,1.178c0.422,0.555,0.633,1.21,0.633,1.965c0,0.608-0.128,1.174-0.385,1.695
			c-0.257,0.522-0.574,0.926-0.952,1.209c-0.377,0.283-0.851,0.497-1.421,0.642c-0.569,0.145-1.267,0.217-2.093,0.217H151.493z
			 M153.211,22.715h2.806c0.761,0,1.307-0.05,1.638-0.15c0.437-0.13,0.766-0.346,0.987-0.646s0.332-0.679,0.332-1.133
			c0-0.431-0.104-0.811-0.31-1.138s-0.501-0.552-0.885-0.673c-0.383-0.121-1.042-0.182-1.974-0.182h-2.593V22.715z M153.211,28.708
			h3.231c0.555,0,0.944-0.021,1.168-0.063c0.396-0.07,0.726-0.188,0.991-0.354c0.266-0.165,0.484-0.406,0.655-0.722
			c0.171-0.315,0.257-0.68,0.257-1.094c0-0.483-0.124-0.904-0.372-1.261c-0.248-0.357-0.592-0.608-1.031-0.753
			s-1.073-0.217-1.899-0.217h-3V28.708z"/>
		<path class="st1" d="M161.439,26.557l1.549-0.212c0.042,0.991,0.227,1.67,0.558,2.035c0.331,0.366,0.788,0.549,1.373,0.549
			c0.431,0,0.802-0.099,1.115-0.296c0.313-0.198,0.528-0.467,0.646-0.806c0.118-0.34,0.177-0.881,0.177-1.625v-8.94h1.717v8.844
			c0,1.086-0.131,1.927-0.394,2.522c-0.263,0.597-0.679,1.051-1.248,1.363c-0.57,0.313-1.238,0.47-2.005,0.47
			c-1.139,0-2.011-0.328-2.616-0.983C161.706,28.823,161.415,27.85,161.439,26.557z"/>
		<path class="st1" d="M170.074,30.239V17.262h9.383v1.531h-7.666v3.975h7.179v1.522h-7.179v4.418h7.967v1.531H170.074z"/>
		<path class="st1" d="M184.091,30.239V18.793h-4.276v-1.531h10.287v1.531h-4.293v11.446H184.091z"/>
		<path class="st1" d="M190.814,30.239V17.262h1.717v12.978H190.814z"/>
		<path class="st1" d="M197.927,30.239l-5.028-12.978h1.859l3.373,9.428c0.271,0.756,0.499,1.464,0.682,2.125
			c0.2-0.709,0.434-1.417,0.699-2.125l3.505-9.428h1.753l-5.082,12.978H197.927z"/>
		<path class="st1" d="M204.446,23.919c0-2.154,0.578-3.841,1.735-5.06s2.65-1.828,4.479-1.828c1.198,0,2.278,0.287,3.24,0.859
			s1.695,1.37,2.2,2.395c0.505,1.023,0.757,2.185,0.757,3.483c0,1.315-0.265,2.493-0.796,3.532
			c-0.531,1.038-1.284,1.824-2.257,2.358c-0.974,0.534-2.024,0.802-3.151,0.802c-1.222,0-2.313-0.295-3.275-0.886
			c-0.962-0.59-1.691-1.396-2.187-2.417C204.693,26.138,204.446,25.058,204.446,23.919z M206.216,23.945
			c0,1.563,0.42,2.796,1.261,3.695c0.841,0.9,1.896,1.351,3.165,1.351c1.292,0,2.356-0.454,3.191-1.363s1.252-2.198,1.252-3.868
			c0-1.057-0.178-1.979-0.535-2.767c-0.357-0.788-0.879-1.398-1.567-1.833c-0.688-0.434-1.459-0.65-2.315-0.65
			c-1.216,0-2.262,0.418-3.138,1.253S206.216,21.992,206.216,23.945z"/>
		<path class="st1" d="M217.144,26.069l1.62-0.142c0.077,0.649,0.255,1.183,0.535,1.599s0.716,0.752,1.306,1.009
			c0.59,0.257,1.254,0.385,1.992,0.385c0.655,0,1.233-0.097,1.735-0.292c0.501-0.194,0.875-0.462,1.12-0.801
			c0.245-0.34,0.368-0.71,0.368-1.111c0-0.407-0.118-0.763-0.354-1.066c-0.236-0.304-0.626-0.56-1.168-0.766
			c-0.349-0.136-1.119-0.347-2.311-0.633c-1.192-0.286-2.027-0.557-2.505-0.811c-0.62-0.324-1.082-0.727-1.385-1.208
			c-0.304-0.481-0.456-1.02-0.456-1.615c0-0.655,0.186-1.268,0.558-1.837c0.372-0.569,0.915-1.002,1.629-1.297
			s1.508-0.443,2.381-0.443c0.962,0,1.81,0.155,2.545,0.465c0.735,0.311,1.3,0.766,1.695,1.368c0.396,0.602,0.608,1.283,0.637,2.045
			l-1.646,0.124c-0.088-0.82-0.388-1.44-0.898-1.859s-1.265-0.628-2.262-0.628c-1.039,0-1.795,0.189-2.271,0.57
			s-0.713,0.84-0.713,1.377c0,0.466,0.168,0.85,0.505,1.15c0.331,0.301,1.193,0.609,2.589,0.925
			c1.396,0.316,2.353,0.592,2.873,0.828c0.755,0.349,1.313,0.789,1.673,1.323s0.54,1.149,0.54,1.846c0,0.69-0.198,1.342-0.593,1.952
			s-0.963,1.086-1.704,1.425c-0.74,0.34-1.574,0.51-2.5,0.51c-1.174,0-2.159-0.172-2.952-0.514
			c-0.794-0.343-1.417-0.857-1.868-1.545C217.405,27.715,217.167,26.937,217.144,26.069z"/>
	</g>
</g>
</svg>