<!-- Generator: Adobe Illustrator 17.0.0, SVG Export Plug-In  -->
<svg version="1.1"
	 xmlns="http://www.w3.org/2000/svg" xmlns:xlink="http://www.w3.org/1999/xlink" xmlns:a="http://ns.adobe.com/AdobeSVGViewerExtensions/3.0/"
	 x="0px" y="0px" width="217.425px" height="36.031px" viewBox="0 0 217.425 36.031"
	 style="enable-background:new 0 0 217.425 36.031;" xml:space="preserve">
<style type="text/css">
	.st0{fill:url(#SVGID_1_);}
	.st1{fill:#FFFFFF;}
	.st2{fill:url(#SVGID_2_);}
</style>
<defs>
</defs>
<g>
	<g>
		<radialGradient id="SVGID_1_" cx="108.7119" cy="18.0161" r="76.5934" gradientUnits="userSpaceOnUse">
			<stop  offset="0" style="stop-color:#8CBB69"/>
			<stop  offset="0.7837" style="stop-color:#6BAD44"/>
		</radialGradient>
		<rect x="1.638" y="1.639" class="st0" width="214.148" height="32.755"/>
		<path d="M215.786,36.031H1.638C0.734,36.031,0,35.299,0,34.394V1.639C0,0.734,0.734,0,1.638,0h214.148
			c0.905,0,1.639,0.734,1.639,1.639v32.755C217.425,35.299,216.691,36.031,215.786,36.031z M3.277,32.756H214.15V3.277H3.277V32.756
			z"/>
	</g>
</g>
<g>
	<g>
		<path class="st1" d="M36.996,23.318l3.863-10.059h1.434l4.117,10.059h-1.517l-1.174-3.047h-4.206l-1.104,3.047H36.996z
			 M39.898,19.188h3.41l-1.05-2.785c-0.32-0.847-0.559-1.542-0.714-2.086c-0.128,0.645-0.309,1.285-0.542,1.921L39.898,19.188z
			 M40.729,12.642l0.913-1.921h1.619l-1.51,1.921H40.729z"/>
		<path class="st1" d="M46.454,23.318V13.26h4.46c0.896,0,1.578,0.09,2.045,0.271s0.839,0.5,1.118,0.957
			c0.279,0.458,0.419,0.964,0.419,1.517c0,0.714-0.231,1.315-0.693,1.805s-1.176,0.801-2.141,0.934
			c0.353,0.169,0.62,0.336,0.803,0.501c0.389,0.356,0.757,0.803,1.104,1.338l1.75,2.737h-1.675l-1.331-2.093
			c-0.389-0.604-0.709-1.065-0.96-1.386c-0.252-0.32-0.478-0.545-0.676-0.673c-0.199-0.128-0.401-0.217-0.607-0.268
			c-0.151-0.031-0.398-0.048-0.741-0.048h-1.544v4.467H46.454z M47.785,17.699h2.861c0.608,0,1.084-0.063,1.428-0.189
			c0.343-0.125,0.604-0.326,0.781-0.604c0.179-0.276,0.269-0.577,0.269-0.902c0-0.476-0.173-0.866-0.519-1.173
			s-0.891-0.46-1.637-0.46h-3.184V17.699z"/>
		<path class="st1" d="M55.487,23.318V13.26h3.773c0.769,0,1.385,0.102,1.85,0.305c0.464,0.204,0.827,0.518,1.091,0.94
			c0.263,0.423,0.395,0.866,0.395,1.328c0,0.43-0.117,0.834-0.35,1.214c-0.233,0.38-0.586,0.687-1.057,0.92
			c0.607,0.178,1.075,0.482,1.402,0.912s0.491,0.938,0.491,1.523c0,0.471-0.1,0.909-0.299,1.313
			c-0.199,0.405-0.444,0.718-0.737,0.937c-0.293,0.22-0.66,0.386-1.102,0.498s-0.982,0.168-1.623,0.168H55.487z M56.818,17.486
			h2.175c0.59,0,1.014-0.039,1.27-0.117c0.339-0.101,0.594-0.268,0.765-0.5c0.172-0.233,0.258-0.526,0.258-0.879
			c0-0.334-0.08-0.628-0.24-0.882s-0.389-0.428-0.687-0.521c-0.297-0.094-0.807-0.141-1.529-0.141h-2.011V17.486z M56.818,22.131
			h2.504c0.431,0,0.732-0.016,0.906-0.048c0.307-0.055,0.563-0.146,0.769-0.274s0.375-0.314,0.508-0.559
			c0.133-0.245,0.199-0.527,0.199-0.848c0-0.375-0.097-0.701-0.289-0.978c-0.191-0.277-0.458-0.472-0.799-0.583
			c-0.341-0.112-0.831-0.169-1.472-0.169h-2.326V22.131z"/>
		<path class="st1" d="M63.472,18.419c0-1.669,0.448-2.977,1.345-3.921s2.054-1.417,3.472-1.417c0.929,0,1.766,0.222,2.511,0.666
			c0.746,0.443,1.314,1.063,1.705,1.855c0.392,0.794,0.587,1.694,0.587,2.7c0,1.021-0.206,1.933-0.617,2.737
			c-0.412,0.806-0.995,1.415-1.75,1.829s-1.569,0.621-2.442,0.621c-0.947,0-1.793-0.229-2.539-0.687
			c-0.745-0.457-1.311-1.082-1.694-1.873C63.663,20.14,63.472,19.302,63.472,18.419z M64.844,18.439
			c0,1.213,0.326,2.168,0.978,2.865s1.47,1.046,2.453,1.046c1.002,0,1.826-0.352,2.474-1.057c0.646-0.704,0.971-1.703,0.971-2.998
			c0-0.818-0.139-1.533-0.415-2.145c-0.277-0.61-0.682-1.084-1.215-1.42s-1.131-0.505-1.794-0.505c-0.942,0-1.753,0.324-2.433,0.972
			C65.184,15.846,64.844,16.926,64.844,18.439z"/>
		<path class="st1" d="M73.711,23.318V13.26h1.331v8.871h4.954v1.188H73.711z"/>
		<path class="st1" d="M83.405,23.318V13.26h3.465c0.782,0,1.38,0.048,1.791,0.144c0.576,0.133,1.068,0.373,1.476,0.721
			c0.53,0.448,0.927,1.021,1.19,1.719c0.263,0.697,0.395,1.495,0.395,2.392c0,0.764-0.09,1.44-0.268,2.03
			c-0.179,0.591-0.407,1.079-0.687,1.465c-0.279,0.387-0.584,0.691-0.916,0.913s-0.731,0.39-1.2,0.504
			c-0.47,0.114-1.008,0.172-1.616,0.172H83.405z M84.736,22.131h2.147c0.663,0,1.184-0.062,1.562-0.185
			c0.377-0.124,0.678-0.298,0.902-0.521c0.315-0.315,0.562-0.74,0.737-1.273c0.176-0.532,0.264-1.179,0.264-1.938
			c0-1.053-0.172-1.861-0.518-2.426c-0.346-0.565-0.765-0.943-1.259-1.136c-0.357-0.137-0.932-0.206-1.723-0.206h-2.113V22.131z"/>
		<path class="st1" d="M92.541,23.318V13.26h7.273v1.187h-5.942v3.081h5.564v1.18h-5.564v3.424h6.176v1.188H92.541z"/>
		<path class="st1" d="M103.712,23.318V13.26h3.795c0.667,0,1.178,0.032,1.529,0.096c0.494,0.082,0.908,0.239,1.242,0.47
			c0.334,0.231,0.603,0.555,0.807,0.972c0.203,0.416,0.305,0.873,0.305,1.372c0,0.855-0.271,1.579-0.816,2.172
			c-0.544,0.592-1.527,0.888-2.95,0.888h-2.58v4.09H103.712z M105.043,18.042h2.601c0.86,0,1.471-0.16,1.832-0.48
			s0.542-0.771,0.542-1.352c0-0.421-0.106-0.781-0.319-1.081c-0.212-0.299-0.492-0.497-0.84-0.593
			c-0.225-0.06-0.639-0.09-1.242-0.09h-2.573V18.042z"/>
		<path class="st1" d="M112.065,23.318V13.26h4.46c0.896,0,1.578,0.09,2.045,0.271s0.839,0.5,1.118,0.957
			c0.279,0.458,0.419,0.964,0.419,1.517c0,0.714-0.231,1.315-0.693,1.805s-1.176,0.801-2.141,0.934
			c0.353,0.169,0.62,0.336,0.803,0.501c0.389,0.356,0.757,0.803,1.104,1.338l1.75,2.737h-1.675l-1.331-2.093
			c-0.389-0.604-0.709-1.065-0.96-1.386c-0.252-0.32-0.478-0.545-0.676-0.673c-0.199-0.128-0.401-0.217-0.607-0.268
			c-0.151-0.031-0.398-0.048-0.741-0.048h-1.544v4.467H112.065z M113.396,17.699h2.861c0.608,0,1.084-0.063,1.428-0.189
			c0.343-0.125,0.604-0.326,0.781-0.604c0.179-0.276,0.269-0.577,0.269-0.902c0-0.476-0.173-0.866-0.519-1.173
			s-0.891-0.46-1.637-0.46h-3.184V17.699z"/>
		<path class="st1" d="M120.749,18.419c0-1.669,0.448-2.977,1.345-3.921s2.054-1.417,3.472-1.417c0.929,0,1.766,0.222,2.511,0.666
			c0.746,0.443,1.314,1.063,1.705,1.855c0.392,0.794,0.587,1.694,0.587,2.7c0,1.021-0.206,1.933-0.617,2.737
			c-0.412,0.806-0.995,1.415-1.75,1.829c-0.755,0.414-1.569,0.621-2.442,0.621c-0.947,0-1.793-0.229-2.539-0.687
			c-0.745-0.457-1.311-1.082-1.694-1.873C120.94,20.14,120.749,19.302,120.749,18.419z M122.121,18.439
			c0,1.213,0.326,2.168,0.978,2.865s1.47,1.046,2.453,1.046c1.002,0,1.826-0.352,2.474-1.057c0.646-0.704,0.971-1.703,0.971-2.998
			c0-0.818-0.139-1.533-0.415-2.145c-0.277-0.61-0.682-1.084-1.215-1.42s-1.131-0.505-1.794-0.505c-0.942,0-1.753,0.324-2.433,0.972
			C122.461,15.846,122.121,16.926,122.121,18.439z"/>
		<path class="st1" d="M130.988,23.318V13.26h3.773c0.769,0,1.385,0.102,1.85,0.305c0.464,0.204,0.827,0.518,1.091,0.94
			c0.263,0.423,0.395,0.866,0.395,1.328c0,0.43-0.117,0.834-0.35,1.214c-0.233,0.38-0.586,0.687-1.057,0.92
			c0.607,0.178,1.075,0.482,1.402,0.912s0.491,0.938,0.491,1.523c0,0.471-0.1,0.909-0.299,1.313
			c-0.199,0.405-0.444,0.718-0.737,0.937c-0.293,0.22-0.66,0.386-1.102,0.498s-0.982,0.168-1.623,0.168H130.988z M132.319,17.486
			h2.175c0.59,0,1.014-0.039,1.27-0.117c0.339-0.101,0.594-0.268,0.765-0.5c0.172-0.233,0.258-0.526,0.258-0.879
			c0-0.334-0.08-0.628-0.24-0.882s-0.389-0.428-0.687-0.521c-0.297-0.094-0.807-0.141-1.529-0.141h-2.011V17.486z M132.319,22.131
			h2.504c0.431,0,0.732-0.016,0.906-0.048c0.307-0.055,0.563-0.146,0.769-0.274s0.375-0.314,0.508-0.559
			c0.133-0.245,0.199-0.527,0.199-0.848c0-0.375-0.097-0.701-0.289-0.978c-0.191-0.277-0.458-0.472-0.799-0.583
			c-0.341-0.112-0.831-0.169-1.472-0.169h-2.326V22.131z"/>
		<path class="st1" d="M139.322,23.318V13.26h1.331v8.871h4.954v1.188H139.322z"/>
		<path class="st1" d="M146.18,23.318V13.26h7.273v1.187h-5.942v3.081h5.564v1.18h-5.564v3.424h6.176v1.188H146.18z"/>
		<path class="st1" d="M154.444,23.318V13.26h2.004l2.381,7.122c0.219,0.663,0.379,1.159,0.479,1.489
			c0.114-0.366,0.293-0.904,0.535-1.613l2.409-6.998h1.79v10.059h-1.282v-8.419l-2.924,8.419h-1.2l-2.909-8.563v8.563H154.444z"/>
		<path class="st1" d="M164.046,23.318l3.863-10.059h1.434l4.117,10.059h-1.517l-1.174-3.047h-4.206l-1.104,3.047H164.046z
			 M166.948,19.188h3.41l-1.05-2.785c-0.32-0.847-0.559-1.542-0.714-2.086c-0.128,0.645-0.309,1.285-0.542,1.921L166.948,19.188z"/>
		<path class="st1" d="M173.03,20.087l1.256-0.11c0.06,0.504,0.198,0.916,0.415,1.239c0.218,0.322,0.555,0.583,1.013,0.781
			c0.457,0.199,0.972,0.299,1.543,0.299c0.508,0,0.956-0.075,1.346-0.227c0.389-0.15,0.678-0.357,0.867-0.621
			c0.19-0.263,0.285-0.55,0.285-0.86c0-0.316-0.092-0.592-0.274-0.827c-0.184-0.235-0.485-0.434-0.906-0.594
			c-0.27-0.104-0.866-0.269-1.79-0.49c-0.925-0.222-1.571-0.432-1.942-0.628c-0.48-0.252-0.838-0.563-1.073-0.937
			c-0.236-0.373-0.354-0.79-0.354-1.252c0-0.508,0.144-0.982,0.432-1.424c0.289-0.441,0.709-0.776,1.263-1.006
			c0.554-0.229,1.169-0.343,1.846-0.343c0.746,0,1.403,0.12,1.973,0.36s1.008,0.594,1.314,1.061
			c0.307,0.466,0.471,0.994,0.494,1.585l-1.276,0.096c-0.068-0.636-0.301-1.116-0.696-1.441c-0.396-0.324-0.98-0.486-1.753-0.486
			c-0.806,0-1.393,0.147-1.761,0.442s-0.552,0.65-0.552,1.066c0,0.361,0.13,0.659,0.391,0.893c0.256,0.233,0.926,0.472,2.007,0.717
			c1.082,0.245,1.824,0.459,2.227,0.642c0.586,0.27,1.018,0.611,1.297,1.025s0.419,0.892,0.419,1.431c0,0.535-0.153,1.04-0.46,1.513
			c-0.307,0.474-0.747,0.842-1.32,1.105c-0.574,0.263-1.221,0.395-1.938,0.395c-0.91,0-1.674-0.133-2.289-0.398
			c-0.615-0.265-1.098-0.664-1.447-1.197S173.049,20.759,173.03,20.087z"/>
	</g>
</g>
</svg>