<!-- Generator: Adobe Illustrator 17.0.0, SVG Export Plug-In  -->
<svg version="1.1"
	 xmlns="http://www.w3.org/2000/svg" xmlns:xlink="http://www.w3.org/1999/xlink" xmlns:a="http://ns.adobe.com/AdobeSVGViewerExtensions/3.0/"
	 x="0px" y="0px" width="348.151px" height="57.694px" viewBox="0 0 348.151 57.694" enable-background="new 0 0 348.151 57.694"
	 xml:space="preserve">
<defs>
</defs>
<g>
	<g>
		<radialGradient id="SVGID_1_" cx="174.0751" cy="28.8482" r="122.6449" gradientUnits="userSpaceOnUse">
			<stop  offset="0" style="stop-color:#8CBB69"/>
			<stop  offset="0.7837" style="stop-color:#6BAD44"/>
		</radialGradient>
		<rect x="2.623" y="2.624" fill="url(#SVGID_1_)" width="342.904" height="52.448"/>
		<path d="M345.527,57.694H2.623C1.176,57.694,0,56.521,0,55.072V2.624C0,1.176,1.176,0,2.623,0h342.904
			c1.45,0,2.624,1.176,2.624,2.624v52.448C348.151,56.521,346.978,57.694,345.527,57.694z M5.247,52.45h337.661V5.247H5.247V52.45z"
			/>
	</g>
</g>
<g>
	<g>
		<path fill="#FFFFFF" d="M32.035,36.619V22.303h10.352v1.689h-8.457v4.385h7.92v1.68h-7.92v4.873h8.789v1.689H32.035z"/>
		<path fill="#FFFFFF" d="M43.777,36.619V22.303h1.895V34.93h7.051v1.689H43.777z"/>
		<path fill="#FFFFFF" d="M56.93,32.02l1.787-0.156c0.085,0.716,0.281,1.304,0.591,1.763s0.789,0.83,1.44,1.113
			s1.384,0.425,2.197,0.425c0.723,0,1.36-0.107,1.914-0.322s0.965-0.51,1.235-0.884s0.405-0.783,0.405-1.226
			c0-0.449-0.13-0.842-0.391-1.177s-0.69-0.617-1.289-0.845c-0.384-0.149-1.233-0.383-2.549-0.698s-2.236-0.613-2.764-0.894
			c-0.684-0.358-1.193-0.803-1.528-1.333s-0.503-1.125-0.503-1.782c0-0.723,0.205-1.398,0.615-2.026s1.009-1.105,1.797-1.431
			s1.663-0.488,2.627-0.488c1.062,0,1.997,0.171,2.808,0.513s1.434,0.845,1.87,1.509s0.671,1.416,0.703,2.256l-1.816,0.137
			c-0.098-0.905-0.428-1.589-0.991-2.051s-1.395-0.693-2.495-0.693c-1.146,0-1.98,0.21-2.505,0.63s-0.786,0.926-0.786,1.519
			c0,0.515,0.186,0.938,0.557,1.27c0.364,0.332,1.316,0.672,2.856,1.021s2.596,0.652,3.169,0.913
			c0.833,0.384,1.448,0.871,1.846,1.46s0.596,1.268,0.596,2.036c0,0.762-0.218,1.479-0.654,2.153s-1.063,1.198-1.88,1.572
			s-1.736,0.562-2.759,0.562c-1.296,0-2.381-0.188-3.257-0.566s-1.563-0.945-2.061-1.704S56.957,32.977,56.93,32.02z"/>
		<path fill="#FFFFFF" d="M69.757,36.619V22.303h1.895v14.316H69.757z"/>
		<path fill="#FFFFFF" d="M72.867,32.02l1.787-0.156c0.085,0.716,0.281,1.304,0.591,1.763s0.789,0.83,1.44,1.113
			s1.384,0.425,2.197,0.425c0.723,0,1.36-0.107,1.914-0.322s0.965-0.51,1.235-0.884s0.405-0.783,0.405-1.226
			c0-0.449-0.13-0.842-0.391-1.177s-0.69-0.617-1.289-0.845c-0.384-0.149-1.233-0.383-2.549-0.698s-2.236-0.613-2.764-0.894
			c-0.684-0.358-1.193-0.803-1.528-1.333s-0.503-1.125-0.503-1.782c0-0.723,0.205-1.398,0.615-2.026s1.009-1.105,1.797-1.431
			s1.663-0.488,2.627-0.488c1.062,0,1.997,0.171,2.808,0.513s1.434,0.845,1.87,1.509s0.671,1.416,0.703,2.256l-1.816,0.137
			c-0.098-0.905-0.428-1.589-0.991-2.051s-1.395-0.693-2.495-0.693c-1.146,0-1.98,0.21-2.505,0.63s-0.786,0.926-0.786,1.519
			c0,0.515,0.186,0.938,0.557,1.27c0.364,0.332,1.316,0.672,2.856,1.021s2.596,0.652,3.169,0.913
			c0.833,0.384,1.448,0.871,1.846,1.46s0.596,1.268,0.596,2.036c0,0.762-0.218,1.479-0.654,2.153s-1.063,1.198-1.88,1.572
			s-1.736,0.562-2.759,0.562c-1.296,0-2.381-0.188-3.257-0.566s-1.563-0.945-2.061-1.704S72.893,32.977,72.867,32.02z"/>
		<path fill="#FFFFFF" d="M89.014,36.619V23.992h-4.717v-1.689h11.348v1.689h-4.736v12.627H89.014z"/>
		<path fill="#FFFFFF" d="M96.147,36.619V22.303h10.352v1.689h-8.457v4.385h7.92v1.68h-7.92v4.873h8.789v1.689H96.147z"/>
		<path fill="#FFFFFF" d="M107.91,36.619V22.303h2.852l3.389,10.137c0.313,0.944,0.54,1.65,0.684,2.119
			c0.163-0.521,0.417-1.286,0.762-2.295l3.428-9.961h2.549v14.316h-1.826V24.637l-4.16,11.982h-1.709l-4.141-12.187v12.187H107.91z"
			/>
		<path fill="#FFFFFF" d="M121.576,36.619l5.498-14.316h2.041l5.859,14.316h-2.158l-1.67-4.336h-5.986l-1.572,4.336H121.576z
			 M125.707,30.74h4.854l-1.494-3.965c-0.456-1.204-0.794-2.194-1.016-2.969c-0.183,0.918-0.439,1.829-0.771,2.734L125.707,30.74z"
			/>
		<path fill="#FFFFFF" d="M139.084,36.619V22.303h4.932c1.113,0,1.963,0.068,2.549,0.205c0.82,0.188,1.521,0.53,2.1,1.025
			c0.755,0.638,1.32,1.453,1.694,2.446s0.562,2.127,0.562,3.403c0,1.087-0.127,2.051-0.381,2.891
			c-0.254,0.84-0.579,1.535-0.977,2.085s-0.832,0.983-1.304,1.299s-1.042,0.555-1.709,0.718s-1.434,0.244-2.3,0.244H139.084z
			 M140.979,34.93h3.057c0.944,0,1.685-0.088,2.222-0.264s0.965-0.423,1.284-0.742c0.449-0.449,0.799-1.053,1.05-1.812
			c0.251-0.759,0.376-1.678,0.376-2.759c0-1.497-0.246-2.648-0.737-3.452s-1.089-1.343-1.792-1.616
			c-0.508-0.195-1.325-0.293-2.451-0.293h-3.008V34.93z"/>
		<path fill="#FFFFFF" d="M152.087,36.619V22.303h10.352v1.689h-8.457v4.385h7.92v1.68h-7.92v4.873h8.789v1.689H152.087z"/>
		<path fill="#FFFFFF" d="M163.83,36.619V22.303h1.895V34.93h7.051v1.689H163.83z"/>
		<path fill="#FFFFFF" d="M177.569,36.619V22.303h2.852l3.389,10.137c0.313,0.944,0.54,1.65,0.684,2.119
			c0.163-0.521,0.417-1.286,0.762-2.295l3.428-9.961h2.549v14.316h-1.826V24.637l-4.16,11.982h-1.709l-4.141-12.187v12.187H177.569z
			"/>
		<path fill="#FFFFFF" d="M191.236,36.619l5.498-14.316h2.041l5.859,14.316h-2.158l-1.67-4.336h-5.986l-1.572,4.336H191.236z
			 M195.367,30.74h4.854l-1.494-3.965c-0.456-1.204-0.794-2.194-1.016-2.969c-0.183,0.918-0.439,1.829-0.771,2.734L195.367,30.74z"
			/>
		<path fill="#FFFFFF" d="M204.697,36.619V22.303h6.348c1.276,0,2.246,0.129,2.91,0.386s1.194,0.711,1.592,1.362
			s0.596,1.37,0.596,2.158c0,1.016-0.329,1.872-0.986,2.568s-1.673,1.14-3.047,1.328c0.501,0.241,0.882,0.479,1.143,0.713
			c0.554,0.508,1.077,1.143,1.572,1.904l2.49,3.896h-2.383l-1.895-2.979c-0.554-0.859-1.009-1.517-1.367-1.973
			c-0.358-0.456-0.679-0.774-0.962-0.957s-0.571-0.31-0.864-0.381c-0.215-0.046-0.566-0.068-1.055-0.068h-2.197v6.357H204.697z
			 M206.591,28.621h4.072c0.866,0,1.543-0.09,2.031-0.269s0.859-0.466,1.113-0.859s0.381-0.822,0.381-1.284
			c0-0.677-0.246-1.233-0.737-1.67s-1.268-0.654-2.329-0.654h-4.531V28.621z"/>
		<path fill="#FFFFFF" d="M227.846,31.6l1.895,0.479c-0.397,1.556-1.111,2.742-2.144,3.56s-2.293,1.226-3.784,1.226
			c-1.543,0-2.798-0.314-3.765-0.942s-1.702-1.538-2.207-2.729c-0.505-1.191-0.757-2.471-0.757-3.838
			c0-1.491,0.285-2.791,0.854-3.901s1.38-1.953,2.432-2.529s2.209-0.864,3.472-0.864c1.433,0,2.637,0.364,3.613,1.094
			s1.657,1.755,2.041,3.076l-1.865,0.439c-0.332-1.042-0.813-1.8-1.445-2.275s-1.426-0.713-2.383-0.713
			c-1.101,0-2.02,0.264-2.759,0.791s-1.258,1.235-1.558,2.124s-0.449,1.805-0.449,2.749c0,1.218,0.178,2.28,0.532,3.188
			c0.354,0.908,0.906,1.587,1.655,2.036s1.56,0.674,2.432,0.674c1.062,0,1.96-0.306,2.695-0.918S227.585,32.804,227.846,31.6z"/>
		<path fill="#FFFFFF" d="M230.018,29.646c0-2.376,0.638-4.236,1.914-5.581s2.923-2.017,4.941-2.017
			c1.321,0,2.513,0.315,3.574,0.947s1.87,1.512,2.427,2.642s0.835,2.41,0.835,3.843c0,1.452-0.293,2.751-0.879,3.896
			s-1.416,2.014-2.49,2.603s-2.233,0.884-3.477,0.884c-1.348,0-2.552-0.325-3.613-0.977s-1.865-1.54-2.412-2.666
			S230.018,30.903,230.018,29.646z M231.971,29.676c0,1.726,0.464,3.084,1.392,4.077s2.092,1.489,3.491,1.489
			c1.426,0,2.6-0.501,3.521-1.504s1.382-2.425,1.382-4.268c0-1.165-0.197-2.183-0.591-3.052s-0.97-1.543-1.729-2.021
			s-1.609-0.718-2.554-0.718c-1.341,0-2.495,0.461-3.462,1.382S231.971,27.52,231.971,29.676z"/>
		<path fill="#FFFFFF" d="M248.669,36.619V22.303h1.895V34.93h7.051v1.689H248.669z"/>
		<path fill="#FFFFFF" d="M257.815,29.646c0-2.376,0.638-4.236,1.914-5.581s2.923-2.017,4.941-2.017
			c1.321,0,2.513,0.315,3.574,0.947s1.87,1.512,2.427,2.642s0.835,2.41,0.835,3.843c0,1.452-0.293,2.751-0.879,3.896
			s-1.416,2.014-2.49,2.603s-2.233,0.884-3.477,0.884c-1.348,0-2.552-0.325-3.613-0.977s-1.865-1.54-2.412-2.666
			S257.815,30.903,257.815,29.646z M259.768,29.676c0,1.726,0.464,3.084,1.392,4.077s2.092,1.489,3.491,1.489
			c1.426,0,2.6-0.501,3.521-1.504s1.382-2.425,1.382-4.268c0-1.165-0.197-2.183-0.591-3.052s-0.97-1.543-1.729-2.021
			s-1.609-0.718-2.554-0.718c-1.341,0-2.495,0.461-3.462,1.382S259.768,27.52,259.768,29.676z M263.459,21.424l1.299-2.734h2.305
			l-2.148,2.734H263.459z"/>
		<path fill="#FFFFFF" d="M279.166,31.004v-1.68l6.064-0.01v5.312c-0.931,0.742-1.892,1.301-2.881,1.675s-2.005,0.562-3.047,0.562
			c-1.406,0-2.684-0.301-3.833-0.903s-2.017-1.473-2.603-2.612s-0.879-2.412-0.879-3.818c0-1.394,0.291-2.693,0.874-3.901
			s1.421-2.104,2.515-2.69s2.354-0.879,3.779-0.879c1.035,0,1.971,0.168,2.808,0.503s1.492,0.803,1.968,1.401
			s0.837,1.38,1.084,2.344l-1.709,0.469c-0.215-0.729-0.481-1.302-0.801-1.719s-0.774-0.75-1.367-1.001s-1.25-0.376-1.973-0.376
			c-0.866,0-1.614,0.132-2.246,0.396s-1.141,0.61-1.528,1.04s-0.688,0.901-0.903,1.416c-0.364,0.886-0.547,1.846-0.547,2.881
			c0,1.276,0.22,2.344,0.659,3.203c0.439,0.859,1.079,1.497,1.919,1.914s1.731,0.625,2.676,0.625c0.82,0,1.621-0.158,2.402-0.474
			s1.374-0.652,1.777-1.011v-2.666H279.166z"/>
		<path fill="#FFFFFF" d="M286.867,36.619V22.303h1.895v14.316H286.867z"/>
		<path fill="#FFFFFF" d="M300.835,31.6l1.895,0.479c-0.397,1.556-1.111,2.742-2.144,3.56s-2.293,1.226-3.784,1.226
			c-1.543,0-2.798-0.314-3.765-0.942s-1.702-1.538-2.207-2.729c-0.505-1.191-0.757-2.471-0.757-3.838
			c0-1.491,0.285-2.791,0.854-3.901s1.38-1.953,2.432-2.529s2.209-0.864,3.472-0.864c1.433,0,2.637,0.364,3.613,1.094
			s1.657,1.755,2.041,3.076l-1.865,0.439c-0.332-1.042-0.813-1.8-1.445-2.275s-1.426-0.713-2.383-0.713
			c-1.101,0-2.02,0.264-2.759,0.791s-1.258,1.235-1.558,2.124s-0.449,1.805-0.449,2.749c0,1.218,0.178,2.28,0.532,3.188
			c0.354,0.908,0.906,1.587,1.655,2.036s1.56,0.674,2.432,0.674c1.062,0,1.96-0.306,2.695-0.918S300.575,32.804,300.835,31.6z"/>
		<path fill="#FFFFFF" d="M303.007,29.646c0-2.376,0.638-4.236,1.914-5.581s2.923-2.017,4.941-2.017
			c1.321,0,2.513,0.315,3.574,0.947s1.87,1.512,2.427,2.642s0.835,2.41,0.835,3.843c0,1.452-0.293,2.751-0.879,3.896
			s-1.416,2.014-2.49,2.603s-2.233,0.884-3.477,0.884c-1.348,0-2.552-0.325-3.613-0.977s-1.865-1.54-2.412-2.666
			S303.007,30.903,303.007,29.646z M304.96,29.676c0,1.726,0.464,3.084,1.392,4.077s2.092,1.489,3.491,1.489
			c1.426,0,2.6-0.501,3.521-1.504s1.382-2.425,1.382-4.268c0-1.165-0.197-2.183-0.591-3.052s-0.97-1.543-1.729-2.021
			s-1.609-0.718-2.554-0.718c-1.341,0-2.495,0.461-3.462,1.382S304.96,27.52,304.96,29.676z"/>
	</g>
</g>
</svg>