<?xml version="1.0" encoding="utf-8"?>
<!-- Generator: Adobe Illustrator 17.0.0, SVG Export Plug-In . SVG Version: 6.00 Build 0)  -->
<!DOCTYPE svg PUBLIC "-//W3C//DTD SVG 1.1//EN" "http://www.w3.org/Graphics/SVG/1.1/DTD/svg11.dtd" [
	<!ENTITY ns_extend "http://ns.adobe.com/Extensibility/1.0/">
	<!ENTITY ns_ai "http://ns.adobe.com/AdobeIllustrator/10.0/">
	<!ENTITY ns_graphs "http://ns.adobe.com/Graphs/1.0/">
	<!ENTITY ns_vars "http://ns.adobe.com/Variables/1.0/">
	<!ENTITY ns_imrep "http://ns.adobe.com/ImageReplacement/1.0/">
	<!ENTITY ns_sfw "http://ns.adobe.com/SaveForWeb/1.0/">
	<!ENTITY ns_custom "http://ns.adobe.com/GenericCustomNamespace/1.0/">
	<!ENTITY ns_adobe_xpath "http://ns.adobe.com/XPath/1.0/">
]>
<svg version="1.1" id="Capa_1" xmlns:x="&ns_extend;" xmlns:i="&ns_ai;" xmlns:graph="&ns_graphs;"
	 xmlns="http://www.w3.org/2000/svg" xmlns:xlink="http://www.w3.org/1999/xlink" x="0px" y="0px" width="294.132px"
	 height="23.664px" viewBox="0 0 294.132 23.664" style="enable-background:new 0 0 294.132 23.664;" xml:space="preserve">
<style type="text/css">
	.st0{fill:#144B8B;}
</style>
<metadata>
	<sfw  xmlns="&ns_sfw;">
		<slices></slices>
		<sliceSourceBounds  width="246.327" height="23.664" y="428.408" x="492.434" bottomLeftOrigin="true"></sliceSourceBounds>
	</sfw>
</metadata>
<g>
	<path class="st0" d="M10.499,14.244c0,0.618-0.125,1.198-0.375,1.739c-0.25,0.541-0.584,1.016-1.003,1.422s-0.906,0.726-1.46,0.959
		c-0.554,0.232-1.141,0.349-1.758,0.349H4.596c-0.618,0-1.204-0.116-1.758-0.349c-0.554-0.233-1.041-0.553-1.46-0.959
		s-0.753-0.881-1.003-1.422S0,14.862,0,14.244V13.52l1.638-0.267v0.99c0,0.406,0.083,0.785,0.248,1.136
		c0.165,0.352,0.387,0.66,0.667,0.928c0.279,0.266,0.603,0.476,0.971,0.628s0.755,0.229,1.162,0.229h1.143
		c0.406,0,0.792-0.076,1.155-0.229s0.686-0.362,0.965-0.628c0.279-0.268,0.501-0.576,0.667-0.928
		c0.165-0.351,0.248-0.729,0.248-1.136v-0.546c0-0.627-0.123-1.146-0.368-1.562s-0.571-0.769-0.978-1.06
		c-0.406-0.293-0.865-0.54-1.377-0.743S5.099,9.928,4.558,9.725S3.489,9.298,2.977,9.052S2.006,8.499,1.6,8.132
		C1.193,7.763,0.868,7.313,0.622,6.779S0.254,5.591,0.254,4.812V4.469c0-0.618,0.116-1.198,0.349-1.739s0.552-1.016,0.958-1.422
		S2.444,0.582,2.99,0.349S4.118,0,4.735,0h1.168c0.618,0,1.198,0.116,1.739,0.349c0.542,0.233,1.016,0.553,1.422,0.959
		S9.79,2.189,10.022,2.73s0.349,1.121,0.349,1.739v0.47L8.734,5.205V4.469c0-0.406-0.076-0.785-0.229-1.136
		c-0.152-0.352-0.36-0.658-0.622-0.921s-0.569-0.47-0.92-0.622s-0.73-0.229-1.136-0.229H4.812c-0.406,0-0.785,0.076-1.136,0.229
		s-0.66,0.359-0.927,0.622S2.272,2.981,2.12,3.333c-0.152,0.351-0.228,0.73-0.228,1.136v0.343c0,0.584,0.123,1.074,0.368,1.473
		s0.571,0.738,0.978,1.021C3.644,7.59,4.103,7.835,4.615,8.042c0.512,0.208,1.039,0.42,1.581,0.635
		c0.541,0.217,1.068,0.453,1.58,0.711c0.512,0.259,0.971,0.576,1.377,0.953c0.406,0.376,0.732,0.836,0.978,1.377
		s0.368,1.201,0.368,1.98V14.244z"/>
	<path class="st0" d="M13.889,2.336V0.254h1.815v2.082H13.889z M14.016,18.459v-13h1.562v13H14.016z"/>
	<path class="st0" d="M28.158,15.158c0,0.524-0.106,1.005-0.317,1.44c-0.211,0.437-0.5,0.811-0.863,1.124s-0.785,0.557-1.263,0.729
		c-0.478,0.174-0.979,0.261-1.504,0.261H23.17c-0.525,0-1.026-0.1-1.504-0.298c-0.478-0.199-0.897-0.473-1.257-0.819
		s-0.647-0.753-0.863-1.219s-0.324-0.96-0.324-1.485V14.37l1.562-0.254v0.863c0,0.313,0.065,0.607,0.197,0.882
		c0.131,0.275,0.307,0.515,0.527,0.718s0.474,0.364,0.762,0.482s0.588,0.178,0.901,0.178h1.041c0.313,0,0.614-0.046,0.901-0.14
		s0.544-0.227,0.768-0.4c0.224-0.173,0.402-0.383,0.533-0.628s0.197-0.524,0.197-0.838c0-0.466-0.102-0.847-0.305-1.143
		s-0.472-0.544-0.806-0.743c-0.334-0.198-0.715-0.363-1.143-0.494c-0.427-0.132-0.865-0.263-1.314-0.395
		c-0.449-0.131-0.887-0.281-1.314-0.45s-0.808-0.392-1.143-0.667c-0.334-0.274-0.603-0.619-0.806-1.034s-0.305-0.931-0.305-1.549
		c0-0.524,0.102-1.005,0.305-1.44c0.203-0.437,0.478-0.811,0.825-1.124s0.751-0.557,1.212-0.729
		c0.461-0.174,0.954-0.261,1.479-0.261h0.914c0.525,0,1.02,0.1,1.485,0.298c0.465,0.199,0.872,0.473,1.219,0.819
		s0.62,0.753,0.819,1.219s0.298,0.96,0.298,1.485v0.051L26.47,9.331V8.938c0-0.313-0.059-0.607-0.178-0.882
		c-0.119-0.275-0.279-0.515-0.482-0.718s-0.442-0.364-0.717-0.482s-0.569-0.178-0.882-0.178h-0.914c-0.313,0-0.607,0.046-0.882,0.14
		s-0.514,0.227-0.717,0.4c-0.203,0.173-0.364,0.383-0.482,0.628s-0.178,0.524-0.178,0.838c0,0.448,0.102,0.814,0.305,1.099
		c0.203,0.283,0.472,0.521,0.806,0.717s0.715,0.357,1.143,0.488c0.427,0.132,0.863,0.268,1.308,0.406
		c0.444,0.141,0.88,0.299,1.308,0.477s0.808,0.406,1.143,0.686s0.603,0.629,0.806,1.047C28.057,14.022,28.158,14.54,28.158,15.158z"
		/>
	<path class="st0" d="M35.89,18.459c-0.474,0-0.92-0.089-1.339-0.267s-0.783-0.424-1.092-0.736s-0.554-0.678-0.736-1.092
		s-0.273-0.859-0.273-1.333V6.944h-2.336V5.459h2.336V2.336l1.562-0.254v3.377h3.301v1.485h-3.301v8.163
		c0,0.263,0.049,0.506,0.146,0.729c0.097,0.225,0.23,0.422,0.4,0.591s0.368,0.303,0.597,0.399c0.229,0.098,0.474,0.146,0.736,0.146
		h1.422v1.485H35.89V18.459z"/>
	<path class="st0" d="M48.566,16.377c-0.199,0.466-0.472,0.872-0.819,1.219s-0.753,0.62-1.219,0.819
		c-0.465,0.198-0.96,0.298-1.485,0.298h-1.041c-0.525,0-1.02-0.1-1.485-0.298c-0.465-0.199-0.872-0.473-1.219-0.819
		s-0.62-0.753-0.819-1.219s-0.298-0.96-0.298-1.485V9.026c0-0.525,0.1-1.02,0.298-1.485s0.472-0.872,0.819-1.219
		s0.753-0.62,1.219-0.819c0.465-0.198,0.96-0.298,1.485-0.298h1.041c0.525,0,1.02,0.1,1.485,0.298
		c0.465,0.199,0.872,0.473,1.219,0.819s0.62,0.753,0.819,1.219s0.298,0.96,0.298,1.485v3.06h-7.122v2.895
		c0,0.313,0.059,0.607,0.178,0.882c0.119,0.275,0.279,0.515,0.482,0.718s0.442,0.364,0.717,0.482s0.569,0.178,0.882,0.178h1.041
		c0.313,0,0.607-0.06,0.882-0.178s0.514-0.279,0.717-0.482s0.364-0.442,0.482-0.718c0.119-0.274,0.178-0.568,0.178-0.882v-0.863
		l1.562,0.254v0.521C48.864,15.417,48.765,15.911,48.566,16.377z M47.303,8.938c0-0.313-0.059-0.607-0.178-0.882
		c-0.119-0.275-0.279-0.515-0.482-0.718S46.2,6.974,45.925,6.855s-0.569-0.178-0.882-0.178h-1.041c-0.313,0-0.607,0.06-0.882,0.178
		s-0.514,0.279-0.717,0.482S42.039,7.78,41.92,8.056c-0.119,0.274-0.178,0.568-0.178,0.882v1.93h5.561
		C47.303,10.868,47.303,8.938,47.303,8.938z"/>
	<path class="st0" d="M65.711,18.459V8.938c0-0.313-0.059-0.607-0.178-0.882c-0.119-0.275-0.279-0.515-0.482-0.718
		s-0.442-0.364-0.717-0.482s-0.569-0.178-0.882-0.178h-0.774c-0.313,0-0.607,0.06-0.882,0.178s-0.516,0.279-0.724,0.482
		s-0.37,0.442-0.489,0.718c-0.119,0.274-0.178,0.568-0.178,0.882v9.521h-1.549V8.938c0-0.313-0.059-0.607-0.178-0.882
		c-0.119-0.275-0.281-0.515-0.489-0.718s-0.449-0.364-0.724-0.482s-0.569-0.178-0.882-0.178h-0.774c-0.313,0-0.607,0.06-0.882,0.178
		s-0.514,0.279-0.717,0.482s-0.364,0.442-0.482,0.718C53.609,8.33,53.55,8.624,53.55,8.938v9.521h-1.562v-13h0.521l0.851,1.32
		c0.355-0.482,0.802-0.865,1.339-1.149c0.538-0.283,1.124-0.425,1.758-0.425h0.127c0.736,0,1.401,0.183,1.993,0.546
		s1.049,0.846,1.371,1.447c0.161-0.297,0.36-0.566,0.597-0.813s0.5-0.455,0.787-0.629c0.288-0.173,0.601-0.309,0.939-0.406
		c0.338-0.097,0.69-0.146,1.054-0.146h0.127c0.525,0,1.02,0.1,1.485,0.298c0.465,0.199,0.872,0.473,1.219,0.819
		s0.62,0.753,0.819,1.219s0.298,0.96,0.298,1.485v9.433h-1.562V18.459z"/>
	<path class="st0" d="M78.559,18.459l-0.863-1.295c-0.355,0.466-0.8,0.84-1.333,1.124c-0.533,0.283-1.117,0.425-1.752,0.425h-0.394
		c-0.525,0-1.02-0.1-1.485-0.298c-0.465-0.199-0.872-0.473-1.219-0.819s-0.62-0.753-0.819-1.219s-0.298-0.96-0.298-1.485v-0.127
		c0-0.525,0.1-1.02,0.298-1.485s0.472-0.872,0.819-1.219s0.753-0.62,1.219-0.819c0.465-0.198,0.96-0.298,1.485-0.298h3.301V8.938
		c0-0.313-0.059-0.607-0.178-0.882c-0.119-0.275-0.279-0.515-0.482-0.718s-0.442-0.364-0.717-0.482s-0.569-0.178-0.882-0.178h-0.914
		c-0.313,0-0.607,0.06-0.882,0.178s-0.514,0.279-0.717,0.482S72.38,7.78,72.262,8.056c-0.119,0.274-0.178,0.568-0.178,0.882v0.47
		l-1.562-0.254V9.026c0-0.525,0.1-1.02,0.298-1.485s0.472-0.872,0.819-1.219s0.753-0.62,1.219-0.819
		c0.465-0.198,0.96-0.298,1.485-0.298h0.914c0.525,0,1.02,0.1,1.485,0.298c0.465,0.199,0.872,0.473,1.219,0.819
		s0.62,0.753,0.819,1.219s0.298,0.96,0.298,1.485v9.433H78.559z M77.518,12.162h-3.301c-0.313,0-0.607,0.06-0.882,0.178
		s-0.514,0.281-0.717,0.489c-0.203,0.207-0.364,0.448-0.482,0.723c-0.119,0.275-0.178,0.57-0.178,0.883v0.546
		c0,0.313,0.059,0.607,0.178,0.882s0.279,0.515,0.482,0.718s0.442,0.364,0.717,0.482s0.569,0.178,0.882,0.178h1.041
		c0.313,0,0.607-0.06,0.882-0.178s0.514-0.279,0.717-0.482s0.364-0.442,0.482-0.718c0.119-0.274,0.178-0.568,0.178-0.882
		L77.518,12.162L77.518,12.162z"/>
	<path class="st0" d="M96.345,18.459l-0.863-1.32c-0.355,0.482-0.8,0.865-1.333,1.149c-0.533,0.283-1.117,0.425-1.752,0.425h-0.394
		c-0.525,0-1.02-0.1-1.485-0.298c-0.465-0.199-0.872-0.473-1.219-0.819s-0.62-0.753-0.819-1.219s-0.298-0.96-0.298-1.485V9.026
		c0-0.525,0.1-1.02,0.298-1.485s0.472-0.872,0.819-1.219s0.753-0.62,1.219-0.819c0.465-0.198,0.96-0.298,1.485-0.298h0.394
		c0.584,0,1.125,0.118,1.625,0.355s0.927,0.567,1.282,0.99V0.254h1.562v18.205H96.345z M95.304,8.938
		c0-0.313-0.059-0.607-0.178-0.882c-0.119-0.275-0.279-0.515-0.482-0.718s-0.442-0.364-0.717-0.482s-0.569-0.178-0.882-0.178h-1.041
		c-0.313,0-0.607,0.06-0.882,0.178s-0.514,0.279-0.717,0.482S90.04,7.78,89.921,8.056c-0.119,0.274-0.178,0.568-0.178,0.882v6.043
		c0,0.313,0.059,0.607,0.178,0.882c0.119,0.275,0.279,0.515,0.482,0.718s0.442,0.364,0.717,0.482s0.569,0.178,0.882,0.178h1.041
		c0.313,0,0.607-0.06,0.882-0.178s0.514-0.279,0.717-0.482s0.364-0.442,0.482-0.718c0.119-0.274,0.178-0.568,0.178-0.882V8.938
		H95.304z"/>
	<path class="st0" d="M108.374,16.377c-0.199,0.466-0.472,0.872-0.819,1.219s-0.753,0.62-1.219,0.819
		c-0.465,0.198-0.96,0.298-1.485,0.298h-1.041c-0.525,0-1.02-0.1-1.485-0.298c-0.465-0.199-0.872-0.473-1.219-0.819
		s-0.62-0.753-0.819-1.219s-0.298-0.96-0.298-1.485V9.026c0-0.525,0.1-1.02,0.298-1.485s0.472-0.872,0.819-1.219
		s0.753-0.62,1.219-0.819c0.465-0.198,0.96-0.298,1.485-0.298h1.041c0.525,0,1.02,0.1,1.485,0.298
		c0.465,0.199,0.872,0.473,1.219,0.819s0.62,0.753,0.819,1.219s0.298,0.96,0.298,1.485v3.06h-7.122v2.895
		c0,0.313,0.059,0.607,0.178,0.882s0.279,0.515,0.482,0.718s0.442,0.364,0.717,0.482s0.569,0.178,0.882,0.178h1.041
		c0.313,0,0.607-0.06,0.882-0.178s0.514-0.279,0.717-0.482s0.364-0.442,0.482-0.718c0.119-0.274,0.178-0.568,0.178-0.882v-0.863
		l1.562,0.254v0.521C108.672,15.417,108.572,15.911,108.374,16.377z M107.11,8.938c0-0.313-0.059-0.607-0.178-0.882
		c-0.119-0.275-0.279-0.515-0.482-0.718s-0.442-0.364-0.717-0.482s-0.569-0.178-0.882-0.178h-1.041c-0.313,0-0.607,0.06-0.882,0.178
		s-0.514,0.279-0.717,0.482s-0.364,0.442-0.482,0.718c-0.119,0.274-0.178,0.568-0.178,0.882v1.93h5.561v-1.93H107.11z"/>
	<path class="st0" d="M112.315,18.459V0.254h1.562v18.205H112.315z"/>
	<path class="st0" d="M137.224,18.459V8.938c0-0.313-0.059-0.607-0.178-0.882c-0.119-0.275-0.279-0.515-0.482-0.718
		s-0.442-0.364-0.717-0.482s-0.569-0.178-0.882-0.178h-0.774c-0.313,0-0.607,0.06-0.882,0.178s-0.516,0.279-0.724,0.482
		s-0.37,0.442-0.489,0.718c-0.119,0.274-0.178,0.568-0.178,0.882v9.521h-1.549V8.938c0-0.313-0.059-0.607-0.178-0.882
		c-0.119-0.275-0.281-0.515-0.489-0.718s-0.449-0.364-0.724-0.482s-0.569-0.178-0.882-0.178h-0.774c-0.313,0-0.607,0.06-0.882,0.178
		s-0.514,0.279-0.717,0.482s-0.364,0.442-0.482,0.718c-0.119,0.274-0.178,0.568-0.178,0.882v9.521H123.5v-13h0.521l0.851,1.32
		c0.355-0.482,0.802-0.865,1.339-1.149c0.538-0.283,1.124-0.425,1.758-0.425h0.127c0.736,0,1.401,0.183,1.993,0.546
		s1.049,0.846,1.371,1.447c0.161-0.297,0.36-0.566,0.597-0.813s0.5-0.455,0.787-0.629c0.288-0.173,0.601-0.309,0.939-0.406
		s0.69-0.146,1.054-0.146h0.127c0.525,0,1.02,0.1,1.485,0.298c0.465,0.199,0.872,0.473,1.219,0.819s0.62,0.753,0.819,1.219
		s0.298,0.96,0.298,1.485v9.433h-1.561V18.459z"/>
	<path class="st0" d="M150.071,18.459l-0.863-1.295c-0.355,0.466-0.8,0.84-1.333,1.124c-0.533,0.283-1.117,0.425-1.752,0.425h-0.394
		c-0.525,0-1.02-0.1-1.485-0.298c-0.465-0.199-0.872-0.473-1.219-0.819s-0.62-0.753-0.819-1.219s-0.298-0.96-0.298-1.485v-0.127
		c0-0.525,0.1-1.02,0.298-1.485s0.472-0.872,0.819-1.219s0.753-0.62,1.219-0.819c0.465-0.198,0.96-0.298,1.485-0.298h3.301V8.938
		c0-0.313-0.059-0.607-0.178-0.882c-0.119-0.275-0.279-0.515-0.482-0.718s-0.442-0.364-0.717-0.482s-0.569-0.178-0.882-0.178h-0.914
		c-0.313,0-0.607,0.06-0.882,0.178s-0.514,0.279-0.717,0.482s-0.364,0.442-0.482,0.718c-0.119,0.274-0.178,0.568-0.178,0.882v0.47
		l-1.562-0.254V9.026c0-0.525,0.1-1.02,0.298-1.485s0.472-0.872,0.819-1.219s0.753-0.62,1.219-0.819
		c0.465-0.198,0.96-0.298,1.485-0.298h0.914c0.525,0,1.02,0.1,1.485,0.298c0.465,0.199,0.872,0.473,1.219,0.819
		s0.62,0.753,0.819,1.219s0.298,0.96,0.298,1.485v9.433H150.071z M149.03,12.162h-3.301c-0.313,0-0.607,0.06-0.882,0.178
		s-0.514,0.281-0.717,0.489c-0.203,0.207-0.364,0.448-0.482,0.723c-0.119,0.275-0.178,0.57-0.178,0.883v0.546
		c0,0.313,0.059,0.607,0.178,0.882c0.119,0.275,0.279,0.515,0.482,0.718s0.442,0.364,0.717,0.482s0.569,0.178,0.882,0.178h1.041
		c0.313,0,0.607-0.06,0.882-0.178s0.514-0.279,0.717-0.482s0.364-0.442,0.482-0.718c0.119-0.274,0.178-0.568,0.178-0.882v-2.819
		H149.03z"/>
	<path class="st0" d="M157.536,6.944c-0.313,0-0.607,0.059-0.882,0.178s-0.514,0.279-0.717,0.482s-0.364,0.442-0.482,0.717
		c-0.119,0.275-0.178,0.57-0.178,0.883v9.255h-1.562v-13h0.521l0.851,1.32c0.355-0.482,0.802-0.865,1.339-1.149
		c0.538-0.283,1.124-0.425,1.758-0.425h0.914v1.739C159.098,6.944,157.536,6.944,157.536,6.944z"/>
	<path class="st0" d="M169.565,16.377c-0.199,0.466-0.472,0.872-0.819,1.219s-0.753,0.62-1.219,0.819
		c-0.465,0.198-0.96,0.298-1.485,0.298h-1.041c-0.525,0-1.02-0.1-1.485-0.298c-0.465-0.199-0.872-0.473-1.219-0.819
		s-0.62-0.753-0.819-1.219s-0.298-0.96-0.298-1.485V9.026c0-0.525,0.1-1.02,0.298-1.485s0.472-0.872,0.819-1.219
		s0.753-0.62,1.219-0.819c0.465-0.198,0.96-0.298,1.485-0.298h1.041c0.525,0,1.02,0.1,1.485,0.298
		c0.465,0.199,0.872,0.473,1.219,0.819s0.62,0.753,0.819,1.219s0.298,0.96,0.298,1.485v0.521l-1.562,0.254V8.938
		c0-0.313-0.059-0.607-0.178-0.882c-0.119-0.275-0.279-0.515-0.482-0.718s-0.442-0.364-0.717-0.482s-0.569-0.178-0.882-0.178h-1.041
		c-0.313,0-0.607,0.06-0.882,0.178s-0.514,0.279-0.717,0.482s-0.364,0.442-0.482,0.718c-0.119,0.274-0.178,0.568-0.178,0.882v6.043
		c0,0.313,0.059,0.607,0.178,0.882c0.119,0.275,0.279,0.515,0.482,0.718s0.442,0.364,0.717,0.482s0.569,0.178,0.882,0.178h1.041
		c0.313,0,0.607-0.06,0.882-0.178s0.514-0.279,0.717-0.482s0.364-0.442,0.482-0.718c0.119-0.274,0.178-0.568,0.178-0.882v-0.863
		l1.562,0.254v0.521C169.863,15.417,169.764,15.911,169.565,16.377z"/>
	<path class="st0" d="M181.372,16.377c-0.199,0.466-0.472,0.872-0.819,1.219s-0.753,0.62-1.219,0.819
		c-0.465,0.198-0.96,0.298-1.485,0.298h-1.041c-0.525,0-1.02-0.1-1.485-0.298c-0.465-0.199-0.872-0.473-1.219-0.819
		s-0.62-0.753-0.819-1.219s-0.298-0.96-0.298-1.485V9.026c0-0.525,0.1-1.02,0.298-1.485s0.472-0.872,0.819-1.219
		s0.753-0.62,1.219-0.819c0.465-0.198,0.96-0.298,1.485-0.298h1.041c0.525,0,1.02,0.1,1.485,0.298
		c0.465,0.199,0.872,0.473,1.219,0.819s0.62,0.753,0.819,1.219s0.298,0.96,0.298,1.485v5.865
		C181.67,15.417,181.57,15.911,181.372,16.377z M180.108,8.938c0-0.313-0.059-0.607-0.178-0.882
		c-0.119-0.275-0.279-0.515-0.482-0.718s-0.442-0.364-0.717-0.482s-0.569-0.178-0.882-0.178h-1.041c-0.313,0-0.607,0.06-0.882,0.178
		s-0.514,0.279-0.717,0.482s-0.364,0.442-0.482,0.718c-0.119,0.274-0.178,0.568-0.178,0.882v6.043c0,0.313,0.059,0.607,0.178,0.882
		c0.119,0.275,0.279,0.515,0.482,0.718s0.442,0.364,0.717,0.482s0.569,0.178,0.882,0.178h1.041c0.313,0,0.607-0.06,0.882-0.178
		s0.514-0.279,0.717-0.482s0.364-0.442,0.482-0.718c0.119-0.274,0.178-0.568,0.178-0.882V8.938z"/>
	<path class="st0" d="M191.293,18.459V0.254h1.562v18.205H191.293z"/>
	<path class="st0" d="M204.883,16.377c-0.199,0.466-0.472,0.872-0.819,1.219s-0.753,0.62-1.219,0.819
		c-0.465,0.198-0.96,0.298-1.485,0.298h-1.041c-0.525,0-1.02-0.1-1.485-0.298c-0.465-0.199-0.872-0.473-1.219-0.819
		s-0.62-0.753-0.819-1.219s-0.298-0.96-0.298-1.485V9.026c0-0.525,0.1-1.02,0.298-1.485s0.472-0.872,0.819-1.219
		s0.753-0.62,1.219-0.819c0.465-0.198,0.96-0.298,1.485-0.298h1.041c0.525,0,1.02,0.1,1.485,0.298
		c0.465,0.199,0.872,0.473,1.219,0.819s0.62,0.753,0.819,1.219s0.298,0.96,0.298,1.485v5.865
		C205.182,15.417,205.082,15.911,204.883,16.377z M203.62,8.938c0-0.313-0.059-0.607-0.178-0.882
		c-0.119-0.275-0.279-0.515-0.482-0.718s-0.442-0.364-0.717-0.482s-0.569-0.178-0.882-0.178h-1.041c-0.313,0-0.607,0.06-0.882,0.178
		s-0.514,0.279-0.717,0.482s-0.364,0.442-0.482,0.718c-0.119,0.274-0.178,0.568-0.178,0.882v6.043c0,0.313,0.059,0.607,0.178,0.882
		c0.119,0.275,0.279,0.515,0.482,0.718s0.442,0.364,0.717,0.482s0.569,0.178,0.882,0.178h1.041c0.313,0,0.607-0.06,0.882-0.178
		s0.514-0.279,0.717-0.482s0.364-0.442,0.482-0.718c0.119-0.274,0.178-0.568,0.178-0.882V8.938z M200.192,3.377h-1.168l2.069-3.123
		h2.603L200.192,3.377z"/>
	<path class="st0" d="M216.817,21.544c-0.199,0.439-0.472,0.816-0.819,1.13s-0.753,0.557-1.219,0.729
		c-0.465,0.174-0.96,0.261-1.485,0.261h-0.647c-0.525,0-1.02-0.087-1.485-0.261c-0.465-0.173-0.872-0.416-1.219-0.729
		s-0.62-0.69-0.819-1.13s-0.298-0.922-0.298-1.447v-0.051c0-0.508,0.093-0.973,0.279-1.396s0.44-0.791,0.762-1.104
		c-0.406-0.245-0.73-0.577-0.971-0.997c-0.241-0.418-0.362-0.882-0.362-1.39c0-0.457,0.097-0.882,0.292-1.276
		c0.195-0.393,0.461-0.713,0.8-0.958c-0.406-0.355-0.728-0.782-0.965-1.282s-0.355-1.045-0.355-1.638V9.026
		c0-0.525,0.1-1.02,0.298-1.485s0.472-0.872,0.819-1.219s0.753-0.62,1.219-0.819c0.465-0.198,0.96-0.298,1.485-0.298h0.647
		c0.635,0,1.221,0.142,1.758,0.425c0.538,0.284,0.984,0.667,1.339,1.149l0.851-1.32h0.521v4.545c0,0.524-0.1,1.021-0.298,1.485
		s-0.472,0.871-0.819,1.219s-0.753,0.62-1.219,0.818c-0.465,0.199-0.96,0.299-1.485,0.299h-2.26c-0.178,0-0.347,0.036-0.508,0.107
		c-0.161,0.072-0.303,0.168-0.425,0.286s-0.218,0.261-0.286,0.425c-0.068,0.166-0.102,0.337-0.102,0.515s0.034,0.347,0.102,0.508
		s0.163,0.303,0.286,0.425c0.123,0.123,0.265,0.219,0.425,0.286s0.33,0.102,0.508,0.102h2.133c0.525,0,1.02,0.087,1.485,0.261
		c0.465,0.173,0.872,0.416,1.219,0.729s0.62,0.69,0.819,1.13s0.298,0.922,0.298,1.447v0.051
		C217.115,20.622,217.016,21.104,216.817,21.544z M215.693,8.938c0-0.313-0.059-0.607-0.178-0.882
		c-0.119-0.275-0.281-0.515-0.489-0.718s-0.449-0.364-0.724-0.482s-0.569-0.178-0.882-0.178h-1.295c-0.313,0-0.607,0.06-0.882,0.178
		s-0.514,0.279-0.717,0.482s-0.364,0.442-0.482,0.718c-0.119,0.274-0.178,0.568-0.178,0.882v1.155c0,0.313,0.059,0.607,0.178,0.883
		c0.119,0.274,0.279,0.514,0.482,0.717s0.442,0.363,0.717,0.482s0.569,0.178,0.882,0.178h1.295c0.313,0,0.607-0.059,0.882-0.178
		s0.516-0.279,0.724-0.482s0.37-0.442,0.489-0.717s0.178-0.57,0.178-0.883V8.938z M215.63,19.97c0-0.313-0.059-0.595-0.178-0.844
		c-0.119-0.25-0.279-0.459-0.482-0.629s-0.442-0.301-0.717-0.394s-0.569-0.14-0.882-0.14h-0.8c-0.313,0-0.607,0.047-0.882,0.14
		s-0.514,0.224-0.717,0.394s-0.364,0.379-0.482,0.629c-0.119,0.249-0.178,0.531-0.178,0.844v0.203c0,0.313,0.059,0.592,0.178,0.838
		s0.279,0.455,0.482,0.629c0.203,0.173,0.442,0.307,0.717,0.399s0.569,0.14,0.882,0.14h0.8c0.313,0,0.607-0.047,0.882-0.14
		s0.514-0.227,0.717-0.399c0.203-0.174,0.364-0.383,0.482-0.629s0.178-0.525,0.178-0.838V19.97z"/>
	<path class="st0" d="M220.505,2.336V0.254h1.815v2.082H220.505z M220.632,18.459v-13h1.562v13H220.632z"/>
	<path class="st0" d="M234.222,16.377c-0.199,0.466-0.472,0.872-0.819,1.219s-0.753,0.62-1.219,0.819
		c-0.465,0.198-0.96,0.298-1.485,0.298h-1.041c-0.525,0-1.02-0.1-1.485-0.298c-0.465-0.199-0.872-0.473-1.219-0.819
		s-0.62-0.753-0.819-1.219s-0.298-0.96-0.298-1.485V9.026c0-0.525,0.1-1.02,0.298-1.485s0.472-0.872,0.819-1.219
		s0.753-0.62,1.219-0.819c0.465-0.198,0.96-0.298,1.485-0.298h1.041c0.525,0,1.02,0.1,1.485,0.298
		c0.465,0.199,0.872,0.473,1.219,0.819s0.62,0.753,0.819,1.219s0.298,0.96,0.298,1.485v0.521l-1.562,0.254V8.938
		c0-0.313-0.059-0.607-0.178-0.882c-0.119-0.275-0.279-0.515-0.482-0.718s-0.442-0.364-0.717-0.482s-0.569-0.178-0.882-0.178h-1.041
		c-0.313,0-0.607,0.06-0.882,0.178s-0.514,0.279-0.717,0.482s-0.364,0.442-0.482,0.718c-0.119,0.274-0.178,0.568-0.178,0.882v6.043
		c0,0.313,0.059,0.607,0.178,0.882c0.119,0.275,0.279,0.515,0.482,0.718s0.442,0.364,0.717,0.482s0.569,0.178,0.882,0.178h1.041
		c0.313,0,0.607-0.06,0.882-0.178s0.514-0.279,0.717-0.482s0.364-0.442,0.482-0.718c0.119-0.274,0.178-0.568,0.178-0.882v-0.863
		l1.562,0.254v0.521C234.521,15.417,234.421,15.911,234.222,16.377z"/>
	<path class="st0" d="M246.029,16.377c-0.199,0.466-0.472,0.872-0.819,1.219s-0.753,0.62-1.219,0.819
		c-0.465,0.198-0.96,0.298-1.485,0.298h-1.041c-0.525,0-1.02-0.1-1.485-0.298c-0.465-0.199-0.872-0.473-1.219-0.819
		s-0.62-0.753-0.819-1.219s-0.298-0.96-0.298-1.485V9.026c0-0.525,0.1-1.02,0.298-1.485s0.472-0.872,0.819-1.219
		s0.753-0.62,1.219-0.819c0.465-0.198,0.96-0.298,1.485-0.298h1.041c0.525,0,1.02,0.1,1.485,0.298
		c0.465,0.199,0.872,0.473,1.219,0.819s0.62,0.753,0.819,1.219s0.298,0.96,0.298,1.485v5.865
		C246.327,15.417,246.228,15.911,246.029,16.377z M244.766,8.938c0-0.313-0.059-0.607-0.178-0.882
		c-0.119-0.275-0.279-0.515-0.482-0.718s-0.442-0.364-0.717-0.482s-0.569-0.178-0.882-0.178h-1.041c-0.313,0-0.607,0.06-0.882,0.178
		s-0.514,0.279-0.717,0.482s-0.364,0.442-0.482,0.718c-0.119,0.274-0.178,0.568-0.178,0.882v6.043c0,0.313,0.059,0.607,0.178,0.882
		c0.119,0.275,0.279,0.515,0.482,0.718s0.442,0.364,0.717,0.482s0.569,0.178,0.882,0.178h1.041c0.313,0,0.607-0.06,0.882-0.178
		s0.514-0.279,0.717-0.482s0.364-0.442,0.482-0.718c0.119-0.274,0.178-0.568,0.178-0.882V8.938z"/>
</g>
</svg>
