<!-- Generator: Adobe Illustrator 17.0.0, SVG Export Plug-In  -->
<svg version="1.1"
	 xmlns="http://www.w3.org/2000/svg" xmlns:xlink="http://www.w3.org/1999/xlink" xmlns:a="http://ns.adobe.com/AdobeSVGViewerExtensions/3.0/"
	 x="0px" y="0px" width="832.807px" height="555.156px" viewBox="0 0 832.807 555.156"
	 style="enable-background:new 0 0 832.807 555.156;" xml:space="preserve">
<style type="text/css">
	.st0{fill:#6BAD44;}
	.st1{fill:url(#SVGID_1_);}
	.st2{fill:url(#SVGID_2_);}
	.st3{fill:url(#SVGID_3_);}
	.st4{fill:#FFFFFF;}
	.st5{fill:url(#SVGID_4_);stroke:#000000;stroke-width:2;stroke-miterlimit:10;}
	.st6{fill:url(#SVGID_5_);stroke:#000000;stroke-width:2;stroke-miterlimit:10;}
	.st7{fill:#FFFFFF;stroke:url(#SVGID_6_);stroke-width:2;stroke-miterlimit:10;}
	.st8{fill:url(#SVGID_7_);}
	.st9{fill:url(#SVGID_8_);}
	.st10{fill:none;stroke:#FFFFFF;stroke-width:3;stroke-miterlimit:10;}
	.st11{fill:#FFFFFF;stroke:#FFFFFF;stroke-miterlimit:10;}
	.st12{fill:#144B8B;}
	.st13{fill:url(#SVGID_9_);}
	.st14{fill:url(#SVGID_10_);}
	.st15{fill:url(#SVGID_11_);}
	.st16{fill:url(#SVGID_12_);stroke:#000000;stroke-width:2;stroke-miterlimit:10;}
	.st17{fill:url(#SVGID_13_);stroke:#000000;stroke-width:2;stroke-miterlimit:10;}
	.st18{fill:#FFFFFF;stroke:url(#SVGID_14_);stroke-width:2;stroke-miterlimit:10;}
	.st19{fill:url(#SVGID_15_);}
	.st20{fill:url(#SVGID_16_);}
</style>
<defs>
</defs>
<g>
	<path class="st0" d="M29.025,51.481V33.247h13.521v3.084h-9.839v4.043h9.154v3.072h-9.154v4.963h10.187v3.072H29.025z"/>
	<path class="st0" d="M44.231,51.481V33.396h3.682v15.013h9.154v3.072H44.231z"/>
	<path class="st0" d="M79.442,51.481h-4.005l-1.593-4.142h-7.288l-1.506,4.142h-3.905l7.103-18.234h3.893L79.442,51.481z
		 M72.663,44.267l-2.513-6.767l-2.462,6.767H72.663z M68.036,32.202l1.717-3.719h3.918l-3.421,3.719H68.036z"/>
	<path class="st0" d="M79.523,51.481V33.247h7.749c1.948,0,3.364,0.164,4.247,0.491c0.884,0.327,1.59,0.91,2.121,1.747
		c0.53,0.838,0.796,1.796,0.796,2.874c0,1.368-0.402,2.498-1.206,3.389c-0.805,0.892-2.007,1.454-3.607,1.686
		c0.796,0.465,1.453,0.975,1.972,1.53c0.518,0.556,1.217,1.542,2.096,2.96l2.227,3.558h-4.403l-2.662-3.968
		c-0.945-1.418-1.592-2.312-1.94-2.681c-0.348-0.369-0.717-0.622-1.106-0.759c-0.391-0.137-1.008-0.205-1.854-0.205h-0.746v7.612
		H79.523z M83.205,40.959h2.724c1.767,0,2.869-0.075,3.309-0.225c0.439-0.148,0.783-0.406,1.032-0.771
		c0.249-0.365,0.373-0.821,0.373-1.368c0-0.614-0.163-1.109-0.491-1.486c-0.327-0.378-0.79-0.616-1.387-0.716
		c-0.299-0.041-1.194-0.063-2.687-0.063h-2.873V40.959z"/>
	<path class="st0" d="M96.034,33.247h7.288c1.443,0,2.52,0.06,3.229,0.18c0.709,0.121,1.343,0.372,1.902,0.753
		c0.56,0.382,1.026,0.89,1.399,1.523c0.373,0.635,0.56,1.346,0.56,2.134c0,0.854-0.229,1.638-0.69,2.351
		c-0.46,0.713-1.084,1.248-1.871,1.604c1.11,0.323,1.965,0.875,2.562,1.654c0.598,0.779,0.896,1.696,0.896,2.749
		c0,0.829-0.192,1.636-0.578,2.419c-0.386,0.784-0.912,1.41-1.579,1.878c-0.668,0.469-1.491,0.757-2.47,0.865
		c-0.613,0.066-2.094,0.107-4.44,0.124h-6.206V33.247z M99.716,36.282v4.216h2.413c1.435,0,2.325-0.021,2.674-0.062
		c0.63-0.075,1.126-0.293,1.486-0.653s0.541-0.835,0.541-1.424c0-0.564-0.155-1.022-0.466-1.375
		c-0.312-0.353-0.773-0.565-1.388-0.641c-0.364-0.041-1.413-0.062-3.146-0.062H99.716z M99.716,43.533v4.876h3.408
		c1.326,0,2.168-0.037,2.524-0.112c0.548-0.1,0.993-0.342,1.337-0.728c0.345-0.386,0.517-0.901,0.517-1.548
		c0-0.548-0.133-1.012-0.398-1.394c-0.266-0.381-0.648-0.659-1.15-0.833c-0.502-0.175-1.59-0.262-3.265-0.262H99.716z"/>
	<path class="st0" d="M111.787,42.476c0-1.857,0.277-3.417,0.833-4.678c0.414-0.928,0.98-1.762,1.698-2.5
		c0.717-0.737,1.503-1.285,2.356-1.642c1.136-0.48,2.446-0.722,3.931-0.722c2.687,0,4.836,0.834,6.449,2.5
		c1.613,1.667,2.419,3.985,2.419,6.953c0,2.944-0.8,5.247-2.4,6.91c-1.601,1.662-3.739,2.493-6.418,2.493
		c-2.712,0-4.868-0.827-6.468-2.481C112.587,47.656,111.787,45.379,111.787,42.476z M115.58,42.351c0,2.064,0.478,3.63,1.431,4.695
		s2.164,1.599,3.632,1.599s2.672-0.528,3.613-1.586s1.412-2.644,1.412-4.758c0-2.09-0.458-3.648-1.374-4.677
		c-0.917-1.028-2.134-1.542-3.651-1.542s-2.74,0.521-3.669,1.561C116.045,38.684,115.58,40.254,115.58,42.351z"/>
	<path class="st0" d="M130.562,51.481V33.396h3.682v15.013h9.154v3.072H130.562z"/>
	<path class="st0" d="M149.317,33.247h6.729c1.518,0,2.674,0.116,3.47,0.348c1.07,0.315,1.986,0.875,2.749,1.68
		s1.344,1.789,1.741,2.954c0.398,1.165,0.598,2.602,0.598,4.31c0,1.501-0.187,2.795-0.56,3.881c-0.457,1.327-1.107,2.4-1.953,3.222
		c-0.639,0.622-1.501,1.107-2.587,1.455c-0.813,0.257-1.899,0.386-3.26,0.386h-6.928V33.247z M152.999,36.331v12.078h2.749
		c1.028,0,1.771-0.058,2.227-0.174c0.597-0.149,1.093-0.402,1.486-0.759s0.715-0.943,0.964-1.761
		c0.249-0.816,0.373-1.93,0.373-3.339c0-1.41-0.124-2.492-0.373-3.247c-0.249-0.754-0.597-1.343-1.045-1.766
		c-0.447-0.423-1.016-0.709-1.704-0.858c-0.514-0.116-1.521-0.175-3.022-0.175H152.999z"/>
	<path class="st0" d="M165.842,51.481V33.247h13.521v3.084h-9.839v4.043h9.154v3.072h-9.154v4.963h10.187v3.072H165.842z"/>
	<path class="st0" d="M186.14,51.481V33.247h5.908c2.238,0,3.698,0.091,4.378,0.273c1.045,0.273,1.92,0.869,2.625,1.785
		c0.704,0.916,1.057,2.1,1.057,3.551c0,1.119-0.203,2.061-0.609,2.823c-0.406,0.764-0.923,1.362-1.549,1.798
		s-1.262,0.724-1.909,0.864c-0.879,0.174-2.151,0.262-3.818,0.262h-2.4v6.878H186.14z M189.821,36.331v5.175h2.015
		c1.451,0,2.422-0.095,2.911-0.286c0.489-0.19,0.872-0.489,1.15-0.896c0.277-0.406,0.417-0.879,0.417-1.418
		c0-0.663-0.195-1.211-0.585-1.642c-0.39-0.432-0.883-0.701-1.48-0.809c-0.439-0.083-1.322-0.125-2.649-0.125H189.821z"/>
	<path class="st0" d="M201.259,51.481V33.247h7.749c1.948,0,3.364,0.164,4.247,0.491c0.884,0.327,1.59,0.91,2.121,1.747
		c0.53,0.838,0.796,1.796,0.796,2.874c0,1.368-0.402,2.498-1.206,3.389c-0.805,0.892-2.007,1.454-3.607,1.686
		c0.796,0.465,1.453,0.975,1.972,1.53c0.518,0.556,1.217,1.542,2.096,2.96l2.227,3.558h-4.403l-2.662-3.968
		c-0.945-1.418-1.592-2.312-1.94-2.681c-0.348-0.369-0.717-0.622-1.106-0.759c-0.391-0.137-1.008-0.205-1.854-0.205h-0.746v7.612
		H201.259z M204.94,40.959h2.724c1.767,0,2.869-0.075,3.309-0.225c0.439-0.148,0.783-0.406,1.032-0.771
		c0.249-0.365,0.373-0.821,0.373-1.368c0-0.614-0.163-1.109-0.491-1.486c-0.327-0.378-0.79-0.616-1.387-0.716
		c-0.299-0.041-1.194-0.063-2.687-0.063h-2.873V40.959z"/>
	<path class="st0" d="M217.012,42.476c0-1.857,0.277-3.417,0.833-4.678c0.414-0.928,0.98-1.762,1.698-2.5
		c0.717-0.737,1.503-1.285,2.356-1.642c1.136-0.48,2.446-0.722,3.931-0.722c2.687,0,4.836,0.834,6.449,2.5
		c1.613,1.667,2.419,3.985,2.419,6.953c0,2.944-0.8,5.247-2.4,6.91c-1.601,1.662-3.739,2.493-6.418,2.493
		c-2.712,0-4.868-0.827-6.468-2.481C217.811,47.656,217.012,45.379,217.012,42.476z M220.805,42.351c0,2.064,0.478,3.63,1.431,4.695
		s2.164,1.599,3.632,1.599s2.672-0.528,3.613-1.586s1.412-2.644,1.412-4.758c0-2.09-0.458-3.648-1.374-4.677
		c-0.917-1.028-2.134-1.542-3.651-1.542s-2.74,0.521-3.669,1.561C221.269,38.684,220.805,40.254,220.805,42.351z"/>
	<path class="st0" d="M235.699,33.247h7.288c1.443,0,2.52,0.06,3.229,0.18c0.709,0.121,1.343,0.372,1.902,0.753
		c0.56,0.382,1.026,0.89,1.399,1.523c0.373,0.635,0.56,1.346,0.56,2.134c0,0.854-0.229,1.638-0.69,2.351
		c-0.46,0.713-1.084,1.248-1.871,1.604c1.11,0.323,1.965,0.875,2.562,1.654c0.598,0.779,0.896,1.696,0.896,2.749
		c0,0.829-0.192,1.636-0.578,2.419c-0.386,0.784-0.912,1.41-1.579,1.878c-0.668,0.469-1.491,0.757-2.47,0.865
		c-0.613,0.066-2.094,0.107-4.44,0.124h-6.206V33.247z M239.381,36.282v4.216h2.413c1.435,0,2.325-0.021,2.674-0.062
		c0.63-0.075,1.126-0.293,1.486-0.653s0.541-0.835,0.541-1.424c0-0.564-0.155-1.022-0.466-1.375
		c-0.312-0.353-0.773-0.565-1.388-0.641c-0.364-0.041-1.413-0.062-3.146-0.062H239.381z M239.381,43.533v4.876h3.408
		c1.326,0,2.168-0.037,2.524-0.112c0.548-0.1,0.993-0.342,1.337-0.728c0.345-0.386,0.517-0.901,0.517-1.548
		c0-0.548-0.133-1.012-0.398-1.394c-0.266-0.381-0.648-0.659-1.15-0.833c-0.502-0.175-1.59-0.262-3.265-0.262H239.381z"/>
	<path class="st0" d="M252.298,51.481V33.396h3.682v15.013h9.154v3.072H252.298z"/>
	<path class="st0" d="M265.874,51.481V33.247h13.521v3.084h-9.839v4.043h9.154v3.072h-9.154v4.963h10.187v3.072H265.874z"/>
	<path class="st0" d="M280.931,51.481V33.247h5.51l3.309,12.438l3.271-12.438h5.522v18.234h-3.42V37.128l-3.62,14.354h-3.545
		l-3.607-14.354v14.354H280.931z"/>
	<path class="st0" d="M316.758,51.481h-4.005l-1.593-4.142h-7.288l-1.506,4.142h-3.905l7.103-18.234h3.893L316.758,51.481z
		 M309.978,44.267l-2.513-6.767l-2.462,6.767H309.978z"/>
	<path class="st0" d="M315.894,45.548l3.582-0.349c0.215,1.202,0.652,2.085,1.312,2.649c0.66,0.563,1.549,0.846,2.669,0.846
		c1.186,0,2.079-0.251,2.68-0.753c0.602-0.501,0.902-1.088,0.902-1.76c0-0.431-0.127-0.798-0.38-1.101s-0.694-0.566-1.324-0.79
		c-0.432-0.149-1.414-0.414-2.948-0.796c-1.974-0.489-3.358-1.091-4.154-1.804c-1.119-1.003-1.679-2.227-1.679-3.669
		c0-0.929,0.263-1.798,0.789-2.606c0.527-0.809,1.285-1.424,2.276-1.847s2.188-0.635,3.589-0.635c2.288,0,4.011,0.502,5.168,1.505
		c1.157,1.004,1.764,2.343,1.822,4.018l-3.682,0.162c-0.158-0.937-0.496-1.61-1.014-2.021c-0.519-0.41-1.296-0.615-2.332-0.615
		c-1.07,0-1.908,0.22-2.513,0.659c-0.39,0.282-0.585,0.659-0.585,1.132c0,0.432,0.183,0.801,0.548,1.107
		c0.464,0.39,1.592,0.796,3.383,1.219s3.116,0.86,3.974,1.313c0.858,0.451,1.53,1.069,2.016,1.853
		c0.485,0.784,0.728,1.752,0.728,2.904c0,1.045-0.29,2.023-0.871,2.936c-0.58,0.912-1.401,1.591-2.463,2.034
		s-2.384,0.665-3.968,0.665c-2.305,0-4.075-0.532-5.311-1.599C316.871,49.14,316.134,47.588,315.894,45.548z"/>
</g>
<g>
	<radialGradient id="SVGID_1_" cx="460.2694" cy="149.5213" r="166.1522" gradientUnits="userSpaceOnUse">
		<stop  offset="0" style="stop-color:#8CBB69"/>
		<stop  offset="0.7837" style="stop-color:#6BAD44"/>
	</radialGradient>
	<path class="st1" d="M610.214,121.33c-10.352-8.321-25.968-14.705-39.247-14.934c-9.64-0.168-26.045,3.24-32.424,10.211
		c15.765-30.567,9.162-71.754-16.257-95.402c-28.035-26.084-74.885-28.243-105.845-5.703
		c-30.963,22.533-43.431,66.877-29.77,102.654c-30.391-20.227-75.67-6.184-95.032,24.767c-19.36,30.947-15.21,72.787,3.892,103.898
		c15.982,26.027,42.49,46.242,72.636,51.145c30.146,4.896,63.314-7.096,80.613-32.272c6.142,9.281,12.423,17.818,22.845,21.725
		c4.432,1.662,10.051,2.961,14.784,3.008c13.053,0.133,27.995-3.747,35.321-15.13c37.438,21.921,91.002,1.778,109.416-37.5
		C649.563,198.517,644.027,148.507,610.214,121.33z"/>
	<linearGradient id="SVGID_2_" gradientUnits="userSpaceOnUse" x1="300.9209" y1="360.2545" x2="622.9209" y2="360.2545">
		<stop  offset="0" style="stop-color:#684C32"/>
		<stop  offset="0.5" style="stop-color:#8C6239"/>
		<stop  offset="1" style="stop-color:#603813"/>
	</linearGradient>
	<path class="st2" d="M536.254,462.489c0,0-33.333,11.334-48,7.334s-26.667-21.334-27.984-30.667s1.317-16,7.317-19.333
		c6-3.333,35.893,16,35.893,16l-28.56-24.667c0,0-15.334-5.333-10.667-24.667c4.667-19.334,27.965,22,27.965,22l-3.965-18.666
		l33.01,18l22.99,20.666l-6.667-19.333l85.334,19.333l-38.73-12.666l10.73-12.667l-16,10l-46.667-10.667l12-12
		c-28.667,12.666-26.667,6.667-26.667,6.667c-23.74-11.229-34.649-25.082-39.582-36.436l0.702-0.043
		c-4.355-17.928-7.039-36.262-8.01-54.681c-0.871-16.558-0.209-33.81,7.186-48.651c6.204-12.449,18.236-22.633,31.68-24.633
		c-9.822-0.951-20.453-0.664-30.68,1.834c4.688-22.844,16.202-44.939,32.478-61.64c-26.111,19.682-47.16,46.023-60.594,75.835
		c-13.066-31.105-32.289-59.611-56.227-83.389c38.271,54.336,51.605,126.092,35.945,190.686c-2.325,8.051-6.786,17.303-16.231,20.45
		c-14,4.666-52.738,8.667-52.738,8.667l48.738,1.333l-39.425,16.667l-55.242-8l17.334,9.333l-24.773,26l32.773-26.666l29.908,2
		l-14.575,22c28.667-36.666,54.667-29.334,54.667-29.334v14.667l20.666-29.333c6.666-8,7.334,7.333,6.667,20
		c-0.667,12.667-32.107,34.666-32.107,34.666l20.107-10c24.667-16,13.333,24.667,12.667,28.667c-0.666,4-12,10.667-12,10.667
		c-3.333-4-65.405-3.334-65.405-3.334l-27.929-14l24,14.667c-20-0.667-35.333,6.667-35.333,6.667l-21.333,9.333l26-6
		c0,0,6,20,6,19.333s-2.873-22.666-2.873-22.666c7.794-8,80.873,0.666,80.873,0.666l15.333,4.667l-12,17.333l33.333-28.666
		c4.666-2,1.334,54.666,1.334,54.666l-30.744,12.667l-12.029-4l7.44,6v10.667l4.59-8.667l31.41-10l3.364,28v-20.667l7.318,2.667
		l-7.318-6l3.303-23.333l17.333,12l-17.333-17.334l1.333-40c2-5.334,17.334,26.667,17.334,26.667l7.333,20.667l1.333-10.667
		l27.774,23.333l-25.774-28.666l35.677,13.333l-39.01-19.333c-14.667-6-14.667-20.667-14.667-20.667
		c28.666,4,116.604,61.333,116.604,61.333c-20.03-16.533-83.323-54-83.323-54l31.387-4.666l24.052,22l34.615,20.666l-25.334-19.333
		l-19.333-14.667l-6-7.812l55.333-10.188L536.254,462.489z"/>
	<g>
		<g>
			<g>
				<radialGradient id="SVGID_3_" cx="153.8779" cy="309.6832" r="89.8174" gradientUnits="userSpaceOnUse">
					<stop  offset="0" style="stop-color:#8CBB69"/>
					<stop  offset="0.7837" style="stop-color:#6BAD44"/>
				</radialGradient>
				<rect x="30.892" y="277.923" class="st3" width="245.973" height="63.52"/>
				<path class="st4" d="M276.864,344.198H30.892c-1.682,0-3.049-1.232-3.049-2.755v-63.52c0-1.521,1.367-2.757,3.049-2.757h245.973
					c1.686,0,3.051,1.235,3.051,2.757v63.52C279.915,342.965,278.55,344.198,276.864,344.198z M33.942,338.687h239.877V280.68
					H33.942V338.687z"/>
			</g>
		</g>
		<radialGradient id="SVGID_4_" cx="149.1352" cy="202.8829" r="35.6604" gradientUnits="userSpaceOnUse">
			<stop  offset="0" style="stop-color:#8CBB69"/>
			<stop  offset="0.7837" style="stop-color:#6BAD44"/>
		</radialGradient>
		<polygon class="st5" points="185.927,204.95 176.063,199.256 176.063,204.587 114.598,204.587 114.598,183.732 102.481,183.732 
			102.481,216.704 114.598,216.704 114.598,216.703 176.063,216.703 176.063,222.034 185.927,216.339 195.789,210.645 		"/>
		<radialGradient id="SVGID_5_" cx="138.8383" cy="379.0021" r="43.2597" gradientUnits="userSpaceOnUse">
			<stop  offset="0" style="stop-color:#8CBB69"/>
			<stop  offset="0.7837" style="stop-color:#6BAD44"/>
		</radialGradient>
		<polygon class="st6" points="181.63,393.069 171.767,387.376 171.767,392.706 98.301,392.706 98.301,347.851 86.185,347.851 
			86.185,404.823 98.301,404.823 98.301,404.822 171.767,404.822 171.767,410.153 181.63,404.458 191.492,398.764 		"/>
		<g>
			<g>
				<radialGradient id="SVGID_6_" cx="576.1729" cy="312.7769" r="21.7175" gradientUnits="userSpaceOnUse">
					<stop  offset="0" style="stop-color:#8CBB69"/>
					<stop  offset="0.7837" style="stop-color:#6BAD44"/>
				</radialGradient>
				<polygon class="st7" points="597.671,302.577 588.889,302.577 588.889,293.601 572.282,303.189 555.675,312.777 
					572.282,322.366 588.889,331.953 588.889,322.978 597.671,322.978 				"/>
			</g>
		</g>
		<g>
			<g>
				<radialGradient id="SVGID_7_" cx="153.8779" cy="147.3073" r="89.8173" gradientUnits="userSpaceOnUse">
					<stop  offset="0" style="stop-color:#8CBB69"/>
					<stop  offset="0.7837" style="stop-color:#6BAD44"/>
				</radialGradient>
				<rect x="30.892" y="115.547" class="st8" width="245.973" height="63.52"/>
				<path class="st4" d="M276.864,181.822H30.892c-1.682,0-3.049-1.232-3.049-2.755v-63.519c0-1.521,1.367-2.757,3.049-2.757
					h245.973c1.686,0,3.051,1.235,3.051,2.757v63.519C279.915,180.59,278.55,181.822,276.864,181.822z M33.942,176.311h239.877
					v-58.007H33.942V176.311z"/>
			</g>
		</g>
		<g>
			<path class="st4" d="M46.008,141.156v-15.893h8.944v1.363h-7.515v5.907h6.085v1.362h-6.085v5.896h7.515v1.363H46.008z"/>
			<path class="st4" d="M61.125,126.559c-0.229,0-0.441,0.043-0.638,0.128c-0.195,0.085-0.367,0.201-0.516,0.349
				c-0.147,0.148-0.264,0.322-0.349,0.521s-0.128,0.414-0.128,0.643v1.607h2.649v1.297h-2.649v10.052h-1.362v-10.052h-2.051v-1.297
				h2.051v-1.541c0-0.413,0.077-0.804,0.232-1.169c0.155-0.366,0.369-0.686,0.643-0.959s0.591-0.487,0.953-0.643
				s0.75-0.232,1.164-0.232h1.252v1.296H61.125z"/>
			<path class="st4" d="M71.061,139.339c-0.174,0.406-0.412,0.761-0.715,1.063c-0.303,0.304-0.658,0.542-1.064,0.715
				c-0.406,0.174-0.838,0.261-1.296,0.261h-0.909c-0.458,0-0.891-0.087-1.297-0.261c-0.406-0.173-0.761-0.411-1.063-0.715
				c-0.304-0.303-0.542-0.657-0.715-1.063c-0.174-0.406-0.261-0.839-0.261-1.297v-5.12c0-0.458,0.087-0.891,0.261-1.297
				c0.173-0.406,0.411-0.761,0.715-1.064c0.303-0.303,0.657-0.541,1.063-0.715c0.406-0.173,0.839-0.26,1.297-0.26h0.909
				c0.458,0,0.89,0.087,1.296,0.26c0.406,0.174,0.762,0.412,1.064,0.715c0.303,0.304,0.541,0.658,0.715,1.064
				s0.261,0.839,0.261,1.297v2.671h-6.218v2.526c0,0.273,0.052,0.53,0.155,0.771s0.243,0.449,0.421,0.626
				c0.178,0.178,0.386,0.318,0.626,0.422s0.497,0.155,0.771,0.155h0.909c0.272,0,0.529-0.052,0.77-0.155s0.449-0.244,0.627-0.422
				c0.177-0.177,0.317-0.386,0.421-0.626s0.155-0.497,0.155-0.771v-0.753l1.363,0.222v0.454
				C71.321,138.5,71.234,138.932,71.061,139.339z M69.958,132.843c0-0.273-0.052-0.529-0.155-0.77s-0.244-0.449-0.421-0.627
				c-0.178-0.177-0.387-0.317-0.627-0.421s-0.497-0.155-0.77-0.155h-0.909c-0.273,0-0.53,0.052-0.771,0.155
				s-0.448,0.244-0.626,0.421c-0.178,0.178-0.317,0.387-0.421,0.627s-0.155,0.496-0.155,0.77v1.685h4.854V132.843z"/>
			<path class="st4" d="M81.367,139.339c-0.174,0.406-0.412,0.761-0.715,1.063c-0.303,0.304-0.658,0.542-1.064,0.715
				c-0.406,0.174-0.838,0.261-1.296,0.261h-0.909c-0.458,0-0.891-0.087-1.297-0.261c-0.406-0.173-0.761-0.411-1.063-0.715
				c-0.304-0.303-0.542-0.657-0.715-1.063c-0.174-0.406-0.261-0.839-0.261-1.297v-5.12c0-0.458,0.087-0.891,0.261-1.297
				c0.173-0.406,0.411-0.761,0.715-1.064c0.303-0.303,0.657-0.541,1.063-0.715c0.406-0.173,0.839-0.26,1.297-0.26h0.909
				c0.458,0,0.89,0.087,1.296,0.26c0.406,0.174,0.762,0.412,1.064,0.715c0.303,0.304,0.541,0.658,0.715,1.064
				s0.261,0.839,0.261,1.297v0.454l-1.363,0.222v-0.754c0-0.273-0.052-0.529-0.155-0.77s-0.244-0.449-0.421-0.627
				c-0.178-0.177-0.387-0.317-0.627-0.421s-0.497-0.155-0.77-0.155h-0.909c-0.273,0-0.53,0.052-0.771,0.155
				s-0.448,0.244-0.626,0.421c-0.178,0.178-0.317,0.387-0.421,0.627s-0.155,0.496-0.155,0.77v5.275c0,0.273,0.052,0.53,0.155,0.771
				s0.243,0.449,0.421,0.626c0.178,0.178,0.386,0.318,0.626,0.422s0.497,0.155,0.771,0.155h0.909c0.272,0,0.529-0.052,0.77-0.155
				s0.449-0.244,0.627-0.422c0.177-0.177,0.317-0.386,0.421-0.626s0.155-0.497,0.155-0.771v-0.753l1.363,0.222v0.454
				C81.628,138.5,81.541,138.932,81.367,139.339z"/>
			<path class="st4" d="M88.487,141.156c-0.414,0-0.804-0.077-1.169-0.232c-0.366-0.155-0.684-0.37-0.953-0.644
				c-0.271-0.272-0.484-0.591-0.643-0.953c-0.159-0.361-0.238-0.749-0.238-1.163v-7.06h-2.04v-1.297h2.04v-2.727l1.362-0.222v2.948
				h2.882v1.297h-2.882v7.126c0,0.229,0.043,0.441,0.128,0.637c0.085,0.196,0.201,0.368,0.349,0.516
				c0.148,0.148,0.322,0.265,0.521,0.35s0.413,0.127,0.643,0.127h1.241v1.297H88.487z"/>
			<path class="st4" d="M99.554,139.339c-0.174,0.406-0.412,0.761-0.715,1.063c-0.303,0.304-0.658,0.542-1.064,0.715
				c-0.406,0.174-0.838,0.261-1.296,0.261h-0.909c-0.458,0-0.891-0.087-1.297-0.261c-0.406-0.173-0.761-0.411-1.063-0.715
				c-0.304-0.303-0.542-0.657-0.715-1.063c-0.174-0.406-0.261-0.839-0.261-1.297v-5.12c0-0.458,0.087-0.891,0.261-1.297
				c0.173-0.406,0.411-0.761,0.715-1.064c0.303-0.303,0.657-0.541,1.063-0.715c0.406-0.173,0.839-0.26,1.297-0.26h0.909
				c0.458,0,0.89,0.087,1.296,0.26c0.406,0.174,0.762,0.412,1.064,0.715c0.303,0.304,0.541,0.658,0.715,1.064
				s0.261,0.839,0.261,1.297v5.12C99.814,138.5,99.727,138.932,99.554,139.339z M98.451,132.843c0-0.273-0.052-0.529-0.155-0.77
				s-0.244-0.449-0.421-0.627c-0.178-0.177-0.387-0.317-0.627-0.421s-0.497-0.155-0.77-0.155h-0.909
				c-0.273,0-0.53,0.052-0.771,0.155s-0.448,0.244-0.626,0.421c-0.178,0.178-0.317,0.387-0.421,0.627s-0.155,0.496-0.155,0.77v5.275
				c0,0.273,0.052,0.53,0.155,0.771s0.243,0.449,0.421,0.626c0.178,0.178,0.386,0.318,0.626,0.422s0.497,0.155,0.771,0.155h0.909
				c0.272,0,0.529-0.052,0.77-0.155s0.449-0.244,0.627-0.422c0.177-0.177,0.317-0.386,0.421-0.626s0.155-0.497,0.155-0.771V132.843z
				"/>
			<path class="st4" d="M110.344,138.274c0,0.458-0.093,0.878-0.277,1.258c-0.185,0.381-0.437,0.708-0.754,0.981
				s-0.686,0.485-1.103,0.637c-0.418,0.151-0.855,0.228-1.313,0.228h-0.909c-0.458,0-0.896-0.087-1.313-0.261
				c-0.418-0.173-0.783-0.411-1.098-0.715c-0.314-0.303-0.565-0.657-0.754-1.063s-0.282-0.839-0.282-1.297v-0.454l1.363-0.222v0.753
				c0,0.273,0.057,0.53,0.172,0.771c0.114,0.24,0.268,0.449,0.46,0.626c0.191,0.178,0.413,0.318,0.665,0.422
				c0.251,0.104,0.513,0.155,0.786,0.155h0.909c0.273,0,0.536-0.041,0.787-0.122c0.251-0.082,0.475-0.198,0.67-0.35
				c0.196-0.151,0.352-0.334,0.466-0.549c0.114-0.214,0.172-0.458,0.172-0.731c0-0.406-0.089-0.738-0.266-0.997
				c-0.178-0.259-0.412-0.475-0.704-0.648s-0.624-0.317-0.997-0.433c-0.374-0.114-0.756-0.229-1.147-0.343
				c-0.392-0.115-0.774-0.246-1.147-0.394c-0.373-0.148-0.705-0.342-0.997-0.582s-0.526-0.541-0.704-0.903
				c-0.177-0.362-0.266-0.813-0.266-1.353c0-0.458,0.089-0.877,0.266-1.258c0.178-0.38,0.418-0.707,0.721-0.98
				s0.655-0.485,1.059-0.638c0.402-0.151,0.833-0.227,1.291-0.227h0.798c0.458,0,0.891,0.087,1.297,0.26
				c0.406,0.174,0.761,0.412,1.063,0.715c0.304,0.304,0.542,0.658,0.715,1.064c0.174,0.406,0.261,0.839,0.261,1.297v0.044
				l-1.363,0.222v-0.344c0-0.273-0.052-0.529-0.155-0.77s-0.243-0.449-0.421-0.627c-0.178-0.177-0.386-0.317-0.626-0.421
				s-0.497-0.155-0.771-0.155h-0.798c-0.273,0-0.53,0.041-0.771,0.122s-0.448,0.198-0.626,0.35s-0.317,0.334-0.421,0.548
				c-0.104,0.215-0.155,0.458-0.155,0.731c0,0.392,0.089,0.712,0.266,0.959c0.178,0.248,0.412,0.456,0.704,0.626
				s0.624,0.313,0.997,0.427c0.373,0.115,0.754,0.232,1.142,0.354s0.769,0.261,1.142,0.416s0.706,0.354,0.998,0.599
				c0.291,0.243,0.526,0.549,0.703,0.914C110.255,137.283,110.344,137.735,110.344,138.274z"/>
			<path class="st4" d="M120.019,145.7h-1.319l2.018-5.52l-3.68-10.373h1.363l2.959,8.6l0.044,0.588l0.045-0.588l2.948-8.6h1.363
				L120.019,145.7z"/>
			<path class="st4" d="M139.663,139.339c-0.174,0.406-0.412,0.761-0.715,1.063c-0.303,0.304-0.658,0.542-1.064,0.715
				c-0.406,0.174-0.838,0.261-1.296,0.261h-0.909c-0.458,0-0.891-0.087-1.297-0.261c-0.406-0.173-0.761-0.411-1.063-0.715
				c-0.304-0.303-0.542-0.657-0.715-1.063c-0.174-0.406-0.261-0.839-0.261-1.297v-5.12c0-0.458,0.087-0.891,0.261-1.297
				c0.173-0.406,0.411-0.761,0.715-1.064c0.303-0.303,0.657-0.541,1.063-0.715c0.406-0.173,0.839-0.26,1.297-0.26h0.909
				c0.458,0,0.89,0.087,1.296,0.26c0.406,0.174,0.762,0.412,1.064,0.715c0.303,0.304,0.541,0.658,0.715,1.064
				s0.261,0.839,0.261,1.297v0.454l-1.363,0.222v-0.754c0-0.273-0.052-0.529-0.155-0.77s-0.244-0.449-0.421-0.627
				c-0.178-0.177-0.387-0.317-0.627-0.421s-0.497-0.155-0.77-0.155h-0.909c-0.273,0-0.53,0.052-0.771,0.155
				s-0.448,0.244-0.626,0.421c-0.178,0.178-0.317,0.387-0.421,0.627s-0.155,0.496-0.155,0.77v5.275c0,0.273,0.052,0.53,0.155,0.771
				s0.243,0.449,0.421,0.626c0.178,0.178,0.386,0.318,0.626,0.422s0.497,0.155,0.771,0.155h0.909c0.272,0,0.529-0.052,0.77-0.155
				s0.449-0.244,0.627-0.422c0.177-0.177,0.317-0.386,0.421-0.626s0.155-0.497,0.155-0.771v-0.753l1.363,0.222v0.454
				C139.924,138.5,139.837,138.932,139.663,139.339z"/>
			<path class="st4" d="M149.971,139.339c-0.174,0.406-0.412,0.761-0.715,1.063c-0.303,0.304-0.658,0.542-1.064,0.715
				c-0.406,0.174-0.838,0.261-1.296,0.261h-0.909c-0.458,0-0.891-0.087-1.297-0.261c-0.406-0.173-0.761-0.411-1.063-0.715
				c-0.304-0.303-0.542-0.657-0.715-1.063c-0.174-0.406-0.261-0.839-0.261-1.297v-5.12c0-0.458,0.087-0.891,0.261-1.297
				c0.173-0.406,0.411-0.761,0.715-1.064c0.303-0.303,0.657-0.541,1.063-0.715c0.406-0.173,0.839-0.26,1.297-0.26h0.909
				c0.458,0,0.89,0.087,1.296,0.26c0.406,0.174,0.762,0.412,1.064,0.715c0.303,0.304,0.541,0.658,0.715,1.064
				s0.261,0.839,0.261,1.297v5.12C150.231,138.5,150.144,138.932,149.971,139.339z M148.868,132.843c0-0.273-0.052-0.529-0.155-0.77
				s-0.244-0.449-0.421-0.627c-0.178-0.177-0.387-0.317-0.627-0.421s-0.497-0.155-0.77-0.155h-0.909
				c-0.273,0-0.53,0.052-0.771,0.155s-0.448,0.244-0.626,0.421c-0.178,0.178-0.317,0.387-0.421,0.627s-0.155,0.496-0.155,0.77v5.275
				c0,0.273,0.052,0.53,0.155,0.771s0.243,0.449,0.421,0.626c0.178,0.178,0.386,0.318,0.626,0.422s0.497,0.155,0.771,0.155h0.909
				c0.272,0,0.529-0.052,0.77-0.155s0.449-0.244,0.627-0.422c0.177-0.177,0.317-0.386,0.421-0.626s0.155-0.497,0.155-0.771V132.843z
				"/>
			<path class="st4" d="M159.175,141.156v-8.313c0-0.273-0.052-0.529-0.155-0.77s-0.244-0.449-0.421-0.627
				c-0.178-0.177-0.387-0.317-0.627-0.421s-0.497-0.155-0.77-0.155h-0.909c-0.273,0-0.53,0.052-0.771,0.155
				s-0.448,0.244-0.626,0.421c-0.178,0.178-0.317,0.387-0.421,0.627s-0.155,0.496-0.155,0.77v8.313h-1.363v-11.349h0.454
				l0.743,1.152c0.31-0.421,0.699-0.756,1.169-1.003c0.469-0.247,0.98-0.371,1.535-0.371h0.344c0.458,0,0.89,0.087,1.296,0.26
				c0.406,0.174,0.762,0.412,1.064,0.715c0.303,0.304,0.541,0.658,0.715,1.064s0.261,0.839,0.261,1.297v8.234H159.175z"/>
			<path class="st4" d="M171.066,138.274c0,0.458-0.093,0.878-0.277,1.258c-0.185,0.381-0.437,0.708-0.754,0.981
				s-0.686,0.485-1.103,0.637c-0.418,0.151-0.855,0.228-1.313,0.228h-0.909c-0.458,0-0.896-0.087-1.313-0.261
				c-0.418-0.173-0.783-0.411-1.098-0.715c-0.314-0.303-0.565-0.657-0.754-1.063s-0.282-0.839-0.282-1.297v-0.454l1.363-0.222v0.753
				c0,0.273,0.057,0.53,0.172,0.771c0.114,0.24,0.268,0.449,0.46,0.626c0.191,0.178,0.413,0.318,0.665,0.422
				c0.251,0.104,0.513,0.155,0.786,0.155h0.909c0.273,0,0.536-0.041,0.787-0.122c0.251-0.082,0.475-0.198,0.67-0.35
				c0.196-0.151,0.352-0.334,0.466-0.549c0.114-0.214,0.172-0.458,0.172-0.731c0-0.406-0.089-0.738-0.266-0.997
				c-0.178-0.259-0.412-0.475-0.704-0.648s-0.624-0.317-0.997-0.433c-0.374-0.114-0.756-0.229-1.147-0.343
				c-0.392-0.115-0.774-0.246-1.147-0.394c-0.373-0.148-0.705-0.342-0.997-0.582s-0.526-0.541-0.704-0.903
				c-0.177-0.362-0.266-0.813-0.266-1.353c0-0.458,0.089-0.877,0.266-1.258c0.178-0.38,0.418-0.707,0.721-0.98
				s0.655-0.485,1.059-0.638c0.402-0.151,0.833-0.227,1.291-0.227h0.798c0.458,0,0.891,0.087,1.297,0.26
				c0.406,0.174,0.761,0.412,1.063,0.715c0.304,0.304,0.542,0.658,0.715,1.064c0.174,0.406,0.261,0.839,0.261,1.297v0.044
				l-1.363,0.222v-0.344c0-0.273-0.052-0.529-0.155-0.77s-0.243-0.449-0.421-0.627c-0.178-0.177-0.386-0.317-0.626-0.421
				s-0.497-0.155-0.771-0.155h-0.798c-0.273,0-0.53,0.041-0.771,0.122s-0.448,0.198-0.626,0.35s-0.317,0.334-0.421,0.548
				c-0.104,0.215-0.155,0.458-0.155,0.731c0,0.392,0.089,0.712,0.266,0.959c0.178,0.248,0.412,0.456,0.704,0.626
				s0.624,0.313,0.997,0.427c0.373,0.115,0.754,0.232,1.142,0.354s0.769,0.261,1.142,0.416s0.706,0.354,0.998,0.599
				c0.291,0.243,0.526,0.549,0.703,0.914C170.977,137.283,171.066,137.735,171.066,138.274z"/>
			<path class="st4" d="M181.002,139.339c-0.174,0.406-0.412,0.761-0.715,1.063c-0.303,0.304-0.658,0.542-1.064,0.715
				c-0.406,0.174-0.838,0.261-1.296,0.261h-0.909c-0.458,0-0.891-0.087-1.297-0.261c-0.406-0.173-0.761-0.411-1.063-0.715
				c-0.304-0.303-0.542-0.657-0.715-1.063c-0.174-0.406-0.261-0.839-0.261-1.297v-5.12c0-0.458,0.087-0.891,0.261-1.297
				c0.173-0.406,0.411-0.761,0.715-1.064c0.303-0.303,0.657-0.541,1.063-0.715c0.406-0.173,0.839-0.26,1.297-0.26h0.909
				c0.458,0,0.89,0.087,1.296,0.26c0.406,0.174,0.762,0.412,1.064,0.715c0.303,0.304,0.541,0.658,0.715,1.064
				s0.261,0.839,0.261,1.297v2.671h-6.218v2.526c0,0.273,0.052,0.53,0.155,0.771s0.243,0.449,0.421,0.626
				c0.178,0.178,0.386,0.318,0.626,0.422s0.497,0.155,0.771,0.155h0.909c0.272,0,0.529-0.052,0.77-0.155s0.449-0.244,0.627-0.422
				c0.177-0.177,0.317-0.386,0.421-0.626s0.155-0.497,0.155-0.771v-0.753l1.363,0.222v0.454
				C181.263,138.5,181.176,138.932,181.002,139.339z M179.899,132.843c0-0.273-0.052-0.529-0.155-0.77s-0.244-0.449-0.421-0.627
				c-0.178-0.177-0.387-0.317-0.627-0.421s-0.497-0.155-0.77-0.155h-0.909c-0.273,0-0.53,0.052-0.771,0.155
				s-0.448,0.244-0.626,0.421c-0.178,0.178-0.317,0.387-0.421,0.627s-0.155,0.496-0.155,0.77v1.685h4.854V132.843z"/>
			<path class="st4" d="M191.309,139.339c-0.174,0.406-0.412,0.761-0.715,1.063c-0.303,0.304-0.658,0.542-1.064,0.715
				c-0.406,0.174-0.838,0.261-1.296,0.261h-0.909c-0.458,0-0.891-0.087-1.297-0.261c-0.406-0.173-0.761-0.411-1.063-0.715
				c-0.304-0.303-0.542-0.657-0.715-1.063c-0.174-0.406-0.261-0.839-0.261-1.297v-5.12c0-0.458,0.087-0.891,0.261-1.297
				c0.173-0.406,0.411-0.761,0.715-1.064c0.303-0.303,0.657-0.541,1.063-0.715c0.406-0.173,0.839-0.26,1.297-0.26h0.909
				c0.458,0,0.89,0.087,1.296,0.26c0.406,0.174,0.762,0.412,1.064,0.715c0.303,0.304,0.541,0.658,0.715,1.064
				s0.261,0.839,0.261,1.297v0.454l-1.363,0.222v-0.754c0-0.273-0.052-0.529-0.155-0.77s-0.244-0.449-0.421-0.627
				c-0.178-0.177-0.387-0.317-0.627-0.421s-0.497-0.155-0.77-0.155h-0.909c-0.273,0-0.53,0.052-0.771,0.155
				s-0.448,0.244-0.626,0.421c-0.178,0.178-0.317,0.387-0.421,0.627s-0.155,0.496-0.155,0.77v5.275c0,0.273,0.052,0.53,0.155,0.771
				s0.243,0.449,0.421,0.626c0.178,0.178,0.386,0.318,0.626,0.422s0.497,0.155,0.771,0.155h0.909c0.272,0,0.529-0.052,0.77-0.155
				s0.449-0.244,0.627-0.422c0.177-0.177,0.317-0.386,0.421-0.626s0.155-0.497,0.155-0.771v-0.753l1.363,0.222v0.454
				C191.569,138.5,191.482,138.932,191.309,139.339z"/>
			<path class="st4" d="M201.421,141.156l-0.753-1.152c-0.311,0.421-0.698,0.755-1.164,1.003c-0.466,0.247-0.976,0.371-1.529,0.371
				h-0.344c-0.458,0-0.891-0.087-1.297-0.261c-0.406-0.173-0.761-0.411-1.063-0.715c-0.304-0.303-0.542-0.657-0.715-1.063
				c-0.174-0.406-0.261-0.839-0.261-1.297v-8.234h1.363v8.312c0,0.273,0.052,0.53,0.155,0.771s0.243,0.449,0.421,0.626
				c0.178,0.178,0.386,0.318,0.626,0.422s0.497,0.155,0.771,0.155h0.909c0.272,0,0.529-0.052,0.77-0.155s0.449-0.244,0.627-0.422
				c0.177-0.177,0.317-0.386,0.421-0.626s0.155-0.497,0.155-0.771v-8.312h1.363v11.349H201.421z"/>
			<path class="st4" d="M211.922,139.339c-0.174,0.406-0.412,0.761-0.715,1.063c-0.303,0.304-0.658,0.542-1.064,0.715
				c-0.406,0.174-0.838,0.261-1.296,0.261h-0.909c-0.458,0-0.891-0.087-1.297-0.261c-0.406-0.173-0.761-0.411-1.063-0.715
				c-0.304-0.303-0.542-0.657-0.715-1.063c-0.174-0.406-0.261-0.839-0.261-1.297v-5.12c0-0.458,0.087-0.891,0.261-1.297
				c0.173-0.406,0.411-0.761,0.715-1.064c0.303-0.303,0.657-0.541,1.063-0.715c0.406-0.173,0.839-0.26,1.297-0.26h0.909
				c0.458,0,0.89,0.087,1.296,0.26c0.406,0.174,0.762,0.412,1.064,0.715c0.303,0.304,0.541,0.658,0.715,1.064
				s0.261,0.839,0.261,1.297v2.671h-6.218v2.526c0,0.273,0.052,0.53,0.155,0.771s0.243,0.449,0.421,0.626
				c0.178,0.178,0.386,0.318,0.626,0.422s0.497,0.155,0.771,0.155h0.909c0.272,0,0.529-0.052,0.77-0.155s0.449-0.244,0.627-0.422
				c0.177-0.177,0.317-0.386,0.421-0.626s0.155-0.497,0.155-0.771v-0.753l1.363,0.222v0.454
				C212.183,138.5,212.096,138.932,211.922,139.339z M210.819,132.843c0-0.273-0.052-0.529-0.155-0.77s-0.244-0.449-0.421-0.627
				c-0.178-0.177-0.387-0.317-0.627-0.421s-0.497-0.155-0.77-0.155h-0.909c-0.273,0-0.53,0.052-0.771,0.155
				s-0.448,0.244-0.626,0.421c-0.178,0.178-0.317,0.387-0.421,0.627s-0.155,0.496-0.155,0.77v1.685h4.854V132.843z"/>
			<path class="st4" d="M221.126,141.156v-8.313c0-0.273-0.052-0.529-0.155-0.77s-0.244-0.449-0.421-0.627
				c-0.178-0.177-0.387-0.317-0.627-0.421s-0.497-0.155-0.77-0.155h-0.909c-0.273,0-0.53,0.052-0.771,0.155
				s-0.448,0.244-0.626,0.421c-0.178,0.178-0.317,0.387-0.421,0.627s-0.155,0.496-0.155,0.77v8.313h-1.363v-11.349h0.454
				l0.743,1.152c0.31-0.421,0.699-0.756,1.169-1.003c0.469-0.247,0.98-0.371,1.535-0.371h0.344c0.458,0,0.89,0.087,1.296,0.26
				c0.406,0.174,0.762,0.412,1.064,0.715c0.303,0.304,0.541,0.658,0.715,1.064s0.261,0.839,0.261,1.297v8.234H221.126z"/>
			<path class="st4" d="M232.535,139.339c-0.174,0.406-0.412,0.761-0.715,1.063c-0.303,0.304-0.658,0.542-1.064,0.715
				c-0.406,0.174-0.838,0.261-1.296,0.261h-0.909c-0.458,0-0.891-0.087-1.297-0.261c-0.406-0.173-0.761-0.411-1.063-0.715
				c-0.304-0.303-0.542-0.657-0.715-1.063c-0.174-0.406-0.261-0.839-0.261-1.297v-5.12c0-0.458,0.087-0.891,0.261-1.297
				c0.173-0.406,0.411-0.761,0.715-1.064c0.303-0.303,0.657-0.541,1.063-0.715c0.406-0.173,0.839-0.26,1.297-0.26h0.909
				c0.458,0,0.89,0.087,1.296,0.26c0.406,0.174,0.762,0.412,1.064,0.715c0.303,0.304,0.541,0.658,0.715,1.064
				s0.261,0.839,0.261,1.297v0.454l-1.363,0.222v-0.754c0-0.273-0.052-0.529-0.155-0.77s-0.244-0.449-0.421-0.627
				c-0.178-0.177-0.387-0.317-0.627-0.421s-0.497-0.155-0.77-0.155h-0.909c-0.273,0-0.53,0.052-0.771,0.155
				s-0.448,0.244-0.626,0.421c-0.178,0.178-0.317,0.387-0.421,0.627s-0.155,0.496-0.155,0.77v5.275c0,0.273,0.052,0.53,0.155,0.771
				s0.243,0.449,0.421,0.626c0.178,0.178,0.386,0.318,0.626,0.422s0.497,0.155,0.771,0.155h0.909c0.272,0,0.529-0.052,0.77-0.155
				s0.449-0.244,0.627-0.422c0.177-0.177,0.317-0.386,0.421-0.626s0.155-0.497,0.155-0.771v-0.753l1.363,0.222v0.454
				C232.796,138.5,232.709,138.932,232.535,139.339z"/>
			<path class="st4" d="M235.865,127.081v-1.817h1.585v1.817H235.865z M235.976,141.156v-11.349h1.363v11.349H235.976z"/>
			<path class="st4" d="M247.645,141.156l-0.753-1.131c-0.311,0.407-0.698,0.733-1.164,0.981c-0.466,0.247-0.976,0.371-1.529,0.371
				h-0.344c-0.458,0-0.891-0.087-1.297-0.261c-0.406-0.173-0.761-0.411-1.063-0.715c-0.304-0.303-0.542-0.657-0.715-1.063
				c-0.174-0.406-0.261-0.839-0.261-1.297v-0.111c0-0.458,0.087-0.89,0.261-1.296c0.173-0.406,0.411-0.762,0.715-1.064
				c0.303-0.303,0.657-0.541,1.063-0.715s0.839-0.261,1.297-0.261h2.882v-1.751c0-0.273-0.052-0.529-0.155-0.77
				s-0.244-0.449-0.421-0.627c-0.178-0.177-0.387-0.317-0.627-0.421s-0.497-0.155-0.77-0.155h-0.799c-0.273,0-0.53,0.052-0.77,0.155
				c-0.24,0.104-0.449,0.244-0.627,0.421c-0.177,0.178-0.317,0.387-0.421,0.627s-0.155,0.496-0.155,0.77v0.41l-1.363-0.222v-0.11
				c0-0.458,0.087-0.891,0.261-1.297s0.412-0.761,0.715-1.064c0.303-0.303,0.657-0.541,1.064-0.715
				c0.406-0.173,0.838-0.26,1.296-0.26h0.799c0.458,0,0.89,0.087,1.296,0.26c0.406,0.174,0.762,0.412,1.064,0.715
				c0.303,0.304,0.541,0.658,0.715,1.064s0.261,0.839,0.261,1.297v8.234H247.645z M246.737,135.659h-2.882
				c-0.273,0-0.53,0.052-0.771,0.155s-0.448,0.245-0.626,0.427c-0.178,0.181-0.317,0.392-0.421,0.632s-0.155,0.497-0.155,0.77v0.477
				c0,0.273,0.052,0.53,0.155,0.771s0.243,0.449,0.421,0.626c0.178,0.178,0.386,0.318,0.626,0.422s0.497,0.155,0.771,0.155h0.909
				c0.272,0,0.529-0.052,0.77-0.155s0.449-0.244,0.627-0.422c0.177-0.177,0.317-0.386,0.421-0.626s0.155-0.497,0.155-0.771V135.659z
				"/>
			<path class="st4" d="M258.629,138.274c0,0.458-0.093,0.878-0.277,1.258c-0.185,0.381-0.437,0.708-0.754,0.981
				s-0.686,0.485-1.103,0.637c-0.418,0.151-0.855,0.228-1.313,0.228h-0.909c-0.458,0-0.896-0.087-1.313-0.261
				c-0.418-0.173-0.783-0.411-1.098-0.715c-0.314-0.303-0.565-0.657-0.754-1.063s-0.282-0.839-0.282-1.297v-0.454l1.363-0.222v0.753
				c0,0.273,0.057,0.53,0.172,0.771c0.114,0.24,0.268,0.449,0.46,0.626c0.191,0.178,0.413,0.318,0.665,0.422
				c0.251,0.104,0.513,0.155,0.786,0.155h0.909c0.273,0,0.536-0.041,0.787-0.122c0.251-0.082,0.475-0.198,0.67-0.35
				c0.196-0.151,0.352-0.334,0.466-0.549c0.114-0.214,0.172-0.458,0.172-0.731c0-0.406-0.089-0.738-0.266-0.997
				c-0.178-0.259-0.412-0.475-0.704-0.648s-0.624-0.317-0.997-0.433c-0.374-0.114-0.756-0.229-1.147-0.343
				c-0.392-0.115-0.774-0.246-1.147-0.394c-0.373-0.148-0.705-0.342-0.997-0.582s-0.526-0.541-0.704-0.903
				c-0.177-0.362-0.266-0.813-0.266-1.353c0-0.458,0.089-0.877,0.266-1.258c0.178-0.38,0.418-0.707,0.721-0.98
				s0.655-0.485,1.059-0.638c0.402-0.151,0.833-0.227,1.291-0.227h0.798c0.458,0,0.891,0.087,1.297,0.26
				c0.406,0.174,0.761,0.412,1.063,0.715c0.304,0.304,0.542,0.658,0.715,1.064c0.174,0.406,0.261,0.839,0.261,1.297v0.044
				l-1.363,0.222v-0.344c0-0.273-0.052-0.529-0.155-0.77s-0.243-0.449-0.421-0.627c-0.178-0.177-0.386-0.317-0.626-0.421
				c-0.24-0.104-0.497-0.155-0.771-0.155h-0.798c-0.273,0-0.53,0.041-0.771,0.122s-0.448,0.198-0.626,0.35s-0.317,0.334-0.421,0.548
				c-0.104,0.215-0.155,0.458-0.155,0.731c0,0.392,0.089,0.712,0.266,0.959c0.178,0.248,0.412,0.456,0.704,0.626
				s0.624,0.313,0.997,0.427c0.373,0.115,0.754,0.232,1.142,0.354s0.769,0.261,1.142,0.416s0.706,0.354,0.998,0.599
				c0.291,0.243,0.526,0.549,0.703,0.914C258.54,137.283,258.629,137.735,258.629,138.274z"/>
			<path class="st4" d="M105.551,168.393l-0.753-1.152c-0.311,0.421-0.698,0.755-1.164,1.003c-0.466,0.247-0.976,0.371-1.529,0.371
				h-0.344c-0.458,0-0.891-0.087-1.297-0.261c-0.406-0.173-0.761-0.411-1.063-0.715c-0.304-0.303-0.542-0.657-0.715-1.063
				c-0.174-0.406-0.261-0.839-0.261-1.297v-5.12c0-0.458,0.087-0.891,0.261-1.297c0.173-0.406,0.411-0.761,0.715-1.064
				c0.303-0.303,0.657-0.541,1.063-0.715c0.406-0.173,0.839-0.26,1.297-0.26h0.344c0.51,0,0.982,0.104,1.418,0.31
				c0.437,0.207,0.81,0.495,1.12,0.865v-5.497h1.363v15.893H105.551z M104.643,160.081c0-0.273-0.052-0.529-0.155-0.77
				s-0.244-0.449-0.421-0.627c-0.178-0.177-0.387-0.317-0.627-0.421s-0.497-0.155-0.77-0.155h-0.909
				c-0.273,0-0.53,0.052-0.771,0.155s-0.448,0.244-0.626,0.421c-0.178,0.178-0.317,0.387-0.421,0.627s-0.155,0.496-0.155,0.77v5.275
				c0,0.273,0.052,0.53,0.155,0.771s0.243,0.449,0.421,0.626c0.178,0.178,0.386,0.318,0.626,0.422s0.497,0.155,0.771,0.155h0.909
				c0.272,0,0.529-0.052,0.77-0.155s0.449-0.244,0.627-0.422c0.177-0.177,0.317-0.386,0.421-0.626s0.155-0.497,0.155-0.771V160.081z
				"/>
			<path class="st4" d="M116.053,166.576c-0.174,0.406-0.412,0.761-0.715,1.063c-0.303,0.304-0.658,0.542-1.064,0.715
				c-0.406,0.174-0.838,0.261-1.296,0.261h-0.909c-0.458,0-0.891-0.087-1.297-0.261c-0.406-0.173-0.761-0.411-1.063-0.715
				c-0.304-0.303-0.542-0.657-0.715-1.063c-0.174-0.406-0.261-0.839-0.261-1.297v-5.12c0-0.458,0.087-0.891,0.261-1.297
				c0.173-0.406,0.411-0.761,0.715-1.064c0.303-0.303,0.657-0.541,1.063-0.715c0.406-0.173,0.839-0.26,1.297-0.26h0.909
				c0.458,0,0.89,0.087,1.296,0.26c0.406,0.174,0.762,0.412,1.064,0.715c0.303,0.304,0.541,0.658,0.715,1.064
				s0.261,0.839,0.261,1.297v2.671h-6.218v2.526c0,0.273,0.052,0.53,0.155,0.771s0.243,0.449,0.421,0.626
				c0.178,0.178,0.386,0.318,0.626,0.422s0.497,0.155,0.771,0.155h0.909c0.272,0,0.529-0.052,0.77-0.155s0.449-0.244,0.627-0.422
				c0.177-0.177,0.317-0.386,0.421-0.626s0.155-0.497,0.155-0.771v-0.753l1.363,0.222v0.454
				C116.313,165.737,116.227,166.17,116.053,166.576z M114.95,160.081c0-0.273-0.052-0.529-0.155-0.77s-0.244-0.449-0.421-0.627
				c-0.178-0.177-0.387-0.317-0.627-0.421s-0.497-0.155-0.77-0.155h-0.909c-0.273,0-0.53,0.052-0.771,0.155
				s-0.448,0.244-0.626,0.421c-0.178,0.178-0.317,0.387-0.421,0.627s-0.155,0.496-0.155,0.77v1.685h4.854V160.081z"/>
			<path class="st4" d="M119.493,168.393v-15.893h1.363v15.893H119.493z"/>
			<path class="st4" d="M136.577,166.576c-0.174,0.406-0.412,0.761-0.715,1.063c-0.303,0.304-0.658,0.542-1.064,0.715
				c-0.406,0.174-0.838,0.261-1.296,0.261h-0.344c-0.51,0-0.983-0.104-1.419-0.311s-0.809-0.495-1.119-0.864v5.497h-1.363v-15.893
				h0.454l0.743,1.152c0.31-0.421,0.699-0.756,1.169-1.003c0.469-0.247,0.98-0.371,1.535-0.371h0.344c0.458,0,0.89,0.087,1.296,0.26
				c0.406,0.174,0.762,0.412,1.064,0.715c0.303,0.304,0.541,0.658,0.715,1.064s0.261,0.839,0.261,1.297v5.12
				C136.838,165.737,136.751,166.17,136.577,166.576z M135.475,160.081c0-0.273-0.052-0.529-0.155-0.77s-0.244-0.449-0.421-0.627
				c-0.178-0.177-0.387-0.317-0.627-0.421s-0.497-0.155-0.77-0.155h-0.909c-0.273,0-0.53,0.052-0.771,0.155
				s-0.448,0.244-0.626,0.421c-0.178,0.178-0.317,0.387-0.421,0.627s-0.155,0.496-0.155,0.77v5.275c0,0.273,0.052,0.53,0.155,0.771
				s0.243,0.449,0.421,0.626c0.178,0.178,0.386,0.318,0.626,0.422s0.497,0.155,0.771,0.155h0.909c0.272,0,0.529-0.052,0.77-0.155
				s0.449-0.244,0.627-0.422c0.177-0.177,0.317-0.386,0.421-0.626s0.155-0.497,0.155-0.771V160.081z"/>
			<path class="st4" d="M142.9,158.341c-0.273,0-0.53,0.052-0.771,0.154c-0.24,0.104-0.448,0.244-0.626,0.422
				c-0.178,0.177-0.317,0.386-0.421,0.626s-0.155,0.497-0.155,0.771v8.079h-1.363v-11.349h0.454l0.743,1.152
				c0.31-0.421,0.699-0.756,1.169-1.003c0.469-0.247,0.98-0.371,1.535-0.371h0.798v1.519H142.9z"/>
			<path class="st4" d="M153.401,166.576c-0.174,0.406-0.412,0.761-0.715,1.063c-0.303,0.304-0.658,0.542-1.064,0.715
				c-0.406,0.174-0.838,0.261-1.296,0.261h-0.909c-0.458,0-0.891-0.087-1.297-0.261c-0.406-0.173-0.761-0.411-1.063-0.715
				c-0.304-0.303-0.542-0.657-0.715-1.063c-0.174-0.406-0.261-0.839-0.261-1.297v-5.12c0-0.458,0.087-0.891,0.261-1.297
				c0.173-0.406,0.411-0.761,0.715-1.064c0.303-0.303,0.657-0.541,1.063-0.715c0.406-0.173,0.839-0.26,1.297-0.26h0.909
				c0.458,0,0.89,0.087,1.296,0.26c0.406,0.174,0.762,0.412,1.064,0.715c0.303,0.304,0.541,0.658,0.715,1.064
				s0.261,0.839,0.261,1.297v5.12C153.662,165.737,153.575,166.17,153.401,166.576z M152.299,160.081
				c0-0.273-0.052-0.529-0.155-0.77s-0.244-0.449-0.421-0.627c-0.178-0.177-0.387-0.317-0.627-0.421s-0.497-0.155-0.77-0.155h-0.909
				c-0.273,0-0.53,0.052-0.771,0.155s-0.448,0.244-0.626,0.421c-0.178,0.178-0.317,0.387-0.421,0.627s-0.155,0.496-0.155,0.77v5.275
				c0,0.273,0.052,0.53,0.155,0.771s0.243,0.449,0.421,0.626c0.178,0.178,0.386,0.318,0.626,0.422s0.497,0.155,0.771,0.155h0.909
				c0.272,0,0.529-0.052,0.77-0.155s0.449-0.244,0.627-0.422c0.177-0.177,0.317-0.386,0.421-0.626s0.155-0.497,0.155-0.771V160.081z
				"/>
			<path class="st4" d="M163.709,166.576c-0.174,0.406-0.412,0.761-0.715,1.063c-0.303,0.304-0.658,0.542-1.064,0.715
				c-0.406,0.174-0.838,0.261-1.296,0.261h-0.909c-0.458,0-0.891-0.087-1.297-0.261c-0.406-0.173-0.761-0.411-1.063-0.715
				c-0.304-0.303-0.542-0.657-0.715-1.063c-0.174-0.406-0.261-0.839-0.261-1.297v-12.778h1.363v5.497
				c0.311-0.37,0.684-0.658,1.119-0.865c0.436-0.206,0.909-0.31,1.419-0.31h0.344c0.458,0,0.89,0.087,1.296,0.26
				c0.406,0.174,0.762,0.412,1.064,0.715c0.303,0.304,0.541,0.658,0.715,1.064s0.261,0.839,0.261,1.297v5.12
				C163.97,165.737,163.883,166.17,163.709,166.576z M162.606,160.081c0-0.273-0.052-0.529-0.155-0.77s-0.244-0.449-0.421-0.627
				c-0.178-0.177-0.387-0.317-0.627-0.421s-0.497-0.155-0.77-0.155h-0.909c-0.273,0-0.53,0.052-0.771,0.155
				s-0.448,0.244-0.626,0.421c-0.178,0.178-0.317,0.387-0.421,0.627s-0.155,0.496-0.155,0.77v5.275c0,0.273,0.052,0.53,0.155,0.771
				s0.243,0.449,0.421,0.626c0.178,0.178,0.386,0.318,0.626,0.422s0.497,0.155,0.771,0.155h0.909c0.272,0,0.529-0.052,0.77-0.155
				s0.449-0.244,0.627-0.422c0.177-0.177,0.317-0.386,0.421-0.626s0.155-0.497,0.155-0.771V160.081z"/>
			<path class="st4" d="M167.149,168.393v-15.893h1.363v15.893H167.149z"/>
			<path class="st4" d="M179.014,166.576c-0.174,0.406-0.412,0.761-0.715,1.063c-0.303,0.304-0.658,0.542-1.064,0.715
				c-0.406,0.174-0.838,0.261-1.296,0.261h-0.909c-0.458,0-0.891-0.087-1.297-0.261c-0.406-0.173-0.761-0.411-1.063-0.715
				c-0.304-0.303-0.542-0.657-0.715-1.063c-0.174-0.406-0.261-0.839-0.261-1.297v-5.12c0-0.458,0.087-0.891,0.261-1.297
				c0.173-0.406,0.411-0.761,0.715-1.064c0.303-0.303,0.657-0.541,1.063-0.715c0.406-0.173,0.839-0.26,1.297-0.26h0.909
				c0.458,0,0.89,0.087,1.296,0.26c0.406,0.174,0.762,0.412,1.064,0.715c0.303,0.304,0.541,0.658,0.715,1.064
				s0.261,0.839,0.261,1.297v2.671h-6.218v2.526c0,0.273,0.052,0.53,0.155,0.771s0.243,0.449,0.421,0.626
				c0.178,0.178,0.386,0.318,0.626,0.422s0.497,0.155,0.771,0.155h0.909c0.272,0,0.529-0.052,0.77-0.155s0.449-0.244,0.627-0.422
				c0.177-0.177,0.317-0.386,0.421-0.626s0.155-0.497,0.155-0.771v-0.753l1.363,0.222v0.454
				C179.274,165.737,179.187,166.17,179.014,166.576z M177.911,160.081c0-0.273-0.052-0.529-0.155-0.77s-0.244-0.449-0.421-0.627
				c-0.178-0.177-0.387-0.317-0.627-0.421s-0.497-0.155-0.77-0.155h-0.909c-0.273,0-0.53,0.052-0.771,0.155
				s-0.448,0.244-0.626,0.421c-0.178,0.178-0.317,0.387-0.421,0.627s-0.155,0.496-0.155,0.77v1.685h4.854V160.081z"/>
			<path class="st4" d="M193.98,168.393v-8.313c0-0.273-0.052-0.529-0.155-0.77s-0.243-0.449-0.421-0.627
				c-0.178-0.177-0.386-0.317-0.626-0.421s-0.497-0.155-0.771-0.155h-0.676c-0.273,0-0.53,0.052-0.771,0.155
				s-0.451,0.244-0.632,0.421c-0.181,0.178-0.323,0.387-0.427,0.627s-0.155,0.496-0.155,0.77v8.313h-1.352v-8.313
				c0-0.273-0.052-0.529-0.155-0.77s-0.246-0.449-0.427-0.627c-0.182-0.177-0.392-0.317-0.632-0.421s-0.497-0.155-0.771-0.155
				h-0.676c-0.273,0-0.53,0.052-0.771,0.155s-0.448,0.244-0.626,0.421c-0.178,0.178-0.317,0.387-0.421,0.627
				s-0.155,0.496-0.155,0.77v8.313H182v-11.349h0.454l0.743,1.152c0.31-0.421,0.699-0.756,1.169-1.003
				c0.469-0.247,0.98-0.371,1.535-0.371h0.11c0.643,0,1.223,0.158,1.74,0.477c0.518,0.317,0.916,0.738,1.197,1.263
				c0.14-0.258,0.313-0.494,0.521-0.709c0.207-0.214,0.436-0.396,0.688-0.549c0.251-0.151,0.524-0.27,0.82-0.354
				c0.295-0.085,0.602-0.127,0.92-0.127h0.11c0.458,0,0.891,0.087,1.297,0.26c0.406,0.174,0.761,0.412,1.063,0.715
				c0.303,0.304,0.541,0.658,0.715,1.064s0.261,0.839,0.261,1.297v8.234H193.98z"/>
			<path class="st4" d="M205.196,168.393l-0.753-1.131c-0.311,0.407-0.698,0.733-1.164,0.981c-0.466,0.247-0.976,0.371-1.529,0.371
				h-0.344c-0.458,0-0.891-0.087-1.297-0.261c-0.406-0.173-0.761-0.411-1.063-0.715c-0.304-0.303-0.542-0.657-0.715-1.063
				c-0.174-0.406-0.261-0.839-0.261-1.297v-0.111c0-0.458,0.087-0.89,0.261-1.296c0.173-0.406,0.411-0.762,0.715-1.064
				c0.303-0.303,0.657-0.541,1.063-0.715s0.839-0.261,1.297-0.261h2.882v-1.751c0-0.273-0.052-0.529-0.155-0.77
				s-0.244-0.449-0.421-0.627c-0.178-0.177-0.387-0.317-0.627-0.421s-0.497-0.155-0.77-0.155h-0.799c-0.273,0-0.53,0.052-0.77,0.155
				c-0.24,0.104-0.449,0.244-0.627,0.421c-0.177,0.178-0.317,0.387-0.421,0.627s-0.155,0.496-0.155,0.77v0.41l-1.363-0.222v-0.11
				c0-0.458,0.087-0.891,0.261-1.297s0.412-0.761,0.715-1.064c0.303-0.303,0.657-0.541,1.064-0.715
				c0.406-0.173,0.838-0.26,1.296-0.26h0.799c0.458,0,0.89,0.087,1.296,0.26c0.406,0.174,0.762,0.412,1.064,0.715
				c0.303,0.304,0.541,0.658,0.715,1.064s0.261,0.839,0.261,1.297v8.234H205.196z M204.288,162.896h-2.882
				c-0.273,0-0.53,0.052-0.771,0.155s-0.448,0.245-0.626,0.427c-0.178,0.181-0.317,0.392-0.421,0.632s-0.155,0.497-0.155,0.77v0.477
				c0,0.273,0.052,0.53,0.155,0.771s0.243,0.449,0.421,0.626c0.178,0.178,0.386,0.318,0.626,0.422s0.497,0.155,0.771,0.155h0.909
				c0.272,0,0.529-0.052,0.77-0.155s0.449-0.244,0.627-0.422c0.177-0.177,0.317-0.386,0.421-0.626s0.155-0.497,0.155-0.771V162.896z
				"/>
		</g>
		<g>
			<path class="st4" d="M74.69,315.662c-0.203,0.473-0.481,0.887-0.836,1.241c-0.355,0.354-0.769,0.634-1.242,0.837
				c-0.473,0.203-0.979,0.305-1.518,0.305h-1.131c-0.539,0-1.047-0.102-1.523-0.305s-0.893-0.482-1.247-0.837
				s-0.634-0.769-0.837-1.241s-0.305-0.979-0.305-1.519v-8.534c0-0.539,0.102-1.045,0.305-1.518s0.482-0.887,0.837-1.241
				c0.354-0.355,0.771-0.634,1.247-0.837s0.984-0.305,1.523-0.305h1.131c0.539,0,1.045,0.102,1.518,0.305
				c0.474,0.203,0.887,0.481,1.242,0.837c0.354,0.354,0.633,0.769,0.836,1.241s0.305,0.979,0.305,1.518v0.644l-1.43,0.222v-0.865
				c0-0.354-0.066-0.685-0.199-0.991s-0.313-0.574-0.543-0.804c-0.229-0.229-0.497-0.41-0.804-0.543s-0.637-0.199-0.991-0.199H70.03
				c-0.354,0-0.686,0.066-0.992,0.199s-0.576,0.314-0.809,0.543c-0.232,0.229-0.416,0.497-0.549,0.804s-0.199,0.637-0.199,0.991
				v8.534c0,0.354,0.066,0.686,0.199,0.992s0.316,0.576,0.549,0.809c0.232,0.233,0.502,0.416,0.809,0.549s0.638,0.199,0.992,0.199
				h0.998c0.354,0,0.685-0.066,0.991-0.199s0.574-0.315,0.804-0.549c0.229-0.232,0.41-0.502,0.543-0.809s0.199-0.638,0.199-0.992
				v-0.864l1.43,0.232v0.632C74.995,314.683,74.894,315.189,74.69,315.662z"/>
			<path class="st4" d="M84.848,317.823l-0.753-1.131c-0.311,0.407-0.698,0.733-1.164,0.981c-0.466,0.247-0.976,0.371-1.529,0.371
				h-0.344c-0.458,0-0.891-0.087-1.297-0.261c-0.406-0.173-0.761-0.411-1.063-0.715c-0.304-0.303-0.542-0.657-0.715-1.063
				c-0.174-0.406-0.261-0.839-0.261-1.297v-0.111c0-0.458,0.087-0.89,0.261-1.296c0.173-0.406,0.411-0.762,0.715-1.064
				c0.303-0.303,0.657-0.541,1.063-0.715s0.839-0.261,1.297-0.261h2.882v-1.751c0-0.273-0.052-0.529-0.155-0.77
				s-0.244-0.449-0.421-0.627c-0.178-0.177-0.387-0.317-0.627-0.421s-0.497-0.155-0.77-0.155h-0.799c-0.273,0-0.53,0.052-0.77,0.155
				c-0.24,0.104-0.449,0.244-0.627,0.421c-0.177,0.178-0.317,0.387-0.421,0.627s-0.155,0.496-0.155,0.77v0.41l-1.363-0.222v-0.11
				c0-0.458,0.087-0.891,0.261-1.297s0.412-0.761,0.715-1.064c0.303-0.303,0.657-0.541,1.064-0.715
				c0.406-0.173,0.838-0.26,1.296-0.26h0.799c0.458,0,0.89,0.087,1.296,0.26c0.406,0.174,0.762,0.412,1.064,0.715
				c0.303,0.304,0.541,0.658,0.715,1.064s0.261,0.839,0.261,1.297v8.234H84.848z M83.939,312.326h-2.882
				c-0.273,0-0.53,0.052-0.771,0.155s-0.448,0.245-0.626,0.427c-0.178,0.181-0.317,0.392-0.421,0.632s-0.155,0.497-0.155,0.77v0.477
				c0,0.273,0.052,0.53,0.155,0.771s0.243,0.449,0.421,0.626c0.178,0.178,0.386,0.318,0.626,0.422s0.497,0.155,0.771,0.155h0.909
				c0.272,0,0.529-0.052,0.77-0.155s0.449-0.244,0.627-0.422c0.177-0.177,0.317-0.386,0.421-0.626s0.155-0.497,0.155-0.771V312.326z
				"/>
			<path class="st4" d="M95.155,317.823l-0.753-1.152c-0.311,0.421-0.698,0.755-1.164,1.003c-0.466,0.247-0.976,0.371-1.529,0.371
				h-0.344c-0.458,0-0.891-0.087-1.297-0.261c-0.406-0.173-0.761-0.411-1.063-0.715c-0.304-0.303-0.542-0.657-0.715-1.063
				c-0.174-0.406-0.261-0.839-0.261-1.297v-8.234h1.363v8.312c0,0.273,0.052,0.53,0.155,0.771s0.243,0.449,0.421,0.626
				c0.178,0.178,0.386,0.318,0.626,0.422s0.497,0.155,0.771,0.155h0.909c0.272,0,0.529-0.052,0.77-0.155s0.449-0.244,0.627-0.422
				c0.177-0.177,0.317-0.386,0.421-0.626s0.155-0.497,0.155-0.771v-8.312h1.363v11.349H95.155z"/>
			<path class="st4" d="M106.139,314.941c0,0.458-0.093,0.878-0.277,1.258c-0.185,0.381-0.437,0.708-0.754,0.981
				s-0.686,0.485-1.103,0.637c-0.418,0.151-0.855,0.228-1.313,0.228h-0.909c-0.458,0-0.896-0.087-1.313-0.261
				c-0.418-0.173-0.783-0.411-1.098-0.715c-0.314-0.303-0.565-0.657-0.754-1.063s-0.282-0.839-0.282-1.297v-0.454l1.363-0.222v0.753
				c0,0.273,0.057,0.53,0.172,0.771c0.114,0.24,0.268,0.449,0.46,0.626c0.191,0.178,0.413,0.318,0.665,0.422
				c0.251,0.104,0.513,0.155,0.786,0.155h0.909c0.273,0,0.536-0.041,0.787-0.122c0.251-0.082,0.475-0.198,0.67-0.35
				c0.196-0.151,0.352-0.334,0.466-0.549c0.114-0.214,0.172-0.458,0.172-0.731c0-0.406-0.089-0.738-0.266-0.997
				c-0.178-0.259-0.412-0.475-0.704-0.648s-0.624-0.317-0.997-0.433c-0.374-0.114-0.756-0.229-1.147-0.343
				c-0.392-0.115-0.774-0.246-1.147-0.394c-0.373-0.148-0.705-0.342-0.997-0.582s-0.526-0.541-0.704-0.903
				c-0.177-0.362-0.266-0.813-0.266-1.353c0-0.458,0.089-0.877,0.266-1.258c0.178-0.38,0.418-0.707,0.721-0.98
				s0.655-0.485,1.059-0.638c0.402-0.151,0.833-0.227,1.291-0.227h0.798c0.458,0,0.891,0.087,1.297,0.26
				c0.406,0.174,0.761,0.412,1.063,0.715c0.304,0.304,0.542,0.658,0.715,1.064c0.174,0.406,0.261,0.839,0.261,1.297v0.044
				l-1.363,0.222v-0.344c0-0.273-0.052-0.529-0.155-0.77s-0.243-0.449-0.421-0.627c-0.178-0.177-0.386-0.317-0.626-0.421
				s-0.497-0.155-0.771-0.155h-0.798c-0.273,0-0.53,0.041-0.771,0.122s-0.448,0.198-0.626,0.35s-0.317,0.334-0.421,0.548
				c-0.104,0.215-0.155,0.458-0.155,0.731c0,0.392,0.089,0.712,0.266,0.959c0.178,0.248,0.412,0.456,0.704,0.626
				s0.624,0.313,0.997,0.427c0.373,0.115,0.754,0.232,1.142,0.354s0.769,0.261,1.142,0.416s0.706,0.354,0.998,0.599
				c0.291,0.243,0.526,0.549,0.703,0.914C106.05,313.95,106.139,314.402,106.139,314.941z"/>
			<path class="st4" d="M115.88,317.823l-0.753-1.131c-0.311,0.407-0.698,0.733-1.164,0.981c-0.466,0.247-0.976,0.371-1.529,0.371
				h-0.344c-0.458,0-0.891-0.087-1.297-0.261c-0.406-0.173-0.761-0.411-1.063-0.715c-0.304-0.303-0.542-0.657-0.715-1.063
				c-0.174-0.406-0.261-0.839-0.261-1.297v-0.111c0-0.458,0.087-0.89,0.261-1.296c0.173-0.406,0.411-0.762,0.715-1.064
				c0.303-0.303,0.657-0.541,1.063-0.715s0.839-0.261,1.297-0.261h2.882v-1.751c0-0.273-0.052-0.529-0.155-0.77
				s-0.244-0.449-0.421-0.627c-0.178-0.177-0.387-0.317-0.627-0.421s-0.497-0.155-0.77-0.155H112.2c-0.273,0-0.53,0.052-0.77,0.155
				c-0.24,0.104-0.449,0.244-0.627,0.421c-0.177,0.178-0.317,0.387-0.421,0.627s-0.155,0.496-0.155,0.77v0.41l-1.363-0.222v-0.11
				c0-0.458,0.087-0.891,0.261-1.297s0.412-0.761,0.715-1.064c0.303-0.303,0.657-0.541,1.064-0.715
				c0.406-0.173,0.838-0.26,1.296-0.26h0.799c0.458,0,0.89,0.087,1.296,0.26c0.406,0.174,0.762,0.412,1.064,0.715
				c0.303,0.304,0.541,0.658,0.715,1.064s0.261,0.839,0.261,1.297v8.234H115.88z M114.972,312.326h-2.882
				c-0.273,0-0.53,0.052-0.771,0.155s-0.448,0.245-0.626,0.427c-0.178,0.181-0.317,0.392-0.421,0.632s-0.155,0.497-0.155,0.77v0.477
				c0,0.273,0.052,0.53,0.155,0.771s0.243,0.449,0.421,0.626c0.178,0.178,0.386,0.318,0.626,0.422s0.497,0.155,0.771,0.155h0.909
				c0.272,0,0.529-0.052,0.77-0.155s0.449-0.244,0.627-0.422c0.177-0.177,0.317-0.386,0.421-0.626s0.155-0.497,0.155-0.771V312.326z
				"/>
			<path class="st4" d="M126.863,314.941c0,0.458-0.093,0.878-0.277,1.258c-0.185,0.381-0.437,0.708-0.754,0.981
				s-0.686,0.485-1.103,0.637c-0.418,0.151-0.855,0.228-1.313,0.228h-0.909c-0.458,0-0.896-0.087-1.313-0.261
				c-0.418-0.173-0.783-0.411-1.098-0.715c-0.314-0.303-0.565-0.657-0.754-1.063s-0.282-0.839-0.282-1.297v-0.454l1.363-0.222v0.753
				c0,0.273,0.057,0.53,0.172,0.771c0.114,0.24,0.268,0.449,0.46,0.626c0.191,0.178,0.413,0.318,0.665,0.422
				c0.251,0.104,0.513,0.155,0.786,0.155h0.909c0.273,0,0.536-0.041,0.787-0.122c0.251-0.082,0.475-0.198,0.67-0.35
				c0.196-0.151,0.352-0.334,0.466-0.549c0.114-0.214,0.172-0.458,0.172-0.731c0-0.406-0.089-0.738-0.266-0.997
				c-0.178-0.259-0.412-0.475-0.704-0.648s-0.624-0.317-0.997-0.433c-0.374-0.114-0.756-0.229-1.147-0.343
				c-0.392-0.115-0.774-0.246-1.147-0.394c-0.373-0.148-0.705-0.342-0.997-0.582s-0.526-0.541-0.704-0.903
				c-0.177-0.362-0.266-0.813-0.266-1.353c0-0.458,0.089-0.877,0.266-1.258c0.178-0.38,0.418-0.707,0.721-0.98
				s0.655-0.485,1.059-0.638c0.402-0.151,0.833-0.227,1.291-0.227h0.798c0.458,0,0.891,0.087,1.297,0.26
				c0.406,0.174,0.761,0.412,1.063,0.715c0.304,0.304,0.542,0.658,0.715,1.064c0.174,0.406,0.261,0.839,0.261,1.297v0.044
				l-1.363,0.222v-0.344c0-0.273-0.052-0.529-0.155-0.77s-0.243-0.449-0.421-0.627c-0.178-0.177-0.386-0.317-0.626-0.421
				s-0.497-0.155-0.771-0.155h-0.798c-0.273,0-0.53,0.041-0.771,0.122s-0.448,0.198-0.626,0.35s-0.317,0.334-0.421,0.548
				c-0.104,0.215-0.155,0.458-0.155,0.731c0,0.392,0.089,0.712,0.266,0.959c0.178,0.248,0.412,0.456,0.704,0.626
				s0.624,0.313,0.997,0.427c0.373,0.115,0.754,0.232,1.142,0.354s0.769,0.261,1.142,0.416s0.706,0.354,0.998,0.599
				c0.291,0.243,0.526,0.549,0.703,0.914C126.774,313.95,126.863,314.402,126.863,314.941z"/>
			<path class="st4" d="M141.824,317.823l-0.753-1.152c-0.311,0.421-0.698,0.755-1.164,1.003c-0.466,0.247-0.976,0.371-1.529,0.371
				h-0.344c-0.458,0-0.891-0.087-1.297-0.261c-0.406-0.173-0.761-0.411-1.063-0.715c-0.304-0.303-0.542-0.657-0.715-1.063
				c-0.174-0.406-0.261-0.839-0.261-1.297v-5.12c0-0.458,0.087-0.891,0.261-1.297c0.173-0.406,0.411-0.761,0.715-1.064
				c0.303-0.303,0.657-0.541,1.063-0.715c0.406-0.173,0.839-0.26,1.297-0.26h0.344c0.51,0,0.982,0.104,1.418,0.31
				c0.437,0.207,0.81,0.495,1.12,0.865v-5.497h1.363v15.893H141.824z M140.916,309.51c0-0.273-0.052-0.529-0.155-0.77
				s-0.244-0.449-0.421-0.627c-0.178-0.177-0.387-0.317-0.627-0.421s-0.497-0.155-0.77-0.155h-0.909
				c-0.273,0-0.53,0.052-0.771,0.155s-0.448,0.244-0.626,0.421c-0.178,0.178-0.317,0.387-0.421,0.627s-0.155,0.496-0.155,0.77v5.275
				c0,0.273,0.052,0.53,0.155,0.771s0.243,0.449,0.421,0.626c0.178,0.178,0.386,0.318,0.626,0.422s0.497,0.155,0.771,0.155h0.909
				c0.272,0,0.529-0.052,0.77-0.155s0.449-0.244,0.627-0.422c0.177-0.177,0.317-0.386,0.421-0.626s0.155-0.497,0.155-0.771V309.51z"
				/>
			<path class="st4" d="M152.326,316.005c-0.174,0.406-0.412,0.761-0.715,1.063c-0.303,0.304-0.658,0.542-1.064,0.715
				c-0.406,0.174-0.838,0.261-1.296,0.261h-0.909c-0.458,0-0.891-0.087-1.297-0.261c-0.406-0.173-0.761-0.411-1.063-0.715
				c-0.304-0.303-0.542-0.657-0.715-1.063c-0.174-0.406-0.261-0.839-0.261-1.297v-5.12c0-0.458,0.087-0.891,0.261-1.297
				c0.173-0.406,0.411-0.761,0.715-1.064c0.303-0.303,0.657-0.541,1.063-0.715c0.406-0.173,0.839-0.26,1.297-0.26h0.909
				c0.458,0,0.89,0.087,1.296,0.26c0.406,0.174,0.762,0.412,1.064,0.715c0.303,0.304,0.541,0.658,0.715,1.064
				s0.261,0.839,0.261,1.297v2.671h-6.218v2.526c0,0.273,0.052,0.53,0.155,0.771s0.243,0.449,0.421,0.626
				c0.178,0.178,0.386,0.318,0.626,0.422s0.497,0.155,0.771,0.155h0.909c0.272,0,0.529-0.052,0.77-0.155s0.449-0.244,0.627-0.422
				c0.177-0.177,0.317-0.386,0.421-0.626s0.155-0.497,0.155-0.771v-0.753l1.363,0.222v0.454
				C152.587,315.167,152.5,315.599,152.326,316.005z M151.224,309.51c0-0.273-0.052-0.529-0.155-0.77s-0.244-0.449-0.421-0.627
				c-0.178-0.177-0.387-0.317-0.627-0.421s-0.497-0.155-0.77-0.155h-0.909c-0.273,0-0.53,0.052-0.771,0.155
				s-0.448,0.244-0.626,0.421c-0.178,0.178-0.317,0.387-0.421,0.627s-0.155,0.496-0.155,0.77v1.685h4.854V309.51z"/>
			<path class="st4" d="M155.767,317.823V301.93h1.363v15.893H155.767z"/>
			<path class="st4" d="M172.851,316.005c-0.174,0.406-0.412,0.761-0.715,1.063c-0.303,0.304-0.658,0.542-1.064,0.715
				c-0.406,0.174-0.838,0.261-1.296,0.261h-0.344c-0.51,0-0.983-0.104-1.419-0.311s-0.809-0.495-1.119-0.864v5.497h-1.363v-15.893
				h0.454l0.743,1.152c0.31-0.421,0.699-0.756,1.169-1.003c0.469-0.247,0.98-0.371,1.535-0.371h0.344c0.458,0,0.89,0.087,1.296,0.26
				c0.406,0.174,0.762,0.412,1.064,0.715c0.303,0.304,0.541,0.658,0.715,1.064s0.261,0.839,0.261,1.297v5.12
				C173.111,315.167,173.024,315.599,172.851,316.005z M171.748,309.51c0-0.273-0.052-0.529-0.155-0.77s-0.244-0.449-0.421-0.627
				c-0.178-0.177-0.387-0.317-0.627-0.421s-0.497-0.155-0.77-0.155h-0.909c-0.273,0-0.53,0.052-0.771,0.155
				s-0.448,0.244-0.626,0.421c-0.178,0.178-0.317,0.387-0.421,0.627s-0.155,0.496-0.155,0.77v5.275c0,0.273,0.052,0.53,0.155,0.771
				s0.243,0.449,0.421,0.626c0.178,0.178,0.386,0.318,0.626,0.422s0.497,0.155,0.771,0.155h0.909c0.272,0,0.529-0.052,0.77-0.155
				s0.449-0.244,0.627-0.422c0.177-0.177,0.317-0.386,0.421-0.626s0.155-0.497,0.155-0.771V309.51z"/>
			<path class="st4" d="M179.174,307.771c-0.273,0-0.53,0.052-0.771,0.154c-0.24,0.104-0.448,0.244-0.626,0.422
				c-0.178,0.177-0.317,0.386-0.421,0.626s-0.155,0.497-0.155,0.771v8.079h-1.363v-11.349h0.454l0.743,1.152
				c0.31-0.421,0.699-0.756,1.169-1.003c0.469-0.247,0.98-0.371,1.535-0.371h0.798v1.519H179.174z"/>
			<path class="st4" d="M189.675,316.005c-0.174,0.406-0.412,0.761-0.715,1.063c-0.303,0.304-0.658,0.542-1.064,0.715
				c-0.406,0.174-0.838,0.261-1.296,0.261h-0.909c-0.458,0-0.891-0.087-1.297-0.261c-0.406-0.173-0.761-0.411-1.063-0.715
				c-0.304-0.303-0.542-0.657-0.715-1.063c-0.174-0.406-0.261-0.839-0.261-1.297v-5.12c0-0.458,0.087-0.891,0.261-1.297
				c0.173-0.406,0.411-0.761,0.715-1.064c0.303-0.303,0.657-0.541,1.063-0.715c0.406-0.173,0.839-0.26,1.297-0.26h0.909
				c0.458,0,0.89,0.087,1.296,0.26c0.406,0.174,0.762,0.412,1.064,0.715c0.303,0.304,0.541,0.658,0.715,1.064
				s0.261,0.839,0.261,1.297v5.12C189.936,315.167,189.849,315.599,189.675,316.005z M188.572,309.51
				c0-0.273-0.052-0.529-0.155-0.77s-0.244-0.449-0.421-0.627c-0.178-0.177-0.387-0.317-0.627-0.421s-0.497-0.155-0.77-0.155h-0.909
				c-0.273,0-0.53,0.052-0.771,0.155s-0.448,0.244-0.626,0.421c-0.178,0.178-0.317,0.387-0.421,0.627s-0.155,0.496-0.155,0.77v5.275
				c0,0.273,0.052,0.53,0.155,0.771s0.243,0.449,0.421,0.626c0.178,0.178,0.386,0.318,0.626,0.422s0.497,0.155,0.771,0.155h0.909
				c0.272,0,0.529-0.052,0.77-0.155s0.449-0.244,0.627-0.422c0.177-0.177,0.317-0.386,0.421-0.626s0.155-0.497,0.155-0.771V309.51z"
				/>
			<path class="st4" d="M199.982,316.005c-0.174,0.406-0.412,0.761-0.715,1.063c-0.303,0.304-0.658,0.542-1.064,0.715
				c-0.406,0.174-0.838,0.261-1.296,0.261h-0.909c-0.458,0-0.891-0.087-1.297-0.261c-0.406-0.173-0.761-0.411-1.063-0.715
				c-0.304-0.303-0.542-0.657-0.715-1.063c-0.174-0.406-0.261-0.839-0.261-1.297V301.93h1.363v5.497
				c0.311-0.37,0.684-0.658,1.119-0.865c0.436-0.206,0.909-0.31,1.419-0.31h0.344c0.458,0,0.89,0.087,1.296,0.26
				c0.406,0.174,0.762,0.412,1.064,0.715c0.303,0.304,0.541,0.658,0.715,1.064s0.261,0.839,0.261,1.297v5.12
				C200.243,315.167,200.156,315.599,199.982,316.005z M198.88,309.51c0-0.273-0.052-0.529-0.155-0.77s-0.244-0.449-0.421-0.627
				c-0.178-0.177-0.387-0.317-0.627-0.421s-0.497-0.155-0.77-0.155h-0.909c-0.273,0-0.53,0.052-0.771,0.155
				s-0.448,0.244-0.626,0.421c-0.178,0.178-0.317,0.387-0.421,0.627s-0.155,0.496-0.155,0.77v5.275c0,0.273,0.052,0.53,0.155,0.771
				s0.243,0.449,0.421,0.626c0.178,0.178,0.386,0.318,0.626,0.422s0.497,0.155,0.771,0.155h0.909c0.272,0,0.529-0.052,0.77-0.155
				s0.449-0.244,0.627-0.422c0.177-0.177,0.317-0.386,0.421-0.626s0.155-0.497,0.155-0.771V309.51z"/>
			<path class="st4" d="M203.423,317.823V301.93h1.363v15.893H203.423z"/>
			<path class="st4" d="M215.287,316.005c-0.174,0.406-0.412,0.761-0.715,1.063c-0.303,0.304-0.658,0.542-1.064,0.715
				c-0.406,0.174-0.838,0.261-1.296,0.261h-0.909c-0.458,0-0.891-0.087-1.297-0.261c-0.406-0.173-0.761-0.411-1.063-0.715
				c-0.304-0.303-0.542-0.657-0.715-1.063c-0.174-0.406-0.261-0.839-0.261-1.297v-5.12c0-0.458,0.087-0.891,0.261-1.297
				c0.173-0.406,0.411-0.761,0.715-1.064c0.303-0.303,0.657-0.541,1.063-0.715c0.406-0.173,0.839-0.26,1.297-0.26h0.909
				c0.458,0,0.89,0.087,1.296,0.26c0.406,0.174,0.762,0.412,1.064,0.715c0.303,0.304,0.541,0.658,0.715,1.064
				s0.261,0.839,0.261,1.297v2.671h-6.218v2.526c0,0.273,0.052,0.53,0.155,0.771s0.243,0.449,0.421,0.626
				c0.178,0.178,0.386,0.318,0.626,0.422s0.497,0.155,0.771,0.155h0.909c0.272,0,0.529-0.052,0.77-0.155s0.449-0.244,0.627-0.422
				c0.177-0.177,0.317-0.386,0.421-0.626s0.155-0.497,0.155-0.771v-0.753l1.363,0.222v0.454
				C215.548,315.167,215.461,315.599,215.287,316.005z M214.185,309.51c0-0.273-0.052-0.529-0.155-0.77s-0.244-0.449-0.421-0.627
				c-0.178-0.177-0.387-0.317-0.627-0.421s-0.497-0.155-0.77-0.155h-0.909c-0.273,0-0.53,0.052-0.771,0.155
				s-0.448,0.244-0.626,0.421c-0.178,0.178-0.317,0.387-0.421,0.627s-0.155,0.496-0.155,0.77v1.685h4.854V309.51z"/>
			<path class="st4" d="M230.254,317.823v-8.313c0-0.273-0.052-0.529-0.155-0.77s-0.243-0.449-0.421-0.627
				c-0.178-0.177-0.386-0.317-0.626-0.421s-0.497-0.155-0.771-0.155h-0.676c-0.273,0-0.53,0.052-0.771,0.155
				s-0.451,0.244-0.632,0.421c-0.181,0.178-0.323,0.387-0.427,0.627s-0.155,0.496-0.155,0.77v8.313h-1.352v-8.313
				c0-0.273-0.052-0.529-0.155-0.77s-0.246-0.449-0.427-0.627c-0.182-0.177-0.392-0.317-0.632-0.421s-0.497-0.155-0.771-0.155
				h-0.676c-0.273,0-0.53,0.052-0.771,0.155s-0.448,0.244-0.626,0.421c-0.178,0.178-0.317,0.387-0.421,0.627
				s-0.155,0.496-0.155,0.77v8.313h-1.363v-11.349h0.454l0.743,1.152c0.31-0.421,0.699-0.756,1.169-1.003
				c0.469-0.247,0.98-0.371,1.535-0.371h0.11c0.643,0,1.223,0.158,1.74,0.477c0.518,0.317,0.916,0.738,1.197,1.263
				c0.14-0.258,0.313-0.494,0.521-0.709c0.207-0.214,0.436-0.396,0.688-0.549c0.251-0.151,0.524-0.27,0.82-0.354
				c0.295-0.085,0.602-0.127,0.92-0.127h0.11c0.458,0,0.891,0.087,1.297,0.26c0.406,0.174,0.761,0.412,1.063,0.715
				c0.303,0.304,0.541,0.658,0.715,1.064s0.261,0.839,0.261,1.297v8.234H230.254z"/>
			<path class="st4" d="M241.47,317.823l-0.753-1.131c-0.311,0.407-0.698,0.733-1.164,0.981c-0.466,0.247-0.976,0.371-1.529,0.371
				h-0.344c-0.458,0-0.891-0.087-1.297-0.261c-0.406-0.173-0.761-0.411-1.063-0.715c-0.304-0.303-0.542-0.657-0.715-1.063
				c-0.174-0.406-0.261-0.839-0.261-1.297v-0.111c0-0.458,0.087-0.89,0.261-1.296c0.173-0.406,0.411-0.762,0.715-1.064
				c0.303-0.303,0.657-0.541,1.063-0.715s0.839-0.261,1.297-0.261h2.882v-1.751c0-0.273-0.052-0.529-0.155-0.77
				s-0.244-0.449-0.421-0.627c-0.178-0.177-0.387-0.317-0.627-0.421s-0.497-0.155-0.77-0.155h-0.799c-0.273,0-0.53,0.052-0.77,0.155
				c-0.24,0.104-0.449,0.244-0.627,0.421c-0.177,0.178-0.317,0.387-0.421,0.627s-0.155,0.496-0.155,0.77v0.41l-1.363-0.222v-0.11
				c0-0.458,0.087-0.891,0.261-1.297s0.412-0.761,0.715-1.064c0.303-0.303,0.657-0.541,1.064-0.715
				c0.406-0.173,0.838-0.26,1.296-0.26h0.799c0.458,0,0.89,0.087,1.296,0.26c0.406,0.174,0.762,0.412,1.064,0.715
				c0.303,0.304,0.541,0.658,0.715,1.064s0.261,0.839,0.261,1.297v8.234H241.47z M240.561,312.326h-2.882
				c-0.273,0-0.53,0.052-0.771,0.155s-0.448,0.245-0.626,0.427c-0.178,0.181-0.317,0.392-0.421,0.632s-0.155,0.497-0.155,0.77v0.477
				c0,0.273,0.052,0.53,0.155,0.771s0.243,0.449,0.421,0.626c0.178,0.178,0.386,0.318,0.626,0.422s0.497,0.155,0.771,0.155h0.909
				c0.272,0,0.529-0.052,0.77-0.155s0.449-0.244,0.627-0.422c0.177-0.177,0.317-0.386,0.421-0.626s0.155-0.497,0.155-0.771V312.326z
				"/>
		</g>
		<g>
			<g>
				<radialGradient id="SVGID_8_" cx="707.8691" cy="312.776" r="79.5918" gradientUnits="userSpaceOnUse">
					<stop  offset="0" style="stop-color:#8CBB69"/>
					<stop  offset="0.7837" style="stop-color:#6BAD44"/>
				</radialGradient>
				<rect x="599.883" y="281.016" class="st9" width="215.973" height="63.52"/>
				<path class="st4" d="M815.855,347.291H599.883c-1.682,0-3.049-1.232-3.049-2.755v-63.519c0-1.522,1.367-2.757,3.049-2.757
					h215.973c1.686,0,3.051,1.235,3.051,2.757v63.519C818.906,346.058,817.541,347.291,815.855,347.291z M602.933,341.78H812.81
					v-58.007H602.933V341.78z"/>
			</g>
		</g>
		<g>
			<path class="st4" d="M680.084,299.334c-0.203,0.473-0.482,0.887-0.837,1.241s-0.771,0.634-1.247,0.837s-0.984,0.305-1.523,0.305
				h-3.603v6.106h-1.43V291.93h5.032c0.539,0,1.047,0.102,1.523,0.305s0.893,0.481,1.247,0.837c0.354,0.354,0.634,0.77,0.837,1.246
				s0.305,0.985,0.305,1.524v1.973C680.389,298.354,680.287,298.861,680.084,299.334z M678.959,295.842
				c0-0.354-0.066-0.686-0.199-0.992c-0.134-0.307-0.316-0.576-0.549-0.809c-0.233-0.233-0.503-0.416-0.81-0.549
				s-0.637-0.199-0.991-0.199h-3.536v7.06h3.536c0.354,0,0.685-0.066,0.991-0.199c0.307-0.134,0.576-0.314,0.81-0.544
				c0.232-0.229,0.415-0.496,0.549-0.803c0.133-0.307,0.199-0.638,0.199-0.992V295.842z"/>
			<path class="st4" d="M685.996,297.771c-0.273,0-0.53,0.052-0.771,0.154c-0.24,0.104-0.448,0.244-0.626,0.422
				c-0.178,0.177-0.317,0.386-0.421,0.626s-0.155,0.497-0.155,0.771v8.079h-1.363v-11.349h0.454l0.743,1.152
				c0.31-0.421,0.699-0.756,1.169-1.003c0.469-0.247,0.98-0.371,1.535-0.371h0.798v1.519H685.996z"/>
			<path class="st4" d="M696.497,306.005c-0.174,0.406-0.412,0.761-0.715,1.063c-0.303,0.304-0.658,0.542-1.064,0.715
				c-0.406,0.174-0.838,0.261-1.296,0.261h-0.909c-0.458,0-0.891-0.087-1.297-0.261c-0.406-0.173-0.761-0.411-1.063-0.715
				c-0.304-0.303-0.542-0.657-0.715-1.063c-0.174-0.406-0.261-0.839-0.261-1.297v-5.12c0-0.458,0.087-0.891,0.261-1.297
				c0.173-0.406,0.411-0.761,0.715-1.064c0.303-0.303,0.657-0.541,1.063-0.715c0.406-0.173,0.839-0.26,1.297-0.26h0.909
				c0.458,0,0.89,0.087,1.296,0.26c0.406,0.174,0.762,0.412,1.064,0.715c0.303,0.304,0.541,0.658,0.715,1.064
				s0.261,0.839,0.261,1.297v5.12C696.758,305.167,696.671,305.599,696.497,306.005z M695.394,299.51
				c0-0.273-0.052-0.529-0.155-0.77s-0.244-0.449-0.421-0.627c-0.178-0.177-0.387-0.317-0.627-0.421s-0.497-0.155-0.77-0.155h-0.909
				c-0.273,0-0.53,0.052-0.771,0.155s-0.448,0.244-0.626,0.421c-0.178,0.178-0.317,0.387-0.421,0.627s-0.155,0.496-0.155,0.77v5.275
				c0,0.273,0.052,0.53,0.155,0.771s0.243,0.449,0.421,0.626c0.178,0.178,0.386,0.318,0.626,0.422s0.497,0.155,0.771,0.155h0.909
				c0.272,0,0.529-0.052,0.77-0.155s0.449-0.244,0.627-0.422c0.177-0.177,0.317-0.386,0.421-0.626s0.155-0.497,0.155-0.771V299.51z"
				/>
			<path class="st4" d="M706.804,306.005c-0.174,0.406-0.412,0.761-0.715,1.063c-0.303,0.304-0.658,0.542-1.064,0.715
				c-0.406,0.174-0.838,0.261-1.296,0.261h-0.909c-0.458,0-0.891-0.087-1.297-0.261c-0.406-0.173-0.761-0.411-1.063-0.715
				c-0.304-0.303-0.542-0.657-0.715-1.063c-0.174-0.406-0.261-0.839-0.261-1.297V291.93h1.363v5.497
				c0.311-0.37,0.684-0.658,1.119-0.865c0.436-0.206,0.909-0.31,1.419-0.31h0.344c0.458,0,0.89,0.087,1.296,0.26
				c0.406,0.174,0.762,0.412,1.064,0.715c0.303,0.304,0.541,0.658,0.715,1.064s0.261,0.839,0.261,1.297v5.12
				C707.064,305.167,706.977,305.599,706.804,306.005z M705.701,299.51c0-0.273-0.052-0.529-0.155-0.77s-0.244-0.449-0.421-0.627
				c-0.178-0.177-0.387-0.317-0.627-0.421s-0.497-0.155-0.77-0.155h-0.909c-0.273,0-0.53,0.052-0.771,0.155
				s-0.448,0.244-0.626,0.421c-0.178,0.178-0.317,0.387-0.421,0.627s-0.155,0.496-0.155,0.77v5.275c0,0.273,0.052,0.53,0.155,0.771
				s0.243,0.449,0.421,0.626c0.178,0.178,0.386,0.318,0.626,0.422s0.497,0.155,0.771,0.155h0.909c0.272,0,0.529-0.052,0.77-0.155
				s0.449-0.244,0.627-0.422c0.177-0.177,0.317-0.386,0.421-0.626s0.155-0.497,0.155-0.771V299.51z"/>
			<path class="st4" d="M710.244,307.823V291.93h1.363v15.893H710.244z"/>
			<path class="st4" d="M722.108,306.005c-0.174,0.406-0.412,0.761-0.715,1.063c-0.303,0.304-0.658,0.542-1.064,0.715
				c-0.406,0.174-0.838,0.261-1.296,0.261h-0.909c-0.458,0-0.891-0.087-1.297-0.261c-0.406-0.173-0.761-0.411-1.063-0.715
				c-0.304-0.303-0.542-0.657-0.715-1.063c-0.174-0.406-0.261-0.839-0.261-1.297v-5.12c0-0.458,0.087-0.891,0.261-1.297
				c0.173-0.406,0.411-0.761,0.715-1.064c0.303-0.303,0.657-0.541,1.063-0.715c0.406-0.173,0.839-0.26,1.297-0.26h0.909
				c0.458,0,0.89,0.087,1.296,0.26c0.406,0.174,0.762,0.412,1.064,0.715c0.303,0.304,0.541,0.658,0.715,1.064
				s0.261,0.839,0.261,1.297v2.671h-6.218v2.526c0,0.273,0.052,0.53,0.155,0.771s0.243,0.449,0.421,0.626
				c0.178,0.178,0.386,0.318,0.626,0.422s0.497,0.155,0.771,0.155h0.909c0.272,0,0.529-0.052,0.77-0.155s0.449-0.244,0.627-0.422
				c0.177-0.177,0.317-0.386,0.421-0.626s0.155-0.497,0.155-0.771v-0.753l1.363,0.222v0.454
				C722.369,305.167,722.282,305.599,722.108,306.005z M721.006,299.51c0-0.273-0.052-0.529-0.155-0.77s-0.244-0.449-0.421-0.627
				c-0.178-0.177-0.387-0.317-0.627-0.421s-0.497-0.155-0.77-0.155h-0.909c-0.273,0-0.53,0.052-0.771,0.155
				s-0.448,0.244-0.626,0.421c-0.178,0.178-0.317,0.387-0.421,0.627s-0.155,0.496-0.155,0.77v1.685h4.854V299.51z"/>
			<path class="st4" d="M737.075,307.823v-8.313c0-0.273-0.052-0.529-0.155-0.77s-0.243-0.449-0.421-0.627
				c-0.178-0.177-0.386-0.317-0.626-0.421s-0.497-0.155-0.771-0.155h-0.676c-0.273,0-0.53,0.052-0.771,0.155
				s-0.451,0.244-0.632,0.421c-0.181,0.178-0.323,0.387-0.427,0.627s-0.155,0.496-0.155,0.77v8.313h-1.352v-8.313
				c0-0.273-0.052-0.529-0.155-0.77s-0.246-0.449-0.427-0.627c-0.182-0.177-0.392-0.317-0.632-0.421s-0.497-0.155-0.771-0.155
				h-0.676c-0.273,0-0.53,0.052-0.771,0.155s-0.448,0.244-0.626,0.421c-0.178,0.178-0.317,0.387-0.421,0.627
				s-0.155,0.496-0.155,0.77v8.313h-1.363v-11.349h0.454l0.743,1.152c0.31-0.421,0.699-0.756,1.169-1.003
				c0.469-0.247,0.98-0.371,1.535-0.371h0.11c0.643,0,1.223,0.158,1.74,0.477c0.518,0.317,0.916,0.738,1.197,1.263
				c0.14-0.258,0.313-0.494,0.521-0.709c0.207-0.214,0.436-0.396,0.688-0.549c0.251-0.151,0.524-0.27,0.82-0.354
				c0.295-0.085,0.602-0.127,0.92-0.127h0.11c0.458,0,0.891,0.087,1.297,0.26c0.406,0.174,0.761,0.412,1.063,0.715
				c0.303,0.304,0.541,0.658,0.715,1.064s0.261,0.839,0.261,1.297v8.234H737.075z"/>
			<path class="st4" d="M748.291,307.823l-0.753-1.131c-0.311,0.407-0.698,0.733-1.164,0.981c-0.466,0.247-0.976,0.371-1.529,0.371
				h-0.344c-0.458,0-0.891-0.087-1.297-0.261c-0.406-0.173-0.761-0.411-1.063-0.715c-0.304-0.303-0.542-0.657-0.715-1.063
				c-0.174-0.406-0.261-0.839-0.261-1.297v-0.111c0-0.458,0.087-0.89,0.261-1.296c0.173-0.406,0.411-0.762,0.715-1.064
				c0.303-0.303,0.657-0.541,1.063-0.715s0.839-0.261,1.297-0.261h2.882v-1.751c0-0.273-0.052-0.529-0.155-0.77
				s-0.244-0.449-0.421-0.627c-0.178-0.177-0.387-0.317-0.627-0.421s-0.497-0.155-0.77-0.155h-0.799c-0.273,0-0.53,0.052-0.77,0.155
				c-0.24,0.104-0.449,0.244-0.627,0.421c-0.177,0.178-0.317,0.387-0.421,0.627s-0.155,0.496-0.155,0.77v0.41l-1.363-0.222v-0.11
				c0-0.458,0.087-0.891,0.261-1.297s0.412-0.761,0.715-1.064c0.303-0.303,0.657-0.541,1.064-0.715
				c0.406-0.173,0.838-0.26,1.296-0.26h0.799c0.458,0,0.89,0.087,1.296,0.26c0.406,0.174,0.762,0.412,1.064,0.715
				c0.303,0.304,0.541,0.658,0.715,1.064s0.261,0.839,0.261,1.297v8.234H748.291z M747.383,302.326h-2.882
				c-0.273,0-0.53,0.052-0.771,0.155s-0.448,0.245-0.626,0.427c-0.178,0.181-0.317,0.392-0.421,0.632s-0.155,0.497-0.155,0.77v0.477
				c0,0.273,0.052,0.53,0.155,0.771s0.243,0.449,0.421,0.626c0.178,0.178,0.386,0.318,0.626,0.422s0.497,0.155,0.771,0.155h0.909
				c0.272,0,0.529-0.052,0.77-0.155s0.449-0.244,0.627-0.422c0.177-0.177,0.317-0.386,0.421-0.626s0.155-0.497,0.155-0.771V302.326z
				"/>
			<path class="st4" d="M662.278,324.1v1.239l-7.717,3.419l7.717,3.401v1.248l-9-4.017v-1.283L662.278,324.1z"/>
			<path class="st4" d="M673.256,324.1v1.239l-7.717,3.419l7.717,3.401v1.248l-9-4.017v-1.283L673.256,324.1z"/>
			<path class="st4" d="M688.24,333.243c-0.174,0.406-0.412,0.761-0.715,1.063c-0.303,0.304-0.658,0.542-1.064,0.715
				c-0.406,0.174-0.838,0.261-1.296,0.261h-0.909c-0.458,0-0.891-0.087-1.297-0.261c-0.406-0.173-0.761-0.411-1.063-0.715
				c-0.304-0.303-0.542-0.657-0.715-1.063c-0.174-0.406-0.261-0.839-0.261-1.297v-5.12c0-0.458,0.087-0.891,0.261-1.297
				c0.173-0.406,0.411-0.761,0.715-1.064c0.303-0.303,0.657-0.541,1.063-0.715c0.406-0.173,0.839-0.26,1.297-0.26h0.909
				c0.458,0,0.89,0.087,1.296,0.26c0.406,0.174,0.762,0.412,1.064,0.715c0.303,0.304,0.541,0.658,0.715,1.064
				s0.261,0.839,0.261,1.297v0.454l-1.363,0.222v-0.754c0-0.273-0.052-0.529-0.155-0.77s-0.244-0.449-0.421-0.627
				c-0.178-0.177-0.387-0.317-0.627-0.421s-0.497-0.155-0.77-0.155h-0.909c-0.273,0-0.53,0.052-0.771,0.155
				s-0.448,0.244-0.626,0.421c-0.178,0.178-0.317,0.387-0.421,0.627s-0.155,0.496-0.155,0.77v5.275c0,0.273,0.052,0.53,0.155,0.771
				s0.243,0.449,0.421,0.626c0.178,0.178,0.386,0.318,0.626,0.422s0.497,0.155,0.771,0.155h0.909c0.272,0,0.529-0.052,0.77-0.155
				s0.449-0.244,0.627-0.422c0.177-0.177,0.317-0.386,0.421-0.626s0.155-0.497,0.155-0.771v-0.753l1.363,0.222v0.454
				C688.501,332.404,688.414,332.837,688.24,333.243z"/>
			<path class="st4" d="M698.548,333.243c-0.174,0.406-0.412,0.761-0.715,1.063c-0.303,0.304-0.658,0.542-1.064,0.715
				c-0.406,0.174-0.838,0.261-1.296,0.261h-0.909c-0.458,0-0.891-0.087-1.297-0.261c-0.406-0.173-0.761-0.411-1.063-0.715
				c-0.304-0.303-0.542-0.657-0.715-1.063c-0.174-0.406-0.261-0.839-0.261-1.297v-5.12c0-0.458,0.087-0.891,0.261-1.297
				c0.173-0.406,0.411-0.761,0.715-1.064c0.303-0.303,0.657-0.541,1.063-0.715c0.406-0.173,0.839-0.26,1.297-0.26h0.909
				c0.458,0,0.89,0.087,1.296,0.26c0.406,0.174,0.762,0.412,1.064,0.715c0.303,0.304,0.541,0.658,0.715,1.064
				s0.261,0.839,0.261,1.297v2.671h-6.218v2.526c0,0.273,0.052,0.53,0.155,0.771s0.243,0.449,0.421,0.626
				c0.178,0.178,0.386,0.318,0.626,0.422s0.497,0.155,0.771,0.155h0.909c0.272,0,0.529-0.052,0.77-0.155s0.449-0.244,0.627-0.422
				c0.177-0.177,0.317-0.386,0.421-0.626s0.155-0.497,0.155-0.771v-0.753l1.363,0.222v0.454
				C698.809,332.404,698.722,332.837,698.548,333.243z M697.445,326.748c0-0.273-0.052-0.529-0.155-0.77s-0.244-0.449-0.421-0.627
				c-0.178-0.177-0.387-0.317-0.627-0.421s-0.497-0.155-0.77-0.155h-0.909c-0.273,0-0.53,0.052-0.771,0.155
				s-0.448,0.244-0.626,0.421c-0.178,0.178-0.317,0.387-0.421,0.627s-0.155,0.496-0.155,0.77v1.685h4.854V326.748z"/>
			<path class="st4" d="M707.752,335.06v-8.313c0-0.273-0.052-0.529-0.155-0.77s-0.244-0.449-0.421-0.627
				c-0.178-0.177-0.387-0.317-0.627-0.421s-0.497-0.155-0.77-0.155h-0.909c-0.273,0-0.53,0.052-0.771,0.155
				s-0.448,0.244-0.626,0.421c-0.178,0.178-0.317,0.387-0.421,0.627s-0.155,0.496-0.155,0.77v8.313h-1.363v-11.349h0.454
				l0.743,1.152c0.31-0.421,0.699-0.756,1.169-1.003c0.469-0.247,0.98-0.371,1.535-0.371h0.344c0.458,0,0.89,0.087,1.296,0.26
				c0.406,0.174,0.762,0.412,1.064,0.715c0.303,0.304,0.541,0.658,0.715,1.064s0.261,0.839,0.261,1.297v8.234H707.752z"/>
			<path class="st4" d="M715.975,335.06c-0.414,0-0.804-0.077-1.169-0.232c-0.366-0.155-0.684-0.37-0.953-0.644
				c-0.271-0.272-0.484-0.591-0.643-0.953c-0.159-0.361-0.238-0.749-0.238-1.163v-7.06h-2.04v-1.297h2.04v-2.727l1.362-0.222v2.948
				h2.882v1.297h-2.882v7.126c0,0.229,0.043,0.441,0.128,0.637c0.085,0.196,0.201,0.368,0.349,0.516
				c0.148,0.148,0.322,0.265,0.521,0.35s0.413,0.127,0.643,0.127h1.241v1.297H715.975z"/>
			<path class="st4" d="M723.057,325.008c-0.273,0-0.53,0.052-0.771,0.154c-0.24,0.104-0.448,0.244-0.626,0.422
				c-0.178,0.177-0.317,0.386-0.421,0.626s-0.155,0.497-0.155,0.771v8.079h-1.363v-11.349h0.454l0.743,1.152
				c0.31-0.421,0.699-0.756,1.169-1.003c0.469-0.247,0.98-0.371,1.535-0.371h0.798v1.519H723.057z"/>
			<path class="st4" d="M733.363,335.06l-0.753-1.131c-0.311,0.407-0.698,0.733-1.164,0.981c-0.466,0.247-0.976,0.371-1.529,0.371
				h-0.344c-0.458,0-0.891-0.087-1.297-0.261c-0.406-0.173-0.761-0.411-1.063-0.715c-0.304-0.303-0.542-0.657-0.715-1.063
				c-0.174-0.406-0.261-0.839-0.261-1.297v-0.111c0-0.458,0.087-0.89,0.261-1.296c0.173-0.406,0.411-0.762,0.715-1.064
				c0.303-0.303,0.657-0.541,1.063-0.715s0.839-0.261,1.297-0.261h2.882v-1.751c0-0.273-0.052-0.529-0.155-0.77
				s-0.244-0.449-0.421-0.627c-0.178-0.177-0.387-0.317-0.627-0.421s-0.497-0.155-0.77-0.155h-0.799c-0.273,0-0.53,0.052-0.77,0.155
				c-0.24,0.104-0.449,0.244-0.627,0.421c-0.177,0.178-0.317,0.387-0.421,0.627s-0.155,0.496-0.155,0.77v0.41l-1.363-0.222v-0.11
				c0-0.458,0.087-0.891,0.261-1.297s0.412-0.761,0.715-1.064c0.303-0.303,0.657-0.541,1.064-0.715
				c0.406-0.173,0.838-0.26,1.296-0.26h0.799c0.458,0,0.89,0.087,1.296,0.26c0.406,0.174,0.762,0.412,1.064,0.715
				c0.303,0.304,0.541,0.658,0.715,1.064s0.261,0.839,0.261,1.297v8.234H733.363z M732.455,329.563h-2.882
				c-0.273,0-0.53,0.052-0.771,0.155s-0.448,0.245-0.626,0.427c-0.178,0.181-0.317,0.392-0.421,0.632s-0.155,0.497-0.155,0.77v0.477
				c0,0.273,0.052,0.53,0.155,0.771s0.243,0.449,0.421,0.626c0.178,0.178,0.386,0.318,0.626,0.422s0.497,0.155,0.771,0.155h0.909
				c0.272,0,0.529-0.052,0.77-0.155s0.449-0.244,0.627-0.422c0.177-0.177,0.317-0.386,0.421-0.626s0.155-0.497,0.155-0.771V329.563z
				"/>
			<path class="st4" d="M736.998,335.06v-15.893h1.363v15.893H736.998z"/>
			<path class="st4" d="M754.182,328.758l-7.699-3.419V324.1l9,4.008v1.283l-9,4.017v-1.248L754.182,328.758z"/>
			<path class="st4" d="M765.159,328.758l-7.699-3.419V324.1l9,4.008v1.283l-9,4.017v-1.248L765.159,328.758z"/>
		</g>
		<polyline class="st10" points="259.438,233.653 259.438,259.823 686.019,259.823 686.019,233.653 		"/>
		<line class="st10" x1="477.705" y1="293.601" x2="477.705" y2="235.291"/>
		<g>
			<path class="st11" d="M473.084,285.178h1.239l3.419,7.717l3.401-7.717h1.248l-4.017,9h-1.283L473.084,285.178z"/>
		</g>
		<polyline class="st10" points="685.021,382.179 685.021,356.009 258.438,356.009 258.438,382.179 		"/>
		<line class="st10" x1="477.755" y1="335.884" x2="477.755" y2="356.011"/>
		<g>
			<path class="st11" d="M482.374,343.654h-1.238l-3.42-7.717l-3.4,7.717h-1.248l4.016-9h1.283L482.374,343.654z"/>
		</g>
		<g>
			<path class="st11" d="M247.209,426.189h-1.238l-3.42-7.717l-3.4,7.717h-1.248l4.016-9h1.283L247.209,426.189z"/>
		</g>
		<g>
			<path class="st11" d="M689.552,426.189h-1.238l-3.42-7.717l-3.4,7.717h-1.248l4.016-9h1.283L689.552,426.189z"/>
		</g>
		<polyline class="st10" points="95.555,472.898 95.555,447.822 389.016,447.822 389.016,472.898 		"/>
		<line class="st10" x1="242.556" y1="471.259" x2="242.556" y2="417.291"/>
		<polyline class="st10" points="605.094,472.898 605.094,447.822 684.898,447.822 764.703,447.822 764.703,472.898 		"/>
		<line class="st10" x1="684.898" y1="447.822" x2="684.898" y2="417.291"/>
		<g>
			<g>
				<rect x="200.48" y="195.898" class="st12" width="132.148" height="37.755"/>
				<path class="st4" d="M332.629,235.291H200.48c-0.903,0-1.638-0.732-1.638-1.638v-37.755c0-0.904,0.734-1.639,1.638-1.639
					h132.149c0.905,0,1.639,0.734,1.639,1.639v37.755C334.267,234.558,333.534,235.291,332.629,235.291z M202.12,232.015h128.873
					v-34.479H202.12V232.015z"/>
			</g>
		</g>
		<g>
			<g>
				<rect x="411.956" y="195.898" class="st12" width="132.148" height="37.755"/>
				<path class="st4" d="M544.104,235.291H411.956c-0.903,0-1.638-0.732-1.638-1.638v-37.755c0-0.904,0.734-1.639,1.638-1.639
					h132.148c0.905,0,1.639,0.734,1.639,1.639v37.755C545.743,234.558,545.01,235.291,544.104,235.291z M413.596,232.015h128.873
					v-34.479H413.596V232.015z"/>
			</g>
		</g>
		<g>
			<g>
				<rect x="411.956" y="295.898" class="st12" width="132.148" height="37.755"/>
				<path class="st4" d="M544.104,335.291H411.956c-0.903,0-1.638-0.732-1.638-1.638v-37.755c0-0.904,0.734-1.639,1.638-1.639
					h132.148c0.905,0,1.639,0.734,1.639,1.639v37.755C545.743,334.558,545.01,335.291,544.104,335.291z M413.596,332.015h128.873
					v-34.479H413.596V332.015z"/>
			</g>
		</g>
		<g>
			<g>
				<rect x="618.693" y="195.898" class="st12" width="132.148" height="37.755"/>
				<path class="st4" d="M750.842,235.291H618.693c-0.903,0-1.638-0.732-1.638-1.638v-37.755c0-0.904,0.734-1.639,1.638-1.639
					h132.148c0.905,0,1.639,0.734,1.639,1.639v37.755C752.48,234.558,751.747,235.291,750.842,235.291z M620.333,232.015h128.873
					v-34.479H620.333V232.015z"/>
			</g>
		</g>
		<g>
			<g>
				<rect x="29.48" y="472.898" class="st12" width="132.148" height="37.755"/>
				<path class="st4" d="M161.629,512.291H29.48c-0.903,0-1.638-0.732-1.638-1.638v-37.755c0-0.904,0.734-1.639,1.638-1.639h132.148
					c0.905,0,1.639,0.734,1.639,1.639v37.755C163.268,511.558,162.534,512.291,161.629,512.291z M31.12,509.015h128.873v-34.479
					H31.12V509.015z"/>
			</g>
		</g>
		<g>
			<g>
				<rect x="176.48" y="472.898" class="st12" width="132.148" height="37.755"/>
				<path class="st4" d="M308.629,512.291H176.48c-0.903,0-1.638-0.732-1.638-1.638v-37.755c0-0.904,0.734-1.639,1.638-1.639
					h132.149c0.905,0,1.639,0.734,1.639,1.639v37.755C310.267,511.558,309.534,512.291,308.629,512.291z M178.12,509.015h128.873
					v-34.479H178.12V509.015z"/>
			</g>
		</g>
		<g>
			<g>
				<rect x="322.941" y="472.898" class="st12" width="132.148" height="37.755"/>
				<path class="st4" d="M455.09,512.291H322.941c-0.903,0-1.638-0.732-1.638-1.638v-37.755c0-0.904,0.734-1.639,1.638-1.639H455.09
					c0.905,0,1.639,0.734,1.639,1.639v37.755C456.728,511.558,455.995,512.291,455.09,512.291z M324.581,509.015h128.873v-34.479
					H324.581V509.015z"/>
			</g>
		</g>
		<g>
			<g>
				<rect x="539.02" y="472.898" class="st12" width="132.148" height="37.755"/>
				<path class="st4" d="M671.168,512.291H539.019c-0.903,0-1.638-0.732-1.638-1.638v-37.755c0-0.904,0.734-1.639,1.638-1.639
					h132.148c0.905,0,1.639,0.734,1.639,1.639v37.755C672.807,511.558,672.073,512.291,671.168,512.291z M540.659,509.015h128.873
					v-34.479H540.659V509.015z"/>
			</g>
		</g>
		<g>
			<g>
				<rect x="699.02" y="472.898" class="st12" width="132.148" height="37.755"/>
				<path class="st4" d="M831.168,512.291H699.019c-0.903,0-1.638-0.732-1.638-1.638v-37.755c0-0.904,0.734-1.639,1.638-1.639
					h132.148c0.905,0,1.639,0.734,1.639,1.639v37.755C832.807,511.558,832.073,512.291,831.168,512.291z M700.659,509.015h128.873
					v-34.479H700.659V509.015z"/>
			</g>
		</g>
		<g>
			<g>
				<rect x="200.48" y="377.898" class="st12" width="132.148" height="37.755"/>
				<path class="st4" d="M332.629,417.291H200.48c-0.903,0-1.638-0.732-1.638-1.638v-37.755c0-0.904,0.734-1.639,1.638-1.639
					h132.149c0.905,0,1.639,0.734,1.639,1.639v37.755C334.267,416.558,333.534,417.291,332.629,417.291z M202.12,414.015h128.873
					v-34.479H202.12V414.015z"/>
			</g>
		</g>
		<g>
			<g>
				<rect x="618.693" y="377.898" class="st12" width="132.148" height="37.755"/>
				<path class="st4" d="M750.842,417.291H618.693c-0.903,0-1.638-0.732-1.638-1.638v-37.755c0-0.904,0.734-1.639,1.638-1.639
					h132.148c0.905,0,1.639,0.734,1.639,1.639v37.755C752.48,416.558,751.747,417.291,750.842,417.291z M620.333,414.015h128.873
					v-34.479H620.333V414.015z"/>
			</g>
		</g>
	</g>
</g>
<g id="XMLID_1_">
	<polygon id="XMLID_4_" class="st4" points="14.205,42.936 0,52.513 0,33.359 	"/>
	<polygon id="XMLID_2_" class="st4" points="21.842,42.936 7.637,52.513 7.637,33.359 	"/>
</g>
</svg>