<!-- Generator: Adobe Illustrator 17.0.0, SVG Export Plug-In  -->
<svg version="1.1"
	 xmlns="http://www.w3.org/2000/svg" xmlns:xlink="http://www.w3.org/1999/xlink" xmlns:a="http://ns.adobe.com/AdobeSVGViewerExtensions/3.0/"
	 x="0px" y="0px" width="226.042px" height="23.618px" viewBox="0 0 226.042 23.618"
	 style="enable-background:new 0 0 226.042 23.618;" xml:space="preserve">
<style type="text/css">
	.st0{clip-path:url(#SVGID_2_);fill:url(#XMLID_9_);}
	.st1{clip-path:url(#SVGID_4_);}
	.st2{fill:#144B8B;}
	.st3{clip-path:url(#SVGID_6_);fill:url(#XMLID_10_);}
	.st4{clip-path:url(#SVGID_8_);}
</style>
<defs>
</defs>
<g id="XMLID_1_">
	<g id="XMLID_6_">
		<g>
			<g>
				<defs>
					<rect id="SVGID_1_" x="0" y="0.08" width="20.676" height="18.191"/>
				</defs>
				<clipPath id="SVGID_2_">
					<use xlink:href="#SVGID_1_"  style="overflow:visible;"/>
				</clipPath>
				<radialGradient id="XMLID_9_" cx="15.2246" cy="5.169" r="4.952" gradientUnits="userSpaceOnUse">
					<stop  offset="0" style="stop-color:#8CBB69"/>
					<stop  offset="0.7837" style="stop-color:#6BAD44"/>
				</radialGradient>
				<path id="XMLID_8_" class="st0" d="M18.994,7.691h-4.33l-2.322,2.246V7.691H11.38c-0.722,0-1.284-0.559-1.284-1.281V1.683
					c0-0.722,0.563-1.282,1.284-1.282h7.692c0.721,0,1.281,0.561,1.281,1.282V6.41C20.275,7.133,19.715,7.691,18.994,7.691
					L18.994,7.691z"/>
			</g>
		</g>
		<g>
			<g>
				<defs>
					<rect id="SVGID_3_" x="0" y="0.08" width="20.676" height="18.191"/>
				</defs>
				<clipPath id="SVGID_4_">
					<use xlink:href="#SVGID_3_"  style="overflow:visible;"/>
				</clipPath>
				<path id="XMLID_7_" class="st1" d="M3.365,16.589L3.365,16.589l1.602-0.241v1.523c0,0.24,0.16,0.4,0.4,0.4h8.015
					c0.24,0,0.4-0.16,0.4-0.4v-5.449c0.643-0.642,1.202-1.443,1.601-2.246c0.083-0.159,0-0.399-0.159-0.479
					c-0.161-0.08-0.4,0-0.479,0.16c-0.319,0.802-0.882,1.521-1.523,2.164c-0.08,0.078-0.16,0.16-0.16,0.32v5.208H5.851v-1.603
					c0-0.081-0.08-0.24-0.161-0.32c-0.078-0.08-0.16-0.08-0.321-0.08l-1.923,0.319c-0.563,0-1.043-0.481-1.043-1.041v-2.564
					c0-0.24-0.158-0.401-0.398-0.401H1.363c-0.242,0-0.402-0.08-0.48-0.161c-0.081-0.081-0.081-0.32,0.078-0.48l1.362-2.644
					c0-0.083,0.079-0.083,0.079-0.161V7.293c0-2.484,1.444-4.729,3.688-5.771c0.802-0.4,1.602-0.562,2.484-0.642
					c0.24,0,0.4-0.16,0.4-0.4c0-0.24-0.16-0.4-0.4-0.4C7.613,0.16,6.732,0.321,5.851,0.721C3.365,1.924,1.682,4.406,1.682,7.212
					v1.043L0.32,10.818c-0.24,0.4-0.24,0.881,0,1.203c0.24,0.32,0.641,0.559,1.12,0.559h0.241v2.168
					C1.521,15.786,2.323,16.589,3.365,16.589L3.365,16.589z"/>
			</g>
		</g>
	</g>
	<path id="XMLID_5_" d="M12.181,10.338c0.081,0,0.081,0,0.161,0c0.079,0,0.158,0,0.24-0.081l2.243-2.165h4.169
		c0.88,0,1.682-0.721,1.682-1.682V1.683C20.676,0.802,19.953,0,18.994,0H11.3c-0.882,0-1.683,0.721-1.683,1.683V6.41
		c0,0.883,0.719,1.682,1.683,1.682h0.639v1.846C11.938,10.096,12.021,10.257,12.181,10.338L12.181,10.338z M11.3,7.374
		c-0.483,0-0.882-0.403-0.882-0.883V1.762c0-0.48,0.399-0.881,0.882-0.881h7.694c0.479,0,0.88,0.4,0.88,0.881v4.729
		c0,0.479-0.4,0.883-0.88,0.883h-4.33c-0.079,0-0.16,0-0.237,0.08l-1.685,1.601V7.691c0-0.237-0.16-0.398-0.4-0.398H11.3V7.374z"/>
	<path id="XMLID_4_" d="M15.144,4.647c0.081,0,0.163-0.08,0.24-0.08c0.083-0.08,0.083-0.16,0.083-0.238
		c0-0.08-0.083-0.161-0.083-0.242c-0.077-0.078-0.159-0.078-0.24-0.078c-0.08,0-0.159,0.078-0.239,0.078
		c-0.08,0.081-0.08,0.162-0.08,0.242c0,0.078,0.08,0.158,0.08,0.238C14.985,4.647,15.064,4.647,15.144,4.647L15.144,4.647z"/>
	<path id="XMLID_3_" d="M16.589,4.647c0.08,0,0.16-0.08,0.24-0.08c0.081-0.08,0.081-0.16,0.081-0.238
		c0-0.08-0.081-0.161-0.081-0.242c-0.08-0.078-0.16-0.078-0.24-0.078c-0.08,0-0.16,0.078-0.24,0.078
		c-0.083,0.081-0.083,0.162-0.083,0.242c0,0.078,0.083,0.158,0.083,0.238C16.429,4.647,16.509,4.647,16.589,4.647L16.589,4.647z"/>
	<path id="XMLID_2_" d="M13.705,4.647c0.078,0,0.159-0.08,0.238-0.08c0.08-0.08,0.08-0.16,0.08-0.238c0-0.08-0.08-0.161-0.08-0.242
		c-0.079-0.078-0.16-0.078-0.238-0.078c-0.082,0-0.162,0.078-0.242,0.078c-0.08,0.081-0.08,0.162-0.08,0.242
		c0,0.078,0.08,0.158,0.08,0.238C13.543,4.647,13.623,4.647,13.705,4.647L13.705,4.647z"/>
</g>
<g>
	<path class="st2" d="M33.962,14.173h-5.764l-1.193,4.24h-1.701l5.332-18.205h0.863l5.357,18.205h-1.688L33.962,14.173z
		 M28.643,12.611h4.888L31.131,4.22l-0.051-0.673L31.03,4.22L28.643,12.611z"/>
	<path class="st2" d="M45.794,18.413V8.892c0-0.313-0.059-0.607-0.178-0.883c-0.119-0.274-0.279-0.514-0.482-0.717
		s-0.442-0.363-0.717-0.482s-0.569-0.178-0.882-0.178h-1.041c-0.313,0-0.607,0.059-0.882,0.178s-0.514,0.279-0.717,0.482
		s-0.364,0.442-0.482,0.717c-0.119,0.275-0.178,0.57-0.178,0.883v9.521h-1.562v-13h0.521l0.851,1.32
		c0.355-0.482,0.802-0.865,1.339-1.148c0.538-0.284,1.124-0.426,1.758-0.426h0.394c0.525,0,1.02,0.1,1.485,0.299
		c0.465,0.198,0.872,0.471,1.219,0.818s0.62,0.754,0.819,1.219s0.298,0.961,0.298,1.485v9.433H45.794z"/>
	<path class="st2" d="M58.642,18.413l-0.863-1.295c-0.355,0.465-0.8,0.84-1.333,1.123c-0.533,0.284-1.117,0.426-1.752,0.426H54.3
		c-0.525,0-1.02-0.1-1.485-0.299c-0.465-0.198-0.872-0.471-1.219-0.818s-0.62-0.754-0.819-1.219s-0.298-0.961-0.298-1.485v-0.127
		c0-0.524,0.1-1.021,0.298-1.485s0.472-0.871,0.819-1.219s0.753-0.62,1.219-0.818c0.465-0.199,0.96-0.299,1.485-0.299h3.301V8.892
		c0-0.313-0.059-0.607-0.178-0.883c-0.119-0.274-0.279-0.514-0.482-0.717s-0.442-0.363-0.717-0.482s-0.569-0.178-0.882-0.178h-0.914
		c-0.313,0-0.607,0.059-0.882,0.178s-0.514,0.279-0.717,0.482s-0.364,0.442-0.482,0.717c-0.119,0.275-0.178,0.57-0.178,0.883v0.47
		l-1.562-0.254V8.98c0-0.524,0.1-1.021,0.298-1.485s0.472-0.871,0.819-1.219s0.753-0.62,1.219-0.818
		c0.465-0.199,0.96-0.299,1.485-0.299h0.914c0.525,0,1.02,0.1,1.485,0.299c0.465,0.198,0.872,0.471,1.219,0.818
		s0.62,0.754,0.819,1.219s0.298,0.961,0.298,1.485v9.433H58.642z M57.601,12.116H54.3c-0.313,0-0.607,0.059-0.882,0.178
		s-0.514,0.281-0.717,0.488c-0.203,0.208-0.364,0.449-0.482,0.725c-0.119,0.274-0.178,0.568-0.178,0.882v0.546
		c0,0.313,0.059,0.607,0.178,0.883c0.119,0.274,0.279,0.514,0.482,0.717s0.442,0.363,0.717,0.482s0.569,0.178,0.882,0.178h1.041
		c0.313,0,0.607-0.059,0.882-0.178s0.514-0.279,0.717-0.482s0.364-0.442,0.482-0.717c0.119-0.275,0.178-0.57,0.178-0.883V12.116z
		 M54.173,3.331h-1.168l2.069-3.123h2.603L54.173,3.331z"/>
	<path class="st2" d="M62.806,18.413V0.208h1.562v18.205H62.806z"/>
	<path class="st2" d="M68.405,2.29V0.208h1.815V2.29H68.405z M68.532,18.413v-13h1.562v13H68.532z"/>
	<path class="st2" d="M82.674,15.112c0,0.525-0.106,1.005-0.317,1.441c-0.211,0.436-0.5,0.811-0.863,1.123s-0.785,0.557-1.263,0.73
		c-0.478,0.173-0.979,0.26-1.504,0.26h-1.041c-0.525,0-1.026-0.1-1.504-0.299c-0.478-0.198-0.897-0.471-1.257-0.818
		s-0.647-0.754-0.863-1.219s-0.324-0.961-0.324-1.485v-0.521l1.562-0.254v0.863c0,0.313,0.065,0.607,0.197,0.883
		c0.131,0.274,0.307,0.514,0.527,0.717s0.474,0.363,0.762,0.482s0.588,0.178,0.901,0.178h1.041c0.313,0,0.614-0.047,0.901-0.14
		s0.544-0.227,0.768-0.399c0.224-0.174,0.402-0.383,0.533-0.629s0.197-0.525,0.197-0.838c0-0.465-0.102-0.846-0.305-1.143
		s-0.472-0.544-0.806-0.742c-0.334-0.199-0.715-0.364-1.143-0.496c-0.427-0.131-0.865-0.262-1.314-0.393
		c-0.449-0.132-0.887-0.281-1.314-0.451s-0.808-0.392-1.143-0.666c-0.334-0.275-0.603-0.621-0.806-1.035s-0.305-0.932-0.305-1.549
		c0-0.525,0.102-1.005,0.305-1.441c0.203-0.436,0.478-0.811,0.825-1.123s0.751-0.557,1.212-0.73c0.461-0.173,0.954-0.26,1.479-0.26
		h0.914c0.525,0,1.02,0.1,1.485,0.299c0.465,0.198,0.872,0.471,1.219,0.818s0.62,0.754,0.819,1.219s0.298,0.961,0.298,1.485v0.051
		l-1.562,0.254V8.892c0-0.313-0.059-0.607-0.178-0.883c-0.119-0.274-0.279-0.514-0.482-0.717s-0.442-0.363-0.717-0.482
		s-0.569-0.178-0.882-0.178h-0.914c-0.313,0-0.607,0.047-0.882,0.14s-0.514,0.227-0.717,0.399C76.009,7.345,75.849,7.554,75.73,7.8
		s-0.178,0.525-0.178,0.838c0,0.449,0.102,0.814,0.305,1.098c0.203,0.284,0.472,0.523,0.806,0.718s0.715,0.357,1.143,0.489
		c0.427,0.131,0.863,0.266,1.308,0.406c0.444,0.139,0.88,0.298,1.308,0.476s0.808,0.406,1.143,0.686s0.603,0.628,0.806,1.048
		C82.573,13.976,82.674,14.495,82.674,15.112z"/>
	<path class="st2" d="M86.064,2.29V0.208h1.815V2.29H86.064z M86.191,18.413v-13h1.562v13H86.191z"/>
	<path class="st2" d="M100.333,15.112c0,0.525-0.106,1.005-0.317,1.441c-0.211,0.436-0.5,0.811-0.863,1.123s-0.785,0.557-1.263,0.73
		c-0.478,0.173-0.979,0.26-1.504,0.26h-1.041c-0.525,0-1.026-0.1-1.504-0.299c-0.478-0.198-0.897-0.471-1.257-0.818
		s-0.647-0.754-0.863-1.219s-0.324-0.961-0.324-1.485v-0.521l1.562-0.254v0.863c0,0.313,0.065,0.607,0.197,0.883
		c0.131,0.274,0.307,0.514,0.527,0.717s0.474,0.363,0.762,0.482s0.588,0.178,0.901,0.178h1.041c0.313,0,0.614-0.047,0.901-0.14
		s0.544-0.227,0.768-0.399c0.224-0.174,0.402-0.383,0.533-0.629s0.197-0.525,0.197-0.838c0-0.465-0.102-0.846-0.305-1.143
		s-0.472-0.544-0.806-0.742c-0.334-0.199-0.715-0.364-1.143-0.496c-0.427-0.131-0.865-0.262-1.314-0.393
		c-0.449-0.132-0.887-0.281-1.314-0.451s-0.808-0.392-1.143-0.666c-0.334-0.275-0.603-0.621-0.806-1.035S91.65,9.331,91.65,8.714
		c0-0.525,0.102-1.005,0.305-1.441c0.203-0.436,0.478-0.811,0.825-1.123s0.751-0.557,1.212-0.73c0.461-0.173,0.954-0.26,1.479-0.26
		h0.914c0.525,0,1.02,0.1,1.485,0.299c0.465,0.198,0.872,0.471,1.219,0.818s0.62,0.754,0.819,1.219s0.298,0.961,0.298,1.485v0.051
		l-1.562,0.254V8.892c0-0.313-0.059-0.607-0.178-0.883c-0.119-0.274-0.279-0.514-0.482-0.717s-0.442-0.363-0.717-0.482
		s-0.569-0.178-0.882-0.178h-0.914c-0.313,0-0.607,0.047-0.882,0.14s-0.514,0.227-0.717,0.399c-0.203,0.174-0.364,0.383-0.482,0.629
		s-0.178,0.525-0.178,0.838c0,0.449,0.102,0.814,0.305,1.098c0.203,0.284,0.472,0.523,0.806,0.718s0.715,0.357,1.143,0.489
		c0.427,0.131,0.863,0.266,1.308,0.406c0.444,0.139,0.88,0.298,1.308,0.476s0.808,0.406,1.143,0.686s0.603,0.628,0.806,1.048
		C100.232,13.976,100.333,14.495,100.333,15.112z"/>
	<path class="st2" d="M117.472,18.413l-0.863-1.32c-0.355,0.482-0.8,0.865-1.333,1.148c-0.533,0.284-1.117,0.426-1.752,0.426h-0.394
		c-0.525,0-1.02-0.1-1.485-0.299c-0.465-0.198-0.872-0.471-1.219-0.818s-0.62-0.754-0.819-1.219s-0.298-0.961-0.298-1.485V8.98
		c0-0.524,0.1-1.021,0.298-1.485s0.472-0.871,0.819-1.219s0.753-0.62,1.219-0.818c0.465-0.199,0.96-0.299,1.485-0.299h0.394
		c0.584,0,1.125,0.119,1.625,0.355s0.927,0.566,1.282,0.99V0.208h1.562v18.205H117.472z M116.431,8.892
		c0-0.313-0.059-0.607-0.178-0.883c-0.119-0.274-0.279-0.514-0.482-0.717s-0.442-0.363-0.717-0.482s-0.569-0.178-0.882-0.178h-1.041
		c-0.313,0-0.607,0.059-0.882,0.178s-0.514,0.279-0.717,0.482s-0.364,0.442-0.482,0.717c-0.119,0.275-0.178,0.57-0.178,0.883v6.043
		c0,0.313,0.059,0.607,0.178,0.883c0.119,0.274,0.279,0.514,0.482,0.717s0.442,0.363,0.717,0.482s0.569,0.178,0.882,0.178h1.041
		c0.313,0,0.607-0.059,0.882-0.178s0.514-0.279,0.717-0.482s0.364-0.442,0.482-0.717c0.119-0.275,0.178-0.57,0.178-0.883V8.892z"/>
	<path class="st2" d="M129.501,16.331c-0.199,0.465-0.472,0.871-0.819,1.219s-0.753,0.62-1.219,0.818
		c-0.465,0.199-0.96,0.299-1.485,0.299h-1.041c-0.525,0-1.02-0.1-1.485-0.299c-0.465-0.198-0.872-0.471-1.219-0.818
		s-0.62-0.754-0.819-1.219s-0.298-0.961-0.298-1.485V8.98c0-0.524,0.1-1.021,0.298-1.485s0.472-0.871,0.819-1.219
		s0.753-0.62,1.219-0.818c0.465-0.199,0.96-0.299,1.485-0.299h1.041c0.525,0,1.02,0.1,1.485,0.299
		c0.465,0.198,0.872,0.471,1.219,0.818s0.62,0.754,0.819,1.219s0.298,0.961,0.298,1.485v3.06h-7.122v2.895
		c0,0.313,0.059,0.607,0.178,0.883c0.119,0.274,0.279,0.514,0.482,0.717s0.442,0.363,0.717,0.482s0.569,0.178,0.882,0.178h1.041
		c0.313,0,0.607-0.059,0.882-0.178s0.514-0.279,0.717-0.482s0.364-0.442,0.482-0.717c0.119-0.275,0.178-0.57,0.178-0.883v-0.863
		l1.562,0.254v0.521C129.799,15.37,129.7,15.866,129.501,16.331z M128.238,8.892c0-0.313-0.059-0.607-0.178-0.883
		c-0.119-0.274-0.279-0.514-0.482-0.717s-0.442-0.363-0.717-0.482s-0.569-0.178-0.882-0.178h-1.041
		c-0.313,0-0.607,0.059-0.882,0.178s-0.514,0.279-0.717,0.482s-0.364,0.442-0.482,0.717c-0.119,0.275-0.178,0.57-0.178,0.883v1.93
		h5.561V8.892z"/>
	<path class="st2" d="M147.287,16.331c-0.199,0.465-0.472,0.871-0.819,1.219s-0.753,0.62-1.219,0.818
		c-0.465,0.199-0.96,0.299-1.485,0.299h-1.041c-0.525,0-1.02-0.1-1.485-0.299c-0.465-0.198-0.872-0.471-1.219-0.818
		s-0.62-0.754-0.819-1.219s-0.298-0.961-0.298-1.485V8.98c0-0.524,0.1-1.021,0.298-1.485s0.472-0.871,0.819-1.219
		s0.753-0.62,1.219-0.818c0.465-0.199,0.96-0.299,1.485-0.299h1.041c0.525,0,1.02,0.1,1.485,0.299
		c0.465,0.198,0.872,0.471,1.219,0.818s0.62,0.754,0.819,1.219s0.298,0.961,0.298,1.485v5.865
		C147.585,15.37,147.486,15.866,147.287,16.331z M146.024,8.892c0-0.313-0.059-0.607-0.178-0.883
		c-0.119-0.274-0.279-0.514-0.482-0.717s-0.442-0.363-0.717-0.482s-0.569-0.178-0.882-0.178h-1.041
		c-0.313,0-0.607,0.059-0.882,0.178s-0.514,0.279-0.717,0.482s-0.364,0.442-0.482,0.717c-0.119,0.275-0.178,0.57-0.178,0.883v6.043
		c0,0.313,0.059,0.607,0.178,0.883c0.119,0.274,0.279,0.514,0.482,0.717s0.442,0.363,0.717,0.482s0.569,0.178,0.882,0.178h1.041
		c0.313,0,0.607-0.059,0.882-0.178s0.514-0.279,0.717-0.482s0.364-0.442,0.482-0.717c0.119-0.275,0.178-0.57,0.178-0.883V8.892z"/>
	<path class="st2" d="M159.094,16.331c-0.199,0.465-0.472,0.871-0.819,1.219s-0.753,0.62-1.219,0.818
		c-0.465,0.199-0.96,0.299-1.485,0.299h-1.041c-0.525,0-1.02-0.1-1.485-0.299c-0.465-0.198-0.872-0.471-1.219-0.818
		s-0.62-0.754-0.819-1.219s-0.298-0.961-0.298-1.485V0.208h1.562v6.297c0.355-0.424,0.783-0.754,1.282-0.99s1.041-0.355,1.625-0.355
		h0.394c0.525,0,1.02,0.1,1.485,0.299c0.465,0.198,0.872,0.471,1.219,0.818s0.62,0.754,0.819,1.219s0.298,0.961,0.298,1.485v5.865
		C159.392,15.37,159.292,15.866,159.094,16.331z M157.831,8.892c0-0.313-0.059-0.607-0.178-0.883
		c-0.119-0.274-0.279-0.514-0.482-0.717s-0.442-0.363-0.717-0.482s-0.569-0.178-0.882-0.178h-1.041
		c-0.313,0-0.607,0.059-0.882,0.178s-0.514,0.279-0.717,0.482s-0.364,0.442-0.482,0.717c-0.119,0.275-0.178,0.57-0.178,0.883v6.043
		c0,0.313,0.059,0.607,0.178,0.883c0.119,0.274,0.279,0.514,0.482,0.717s0.442,0.363,0.717,0.482s0.569,0.178,0.882,0.178h1.041
		c0.313,0,0.607-0.059,0.882-0.178s0.514-0.279,0.717-0.482s0.364-0.442,0.482-0.717c0.119-0.275,0.178-0.57,0.178-0.883V8.892z"/>
	<path class="st2" d="M164.299,21.276c-0.199,0.461-0.472,0.865-0.819,1.212s-0.753,0.622-1.219,0.825s-0.96,0.305-1.485,0.305
		v-1.485c0.313,0,0.607-0.06,0.882-0.178s0.514-0.279,0.717-0.482s0.364-0.442,0.482-0.718c0.119-0.274,0.178-0.568,0.178-0.882
		V5.413h1.562v14.384C164.597,20.321,164.498,20.814,164.299,21.276z M162.909,2.29V0.208h1.815V2.29H162.909z"/>
	<path class="st2" d="M176.626,16.331c-0.199,0.465-0.472,0.871-0.819,1.219s-0.753,0.62-1.219,0.818
		c-0.465,0.199-0.96,0.299-1.485,0.299h-1.041c-0.525,0-1.02-0.1-1.485-0.299c-0.465-0.198-0.872-0.471-1.219-0.818
		s-0.62-0.754-0.819-1.219s-0.298-0.961-0.298-1.485V8.98c0-0.524,0.1-1.021,0.298-1.485s0.472-0.871,0.819-1.219
		s0.753-0.62,1.219-0.818c0.465-0.199,0.96-0.299,1.485-0.299h1.041c0.525,0,1.02,0.1,1.485,0.299
		c0.465,0.198,0.872,0.471,1.219,0.818s0.62,0.754,0.819,1.219s0.298,0.961,0.298,1.485v3.06h-7.122v2.895
		c0,0.313,0.059,0.607,0.178,0.883c0.119,0.274,0.279,0.514,0.482,0.717s0.442,0.363,0.717,0.482s0.569,0.178,0.882,0.178h1.041
		c0.313,0,0.607-0.059,0.882-0.178s0.514-0.279,0.717-0.482s0.364-0.442,0.482-0.717c0.119-0.275,0.178-0.57,0.178-0.883v-0.863
		l1.562,0.254v0.521C176.924,15.37,176.825,15.866,176.626,16.331z M175.363,8.892c0-0.313-0.059-0.607-0.178-0.883
		c-0.119-0.274-0.279-0.514-0.482-0.717s-0.442-0.363-0.717-0.482s-0.569-0.178-0.882-0.178h-1.041
		c-0.313,0-0.607,0.059-0.882,0.178s-0.514,0.279-0.717,0.482s-0.364,0.442-0.482,0.717c-0.119,0.275-0.178,0.57-0.178,0.883v1.93
		h5.561V8.892z"/>
	<path class="st2" d="M184.783,18.413c-0.474,0-0.92-0.089-1.339-0.267s-0.783-0.423-1.092-0.736s-0.554-0.677-0.736-1.092
		s-0.273-0.858-0.273-1.333V6.898h-2.336V5.413h2.336V2.29l1.562-0.254v3.377h3.301v1.485h-3.301v8.163
		c0,0.262,0.049,0.506,0.146,0.73c0.097,0.224,0.23,0.42,0.4,0.59s0.368,0.303,0.597,0.4c0.229,0.097,0.474,0.146,0.736,0.146h1.422
		v1.485H184.783z"/>
	<path class="st2" d="M189.467,2.29V0.208h1.815V2.29H189.467z M189.594,18.413v-13h1.562v13H189.594z"/>
	<path class="st2" d="M198.874,18.413H198.1l-4.608-13h1.562l3.39,9.852l0.051,0.673l0.051-0.673l3.377-9.852h1.562L198.874,18.413z
		"/>
	<path class="st2" d="M213.684,16.331c-0.199,0.465-0.472,0.871-0.819,1.219s-0.753,0.62-1.219,0.818
		c-0.465,0.199-0.96,0.299-1.485,0.299h-1.041c-0.525,0-1.02-0.1-1.485-0.299c-0.465-0.198-0.872-0.471-1.219-0.818
		s-0.62-0.754-0.819-1.219s-0.298-0.961-0.298-1.485V8.98c0-0.524,0.1-1.021,0.298-1.485s0.472-0.871,0.819-1.219
		s0.753-0.62,1.219-0.818c0.465-0.199,0.96-0.299,1.485-0.299h1.041c0.525,0,1.02,0.1,1.485,0.299
		c0.465,0.198,0.872,0.471,1.219,0.818s0.62,0.754,0.819,1.219s0.298,0.961,0.298,1.485v5.865
		C213.982,15.37,213.882,15.866,213.684,16.331z M212.42,8.892c0-0.313-0.059-0.607-0.178-0.883
		c-0.119-0.274-0.279-0.514-0.482-0.717s-0.442-0.363-0.717-0.482s-0.569-0.178-0.882-0.178h-1.041
		c-0.313,0-0.607,0.059-0.882,0.178s-0.514,0.279-0.717,0.482s-0.364,0.442-0.482,0.717c-0.119,0.275-0.178,0.57-0.178,0.883v6.043
		c0,0.313,0.059,0.607,0.178,0.883c0.119,0.274,0.279,0.514,0.482,0.717s0.442,0.363,0.717,0.482s0.569,0.178,0.882,0.178h1.041
		c0.313,0,0.607-0.059,0.882-0.178s0.514-0.279,0.717-0.482s0.364-0.442,0.482-0.717c0.119-0.275,0.178-0.57,0.178-0.883V8.892z"/>
	<path class="st2" d="M226.042,15.112c0,0.525-0.106,1.005-0.317,1.441c-0.211,0.436-0.5,0.811-0.863,1.123s-0.785,0.557-1.263,0.73
		c-0.478,0.173-0.979,0.26-1.504,0.26h-1.041c-0.525,0-1.026-0.1-1.504-0.299c-0.478-0.198-0.897-0.471-1.257-0.818
		s-0.647-0.754-0.863-1.219s-0.324-0.961-0.324-1.485v-0.521l1.562-0.254v0.863c0,0.313,0.065,0.607,0.197,0.883
		c0.131,0.274,0.307,0.514,0.527,0.717s0.474,0.363,0.762,0.482s0.588,0.178,0.901,0.178h1.041c0.313,0,0.614-0.047,0.901-0.14
		s0.544-0.227,0.768-0.399c0.224-0.174,0.402-0.383,0.533-0.629s0.197-0.525,0.197-0.838c0-0.465-0.102-0.846-0.305-1.143
		s-0.472-0.544-0.806-0.742c-0.334-0.199-0.715-0.364-1.143-0.496c-0.427-0.131-0.865-0.262-1.314-0.393
		c-0.449-0.132-0.887-0.281-1.314-0.451s-0.808-0.392-1.143-0.666c-0.334-0.275-0.603-0.621-0.806-1.035s-0.305-0.932-0.305-1.549
		c0-0.525,0.102-1.005,0.305-1.441c0.203-0.436,0.478-0.811,0.825-1.123s0.751-0.557,1.212-0.73c0.461-0.173,0.954-0.26,1.479-0.26
		h0.914c0.525,0,1.02,0.1,1.485,0.299c0.465,0.198,0.872,0.471,1.219,0.818s0.62,0.754,0.819,1.219s0.298,0.961,0.298,1.485v0.051
		l-1.562,0.254V8.892c0-0.313-0.059-0.607-0.178-0.883c-0.119-0.274-0.279-0.514-0.482-0.717s-0.442-0.363-0.717-0.482
		s-0.569-0.178-0.882-0.178h-0.914c-0.313,0-0.607,0.047-0.882,0.14s-0.514,0.227-0.717,0.399c-0.203,0.174-0.364,0.383-0.482,0.629
		s-0.178,0.525-0.178,0.838c0,0.449,0.102,0.814,0.305,1.098c0.203,0.284,0.472,0.523,0.806,0.718s0.715,0.357,1.143,0.489
		c0.427,0.131,0.863,0.266,1.308,0.406c0.444,0.139,0.88,0.298,1.308,0.476s0.808,0.406,1.143,0.686s0.603,0.628,0.806,1.048
		C225.941,13.976,226.042,14.495,226.042,15.112z"/>
</g>
</svg>