<!-- Generator: Adobe Illustrator 17.0.0, SVG Export Plug-In  -->
<svg version="1.1"
	 xmlns="http://www.w3.org/2000/svg" xmlns:xlink="http://www.w3.org/1999/xlink" xmlns:a="http://ns.adobe.com/AdobeSVGViewerExtensions/3.0/"
	 x="0px" y="0px" width="356.453px" height="230.521px" viewBox="0 0 356.453 230.521"
	 style="enable-background:new 0 0 356.453 230.521;" xml:space="preserve">
<style type="text/css">
	.st0{fill:#FFFFFF;}
	.st1{fill:none;stroke:#000000;stroke-width:1.714;stroke-miterlimit:10;}
	.st2{fill:none;stroke:#231F20;stroke-width:3;stroke-linejoin:round;stroke-miterlimit:10;}
	.st3{fill-rule:evenodd;clip-rule:evenodd;fill:#144B8B;stroke:#000000;stroke-miterlimit:10;}
	.st4{fill:#2F363E;}
	.st5{fill-rule:evenodd;clip-rule:evenodd;fill:url(#SVGID_1_);stroke:#000000;stroke-miterlimit:10;}
	.st6{fill-rule:evenodd;clip-rule:evenodd;fill:#DDE4E8;}
	.st7{fill:url(#SVGID_2_);}
	.st8{fill:#FCFAFB;}
	.st9{fill:#144B8B;}
	.st10{fill:#D5D5D5;}
	.st11{fill:#DDE4E8;}
	.st12{fill:none;stroke:#000000;stroke-width:3;stroke-miterlimit:10;}
	.st13{fill-rule:evenodd;clip-rule:evenodd;fill:url(#SVGID_3_);stroke:#000000;stroke-miterlimit:10;}
	.st14{fill:url(#SVGID_4_);}
</style>
<defs>
</defs>
<g>
	<path class="st0" d="M23.479,224.918c0,2.621,2.127,4.746,4.749,4.746h12.139c3.541,0,6.406-2.869,6.406-6.406l0.014-6.49h9.493
		c2.002,0,3.707-1.557,3.78-3.564c0.075-2.096-1.607-3.826-3.694-3.826H39.784l2.02-0.969c1.102-0.527,1.727-1.523,1.727-2.551
		c0-0.477-0.133-0.955-0.407-1.396c-0.884-1.41-2.903-1.93-4.514-1.154c0,0-7.485,3.199-12.387,5.484
		c-1.674,0.773-2.743,2.451-2.743,4.299V224.918z"/>
	<path class="st1" d="M23.479,224.918c0,2.621,2.127,4.746,4.749,4.746h12.139c3.541,0,6.406-2.869,6.406-6.406l0.014-6.49h9.493
		c2.002,0,3.707-1.557,3.78-3.564c0.075-2.096-1.607-3.826-3.694-3.826H39.784l2.02-0.969c1.102-0.527,1.727-1.523,1.727-2.551
		c0-0.477-0.133-0.955-0.407-1.396c-0.884-1.41-2.903-1.93-4.514-1.154c0,0-7.485,3.199-12.387,5.484
		c-1.674,0.773-2.743,2.451-2.743,4.299V224.918z"/>
</g>
<g>
	<path class="st0" d="M328.424,224.918c0,2.621-2.127,4.746-4.749,4.746h-12.139c-3.541,0-6.406-2.869-6.406-6.406l-0.014-6.49
		h-9.493c-2.002,0-3.707-1.557-3.78-3.564c-0.075-2.096,1.607-3.826,3.694-3.826h16.582l-2.02-0.969
		c-1.102-0.527-1.727-1.523-1.727-2.551c0-0.477,0.133-0.955,0.407-1.396c0.884-1.41,2.903-1.93,4.514-1.154
		c0,0,7.485,3.199,12.387,5.484c1.674,0.773,2.743,2.451,2.743,4.299V224.918z"/>
	<path class="st1" d="M328.424,224.918c0,2.621-2.127,4.746-4.749,4.746h-12.139c-3.541,0-6.406-2.869-6.406-6.406l-0.014-6.49
		h-9.493c-2.002,0-3.707-1.557-3.78-3.564c-0.075-2.096,1.607-3.826,3.694-3.826h16.582l-2.02-0.969
		c-1.102-0.527-1.727-1.523-1.727-2.551c0-0.477,0.133-0.955,0.407-1.396c0.884-1.41,2.903-1.93,4.514-1.154
		c0,0,7.485,3.199,12.387,5.484c1.674,0.773,2.743,2.451,2.743,4.299V224.918z"/>
</g>
<g>
	<g>
		<rect x="315.152" y="33.012" width="41.301" height="2.044"/>
		<rect x="262.232" y="33.012" width="41.304" height="2.044"/>
		<rect x="250.618" y="33.012" width="3.871" height="2.044"/>
	</g>
	<g>
		<rect x="1.782" y="54.001" width="41.301" height="2.044"/>
		<rect x="54.699" y="54.001" width="41.304" height="2.044"/>
		<rect x="103.746" y="54.001" width="3.871" height="2.044"/>
	</g>
	<g>
		<rect x="257.206" y="159.601" width="83.854" height="2.066"/>
		<rect x="257.206" y="152.981" width="55.165" height="2.068"/>
	</g>
	<g>
		<rect x="13.942" y="159.69" width="83.854" height="2.066"/>
		<rect x="42.632" y="153.071" width="55.165" height="2.068"/>
	</g>
	<g>
		<line class="st2" x1="306.033" y1="118.882" x2="333.09" y2="118.882"/>
		<line class="st2" x1="309.215" y1="105.356" x2="346.617" y2="105.356"/>
		<line class="st2" x1="307.625" y1="90.235" x2="322.744" y2="90.235"/>
	</g>
	<g>
		<line class="st2" x1="40.584" y1="118.882" x2="13.527" y2="118.882"/>
		<line class="st2" x1="37.402" y1="105.356" x2="0" y2="105.356"/>
		<line class="st2" x1="38.992" y1="90.235" x2="23.873" y2="90.235"/>
	</g>
	<g>
		<g>
			<path d="M271.093,116.838l-0.778-0.217c0.183-0.543,0.363-1.09,0.535-1.64l0.779,0.201
				C271.456,115.734,271.275,116.291,271.093,116.838z"/>
			<path d="M79.906,114.193c-0.163-0.549-0.325-1.112-0.481-1.67l0.787-0.18c0.154,0.554,0.315,1.111,0.478,1.654L79.906,114.193z"
				/>
			<path d="M272.337,112.805l-0.785-0.184c0.154-0.545,0.305-1.105,0.449-1.661l0.788,0.167
				C272.646,111.69,272.492,112.254,272.337,112.805z"/>
			<path d="M78.8,110.126c-0.138-0.563-0.272-1.13-0.397-1.689l0.796-0.147c0.125,0.561,0.256,1.121,0.394,1.676L78.8,110.126z"/>
			<path d="M273.374,108.723l-0.793-0.152c0.125-0.547,0.247-1.111,0.363-1.678l0.799,0.135
				C273.624,107.598,273.5,108.168,273.374,108.723z"/>
			<path d="M77.9,106.016c-0.112-0.572-0.215-1.145-0.31-1.703l0.802-0.111c0.095,0.553,0.197,1.12,0.306,1.688L77.9,106.016z"/>
			<path d="M274.203,104.598l-0.802-0.113c0.099-0.563,0.19-1.127,0.277-1.693l0.805,0.101
				C274.394,103.463,274.303,104.029,274.203,104.598z"/>
			<path d="M77.212,101.871c-0.08-0.568-0.154-1.146-0.221-1.713l0.805-0.078c0.066,0.562,0.142,1.133,0.219,1.699L77.212,101.871z"
				/>
			<path d="M274.817,100.445l-0.805-0.08c0.067-0.56,0.131-1.133,0.19-1.703l0.807,0.066
				C274.95,99.305,274.887,99.882,274.817,100.445z"/>
			<path d="M76.735,97.706c-0.051-0.573-0.095-1.147-0.133-1.723l0.808-0.045c0.039,0.57,0.083,1.14,0.134,1.706L76.735,97.706z"/>
			<path d="M275.223,96.272l-0.81-0.048c0.04-0.559,0.074-1.137,0.103-1.708l0.81,0.035
				C275.296,95.125,275.263,95.707,275.223,96.272z"/>
			<path d="M76.471,93.523c-0.021-0.575-0.038-1.149-0.048-1.723l0.813-0.014c0.01,0.571,0.024,1.141,0.047,1.709L76.471,93.523z"/>
			<path d="M275.412,92.086l-0.812-0.014c0.014-0.57,0.021-1.141,0.021-1.713h0.81C275.431,90.938,275.425,91.513,275.412,92.086z"
				/>
			<path d="M274.618,89.946c-0.004-0.569-0.012-1.143-0.027-1.71l0.813-0.016c0.015,0.57,0.024,1.148,0.026,1.724L274.618,89.946z"
				/>
			<path d="M77.23,89.344l-0.814-0.008c0.009-0.578,0.022-1.152,0.042-1.725l0.809,0.021C77.249,88.201,77.237,88.771,77.23,89.344z
				"/>
			<path d="M274.494,85.793c-0.033-0.571-0.071-1.14-0.113-1.709l0.81-0.049c0.043,0.571,0.08,1.145,0.113,1.722L274.494,85.793z"/>
			<path d="M77.384,85.191l-0.808-0.042c0.034-0.579,0.077-1.159,0.124-1.722l0.809,0.055
				C77.462,84.043,77.419,84.618,77.384,85.191z"/>
			<path d="M274.159,81.65c-0.062-0.57-0.127-1.137-0.198-1.703l0.806-0.086c0.071,0.572,0.14,1.143,0.199,1.717L274.159,81.65z"/>
			<path d="M77.749,81.046l-0.806-0.074c0.063-0.573,0.135-1.146,0.212-1.716l0.805,0.092
				C77.885,79.912,77.813,80.479,77.749,81.046z"/>
			<path d="M273.612,77.523c-0.086-0.563-0.182-1.129-0.283-1.693l0.802-0.117c0.101,0.566,0.198,1.141,0.288,1.705L273.612,77.523z
				"/>
			<path d="M78.323,76.924l-0.802-0.109c0.095-0.57,0.197-1.138,0.302-1.703l0.799,0.123C78.517,75.797,78.417,76.359,78.323,76.924
				z"/>
			<path d="M272.86,73.424c-0.12-0.561-0.242-1.121-0.371-1.679l0.792-0.153c0.132,0.565,0.256,1.127,0.376,1.694L272.86,73.424z"/>
			<path d="M79.109,72.828l-0.797-0.142c0.124-0.567,0.255-1.136,0.39-1.69l0.791,0.16C79.36,71.703,79.232,72.269,79.109,72.828z"
				/>
			<path d="M271.897,69.361c-0.148-0.556-0.301-1.109-0.458-1.66l0.783-0.186c0.16,0.558,0.313,1.115,0.462,1.674L271.897,69.361z"
				/>
			<path d="M80.104,68.775l-0.787-0.178c0.15-0.557,0.311-1.119,0.474-1.672l0.784,0.191C80.413,67.665,80.255,68.223,80.104,68.775
				z"/>
			<path d="M270.725,65.345c-0.175-0.542-0.357-1.095-0.543-1.639l0.774-0.219c0.189,0.55,0.371,1.104,0.547,1.651L270.725,65.345z"
				/>
			<path d="M81.306,64.764l-0.776-0.211c0.179-0.551,0.368-1.105,0.56-1.647l0.771,0.222C81.672,63.664,81.485,64.215,81.306,64.764
				z"/>
			<path d="M269.347,61.381c-0.203-0.539-0.414-1.08-0.626-1.611l0.762-0.254c0.214,0.539,0.428,1.084,0.632,1.629L269.347,61.381z"
				/>
			<path d="M82.716,60.803L81.95,60.56c0.21-0.543,0.426-1.093,0.646-1.628l0.761,0.254C83.138,59.719,82.922,60.264,82.716,60.803z
				"/>
			<path d="M267.768,57.48c-0.227-0.519-0.464-1.051-0.706-1.58l0.748-0.281c0.246,0.532,0.483,1.068,0.711,1.592L267.768,57.48z"/>
			<path d="M84.33,56.897l-0.753-0.273c0.24-0.536,0.482-1.068,0.73-1.601l0.745,0.288C84.806,55.84,84.565,56.367,84.33,56.897z"/>
			<path d="M265.993,53.666c-0.251-0.512-0.517-1.033-0.785-1.551l0.734-0.313c0.27,0.522,0.538,1.046,0.792,1.561L265.993,53.666z"
				/>
			<path d="M86.144,53.07l-0.736-0.306c0.26-0.519,0.533-1.044,0.809-1.566l0.731,0.318C86.673,52.036,86.402,52.559,86.144,53.07z"
				/>
			<path d="M264.03,49.926c-0.284-0.508-0.573-1.012-0.865-1.514l0.715-0.346c0.295,0.504,0.588,1.015,0.872,1.527L264.03,49.926z"
				/>
			<path d="M88.151,49.326l-0.721-0.338c0.289-0.511,0.59-1.025,0.89-1.529l0.713,0.35C88.735,48.309,88.438,48.819,88.151,49.326z"
				/>
			<path d="M261.874,46.272c-0.309-0.49-0.623-0.987-0.943-1.478l0.696-0.375c0.323,0.493,0.643,0.994,0.95,1.489L261.874,46.272z"
				/>
			<path d="M90.349,45.67l-0.703-0.368c0.315-0.496,0.641-0.999,0.965-1.487l0.697,0.381C90.983,44.682,90.661,45.176,90.349,45.67z
				"/>
			<path d="M259.532,42.711c-0.335-0.479-0.674-0.961-1.016-1.436l0.676-0.405c0.348,0.481,0.692,0.968,1.026,1.449L259.532,42.711z
				"/>
			<path d="M92.728,42.115l-0.684-0.398c0.343-0.485,0.69-0.967,1.041-1.446l0.676,0.41C93.411,41.154,93.067,41.632,92.728,42.115z
				"/>
			<path d="M257.011,39.252c-0.357-0.469-0.721-0.934-1.088-1.395l0.655-0.431c0.37,0.464,0.735,0.933,1.099,1.403L257.011,39.252z"
				/>
			<path d="M95.286,38.664l-0.661-0.426c0.367-0.475,0.743-0.945,1.112-1.402l0.652,0.437
				C96.023,37.725,95.652,38.193,95.286,38.664z"/>
			<path d="M254.316,35.898c-0.381-0.451-0.769-0.901-1.158-1.347l0.634-0.458c0.39,0.443,0.783,0.898,1.169,1.357L254.316,35.898z"
				/>
			<path d="M98.018,35.323l-0.64-0.453c0.385-0.448,0.783-0.903,1.183-1.352l0.63,0.464C98.795,34.426,98.4,34.877,98.018,35.323z"
				/>
			<path d="M251.451,32.664c-0.398-0.434-0.813-0.869-1.228-1.299l0.611-0.485c0.417,0.433,0.832,0.873,1.236,1.309L251.451,32.664z
				"/>
			<path d="M100.913,32.102l-0.615-0.481c0.413-0.435,0.832-0.873,1.25-1.297l0.604,0.49
				C101.74,31.234,101.324,31.67,100.913,32.102z"/>
			<path d="M248.426,29.548c-0.428-0.421-0.861-0.839-1.292-1.247l0.585-0.51c0.434,0.41,0.871,0.833,1.303,1.256L248.426,29.548z"
				/>
			<path d="M103.97,29.008l-0.592-0.506c0.436-0.418,0.873-0.832,1.313-1.245l0.583,0.515
				C104.835,28.181,104.399,28.592,103.97,29.008z"/>
			<path d="M245.244,26.563c-0.448-0.4-0.899-0.797-1.353-1.192l0.558-0.532c0.459,0.396,0.913,0.796,1.364,1.199L245.244,26.563z"
				/>
			<path d="M107.18,26.047l-0.565-0.527c0.45-0.398,0.913-0.801,1.374-1.192l0.556,0.538
				C108.086,25.253,107.626,25.652,107.18,26.047z"/>
			<path d="M241.913,23.711c-0.461-0.377-0.938-0.758-1.411-1.132l0.529-0.558c0.48,0.376,0.957,0.762,1.424,1.143L241.913,23.711z"
				/>
			<path d="M110.535,23.222l-0.538-0.553c0.468-0.376,0.949-0.757,1.433-1.13l0.527,0.559
				C111.477,22.471,110.998,22.848,110.535,23.222z"/>
			<path d="M238.439,21.004c-0.484-0.363-0.976-0.719-1.471-1.073l0.503-0.58c0.493,0.354,0.992,0.717,1.482,1.083L238.439,21.004z"
				/>
			<path d="M114.027,20.541l-0.511-0.573c0.493-0.358,0.996-0.72,1.49-1.068l0.498,0.581
				C115.007,19.831,114.516,20.184,114.027,20.541z"/>
			<path d="M234.832,18.441c-0.503-0.338-1.013-0.678-1.524-1.008l0.471-0.602c0.514,0.335,1.032,0.677,1.537,1.021L234.832,18.441z
				"/>
			<path d="M117.652,18.012l-0.48-0.596c0.511-0.339,1.024-0.672,1.541-1.006l0.469,0.605
				C118.667,17.342,118.157,17.675,117.652,18.012z"/>
			<path d="M231.097,16.034c-0.517-0.317-1.047-0.635-1.574-0.945l0.441-0.618c0.531,0.313,1.066,0.633,1.587,0.954L231.097,16.034z
				"/>
			<path d="M121.397,15.636l-0.447-0.612c0.527-0.318,1.057-0.631,1.592-0.939l0.436,0.621
				C122.447,15.011,121.923,15.32,121.397,15.636z"/>
			<path d="M227.24,13.786c-0.538-0.298-1.077-0.592-1.619-0.878l0.408-0.638c0.549,0.29,1.096,0.59,1.634,0.888L227.24,13.786z"/>
			<path d="M125.264,13.421l-0.417-0.631c0.541-0.293,1.087-0.585,1.635-0.868l0.403,0.637
				C126.342,12.842,125.801,13.129,125.264,13.421z"/>
			<path d="M223.273,11.701c-0.553-0.274-1.106-0.545-1.664-0.809l0.376-0.656c0.563,0.271,1.12,0.543,1.678,0.818L223.273,11.701z"
				/>
			<path d="M129.232,11.374l-0.383-0.647c0.555-0.271,1.115-0.54,1.678-0.802l0.37,0.655
				C130.339,10.84,129.784,11.106,129.232,11.374z"/>
			<path d="M219.2,9.785c-0.561-0.25-1.135-0.497-1.705-0.736l0.342-0.67c0.574,0.244,1.152,0.494,1.719,0.744L219.2,9.785z"/>
			<path d="M133.3,9.497l-0.349-0.667c0.565-0.244,1.143-0.488,1.715-0.727l0.335,0.67C134.435,9.008,133.862,9.252,133.3,9.497z"/>
			<path d="M215.033,8.045c-0.572-0.226-1.159-0.447-1.742-0.666l0.308-0.683c0.589,0.222,1.181,0.446,1.756,0.672L215.033,8.045z"
				/>
			<path d="M137.459,7.793l-0.316-0.679c0.576-0.222,1.164-0.44,1.749-0.655l0.303,0.684C138.614,7.356,138.03,7.572,137.459,7.793z
				"/>
			<path d="M210.778,6.482c-0.584-0.199-1.18-0.4-1.774-0.592l0.271-0.693c0.6,0.193,1.203,0.393,1.79,0.595L210.778,6.482z"/>
			<path d="M141.706,6.264l-0.279-0.691c0.586-0.195,1.186-0.393,1.787-0.582l0.266,0.695
				C142.887,5.873,142.297,6.066,141.706,6.264z"/>
			<path d="M206.445,5.101c-0.596-0.175-1.203-0.349-1.806-0.515l0.236-0.705c0.607,0.166,1.219,0.343,1.819,0.52L206.445,5.101z"/>
			<path d="M146.035,4.914l-0.246-0.702c0.599-0.171,1.21-0.343,1.815-0.506l0.23,0.707C147.233,4.575,146.629,4.744,146.035,4.914z
				"/>
			<path d="M202.056,3.906c-0.605-0.15-1.219-0.297-1.824-0.435l0.2-0.714c0.61,0.141,1.226,0.287,1.836,0.439L202.056,3.906z"/>
			<path d="M150.428,3.75l-0.209-0.711c0.61-0.148,1.226-0.291,1.841-0.43l0.193,0.716C151.643,3.461,151.035,3.605,150.428,3.75z"
				/>
			<path d="M197.614,2.904c-0.613-0.125-1.232-0.246-1.846-0.358l0.164-0.724c0.617,0.115,1.24,0.236,1.858,0.362L197.614,2.904z"/>
			<path d="M154.876,2.773l-0.174-0.719c0.614-0.124,1.24-0.238,1.861-0.351l0.158,0.723C156.105,2.537,155.483,2.653,154.876,2.773
				z"/>
			<path d="M193.125,2.088c-0.612-0.098-1.239-0.191-1.859-0.278l0.126-0.728c0.625,0.087,1.256,0.182,1.874,0.281L193.125,2.088z"
				/>
			<path d="M159.368,1.986l-0.135-0.725c0.623-0.098,1.249-0.187,1.876-0.272l0.12,0.729C160.607,1.802,159.987,1.892,159.368,1.986
				z"/>
			<path d="M188.602,1.465c-0.622-0.072-1.252-0.142-1.871-0.203l0.087-0.73c0.625,0.06,1.259,0.13,1.887,0.202L188.602,1.465z"/>
			<path d="M163.898,1.391L163.8,0.659c0.627-0.069,1.257-0.134,1.891-0.192l0.08,0.732C165.146,1.259,164.521,1.321,163.898,1.391z
				"/>
			<path d="M184.049,1.031c-0.62-0.046-1.252-0.086-1.879-0.121l0.051-0.736c0.631,0.035,1.268,0.078,1.896,0.124L184.049,1.031z"/>
			<path d="M168.452,0.985l-0.063-0.733c0.632-0.045,1.264-0.082,1.898-0.113l0.046,0.732
				C169.706,0.905,169.076,0.942,168.452,0.985z"/>
			<path d="M179.482,0.788c-0.626-0.02-1.255-0.032-1.885-0.044l0.015-0.735c0.634,0.009,1.266,0.023,1.898,0.044L179.482,0.788z"/>
			<path d="M173.023,0.771L173,0.033c0.63-0.018,1.263-0.027,1.898-0.033l0.008,0.736C174.277,0.742,173.65,0.754,173.023,0.771z"/>
		</g>
		<polygon class="st3" points="296.34,105.939 297.809,111.236 298.735,116.846 299.052,122.65 298.908,128.621 298.318,134.494 
			297.392,140.35 296.101,145.926 294.635,151.305 292.503,155.672 290.257,160.071 287.903,164.355 285.436,168.671 
			282.714,172.783 279.844,176.891 276.719,180.797 273.374,184.579 273.045,185.166 272.751,185.789 272.459,186.379 
			272.166,187.002 271.837,187.586 271.54,188.25 271.285,188.876 271.025,189.539 271.626,189.531 272.266,189.563 
			272.866,189.555 273.542,189.588 274.147,189.505 274.788,189.461 275.435,189.344 276.079,189.186 277.206,189.994 
			278.019,191.052 278.559,192.316 278.979,193.689 279.247,195.095 279.476,196.571 279.786,197.938 280.245,199.277 
			280.228,199.654 280.316,200.109 280.371,200.525 280.499,200.982 280.518,201.358 280.535,201.774 280.442,202.146 
			280.272,202.551 272.983,203.208 265.83,204.207 258.74,205.439 251.823,206.975 244.93,208.742 238.171,210.93 231.579,213.463 
			225.087,216.301 222.659,217.533 220.302,218.811 217.941,220.16 215.613,221.662 213.32,223.166 211.092,224.896 
			208.937,226.709 206.88,228.75 204.073,228.499 204.084,226.771 204.347,225.243 204.833,223.764 205.505,222.33 206.251,220.938 
			207.108,219.589 207.96,218.314 208.886,217.045 210.289,215.273 211.763,213.578 213.353,211.814 214.939,210.161 
			216.601,208.477 218.292,206.944 220.055,205.488 221.962,204.193 221.878,202.835 221.794,201.477 221.714,200.046 
			221.593,198.685 221.398,197.322 221.162,195.959 220.736,194.698 220.307,193.51 217.687,194.02 214.949,194.676 
			212.175,195.254 209.449,195.645 206.666,195.658 204.016,195.303 201.472,194.275 199.148,192.62 198.76,192.112 
			198.371,191.605 197.982,191.134 197.666,190.668 197.351,190.163 197.113,189.662 196.876,189.127 196.79,188.595 
			197.092,187.068 197.614,185.59 198.251,184.118 198.959,182.723 199.368,181.277 199.475,179.854 199.091,178.482 
			198.105,177.119 197.525,176.714 196.905,176.307 196.249,175.9 195.667,175.494 195.128,174.98 194.741,174.434 194.587,173.749 
			194.699,173.002 195.06,172.57 195.493,172.141 195.854,171.705 196.212,171.311 196.571,170.876 197.001,170.521 
			197.432,170.205 197.934,169.928 197.243,169.445 196.511,169.033 195.67,168.578 194.902,168.09 194.254,167.531 
			193.796,166.908 193.648,166.109 193.842,165.215 194.142,164.48 194.585,163.863 195.103,163.288 195.657,162.713 
			196.066,162.056 196.32,161.43 196.359,160.678 196.132,159.916 194.946,159.559 193.793,159.352 192.599,159.141 
			191.445,158.936 190.294,158.613 189.263,158.189 188.355,157.542 187.571,156.676 187.646,155.176 188.923,152.909 
			190.197,150.642 191.511,148.411 193.008,146.268 194.508,144.049 196.15,142.024 197.943,139.934 199.879,138.035 
			199.574,137.342 199.186,136.834 198.679,136.434 198.17,136.07 197.627,135.668 197.121,135.229 196.698,134.682 
			196.465,134.068 196.339,133.574 196.4,133.088 196.532,132.682 196.777,132.281 196.987,131.838 197.271,131.441 
			197.445,130.961 197.58,130.516 197.552,128.785 197.56,127.094 197.495,125.325 197.392,123.625 197.25,121.89 197.111,120.156 
			196.858,118.451 196.599,116.82 195.479,115.9 194.511,114.914 193.704,113.748 193.123,112.589 192.622,111.324 192.345,110.033 
			192.189,108.636 192.181,107.283 193.076,103.604 194.744,100.266 197.034,97.258 199.802,94.498 202.747,91.936 205.947,89.574 
			209.099,87.361 212.136,85.256 216.057,83.494 220.081,81.926 224.103,80.434 228.267,79.059 232.423,77.872 236.681,76.879 
			241.003,76.149 245.461,75.731 245.919,75.566 246.451,75.479 246.941,75.428 247.47,75.379 247.962,75.326 248.45,75.313 
			248.941,75.266 249.469,75.252 254.754,75.549 259.901,76.366 264.841,77.625 269.712,79.443 274.269,81.584 278.726,84.209 
			282.939,87.199 286.985,90.555 288.515,92.284 290.008,94.049 291.42,95.885 292.719,97.793 293.827,99.727 294.894,101.731 
			295.691,103.803 296.34,105.939 		"/>
		<path class="st4" d="M242.458,126.609l-1.589-0.395c0.021-1.012-0.122-1.945-0.404-2.818l0.017-0.047l1.409-0.867
			c0.311-0.185,0.415-0.604,0.227-0.916l-1.467-2.443c-0.188-0.313-0.594-0.416-0.906-0.229l-1.466,0.827
			c-0.662-0.667-1.39-1.208-2.297-1.647l0.002-0.006l0.395-1.592c0.088-0.353-0.036-0.534-0.39-0.619l-2.767-0.686
			c-0.352-0.09-0.586,0.002-0.672,0.354l-0.396,1.588c-1.011-0.02-1.906,0.135-2.775,0.416l-0.026-0.013l-0.858-1.406
			c-0.188-0.312-0.597-0.414-0.909-0.226l-2.443,1.469c-0.312,0.191-0.415,0.594-0.226,0.906l0.824,1.48
			c-0.668,0.663-1.213,1.402-1.652,2.312l-0.008-0.003l-1.588-0.394c-0.355-0.089-0.607-0.013-0.695,0.344l-0.686,2.765
			c-0.088,0.353,0.076,0.633,0.429,0.721l1.59,0.394c-0.02,1.014,0.137,1.892,0.419,2.764l-0.012,0.02l-1.404,0.853
			c-0.311,0.188-0.413,0.597-0.225,0.908l1.469,2.444c0.186,0.31,0.591,0.413,0.904,0.224l1.44-0.836
			c0.662,0.67,1.362,1.203,2.269,1.645l-0.001,0.006l-0.393,1.59c-0.089,0.355,0.063,0.654,0.415,0.744l2.766,0.686
			c0.354,0.087,0.562-0.125,0.648-0.48l0.395-1.588c1.01,0.02,1.932-0.125,2.804-0.408l0.039,0.016l0.863,1.408
			c0.186,0.313,0.6,0.413,0.914,0.227l2.444-1.471c0.311-0.188,0.415-0.591,0.225-0.902l-0.837-1.426
			c0.667-0.663,1.199-1.348,1.64-2.258l0.006,0.004l1.59,0.395c0.355,0.088,0.581-0.112,0.67-0.464l0.686-2.767
			C242.95,126.854,242.81,126.697,242.458,126.609z M229.499,129.256c-0.034-0.027-0.068-0.057-0.101-0.082
			c-0.103-0.085-0.2-0.176-0.294-0.268c-0.045-0.048-0.09-0.095-0.134-0.145c-0.045-0.048-0.088-0.1-0.13-0.147
			c-0.02-0.026-0.041-0.054-0.061-0.08c-0.119-0.148-0.224-0.307-0.317-0.471c-0.096-0.163-0.179-0.335-0.252-0.512
			c-0.028-0.07-0.055-0.141-0.079-0.213c-0.074-0.216-0.13-0.439-0.168-0.668c-0.086-0.531-0.069-1.09,0.069-1.646
			c0.289-1.169,1.054-2.095,2.036-2.625c0.086-0.047,0.174-0.091,0.265-0.13c0.029-0.017,0.061-0.027,0.09-0.041
			c0.063-0.023,0.122-0.048,0.184-0.072c0.186-0.066,0.376-0.122,0.57-0.162c0.067-0.014,0.132-0.025,0.197-0.035
			c0.525-0.084,1.077-0.067,1.627,0.07c0.654,0.162,1.23,0.471,1.705,0.885c0.051,0.044,0.1,0.09,0.146,0.135
			c0.072,0.068,0.141,0.141,0.207,0.215c0.045,0.049,0.086,0.097,0.128,0.148c0.021,0.026,0.041,0.051,0.062,0.078
			c0.041,0.05,0.082,0.105,0.117,0.157c0.058,0.079,0.112,0.163,0.162,0.247c0.033,0.057,0.066,0.113,0.097,0.171
			c0.077,0.145,0.148,0.294,0.208,0.448c0.023,0.059,0.048,0.123,0.068,0.184c0.021,0.064,0.04,0.124,0.059,0.189
			c0.027,0.096,0.051,0.192,0.072,0.289c0.121,0.584,0.117,1.205-0.037,1.825c-0.084,0.343-0.21,0.665-0.372,0.966
			c-0.03,0.059-0.064,0.115-0.1,0.172c-0.052,0.088-0.107,0.171-0.164,0.252c-0.04,0.055-0.08,0.109-0.122,0.16
			c-0.028,0.036-0.057,0.07-0.083,0.104c-0.06,0.069-0.117,0.135-0.176,0.196c-0.048,0.048-0.096,0.095-0.143,0.142
			c-0.037,0.035-0.076,0.07-0.116,0.105c-0.034,0.029-0.069,0.061-0.104,0.089c-0.027,0.021-0.053,0.042-0.077,0.063
			c-0.053,0.039-0.104,0.079-0.16,0.116c-0.026,0.02-0.054,0.038-0.081,0.057c-0.055,0.037-0.109,0.07-0.166,0.105
			c-0.026,0.018-0.057,0.032-0.083,0.05c-0.116,0.063-0.232,0.124-0.353,0.177c-0.029,0.015-0.059,0.027-0.09,0.042
			c-0.062,0.024-0.121,0.048-0.186,0.07c-0.061,0.023-0.123,0.044-0.184,0.064c-0.034,0.011-0.066,0.02-0.097,0.028
			c-0.063,0.02-0.126,0.035-0.191,0.05c-0.613,0.145-1.27,0.149-1.92-0.015c-0.527-0.127-1.002-0.354-1.416-0.655
			C229.574,129.311,229.537,129.283,229.499,129.256z"/>
		<radialGradient id="SVGID_1_" cx="106.8208" cy="150.6421" r="67.0734" gradientUnits="userSpaceOnUse">
			<stop  offset="0" style="stop-color:#8CBB69"/>
			<stop  offset="0.7837" style="stop-color:#6BAD44"/>
		</radialGradient>
		<polygon class="st5" points="53.793,104.58 52.323,109.878 51.396,115.486 51.08,121.292 51.225,127.262 51.813,133.137 
			52.739,138.99 54.028,144.566 55.496,149.945 57.628,154.314 59.876,158.713 62.229,162.996 64.696,167.313 67.419,171.426 
			70.289,175.531 73.413,179.438 76.758,183.221 77.086,183.807 77.382,184.432 77.674,185.018 77.966,185.642 78.296,186.227 
			78.592,186.891 78.848,187.517 79.106,188.18 78.505,188.172 77.866,188.203 77.266,188.195 76.591,188.229 75.983,188.146 
			75.344,188.104 74.698,187.984 74.052,187.827 72.926,188.633 72.112,189.689 71.574,190.957 71.153,192.331 70.884,193.735 
			70.655,195.213 70.347,196.582 69.887,197.918 69.906,198.295 69.814,198.749 69.76,199.165 69.632,199.623 69.612,200 
			69.597,200.416 69.689,200.785 69.859,201.191 77.147,201.848 84.301,202.85 91.392,204.08 98.31,205.619 105.2,207.386 
			111.961,209.568 118.554,212.104 125.046,214.943 127.474,216.174 129.829,217.45 132.189,218.8 134.52,220.303 136.811,221.805 
			139.038,223.537 141.196,225.35 143.25,227.393 146.059,227.141 146.049,225.412 145.784,223.884 145.298,222.404 
			144.626,220.971 143.882,219.579 143.025,218.23 142.173,216.957 141.246,215.686 139.843,213.913 138.368,212.219 
			136.778,210.455 135.192,208.805 133.531,207.119 131.839,205.586 130.077,204.132 128.169,202.835 128.255,201.477 
			128.337,200.119 128.418,198.685 128.539,197.327 128.734,195.963 128.968,194.598 129.396,193.337 129.825,192.152 
			132.444,192.662 135.183,193.317 137.956,193.893 140.683,194.285 143.465,194.299 146.115,193.944 148.66,192.916 
			150.982,191.262 151.372,190.752 151.762,190.247 152.151,189.773 152.467,189.307 152.779,188.803 153.019,188.303 
			153.255,187.766 153.341,187.235 153.042,185.709 152.517,184.23 151.881,182.758 151.174,181.364 150.763,179.918 
			150.656,178.496 151.04,177.123 152.026,175.758 152.608,175.354 153.227,174.947 153.884,174.541 154.464,174.135 
			155.004,173.621 155.39,173.074 155.543,172.39 155.433,171.645 155.072,171.209 154.638,170.781 154.278,170.349 153.92,169.952 
			153.56,169.52 153.13,169.164 152.701,168.848 152.198,168.571 152.89,168.088 153.62,167.674 154.462,167.219 155.228,166.73 
			155.878,166.172 156.336,165.549 156.483,164.752 156.29,163.859 155.989,163.121 155.546,162.506 155.03,161.928 
			154.474,161.354 154.066,160.696 153.811,160.069 153.773,159.32 153.999,158.557 155.186,158.199 156.34,157.99 157.532,157.781 
			158.688,157.574 159.838,157.254 160.868,156.828 161.778,156.182 162.562,155.318 162.487,153.817 161.212,151.55 
			159.933,149.282 158.62,147.052 157.125,144.906 155.624,142.688 153.983,140.664 152.188,138.572 150.254,136.676 
			150.557,135.982 150.945,135.477 151.452,135.074 151.961,134.713 152.506,134.31 153.01,133.872 153.435,133.322 
			153.667,132.709 153.793,132.217 153.73,131.729 153.601,131.322 153.355,130.924 153.144,130.481 152.86,130.08 152.688,129.602 
			152.553,129.156 152.579,127.426 152.573,125.736 152.636,123.965 152.74,122.268 152.878,120.53 153.02,118.795 153.275,117.093 
			153.535,115.462 154.653,114.543 155.618,113.557 156.428,112.387 157.01,111.231 157.51,109.965 157.784,108.675 
			157.942,107.273 157.95,105.922 157.055,102.245 155.387,98.906 153.097,95.896 150.33,93.141 147.384,90.579 144.186,88.217 
			141.032,86.004 137.995,83.896 134.074,82.134 130.052,80.566 126.03,79.074 121.865,77.699 117.708,76.511 113.45,75.52 
			109.129,74.791 104.672,74.372 104.211,74.205 103.682,74.118 103.19,74.068 102.661,74.02 102.171,73.967 101.682,73.956 
			101.19,73.903 100.663,73.892 95.378,74.188 90.23,75.007 85.292,76.267 80.419,78.082 75.862,80.225 71.407,82.85 67.192,85.838 
			63.147,89.195 61.616,90.924 60.125,92.691 58.711,94.525 57.414,96.432 56.304,98.366 55.238,100.373 54.438,102.441 
			53.793,104.58 		"/>
		<polygon class="st6" points="86.205,87.197 83.035,87.727 79.853,88.714 76.802,90.102 73.877,91.826 71.197,93.875 
			68.721,96.252 66.519,98.916 64.673,101.901 63.174,105.021 61.837,108.395 60.729,111.869 59.929,115.48 59.617,119.068 
			59.833,122.666 60.682,126.195 62.21,129.73 63.665,132.59 65.567,135.354 67.798,137.875 70.354,140.193 73.194,142.119 
			76.167,143.703 79.27,144.865 82.386,145.54 87.277,146.428 92.271,147.045 97.393,147.246 102.497,147.106 107.587,146.631 
			112.582,145.784 117.413,144.644 122.007,143.252 125.593,142.024 129.085,140.424 132.446,138.455 135.567,136.157 
			138.407,133.498 140.777,130.525 142.722,127.234 144.048,123.635 144.988,120.583 145.511,117.474 145.689,114.195 
			145.455,110.973 144.847,107.771 143.759,104.741 142.232,101.996 140.195,99.578 138.48,97.557 136.525,95.998 134.393,94.711 
			132.121,93.621 129.817,92.645 127.406,91.785 125.071,90.888 122.764,89.872 119.966,88.809 117.183,87.967 114.331,87.317 
			111.448,86.783 108.607,86.358 105.661,86.088 102.679,85.822 99.586,85.637 97.98,85.829 96.257,85.95 94.567,85.998 
			92.805,86.083 91.154,86.164 89.472,86.361 87.798,86.668 86.205,87.197 		"/>
		<path class="st4" d="M102.087,93.697c1.196,0.307,2.4,0.59,3.587,0.939c0.98,0.287,1.944,0.635,2.904,0.984
			c1.589,0.579,3.098,1.336,4.595,2.115c1.344,0.696,2.685,1.406,3.79,2.459c0.743,0.707,1.432,1.472,2.148,2.204
			c1.211,1.234,2.206,2.626,3.063,4.12c0.292,0.505,0.489,1.067,0.748,1.596c0.453,0.923,0.848,1.864,1.096,2.867
			c0.328,1.322,0.363,2.672,0.436,4.021c0.075,1.367-0.172,2.684-0.622,3.955c-0.344,0.969-0.767,1.915-1.196,2.85
			c-1.099,2.387-2.85,4.015-5.496,4.5c-1.799,0.331-3.612,0.396-5.424,0.052c-0.373-0.071-0.745-0.156-1.113-0.243
			c-0.177-0.043-0.289-0.021-0.383,0.166c-0.145,0.281-0.324,0.545-0.501,0.81c-0.368,0.543-0.535,1.152-0.604,1.792
			c-0.167,1.544-0.938,2.662-2.344,3.326c-0.895,0.422-1.864,0.543-2.83,0.678c-1.364,0.194-2.732,0.283-4.098,0.09
			c-1.823-0.256-3.547-0.819-5.121-1.793c-0.182-0.112-0.299-0.103-0.449,0.066c-0.691,0.787-1.553,1.295-2.581,1.523
			c-0.306,0.068-0.636,0.098-0.907,0.24c-0.661,0.349-1.309,0.727-1.933,1.141c-1.023,0.677-2.056,1.346-3.022,2.102
			c-0.916,0.719-1.753,1.537-2.615,2.32c-0.165,0.148-0.327,0.213-0.541,0.173c-0.854-0.162-1.564-0.582-2.139-1.22
			c-0.475-0.525-0.5-0.916-0.066-1.469c0.429-0.547,0.915-1.048,1.377-1.571c0.449-0.505,0.905-1.007,1.111-1.677
			c0.068-0.221-0.004-0.344-0.203-0.406c-0.935-0.307-1.863-0.635-2.813-0.902c-1.168-0.325-2.339-0.644-3.44-1.162
			c-1.72-0.812-2.879-2.073-3.171-4.013c-0.076-0.5-0.11-1.006-0.157-1.513c-0.015-0.16-0.042-0.266-0.236-0.313
			c-0.52-0.129-1.042-0.266-1.546-0.447c-0.686-0.245-1.359-0.545-1.84-1.116c-0.268-0.315-0.466-0.691-0.676-1.051
			c-0.544-0.921-0.965-1.894-1.194-2.942c-0.409-1.853-0.402-3.715-0.024-5.562c0.191-0.931,0.515-1.839,0.844-2.731
			c0.663-1.8,1.604-3.459,2.729-5.009c1.344-1.852,2.962-3.456,4.607-5.03c1.089-1.044,2.246-2.012,3.507-2.838
			c1.066-0.7,2.161-1.365,3.281-1.977c1.021-0.558,2.069-1.081,3.149-1.515c1.999-0.801,4.097-1.206,6.236-1.423
			c2.159-0.216,4.311-0.13,6.445,0.199c1.212,0.187,2.405,0.492,3.605,0.746C102.069,93.771,102.078,93.734,102.087,93.697z
			 M94.854,124.028c-0.027,0.256-0.071,0.511-0.093,0.769c-0.033,0.348,0.153,0.621,0.413,0.783c0.687,0.43,1.4,0.822,2.109,1.216
			c0.405,0.227,0.846,0.396,1.234,0.649c0.262,0.173,0.458,0.447,0.658,0.7c-0.515-0.319-1.016-0.625-1.65-0.61
			c-0.563,0.012-0.95,0.32-1.084,0.885c-0.145,0.625-0.12,0.831,0.226,1.827c-0.026,0.013-0.05,0.024-0.075,0.038
			c-0.142-0.277-0.318-0.541-0.416-0.828c-0.172-0.51-0.205-1.042-0.061-1.563c0.183-0.657-0.078-1.123-0.58-1.504
			c-0.595-0.451-1.281-0.709-1.984-0.934c-0.063-0.02-0.19,0.018-0.221,0.07c-0.574,0.942-1.451,1.449-2.466,1.768
			c-0.029,0.008-0.053,0.025-0.125,0.066c0.233,0.184,0.443,0.358,0.666,0.52c1.532,1.111,3.111,2.141,4.852,2.898
			c1.375,0.598,2.805,0.994,4.299,1.193c1.155,0.156,2.307,0.145,3.447,0.016c1.016-0.115,1.961-0.518,2.791-1.139
			c0.135-0.104,0.243-0.268,0.318-0.424c0.177-0.363,0.015-0.592-0.383-0.555c-0.296,0.025-0.591,0.078-0.887,0.111
			c-0.32,0.035-0.63,0.011-0.906-0.201c1.337-0.178,2.523-0.714,3.388-1.718c1.068-1.237,1.637-2.687,0.957-4.326
			c-0.246-0.587-0.652-1.116-1.026-1.643c-0.603-0.842-1.229-1.671-1.865-2.489c-0.771-0.988-1.711-1.775-2.949-2.071
			c-0.64-0.152-1.319-0.143-1.982-0.184c-0.214-0.014-0.402,0.256-0.388,0.559c0.026,0.593,0.078,1.186,0.118,1.778
			c0.057,0.868-0.006,1.716-0.496,2.47c-0.209,0.326-0.473,0.615-0.703,0.928c-0.414,0.551-0.358,0.893,0.223,1.252
			c0.62,0.384,1.073,0.909,1.368,1.568c0.07,0.158,0.097,0.336,0.123,0.511c-0.394-0.821-0.968-1.464-1.805-1.832
			c-0.423-0.185-0.849-0.306-1.27,0.095c-0.323,0.305-0.758,0.42-1.129,0.399c0.319-0.187,0.728-0.363,1.056-0.632
			c0.605-0.497,0.654-0.983,0.242-1.655c-0.313-0.509-0.51-1.053-0.473-1.648c0.133,0.344,0.271,0.701,0.408,1.053
			c0.014,0.037,0.029,0.078,0.051,0.109c0.456,0.668,0.68,0.611,1.124,0.121c0.423-0.467,0.617-1.047,0.696-1.657
			c0.135-1.087,0.025-2.15-0.5-3.128c-0.174-0.325-0.443-0.602-0.689-0.887c-0.596-0.693-1.209-1.377-1.805-2.07
			c-0.92-1.074-1.862-2.121-2.941-3.041c-0.788-0.67-1.729-0.914-2.715-1.059c-0.541-0.082-1.084-0.152-1.623-0.236
			c-0.676-0.107-1.328-0.059-1.875,0.378c-0.31,0.247-0.553,0.578-0.84,0.887c0.037-0.18,0.048-0.394,0.128-0.577
			c0.229-0.548,0.649-0.922,1.181-1.17c0.346-0.165,0.422-0.277,0.262-0.623c-0.146-0.314-0.353-0.6-0.543-0.892
			c-0.222-0.343-0.469-0.671-0.68-1.021c-0.253-0.416-0.232-0.859-0.12-1.327c0.282-1.18-0.007-2.257-0.655-3.284
			c0.643,0.474,0.869,1.143,0.98,1.862c0.127,0.806,0.197,1.62,0.356,2.419c0.228,1.127,0.856,1.976,1.973,2.356
			c0.771,0.266,1.582,0.47,2.397,0.251c1.075-0.286,2.328-1.576,2.258-3.082c-0.004-0.04,0.002-0.079,0.007-0.142
			c0.333,0.583,0.318,1.147,0.019,1.715c-0.116,0.22-0.232,0.438-0.367,0.645c-0.548,0.857-0.363,1.509,0.254,2.227
			c0.418,0.486,0.957,0.867,1.422,1.315c0.658,0.638,1.297,1.296,1.946,1.944c0.161,0.159,0.315,0.358,0.585,0.229
			c0.263-0.12,0.349-0.358,0.317-0.62c-0.056-0.449-0.141-0.898-0.227-1.346c-0.027-0.142-0.036-0.23,0.12-0.313
			c0.818-0.426,1.156-1.167,1.298-2.027c0.29-1.769-0.171-3.432-0.704-5.09c-0.35-1.09-1.13-1.688-2.155-2.062
			c-0.454-0.167-0.893-0.382-1.329-0.595c-0.168-0.082-0.329-0.199-0.459-0.33c-0.332-0.337-0.448-0.721,0.105-1.006
			c0.201-0.104,0.416-0.186,0.625-0.279c0.653-0.283,0.811-0.798,0.428-1.399c-0.757-1.2-1.838-1.994-3.143-2.507
			c-0.121-0.048-0.239-0.098-0.36-0.141c-0.161-0.057-0.372-0.066-0.468-0.176c-0.078-0.096,0.01-0.318-0.037-0.461
			c-0.08-0.227-0.164-0.49-0.332-0.641c-0.558-0.51-1.205-0.858-1.955-1.025c-0.738-0.166-1.476-0.264-2.219-0.132
			c-0.305,0.056-0.599,0.239-0.863,0.415c-0.181,0.117-0.134,0.313,0.022,0.459c0.621,0.585,1.319,0.874,2.176,0.59
			c0.272-0.09,0.554-0.154,0.8-0.221c-0.424,0.442-1.337,0.877-1.959,0.826c-0.225-0.02-0.453-0.221-0.645-0.379
			c-0.357-0.297-0.671-0.645-1.039-0.926c-0.214-0.162-0.517-0.299-0.776-0.111c-0.28,0.199-0.187,0.527-0.108,0.801
			c0.237,0.83-0.075,1.728-0.623,2.371c0.074-0.351,0.182-0.648,0.193-0.949c0.033-1.115-0.898-1.658-1.883-1.072
			c-0.934,0.559-1.83,1.179-2.738,1.781c-0.315,0.207-0.427,0.545-0.452,0.901c-0.021,0.296,0.267,0.578,0.644,0.692
			c0.579,0.178,1.156,0.356,1.729,0.55c0.288,0.098,0.521,0.048,0.735-0.167c0.406-0.408,0.873-0.699,1.477-0.682
			c0.211,0.008,0.424,0.058,0.637,0.123c-0.552-0.07-0.957,0.206-1.303,0.559c-0.842,0.854-1.233,1.908-1.342,3.086
			c-0.049,0.525-0.12,1.047-0.183,1.572c-0.241,2.002-0.183,3.979,0.35,5.939c0.273,0.997,0.527,2.008,1.188,2.824
			c0.592,0.736,1.184,1.496,2.058,1.944c-0.014,0.032-0.024,0.063-0.036,0.097c-0.33-0.104-0.661-0.195-0.982-0.318
			c-0.221-0.086-0.421-0.219-0.636-0.326c-0.337-0.167-0.501-0.087-0.579,0.273c-0.199,0.914,0.084,1.678,0.744,2.301
			c0.725,0.686,1.545,1.239,2.539,1.681c-0.931-0.045-1.645-0.406-2.313-0.886c-0.281-0.202-0.561-0.409-0.832-0.631
			c-0.632-0.513-1.346-0.621-2.105-0.402c-1.135,0.328-2.228,0.215-3.347-0.127c-0.625-0.193-0.961-0.221-1.276,0.564
			c-0.233,0.578-0.495,1.155-0.655,1.754c-0.293,1.099-0.015,2.08,0.715,2.953c0.503,0.6,1.152,0.896,1.884,1.065
			c0.641,0.15,1.285,0.296,1.933,0.411c1.3,0.227,2.569,0.125,3.807-0.369c0.438-0.174,0.913-0.357,1.392-0.186
			c0.313,0.111,0.607,0.294,0.893,0.468c0.57,0.353,1.144,0.663,1.836,0.714c0.841,0.059,1.336-0.45,1.201-1.281
			c-0.014-0.085-0.027-0.17,0.019-0.284c0.093,0.177,0.19,0.352,0.274,0.534c0.036,0.076,0.054,0.17,0.064,0.26
			c0.07,0.625,0.412,1.021,1.018,1.178c0.682,0.176,1.362,0.247,1.965-0.226c0.524-0.412,0.563-0.996,0.5-1.601
			c-0.013-0.116-0.042-0.229-0.076-0.421C94.868,122.978,94.911,123.496,94.854,124.028z M104.516,110.806
			c0.214-0.237,0.464-0.458,0.612-0.729c0.139-0.257,0.207-0.571,0.222-0.866c0.02-0.434-0.097-0.877-0.042-1.303
			c0.051-0.394,0.203-0.793,0.395-1.143c0.385-0.702,0.398-0.947-0.308-1.605c-0.551-0.513-1.19-0.929-1.785-1.393
			c-0.625-0.49-1.204-1.022-1.524-1.771c-0.025-0.056-0.05-0.11-0.064-0.166c-0.014-0.055-0.016-0.111-0.035-0.238
			c0.418,0.799,0.996,1.328,1.75,1.656c0.223,0.097,0.476,0.157,0.723,0.17c0.333,0.02,0.582-0.158,0.746-0.455
			c0.311-0.566,0.317-1.177,0.287-1.796c-0.02-0.406-0.041-0.819,0.014-1.218c0.062-0.453,0.283-0.854,0.684-1.247
			c-0.344,0.749-0.283,1.456-0.193,2.147c0.116,0.867,0.007,1.679-0.367,2.467c-0.309,0.653-0.214,1.066,0.304,1.447
			c0.464,0.339,1.133,0.447,1.681,0.011c0.53-0.424,1.136-0.767,1.733-1.104c0.464-0.262,0.71-0.595,0.683-1.145
			c-0.042-0.901-0.443-1.638-0.996-2.313c0.019-0.018,0.04-0.035,0.061-0.053c0.337,0.361,0.672,0.725,1.031,1.107
			c0.063-0.176,0.098-0.34,0.177-0.48c0.247-0.443,0.663-0.619,1.142-0.658c0.478-0.037,0.949-0.043,1.412,0.151
			c0.146,0.062,0.416,0.048,0.518-0.048c0.1-0.097,0.116-0.355,0.071-0.515c-0.144-0.495-0.442-0.892-0.906-1.138
			c-0.841-0.445-1.673-0.919-2.536-1.316c-0.698-0.324-1.442-0.553-2.167-0.82c-0.196-0.074-0.39-0.152-0.592-0.199
			c-0.106-0.026-0.28-0.037-0.326,0.023c-0.065,0.08-0.076,0.246-0.042,0.355c0.156,0.501,0.568,0.729,1.033,0.849
			c0.729,0.188,1.172,0.698,1.56,1.287c-0.664-0.646-1.487-0.966-2.365-1.177c-0.18-0.043-0.258-0.113-0.297-0.307
			c-0.151-0.786-1.105-1.629-1.896-1.689c-0.224-0.018-0.365,0.096-0.468,0.295c-0.342,0.676-0.345,0.675-0.765,0.904
			c0.463-0.869,0.278-1.554-0.621-2.066c-0.391-0.225-0.823-0.405-1.262-0.513c-1.169-0.291-2.353-0.558-3.568-0.505
			c-0.422,0.02-0.848,0.111-1.256,0.226c-0.315,0.09-0.366,0.348-0.161,0.611c0.11,0.138,0.249,0.254,0.404,0.414
			c-0.637-0.082-1.202-0.257-1.715-0.583c-0.655-0.423-1.354-0.735-2.136-0.772c-0.376-0.017-0.767,0.068-1.131,0.173
			c-0.146,0.042-0.313,0.254-0.331,0.407c-0.014,0.121,0.152,0.31,0.287,0.397c0.413,0.269,0.89,0.307,1.429,0.266
			c-0.068,0.064-0.095,0.086-0.122,0.11c-0.374,0.333-0.427,0.705-0.03,1.011c0.538,0.414,1.123,0.776,1.724,1.098
			c1.19,0.635,2.198,1.436,2.729,2.74c0.282-0.055,0.561-0.108,0.836-0.162c-0.812,0.348-1.171,0.996-1.302,1.818
			c-0.072,0.449,0.117,0.763,0.487,0.966c0.305,0.165,0.642,0.267,0.951,0.423c1.679,0.851,2.516,2.241,2.546,4.106
			c0.014,0.852-0.016,1.707-0.094,2.554c-0.092,0.924-0.403,1.77-1.149,2.39c-0.813,0.675-0.692,1.528-0.413,2.376
			c0.136,0.412,0.37,0.796,0.598,1.167c0.422,0.689,1.119,0.925,1.866,1.038c0.708,0.105,1.419,0.189,2.129,0.297
			c0.427,0.064,0.795,0.266,1.096,0.567c0.153,0.149,0.266,0.132,0.402,0c0.319-0.298,0.437-0.64,0.308-1.075
			c-0.122-0.409-0.27-0.82-0.31-1.24c-0.099-1.031,0.378-1.877,0.986-2.721c-0.269,0.934-0.59,1.82-0.35,2.736
			c0.181,0.704,0.479,1.371,0.605,2.101c0.072,0.413,0.624,0.665,1.105,0.637c0.731-0.044,1.364-0.356,1.972-0.72
			c0.337-0.201,0.654-0.438,0.999-0.624c-0.906,1.335-2.032,2.315-3.869,2.31c0.216,0.367,0.358,0.693,0.577,0.959
			c0.647,0.789,1.277,1.586,1.748,2.495c0.563,1.079,1.566,1.409,2.666,1.479c1.348,0.089,2.644-0.266,3.921-0.652
			c0.289-0.09,0.568-0.245,0.827-0.409c0.517-0.323,0.749-0.827,0.849-1.429c0.05,0.269,0.119,0.535,0.151,0.805
			c0.095,0.818,0.682,1.132,1.456,1.234c0.63,0.086,1.221-0.08,1.618-0.574c0.292-0.363,0.502-0.815,0.653-1.261
			c0.237-0.706,0.407-1.437,0.584-2.164c0.052-0.206,0.054-0.433,0.045-0.649c-0.013-0.324-0.114-0.607-0.477-0.689
			c0.37-0.493,0.431-1.059,0.446-1.625c0.03-1.206-0.104-2.406-0.651-3.482c-0.344-0.674-0.866-1.262-1.354-1.854
			c-0.335-0.406-0.728-0.767-1.119-1.119c-0.48-0.432-0.979-0.454-1.53-0.11c-0.188,0.114-0.371,0.235-0.549,0.365
			c-0.412,0.299-0.843,0.45-1.336,0.196c-0.049-0.024-0.111-0.024-0.242-0.053c0.03,0.631,0.061,1.224,0.091,1.816
			c-0.033,0.005-0.064,0.012-0.098,0.018c-0.309-0.387-0.418-0.846-0.431-1.333c-0.006-0.308,0.015-0.616,0.013-0.926
			c-0.01-0.755-0.321-1.177-1.021-1.479c-0.759-0.328-1.527-0.299-2.313-0.153c-0.788,0.151-1.517,0.009-2.17-0.503
			c0.291,0.063,0.582,0.14,0.876,0.184c0.529,0.076,1.04,0.013,1.54-0.198c0.783-0.332,1.548-0.125,2.299,0.137
			c0.28,0.1,0.54,0.249,0.802,0.388c0.298,0.157,0.503,0.109,0.669-0.191c0.26-0.471,0.229-0.986,0.137-1.483
			c-0.289-1.552-1.315-2.438-2.732-2.955c-0.147-0.05-0.295-0.106-0.438-0.228c0.24,0.011,0.498-0.031,0.717,0.041
			c0.657,0.209,1.22-0.404,0.98-1.104c-0.158-0.459-0.459-0.813-0.854-1.048c-0.586-0.351-1.215-0.627-1.916-0.677
			c-0.655-0.043-1.119,0.258-1.238,0.9c-0.074,0.411-0.041,0.844-0.032,1.267c0.002,0.256,0.065,0.512,0.077,0.77
			c0.01,0.269-0.105,0.471-0.398,0.506c-1.188,0.142-1.997,0.877-2.734,1.728c-0.27,0.308-0.522,0.637-0.832,0.898
			c-0.961,0.819-0.817,1.959,0.041,2.713c0.217,0.19,0.457,0.358,0.664,0.554c0.382,0.363,0.785,0.709,1.115,1.114
			c0.59,0.72,1.341,1.176,2.194,1.484c0.672,0.241,1.362,0.436,2.033,0.685c0.641,0.238,0.962,0.771,1.188,1.382
			c0.114,0.306,0.229,0.624,0.411,0.894c0.558,0.831,1.682,1.115,2.661,0.707c0.184-0.076,0.354-0.176,0.579-0.213
			c-0.187,0.16-0.354,0.353-0.562,0.473c-0.21,0.125-0.458,0.193-0.695,0.268c-0.41,0.13-0.473,0.299-0.209,0.646
			c0.321,0.426,0.787,0.647,1.275,0.781c0.649,0.183,1.314,0.344,2.003,0.254c0.368-0.052,0.733-0.137,1.063-0.199
			c-0.282,0.354-0.713,0.558-1.209,0.608c-0.484,0.044-0.971,0.053-1.454,0.055c-0.622,0.005-1.129,0.243-1.592,0.652
			c-0.423,0.375-0.859,0.756-1.349,1.031c-0.674,0.38-1.438,0.354-2.186,0.24c-0.366-0.055-0.723-0.146-1.084-0.224
			c0.533-0.075,1.078-0.115,1.604-0.235c0.48-0.109,0.965-0.258,1.406-0.475c0.917-0.463,1.135-1.336,0.585-2.209
			c-0.153-0.243-0.34-0.472-0.548-0.671c-0.51-0.483-0.926-1.028-1.064-1.729c-0.178-0.917-0.822-1.394-1.608-1.692
			c-1.566-0.593-3.081-1.271-4.446-2.263c-0.299-0.217-0.66-0.374-1.018-0.481c-0.738-0.226-1.359,0.064-1.858,0.594
			c-0.37,0.391-0.679,0.842-0.97,1.209C103.656,111.894,104.045,111.328,104.516,110.806z M76.695,111.924
			c-0.113-0.625-0.496-1.076-0.942-1.476c-0.358-0.318-0.713-0.205-0.88,0.248c-0.337,0.922-0.319,1.878-0.251,2.83
			c0.062,0.867,0.203,1.729,0.299,2.51c-1.254-1.66-1.198-5.804,0.496-8.271c0.004,0.326,0,0.611,0.01,0.894
			c0.088,2.159,2.227,3.058,3.789,2.399c1.172-0.494,2.085-1.266,2.654-2.421c0.327-0.661,0.39-1.382,0.447-2.092
			c0.097-1.196,0.094-2.399,0.192-3.595c0.05-0.592,0.231-1.174,0.349-1.762c0.113-0.562-0.17-1.023-0.726-1.142
			c-0.288-0.062-0.589-0.081-0.884-0.079c-0.733,0.007-1.468,0.032-2.199,0.059c-0.976,0.037-1.81,0.463-2.571,1.025
			c-0.568,0.42-1.095,0.896-1.63,1.357c-0.328,0.282-0.223,0.718,0.2,0.852c0.161,0.048,0.329,0.09,0.498,0.103
			c0.734,0.064,0.936,0.59,0.971,1.24c0.014,0.248,0.009,0.497,0.042,0.742c0.125,0.937,1.189,1.451,1.903,1.105
			c0.63-0.311,0.799-1.199,0.283-1.682c-0.028-0.028-0.057-0.058-0.09-0.08c-0.87-0.566-0.828-1.395-0.335-2.251
			c0.097-0.172,0.225-0.326,0.353-0.479c-0.237,0.434-0.399,0.891-0.361,1.394c0.051,0.647,0.379,1.093,0.989,1.331
			c0.152,0.061,0.226,0.035,0.284-0.135c0.214-0.648,0.611-1.137,1.28-1.36c0.037-0.013,0.074-0.022,0.113-0.028
			c0.017-0.004,0.037,0.006,0.051,0.008c-0.483,0.197-0.766,0.594-0.93,1.057c-0.231,0.645-0.412,1.307-0.607,1.964
			c-0.302,1.022-1.425,1.538-2.263,1.035c-0.401-0.241-0.626-0.637-0.83-1.04c-0.22-0.436-0.42-0.882-0.631-1.322
			c-0.593-1.247-2.114-1.396-2.986-0.156c-0.858,1.221-0.718,2.953,0.329,4.033c0.027,0.031,0.05,0.063,0.034,0.044
			c-0.315,0.226-0.679,0.407-0.935,0.683c-0.393,0.422-0.486,0.976-0.4,1.537c0.062,0.4,0.182,0.79,0.263,1.19
			c0.016,0.08,0.002,0.212-0.05,0.249c-0.921,0.662-0.958,1.576-0.767,2.566c0.007,0.028,0.018,0.057,0.025,0.085
			c-0.368-0.363-0.438-0.929-0.292-2.441c-0.558-0.003-1.055,0.174-1.507,0.47c-0.738,0.483-1.071,1.208-1.171,2.06
			c-0.035,0.315-0.084,0.632-0.089,0.948c-0.006,0.35,0.279,0.498,0.571,0.306c0.44-0.296,0.918-0.447,1.484-0.453
			c-0.733,0.274-1.3,0.681-1.652,1.368c-0.363,0.716,0,1.44,0.491,1.799c0.41,0.296,0.867,0.476,1.398,0.391
			c0.103-0.016,0.265,0.039,0.327,0.12c0.688,0.856,1.573,1.167,2.648,0.978c0.006,0.029,0.012,0.058,0.018,0.086
			c-0.277,0.08-0.553,0.18-0.838,0.232c-0.289,0.053-0.407,0.168-0.279,0.428c0.143,0.29,0.349,0.549,0.533,0.818
			c0.06,0.088,0.144,0.159,0.196,0.256c-0.643-0.368-1.284-0.734-1.356-1.593c-0.004-0.052-0.041-0.122-0.083-0.146
			c-0.458-0.279-0.913-0.565-1.382-0.821c-0.396-0.214-0.738-0.171-1.026,0.146c-0.087,0.098-0.111,0.299-0.089,0.445
			c0.089,0.667,0.501,1.165,0.947,1.625c0.642,0.656,1.453,1.022,2.334,1.25c1.12,0.289,2.234,0.279,3.373,0.069
			c0.998-0.187,1.298-1.317,1.047-1.999c-0.148-0.404-0.221-0.84-0.299-1.267c-0.031-0.169,0.02-0.349,0.035-0.567
			c-1.09,0.252-2.073,0.012-2.992-0.536c-0.943-0.56-1.5-1.405-1.773-2.451c-0.031,0.02-0.063,0.042-0.094,0.062
			c0.222,0.279,0.429,0.57,0.668,0.834c0.249,0.271,0.503,0.545,0.794,0.762c0.726,0.549,1.544,0.859,2.468,0.82
			c0.91-0.037,1.409-0.429,1.652-1.305c0.083-0.295,0.168-0.598,0.177-0.897c0.005-0.167-0.117-0.372-0.244-0.498
			c-0.253-0.253-0.559-0.45-0.824-0.688c-0.141-0.131-0.245-0.302-0.345-0.479c0.775,0.752,1.799,0.906,2.76,1.225
			c1.261,0.423,2.512,0.267,3.773,0.064c0.155-0.024,0.313-0.06,0.472-0.064c0.722-0.024,0.898-0.313,0.962-1.088
			c0.066-0.816-0.217-1.521-0.565-2.245c-0.331-0.683-0.509-1.441-0.742-2.167c-0.088-0.266-0.118-0.547-0.215-0.809
			c-0.142-0.381-0.401-0.459-0.721-0.216c-0.357,0.271-0.67,0.6-1.034,0.854c-0.973,0.676-2.027,1-3.219,0.688
			c-0.386-0.101-0.512,0.007-0.521,0.411c-0.016,0.664,0.24,1.262,0.494,1.856c0.047,0.11,0.104,0.214,0.184,0.382
			C77.176,113.441,76.839,112.727,76.695,111.924z M115.495,104.577c0.391,0.443,0.712,0.956,1.003,1.474
			c0.3,0.521,0.722,0.824,1.284,0.988c0.595,0.174,1.715,0.568,2.011,0.914c-0.487-0.137-1.018-0.326-1.563-0.436
			c-0.812-0.164-1.521,0.063-2.056,0.717c-0.342,0.418-0.307,0.903,0.045,1.271c0.226,0.237,0.471,0.274,0.753,0.133
			c0.116-0.06,0.241-0.105,0.345-0.182c0.699-0.521,1.392-0.384,2.102-0.014c0.816,0.424,1.445,1.053,1.979,1.781
			c0.196,0.271,0.376,0.559,0.525,0.859c0.122,0.241,0.291,0.295,0.529,0.256c0.267-0.045,0.529-0.121,0.592-0.418
			c0.045-0.219,0.083-0.471,0.02-0.673c-0.416-1.321-0.967-2.581-1.951-3.595c-0.227-0.234-0.532-0.408-0.824-0.57
			c-0.198-0.109-0.335-0.195-0.383-0.453c-0.111-0.572-0.484-0.996-0.929-1.344c-0.419-0.331-0.868-0.625-1.263-0.906
			c0.725,0.045,1.489,0.495,1.987,1.189c0.233,0.324,0.47,0.646,0.724,0.954c0.104,0.126,0.245,0.246,0.395,0.306
			c0.12,0.048,0.311,0.048,0.412-0.018c0.078-0.052,0.126-0.269,0.082-0.361c-0.171-0.365-0.318-0.774-0.589-1.055
			c-0.901-0.943-1.866-1.826-2.78-2.756c-0.602-0.609-1.175-1.246-1.733-1.895c-0.564-0.658-1.27-1.105-2.047-1.464
			c-0.198-0.092-0.325-0.026-0.367,0.192c-0.005,0.018-0.009,0.037-0.011,0.057c-0.077,0.615,0.652,2.014,1.203,2.279
			c0.215,0.104,0.448,0.162,0.705,0.25C114.845,102.663,114.679,103.648,115.495,104.577z M88.243,132.495
			c-0.361-0.151-0.612-0.058-0.908,0.162c-0.714,0.53-1.536,0.667-2.385,0.433c-0.558-0.154-0.864-0.078-1.242,0.449
			c-0.527,0.729-1.274,1.301-1.92,1.943c-0.241,0.238-0.477,0.48-0.693,0.737c-0.171,0.204-0.192,0.437-0.013,0.655
			c0.208,0.251,0.401,0.521,0.642,0.738c0.234,0.214,0.563,0.268,0.836,0.103c0.474-0.286,0.97-0.57,1.361-0.954
			c1.004-0.988,2.172-1.75,3.313-2.554c0.642-0.452,1.257-0.941,1.883-1.413c0.007-0.035,0.012-0.066,0.017-0.102
			C88.836,132.631,88.52,132.611,88.243,132.495z M90.089,124.783c-0.981,0.131-1.824-0.125-2.535-0.822
			c-0.271-0.266-0.557-0.538-0.959-0.561c-0.198-0.01-0.412,0.035-0.598,0.109c-0.35,0.137-0.677,0.337-1.027,0.464
			c-0.545,0.198-0.647,0.63-0.219,1.021c0.525,0.479,1.172,0.748,1.833,0.953c0.644,0.202,1.311,0.316,1.963,0.492
			c0.431,0.113,0.877,0.215,1.274,0.412c0.337,0.169,0.626,0.154,0.932,0.012c0.495-0.234,0.973-0.505,1.253-1.012
			c0.289-0.524,0.112-0.91-0.469-1.044c-0.046-0.011-0.097-0.018-0.146-0.03c0-0.022-0.002-0.04-0.003-0.061
			C90.956,124.737,90.52,124.73,90.089,124.783z M72.522,108.546c-0.191-0.263-0.384-0.554-0.598-0.825
			c-0.276-0.357-0.595-0.381-0.85-0.009c-0.271,0.388-0.479,0.819-0.672,1.251c-0.338,0.748-0.642,1.514-0.958,2.273
			c-0.019,0.045-0.028,0.095-0.042,0.143c-0.185,0.697,0.054,0.976,0.762,0.868c0.498-0.074,0.995-0.169,1.509-0.256
			C71.321,109.997,71.384,109.74,72.522,108.546z M82.525,125.982c-1.944-0.329-3.898-0.6-5.872-0.368
			c-0.664,0.079-1.313,0.296-1.966,0.474c-0.165,0.046-0.31,0.168-0.481,0.268c0.125,0.309,0.241,0.59,0.368,0.896
			c0.19-0.092,0.345-0.182,0.502-0.249c1.193-0.519,2.461-0.627,3.739-0.649c1.354-0.025,2.699,0.094,4.021,0.405
			c0.083,0.021,0.17,0.024,0.257,0.035C83.132,126.184,83.063,126.07,82.525,125.982z M83.491,127.646
			c-0.164-0.258-0.66-0.307-0.873-0.096c-0.788,0.785-1.771,1.225-2.812,1.547c-0.598,0.186-1.215,0.303-1.824,0.451
			c-0.091,0.023-0.183,0.041-0.277,0.061c-0.002,0.038-0.004,0.077-0.007,0.115c0.288,0.031,0.576,0.076,0.865,0.094
			c1.676,0.107,3.246-0.355,4.796-0.911c0.231-0.085,0.464-0.175,0.718-0.271C83.866,128.277,83.688,127.957,83.491,127.646z
			 M81.9,127.135c-0.638-0.077-1.28-0.154-1.923-0.217c-0.074-0.007-0.172,0.035-0.232,0.088c-0.957,0.83-2.08,1.314-3.309,1.576
			c-0.183,0.039-0.363,0.082-0.594,0.135c0.242,0.277,0.446,0.465,0.82,0.418c1.529-0.188,3.027-0.48,4.404-1.209
			c0.348-0.184,0.664-0.423,0.997-0.637c-0.012-0.034-0.024-0.067-0.035-0.1C81.987,127.17,81.945,127.141,81.9,127.135z
			 M118.396,124.961c0.636,0.004,1.083-0.402,1.534-0.776c0.138-0.11,0.254-0.241,0.349-0.333c-0.588-0.125-1.172-0.256-1.761-0.366
			c-0.378-0.071-0.766-0.175-1.142-0.151c-0.726,0.052-1.356,0.396-2.054,0.801C116.364,124.563,117.332,124.949,118.396,124.961z
			 M77.945,124.947c1.29,0.035,2.578,0.15,3.937,0.234c-0.291-0.133-0.537-0.24-0.779-0.356c-1.153-0.552-2.385-0.583-3.633-0.583
			c-1.099-0.002-2.166,0.211-3.241,0.368c-0.063,0.007-0.157,0.101-0.159,0.157c-0.009,0.294,0.007,0.587,0.016,0.936
			C75.338,125.105,76.631,124.912,77.945,124.947z M84.069,129.277c-1.507,0.561-3.043,0.989-4.664,1.043
			c-0.289,0.01-0.577,0.004-0.866,0.007c-0.005,0.029-0.011,0.058-0.017,0.087c0.244,0.082,0.487,0.174,0.733,0.246
			c0.403,0.114,0.813,0.202,1.212,0.322c0.642,0.193,1.258,0.092,1.876-0.098c0.919-0.279,1.721-0.774,2.517-1.336
			C84.548,129.1,84.542,129.1,84.069,129.277z M115.475,125.418c0.431-0.063,0.528-0.369,0.245-0.701
			c-0.059-0.066-0.125-0.129-0.186-0.195c-0.219-0.242-0.44-0.319-0.782-0.193c-0.589,0.216-1.212,0.168-1.824,0.07
			c-0.333-0.053-0.662-0.139-0.994-0.209c-0.067-0.016-0.136-0.033-0.206-0.037c-0.236-0.015-0.514-0.064-0.635,0.193
			c-0.137,0.295,0.129,0.444,0.336,0.539c0.464,0.219,0.944,0.396,1.419,0.59C113.739,125.604,114.607,125.543,115.475,125.418z
			 M123.408,117.783c0.511-1.539,0.391-3.096,0.074-4.649c-0.02-0.102-0.127-0.254-0.205-0.261c-0.12-0.008-0.314,0.051-0.367,0.143
			c-0.097,0.173-0.167,0.391-0.158,0.586c0.029,0.805,0.134,1.605,0.134,2.405c0,0.966-0.079,1.937-0.125,2.903
			c-0.006,0.116-0.009,0.229-0.016,0.342c0.036,0.009,0.072,0.018,0.109,0.026C123.04,118.78,123.241,118.287,123.408,117.783z
			 M84.364,127.103c0.49,1.173,1.291,2.104,2.303,2.862c0.189,0.143,0.385,0.282,0.591,0.398c0.077,0.043,0.189,0.03,0.287,0.041
			c-0.044-0.077-0.072-0.168-0.132-0.234c-0.314-0.344-0.66-0.662-0.949-1.025c-0.555-0.691-0.849-1.502-0.961-2.377
			c-0.034-0.268-0.135-0.398-0.412-0.445c-0.311-0.051-0.608-0.164-0.914-0.248c-0.028,0.022-0.057,0.047-0.086,0.068
			C84.178,126.465,84.237,126.797,84.364,127.103z M92.376,129.901c-0.386-0.212-0.773-0.427-1.167-0.628
			c-0.048-0.027-0.153,0.002-0.198,0.043c-0.71,0.666-1.413,1.34-2.115,2.012c-0.055,0.051-0.098,0.114-0.181,0.215
			C90.271,131.486,92.056,130.735,92.376,129.901z M86.869,128.699c0.45,0.66,1.048,1.162,1.726,1.58
			c0.232,0.139,0.419,0.151,0.548-0.157c-0.208-0.153-0.434-0.293-0.628-0.464c-0.471-0.412-0.731-0.963-0.977-1.521
			c-0.074-0.164-0.156-0.328-0.197-0.501c-0.143-0.65-0.575-0.927-1.25-0.952C86.186,127.432,86.458,128.096,86.869,128.699z
			 M75.007,127.822c0.187,0.435,0.382,0.553,0.809,0.487c0.944-0.144,1.841-0.43,2.674-0.896c0.193-0.107,0.35-0.276,0.523-0.42
			c-0.024-0.029-0.051-0.059-0.074-0.088C77.632,126.844,75.649,127.227,75.007,127.822z M93.153,130.33
			c-0.079-0.035-0.248-0.01-0.297,0.051c-0.739,0.928-1.759,1.34-2.869,1.592c-0.117,0.025-0.234,0.052-0.349,0.08
			c-0.028,0.007-0.056,0.02-0.098,0.035c1.065,0.619,3.826-0.256,4.327-1.359C93.618,130.586,93.395,130.439,93.153,130.33z
			 M87.63,131.459c-0.446-0.244-0.895-0.492-1.37-0.757c-0.479,0.661-1.118,1.143-1.952,1.476
			C85.731,132.702,87.159,132.378,87.63,131.459z M88.926,129.433c0.148,0.132,0.368,0.252,0.553,0.252
			c0.188-0.003,0.474-0.601,0.44-0.819c-0.018-0.113-0.042-0.248-0.107-0.334c-0.487-0.642-1.168-0.984-1.955-1.279
			C88.067,128.117,88.3,128.879,88.926,129.433z M83.081,131.818c1.018-0.072,1.874-0.503,2.535-1.289
			c0.057-0.068,0.081-0.254,0.037-0.291c-0.125-0.11-0.238-0.354-0.467-0.186c-0.852,0.635-1.785,1.12-2.858,1.479
			C82.554,131.811,82.841,131.836,83.081,131.818z"/>
		<g>
			<radialGradient id="SVGID_2_" cx="249.4189" cy="46.3853" r="23.6045" gradientUnits="userSpaceOnUse">
				<stop  offset="0" style="stop-color:#8CBB69"/>
				<stop  offset="0.7837" style="stop-color:#6BAD44"/>
			</radialGradient>
			<path class="st7" d="M258.556,24.762H240.53c-8.989,0-16.543,7.492-16.543,16.48v1.092c0,8.99,7.554,15.998,16.543,15.998h5.834
				l-3.66,9.677l13.941-9.677h1.91c8.986,0,16.295-7.008,16.295-15.998v-1.092C274.851,32.254,267.542,24.762,258.556,24.762z"/>
			<path class="st8" d="M240.369,42.694c0,2.002-1.622,3.626-3.621,3.626c-2.001,0-3.624-1.624-3.624-3.626
				c0-1.999,1.623-3.622,3.624-3.622C238.747,39.072,240.369,40.695,240.369,42.694z"/>
			<path class="st8" d="M253.126,42.694c0,2.002-1.623,3.626-3.624,3.626c-2.001,0-3.622-1.624-3.622-3.626
				c0-1.999,1.621-3.622,3.622-3.622C251.503,39.072,253.126,40.695,253.126,42.694z"/>
			<path class="st8" d="M265.878,42.694c0,2.002-1.619,3.626-3.621,3.626c-2.002,0-3.624-1.624-3.624-3.626
				c0-1.999,1.622-3.622,3.624-3.622C264.259,39.072,265.878,40.695,265.878,42.694z"/>
		</g>
		<g>
			<path class="st9" d="M90.811,24.699h18.024c8.989,0,16.347,7.231,16.347,16.219v1.093c0,8.989-7.357,16.122-16.347,16.122h-5.833
				l3.659,9.679l-13.939-9.679h-1.911c-8.987,0-16.267-7.133-16.267-16.122v-1.093C74.544,31.93,81.823,24.699,90.811,24.699z"/>
			<circle class="st8" cx="112.618" cy="42.371" r="3.623"/>
			<path class="st8" d="M96.24,42.371c0,2.002,1.622,3.623,3.625,3.623c1.998,0,3.622-1.621,3.622-3.623
				c0-2-1.624-3.621-3.622-3.621C97.862,38.75,96.24,40.371,96.24,42.371z"/>
			<circle class="st8" cx="87.109" cy="42.371" r="3.623"/>
		</g>
		<path d="M195.506,52.969l8.561,0.297l-8.091-3.559l-0.126-0.224l7.893-1.837l-6.836-1.438l-0.192-0.04l15.257-4.39l-15.58,0.692
			l7.719-3.709l-8.801,0.594l-0.2-0.173l6.194-5.22l-6.98,1.926l11.462-10.991l-13.406,7.814l5.106-6.86l-7.509,4.647l-0.471-0.288
			l2.902-7.566l-5.21,4.983l2.443-7.548l2.449-7.546l-8.099,13.337l1.162-8.502l-4.382,7.635l-0.297,0.078l-0.877-8.025
			l-2.271,6.836l-2.715-15.65l-0.939,15.532l-2.928-8.099l-0.34,8.834l-0.223,0.18l-4.536-6.696l1.164,7.165l-9.653-12.643
			l6.369,14.242l-6.3-5.856l3.79,8.012l-0.146,0.25l-7.134-3.895l4.327,5.836l-14.38-6.729l12.251,9.694l-8.323-2.252l7.061,5.277
			l0.078,0.298l-8.118-0.108l6.482,3.143l-15.828,0.695l15.288,2.94l-8.361,1.82l8.704,1.478l0.125,0.172l-7.228,3.703l7.228-0.275
			l-13.676,8.018l14.908-4.531l-6.605,5.547l8.399-2.783l0.249,0.167l-4.667,6.579l6.264-3.588l-8.443,13.489l11.071-10.914
			l-3.229,7.896l3.604-3.706v-0.541l-2.419,2.467l2.429-5.957c0.076-0.178,0.009-0.389-0.152-0.5
			c-0.072-0.045-0.158-0.07-0.238-0.07c-0.105,0.002-0.206,0.043-0.283,0.119l-8.574,8.447l6.582-10.514
			c0.101-0.16,0.079-0.37-0.052-0.504c-0.081-0.083-0.191-0.13-0.301-0.125c-0.069,0-0.137,0.018-0.199,0.055l-4.645,2.66
			l3.587-5.055c0.065-0.09,0.087-0.203,0.067-0.313c-0.02-0.109-0.08-0.203-0.172-0.266l-0.249-0.172
			c-0.072-0.045-0.152-0.07-0.237-0.067c-0.041,0-0.084,0.007-0.123,0.018l-6.359,2.107l4.964-4.164
			c0.149-0.123,0.188-0.338,0.094-0.511c-0.07-0.136-0.217-0.216-0.366-0.216c-0.035,0.002-0.076,0.004-0.113,0.018l-11.579,3.521
			l10.673-6.256c0.162-0.1,0.24-0.297,0.189-0.48c-0.054-0.177-0.218-0.304-0.4-0.304h-0.009l-5.372,0.212l5.573-2.85
			c0.107-0.057,0.187-0.153,0.21-0.273c0.031-0.116,0.002-0.238-0.066-0.334l-0.128-0.172c-0.061-0.086-0.155-0.146-0.26-0.161
			l-6.616-1.125l6.291-1.369c0.189-0.042,0.325-0.212,0.323-0.405c0-0.197-0.142-0.363-0.333-0.398l-11.85-2.279l12.332-0.543
			c0.188-0.006,0.343-0.141,0.383-0.327c0.038-0.185-0.052-0.37-0.225-0.45l-4.816-2.244l6.27,0.172h0.012
			c0.122,0,0.239-0.15,0.316-0.246c0.079-0.105,0.104-0.281,0.072-0.404l-0.078-0.318c-0.022-0.092-0.078-0.18-0.153-0.236
			l-5.336-3.998l6.251,1.688c0.035,0.009,0.072,0.013,0.111,0.013c0.148-0.004,0.291-0.088,0.361-0.227
			c0.088-0.175,0.041-0.386-0.111-0.51l-9.485-7.499l11.184,5.229c0.06,0.029,0.119,0.042,0.182,0.039
			c0.117,0,0.233-0.052,0.311-0.151c0.12-0.146,0.125-0.353,0.014-0.505l-3.214-4.334l5.497,3c0.064,0.036,0.132,0.052,0.198,0.052
			c0.141-0.003,0.276-0.073,0.354-0.204l0.141-0.25c0.069-0.117,0.076-0.26,0.017-0.385l-2.875-6.078l4.735,4.4
			c0.081,0.071,0.182,0.111,0.286,0.106c0.082,0,0.163-0.026,0.233-0.074c0.159-0.112,0.214-0.324,0.137-0.501l-4.929-11.017
			l7.508,9.832c0.082,0.107,0.205,0.165,0.335,0.162c0.053,0,0.103-0.01,0.155-0.032c0.173-0.075,0.274-0.256,0.245-0.445
			l-0.867-5.325l3.492,5.156c0.064,0.092,0.165,0.156,0.28,0.176c0.022,0.003,0.044,0.003,0.067,0.003
			c0.09,0,0.179-0.034,0.251-0.092l0.219-0.175c0.092-0.074,0.149-0.184,0.154-0.305l0.263-6.732l2.211,6.119
			c0.061,0.169,0.22,0.276,0.392,0.271c0.017,0,0.036-0.002,0.053-0.002c0.193-0.029,0.341-0.188,0.354-0.385l0.722-12.009
			l2.114,12.064c0.032,0.186,0.185,0.23,0.373,0.23h0.035c0.176,0,0.331-0.003,0.388-0.173l1.674-4.994l0.677,6.182
			c0.013,0.12,0.077,0.243,0.174,0.312c0.072,0.047,0.156,0.082,0.239,0.078c0.034,0,0.067,0,0.104-0.011l0.291-0.075
			c0.106-0.029,0.198-0.098,0.253-0.194l3.331-5.806l-0.877,6.413c-0.027,0.194,0.087,0.379,0.268,0.446
			c0.051,0.015,0.099,0.021,0.146,0.021c0.136,0,0.27-0.076,0.345-0.197l6.273-10.326l-3.809,11.74
			c-0.055,0.18,0.017,0.377,0.176,0.479c0.068,0.04,0.146,0.061,0.224,0.061c0.101-0.002,0.199-0.041,0.28-0.114l3.881-3.717
			l-2.246,5.854c-0.069,0.184,0,0.395,0.17,0.498l0.473,0.289c0.069,0.043,0.146,0.063,0.221,0.063
			c0.076-0.004,0.146-0.023,0.212-0.063l5.671-3.512l-3.819,5.125c-0.114,0.162-0.106,0.375,0.024,0.521
			c0.081,0.09,0.198,0.138,0.31,0.138c0.073-0.002,0.14-0.02,0.202-0.059l10.424-6.07l-8.97,8.601
			c-0.136,0.129-0.164,0.339-0.071,0.499c0.075,0.135,0.216,0.212,0.365,0.21c0.032,0,0.068-0.009,0.1-0.015l5.171-1.428
			l-4.756,4.012c-0.094,0.077-0.146,0.191-0.146,0.311c0,0.12,0.052,0.236,0.145,0.314l0.2,0.129
			c0.074,0.066,0.17,0.057,0.272,0.057h0.019l6.675-0.41l-5.798,2.809c-0.175,0.085-0.27,0.219-0.223,0.406
			c0.048,0.186,0.216,0.246,0.407,0.246h0.009l12.114-0.463l-11.918,3.469c-0.183,0.051-0.305,0.236-0.298,0.425
			c0.007,0.188,0.142,0.358,0.326,0.399l5.213,1.102l-6.089,1.419c-0.127,0.028-0.231,0.119-0.282,0.241
			c-0.05,0.113-0.046,0.254,0.02,0.365l0.125,0.22c0.047,0.08,0.113,0.138,0.193,0.173l6.134,2.703l-6.429-0.219H195.5
			c-0.19,0-0.352,0.129-0.393,0.311c-0.049,0.189,0.045,0.384,0.223,0.466l10.953,5.132l-12.148-2.508
			c-0.035-0.006-0.064-0.006-0.093-0.006c-0.153,0.002-0.295,0.088-0.364,0.228c-0.08,0.173-0.038,0.376,0.105,0.497l4.126,3.465
			l-5.987-1.607c-0.038-0.008-0.073-0.01-0.113-0.01c-0.176,0.002-0.336,0.119-0.389,0.296l-0.071,0.249
			c-0.036,0.13-0.007,0.265,0.073,0.369l4.174,5.254l-5.634-3.176c-0.065-0.035-0.136-0.053-0.207-0.053
			c-0.114,0-0.224,0.053-0.308,0.145c-0.125,0.146-0.13,0.361-0.015,0.519l7.314,9.548l-9.53-7.783
			c-0.077-0.064-0.173-0.094-0.267-0.094c-0.085,0.004-0.17,0.029-0.237,0.08c-0.151,0.115-0.207,0.316-0.136,0.487l2.049,4.935
			l-2.653-2.426l-0.064,0.496l3.808,3.484l-2.759-6.646l12.256,10.016l-9.453-12.346l7.463,4.207l-5.477-6.903l0.069-0.246
			l7.777,2.084l-5.544-4.658l15.565,3.206L195.506,52.969z"/>
		<path class="st10" d="M192.9,45.207c0-10.584-8.577-19.16-19.158-19.16c-10.582,0-19.16,8.576-19.16,19.16
			c0,7.492,4.307,13.982,10.579,17.131v4.377c0,1.039,0.813,1.881,1.815,1.881h14.147c1.002,0,1.815-0.842,1.815-1.881v-4.699
			C188.873,58.76,192.9,52.451,192.9,45.207z"/>
		<rect x="165.16" y="63.996" class="st11" width="17.737" height="17.356"/>
		<path class="st4" d="M164.261,80.756c0.7,3.582,4.785,6.334,9.721,6.334c4.938,0,9.022-2.752,9.722-6.334H164.261z"/>
		<path class="st4" d="M186.068,65.586c0,0.877-0.981,1.589-2.194,1.589h-19.612c-1.213,0-2.194-0.712-2.194-1.589l0,0
			c0-0.879,0.982-1.59,2.194-1.59h19.612C185.087,63.996,186.068,64.707,186.068,65.586L186.068,65.586z"/>
		<path class="st4" d="M185.983,70.914c0,0.879-0.984,1.588-2.194,1.588h-19.614c-1.211,0-2.193-0.709-2.193-1.588l0,0
			c0-0.877,0.982-1.59,2.193-1.59h19.614C184.999,69.324,185.983,70.037,185.983,70.914L185.983,70.914z"/>
		<path class="st4" d="M186.189,76.548c0,0.879-0.982,1.589-2.196,1.589h-19.611c-1.212,0-2.193-0.71-2.193-1.589l0,0
			c0-0.876,0.982-1.589,2.193-1.589h19.611C185.206,74.959,186.189,75.672,186.189,76.548L186.189,76.548z"/>
		<path class="st4" d="M180.474,44.325c0.047-0.052,0.072-0.122,0.075-0.194c0-0.176-0.141-0.318-0.316-0.322
			c-0.563,0-0.824,0.457-1.034,0.822c-0.18,0.31-0.299,0.5-0.475,0.5c-0.179-0.002-0.295-0.195-0.467-0.512
			c-0.206-0.369-0.457-0.832-1.02-0.838l0,0c-0.564,0-0.826,0.455-1.035,0.82c-0.178,0.312-0.299,0.502-0.473,0.502
			c-0.178-0.004-0.297-0.195-0.469-0.512c-0.204-0.371-0.459-0.832-1.018-0.837c-0.565,0-0.826,0.453-1.036,0.819
			c-0.179,0.311-0.298,0.501-0.473,0.501c-0.182-0.003-0.297-0.196-0.469-0.511c-0.204-0.371-0.458-0.834-1.021-0.838
			c-0.563,0-0.824,0.453-1.033,0.818c-0.178,0.311-0.299,0.5-0.474,0.5c-0.183,0-0.296-0.279-0.471-0.594
			c-0.202-0.37-0.458-0.926-1.018-0.926h-0.001l0,0h-0.002c-0.174,0-0.315,0.226-0.317,0.402c0,0.077,0.028,0.188,0.072,0.243
			c0.304,0.733,2.579,6.384,3.195,12.169c0.459,4.268-0.222,9.861-0.229,9.916c-0.011,0.08,0.011,0.166,0.061,0.229
			c0.049,0.065,0.123,0.089,0.204,0.1l0.013-0.015h0.022c0.155,0,0.286-0.096,0.304-0.247c0.006-0.056,0.696-5.683,0.232-10.034
			c-0.467-4.371-1.867-8.652-2.68-10.859c0.154,0.145,0.347,0.248,0.605,0.25c0.564,0,0.825-0.453,1.035-0.819
			c0.178-0.311,0.299-0.497,0.473-0.497c0.184,0,0.297,0.193,0.471,0.508c0.202,0.37,0.457,0.834,1.02,0.841
			c0.563,0,0.823-0.455,1.033-0.821c0.178-0.313,0.299-0.5,0.473-0.5c0.178,0.002,0.295,0.193,0.469,0.51
			c0.203,0.369,0.457,0.834,1.018,0.838c0.564,0,0.825-0.453,1.034-0.82c0.18-0.312,0.3-0.5,0.476-0.5
			c0.182,0.002,0.295,0.195,0.467,0.51c0.205,0.371,0.459,0.834,1.02,0.839c0.278,0,0.483-0.111,0.644-0.269
			c-0.813,2.179-2.244,6.45-2.761,10.846c-0.55,4.667-0.117,9.941-0.113,9.992c0.013,0.158,0.146,0.234,0.304,0.234h0.009
			l0.016,0.045c0.082-0.006,0.154-0.021,0.208-0.086c0.053-0.06,0.077-0.127,0.071-0.211c-0.006-0.051-0.429-5.323,0.11-9.911
			C177.88,50.644,180.172,45.047,180.474,44.325z M179.941,44.645L179.941,44.645c-0.013,0.025-0.023,0.049-0.032,0.078
			C179.918,44.693,179.928,44.67,179.941,44.645z M179.898,44.131L179.898,44.131c-0.217,0.128-0.361,0.373-0.499,0.615
			c-0.017,0.023-0.028,0.049-0.043,0.072c0.015-0.024,0.026-0.049,0.043-0.072C179.537,44.504,179.682,44.259,179.898,44.131z
			 M179.717,44.559c-0.011,0.014-0.02,0.028-0.029,0.041C179.696,44.587,179.706,44.572,179.717,44.559z M179.648,44.664
			c-0.033,0.055-0.064,0.109-0.097,0.168C179.583,44.773,179.614,44.719,179.648,44.664z M179.443,45.014
			c-0.018,0.023-0.03,0.052-0.046,0.073C179.413,45.065,179.426,45.037,179.443,45.014z M178.721,45.361L178.721,45.361
			L178.721,45.361c-0.082-0.002-0.151-0.021-0.217-0.055C178.569,45.34,178.639,45.359,178.721,45.361z M176.118,45.145
			c-0.106,0.114-0.227,0.189-0.389,0.189l0,0C175.891,45.334,176.012,45.259,176.118,45.145z M175.724,45.347h0.003H175.724
			c-0.201,0-0.342-0.12-0.463-0.288C175.382,45.227,175.523,45.347,175.724,45.347z M173.956,44.047
			c-0.082,0.039-0.154,0.094-0.219,0.159C173.802,44.141,173.874,44.086,173.956,44.047z M172.95,45.254
			c-0.064,0.032-0.135,0.051-0.216,0.051l0,0C172.816,45.305,172.886,45.286,172.95,45.254z M172.513,45.252
			c-0.094-0.053-0.175-0.137-0.246-0.236C172.338,45.115,172.419,45.199,172.513,45.252z M171.74,44.188
			c-0.127-0.135-0.284-0.23-0.495-0.23c-0.002,0-0.002,0-0.002,0s0,0,0.002,0C171.456,43.957,171.613,44.053,171.74,44.188z
			 M171.237,43.957L171.237,43.957c-0.104,0-0.195,0.022-0.279,0.061C171.042,43.979,171.133,43.957,171.237,43.957z
			 M169.066,44.423c0.178,0.321,0.078,0.645,0.401,0.645l0.27-0.244h-0.004C169.411,44.823,169.244,44.744,169.066,44.423
			 M170.253,50.238c-0.18-0.675-0.367-1.314-0.551-1.91C169.886,48.924,170.073,49.563,170.253,50.238
			c0.497,1.857,0.949,3.967,1.177,6.1c0.144,1.344,0.175,2.814,0.149,4.207c-0.003,0.277-0.011,0.55-0.019,0.82
			c0.008-0.271,0.016-0.543,0.019-0.82c0.025-1.393-0.006-2.863-0.149-4.207C171.202,54.205,170.75,52.096,170.253,50.238z
			 M171.261,66.375L171.261,66.375c0.015,0.003,0.026-0.004,0.039-0.01c-0.011,0.006-0.02,0.013-0.032,0.013L171.261,66.375z
			 M171.34,66.314c-0.001,0.02-0.011,0.035-0.024,0.046C171.329,66.35,171.339,66.332,171.34,66.314
			c0.003-0.01,0.021-0.153,0.047-0.408C171.361,66.161,171.343,66.305,171.34,66.314z M171.403,65.74
			c0.013-0.117,0.026-0.252,0.041-0.402C171.43,65.488,171.416,65.623,171.403,65.74z M168.756,44.46
			c0.008,0.013,0.017,0.024,0.024,0.038C168.773,44.484,168.764,44.473,168.756,44.46L168.756,44.46z M169.732,45.453
			c-0.158-0.002-0.287-0.057-0.395-0.139C169.444,45.396,169.573,45.451,169.732,45.453c0.003,0,0.005,0,0.005,0h0.002
			C169.738,45.453,169.734,45.453,169.732,45.453z M170.773,44.412c-0.049,0.065-0.096,0.14-0.141,0.217
			c-0.023,0.039-0.044,0.077-0.068,0.119c-0.049,0.086-0.101,0.173-0.152,0.252c0.052-0.079,0.104-0.166,0.152-0.252
			c0.024-0.042,0.045-0.08,0.068-0.119C170.677,44.552,170.724,44.478,170.773,44.412c0.05-0.064,0.104-0.123,0.16-0.171
			C170.876,44.289,170.822,44.348,170.773,44.412z M171.237,44.131L171.237,44.131c-0.04,0-0.078,0.006-0.112,0.014
			C171.159,44.137,171.197,44.131,171.237,44.131z M171.631,44.325c-0.053-0.058-0.108-0.106-0.173-0.142
			C171.523,44.219,171.578,44.268,171.631,44.325c0.104,0.117,0.19,0.272,0.279,0.434C171.821,44.598,171.735,44.442,171.631,44.325
			z M172.728,45.479c-0.053,0-0.104-0.006-0.148-0.016C172.624,45.473,172.675,45.479,172.728,45.479c0,0,0.004,0,0.007,0l0,0
			C172.732,45.479,172.73,45.479,172.728,45.479z M173.015,45.419c0.08-0.04,0.152-0.097,0.217-0.162
			C173.167,45.322,173.095,45.379,173.015,45.419z M173.323,45.152c0.058-0.077,0.11-0.16,0.162-0.248
			C173.434,44.992,173.381,45.075,173.323,45.152z M174.904,44.797c-0.176-0.322-0.344-0.623-0.667-0.623h-0.004h0.004
			C174.561,44.174,174.729,44.475,174.904,44.797c0.073,0.131,0.146,0.266,0.232,0.379
			C175.051,45.063,174.978,44.928,174.904,44.797z M175.727,45.508h0.004l0,0H175.727z M177.234,44.174c-0.002,0-0.003,0-0.003,0
			c-0.144,0-0.255,0.061-0.353,0.151c0.098-0.091,0.209-0.151,0.351-0.151C177.23,44.174,177.232,44.174,177.234,44.174
			c0.281,0,0.445,0.238,0.601,0.51C177.68,44.412,177.516,44.174,177.234,44.174z M178.719,45.347c-0.161,0-0.287,0.042-0.396-0.042
			c0.109,0.084,0.235,0.184,0.396,0.184c0.03,0,0.056-0.076,0.083-0.08c-0.026,0.004-0.049-0.062-0.078-0.062H178.719z
			 M179.066,45.436c-0.02,0.013-0.041,0.029-0.065,0.039C179.025,45.465,179.047,45.448,179.066,45.436z M178.943,45.494
			c-0.024,0.009-0.046,0.02-0.073,0.025C178.898,45.514,178.919,45.503,178.943,45.494z M179.117,45.403
			c0.021-0.013,0.039-0.032,0.06-0.05C179.156,45.371,179.139,45.391,179.117,45.403z M179.22,45.314
			c0.018-0.021,0.036-0.041,0.055-0.063C179.256,45.273,179.237,45.294,179.22,45.314z M179.363,45.133
			c-0.018,0.025-0.032,0.052-0.053,0.074C179.331,45.185,179.346,45.158,179.363,45.133z M179.634,45.434
			c-0.106,0.273-0.221,0.588-0.344,0.938C179.413,46.021,179.527,45.707,179.634,45.434z M179.162,46.73
			c-0.128,0.368-0.263,0.77-0.401,1.197C178.9,47.5,179.034,47.099,179.162,46.73z M176.717,66.363
			c0.002,0.02,0.013,0.035,0.026,0.047C176.73,66.398,176.719,66.383,176.717,66.363z M176.79,66.43
			c-0.013,0-0.023-0.008-0.031-0.012c0.012,0.006,0.021,0.012,0.036,0.01l0,0C176.792,66.43,176.791,66.43,176.79,66.43z"/>
		<polygon class="st6" points="263.927,88.558 267.095,89.086 270.281,90.071 273.331,91.462 276.254,93.184 278.936,95.234 
			281.412,97.611 283.612,100.275 285.457,103.262 286.959,106.38 288.295,109.754 289.403,113.23 290.204,116.84 290.515,120.426 
			290.3,124.025 289.45,127.554 287.923,131.088 286.468,133.949 284.564,136.713 282.335,139.232 279.776,141.551 276.939,143.479 
			273.966,145.063 270.862,146.227 267.747,146.9 262.854,147.785 257.862,148.406 252.738,148.604 247.632,148.466 242.544,147.99 
			237.55,147.143 232.717,146.001 228.124,144.611 224.538,143.383 221.046,141.783 217.685,139.813 214.566,137.517 
			211.726,134.859 209.353,131.885 207.409,128.592 206.083,124.996 205.143,121.939 204.619,118.832 204.443,115.553 
			204.675,112.332 205.285,109.128 206.375,106.101 207.9,103.354 209.937,100.938 211.651,98.916 213.608,97.357 215.738,96.073 
			218.011,94.98 220.314,94.004 222.724,93.145 225.064,92.246 227.368,91.231 230.163,90.165 232.95,89.324 235.801,88.677 
			238.684,88.141 241.525,87.716 244.47,87.447 247.452,87.182 250.546,86.996 252.15,87.188 253.875,87.309 255.566,87.353 
			257.327,87.441 258.977,87.523 260.659,87.718 262.334,88.026 263.927,88.558 		"/>
		<path class="st9" d="M276.319,107.453l-2.691,0.132c-0.444-1.602-1.114-3.008-1.971-4.245l0.004-0.08l1.809-2.036
			c0.402-0.444,0.367-1.147-0.076-1.551l-3.474-3.155c-0.444-0.4-1.13-0.375-1.532,0.07l-1.916,2
			c-1.36-0.738-2.762-1.245-4.398-1.509v-0.013l-0.133-2.689c-0.029-0.6-0.311-0.821-0.91-0.793l-4.679,0.23
			c-0.601,0.03-0.923,0.282-0.893,0.88l0.131,2.692c-1.603,0.444-2.939,1.111-4.177,1.968l-0.048-0.007l-2.015-1.809
			c-0.444-0.402-1.14-0.367-1.542,0.075l-3.151,3.474c-0.402,0.443-0.371,1.13,0.073,1.531l2.002,1.943
			c-0.739,1.356-1.244,2.781-1.508,4.42l-0.01,0.001l-2.692,0.133c-0.6,0.029-0.963,0.271-0.933,0.868l0.23,4.681
			c0.028,0.598,0.422,0.963,1.018,0.931l2.693-0.131c0.445,1.603,1.109,2.916,1.968,4.154l-0.009,0.035l-1.809,2.01
			c-0.403,0.443-0.367,1.137,0.076,1.537l3.473,3.152c0.443,0.4,1.131,0.371,1.532-0.075l1.871-2.001
			c1.359,0.742,2.715,1.25,4.354,1.511v0.015l0.131,2.69c0.031,0.6,0.41,1.002,1.01,0.973l4.681-0.229
			c0.599-0.031,0.821-0.465,0.792-1.063l-0.133-2.692c1.604-0.442,2.986-1.112,4.225-1.968l0.068,0.004l2.027,1.81
			c0.443,0.401,1.143,0.368,1.547-0.079l3.154-3.471c0.403-0.445,0.373-1.131-0.072-1.531l-1.996-1.85
			c0.738-1.359,1.249-2.69,1.512-4.33h0.014l2.689-0.131c0.599-0.029,0.863-0.451,0.832-1.051l-0.228-4.682
			C277.213,107.607,276.918,107.424,276.319,107.453z M257.164,117.762c-0.065-0.024-0.132-0.053-0.197-0.08
			c-0.202-0.084-0.399-0.18-0.589-0.281c-0.094-0.053-0.19-0.107-0.281-0.162c-0.094-0.057-0.184-0.115-0.273-0.176
			c-0.046-0.03-0.09-0.063-0.135-0.093c-0.253-0.182-0.496-0.38-0.725-0.593c-0.227-0.214-0.439-0.443-0.636-0.687
			c-0.076-0.097-0.153-0.196-0.227-0.3c-0.219-0.307-0.413-0.631-0.581-0.972c-0.388-0.797-0.625-1.684-0.672-2.627
			c-0.098-1.977,0.67-3.797,1.963-5.097c0.114-0.113,0.232-0.225,0.354-0.331c0.043-0.034,0.084-0.071,0.125-0.107
			c0.086-0.067,0.17-0.133,0.256-0.201c0.26-0.194,0.535-0.369,0.822-0.527c0.096-0.053,0.193-0.102,0.293-0.148
			c0.789-0.381,1.668-0.613,2.598-0.659c1.105-0.054,2.159,0.159,3.104,0.587c0.1,0.046,0.197,0.092,0.295,0.14
			c0.145,0.075,0.288,0.154,0.426,0.241c0.094,0.055,0.185,0.111,0.273,0.173c0.044,0.028,0.09,0.062,0.134,0.093
			c0.089,0.062,0.175,0.128,0.261,0.193c0.127,0.102,0.251,0.205,0.371,0.313c0.079,0.072,0.158,0.146,0.233,0.224
			c0.192,0.189,0.372,0.393,0.54,0.605c0.067,0.086,0.131,0.17,0.194,0.259c0.061,0.087,0.125,0.177,0.183,0.271
			c0.087,0.137,0.17,0.277,0.249,0.422c0.47,0.861,0.757,1.84,0.809,2.888c0.028,0.582-0.017,1.151-0.131,1.695
			c-0.021,0.109-0.046,0.218-0.072,0.323c-0.043,0.162-0.091,0.322-0.143,0.479c-0.035,0.104-0.073,0.205-0.114,0.309
			c-0.025,0.066-0.055,0.133-0.083,0.199c-0.058,0.135-0.119,0.267-0.185,0.394c-0.051,0.098-0.102,0.191-0.154,0.285
			c-0.044,0.077-0.089,0.151-0.134,0.224c-0.042,0.063-0.082,0.127-0.126,0.19c-0.028,0.045-0.061,0.092-0.092,0.134
			c-0.063,0.087-0.127,0.173-0.192,0.261c-0.034,0.041-0.068,0.085-0.103,0.127c-0.069,0.08-0.14,0.164-0.213,0.244
			c-0.035,0.041-0.071,0.08-0.109,0.119c-0.147,0.155-0.306,0.305-0.467,0.446c-0.042,0.036-0.082,0.072-0.127,0.104
			c-0.082,0.069-0.165,0.139-0.252,0.202c-0.088,0.065-0.177,0.127-0.266,0.188c-0.045,0.031-0.09,0.06-0.135,0.09
			c-0.094,0.059-0.185,0.115-0.279,0.17c-0.897,0.516-1.928,0.834-3.033,0.889c-0.888,0.045-1.746-0.09-2.538-0.361
			C257.309,117.814,257.236,117.787,257.164,117.762z"/>
	</g>
	<g id="XMLID_8_">
		<g id="XMLID_12_">
			<line id="XMLID_14_" class="st12" x1="49.354" y1="175.474" x2="45.627" y2="179.2"/>
			<line id="XMLID_13_" class="st12" x1="40.538" y1="184.289" x2="36.812" y2="188.016"/>
		</g>
		<g id="XMLID_9_">
			<line id="XMLID_11_" class="st12" x1="36.812" y1="175.474" x2="40.538" y2="179.2"/>
			<line id="XMLID_10_" class="st12" x1="45.627" y1="184.289" x2="49.354" y2="188.016"/>
		</g>
	</g>
	<g id="XMLID_1_">
		<g id="XMLID_5_">
			<line id="XMLID_7_" class="st12" x1="299.501" y1="54.691" x2="295.773" y2="58.418"/>
			<line id="XMLID_6_" class="st12" x1="290.685" y1="63.507" x2="286.958" y2="67.233"/>
		</g>
		<g id="XMLID_2_">
			<line id="XMLID_4_" class="st12" x1="286.958" y1="54.691" x2="290.685" y2="58.418"/>
			<line id="XMLID_3_" class="st12" x1="295.773" y1="63.507" x2="299.501" y2="67.233"/>
		</g>
	</g>
</g>
</svg>