<!-- Generator: Adobe Illustrator 17.0.0, SVG Export Plug-In  -->
<svg version="1.1"
	 xmlns="http://www.w3.org/2000/svg" xmlns:xlink="http://www.w3.org/1999/xlink" xmlns:a="http://ns.adobe.com/AdobeSVGViewerExtensions/3.0/"
	 x="0px" y="0px" width="107.823px" height="152.544px" viewBox="0 0 107.823 152.544" enable-background="new 0 0 107.823 152.544"
	 xml:space="preserve">
<defs>
</defs>
<g>
	<g>
		<polygon fill="#FFFFFF" points="84.234,0.619 0.619,0.619 0.619,151.925 107.204,151.925 107.204,23.591 		"/>
		<path fill="#231F20" d="M107.204,152.544H0.619c-0.341,0-0.619-0.274-0.619-0.619V0.619c0-0.343,0.278-0.618,0.619-0.618h83.616
			c0.164,0,0.321,0.064,0.436,0.183l22.973,22.971c0.116,0.115,0.179,0.274,0.179,0.437v128.334
			C107.822,152.269,107.546,152.544,107.204,152.544z M1.237,151.307h105.35V23.847L83.979,1.237H1.237V151.307z"/>
	</g>
	<g>
		<path fill="#231F20" d="M93.428,87.666H9.805c-0.342,0-0.617-0.277-0.617-0.615c0-0.345,0.275-0.621,0.617-0.621h83.623
			c0.343,0,0.622,0.276,0.622,0.621C94.049,87.388,93.771,87.666,93.428,87.666z"/>
	</g>
	<g>
		<path fill="#231F20" d="M93.428,100.357H9.805c-0.342,0-0.617-0.277-0.617-0.617c0-0.342,0.275-0.619,0.617-0.619h83.623
			c0.343,0,0.622,0.277,0.622,0.619C94.049,100.08,93.771,100.357,93.428,100.357z"/>
	</g>
	<g>
		<path fill="#231F20" d="M39.813,113.048H9.805c-0.342,0-0.617-0.276-0.617-0.618c0-0.344,0.275-0.619,0.617-0.619h30.008
			c0.341,0,0.616,0.275,0.616,0.619C40.429,112.771,40.154,113.048,39.813,113.048z"/>
	</g>
	<g>
		<polygon fill="#FFFFFF" points="84.234,23.591 107.204,23.591 84.234,0.619 		"/>
		<path fill="#231F20" d="M107.204,24.209H84.234c-0.343,0-0.619-0.275-0.619-0.618V0.619c0-0.25,0.152-0.475,0.384-0.573
			c0.228-0.094,0.495-0.041,0.671,0.138l22.973,22.971c0.177,0.178,0.228,0.441,0.132,0.674
			C107.68,24.059,107.453,24.209,107.204,24.209z M84.853,22.97h20.861L84.853,2.11V22.97z"/>
	</g>
	<g>
		<radialGradient id="SVGID_1_" cx="51.618" cy="32.3606" r="20.2577" gradientUnits="userSpaceOnUse">
			<stop  offset="0" style="stop-color:#8CBB69"/>
			<stop  offset="0.7837" style="stop-color:#6BAD44"/>
		</radialGradient>
		<circle fill="url(#SVGID_1_)" cx="51.618" cy="32.361" r="20.258"/>
		<path fill="#231F20" d="M51.616,53.233c-11.509,0-20.872-9.362-20.872-20.872c0-11.509,9.363-20.874,20.872-20.874
			c11.512,0,20.877,9.365,20.877,20.874C72.493,43.871,63.127,53.233,51.616,53.233z M51.616,12.723
			c-10.827,0-19.635,8.81-19.635,19.638c0,10.83,8.808,19.638,19.635,19.638c10.83,0,19.639-8.808,19.639-19.638
			C71.255,21.533,62.446,12.723,51.616,12.723z"/>
	</g>
	<g>
		<path fill="#231F20" d="M93.428,75.5H31.36c-0.341,0-0.616-0.276-0.616-0.618c0-0.342,0.275-0.618,0.616-0.618h62.068
			c0.343,0,0.622,0.276,0.622,0.618C94.049,75.223,93.771,75.5,93.428,75.5z"/>
	</g>
	<g>
		<path fill="#231F20" d="M93.428,62.584H31.36c-0.341,0-0.616-0.276-0.616-0.617c0-0.344,0.275-0.619,0.616-0.619h62.068
			c0.343,0,0.622,0.275,0.622,0.619C94.049,62.307,93.771,62.584,93.428,62.584z"/>
	</g>
	<g>
		<rect x="9.805" y="61.967" fill="#144B8B" width="12.915" height="12.915"/>
		<path fill="#231F20" d="M22.72,75.5H9.805c-0.342,0-0.617-0.276-0.617-0.618V61.967c0-0.344,0.275-0.619,0.617-0.619H22.72
			c0.342,0,0.619,0.275,0.619,0.619v12.915C23.338,75.223,23.061,75.5,22.72,75.5z M10.422,74.263H22.1v-11.68H10.422V74.263z"/>
	</g>
	<g>
		<g>
			<path fill="#144B8B" d="M19.133,143.267v-8.752h6.489v1.48H20.9v1.94h4.394v1.475H20.9v2.382h4.889v1.475H19.133z"/>
			<path fill="#144B8B" d="M30.445,134.515h1.761v5.54c0,0.725-0.064,1.281-0.191,1.672c-0.171,0.51-0.482,0.918-0.932,1.227
				s-1.042,0.463-1.779,0.463c-0.864,0-1.528-0.242-1.994-0.726c-0.466-0.483-0.701-1.192-0.705-2.128l1.666-0.191
				c0.02,0.502,0.093,0.855,0.221,1.063c0.191,0.314,0.481,0.472,0.872,0.472c0.394,0,0.673-0.112,0.836-0.337
				s0.245-0.691,0.245-1.4V134.515z"/>
			<path fill="#144B8B" d="M34.087,143.267v-8.752h6.489v1.48h-4.722v1.94h4.394v1.475h-4.394v2.382h4.889v1.475H34.087z"/>
			<path fill="#144B8B" d="M47.841,140.05l1.713,0.543c-0.263,0.955-0.7,1.665-1.311,2.129c-0.611,0.463-1.386,0.695-2.325,0.695
				c-1.162,0-2.117-0.397-2.866-1.191c-0.748-0.794-1.122-1.879-1.122-3.256c0-1.457,0.376-2.588,1.128-3.395
				c0.752-0.806,1.741-1.208,2.967-1.208c1.07,0,1.94,0.315,2.609,0.948c0.398,0.375,0.696,0.912,0.896,1.612l-1.75,0.418
				c-0.104-0.454-0.319-0.812-0.647-1.074c-0.329-0.263-0.728-0.395-1.197-0.395c-0.649,0-1.175,0.233-1.579,0.698
				c-0.404,0.466-0.606,1.22-0.606,2.263c0,1.106,0.199,1.895,0.597,2.364s0.916,0.704,1.552,0.704c0.47,0,0.874-0.149,1.212-0.447
				C47.451,141.16,47.694,140.69,47.841,140.05z"/>
			<path fill="#144B8B" d="M51.059,134.515h1.767v4.74c0,0.752,0.022,1.24,0.066,1.463c0.075,0.358,0.255,0.646,0.54,0.862
				s0.674,0.325,1.167,0.325c0.501,0,0.879-0.103,1.134-0.308c0.255-0.204,0.408-0.456,0.46-0.755
				c0.051-0.299,0.078-0.794,0.078-1.486v-4.842h1.767v4.597c0,1.051-0.047,1.793-0.143,2.227c-0.096,0.435-0.271,0.801-0.528,1.099
				c-0.257,0.299-0.6,0.537-1.03,0.714s-0.991,0.266-1.684,0.266c-0.835,0-1.469-0.097-1.901-0.29
				c-0.432-0.192-0.773-0.443-1.023-0.752c-0.251-0.309-0.416-0.632-0.496-0.97c-0.116-0.502-0.173-1.242-0.173-2.221V134.515z"/>
			<path fill="#144B8B" d="M65.5,140.05l1.713,0.543c-0.263,0.955-0.7,1.665-1.311,2.129c-0.611,0.463-1.386,0.695-2.325,0.695
				c-1.162,0-2.117-0.397-2.866-1.191c-0.748-0.794-1.122-1.879-1.122-3.256c0-1.457,0.376-2.588,1.128-3.395
				c0.752-0.806,1.741-1.208,2.967-1.208c1.07,0,1.94,0.315,2.609,0.948c0.398,0.375,0.696,0.912,0.896,1.612l-1.75,0.418
				c-0.104-0.454-0.319-0.812-0.647-1.074c-0.329-0.263-0.728-0.395-1.197-0.395c-0.649,0-1.175,0.233-1.579,0.698
				c-0.404,0.466-0.606,1.22-0.606,2.263c0,1.106,0.199,1.895,0.597,2.364s0.916,0.704,1.552,0.704c0.47,0,0.874-0.149,1.212-0.447
				C65.109,141.16,65.352,140.69,65.5,140.05z"/>
			<path fill="#144B8B" d="M68.675,143.267v-8.752h1.767v8.752H68.675z"/>
			<path fill="#144B8B" d="M71.768,138.945c0-0.892,0.133-1.64,0.4-2.244c0.199-0.446,0.471-0.846,0.815-1.2
				s0.721-0.617,1.131-0.788c0.545-0.23,1.174-0.346,1.886-0.346c1.29,0,2.321,0.399,3.096,1.199c0.774,0.8,1.161,1.912,1.161,3.337
				c0,1.413-0.384,2.519-1.152,3.316s-1.795,1.197-3.081,1.197c-1.301,0-2.336-0.397-3.104-1.191S71.768,140.339,71.768,138.945z
				 M73.588,138.886c0,0.991,0.229,1.742,0.687,2.254c0.458,0.511,1.039,0.767,1.743,0.767s1.283-0.254,1.734-0.761
				c0.452-0.508,0.677-1.269,0.677-2.283c0-1.003-0.22-1.752-0.66-2.245c-0.439-0.493-1.023-0.74-1.752-0.74
				s-1.315,0.25-1.761,0.749C73.811,137.126,73.588,137.879,73.588,138.886z M74.926,134.014l0.824-1.785h1.88l-1.642,1.785H74.926z
				"/>
			<path fill="#144B8B" d="M81.653,143.267v-8.752h1.719l3.582,5.845v-5.845h1.642v8.752h-1.773l-3.528-5.707v5.707H81.653z"/>
		</g>
	</g>
	<g>
		<path fill="#FFFFFF" d="M46.201,36.423l3.13-0.38c0.1,0.798,0.368,1.408,0.806,1.83c0.437,0.422,0.966,0.633,1.588,0.633
			c0.667,0,1.229-0.253,1.686-0.76c0.457-0.506,0.685-1.188,0.685-2.048c0-0.813-0.219-1.458-0.656-1.934
			c-0.437-0.476-0.97-0.713-1.6-0.713c-0.414,0-0.909,0.08-1.484,0.241l0.357-2.635c0.875,0.022,1.542-0.167,2.002-0.57
			c0.46-0.402,0.69-0.938,0.69-1.604c0-0.568-0.169-1.021-0.506-1.358c-0.338-0.337-0.787-0.506-1.347-0.506
			c-0.552,0-1.024,0.191-1.415,0.575c-0.392,0.384-0.629,0.943-0.714,1.68l-2.98-0.506c0.207-1.021,0.52-1.836,0.938-2.445
			c0.418-0.61,1.001-1.09,1.749-1.438c0.748-0.349,1.586-0.523,2.515-0.523c1.588,0,2.861,0.506,3.82,1.519
			c0.79,0.829,1.185,1.765,1.185,2.808c0,1.481-0.809,2.662-2.428,3.545c0.966,0.207,1.739,0.671,2.319,1.392
			c0.579,0.722,0.869,1.593,0.869,2.612c0,1.48-0.541,2.743-1.623,3.786s-2.428,1.565-4.039,1.565c-1.527,0-2.792-0.439-3.797-1.318
			C46.944,38.991,46.362,37.843,46.201,36.423z"/>
	</g>
</g>
</svg>