<!-- Generator: Adobe Illustrator 17.0.0, SVG Export Plug-In  -->
<svg version="1.1"
	 xmlns="http://www.w3.org/2000/svg" xmlns:xlink="http://www.w3.org/1999/xlink" xmlns:a="http://ns.adobe.com/AdobeSVGViewerExtensions/3.0/"
	 x="0px" y="0px" width="832.825px" height="555.156px" viewBox="0 0 832.825 555.156"
	 style="enable-background:new 0 0 832.825 555.156;" xml:space="preserve">
<style type="text/css">
	.st0{fill:#6BAD44;}
	.st1{fill:#FFFFFF;}
	.st2{fill:url(#SVGID_1_);}
	.st3{fill:url(#SVGID_2_);}
	.st4{fill:url(#SVGID_3_);}
	.st5{fill:url(#SVGID_4_);stroke:#000000;stroke-width:2;stroke-miterlimit:10;}
	.st6{fill:url(#SVGID_5_);stroke:#000000;stroke-width:2;stroke-miterlimit:10;}
	.st7{fill:#FFFFFF;stroke:url(#SVGID_6_);stroke-width:2;stroke-miterlimit:10;}
	.st8{fill:url(#SVGID_7_);}
	.st9{fill:url(#SVGID_8_);}
	.st10{fill:none;stroke:#FFFFFF;stroke-width:3;stroke-miterlimit:10;}
	.st11{fill:#FFFFFF;stroke:#FFFFFF;stroke-miterlimit:10;}
	.st12{fill:#144B8B;}
	.st13{fill:url(#SVGID_9_);}
	.st14{fill:url(#SVGID_10_);}
	.st15{fill:url(#SVGID_11_);}
	.st16{fill:url(#SVGID_12_);stroke:#000000;stroke-width:2;stroke-miterlimit:10;}
	.st17{fill:url(#SVGID_13_);stroke:#000000;stroke-width:2;stroke-miterlimit:10;}
	.st18{fill:#FFFFFF;stroke:url(#SVGID_14_);stroke-width:2;stroke-miterlimit:10;}
	.st19{fill:url(#SVGID_15_);}
	.st20{fill:url(#SVGID_16_);}
</style>
<defs>
</defs>
<g>
	<path class="st0" d="M29.025,52.077V33.842h13.521v3.084h-9.839v4.043h9.154v3.072h-9.154v4.963h10.187v3.072H29.025z"/>
	<path class="st0" d="M44.231,52.077V33.992h3.682v15.013h9.154v3.072H44.231z"/>
	<path class="st0" d="M79.442,52.077h-4.005l-1.593-4.142h-7.288l-1.506,4.142h-3.905l7.103-18.234h3.893L79.442,52.077z
		 M72.663,44.863l-2.513-6.767l-2.462,6.767H72.663z M68.036,32.798l1.717-3.719h3.918l-3.421,3.719H68.036z"/>
	<path class="st0" d="M79.523,52.077V33.842h7.749c1.948,0,3.364,0.164,4.247,0.491c0.884,0.327,1.59,0.91,2.121,1.747
		c0.53,0.838,0.796,1.796,0.796,2.874c0,1.368-0.402,2.498-1.206,3.389c-0.805,0.892-2.007,1.454-3.607,1.686
		c0.796,0.465,1.453,0.975,1.972,1.53c0.518,0.556,1.217,1.542,2.096,2.96l2.227,3.558h-4.403l-2.662-3.968
		c-0.945-1.418-1.592-2.312-1.94-2.681c-0.348-0.369-0.717-0.622-1.106-0.759c-0.391-0.137-1.008-0.205-1.854-0.205h-0.746v7.612
		H79.523z M83.205,41.554h2.724c1.767,0,2.869-0.075,3.309-0.225c0.439-0.148,0.783-0.406,1.032-0.771
		c0.249-0.365,0.373-0.821,0.373-1.368c0-0.614-0.163-1.109-0.491-1.486c-0.327-0.378-0.79-0.616-1.387-0.716
		c-0.299-0.041-1.194-0.063-2.687-0.063h-2.873V41.554z"/>
	<path class="st0" d="M96.034,33.842h7.288c1.443,0,2.52,0.06,3.229,0.18c0.709,0.121,1.343,0.372,1.902,0.753
		c0.56,0.382,1.026,0.89,1.399,1.523c0.373,0.635,0.56,1.346,0.56,2.134c0,0.854-0.229,1.638-0.69,2.351
		c-0.46,0.713-1.084,1.248-1.871,1.604c1.11,0.323,1.965,0.875,2.562,1.654c0.598,0.779,0.896,1.696,0.896,2.749
		c0,0.829-0.192,1.636-0.578,2.419c-0.386,0.784-0.912,1.41-1.579,1.878c-0.668,0.469-1.491,0.757-2.47,0.865
		c-0.613,0.066-2.094,0.107-4.44,0.124h-6.206V33.842z M99.716,36.878v4.216h2.413c1.435,0,2.325-0.021,2.674-0.062
		c0.63-0.075,1.126-0.293,1.486-0.653s0.541-0.835,0.541-1.424c0-0.564-0.155-1.022-0.466-1.375
		c-0.312-0.353-0.773-0.565-1.388-0.641c-0.364-0.041-1.413-0.062-3.146-0.062H99.716z M99.716,44.129v4.876h3.408
		c1.326,0,2.168-0.037,2.524-0.112c0.548-0.1,0.993-0.342,1.337-0.728c0.345-0.386,0.517-0.901,0.517-1.548
		c0-0.548-0.133-1.012-0.398-1.394c-0.266-0.381-0.648-0.659-1.15-0.833c-0.502-0.175-1.59-0.262-3.265-0.262H99.716z"/>
	<path class="st0" d="M111.787,43.072c0-1.857,0.277-3.417,0.833-4.678c0.414-0.928,0.98-1.762,1.698-2.5
		c0.717-0.737,1.503-1.285,2.356-1.642c1.136-0.48,2.446-0.722,3.931-0.722c2.687,0,4.836,0.834,6.449,2.5
		c1.613,1.667,2.419,3.985,2.419,6.953c0,2.944-0.8,5.247-2.4,6.91c-1.601,1.662-3.739,2.493-6.418,2.493
		c-2.712,0-4.868-0.827-6.468-2.481C112.587,48.252,111.787,45.974,111.787,43.072z M115.58,42.947c0,2.064,0.478,3.63,1.431,4.695
		s2.164,1.599,3.632,1.599s2.672-0.528,3.613-1.586s1.412-2.644,1.412-4.758c0-2.09-0.458-3.648-1.374-4.677
		c-0.917-1.028-2.134-1.542-3.651-1.542s-2.74,0.521-3.669,1.561C116.045,39.28,115.58,40.849,115.58,42.947z"/>
	<path class="st0" d="M130.562,52.077V33.992h3.682v15.013h9.154v3.072H130.562z"/>
	<path class="st0" d="M149.317,33.842h6.729c1.518,0,2.674,0.116,3.47,0.348c1.07,0.315,1.986,0.875,2.749,1.68
		s1.344,1.789,1.741,2.954c0.398,1.165,0.598,2.602,0.598,4.31c0,1.501-0.187,2.795-0.56,3.881c-0.457,1.327-1.107,2.4-1.953,3.222
		c-0.639,0.622-1.501,1.107-2.587,1.455c-0.813,0.257-1.899,0.386-3.26,0.386h-6.928V33.842z M152.999,36.926v12.078h2.749
		c1.028,0,1.771-0.058,2.227-0.174c0.597-0.149,1.093-0.402,1.486-0.759s0.715-0.943,0.964-1.761
		c0.249-0.816,0.373-1.93,0.373-3.339c0-1.41-0.124-2.492-0.373-3.247c-0.249-0.754-0.597-1.343-1.045-1.766
		c-0.447-0.423-1.016-0.709-1.704-0.858c-0.514-0.116-1.521-0.175-3.022-0.175H152.999z"/>
	<path class="st0" d="M165.842,52.077V33.842h13.521v3.084h-9.839v4.043h9.154v3.072h-9.154v4.963h10.187v3.072H165.842z"/>
	<path class="st0" d="M186.239,52.077V33.992h3.682v15.013h9.154v3.072H186.239z"/>
	<path class="st0" d="M199.069,43.072c0-1.857,0.277-3.417,0.833-4.678c0.414-0.928,0.98-1.762,1.698-2.5
		c0.717-0.737,1.503-1.285,2.356-1.642c1.136-0.48,2.446-0.722,3.931-0.722c2.687,0,4.836,0.834,6.449,2.5
		c1.613,1.667,2.419,3.985,2.419,6.953c0,2.944-0.8,5.247-2.4,6.91c-1.601,1.662-3.739,2.493-6.418,2.493
		c-2.712,0-4.868-0.827-6.468-2.481C199.869,48.252,199.069,45.974,199.069,43.072z M202.862,42.947c0,2.064,0.478,3.63,1.431,4.695
		s2.164,1.599,3.632,1.599s2.672-0.528,3.613-1.586s1.412-2.644,1.412-4.758c0-2.09-0.458-3.648-1.374-4.677
		c-0.917-1.028-2.134-1.542-3.651-1.542s-2.74,0.521-3.669,1.561C203.327,39.28,202.862,40.849,202.862,42.947z"/>
	<path class="st0" d="M216.812,46.144l3.582-0.349c0.215,1.202,0.652,2.085,1.312,2.649c0.66,0.563,1.549,0.846,2.669,0.846
		c1.186,0,2.079-0.251,2.68-0.753c0.602-0.501,0.902-1.088,0.902-1.76c0-0.431-0.127-0.798-0.38-1.101s-0.694-0.566-1.324-0.79
		c-0.432-0.149-1.414-0.414-2.948-0.796c-1.974-0.489-3.358-1.091-4.154-1.804c-1.119-1.003-1.679-2.227-1.679-3.669
		c0-0.929,0.263-1.798,0.789-2.606c0.527-0.809,1.285-1.424,2.276-1.847s2.188-0.635,3.589-0.635c2.288,0,4.011,0.502,5.168,1.505
		c1.157,1.004,1.764,2.343,1.822,4.018l-3.682,0.162c-0.158-0.937-0.496-1.61-1.014-2.021c-0.519-0.41-1.296-0.615-2.332-0.615
		c-1.07,0-1.908,0.22-2.513,0.659c-0.39,0.282-0.585,0.659-0.585,1.132c0,0.432,0.183,0.801,0.548,1.107
		c0.464,0.39,1.592,0.796,3.383,1.219s3.116,0.86,3.974,1.313c0.858,0.451,1.53,1.069,2.016,1.853
		c0.485,0.784,0.728,1.752,0.728,2.904c0,1.045-0.29,2.023-0.871,2.936c-0.58,0.912-1.401,1.591-2.463,2.034
		s-2.384,0.665-3.968,0.665c-2.305,0-4.075-0.532-5.311-1.599C217.79,49.736,217.053,48.183,216.812,46.144z"/>
	<path class="st0" d="M237.297,43.072c0-1.857,0.277-3.417,0.833-4.678c0.414-0.928,0.98-1.762,1.698-2.5
		c0.717-0.737,1.503-1.285,2.356-1.642c1.136-0.48,2.446-0.722,3.931-0.722c2.687,0,4.836,0.834,6.449,2.5
		c1.613,1.667,2.419,3.985,2.419,6.953c0,2.944-0.8,5.247-2.4,6.91c-1.601,1.662-3.739,2.493-6.418,2.493
		c-2.712,0-4.868-0.827-6.468-2.481C238.097,48.252,237.297,45.974,237.297,43.072z M241.09,42.947c0,2.064,0.478,3.63,1.431,4.695
		s2.164,1.599,3.632,1.599s2.672-0.528,3.613-1.586s1.412-2.644,1.412-4.758c0-2.09-0.458-3.648-1.374-4.677
		c-0.917-1.028-2.134-1.542-3.651-1.542s-2.74,0.521-3.669,1.561C241.555,39.28,241.09,40.849,241.09,42.947z"/>
	<path class="st0" d="M255.985,33.842h7.288c1.443,0,2.52,0.06,3.229,0.18c0.709,0.121,1.343,0.372,1.902,0.753
		c0.56,0.382,1.026,0.89,1.399,1.523c0.373,0.635,0.56,1.346,0.56,2.134c0,0.854-0.229,1.638-0.69,2.351
		c-0.46,0.713-1.084,1.248-1.871,1.604c1.11,0.323,1.965,0.875,2.562,1.654c0.598,0.779,0.896,1.696,0.896,2.749
		c0,0.829-0.192,1.636-0.578,2.419c-0.386,0.784-0.912,1.41-1.579,1.878c-0.668,0.469-1.491,0.757-2.47,0.865
		c-0.613,0.066-2.094,0.107-4.44,0.124h-6.206V33.842z M259.667,36.878v4.216h2.413c1.435,0,2.325-0.021,2.674-0.062
		c0.63-0.075,1.126-0.293,1.486-0.653s0.541-0.835,0.541-1.424c0-0.564-0.155-1.022-0.466-1.375
		c-0.312-0.353-0.773-0.565-1.388-0.641c-0.364-0.041-1.413-0.062-3.146-0.062H259.667z M259.667,44.129v4.876h3.408
		c1.326,0,2.168-0.037,2.524-0.112c0.548-0.1,0.993-0.342,1.337-0.728c0.345-0.386,0.517-0.901,0.517-1.548
		c0-0.548-0.133-1.012-0.398-1.394c-0.266-0.381-0.648-0.659-1.15-0.833c-0.502-0.175-1.59-0.262-3.265-0.262H259.667z"/>
	<path class="st0" d="M279.064,33.842h3.669v11.543c0,1.509-0.133,2.67-0.398,3.482c-0.356,1.062-1.003,1.913-1.94,2.556
		c-0.937,0.643-2.172,0.964-3.706,0.964c-1.8,0-3.185-0.503-4.154-1.511c-0.971-1.008-1.46-2.485-1.468-4.435l3.47-0.397
		c0.042,1.045,0.195,1.782,0.461,2.214c0.397,0.655,1.003,0.982,1.815,0.982c0.821,0,1.401-0.234,1.741-0.703
		c0.34-0.468,0.511-1.44,0.511-2.916V33.842z"/>
	<path class="st0" d="M284.766,52.077V33.842h13.521v3.084h-9.839v4.043h9.154v3.072h-9.154v4.963h10.187v3.072H284.766z"/>
	<path class="st0" d="M303.977,52.077v-15.15h-5.411v-3.084h14.491v3.084h-5.398v15.15H303.977z"/>
	<path class="st0" d="M313.436,52.077V33.842h3.682v18.234H313.436z"/>
	<path class="st0" d="M323.391,52.077l-6.518-18.234h3.993l4.614,13.495l4.466-13.495h3.905l-6.53,18.234H323.391z"/>
	<path class="st0" d="M333.1,43.072c0-1.857,0.277-3.417,0.833-4.678c0.414-0.928,0.98-1.762,1.698-2.5
		c0.717-0.737,1.503-1.285,2.356-1.642c1.136-0.48,2.446-0.722,3.931-0.722c2.687,0,4.836,0.834,6.449,2.5
		c1.613,1.667,2.419,3.985,2.419,6.953c0,2.944-0.8,5.247-2.4,6.91c-1.601,1.662-3.739,2.493-6.418,2.493
		c-2.712,0-4.868-0.827-6.468-2.481C333.899,48.252,333.1,45.974,333.1,43.072z M336.893,42.947c0,2.064,0.478,3.63,1.431,4.695
		s2.164,1.599,3.632,1.599s2.672-0.528,3.613-1.586s1.412-2.644,1.412-4.758c0-2.09-0.458-3.648-1.374-4.677
		c-0.917-1.028-2.134-1.542-3.651-1.542s-2.74,0.521-3.669,1.561C337.357,39.28,336.893,40.849,336.893,42.947z"/>
	<path class="st0" d="M350.843,46.144l3.582-0.349c0.215,1.202,0.652,2.085,1.312,2.649c0.66,0.563,1.549,0.846,2.669,0.846
		c1.186,0,2.079-0.251,2.68-0.753c0.602-0.501,0.902-1.088,0.902-1.76c0-0.431-0.127-0.798-0.38-1.101s-0.694-0.566-1.324-0.79
		c-0.432-0.149-1.414-0.414-2.948-0.796c-1.974-0.489-3.358-1.091-4.154-1.804c-1.119-1.003-1.679-2.227-1.679-3.669
		c0-0.929,0.263-1.798,0.789-2.606c0.527-0.809,1.285-1.424,2.276-1.847s2.188-0.635,3.589-0.635c2.288,0,4.011,0.502,5.168,1.505
		c1.157,1.004,1.764,2.343,1.822,4.018l-3.682,0.162c-0.158-0.937-0.496-1.61-1.014-2.021c-0.519-0.41-1.296-0.615-2.332-0.615
		c-1.07,0-1.908,0.22-2.513,0.659c-0.39,0.282-0.585,0.659-0.585,1.132c0,0.432,0.183,0.801,0.548,1.107
		c0.464,0.39,1.592,0.796,3.383,1.219s3.116,0.86,3.974,1.313c0.858,0.451,1.53,1.069,2.016,1.853
		c0.485,0.784,0.728,1.752,0.728,2.904c0,1.045-0.29,2.023-0.871,2.936c-0.58,0.912-1.401,1.591-2.463,2.034
		s-2.384,0.665-3.968,0.665c-2.305,0-4.075-0.532-5.311-1.599C351.82,49.736,351.083,48.183,350.843,46.144z"/>
</g>
<g id="XMLID_1_">
	<polygon id="XMLID_4_" class="st1" points="14.205,43.532 0,53.109 0,33.955 	"/>
	<polygon id="XMLID_2_" class="st1" points="21.842,43.532 7.637,53.109 7.637,33.955 	"/>
</g>
<g>
	<radialGradient id="SVGID_1_" cx="460.2879" cy="149.5213" r="166.1523" gradientUnits="userSpaceOnUse">
		<stop  offset="0" style="stop-color:#8CBB69"/>
		<stop  offset="0.7837" style="stop-color:#6BAD44"/>
	</radialGradient>
	<path class="st2" d="M610.232,121.33c-10.352-8.321-25.968-14.705-39.247-14.934c-9.64-0.168-26.045,3.24-32.424,10.211
		c15.765-30.567,9.162-71.754-16.257-95.402C494.27-4.879,447.42-7.038,416.46,15.502c-30.963,22.533-43.431,66.877-29.77,102.654
		c-30.391-20.227-75.67-6.184-95.032,24.768c-19.36,30.947-15.21,72.787,3.892,103.898c15.981,26.027,42.49,46.242,72.636,51.145
		c30.146,4.896,63.314-7.096,80.613-32.272c6.142,9.281,12.423,17.818,22.845,21.725c4.432,1.662,10.051,2.961,14.784,3.008
		c13.053,0.133,27.995-3.747,35.321-15.13c37.438,21.921,91.002,1.778,109.416-37.5C649.582,198.517,644.046,148.507,610.232,121.33
		z"/>
	<linearGradient id="SVGID_2_" gradientUnits="userSpaceOnUse" x1="300.9394" y1="360.2545" x2="622.9394" y2="360.2545">
		<stop  offset="0" style="stop-color:#684C32"/>
		<stop  offset="0.5" style="stop-color:#8C6239"/>
		<stop  offset="1" style="stop-color:#603813"/>
	</linearGradient>
	<path class="st3" d="M536.272,462.489c0,0-33.333,11.334-48,7.334s-26.667-21.334-27.984-30.667
		c-1.317-9.333,1.317-16,7.317-19.333c6-3.333,35.894,16,35.894,16l-28.56-24.667c0,0-15.334-5.333-10.667-24.667
		c4.667-19.334,27.965,22,27.965,22l-3.965-18.666l33.01,18l22.99,20.666l-6.667-19.333l85.334,19.333l-38.73-12.666l10.73-12.667
		l-16,10l-46.667-10.667l12-12c-28.667,12.666-26.667,6.667-26.667,6.667c-23.74-11.228-34.649-25.082-39.582-36.436l0.702-0.043
		c-4.355-17.928-7.039-36.262-8.01-54.681c-0.871-16.558-0.209-33.81,7.186-48.651c6.204-12.449,18.236-22.633,31.68-24.633
		c-9.822-0.951-20.453-0.664-30.68,1.834c4.688-22.844,16.202-44.939,32.479-61.64c-26.111,19.682-47.16,46.023-60.594,75.835
		c-13.066-31.105-32.289-59.611-56.228-83.389c38.272,54.336,51.605,126.092,35.945,190.686c-2.325,8.051-6.786,17.303-16.232,20.45
		c-14,4.666-52.738,8.667-52.738,8.667l48.738,1.333l-39.425,16.667l-55.242-8l17.334,9.333l-24.773,26l32.773-26.666l29.908,2
		l-14.575,22c28.667-36.666,54.667-29.334,54.667-29.334v14.667l20.666-29.333c6.666-8,7.334,7.333,6.667,20
		c-0.667,12.667-32.106,34.666-32.106,34.666l20.106-10c24.667-16,13.333,24.667,12.667,28.667c-0.666,4-12,10.667-12,10.667
		c-3.333-4-65.405-3.334-65.405-3.334l-27.929-14l24,14.667c-20-0.667-35.333,6.667-35.333,6.667l-21.333,9.333l26-6
		c0,0,6,20,6,19.333s-2.873-22.666-2.873-22.666c7.794-8,80.873,0.666,80.873,0.666l15.333,4.667l-12,17.333l33.333-28.666
		c4.666-2,1.334,54.666,1.334,54.666l-30.744,12.667l-12.029-4l7.439,6v10.667l4.59-8.667l31.41-10l3.364,28v-20.667l7.318,2.667
		l-7.318-6l3.303-23.333l17.333,12l-17.333-17.334l1.333-40c2-5.334,17.334,26.667,17.334,26.667l7.333,20.667l1.333-10.667
		l27.775,23.333l-25.775-28.666l35.677,13.333l-39.01-19.333c-14.667-6-14.667-20.667-14.667-20.667
		c28.666,4,116.604,61.333,116.604,61.333c-20.03-16.533-83.323-54-83.323-54l31.387-4.666l24.052,22l34.615,20.666l-25.334-19.333
		l-19.333-14.667l-6-7.811l55.333-10.189L536.272,462.489z"/>
	<g>
		<g>
			<g>
				<radialGradient id="SVGID_3_" cx="153.8965" cy="309.6833" r="89.8174" gradientUnits="userSpaceOnUse">
					<stop  offset="0" style="stop-color:#8CBB69"/>
					<stop  offset="0.7837" style="stop-color:#6BAD44"/>
				</radialGradient>
				<rect x="30.91" y="277.923" class="st4" width="245.973" height="63.52"/>
				<path class="st1" d="M276.883,344.198H30.91c-1.682,0-3.049-1.232-3.049-2.755v-63.52c0-1.522,1.367-2.757,3.049-2.757h245.973
					c1.685,0,3.051,1.235,3.051,2.757v63.52C279.934,342.965,278.568,344.198,276.883,344.198z M33.961,338.687h239.877V280.68
					H33.961V338.687z"/>
			</g>
		</g>
		<radialGradient id="SVGID_4_" cx="149.1538" cy="202.883" r="35.6604" gradientUnits="userSpaceOnUse">
			<stop  offset="0" style="stop-color:#8CBB69"/>
			<stop  offset="0.7837" style="stop-color:#6BAD44"/>
		</radialGradient>
		<polygon class="st5" points="185.945,204.95 176.082,199.257 176.082,204.587 114.616,204.587 114.616,183.732 102.5,183.732 
			102.5,216.704 114.616,216.704 114.616,216.703 176.082,216.703 176.082,222.034 185.945,216.339 195.808,210.645 		"/>
		<radialGradient id="SVGID_5_" cx="138.8569" cy="379.0021" r="43.2597" gradientUnits="userSpaceOnUse">
			<stop  offset="0" style="stop-color:#8CBB69"/>
			<stop  offset="0.7837" style="stop-color:#6BAD44"/>
		</radialGradient>
		<polygon class="st6" points="181.648,393.069 171.785,387.376 171.785,392.706 98.319,392.706 98.319,347.851 86.203,347.851 
			86.203,404.823 98.319,404.823 98.319,404.822 171.785,404.822 171.785,410.153 181.648,404.458 191.511,398.764 		"/>
		<g>
			<g>
				<radialGradient id="SVGID_6_" cx="576.1913" cy="312.777" r="21.7175" gradientUnits="userSpaceOnUse">
					<stop  offset="0" style="stop-color:#8CBB69"/>
					<stop  offset="0.7837" style="stop-color:#6BAD44"/>
				</radialGradient>
				<polygon class="st7" points="597.689,302.577 588.907,302.577 588.907,293.601 572.301,303.189 555.693,312.777 
					572.301,322.366 588.907,331.953 588.907,322.978 597.689,322.978 				"/>
			</g>
		</g>
		<g>
			<g>
				<radialGradient id="SVGID_7_" cx="153.8965" cy="147.3073" r="89.8174" gradientUnits="userSpaceOnUse">
					<stop  offset="0" style="stop-color:#8CBB69"/>
					<stop  offset="0.7837" style="stop-color:#6BAD44"/>
				</radialGradient>
				<rect x="30.91" y="115.548" class="st8" width="245.973" height="63.52"/>
				<path class="st1" d="M276.883,181.822H30.91c-1.682,0-3.049-1.232-3.049-2.755v-63.519c0-1.521,1.367-2.757,3.049-2.757h245.973
					c1.685,0,3.051,1.235,3.051,2.757v63.519C279.934,180.59,278.568,181.822,276.883,181.822z M33.961,176.311h239.877v-58.007
					H33.961V176.311z"/>
			</g>
		</g>
		<g>
			<path class="st1" d="M131.681,139.627v5.907h6.085v1.362h-6.085v7.26h-1.43v-15.893h8.944v1.363H131.681z"/>
			<path class="st1" d="M141.356,140.081v-1.817h1.585v1.817H141.356z M141.467,154.156v-11.349h1.363v11.349H141.467z"/>
			<path class="st1" d="M152.228,154.156v-8.313c0-0.273-0.052-0.529-0.155-0.77s-0.244-0.449-0.421-0.627
				c-0.178-0.177-0.387-0.317-0.627-0.421s-0.497-0.155-0.77-0.155h-0.909c-0.273,0-0.53,0.052-0.771,0.155
				s-0.448,0.244-0.626,0.421c-0.178,0.178-0.317,0.387-0.421,0.627s-0.155,0.496-0.155,0.77v8.313h-1.363v-11.349h0.454
				l0.743,1.152c0.31-0.421,0.699-0.756,1.169-1.003c0.469-0.247,0.98-0.371,1.535-0.371h0.344c0.458,0,0.89,0.087,1.296,0.26
				c0.406,0.174,0.762,0.412,1.064,0.715c0.303,0.304,0.541,0.658,0.715,1.064s0.261,0.839,0.261,1.297v8.234H152.228z"/>
			<path class="st1" d="M163.638,152.339c-0.174,0.406-0.412,0.761-0.715,1.063c-0.303,0.304-0.658,0.542-1.064,0.715
				c-0.406,0.174-0.838,0.261-1.296,0.261h-0.909c-0.458,0-0.891-0.087-1.297-0.261c-0.406-0.173-0.761-0.411-1.063-0.715
				c-0.304-0.303-0.542-0.657-0.715-1.063c-0.174-0.406-0.261-0.839-0.261-1.297v-5.12c0-0.458,0.087-0.891,0.261-1.297
				c0.173-0.406,0.411-0.761,0.715-1.064c0.303-0.303,0.657-0.541,1.063-0.715c0.406-0.173,0.839-0.26,1.297-0.26h0.909
				c0.458,0,0.89,0.087,1.296,0.26c0.406,0.174,0.762,0.412,1.064,0.715c0.303,0.304,0.541,0.658,0.715,1.064
				s0.261,0.839,0.261,1.297v2.671h-6.218v2.526c0,0.273,0.052,0.53,0.155,0.771s0.243,0.449,0.421,0.626
				c0.178,0.178,0.386,0.318,0.626,0.422s0.497,0.155,0.771,0.155h0.909c0.272,0,0.529-0.052,0.77-0.155s0.449-0.244,0.627-0.422
				c0.177-0.177,0.317-0.386,0.421-0.626s0.155-0.497,0.155-0.771v-0.753l1.363,0.222v0.454
				C163.898,151.5,163.811,151.932,163.638,152.339z M162.535,145.843c0-0.273-0.052-0.529-0.155-0.77s-0.244-0.449-0.421-0.627
				c-0.178-0.177-0.387-0.317-0.627-0.421s-0.497-0.155-0.77-0.155h-0.909c-0.273,0-0.53,0.052-0.771,0.155
				s-0.448,0.244-0.626,0.421c-0.178,0.178-0.317,0.387-0.421,0.627s-0.155,0.496-0.155,0.77v1.685h4.854V145.843z"/>
			<path class="st1" d="M174.427,151.274c0,0.458-0.093,0.878-0.277,1.258c-0.185,0.381-0.437,0.708-0.754,0.981
				s-0.686,0.485-1.103,0.637c-0.418,0.151-0.855,0.228-1.313,0.228h-0.909c-0.458,0-0.896-0.087-1.313-0.261
				c-0.418-0.173-0.783-0.411-1.098-0.715c-0.314-0.303-0.565-0.657-0.754-1.063s-0.282-0.839-0.282-1.297v-0.454l1.363-0.222v0.753
				c0,0.273,0.057,0.53,0.172,0.771c0.114,0.24,0.268,0.449,0.46,0.626c0.191,0.178,0.413,0.318,0.665,0.422
				c0.251,0.104,0.513,0.155,0.786,0.155h0.909c0.273,0,0.536-0.041,0.787-0.122c0.251-0.082,0.475-0.198,0.67-0.35
				c0.196-0.151,0.352-0.334,0.466-0.549c0.114-0.214,0.172-0.458,0.172-0.731c0-0.406-0.089-0.738-0.266-0.997
				c-0.178-0.259-0.412-0.475-0.704-0.648s-0.624-0.317-0.997-0.433c-0.374-0.114-0.756-0.229-1.147-0.343
				c-0.392-0.115-0.774-0.246-1.147-0.394c-0.373-0.148-0.705-0.342-0.997-0.582s-0.526-0.541-0.704-0.903
				c-0.177-0.362-0.266-0.813-0.266-1.353c0-0.458,0.089-0.877,0.266-1.258c0.178-0.38,0.418-0.707,0.721-0.98
				s0.655-0.485,1.059-0.638c0.402-0.151,0.833-0.227,1.291-0.227h0.798c0.458,0,0.891,0.087,1.297,0.26
				c0.406,0.174,0.761,0.412,1.063,0.715c0.304,0.304,0.542,0.658,0.715,1.064c0.174,0.406,0.261,0.839,0.261,1.297v0.044
				l-1.363,0.222v-0.344c0-0.273-0.052-0.529-0.155-0.77s-0.243-0.449-0.421-0.627c-0.178-0.177-0.386-0.317-0.626-0.421
				s-0.497-0.155-0.771-0.155h-0.798c-0.273,0-0.53,0.041-0.771,0.122s-0.448,0.198-0.626,0.35s-0.317,0.334-0.421,0.548
				c-0.104,0.215-0.155,0.458-0.155,0.731c0,0.392,0.089,0.712,0.266,0.959c0.178,0.248,0.412,0.456,0.704,0.626
				s0.624,0.313,0.997,0.427c0.373,0.115,0.754,0.232,1.142,0.354s0.769,0.261,1.142,0.416s0.706,0.354,0.998,0.599
				c0.291,0.243,0.526,0.549,0.703,0.914C174.338,150.283,174.427,150.735,174.427,151.274z"/>
		</g>
		<g>
			<path class="st1" d="M134.911,317.823v-10.895l-0.1,0.676l-3.69,10.219h-0.754l-3.724-10.219l-0.089-0.676v10.895h-1.43V301.93
				h0.743l4.82,13.033l0.045,0.587l0.044-0.587l4.811-13.033h0.753v15.893H134.911z"/>
			<path class="st1" d="M146.831,316.005c-0.174,0.406-0.412,0.761-0.715,1.063c-0.303,0.304-0.658,0.542-1.064,0.715
				c-0.406,0.174-0.838,0.261-1.296,0.261h-0.909c-0.458,0-0.891-0.087-1.297-0.261c-0.406-0.173-0.761-0.411-1.063-0.715
				c-0.304-0.303-0.542-0.657-0.715-1.063c-0.174-0.406-0.261-0.839-0.261-1.297v-5.12c0-0.458,0.087-0.891,0.261-1.297
				c0.173-0.406,0.411-0.761,0.715-1.064c0.303-0.303,0.657-0.541,1.063-0.715c0.406-0.173,0.839-0.26,1.297-0.26h0.909
				c0.458,0,0.89,0.087,1.296,0.26c0.406,0.174,0.762,0.412,1.064,0.715c0.303,0.304,0.541,0.658,0.715,1.064
				s0.261,0.839,0.261,1.297v2.671h-6.218v2.526c0,0.273,0.052,0.53,0.155,0.771s0.243,0.449,0.421,0.626
				c0.178,0.178,0.386,0.318,0.626,0.422s0.497,0.155,0.771,0.155h0.909c0.272,0,0.529-0.052,0.77-0.155s0.449-0.244,0.627-0.422
				c0.177-0.177,0.317-0.386,0.421-0.626s0.155-0.497,0.155-0.771v-0.753l1.363,0.222v0.454
				C147.092,315.167,147.005,315.599,146.831,316.005z M145.728,309.51c0-0.273-0.052-0.529-0.155-0.77s-0.244-0.449-0.421-0.627
				c-0.178-0.177-0.387-0.317-0.627-0.421s-0.497-0.155-0.77-0.155h-0.909c-0.273,0-0.53,0.052-0.771,0.155
				s-0.448,0.244-0.626,0.421c-0.178,0.178-0.317,0.387-0.421,0.627s-0.155,0.496-0.155,0.77v1.685h4.854V309.51z"/>
			<path class="st1" d="M156.943,317.823l-0.753-1.152c-0.311,0.421-0.698,0.755-1.164,1.003c-0.466,0.247-0.976,0.371-1.529,0.371
				h-0.344c-0.458,0-0.891-0.087-1.297-0.261c-0.406-0.173-0.761-0.411-1.063-0.715c-0.304-0.303-0.542-0.657-0.715-1.063
				c-0.174-0.406-0.261-0.839-0.261-1.297v-5.12c0-0.458,0.087-0.891,0.261-1.297c0.173-0.406,0.411-0.761,0.715-1.064
				c0.303-0.303,0.657-0.541,1.063-0.715c0.406-0.173,0.839-0.26,1.297-0.26h0.344c0.51,0,0.982,0.104,1.418,0.31
				c0.437,0.207,0.81,0.495,1.12,0.865v-5.497h1.363v15.893H156.943z M156.035,309.51c0-0.273-0.052-0.529-0.155-0.77
				s-0.244-0.449-0.421-0.627c-0.178-0.177-0.387-0.317-0.627-0.421s-0.497-0.155-0.77-0.155h-0.909
				c-0.273,0-0.53,0.052-0.771,0.155s-0.448,0.244-0.626,0.421c-0.178,0.178-0.317,0.387-0.421,0.627s-0.155,0.496-0.155,0.77v5.275
				c0,0.273,0.052,0.53,0.155,0.771s0.243,0.449,0.421,0.626c0.178,0.178,0.386,0.318,0.626,0.422s0.497,0.155,0.771,0.155h0.909
				c0.272,0,0.529-0.052,0.77-0.155s0.449-0.244,0.627-0.422c0.177-0.177,0.317-0.386,0.421-0.626s0.155-0.497,0.155-0.771V309.51z"
				/>
			<path class="st1" d="M160.468,303.748v-1.817h1.585v1.817H160.468z M160.578,317.823v-11.349h1.363v11.349H160.578z"/>
			<path class="st1" d="M172.442,316.005c-0.174,0.406-0.412,0.761-0.715,1.063c-0.303,0.304-0.658,0.542-1.064,0.715
				c-0.406,0.174-0.838,0.261-1.296,0.261h-0.909c-0.458,0-0.891-0.087-1.297-0.261c-0.406-0.173-0.761-0.411-1.063-0.715
				c-0.304-0.303-0.542-0.657-0.715-1.063c-0.174-0.406-0.261-0.839-0.261-1.297v-5.12c0-0.458,0.087-0.891,0.261-1.297
				c0.173-0.406,0.411-0.761,0.715-1.064c0.303-0.303,0.657-0.541,1.063-0.715c0.406-0.173,0.839-0.26,1.297-0.26h0.909
				c0.458,0,0.89,0.087,1.296,0.26c0.406,0.174,0.762,0.412,1.064,0.715c0.303,0.304,0.541,0.658,0.715,1.064
				s0.261,0.839,0.261,1.297v5.12C172.703,315.167,172.616,315.599,172.442,316.005z M171.34,309.51c0-0.273-0.052-0.529-0.155-0.77
				s-0.244-0.449-0.421-0.627c-0.178-0.177-0.387-0.317-0.627-0.421s-0.497-0.155-0.77-0.155h-0.909
				c-0.273,0-0.53,0.052-0.771,0.155s-0.448,0.244-0.626,0.421c-0.178,0.178-0.317,0.387-0.421,0.627s-0.155,0.496-0.155,0.77v5.275
				c0,0.273,0.052,0.53,0.155,0.771s0.243,0.449,0.421,0.626c0.178,0.178,0.386,0.318,0.626,0.422s0.497,0.155,0.771,0.155h0.909
				c0.272,0,0.529-0.052,0.77-0.155s0.449-0.244,0.627-0.422c0.177-0.177,0.317-0.386,0.421-0.626s0.155-0.497,0.155-0.771V309.51z"
				/>
			<path class="st1" d="M183.231,314.941c0,0.458-0.093,0.878-0.277,1.258c-0.185,0.381-0.437,0.708-0.754,0.981
				s-0.686,0.485-1.103,0.637c-0.418,0.151-0.855,0.228-1.313,0.228h-0.909c-0.458,0-0.896-0.087-1.313-0.261
				c-0.418-0.173-0.783-0.411-1.098-0.715c-0.314-0.303-0.565-0.657-0.754-1.063s-0.282-0.839-0.282-1.297v-0.454l1.363-0.222v0.753
				c0,0.273,0.057,0.53,0.172,0.771c0.114,0.24,0.268,0.449,0.46,0.626c0.191,0.178,0.413,0.318,0.665,0.422
				c0.251,0.104,0.513,0.155,0.786,0.155h0.909c0.273,0,0.536-0.041,0.787-0.122c0.251-0.082,0.475-0.198,0.67-0.35
				c0.196-0.151,0.352-0.334,0.466-0.549c0.114-0.214,0.172-0.458,0.172-0.731c0-0.406-0.089-0.738-0.266-0.997
				c-0.178-0.259-0.412-0.475-0.704-0.648s-0.624-0.317-0.997-0.433c-0.374-0.114-0.756-0.229-1.147-0.343
				c-0.392-0.115-0.774-0.246-1.147-0.394c-0.373-0.148-0.705-0.342-0.997-0.582s-0.526-0.541-0.704-0.903
				c-0.177-0.362-0.266-0.813-0.266-1.353c0-0.458,0.089-0.877,0.266-1.258c0.178-0.38,0.418-0.707,0.721-0.98
				s0.655-0.485,1.059-0.638c0.402-0.151,0.833-0.227,1.291-0.227h0.798c0.458,0,0.891,0.087,1.297,0.26
				c0.406,0.174,0.761,0.412,1.063,0.715c0.304,0.304,0.542,0.658,0.715,1.064c0.174,0.406,0.261,0.839,0.261,1.297v0.044
				l-1.363,0.222v-0.344c0-0.273-0.052-0.529-0.155-0.77s-0.243-0.449-0.421-0.627c-0.178-0.177-0.386-0.317-0.626-0.421
				s-0.497-0.155-0.771-0.155h-0.798c-0.273,0-0.53,0.041-0.771,0.122s-0.448,0.198-0.626,0.35s-0.317,0.334-0.421,0.548
				c-0.104,0.215-0.155,0.458-0.155,0.731c0,0.392,0.089,0.712,0.266,0.959c0.178,0.248,0.412,0.456,0.704,0.626
				s0.624,0.313,0.997,0.427c0.373,0.115,0.754,0.232,1.142,0.354s0.769,0.261,1.142,0.416s0.706,0.354,0.998,0.599
				c0.291,0.243,0.526,0.549,0.703,0.914C183.143,313.95,183.231,314.402,183.231,314.941z"/>
		</g>
		<g>
			<g>
				<radialGradient id="SVGID_8_" cx="707.8876" cy="312.776" r="79.5919" gradientUnits="userSpaceOnUse">
					<stop  offset="0" style="stop-color:#8CBB69"/>
					<stop  offset="0.7837" style="stop-color:#6BAD44"/>
				</radialGradient>
				<rect x="599.901" y="281.016" class="st9" width="215.973" height="63.52"/>
				<path class="st1" d="M815.874,347.291H599.901c-1.682,0-3.049-1.232-3.049-2.755v-63.52c0-1.522,1.367-2.757,3.049-2.757
					h215.973c1.685,0,3.051,1.235,3.051,2.757v63.52C818.925,346.058,817.56,347.291,815.874,347.291z M602.952,341.78h209.877
					v-58.007H602.952V341.78z"/>
			</g>
		</g>
		<g>
			<path class="st1" d="M660.137,306.109c-0.161,0.375-0.382,0.703-0.663,0.984s-0.609,0.503-0.984,0.663
				c-0.375,0.161-0.776,0.242-1.204,0.242h-0.896c-0.428,0-0.83-0.081-1.209-0.242c-0.377-0.16-0.707-0.382-0.988-0.663
				s-0.503-0.609-0.664-0.984s-0.241-0.776-0.241-1.204v-6.768c0-0.428,0.08-0.829,0.241-1.204s0.383-0.703,0.664-0.984
				s0.611-0.502,0.988-0.663c0.379-0.161,0.781-0.242,1.209-0.242h0.896c0.428,0,0.829,0.081,1.204,0.242s0.703,0.382,0.984,0.663
				s0.502,0.609,0.663,0.984s0.242,0.776,0.242,1.204v6.768C660.379,305.333,660.298,305.734,660.137,306.109z M659.245,298.137
				c0-0.281-0.053-0.543-0.158-0.787c-0.105-0.242-0.249-0.455-0.431-0.637s-0.395-0.325-0.637-0.431
				c-0.244-0.105-0.506-0.158-0.787-0.158h-0.791c-0.281,0-0.544,0.053-0.787,0.158s-0.457,0.249-0.641,0.431
				c-0.186,0.182-0.33,0.395-0.436,0.637c-0.105,0.244-0.158,0.506-0.158,0.787v6.768c0,0.281,0.053,0.544,0.158,0.787
				s0.25,0.457,0.436,0.641c0.184,0.186,0.397,0.33,0.641,0.436s0.506,0.158,0.787,0.158h0.791c0.281,0,0.543-0.053,0.787-0.158
				c0.242-0.105,0.455-0.25,0.637-0.436c0.182-0.184,0.325-0.397,0.431-0.641s0.158-0.506,0.158-0.787V298.137z"/>
			<path class="st1" d="M668.531,306.381c-0.139,0.322-0.327,0.604-0.567,0.844s-0.521,0.43-0.844,0.566
				c-0.322,0.138-0.665,0.207-1.028,0.207h-0.721c-0.363,0-0.706-0.069-1.028-0.207c-0.322-0.137-0.604-0.326-0.844-0.566
				s-0.43-0.521-0.567-0.844s-0.206-0.665-0.206-1.028v-10.134h1.081v4.359c0.246-0.293,0.542-0.521,0.888-0.686
				s0.721-0.246,1.125-0.246h0.272c0.363,0,0.706,0.069,1.028,0.207s0.604,0.326,0.844,0.566s0.429,0.521,0.567,0.844
				c0.137,0.322,0.206,0.665,0.206,1.028v4.061C668.737,305.716,668.668,306.059,668.531,306.381z M667.656,301.231
				c0-0.217-0.041-0.42-0.123-0.611c-0.082-0.189-0.193-0.355-0.334-0.496s-0.307-0.252-0.496-0.334
				c-0.191-0.082-0.395-0.123-0.611-0.123h-0.721c-0.217,0-0.421,0.041-0.611,0.123s-0.355,0.193-0.496,0.334
				s-0.252,0.307-0.334,0.496c-0.082,0.191-0.123,0.395-0.123,0.611v4.184c0,0.217,0.041,0.421,0.123,0.611s0.193,0.355,0.334,0.496
				s0.306,0.252,0.496,0.334s0.395,0.123,0.611,0.123h0.721c0.217,0,0.42-0.041,0.611-0.123c0.189-0.082,0.355-0.193,0.496-0.334
				s0.252-0.306,0.334-0.496s0.123-0.395,0.123-0.611V301.231z"/>
			<path class="st1" d="M672.135,309.805c-0.139,0.318-0.327,0.599-0.567,0.839s-0.521,0.431-0.844,0.571s-0.665,0.211-1.028,0.211
				v-1.028c0.217,0,0.42-0.041,0.611-0.123c0.189-0.082,0.355-0.193,0.496-0.334s0.252-0.307,0.334-0.497s0.123-0.394,0.123-0.61
				v-10.011h1.081v9.958C672.341,309.144,672.271,309.485,672.135,309.805z M671.172,296.661v-1.441h1.257v1.441H671.172z"/>
			<path class="st1" d="M680.669,306.381c-0.139,0.322-0.327,0.604-0.567,0.844s-0.521,0.43-0.844,0.566
				c-0.322,0.138-0.665,0.207-1.028,0.207h-0.721c-0.363,0-0.706-0.069-1.028-0.207c-0.322-0.137-0.604-0.326-0.844-0.566
				s-0.43-0.521-0.567-0.844s-0.206-0.665-0.206-1.028v-4.061c0-0.363,0.068-0.706,0.206-1.028s0.327-0.604,0.567-0.844
				s0.521-0.429,0.844-0.566s0.665-0.207,1.028-0.207h0.721c0.363,0,0.706,0.069,1.028,0.207s0.604,0.326,0.844,0.566
				s0.429,0.521,0.567,0.844c0.137,0.322,0.206,0.665,0.206,1.028v2.118h-4.931v2.004c0,0.217,0.041,0.421,0.123,0.611
				s0.193,0.355,0.334,0.496s0.306,0.252,0.496,0.334s0.395,0.123,0.611,0.123h0.721c0.217,0,0.42-0.041,0.611-0.123
				c0.189-0.082,0.355-0.193,0.496-0.334s0.252-0.306,0.334-0.496s0.123-0.395,0.123-0.611v-0.598l1.081,0.176v0.36
				C680.875,305.716,680.806,306.059,680.669,306.381z M679.794,301.231c0-0.217-0.041-0.42-0.123-0.611
				c-0.082-0.189-0.193-0.355-0.334-0.496s-0.307-0.252-0.496-0.334c-0.191-0.082-0.395-0.123-0.611-0.123h-0.721
				c-0.217,0-0.421,0.041-0.611,0.123s-0.355,0.193-0.496,0.334s-0.252,0.307-0.334,0.496c-0.082,0.191-0.123,0.395-0.123,0.611
				v1.336h3.85V301.231z"/>
			<path class="st1" d="M686.315,307.823c-0.328,0-0.637-0.062-0.928-0.185c-0.289-0.123-0.542-0.293-0.756-0.51
				s-0.384-0.469-0.51-0.756s-0.188-0.595-0.188-0.923v-5.599h-1.617v-1.028h1.617v-2.162l1.081-0.176v2.338h2.285v1.028h-2.285
				v5.651c0,0.182,0.033,0.351,0.102,0.506c0.066,0.155,0.159,0.291,0.276,0.408s0.255,0.21,0.413,0.277s0.328,0.101,0.51,0.101
				h0.984v1.028H686.315z"/>
			<path class="st1" d="M689.559,296.661v-1.441h1.257v1.441H689.559z M689.646,307.823v-9h1.081v9H689.646z"/>
			<path class="st1" d="M696.071,307.823h-0.536l-3.19-9h1.081l2.347,6.82l0.035,0.466l0.035-0.466l2.338-6.82h1.081
				L696.071,307.823z"/>
			<path class="st1" d="M706.324,306.381c-0.139,0.322-0.327,0.604-0.567,0.844s-0.521,0.43-0.844,0.566
				c-0.322,0.138-0.665,0.207-1.028,0.207h-0.721c-0.363,0-0.706-0.069-1.028-0.207c-0.322-0.137-0.604-0.326-0.844-0.566
				s-0.43-0.521-0.567-0.844s-0.206-0.665-0.206-1.028v-4.061c0-0.363,0.068-0.706,0.206-1.028s0.327-0.604,0.567-0.844
				s0.521-0.429,0.844-0.566s0.665-0.207,1.028-0.207h0.721c0.363,0,0.706,0.069,1.028,0.207s0.604,0.326,0.844,0.566
				s0.429,0.521,0.567,0.844c0.137,0.322,0.206,0.665,0.206,1.028v4.061C706.53,305.716,706.461,306.059,706.324,306.381z
				 M705.449,301.231c0-0.217-0.041-0.42-0.123-0.611c-0.082-0.189-0.193-0.355-0.334-0.496s-0.307-0.252-0.496-0.334
				c-0.191-0.082-0.395-0.123-0.611-0.123h-0.721c-0.217,0-0.421,0.041-0.611,0.123s-0.355,0.193-0.496,0.334
				s-0.252,0.307-0.334,0.496c-0.082,0.191-0.123,0.395-0.123,0.611v4.184c0,0.217,0.041,0.421,0.123,0.611s0.193,0.355,0.334,0.496
				s0.306,0.252,0.496,0.334s0.395,0.123,0.611,0.123h0.721c0.217,0,0.42-0.041,0.611-0.123c0.189-0.082,0.355-0.193,0.496-0.334
				s0.252-0.306,0.334-0.496s0.123-0.395,0.123-0.611V301.231z"/>
			<path class="st1" d="M708.868,300.176v-1.354h1.354v1.354H708.868z M708.868,307.823v-1.354h1.354v1.354H708.868z"/>
			<path class="st1" d="M719.345,299.851c-0.217,0-0.421,0.041-0.611,0.123s-0.355,0.193-0.496,0.334s-0.252,0.307-0.334,0.497
				s-0.123,0.394-0.123,0.61v6.407h-1.081v-9h0.36l0.589,0.914c0.246-0.334,0.555-0.599,0.927-0.795s0.778-0.295,1.218-0.295h0.633
				v1.204H719.345z"/>
			<path class="st1" d="M727.673,306.381c-0.139,0.322-0.327,0.604-0.567,0.844s-0.521,0.43-0.844,0.566
				c-0.322,0.138-0.665,0.207-1.028,0.207h-0.721c-0.363,0-0.706-0.069-1.028-0.207c-0.322-0.137-0.604-0.326-0.844-0.566
				s-0.43-0.521-0.567-0.844s-0.206-0.665-0.206-1.028v-4.061c0-0.363,0.068-0.706,0.206-1.028s0.327-0.604,0.567-0.844
				s0.521-0.429,0.844-0.566s0.665-0.207,1.028-0.207h0.721c0.363,0,0.706,0.069,1.028,0.207s0.604,0.326,0.844,0.566
				s0.429,0.521,0.567,0.844c0.137,0.322,0.206,0.665,0.206,1.028v2.118h-4.931v2.004c0,0.217,0.041,0.421,0.123,0.611
				s0.193,0.355,0.334,0.496s0.306,0.252,0.496,0.334s0.395,0.123,0.611,0.123h0.721c0.217,0,0.42-0.041,0.611-0.123
				c0.189-0.082,0.355-0.193,0.496-0.334s0.252-0.306,0.334-0.496s0.123-0.395,0.123-0.611v-0.598l1.081,0.176v0.36
				C727.879,305.716,727.81,306.059,727.673,306.381z M726.798,301.231c0-0.217-0.041-0.42-0.123-0.611
				c-0.082-0.189-0.193-0.355-0.334-0.496s-0.307-0.252-0.496-0.334c-0.191-0.082-0.395-0.123-0.611-0.123h-0.721
				c-0.217,0-0.421,0.041-0.611,0.123s-0.355,0.193-0.496,0.334s-0.252,0.307-0.334,0.496c-0.082,0.191-0.123,0.395-0.123,0.611
				v1.336h3.85V301.231z"/>
			<path class="st1" d="M735.692,307.823l-0.598-0.896c-0.246,0.322-0.554,0.582-0.923,0.777c-0.369,0.196-0.773,0.295-1.213,0.295
				h-0.272c-0.363,0-0.706-0.069-1.028-0.207c-0.322-0.137-0.604-0.326-0.844-0.566s-0.43-0.521-0.567-0.844
				s-0.206-0.665-0.206-1.028v-0.088c0-0.363,0.068-0.706,0.206-1.028s0.327-0.604,0.567-0.844s0.521-0.429,0.844-0.566
				s0.665-0.207,1.028-0.207h2.285v-1.389c0-0.217-0.041-0.42-0.123-0.611c-0.082-0.189-0.193-0.355-0.334-0.496
				s-0.307-0.252-0.496-0.334c-0.191-0.082-0.395-0.123-0.611-0.123h-0.633c-0.217,0-0.421,0.041-0.611,0.123
				s-0.355,0.193-0.496,0.334s-0.252,0.307-0.334,0.496c-0.082,0.191-0.123,0.395-0.123,0.611v0.325l-1.081-0.176v-0.088
				c0-0.363,0.068-0.706,0.206-1.028s0.327-0.604,0.567-0.844s0.521-0.429,0.844-0.566s0.665-0.207,1.028-0.207h0.633
				c0.363,0,0.706,0.069,1.028,0.207s0.604,0.326,0.844,0.566s0.429,0.521,0.567,0.844c0.137,0.322,0.206,0.665,0.206,1.028v6.53
				H735.692z M734.972,303.464h-2.285c-0.217,0-0.421,0.041-0.611,0.123s-0.355,0.195-0.496,0.338
				c-0.141,0.145-0.252,0.312-0.334,0.502s-0.123,0.394-0.123,0.61v0.378c0,0.217,0.041,0.421,0.123,0.611s0.193,0.355,0.334,0.496
				s0.306,0.252,0.496,0.334s0.395,0.123,0.611,0.123h0.721c0.217,0,0.42-0.041,0.611-0.123c0.189-0.082,0.355-0.193,0.496-0.334
				s0.252-0.306,0.334-0.496s0.123-0.395,0.123-0.611V303.464z"/>
			<path class="st1" d="M738.575,307.823v-12.604h1.081v12.604H738.575z"/>
			<path class="st1" d="M742.451,296.661v-1.441h1.257v1.441H742.451z M742.539,307.823v-9h1.081v9H742.539z"/>
			<path class="st1" d="M752.33,305.538c0,0.363-0.073,0.696-0.22,0.998s-0.346,0.561-0.598,0.777s-0.544,0.386-0.875,0.506
				c-0.331,0.119-0.678,0.18-1.041,0.18h-0.721c-0.363,0-0.711-0.069-1.041-0.207c-0.332-0.137-0.622-0.326-0.871-0.566
				s-0.447-0.521-0.598-0.844c-0.148-0.322-0.224-0.665-0.224-1.028v-0.36l1.081-0.176v0.598c0,0.217,0.045,0.421,0.137,0.611
				c0.09,0.19,0.212,0.355,0.364,0.496s0.328,0.252,0.527,0.334s0.407,0.123,0.624,0.123h0.721c0.217,0,0.425-0.032,0.624-0.097
				s0.376-0.156,0.532-0.276c0.154-0.12,0.277-0.266,0.369-0.436c0.09-0.17,0.136-0.363,0.136-0.58c0-0.322-0.07-0.586-0.211-0.791
				s-0.327-0.376-0.558-0.514c-0.232-0.138-0.496-0.252-0.791-0.344c-0.297-0.09-0.6-0.181-0.91-0.271s-0.614-0.195-0.91-0.313
				s-0.56-0.271-0.791-0.461s-0.417-0.43-0.558-0.717s-0.211-0.645-0.211-1.072c0-0.363,0.07-0.695,0.211-0.998
				c0.141-0.301,0.331-0.561,0.571-0.777s0.52-0.385,0.84-0.506c0.318-0.119,0.66-0.18,1.023-0.18h0.633
				c0.363,0,0.706,0.069,1.028,0.207s0.604,0.326,0.844,0.566s0.429,0.521,0.567,0.844c0.137,0.322,0.206,0.665,0.206,1.028v0.035
				l-1.081,0.176v-0.272c0-0.217-0.041-0.42-0.123-0.611c-0.082-0.189-0.193-0.355-0.334-0.496s-0.307-0.252-0.496-0.334
				c-0.191-0.082-0.395-0.123-0.611-0.123h-0.633c-0.217,0-0.421,0.032-0.611,0.097s-0.355,0.157-0.496,0.276
				c-0.141,0.121-0.252,0.266-0.334,0.436s-0.123,0.363-0.123,0.58c0,0.311,0.07,0.564,0.211,0.76
				c0.141,0.197,0.326,0.362,0.559,0.497c0.23,0.135,0.494,0.248,0.791,0.339c0.295,0.091,0.598,0.184,0.904,0.281
				c0.309,0.096,0.609,0.206,0.906,0.329c0.295,0.123,0.559,0.281,0.791,0.475c0.23,0.193,0.417,0.435,0.558,0.726
				C752.26,304.751,752.33,305.11,752.33,305.538z"/>
			<path class="st1" d="M757.683,307.823c-0.328,0-0.637-0.062-0.928-0.185c-0.289-0.123-0.542-0.293-0.756-0.51
				s-0.384-0.469-0.51-0.756s-0.188-0.595-0.188-0.923v-5.599h-1.617v-1.028h1.617v-2.162l1.081-0.176v2.338h2.285v1.028h-2.285
				v5.651c0,0.182,0.033,0.351,0.102,0.506c0.066,0.155,0.159,0.291,0.276,0.408s0.255,0.21,0.413,0.277s0.328,0.101,0.51,0.101
				h0.984v1.028H757.683z"/>
			<path class="st1" d="M766.305,307.823l-0.598-0.896c-0.246,0.322-0.554,0.582-0.923,0.777c-0.369,0.196-0.773,0.295-1.213,0.295
				h-0.272c-0.363,0-0.706-0.069-1.028-0.207c-0.322-0.137-0.604-0.326-0.844-0.566s-0.43-0.521-0.567-0.844
				s-0.206-0.665-0.206-1.028v-0.088c0-0.363,0.068-0.706,0.206-1.028s0.327-0.604,0.567-0.844s0.521-0.429,0.844-0.566
				s0.665-0.207,1.028-0.207h2.285v-1.389c0-0.217-0.041-0.42-0.123-0.611c-0.082-0.189-0.193-0.355-0.334-0.496
				s-0.307-0.252-0.496-0.334c-0.191-0.082-0.395-0.123-0.611-0.123h-0.633c-0.217,0-0.421,0.041-0.611,0.123
				s-0.355,0.193-0.496,0.334s-0.252,0.307-0.334,0.496c-0.082,0.191-0.123,0.395-0.123,0.611v0.325l-1.081-0.176v-0.088
				c0-0.363,0.068-0.706,0.206-1.028s0.327-0.604,0.567-0.844s0.521-0.429,0.844-0.566s0.665-0.207,1.028-0.207h0.633
				c0.363,0,0.706,0.069,1.028,0.207s0.604,0.326,0.844,0.566s0.429,0.521,0.567,0.844c0.137,0.322,0.206,0.665,0.206,1.028v6.53
				H766.305z M765.584,303.464h-2.285c-0.217,0-0.421,0.041-0.611,0.123s-0.355,0.195-0.496,0.338
				c-0.141,0.145-0.252,0.312-0.334,0.502s-0.123,0.394-0.123,0.61v0.378c0,0.217,0.041,0.421,0.123,0.611s0.193,0.355,0.334,0.496
				s0.306,0.252,0.496,0.334s0.395,0.123,0.611,0.123h0.721c0.217,0,0.42-0.041,0.611-0.123c0.189-0.082,0.355-0.193,0.496-0.334
				s0.252-0.306,0.334-0.496s0.123-0.395,0.123-0.611V303.464z"/>
			<path class="st1" d="M676.177,333.026h-1.046l1.6-4.377l-2.918-8.227h1.081l2.347,6.82l0.035,0.466l0.035-0.466l2.338-6.82h1.081
				L676.177,333.026z"/>
			<path class="st1" d="M691.602,329.422l-0.598-0.914c-0.246,0.334-0.554,0.6-0.923,0.795c-0.369,0.196-0.773,0.295-1.213,0.295
				h-0.272c-0.363,0-0.706-0.069-1.028-0.207c-0.322-0.137-0.604-0.326-0.844-0.566s-0.43-0.521-0.567-0.844
				s-0.206-0.665-0.206-1.028v-4.061c0-0.363,0.068-0.706,0.206-1.028s0.327-0.604,0.567-0.844s0.521-0.429,0.844-0.566
				s0.665-0.207,1.028-0.207h0.272c0.404,0,0.779,0.082,1.125,0.246s0.642,0.393,0.888,0.686v-4.359h1.081v12.604H691.602z
				 M690.881,322.831c0-0.217-0.041-0.42-0.123-0.611c-0.082-0.189-0.193-0.355-0.334-0.496s-0.307-0.252-0.496-0.334
				c-0.191-0.082-0.395-0.123-0.611-0.123h-0.721c-0.217,0-0.421,0.041-0.611,0.123s-0.355,0.193-0.496,0.334
				s-0.252,0.307-0.334,0.496c-0.082,0.191-0.123,0.395-0.123,0.611v4.184c0,0.217,0.041,0.421,0.123,0.611s0.193,0.355,0.334,0.496
				s0.306,0.252,0.496,0.334s0.395,0.123,0.611,0.123h0.721c0.217,0,0.42-0.041,0.611-0.123c0.189-0.082,0.355-0.193,0.496-0.334
				s0.252-0.306,0.334-0.496s0.123-0.395,0.123-0.611V322.831z"/>
			<path class="st1" d="M699.93,327.981c-0.139,0.322-0.327,0.604-0.567,0.844s-0.521,0.43-0.844,0.566
				c-0.322,0.138-0.665,0.207-1.028,0.207h-0.721c-0.363,0-0.706-0.069-1.028-0.207c-0.322-0.137-0.604-0.326-0.844-0.566
				s-0.43-0.521-0.567-0.844s-0.206-0.665-0.206-1.028v-4.061c0-0.363,0.068-0.706,0.206-1.028s0.327-0.604,0.567-0.844
				s0.521-0.429,0.844-0.566s0.665-0.207,1.028-0.207h0.721c0.363,0,0.706,0.069,1.028,0.207s0.604,0.326,0.844,0.566
				s0.429,0.521,0.567,0.844c0.137,0.322,0.206,0.665,0.206,1.028v2.118h-4.931v2.004c0,0.217,0.041,0.421,0.123,0.611
				s0.193,0.355,0.334,0.496s0.306,0.252,0.496,0.334s0.395,0.123,0.611,0.123h0.721c0.217,0,0.42-0.041,0.611-0.123
				c0.189-0.082,0.355-0.193,0.496-0.334s0.252-0.306,0.334-0.496s0.123-0.395,0.123-0.611v-0.598l1.081,0.176v0.36
				C700.136,327.316,700.066,327.659,699.93,327.981z M699.055,322.831c0-0.217-0.041-0.42-0.123-0.611
				c-0.082-0.189-0.193-0.355-0.334-0.496s-0.307-0.252-0.496-0.334c-0.191-0.082-0.395-0.123-0.611-0.123h-0.721
				c-0.217,0-0.421,0.041-0.611,0.123s-0.355,0.193-0.496,0.334s-0.252,0.307-0.334,0.496c-0.082,0.191-0.123,0.395-0.123,0.611
				v1.336h3.85V322.831z"/>
			<path class="st1" d="M708.485,327.137c0,0.363-0.073,0.696-0.22,0.998s-0.346,0.561-0.598,0.777s-0.544,0.386-0.875,0.506
				c-0.331,0.119-0.678,0.18-1.041,0.18h-0.721c-0.363,0-0.711-0.069-1.041-0.207c-0.332-0.137-0.622-0.326-0.871-0.566
				s-0.447-0.521-0.598-0.844c-0.148-0.322-0.224-0.665-0.224-1.028v-0.36l1.081-0.176v0.598c0,0.217,0.045,0.421,0.137,0.611
				c0.09,0.19,0.212,0.355,0.364,0.496s0.328,0.252,0.527,0.334s0.407,0.123,0.624,0.123h0.721c0.217,0,0.425-0.032,0.624-0.097
				s0.376-0.156,0.532-0.276c0.154-0.12,0.277-0.266,0.369-0.436c0.09-0.17,0.136-0.363,0.136-0.58c0-0.322-0.07-0.586-0.211-0.791
				s-0.327-0.376-0.558-0.514c-0.232-0.138-0.496-0.252-0.791-0.344c-0.297-0.09-0.6-0.181-0.91-0.271s-0.614-0.195-0.91-0.313
				s-0.56-0.271-0.791-0.461s-0.417-0.43-0.558-0.717s-0.211-0.645-0.211-1.072c0-0.363,0.07-0.695,0.211-0.998
				c0.141-0.301,0.331-0.561,0.571-0.777s0.52-0.385,0.84-0.506c0.318-0.119,0.66-0.18,1.023-0.18h0.633
				c0.363,0,0.706,0.069,1.028,0.207s0.604,0.326,0.844,0.566s0.429,0.521,0.567,0.844c0.137,0.322,0.206,0.665,0.206,1.028v0.035
				l-1.081,0.176v-0.272c0-0.217-0.041-0.42-0.123-0.611c-0.082-0.189-0.193-0.355-0.334-0.496s-0.307-0.252-0.496-0.334
				c-0.191-0.082-0.395-0.123-0.611-0.123h-0.633c-0.217,0-0.421,0.032-0.611,0.097s-0.355,0.157-0.496,0.276
				c-0.141,0.121-0.252,0.266-0.334,0.436s-0.123,0.363-0.123,0.58c0,0.311,0.07,0.564,0.211,0.76
				c0.141,0.197,0.326,0.362,0.559,0.497c0.23,0.135,0.494,0.248,0.791,0.339c0.295,0.091,0.598,0.184,0.904,0.281
				c0.309,0.096,0.609,0.206,0.906,0.329c0.295,0.123,0.559,0.281,0.791,0.475c0.23,0.193,0.417,0.435,0.558,0.726
				C708.415,326.35,708.485,326.71,708.485,327.137z"/>
			<path class="st1" d="M716.365,327.981c-0.139,0.322-0.327,0.604-0.567,0.844s-0.521,0.43-0.844,0.566
				c-0.322,0.138-0.665,0.207-1.028,0.207h-0.721c-0.363,0-0.706-0.069-1.028-0.207c-0.322-0.137-0.604-0.326-0.844-0.566
				s-0.43-0.521-0.567-0.844s-0.206-0.665-0.206-1.028v-4.061c0-0.363,0.068-0.706,0.206-1.028s0.327-0.604,0.567-0.844
				s0.521-0.429,0.844-0.566s0.665-0.207,1.028-0.207h0.721c0.363,0,0.706,0.069,1.028,0.207s0.604,0.326,0.844,0.566
				s0.429,0.521,0.567,0.844c0.137,0.322,0.206,0.665,0.206,1.028v2.118h-4.931v2.004c0,0.217,0.041,0.421,0.123,0.611
				s0.193,0.355,0.334,0.496s0.306,0.252,0.496,0.334s0.395,0.123,0.611,0.123h0.721c0.217,0,0.42-0.041,0.611-0.123
				c0.189-0.082,0.355-0.193,0.496-0.334s0.252-0.306,0.334-0.496s0.123-0.395,0.123-0.611v-0.598l1.081,0.176v0.36
				C716.571,327.316,716.502,327.659,716.365,327.981z M715.49,322.831c0-0.217-0.041-0.42-0.123-0.611
				c-0.082-0.189-0.193-0.355-0.334-0.496s-0.307-0.252-0.496-0.334c-0.191-0.082-0.395-0.123-0.611-0.123h-0.721
				c-0.217,0-0.421,0.041-0.611,0.123s-0.355,0.193-0.496,0.334s-0.252,0.307-0.334,0.496c-0.082,0.191-0.123,0.395-0.123,0.611
				v1.336h3.85V322.831z"/>
			<path class="st1" d="M724.385,329.422l-0.598-0.896c-0.246,0.322-0.554,0.582-0.923,0.777c-0.369,0.196-0.773,0.295-1.213,0.295
				h-0.272c-0.363,0-0.706-0.069-1.028-0.207c-0.322-0.137-0.604-0.326-0.844-0.566s-0.43-0.521-0.567-0.844
				s-0.206-0.665-0.206-1.028v-0.088c0-0.363,0.068-0.706,0.206-1.028s0.327-0.604,0.567-0.844s0.521-0.429,0.844-0.566
				s0.665-0.207,1.028-0.207h2.285v-1.389c0-0.217-0.041-0.42-0.123-0.611c-0.082-0.189-0.193-0.355-0.334-0.496
				s-0.307-0.252-0.496-0.334c-0.191-0.082-0.395-0.123-0.611-0.123h-0.633c-0.217,0-0.421,0.041-0.611,0.123
				s-0.355,0.193-0.496,0.334s-0.252,0.307-0.334,0.496c-0.082,0.191-0.123,0.395-0.123,0.611v0.325l-1.081-0.176v-0.088
				c0-0.363,0.068-0.706,0.206-1.028s0.327-0.604,0.567-0.844s0.521-0.429,0.844-0.566s0.665-0.207,1.028-0.207h0.633
				c0.363,0,0.706,0.069,1.028,0.207s0.604,0.326,0.844,0.566s0.429,0.521,0.567,0.844c0.137,0.322,0.206,0.665,0.206,1.028v6.53
				H724.385z M723.664,325.063h-2.285c-0.217,0-0.421,0.041-0.611,0.123s-0.355,0.195-0.496,0.338
				c-0.141,0.145-0.252,0.312-0.334,0.502s-0.123,0.394-0.123,0.61v0.378c0,0.217,0.041,0.421,0.123,0.611s0.193,0.355,0.334,0.496
				s0.306,0.252,0.496,0.334s0.395,0.123,0.611,0.123h0.721c0.217,0,0.42-0.041,0.611-0.123c0.189-0.082,0.355-0.193,0.496-0.334
				s0.252-0.306,0.334-0.496s0.123-0.395,0.123-0.611V325.063z"/>
			<path class="st1" d="M732.713,327.981c-0.139,0.322-0.327,0.604-0.567,0.844s-0.521,0.43-0.844,0.566
				c-0.322,0.138-0.665,0.207-1.028,0.207h-0.721c-0.363,0-0.706-0.069-1.028-0.207c-0.322-0.137-0.604-0.326-0.844-0.566
				s-0.43-0.521-0.567-0.844s-0.206-0.665-0.206-1.028v-10.134h1.081v4.359c0.246-0.293,0.542-0.521,0.888-0.686
				s0.721-0.246,1.125-0.246h0.272c0.363,0,0.706,0.069,1.028,0.207s0.604,0.326,0.844,0.566s0.429,0.521,0.567,0.844
				c0.137,0.322,0.206,0.665,0.206,1.028v4.061C732.919,327.316,732.85,327.659,732.713,327.981z M731.838,322.831
				c0-0.217-0.041-0.42-0.123-0.611c-0.082-0.189-0.193-0.355-0.334-0.496s-0.307-0.252-0.496-0.334
				c-0.191-0.082-0.395-0.123-0.611-0.123h-0.721c-0.217,0-0.421,0.041-0.611,0.123s-0.355,0.193-0.496,0.334
				s-0.252,0.307-0.334,0.496c-0.082,0.191-0.123,0.395-0.123,0.611v4.184c0,0.217,0.041,0.421,0.123,0.611s0.193,0.355,0.334,0.496
				s0.306,0.252,0.496,0.334s0.395,0.123,0.611,0.123h0.721c0.217,0,0.42-0.041,0.611-0.123c0.189-0.082,0.355-0.193,0.496-0.334
				s0.252-0.306,0.334-0.496s0.123-0.395,0.123-0.611V322.831z"/>
			<path class="st1" d="M735.441,329.422v-12.604h1.081v12.604H735.441z"/>
			<path class="st1" d="M744.851,327.981c-0.139,0.322-0.327,0.604-0.567,0.844s-0.521,0.43-0.844,0.566
				c-0.322,0.138-0.665,0.207-1.028,0.207h-0.721c-0.363,0-0.706-0.069-1.028-0.207c-0.322-0.137-0.604-0.326-0.844-0.566
				s-0.43-0.521-0.567-0.844s-0.206-0.665-0.206-1.028v-4.061c0-0.363,0.068-0.706,0.206-1.028s0.327-0.604,0.567-0.844
				s0.521-0.429,0.844-0.566s0.665-0.207,1.028-0.207h0.721c0.363,0,0.706,0.069,1.028,0.207s0.604,0.326,0.844,0.566
				s0.429,0.521,0.567,0.844c0.137,0.322,0.206,0.665,0.206,1.028v2.118h-4.931v2.004c0,0.217,0.041,0.421,0.123,0.611
				s0.193,0.355,0.334,0.496s0.306,0.252,0.496,0.334s0.395,0.123,0.611,0.123h0.721c0.217,0,0.42-0.041,0.611-0.123
				c0.189-0.082,0.355-0.193,0.496-0.334s0.252-0.306,0.334-0.496s0.123-0.395,0.123-0.611v-0.598l1.081,0.176v0.36
				C745.057,327.316,744.987,327.659,744.851,327.981z M743.976,322.831c0-0.217-0.041-0.42-0.123-0.611
				c-0.082-0.189-0.193-0.355-0.334-0.496s-0.307-0.252-0.496-0.334c-0.191-0.082-0.395-0.123-0.611-0.123h-0.721
				c-0.217,0-0.421,0.041-0.611,0.123s-0.355,0.193-0.496,0.334s-0.252,0.307-0.334,0.496c-0.082,0.191-0.123,0.395-0.123,0.611
				v1.336h3.85V322.831z"/>
		</g>
		<polyline class="st10" points="259.457,233.653 259.457,259.823 686.038,259.823 686.038,233.653 		"/>
		<line class="st10" x1="477.724" y1="293.601" x2="477.724" y2="235.291"/>
		<g>
			<path class="st11" d="M473.103,285.178h1.239l3.419,7.717l3.401-7.717h1.248l-4.017,9h-1.283L473.103,285.178z"/>
		</g>
		<polyline class="st10" points="685.039,382.179 685.039,356.009 258.457,356.009 258.457,382.179 		"/>
		<line class="st10" x1="477.773" y1="335.884" x2="477.773" y2="356.011"/>
		<g>
			<path class="st11" d="M482.393,343.654h-1.238l-3.42-7.717l-3.4,7.717h-1.248l4.016-9h1.283L482.393,343.654z"/>
		</g>
		<g>
			<path class="st11" d="M247.227,426.189h-1.238l-3.42-7.717l-3.4,7.717h-1.248l4.016-9h1.283L247.227,426.189z"/>
		</g>
		<g>
			<path class="st11" d="M689.57,426.189h-1.238l-3.42-7.717l-3.4,7.717h-1.248l4.016-9h1.283L689.57,426.189z"/>
		</g>
		<polyline class="st10" points="95.573,472.898 95.573,447.822 389.034,447.822 389.034,472.898 		"/>
		<line class="st10" x1="242.574" y1="471.259" x2="242.574" y2="417.291"/>
		<polyline class="st10" points="605.112,472.898 605.112,447.822 684.917,447.822 764.722,447.822 764.722,472.898 		"/>
		<line class="st10" x1="684.917" y1="447.822" x2="684.917" y2="417.291"/>
		<g>
			<g>
				<rect x="200.499" y="195.898" class="st12" width="132.148" height="37.755"/>
				<path class="st1" d="M332.647,235.291H200.499c-0.903,0-1.638-0.732-1.638-1.638v-37.755c0-0.904,0.734-1.639,1.638-1.639
					h132.148c0.905,0,1.639,0.734,1.639,1.639v37.755C334.286,234.558,333.553,235.291,332.647,235.291z M202.139,232.015h128.873
					v-34.479H202.139V232.015z"/>
			</g>
		</g>
		<g>
			<g>
				<rect x="411.975" y="195.898" class="st12" width="132.148" height="37.755"/>
				<path class="st1" d="M544.123,235.291H411.975c-0.903,0-1.638-0.732-1.638-1.638v-37.755c0-0.904,0.734-1.639,1.638-1.639
					h132.148c0.905,0,1.639,0.734,1.639,1.639v37.755C545.762,234.558,545.028,235.291,544.123,235.291z M413.614,232.015h128.873
					v-34.479H413.614V232.015z"/>
			</g>
		</g>
		<g>
			<g>
				<rect x="411.975" y="295.898" class="st12" width="132.148" height="37.755"/>
				<path class="st1" d="M544.123,335.291H411.975c-0.903,0-1.638-0.732-1.638-1.638v-37.755c0-0.904,0.734-1.639,1.638-1.639
					h132.148c0.905,0,1.639,0.734,1.639,1.639v37.755C545.762,334.558,545.028,335.291,544.123,335.291z M413.614,332.015h128.873
					v-34.479H413.614V332.015z"/>
			</g>
		</g>
		<g>
			<g>
				<rect x="618.712" y="195.898" class="st12" width="132.148" height="37.755"/>
				<path class="st1" d="M750.86,235.291H618.712c-0.903,0-1.638-0.732-1.638-1.638v-37.755c0-0.904,0.734-1.639,1.638-1.639H750.86
					c0.905,0,1.639,0.734,1.639,1.639v37.755C752.499,234.558,751.766,235.291,750.86,235.291z M620.352,232.015h128.873v-34.479
					H620.352V232.015z"/>
			</g>
		</g>
		<g>
			<g>
				<rect x="29.499" y="472.898" class="st12" width="132.148" height="37.755"/>
				<path class="st1" d="M161.647,512.291H29.499c-0.903,0-1.638-0.732-1.638-1.638v-37.755c0-0.904,0.734-1.639,1.638-1.639
					h132.148c0.905,0,1.639,0.734,1.639,1.639v37.755C163.286,511.558,162.553,512.291,161.647,512.291z M31.139,509.015h128.873
					v-34.479H31.139V509.015z"/>
			</g>
		</g>
		<g>
			<g>
				<rect x="176.499" y="472.898" class="st12" width="132.148" height="37.755"/>
				<path class="st1" d="M308.647,512.291H176.499c-0.903,0-1.638-0.732-1.638-1.638v-37.755c0-0.904,0.734-1.639,1.638-1.639
					h132.148c0.905,0,1.639,0.734,1.639,1.639v37.755C310.286,511.558,309.553,512.291,308.647,512.291z M178.139,509.015h128.873
					v-34.479H178.139V509.015z"/>
			</g>
		</g>
		<g>
			<g>
				<rect x="322.96" y="472.898" class="st12" width="132.148" height="37.755"/>
				<path class="st1" d="M455.108,512.291H322.96c-0.903,0-1.638-0.732-1.638-1.638v-37.755c0-0.904,0.734-1.639,1.638-1.639
					h132.148c0.905,0,1.639,0.734,1.639,1.639v37.755C456.747,511.558,456.014,512.291,455.108,512.291z M324.6,509.015h128.873
					v-34.479H324.6V509.015z"/>
			</g>
		</g>
		<g>
			<g>
				<rect x="539.038" y="472.898" class="st12" width="132.148" height="37.755"/>
				<path class="st1" d="M671.187,512.291H539.038c-0.903,0-1.638-0.732-1.638-1.638v-37.755c0-0.904,0.734-1.639,1.638-1.639
					h132.148c0.905,0,1.639,0.734,1.639,1.639v37.755C672.825,511.558,672.092,512.291,671.187,512.291z M540.678,509.015h128.873
					v-34.479H540.678V509.015z"/>
			</g>
		</g>
		<g>
			<g>
				<rect x="699.038" y="472.898" class="st12" width="132.148" height="37.755"/>
				<path class="st1" d="M831.187,512.291H699.038c-0.903,0-1.638-0.732-1.638-1.638v-37.755c0-0.904,0.734-1.639,1.638-1.639
					h132.148c0.905,0,1.639,0.734,1.639,1.639v37.755C832.825,511.558,832.092,512.291,831.187,512.291z M700.678,509.015h128.873
					v-34.479H700.678V509.015z"/>
			</g>
		</g>
		<g>
			<g>
				<rect x="200.499" y="377.898" class="st12" width="132.148" height="37.755"/>
				<path class="st1" d="M332.647,417.291H200.499c-0.903,0-1.638-0.732-1.638-1.638v-37.755c0-0.904,0.734-1.639,1.638-1.639
					h132.148c0.905,0,1.639,0.734,1.639,1.639v37.755C334.286,416.558,333.553,417.291,332.647,417.291z M202.139,414.015h128.873
					v-34.479H202.139V414.015z"/>
			</g>
		</g>
		<g>
			<g>
				<rect x="618.712" y="377.898" class="st12" width="132.148" height="37.755"/>
				<path class="st1" d="M750.86,417.291H618.712c-0.903,0-1.638-0.732-1.638-1.638v-37.755c0-0.904,0.734-1.639,1.638-1.639H750.86
					c0.905,0,1.639,0.734,1.639,1.639v37.755C752.499,416.558,751.766,417.291,750.86,417.291z M620.352,414.015h128.873v-34.479
					H620.352V414.015z"/>
			</g>
		</g>
	</g>
</g>
</svg>