<!-- Generator: Adobe Illustrator 17.0.0, SVG Export Plug-In  -->
<svg version="1.1"
	 xmlns="http://www.w3.org/2000/svg" xmlns:xlink="http://www.w3.org/1999/xlink" xmlns:a="http://ns.adobe.com/AdobeSVGViewerExtensions/3.0/"
	 x="0px" y="0px" width="259.9px" height="18.667px" viewBox="0 0 259.9 18.667" style="enable-background:new 0 0 259.9 18.667;"
	 xml:space="preserve">
<style type="text/css">
	.st0{clip-path:url(#SVGID_2_);fill:url(#XMLID_9_);}
	.st1{clip-path:url(#SVGID_4_);}
	.st2{fill:#144B8B;}
	.st3{clip-path:url(#SVGID_6_);fill:url(#XMLID_10_);}
	.st4{clip-path:url(#SVGID_8_);}
</style>
<defs>
</defs>
<g id="XMLID_1_">
	<g id="XMLID_6_">
		<g>
			<g>
				<defs>
					<rect id="SVGID_1_" x="0" y="0.08" width="20.676" height="18.191"/>
				</defs>
				<clipPath id="SVGID_2_">
					<use xlink:href="#SVGID_1_"  style="overflow:visible;"/>
				</clipPath>
				<radialGradient id="XMLID_9_" cx="15.2246" cy="5.169" r="4.952" gradientUnits="userSpaceOnUse">
					<stop  offset="0" style="stop-color:#8CBB69"/>
					<stop  offset="0.7837" style="stop-color:#6BAD44"/>
				</radialGradient>
				<path id="XMLID_8_" class="st0" d="M18.994,7.691h-4.33l-2.322,2.246V7.691H11.38c-0.722,0-1.284-0.558-1.284-1.281V1.683
					c0-0.722,0.563-1.282,1.284-1.282h7.692c0.721,0,1.281,0.561,1.281,1.282V6.41C20.275,7.133,19.715,7.691,18.994,7.691
					L18.994,7.691z"/>
			</g>
		</g>
		<g>
			<g>
				<defs>
					<rect id="SVGID_3_" x="0" y="0.08" width="20.676" height="18.191"/>
				</defs>
				<clipPath id="SVGID_4_">
					<use xlink:href="#SVGID_3_"  style="overflow:visible;"/>
				</clipPath>
				<path id="XMLID_7_" class="st1" d="M3.365,16.589L3.365,16.589l1.603-0.241v1.523c0,0.24,0.16,0.4,0.4,0.4h8.015
					c0.24,0,0.4-0.16,0.4-0.4v-5.449c0.644-0.642,1.202-1.443,1.602-2.246c0.083-0.159,0-0.399-0.159-0.479
					c-0.161-0.08-0.4,0-0.479,0.16c-0.319,0.802-0.882,1.521-1.523,2.164c-0.08,0.078-0.16,0.16-0.16,0.32v5.208H5.851v-1.603
					c0-0.081-0.08-0.24-0.161-0.32c-0.078-0.08-0.16-0.08-0.321-0.08l-1.923,0.319c-0.563,0-1.043-0.48-1.043-1.041v-2.563
					c0-0.24-0.158-0.401-0.398-0.401H1.363c-0.242,0-0.402-0.08-0.48-0.161c-0.081-0.081-0.081-0.32,0.078-0.481l1.362-2.644
					c0-0.083,0.079-0.083,0.079-0.161V7.293c0-2.484,1.444-4.729,3.688-5.771c0.802-0.4,1.602-0.562,2.484-0.642
					c0.24,0,0.4-0.16,0.4-0.4s-0.16-0.4-0.4-0.4C7.613,0.16,6.732,0.321,5.851,0.721C3.365,1.924,1.682,4.406,1.682,7.212v1.043
					L0.32,10.818c-0.24,0.4-0.24,0.881,0,1.203c0.24,0.32,0.641,0.559,1.12,0.559h0.241v2.168
					C1.521,15.786,2.323,16.589,3.365,16.589L3.365,16.589z"/>
			</g>
		</g>
	</g>
	<path id="XMLID_5_" d="M12.181,10.338c0.081,0,0.081,0,0.161,0c0.079,0,0.158,0,0.24-0.081l2.243-2.165h4.169
		c0.88,0,1.682-0.721,1.682-1.682V1.683C20.676,0.802,19.953,0,18.994,0H11.3c-0.882,0-1.683,0.721-1.683,1.683V6.41
		c0,0.883,0.719,1.682,1.683,1.682h0.639v1.846C11.939,10.096,12.021,10.257,12.181,10.338L12.181,10.338z M11.3,7.374
		c-0.482,0-0.882-0.403-0.882-0.883V1.762c0-0.481,0.399-0.881,0.882-0.881h7.694c0.479,0,0.88,0.4,0.88,0.881v4.729
		c0,0.479-0.4,0.883-0.88,0.883h-4.33c-0.079,0-0.16,0-0.237,0.08l-1.685,1.601V7.691c0-0.237-0.16-0.398-0.4-0.398H11.3V7.374z"/>
	<path id="XMLID_4_" d="M15.144,4.647c0.081,0,0.163-0.08,0.24-0.08c0.083-0.08,0.083-0.16,0.083-0.238
		c0-0.08-0.083-0.161-0.083-0.242c-0.077-0.078-0.159-0.078-0.24-0.078c-0.08,0-0.159,0.078-0.239,0.078
		c-0.08,0.081-0.08,0.162-0.08,0.242c0,0.078,0.08,0.158,0.08,0.238C14.985,4.647,15.064,4.647,15.144,4.647L15.144,4.647z"/>
	<path id="XMLID_3_" d="M16.589,4.647c0.08,0,0.16-0.08,0.24-0.08c0.081-0.08,0.081-0.16,0.081-0.238
		c0-0.08-0.081-0.161-0.081-0.242c-0.08-0.078-0.16-0.078-0.24-0.078c-0.08,0-0.16,0.078-0.24,0.078
		c-0.083,0.081-0.083,0.162-0.083,0.242c0,0.078,0.083,0.158,0.083,0.238C16.429,4.647,16.509,4.647,16.589,4.647L16.589,4.647z"/>
	<path id="XMLID_2_" d="M13.705,4.647c0.078,0,0.159-0.08,0.238-0.08c0.08-0.08,0.08-0.16,0.08-0.238c0-0.08-0.08-0.161-0.08-0.242
		c-0.079-0.078-0.16-0.078-0.238-0.078c-0.082,0-0.162,0.078-0.242,0.078c-0.08,0.081-0.08,0.162-0.08,0.242
		c0,0.078,0.08,0.158,0.08,0.238C13.543,4.647,13.623,4.647,13.705,4.647L13.705,4.647z"/>
</g>
<g>
	<path class="st2" d="M33.963,14.173h-5.764l-1.193,4.24h-1.701l5.332-18.205H31.5l5.357,18.205h-1.689L33.963,14.173z
		 M28.643,12.611h4.889l-2.4-8.392L31.08,3.547L31.029,4.22L28.643,12.611z"/>
	<path class="st2" d="M45.795,18.413V8.892c0-0.313-0.06-0.607-0.178-0.882c-0.119-0.275-0.279-0.515-0.482-0.718
		s-0.443-0.364-0.718-0.482s-0.569-0.178-0.882-0.178h-1.041c-0.313,0-0.607,0.06-0.883,0.178s-0.514,0.279-0.717,0.482
		S40.53,7.734,40.412,8.01c-0.119,0.274-0.178,0.568-0.178,0.882v9.521h-1.563v-13h0.521l0.85,1.32
		c0.355-0.482,0.803-0.865,1.34-1.149c0.537-0.283,1.123-0.425,1.758-0.425h0.395c0.524,0,1.02,0.1,1.484,0.298
		c0.466,0.199,0.872,0.473,1.219,0.819c0.348,0.347,0.621,0.753,0.819,1.219s0.298,0.96,0.298,1.485v9.433H45.795z"/>
	<path class="st2" d="M58.643,18.413l-0.863-1.295c-0.355,0.466-0.801,0.84-1.334,1.124c-0.533,0.283-1.117,0.425-1.752,0.425
		h-0.393c-0.525,0-1.021-0.1-1.486-0.298c-0.465-0.199-0.871-0.473-1.219-0.819c-0.347-0.347-0.619-0.753-0.818-1.219
		c-0.199-0.466-0.299-0.96-0.299-1.485v-0.127c0-0.525,0.1-1.02,0.299-1.485s0.472-0.872,0.818-1.219
		c0.348-0.347,0.754-0.62,1.219-0.819c0.466-0.198,0.961-0.298,1.486-0.298h3.301V8.892c0-0.313-0.06-0.607-0.178-0.882
		c-0.119-0.275-0.279-0.515-0.482-0.718s-0.443-0.364-0.718-0.482s-0.569-0.178-0.882-0.178h-0.914c-0.313,0-0.607,0.06-0.883,0.178
		s-0.514,0.279-0.717,0.482s-0.364,0.442-0.482,0.718c-0.119,0.274-0.178,0.568-0.178,0.882v0.47l-1.563-0.254V8.981
		c0-0.525,0.1-1.02,0.299-1.485s0.472-0.872,0.818-1.219c0.348-0.347,0.754-0.62,1.219-0.819c0.466-0.198,0.961-0.298,1.486-0.298
		h0.914c0.524,0,1.02,0.1,1.484,0.298c0.466,0.199,0.872,0.473,1.219,0.819c0.348,0.347,0.621,0.753,0.819,1.219
		s0.298,0.96,0.298,1.485v9.433H58.643z M57.602,12.116h-3.301c-0.313,0-0.607,0.06-0.883,0.178s-0.514,0.281-0.717,0.489
		c-0.203,0.207-0.364,0.448-0.482,0.723c-0.119,0.275-0.178,0.57-0.178,0.883v0.546c0,0.313,0.059,0.607,0.178,0.882
		c0.118,0.275,0.279,0.515,0.482,0.718s0.441,0.364,0.717,0.482s0.569,0.178,0.883,0.178h1.041c0.313,0,0.607-0.06,0.882-0.178
		s0.515-0.279,0.718-0.482s0.363-0.442,0.482-0.718c0.118-0.274,0.178-0.568,0.178-0.882V12.116z M54.174,3.331h-1.168l2.068-3.123
		h2.604L54.174,3.331z"/>
	<path class="st2" d="M62.807,18.413V0.208h1.561v18.205H62.807z"/>
	<path class="st2" d="M68.404,2.29V0.208h1.816V2.29H68.404z M68.531,18.413v-13h1.563v13H68.531z"/>
	<path class="st2" d="M82.674,15.112c0,0.524-0.105,1.005-0.316,1.44c-0.212,0.437-0.5,0.811-0.863,1.124
		c-0.364,0.313-0.785,0.557-1.264,0.729c-0.479,0.174-0.979,0.261-1.504,0.261h-1.041c-0.525,0-1.027-0.1-1.505-0.298
		c-0.478-0.199-0.897-0.473-1.257-0.819s-0.647-0.753-0.863-1.219c-0.216-0.466-0.324-0.96-0.324-1.485v-0.521l1.563-0.254v0.863
		c0,0.313,0.064,0.607,0.196,0.882c0.132,0.275,0.307,0.515,0.526,0.718c0.221,0.203,0.475,0.364,0.762,0.482
		c0.288,0.118,0.589,0.178,0.902,0.178h1.041c0.313,0,0.613-0.046,0.9-0.14c0.288-0.094,0.545-0.227,0.769-0.4
		c0.224-0.173,0.401-0.383,0.533-0.628c0.132-0.245,0.196-0.524,0.196-0.838c0-0.466-0.102-0.847-0.305-1.143
		s-0.471-0.544-0.806-0.743c-0.335-0.198-0.716-0.363-1.143-0.494c-0.427-0.132-0.865-0.263-1.313-0.395
		c-0.449-0.131-0.887-0.281-1.314-0.45s-0.809-0.392-1.143-0.667c-0.334-0.274-0.604-0.619-0.807-1.034S73.99,9.332,73.99,8.714
		c0-0.524,0.102-1.005,0.305-1.44c0.203-0.437,0.479-0.811,0.826-1.124c0.347-0.313,0.75-0.557,1.212-0.729
		c0.462-0.174,0.954-0.261,1.479-0.261h0.914c0.524,0,1.02,0.1,1.484,0.298c0.466,0.199,0.872,0.473,1.219,0.819
		c0.348,0.347,0.621,0.753,0.819,1.219s0.298,0.96,0.298,1.485v0.051l-1.561,0.254V8.892c0-0.313-0.06-0.607-0.178-0.882
		c-0.119-0.275-0.279-0.515-0.482-0.718s-0.443-0.364-0.718-0.482s-0.569-0.178-0.882-0.178h-0.914c-0.313,0-0.607,0.046-0.883,0.14
		s-0.514,0.227-0.717,0.4C76.01,7.345,75.849,7.555,75.73,7.8c-0.119,0.245-0.178,0.524-0.178,0.838
		c0,0.448,0.102,0.814,0.305,1.099c0.203,0.283,0.471,0.521,0.806,0.717s0.716,0.357,1.143,0.488
		c0.427,0.132,0.863,0.268,1.308,0.406c0.444,0.141,0.881,0.299,1.308,0.477s0.808,0.406,1.143,0.686s0.603,0.629,0.806,1.047
		C82.572,13.977,82.674,14.494,82.674,15.112z"/>
	<path class="st2" d="M86.064,2.29V0.208h1.814V2.29H86.064z M86.191,18.413v-13h1.561v13H86.191z"/>
	<path class="st2" d="M100.334,15.112c0,0.524-0.106,1.005-0.318,1.44c-0.211,0.437-0.499,0.811-0.863,1.124
		c-0.363,0.313-0.785,0.557-1.263,0.729c-0.478,0.174-0.979,0.261-1.505,0.261h-1.041c-0.524,0-1.025-0.1-1.504-0.298
		c-0.479-0.199-0.896-0.473-1.257-0.819s-0.647-0.753-0.863-1.219c-0.216-0.466-0.323-0.96-0.323-1.485v-0.521l1.561-0.254v0.863
		c0,0.313,0.066,0.607,0.197,0.882c0.131,0.275,0.307,0.515,0.527,0.718c0.22,0.203,0.474,0.364,0.762,0.482
		c0.287,0.118,0.588,0.178,0.9,0.178h1.041c0.313,0,0.614-0.046,0.902-0.14c0.287-0.094,0.543-0.227,0.768-0.4
		c0.225-0.173,0.402-0.383,0.533-0.628c0.131-0.245,0.197-0.524,0.197-0.838c0-0.466-0.102-0.847-0.305-1.143
		s-0.473-0.544-0.807-0.743c-0.334-0.198-0.715-0.363-1.143-0.494c-0.428-0.132-0.865-0.263-1.314-0.395
		c-0.448-0.131-0.887-0.281-1.313-0.45s-0.808-0.392-1.143-0.667c-0.335-0.274-0.603-0.619-0.806-1.034S91.65,9.332,91.65,8.714
		c0-0.524,0.102-1.005,0.305-1.44c0.203-0.437,0.478-0.811,0.824-1.124c0.348-0.313,0.752-0.557,1.213-0.729
		c0.461-0.174,0.954-0.261,1.479-0.261h0.914c0.525,0,1.021,0.1,1.486,0.298c0.465,0.199,0.871,0.473,1.219,0.819
		c0.347,0.347,0.619,0.753,0.818,1.219s0.299,0.96,0.299,1.485v0.051l-1.563,0.254V8.892c0-0.313-0.059-0.607-0.178-0.882
		c-0.118-0.275-0.279-0.515-0.482-0.718s-0.441-0.364-0.717-0.482s-0.569-0.178-0.883-0.178h-0.914c-0.313,0-0.607,0.046-0.882,0.14
		s-0.515,0.227-0.718,0.4c-0.203,0.173-0.363,0.383-0.482,0.628c-0.118,0.245-0.178,0.524-0.178,0.838
		c0,0.448,0.102,0.814,0.305,1.099c0.203,0.283,0.473,0.521,0.807,0.717s0.715,0.357,1.143,0.488
		c0.428,0.132,0.863,0.268,1.308,0.406c0.444,0.141,0.88,0.299,1.308,0.477s0.809,0.406,1.143,0.686s0.604,0.629,0.807,1.047
		C100.232,13.977,100.334,14.494,100.334,15.112z"/>
	<path class="st2" d="M117.473,18.413l-0.863-1.32c-0.355,0.482-0.801,0.865-1.334,1.149c-0.533,0.283-1.117,0.425-1.752,0.425
		h-0.393c-0.525,0-1.021-0.1-1.486-0.298c-0.465-0.199-0.871-0.473-1.219-0.819c-0.347-0.347-0.619-0.753-0.818-1.219
		c-0.199-0.466-0.299-0.96-0.299-1.485V8.981c0-0.525,0.1-1.02,0.299-1.485s0.472-0.872,0.818-1.219
		c0.348-0.347,0.754-0.62,1.219-0.819c0.466-0.198,0.961-0.298,1.486-0.298h0.393c0.584,0,1.126,0.118,1.625,0.355
		c0.5,0.237,0.928,0.567,1.283,0.99V0.208h1.561v18.205H117.473z M116.432,8.892c0-0.313-0.06-0.607-0.178-0.882
		c-0.119-0.275-0.279-0.515-0.482-0.718s-0.443-0.364-0.718-0.482s-0.569-0.178-0.882-0.178h-1.041c-0.313,0-0.607,0.06-0.883,0.178
		s-0.514,0.279-0.717,0.482s-0.364,0.442-0.482,0.718c-0.119,0.274-0.178,0.568-0.178,0.882v6.043c0,0.313,0.059,0.607,0.178,0.882
		c0.118,0.275,0.279,0.515,0.482,0.718s0.441,0.364,0.717,0.482s0.569,0.178,0.883,0.178h1.041c0.313,0,0.607-0.06,0.882-0.178
		s0.515-0.279,0.718-0.482s0.363-0.442,0.482-0.718c0.118-0.274,0.178-0.568,0.178-0.882V8.892z"/>
	<path class="st2" d="M129.501,16.331c-0.198,0.466-0.472,0.872-0.819,1.219c-0.347,0.347-0.753,0.62-1.219,0.819
		c-0.465,0.198-0.96,0.298-1.484,0.298h-1.041c-0.525,0-1.021-0.1-1.486-0.298c-0.465-0.199-0.871-0.473-1.219-0.819
		c-0.347-0.347-0.619-0.753-0.818-1.219c-0.199-0.466-0.299-0.96-0.299-1.485V8.981c0-0.525,0.1-1.02,0.299-1.485
		s0.472-0.872,0.818-1.219c0.348-0.347,0.754-0.62,1.219-0.819c0.466-0.198,0.961-0.298,1.486-0.298h1.041
		c0.524,0,1.02,0.1,1.484,0.298c0.466,0.199,0.872,0.473,1.219,0.819c0.348,0.347,0.621,0.753,0.819,1.219s0.298,0.96,0.298,1.485
		v3.06h-7.121v2.895c0,0.313,0.059,0.607,0.178,0.882c0.118,0.275,0.279,0.515,0.482,0.718s0.441,0.364,0.717,0.482
		s0.569,0.178,0.883,0.178h1.041c0.313,0,0.607-0.06,0.882-0.178s0.515-0.279,0.718-0.482s0.363-0.442,0.482-0.718
		c0.118-0.274,0.178-0.568,0.178-0.882v-0.863l1.561,0.254v0.521C129.799,15.371,129.699,15.865,129.501,16.331z M128.238,8.892
		c0-0.313-0.06-0.607-0.178-0.882c-0.119-0.275-0.279-0.515-0.482-0.718s-0.443-0.364-0.718-0.482s-0.569-0.178-0.882-0.178h-1.041
		c-0.313,0-0.607,0.06-0.883,0.178s-0.514,0.279-0.717,0.482s-0.364,0.442-0.482,0.718c-0.119,0.274-0.178,0.568-0.178,0.882v1.93
		h5.561V8.892z"/>
	<path class="st2" d="M139.295,2.29V0.208h1.816V2.29H139.295z M139.422,18.413v-13h1.563v13H139.422z"/>
	<path class="st2" d="M151.75,18.413V8.892c0-0.313-0.06-0.607-0.178-0.882c-0.119-0.275-0.279-0.515-0.482-0.718
		s-0.443-0.364-0.718-0.482s-0.569-0.178-0.882-0.178h-1.041c-0.313,0-0.607,0.06-0.883,0.178s-0.514,0.279-0.717,0.482
		s-0.364,0.442-0.482,0.718c-0.119,0.274-0.178,0.568-0.178,0.882v9.521h-1.563v-13h0.521l0.85,1.32
		c0.355-0.482,0.803-0.865,1.34-1.149c0.537-0.283,1.123-0.425,1.758-0.425h0.395c0.524,0,1.02,0.1,1.484,0.298
		c0.466,0.199,0.872,0.473,1.219,0.819c0.348,0.347,0.621,0.753,0.819,1.219s0.298,0.96,0.298,1.485v9.433H151.75z"/>
	<path class="st2" d="M160.51,18.413h-0.775l-4.607-13h1.561l3.391,9.852l0.051,0.673l0.051-0.673l3.377-9.852h1.561L160.51,18.413z
		"/>
	<path class="st2" d="M175.318,16.331c-0.199,0.466-0.472,0.872-0.818,1.219c-0.348,0.347-0.754,0.62-1.219,0.819
		c-0.466,0.198-0.961,0.298-1.486,0.298h-1.041c-0.524,0-1.02-0.1-1.484-0.298c-0.466-0.199-0.872-0.473-1.219-0.819
		c-0.348-0.347-0.621-0.753-0.819-1.219c-0.198-0.466-0.298-0.96-0.298-1.485V8.981c0-0.525,0.1-1.02,0.298-1.485
		s0.472-0.872,0.819-1.219c0.347-0.347,0.753-0.62,1.219-0.819c0.465-0.198,0.96-0.298,1.484-0.298h1.041
		c0.525,0,1.021,0.1,1.486,0.298c0.465,0.199,0.871,0.473,1.219,0.819c0.347,0.347,0.619,0.753,0.818,1.219s0.299,0.96,0.299,1.485
		v5.865C175.617,15.371,175.518,15.865,175.318,16.331z M174.055,8.892c0-0.313-0.059-0.607-0.178-0.882
		c-0.118-0.275-0.279-0.515-0.482-0.718s-0.441-0.364-0.717-0.482s-0.569-0.178-0.883-0.178h-1.041c-0.313,0-0.607,0.06-0.882,0.178
		s-0.515,0.279-0.718,0.482s-0.363,0.442-0.482,0.718c-0.118,0.274-0.178,0.568-0.178,0.882v6.043c0,0.313,0.06,0.607,0.178,0.882
		c0.119,0.275,0.279,0.515,0.482,0.718s0.443,0.364,0.718,0.482s0.569,0.178,0.882,0.178h1.041c0.313,0,0.607-0.06,0.883-0.178
		s0.514-0.279,0.717-0.482s0.364-0.442,0.482-0.718c0.119-0.274,0.178-0.568,0.178-0.882V8.892z"/>
	<path class="st2" d="M179.26,18.413V0.208h1.563v18.205H179.26z"/>
	<path class="st2" d="M192.629,18.413l-0.863-1.32c-0.355,0.482-0.801,0.865-1.334,1.149c-0.533,0.283-1.117,0.425-1.752,0.425
		h-0.393c-0.525,0-1.021-0.1-1.486-0.298c-0.465-0.199-0.871-0.473-1.219-0.819c-0.347-0.347-0.619-0.753-0.818-1.219
		c-0.199-0.466-0.299-0.96-0.299-1.485V5.413h1.563v9.521c0,0.313,0.059,0.607,0.178,0.882c0.118,0.275,0.279,0.515,0.482,0.718
		s0.441,0.364,0.717,0.482s0.569,0.178,0.883,0.178h1.041c0.313,0,0.607-0.06,0.882-0.178s0.515-0.279,0.718-0.482
		s0.363-0.442,0.482-0.718c0.118-0.274,0.178-0.568,0.178-0.882V5.413h1.561v13H192.629z"/>
	<path class="st2" d="M204.657,16.331c-0.198,0.466-0.472,0.872-0.819,1.219c-0.347,0.347-0.753,0.62-1.219,0.819
		c-0.465,0.198-0.96,0.298-1.484,0.298h-1.041c-0.525,0-1.021-0.1-1.486-0.298c-0.465-0.199-0.871-0.473-1.219-0.819
		c-0.347-0.347-0.619-0.753-0.818-1.219c-0.199-0.466-0.299-0.96-0.299-1.485V8.981c0-0.525,0.1-1.02,0.299-1.485
		s0.472-0.872,0.818-1.219c0.348-0.347,0.754-0.62,1.219-0.819c0.466-0.198,0.961-0.298,1.486-0.298h1.041
		c0.524,0,1.02,0.1,1.484,0.298c0.466,0.199,0.872,0.473,1.219,0.819c0.348,0.347,0.621,0.753,0.819,1.219s0.298,0.96,0.298,1.485
		v0.521l-1.561,0.254V8.892c0-0.313-0.06-0.607-0.178-0.882c-0.119-0.275-0.279-0.515-0.482-0.718s-0.443-0.364-0.718-0.482
		s-0.569-0.178-0.882-0.178h-1.041c-0.313,0-0.607,0.06-0.883,0.178s-0.514,0.279-0.717,0.482s-0.364,0.442-0.482,0.718
		c-0.119,0.274-0.178,0.568-0.178,0.882v6.043c0,0.313,0.059,0.607,0.178,0.882c0.118,0.275,0.279,0.515,0.482,0.718
		s0.441,0.364,0.717,0.482s0.569,0.178,0.883,0.178h1.041c0.313,0,0.607-0.06,0.882-0.178s0.515-0.279,0.718-0.482
		s0.363-0.442,0.482-0.718c0.118-0.274,0.178-0.568,0.178-0.882v-0.863l1.561,0.254v0.521
		C204.955,15.371,204.855,15.865,204.657,16.331z"/>
	<path class="st2" d="M211.9,6.898c-0.313,0-0.607,0.059-0.883,0.178s-0.514,0.279-0.717,0.482s-0.364,0.442-0.482,0.717
		c-0.119,0.275-0.178,0.57-0.178,0.883v9.255h-1.563v-13h0.521l0.85,1.32c0.355-0.482,0.803-0.865,1.34-1.149
		c0.537-0.283,1.123-0.425,1.758-0.425h0.914v1.739H211.9z"/>
	<path class="st2" d="M223.707,18.413l-0.863-1.295c-0.355,0.466-0.801,0.84-1.334,1.124c-0.533,0.283-1.117,0.425-1.752,0.425
		h-0.393c-0.525,0-1.021-0.1-1.486-0.298c-0.465-0.199-0.871-0.473-1.219-0.819c-0.347-0.347-0.619-0.753-0.818-1.219
		c-0.199-0.466-0.299-0.96-0.299-1.485v-0.127c0-0.525,0.1-1.02,0.299-1.485s0.472-0.872,0.818-1.219
		c0.348-0.347,0.754-0.62,1.219-0.819c0.466-0.198,0.961-0.298,1.486-0.298h3.301V8.892c0-0.313-0.06-0.607-0.178-0.882
		c-0.119-0.275-0.279-0.515-0.482-0.718s-0.443-0.364-0.718-0.482s-0.569-0.178-0.882-0.178h-0.914c-0.313,0-0.607,0.06-0.883,0.178
		s-0.514,0.279-0.717,0.482s-0.364,0.442-0.482,0.718c-0.119,0.274-0.178,0.568-0.178,0.882v0.47l-1.563-0.254V8.981
		c0-0.525,0.1-1.02,0.299-1.485s0.472-0.872,0.818-1.219c0.348-0.347,0.754-0.62,1.219-0.819c0.466-0.198,0.961-0.298,1.486-0.298
		h0.914c0.524,0,1.02,0.1,1.484,0.298c0.466,0.199,0.872,0.473,1.219,0.819c0.348,0.347,0.621,0.753,0.819,1.219
		s0.298,0.96,0.298,1.485v9.433H223.707z M222.666,12.116h-3.301c-0.313,0-0.607,0.06-0.883,0.178s-0.514,0.281-0.717,0.489
		c-0.203,0.207-0.364,0.448-0.482,0.723c-0.119,0.275-0.178,0.57-0.178,0.883v0.546c0,0.313,0.059,0.607,0.178,0.882
		c0.118,0.275,0.279,0.515,0.482,0.718s0.441,0.364,0.717,0.482s0.569,0.178,0.883,0.178h1.041c0.313,0,0.607-0.06,0.882-0.178
		s0.515-0.279,0.718-0.482s0.363-0.442,0.482-0.718c0.118-0.274,0.178-0.568,0.178-0.882V12.116z"/>
	<path class="st2" d="M235.514,18.413l-0.863-1.32c-0.355,0.482-0.801,0.865-1.334,1.149c-0.533,0.283-1.117,0.425-1.752,0.425
		h-0.393c-0.525,0-1.021-0.1-1.486-0.298c-0.465-0.199-0.871-0.473-1.219-0.819c-0.347-0.347-0.619-0.753-0.818-1.219
		c-0.199-0.466-0.299-0.96-0.299-1.485V8.981c0-0.525,0.1-1.02,0.299-1.485s0.472-0.872,0.818-1.219
		c0.348-0.347,0.754-0.62,1.219-0.819c0.466-0.198,0.961-0.298,1.486-0.298h0.393c0.584,0,1.126,0.118,1.625,0.355
		c0.5,0.237,0.928,0.567,1.283,0.99V0.208h1.561v18.205H235.514z M234.473,8.892c0-0.313-0.06-0.607-0.178-0.882
		c-0.119-0.275-0.279-0.515-0.482-0.718s-0.443-0.364-0.718-0.482s-0.569-0.178-0.882-0.178h-1.041c-0.313,0-0.607,0.06-0.883,0.178
		s-0.514,0.279-0.717,0.482s-0.364,0.442-0.482,0.718c-0.119,0.274-0.178,0.568-0.178,0.882v6.043c0,0.313,0.059,0.607,0.178,0.882
		c0.118,0.275,0.279,0.515,0.482,0.718s0.441,0.364,0.717,0.482s0.569,0.178,0.883,0.178h1.041c0.313,0,0.607-0.06,0.882-0.178
		s0.515-0.279,0.718-0.482s0.363-0.442,0.482-0.718c0.118-0.274,0.178-0.568,0.178-0.882V8.892z"/>
	<path class="st2" d="M247.542,16.331c-0.198,0.466-0.472,0.872-0.819,1.219c-0.347,0.347-0.753,0.62-1.219,0.819
		c-0.465,0.198-0.96,0.298-1.484,0.298h-1.041c-0.525,0-1.021-0.1-1.486-0.298c-0.465-0.199-0.871-0.473-1.219-0.819
		c-0.347-0.347-0.619-0.753-0.818-1.219c-0.199-0.466-0.299-0.96-0.299-1.485V8.981c0-0.525,0.1-1.02,0.299-1.485
		s0.472-0.872,0.818-1.219c0.348-0.347,0.754-0.62,1.219-0.819c0.466-0.198,0.961-0.298,1.486-0.298h1.041
		c0.524,0,1.02,0.1,1.484,0.298c0.466,0.199,0.872,0.473,1.219,0.819c0.348,0.347,0.621,0.753,0.819,1.219s0.298,0.96,0.298,1.485
		v5.865C247.84,15.371,247.74,15.865,247.542,16.331z M246.279,8.892c0-0.313-0.06-0.607-0.178-0.882
		c-0.119-0.275-0.279-0.515-0.482-0.718s-0.443-0.364-0.718-0.482s-0.569-0.178-0.882-0.178h-1.041c-0.313,0-0.607,0.06-0.883,0.178
		s-0.514,0.279-0.717,0.482s-0.364,0.442-0.482,0.718c-0.119,0.274-0.178,0.568-0.178,0.882v6.043c0,0.313,0.059,0.607,0.178,0.882
		c0.118,0.275,0.279,0.515,0.482,0.718s0.441,0.364,0.717,0.482s0.569,0.178,0.883,0.178h1.041c0.313,0,0.607-0.06,0.882-0.178
		s0.515-0.279,0.718-0.482s0.363-0.442,0.482-0.718c0.118-0.274,0.178-0.568,0.178-0.882V8.892z"/>
	<path class="st2" d="M259.9,15.112c0,0.524-0.105,1.005-0.316,1.44c-0.212,0.437-0.5,0.811-0.863,1.124
		c-0.364,0.313-0.785,0.557-1.264,0.729c-0.479,0.174-0.979,0.261-1.504,0.261h-1.041c-0.525,0-1.027-0.1-1.505-0.298
		c-0.478-0.199-0.897-0.473-1.257-0.819s-0.647-0.753-0.863-1.219c-0.216-0.466-0.324-0.96-0.324-1.485v-0.521l1.563-0.254v0.863
		c0,0.313,0.064,0.607,0.196,0.882c0.132,0.275,0.307,0.515,0.526,0.718c0.221,0.203,0.475,0.364,0.762,0.482
		c0.288,0.118,0.589,0.178,0.902,0.178h1.041c0.313,0,0.613-0.046,0.9-0.14c0.288-0.094,0.545-0.227,0.769-0.4
		c0.224-0.173,0.401-0.383,0.533-0.628c0.132-0.245,0.196-0.524,0.196-0.838c0-0.466-0.102-0.847-0.305-1.143
		s-0.471-0.544-0.806-0.743c-0.335-0.198-0.716-0.363-1.143-0.494c-0.427-0.132-0.865-0.263-1.313-0.395
		c-0.449-0.131-0.887-0.281-1.314-0.45s-0.809-0.392-1.143-0.667c-0.334-0.274-0.604-0.619-0.807-1.034s-0.305-0.931-0.305-1.549
		c0-0.524,0.102-1.005,0.305-1.44c0.203-0.437,0.479-0.811,0.826-1.124c0.347-0.313,0.75-0.557,1.212-0.729
		c0.462-0.174,0.954-0.261,1.479-0.261h0.914c0.524,0,1.02,0.1,1.484,0.298c0.466,0.199,0.872,0.473,1.219,0.819
		c0.348,0.347,0.621,0.753,0.819,1.219s0.298,0.96,0.298,1.485v0.051l-1.561,0.254V8.892c0-0.313-0.06-0.607-0.178-0.882
		c-0.119-0.275-0.279-0.515-0.482-0.718s-0.443-0.364-0.718-0.482s-0.569-0.178-0.882-0.178h-0.914c-0.313,0-0.607,0.046-0.883,0.14
		s-0.514,0.227-0.717,0.4c-0.203,0.173-0.364,0.383-0.482,0.628c-0.119,0.245-0.178,0.524-0.178,0.838
		c0,0.448,0.102,0.814,0.305,1.099c0.203,0.283,0.471,0.521,0.806,0.717s0.716,0.357,1.143,0.488
		c0.427,0.132,0.863,0.268,1.308,0.406c0.444,0.141,0.881,0.299,1.308,0.477s0.808,0.406,1.143,0.686s0.603,0.629,0.806,1.047
		C259.799,13.977,259.9,14.494,259.9,15.112z"/>
</g>
</svg>