<!-- Generator: Adobe Illustrator 17.0.0, SVG Export Plug-In  -->
<svg version="1.1"
	 xmlns="http://www.w3.org/2000/svg" xmlns:xlink="http://www.w3.org/1999/xlink" xmlns:a="http://ns.adobe.com/AdobeSVGViewerExtensions/3.0/"
	 x="0px" y="0px" width="137.381px" height="18.033px" viewBox="0 0 137.381 18.033" enable-background="new 0 0 137.381 18.033"
	 xml:space="preserve">
<defs>
</defs>
<path id="XMLID_1_" fill="#FFFFFF" stroke="#000000" stroke-width="0.5" stroke-miterlimit="10" d="M16.6,14.375l-3.291-3.291
	c0.678-1.064,1.066-2.418,1.066-3.773c0-3.871-3.191-7.061-7.064-7.061c-3.867,0-7.061,3.189-7.061,7.061s3.193,7.064,7.061,7.064
	c1.356,0,2.711-0.387,3.775-1.064l3.289,3.291c0.289,0.289,0.676,0.484,1.064,0.484c0.389,0,0.772-0.195,1.062-0.484
	C17.18,15.924,17.18,14.953,16.6,14.375L16.6,14.375z M7.311,12.15c-2.707,0-4.836-2.131-4.836-4.84
	c0-2.707,2.129-4.836,4.836-4.836c2.711,0,4.84,2.129,4.84,4.836C12.15,9.922,10.022,12.15,7.311,12.15L7.311,12.15z"/>
<g>
	<path fill="#FFFFFF" d="M24.677,14.655V2.486h4.59c0.808,0,1.425,0.038,1.851,0.116c0.598,0.1,1.099,0.289,1.502,0.568
		s0.729,0.671,0.975,1.175c0.247,0.503,0.37,1.057,0.37,1.66c0,1.034-0.329,1.91-0.988,2.627s-1.848,1.075-3.569,1.075h-3.121v4.947
		H24.677z M26.287,8.271h3.146c1.041,0,1.779-0.193,2.216-0.581c0.437-0.387,0.656-0.933,0.656-1.635
		c0-0.51-0.128-0.945-0.386-1.308c-0.257-0.362-0.596-0.602-1.017-0.718C30.631,3.958,30.13,3.922,29.4,3.922h-3.113V8.271z"/>
	<path fill="#FFFFFF" d="M34.55,14.655V5.84h1.345v1.336c0.343-0.625,0.66-1.037,0.951-1.236c0.29-0.199,0.61-0.299,0.958-0.299
		c0.503,0,1.016,0.16,1.536,0.481l-0.515,1.386c-0.365-0.216-0.73-0.323-1.096-0.323c-0.327,0-0.62,0.098-0.88,0.295
		c-0.26,0.196-0.445,0.469-0.556,0.817c-0.166,0.531-0.249,1.112-0.249,1.743v4.615H34.55z"/>
	<path fill="#FFFFFF" d="M38.978,4.204V2.486h1.494v1.718H38.978z M38.978,14.655V5.84h1.494v8.815H38.978z"/>
	<path fill="#FFFFFF" d="M41.489,14.655V5.84h1.345v1.253c0.647-0.968,1.583-1.452,2.806-1.452c0.531,0,1.02,0.096,1.465,0.286
		c0.445,0.191,0.779,0.441,1,0.751c0.221,0.311,0.376,0.678,0.465,1.104c0.055,0.276,0.083,0.761,0.083,1.452v5.421h-1.494V9.293
		c0-0.609-0.058-1.064-0.174-1.365c-0.116-0.302-0.322-0.543-0.619-0.723c-0.296-0.18-0.643-0.27-1.042-0.27
		c-0.636,0-1.186,0.202-1.648,0.605c-0.462,0.404-0.693,1.171-0.693,2.3v4.814H41.489z"/>
	<path fill="#FFFFFF" d="M55.438,11.426l1.469,0.191c-0.161,1.013-0.571,1.806-1.233,2.378c-0.661,0.573-1.473,0.859-2.436,0.859
		c-1.207,0-2.176-0.395-2.91-1.183c-0.733-0.789-1.1-1.919-1.1-3.392c0-0.951,0.158-1.784,0.473-2.498s0.795-1.249,1.44-1.606
		c0.645-0.356,1.346-0.535,2.104-0.535c0.958,0,1.74,0.242,2.349,0.727c0.609,0.483,0.999,1.171,1.17,2.063l-1.453,0.224
		c-0.138-0.592-0.383-1.037-0.735-1.336c-0.351-0.299-0.776-0.448-1.274-0.448c-0.752,0-1.364,0.27-1.834,0.81
		c-0.47,0.539-0.706,1.393-0.706,2.561c0,1.184,0.227,2.045,0.681,2.581c0.454,0.537,1.046,0.806,1.776,0.806
		c0.586,0,1.076-0.18,1.469-0.54C55.084,12.727,55.333,12.173,55.438,11.426z"/>
	<path fill="#FFFFFF" d="M56.936,4.204V2.486h1.494v1.718H56.936z M56.936,14.655V5.84h1.494v8.815H56.936z"/>
	<path fill="#FFFFFF" d="M59.446,18.033V5.84h1.361v1.146c0.321-0.448,0.684-0.784,1.087-1.009c0.404-0.224,0.894-0.336,1.469-0.336
		c0.752,0,1.417,0.193,1.992,0.581c0.576,0.387,1.01,0.934,1.303,1.64c0.293,0.705,0.44,1.479,0.44,2.319
		c0,0.902-0.162,1.715-0.486,2.437c-0.323,0.723-0.794,1.275-1.411,1.66c-0.617,0.385-1.266,0.577-1.946,0.577
		c-0.498,0-0.945-0.105-1.341-0.315c-0.396-0.211-0.721-0.477-0.975-0.797v4.291H59.446z M60.799,10.297
		c0,1.135,0.229,1.973,0.689,2.516c0.459,0.542,1.016,0.813,1.668,0.813c0.664,0,1.232-0.281,1.706-0.843
		c0.473-0.562,0.709-1.432,0.709-2.61c0-1.124-0.231-1.965-0.693-2.523c-0.462-0.56-1.014-0.839-1.656-0.839
		c-0.636,0-1.199,0.298-1.689,0.893C61.044,8.298,60.799,9.163,60.799,10.297z"/>
	<path fill="#FFFFFF" d="M67.651,4.204V2.486h1.494v1.718H67.651z M67.651,14.655V5.84h1.494v8.815H67.651z"/>
	<path fill="#FFFFFF" d="M69.605,10.247c0-1.632,0.454-2.842,1.361-3.627c0.758-0.653,1.682-0.979,2.772-0.979
		c1.212,0,2.203,0.396,2.972,1.191c0.769,0.794,1.154,1.891,1.154,3.291c0,1.134-0.17,2.026-0.51,2.677
		c-0.341,0.65-0.836,1.155-1.486,1.515c-0.65,0.36-1.36,0.54-2.129,0.54c-1.234,0-2.231-0.396-2.992-1.188
		C69.986,12.876,69.605,11.736,69.605,10.247z M71.141,10.247c0,1.129,0.246,1.975,0.739,2.536s1.112,0.843,1.859,0.843
		c0.742,0,1.358-0.282,1.851-0.847s0.739-1.425,0.739-2.582c0-1.09-0.248-1.916-0.743-2.478c-0.495-0.562-1.111-0.843-1.847-0.843
		c-0.747,0-1.367,0.279-1.859,0.839C71.387,8.274,71.141,9.118,71.141,10.247z"/>
	<path fill="#FFFFFF" d="M77.761,12.023l1.478-0.232c0.083,0.593,0.314,1.046,0.693,1.361c0.379,0.315,0.909,0.474,1.59,0.474
		c0.686,0,1.195-0.14,1.527-0.419c0.332-0.28,0.498-0.607,0.498-0.984c0-0.337-0.146-0.603-0.44-0.797
		c-0.205-0.133-0.714-0.302-1.527-0.506c-1.096-0.277-1.855-0.517-2.279-0.718C78.877,10,78.556,9.721,78.337,9.363
		c-0.218-0.356-0.328-0.751-0.328-1.183c0-0.394,0.09-0.757,0.27-1.092c0.18-0.335,0.424-0.613,0.734-0.834
		c0.232-0.172,0.549-0.317,0.95-0.436c0.401-0.119,0.832-0.179,1.291-0.179c0.692,0,1.299,0.1,1.822,0.299
		c0.522,0.199,0.909,0.469,1.158,0.81c0.249,0.34,0.42,0.795,0.515,1.365l-1.461,0.199c-0.066-0.454-0.259-0.809-0.577-1.063
		c-0.318-0.255-0.768-0.382-1.349-0.382c-0.686,0-1.176,0.113-1.469,0.34c-0.293,0.228-0.44,0.493-0.44,0.797
		c0,0.194,0.061,0.368,0.183,0.523c0.122,0.16,0.313,0.293,0.573,0.398c0.149,0.055,0.589,0.183,1.32,0.382
		c1.057,0.282,1.794,0.513,2.212,0.693c0.417,0.18,0.746,0.44,0.983,0.784c0.238,0.343,0.357,0.769,0.357,1.278
		c0,0.498-0.145,0.967-0.436,1.407c-0.29,0.439-0.709,0.78-1.257,1.021c-0.548,0.241-1.167,0.361-1.859,0.361
		c-1.146,0-2.019-0.238-2.619-0.714C78.31,13.664,77.927,12.959,77.761,12.023z"/>
	<path fill="#FFFFFF" d="M90.443,14.655h-1.386V2.486h1.494v4.341c0.631-0.791,1.437-1.187,2.416-1.187
		c0.543,0,1.056,0.109,1.539,0.328c0.484,0.218,0.883,0.525,1.195,0.921c0.313,0.396,0.559,0.873,0.735,1.432
		c0.177,0.56,0.266,1.157,0.266,1.793c0,1.511-0.374,2.679-1.12,3.503c-0.748,0.825-1.645,1.237-2.689,1.237
		c-1.041,0-1.857-0.435-2.449-1.304V14.655z M90.427,10.181c0,1.058,0.144,1.821,0.432,2.291c0.47,0.77,1.106,1.154,1.909,1.154
		c0.652,0,1.217-0.284,1.693-0.851c0.477-0.567,0.714-1.413,0.714-2.536c0-1.151-0.228-2.001-0.685-2.549s-1.009-0.821-1.656-0.821
		c-0.652,0-1.217,0.283-1.693,0.851S90.427,9.107,90.427,10.181z"/>
	<path fill="#FFFFFF" d="M103.014,13.567c-0.553,0.471-1.086,0.803-1.598,0.996c-0.512,0.194-1.061,0.291-1.647,0.291
		c-0.968,0-1.713-0.236-2.233-0.71c-0.52-0.473-0.779-1.078-0.779-1.813c0-0.432,0.098-0.826,0.295-1.183
		c0.195-0.357,0.453-0.644,0.771-0.859s0.676-0.379,1.074-0.49c0.294-0.077,0.736-0.152,1.328-0.224
		c1.207-0.145,2.096-0.315,2.665-0.515c0.005-0.205,0.009-0.335,0.009-0.391c0-0.608-0.142-1.037-0.424-1.286
		c-0.382-0.338-0.949-0.507-1.701-0.507c-0.703,0-1.223,0.123-1.557,0.37c-0.335,0.246-0.582,0.682-0.743,1.307l-1.461-0.199
		c0.133-0.625,0.352-1.13,0.655-1.515c0.305-0.385,0.744-0.681,1.32-0.888c0.576-0.208,1.242-0.312,2-0.312
		c0.753,0,1.365,0.088,1.835,0.266c0.47,0.177,0.816,0.399,1.038,0.668c0.221,0.269,0.376,0.607,0.465,1.017
		c0.049,0.255,0.074,0.714,0.074,1.378v1.992c0,1.39,0.031,2.268,0.096,2.636c0.063,0.368,0.189,0.721,0.377,1.059h-1.561
		C103.158,14.345,103.059,13.982,103.014,13.567z M102.89,10.23c-0.542,0.222-1.356,0.41-2.44,0.564
		c-0.614,0.089-1.049,0.188-1.303,0.299c-0.255,0.111-0.451,0.272-0.59,0.486c-0.139,0.213-0.207,0.449-0.207,0.709
		c0,0.398,0.15,0.73,0.451,0.996c0.303,0.266,0.744,0.398,1.324,0.398c0.576,0,1.088-0.126,1.536-0.377
		c0.448-0.252,0.777-0.597,0.987-1.034c0.161-0.337,0.241-0.835,0.241-1.494V10.23z M99.984,4.744l1.104-2.324h1.959l-1.826,2.324
		H99.984z"/>
	<path fill="#FFFFFF" d="M104.861,12.023l1.477-0.232c0.084,0.593,0.314,1.046,0.693,1.361s0.909,0.474,1.59,0.474
		c0.686,0,1.195-0.14,1.527-0.419c0.332-0.28,0.498-0.607,0.498-0.984c0-0.337-0.146-0.603-0.439-0.797
		c-0.205-0.133-0.715-0.302-1.527-0.506c-1.096-0.277-1.855-0.517-2.279-0.718c-0.423-0.202-0.744-0.481-0.963-0.839
		c-0.219-0.356-0.328-0.751-0.328-1.183c0-0.394,0.09-0.757,0.271-1.092c0.18-0.335,0.425-0.613,0.734-0.834
		c0.232-0.172,0.55-0.317,0.95-0.436c0.401-0.119,0.832-0.179,1.291-0.179c0.691,0,1.299,0.1,1.822,0.299
		c0.522,0.199,0.908,0.469,1.158,0.81c0.248,0.34,0.42,0.795,0.514,1.365l-1.461,0.199c-0.066-0.454-0.258-0.809-0.576-1.063
		c-0.318-0.255-0.768-0.382-1.35-0.382c-0.686,0-1.176,0.113-1.469,0.34c-0.293,0.228-0.439,0.493-0.439,0.797
		c0,0.194,0.061,0.368,0.182,0.523c0.122,0.16,0.313,0.293,0.573,0.398c0.149,0.055,0.589,0.183,1.319,0.382
		c1.058,0.282,1.795,0.513,2.213,0.693c0.418,0.18,0.746,0.44,0.983,0.784c0.237,0.343,0.356,0.769,0.356,1.278
		c0,0.498-0.145,0.967-0.436,1.407c-0.29,0.439-0.709,0.78-1.258,1.021c-0.547,0.241-1.167,0.361-1.859,0.361
		c-1.145,0-2.018-0.238-2.618-0.714C105.41,13.664,105.027,12.959,104.861,12.023z"/>
	<path fill="#FFFFFF" d="M112.709,4.204V2.486h1.494v1.718H112.709z M112.709,14.655V5.84h1.494v8.815H112.709z"/>
	<path fill="#FFFFFF" d="M120.972,11.426l1.47,0.191c-0.161,1.013-0.572,1.806-1.233,2.378c-0.661,0.573-1.474,0.859-2.437,0.859
		c-1.206,0-2.176-0.395-2.909-1.183c-0.733-0.789-1.1-1.919-1.1-3.392c0-0.951,0.157-1.784,0.474-2.498
		c0.314-0.714,0.795-1.249,1.439-1.606c0.645-0.356,1.346-0.535,2.104-0.535c0.958,0,1.74,0.242,2.349,0.727
		c0.609,0.483,1,1.171,1.171,2.063l-1.452,0.224c-0.139-0.592-0.384-1.037-0.735-1.336c-0.351-0.299-0.776-0.448-1.274-0.448
		c-0.752,0-1.363,0.27-1.834,0.81c-0.471,0.539-0.705,1.393-0.705,2.561c0,1.184,0.227,2.045,0.68,2.581
		c0.454,0.537,1.047,0.806,1.777,0.806c0.586,0,1.076-0.18,1.469-0.54C120.617,12.727,120.867,12.173,120.972,11.426z"/>
	<path fill="#FFFFFF" d="M121.905,10.247c0-1.632,0.454-2.842,1.361-3.627c0.759-0.653,1.683-0.979,2.772-0.979
		c1.212,0,2.203,0.396,2.972,1.191c0.769,0.794,1.153,1.891,1.153,3.291c0,1.134-0.17,2.026-0.51,2.677
		c-0.341,0.65-0.836,1.155-1.486,1.515c-0.65,0.36-1.359,0.54-2.129,0.54c-1.234,0-2.231-0.396-2.992-1.188
		C122.285,12.876,121.905,11.736,121.905,10.247z M123.441,10.247c0,1.129,0.246,1.975,0.738,2.536s1.112,0.843,1.859,0.843
		c0.742,0,1.358-0.282,1.852-0.847c0.492-0.564,0.738-1.425,0.738-2.582c0-1.09-0.248-1.916-0.743-2.478s-1.11-0.843-1.847-0.843
		c-0.747,0-1.367,0.279-1.859,0.839C123.688,8.274,123.441,9.118,123.441,10.247z"/>
	<path fill="#FFFFFF" d="M130.061,12.023l1.477-0.232c0.084,0.593,0.314,1.046,0.693,1.361s0.909,0.474,1.59,0.474
		c0.686,0,1.195-0.14,1.527-0.419c0.332-0.28,0.498-0.607,0.498-0.984c0-0.337-0.146-0.603-0.439-0.797
		c-0.205-0.133-0.715-0.302-1.527-0.506c-1.096-0.277-1.855-0.517-2.279-0.718c-0.423-0.202-0.744-0.481-0.963-0.839
		c-0.219-0.356-0.328-0.751-0.328-1.183c0-0.394,0.09-0.757,0.271-1.092c0.18-0.335,0.425-0.613,0.734-0.834
		c0.232-0.172,0.55-0.317,0.95-0.436c0.401-0.119,0.832-0.179,1.291-0.179c0.691,0,1.299,0.1,1.822,0.299
		c0.522,0.199,0.908,0.469,1.158,0.81c0.248,0.34,0.42,0.795,0.514,1.365l-1.461,0.199c-0.066-0.454-0.258-0.809-0.576-1.063
		c-0.318-0.255-0.768-0.382-1.35-0.382c-0.686,0-1.176,0.113-1.469,0.34c-0.293,0.228-0.439,0.493-0.439,0.797
		c0,0.194,0.061,0.368,0.182,0.523c0.122,0.16,0.313,0.293,0.573,0.398c0.149,0.055,0.589,0.183,1.319,0.382
		c1.058,0.282,1.795,0.513,2.213,0.693c0.418,0.18,0.746,0.44,0.983,0.784c0.237,0.343,0.356,0.769,0.356,1.278
		c0,0.498-0.145,0.967-0.436,1.407c-0.29,0.439-0.709,0.78-1.258,1.021c-0.547,0.241-1.167,0.361-1.859,0.361
		c-1.145,0-2.018-0.238-2.618-0.714C130.609,13.664,130.227,12.959,130.061,12.023z"/>
</g>
</svg>