<!-- Generator: Adobe Illustrator 17.0.0, SVG Export Plug-In  -->
<svg version="1.1"
	 xmlns="http://www.w3.org/2000/svg" xmlns:xlink="http://www.w3.org/1999/xlink" xmlns:a="http://ns.adobe.com/AdobeSVGViewerExtensions/3.0/"
	 x="0px" y="0px" width="138.59px" height="18.232px" viewBox="0 0 138.59 18.232" enable-background="new 0 0 138.59 18.232"
	 xml:space="preserve">
<defs>
</defs>
<path id="XMLID_1_" fill="#FFFFFF" stroke="#000000" stroke-width="0.5" stroke-miterlimit="10" d="M16.6,14.373l-3.291-3.289
	c0.678-1.064,1.066-2.418,1.066-3.773c0-3.871-3.191-7.061-7.064-7.061c-3.867,0-7.061,3.19-7.061,7.061s3.193,7.063,7.061,7.063
	c1.356,0,2.711-0.387,3.775-1.063l3.289,3.289c0.289,0.289,0.676,0.484,1.064,0.484c0.389,0,0.772-0.195,1.062-0.484
	C17.18,15.924,17.18,14.953,16.6,14.373L16.6,14.373z M7.311,12.15c-2.707,0-4.836-2.131-4.836-4.84
	c0-2.707,2.129-4.838,4.836-4.838c2.711,0,4.84,2.131,4.84,4.838C12.15,9.922,10.022,12.15,7.311,12.15L7.311,12.15z"/>
<g>
	<path fill="#FFFFFF" d="M24.677,14.654V2.485h4.59c0.808,0,1.425,0.039,1.851,0.116c0.598,0.1,1.099,0.289,1.502,0.568
		c0.404,0.28,0.729,0.671,0.975,1.175c0.247,0.503,0.37,1.057,0.37,1.66c0,1.035-0.329,1.911-0.988,2.627
		c-0.659,0.717-1.848,1.075-3.569,1.075h-3.121v4.947H24.677z M26.287,8.271h3.146c1.041,0,1.779-0.194,2.216-0.581
		c0.437-0.387,0.656-0.933,0.656-1.635c0-0.509-0.128-0.945-0.386-1.308c-0.257-0.362-0.596-0.602-1.017-0.718
		C30.631,3.958,30.13,3.921,29.4,3.921h-3.113V8.271z"/>
	<path fill="#FFFFFF" d="M34.55,14.654V5.839h1.345v1.336c0.343-0.625,0.66-1.038,0.951-1.237c0.29-0.199,0.61-0.299,0.958-0.299
		c0.503,0,1.016,0.161,1.536,0.481l-0.515,1.386c-0.365-0.216-0.73-0.324-1.096-0.324c-0.327,0-0.62,0.098-0.88,0.295
		c-0.26,0.196-0.445,0.469-0.556,0.817c-0.166,0.531-0.249,1.112-0.249,1.743v4.615H34.55z"/>
	<path fill="#FFFFFF" d="M38.414,10.247c0-1.632,0.454-2.842,1.361-3.627c0.758-0.653,1.682-0.979,2.772-0.979
		c1.212,0,2.203,0.397,2.972,1.191c0.769,0.794,1.154,1.891,1.154,3.291c0,1.134-0.17,2.027-0.51,2.677
		c-0.341,0.65-0.836,1.155-1.486,1.515c-0.65,0.36-1.36,0.54-2.129,0.54c-1.234,0-2.231-0.396-2.992-1.187
		C38.794,12.875,38.414,11.735,38.414,10.247z M39.949,10.247c0,1.129,0.246,1.974,0.739,2.536c0.493,0.562,1.112,0.843,1.859,0.843
		c0.742,0,1.358-0.282,1.851-0.847s0.739-1.425,0.739-2.582c0-1.09-0.248-1.916-0.743-2.478c-0.495-0.562-1.111-0.842-1.847-0.842
		c-0.747,0-1.367,0.279-1.859,0.838S39.949,9.118,39.949,10.247z"/>
	<path fill="#FFFFFF" d="M47.1,18.049l-0.166-1.403c0.327,0.088,0.611,0.133,0.855,0.133c0.332,0,0.598-0.055,0.797-0.166
		s0.362-0.266,0.49-0.465c0.094-0.149,0.246-0.52,0.457-1.112c0.028-0.083,0.072-0.205,0.133-0.365L46.32,5.839h1.61l1.834,5.105
		c0.238,0.647,0.451,1.328,0.639,2.042c0.171-0.686,0.376-1.356,0.614-2.009l1.884-5.138h1.494l-3.354,8.965
		c-0.36,0.968-0.639,1.635-0.838,2c-0.266,0.493-0.57,0.854-0.913,1.083c-0.343,0.229-0.752,0.344-1.229,0.344
		C47.775,18.232,47.454,18.171,47.1,18.049z"/>
	<path fill="#FFFFFF" d="M60.443,11.815l1.544,0.191c-0.244,0.902-0.694,1.602-1.353,2.1s-1.5,0.747-2.523,0.747
		c-1.29,0-2.312-0.397-3.067-1.191c-0.756-0.794-1.133-1.908-1.133-3.341c0-1.483,0.382-2.634,1.146-3.453S56.81,5.64,58.027,5.64
		c1.179,0,2.142,0.401,2.889,1.204s1.121,1.931,1.121,3.387c0,0.088-0.003,0.221-0.008,0.398h-6.574
		c0.055,0.968,0.329,1.71,0.822,2.225s1.107,0.772,1.843,0.772c0.548,0,1.016-0.144,1.403-0.432S60.216,12.446,60.443,11.815z
		 M55.537,9.4h4.922c-0.066-0.742-0.254-1.298-0.564-1.668c-0.476-0.576-1.093-0.863-1.851-0.863c-0.686,0-1.263,0.229-1.731,0.689
		C55.846,8.017,55.587,8.631,55.537,9.4z"/>
	<path fill="#FFFFFF" d="M68.357,11.425l1.469,0.191c-0.161,1.013-0.571,1.806-1.233,2.378c-0.661,0.573-1.473,0.859-2.436,0.859
		c-1.207,0-2.176-0.395-2.91-1.183c-0.733-0.789-1.1-1.919-1.1-3.391c0-0.952,0.158-1.785,0.473-2.499s0.795-1.249,1.44-1.606
		c0.645-0.356,1.346-0.535,2.104-0.535c0.958,0,1.74,0.242,2.349,0.727c0.609,0.484,0.999,1.171,1.17,2.062l-1.453,0.224
		c-0.138-0.592-0.383-1.038-0.735-1.336c-0.351-0.299-0.776-0.448-1.274-0.448c-0.752,0-1.364,0.27-1.834,0.81
		c-0.47,0.539-0.706,1.393-0.706,2.561c0,1.184,0.227,2.045,0.681,2.582c0.454,0.537,1.046,0.805,1.776,0.805
		c0.586,0,1.076-0.18,1.469-0.54S68.252,12.172,68.357,11.425z"/>
	<path fill="#FFFFFF" d="M73.109,13.318l0.216,1.32c-0.42,0.088-0.797,0.133-1.129,0.133c-0.542,0-0.963-0.086-1.262-0.257
		s-0.509-0.397-0.631-0.676c-0.122-0.28-0.183-0.868-0.183-1.764V7.001h-1.096V5.839h1.096V3.656l1.486-0.896v3.08h1.502v1.162
		h-1.502v5.155c0,0.426,0.026,0.7,0.079,0.822c0.053,0.122,0.139,0.219,0.258,0.291c0.119,0.072,0.289,0.108,0.51,0.108
		C72.62,13.376,72.838,13.356,73.109,13.318z"/>
	<path fill="#FFFFFF" d="M72.756,10.247c0-1.632,0.454-2.842,1.361-3.627c0.758-0.653,1.682-0.979,2.772-0.979
		c1.212,0,2.203,0.397,2.972,1.191c0.769,0.794,1.154,1.891,1.154,3.291c0,1.134-0.17,2.027-0.51,2.677
		c-0.341,0.65-0.836,1.155-1.486,1.515c-0.65,0.36-1.36,0.54-2.129,0.54c-1.234,0-2.231-0.396-2.992-1.187
		C73.136,12.875,72.756,11.735,72.756,10.247z M74.292,10.247c0,1.129,0.246,1.974,0.739,2.536c0.493,0.562,1.112,0.843,1.859,0.843
		c0.742,0,1.358-0.282,1.851-0.847s0.739-1.425,0.739-2.582c0-1.09-0.248-1.916-0.743-2.478c-0.495-0.562-1.111-0.842-1.847-0.842
		c-0.747,0-1.367,0.279-1.859,0.838S74.292,9.118,74.292,10.247z"/>
	<path fill="#FFFFFF" d="M84.376,12.023l1.478-0.232c0.083,0.592,0.314,1.046,0.693,1.361c0.379,0.315,0.909,0.473,1.59,0.473
		c0.686,0,1.195-0.14,1.527-0.419c0.332-0.28,0.498-0.607,0.498-0.984c0-0.337-0.146-0.603-0.439-0.797
		c-0.205-0.133-0.714-0.302-1.528-0.506c-1.096-0.277-1.855-0.516-2.279-0.718c-0.423-0.202-0.744-0.481-0.963-0.839
		c-0.218-0.356-0.328-0.751-0.328-1.183c0-0.393,0.09-0.757,0.27-1.092c0.18-0.334,0.424-0.613,0.734-0.834
		c0.232-0.171,0.549-0.317,0.95-0.436c0.401-0.119,0.832-0.179,1.291-0.179c0.692,0,1.299,0.1,1.822,0.299
		c0.522,0.199,0.908,0.469,1.158,0.81c0.248,0.34,0.42,0.795,0.514,1.365l-1.461,0.199c-0.066-0.454-0.258-0.808-0.576-1.062
		s-0.768-0.382-1.349-0.382c-0.686,0-1.176,0.113-1.469,0.34s-0.44,0.493-0.44,0.797c0,0.194,0.061,0.368,0.183,0.523
		c0.122,0.161,0.313,0.293,0.573,0.398c0.149,0.055,0.589,0.183,1.32,0.382c1.057,0.282,1.794,0.513,2.212,0.693
		c0.418,0.18,0.746,0.441,0.983,0.784s0.356,0.769,0.356,1.278c0,0.498-0.145,0.967-0.436,1.407c-0.29,0.439-0.709,0.78-1.258,1.021
		c-0.547,0.241-1.167,0.361-1.859,0.361c-1.146,0-2.019-0.238-2.619-0.714C84.926,13.664,84.542,12.958,84.376,12.023z"/>
	<path fill="#FFFFFF" d="M91.66,10.247c0-1.632,0.453-2.842,1.361-3.627c0.758-0.653,1.682-0.979,2.771-0.979
		c1.213,0,2.203,0.397,2.973,1.191c0.769,0.794,1.153,1.891,1.153,3.291c0,1.134-0.171,2.027-0.511,2.677
		c-0.34,0.65-0.836,1.155-1.486,1.515c-0.649,0.36-1.359,0.54-2.129,0.54c-1.233,0-2.23-0.396-2.992-1.187
		C92.04,12.875,91.66,11.735,91.66,10.247z M93.195,10.247c0,1.129,0.246,1.974,0.738,2.536c0.493,0.562,1.113,0.843,1.859,0.843
		c0.742,0,1.359-0.282,1.852-0.847s0.738-1.425,0.738-2.582c0-1.09-0.247-1.916-0.742-2.478c-0.496-0.562-1.111-0.842-1.848-0.842
		c-0.746,0-1.366,0.279-1.859,0.838C93.441,8.274,93.195,9.118,93.195,10.247z"/>
	<path fill="#FFFFFF" d="M100.77,14.654V7.001h-1.32V5.839h1.32V4.901c0-0.592,0.053-1.032,0.158-1.32
		c0.144-0.387,0.396-0.701,0.759-0.942c0.362-0.24,0.87-0.361,1.523-0.361c0.421,0,0.886,0.05,1.395,0.149l-0.224,1.303
		c-0.311-0.055-0.604-0.083-0.881-0.083c-0.453,0-0.774,0.097-0.963,0.291c-0.188,0.194-0.281,0.556-0.281,1.087v0.813h1.718v1.162
		h-1.718v7.653H100.77z"/>
	<path fill="#FFFFFF" d="M107.14,13.318l0.216,1.32c-0.42,0.088-0.797,0.133-1.129,0.133c-0.543,0-0.963-0.086-1.262-0.257
		s-0.51-0.397-0.631-0.676c-0.121-0.28-0.183-0.868-0.183-1.764V7.001h-1.096V5.839h1.096V3.656l1.485-0.896v3.08h1.503v1.162
		h-1.503v5.155c0,0.426,0.027,0.7,0.079,0.822c0.053,0.122,0.139,0.219,0.258,0.291c0.118,0.072,0.289,0.108,0.511,0.108
		C106.65,13.376,106.869,13.356,107.14,13.318z"/>
	<path fill="#FFFFFF" d="M108.97,14.654l-2.698-8.815h1.545l1.402,5.088l0.523,1.893c0.021-0.094,0.174-0.7,0.456-1.818l1.403-5.163
		h1.535l1.32,5.113l0.439,1.685l0.506-1.702l1.512-5.097h1.452l-2.756,8.815h-1.552l-1.403-5.279l-0.341-1.502l-1.784,6.782H108.97z
		"/>
	<path fill="#FFFFFF" d="M124.114,13.567c-0.554,0.47-1.086,0.802-1.598,0.996c-0.513,0.194-1.062,0.291-1.647,0.291
		c-0.969,0-1.713-0.236-2.233-0.71c-0.521-0.473-0.78-1.078-0.78-1.813c0-0.432,0.098-0.826,0.295-1.183
		c0.196-0.357,0.453-0.644,0.771-0.859s0.677-0.379,1.075-0.49c0.294-0.078,0.735-0.152,1.328-0.224
		c1.206-0.144,2.095-0.315,2.665-0.515c0.005-0.205,0.008-0.335,0.008-0.39c0-0.609-0.141-1.038-0.424-1.287
		c-0.381-0.337-0.949-0.506-1.701-0.506c-0.703,0-1.222,0.123-1.557,0.37c-0.334,0.246-0.582,0.682-0.742,1.307l-1.461-0.199
		c0.133-0.625,0.352-1.13,0.655-1.515c0.304-0.384,0.744-0.681,1.319-0.888c0.576-0.208,1.242-0.312,2.001-0.312
		c0.753,0,1.364,0.088,1.835,0.266c0.47,0.177,0.816,0.4,1.037,0.668c0.221,0.269,0.377,0.607,0.465,1.017
		c0.05,0.254,0.074,0.714,0.074,1.378v1.992c0,1.389,0.032,2.268,0.096,2.635c0.064,0.368,0.189,0.721,0.378,1.059h-1.561
		C124.258,14.344,124.158,13.982,124.114,13.567z M123.99,10.23c-0.543,0.221-1.356,0.41-2.441,0.564
		c-0.613,0.088-1.049,0.188-1.303,0.299s-0.451,0.272-0.59,0.486c-0.138,0.213-0.207,0.449-0.207,0.709
		c0,0.398,0.15,0.73,0.452,0.996s0.743,0.398,1.324,0.398c0.575,0,1.087-0.126,1.536-0.377c0.447-0.252,0.777-0.597,0.987-1.034
		c0.161-0.337,0.241-0.835,0.241-1.494V10.23z"/>
	<path fill="#FFFFFF" d="M126.541,14.654V5.839h1.346v1.336c0.343-0.625,0.659-1.038,0.95-1.237c0.29-0.199,0.61-0.299,0.958-0.299
		c0.504,0,1.016,0.161,1.536,0.481l-0.515,1.386c-0.365-0.216-0.73-0.324-1.096-0.324c-0.326,0-0.619,0.098-0.88,0.295
		c-0.261,0.196-0.445,0.469-0.556,0.817c-0.166,0.531-0.25,1.112-0.25,1.743v4.615H126.541z"/>
	<path fill="#FFFFFF" d="M136.996,11.815l1.544,0.191c-0.243,0.902-0.694,1.602-1.353,2.1c-0.659,0.498-1.5,0.747-2.523,0.747
		c-1.29,0-2.313-0.397-3.067-1.191c-0.756-0.794-1.134-1.908-1.134-3.341c0-1.483,0.383-2.634,1.146-3.453s1.754-1.229,2.971-1.229
		c1.18,0,2.143,0.401,2.889,1.204c0.748,0.802,1.121,1.931,1.121,3.387c0,0.088-0.003,0.221-0.008,0.398h-6.574
		c0.055,0.968,0.328,1.71,0.821,2.225s1.106,0.772,1.843,0.772c0.548,0,1.016-0.144,1.402-0.432
		C136.462,12.906,136.77,12.446,136.996,11.815z M132.09,9.4h4.923c-0.066-0.742-0.255-1.298-0.564-1.668
		c-0.476-0.576-1.093-0.863-1.851-0.863c-0.687,0-1.264,0.229-1.731,0.689C132.398,8.017,132.141,8.631,132.09,9.4z"/>
</g>
</svg>