<!-- Generator: Adobe Illustrator 17.0.0, SVG Export Plug-In  -->
<svg version="1.1"
	 xmlns="http://www.w3.org/2000/svg" xmlns:xlink="http://www.w3.org/1999/xlink" xmlns:a="http://ns.adobe.com/AdobeSVGViewerExtensions/3.0/"
	 x="0px" y="0px" width="170.185px" height="17.336px" viewBox="0 0 170.185 17.336" enable-background="new 0 0 170.185 17.336"
	 xml:space="preserve">
<defs>
</defs>
<path id="XMLID_1_" fill="#FFFFFF" stroke="#000000" stroke-width="0.5" stroke-miterlimit="10" d="M16.6,14.375l-3.291-3.291
	c0.678-1.064,1.066-2.418,1.066-3.773c0-3.871-3.191-7.061-7.064-7.061c-3.867,0-7.061,3.19-7.061,7.061s3.193,7.064,7.061,7.064
	c1.356,0,2.711-0.387,3.775-1.064l3.289,3.291c0.289,0.289,0.676,0.484,1.064,0.484c0.389,0,0.772-0.195,1.062-0.484
	C17.18,15.924,17.18,14.953,16.6,14.375L16.6,14.375z M7.311,12.15c-2.707,0-4.836-2.131-4.836-4.84
	c0-2.707,2.129-4.836,4.836-4.836c2.711,0,4.84,2.129,4.84,4.836C12.15,9.922,10.022,12.15,7.311,12.15L7.311,12.15z"/>
<g>
	<path fill="#FFFFFF" d="M24.677,14.655V2.486h4.59c0.808,0,1.425,0.038,1.851,0.116c0.598,0.1,1.099,0.289,1.502,0.568
		s0.729,0.671,0.975,1.175c0.247,0.503,0.37,1.057,0.37,1.66c0,1.034-0.329,1.91-0.988,2.627s-1.848,1.075-3.569,1.075h-3.121v4.947
		H24.677z M26.287,8.272h3.146c1.041,0,1.779-0.193,2.216-0.581c0.437-0.387,0.656-0.933,0.656-1.635
		c0-0.51-0.128-0.945-0.386-1.308c-0.257-0.362-0.596-0.602-1.017-0.718C30.631,3.958,30.13,3.922,29.4,3.922h-3.113V8.272z"/>
	<path fill="#FFFFFF" d="M34.55,14.655V5.84h1.345v1.336c0.343-0.625,0.66-1.037,0.951-1.236c0.29-0.199,0.61-0.299,0.958-0.299
		c0.503,0,1.016,0.16,1.536,0.481l-0.515,1.386c-0.365-0.216-0.73-0.323-1.096-0.323c-0.327,0-0.62,0.098-0.88,0.295
		c-0.26,0.196-0.445,0.469-0.556,0.817c-0.166,0.531-0.249,1.112-0.249,1.743v4.615H34.55z"/>
	<path fill="#FFFFFF" d="M38.414,10.247c0-1.632,0.454-2.842,1.361-3.627c0.758-0.653,1.682-0.979,2.772-0.979
		c1.212,0,2.203,0.396,2.972,1.191c0.769,0.794,1.154,1.891,1.154,3.291c0,1.134-0.17,2.026-0.51,2.677
		c-0.341,0.65-0.836,1.155-1.486,1.515c-0.65,0.36-1.36,0.54-2.129,0.54c-1.234,0-2.231-0.396-2.992-1.188
		C38.794,12.876,38.414,11.736,38.414,10.247z M39.949,10.247c0,1.129,0.246,1.975,0.739,2.536s1.112,0.843,1.859,0.843
		c0.742,0,1.358-0.282,1.851-0.847s0.739-1.425,0.739-2.582c0-1.09-0.248-1.916-0.743-2.478c-0.495-0.562-1.111-0.843-1.847-0.843
		c-0.747,0-1.367,0.279-1.859,0.839C40.195,8.274,39.949,9.118,39.949,10.247z"/>
	<path fill="#FFFFFF" d="M52.919,11.426l1.469,0.191c-0.161,1.013-0.571,1.806-1.233,2.378c-0.661,0.573-1.473,0.859-2.436,0.859
		c-1.207,0-2.176-0.395-2.91-1.183c-0.733-0.789-1.1-1.919-1.1-3.392c0-0.951,0.158-1.784,0.473-2.498s0.795-1.249,1.44-1.606
		c0.645-0.356,1.346-0.535,2.104-0.535c0.958,0,1.74,0.242,2.349,0.727c0.609,0.483,0.999,1.171,1.17,2.063l-1.453,0.224
		c-0.138-0.592-0.383-1.037-0.735-1.336c-0.351-0.299-0.776-0.448-1.274-0.448c-0.752,0-1.364,0.27-1.834,0.81
		c-0.47,0.539-0.706,1.393-0.706,2.561c0,1.184,0.227,2.045,0.681,2.581c0.454,0.537,1.046,0.806,1.776,0.806
		c0.586,0,1.076-0.18,1.469-0.54C52.565,12.727,52.814,12.173,52.919,11.426z"/>
	<path fill="#FFFFFF" d="M60.443,11.816l1.544,0.19c-0.244,0.902-0.694,1.603-1.353,2.101s-1.5,0.747-2.523,0.747
		c-1.29,0-2.312-0.397-3.067-1.191c-0.756-0.794-1.133-1.908-1.133-3.341c0-1.483,0.382-2.635,1.146-3.453
		c0.764-0.819,1.754-1.229,2.972-1.229c1.179,0,2.142,0.401,2.889,1.203c0.747,0.803,1.121,1.932,1.121,3.387
		c0,0.089-0.003,0.222-0.008,0.398h-6.574c0.055,0.969,0.329,1.71,0.822,2.225s1.107,0.772,1.843,0.772
		c0.548,0,1.016-0.145,1.403-0.432C59.909,12.906,60.216,12.447,60.443,11.816z M55.537,9.4h4.922
		c-0.066-0.741-0.254-1.298-0.564-1.668c-0.476-0.576-1.093-0.863-1.851-0.863c-0.686,0-1.263,0.229-1.731,0.688
		C55.846,8.018,55.587,8.632,55.537,9.4z"/>
	<path fill="#FFFFFF" d="M62.007,12.023l1.478-0.232c0.083,0.593,0.314,1.046,0.693,1.361c0.379,0.315,0.909,0.474,1.59,0.474
		c0.686,0,1.195-0.14,1.527-0.419c0.332-0.28,0.498-0.607,0.498-0.984c0-0.337-0.146-0.603-0.44-0.797
		c-0.205-0.133-0.714-0.302-1.527-0.506c-1.096-0.277-1.855-0.517-2.279-0.718C63.124,10,62.803,9.721,62.584,9.363
		c-0.218-0.356-0.328-0.751-0.328-1.183c0-0.394,0.09-0.757,0.27-1.092c0.18-0.335,0.424-0.613,0.734-0.834
		c0.232-0.172,0.549-0.317,0.95-0.436c0.401-0.119,0.832-0.179,1.291-0.179c0.692,0,1.299,0.1,1.822,0.299
		c0.522,0.199,0.909,0.469,1.158,0.81c0.249,0.34,0.42,0.795,0.515,1.365l-1.461,0.199c-0.066-0.454-0.259-0.809-0.577-1.063
		c-0.318-0.255-0.768-0.382-1.349-0.382c-0.686,0-1.176,0.113-1.469,0.34c-0.293,0.228-0.44,0.493-0.44,0.797
		c0,0.194,0.061,0.368,0.183,0.523c0.122,0.16,0.313,0.293,0.573,0.398c0.149,0.055,0.589,0.183,1.32,0.382
		c1.057,0.282,1.794,0.513,2.212,0.693c0.417,0.18,0.746,0.44,0.983,0.784c0.238,0.343,0.357,0.769,0.357,1.278
		c0,0.498-0.145,0.967-0.436,1.407c-0.29,0.439-0.709,0.78-1.257,1.021c-0.548,0.241-1.167,0.361-1.859,0.361
		c-1.146,0-2.019-0.238-2.619-0.714C62.557,13.664,62.173,12.959,62.007,12.023z"/>
	<path fill="#FFFFFF" d="M69.291,10.247c0-1.632,0.454-2.842,1.361-3.627c0.758-0.653,1.682-0.979,2.772-0.979
		c1.212,0,2.203,0.396,2.972,1.191c0.769,0.794,1.154,1.891,1.154,3.291c0,1.134-0.17,2.026-0.51,2.677
		c-0.341,0.65-0.836,1.155-1.486,1.515c-0.65,0.36-1.36,0.54-2.129,0.54c-1.234,0-2.231-0.396-2.992-1.188
		C69.671,12.876,69.291,11.736,69.291,10.247z M70.827,10.247c0,1.129,0.246,1.975,0.739,2.536s1.112,0.843,1.859,0.843
		c0.742,0,1.358-0.282,1.851-0.847s0.739-1.425,0.739-2.582c0-1.09-0.248-1.916-0.743-2.478c-0.495-0.562-1.111-0.843-1.847-0.843
		c-0.747,0-1.367,0.279-1.859,0.839C71.073,8.274,70.827,9.118,70.827,10.247z"/>
	<path fill="#FFFFFF" d="M77.446,12.023l1.478-0.232c0.083,0.593,0.314,1.046,0.693,1.361c0.379,0.315,0.909,0.474,1.59,0.474
		c0.686,0,1.195-0.14,1.527-0.419c0.332-0.28,0.498-0.607,0.498-0.984c0-0.337-0.146-0.603-0.44-0.797
		c-0.205-0.133-0.714-0.302-1.527-0.506c-1.096-0.277-1.855-0.517-2.279-0.718C78.563,10,78.241,9.721,78.022,9.363
		c-0.218-0.356-0.328-0.751-0.328-1.183c0-0.394,0.09-0.757,0.27-1.092c0.18-0.335,0.424-0.613,0.734-0.834
		c0.232-0.172,0.549-0.317,0.95-0.436c0.401-0.119,0.832-0.179,1.291-0.179c0.692,0,1.299,0.1,1.822,0.299
		c0.522,0.199,0.909,0.469,1.158,0.81c0.249,0.34,0.42,0.795,0.515,1.365l-1.461,0.199c-0.066-0.454-0.259-0.809-0.577-1.063
		c-0.318-0.255-0.768-0.382-1.349-0.382c-0.686,0-1.176,0.113-1.469,0.34c-0.293,0.228-0.44,0.493-0.44,0.797
		c0,0.194,0.061,0.368,0.183,0.523c0.122,0.16,0.313,0.293,0.573,0.398c0.149,0.055,0.589,0.183,1.32,0.382
		c1.057,0.282,1.794,0.513,2.212,0.693c0.417,0.18,0.746,0.44,0.983,0.784c0.238,0.343,0.357,0.769,0.357,1.278
		c0,0.498-0.145,0.967-0.436,1.407c-0.29,0.439-0.709,0.78-1.257,1.021c-0.548,0.241-1.167,0.361-1.859,0.361
		c-1.146,0-2.019-0.238-2.619-0.714C77.995,13.664,77.612,12.959,77.446,12.023z"/>
	<path fill="#FFFFFF" d="M94.471,14.655v-1.112c-0.56,0.874-1.381,1.312-2.466,1.312c-0.702,0-1.349-0.194-1.938-0.581
		c-0.59-0.388-1.045-0.929-1.37-1.623c-0.323-0.694-0.485-1.493-0.485-2.395c0-0.88,0.146-1.679,0.44-2.395
		c0.293-0.717,0.733-1.267,1.319-1.648c0.587-0.382,1.242-0.572,1.968-0.572c0.531,0,1.005,0.112,1.419,0.336
		c0.416,0.225,0.753,0.516,1.014,0.876V2.486h1.485v12.169H94.471z M89.747,10.256c0,1.129,0.237,1.973,0.714,2.531
		c0.477,0.56,1.037,0.839,1.686,0.839c0.652,0,1.207-0.268,1.664-0.801c0.457-0.534,0.685-1.35,0.685-2.445
		c0-1.206-0.232-2.092-0.697-2.656S92.76,6.877,92.08,6.877c-0.664,0-1.219,0.271-1.664,0.813
		C89.97,8.233,89.747,9.088,89.747,10.256z"/>
	<path fill="#FFFFFF" d="M102.982,11.816l1.543,0.19c-0.243,0.902-0.693,1.603-1.353,2.101s-1.499,0.747-2.523,0.747
		c-1.29,0-2.312-0.397-3.067-1.191s-1.133-1.908-1.133-3.341c0-1.483,0.382-2.635,1.146-3.453c0.764-0.819,1.755-1.229,2.972-1.229
		c1.179,0,2.142,0.401,2.889,1.203c0.747,0.803,1.121,1.932,1.121,3.387c0,0.089-0.004,0.222-0.009,0.398h-6.574
		c0.056,0.969,0.329,1.71,0.821,2.225c0.493,0.515,1.107,0.772,1.844,0.772c0.547,0,1.016-0.145,1.402-0.432
		C102.447,12.906,102.755,12.447,102.982,11.816z M98.076,9.4h4.922c-0.066-0.741-0.254-1.298-0.564-1.668
		c-0.476-0.576-1.092-0.863-1.851-0.863c-0.687,0-1.263,0.229-1.731,0.688C98.385,8.018,98.126,8.632,98.076,9.4z"/>
	<path fill="#FFFFFF" d="M114.328,14.655v-1.112c-0.559,0.874-1.381,1.312-2.465,1.312c-0.703,0-1.35-0.194-1.938-0.581
		c-0.59-0.388-1.046-0.929-1.37-1.623c-0.323-0.694-0.485-1.493-0.485-2.395c0-0.88,0.146-1.679,0.44-2.395
		c0.293-0.717,0.732-1.267,1.319-1.648s1.242-0.572,1.968-0.572c0.531,0,1.004,0.112,1.419,0.336
		c0.415,0.225,0.753,0.516,1.013,0.876V2.486h1.486v12.169H114.328z M109.605,10.256c0,1.129,0.237,1.973,0.713,2.531
		c0.477,0.56,1.038,0.839,1.686,0.839c0.652,0,1.208-0.268,1.664-0.801c0.457-0.534,0.686-1.35,0.686-2.445
		c0-1.206-0.232-2.092-0.697-2.656s-1.038-0.847-1.719-0.847c-0.664,0-1.219,0.271-1.664,0.813
		C109.828,8.233,109.605,9.088,109.605,10.256z"/>
	<path fill="#FFFFFF" d="M122.84,11.816l1.545,0.19c-0.244,0.902-0.695,1.603-1.354,2.101s-1.5,0.747-2.523,0.747
		c-1.289,0-2.313-0.397-3.066-1.191c-0.756-0.794-1.134-1.908-1.134-3.341c0-1.483,0.382-2.635,1.146-3.453
		c0.764-0.819,1.754-1.229,2.972-1.229c1.179,0,2.142,0.401,2.889,1.203c0.747,0.803,1.12,1.932,1.12,3.387
		c0,0.089-0.002,0.222-0.008,0.398h-6.574c0.055,0.969,0.329,1.71,0.822,2.225c0.492,0.515,1.106,0.772,1.842,0.772
		c0.549,0,1.016-0.145,1.403-0.432C122.307,12.906,122.613,12.447,122.84,11.816z M117.935,9.4h4.923
		c-0.066-0.741-0.255-1.298-0.564-1.668c-0.477-0.576-1.094-0.863-1.852-0.863c-0.686,0-1.264,0.229-1.73,0.688
		C118.243,8.018,117.984,8.632,117.935,9.4z"/>
	<path fill="#FFFFFF" d="M124.404,12.023l1.479-0.232c0.082,0.593,0.313,1.046,0.692,1.361c0.38,0.315,0.909,0.474,1.59,0.474
		c0.687,0,1.195-0.14,1.527-0.419c0.332-0.28,0.498-0.607,0.498-0.984c0-0.337-0.146-0.603-0.44-0.797
		c-0.204-0.133-0.713-0.302-1.527-0.506c-1.096-0.277-1.854-0.517-2.278-0.718c-0.423-0.202-0.744-0.481-0.963-0.839
		c-0.218-0.356-0.327-0.751-0.327-1.183c0-0.394,0.09-0.757,0.27-1.092s0.424-0.613,0.734-0.834c0.232-0.172,0.549-0.317,0.95-0.436
		c0.401-0.119,0.831-0.179,1.291-0.179c0.692,0,1.299,0.1,1.822,0.299c0.522,0.199,0.909,0.469,1.157,0.81
		c0.25,0.34,0.421,0.795,0.516,1.365l-1.461,0.199c-0.066-0.454-0.26-0.809-0.577-1.063c-0.318-0.255-0.769-0.382-1.349-0.382
		c-0.687,0-1.176,0.113-1.47,0.34c-0.294,0.228-0.44,0.493-0.44,0.797c0,0.194,0.062,0.368,0.184,0.523
		c0.121,0.16,0.313,0.293,0.572,0.398c0.149,0.055,0.59,0.183,1.32,0.382c1.057,0.282,1.794,0.513,2.212,0.693
		c0.417,0.18,0.745,0.44,0.983,0.784c0.238,0.343,0.357,0.769,0.357,1.278c0,0.498-0.146,0.967-0.437,1.407
		c-0.29,0.439-0.71,0.78-1.257,1.021c-0.549,0.241-1.168,0.361-1.859,0.361c-1.146,0-2.02-0.238-2.619-0.714
		C124.954,13.664,124.57,12.959,124.404,12.023z"/>
	<path fill="#FFFFFF" d="M137.996,13.567c-0.553,0.471-1.086,0.803-1.598,0.996c-0.512,0.194-1.061,0.291-1.647,0.291
		c-0.968,0-1.713-0.236-2.233-0.71c-0.52-0.473-0.779-1.078-0.779-1.813c0-0.432,0.098-0.826,0.295-1.183
		c0.195-0.357,0.453-0.644,0.771-0.859s0.676-0.379,1.074-0.49c0.294-0.077,0.736-0.152,1.328-0.224
		c1.207-0.145,2.096-0.315,2.665-0.515c0.005-0.205,0.009-0.335,0.009-0.391c0-0.608-0.142-1.037-0.424-1.286
		c-0.382-0.338-0.949-0.507-1.701-0.507c-0.703,0-1.223,0.123-1.557,0.37c-0.335,0.246-0.582,0.682-0.743,1.307l-1.461-0.199
		c0.133-0.625,0.352-1.13,0.655-1.515c0.305-0.385,0.744-0.681,1.32-0.888c0.576-0.208,1.242-0.312,2-0.312
		c0.753,0,1.365,0.088,1.835,0.266c0.47,0.177,0.816,0.399,1.038,0.668c0.221,0.269,0.376,0.607,0.465,1.017
		c0.049,0.255,0.074,0.714,0.074,1.378v1.992c0,1.39,0.031,2.268,0.096,2.636c0.063,0.368,0.189,0.721,0.377,1.059h-1.561
		C138.141,14.345,138.041,13.982,137.996,13.567z M137.872,10.23c-0.542,0.222-1.356,0.41-2.44,0.564
		c-0.614,0.089-1.049,0.188-1.303,0.299c-0.255,0.111-0.451,0.272-0.59,0.486c-0.139,0.213-0.207,0.449-0.207,0.709
		c0,0.398,0.15,0.73,0.451,0.996c0.303,0.266,0.744,0.398,1.324,0.398c0.576,0,1.088-0.126,1.536-0.377
		c0.448-0.252,0.777-0.597,0.987-1.034c0.161-0.337,0.241-0.835,0.241-1.494V10.23z"/>
	<path fill="#FFFFFF" d="M140.424,14.655V5.84h1.346v1.336c0.343-0.625,0.659-1.037,0.95-1.236c0.29-0.199,0.61-0.299,0.958-0.299
		c0.504,0,1.016,0.16,1.536,0.481l-0.515,1.386c-0.365-0.216-0.73-0.323-1.096-0.323c-0.326,0-0.619,0.098-0.88,0.295
		c-0.261,0.196-0.445,0.469-0.556,0.817c-0.166,0.531-0.25,1.112-0.25,1.743v4.615H140.424z"/>
	<path fill="#FFFFFF" d="M144.827,14.655V5.84h1.345v1.336c0.344-0.625,0.66-1.037,0.951-1.236c0.289-0.199,0.609-0.299,0.958-0.299
		c0.503,0,1.016,0.16,1.536,0.481l-0.516,1.386c-0.365-0.216-0.73-0.323-1.096-0.323c-0.326,0-0.619,0.098-0.879,0.295
		c-0.261,0.196-0.445,0.469-0.557,0.817c-0.166,0.531-0.249,1.112-0.249,1.743v4.615H144.827z"/>
	<path fill="#FFFFFF" d="M148.691,10.247c0-1.632,0.453-2.842,1.361-3.627c0.758-0.653,1.682-0.979,2.771-0.979
		c1.213,0,2.203,0.396,2.973,1.191c0.769,0.794,1.153,1.891,1.153,3.291c0,1.134-0.171,2.026-0.511,2.677s-0.836,1.155-1.486,1.515
		c-0.649,0.36-1.359,0.54-2.129,0.54c-1.233,0-2.23-0.396-2.992-1.188C149.071,12.876,148.691,11.736,148.691,10.247z
		 M150.227,10.247c0,1.129,0.246,1.975,0.738,2.536c0.493,0.562,1.113,0.843,1.859,0.843c0.742,0,1.359-0.282,1.852-0.847
		s0.738-1.425,0.738-2.582c0-1.09-0.247-1.916-0.742-2.478c-0.496-0.562-1.111-0.843-1.848-0.843c-0.746,0-1.366,0.279-1.859,0.839
		C150.473,8.274,150.227,9.118,150.227,10.247z"/>
	<path fill="#FFFFFF" d="M157.41,14.655V2.486h1.494v12.169H157.41z"/>
	<path fill="#FFFFFF" d="M159.93,14.655V2.486h1.494v12.169H159.93z"/>
	<path fill="#FFFFFF" d="M161.926,10.247c0-1.632,0.453-2.842,1.361-3.627c0.758-0.653,1.682-0.979,2.771-0.979
		c1.213,0,2.203,0.396,2.973,1.191c0.769,0.794,1.153,1.891,1.153,3.291c0,1.134-0.171,2.026-0.511,2.677s-0.836,1.155-1.486,1.515
		c-0.649,0.36-1.359,0.54-2.129,0.54c-1.233,0-2.23-0.396-2.992-1.188C162.306,12.876,161.926,11.736,161.926,10.247z
		 M163.461,10.247c0,1.129,0.246,1.975,0.738,2.536c0.493,0.562,1.113,0.843,1.859,0.843c0.742,0,1.359-0.282,1.852-0.847
		s0.738-1.425,0.738-2.582c0-1.09-0.247-1.916-0.742-2.478c-0.496-0.562-1.111-0.843-1.848-0.843c-0.746,0-1.366,0.279-1.859,0.839
		C163.707,8.274,163.461,9.118,163.461,10.247z"/>
</g>
</svg>