<!-- Generator: Adobe Illustrator 17.0.0, SVG Export Plug-In  -->
<svg version="1.1"
	 xmlns="http://www.w3.org/2000/svg" xmlns:xlink="http://www.w3.org/1999/xlink" xmlns:a="http://ns.adobe.com/AdobeSVGViewerExtensions/3.0/"
	 x="0px" y="0px" width="168.587px" height="18.231px" viewBox="0 0 168.587 18.231" enable-background="new 0 0 168.587 18.231"
	 xml:space="preserve">
<defs>
</defs>
<path id="XMLID_1_" fill="#FFFFFF" stroke="#000000" stroke-width="0.5" stroke-miterlimit="10" d="M16.6,14.373l-3.291-3.289
	c0.678-1.066,1.066-2.418,1.066-3.773c0-3.871-3.191-7.061-7.064-7.061c-3.867,0-7.061,3.189-7.061,7.061s3.193,7.063,7.061,7.063
	c1.356,0,2.711-0.387,3.775-1.063l3.289,3.289c0.289,0.289,0.676,0.484,1.064,0.484c0.389,0,0.772-0.195,1.062-0.484
	C17.18,15.924,17.18,14.953,16.6,14.373L16.6,14.373z M7.311,12.15c-2.707,0-4.836-2.133-4.836-4.84
	c0-2.709,2.129-4.838,4.836-4.838c2.711,0,4.84,2.129,4.84,4.838C12.15,9.92,10.022,12.15,7.311,12.15L7.311,12.15z"/>
<g>
	<path fill="#FFFFFF" d="M30.371,9.881V8.453l5.155-0.008v4.516c-0.792,0.631-1.607,1.105-2.449,1.424
		c-0.841,0.318-1.705,0.477-2.59,0.477c-1.195,0-2.281-0.256-3.258-0.768c-0.977-0.512-1.714-1.252-2.212-2.22
		s-0.747-2.05-0.747-3.246c0-1.184,0.248-2.29,0.743-3.316c0.496-1.026,1.208-1.789,2.138-2.287s2-0.747,3.212-0.747
		c0.88,0,1.675,0.143,2.386,0.427c0.711,0.285,1.269,0.682,1.673,1.191s0.711,1.173,0.921,1.992l-1.453,0.398
		c-0.183-0.62-0.41-1.107-0.681-1.461s-0.659-0.638-1.162-0.851c-0.503-0.213-1.062-0.32-1.677-0.32
		c-0.736,0-1.373,0.112-1.909,0.336c-0.537,0.224-0.97,0.519-1.299,0.884c-0.33,0.365-0.585,0.767-0.768,1.204
		c-0.31,0.752-0.465,1.569-0.465,2.449c0,1.084,0.187,1.992,0.56,2.723c0.374,0.73,0.917,1.273,1.631,1.627s1.472,0.531,2.274,0.531
		c0.697,0,1.378-0.134,2.042-0.402c0.664-0.269,1.167-0.555,1.511-0.859V9.881H30.371z"/>
	<path fill="#FFFFFF" d="M42.486,11.815l1.544,0.191c-0.244,0.902-0.694,1.602-1.353,2.1s-1.5,0.747-2.523,0.747
		c-1.29,0-2.312-0.397-3.067-1.191c-0.756-0.794-1.133-1.908-1.133-3.341c0-1.483,0.382-2.634,1.146-3.453s1.754-1.229,2.972-1.229
		c1.179,0,2.142,0.401,2.889,1.204s1.121,1.931,1.121,3.387c0,0.088-0.003,0.221-0.008,0.398h-6.574
		c0.055,0.968,0.329,1.71,0.822,2.225s1.107,0.772,1.843,0.772c0.548,0,1.016-0.144,1.403-0.432S42.259,12.446,42.486,11.815z
		 M37.58,9.399h4.922c-0.066-0.742-0.254-1.298-0.564-1.668c-0.476-0.576-1.093-0.863-1.851-0.863c-0.686,0-1.263,0.229-1.731,0.689
		C37.889,8.016,37.63,8.63,37.58,9.399z"/>
	<path fill="#FFFFFF" d="M44.631,14.654V5.838h1.345v1.336c0.343-0.625,0.66-1.038,0.951-1.237c0.29-0.199,0.61-0.299,0.958-0.299
		c0.503,0,1.016,0.161,1.536,0.481l-0.515,1.386c-0.365-0.216-0.73-0.324-1.096-0.324c-0.327,0-0.62,0.098-0.88,0.295
		c-0.26,0.196-0.445,0.469-0.556,0.817c-0.166,0.531-0.249,1.112-0.249,1.743v4.615H44.631z"/>
	<path fill="#FFFFFF" d="M55.085,11.815l1.544,0.191c-0.244,0.902-0.694,1.602-1.353,2.1s-1.5,0.747-2.523,0.747
		c-1.29,0-2.312-0.397-3.067-1.191c-0.756-0.794-1.133-1.908-1.133-3.341c0-1.483,0.382-2.634,1.146-3.453s1.754-1.229,2.972-1.229
		c1.179,0,2.142,0.401,2.889,1.204s1.121,1.931,1.121,3.387c0,0.088-0.003,0.221-0.008,0.398h-6.574
		c0.055,0.968,0.329,1.71,0.822,2.225s1.107,0.772,1.843,0.772c0.548,0,1.016-0.144,1.403-0.432S54.858,12.446,55.085,11.815z
		 M50.18,9.399h4.922c-0.066-0.742-0.254-1.298-0.564-1.668c-0.476-0.576-1.093-0.863-1.851-0.863c-0.686,0-1.263,0.229-1.731,0.689
		C50.488,8.016,50.23,8.63,50.18,9.399z"/>
	<path fill="#FFFFFF" d="M57.247,14.654V5.838h1.345v1.253c0.647-0.968,1.583-1.453,2.806-1.453c0.531,0,1.02,0.096,1.465,0.286
		c0.445,0.191,0.779,0.441,1,0.751c0.221,0.31,0.376,0.678,0.465,1.104c0.055,0.277,0.083,0.761,0.083,1.453v5.42h-1.494V9.291
		c0-0.609-0.058-1.064-0.174-1.365c-0.116-0.302-0.322-0.542-0.619-0.723c-0.296-0.18-0.643-0.27-1.042-0.27
		c-0.636,0-1.186,0.202-1.648,0.606c-0.462,0.404-0.693,1.17-0.693,2.299v4.814H57.247z"/>
	<path fill="#FFFFFF" d="M71.196,11.425l1.469,0.191c-0.161,1.013-0.571,1.806-1.233,2.378c-0.661,0.573-1.473,0.859-2.436,0.859
		c-1.207,0-2.176-0.395-2.91-1.183c-0.733-0.789-1.1-1.919-1.1-3.391c0-0.952,0.158-1.785,0.473-2.499s0.795-1.249,1.44-1.606
		c0.645-0.356,1.346-0.535,2.104-0.535c0.958,0,1.74,0.242,2.349,0.727c0.609,0.484,0.999,1.171,1.17,2.063l-1.453,0.224
		c-0.138-0.592-0.383-1.038-0.735-1.336c-0.351-0.299-0.776-0.448-1.274-0.448c-0.752,0-1.364,0.27-1.834,0.81
		c-0.47,0.539-0.706,1.393-0.706,2.561c0,1.184,0.227,2.045,0.681,2.582s1.046,0.805,1.776,0.805c0.586,0,1.076-0.18,1.469-0.54
		S71.091,12.172,71.196,11.425z"/>
	<path fill="#FFFFFF" d="M72.694,4.203V2.485h1.494v1.718H72.694z M72.694,14.654V5.838h1.494v8.815H72.694z"/>
	<path fill="#FFFFFF" d="M80.957,13.566c-0.553,0.47-1.086,0.802-1.598,0.996c-0.512,0.194-1.062,0.291-1.648,0.291
		c-0.968,0-1.713-0.236-2.233-0.71c-0.52-0.473-0.78-1.078-0.78-1.813c0-0.432,0.098-0.826,0.295-1.183
		c0.196-0.357,0.454-0.644,0.771-0.859c0.318-0.216,0.677-0.379,1.075-0.49c0.293-0.078,0.736-0.152,1.328-0.224
		c1.207-0.144,2.095-0.315,2.665-0.515c0.005-0.205,0.008-0.335,0.008-0.39c0-0.609-0.141-1.038-0.423-1.287
		c-0.382-0.337-0.949-0.506-1.702-0.506c-0.703,0-1.222,0.123-1.557,0.37c-0.334,0.246-0.582,0.682-0.743,1.307l-1.461-0.199
		c0.133-0.625,0.352-1.13,0.656-1.515c0.304-0.384,0.744-0.681,1.32-0.888c0.576-0.208,1.242-0.312,2-0.312
		c0.752,0,1.364,0.088,1.834,0.266s0.816,0.4,1.038,0.668c0.221,0.269,0.376,0.607,0.465,1.017c0.05,0.254,0.075,0.714,0.075,1.378
		v1.992c0,1.389,0.032,2.268,0.095,2.635c0.064,0.368,0.19,0.721,0.378,1.059h-1.561C81.101,14.344,81.001,13.981,80.957,13.566z
		 M80.833,10.229c-0.542,0.221-1.356,0.41-2.44,0.564c-0.614,0.088-1.049,0.188-1.303,0.299s-0.451,0.272-0.589,0.486
		c-0.138,0.213-0.208,0.449-0.208,0.709c0,0.398,0.151,0.73,0.452,0.996c0.302,0.266,0.743,0.398,1.324,0.398
		c0.576,0,1.087-0.126,1.536-0.377c0.448-0.252,0.777-0.597,0.988-1.034c0.161-0.337,0.241-0.835,0.241-1.494V10.229z"/>
	<path fill="#FFFFFF" d="M92.586,14.654v-1.112c-0.559,0.875-1.381,1.312-2.465,1.312c-0.703,0-1.35-0.194-1.938-0.581
		c-0.59-0.387-1.046-0.928-1.37-1.623c-0.323-0.694-0.485-1.493-0.485-2.395c0-0.88,0.146-1.678,0.44-2.395
		c0.293-0.717,0.733-1.266,1.32-1.648s1.242-0.573,1.968-0.573c0.531,0,1.004,0.112,1.419,0.336
		c0.415,0.225,0.753,0.516,1.013,0.876V2.485h1.486v12.169H92.586z M87.863,10.254c0,1.129,0.238,1.973,0.714,2.532
		s1.038,0.838,1.685,0.838c0.652,0,1.208-0.267,1.664-0.801c0.457-0.534,0.686-1.349,0.686-2.445c0-1.207-0.232-2.092-0.697-2.656
		s-1.038-0.847-1.719-0.847c-0.664,0-1.219,0.271-1.664,0.813C88.085,8.232,87.863,9.087,87.863,10.254z"/>
	<path fill="#FFFFFF" d="M101.098,11.815l1.544,0.191c-0.243,0.902-0.694,1.602-1.353,2.1c-0.659,0.498-1.5,0.747-2.523,0.747
		c-1.29,0-2.313-0.397-3.067-1.191c-0.756-0.794-1.134-1.908-1.134-3.341c0-1.483,0.383-2.634,1.146-3.453s1.754-1.229,2.971-1.229
		c1.18,0,2.143,0.401,2.889,1.204c0.748,0.802,1.121,1.931,1.121,3.387c0,0.088-0.003,0.221-0.008,0.398h-6.574
		c0.055,0.968,0.328,1.71,0.821,2.225s1.106,0.772,1.843,0.772c0.548,0,1.016-0.144,1.402-0.432
		C100.563,12.905,100.871,12.446,101.098,11.815z M96.191,9.399h4.923c-0.066-0.742-0.255-1.298-0.564-1.668
		c-0.476-0.576-1.093-0.863-1.851-0.863c-0.687,0-1.264,0.229-1.731,0.689C96.5,8.016,96.242,8.63,96.191,9.399z"/>
	<path fill="#FFFFFF" d="M106.725,18.032V5.838h1.361v1.146c0.32-0.448,0.684-0.784,1.088-1.009
		c0.403-0.224,0.893-0.336,1.469-0.336c0.752,0,1.416,0.194,1.992,0.581s1.01,0.934,1.303,1.64c0.294,0.705,0.44,1.479,0.44,2.32
		c0,0.902-0.161,1.714-0.485,2.436c-0.324,0.723-0.795,1.276-1.412,1.66c-0.616,0.385-1.266,0.577-1.945,0.577
		c-0.498,0-0.945-0.105-1.342-0.315c-0.395-0.21-0.721-0.476-0.975-0.797v4.292H106.725z M108.078,10.296
		c0,1.134,0.229,1.973,0.688,2.515s1.016,0.813,1.669,0.813c0.664,0,1.232-0.281,1.705-0.843c0.473-0.562,0.71-1.432,0.71-2.61
		c0-1.124-0.231-1.964-0.692-2.523c-0.463-0.559-1.015-0.838-1.656-0.838c-0.637,0-1.199,0.297-1.689,0.892
		C108.322,8.297,108.078,9.162,108.078,10.296z"/>
	<path fill="#FFFFFF" d="M114.904,14.654V5.838h1.346v1.336c0.343-0.625,0.659-1.038,0.95-1.237c0.29-0.199,0.61-0.299,0.958-0.299
		c0.504,0,1.016,0.161,1.536,0.481l-0.515,1.386c-0.365-0.216-0.73-0.324-1.096-0.324c-0.326,0-0.619,0.098-0.88,0.295
		c-0.261,0.196-0.445,0.469-0.556,0.817c-0.166,0.531-0.25,1.112-0.25,1.743v4.615H114.904z"/>
	<path fill="#FFFFFF" d="M118.769,10.246c0-1.632,0.454-2.842,1.361-3.627c0.759-0.653,1.683-0.979,2.772-0.979
		c1.212,0,2.203,0.397,2.972,1.191c0.769,0.794,1.153,1.891,1.153,3.291c0,1.134-0.17,2.027-0.51,2.677
		c-0.341,0.65-0.836,1.155-1.486,1.515s-1.359,0.54-2.129,0.54c-1.234,0-2.231-0.396-2.992-1.187
		C119.148,12.874,118.769,11.735,118.769,10.246z M120.305,10.246c0,1.129,0.246,1.974,0.738,2.536
		c0.492,0.562,1.112,0.843,1.859,0.843c0.742,0,1.358-0.282,1.852-0.847c0.492-0.564,0.738-1.425,0.738-2.582
		c0-1.09-0.248-1.916-0.743-2.478c-0.495-0.562-1.11-0.842-1.847-0.842c-0.747,0-1.367,0.279-1.859,0.838
		S120.305,9.117,120.305,10.246z"/>
	<path fill="#FFFFFF" d="M127.455,18.049l-0.166-1.403c0.326,0.088,0.611,0.133,0.854,0.133c0.332,0,0.598-0.055,0.797-0.166
		s0.362-0.266,0.489-0.465c0.095-0.149,0.246-0.52,0.457-1.112c0.027-0.083,0.072-0.205,0.133-0.365l-3.346-8.832h1.611l1.834,5.105
		c0.238,0.647,0.451,1.328,0.639,2.042c0.172-0.686,0.377-1.356,0.615-2.009l1.884-5.138h1.494l-3.354,8.965
		c-0.36,0.968-0.64,1.635-0.839,2c-0.266,0.493-0.569,0.854-0.912,1.083c-0.344,0.229-0.753,0.344-1.229,0.344
		C128.13,18.231,127.809,18.17,127.455,18.049z"/>
	<path fill="#FFFFFF" d="M140.798,11.815l1.544,0.191c-0.244,0.902-0.694,1.602-1.354,2.1c-0.658,0.498-1.499,0.747-2.523,0.747
		c-1.289,0-2.312-0.397-3.066-1.191c-0.756-0.794-1.133-1.908-1.133-3.341c0-1.483,0.381-2.634,1.145-3.453s1.755-1.229,2.973-1.229
		c1.178,0,2.141,0.401,2.889,1.204c0.746,0.802,1.12,1.931,1.12,3.387c0,0.088-0.003,0.221-0.009,0.398h-6.574
		c0.056,0.968,0.33,1.71,0.822,2.225s1.107,0.772,1.843,0.772c0.548,0,1.016-0.144,1.403-0.432
		C140.264,12.905,140.57,12.446,140.798,11.815z M135.893,9.399h4.922c-0.066-0.742-0.254-1.298-0.564-1.668
		c-0.477-0.576-1.093-0.863-1.852-0.863c-0.686,0-1.263,0.229-1.73,0.689C136.201,8.016,135.941,8.63,135.893,9.399z"/>
	<path fill="#FFFFFF" d="M148.712,11.425l1.47,0.191c-0.161,1.013-0.572,1.806-1.233,2.378c-0.661,0.573-1.474,0.859-2.437,0.859
		c-1.206,0-2.176-0.395-2.909-1.183c-0.733-0.789-1.1-1.919-1.1-3.391c0-0.952,0.157-1.785,0.474-2.499
		c0.314-0.714,0.795-1.249,1.439-1.606c0.645-0.356,1.346-0.535,2.104-0.535c0.958,0,1.74,0.242,2.349,0.727
		c0.609,0.484,1,1.171,1.171,2.063l-1.452,0.224c-0.139-0.592-0.384-1.038-0.735-1.336c-0.351-0.299-0.776-0.448-1.274-0.448
		c-0.752,0-1.363,0.27-1.834,0.81c-0.471,0.539-0.705,1.393-0.705,2.561c0,1.184,0.227,2.045,0.68,2.582
		c0.454,0.537,1.047,0.805,1.777,0.805c0.586,0,1.076-0.18,1.469-0.54S148.607,12.172,148.712,11.425z"/>
	<path fill="#FFFFFF" d="M153.464,13.317l0.216,1.32c-0.42,0.088-0.797,0.133-1.129,0.133c-0.543,0-0.963-0.086-1.262-0.257
		s-0.51-0.397-0.631-0.676c-0.121-0.28-0.183-0.868-0.183-1.764V7h-1.096V5.838h1.096V3.655l1.485-0.896v3.08h1.503V7h-1.503v5.155
		c0,0.426,0.027,0.7,0.079,0.822c0.053,0.122,0.139,0.219,0.258,0.291c0.118,0.072,0.289,0.108,0.511,0.108
		C152.975,13.375,153.193,13.356,153.464,13.317z"/>
	<path fill="#FFFFFF" d="M153.111,10.246c0-1.632,0.453-2.842,1.361-3.627c0.758-0.653,1.682-0.979,2.771-0.979
		c1.213,0,2.203,0.397,2.973,1.191c0.769,0.794,1.153,1.891,1.153,3.291c0,1.134-0.171,2.027-0.511,2.677
		c-0.34,0.65-0.836,1.155-1.486,1.515c-0.649,0.36-1.359,0.54-2.129,0.54c-1.233,0-2.23-0.396-2.992-1.187
		C153.491,12.874,153.111,11.735,153.111,10.246z M154.646,10.246c0,1.129,0.246,1.974,0.738,2.536
		c0.493,0.562,1.113,0.843,1.859,0.843c0.742,0,1.359-0.282,1.852-0.847s0.738-1.425,0.738-2.582c0-1.09-0.247-1.916-0.742-2.478
		c-0.496-0.562-1.111-0.842-1.848-0.842c-0.746,0-1.366,0.279-1.859,0.838C154.893,8.273,154.646,9.117,154.646,10.246z"/>
	<path fill="#FFFFFF" d="M161.266,12.022l1.478-0.232c0.083,0.592,0.313,1.046,0.692,1.361c0.38,0.315,0.91,0.473,1.59,0.473
		c0.687,0,1.195-0.14,1.527-0.419c0.332-0.28,0.498-0.607,0.498-0.984c0-0.337-0.146-0.603-0.439-0.797
		c-0.205-0.133-0.714-0.302-1.527-0.506c-1.096-0.277-1.855-0.516-2.279-0.718c-0.422-0.202-0.744-0.481-0.963-0.839
		c-0.218-0.356-0.327-0.751-0.327-1.183c0-0.393,0.09-0.757,0.271-1.092c0.18-0.334,0.424-0.613,0.734-0.834
		c0.232-0.171,0.549-0.317,0.949-0.436c0.402-0.119,0.832-0.179,1.291-0.179c0.692,0,1.299,0.1,1.822,0.299s0.909,0.469,1.158,0.81
		c0.249,0.34,0.42,0.795,0.515,1.365l-1.461,0.199c-0.066-0.454-0.259-0.808-0.577-1.063s-0.768-0.382-1.349-0.382
		c-0.687,0-1.176,0.113-1.47,0.34c-0.293,0.227-0.439,0.493-0.439,0.797c0,0.194,0.061,0.368,0.183,0.523
		c0.122,0.161,0.313,0.293,0.573,0.398c0.148,0.055,0.589,0.183,1.319,0.382c1.058,0.282,1.794,0.513,2.212,0.693
		c0.418,0.18,0.746,0.441,0.984,0.784c0.237,0.343,0.356,0.769,0.356,1.278c0,0.498-0.146,0.967-0.437,1.407
		c-0.289,0.439-0.709,0.78-1.257,1.021c-0.548,0.241-1.167,0.361-1.859,0.361c-1.146,0-2.019-0.238-2.618-0.714
		C161.814,13.663,161.432,12.957,161.266,12.022z"/>
</g>
</svg>