<!-- Generator: Adobe Illustrator 17.0.0, SVG Export Plug-In  -->
<svg version="1.1"
	 xmlns="http://www.w3.org/2000/svg" xmlns:xlink="http://www.w3.org/1999/xlink" xmlns:a="http://ns.adobe.com/AdobeSVGViewerExtensions/3.0/"
	 x="0px" y="0px" width="180.424px" height="18.081px" viewBox="0 0 180.424 18.081" enable-background="new 0 0 180.424 18.081"
	 xml:space="preserve">
<defs>
</defs>
<g>
	<path fill="#FFFFFF" d="M18.486,14.702L23.16,2.534h1.735l4.98,12.168h-1.834l-1.419-3.686h-5.088l-1.336,3.686H18.486z
		 M21.998,9.706h4.125l-1.27-3.371c-0.387-1.023-0.675-1.864-0.863-2.523c-0.155,0.781-0.374,1.556-0.656,2.324L21.998,9.706z"/>
	<path fill="#FFFFFF" d="M29.713,14.702V5.888h1.345v1.253c0.647-0.968,1.583-1.452,2.806-1.452c0.531,0,1.02,0.096,1.465,0.285
		c0.445,0.191,0.779,0.441,1,0.752s0.376,0.678,0.465,1.104c0.055,0.277,0.083,0.762,0.083,1.453v5.42h-1.494V9.341
		c0-0.609-0.058-1.064-0.174-1.365c-0.116-0.303-0.322-0.543-0.619-0.723c-0.296-0.18-0.643-0.27-1.042-0.27
		c-0.636,0-1.186,0.201-1.648,0.605c-0.462,0.404-0.693,1.17-0.693,2.299v4.814H29.713z"/>
	<path fill="#FFFFFF" d="M43.662,13.615c-0.553,0.47-1.086,0.802-1.598,0.996c-0.512,0.194-1.062,0.29-1.648,0.29
		c-0.968,0-1.713-0.236-2.233-0.709s-0.78-1.078-0.78-1.814c0-0.432,0.098-0.826,0.295-1.182c0.196-0.357,0.454-0.645,0.771-0.859
		c0.318-0.217,0.677-0.379,1.075-0.49c0.293-0.078,0.736-0.152,1.328-0.225c1.207-0.144,2.095-0.314,2.665-0.514
		c0.005-0.205,0.008-0.336,0.008-0.391c0-0.609-0.141-1.037-0.423-1.287c-0.382-0.337-0.949-0.506-1.702-0.506
		c-0.703,0-1.222,0.123-1.557,0.369c-0.334,0.246-0.582,0.682-0.743,1.308L37.66,8.402c0.133-0.626,0.352-1.13,0.656-1.515
		s0.744-0.682,1.32-0.889s1.242-0.311,2-0.311c0.752,0,1.364,0.088,1.834,0.266c0.47,0.177,0.816,0.399,1.038,0.668
		c0.221,0.268,0.376,0.607,0.465,1.017c0.05,0.255,0.075,0.714,0.075,1.378v1.992c0,1.389,0.032,2.268,0.095,2.635
		c0.064,0.369,0.19,0.722,0.378,1.059H43.96C43.806,14.393,43.706,14.03,43.662,13.615z M43.537,10.278
		c-0.542,0.221-1.356,0.41-2.44,0.564c-0.614,0.088-1.049,0.188-1.303,0.299s-0.451,0.272-0.589,0.486
		c-0.138,0.213-0.208,0.449-0.208,0.709c0,0.398,0.151,0.73,0.452,0.996c0.302,0.266,0.743,0.398,1.324,0.398
		c0.576,0,1.087-0.126,1.536-0.377c0.448-0.252,0.777-0.598,0.988-1.034c0.161-0.337,0.241-0.835,0.241-1.494V10.278z M40.632,4.792
		l1.104-2.324h1.959l-1.826,2.324H40.632z"/>
	<path fill="#FFFFFF" d="M46.073,14.702V2.534h1.494v12.168H46.073z"/>
	<path fill="#FFFFFF" d="M48.633,4.252V2.534h1.494v1.718H48.633z M48.633,14.702V5.888h1.494v8.814H48.633z"/>
	<path fill="#FFFFFF" d="M50.546,12.071l1.478-0.232c0.083,0.592,0.314,1.046,0.693,1.361c0.379,0.315,0.909,0.473,1.59,0.473
		c0.686,0,1.195-0.139,1.527-0.418c0.332-0.28,0.498-0.607,0.498-0.984c0-0.338-0.146-0.604-0.44-0.797
		c-0.205-0.133-0.714-0.302-1.527-0.506c-1.096-0.277-1.855-0.517-2.279-0.719c-0.423-0.201-0.744-0.48-0.963-0.838
		c-0.218-0.357-0.328-0.752-0.328-1.184c0-0.393,0.09-0.756,0.27-1.092c0.18-0.334,0.424-0.612,0.734-0.834
		c0.232-0.171,0.549-0.316,0.95-0.436c0.401-0.119,0.832-0.178,1.291-0.178c0.692,0,1.299,0.1,1.822,0.299
		c0.522,0.199,0.909,0.469,1.158,0.809s0.42,0.796,0.515,1.365L56.074,8.36c-0.066-0.453-0.259-0.808-0.577-1.063
		c-0.318-0.254-0.768-0.381-1.349-0.381c-0.686,0-1.176,0.113-1.469,0.34s-0.44,0.492-0.44,0.797c0,0.193,0.061,0.368,0.183,0.523
		c0.122,0.16,0.313,0.293,0.573,0.398c0.149,0.055,0.589,0.182,1.32,0.381c1.057,0.283,1.794,0.514,2.212,0.693
		c0.417,0.18,0.746,0.441,0.983,0.785c0.238,0.343,0.357,0.769,0.357,1.277c0,0.498-0.145,0.967-0.436,1.408
		c-0.29,0.439-0.709,0.779-1.257,1.02c-0.548,0.242-1.167,0.361-1.859,0.361c-1.146,0-2.019-0.237-2.619-0.713
		C51.095,13.712,50.712,13.007,50.546,12.071z"/>
	<path fill="#FFFFFF" d="M58.394,4.252V2.534h1.494v1.718H58.394z M58.394,14.702V5.888h1.494v8.814H58.394z"/>
	<path fill="#FFFFFF" d="M60.307,12.071l1.478-0.232c0.083,0.592,0.314,1.046,0.693,1.361c0.379,0.315,0.909,0.473,1.59,0.473
		c0.686,0,1.195-0.139,1.527-0.418c0.332-0.28,0.498-0.607,0.498-0.984c0-0.338-0.146-0.604-0.44-0.797
		c-0.205-0.133-0.714-0.302-1.527-0.506c-1.096-0.277-1.855-0.517-2.279-0.719c-0.423-0.201-0.744-0.48-0.963-0.838
		c-0.218-0.357-0.328-0.752-0.328-1.184c0-0.393,0.09-0.756,0.27-1.092c0.18-0.334,0.424-0.612,0.734-0.834
		c0.232-0.171,0.549-0.316,0.95-0.436c0.401-0.119,0.832-0.178,1.291-0.178c0.692,0,1.299,0.1,1.822,0.299
		c0.522,0.199,0.909,0.469,1.158,0.809s0.42,0.796,0.515,1.365L65.835,8.36c-0.066-0.453-0.259-0.808-0.577-1.063
		c-0.318-0.254-0.768-0.381-1.349-0.381c-0.686,0-1.176,0.113-1.469,0.34S62,7.749,62,8.054c0,0.193,0.061,0.368,0.183,0.523
		c0.122,0.16,0.313,0.293,0.573,0.398c0.149,0.055,0.589,0.182,1.32,0.381c1.057,0.283,1.794,0.514,2.212,0.693
		c0.417,0.18,0.746,0.441,0.983,0.785c0.238,0.343,0.357,0.769,0.357,1.277c0,0.498-0.145,0.967-0.436,1.408
		c-0.29,0.439-0.709,0.779-1.257,1.02c-0.548,0.242-1.167,0.361-1.859,0.361c-1.146,0-2.019-0.237-2.619-0.713
		C60.856,13.712,60.473,13.007,60.307,12.071z"/>
	<path fill="#FFFFFF" d="M77.331,14.702v-1.111c-0.559,0.874-1.381,1.311-2.465,1.311c-0.703,0-1.349-0.193-1.938-0.58
		c-0.59-0.388-1.046-0.929-1.37-1.623c-0.323-0.695-0.485-1.493-0.485-2.395c0-0.881,0.146-1.679,0.44-2.395
		c0.293-0.717,0.733-1.267,1.32-1.648s1.242-0.572,1.967-0.572c0.531,0,1.004,0.111,1.419,0.336s0.752,0.516,1.013,0.875V2.534
		h1.486v12.168H77.331z M72.608,10.304c0,1.129,0.238,1.973,0.714,2.531s1.038,0.838,1.685,0.838c0.653,0,1.208-0.267,1.664-0.801
		c0.457-0.533,0.685-1.349,0.685-2.444c0-1.206-0.232-2.092-0.697-2.656s-1.038-0.847-1.718-0.847c-0.664,0-1.219,0.271-1.664,0.813
		C72.831,8.28,72.608,9.136,72.608,10.304z"/>
	<path fill="#FFFFFF" d="M85.843,11.864l1.544,0.19c-0.244,0.901-0.694,1.603-1.353,2.101s-1.5,0.746-2.523,0.746
		c-1.29,0-2.312-0.396-3.067-1.191c-0.756-0.793-1.133-1.907-1.133-3.34c0-1.483,0.382-2.635,1.146-3.453
		c0.764-0.819,1.754-1.229,2.972-1.229c1.179,0,2.142,0.4,2.889,1.203s1.121,1.932,1.121,3.387c0,0.088-0.003,0.221-0.008,0.398
		h-6.574c0.055,0.969,0.329,1.71,0.822,2.225s1.107,0.771,1.843,0.771c0.548,0,1.016-0.144,1.403-0.432
		C85.309,12.954,85.616,12.495,85.843,11.864z M80.937,9.448h4.922c-0.066-0.742-0.254-1.298-0.564-1.668
		c-0.476-0.576-1.093-0.863-1.851-0.863c-0.686,0-1.263,0.229-1.731,0.688C81.246,8.065,80.987,8.679,80.937,9.448z"/>
	<path fill="#FFFFFF" d="M91.437,14.702V2.534h1.494v12.168H91.437z"/>
	<path fill="#FFFFFF" d="M93.433,10.295c0-1.632,0.454-2.842,1.361-3.628c0.758-0.652,1.682-0.979,2.772-0.979
		c1.212,0,2.203,0.396,2.972,1.191c0.769,0.793,1.154,1.891,1.154,3.291c0,1.134-0.17,2.026-0.51,2.676
		c-0.341,0.65-0.836,1.156-1.486,1.516c-0.65,0.359-1.36,0.539-2.129,0.539c-1.234,0-2.231-0.395-2.992-1.187
		C93.813,12.923,93.433,11.784,93.433,10.295z M94.968,10.295c0,1.129,0.246,1.974,0.739,2.536c0.493,0.562,1.112,0.842,1.859,0.842
		c0.742,0,1.358-0.281,1.851-0.846s0.739-1.426,0.739-2.582c0-1.09-0.248-1.916-0.743-2.479c-0.495-0.561-1.111-0.842-1.847-0.842
		c-0.747,0-1.367,0.279-1.859,0.838C95.214,8.322,94.968,9.166,94.968,10.295z"/>
	<path fill="#FFFFFF" d="M101.588,12.071l1.478-0.232c0.083,0.592,0.314,1.046,0.693,1.361c0.379,0.315,0.909,0.473,1.59,0.473
		c0.686,0,1.195-0.139,1.527-0.418c0.332-0.28,0.498-0.607,0.498-0.984c0-0.338-0.146-0.604-0.44-0.797
		c-0.205-0.133-0.714-0.302-1.527-0.506c-1.096-0.277-1.855-0.517-2.279-0.719c-0.423-0.201-0.744-0.48-0.963-0.838
		c-0.218-0.357-0.328-0.752-0.328-1.184c0-0.393,0.09-0.756,0.27-1.092c0.18-0.334,0.424-0.612,0.734-0.834
		c0.232-0.171,0.549-0.316,0.95-0.436c0.401-0.119,0.832-0.178,1.291-0.178c0.692,0,1.299,0.1,1.822,0.299
		c0.522,0.199,0.909,0.469,1.158,0.809s0.42,0.796,0.515,1.365l-1.461,0.199c-0.066-0.453-0.259-0.808-0.577-1.063
		c-0.318-0.254-0.768-0.381-1.349-0.381c-0.686,0-1.176,0.113-1.469,0.34s-0.44,0.492-0.44,0.797c0,0.193,0.061,0.368,0.183,0.523
		c0.122,0.16,0.313,0.293,0.573,0.398c0.149,0.055,0.589,0.182,1.32,0.381c1.057,0.283,1.794,0.514,2.212,0.693
		c0.417,0.18,0.746,0.441,0.983,0.785c0.238,0.343,0.357,0.769,0.357,1.277c0,0.498-0.145,0.967-0.436,1.408
		c-0.29,0.439-0.709,0.779-1.257,1.02c-0.548,0.242-1.167,0.361-1.859,0.361c-1.146,0-2.019-0.237-2.619-0.713
		C102.137,13.712,101.754,13.007,101.588,12.071z"/>
	<path fill="#FFFFFF" d="M112.893,18.081V5.888h1.361v1.145c0.321-0.447,0.684-0.783,1.087-1.008s0.894-0.336,1.469-0.336
		c0.752,0,1.417,0.193,1.992,0.58c0.576,0.388,1.01,0.934,1.303,1.641c0.293,0.705,0.44,1.479,0.44,2.319
		c0,0.901-0.162,1.714-0.486,2.437c-0.323,0.723-0.794,1.275-1.411,1.66c-0.617,0.385-1.266,0.576-1.946,0.576
		c-0.498,0-0.945-0.104-1.341-0.314c-0.396-0.211-0.721-0.477-0.975-0.797v4.291H112.893z M114.246,10.345
		c0,1.135,0.229,1.973,0.689,2.516c0.459,0.542,1.016,0.813,1.668,0.813c0.664,0,1.232-0.28,1.706-0.842
		c0.473-0.563,0.709-1.432,0.709-2.611c0-1.123-0.231-1.964-0.693-2.523c-0.462-0.559-1.014-0.838-1.656-0.838
		c-0.636,0-1.199,0.297-1.689,0.893C114.491,8.346,114.246,9.21,114.246,10.345z"/>
	<path fill="#FFFFFF" d="M121.072,14.702V5.888h1.345v1.336c0.343-0.625,0.66-1.037,0.951-1.236c0.29-0.199,0.61-0.299,0.958-0.299
		c0.503,0,1.016,0.16,1.536,0.48l-0.515,1.387c-0.365-0.216-0.73-0.324-1.096-0.324c-0.327,0-0.62,0.099-0.88,0.295
		c-0.26,0.197-0.445,0.469-0.556,0.818c-0.166,0.531-0.249,1.111-0.249,1.742v4.615H121.072z"/>
	<path fill="#FFFFFF" d="M124.936,10.295c0-1.632,0.454-2.842,1.361-3.628c0.758-0.652,1.682-0.979,2.772-0.979
		c1.212,0,2.203,0.396,2.972,1.191c0.769,0.793,1.154,1.891,1.154,3.291c0,1.134-0.17,2.026-0.51,2.676
		c-0.341,0.65-0.836,1.156-1.486,1.516c-0.65,0.359-1.36,0.539-2.129,0.539c-1.234,0-2.231-0.395-2.992-1.187
		C125.316,12.923,124.936,11.784,124.936,10.295z M126.472,10.295c0,1.129,0.246,1.974,0.739,2.536
		c0.493,0.562,1.112,0.842,1.859,0.842c0.742,0,1.358-0.281,1.851-0.846s0.739-1.426,0.739-2.582c0-1.09-0.248-1.916-0.743-2.479
		c-0.495-0.561-1.111-0.842-1.847-0.842c-0.747,0-1.367,0.279-1.859,0.838C126.718,8.322,126.472,9.166,126.472,10.295z"/>
	<path fill="#FFFFFF" d="M135.067,14.702h-1.386V2.534h1.494v4.341c0.631-0.792,1.436-1.187,2.416-1.187
		c0.542,0,1.056,0.109,1.54,0.328c0.484,0.218,0.883,0.525,1.195,0.92c0.313,0.396,0.558,0.873,0.735,1.433s0.266,1.157,0.266,1.793
		c0,1.511-0.374,2.679-1.121,3.503s-1.644,1.236-2.689,1.236c-1.041,0-1.856-0.434-2.449-1.303V14.702z M135.05,10.229
		c0,1.058,0.144,1.821,0.432,2.291c0.47,0.769,1.107,1.153,1.909,1.153c0.653,0,1.217-0.283,1.693-0.85
		c0.476-0.568,0.714-1.413,0.714-2.537c0-1.15-0.228-2-0.685-2.548c-0.456-0.548-1.008-0.821-1.656-0.821
		c-0.653,0-1.217,0.283-1.693,0.85C135.288,8.335,135.05,9.155,135.05,10.229z"/>
	<path fill="#FFFFFF" d="M141.852,14.702V2.534h1.494v12.168H141.852z"/>
	<path fill="#FFFFFF" d="M150.439,11.864l1.544,0.19c-0.244,0.901-0.694,1.603-1.353,2.101s-1.5,0.746-2.523,0.746
		c-1.29,0-2.312-0.396-3.067-1.191c-0.756-0.793-1.133-1.907-1.133-3.34c0-1.483,0.382-2.635,1.146-3.453
		c0.764-0.819,1.754-1.229,2.972-1.229c1.179,0,2.142,0.4,2.889,1.203s1.121,1.932,1.121,3.387c0,0.088-0.003,0.221-0.008,0.398
		h-6.574c0.055,0.969,0.329,1.71,0.822,2.225s1.107,0.771,1.843,0.771c0.548,0,1.016-0.144,1.403-0.432
		C149.905,12.954,150.212,12.495,150.439,11.864z M145.533,9.448h4.922c-0.066-0.742-0.254-1.298-0.564-1.668
		c-0.476-0.576-1.093-0.863-1.851-0.863c-0.686,0-1.263,0.229-1.731,0.688C145.842,8.065,145.583,8.679,145.533,9.448z"/>
	<path fill="#FFFFFF" d="M152.601,14.702V5.888h1.336v1.236c0.277-0.432,0.645-0.779,1.104-1.041
		c0.459-0.264,0.982-0.395,1.569-0.395c0.653,0,1.188,0.135,1.606,0.406c0.417,0.271,0.712,0.65,0.884,1.137
		c0.697-1.029,1.605-1.543,2.723-1.543c0.875,0,1.547,0.242,2.017,0.727c0.47,0.483,0.706,1.229,0.706,2.236v6.051h-1.486V9.149
		c0-0.598-0.048-1.027-0.145-1.291c-0.097-0.263-0.273-0.475-0.527-0.635s-0.553-0.24-0.896-0.24c-0.62,0-1.134,0.205-1.544,0.617
		c-0.41,0.413-0.614,1.072-0.614,1.98v5.121h-1.494V8.976c0-0.664-0.122-1.162-0.365-1.494s-0.642-0.498-1.195-0.498
		c-0.42,0-0.81,0.11-1.166,0.332c-0.357,0.221-0.616,0.545-0.776,0.971c-0.161,0.426-0.241,1.041-0.241,1.843v4.573H152.601z"/>
	<path fill="#FFFFFF" d="M171.256,13.615c-0.553,0.47-1.086,0.802-1.598,0.996c-0.512,0.194-1.062,0.29-1.648,0.29
		c-0.968,0-1.713-0.236-2.233-0.709s-0.78-1.078-0.78-1.814c0-0.432,0.098-0.826,0.295-1.182c0.196-0.357,0.454-0.645,0.771-0.859
		c0.318-0.217,0.677-0.379,1.075-0.49c0.293-0.078,0.736-0.152,1.328-0.225c1.207-0.144,2.095-0.314,2.665-0.514
		c0.005-0.205,0.008-0.336,0.008-0.391c0-0.609-0.141-1.037-0.423-1.287c-0.382-0.337-0.949-0.506-1.702-0.506
		c-0.703,0-1.222,0.123-1.557,0.369c-0.334,0.246-0.582,0.682-0.743,1.308l-1.461-0.199c0.133-0.626,0.352-1.13,0.656-1.515
		s0.744-0.682,1.32-0.889s1.242-0.311,2-0.311c0.752,0,1.364,0.088,1.834,0.266c0.47,0.177,0.816,0.399,1.038,0.668
		c0.221,0.268,0.376,0.607,0.465,1.017c0.05,0.255,0.075,0.714,0.075,1.378v1.992c0,1.389,0.032,2.268,0.095,2.635
		c0.064,0.369,0.19,0.722,0.378,1.059h-1.561C171.4,14.393,171.301,14.03,171.256,13.615z M171.132,10.278
		c-0.542,0.221-1.356,0.41-2.44,0.564c-0.614,0.088-1.049,0.188-1.303,0.299s-0.451,0.272-0.589,0.486
		c-0.138,0.213-0.208,0.449-0.208,0.709c0,0.398,0.151,0.73,0.452,0.996c0.302,0.266,0.743,0.398,1.324,0.398
		c0.576,0,1.087-0.126,1.536-0.377c0.448-0.252,0.777-0.598,0.988-1.034c0.161-0.337,0.241-0.835,0.241-1.494V10.278z"/>
	<path fill="#FFFFFF" d="M173.103,12.071l1.478-0.232c0.083,0.592,0.314,1.046,0.693,1.361c0.379,0.315,0.909,0.473,1.59,0.473
		c0.686,0,1.195-0.139,1.527-0.418c0.332-0.28,0.498-0.607,0.498-0.984c0-0.338-0.146-0.604-0.44-0.797
		c-0.205-0.133-0.714-0.302-1.527-0.506c-1.096-0.277-1.855-0.517-2.279-0.719c-0.423-0.201-0.744-0.48-0.963-0.838
		c-0.218-0.357-0.328-0.752-0.328-1.184c0-0.393,0.09-0.756,0.27-1.092c0.18-0.334,0.424-0.612,0.734-0.834
		c0.232-0.171,0.549-0.316,0.95-0.436c0.401-0.119,0.832-0.178,1.291-0.178c0.692,0,1.299,0.1,1.822,0.299
		c0.522,0.199,0.909,0.469,1.158,0.809s0.42,0.796,0.515,1.365l-1.461,0.199c-0.066-0.453-0.259-0.808-0.577-1.063
		c-0.318-0.254-0.768-0.381-1.349-0.381c-0.686,0-1.176,0.113-1.469,0.34s-0.44,0.492-0.44,0.797c0,0.193,0.061,0.368,0.183,0.523
		c0.122,0.16,0.313,0.293,0.573,0.398c0.149,0.055,0.589,0.182,1.32,0.381c1.057,0.283,1.794,0.514,2.212,0.693
		c0.417,0.18,0.746,0.441,0.983,0.785c0.238,0.343,0.357,0.769,0.357,1.277c0,0.498-0.145,0.967-0.436,1.408
		c-0.29,0.439-0.709,0.779-1.257,1.02c-0.548,0.242-1.167,0.361-1.859,0.361c-1.146,0-2.019-0.237-2.619-0.713
		C173.652,13.712,173.269,13.007,173.103,12.071z"/>
</g>
<g id="XMLID_1_">
	<g id="XMLID_6_">
		<g>
			<g>
				<defs>
					<rect id="SVGID_1_" x="0" y="0.064" width="16.639" height="14.639"/>
				</defs>
				<clipPath id="SVGID_2_">
					<use xlink:href="#SVGID_1_"  overflow="visible"/>
				</clipPath>
				<path id="XMLID_8_" clip-path="url(#SVGID_2_)" fill="#FFFFFF" stroke="#000000" stroke-width="0.5" stroke-miterlimit="10" d="
					M15.285,6.189h-3.484L9.932,7.996V6.189H9.158c-0.581,0-1.033-0.45-1.033-1.031V1.354c0-0.58,0.452-1.031,1.033-1.031h6.19
					c0.58,0,1.03,0.451,1.03,1.031v3.805C16.316,5.739,15.865,6.189,15.285,6.189L15.285,6.189z"/>
			</g>
		</g>
		<g>
			<g>
				<defs>
					<rect id="SVGID_3_" x="0" y="0.064" width="16.639" height="14.639"/>
				</defs>
				<clipPath id="SVGID_4_">
					<use xlink:href="#SVGID_3_"  overflow="visible"/>
				</clipPath>
				<path id="XMLID_7_" clip-path="url(#SVGID_4_)" d="M2.708,13.35L2.708,13.35l1.29-0.194v1.226c0,0.193,0.129,0.322,0.322,0.322
					h6.449c0.193,0,0.322-0.129,0.322-0.322V9.996c0.518-0.517,0.968-1.162,1.289-1.808c0.066-0.128,0-0.321-0.128-0.386
					c-0.13-0.064-0.322,0-0.386,0.13c-0.258,0.645-0.71,1.224-1.226,1.741c-0.065,0.063-0.129,0.129-0.129,0.258v4.191H4.708v-1.29
					c0-0.065-0.064-0.193-0.129-0.258c-0.063-0.064-0.13-0.064-0.259-0.064l-1.548,0.257c-0.452,0-0.839-0.387-0.839-0.838V9.867
					c0-0.193-0.128-0.323-0.321-0.323H1.098c-0.195,0-0.324-0.064-0.388-0.13C0.646,9.35,0.646,9.156,0.774,9.027L1.87,6.9
					c0-0.066,0.063-0.066,0.063-0.13V5.868c0-1.999,1.162-3.805,2.967-4.643c0.645-0.323,1.29-0.452,2-0.517
					c0.193,0,0.322-0.13,0.322-0.322c0-0.194-0.129-0.322-0.322-0.322C6.127,0.129,5.418,0.258,4.708,0.579
					c-2,0.969-3.355,2.967-3.355,5.225v0.839L0.258,8.705c-0.193,0.322-0.193,0.709,0,0.969c0.193,0.258,0.516,0.45,0.901,0.45
					h0.194v1.743C1.225,12.703,1.87,13.35,2.708,13.35L2.708,13.35z"/>
			</g>
		</g>
	</g>
	<path id="XMLID_5_" d="M9.802,8.319c0.065,0,0.065,0,0.13,0c0.064,0,0.128,0,0.193-0.065l1.806-1.742h3.354
		c0.708,0,1.354-0.58,1.354-1.354V1.354C16.639,0.645,16.057,0,15.285,0H9.094c-0.71,0-1.354,0.579-1.354,1.354v3.805
		c0,0.71,0.579,1.354,1.354,1.354h0.514v1.484C9.608,8.124,9.674,8.254,9.802,8.319L9.802,8.319z M9.094,5.934
		c-0.389,0-0.71-0.324-0.71-0.71V1.418c0-0.387,0.321-0.709,0.71-0.709h6.191c0.386,0,0.708,0.322,0.708,0.709v3.806
		c0,0.386-0.322,0.71-0.708,0.71h-3.484c-0.064,0-0.129,0-0.191,0.064l-1.356,1.289V6.189c0-0.191-0.129-0.321-0.322-0.321H9.094
		V5.934z"/>
	<path id="XMLID_4_" d="M12.188,3.738c0.066,0,0.131-0.064,0.193-0.064c0.066-0.064,0.066-0.129,0.066-0.192
		c0-0.064-0.066-0.129-0.066-0.194c-0.063-0.063-0.128-0.063-0.193-0.063c-0.064,0-0.128,0.063-0.192,0.063
		c-0.064,0.065-0.064,0.13-0.064,0.194c0,0.064,0.064,0.128,0.064,0.192C12.06,3.738,12.123,3.738,12.188,3.738L12.188,3.738z"/>
	<path id="XMLID_3_" d="M13.35,3.738c0.064,0,0.129-0.064,0.193-0.064c0.065-0.064,0.065-0.129,0.065-0.192
		c0-0.064-0.065-0.129-0.065-0.194c-0.064-0.063-0.129-0.063-0.193-0.063c-0.064,0-0.129,0.063-0.193,0.063
		c-0.066,0.065-0.066,0.13-0.066,0.194c0,0.064,0.066,0.128,0.066,0.192C13.221,3.738,13.285,3.738,13.35,3.738L13.35,3.738z"/>
	<path id="XMLID_2_" d="M11.029,3.738c0.063,0,0.128-0.064,0.191-0.064c0.064-0.064,0.064-0.129,0.064-0.192
		c0-0.064-0.064-0.129-0.064-0.194c-0.063-0.063-0.129-0.063-0.191-0.063c-0.066,0-0.131,0.063-0.195,0.063
		c-0.064,0.065-0.064,0.13-0.064,0.194c0,0.064,0.064,0.128,0.064,0.192C10.899,3.738,10.963,3.738,11.029,3.738L11.029,3.738z"/>
</g>
</svg>