<?xml version="1.0" encoding="utf-8"?>
<!-- Generator: Adobe Illustrator 17.0.0, SVG Export Plug-In . SVG Version: 6.00 Build 0)  -->
<!DOCTYPE svg PUBLIC "-//W3C//DTD SVG 1.1//EN" "http://www.w3.org/Graphics/SVG/1.1/DTD/svg11.dtd" [
	<!ENTITY ns_extend "http://ns.adobe.com/Extensibility/1.0/">
	<!ENTITY ns_ai "http://ns.adobe.com/AdobeIllustrator/10.0/">
	<!ENTITY ns_graphs "http://ns.adobe.com/Graphs/1.0/">
	<!ENTITY ns_vars "http://ns.adobe.com/Variables/1.0/">
	<!ENTITY ns_imrep "http://ns.adobe.com/ImageReplacement/1.0/">
	<!ENTITY ns_sfw "http://ns.adobe.com/SaveForWeb/1.0/">
	<!ENTITY ns_custom "http://ns.adobe.com/GenericCustomNamespace/1.0/">
	<!ENTITY ns_adobe_xpath "http://ns.adobe.com/XPath/1.0/">
]>
<svg version="1.1" id="Capa_1" xmlns:x="&ns_extend;" xmlns:i="&ns_ai;" xmlns:graph="&ns_graphs;"
	 xmlns="http://www.w3.org/2000/svg" xmlns:xlink="http://www.w3.org/1999/xlink" x="0px" y="0px" width="163.413px"
	 height="16.864px" viewBox="0 0 163.413 16.864" enable-background="new 0 0 163.413 16.864" xml:space="preserve">
<metadata>
	<sfw  xmlns="&ns_sfw;">
		<slices></slices>
		<sliceSourceBounds  width="163.413" height="16.864" x="327.794" y="223.068" bottomLeftOrigin="true"></sliceSourceBounds>
	</sfw>
</metadata>
<g>
	<path fill="#FFFFFF" d="M19.773,13.286V1.118h2.424l2.88,8.615c0.266,0.803,0.459,1.403,0.581,1.802
		c0.138-0.442,0.354-1.093,0.647-1.95l2.914-8.467h2.167v12.168h-1.552V3.102l-3.536,10.185h-1.453l-3.52-10.359v10.359h-1.552
		V13.286z"/>
	<path fill="#FFFFFF" d="M38.288,12.199c-0.553,0.47-1.086,0.802-1.598,0.996s-1.062,0.29-1.648,0.29
		c-0.968,0-1.713-0.236-2.233-0.709s-0.78-1.078-0.78-1.814c0-0.432,0.098-0.826,0.295-1.182c0.196-0.357,0.454-0.645,0.771-0.859
		c0.318-0.217,0.677-0.379,1.075-0.49c0.293-0.078,0.736-0.152,1.328-0.225c1.207-0.144,2.095-0.314,2.665-0.514
		c0.005-0.205,0.008-0.336,0.008-0.391c0-0.609-0.141-1.037-0.423-1.287c-0.382-0.337-0.949-0.506-1.702-0.506
		c-0.703,0-1.222,0.123-1.557,0.369c-0.334,0.246-0.582,0.682-0.743,1.308l-1.461-0.199c0.133-0.626,0.352-1.13,0.656-1.515
		s0.744-0.682,1.32-0.889s1.242-0.311,2-0.311c0.752,0,1.364,0.088,1.834,0.266c0.47,0.177,0.816,0.399,1.038,0.668
		c0.221,0.268,0.376,0.607,0.465,1.017c0.05,0.255,0.075,0.714,0.075,1.378v1.992c0,1.389,0.032,2.268,0.095,2.635
		c0.064,0.369,0.19,0.722,0.378,1.059h-1.561C38.432,12.977,38.332,12.614,38.288,12.199z M38.163,8.862
		c-0.542,0.221-1.356,0.41-2.44,0.564c-0.614,0.088-1.049,0.188-1.303,0.299s-0.451,0.272-0.589,0.486
		c-0.138,0.213-0.208,0.449-0.208,0.709c0,0.398,0.151,0.73,0.452,0.996c0.302,0.266,0.743,0.398,1.324,0.398
		c0.576,0,1.087-0.126,1.536-0.377c0.448-0.252,0.777-0.598,0.988-1.034c0.161-0.337,0.241-0.835,0.241-1.494L38.163,8.862
		L38.163,8.862z"/>
	<path fill="#FFFFFF" d="M43.994,11.95l0.216,1.32c-0.42,0.088-0.797,0.133-1.129,0.133c-0.542,0-0.963-0.086-1.262-0.258
		s-0.509-0.396-0.631-0.676s-0.183-0.868-0.183-1.765v-5.07H39.91V4.472h1.096V2.288l1.486-0.896v3.08h1.502v1.162h-1.502v5.154
		c0,0.426,0.026,0.7,0.079,0.822c0.053,0.121,0.139,0.219,0.258,0.29s0.289,0.108,0.51,0.108
		C43.504,12.009,43.723,11.989,43.994,11.95z"/>
	<path fill="#FFFFFF" d="M44.18,13.286V4.472h1.345v1.336c0.343-0.625,0.66-1.037,0.951-1.236c0.29-0.199,0.61-0.299,0.958-0.299
		c0.503,0,1.016,0.16,1.536,0.48L48.455,6.14c-0.365-0.216-0.73-0.324-1.096-0.324c-0.327,0-0.62,0.099-0.88,0.295
		c-0.26,0.197-0.445,0.469-0.556,0.818c-0.166,0.531-0.249,1.111-0.249,1.742v4.615C45.674,13.286,44.18,13.286,44.18,13.286z"/>
	<path fill="#FFFFFF" d="M49.123,13.286V4.472h1.494v8.814H49.123z M50.617,2.683c0,0.413-0.334,0.747-0.747,0.747
		c-0.413,0-0.747-0.334-0.747-0.747s0.334-0.747,0.747-0.747C50.283,1.936,50.617,2.27,50.617,2.683z"/>
	<path fill="#FFFFFF" d="M51.276,13.286v-1.211l5.611-6.441c-0.636,0.033-1.198,0.049-1.685,0.049h-3.594V4.472h7.205v0.987
		l-4.773,5.595l-0.921,1.021C53.789,12.024,54.417,12,55.003,12h4.076v1.286H51.276z"/>
	<path fill="#FFFFFF" d="M68.491,13.286v-1.111c-0.559,0.874-1.381,1.311-2.465,1.311c-0.703,0-1.349-0.193-1.938-0.58
		c-0.59-0.388-1.046-0.929-1.37-1.623c-0.323-0.695-0.485-1.493-0.485-2.395c0-0.881,0.146-1.679,0.44-2.395
		c0.293-0.717,0.733-1.267,1.32-1.648c0.586-0.382,1.242-0.572,1.967-0.572c0.531,0,1.004,0.111,1.419,0.336
		s0.752,0.516,1.013,0.875V1.118h1.486v12.168H68.491z M63.768,8.888c0,1.129,0.238,1.973,0.714,2.531s1.038,0.838,1.685,0.838
		c0.653,0,1.208-0.267,1.664-0.801c0.457-0.533,0.685-1.349,0.685-2.444c0-1.206-0.232-2.092-0.697-2.656s-1.038-0.847-1.718-0.847
		c-0.664,0-1.219,0.271-1.664,0.813C63.991,6.864,63.768,7.72,63.768,8.888z"/>
	<path fill="#FFFFFF" d="M77.003,10.448l1.544,0.19c-0.244,0.901-0.694,1.603-1.353,2.101s-1.5,0.746-2.523,0.746
		c-1.29,0-2.312-0.396-3.067-1.191c-0.756-0.793-1.133-1.907-1.133-3.34c0-1.483,0.382-2.635,1.146-3.453
		c0.764-0.819,1.754-1.229,2.972-1.229c1.179,0,2.142,0.4,2.889,1.203s1.121,1.932,1.121,3.387c0,0.088-0.003,0.221-0.008,0.398
		h-6.574c0.055,0.969,0.329,1.71,0.822,2.225s1.107,0.771,1.843,0.771c0.548,0,1.016-0.144,1.403-0.432
		C76.469,11.538,76.776,11.079,77.003,10.448z M72.098,8.032h4.922c-0.066-0.742-0.254-1.298-0.564-1.668
		c-0.476-0.576-1.093-0.863-1.851-0.863c-0.686,0-1.263,0.229-1.731,0.688C72.406,6.649,72.147,7.263,72.098,8.032z"/>
	<path fill="#FFFFFF" d="M82.63,13.286V4.472h1.336v1.236c0.277-0.432,0.645-0.779,1.104-1.041c0.459-0.264,0.982-0.395,1.569-0.395
		c0.653,0,1.188,0.135,1.606,0.406c0.417,0.271,0.712,0.65,0.884,1.137c0.697-1.029,1.605-1.543,2.723-1.543
		c0.875,0,1.547,0.242,2.017,0.727c0.47,0.483,0.706,1.229,0.706,2.236v6.051h-1.486V7.733c0-0.598-0.048-1.027-0.145-1.291
		c-0.097-0.263-0.273-0.475-0.527-0.635s-0.553-0.24-0.896-0.24c-0.62,0-1.134,0.205-1.544,0.617
		c-0.41,0.413-0.614,1.072-0.614,1.98v5.121h-1.494V7.56c0-0.664-0.122-1.162-0.365-1.494s-0.642-0.498-1.195-0.498
		c-0.42,0-0.81,0.11-1.166,0.332c-0.357,0.221-0.616,0.545-0.776,0.971s-0.241,1.041-0.241,1.843v4.573L82.63,13.286L82.63,13.286z"
		/>
	<path fill="#FFFFFF" d="M101.286,12.199c-0.553,0.47-1.086,0.802-1.598,0.996s-1.062,0.29-1.648,0.29
		c-0.968,0-1.713-0.236-2.233-0.709s-0.78-1.078-0.78-1.814c0-0.432,0.098-0.826,0.295-1.182c0.196-0.357,0.454-0.645,0.771-0.859
		c0.318-0.217,0.677-0.379,1.075-0.49c0.293-0.078,0.736-0.152,1.328-0.225c1.207-0.144,2.095-0.314,2.665-0.514
		c0.005-0.205,0.008-0.336,0.008-0.391c0-0.609-0.141-1.037-0.423-1.287c-0.382-0.337-0.949-0.506-1.702-0.506
		c-0.703,0-1.222,0.123-1.557,0.369c-0.334,0.246-0.582,0.682-0.743,1.308l-1.461-0.199c0.133-0.626,0.352-1.13,0.656-1.515
		s0.744-0.682,1.32-0.889s1.242-0.311,2-0.311c0.752,0,1.364,0.088,1.834,0.266c0.47,0.177,0.816,0.399,1.038,0.668
		c0.221,0.268,0.376,0.607,0.465,1.017c0.05,0.255,0.075,0.714,0.075,1.378v1.992c0,1.389,0.032,2.268,0.095,2.635
		c0.064,0.369,0.19,0.722,0.378,1.059h-1.561C101.43,12.977,101.331,12.614,101.286,12.199z M101.162,8.862
		c-0.542,0.221-1.356,0.41-2.44,0.564c-0.614,0.088-1.049,0.188-1.303,0.299s-0.451,0.272-0.589,0.486
		c-0.138,0.213-0.208,0.449-0.208,0.709c0,0.398,0.151,0.73,0.452,0.996c0.302,0.266,0.743,0.398,1.324,0.398
		c0.576,0,1.087-0.126,1.536-0.377c0.448-0.252,0.777-0.598,0.988-1.034c0.161-0.337,0.241-0.835,0.241-1.494L101.162,8.862
		L101.162,8.862z"/>
	<path fill="#FFFFFF" d="M103.713,13.286V4.472h1.345v1.336c0.343-0.625,0.66-1.037,0.951-1.236c0.29-0.199,0.61-0.299,0.958-0.299
		c0.503,0,1.016,0.16,1.536,0.48l-0.515,1.387c-0.365-0.216-0.73-0.324-1.096-0.324c-0.327,0-0.62,0.099-0.88,0.295
		c-0.26,0.197-0.445,0.469-0.556,0.818c-0.166,0.531-0.249,1.111-0.249,1.742v4.615H103.713z"/>
	<path fill="#FFFFFF" d="M113.886,10.058l1.469,0.191c-0.161,1.012-0.571,1.805-1.233,2.377c-0.661,0.574-1.473,0.859-2.436,0.859
		c-1.207,0-2.176-0.395-2.91-1.182c-0.733-0.789-1.1-1.92-1.1-3.392c0-0.952,0.158-1.784,0.473-2.499
		c0.315-0.713,0.795-1.248,1.44-1.605c0.645-0.357,1.346-0.535,2.104-0.535c0.958,0,1.74,0.242,2.349,0.727
		c0.609,0.483,0.999,1.171,1.17,2.063l-1.453,0.224c-0.138-0.593-0.383-1.038-0.735-1.337c-0.351-0.299-0.776-0.447-1.274-0.447
		c-0.752,0-1.364,0.27-1.834,0.809s-0.706,1.394-0.706,2.561c0,1.185,0.227,2.045,0.681,2.582s1.046,0.805,1.776,0.805
		c0.586,0,1.076-0.18,1.469-0.539S113.781,10.805,113.886,10.058z"/>
	<path fill="#FFFFFF" d="M114.819,8.879c0-1.632,0.454-2.842,1.361-3.628c0.758-0.652,1.682-0.979,2.772-0.979
		c1.212,0,2.203,0.396,2.972,1.191c0.769,0.793,1.154,1.891,1.154,3.291c0,1.134-0.17,2.026-0.51,2.676
		c-0.341,0.65-0.836,1.156-1.486,1.516c-0.65,0.359-1.36,0.539-2.129,0.539c-1.234,0-2.231-0.395-2.992-1.187
		C115.2,11.507,114.819,10.368,114.819,8.879z M116.355,8.879c0,1.129,0.246,1.974,0.739,2.536s1.112,0.842,1.859,0.842
		c0.742,0,1.358-0.281,1.851-0.846s0.739-1.426,0.739-2.582c0-1.09-0.248-1.916-0.743-2.479c-0.495-0.561-1.111-0.842-1.847-0.842
		c-0.747,0-1.367,0.279-1.859,0.838C116.601,6.906,116.355,7.75,116.355,8.879z"/>
	<path fill="#FFFFFF" d="M127.004,13.286V1.118h1.494v12.168H127.004z"/>
	<path fill="#FFFFFF" d="M129,8.879c0-1.632,0.454-2.842,1.361-3.628c0.758-0.652,1.682-0.979,2.772-0.979
		c1.212,0,2.203,0.396,2.972,1.191c0.769,0.793,1.154,1.891,1.154,3.291c0,1.134-0.17,2.026-0.51,2.676
		c-0.341,0.65-0.836,1.156-1.486,1.516c-0.65,0.359-1.36,0.539-2.129,0.539c-1.234,0-2.231-0.395-2.992-1.187
		C129.38,11.507,129,10.368,129,8.879z M130.535,8.879c0,1.129,0.246,1.974,0.739,2.536s1.112,0.842,1.859,0.842
		c0.742,0,1.358-0.281,1.851-0.846s0.739-1.426,0.739-2.582c0-1.09-0.248-1.916-0.743-2.479c-0.495-0.561-1.111-0.842-1.847-0.842
		c-0.747,0-1.367,0.279-1.859,0.838C130.781,6.906,130.535,7.75,130.535,8.879z M132.303,3.376l1.104-2.324h1.959l-1.826,2.324
		H132.303z"/>
	<path fill="#FFFFFF" d="M137.479,14.017l1.453,0.217c0.061,0.447,0.229,0.774,0.506,0.979c0.371,0.277,0.877,0.416,1.519,0.416
		c0.692,0,1.226-0.139,1.602-0.416c0.376-0.276,0.631-0.664,0.764-1.162c0.078-0.304,0.113-0.943,0.108-1.917
		c-0.653,0.769-1.466,1.153-2.44,1.153c-1.212,0-2.15-0.437-2.814-1.311c-0.664-0.875-0.996-1.924-0.996-3.146
		c0-0.842,0.152-1.617,0.457-2.328s0.746-1.261,1.324-1.648c0.579-0.387,1.258-0.58,2.038-0.58c1.041,0,1.898,0.42,2.573,1.262
		V4.472h1.378v7.619c0,1.373-0.14,2.346-0.419,2.918c-0.28,0.572-0.723,1.025-1.328,1.357c-0.606,0.332-1.352,0.498-2.237,0.498
		c-1.051,0-1.901-0.236-2.548-0.709C137.769,15.681,137.457,14.969,137.479,14.017z M138.715,8.722c0,1.156,0.229,2,0.689,2.531
		s1.035,0.797,1.727,0.797c0.686,0,1.262-0.264,1.727-0.793c0.465-0.528,0.697-1.357,0.697-2.486c0-1.078-0.239-1.893-0.718-2.439
		c-0.479-0.549-1.056-0.822-1.731-0.822c-0.664,0-1.229,0.27-1.693,0.809C138.948,6.858,138.715,7.659,138.715,8.722z"/>
	<path fill="#FFFFFF" d="M145.958,2.836V1.118h1.494v1.718H145.958z M145.958,13.286V4.472h1.494v8.814H145.958z"/>
	<path fill="#FFFFFF" d="M154.22,10.058l1.469,0.191c-0.161,1.012-0.571,1.805-1.233,2.377c-0.661,0.574-1.473,0.859-2.436,0.859
		c-1.207,0-2.176-0.395-2.91-1.182c-0.733-0.789-1.1-1.92-1.1-3.392c0-0.952,0.158-1.784,0.473-2.499
		c0.315-0.713,0.795-1.248,1.44-1.605s1.346-0.535,2.104-0.535c0.958,0,1.74,0.242,2.349,0.727c0.609,0.483,0.999,1.171,1.17,2.063
		l-1.453,0.224c-0.138-0.593-0.383-1.038-0.735-1.337c-0.351-0.299-0.776-0.447-1.274-0.447c-0.752,0-1.364,0.27-1.834,0.809
		s-0.706,1.394-0.706,2.561c0,1.185,0.227,2.045,0.681,2.582s1.046,0.805,1.776,0.805c0.586,0,1.076-0.18,1.469-0.539
		S154.115,10.805,154.22,10.058z"/>
	<path fill="#FFFFFF" d="M155.154,8.879c0-1.632,0.454-2.842,1.361-3.628c0.758-0.652,1.682-0.979,2.772-0.979
		c1.212,0,2.203,0.396,2.972,1.191c0.769,0.793,1.154,1.891,1.154,3.291c0,1.134-0.17,2.026-0.51,2.676
		c-0.341,0.65-0.836,1.156-1.486,1.516c-0.65,0.359-1.36,0.539-2.129,0.539c-1.234,0-2.231-0.395-2.992-1.187
		C155.534,11.507,155.154,10.368,155.154,8.879z M156.689,8.879c0,1.129,0.246,1.974,0.739,2.536s1.112,0.842,1.859,0.842
		c0.742,0,1.358-0.281,1.851-0.846s0.739-1.426,0.739-2.582c0-1.09-0.248-1.916-0.743-2.479c-0.495-0.561-1.111-0.842-1.847-0.842
		c-0.747,0-1.367,0.279-1.859,0.838C156.936,6.906,156.689,7.75,156.689,8.879z"/>
</g>
<g id="XMLID_1_">
	<g id="XMLID_6_">
		<g>
			<g>
				<g>
					<defs>
						<rect id="SVGID_1_" x="0" y="0.064" width="16.639" height="14.639"/>
					</defs>
					<clipPath id="SVGID_2_">
						<use xlink:href="#SVGID_1_"  overflow="visible"/>
					</clipPath>
					
						<path id="XMLID_8_" clip-path="url(#SVGID_2_)" fill="#FFFFFF" stroke="#000000" stroke-width="0.5" stroke-miterlimit="10" d="
						M15.285,6.189h-3.484L9.932,7.996V6.189H9.158c-0.581,0-1.033-0.45-1.033-1.031V1.354c0-0.58,0.452-1.031,1.033-1.031h6.19
						c0.58,0,1.03,0.451,1.03,1.031v3.805C16.316,5.739,15.865,6.189,15.285,6.189L15.285,6.189z"/>
				</g>
			</g>
		</g>
		<g>
			<g>
				<g>
					<defs>
						<rect id="SVGID_3_" x="0" y="0.064" width="16.639" height="14.639"/>
					</defs>
					<clipPath id="SVGID_4_">
						<use xlink:href="#SVGID_3_"  overflow="visible"/>
					</clipPath>
					<path id="XMLID_7_" clip-path="url(#SVGID_4_)" d="M2.708,13.35L2.708,13.35l1.29-0.194v1.226c0,0.193,0.129,0.322,0.322,0.322
						h6.449c0.193,0,0.322-0.129,0.322-0.322V9.996c0.518-0.517,0.968-1.162,1.289-1.808c0.066-0.128,0-0.321-0.128-0.386
						c-0.13-0.064-0.322,0-0.386,0.13c-0.258,0.644-0.71,1.224-1.226,1.741c-0.065,0.063-0.129,0.129-0.129,0.258v4.191H4.708v-1.29
						c0-0.066-0.064-0.193-0.129-0.258C4.516,12.51,4.449,12.51,4.32,12.51l-1.548,0.257c-0.452,0-0.839-0.387-0.839-0.838V9.867
						c0-0.193-0.128-0.323-0.321-0.323H1.098c-0.195,0-0.324-0.064-0.388-0.13C0.646,9.35,0.646,9.156,0.774,9.027L1.87,6.9
						c0-0.066,0.063-0.066,0.063-0.13V5.868c0-1.999,1.162-3.805,2.967-4.643c0.645-0.323,1.29-0.452,2-0.517
						c0.193,0,0.322-0.13,0.322-0.322c0-0.194-0.129-0.322-0.322-0.322C6.127,0.129,5.418,0.258,4.708,0.579
						c-2,0.969-3.355,2.967-3.355,5.225v0.839L0.258,8.705c-0.193,0.322-0.193,0.709,0,0.969c0.193,0.258,0.516,0.45,0.901,0.45
						h0.194v1.743C1.225,12.703,1.87,13.35,2.708,13.35L2.708,13.35z"/>
				</g>
			</g>
		</g>
	</g>
	<path id="XMLID_5_" d="M9.802,8.319c0.065,0,0.065,0,0.13,0c0.064,0,0.128,0,0.193-0.065l1.806-1.742h3.354
		c0.708,0,1.354-0.58,1.354-1.354V1.354C16.639,0.645,16.057,0,15.285,0H9.094C8.384,0,7.74,0.579,7.74,1.354v3.805
		c0,0.71,0.579,1.354,1.354,1.354h0.514v1.484C9.608,8.124,9.674,8.254,9.802,8.319L9.802,8.319z M9.094,5.933
		c-0.389,0-0.71-0.324-0.71-0.71V1.418c0-0.387,0.321-0.709,0.71-0.709h6.191c0.386,0,0.708,0.322,0.708,0.709v3.806
		c0,0.386-0.322,0.71-0.708,0.71h-3.484c-0.064,0-0.129,0-0.191,0.065l-1.356,1.289V6.189c0-0.191-0.129-0.321-0.322-0.321H9.094
		V5.933z"/>
	<path id="XMLID_4_" d="M12.188,3.738c0.066,0,0.131-0.063,0.193-0.063c0.066-0.064,0.066-0.129,0.066-0.192
		c0-0.064-0.066-0.129-0.066-0.194c-0.063-0.063-0.128-0.063-0.193-0.063c-0.064,0-0.128,0.063-0.192,0.063
		c-0.064,0.065-0.064,0.13-0.064,0.194s0.064,0.128,0.064,0.192C12.06,3.738,12.123,3.738,12.188,3.738L12.188,3.738z"/>
	<path id="XMLID_3_" d="M13.35,3.738c0.064,0,0.129-0.063,0.193-0.063c0.065-0.064,0.065-0.129,0.065-0.192
		c0-0.064-0.065-0.129-0.065-0.194c-0.064-0.063-0.129-0.063-0.193-0.063s-0.129,0.063-0.193,0.063
		c-0.066,0.065-0.066,0.13-0.066,0.194s0.066,0.128,0.066,0.192C13.221,3.738,13.285,3.738,13.35,3.738L13.35,3.738z"/>
	<path id="XMLID_2_" d="M11.029,3.738c0.063,0,0.128-0.063,0.191-0.063c0.064-0.064,0.064-0.129,0.064-0.192
		c0-0.064-0.064-0.129-0.064-0.194c-0.063-0.063-0.129-0.063-0.191-0.063c-0.066,0-0.131,0.063-0.195,0.063
		c-0.064,0.065-0.064,0.13-0.064,0.194s0.064,0.128,0.064,0.192C10.899,3.738,10.963,3.738,11.029,3.738L11.029,3.738z"/>
</g>
</svg>
