<!-- Generator: Adobe Illustrator 17.0.0, SVG Export Plug-In  -->
<svg version="1.1"
	 xmlns="http://www.w3.org/2000/svg" xmlns:xlink="http://www.w3.org/1999/xlink" xmlns:a="http://ns.adobe.com/AdobeSVGViewerExtensions/3.0/"
	 x="0px" y="0px" width="184.174px" height="16.411px" viewBox="0 0 184.174 16.411" enable-background="new 0 0 184.174 16.411"
	 xml:space="preserve">
<defs>
</defs>
<g>
	<path fill="#FFFFFF" d="M24.589,8.925l1.519-0.133C26.18,9.4,26.347,9.899,26.61,10.29c0.263,0.39,0.671,0.705,1.224,0.946
		c0.553,0.24,1.176,0.36,1.868,0.36c0.614,0,1.157-0.091,1.627-0.273s0.82-0.434,1.05-0.751c0.23-0.318,0.345-0.665,0.345-1.042
		c0-0.382-0.111-0.715-0.332-1s-0.586-0.524-1.096-0.719c-0.327-0.127-1.049-0.324-2.167-0.593s-1.901-0.522-2.349-0.76
		c-0.581-0.304-1.014-0.683-1.299-1.133c-0.285-0.451-0.428-0.956-0.428-1.515c0-0.615,0.174-1.189,0.523-1.723
		c0.349-0.534,0.858-0.939,1.527-1.217c0.669-0.276,1.414-0.414,2.233-0.414c0.902,0,1.697,0.145,2.387,0.436
		c0.688,0.29,1.219,0.718,1.589,1.282s0.57,1.204,0.598,1.917L32.367,4.21c-0.083-0.77-0.364-1.351-0.842-1.744
		c-0.479-0.393-1.186-0.589-2.121-0.589c-0.974,0-1.684,0.179-2.129,0.535C26.829,2.77,26.606,3.2,26.606,3.703
		c0,0.437,0.158,0.797,0.473,1.079c0.31,0.282,1.119,0.571,2.428,0.867c1.309,0.297,2.207,0.555,2.694,0.776
		c0.708,0.327,1.231,0.74,1.569,1.241c0.337,0.5,0.506,1.078,0.506,1.73c0,0.647-0.186,1.258-0.556,1.83
		c-0.371,0.573-0.903,1.019-1.598,1.337c-0.695,0.317-1.477,0.478-2.345,0.478c-1.101,0-2.024-0.161-2.768-0.482
		c-0.745-0.32-1.328-0.803-1.752-1.448C24.834,10.467,24.611,9.737,24.589,8.925z"/>
	<path fill="#FFFFFF" d="M35.035,2.384V0.665h1.494v1.719H35.035z M35.035,12.834V4.019h1.494v8.815H35.035z"/>
	<path fill="#FFFFFF" d="M36.948,10.202l1.478-0.232c0.083,0.593,0.314,1.047,0.693,1.361c0.379,0.316,0.909,0.474,1.59,0.474
		c0.686,0,1.195-0.14,1.527-0.419s0.498-0.607,0.498-0.984c0-0.337-0.146-0.603-0.44-0.797c-0.205-0.133-0.714-0.301-1.527-0.506
		c-1.096-0.277-1.855-0.516-2.279-0.718c-0.423-0.202-0.744-0.481-0.963-0.839c-0.218-0.356-0.328-0.751-0.328-1.183
		c0-0.394,0.09-0.757,0.27-1.092c0.18-0.335,0.424-0.612,0.734-0.834c0.232-0.171,0.549-0.317,0.95-0.436
		c0.401-0.119,0.832-0.179,1.291-0.179c0.692,0,1.299,0.1,1.822,0.299c0.522,0.199,0.909,0.469,1.158,0.81
		c0.249,0.34,0.42,0.796,0.515,1.365l-1.461,0.199c-0.066-0.454-0.259-0.808-0.577-1.063c-0.318-0.255-0.768-0.382-1.349-0.382
		c-0.686,0-1.176,0.113-1.469,0.34c-0.293,0.228-0.44,0.493-0.44,0.797c0,0.194,0.061,0.369,0.183,0.523
		c0.122,0.16,0.313,0.293,0.573,0.398c0.149,0.055,0.589,0.183,1.32,0.382c1.057,0.282,1.794,0.513,2.212,0.693
		c0.417,0.18,0.746,0.44,0.983,0.784s0.357,0.77,0.357,1.278c0,0.498-0.145,0.967-0.436,1.407c-0.29,0.439-0.709,0.78-1.257,1.021
		c-0.548,0.241-1.167,0.361-1.859,0.361c-1.146,0-2.019-0.237-2.619-0.714C37.497,11.843,37.114,11.138,36.948,10.202z"/>
	<path fill="#FFFFFF" d="M48.05,11.497l0.216,1.32c-0.42,0.088-0.797,0.133-1.129,0.133c-0.542,0-0.963-0.086-1.262-0.258
		c-0.299-0.171-0.509-0.396-0.631-0.676s-0.183-0.867-0.183-1.764V5.181h-1.096V4.019h1.096V1.835l1.486-0.896v3.08h1.502v1.162
		h-1.502v5.154c0,0.427,0.026,0.701,0.079,0.822c0.053,0.121,0.139,0.219,0.258,0.291c0.119,0.071,0.289,0.107,0.51,0.107
		C47.56,11.556,47.779,11.536,48.05,11.497z"/>
	<path fill="#FFFFFF" d="M54.287,9.995l1.544,0.191c-0.244,0.901-0.694,1.602-1.353,2.1s-1.5,0.747-2.523,0.747
		c-1.29,0-2.312-0.397-3.067-1.191c-0.756-0.794-1.133-1.907-1.133-3.341c0-1.482,0.382-2.635,1.146-3.453s1.754-1.229,2.972-1.229
		c1.179,0,2.142,0.401,2.889,1.203c0.747,0.803,1.121,1.932,1.121,3.387c0,0.089-0.003,0.222-0.008,0.398h-6.574
		c0.055,0.969,0.329,1.711,0.822,2.225c0.493,0.516,1.107,0.772,1.843,0.772c0.548,0,1.016-0.144,1.403-0.432
		S54.06,10.626,54.287,9.995z M49.381,7.579h4.922c-0.066-0.741-0.254-1.297-0.564-1.668c-0.476-0.576-1.093-0.863-1.851-0.863
		c-0.686,0-1.263,0.229-1.731,0.689C49.69,6.196,49.431,6.811,49.381,7.579z"/>
	<path fill="#FFFFFF" d="M56.449,12.834V4.019h1.336v1.236c0.277-0.432,0.645-0.778,1.104-1.041
		c0.459-0.264,0.982-0.395,1.569-0.395c0.653,0,1.188,0.136,1.606,0.406c0.417,0.271,0.712,0.65,0.884,1.138
		c0.697-1.029,1.605-1.544,2.723-1.544c0.875,0,1.547,0.242,2.017,0.727s0.706,1.229,0.706,2.236v6.052h-1.486V7.28
		c0-0.598-0.048-1.027-0.145-1.29c-0.097-0.263-0.273-0.475-0.527-0.636c-0.254-0.16-0.553-0.24-0.896-0.24
		c-0.62,0-1.134,0.206-1.544,0.618c-0.41,0.413-0.614,1.072-0.614,1.979v5.122h-1.494V7.106c0-0.664-0.122-1.162-0.365-1.494
		s-0.642-0.498-1.195-0.498c-0.42,0-0.81,0.111-1.166,0.332c-0.357,0.221-0.616,0.545-0.776,0.971
		c-0.161,0.427-0.241,1.041-0.241,1.844v4.573H56.449z"/>
	<path fill="#FFFFFF" d="M75.105,11.747c-0.553,0.47-1.086,0.802-1.598,0.996c-0.512,0.193-1.062,0.29-1.648,0.29
		c-0.968,0-1.713-0.236-2.233-0.71c-0.52-0.473-0.78-1.078-0.78-1.813c0-0.432,0.098-0.826,0.295-1.183
		c0.196-0.357,0.454-0.644,0.771-0.859c0.318-0.216,0.677-0.379,1.075-0.49c0.293-0.077,0.736-0.152,1.328-0.224
		c1.207-0.144,2.095-0.315,2.665-0.515c0.005-0.205,0.008-0.335,0.008-0.391c0-0.608-0.141-1.037-0.423-1.286
		c-0.382-0.337-0.949-0.507-1.702-0.507c-0.703,0-1.222,0.123-1.557,0.37c-0.334,0.246-0.582,0.682-0.743,1.308l-1.461-0.199
		c0.133-0.626,0.352-1.131,0.656-1.516s0.744-0.681,1.32-0.888c0.576-0.208,1.242-0.312,2-0.312c0.752,0,1.364,0.088,1.834,0.266
		c0.47,0.178,0.816,0.4,1.038,0.668c0.221,0.269,0.376,0.607,0.465,1.018c0.05,0.254,0.075,0.713,0.075,1.377V9.14
		c0,1.39,0.032,2.268,0.095,2.636c0.064,0.368,0.19,0.722,0.378,1.059h-1.561C75.249,12.524,75.149,12.161,75.105,11.747z
		 M74.98,8.409c-0.542,0.222-1.356,0.41-2.44,0.564c-0.614,0.089-1.049,0.188-1.303,0.299c-0.254,0.111-0.451,0.273-0.589,0.486
		s-0.208,0.449-0.208,0.709c0,0.398,0.151,0.73,0.452,0.996c0.302,0.266,0.743,0.398,1.324,0.398c0.576,0,1.087-0.125,1.536-0.377
		s0.777-0.597,0.988-1.033c0.161-0.338,0.241-0.836,0.241-1.494V8.409z"/>
	<path fill="#FFFFFF" d="M86.733,12.834v-1.112c-0.559,0.875-1.381,1.312-2.465,1.312c-0.703,0-1.349-0.194-1.938-0.581
		c-0.59-0.387-1.046-0.928-1.37-1.623c-0.323-0.694-0.485-1.492-0.485-2.395c0-0.88,0.146-1.678,0.44-2.395s0.733-1.266,1.32-1.648
		c0.586-0.381,1.242-0.572,1.967-0.572c0.531,0,1.004,0.112,1.419,0.336c0.415,0.225,0.752,0.516,1.013,0.876V0.665h1.486v12.169
		H86.733z M82.01,8.435c0,1.129,0.238,1.973,0.714,2.531c0.476,0.56,1.038,0.839,1.685,0.839c0.653,0,1.208-0.267,1.664-0.801
		c0.457-0.534,0.685-1.349,0.685-2.444c0-1.207-0.232-2.092-0.697-2.656s-1.038-0.848-1.718-0.848c-0.664,0-1.219,0.271-1.664,0.814
		C82.233,6.412,82.01,7.267,82.01,8.435z"/>
	<path fill="#FFFFFF" d="M95.246,9.995l1.544,0.191c-0.244,0.901-0.694,1.602-1.353,2.1s-1.5,0.747-2.523,0.747
		c-1.29,0-2.312-0.397-3.067-1.191c-0.756-0.794-1.133-1.907-1.133-3.341c0-1.482,0.382-2.635,1.146-3.453s1.754-1.229,2.972-1.229
		c1.179,0,2.142,0.401,2.889,1.203c0.747,0.803,1.121,1.932,1.121,3.387c0,0.089-0.003,0.222-0.008,0.398h-6.574
		c0.055,0.969,0.329,1.711,0.822,2.225c0.493,0.516,1.107,0.772,1.843,0.772c0.548,0,1.016-0.144,1.403-0.432
		S95.019,10.626,95.246,9.995z M90.34,7.579h4.922c-0.066-0.741-0.254-1.297-0.564-1.668c-0.476-0.576-1.093-0.863-1.851-0.863
		c-0.686,0-1.263,0.229-1.731,0.689C90.648,6.196,90.39,6.811,90.34,7.579z"/>
	<path fill="#FFFFFF" d="M97.374,12.834V0.665h1.494v12.169H97.374z"/>
	<path fill="#FFFFFF" d="M103.391,12.834V4.019h1.336v1.236c0.277-0.432,0.645-0.778,1.104-1.041
		c0.459-0.264,0.982-0.395,1.569-0.395c0.653,0,1.188,0.136,1.606,0.406c0.417,0.271,0.712,0.65,0.884,1.138
		c0.697-1.029,1.605-1.544,2.723-1.544c0.875,0,1.547,0.242,2.017,0.727s0.706,1.229,0.706,2.236v6.052h-1.486V7.28
		c0-0.598-0.048-1.027-0.145-1.29c-0.097-0.263-0.273-0.475-0.527-0.636c-0.254-0.16-0.553-0.24-0.896-0.24
		c-0.62,0-1.134,0.206-1.544,0.618c-0.41,0.413-0.614,1.072-0.614,1.979v5.122h-1.494V7.106c0-0.664-0.122-1.162-0.365-1.494
		s-0.642-0.498-1.195-0.498c-0.42,0-0.81,0.111-1.166,0.332c-0.357,0.221-0.616,0.545-0.776,0.971
		c-0.161,0.427-0.241,1.041-0.241,1.844v4.573H103.391z"/>
	<path fill="#FFFFFF" d="M122.047,11.747c-0.553,0.47-1.086,0.802-1.598,0.996c-0.512,0.193-1.062,0.29-1.648,0.29
		c-0.968,0-1.713-0.236-2.233-0.71c-0.52-0.473-0.78-1.078-0.78-1.813c0-0.432,0.098-0.826,0.295-1.183
		c0.196-0.357,0.454-0.644,0.771-0.859c0.318-0.216,0.677-0.379,1.075-0.49c0.293-0.077,0.736-0.152,1.328-0.224
		c1.207-0.144,2.095-0.315,2.665-0.515c0.005-0.205,0.008-0.335,0.008-0.391c0-0.608-0.141-1.037-0.423-1.286
		c-0.382-0.337-0.949-0.507-1.702-0.507c-0.703,0-1.222,0.123-1.557,0.37c-0.334,0.246-0.582,0.682-0.743,1.308l-1.461-0.199
		c0.133-0.626,0.352-1.131,0.656-1.516s0.744-0.681,1.32-0.888c0.576-0.208,1.242-0.312,2-0.312c0.752,0,1.364,0.088,1.834,0.266
		c0.47,0.178,0.816,0.4,1.038,0.668c0.221,0.269,0.376,0.607,0.465,1.018c0.05,0.254,0.075,0.713,0.075,1.377V9.14
		c0,1.39,0.032,2.268,0.095,2.636c0.064,0.368,0.19,0.722,0.378,1.059h-1.561C122.191,12.524,122.091,12.161,122.047,11.747z
		 M121.922,8.409c-0.542,0.222-1.356,0.41-2.44,0.564c-0.614,0.089-1.049,0.188-1.303,0.299c-0.254,0.111-0.451,0.273-0.589,0.486
		s-0.208,0.449-0.208,0.709c0,0.398,0.151,0.73,0.452,0.996c0.302,0.266,0.743,0.398,1.324,0.398c0.576,0,1.087-0.125,1.536-0.377
		s0.777-0.597,0.988-1.033c0.161-0.338,0.241-0.836,0.241-1.494V8.409z"/>
	<path fill="#FFFFFF" d="M124.475,12.834V4.019h1.345v1.336c0.343-0.625,0.66-1.037,0.951-1.236c0.29-0.199,0.61-0.299,0.958-0.299
		c0.503,0,1.016,0.16,1.536,0.481l-0.515,1.386c-0.365-0.215-0.73-0.323-1.096-0.323c-0.327,0-0.62,0.099-0.88,0.295
		s-0.445,0.469-0.556,0.817c-0.166,0.531-0.249,1.112-0.249,1.743v4.615H124.475z"/>
	<path fill="#FFFFFF" d="M134.647,9.605l1.469,0.191c-0.161,1.013-0.571,1.806-1.233,2.378c-0.661,0.573-1.473,0.859-2.436,0.859
		c-1.207,0-2.176-0.395-2.91-1.183c-0.733-0.789-1.1-1.919-1.1-3.391c0-0.952,0.158-1.785,0.473-2.499s0.795-1.249,1.44-1.606
		c0.645-0.356,1.346-0.535,2.104-0.535c0.958,0,1.74,0.242,2.349,0.727s0.999,1.172,1.17,2.063l-1.453,0.225
		c-0.138-0.593-0.383-1.038-0.735-1.337c-0.351-0.299-0.776-0.448-1.274-0.448c-0.752,0-1.364,0.27-1.834,0.81
		c-0.47,0.539-0.706,1.394-0.706,2.561c0,1.185,0.227,2.045,0.681,2.581c0.454,0.537,1.046,0.806,1.776,0.806
		c0.586,0,1.076-0.18,1.469-0.54C134.293,10.905,134.542,10.353,134.647,9.605z"/>
	<path fill="#FFFFFF" d="M135.58,8.427c0-1.633,0.454-2.842,1.361-3.628c0.758-0.653,1.682-0.979,2.772-0.979
		c1.212,0,2.203,0.396,2.972,1.191c0.769,0.794,1.154,1.891,1.154,3.291c0,1.135-0.17,2.027-0.51,2.677
		c-0.341,0.65-0.836,1.155-1.486,1.515c-0.65,0.36-1.36,0.54-2.129,0.54c-1.234,0-2.231-0.396-2.992-1.187
		C135.96,11.055,135.58,9.915,135.58,8.427z M137.116,8.427c0,1.129,0.246,1.974,0.739,2.535c0.493,0.563,1.112,0.843,1.859,0.843
		c0.742,0,1.358-0.282,1.851-0.847s0.739-1.425,0.739-2.582c0-1.09-0.248-1.916-0.743-2.478c-0.495-0.562-1.111-0.843-1.847-0.843
		c-0.747,0-1.367,0.279-1.859,0.839S137.116,7.298,137.116,8.427z"/>
	<path fill="#FFFFFF" d="M147.765,12.834V0.665h1.494v12.169H147.765z"/>
	<path fill="#FFFFFF" d="M149.761,8.427c0-1.633,0.454-2.842,1.361-3.628c0.758-0.653,1.682-0.979,2.772-0.979
		c1.212,0,2.203,0.396,2.972,1.191c0.769,0.794,1.154,1.891,1.154,3.291c0,1.135-0.17,2.027-0.51,2.677
		c-0.341,0.65-0.836,1.155-1.486,1.515c-0.65,0.36-1.36,0.54-2.129,0.54c-1.234,0-2.231-0.396-2.992-1.187
		C150.141,11.055,149.761,9.915,149.761,8.427z M151.296,8.427c0,1.129,0.246,1.974,0.739,2.535
		c0.493,0.563,1.112,0.843,1.859,0.843c0.742,0,1.358-0.282,1.851-0.847s0.739-1.425,0.739-2.582c0-1.09-0.248-1.916-0.743-2.478
		c-0.495-0.562-1.111-0.843-1.847-0.843c-0.747,0-1.367,0.279-1.859,0.839S151.296,7.298,151.296,8.427z M153.064,2.923l1.104-2.324
		h1.959l-1.826,2.324H153.064z"/>
	<path fill="#FFFFFF" d="M158.239,13.564l1.453,0.216c0.061,0.448,0.229,0.775,0.506,0.979c0.371,0.276,0.877,0.415,1.519,0.415
		c0.692,0,1.226-0.139,1.602-0.415s0.631-0.664,0.764-1.162c0.078-0.304,0.113-0.943,0.108-1.917
		c-0.653,0.769-1.466,1.153-2.44,1.153c-1.212,0-2.15-0.437-2.814-1.312S157.94,9.6,157.94,8.376c0-0.841,0.152-1.617,0.457-2.328
		s0.746-1.26,1.324-1.647c0.579-0.388,1.258-0.581,2.038-0.581c1.041,0,1.898,0.42,2.573,1.262V4.019h1.378v7.62
		c0,1.372-0.14,2.345-0.419,2.918c-0.28,0.572-0.723,1.024-1.328,1.356c-0.606,0.332-1.352,0.498-2.237,0.498
		c-1.051,0-1.901-0.236-2.548-0.709C158.53,15.229,158.217,14.517,158.239,13.564z M159.476,8.269c0,1.156,0.229,2,0.689,2.531
		s1.035,0.797,1.727,0.797c0.686,0,1.262-0.264,1.727-0.792s0.697-1.357,0.697-2.486c0-1.079-0.239-1.893-0.718-2.44
		c-0.479-0.548-1.056-0.822-1.731-0.822c-0.664,0-1.229,0.271-1.693,0.81C159.709,6.405,159.476,7.206,159.476,8.269z"/>
	<path fill="#FFFFFF" d="M166.718,2.384V0.665h1.494v1.719H166.718z M166.718,12.834V4.019h1.494v8.815H166.718z"/>
	<path fill="#FFFFFF" d="M174.981,9.605l1.469,0.191c-0.161,1.013-0.571,1.806-1.233,2.378c-0.661,0.573-1.473,0.859-2.436,0.859
		c-1.207,0-2.176-0.395-2.91-1.183c-0.733-0.789-1.1-1.919-1.1-3.391c0-0.952,0.158-1.785,0.473-2.499s0.795-1.249,1.44-1.606
		c0.645-0.356,1.346-0.535,2.104-0.535c0.958,0,1.74,0.242,2.349,0.727s0.999,1.172,1.17,2.063l-1.453,0.225
		c-0.138-0.593-0.383-1.038-0.735-1.337c-0.351-0.299-0.776-0.448-1.274-0.448c-0.752,0-1.364,0.27-1.834,0.81
		c-0.47,0.539-0.706,1.394-0.706,2.561c0,1.185,0.227,2.045,0.681,2.581c0.454,0.537,1.046,0.806,1.776,0.806
		c0.586,0,1.076-0.18,1.469-0.54C174.627,10.905,174.876,10.353,174.981,9.605z"/>
	<path fill="#FFFFFF" d="M175.915,8.427c0-1.633,0.454-2.842,1.361-3.628c0.758-0.653,1.682-0.979,2.772-0.979
		c1.212,0,2.203,0.396,2.972,1.191c0.769,0.794,1.154,1.891,1.154,3.291c0,1.135-0.17,2.027-0.51,2.677
		c-0.341,0.65-0.836,1.155-1.486,1.515c-0.65,0.36-1.36,0.54-2.129,0.54c-1.234,0-2.231-0.396-2.992-1.187
		C176.295,11.055,175.915,9.915,175.915,8.427z M177.45,8.427c0,1.129,0.246,1.974,0.739,2.535c0.493,0.563,1.112,0.843,1.859,0.843
		c0.742,0,1.358-0.282,1.851-0.847s0.739-1.425,0.739-2.582c0-1.09-0.248-1.916-0.743-2.478c-0.495-0.562-1.111-0.843-1.847-0.843
		c-0.747,0-1.367,0.279-1.859,0.839S177.45,7.298,177.45,8.427z"/>
</g>
<g>
	<path d="M3.891,15.693c0.123,0,0.123,0,0.244,0s0.242,0,0.366-0.123l3.406-3.286h6.327c1.336,0,2.554-1.094,2.554-2.554V2.554
		C16.788,1.216,15.691,0,14.234,0H2.554C1.215,0,0,1.092,0,2.554v7.177c0,1.339,1.092,2.554,2.554,2.554h0.971v2.799
		C3.525,15.325,3.649,15.57,3.891,15.693L3.891,15.693z"/>
	<path fill="#FFFFFF" d="M2.554,11.192c-0.731,0-1.339-0.609-1.339-1.339V2.675c0-0.73,0.608-1.338,1.339-1.338h11.68
		c0.729,0,1.336,0.607,1.336,1.338v7.179c0,0.729-0.608,1.339-1.336,1.339H7.663c-0.121,0-0.244,0-0.363,0.121l-2.556,2.434v-2.07
		c0-0.363-0.242-0.607-0.608-0.607H2.554V11.192z"/>
	<path id="XMLID_3_" d="M8.392,7.053c0.124,0,0.247-0.121,0.366-0.121C8.88,6.811,8.88,6.689,8.88,6.568S8.757,6.326,8.757,6.203
		C8.638,6.082,8.515,6.082,8.392,6.082c-0.121,0-0.242,0.121-0.363,0.121C7.907,6.326,7.907,6.447,7.907,6.568
		s0.121,0.242,0.121,0.363C8.149,7.053,8.271,7.053,8.392,7.053L8.392,7.053z"/>
	<path id="XMLID_2_" d="M10.583,7.053c0.121,0,0.245-0.121,0.366-0.121c0.123-0.121,0.123-0.242,0.123-0.363
		s-0.123-0.242-0.123-0.365c-0.121-0.121-0.245-0.121-0.366-0.121c-0.121,0-0.242,0.121-0.363,0.121
		c-0.126,0.123-0.126,0.244-0.126,0.365s0.126,0.242,0.126,0.363C10.34,7.053,10.462,7.053,10.583,7.053L10.583,7.053z"/>
	<path id="XMLID_1_" d="M6.205,7.053c0.119,0,0.242-0.121,0.361-0.121c0.123-0.121,0.123-0.242,0.123-0.363S6.566,6.326,6.566,6.203
		C6.447,6.082,6.324,6.082,6.205,6.082c-0.123,0-0.247,0.121-0.368,0.121C5.716,6.326,5.716,6.447,5.716,6.568
		s0.121,0.242,0.121,0.363C5.958,7.053,6.082,7.053,6.205,7.053L6.205,7.053z"/>
</g>
</svg>