<!-- Generator: Adobe Illustrator 17.0.0, SVG Export Plug-In  -->
<svg version="1.1"
	 xmlns="http://www.w3.org/2000/svg" xmlns:xlink="http://www.w3.org/1999/xlink" xmlns:a="http://ns.adobe.com/AdobeSVGViewerExtensions/3.0/"
	 x="0px" y="0px" width="184.175px" height="16.412px" viewBox="0 0 184.175 16.412" enable-background="new 0 0 184.175 16.412"
	 xml:space="preserve">
<defs>
</defs>
<g>
	<path fill="#FFFFFF" d="M24.589,8.924l1.52-0.133c0.072,0.609,0.239,1.108,0.502,1.499c0.264,0.39,0.672,0.705,1.225,0.946
		c0.553,0.24,1.176,0.361,1.867,0.361c0.615,0,1.157-0.092,1.627-0.274c0.471-0.183,0.82-0.433,1.051-0.751
		c0.229-0.318,0.344-0.666,0.344-1.042c0-0.382-0.11-0.716-0.332-1c-0.221-0.285-0.586-0.524-1.096-0.718
		c-0.326-0.128-1.049-0.326-2.166-0.594c-1.117-0.269-1.9-0.521-2.35-0.76c-0.58-0.305-1.014-0.682-1.299-1.133
		s-0.428-0.956-0.428-1.516c0-0.613,0.175-1.188,0.523-1.722s0.857-0.939,1.527-1.216c0.67-0.277,1.414-0.416,2.232-0.416
		c0.902,0,1.697,0.146,2.387,0.437c0.689,0.29,1.219,0.718,1.59,1.282s0.57,1.203,0.598,1.918l-1.544,0.115
		c-0.083-0.769-0.364-1.35-0.843-1.742c-0.479-0.394-1.186-0.59-2.121-0.59c-0.974,0-1.684,0.179-2.129,0.535
		c-0.445,0.357-0.668,0.787-0.668,1.291c0,0.438,0.158,0.797,0.473,1.079c0.311,0.282,1.119,0.571,2.428,0.867
		c1.31,0.296,2.207,0.556,2.694,0.776c0.708,0.326,1.231,0.74,1.569,1.241c0.337,0.501,0.506,1.077,0.506,1.73
		c0,0.647-0.186,1.258-0.557,1.83c-0.37,0.573-0.902,1.019-1.598,1.337c-0.694,0.318-1.477,0.477-2.345,0.477
		c-1.101,0-2.024-0.16-2.769-0.48c-0.744-0.321-1.328-0.805-1.752-1.449C24.835,10.467,24.611,9.738,24.589,8.924z"/>
	<path fill="#FFFFFF" d="M35.036,2.383V0.665h1.494v1.718H35.036z M35.036,12.834V4.019h1.494v8.815H35.036z"/>
	<path fill="#FFFFFF" d="M36.948,10.203l1.478-0.232c0.083,0.592,0.313,1.045,0.692,1.361c0.38,0.314,0.91,0.473,1.59,0.473
		c0.687,0,1.195-0.14,1.527-0.419c0.332-0.28,0.498-0.607,0.498-0.983c0-0.338-0.146-0.604-0.439-0.797
		c-0.205-0.133-0.714-0.303-1.527-0.507c-1.096-0.276-1.855-0.517-2.279-0.718c-0.422-0.202-0.744-0.481-0.963-0.839
		c-0.218-0.356-0.327-0.751-0.327-1.183c0-0.393,0.09-0.757,0.271-1.092c0.18-0.334,0.424-0.613,0.734-0.834
		c0.232-0.172,0.549-0.316,0.949-0.436c0.402-0.119,0.832-0.179,1.291-0.179c0.692,0,1.299,0.1,1.822,0.299
		c0.523,0.199,0.909,0.469,1.158,0.81c0.249,0.34,0.42,0.795,0.515,1.365l-1.461,0.199c-0.066-0.453-0.259-0.809-0.577-1.063
		s-0.768-0.382-1.349-0.382c-0.687,0-1.176,0.113-1.47,0.341c-0.293,0.227-0.439,0.492-0.439,0.797c0,0.193,0.061,0.367,0.183,0.522
		c0.122,0.161,0.313,0.294,0.573,0.398c0.148,0.056,0.589,0.183,1.319,0.382c1.058,0.282,1.794,0.514,2.212,0.693
		s0.746,0.441,0.984,0.784c0.237,0.343,0.356,0.769,0.356,1.278c0,0.498-0.146,0.967-0.437,1.407
		c-0.289,0.439-0.709,0.78-1.257,1.021c-0.548,0.241-1.167,0.361-1.859,0.361c-1.146,0-2.019-0.238-2.618-0.714
		C37.497,11.844,37.114,11.138,36.948,10.203z"/>
	<path fill="#FFFFFF" d="M48.05,11.498l0.217,1.319c-0.421,0.089-0.797,0.133-1.129,0.133c-0.543,0-0.963-0.086-1.262-0.257
		c-0.299-0.172-0.51-0.397-0.631-0.677c-0.122-0.28-0.184-0.868-0.184-1.765V5.181h-1.096V4.019h1.096V1.836l1.486-0.896v3.079
		h1.502v1.162h-1.502v5.155c0,0.426,0.026,0.699,0.078,0.821c0.053,0.122,0.139,0.219,0.258,0.29
		c0.119,0.072,0.289,0.108,0.511,0.108C47.561,11.556,47.779,11.536,48.05,11.498z"/>
	<path fill="#FFFFFF" d="M54.288,9.995l1.543,0.19c-0.243,0.902-0.693,1.603-1.353,2.101s-1.499,0.747-2.523,0.747
		c-1.29,0-2.312-0.396-3.067-1.191c-0.756-0.794-1.133-1.908-1.133-3.341c0-1.483,0.382-2.634,1.146-3.453s1.755-1.229,2.972-1.229
		c1.179,0,2.142,0.401,2.889,1.204c0.747,0.802,1.121,1.931,1.121,3.387c0,0.088-0.004,0.221-0.009,0.398h-6.574
		c0.056,0.968,0.329,1.709,0.821,2.225c0.493,0.514,1.107,0.771,1.844,0.771c0.547,0,1.016-0.145,1.402-0.432
		S54.061,10.626,54.288,9.995z M49.382,7.58h4.922c-0.066-0.742-0.254-1.299-0.564-1.669c-0.476-0.575-1.092-0.863-1.851-0.863
		c-0.687,0-1.263,0.229-1.731,0.688C49.69,6.196,49.432,6.811,49.382,7.58z"/>
	<path fill="#FFFFFF" d="M56.45,12.834V4.019h1.336v1.237c0.277-0.432,0.645-0.779,1.104-1.042c0.46-0.263,0.982-0.395,1.569-0.395
		c0.653,0,1.188,0.136,1.606,0.407c0.418,0.271,0.713,0.65,0.884,1.137c0.697-1.029,1.604-1.544,2.723-1.544
		c0.874,0,1.547,0.242,2.017,0.727c0.471,0.483,0.706,1.229,0.706,2.237v6.051h-1.485V7.281c0-0.598-0.049-1.028-0.146-1.291
		c-0.097-0.264-0.272-0.475-0.527-0.635c-0.255-0.161-0.554-0.241-0.896-0.241c-0.62,0-1.134,0.206-1.544,0.618
		s-0.614,1.072-0.614,1.98v5.121h-1.494V7.106c0-0.664-0.122-1.162-0.365-1.494s-0.642-0.498-1.195-0.498
		c-0.421,0-0.81,0.11-1.166,0.332c-0.357,0.222-0.616,0.545-0.776,0.972c-0.16,0.426-0.24,1.04-0.24,1.842v4.574H56.45z"/>
	<path fill="#FFFFFF" d="M75.105,11.746c-0.554,0.471-1.086,0.803-1.598,0.996c-0.513,0.194-1.062,0.291-1.647,0.291
		c-0.969,0-1.713-0.236-2.233-0.71c-0.521-0.473-0.78-1.077-0.78-1.813c0-0.432,0.098-0.826,0.295-1.183
		c0.196-0.357,0.453-0.644,0.771-0.859s0.677-0.379,1.075-0.489c0.294-0.078,0.735-0.152,1.328-0.225
		c1.206-0.145,2.095-0.315,2.665-0.515c0.005-0.204,0.008-0.335,0.008-0.39c0-0.609-0.141-1.038-0.424-1.287
		c-0.381-0.338-0.949-0.506-1.701-0.506c-0.703,0-1.222,0.123-1.557,0.369c-0.334,0.246-0.582,0.682-0.742,1.307l-1.461-0.199
		c0.133-0.625,0.352-1.13,0.655-1.515c0.304-0.384,0.744-0.681,1.319-0.888c0.576-0.208,1.242-0.312,2.001-0.312
		c0.753,0,1.364,0.089,1.835,0.266c0.47,0.177,0.816,0.399,1.037,0.668s0.377,0.607,0.465,1.017c0.05,0.255,0.074,0.715,0.074,1.379
		v1.992c0,1.389,0.032,2.268,0.096,2.635c0.064,0.368,0.189,0.721,0.378,1.059h-1.561C75.249,12.523,75.149,12.162,75.105,11.746z
		 M74.981,8.41c-0.543,0.221-1.356,0.409-2.441,0.564c-0.613,0.088-1.049,0.188-1.303,0.299c-0.254,0.11-0.451,0.271-0.59,0.485
		c-0.138,0.213-0.207,0.449-0.207,0.71c0,0.398,0.15,0.73,0.452,0.996s0.743,0.398,1.324,0.398c0.575,0,1.087-0.127,1.536-0.378
		c0.447-0.252,0.777-0.597,0.987-1.034c0.161-0.337,0.241-0.835,0.241-1.494V8.41z"/>
	<path fill="#FFFFFF" d="M86.733,12.834v-1.112c-0.559,0.874-1.381,1.312-2.465,1.312c-0.703,0-1.35-0.193-1.938-0.581
		c-0.59-0.388-1.047-0.929-1.371-1.623c-0.322-0.694-0.484-1.493-0.484-2.395c0-0.88,0.146-1.679,0.439-2.395
		c0.293-0.717,0.733-1.267,1.32-1.647c0.586-0.383,1.242-0.573,1.967-0.573c0.531,0,1.004,0.112,1.42,0.336
		c0.414,0.225,0.752,0.517,1.012,0.876V0.665h1.486v12.169H86.733z M82.011,8.435c0,1.129,0.238,1.973,0.714,2.532
		c0.476,0.559,1.038,0.838,1.685,0.838c0.653,0,1.209-0.268,1.664-0.801c0.457-0.534,0.686-1.35,0.686-2.445
		c0-1.206-0.232-2.092-0.697-2.656s-1.037-0.846-1.719-0.846c-0.664,0-1.219,0.271-1.664,0.813
		C82.233,6.412,82.011,7.268,82.011,8.435z"/>
	<path fill="#FFFFFF" d="M95.246,9.995l1.544,0.19c-0.244,0.902-0.694,1.603-1.354,2.101c-0.658,0.498-1.499,0.747-2.523,0.747
		c-1.289,0-2.312-0.396-3.066-1.191c-0.756-0.794-1.133-1.908-1.133-3.341c0-1.483,0.381-2.634,1.145-3.453s1.755-1.229,2.973-1.229
		c1.178,0,2.141,0.401,2.889,1.204c0.746,0.802,1.12,1.931,1.12,3.387c0,0.088-0.003,0.221-0.009,0.398h-6.574
		c0.056,0.968,0.33,1.709,0.822,2.225c0.492,0.514,1.107,0.771,1.843,0.771c0.548,0,1.016-0.145,1.403-0.432
		C94.712,11.086,95.019,10.626,95.246,9.995z M90.341,7.58h4.922c-0.066-0.742-0.254-1.299-0.564-1.669
		c-0.477-0.575-1.093-0.863-1.852-0.863c-0.686,0-1.263,0.229-1.73,0.688C90.649,6.196,90.39,6.811,90.341,7.58z"/>
	<path fill="#FFFFFF" d="M97.374,12.834V0.665h1.494v12.169H97.374z"/>
	<path fill="#FFFFFF" d="M103.392,12.834V4.019h1.336v1.237c0.277-0.432,0.645-0.779,1.104-1.042s0.982-0.395,1.569-0.395
		c0.652,0,1.188,0.136,1.605,0.407c0.418,0.271,0.713,0.65,0.885,1.137c0.697-1.029,1.604-1.544,2.723-1.544
		c0.874,0,1.547,0.242,2.017,0.727c0.47,0.483,0.706,1.229,0.706,2.237v6.051h-1.486V7.281c0-0.598-0.049-1.028-0.145-1.291
		c-0.098-0.264-0.273-0.475-0.527-0.635c-0.255-0.161-0.554-0.241-0.896-0.241c-0.62,0-1.135,0.206-1.545,0.618
		c-0.409,0.412-0.613,1.072-0.613,1.98v5.121h-1.494V7.106c0-0.664-0.122-1.162-0.365-1.494c-0.244-0.332-0.643-0.498-1.195-0.498
		c-0.421,0-0.811,0.11-1.166,0.332c-0.357,0.222-0.616,0.545-0.777,0.972c-0.16,0.426-0.24,1.04-0.24,1.842v4.574H103.392z"/>
	<path fill="#FFFFFF" d="M122.048,11.746c-0.554,0.471-1.086,0.803-1.598,0.996c-0.513,0.194-1.063,0.291-1.648,0.291
		c-0.969,0-1.713-0.236-2.232-0.71c-0.521-0.473-0.781-1.077-0.781-1.813c0-0.432,0.099-0.826,0.295-1.183
		c0.197-0.357,0.454-0.644,0.771-0.859c0.318-0.216,0.678-0.379,1.076-0.489c0.293-0.078,0.735-0.152,1.328-0.225
		c1.206-0.145,2.094-0.315,2.664-0.515c0.006-0.204,0.008-0.335,0.008-0.39c0-0.609-0.141-1.038-0.423-1.287
		c-0.382-0.338-0.949-0.506-1.702-0.506c-0.702,0-1.221,0.123-1.557,0.369c-0.334,0.246-0.582,0.682-0.742,1.307l-1.461-0.199
		c0.133-0.625,0.352-1.13,0.656-1.515c0.304-0.384,0.744-0.681,1.319-0.888c0.575-0.208,1.242-0.312,2.001-0.312
		c0.752,0,1.363,0.089,1.834,0.266c0.471,0.177,0.816,0.399,1.037,0.668c0.222,0.269,0.377,0.607,0.465,1.017
		c0.051,0.255,0.075,0.715,0.075,1.379v1.992c0,1.389,0.032,2.268,0.095,2.635c0.064,0.368,0.19,0.721,0.379,1.059h-1.561
		C122.191,12.523,122.092,12.162,122.048,11.746z M121.923,8.41c-0.543,0.221-1.355,0.409-2.44,0.564
		c-0.614,0.088-1.049,0.188-1.304,0.299c-0.254,0.11-0.451,0.271-0.589,0.485c-0.138,0.213-0.208,0.449-0.208,0.71
		c0,0.398,0.151,0.73,0.453,0.996c0.301,0.266,0.742,0.398,1.324,0.398c0.575,0,1.087-0.127,1.535-0.378
		c0.448-0.252,0.777-0.597,0.988-1.034c0.16-0.337,0.24-0.835,0.24-1.494V8.41z"/>
	<path fill="#FFFFFF" d="M124.476,12.834V4.019h1.344v1.337c0.344-0.626,0.66-1.038,0.951-1.237c0.29-0.199,0.609-0.299,0.959-0.299
		c0.503,0,1.016,0.161,1.535,0.481l-0.515,1.387c-0.365-0.217-0.73-0.324-1.096-0.324c-0.327,0-0.62,0.098-0.88,0.295
		c-0.26,0.196-0.445,0.469-0.557,0.817c-0.166,0.531-0.248,1.112-0.248,1.743v4.615H124.476z"/>
	<path fill="#FFFFFF" d="M134.647,9.605l1.469,0.19c-0.16,1.013-0.571,1.806-1.232,2.378c-0.662,0.573-1.474,0.859-2.437,0.859
		c-1.206,0-2.177-0.395-2.909-1.183c-0.733-0.789-1.1-1.919-1.1-3.392c0-0.951,0.157-1.784,0.473-2.498s0.795-1.249,1.439-1.606
		c0.646-0.356,1.347-0.535,2.105-0.535c0.957,0,1.74,0.242,2.349,0.727c0.608,0.483,0.999,1.171,1.171,2.063l-1.453,0.224
		c-0.139-0.592-0.383-1.037-0.734-1.336s-0.776-0.448-1.274-0.448c-0.753,0-1.364,0.27-1.835,0.81
		c-0.47,0.539-0.705,1.393-0.705,2.561c0,1.184,0.227,2.045,0.681,2.582c0.454,0.536,1.046,0.805,1.776,0.805
		c0.586,0,1.076-0.18,1.469-0.539C134.293,10.905,134.542,10.352,134.647,9.605z"/>
	<path fill="#FFFFFF" d="M135.581,8.426c0-1.632,0.453-2.842,1.361-3.627c0.758-0.652,1.682-0.979,2.771-0.979
		c1.213,0,2.203,0.397,2.973,1.191c0.769,0.794,1.153,1.892,1.153,3.291c0,1.134-0.171,2.026-0.511,2.677s-0.836,1.155-1.486,1.516
		c-0.649,0.359-1.359,0.539-2.129,0.539c-1.233,0-2.23-0.396-2.992-1.188C135.961,11.055,135.581,9.915,135.581,8.426z
		 M137.116,8.426c0,1.129,0.246,1.975,0.738,2.536c0.493,0.562,1.113,0.843,1.859,0.843c0.742,0,1.359-0.282,1.852-0.847
		s0.738-1.425,0.738-2.581c0-1.091-0.247-1.916-0.742-2.479c-0.496-0.562-1.111-0.842-1.848-0.842c-0.746,0-1.366,0.279-1.859,0.838
		C137.362,6.453,137.116,7.297,137.116,8.426z"/>
	<path fill="#FFFFFF" d="M147.765,12.834V0.665h1.494v12.169H147.765z"/>
	<path fill="#FFFFFF" d="M149.761,8.426c0-1.632,0.454-2.842,1.361-3.627c0.759-0.652,1.683-0.979,2.773-0.979
		c1.211,0,2.202,0.397,2.971,1.191c0.77,0.794,1.154,1.892,1.154,3.291c0,1.134-0.17,2.026-0.51,2.677
		c-0.342,0.65-0.836,1.155-1.486,1.516c-0.65,0.359-1.36,0.539-2.129,0.539c-1.234,0-2.232-0.396-2.992-1.188
		C150.142,11.055,149.761,9.915,149.761,8.426z M151.297,8.426c0,1.129,0.246,1.975,0.739,2.536
		c0.492,0.562,1.111,0.843,1.859,0.843c0.741,0,1.357-0.282,1.851-0.847s0.739-1.425,0.739-2.581c0-1.091-0.248-1.916-0.744-2.479
		c-0.494-0.562-1.11-0.842-1.846-0.842c-0.748,0-1.367,0.279-1.859,0.838C151.543,6.453,151.297,7.297,151.297,8.426z
		 M153.065,2.923l1.104-2.324h1.959l-1.826,2.324H153.065z"/>
	<path fill="#FFFFFF" d="M158.239,13.564l1.453,0.216c0.061,0.448,0.229,0.774,0.506,0.979c0.371,0.277,0.877,0.415,1.52,0.415
		c0.691,0,1.226-0.138,1.602-0.415c0.377-0.277,0.631-0.664,0.764-1.162c0.078-0.305,0.113-0.943,0.108-1.918
		c-0.653,0.77-1.466,1.154-2.44,1.154c-1.212,0-2.15-0.438-2.814-1.312S157.94,9.6,157.94,8.377c0-0.842,0.152-1.617,0.457-2.329
		c0.305-0.711,0.746-1.261,1.324-1.647s1.258-0.581,2.037-0.581c1.041,0,1.898,0.421,2.574,1.262V4.019h1.377v7.62
		c0,1.373-0.139,2.345-0.418,2.918c-0.28,0.572-0.723,1.025-1.328,1.357c-0.607,0.332-1.353,0.498-2.238,0.498
		c-1.051,0-1.9-0.237-2.548-0.71C158.53,15.228,158.218,14.516,158.239,13.564z M159.477,8.269c0,1.157,0.229,2.001,0.688,2.532
		c0.46,0.531,1.035,0.797,1.727,0.797c0.687,0,1.262-0.265,1.727-0.793c0.465-0.529,0.697-1.357,0.697-2.486
		c0-1.079-0.238-1.893-0.717-2.44c-0.479-0.548-1.057-0.821-1.731-0.821c-0.664,0-1.229,0.27-1.693,0.809
		C159.709,6.405,159.477,7.206,159.477,8.269z"/>
	<path fill="#FFFFFF" d="M166.719,2.383V0.665h1.494v1.718H166.719z M166.719,12.834V4.019h1.494v8.815H166.719z"/>
	<path fill="#FFFFFF" d="M174.981,9.605l1.47,0.19c-0.161,1.013-0.571,1.806-1.233,2.378c-0.66,0.573-1.473,0.859-2.436,0.859
		c-1.207,0-2.176-0.395-2.91-1.183c-0.732-0.789-1.1-1.919-1.1-3.392c0-0.951,0.158-1.784,0.474-2.498s0.796-1.249,1.44-1.606
		c0.645-0.356,1.346-0.535,2.104-0.535c0.958,0,1.74,0.242,2.35,0.727c0.609,0.483,0.999,1.171,1.17,2.063l-1.452,0.224
		c-0.138-0.592-0.384-1.037-0.735-1.336c-0.351-0.299-0.775-0.448-1.273-0.448c-0.752,0-1.364,0.27-1.834,0.81
		c-0.471,0.539-0.706,1.393-0.706,2.561c0,1.184,0.228,2.045,0.681,2.582c0.453,0.536,1.046,0.805,1.776,0.805
		c0.587,0,1.076-0.18,1.47-0.539C174.628,10.905,174.877,10.352,174.981,9.605z"/>
	<path fill="#FFFFFF" d="M175.915,8.426c0-1.632,0.453-2.842,1.361-3.627c0.758-0.652,1.682-0.979,2.772-0.979
		c1.212,0,2.202,0.397,2.972,1.191s1.154,1.892,1.154,3.291c0,1.134-0.171,2.026-0.511,2.677c-0.341,0.65-0.836,1.155-1.486,1.516
		c-0.649,0.359-1.36,0.539-2.129,0.539c-1.233,0-2.231-0.396-2.992-1.188C176.296,11.055,175.915,9.915,175.915,8.426z
		 M177.45,8.426c0,1.129,0.246,1.975,0.739,2.536s1.112,0.843,1.859,0.843c0.741,0,1.358-0.282,1.851-0.847
		c0.493-0.564,0.739-1.425,0.739-2.581c0-1.091-0.247-1.916-0.743-2.479c-0.495-0.562-1.111-0.842-1.847-0.842
		c-0.747,0-1.366,0.279-1.859,0.838S177.45,7.297,177.45,8.426z"/>
</g>
<g>
	<path d="M3.892,15.693c0.123,0,0.123,0,0.244,0s0.242,0,0.366-0.123l3.406-3.286h6.326c1.336,0,2.555-1.094,2.555-2.554V2.554
		C16.789,1.216,15.691,0,14.234,0H2.555C1.216,0,0,1.092,0,2.554V9.73c0,1.339,1.093,2.554,2.555,2.554h0.971v2.799
		C3.525,15.325,3.649,15.57,3.892,15.693L3.892,15.693z"/>
	<path fill="#144B8B" d="M2.555,11.192c-0.73,0-1.339-0.609-1.339-1.339V2.675c0-0.73,0.608-1.338,1.339-1.338h11.68
		c0.729,0,1.336,0.607,1.336,1.338v7.179c0,0.729-0.607,1.339-1.336,1.339H7.663c-0.121,0-0.244,0-0.363,0.121l-2.556,2.433v-2.07
		c0-0.363-0.242-0.607-0.608-0.607H2.555V11.192z"/>
	<path id="XMLID_3_" d="M8.393,7.053c0.123,0,0.246-0.121,0.365-0.121c0.123-0.121,0.123-0.242,0.123-0.363
		c0-0.121-0.123-0.242-0.123-0.365C8.639,6.082,8.516,6.082,8.393,6.082c-0.121,0-0.242,0.121-0.363,0.121
		C7.908,6.326,7.908,6.447,7.908,6.568c0,0.121,0.121,0.242,0.121,0.363C8.15,7.053,8.271,7.053,8.393,7.053L8.393,7.053z"/>
	<path id="XMLID_2_" d="M10.583,7.053c0.121,0,0.245-0.121,0.366-0.121c0.123-0.121,0.123-0.242,0.123-0.363
		c0-0.121-0.123-0.242-0.123-0.365c-0.121-0.121-0.245-0.121-0.366-0.121c-0.121,0-0.242,0.121-0.363,0.121
		c-0.126,0.123-0.126,0.244-0.126,0.365c0,0.121,0.126,0.242,0.126,0.363C10.341,7.053,10.462,7.053,10.583,7.053L10.583,7.053z"/>
	<path id="XMLID_1_" d="M6.205,7.053c0.119,0,0.242-0.121,0.361-0.121c0.123-0.121,0.123-0.242,0.123-0.363
		c0-0.121-0.123-0.242-0.123-0.365C6.447,6.082,6.324,6.082,6.205,6.082c-0.123,0-0.246,0.121-0.367,0.121
		C5.717,6.326,5.717,6.447,5.717,6.568c0,0.121,0.121,0.242,0.121,0.363C5.959,7.053,6.082,7.053,6.205,7.053L6.205,7.053z"/>
</g>
</svg>