<!-- Generator: Adobe Illustrator 17.0.0, SVG Export Plug-In  -->
<svg version="1.1"
	 xmlns="http://www.w3.org/2000/svg" xmlns:xlink="http://www.w3.org/1999/xlink" xmlns:a="http://ns.adobe.com/AdobeSVGViewerExtensions/3.0/"
	 x="0px" y="0px" width="184.784px" height="27.06px" viewBox="0 0 184.784 27.06" enable-background="new 0 0 184.784 27.06"
	 xml:space="preserve">
<defs>
</defs>
<g id="XMLID_1_">
	<g id="XMLID_6_">
		<g>
			<g>
				<defs>
					<rect id="SVGID_1_" x="4.059" y="5.766" width="16.639" height="14.639"/>
				</defs>
				<clipPath id="SVGID_2_">
					<use xlink:href="#SVGID_1_"  overflow="visible"/>
				</clipPath>
				<path id="XMLID_8_" clip-path="url(#SVGID_2_)" fill="#144B8B" d="M19.344,11.891h-3.484l-1.869,1.807v-1.807h-0.774
					c-0.581,0-1.033-0.45-1.033-1.031V7.055c0-0.58,0.452-1.031,1.033-1.031h6.19c0.58,0,1.03,0.451,1.03,1.031v3.805
					C20.375,11.441,19.924,11.891,19.344,11.891L19.344,11.891z"/>
			</g>
		</g>
		<g>
			<g>
				<defs>
					<rect id="SVGID_3_" x="4.059" y="5.766" width="16.639" height="14.639"/>
				</defs>
				<clipPath id="SVGID_4_">
					<use xlink:href="#SVGID_3_"  overflow="visible"/>
				</clipPath>
				<path id="XMLID_7_" clip-path="url(#SVGID_4_)" d="M6.767,19.051L6.767,19.051l1.29-0.194v1.226
					c0,0.193,0.129,0.322,0.322,0.322h6.449c0.193,0,0.322-0.129,0.322-0.322v-4.385c0.518-0.517,0.968-1.162,1.289-1.808
					c0.066-0.128,0-0.321-0.128-0.386c-0.13-0.064-0.322,0-0.386,0.13c-0.258,0.645-0.71,1.224-1.227,1.741
					c-0.064,0.064-0.129,0.129-0.129,0.258v4.192H8.767v-1.29c0-0.065-0.064-0.193-0.129-0.258c-0.064-0.064-0.13-0.064-0.259-0.064
					l-1.548,0.257c-0.452,0-0.839-0.387-0.839-0.838v-2.062c0-0.193-0.128-0.323-0.321-0.323H5.156c-0.195,0-0.324-0.064-0.388-0.13
					c-0.064-0.064-0.064-0.258,0.063-0.387l1.097-2.127c0-0.066,0.063-0.066,0.063-0.13v-0.902c0-1.999,1.162-3.805,2.967-4.643
					c0.646-0.323,1.29-0.452,2-0.517c0.193,0,0.322-0.13,0.322-0.322c0-0.194-0.129-0.322-0.322-0.322
					C10.186,5.83,9.477,5.959,8.767,6.28c-2,0.969-3.354,2.967-3.354,5.225v0.839l-1.096,2.063c-0.193,0.322-0.193,0.709,0,0.969
					c0.193,0.258,0.516,0.45,0.901,0.45h0.194v1.743C5.283,18.404,5.929,19.051,6.767,19.051L6.767,19.051z"/>
			</g>
		</g>
	</g>
	<path id="XMLID_5_" d="M13.86,14.021c0.065,0,0.065,0,0.13,0c0.064,0,0.128,0,0.193-0.065l1.806-1.742h3.354
		c0.708,0,1.354-0.58,1.354-1.354V7.055c0-0.709-0.582-1.353-1.354-1.353h-6.191c-0.71,0-1.354,0.579-1.354,1.353v3.805
		c0,0.71,0.579,1.354,1.354,1.354h0.514v1.484C13.666,13.825,13.732,13.955,13.86,14.021L13.86,14.021z M13.152,11.635
		c-0.389,0-0.71-0.324-0.71-0.71V7.119c0-0.387,0.321-0.709,0.71-0.709h6.191c0.386,0,0.708,0.322,0.708,0.709v3.806
		c0,0.386-0.322,0.71-0.708,0.71h-3.484c-0.063,0-0.129,0-0.191,0.064l-1.356,1.289v-1.098c0-0.191-0.129-0.321-0.322-0.321h-0.838
		V11.635z"/>
	<path id="XMLID_4_" d="M16.246,9.439c0.065,0,0.131-0.063,0.193-0.063c0.066-0.064,0.066-0.129,0.066-0.192
		c0-0.064-0.066-0.129-0.066-0.194c-0.063-0.063-0.128-0.063-0.193-0.063c-0.064,0-0.128,0.063-0.192,0.063
		c-0.064,0.065-0.064,0.13-0.064,0.194c0,0.063,0.064,0.128,0.064,0.192C16.118,9.439,16.182,9.439,16.246,9.439L16.246,9.439z"/>
	<path id="XMLID_3_" d="M17.408,9.439c0.065,0,0.129-0.063,0.193-0.063c0.065-0.064,0.065-0.129,0.065-0.192
		c0-0.064-0.065-0.129-0.065-0.194c-0.065-0.063-0.129-0.063-0.193-0.063c-0.064,0-0.129,0.063-0.193,0.063
		c-0.066,0.065-0.066,0.13-0.066,0.194c0,0.063,0.066,0.128,0.066,0.192C17.279,9.439,17.344,9.439,17.408,9.439L17.408,9.439z"/>
	<path id="XMLID_2_" d="M15.088,9.439c0.063,0,0.128-0.063,0.191-0.063c0.064-0.064,0.064-0.129,0.064-0.192
		c0-0.064-0.064-0.129-0.064-0.194c-0.063-0.063-0.129-0.063-0.191-0.063c-0.066,0-0.131,0.063-0.195,0.063
		c-0.064,0.065-0.064,0.13-0.064,0.194c0,0.063,0.064,0.128,0.064,0.192C14.957,9.439,15.021,9.439,15.088,9.439L15.088,9.439z"/>
</g>
<rect x="0" y="0" fill="none" width="184.784" height="27.06"/>
</svg>