<!-- Generator: Adobe Illustrator 17.0.0, SVG Export Plug-In  -->
<svg version="1.1"
	 xmlns="http://www.w3.org/2000/svg" xmlns:xlink="http://www.w3.org/1999/xlink" xmlns:a="http://ns.adobe.com/AdobeSVGViewerExtensions/3.0/"
	 x="0px" y="0px" width="171.298px" height="14.903px" viewBox="0 0 171.298 14.903" enable-background="new 0 0 171.298 14.903"
	 xml:space="preserve">
<defs>
</defs>
<g>
	<path fill="#FFFFFF" d="M18.486,14.704l4.673-12.17h1.735l4.98,12.17h-1.834l-1.419-3.686h-5.088l-1.336,3.686H18.486z
		 M21.998,9.706h4.125l-1.27-3.369c-0.387-1.024-0.675-1.865-0.863-2.523c-0.155,0.779-0.374,1.555-0.656,2.324L21.998,9.706z"/>
	<path fill="#FFFFFF" d="M29.713,14.704V5.888h1.345v1.254c0.647-0.969,1.583-1.453,2.806-1.453c0.531,0,1.02,0.096,1.465,0.287
		c0.445,0.191,0.779,0.441,1,0.751s0.376,0.678,0.465,1.104c0.055,0.276,0.083,0.76,0.083,1.452v5.421h-1.494V9.341
		c0-0.608-0.058-1.063-0.174-1.365c-0.116-0.301-0.322-0.542-0.619-0.723c-0.296-0.18-0.643-0.27-1.042-0.27
		c-0.636,0-1.186,0.203-1.648,0.606c-0.462,0.403-0.693,1.171-0.693,2.3v4.814H29.713z"/>
	<path fill="#FFFFFF" d="M43.662,13.616c-0.553,0.471-1.086,0.803-1.598,0.996c-0.512,0.193-1.062,0.291-1.648,0.291
		c-0.968,0-1.713-0.236-2.233-0.711c-0.52-0.473-0.78-1.077-0.78-1.813c0-0.432,0.098-0.826,0.295-1.184
		c0.196-0.357,0.454-0.643,0.771-0.859c0.318-0.215,0.677-0.379,1.075-0.489c0.293-0.077,0.736-0.152,1.328-0.224
		c1.207-0.145,2.095-0.316,2.665-0.516c0.005-0.204,0.008-0.334,0.008-0.39c0-0.608-0.141-1.038-0.423-1.286
		c-0.382-0.338-0.949-0.507-1.702-0.507c-0.703,0-1.222,0.123-1.557,0.37c-0.334,0.246-0.582,0.682-0.743,1.307L37.66,8.403
		c0.133-0.625,0.352-1.131,0.656-1.516c0.304-0.384,0.744-0.68,1.32-0.887c0.576-0.209,1.242-0.313,2-0.313
		c0.752,0,1.364,0.089,1.834,0.266c0.47,0.178,0.816,0.4,1.038,0.668c0.221,0.27,0.376,0.607,0.465,1.018
		c0.05,0.254,0.075,0.714,0.075,1.378v1.992c0,1.39,0.032,2.268,0.095,2.636c0.064,0.367,0.19,0.721,0.378,1.059H43.96
		C43.806,14.394,43.706,14.031,43.662,13.616z M43.537,10.279c-0.542,0.222-1.356,0.409-2.44,0.564
		c-0.614,0.089-1.049,0.188-1.303,0.299s-0.451,0.272-0.589,0.485s-0.208,0.449-0.208,0.71c0,0.398,0.151,0.73,0.452,0.996
		c0.302,0.266,0.743,0.398,1.324,0.398c0.576,0,1.087-0.126,1.536-0.378s0.777-0.596,0.988-1.033
		c0.161-0.338,0.241-0.836,0.241-1.494V10.279z M40.632,4.792l1.104-2.324h1.959l-1.826,2.324H40.632z"/>
	<path fill="#FFFFFF" d="M46.073,14.704V2.534h1.494v12.17H46.073z"/>
	<path fill="#FFFFFF" d="M48.633,4.253V2.534h1.494v1.719H48.633z M48.633,14.704V5.888h1.494v8.816H48.633z"/>
	<path fill="#FFFFFF" d="M50.546,12.072l1.478-0.232c0.083,0.593,0.314,1.046,0.693,1.361c0.379,0.315,0.909,0.474,1.59,0.474
		c0.686,0,1.195-0.141,1.527-0.42s0.498-0.607,0.498-0.983c0-0.337-0.146-0.603-0.44-0.797c-0.205-0.133-0.714-0.302-1.527-0.507
		c-1.096-0.276-1.855-0.516-2.279-0.717c-0.423-0.203-0.744-0.482-0.963-0.84c-0.218-0.355-0.328-0.75-0.328-1.182
		c0-0.394,0.09-0.758,0.27-1.092c0.18-0.335,0.424-0.613,0.734-0.834c0.232-0.172,0.549-0.317,0.95-0.436
		c0.401-0.119,0.832-0.18,1.291-0.18c0.692,0,1.299,0.1,1.822,0.299c0.522,0.199,0.909,0.469,1.158,0.811
		c0.249,0.34,0.42,0.795,0.515,1.365l-1.461,0.199c-0.066-0.454-0.259-0.809-0.577-1.063c-0.318-0.255-0.768-0.383-1.349-0.383
		c-0.686,0-1.176,0.113-1.469,0.341s-0.44,0.493-0.44,0.797c0,0.194,0.061,0.368,0.183,0.522c0.122,0.161,0.313,0.294,0.573,0.398
		c0.149,0.056,0.589,0.184,1.32,0.383c1.057,0.281,1.794,0.513,2.212,0.693c0.417,0.18,0.746,0.44,0.983,0.783
		c0.238,0.344,0.357,0.77,0.357,1.279c0,0.498-0.145,0.967-0.436,1.406c-0.29,0.439-0.709,0.781-1.257,1.021
		s-1.167,0.361-1.859,0.361c-1.146,0-2.019-0.238-2.619-0.715C51.095,13.713,50.712,13.007,50.546,12.072z"/>
	<path fill="#FFFFFF" d="M58.394,4.253V2.534h1.494v1.719H58.394z M58.394,14.704V5.888h1.494v8.816H58.394z"/>
	<path fill="#FFFFFF" d="M60.307,12.072l1.478-0.232c0.083,0.593,0.314,1.046,0.693,1.361c0.379,0.315,0.909,0.474,1.59,0.474
		c0.686,0,1.195-0.141,1.527-0.42s0.498-0.607,0.498-0.983c0-0.337-0.146-0.603-0.44-0.797c-0.205-0.133-0.714-0.302-1.527-0.507
		c-1.096-0.276-1.855-0.516-2.279-0.717c-0.423-0.203-0.744-0.482-0.963-0.84c-0.218-0.355-0.328-0.75-0.328-1.182
		c0-0.394,0.09-0.758,0.27-1.092c0.18-0.335,0.424-0.613,0.734-0.834c0.232-0.172,0.549-0.317,0.95-0.436
		c0.401-0.119,0.832-0.18,1.291-0.18c0.692,0,1.299,0.1,1.822,0.299c0.522,0.199,0.909,0.469,1.158,0.811
		c0.249,0.34,0.42,0.795,0.515,1.365l-1.461,0.199c-0.066-0.454-0.259-0.809-0.577-1.063c-0.318-0.255-0.768-0.383-1.349-0.383
		c-0.686,0-1.176,0.113-1.469,0.341S62,7.751,62,8.055c0,0.194,0.061,0.368,0.183,0.522c0.122,0.161,0.313,0.294,0.573,0.398
		c0.149,0.056,0.589,0.184,1.32,0.383c1.057,0.281,1.794,0.513,2.212,0.693c0.417,0.18,0.746,0.44,0.983,0.783
		c0.238,0.344,0.357,0.77,0.357,1.279c0,0.498-0.145,0.967-0.436,1.406c-0.29,0.439-0.709,0.781-1.257,1.021
		s-1.167,0.361-1.859,0.361c-1.146,0-2.019-0.238-2.619-0.715C60.856,13.713,60.473,13.007,60.307,12.072z"/>
	<path fill="#FFFFFF" d="M77.331,14.704v-1.113c-0.559,0.875-1.381,1.313-2.465,1.313c-0.703,0-1.349-0.194-1.938-0.582
		c-0.59-0.387-1.046-0.928-1.37-1.623c-0.323-0.693-0.485-1.492-0.485-2.395c0-0.879,0.146-1.678,0.44-2.395s0.733-1.266,1.32-1.647
		s1.242-0.573,1.967-0.573c0.531,0,1.004,0.113,1.419,0.336c0.415,0.225,0.752,0.517,1.013,0.877V2.534h1.486v12.17H77.331z
		 M72.608,10.304c0,1.129,0.238,1.973,0.714,2.532s1.038,0.839,1.685,0.839c0.653,0,1.208-0.268,1.664-0.801
		c0.457-0.535,0.685-1.35,0.685-2.445c0-1.207-0.232-2.092-0.697-2.656s-1.038-0.847-1.718-0.847c-0.664,0-1.219,0.271-1.664,0.813
		C72.831,8.282,72.608,9.137,72.608,10.304z"/>
	<path fill="#FFFFFF" d="M85.843,11.864l1.544,0.191c-0.244,0.902-0.694,1.602-1.353,2.1s-1.5,0.748-2.523,0.748
		c-1.29,0-2.312-0.397-3.067-1.191c-0.756-0.795-1.133-1.908-1.133-3.342c0-1.482,0.382-2.634,1.146-3.453
		c0.764-0.818,1.754-1.229,2.972-1.229c1.179,0,2.142,0.402,2.889,1.204s1.121,1.931,1.121,3.387c0,0.089-0.003,0.222-0.008,0.398
		h-6.574c0.055,0.968,0.329,1.71,0.822,2.225s1.107,0.772,1.843,0.772c0.548,0,1.016-0.145,1.403-0.432
		C85.309,12.955,85.616,12.495,85.843,11.864z M80.937,9.449h4.922c-0.066-0.741-0.254-1.298-0.564-1.669
		c-0.476-0.575-1.093-0.863-1.851-0.863c-0.686,0-1.263,0.23-1.731,0.689C81.246,8.065,80.987,8.681,80.937,9.449z"/>
	<path fill="#FFFFFF" d="M91.478,4.253V2.534h1.494v1.719H91.478z M91.478,14.704V5.888h1.494v8.816H91.478z"/>
	<path fill="#FFFFFF" d="M93.989,14.704V5.888h1.345v1.254c0.647-0.969,1.583-1.453,2.806-1.453c0.531,0,1.02,0.096,1.465,0.287
		c0.445,0.191,0.779,0.441,1,0.751s0.376,0.678,0.465,1.104c0.055,0.276,0.083,0.76,0.083,1.452v5.421h-1.494V9.341
		c0-0.608-0.058-1.063-0.174-1.365c-0.116-0.301-0.322-0.542-0.619-0.723c-0.296-0.18-0.643-0.27-1.042-0.27
		c-0.636,0-1.186,0.203-1.648,0.606c-0.462,0.403-0.693,1.171-0.693,2.3v4.814H93.989z"/>
	<path fill="#FFFFFF" d="M104.634,14.704l-3.354-8.816h1.577l1.893,5.279c0.205,0.57,0.393,1.162,0.564,1.777
		c0.133-0.465,0.318-1.024,0.556-1.678l1.959-5.379h1.536l-3.337,8.816H104.634z"/>
	<path fill="#FFFFFF" d="M108.871,10.296c0-1.633,0.454-2.842,1.361-3.627c0.758-0.653,1.682-0.98,2.772-0.98
		c1.212,0,2.203,0.397,2.972,1.191c0.769,0.795,1.154,1.892,1.154,3.291c0,1.135-0.17,2.027-0.51,2.678
		c-0.341,0.65-0.836,1.154-1.486,1.515c-0.65,0.36-1.36,0.54-2.129,0.54c-1.234,0-2.231-0.396-2.992-1.188
		C109.251,12.925,108.871,11.784,108.871,10.296z M110.407,10.296c0,1.129,0.246,1.975,0.739,2.535
		c0.493,0.563,1.112,0.844,1.859,0.844c0.742,0,1.358-0.283,1.851-0.848s0.739-1.424,0.739-2.581c0-1.091-0.248-1.916-0.743-2.478
		c-0.495-0.563-1.111-0.843-1.847-0.843c-0.747,0-1.367,0.279-1.859,0.839C110.653,8.323,110.407,9.167,110.407,10.296z"/>
	<path fill="#FFFFFF" d="M117.591,14.704V2.534h1.494v12.17H117.591z"/>
	<path fill="#FFFFFF" d="M125.92,14.704v-1.295c-0.686,0.996-1.619,1.494-2.797,1.494c-0.52,0-1.006-0.1-1.457-0.299
		c-0.451-0.199-0.786-0.45-1.004-0.752c-0.219-0.301-0.373-0.671-0.461-1.107c-0.061-0.294-0.091-0.759-0.091-1.395V5.888h1.494
		v4.89c0,0.78,0.03,1.306,0.091,1.577c0.094,0.393,0.293,0.701,0.598,0.926s0.681,0.336,1.129,0.336s0.869-0.115,1.262-0.344
		c0.393-0.23,0.671-0.543,0.834-0.939c0.164-0.395,0.245-0.969,0.245-1.722V5.888h1.494v8.816H125.92z"/>
	<path fill="#FFFFFF" d="M134.092,11.475l1.469,0.19c-0.161,1.014-0.571,1.807-1.233,2.379c-0.661,0.572-1.473,0.859-2.436,0.859
		c-1.207,0-2.176-0.395-2.91-1.184c-0.733-0.789-1.1-1.918-1.1-3.391c0-0.951,0.158-1.785,0.473-2.498
		c0.315-0.715,0.795-1.25,1.44-1.607c0.645-0.355,1.346-0.535,2.104-0.535c0.958,0,1.74,0.242,2.349,0.727s0.999,1.172,1.17,2.063
		l-1.453,0.225c-0.138-0.592-0.383-1.037-0.735-1.336c-0.351-0.299-0.776-0.449-1.274-0.449c-0.752,0-1.364,0.27-1.834,0.811
		c-0.47,0.539-0.706,1.393-0.706,2.561c0,1.184,0.227,2.045,0.681,2.581s1.046,0.806,1.776,0.806c0.586,0,1.076-0.18,1.469-0.54
		S133.987,12.222,134.092,11.475z"/>
	<path fill="#FFFFFF" d="M135.565,14.704V5.888h1.345v1.337c0.343-0.626,0.66-1.038,0.951-1.237c0.29-0.199,0.61-0.299,0.958-0.299
		c0.503,0,1.016,0.161,1.536,0.482l-0.515,1.386c-0.365-0.216-0.73-0.323-1.096-0.323c-0.327,0-0.62,0.098-0.88,0.295
		c-0.26,0.195-0.445,0.469-0.556,0.816c-0.166,0.531-0.249,1.113-0.249,1.744v4.615H135.565z"/>
	<path fill="#FFFFFF" d="M145.737,13.616c-0.553,0.471-1.086,0.803-1.598,0.996c-0.512,0.193-1.062,0.291-1.648,0.291
		c-0.968,0-1.713-0.236-2.233-0.711c-0.52-0.473-0.78-1.077-0.78-1.813c0-0.432,0.098-0.826,0.295-1.184
		c0.196-0.357,0.454-0.643,0.771-0.859c0.318-0.215,0.677-0.379,1.075-0.489c0.293-0.077,0.736-0.152,1.328-0.224
		c1.207-0.145,2.095-0.316,2.665-0.516c0.005-0.204,0.008-0.334,0.008-0.39c0-0.608-0.141-1.038-0.423-1.286
		c-0.382-0.338-0.949-0.507-1.702-0.507c-0.703,0-1.222,0.123-1.557,0.37c-0.334,0.246-0.582,0.682-0.743,1.307l-1.461-0.199
		c0.133-0.625,0.352-1.131,0.656-1.516c0.304-0.384,0.744-0.68,1.32-0.887c0.576-0.209,1.242-0.313,2-0.313
		c0.752,0,1.364,0.089,1.834,0.266c0.47,0.178,0.816,0.4,1.038,0.668c0.221,0.27,0.376,0.607,0.465,1.018
		c0.05,0.254,0.075,0.714,0.075,1.378v1.992c0,1.39,0.032,2.268,0.095,2.636c0.064,0.367,0.19,0.721,0.378,1.059h-1.561
		C145.881,14.394,145.781,14.031,145.737,13.616z M145.612,10.279c-0.542,0.222-1.356,0.409-2.44,0.564
		c-0.614,0.089-1.049,0.188-1.303,0.299s-0.451,0.272-0.589,0.485s-0.208,0.449-0.208,0.71c0,0.398,0.151,0.73,0.452,0.996
		c0.302,0.266,0.743,0.398,1.324,0.398c0.576,0,1.087-0.126,1.536-0.378s0.777-0.596,0.988-1.033
		c0.161-0.338,0.241-0.836,0.241-1.494V10.279z"/>
	<path fill="#FFFFFF" d="M153.9,14.704v-1.113c-0.559,0.875-1.381,1.313-2.465,1.313c-0.703,0-1.349-0.194-1.938-0.582
		c-0.59-0.387-1.046-0.928-1.37-1.623c-0.323-0.693-0.485-1.492-0.485-2.395c0-0.879,0.146-1.678,0.44-2.395s0.733-1.266,1.32-1.647
		s1.242-0.573,1.967-0.573c0.531,0,1.004,0.113,1.419,0.336c0.415,0.225,0.752,0.517,1.013,0.877V2.534h1.486v12.17H153.9z
		 M149.177,10.304c0,1.129,0.238,1.973,0.714,2.532s1.038,0.839,1.685,0.839c0.653,0,1.208-0.268,1.664-0.801
		c0.457-0.535,0.685-1.35,0.685-2.445c0-1.207-0.232-2.092-0.697-2.656s-1.038-0.847-1.718-0.847c-0.664,0-1.219,0.271-1.664,0.813
		C149.4,8.282,149.177,9.137,149.177,10.304z"/>
	<path fill="#FFFFFF" d="M155.822,10.296c0-1.633,0.454-2.842,1.361-3.627c0.758-0.653,1.682-0.98,2.772-0.98
		c1.212,0,2.203,0.397,2.972,1.191c0.769,0.795,1.154,1.892,1.154,3.291c0,1.135-0.17,2.027-0.51,2.678
		c-0.341,0.65-0.836,1.154-1.486,1.515c-0.65,0.36-1.36,0.54-2.129,0.54c-1.234,0-2.231-0.396-2.992-1.188
		C156.202,12.925,155.822,11.784,155.822,10.296z M157.357,10.296c0,1.129,0.246,1.975,0.739,2.535
		c0.493,0.563,1.112,0.844,1.859,0.844c0.742,0,1.358-0.283,1.851-0.848s0.739-1.424,0.739-2.581c0-1.091-0.248-1.916-0.743-2.478
		c-0.495-0.563-1.111-0.843-1.847-0.843c-0.747,0-1.367,0.279-1.859,0.839C157.604,8.323,157.357,9.167,157.357,10.296z"/>
	<path fill="#FFFFFF" d="M163.977,12.072l1.478-0.232c0.083,0.593,0.314,1.046,0.693,1.361c0.379,0.315,0.909,0.474,1.59,0.474
		c0.686,0,1.195-0.141,1.527-0.42s0.498-0.607,0.498-0.983c0-0.337-0.146-0.603-0.44-0.797c-0.205-0.133-0.714-0.302-1.527-0.507
		c-1.096-0.276-1.855-0.516-2.279-0.717c-0.423-0.203-0.744-0.482-0.963-0.84c-0.218-0.355-0.328-0.75-0.328-1.182
		c0-0.394,0.09-0.758,0.27-1.092c0.18-0.335,0.424-0.613,0.734-0.834c0.232-0.172,0.549-0.317,0.95-0.436
		c0.401-0.119,0.832-0.18,1.291-0.18c0.692,0,1.299,0.1,1.822,0.299c0.522,0.199,0.909,0.469,1.158,0.811
		c0.249,0.34,0.42,0.795,0.515,1.365l-1.461,0.199c-0.066-0.454-0.259-0.809-0.577-1.063c-0.318-0.255-0.768-0.383-1.349-0.383
		c-0.686,0-1.176,0.113-1.469,0.341s-0.44,0.493-0.44,0.797c0,0.194,0.061,0.368,0.183,0.522c0.122,0.161,0.313,0.294,0.573,0.398
		c0.149,0.056,0.589,0.184,1.32,0.383c1.057,0.281,1.794,0.513,2.212,0.693c0.417,0.18,0.746,0.44,0.983,0.783
		c0.238,0.344,0.357,0.77,0.357,1.279c0,0.498-0.145,0.967-0.436,1.406c-0.29,0.439-0.709,0.781-1.257,1.021
		s-1.167,0.361-1.859,0.361c-1.146,0-2.019-0.238-2.619-0.715C164.526,13.713,164.143,13.007,163.977,12.072z"/>
</g>
<g id="XMLID_1_">
	<g id="XMLID_6_">
		<g>
			<g>
				<defs>
					<rect id="SVGID_1_" x="0" y="0.064" width="16.639" height="14.639"/>
				</defs>
				<clipPath id="SVGID_2_">
					<use xlink:href="#SVGID_1_"  overflow="visible"/>
				</clipPath>
				<path id="XMLID_8_" clip-path="url(#SVGID_2_)" fill="#FFFFFF" stroke="#000000" stroke-width="0.5" stroke-miterlimit="10" d="
					M15.285,6.189h-3.484L9.932,7.996V6.189H9.158c-0.581,0-1.033-0.45-1.033-1.031V1.354c0-0.58,0.452-1.031,1.033-1.031h6.19
					c0.58,0,1.03,0.451,1.03,1.031v3.805C16.316,5.739,15.865,6.189,15.285,6.189L15.285,6.189z"/>
			</g>
		</g>
		<g>
			<g>
				<defs>
					<rect id="SVGID_3_" x="0" y="0.064" width="16.639" height="14.639"/>
				</defs>
				<clipPath id="SVGID_4_">
					<use xlink:href="#SVGID_3_"  overflow="visible"/>
				</clipPath>
				<path id="XMLID_7_" clip-path="url(#SVGID_4_)" d="M2.708,13.35L2.708,13.35l1.29-0.194v1.226c0,0.193,0.129,0.322,0.322,0.322
					h6.449c0.193,0,0.322-0.129,0.322-0.322V9.996c0.518-0.517,0.968-1.162,1.289-1.808c0.066-0.128,0-0.321-0.128-0.386
					c-0.13-0.064-0.322,0-0.386,0.13c-0.258,0.645-0.71,1.224-1.226,1.741c-0.065,0.063-0.129,0.129-0.129,0.258v4.192H4.708v-1.29
					c0-0.065-0.064-0.193-0.129-0.258c-0.063-0.064-0.13-0.064-0.259-0.064l-1.548,0.257c-0.452,0-0.839-0.387-0.839-0.838V9.867
					c0-0.193-0.128-0.323-0.321-0.323H1.098c-0.195,0-0.324-0.064-0.388-0.13C0.646,9.35,0.646,9.156,0.774,9.027L1.87,6.9
					c0-0.066,0.063-0.066,0.063-0.13V5.868c0-1.999,1.162-3.805,2.967-4.643c0.645-0.323,1.29-0.452,2-0.517
					c0.193,0,0.322-0.13,0.322-0.322c0-0.194-0.129-0.322-0.322-0.322C6.127,0.129,5.418,0.258,4.708,0.579
					c-2,0.969-3.355,2.967-3.355,5.225v0.839L0.258,8.705c-0.193,0.322-0.193,0.709,0,0.969c0.193,0.258,0.516,0.45,0.901,0.45
					h0.194v1.743C1.225,12.703,1.87,13.35,2.708,13.35L2.708,13.35z"/>
			</g>
		</g>
	</g>
	<path id="XMLID_5_" d="M9.802,8.319c0.065,0,0.065,0,0.13,0c0.064,0,0.128,0,0.193-0.065l1.806-1.742h3.354
		c0.708,0,1.354-0.58,1.354-1.354V1.354C16.639,0.645,16.057,0,15.285,0H9.094c-0.71,0-1.354,0.579-1.354,1.354v3.805
		c0,0.71,0.579,1.354,1.354,1.354h0.514v1.484C9.608,8.124,9.674,8.254,9.802,8.319L9.802,8.319z M9.094,5.934
		c-0.389,0-0.71-0.324-0.71-0.71V1.418c0-0.387,0.321-0.709,0.71-0.709h6.191c0.386,0,0.708,0.322,0.708,0.709v3.806
		c0,0.386-0.322,0.71-0.708,0.71h-3.484c-0.064,0-0.129,0-0.191,0.064l-1.356,1.289V6.189c0-0.191-0.129-0.321-0.322-0.321H9.094
		V5.934z"/>
	<path id="XMLID_4_" d="M12.188,3.738c0.066,0,0.131-0.064,0.193-0.064c0.066-0.064,0.066-0.129,0.066-0.192
		c0-0.064-0.066-0.129-0.066-0.194c-0.063-0.063-0.128-0.063-0.193-0.063c-0.064,0-0.128,0.063-0.192,0.063
		c-0.064,0.065-0.064,0.13-0.064,0.194c0,0.064,0.064,0.128,0.064,0.192C12.06,3.738,12.123,3.738,12.188,3.738L12.188,3.738z"/>
	<path id="XMLID_3_" d="M13.35,3.738c0.064,0,0.129-0.064,0.193-0.064c0.065-0.064,0.065-0.129,0.065-0.192
		c0-0.064-0.065-0.129-0.065-0.194c-0.064-0.063-0.129-0.063-0.193-0.063c-0.064,0-0.129,0.063-0.193,0.063
		c-0.066,0.065-0.066,0.13-0.066,0.194c0,0.064,0.066,0.128,0.066,0.192C13.221,3.738,13.285,3.738,13.35,3.738L13.35,3.738z"/>
	<path id="XMLID_2_" d="M11.029,3.738c0.063,0,0.128-0.064,0.191-0.064c0.064-0.064,0.064-0.129,0.064-0.192
		c0-0.064-0.064-0.129-0.064-0.194c-0.063-0.063-0.129-0.063-0.191-0.063c-0.066,0-0.131,0.063-0.195,0.063
		c-0.064,0.065-0.064,0.13-0.064,0.194c0,0.064,0.064,0.128,0.064,0.192C10.899,3.738,10.963,3.738,11.029,3.738L11.029,3.738z"/>
</g>
</svg>