<!-- Generator: Adobe Illustrator 17.0.0, SVG Export Plug-In  -->
<svg version="1.1"
	 xmlns="http://www.w3.org/2000/svg" xmlns:xlink="http://www.w3.org/1999/xlink" xmlns:a="http://ns.adobe.com/AdobeSVGViewerExtensions/3.0/"
	 x="0px" y="0px" width="210.582px" height="109.435px" viewBox="0 0 210.582 109.435" enable-background="new 0 0 210.582 109.435"
	 xml:space="preserve">
<defs>
</defs>
<g>
	<g>
		<g>
			<g>
				<polygon fill="#FFFFFF" points="59.957,104.595 0,104.595 0,57.768 59.761,57.768 59.761,49.351 22.727,49.351 22.727,47.667 
					61.443,47.667 61.443,59.45 1.684,59.45 1.684,102.911 59.957,102.911 				"/>
				<polygon fill="#FFFFFF" points="71.545,58.89 69.861,58.89 69.861,31.814 34.791,31.814 34.791,30.131 71.545,30.131 				"/>
				<rect x="79.138" y="7.338" fill="#FFFFFF" width="1.683" height="51.552"/>
				<circle fill="none" stroke="#FFFFFF" stroke-width="2" stroke-miterlimit="10" cx="79.979" cy="4.497" r="3.496"/>
				<circle fill="none" stroke="#FFFFFF" stroke-width="2" stroke-miterlimit="10" cx="19.905" cy="48.658" r="3.497"/>
				<circle fill="#FFFFFF" stroke="#FFFFFF" stroke-miterlimit="10" cx="34.219" cy="30.982" r="3.496"/>
			</g>
			<g>
				<polygon fill="#FFFFFF" points="150.626,104.595 210.582,104.595 210.582,57.768 150.822,57.768 150.822,49.351 187.857,49.351 
					187.857,47.667 149.14,47.667 149.14,59.45 208.898,59.45 208.898,102.911 150.626,102.911 				"/>
				<polygon fill="#FFFFFF" points="139.038,58.89 140.723,58.89 140.723,31.814 175.792,31.814 175.792,30.131 139.038,30.131 				
					"/>
				<rect x="129.762" y="7.338" fill="#FFFFFF" width="1.684" height="51.552"/>
				<circle fill="none" stroke="#FFFFFF" stroke-width="2" stroke-miterlimit="10" cx="190.512" cy="48.057" r="3.497"/>
				<circle fill="#FFFFFF" stroke="#FFFFFF" stroke-miterlimit="10" cx="176.447" cy="30.973" r="3.496"/>
				<circle fill="none" stroke="#FFFFFF" stroke-width="2" stroke-miterlimit="10" cx="130.604" cy="4.497" r="3.497"/>
			</g>
		</g>
	</g>
	<g>
		<path fill="#154A8B" stroke="#154A8B" stroke-miterlimit="10" d="M12.79,88.173h-0.41l-0.75-1.15
			c-0.313,0.414-0.693,0.742-1.14,0.985c-0.447,0.243-0.943,0.365-1.49,0.365H8.25c-0.486,0-0.945-0.092-1.375-0.275
			c-0.43-0.183-0.805-0.435-1.125-0.755c-0.32-0.32-0.571-0.693-0.755-1.12c-0.184-0.426-0.275-0.883-0.275-1.37v-7.7
			c0-0.487,0.092-0.943,0.275-1.37s0.435-0.8,0.755-1.12c0.32-0.32,0.695-0.571,1.125-0.755c0.43-0.183,0.889-0.275,1.375-0.275
			h1.02c0.487,0,0.943,0.092,1.37,0.275c0.427,0.184,0.8,0.435,1.12,0.755c0.32,0.32,0.571,0.693,0.755,1.12s0.275,0.883,0.275,1.37
			v0.58l-1.29,0.2v-0.78c0-0.32-0.061-0.619-0.18-0.895c-0.12-0.277-0.284-0.519-0.49-0.725c-0.207-0.207-0.448-0.37-0.726-0.49
			c-0.276-0.12-0.574-0.18-0.895-0.18h-0.9c-0.319,0-0.618,0.06-0.895,0.18c-0.276,0.12-0.521,0.284-0.73,0.49
			S6.31,75.982,6.19,76.259c-0.12,0.276-0.181,0.575-0.181,0.895v7.7c0,0.32,0.061,0.618,0.181,0.895
			c0.119,0.276,0.284,0.52,0.494,0.73s0.454,0.375,0.73,0.495c0.276,0.12,0.575,0.18,0.895,0.18h0.9c0.32,0,0.618-0.06,0.895-0.18
			c0.277-0.12,0.519-0.285,0.726-0.495c0.206-0.21,0.37-0.454,0.49-0.73c0.119-0.277,0.18-0.575,0.18-0.895v-2.99H9.21v-1.23h3.58
			V88.173z"/>
		<path fill="#154A8B" stroke="#154A8B" stroke-miterlimit="10" d="M15.869,88.173v-14.34h8.07v1.23h-6.78v5.33h5.49v1.23h-5.49
			v5.32h6.78v1.23H15.869z"/>
		<path fill="#154A8B" stroke="#154A8B" stroke-miterlimit="10" d="M33.139,88.173l-3.89-6.12h-1.771v6.12h-1.29v-14.34h4.55
			c0.487,0,0.943,0.092,1.37,0.275c0.427,0.183,0.8,0.435,1.12,0.755c0.32,0.32,0.571,0.695,0.755,1.125
			c0.184,0.43,0.275,0.888,0.275,1.375v1.16c0,0.487-0.092,0.945-0.275,1.375c-0.184,0.43-0.435,0.805-0.755,1.125
			s-0.693,0.572-1.12,0.755c-0.427,0.184-0.883,0.275-1.37,0.275l3.891,6.12H33.139z M32.969,77.364c0-0.32-0.061-0.619-0.18-0.895
			c-0.12-0.277-0.284-0.52-0.49-0.73c-0.207-0.21-0.448-0.375-0.726-0.495c-0.276-0.12-0.574-0.18-0.895-0.18h-3.2v5.76h3.2
			c0.32,0,0.618-0.06,0.895-0.18c0.277-0.12,0.519-0.285,0.726-0.495c0.206-0.21,0.37-0.453,0.49-0.73
			c0.119-0.276,0.18-0.575,0.18-0.895V77.364z"/>
		<path fill="#154A8B" stroke="#154A8B" stroke-miterlimit="10" d="M37.088,88.173v-14.34h8.07v1.23h-6.78v5.33h5.49v1.23h-5.49
			v5.32h6.78v1.23H37.088z"/>
		<path fill="#154A8B" stroke="#154A8B" stroke-miterlimit="10" d="M55.008,88.173l-5.98-10.44l-0.12-0.62v11.06h-1.29v-14.34h0.67
			l5.98,10.45l0.13,0.61v-11.06h1.29v14.34H55.008z"/>
		<path fill="#154A8B" stroke="#154A8B" stroke-miterlimit="10" d="M66.552,86.223c-0.184,0.427-0.435,0.8-0.755,1.12
			c-0.32,0.32-0.693,0.572-1.12,0.755c-0.427,0.184-0.883,0.275-1.37,0.275h-1.02c-0.486,0-0.945-0.092-1.375-0.275
			c-0.43-0.183-0.805-0.435-1.125-0.755c-0.32-0.32-0.571-0.693-0.755-1.12c-0.184-0.426-0.275-0.883-0.275-1.37v-7.7
			c0-0.487,0.092-0.943,0.275-1.37s0.435-0.8,0.755-1.12c0.32-0.32,0.695-0.571,1.125-0.755c0.43-0.183,0.889-0.275,1.375-0.275
			h1.02c0.487,0,0.943,0.092,1.37,0.275c0.427,0.184,0.8,0.435,1.12,0.755c0.32,0.32,0.571,0.693,0.755,1.12s0.275,0.883,0.275,1.37
			v0.58l-1.29,0.2v-0.78c0-0.32-0.061-0.619-0.18-0.895c-0.12-0.277-0.284-0.519-0.49-0.725c-0.207-0.207-0.448-0.37-0.726-0.49
			c-0.276-0.12-0.574-0.18-0.895-0.18h-0.9c-0.319,0-0.618,0.06-0.895,0.18c-0.276,0.12-0.521,0.284-0.73,0.49
			s-0.375,0.448-0.494,0.725c-0.12,0.276-0.181,0.575-0.181,0.895v7.7c0,0.32,0.061,0.618,0.181,0.895
			c0.119,0.276,0.284,0.52,0.494,0.73s0.454,0.375,0.73,0.495c0.276,0.12,0.575,0.18,0.895,0.18h0.9c0.32,0,0.618-0.06,0.895-0.18
			c0.277-0.12,0.519-0.285,0.726-0.495c0.206-0.21,0.37-0.454,0.49-0.73c0.119-0.277,0.18-0.575,0.18-0.895v-0.78l1.29,0.21v0.57
			C66.827,85.34,66.735,85.797,66.552,86.223z"/>
		<path fill="#154A8B" stroke="#154A8B" stroke-miterlimit="10" d="M69.696,88.173v-14.34h1.29v14.34H69.696z"/>
		<path fill="#154A8B" stroke="#154A8B" stroke-miterlimit="10" d="M79.646,84.833h-4.54l-0.939,3.34h-1.34l4.199-14.34h0.681
			l4.22,14.34h-1.33L79.646,84.833z M75.457,83.604h3.85l-1.89-6.61l-0.04-0.53l-0.04,0.53L75.457,83.604z"/>
		<path fill="#154A8B" stroke="#154A8B" stroke-miterlimit="10" d="M96.271,86.023c-0.184,0.427-0.435,0.8-0.755,1.12
			c-0.32,0.32-0.695,0.571-1.125,0.755c-0.43,0.183-0.889,0.275-1.375,0.275h-4.54v-14.34h4.54c0.486,0,0.945,0.092,1.375,0.275
			c0.43,0.183,0.805,0.435,1.125,0.755c0.32,0.32,0.571,0.695,0.755,1.125c0.184,0.43,0.275,0.888,0.275,1.375v7.29
			C96.547,85.14,96.455,85.597,96.271,86.023z M95.257,77.364c0-0.32-0.061-0.619-0.18-0.895c-0.12-0.277-0.285-0.52-0.495-0.73
			s-0.454-0.375-0.73-0.495s-0.575-0.18-0.895-0.18h-3.19v11.88h3.19c0.319,0,0.618-0.06,0.895-0.18
			c0.276-0.12,0.521-0.283,0.73-0.49s0.375-0.448,0.495-0.725c0.119-0.276,0.18-0.575,0.18-0.895V77.364z"/>
		<path fill="#154A8B" stroke="#154A8B" stroke-miterlimit="10" d="M99.616,88.173v-14.34h8.07v1.23h-6.78v5.33h5.49v1.23h-5.49
			v5.32h6.78v1.23H99.616z"/>
		<path fill="#154A8B" stroke="#154A8B" stroke-miterlimit="10" d="M122.65,80.514c-0.184,0.427-0.435,0.8-0.755,1.12
			c-0.32,0.32-0.695,0.572-1.125,0.755c-0.43,0.183-0.889,0.275-1.375,0.275h-3.25v5.51h-1.29v-14.34h4.54
			c0.486,0,0.945,0.092,1.375,0.275c0.43,0.183,0.805,0.435,1.125,0.755c0.32,0.32,0.571,0.695,0.755,1.125
			c0.184,0.43,0.275,0.888,0.275,1.375v1.78C122.926,79.63,122.834,80.087,122.65,80.514z M121.636,77.364
			c0-0.32-0.061-0.619-0.18-0.895c-0.12-0.277-0.285-0.52-0.495-0.73s-0.454-0.375-0.73-0.495s-0.575-0.18-0.895-0.18h-3.19v6.37
			h3.19c0.319,0,0.618-0.06,0.895-0.18s0.521-0.283,0.73-0.49s0.375-0.448,0.495-0.725c0.119-0.276,0.18-0.575,0.18-0.895V77.364z"
			/>
		<path fill="#154A8B" stroke="#154A8B" stroke-miterlimit="10" d="M132.125,88.173l-3.89-6.12h-1.771v6.12h-1.29v-14.34h4.55
			c0.487,0,0.943,0.092,1.37,0.275c0.427,0.183,0.8,0.435,1.12,0.755c0.32,0.32,0.571,0.695,0.755,1.125
			c0.184,0.43,0.275,0.888,0.275,1.375v1.16c0,0.487-0.092,0.945-0.275,1.375c-0.184,0.43-0.435,0.805-0.755,1.125
			s-0.693,0.572-1.12,0.755c-0.427,0.184-0.883,0.275-1.37,0.275l3.891,6.12H132.125z M131.955,77.364
			c0-0.32-0.061-0.619-0.18-0.895c-0.12-0.277-0.284-0.52-0.49-0.73c-0.207-0.21-0.448-0.375-0.726-0.495
			c-0.276-0.12-0.574-0.18-0.895-0.18h-3.2v5.76h3.2c0.32,0,0.618-0.06,0.895-0.18c0.277-0.12,0.519-0.285,0.726-0.495
			c0.206-0.21,0.37-0.453,0.49-0.73c0.119-0.276,0.18-0.575,0.18-0.895V77.364z"/>
		<path fill="#154A8B" stroke="#154A8B" stroke-miterlimit="10" d="M143.659,86.223c-0.184,0.427-0.435,0.8-0.755,1.12
			c-0.32,0.32-0.693,0.572-1.12,0.755c-0.427,0.184-0.883,0.275-1.37,0.275h-1.02c-0.486,0-0.945-0.092-1.375-0.275
			c-0.43-0.183-0.805-0.435-1.125-0.755c-0.32-0.32-0.571-0.693-0.755-1.12c-0.184-0.426-0.275-0.883-0.275-1.37v-7.7
			c0-0.487,0.092-0.943,0.275-1.37s0.435-0.8,0.755-1.12c0.32-0.32,0.695-0.571,1.125-0.755c0.43-0.183,0.889-0.275,1.375-0.275
			h1.02c0.487,0,0.943,0.092,1.37,0.275c0.427,0.184,0.8,0.435,1.12,0.755c0.32,0.32,0.571,0.693,0.755,1.12s0.275,0.883,0.275,1.37
			v7.7C143.935,85.34,143.843,85.797,143.659,86.223z M142.645,77.154c0-0.32-0.061-0.619-0.18-0.895
			c-0.12-0.277-0.284-0.519-0.49-0.725c-0.207-0.207-0.448-0.37-0.726-0.49c-0.276-0.12-0.574-0.18-0.895-0.18h-0.9
			c-0.319,0-0.618,0.06-0.895,0.18c-0.276,0.12-0.521,0.284-0.73,0.49s-0.375,0.448-0.494,0.725
			c-0.12,0.276-0.181,0.575-0.181,0.895v7.7c0,0.32,0.061,0.618,0.181,0.895c0.119,0.276,0.284,0.52,0.494,0.73
			s0.454,0.375,0.73,0.495c0.276,0.12,0.575,0.18,0.895,0.18h0.9c0.32,0,0.618-0.06,0.895-0.18c0.277-0.12,0.519-0.285,0.726-0.495
			c0.206-0.21,0.37-0.454,0.49-0.73c0.119-0.277,0.18-0.575,0.18-0.895V77.154z"/>
		<path fill="#154A8B" stroke="#154A8B" stroke-miterlimit="10" d="M150.374,81.313v6.86h-1.29v-6.84l-3.71-7.5h1.39l2.95,5.96
			l2.95-5.96h1.39L150.374,81.313z"/>
		<path fill="#154A8B" stroke="#154A8B" stroke-miterlimit="10" d="M156.104,88.173v-14.34h8.07v1.23h-6.78v5.33h5.49v1.23h-5.49
			v5.32h6.78v1.23H156.104z"/>
		<path fill="#154A8B" stroke="#154A8B" stroke-miterlimit="10" d="M174.218,86.223c-0.184,0.427-0.435,0.8-0.755,1.12
			c-0.32,0.32-0.693,0.572-1.12,0.755c-0.427,0.184-0.883,0.275-1.37,0.275h-1.02c-0.486,0-0.945-0.092-1.375-0.275
			c-0.43-0.183-0.805-0.435-1.125-0.755c-0.32-0.32-0.571-0.693-0.755-1.12c-0.184-0.426-0.275-0.883-0.275-1.37v-7.7
			c0-0.487,0.092-0.943,0.275-1.37s0.435-0.8,0.755-1.12c0.32-0.32,0.695-0.571,1.125-0.755c0.43-0.183,0.889-0.275,1.375-0.275
			h1.02c0.487,0,0.943,0.092,1.37,0.275c0.427,0.184,0.8,0.435,1.12,0.755c0.32,0.32,0.571,0.693,0.755,1.12s0.275,0.883,0.275,1.37
			v0.58l-1.29,0.2v-0.78c0-0.32-0.061-0.619-0.18-0.895c-0.12-0.277-0.284-0.519-0.49-0.725c-0.207-0.207-0.448-0.37-0.726-0.49
			c-0.276-0.12-0.574-0.18-0.895-0.18h-0.9c-0.319,0-0.618,0.06-0.895,0.18c-0.276,0.12-0.521,0.284-0.73,0.49
			s-0.375,0.448-0.494,0.725c-0.12,0.276-0.181,0.575-0.181,0.895v7.7c0,0.32,0.061,0.618,0.181,0.895
			c0.119,0.276,0.284,0.52,0.494,0.73s0.454,0.375,0.73,0.495c0.276,0.12,0.575,0.18,0.895,0.18h0.9c0.32,0,0.618-0.06,0.895-0.18
			c0.277-0.12,0.519-0.285,0.726-0.495c0.206-0.21,0.37-0.454,0.49-0.73c0.119-0.277,0.18-0.575,0.18-0.895v-0.78l1.29,0.21v0.57
			C174.493,85.34,174.401,85.797,174.218,86.223z"/>
		<path fill="#154A8B" stroke="#154A8B" stroke-miterlimit="10" d="M180.843,75.063v13.11h-1.29v-13.11h-3.42v-1.23h8.13v1.23
			H180.843z"/>
		<path fill="#154A8B" stroke="#154A8B" stroke-miterlimit="10" d="M193.897,86.223c-0.184,0.427-0.435,0.8-0.755,1.12
			c-0.32,0.32-0.693,0.572-1.12,0.755c-0.427,0.184-0.883,0.275-1.37,0.275h-1.02c-0.486,0-0.945-0.092-1.375-0.275
			c-0.43-0.183-0.805-0.435-1.125-0.755c-0.32-0.32-0.571-0.693-0.755-1.12c-0.184-0.426-0.275-0.883-0.275-1.37v-7.7
			c0-0.487,0.092-0.943,0.275-1.37s0.435-0.8,0.755-1.12c0.32-0.32,0.695-0.571,1.125-0.755c0.43-0.183,0.889-0.275,1.375-0.275
			h1.02c0.487,0,0.943,0.092,1.37,0.275c0.427,0.184,0.8,0.435,1.12,0.755c0.32,0.32,0.571,0.693,0.755,1.12s0.275,0.883,0.275,1.37
			v7.7C194.173,85.34,194.081,85.797,193.897,86.223z M192.883,77.154c0-0.32-0.061-0.619-0.18-0.895
			c-0.12-0.277-0.284-0.519-0.49-0.725c-0.207-0.207-0.448-0.37-0.726-0.49c-0.276-0.12-0.574-0.18-0.895-0.18h-0.9
			c-0.319,0-0.618,0.06-0.895,0.18c-0.276,0.12-0.521,0.284-0.73,0.49s-0.375,0.448-0.494,0.725
			c-0.12,0.276-0.181,0.575-0.181,0.895v7.7c0,0.32,0.061,0.618,0.181,0.895c0.119,0.276,0.284,0.52,0.494,0.73
			s0.454,0.375,0.73,0.495c0.276,0.12,0.575,0.18,0.895,0.18h0.9c0.32,0,0.618-0.06,0.895-0.18c0.277-0.12,0.519-0.285,0.726-0.495
			c0.206-0.21,0.37-0.454,0.49-0.73c0.119-0.277,0.18-0.575,0.18-0.895V77.154z"/>
		<path fill="#154A8B" stroke="#154A8B" stroke-miterlimit="10" d="M205.112,84.854c0,0.487-0.099,0.943-0.295,1.37
			c-0.197,0.427-0.46,0.8-0.79,1.12c-0.33,0.32-0.714,0.572-1.15,0.755c-0.437,0.184-0.898,0.275-1.385,0.275h-1.03
			c-0.486,0-0.948-0.092-1.385-0.275c-0.437-0.183-0.82-0.435-1.149-0.755c-0.33-0.32-0.594-0.693-0.79-1.12
			c-0.197-0.426-0.296-0.883-0.296-1.37v-0.57l1.29-0.21v0.78c0,0.32,0.065,0.618,0.195,0.895c0.13,0.276,0.305,0.52,0.525,0.73
			c0.22,0.21,0.475,0.375,0.765,0.495c0.29,0.12,0.595,0.18,0.915,0.18h0.9c0.319,0,0.623-0.06,0.909-0.18
			c0.287-0.12,0.54-0.285,0.761-0.495c0.22-0.21,0.395-0.454,0.524-0.73c0.13-0.277,0.195-0.575,0.195-0.895v-0.43
			c0-0.493-0.097-0.903-0.29-1.23s-0.45-0.605-0.771-0.835c-0.319-0.23-0.682-0.425-1.085-0.585s-0.818-0.32-1.244-0.48
			c-0.427-0.16-0.842-0.336-1.245-0.53s-0.766-0.435-1.085-0.725c-0.32-0.29-0.577-0.645-0.771-1.065s-0.29-0.937-0.29-1.55v-0.27
			c0-0.487,0.092-0.943,0.275-1.37s0.435-0.8,0.755-1.12c0.32-0.32,0.695-0.571,1.125-0.755c0.43-0.183,0.889-0.275,1.375-0.275
			h0.92c0.486,0,0.943,0.092,1.37,0.275c0.427,0.184,0.8,0.435,1.12,0.755c0.319,0.32,0.571,0.693,0.755,1.12
			c0.183,0.427,0.274,0.883,0.274,1.37v0.37l-1.29,0.21v-0.58c0-0.32-0.06-0.619-0.18-0.895c-0.12-0.277-0.283-0.519-0.49-0.725
			c-0.206-0.207-0.448-0.37-0.725-0.49c-0.276-0.12-0.575-0.18-0.895-0.18h-0.801c-0.319,0-0.618,0.06-0.895,0.18
			c-0.276,0.12-0.521,0.284-0.73,0.49s-0.375,0.448-0.494,0.725c-0.12,0.276-0.181,0.575-0.181,0.895v0.27
			c0,0.46,0.097,0.847,0.29,1.16c0.193,0.313,0.45,0.582,0.771,0.805c0.319,0.223,0.682,0.417,1.085,0.58
			c0.403,0.163,0.818,0.33,1.244,0.5c0.427,0.17,0.842,0.356,1.245,0.56c0.403,0.204,0.766,0.454,1.085,0.75
			c0.32,0.297,0.577,0.659,0.771,1.085c0.193,0.427,0.29,0.947,0.29,1.56V84.854z"/>
	</g>
	<g>
		<path fill="#FFFFFF" d="M79.447,106.723c0,0.375-0.076,0.727-0.228,1.056s-0.354,0.616-0.609,0.863
			c-0.254,0.247-0.549,0.44-0.886,0.582c-0.336,0.141-0.692,0.212-1.067,0.212h-0.793c-0.375,0-0.731-0.071-1.067-0.212
			c-0.337-0.142-0.632-0.335-0.886-0.582c-0.255-0.247-0.458-0.534-0.609-0.863s-0.228-0.681-0.228-1.056v-0.439l0.994-0.162v0.601
			c0,0.247,0.051,0.477,0.15,0.689c0.101,0.213,0.235,0.401,0.404,0.563c0.17,0.162,0.366,0.289,0.59,0.381
			c0.224,0.093,0.458,0.139,0.705,0.139h0.693c0.246,0,0.48-0.046,0.701-0.139c0.221-0.092,0.416-0.219,0.586-0.381
			c0.169-0.162,0.304-0.349,0.404-0.563c0.1-0.213,0.15-0.443,0.15-0.689v-0.332c0-0.38-0.075-0.696-0.224-0.948
			c-0.149-0.251-0.347-0.466-0.594-0.643c-0.246-0.177-0.524-0.328-0.836-0.451c-0.311-0.124-0.63-0.247-0.959-0.37
			c-0.329-0.123-0.648-0.259-0.959-0.408c-0.312-0.149-0.59-0.335-0.836-0.559c-0.247-0.224-0.444-0.497-0.594-0.821
			c-0.149-0.323-0.224-0.722-0.224-1.194v-0.208c0-0.375,0.071-0.727,0.212-1.056c0.142-0.329,0.335-0.616,0.582-0.863
			c0.246-0.247,0.535-0.44,0.867-0.582c0.331-0.142,0.684-0.212,1.059-0.212h0.709c0.375,0,0.728,0.07,1.056,0.212
			c0.329,0.141,0.617,0.335,0.863,0.582s0.44,0.534,0.582,0.863c0.141,0.329,0.212,0.681,0.212,1.056v0.285l-0.994,0.162v-0.447
			c0-0.247-0.046-0.476-0.139-0.689c-0.093-0.213-0.219-0.399-0.378-0.559s-0.346-0.285-0.559-0.377
			c-0.213-0.093-0.443-0.139-0.689-0.139h-0.616c-0.247,0-0.477,0.046-0.689,0.139c-0.214,0.092-0.401,0.218-0.563,0.377
			c-0.162,0.159-0.289,0.346-0.382,0.559c-0.093,0.213-0.139,0.443-0.139,0.689v0.208c0,0.354,0.074,0.652,0.224,0.894
			c0.148,0.241,0.347,0.448,0.593,0.62c0.247,0.172,0.525,0.321,0.837,0.447c0.311,0.126,0.63,0.254,0.959,0.385
			c0.328,0.131,0.648,0.275,0.959,0.432s0.59,0.35,0.836,0.578c0.247,0.229,0.444,0.507,0.594,0.836
			c0.148,0.329,0.224,0.729,0.224,1.202V106.723z"/>
		<path fill="#FFFFFF" d="M87.426,107.778c-0.142,0.329-0.336,0.616-0.582,0.863c-0.247,0.247-0.534,0.44-0.863,0.582
			c-0.328,0.141-0.681,0.212-1.056,0.212h-0.786c-0.375,0-0.728-0.071-1.059-0.212c-0.332-0.142-0.621-0.335-0.867-0.582
			c-0.247-0.247-0.44-0.534-0.582-0.863c-0.141-0.329-0.212-0.681-0.212-1.056v-5.933c0-0.375,0.071-0.727,0.212-1.056
			c0.142-0.329,0.335-0.616,0.582-0.863c0.246-0.247,0.535-0.44,0.867-0.582c0.331-0.142,0.684-0.212,1.059-0.212h0.786
			c0.375,0,0.728,0.07,1.056,0.212c0.329,0.141,0.616,0.335,0.863,0.582c0.246,0.247,0.44,0.534,0.582,0.863
			c0.141,0.329,0.212,0.681,0.212,1.056v5.933C87.638,107.098,87.566,107.45,87.426,107.778z M86.644,100.79
			c0-0.247-0.047-0.476-0.139-0.689c-0.093-0.213-0.219-0.399-0.378-0.559s-0.346-0.285-0.559-0.377
			c-0.213-0.093-0.443-0.139-0.689-0.139h-0.693c-0.247,0-0.477,0.046-0.689,0.139c-0.214,0.092-0.401,0.218-0.563,0.377
			c-0.162,0.159-0.289,0.346-0.382,0.559c-0.093,0.213-0.139,0.443-0.139,0.689v5.933c0,0.247,0.046,0.477,0.139,0.689
			c0.093,0.213,0.22,0.401,0.382,0.563c0.161,0.162,0.349,0.289,0.563,0.381c0.213,0.093,0.442,0.139,0.689,0.139h0.693
			c0.246,0,0.477-0.046,0.689-0.139c0.213-0.092,0.399-0.219,0.559-0.381c0.159-0.162,0.285-0.349,0.378-0.563
			c0.092-0.213,0.139-0.443,0.139-0.689V100.79z"/>
		<path fill="#FFFFFF" d="M91.005,99.179v4.107h4.229v0.948h-4.229v5.047h-0.994V98.231h6.218v0.948H91.005z"/>
		<path fill="#FFFFFF" d="M100.49,99.179v10.102h-0.994V99.179H96.86v-0.948h6.265v0.948H100.49z"/>
		<path fill="#FFFFFF" d="M112.087,109.281h-0.517l-2.149-8.314l-0.031-0.431l-0.046,0.431l-2.135,8.314h-0.516l-2.937-11.049h0.994
			l2.165,8.399l0.031,0.408l0.031-0.408l2.126-8.399h0.555l2.127,8.399l0.031,0.408l0.038-0.408l2.157-8.399h0.994L112.087,109.281z
			"/>
		<path fill="#FFFFFF" d="M120.416,106.707h-3.498l-0.725,2.574h-1.032l3.236-11.049h0.523l3.252,11.049h-1.025L120.416,106.707z
			 M117.188,105.759h2.967l-1.457-5.093l-0.03-0.409l-0.031,0.409L117.188,105.759z"/>
		<path fill="#FFFFFF" d="M128.784,109.281l-2.997-4.715h-1.364v4.715h-0.994V98.231h3.506c0.375,0,0.728,0.071,1.056,0.212
			c0.329,0.142,0.616,0.335,0.863,0.582c0.246,0.247,0.44,0.535,0.582,0.867c0.141,0.331,0.212,0.685,0.212,1.06v0.894
			c0,0.375-0.071,0.728-0.212,1.06c-0.142,0.331-0.336,0.62-0.582,0.867c-0.247,0.247-0.534,0.44-0.863,0.582
			c-0.328,0.141-0.681,0.212-1.056,0.212l2.997,4.715H128.784z M128.653,100.952c0-0.247-0.047-0.477-0.139-0.69
			c-0.093-0.213-0.219-0.4-0.378-0.563c-0.159-0.162-0.346-0.289-0.559-0.381c-0.213-0.092-0.443-0.139-0.689-0.139h-2.466v4.438
			h2.466c0.246,0,0.477-0.046,0.689-0.139c0.213-0.093,0.399-0.22,0.559-0.382c0.159-0.162,0.285-0.349,0.378-0.563
			c0.092-0.213,0.139-0.443,0.139-0.689V100.952z"/>
		<path fill="#FFFFFF" d="M131.827,109.281V98.231h6.218v0.948h-5.224v4.107h4.229v0.948h-4.229v4.099h5.224v0.948H131.827z"/>
	</g>
</g>
</svg>