<?xml version="1.0" encoding="utf-8"?>
<!-- Generator: Adobe Illustrator 17.0.0, SVG Export Plug-In . SVG Version: 6.00 Build 0)  -->
<!DOCTYPE svg PUBLIC "-//W3C//DTD SVG 1.1//EN" "http://www.w3.org/Graphics/SVG/1.1/DTD/svg11.dtd" [
	<!ENTITY ns_extend "http://ns.adobe.com/Extensibility/1.0/">
	<!ENTITY ns_ai "http://ns.adobe.com/AdobeIllustrator/10.0/">
	<!ENTITY ns_graphs "http://ns.adobe.com/Graphs/1.0/">
	<!ENTITY ns_vars "http://ns.adobe.com/Variables/1.0/">
	<!ENTITY ns_imrep "http://ns.adobe.com/ImageReplacement/1.0/">
	<!ENTITY ns_sfw "http://ns.adobe.com/SaveForWeb/1.0/">
	<!ENTITY ns_custom "http://ns.adobe.com/GenericCustomNamespace/1.0/">
	<!ENTITY ns_adobe_xpath "http://ns.adobe.com/XPath/1.0/">
]>
<svg version="1.1" id="Capa_1" xmlns:x="&ns_extend;" xmlns:i="&ns_ai;" xmlns:graph="&ns_graphs;"
	 xmlns="http://www.w3.org/2000/svg" xmlns:xlink="http://www.w3.org/1999/xlink" x="0px" y="0px" width="441.411px"
	 height="600.501px" viewBox="0 0 441.411 600.501" enable-background="new 0 0 441.411 600.501" xml:space="preserve">
<metadata><?xpacket begin="﻿" id="W5M0MpCehiHzreSzNTczkc9d"?>
<x:xmpmeta xmlns:x="adobe:ns:meta/" x:xmptk="Adobe XMP Core 5.5-c014 79.151739, 2013/04/03-12:12:15        ">
   <rdf:RDF xmlns:rdf="http://www.w3.org/1999/02/22-rdf-syntax-ns#">
      <rdf:Description rdf:about=""
            xmlns:dc="http://purl.org/dc/elements/1.1/"
            xmlns:xmp="http://ns.adobe.com/xap/1.0/"
            xmlns:xmpGImg="http://ns.adobe.com/xap/1.0/g/img/"
            xmlns:xmpMM="http://ns.adobe.com/xap/1.0/mm/"
            xmlns:stRef="http://ns.adobe.com/xap/1.0/sType/ResourceRef#"
            xmlns:stEvt="http://ns.adobe.com/xap/1.0/sType/ResourceEvent#"
            xmlns:illustrator="http://ns.adobe.com/illustrator/1.0/"
            xmlns:xmpTPg="http://ns.adobe.com/xap/1.0/t/pg/"
            xmlns:stDim="http://ns.adobe.com/xap/1.0/sType/Dimensions#"
            xmlns:xmpG="http://ns.adobe.com/xap/1.0/g/"
            xmlns:pdf="http://ns.adobe.com/pdf/1.3/">
         <dc:format>image/svg+xml</dc:format>
         <dc:title>
            <rdf:Alt>
               <rdf:li xml:lang="x-default">Imprimir</rdf:li>
            </rdf:Alt>
         </dc:title>
         <xmp:MetadataDate>2017-06-09T16:43:28-05:00</xmp:MetadataDate>
         <xmp:ModifyDate>2017-06-09T16:43:28-05:00</xmp:ModifyDate>
         <xmp:CreateDate>2017-06-09T16:43:28-05:00</xmp:CreateDate>
         <xmp:CreatorTool>Adobe Illustrator CC (Windows)</xmp:CreatorTool>
         <xmp:Thumbnails>
            <rdf:Alt>
               <rdf:li rdf:parseType="Resource">
                  <xmpGImg:width>188</xmpGImg:width>
                  <xmpGImg:height>256</xmpGImg:height>
                  <xmpGImg:format>JPEG</xmpGImg:format>
                  <xmpGImg:image>/9j/4AAQSkZJRgABAgEASABIAAD/7QAsUGhvdG9zaG9wIDMuMAA4QklNA+0AAAAAABAASAAAAAEA&#xA;AQBIAAAAAQAB/+4ADkFkb2JlAGTAAAAAAf/bAIQABgQEBAUEBgUFBgkGBQYJCwgGBggLDAoKCwoK&#xA;DBAMDAwMDAwQDA4PEA8ODBMTFBQTExwbGxscHx8fHx8fHx8fHwEHBwcNDA0YEBAYGhURFRofHx8f&#xA;Hx8fHx8fHx8fHx8fHx8fHx8fHx8fHx8fHx8fHx8fHx8fHx8fHx8fHx8fHx8f/8AAEQgBAAC8AwER&#xA;AAIRAQMRAf/EAaIAAAAHAQEBAQEAAAAAAAAAAAQFAwIGAQAHCAkKCwEAAgIDAQEBAQEAAAAAAAAA&#xA;AQACAwQFBgcICQoLEAACAQMDAgQCBgcDBAIGAnMBAgMRBAAFIRIxQVEGE2EicYEUMpGhBxWxQiPB&#xA;UtHhMxZi8CRygvElQzRTkqKyY3PCNUQnk6OzNhdUZHTD0uIIJoMJChgZhJRFRqS0VtNVKBry4/PE&#xA;1OT0ZXWFlaW1xdXl9WZ2hpamtsbW5vY3R1dnd4eXp7fH1+f3OEhYaHiImKi4yNjo+Ck5SVlpeYmZ&#xA;qbnJ2en5KjpKWmp6ipqqusra6voRAAICAQIDBQUEBQYECAMDbQEAAhEDBCESMUEFURNhIgZxgZEy&#xA;obHwFMHR4SNCFVJicvEzJDRDghaSUyWiY7LCB3PSNeJEgxdUkwgJChgZJjZFGidkdFU38qOzwygp&#xA;0+PzhJSktMTU5PRldYWVpbXF1eX1RlZmdoaWprbG1ub2R1dnd4eXp7fH1+f3OEhYaHiImKi4yNjo&#xA;+DlJWWl5iZmpucnZ6fkqOkpaanqKmqq6ytrq+v/aAAwDAQACEQMRAD8A9U4q7FXYq7FXYq7FXYq7&#xA;FXYq7FXYq7FXYq7FUm1fzp5Q0ZzHq2t2NjKOsU9xFHJ/wDNy/DAZAM445HkEnh/OL8rpZDGvmawD&#xA;Du8oRetPtNRfxwcY72XgT7mS6ZrOj6rD6+mX1vfw/wC/baVJl3/ykLDCC1mJHNGYUOxV2KuxV2Ku&#xA;xV2KuxV2KuxV2KuxV2KuxV2KuxV2KuxV2KpH5085aH5P0CfWtYl9O3i+GONd5JZSDxijXuzU+jqd&#xA;hglKgzx4zI0HyR+YH5+eefNk8sMFy+j6OSRHY2jlGZT/AL+lFHc+I2X2zGlkJdni00Y+Zeakkkkm&#xA;pO5JytyHYqidO1PUtMu0vNOuprK7j+xcW8jRSL8mQg4goIB5vZvIv/OUvmfSmitfNUA1rTxRTdxh&#xA;YrxFG1duMctB48Se7ZdHKeriZNIDvHZ9LeVfN3l7zXpMeq6FeJeWj/CxXZ43pUpIh+JGFeh/Vl4I&#xA;PJ184GJopxhYuxV2KuxV2KuxV2KuxV2KuxV2KuxV2KuxV2KuxVKvM3mnQfLGkS6trl4lnYxbF3Px&#xA;Mx3CRqPidjTZVFcBIDKMDI0Hx9+dP5vf8rD1S1+pW8tno2nB1toZWBeR3PxTOq/Cp4gALU08d8xs&#xA;k+J2mnw8A83nGVuQ7FXYq7FXYqnnkbz75h8j69HqujTFQSBdWjE+jcRg7xyKOvseo7ZKMiGrJjEh&#xA;Rfbn5fef9D88+XotZ0piu/p3do5HqQTAVaN6dfFW7jMqMrDqsmMwNFkuSa3Yq7FXYq7FXYq7FXYq&#xA;7FXYq7FXYq7FXYqoX99aafY3F9eSCG0tY3muJW6JHGpZmPyAxSBb4T/NT8ztY8/eYpL65ZotMgZk&#xA;0uwr8MMRPUgbGR6Vdvo6AZiTlZdtixCAYhCdiMg3BECCcxGURsYhsZAp4j6emKVmKr4Lee4mSCCN&#xA;pZpDxSNAWZj4ADFU21jyd5i0eyjvNRtPRglYIG5oxDEEgMFJIqBigSBSbFKyUVSvhipZb+U/5laj&#xA;5C80xalCWk024KxatZg7SwV6gHb1I68kP0dCcnCVFozYhMU+6tN1Gy1PT7bUbCZZ7K7jWa3mT7Lx&#xA;uOSkfQcywXUkUaKJxQ7FXYq7FXYq7FXYq7FXYq7FXYq7FXYq88/5yDu57X8nvMcsLcXaO3iJ/wAi&#xA;a6iicfSjkZDJ9Ldpx6w+G8xHbMy/Lf8AL6881akHdSmlwMPrEg2Lkb+mp/4kew96YCUEvpKDyvpE&#xA;OnrYpEFgWP0gg2ULSlOPSmQ4mFPLdU/ISGS/d7O6kgtmYkQhFkAB7KxZSB/rA5LiZcZZp5N/LDRP&#xA;Ly+osZkuWFHmkIaQjwqKBR7L9OAyQSSxn8/pLa08v2FtCgR7u4JanQpEtT/wzLjEsojd4Tk2anLy&#xA;47dO+KCo4ofSv/OKX5jswn8i6jLXiHutFLdafangH/Jxf9l7Zfil0cHV4v4g+ksvcF2KuxV2KuxV&#xA;2KuxV2KuxV2KuxV2KuxV55/zkFZzXf5PeY4oRydY4JiP8iG6ilc/QqHIZPpbtOamHxj5Z8sav5j1&#xA;NNP0yH1JDQySHZI0rTm7dhmJbtiX1X5R8r2PlrQ7bS7X4vRX97MRQu53Zj8zlRNsE6wK7FXYq8v/&#xA;AD28u32q6Pp9zYxNPNYySFoUFXMcgXkVA3JBUbDJxTE08AkikikaOVCkiGjIwIII7EHJtiw74qhy&#xA;KEjwxYo/y9rt/oOuWOtae/C80+ZJ4T2JQ14t/ksNiPDCDSJRBFF+g/l7W7LXdDsNZsW5WmoQR3EX&#xA;iBIoPE+69D75mA26aUaNJhhYuxV2KuxV2KuxV2KuxV2KuxV2KuxVDapptpqem3em3iepaXsMlvcJ&#xA;/NHKpRh9xxISDRt8d+U/L+qfl9+cT+XtTQj1klghuKcUmhYerFMniG9ID2NR1GYU41s7eMxKNh69&#xA;cfmN5Ft7lraXXLRZlPFgJAwB8Cwqv45TRTSeWV9ZX1utzZXEd1bv9iaF1kQ/JlJGBVfFUg17z55Q&#xA;0CX0dW1SG3nABMA5SSgHoTHGHcV+WEBaS/SfzA8ieargWFlqIa8rWKGRXhdtv2PUUBvkN8NEKQwD&#xA;88PJawW0OvW61MZEN04FCyNshb3U7fT7ZIG0wPR45kmxDyfbOKCtxQ+tf+cTfNTaj5KvdAmflLol&#xA;xygBPS3uquo+iVZPvzJwnanXauFSvve5Za4jsVdirsVdirsVdirsVdirsVdirsVdirxj8z7iHzH5&#xA;zj8rXWn27x2Rjkhv2XlOnOMSSjlt8DqeBXv37ZDKBw7tuCUhKgrN5Nsjam0EFg1qRQ28lkhj8Psq&#xA;yjp7Zh0HP4pd6XaNoVt5VnfStKsoVW/d7whJJY41ZQqMCr+uVqKceO3XpTdkBVqJyJpNrbUL24nk&#xA;tY7QC6twDcK8nFAHrwKMFYuG4n9kdN98HB1tfEN1W6FPlKza/k1JtC01r+U8pLlyGlJ6V5GA/rw8&#xA;I708Z7lXVtKa7sjHqOlwXFrDSRVSU+ohTcNEeEZRlp8JVgcRAd6PEI6MN83+d/Kut+WNR0tHlM1x&#xA;A6wcoyAJQKx1P+sBlg002oayDy7yx+UPmTX7KW8ikit4EqIWck+qw7LT9eQn6TTlxyiQsMBurea2&#xA;uZbeYcZoXaORfBlND+OLJSxV7X/zidqktt+Y91Y1Po3+nyqy9ucTpIrfQAw+nLcJ3cXVj0vrzMl1&#xA;rsVdirsVdirsVdirsVdirsVdirsVdirz7zlZLB5jFzp6RR3lxEst48sQfnT93HR1KyLRY6EVK+1a&#xA;5j551s5Wmxk2Uu/SGrqKGzhc+KzsPwMX8co4g5PDJAxi6n1/61PGsTLa+n6Stz4gyVVi1F3f4unh&#xA;kZSFbMoRI3KKaWW0v2uVgeeKaJY5BFxLK0bMymjFdqSN0OGJFUiYN2iF1y0p8cVzGfA28rfiiuPx&#xA;yTG/JRvtYhlsp4rWOd7iRGSJTbzIOTAgVaRVUCvWpxCDZGzANe/LmwsfLUlpZK9xfX89raS3jirR&#xA;xTXCJIyqNlHAmuGeeUmWHTxgzdYV0u2tbe0jjSxiMcCwgEMAzBAVI22qCdt98pbnyx+ZHp/481z0&#xA;6cPrclKdOvtlg5MwxvCr17/nFlHb81oioqEsrlnPgKKtfvIy3FzcbV/Q+ycyXWOxV2KuxV2KuxV2&#xA;KuxV2KuxV2KuxV2KsD8ziVfMU/qV4tGhir/KBTb/AGVcwtR9TsNN9KU3k7W9rLMsZlaNSRGK7n6A&#xA;x+4H5ZQ5KFsrmxRJJ3vIZZZCDNKrqFFBRVG5oo7Cvv3wqjYZ4ZoxJC6yRmtHQgg022IwKvxV2Koe&#xA;9uDBDyRecrFViQ7AszBVqd6LU7nwxVhnnrz7pPlFF+vTPfa20TSWdsq8YlY1XnxH2R1+0Wam1d8k&#xA;BaQHzJd3Mt1dTXMxrLO7SSH/ACnNT1+eWMlLFX0f/wA4heVZ/rWteapUKwCMabaMf2mZlmmp/q8I&#xA;/vy/COrg6yfIPpjL3BdirsVdirsVdirsVdirsVdirsVdirsVYb5+jht7jT79nVHmc2lCTVzxeZQo&#xA;9lSQnMfUR6uZpZcwklR9/TMNzUqn8y+VYrn0p9VsUukPExyXEIkU+FC1Ri2DFM70UzhnhnjWWGRZ&#xA;Ym3WRCGU/IjbFrIpfirsVYR53/MnTPKmrWEd2Hkhn5pMkYBZVABL/QaD78kI7KHgP5iebY/NXmeb&#xA;VYYmhg4JDCjGrcUHU/MnJgUzDGkR3dURSzsQFUCpJOwAAwq9R/Lz/nHnz15quopb+1k0PRiQ0t5d&#xA;oUlZa9IYWo7EjoSAvvlkcZLj5NTGPLcvsHyz5a0jy1oVpomkQ+hYWacIl6sSTVnc92ZiWY+OZIFO&#xA;tlIyNlNMLF2KuxV2KuxV2KuxV2KuxV2KuxV2KuxV4f8A85Ua7e6Roflm4tG4yw6p9ZXcgFoYWHEg&#xA;dQwkIPtlObk5mjG5RGk3ej+avLUE8kKXVhexq5hlAcfJhv8AEjCnsRmEQ50ZGJsMA138kkN08uki&#xA;N7d2JWF3ZHSv7IO6kD6MDsseuFermyLyH+Wlt5ed7u6Ky3bU9ONWdo0oa8vi2LeBpti0anVcew5M&#xA;5xcNKfMvmKw0LS5r68lEaRLyJO/sNu5J2A7nCBaHyl5s8yXXmLXJ9SnqFc8YIzvwiBPFfnvU++Ws&#xA;wKfSH5Sf848/lvfeV9M8w6pK+vzahAk5QSNFaxs27RhYirlo2qjc26j7IzIhjFW4GbUyBIGz2jQ/&#xA;J/lTQQBouj2enmlC9vBHG57fE6jk30nLREBxZTJ5lN8LF2KuxV2KuxV2KuxV2KuxV2KuxV2KuxV2&#xA;KuxV5z+fH5c3XnjyS1rpwB1jTpRd2CGg9UhSrw8jsOatt/lAdshkjYb9Pk4Jb8nzz+S/nObQtYl8&#xA;raxyt0mlKwJMCrRXIPF4WDfZ5EdP5vnmFIOzO+738EEAjcHplaG8VSvWdetNNt5JHYF41Z2HZQoq&#xA;SflkgEPmHz35+1LzVflpC0VhGxMFtX6Ob02LU+gdssAZgUxbFL2v/nF7z9qeledIvKskjSaRrXqc&#xA;YTuIrmOMyLIvhyVOLU67eGW4pb04uqxgxvqH15mS612KuxV2KuxV2KuxV2KuxV2KuxV2KuxV2Kux&#xA;V2KuxV8h/wDOV9hpVp+YtpPZIsV7eWEc9/wFOUgkkjSQ0/aKIB8gMxsw3dlpCeFkv5UefL7VfK6n&#xA;UK3F1aSG3eUEBmCqGVm+Yale5zHMW87Mpm1fUrx/Rto/SB2r9pj8qf2Y0xtiP5uW8mk/l/dyq3K5&#xA;u5IreVzvRHJLD6aYg2WUQ+dMmzR+gJob6zaJrrzxaQ8gW8lteJmRDtzQMGB4ncim4whErrbm+xvy&#xA;2/Ib8vPK9/aeZdJuLnVboxepY3dxLG8QWZCPUiWJIweSNsTX2zJjjA3dZl1EpCjs9Syxx3Yq7FXY&#xA;q7FXYq7FXYq7FXYq7FXYq7FXYq7FXYq7FXw3+es9/qX5u+YuYaV4Z0hjUDZYoo0RfkPE+OY5hKcq&#xA;AsuzxzjDGCTQZ3+QGmOmh6tFeRCj3EbLuCCOBFQVJ8Mqz4pYzUhRZY80MguJsPWILaCAUiQID1p1&#xA;P0nKbbGIfm7pD6n5JukVDILZ0uHRa8iiVDEU/lDct9tsydHCE8gjLkXG1eScMZlDmHzZdaG4q1q3&#xA;qKN/Tagf6Ozfr9s2Gp7KyY94+ofa4ul7Xx5Npek/YljKysVYEMDQg7EEZq3bPsP/AJxW1m/1D8s3&#xA;trss8emX0traSN09Eok3EE/ytK3yFMycR2dZq4gTex5a4zsVdirsVdirsVdirsVdirsVdirsVdir&#xA;sVdirsVQOu6zZ6Lo17q163G1sYXnk3AJCCoVa0HJjso8clCBkQB1YykIiy+OLy81Dz152uL+5VIZ&#xA;dRl9W49JQqpFGoUfMqihQTuT1zfmMNNjJHP7y6filnmATt9we0eSbCG10p3hjEUM0hNuoHSGMCNP&#xA;+C4l/wDZZyWpyGcyS9VpcYjAAJ+7oiM7sFRQWZmNAANySTlDksJ82+bki0y4lb93prD0+NP31xy2&#xA;4iv2Ff5Vpvtmw0mjM5AdfudZq9YIxPc8IYgsSBQE7DrQZ2QeUL0f8pvyV0j8wPX1PV7ya2tbGUQt&#xA;DbhRJcHjy3kblx4Cg+wSQeopnO9qYI+ICNrG7v8AszVTGMjnvs+o/L3l3RfLukW+kaNapZ6fbCkU&#xA;KVPU1LMxJZmY7kk1OYIFORKRkbKY4WLsVdirsVdirsVdirsVdirsVdirsVdiqHvb2K0iDuCzMeMc&#xA;a/aY9e/68VS79J6o7fAIVr+xwdyP9kGSv3YqvH6bl39Qx/6qIo/4cMcVeW/85E3t1p3kqCze6dpt&#xA;TukjeLmxDRRAyMSNl2cJ2zYdmwvJfcHD106hXe8l/Lezb6rqd2n98VEMJHUGhY/jxy/tWe8YtPZ8&#xA;eZe3aeLYWFsLWn1b0k9CnThxHH8M5U893qY1WyR+Yr83E/6OjP7iKjXZH7TdVi+X7TfQPHMnBj6l&#xA;xdTl/hDA/P2nalqWlxnT7eW6itZGe5aJGZVCqaksBx+HuK1Gbrs7JGEzxGtnS62EpRFPL837p31D&#xA;+R/k6JPIcE05eK4unM9RtTnuux/yOJzm9bk4sp8tne6SHDjDPG03X7Te1uvXQdEY7/c1R+OYjkOi&#xA;8yXEEnpahblG7soIPz4n+uKp3b3ENxEssLB426EYqqYq7FXYqhZdV0+LUIdPkmC3lwpaGIg/EBU9&#xA;aca0U0BO9DTocHELpkImr6IrCxdirsVdirsVdirsVSqdPW1tUcVVI1KjtQliT9JWh+WKpqAAKAUH&#xA;tirsVeU/m95K1Dzxr/lvS7YNFp9st3Ne3lDxALRJwUkU5fAf1/PN0uoGKMj/ABGqcXUYTkIHRS1T&#xA;8o7Hy3ob3Wg8j9WX1LyAlmMqqPjcci3xgbjjSvSnhj5c0shuRbseKMBUUq07VUsvL0jgh3hlaK3U&#xA;moZpP3kY2/ZVX3p0UZrsmO507PHkrHfcmPk7yFea0q3moM8WlMS4J+GW6ZiSz9uKMTX/ACv9XrmA&#xA;U4JNvU7TR9MtLUWtvbRpAFCBAopQbUxQ+dPM/wCRWq/8rCkhsowvl+7l9dJVI5JGx5PEqdag1Uds&#xA;2+PtEDFR+sOtnoicl/wvorRdNj03TILONQixKBxXoPYfIbZqHZI3FUo8zSoliFaESeoSqyH9g+Ip&#xA;vXFV3llUXSl49S7FvnXFU1xV2KuxVgmtyGbziGOxt7mwt1+SyJNX6fXIzFmf3gc3GKxF0Xnl112a&#xA;6mkeTSZIpFsrOJULOVdFjkSoVi0g5vQsBw/1Tkhm3PcxOn9I/nMm1PXoYNCk1SzK3IIQQb/CXmZU&#xA;Tl3A5OOXfLZToW0QxkypR8panfX9jcG9dZJrecxeoi8KgxpJuorSnqU+WDFMyFllngIyoJ3ljS7F&#xA;XYq7FUEq11qRvC3T8XfFUaTQE0r7YqlNrqF9qE8scUX1e2QlHlb+8B8F7cv1YqmiRxxqqooVVAVQ&#xA;OwHbFVxAIIIqDsRirynyp+XNxN5g1D9KRlNA0u8lXTrRt/rBooRnJ+1GkSqPduQOwIIre2RltT1Y&#xA;AAAAUA6DCxdirsVWSyCNORFdwAPdiAP14qvxVQv7Vbq0lgP7a/CfBhuD9+KpX5Vc/VJoj1jkrTwq&#xA;B/TFU7xV2KuxV55+Y2lSW7vf1b6jfyW6XUqkgwyq6JzLD7KtGooezD/KzFzw34g52myAjhLFZwJb&#xA;q5nrwhEbIXAoY7WGofiB+3I/IKeyiuYzlsm+saFpvk6XT47yKbULl1uzbWdbkerG6OsNYQ4HwxKh&#xA;dtq1bMo0IVbhjilk4q2RWga3Fo97L9bJXTrviZJf2YZl+H1H8EZaBm/Z4iu1SIYMlbFnqMRluObP&#xA;VYMAykFSKgjoRmY692KuxV2KoSOn6Vn9oIt/9nJiqrcSOOMMRpLLWjdeKj7TfRX78VVIokijCIKK&#xA;PvJO5JPck9cVXYqpXMxijqo5SMeMSeLHp/U+2KroIhFEsdeRH2m8WO7H6Tviq/FXYq7FVK6RntpF&#xA;T7fElP8AWG6/jiq+ORZI1kU1VwGU+xFRiq7FUl0dfR1fUYOgJDge1Sf+N8VTrFXYq7FVK7tbe7tp&#xA;bW5jEtvOhjljboysKEHEhINbvKL7RH0fVxolyXezkt5Usbl/93QkqVj5dPUiBZWHcUbvmBkhwl2e&#xA;LLxi+q9JNShRBNEk6qAJJImIc+LCNhT/AIf5ZW2o3ArJPJeoxxab+jrgmP6tM0VoxDcWiejxqGpx&#xA;Xhz9NVr+yPEZn4SeHd1uoA4tmUZa0OxV2KoO1PLUL0/y+kn3Jy/42xVVtxzlmmPdvTT/AFU2P/D8&#xA;sVV8VdiqGg/fym5P92KrAP8AJ7v/ALLt7fPFUTirsVdirsVdiqVLqsNtMdP9OR51YrGigU4seSCp&#xA;PQKRiqaLy4jlQN3A6YqlA/d+aD/xfD+r/rjFU4xV2KuxV2KqV1aWl3C0F3DHcQNQtFKodDQ1FVYE&#xA;YCLSCRySC98jaeyE6dNJZTD7ILNPCfZo5GJA9kZcqlgiW+GpkOe6R6fp90muW9hqUBhNeTEVaKVR&#xA;09OSgqC1KggMO4FRlePDUt23NnuPpZheWiXYa1hVY0iAV341AqNkVdh0NcynCUra+msqW2oElV2j&#xA;uj0p29Q/8bffTuqmuKuxVL9Nfnd3znq0tP8AkXWP9S4qiLGRGjkUH4kmlVx3B5k7/MEHFURiqheV&#xA;aIRKaGZglR/Kd2/4UHFVcAAAAUA2AGKuxV2KuxV2KuxVKrGOGbWr66UhwnCNGG+/EcvupTFU1xVJ&#xA;NRb0/MVi/wDMvD7yw/42xVO8VdirsVdirsVdiqF1HTob2JVcmOWM8oZ1+0jDuP4jFUDZ6jNaXTWG&#xA;phUlcl4bldo5QevX7JB2p2+4lVNJ4I5k4OK+B7jFUqX63pbBFHq2naLuo/4rJ6f6p28KYqmltdQX&#xA;MfqQtyXoexB8GB3B+eKoLSN5bw+E0g/5Kviqhqf1nTbxtTgUyW0gAvoh247CUfIbHw+/FUys7+1v&#xA;IhJA4Yd1/aHzGKuu/hSOT/fciH6GPA/gxxVXxV2KuxVRuLy1tl5TyrGO1TufkOpxVJ7vzVCtVtYi&#xA;5/nfYfcN8VSLUNav51PqykhtliX4VJPQUH8cVTzyeAllNHWrK9WPiSNz9JxVP8VY/wCYXMep2MnZ&#xA;SDX5ODirIMVdirsVdirsVdirsVQ2o6dbX9sYJx0PKNx9pGHRlOKpNp+q3OnXR03U+i/3M+9CtaAg&#xA;/wAv/EflirIGVJEowDIw+jFUputPmtpPrFq5Rh+2N9h2cftL/ntiqpoBZoJJGpydqtTpUkk/rxVN&#xA;MVYBIXt7+Zrc+lE0jmLgePD4vsilKDfb6cVTE67qkSvb3KhwQUdZFKtQinamKom383P6arLbcnXZ&#xA;2D0qR3pTv1xVWHmxW2S0Zm7Dl/zbiqjPqPmG62gt3gjPTipr/wAE38MVS2XTNVqZJIJWJ6tQsf44&#xA;qgyCDQ7EdRiqaWekq2i3N/IKytUQD+REejH5sVP0U98VRPlOalxPD/Ogb/gTT/jbFWTYqxvzb/e2&#xA;3yb9YxVkUb841f8AmAP3jFV2KuxV2KuxV2KuxV2KoXUtNt7+3MUoow3jkH2kbxGKpJp+o3WlXP6P&#xA;1D+6H93J24/zL/k+I7YqyUEMAQag7gjoRiqE02ERQsoFAHIA8Au38MVRM0gjieQ9EUsfoFcVYabe&#xA;uiG4P2vrK/TRG3/4fFWXLDFNBH60av8ACKhgD298VQ8en2AvJaW0QHCMj4F6kuD29sVRqRxoKIoU&#xA;eAFP1Yq3irsVSXzJp0Ulq12igTRU5EftL03+WKonS7cPoFtCektutf8AnolT+vFWP+X3MerxqduX&#xA;JG+4n9YxVmOKsc83D4rVvEOPu4/1xVO9Ofnp9s3jElfnxGKojFXYq7FXYq7FXYq7FXYqhNT0y21G&#xA;39GaqsPiilX7SN4j+I74qlGkXF5p+oDSrw1RwTA+/E07oT+K9j+KrIgAOmKoDXZvS0uc13cBB/sj&#xA;Q/hiqT3UBXy9psA+1cTJT5yK74qycAAUHQYqox73cx7BI1+kFj/xtiqtirsVdiqWeYrhYdMkU/am&#xA;IRR9NT+GKq+ity0eyPhBGD9CgYqx6aP6r5kXspmVh8pCD/HFWW4qx/zav7u2bwLivzA/piqZ6I3L&#xA;SrY/5NPuJGKo3FXYq7FXYq7FXYq7FXYq7FVC9soLyH05QQVIaORdnRx0ZD2IxVat36TeldkRv0WU&#xA;7Rv8j2P+SforiqUeZ5HuJbbToQXklPIqu5APwhvkN6nFUReKs2uWFog/d2qNO69hX4Y/u4nFU4xV&#xA;Rg/vbn/jIP8Ak2mKq2KuxVTnnht4mlmYIi9ScVYZqupSX9zzPwxLtEngPE+5xVkflmQPo0I7o0iE&#xA;eFJGp+FMVQPmeL07q2uwP8lvmpqP14qyIEEVHTFUm81R8tPR/wCSQV+RBGKojy83LSYR3UsD/wAE&#xA;TiqY4q7FXYq7FXYq7FXYq7FXYq7FXEAih6Yqsjghir6UapXrxAFfuxVLNEH1i4vNSO6zvwgP/Fab&#xA;Aj/WpXFU2xVRj2u5h4qjffyH/GuKq2KuxVJPMWmXdzxmgYyBBQwf8bKMVYuysrFWBVhsQdiMVT/y&#xA;hc0e6tGO5Kzx17ggI4H+rxX78VTDzJCJNLdu8TK4+/j/AMbYqjbGT1bKCTryjUn503xVQ1uH1dLu&#xA;FHVV5j/Ynl/DFUF5UmDWcsNd43r9DD+oOKp3irsVdirsVdirsVdirsVdirsVdiqA1maRbQW8P+9F&#xA;23oRe3IEu23TigJxVF2tvHbW8cEf2I1Cj6O+KqmKoKG+s31m5skmVrqGCF5YQQWVXaTiSOorTDRq&#xA;0WjcCXYq7FUPeafZ3a0njDHoHGzD5HFWD6tqdj5W1EXl5dJBb20iq8sp4ho5aAqfoYH5gZKMTI0E&#xA;SkALLNdWUPplyBuPTZvuFf4ZFKH8uTeppaL3iZkP31H4HFUyZQylWFVIoR7HFWK6TI2n6y1tIaI7&#xA;GI1+fwHFWV4q7FXYq7FXYq7FXYq7FXYq7FXYq+b/AM2fzq1XSPzTt10WRZbPy+rW11A32JpZSDcK&#xA;T/k8VQHswPbNng0olj35lwM2oInt0eweQ/zT8qec7RX0+5EN8BWbT5iFmQ+w/aHuMwsuCUDu5WPL&#xA;GfJd+ZH5iaV5L0V7qciXUJQVsbIH4pH8T4KO5w6fTyyyoIzZhjjZfP8A+Vf5mXll+ZL6prVwWi1w&#xA;+jfSGvFWY/umpvsh2Hsc3Gr0o8Ko/wAP4LrdNqD4ly/ifVysrKGUgqRUEbgg5oHcOxVDahqmm6dA&#xA;1xf3UVrCgLNJM6oAB16nCIkmggkDm8r85f8AORnlbSle30JDrF6KgSCqW6nbfmd26/sjM/D2dOW8&#xA;vSHDy62EeW5fN3nHzr5h81apJeaxceoxYlIE+GJP9Vf65sceCOPYOFPNKe5fUX5F+cv8Vfl5Hazv&#xA;y1LSV+oXVT8TIqUgkP8ArJtU9WU5qNZi4J+RdlpsnFHzDJvKl1xnltidpByX5r1/A5iuQybFWOea&#xA;LJkljvYxStFkI7MPsnFU/tpfVtopf9+Irf8ABCuKqmKuxV2KuxV2KuxV2KuxV2KpH538yxeWfKeq&#xA;a5JQmygZ4lPRpm+CJf8AZSMoyzFDjkAwyT4YkvhK5uZ7q5lubhzJPO7SSyN1Z3PJmPzJzoQKdKTa&#xA;I02WaCT14ZGilQgpIhKsCO4I3GWwiCDbXI0jr7UtRv5RLfXU13Ko4rJPI0jBR0ALEmmTjAR5CmEp&#xA;E8zaGySGaaV+cf5kaXaR2lrrMht4lCxpKkcpUDtydWb7zmJPQ4pG6ciOryAVbd1+c/5m3PIPr0yq&#xA;2xWNYoxQ/wCqgxGhwj+H71OryHqxS/1XVNRkEl/eTXcgqQ08jSEV605E5kxhGPIU0ymZczaFyTFC&#xA;XSUk5fzfwynIN2yB2ej/APOPfnA+X/zAt7SZ+NhrYFjOCdhKxrA/bf1Ph+THMHWY+KF9Q5mlycM/&#xA;e+i5C2n6yzdBDLX5oT/FTmkdqzUEEAg1B3BxVC6rCJtOuEP8hYfNfiH4jFXaUSdNta/76X9WKorF&#xA;XYq7FXYq7FXYq7FXYq7FXhf/ADlX5hNv5e0nQY2o1/cNczgdfTt1ooPszy1/2ObDs+FyMu5wtbLY&#xA;B8zZtnXIy2FIh7knLocmqfNVybF2KuxV2KuxV2Koa8P2R88qyM4KMUskUqSxMUkjYMjrsQwNQRlT&#xA;Y+zNO1VPMnlDRvNEdOV9boLsDYCZapJT2Eisuc9lhwSId3jnxRBZhoVz6+mQkmrRj02/2Ow/CmVs&#xA;0VeHjaTt4Rsf+FOKofRSDpVtT+Wn3E4qjcVf/9k=</xmpGImg:image>
               </rdf:li>
            </rdf:Alt>
         </xmp:Thumbnails>
         <xmpMM:InstanceID>xmp.iid:b272ee64-a275-5b42-a673-02917e8f3631</xmpMM:InstanceID>
         <xmpMM:DocumentID>xmp.did:b272ee64-a275-5b42-a673-02917e8f3631</xmpMM:DocumentID>
         <xmpMM:OriginalDocumentID>uuid:5D20892493BFDB11914A8590D31508C8</xmpMM:OriginalDocumentID>
         <xmpMM:RenditionClass>proof:pdf</xmpMM:RenditionClass>
         <xmpMM:DerivedFrom rdf:parseType="Resource">
            <stRef:instanceID>uuid:ff470bc6-f939-440e-8f31-27b0eb70075c</stRef:instanceID>
            <stRef:documentID>xmp.did:4de20fe2-e96f-dd46-b8bd-1606dc72d06f</stRef:documentID>
            <stRef:originalDocumentID>uuid:5D20892493BFDB11914A8590D31508C8</stRef:originalDocumentID>
            <stRef:renditionClass>proof:pdf</stRef:renditionClass>
         </xmpMM:DerivedFrom>
         <xmpMM:History>
            <rdf:Seq>
               <rdf:li rdf:parseType="Resource">
                  <stEvt:action>saved</stEvt:action>
                  <stEvt:instanceID>xmp.iid:b272ee64-a275-5b42-a673-02917e8f3631</stEvt:instanceID>
                  <stEvt:when>2017-06-09T16:43:28-05:00</stEvt:when>
                  <stEvt:softwareAgent>Adobe Illustrator CC (Windows)</stEvt:softwareAgent>
                  <stEvt:changed>/</stEvt:changed>
               </rdf:li>
            </rdf:Seq>
         </xmpMM:History>
         <illustrator:StartupProfile>Print</illustrator:StartupProfile>
         <xmpTPg:HasVisibleOverprint>False</xmpTPg:HasVisibleOverprint>
         <xmpTPg:HasVisibleTransparency>True</xmpTPg:HasVisibleTransparency>
         <xmpTPg:NPages>1</xmpTPg:NPages>
         <xmpTPg:MaxPageSize rdf:parseType="Resource">
            <stDim:w>441.411011</stDim:w>
            <stDim:h>600.500977</stDim:h>
            <stDim:unit>Pixels</stDim:unit>
         </xmpTPg:MaxPageSize>
         <xmpTPg:PlateNames>
            <rdf:Seq>
               <rdf:li>Cyan</rdf:li>
               <rdf:li>Magenta</rdf:li>
               <rdf:li>Yellow</rdf:li>
               <rdf:li>Black</rdf:li>
            </rdf:Seq>
         </xmpTPg:PlateNames>
         <xmpTPg:SwatchGroups>
            <rdf:Seq>
               <rdf:li rdf:parseType="Resource">
                  <xmpG:groupName>Grupo de muestras por defecto</xmpG:groupName>
                  <xmpG:groupType>0</xmpG:groupType>
               </rdf:li>
            </rdf:Seq>
         </xmpTPg:SwatchGroups>
         <pdf:Producer>Adobe PDF library 10.01</pdf:Producer>
      </rdf:Description>
   </rdf:RDF>
</x:xmpmeta>
                                                                                                    
                                                                                                    
                                                                                                    
                                                                                                    
                                                                                                    
                                                                                                    
                                                                                                    
                                                                                                    
                                                                                                    
                                                                                                    
                                                                                                    
                                                                                                    
                                                                                                    
                                                                                                    
                                                                                                    
                                                                                                    
                                                                                                    
                                                                                                    
                                                                                                    
                                                                                                    
                           
<?xpacket end="w"?>
	</metadata>
<g>
	<g>
		<defs>
			<rect id="SVGID_1_" width="441.411" height="600.501"/>
		</defs>
		<clipPath id="SVGID_2_">
			<use xlink:href="#SVGID_1_"  overflow="visible"/>
		</clipPath>
		<g clip-path="url(#SVGID_2_)">
			<path fill="#E4BCA7" d="M69.601,413.777c0,0-14.289-13.021-23.127-15.217c-8.838-2.197-16.147-4.197-20.063-9.82
				c-3.918-5.625-18.289-22.764-20.125-27.398c-1.838-4.637,1.852-21.826,2.797-25.965c0.949-4.139,6.945,2.475,5.877,8.439
				c-1.066,5.963-0.424,15.896,1.072,17.707c1.5,1.811,7.24,9.217,12.5,10.773c5.26,1.559,12.057,1.824,18.611,0.74
				c6.555-1.084,20.777-6.053,27.867,3.627c7.09,9.678,4.516,13.014,11.537,18.064C93.572,399.781,69.601,413.777,69.601,413.777"/>
			
				<path fill="none" stroke="#734538" stroke-width="0.941" stroke-linecap="round" stroke-linejoin="round" stroke-miterlimit="10" d="
				M69.601,413.777c0,0-14.289-13.021-23.127-15.217c-8.838-2.197-16.147-4.197-20.063-9.82
				c-3.918-5.625-18.289-22.764-20.125-27.398c-1.838-4.637,1.852-21.826,2.797-25.965c0.949-4.139,6.945,2.475,5.877,8.439
				c-1.066,5.963-0.424,15.896,1.072,17.707c1.5,1.811,7.24,9.217,12.5,10.773c5.26,1.559,12.057,1.824,18.611,0.74
				c6.555-1.084,20.777-6.053,27.867,3.627c7.09,9.678,4.516,13.014,11.537,18.064C93.572,399.781,69.601,413.777,69.601,413.777z"
				/>
			<path fill="#E4BCA7" d="M84.666,394.932c0,0-4.916-8.061-5.908-13.982c-0.99-5.922-9.301-9.191-12.412-14.322
				c-4.695-7.74-3.857-10.924-4.607-20.109c-0.475-5.807-8.463,0.484-9.061,6.121c-0.668,6.287,0.404,13.406,2.453,16.848
				c2.053,3.449-7.281,3.471-7.281,3.471"/>
			
				<path fill="none" stroke="#734538" stroke-width="0.941" stroke-linecap="round" stroke-linejoin="round" stroke-miterlimit="10" d="
				M84.666,394.932c0,0-4.916-8.061-5.908-13.982c-0.99-5.922-9.301-9.191-12.412-14.322c-4.695-7.74-3.857-10.924-4.607-20.109
				c-0.475-5.807-8.463,0.484-9.061,6.121c-0.668,6.287,0.404,13.406,2.453,16.848c2.053,3.449-7.281,3.471-7.281,3.471"/>
			<path fill="#E4BCA7" d="M28.754,390.65c-6.895-9.082-14.106-17.561-13.85-22.541c0.254-4.982,9.137-21.096,11.316-24.74
				c2.18-3.641,5.838,4.5,2.978,9.844c-2.859,5.34-5.223,15.506-4.609,17.775c0.609,2.271,6.799,8.857,8.756,13.574"/>
			
				<path fill="none" stroke="#734538" stroke-width="0.941" stroke-linecap="round" stroke-linejoin="round" stroke-miterlimit="10" d="
				M28.754,390.65c-6.895-9.082-14.106-17.561-13.85-22.541c0.254-4.982,9.137-21.096,11.316-24.74
				c2.18-3.641,5.838,4.5,2.978,9.844c-2.859,5.34-5.223,15.506-4.609,17.775c0.609,2.271,6.799,8.857,8.756,13.574"/>
			<path fill="#E4BCA7" d="M30.367,392.895c-3.937-3.775-8.164-10.227-9.598-15.004c-1.438-4.777,11.311-23.289,13.898-26.652
				c2.592-3.363,5.273,5.152,1.809,10.121c-3.465,4.971-7.037,14.262-6.434,16.533c1.639,1.563,8.494,7.531,11.965,10.563"/>
			
				<path fill="none" stroke="#734538" stroke-width="0.941" stroke-linecap="round" stroke-linejoin="round" stroke-miterlimit="10" d="
				M30.367,392.895c-3.937-3.775-8.164-10.227-9.598-15.004c-1.438-4.777,11.311-23.289,13.898-26.652
				c2.592-3.363,5.273,5.152,1.809,10.121c-3.465,4.971-7.037,14.262-6.434,16.533c1.639,1.563,8.494,7.531,11.965,10.563"/>
			<path fill="#E4BCA7" d="M32.508,392.756c-1.994-0.619-4.234-2.041-3.984-6.852c0.291-5.557-1.111-11.133-0.547-13.707
				c0.904-4.117,10.512-13.281,13.129-15.732c2.619-2.455,3.695,5.012,0.133,8.688c-3.566,3.676-5.154,6.537-4.957,8.514
				c0.09,0.938,1.348,7.693,1.973,10.766c5.535,1.051,12.148-0.02,17.02,5.65"/>
			
				<path fill="none" stroke="#734538" stroke-width="0.941" stroke-linecap="round" stroke-linejoin="round" stroke-miterlimit="10" d="
				M32.508,392.756c-1.994-0.619-4.234-2.041-3.984-6.852c0.291-5.557-1.111-11.133-0.547-13.707
				c0.904-4.117,10.512-13.281,13.129-15.732c2.619-2.455,3.695,5.012,0.133,8.688c-3.566,3.676-5.154,6.537-4.957,8.514
				c0.09,0.938,1.348,7.693,1.973,10.766c5.535,1.051,12.148-0.02,17.02,5.65"/>
			<path fill="#FFFFFF" d="M66.754,412.359c0,0-1.275-10.371,7.672-16.182c8.947-5.814,10.324-6.316,13.4-5.158
				c3.074,1.158,9.668,10.248,9.668,10.248l-17.35,23.242C80.144,424.51,68.424,416.742,66.754,412.359"/>
			<path fill="none" stroke="#B4B4B5" stroke-width="0.957" stroke-miterlimit="10" d="M66.754,412.359
				c0,0-1.275-10.371,7.672-16.182c8.947-5.814,10.324-6.316,13.4-5.158c3.074,1.158,9.668,10.248,9.668,10.248l-17.35,23.242
				C80.144,424.51,68.424,416.742,66.754,412.359z"/>
			<path opacity="0.2" enable-background="new    " d="M81.605,422.549l-1.461,1.961c0,0-11.721-7.766-13.393-12.15
				c0,0-0.955-7.838,4.674-13.707C69.01,408.297,71.396,417.397,81.605,422.549"/>
			<path opacity="0.1" enable-background="new    " d="M92.986,407.305c-3.719-6.777-8.053-11.43-13.605-14.258
				c4.678-2.813,6.059-2.928,8.445-2.027c3.074,1.158,9.668,10.248,9.668,10.248L92.986,407.305z"/>
			<path fill="#FFFFFF" d="M168.43,505.731c4.047-4.408,7.326-9.514,9.953-14.879c3.143-6.418,4.926-12.641,3.357-19.804
				c-1.148-5.242-2.941-10.207-4.979-15.162c-0.016-0.043-0.02-0.078-0.035-0.117c-0.836-0.494-1.691-0.973-2.563-1.43
				c-29.543-15.605-76.67-53.072-76.67-53.072s-6.342-3.49-13.658,5.197c-7.314,8.684-3.691,18.045-3.691,18.045
				c25.207,27.625,50.08,52.042,75.803,75.278C157.84,502.415,167.476,506.772,168.43,505.731"/>
			<path fill="none" stroke="#B4B4B5" stroke-width="0.957" stroke-miterlimit="10" d="M168.43,505.731
				c4.047-4.408,7.326-9.514,9.953-14.879c3.143-6.418,4.926-12.641,3.357-19.804c-1.148-5.242-2.941-10.207-4.979-15.162
				c-0.016-0.043-0.02-0.078-0.035-0.117c-0.836-0.494-1.691-0.973-2.563-1.43c-29.543-15.605-76.67-53.072-76.67-53.072
				s-6.342-3.49-13.658,5.197c-7.314,8.684-3.691,18.045-3.691,18.045c25.207,27.625,50.08,52.042,75.803,75.278
				C157.84,502.415,167.476,506.772,168.43,505.731z"/>
			<path opacity="0.1" enable-background="new    " d="M181.203,468.906c-1.135-4.457-2.684-8.748-4.441-13.018
				c-0.016-0.041-0.02-0.08-0.035-0.121c-0.838-0.49-1.693-0.967-2.563-1.428c-29.543-15.607-76.67-53.072-76.67-53.072
				s-5.066-1.318-7.523,0.76c24.01,18.77,44.725,39.029,71.807,56.506C167.238,462.611,175.119,465.209,181.203,468.906"/>
			<path opacity="0.2" enable-background="new    " d="M80.219,420.336c0.111,2.992-0.074,4.174-0.074,4.174
				c20.717,22.705,47.625,49.274,70.84,70.925c-3.219-5.289-5.727-11.063-7.578-16.736
				C122.789,458.459,102.59,438.738,80.219,420.336"/>
			<path fill="#FFFFFF" d="M155.141,499.22c4.637,4.523,11.758,7.658,18.078,8.703c3.541,0.588,11.828-4.994,12.426-7.846
				c7.729-36.933,24.904-103.921,20.609-133.12c5.602-20.008,15.252-42.654,27.486-66.988c0,0-36.932,8.588-51.531,7.73
				c-14.602-0.859-26.688,14.598-24.971,24.045c1.721,9.447,0.861,52.389-2.576,70.424c-2.084,10.945-1.471,32.008-2.779,52.637"/>
			<path fill="none" stroke="#B4B4B5" stroke-width="0.957" stroke-miterlimit="10" d="M155.141,499.22
				c4.637,4.523,11.758,7.658,18.078,8.703c3.541,0.588,11.828-4.994,12.426-7.846c7.729-36.933,24.904-103.921,20.609-133.12
				c5.602-20.008,15.252-42.654,27.486-66.988c0,0-36.932,8.588-51.531,7.73c-14.602-0.859-26.688,14.598-24.971,24.045
				c1.721,9.447,0.861,52.389-2.576,70.424c-2.084,10.945-1.471,32.008-2.779,52.637"/>
			<path opacity="0.2" enable-background="new    " d="M203.51,347.346c-7.59-3.563-8.961-0.904-17.035,3.832
				c10.767,10.359,11.668,16.027,7.248,33.971c-1.268,38.756-4.707,85.754-18.07,121.122c2.393,0.367,8.529-2.732,9.162-5.578
				c16.666-74.663,17.783-116.595,15.176-145.993L203.51,347.346z"/>
			<path opacity="0.1" enable-background="new    " d="M182.209,307.699c-14.602-0.859-26.688,14.598-24.969,24.045
				c1.717,9.447,0.855,52.389-2.578,70.424c-2.305,12.098-1.318,36.543-3.266,59.107c0.66,3.453,1.576,6.904,2.621,10.355
				c11.74-48.996-0.678-91.129,10.447-141.994c0-3.24,1.621-8.103,4.863-9.725c21.541-2.871,40.545-8.283,61.506-12.863l2.906-7.08
				C233.74,299.969,196.809,308.557,182.209,307.699"/>
			<path fill="#144B8B" d="M209.957,882.22c18.156,6.506,38.412,7.826,57.451,7.752c7.318-0.029,21.696-0.635,21.696-0.635
				l20.78-2.049c0,0,30.49-6.055,45.373-12.662c9.377-4.164,18.451-8.904,27.438-13.814c-7.643-37.695-10.096-70.412-8.416-161.848
				c1.402-76.592-20.395-121.637-37.914-157.83c-4.584-9.48-8.918-18.434-12.229-26.857l-0.773-2.004
				c-1.674-4.441-2.959-8.465-3.916-12.311l-1.625-6.498l-3.914,3.598l-1.432,1.082c-11.215,8.496-40.615,11.523-64.39,11.523
				c-8.626,0-13.867-0.422-15.285-0.705c-3.559-0.709-5.51-0.914-7.252-0.768l-29.221-3.502l-0.941,3.795
				c-3.361,13.563-9.881,24.746-16.305,38.375c-12.189,25.852-28.269,57.68-26.1,119.053
				c1.938,54.918,21.275,110.358,38.338,159.268C198.305,845.206,205.043,864.538,209.957,882.22"/>
			<path opacity="0.2" enable-background="new    " d="M309.884,887.286c0,0,30.49-6.051,45.369-12.66
				c9.381-4.166,18.455-8.904,27.441-13.814c-7.645-37.695-10.096-70.41-8.418-161.848c1.404-76.59-20.395-121.637-37.912-157.832
				c-1.377-2.85-2.727-5.644-4.039-8.398c-24.934,23.154-0.039,36.092-3.361,57.672c-5.668,36.85-13.881,47.967-80.769,63.891
				c-66.886,15.926,23.35,79.031,42.518,156.01c19.171,76.98-58.24,44.605-23.305,79.666c7.318-0.029,21.696-0.633,21.696-0.633
				L309.884,887.286z"/>
			<path opacity="0.2" enable-background="new    " d="M181.309,746.665c-17.52-30.256-3.186-66.885,1.594-101.924
				c8.877-47.354,17.75-91.961,22.797-138.924l-9.371-1.121l-0.941,3.791c-3.361,13.563-9.881,24.746-16.305,38.375
				c-12.189,25.85-28.269,57.678-26.1,119.053c1.938,54.918,21.275,110.358,38.338,159.27c6.984,20.018,13.723,39.354,18.637,57.035
				c10.398,3.725,21.482,5.746,32.633,6.783c-0.514-6.572-1.264-13.141-2.357-19.709
				C230.678,823.11,205.195,788.071,181.309,746.665"/>
			<path fill="#FFFFFF" d="M272.996,291.748c0,0-37.812,7.775-46.295,11.664c-8.48,3.887-18.728,33.572-24.029,50.535
				c-5.301,16.961,149.132,11.309,154.077,3.887c4.947-7.42,9.543-42.76-6.357-50.182
				C334.485,300.23,295.261,290.69,272.996,291.748"/>
			<path fill="#9F664C" d="M425.149,709.069c0.076,5.443,0.703,18.125-0.15,21.994c-0.854,3.869-10.926,13.543-13.391,15.846
				c-2.461,2.303-3.469-4.715-0.113-8.166c3.354-3.453,7.348-10.275,7.166-12.135c-0.182-1.861-0.664-9.287-3.436-12.65"/>
			<path fill="none" stroke="#734538" stroke-width="0.941" stroke-miterlimit="10" d="M425.149,709.069
				c0.076,5.443,0.703,18.125-0.15,21.994c-0.854,3.869-10.926,13.543-13.391,15.846c-2.461,2.303-3.469-4.715-0.113-8.166
				c3.354-3.453,7.348-10.275,7.166-12.135c-0.182-1.861-0.664-9.287-3.436-12.65"/>
			<path fill="#9F664C" d="M430.999,714.792c-0.393,6.43,0.047,18.664-1.307,23.152c-1.35,4.488-14.098,15.002-17.209,17.5
				c-3.113,2.496-3.674-5.877,0.592-9.646c4.264-3.771,9.588-11.467,9.543-13.676c-0.049-2.211,0.043-11.016-2.928-15.232"/>
			<path fill="none" stroke="#734538" stroke-width="0.941" stroke-miterlimit="10" d="M430.999,714.792
				c-0.393,6.43,0.047,18.664-1.307,23.152c-1.35,4.488-14.098,15.002-17.209,17.5c-3.113,2.496-3.674-5.877,0.592-9.646
				c4.264-3.771,9.588-11.467,9.543-13.676c-0.049-2.211,0.043-11.016-2.928-15.232"/>
			<path fill="#9F664C" d="M435.024,720.265c-0.834,6.389-1.518,22.906-3.174,27.289c-1.656,4.391-15.092,14.006-18.369,16.285
				c-3.273,2.281-3.262-6.109,1.252-9.582c4.512-3.473,10.35-10.783,10.453-12.992c0.103-2.205,0.797-10.986-1.875-15.396"/>
			<path fill="none" stroke="#734538" stroke-width="0.941" stroke-miterlimit="10" d="M435.024,720.265
				c-0.834,6.389-1.518,22.906-3.174,27.289c-1.656,4.391-15.092,14.006-18.369,16.285c-3.273,2.281-3.262-6.109,1.252-9.582
				c4.512-3.473,10.35-10.783,10.453-12.992c0.103-2.205,0.797-10.986-1.875-15.396"/>
			<path fill="#BB7A55" d="M420.589,677.042c0,0,3.377,17.856,8.777,24.498c5.398,6.641,9.76,12.272,9.525,18.709
				c-0.234,6.439,0.881,27.434-0.359,31.953c-1.238,4.523-13.719,15.35-16.772,17.924c-3.049,2.576-3.816-5.779,0.354-9.656
				c4.172-3.877,9.301-11.701,9.197-13.912c-0.104-2.207-0.229-11.01-3.303-15.152c-3.072-4.141-8.027-8.182-13.564-11.07
				c-5.535-2.887-19.029-7.19-18.887-18.467c0.143-11.277,3.959-12.33,1.537-20.09C394.673,674.017,420.589,677.042,420.589,677.042
				"/>
			
				<path fill="none" stroke="#734538" stroke-width="0.941" stroke-linecap="round" stroke-linejoin="round" stroke-miterlimit="10" d="
				M420.589,677.042c0,0,3.377,17.856,8.777,24.498c5.398,6.641,9.76,12.272,9.525,18.709c-0.234,6.439,0.881,27.434-0.359,31.953
				c-1.238,4.523-13.719,15.35-16.772,17.924c-3.049,2.576-3.816-5.779,0.354-9.656c4.172-3.877,9.301-11.701,9.197-13.912
				c-0.104-2.207-0.229-11.01-3.303-15.152c-3.072-4.141-8.027-8.182-13.564-11.07c-5.535-2.887-19.029-7.19-18.887-18.467
				c0.143-11.277,3.959-12.33,1.537-20.09C394.673,674.017,420.589,677.042,420.589,677.042z"/>
			<path fill="#BB7A55" d="M398.622,682.69c0,0-0.855,8.832-3.457,13.842c-2.6,5.008,1.795,12.158,1.234,17.775
				c-0.848,8.465-3.275,10.385-7.9,17.709c-2.924,4.627,6.631,4.414,10.268,0.516c4.051-4.344,7.267-10.299,7.674-14.045
				c0.404-3.744,7.428,1.508,7.428,1.508"/>
			
				<path fill="none" stroke="#734538" stroke-width="0.941" stroke-linecap="round" stroke-linejoin="round" stroke-miterlimit="10" d="
				M398.622,682.69c0,0-0.855,8.832-3.457,13.842c-2.6,5.008,1.795,12.158,1.234,17.775c-0.848,8.465-3.275,10.385-7.9,17.709
				c-2.924,4.627,6.631,4.414,10.268,0.516c4.051-4.344,7.267-10.299,7.674-14.045c0.404-3.744,7.428,1.508,7.428,1.508"/>
			<path fill="#CCA656" d="M390.184,656.78c0,0,4.756,22.656,6.434,25.311c1.68,2.658,24.691,0.277,24.412-3.498
				c-0.281-3.775-1.617-27.686-1.617-27.686L390.184,656.78z"/>
			<path fill="#B1904A" d="M421.03,678.593c-0.281-3.775-1.619-27.686-1.619-27.686l-8.346,1.678
				c2.31,0.629,1.189,4.689,4.129,4.689c-1.406,8.422-2.799,16.84,1.248,24.174C419.214,680.675,421.112,679.694,421.03,678.593"/>
			<path fill="#B1904A" d="M390.184,656.78c0,0,4.756,22.656,6.434,25.311l3.865,1.068c2.857-8.504-7.111-17.99-4.4-27.478
				L390.184,656.78z"/>
			<path fill="#FFFFFF" d="M326.524,298.986c0,0,56.701,10.945,54.713,21.887c-1.99,10.943,0.176,18.133,0.994,23.877
				c1.99,13.924,13.928,98.48,15.92,145.237c1.988,46.754,15.914,47.748,16.91,73.613c0.994,25.865,2.986,79.584,5.967,89.531
				c2.986,9.947-26.078,10.549-30.838,8.951c-4.76-1.596-10.943-48.744-23.875-70.627c-12.93-21.889-10.941-61.68-15.916-80.578
				c-4.975-18.902-19.896-68.642-18.9-97.493"/>
			<path opacity="0.2" enable-background="new    " d="M369.011,560.128c-14.334-38.221-12.74-76.445-20.703-117.849
				c-4.777-20.705-6.371-44.596,12.74-58.928c-9.906,7.078-23.572,6.584-30.965-2.551l1.416,32.588
				c-0.994,28.848,13.926,78.589,18.9,97.489c4.973,18.9,2.982,58.689,15.916,80.576c12.934,21.885,19.115,69.031,23.875,70.629
				c1.035,0.348,3.223,0.592,5.978,0.658c0.367-6.602-1.07-13.199-3.271-19.801C386.526,614.274,378.563,587.198,369.011,560.128"/>
			<path opacity="0.2" enable-background="new    " d="M372.194,322.836c3.186,1.592-1.594,6.369-6.369,7.963
				c4.775,7.963,9.555,17.518,11.15,27.072c15.922,68.48-4.781,136.962,28.664,200.665c16.523,30.295-7.428,71.307,7.408,102.445
				c5.344-1.453,9.158-3.924,7.982-7.85c-2.984-9.949-4.975-63.666-5.969-89.531c-0.996-25.863-14.922-26.859-16.912-73.615
				c-1.99-46.755-13.928-131.31-15.916-145.235c-0.82-5.744-2.986-12.934-0.996-23.875L372.194,322.836z"/>
			<path opacity="0.2" enable-background="new    " d="M381.237,320.873c1.988-10.943-54.713-21.887-54.713-21.887l0.266,6.047
				c15.455,5.656,31.623,8.154,45.408,17.803"/>
			<path fill="#FFFFFF" d="M335.546,348.395c-3.703,16.478,10.648,35.691,7.719,57.385c-2.936,21.697-18.342,30.57-20.688,39.953
				c-2.346,9.385-5.504,64.837,13.32,91.179c0,6.447-42.389,33.881-83.152,30.336c-11.525,0-18.793-28.242-18.793-28.242
				s-16.982,23.377-22.861,25.582c-5.881,2.203-32.615-15.063-30.133-21.27c10.635-26.586,19.035-49.08,19.795-63.004
				c0.607-11.11,3.455-35.327-13.549-49.399c-17.006-14.074-19.938-34.012-8.209-56.293c11.727-22.283,30.492-30.494,30.492-41.045"
				/>
			<path fill="none" stroke="#B4B4B5" stroke-width="0.957" stroke-miterlimit="10" d="M335.546,348.395
				c-3.703,16.478,10.648,35.691,7.719,57.385c-2.936,21.697-18.342,30.57-20.688,39.953c-2.346,9.385-5.504,64.837,13.32,91.179
				c0,6.447-42.389,33.881-83.152,30.336c-11.525,0-18.793-28.242-18.793-28.242s-16.982,23.377-22.861,25.582
				c-5.881,2.203-32.615-15.063-30.133-21.27c10.635-26.586,19.035-49.08,19.795-63.004c0.607-11.11,3.455-35.327-13.549-49.399
				c-17.006-14.074-19.938-34.012-8.209-56.293c11.727-22.283,30.492-30.494,30.492-41.045"/>
			<path opacity="0.2" enable-background="new    " d="M263.324,441.334c-35.681,2.365-72.377-2.799-90.681-33.861
				c1.703,8.867,6.551,16.811,14.563,23.441c17.004,14.072,15.129,36.309,13.92,47.37c-2.768,25.271-14.678,53.828-20.477,66.951
				c13.85-15.918,32.992-75.714,24.33-99.775c28.664,20.705,79.629-12.74,103.513,7.965c17.227,15.793,2.098,43.226-20.884,57.815
				c8.997,18.76,45.325,13.922,34.642,37.549c7.252-3.603,11.242-7.596,13.404-11.807c-19.623-34.303-15.42-81.866-13.076-91.251
				c2.141-8.56,15.125-16.73,19.615-34.574"/>
			<path fill="none" stroke="#B4B4B5" stroke-width="0.957" stroke-miterlimit="10" d="M234.318,539.024
				c-1.414-15.754-2.703-34.703-2.869-42.436c-0.234-10.951,5.277-37.528-0.584-47.499c-5.865-9.967-13.488-30.49-9.969-43.977
				c3.518-13.486,25.8-39.287,28.144-52.19"/>
			<path fill="#3E4548" d="M238.928,139.752l-26.105,0.099c0,0-0.389,9.94-0.582,12.352c-0.193,2.414,10.33-3.57,11.678-5.404
				c1.354-1.834,11.393-3.766,13.033-3.863C237.658,141.289,238.928,139.752,238.928,139.752"/>
			<path fill="#44140C" d="M309.114,293.518c0,0,35.068-1.492,35.814-16.414c0.744-14.922-17.906-26.111-10.445-26.111
				s20.891,1.49,17.16-12.686c-3.73-14.174-25.367-19.399-1.492-26.859c23.873-7.463,58.94-4.477,56.703-62.671
				c-1.26-32.704-43.508-127.879-105.197-128.615c-62.671-0.746-51.482,19.396-69.388,32.828
				c-17.904,13.43-36.686,18.457-19.396,57.592c21.412,48.474-1.494,106.089,5.967,121.011
				c7.463,14.922,20.146,12.682,11.938,33.574c-8.205,20.891,11.191,42.525,25.369,32.082
				C270.32,286.803,309.114,293.518,309.114,293.518"/>
			<path fill="#E4BCA7" d="M247.906,240.861c0,0,10.248,32.158-1.061,55.129c-14.39,29.232-4.24,22.617-2.119,35.338
				c2.119,12.725,4.314,21.596,4.314,21.596s20.422-32.551,27.49-37.498c7.069-4.947,27.564-28.623,27.564-28.623
				c-14.009-13.971-12.96-33.105-1.412-55.836L247.906,240.861z"/>
			
				<path fill="none" stroke="#734538" stroke-width="0.941" stroke-linecap="round" stroke-linejoin="round" stroke-miterlimit="10" d="
				M247.906,240.861c0,0,10.248,32.158-1.061,55.129c-14.39,29.232-4.24,22.617-2.119,35.338
				c2.119,12.725,4.314,21.596,4.314,21.596s20.422-32.551,27.49-37.498c7.069-4.947,27.564-28.623,27.564-28.623
				c-14.009-13.971-12.96-33.105-1.412-55.836L247.906,240.861z"/>
			<path fill="#BC988A" d="M262.488,267.137c5.723,0.369,20.414-9.629,34.738-23.478c1.41-4.092,3.236-8.326,5.457-12.693
				l-54.777,9.896c0,0,2.377,7.477,3.574,17.783C255.47,263.816,259.183,266.924,262.488,267.137"/>
			<path fill="#44140C" d="M233.762,58.126c0,0-21.637-1.119-29.469,23.129c-7.832,24.247,4.104,49.243,16.787,54.092
				C233.762,140.195,233.762,58.126,233.762,58.126"/>
			<path fill="#E4BCA7" d="M280.767,48.8c-40.801,0-66.404,14.176-64.537,46.258c1.865,32.082,10.816,33.2,4.104,52.971
				c-6.717,19.774-11.193,29.958-1.867,51.481c15.896,36.676,32.454,57.449,44.021,58.193c11.563,0.748,59.685-31.334,67.519-61.553
				c7.834-30.215,19.397-76.473,11.189-103.331C332.989,65.962,320.309,48.8,280.767,48.8"/>
			
				<path fill="none" stroke="#734538" stroke-width="0.941" stroke-linecap="round" stroke-linejoin="round" stroke-miterlimit="10" d="
				M280.767,48.8c-40.801,0-66.404,14.176-64.537,46.258c1.865,32.082,10.816,33.2,4.104,52.971
				c-6.717,19.774-11.193,29.958-1.867,51.481c15.896,36.676,32.454,57.449,44.021,58.193c11.563,0.748,59.685-31.334,67.519-61.553
				c7.834-30.215,19.397-76.473,11.189-103.331C332.989,65.962,320.309,48.8,280.767,48.8z"/>
			<path fill="#E4BCA7" d="M255.275,143.303c0.621,6.344,0.246,27.607-9.824,34.323c-10.072,6.714,0.25,9.075,5.844,9.699
				c5.598,0.622,14.426-0.374,16.414-2.24"/>
			
				<path fill="none" stroke="#734538" stroke-width="0.941" stroke-linecap="round" stroke-linejoin="round" stroke-miterlimit="10" d="
				M255.275,143.303c0.621,6.344,0.246,27.607-9.824,34.323c-10.072,6.714,0.25,9.075,5.844,9.699
				c5.598,0.622,14.426-0.374,16.414-2.24"/>
			<path fill="#A43E3E" d="M258.939,218.88c-5.33-0.26-13.592-4.806-14.027-9.238l29.5-0.584
				C274.412,209.059,271.601,219.496,258.939,218.88"/>
			<path fill="#7F1416" d="M277.997,207.375c0.813-0.193-2.217,4.734-21.076,3.764c-18.855-0.973-18.359-4.732-18.359-4.732
				s4.395,1.425,8.001-0.666c3.475-2.013,8.609-1.823,14.83-0.934C267.615,205.695,271.753,208.855,277.997,207.375"/>
			<g>
				<g>
					<path fill="#44140C" d="M318.567,134.911c-1.682-2.382-7.074-9.355-15.916-8.504c-8.842,0.853-17.001,3.392-17.122,6.233
						c-0.119,2.837,4.523,1.418,10.046,0c5.529-1.42,13.928-2.556,17.467-0.286C316.577,134.627,320.249,137.291,318.567,134.911"/>
					<path fill="#BC988A" d="M329.727,184.281c-2.799,36.591-61.58,75.383-73.019,69.787c-0.758-0.367-1.711-0.225-2.6-0.49
						c3.082,2.131,5.965,3.309,8.568,3.475c11.566,0.748,59.687-31.334,67.521-61.553L329.727,184.281z"/>
					<path fill="#BC988A" d="M277.783,75.372c-7.463,5.969-8.955-4.479-13.43-5.967c-24.125-7.098-40.146,19.542-45.507,41.423
						c6.482-4.807,12.68-12.327,12.68-12.327l15.997-17.391c6.1-1.949,12.631-1.545,14.59,1.723
						c5.006,8.342,16.414,11.189,31.337-0.747c14.92-11.937,23.127,2.583,18.652,17.505c-4.478,14.921-0.748,18.996,8.205,20.488
						c8.953,1.493,19.398,25.712,14.922,34.663c0,0,1.935,1.998,10.766-7.338c-2.687-28.404-18.437-39.125-24.939-66.063
						C315.085,61.943,294.194,63.435,277.783,75.372"/>
					<path fill="#D2AC9B" d="M224.435,202.494c-15.295-36.93-4.242-35.564-0.811-58.053c3.146-20.64,0.438-14.317-1.426-46.399
						c-0.311-5.332,0.154-10.161,1.305-14.521c-2.111,1.45-4.459,2.553-7.104,3.209c-0.277,2.631-0.34,5.404-0.17,8.328
						c1.865,32.082,10.816,33.2,4.102,52.971c-6.715,19.774-11.191,29.958-1.863,51.481c14.738,34.012,30.046,54.33,41.418,57.701
						C249.261,249.873,236.291,231.117,224.435,202.494"/>
					<path fill="#44140C" d="M247.833,135.844c3.131,1.926,5.303-2.068,1.766-4.623c-3.537-2.557-11.054-3.394-16.138-3.109
						c-5.082,0.283-10.166,3.961-11.271,6.516c-1.105,2.555,1.648-0.721,3.756-1.42C232.357,131.078,240.096,131.1,247.833,135.844"
						/>
					<path fill="#44140C" d="M232.269,46.618c0,0-39.541,18.855-27.979,50.563c11.564,31.708,27.234-4.849,27.234-4.849
						l17.158-18.655L232.269,46.618z"/>
					<path fill="#4E1A13" d="M262.113,76.663c5.006,8.34,16.414,11.191,31.335-0.745c14.922-11.938,23.131-6.972,18.654,7.95
						c-4.478,14.92-0.748,25.366,8.205,26.856c8.953,1.492,19.398,32.082,14.922,41.035c-4.477,8.954-1.494,17.161-1.494,17.161
						s5.223-23.13,19.4-29.845c14.176-6.715,5.223-49.989-8.955-52.97c-14.174-2.986,16.416,2.492,5.223-23.617
						c-11.19-26.114-21.635-42.529-52.223-46.259c-30.589-3.729-63.419,11.938-64.911,33.574
						c-1.49,21.636,5.969,29.097,12.685,26.113C251.669,72.933,259.876,72.933,262.113,76.663"/>
					<path opacity="0.2" enable-background="new    " d="M298.091,273.557c0,0,30.105,21.506,29.602,30.311
						c-0.506,8.807-3.672,29.119-14.82,33.5c-8.543,3.355-8.711-22.471-22.196-17.193c-13.489,5.277-37.024,25.992-41.715,33.615
						c0,0,27.641-54.139,44.056-60.002c3.627-0.838,11.932-5.641,8.92-9.229C299.683,281.877,298.415,276.469,298.091,273.557"/>
					<path opacity="0.2" enable-background="new    " d="M251.087,283.805c-0.355,17.67-14.929,24.713-3.221,44.578
						c0,0,3.439,16.728,1.094,26.111c0,0-5.197-22.006-14.58-26.111c-9.381-4.104-18.764,11.141-18.764,11.141
						s1.76-38.699,15.832-49.254C245.523,279.715,251.087,283.805,251.087,283.805"/>
					<path fill="#C6C5C5" d="M251.087,279.027c-0.355,17.67-14.929,24.715-3.221,44.578c0,0,3.52,19.938,1.174,29.32
						c0,0-5.277-25.217-14.66-29.32c-9.381-4.105-18.764,11.141-18.764,11.141s1.76-38.701,15.832-49.256
						C245.523,274.934,251.087,279.027,251.087,279.027"/>
					
						<path fill="none" stroke="#585A5B" stroke-width="0.957" stroke-linecap="round" stroke-linejoin="round" stroke-miterlimit="10" d="
						M251.087,279.027c-0.355,17.67-14.929,24.715-3.221,44.578c0,0,3.52,19.938,1.174,29.32c0,0-5.277-25.217-14.66-29.32
						c-9.381-4.105-18.764,11.141-18.764,11.141s1.76-38.701,15.832-49.256C245.523,274.934,251.087,279.027,251.087,279.027z"/>
					<path fill="#144B8B" d="M250.632,278.787c-1.551-0.695-7.349-2.168-19.183,6.705c-14.072,10.553-15.832,49.254-15.832,49.254
						s8.371-13.592,17.205-11.641C231.685,307.051,238.93,290.758,250.632,278.787"/>
					<path opacity="0.2" enable-background="new    " d="M250.632,278.787c-11.703,11.971-18.947,28.264-17.81,44.318
						c0.52,0.113,1.039,0.272,1.561,0.5c9.381,4.104,14.658,29.318,14.658,29.318c2.346-9.381-1.174-29.318-1.174-29.318
						c-11.707-19.863,2.865-26.908,3.221-44.578C251.087,279.027,250.927,278.92,250.632,278.787"/>
					<path fill="#C6C5C5" d="M294.907,268.777c0,0,32.627,12.598,32.121,21.404c-0.504,8.807-7.035,38.115-15.246,42.221
						c-8.209,4.104-7.621-22.285-21.107-17.008c-13.489,5.277-36.942,29.906-41.635,37.529c0,0,27.56-58.051,43.98-63.914
						c3.623-0.84,8.744-5.645,5.73-9.228C296.497,277.1,295.229,271.691,294.907,268.777"/>
					
						<path fill="none" stroke="#585A5B" stroke-width="0.957" stroke-linecap="round" stroke-linejoin="round" stroke-miterlimit="10" d="
						M294.907,268.777c0,0,32.627,12.598,32.121,21.404c-0.504,8.807-7.035,38.115-15.246,42.221
						c-8.209,4.104-7.621-22.285-21.107-17.008c-13.489,5.277-36.942,29.906-41.635,37.529c0,0,27.56-58.051,43.98-63.914
						c3.623-0.84,8.744-5.645,5.73-9.228C296.497,277.1,295.229,271.691,294.907,268.777z"/>
					<path fill="#144B8B" d="M295.173,269.359c0.316,2.859,1.561,8.17,3.773,10.803c0.795,0.947,1,1.98,0.826,3.002
						c1.293,2.988,2.268,6.652,0.922,8c-8.459,6.764-9.134,14.902-7.73,23.422c11.248-2.004,11.139,21.064,18.779,17.242
						c8.065-4.031,14.475-32.807,14.971-41.455C327.208,281.727,295.173,269.359,295.173,269.359"/>
					<path opacity="0.2" enable-background="new    " d="M300.53,290.984c1.373-1.371,0.377-5.102-0.941-8.145
						c-0.484,2.824-3.922,5.557-6.568,6.17c-16.419,5.863-43.98,63.914-43.98,63.914c4.693-7.623,28.146-32.252,41.635-37.529
						c0.701-0.272,1.353-0.441,1.982-0.555C291.228,306.162,291.919,297.875,300.53,290.984"/>
					<g>
						<g opacity="0.3">
							<g>
								<defs>
									<rect id="SVGID_3_" x="318.933" y="146.121" width="26.687" height="13.019"/>
								</defs>
								<clipPath id="SVGID_4_">
									<use xlink:href="#SVGID_3_"  overflow="visible"/>
								</clipPath>
								<path clip-path="url(#SVGID_4_)" d="M345.626,146.123l-26.105,0.098c0,0-0.385,9.939-0.582,12.352
									c-0.189,2.415,10.332-3.569,11.682-5.403c1.354-1.834,11.391-3.766,13.033-3.863
									C344.358,147.66,345.626,146.123,345.626,146.123"/>
							</g>
						</g>
						<g>
							<g opacity="0.3">
								<g>
									<defs>
										<rect id="SVGID_5_" x="216.244" y="138.611" width="103.753" height="28.303"/>
									</defs>
									<defs>
										<rect id="SVGID_6_" x="216.244" y="138.611" width="103.753" height="28.303"/>
									</defs>
									<defs>
										<rect id="SVGID_7_" x="216.244" y="138.611" width="103.753" height="28.303"/>
									</defs>
									<clipPath id="SVGID_8_">
										<use xlink:href="#SVGID_5_"  overflow="visible"/>
									</clipPath>
									<clipPath id="SVGID_9_" clip-path="url(#SVGID_8_)">
										<use xlink:href="#SVGID_6_"  overflow="visible"/>
									</clipPath>
									<clipPath id="SVGID_10_" clip-path="url(#SVGID_9_)">
										<use xlink:href="#SVGID_7_"  overflow="visible"/>
									</clipPath>
									<path clip-path="url(#SVGID_10_)" fill="none" stroke="#000000" stroke-width="0.957" stroke-miterlimit="10" d="
										M221.557,139.42c9.787-0.077,19.725,0.605,29.833,2.145c1.395,0.077,2.451,1.475,2.357,3.121
										c0.199,4.437-1.121,9.046-2.102,14.628c-0.096,1.72-1.41,3.013-2.861,2.817c-11.767,0.293-22.544-1.037-32.312-4.006"/>
									<path clip-path="url(#SVGID_10_)" fill="none" stroke="#000000" stroke-width="0.957" stroke-miterlimit="10" d="
										M274.597,163.852c12.337,1.719,30.683,3.4,41.209,1.237c1.336-0.025,2.445-1.268,2.537-2.838
										c0.496-3.48,0.914-10.463,0.858-15.086c0.094-1.643-0.965-3.043-2.361-3.121c-11.459-1.746-30.331-1.379-42.494-0.924
										c-1.398-0.082-2.605,1.188-2.697,2.834c-0.703,4.385,0.088,9.116,0.426,14.771
										C271.976,162.446,273.13,163.881,274.597,163.852z"/>
									<path clip-path="url(#SVGID_10_)" fill="none" stroke="#000000" stroke-width="0.957" stroke-miterlimit="10" d="
										M253.871,146.25c0,0,1.076-3.948,7.563-3.955c6.484-0.003,9.803,8.953,9.803,8.953"/>
								</g>
							</g>
							<g>
								<g opacity="0.24">
									<g>
										<defs>
											<rect id="SVGID_11_" x="212.564" y="138.397" width="106.634" height="26.688"/>
										</defs>
										<defs>
											<rect id="SVGID_12_" x="212.564" y="138.397" width="106.634" height="26.688"/>
										</defs>
										<clipPath id="SVGID_13_">
											<use xlink:href="#SVGID_11_"  overflow="visible"/>
										</clipPath>
										<clipPath id="SVGID_14_" clip-path="url(#SVGID_13_)">
											<use xlink:href="#SVGID_12_"  overflow="visible"/>
										</clipPath>
										<path clip-path="url(#SVGID_14_)" fill="#F3F2F2" d="M248.785,161.11c-12.449,0.308-23.789-1.196-33.996-4.54
											c-1.328-0.176-2.287-1.534-2.199-3.108c-0.1-3.512,0.109-7.515,0.689-12.104c0.092-1.645,1.301-2.913,2.699-2.835
											c11.584-0.432,23.379,0.188,35.412,2.016c1.397,0.082,2.449,1.48,2.357,3.125c0.197,4.439-1.121,9.047-2.1,14.627
											C251.55,160.013,250.238,161.305,248.785,161.11"/>
										<path clip-path="url(#SVGID_14_)" fill="#F3F2F2" d="M274.597,162.83c12.337,1.721,30.683,3.4,41.209,1.239
											c1.336-0.026,2.445-1.269,2.537-2.839c0.496-3.479,0.914-10.465,0.858-15.085c0.094-1.645-0.965-3.044-2.361-3.123
											c-11.459-1.745-30.331-1.378-42.494-0.924c-1.398-0.079-2.605,1.188-2.697,2.834c-0.703,4.387,0.088,9.118,0.426,14.772
											C271.976,161.426,273.13,162.859,274.597,162.83"/>
									</g>
								</g>
								<path fill="#4E595F" d="M345.626,144.529l-26.105,0.098c0,0-0.385,9.943-0.582,12.354
									c-0.189,2.416,10.332-3.57,11.682-5.402c1.354-1.836,11.391-3.768,13.033-3.862
									C344.358,146.067,345.626,144.529,345.626,144.529"/>
								<path fill="none" stroke="#4E595F" stroke-width="0.957" stroke-miterlimit="10" d="M248.785,161.11
									c-12.449,0.308-23.789-1.196-33.996-4.54c-1.328-0.176-2.287-1.534-2.199-3.108c-0.1-3.512,0.109-7.515,0.689-12.104
									c0.092-1.645,1.301-2.913,2.699-2.835c11.584-0.432,23.379,0.188,35.412,2.016c1.397,0.082,2.449,1.48,2.357,3.125
									c0.197,4.439-1.121,9.047-2.1,14.627C251.55,160.013,250.238,161.305,248.785,161.11z"/>
								<path fill="none" stroke="#4E595F" stroke-width="0.957" stroke-miterlimit="10" d="M274.597,162.83
									c12.337,1.721,30.683,3.4,41.209,1.239c1.336-0.026,2.445-1.269,2.537-2.839c0.496-3.479,0.914-10.465,0.858-15.085
									c0.094-1.645-0.965-3.044-2.361-3.123c-11.459-1.745-30.331-1.378-42.494-0.924c-1.398-0.079-2.605,1.188-2.697,2.834
									c-0.703,4.387,0.088,9.118,0.426,14.772C271.976,161.426,273.13,162.859,274.597,162.83z"/>
								<path fill="none" stroke="#4E595F" stroke-width="0.957" stroke-miterlimit="10" d="M253.871,145.229
									c0,0,1.076-3.947,7.563-3.954c6.484-0.003,9.803,8.952,9.803,8.952"/>
								<path fill="#E4BCA7" d="M337.989,155.191c2.352-4.201,13.264-20.373,18.811-10.457c5.547,9.914,3.707,32.976-6.207,36.672
									c-9.916,3.699-3.529,10.589-9.242,16.302c-5.715,5.714-10.514-0.395-11.354-4.933"/>
								
									<path fill="none" stroke="#734538" stroke-width="0.941" stroke-linecap="round" stroke-linejoin="round" stroke-miterlimit="10" d="
									M337.989,155.191c2.352-4.201,13.264-20.373,18.811-10.457c5.547,9.914,3.707,32.976-6.207,36.672
									c-9.916,3.699-3.529,10.589-9.242,16.302c-5.715,5.714-10.514-0.395-11.354-4.933"/>
								<path fill="#E4BCA7" d="M345.905,159.468c9.145-4.015,10.031,12.334-1.117,14.724c-6.248,1.34-11.375,6.914-11.152,12.491"
									/>
								
									<path fill="none" stroke="#734538" stroke-width="0.941" stroke-linecap="round" stroke-linejoin="round" stroke-miterlimit="10" d="
									M345.905,159.468c9.145-4.015,10.031,12.334-1.117,14.724c-6.248,1.34-11.375,6.914-11.152,12.491"/>
							</g>
						</g>
					</g>
				</g>
			</g>
		</g>
	</g>
</g>
</svg>
