<!-- Generator: Adobe Illustrator 17.0.0, SVG Export Plug-In  -->
<svg version="1.1"
	 xmlns="http://www.w3.org/2000/svg" xmlns:xlink="http://www.w3.org/1999/xlink" xmlns:a="http://ns.adobe.com/AdobeSVGViewerExtensions/3.0/"
	 x="0px" y="0px" width="57.246px" height="12.291px" viewBox="0 0 57.246 12.291"
	 style="enable-background:new 0 0 57.246 12.291;" xml:space="preserve">
<style type="text/css">
	.st0{fill:#571B01;}
	.st1{fill:#FFFFFF;}
	.st2{clip-path:url(#SVGID_2_);}
	.st3{fill:#BC682A;}
	.st4{fill:#713213;}
	.st5{clip-path:url(#SVGID_4_);}
	.st6{clip-path:url(#SVGID_6_);}
	.st7{clip-path:url(#SVGID_8_);}
</style>
<defs>
</defs>
<g>
	<path class="st0" d="M57.246,6.523c0,0-3.378-7.005-9.884-6.006s-11.24,6.576-11.063,7.382c0.177,0.806,1.742,3.879,10.469,3.128
		S56.621,7.899,57.246,6.523z"/>
	<path class="st1" d="M57.246,6.523c0,0-4.88-4.252-11.386-3.252s-9.739,3.822-9.561,4.628c0.177,0.806,1.742,3.879,10.469,3.128
		S56.621,7.899,57.246,6.523z"/>
	<g>
		<defs>
			<path id="SVGID_1_" d="M57.246,6.523c0,0-4.88-4.252-11.386-3.252s-9.739,3.822-9.561,4.628
				c0.177,0.806,1.742,3.879,10.469,3.128S56.621,7.899,57.246,6.523z"/>
		</defs>
		<clipPath id="SVGID_2_">
			<use xlink:href="#SVGID_1_"  style="overflow:visible;"/>
		</clipPath>
		<g class="st2">
			<circle class="st3" cx="48.863" cy="6.535" r="5.755"/>
			<circle class="st4" cx="48.863" cy="6.535" r="3.119"/>
			<circle class="st1" cx="51.39" cy="5.272" r="1.376"/>
		</g>
	</g>
</g>
<g>
	<path class="st0" d="M0,5.647c0,0,3.126-6.482,9.146-5.557s10.401,6.085,10.236,6.831c-0.164,0.746-1.612,3.589-9.687,2.894
		S0.579,6.921,0,5.647z"/>
	<path class="st1" d="M0,5.647c0,0,4.515-3.934,10.535-3.009s9.011,3.537,8.847,4.282c-0.164,0.746-1.612,3.589-9.687,2.894
		S0.579,6.921,0,5.647z"/>
	<g>
		<defs>
			<path id="SVGID_3_" d="M0,5.647c0,0,4.515-3.934,10.535-3.009s9.011,3.537,8.847,4.282c-0.164,0.746-1.612,3.589-9.687,2.894
				S0.579,6.921,0,5.647z"/>
		</defs>
		<clipPath id="SVGID_4_">
			<use xlink:href="#SVGID_3_"  style="overflow:visible;"/>
		</clipPath>
		<g class="st5">
			<circle class="st3" cx="11.848" cy="5.659" r="5.326"/>
			<circle class="st4" cx="11.848" cy="5.659" r="2.886"/>
			<circle class="st1" cx="14.186" cy="4.49" r="1.273"/>
		</g>
	</g>
</g>
</svg>