<?xml version="1.0" encoding="utf-8"?>
<!-- Generator: Adobe Illustrator 17.0.0, SVG Export Plug-In . SVG Version: 6.00 Build 0)  -->
<!DOCTYPE svg PUBLIC "-//W3C//DTD SVG 1.1//EN" "http://www.w3.org/Graphics/SVG/1.1/DTD/svg11.dtd" [
	<!ENTITY ns_extend "http://ns.adobe.com/Extensibility/1.0/">
	<!ENTITY ns_ai "http://ns.adobe.com/AdobeIllustrator/10.0/">
	<!ENTITY ns_graphs "http://ns.adobe.com/Graphs/1.0/">
	<!ENTITY ns_vars "http://ns.adobe.com/Variables/1.0/">
	<!ENTITY ns_imrep "http://ns.adobe.com/ImageReplacement/1.0/">
	<!ENTITY ns_sfw "http://ns.adobe.com/SaveForWeb/1.0/">
	<!ENTITY ns_custom "http://ns.adobe.com/GenericCustomNamespace/1.0/">
	<!ENTITY ns_adobe_xpath "http://ns.adobe.com/XPath/1.0/">
]>
<svg version="1.1" id="Capa_1" xmlns:x="&ns_extend;" xmlns:i="&ns_ai;" xmlns:graph="&ns_graphs;"
	 xmlns="http://www.w3.org/2000/svg" xmlns:xlink="http://www.w3.org/1999/xlink" x="0px" y="0px" width="512.396px"
	 height="875.369px" viewBox="0 0 512.396 875.369" enable-background="new 0 0 512.396 875.369" xml:space="preserve">
<metadata>
	<sfw  xmlns="&ns_sfw;">
		<slices></slices>
		<sliceSourceBounds  width="499.801" height="875.368" y="-41.183" x="61.897" bottomLeftOrigin="true"></sliceSourceBounds>
	</sfw>
</metadata>
<g>
	<rect x="77.129" y="359.657" width="41.301" height="2.044"/>
	<rect x="24.209" y="359.657" width="41.304" height="2.044"/>
	<rect x="12.595" y="359.657" width="3.871" height="2.044"/>
</g>
<g>
	<rect x="400.788" y="487.316" width="41.301" height="2.044"/>
	<rect x="453.705" y="487.316" width="41.304" height="2.044"/>
	<rect x="502.752" y="487.316" width="3.871" height="2.044"/>
</g>
<g>
	
		<radialGradient id="SVGID_1_" cx="-443.791" cy="885.2175" r="23.3689" gradientTransform="matrix(1 0 0 -1 488 1140.738)" gradientUnits="userSpaceOnUse">
		<stop  offset="0" style="stop-color:#8CBB69"/>
		<stop  offset="0.7837" style="stop-color:#6BAD44"/>
	</radialGradient>
	<polygon fill="url(#SVGID_1_)" points="68.418,233.023 20,233.023 20,265.975 44.883,265.975 44.883,278.018 57.318,265.975 
		68.418,265.975 	"/>
	
		<line fill="none" stroke="#231F20" stroke-width="3.2" stroke-linejoin="round" stroke-miterlimit="10" x1="26.053" y1="239.749" x2="35.468" y2="239.749"/>
	
		<line fill="none" stroke="#231F20" stroke-width="3.2" stroke-linejoin="round" stroke-miterlimit="10" x1="26.053" y1="247.145" x2="63.043" y2="247.145"/>
	
		<line fill="none" stroke="#231F20" stroke-width="3.2" stroke-linejoin="round" stroke-miterlimit="10" x1="26.053" y1="254.542" x2="63.043" y2="254.542"/>
	
		<line fill="none" stroke="#231F20" stroke-width="3.2" stroke-linejoin="round" stroke-miterlimit="10" x1="26.053" y1="260.594" x2="34.124" y2="260.594"/>
	
		<line fill="none" stroke="#231F20" stroke-width="3.2" stroke-linejoin="round" stroke-miterlimit="10" x1="39.503" y1="260.594" x2="49.59" y2="260.594"/>
	
		<line fill="none" stroke="#231F20" stroke-width="3.2" stroke-linejoin="round" stroke-miterlimit="10" x1="52.952" y1="260.594" x2="63.043" y2="260.594"/>
	
		<line fill="none" stroke="#231F20" stroke-width="3.2" stroke-linejoin="round" stroke-miterlimit="10" x1="40.175" y1="239.749" x2="63.043" y2="239.749"/>
</g>
<g>
	
		<radialGradient id="SVGID_2_" cx="-58.504" cy="994.4005" r="23.3689" gradientTransform="matrix(1 0 0 -1 488 1140.738)" gradientUnits="userSpaceOnUse">
		<stop  offset="0" style="stop-color:#8CBB69"/>
		<stop  offset="0.7837" style="stop-color:#6BAD44"/>
	</radialGradient>
	<polygon fill="url(#SVGID_2_)" points="453.705,123.84 405.287,123.84 405.287,156.792 430.17,156.792 430.17,168.835 
		442.605,156.792 453.705,156.792 	"/>
	
		<line fill="none" stroke="#231F20" stroke-width="3.2" stroke-linejoin="round" stroke-miterlimit="10" x1="411.34" y1="130.567" x2="420.755" y2="130.567"/>
	
		<line fill="none" stroke="#231F20" stroke-width="3.2" stroke-linejoin="round" stroke-miterlimit="10" x1="411.34" y1="137.962" x2="448.33" y2="137.962"/>
	
		<line fill="none" stroke="#231F20" stroke-width="3.2" stroke-linejoin="round" stroke-miterlimit="10" x1="411.34" y1="145.36" x2="448.33" y2="145.36"/>
	
		<line fill="none" stroke="#231F20" stroke-width="3.2" stroke-linejoin="round" stroke-miterlimit="10" x1="411.34" y1="151.412" x2="419.411" y2="151.412"/>
	
		<line fill="none" stroke="#231F20" stroke-width="3.2" stroke-linejoin="round" stroke-miterlimit="10" x1="424.79" y1="151.412" x2="434.877" y2="151.412"/>
	
		<line fill="none" stroke="#231F20" stroke-width="3.2" stroke-linejoin="round" stroke-miterlimit="10" x1="438.239" y1="151.412" x2="448.33" y2="151.412"/>
	
		<line fill="none" stroke="#231F20" stroke-width="3.2" stroke-linejoin="round" stroke-miterlimit="10" x1="425.462" y1="130.567" x2="448.33" y2="130.567"/>
</g>
<g>
	<rect x="350.357" y="236.955" width="83.854" height="2.066"/>
	<rect x="350.357" y="230.336" width="55.165" height="2.068"/>
</g>
<g>
	<rect x="76.503" y="305.042" width="83.854" height="2.066"/>
	<rect x="105.192" y="298.423" width="55.165" height="2.068"/>
</g>
<g>
	<g>
		<g>
			<g>
				<defs>
					<rect id="SVGID_3_" x="39.351" width="473.045" height="535.678"/>
				</defs>
				<clipPath id="SVGID_4_">
					<use xlink:href="#SVGID_3_"  overflow="visible"/>
				</clipPath>
				<g clip-path="url(#SVGID_4_)">
					<path fill="#1E2133" d="M278.535,271.35c0,7.27,8.837,13.161,19.738,13.161s23.017-14.318,23.017-21.585
						c0-7.268-16.141-3.93-27.043-3.93C283.345,258.996,278.535,264.084,278.535,271.35"/>
					<path fill="none" stroke="#52586D" stroke-width="1.208" stroke-miterlimit="10" d="M278.535,271.35
						c0,7.27,8.837,13.161,19.738,13.161s23.017-14.318,23.017-21.585c0-7.268-16.141-3.93-27.043-3.93
						C283.345,258.996,278.535,264.084,278.535,271.35z"/>
					<path fill="#C1716B" d="M213.01,257.51c0.227,2.34,2.402,4.04,4.862,3.804c2.459-0.236,4.268-2.322,4.044-4.662
						c-0.227-2.338-2.4-4.043-4.859-3.806C214.596,253.083,212.785,255.171,213.01,257.51"/>
					
						<ellipse transform="matrix(-0.0959 -0.9954 0.9954 -0.0959 -17.5641 498.1931)" fill="none" stroke="#BA645D" stroke-width="1.208" stroke-miterlimit="10" cx="217.469" cy="257.073" rx="4.253" ry="4.474"/>
					<path fill="#FFC691" d="M182.658,294.185c0,0-30.618,62.829-31.988,66.395c-1.376,3.568-18.383,42.06-20.028,45.858
						c-1.646,3.803-31.81,15.892-39.708,47.191c0.822,4.408,16.111,8.19,17.21,7.092c1.098-1.096,20.242-3.344,20.242-3.344
						s17.894-15.234,18.718-27.21c1.972-9.426,6.035-12.796,7.134-13.619c1.097-0.824,25.787-36.487,31.825-43.622
						c6.033-7.134,14.114-42.8,15.151-43.897c1.034-1.098,7.618-26.338,7.892-27.162c0.276-0.823-3.547-7.683-3.547-7.683
						L182.658,294.185L182.658,294.185z"/>
					<path fill="none" stroke="#F1B486" stroke-width="1.208" stroke-miterlimit="10" d="M182.658,294.185
						c0,0-30.618,62.829-31.988,66.395c-1.376,3.568-18.383,42.06-20.028,45.858c-1.646,3.803-31.81,15.892-39.708,47.191
						c0.822,4.408,16.111,8.19,17.21,7.092c1.098-1.096,20.242-3.344,20.242-3.344s17.894-15.234,18.718-27.21
						c1.972-9.426,6.035-12.796,7.134-13.619c1.097-0.824,25.787-36.487,31.825-43.622c6.033-7.134,14.114-42.8,15.151-43.897
						c1.034-1.098,7.618-26.338,7.892-27.162c0.276-0.823-3.547-7.683-3.547-7.683L182.658,294.185L182.658,294.185z"/>
					<path fill="#6D6E71" d="M181.696,469.319c0,0-5.005,4.238-7.061,0.771c-2.057-3.463-1.165-8.857,1.791-13.477
						c2.958-4.623,6.038-10.528,6.424-10.912c0.384-0.385,2.697-8.985,2.697-8.985l4.749-6.547c0,0,1.772,7.44,1.468,7.829
						c-0.356,0.456-4.862,26.561-8.668,29.979L181.696,469.319z"/>
					<path fill="#FFC691" d="M297.605,197.097c0,0-9.255,58.927-4.435,64.752c4.814,5.83-2.679,54.202-15.516,56.787
						c-12.835,2.588-43.967-14.343-45.796-22.23c-1.832-7.885,2.58-21.784,5.233-25.477c2.659-3.691,6.983-30.993,7.209-35.898
						c0.229-4.901-0.311-22.034,0.294-23.853C245.201,209.356,292.258,178.993,297.605,197.097"/>
					<path fill="none" stroke="#F1B486" stroke-width="1.208" stroke-miterlimit="10" d="M297.605,197.097
						c0,0-9.255,58.927-4.435,64.752c4.814,5.83-2.679,54.202-15.516,56.787c-12.835,2.588-43.967-14.343-45.796-22.23
						c-1.832-7.885,2.58-21.784,5.233-25.477c2.659-3.691,6.983-30.993,7.209-35.898c0.229-4.901-0.311-22.034,0.294-23.853
						C245.201,209.356,292.258,178.993,297.605,197.097z"/>
					<path fill="#F1B486" d="M288.106,210.535c0,0-4.958,34.207-7.453,39.334c-2.494,5.128-5.31,5.973-5.303,12.757
						c0.009,6.778,4.509,31.813-5.363,36.71c-9.869,4.898-25.633,17.843-25.633,17.843s39.668-0.717,43.583-5.55
						c3.913-4.829,12.378-40.483,12.378-40.483s-9.125-12.188-8.521-19.942c0.595-7.759,4.084-42.232,4.084-42.232l0.168-8.607
						L288.106,210.535z"/>
					<path fill="#F1B486" d="M169.707,319.767l-1.893,4.967c0,0,15.804,3.213,18.448,3.78c2.643,0.567,0,21.295,0,21.887
						c0,0.583-8.646,22.096-12.537,27.105c-3.891,5.016-24.827,36.738-26.067,37.304c-1.241,0.568,0.107,2.834,0,3.591
						c-0.107,0.756-0.674,9.253-3.507,15.296c-2.832,6.044-12.022,16.769-13.91,17.213c-1.891,0.441,1.324,4.475,1.324,4.475
						s13.357-15.637,14.398-19.949c1.041-4.316,2.073-9.484,3.078-11.592c1.002-2.104,5.196-7.294,5.196-7.294
						s15.151-20.98,16.049-22.233c0.895-1.253,13.404-19.651,15.776-21.39c2.373-1.739,7.149-15.707,9.526-20.431
						c2.381-4.722,3.86-22.111,5.625-23.466c1.762-1.357,3.541-5.615,3.541-5.615l-12.956-1.949l-17.893-1.424L169.707,319.767z"/>
					<rect x="286.951" y="696.5" fill="#808589" width="16.459" height="74.885"/>
					
						<rect x="286.951" y="696.5" fill="none" stroke="#656C70" stroke-width="1.133" stroke-miterlimit="10" width="16.459" height="74.885"/>
					<path fill="#252728" d="M305.681,698.185h-21.503c-2.841,0-5.182-2.232-5.316-5.07l-3.81-79.995h39.753l-3.807,79.995
						C310.862,695.952,308.522,698.185,305.681,698.185"/>
					<path fill="none" stroke="#000000" stroke-width="1.133" stroke-miterlimit="10" d="M305.681,698.185h-21.503
						c-2.841,0-5.182-2.232-5.316-5.07l-3.81-79.995h39.753l-3.807,79.995C310.862,695.952,308.522,698.185,305.681,698.185z"/>
					<path fill="#1A1B1C" d="M315.872,848.545c0,11.43-9.262,20.693-20.691,20.693c-11.427,0-20.695-9.264-20.695-20.693
						s9.269-20.691,20.695-20.691C306.61,827.854,315.872,837.116,315.872,848.545"/>
					<circle fill="none" stroke="#000000" stroke-width="1.133" stroke-miterlimit="10" cx="295.179" cy="848.545" r="20.693"/>
					<path fill="#1A1B1C" d="M375.791,844.494c0,10.907-8.843,19.749-19.751,19.749c-10.906,0-19.75-8.842-19.75-19.749
						c0-10.907,8.844-19.746,19.75-19.746C366.948,824.748,375.791,833.587,375.791,844.494"/>
					<circle fill="none" stroke="#000000" stroke-width="1.133" stroke-miterlimit="10" cx="356.041" cy="844.494" r="19.75"/>
					<path fill="#1A1B1C" d="M254.105,844.494c0,10.907-8.842,19.749-19.749,19.749c-10.908,0-19.752-8.842-19.752-19.749
						c0-10.907,8.844-19.746,19.752-19.746C245.263,824.748,254.105,833.587,254.105,844.494"/>
					<circle fill="none" stroke="#000000" stroke-width="1.133" stroke-miterlimit="10" cx="234.354" cy="844.494" r="19.75"/>
					<path fill="#A0A6AA" d="M309.649,848.545c0,7.993-6.478,14.471-14.469,14.471c-7.99,0-14.47-6.478-14.47-14.471
						c0-7.991,6.479-14.468,14.47-14.468C303.172,834.077,309.649,840.554,309.649,848.545"/>
					<path fill="#A0A6AA" d="M368.885,844.494c0,7.096-5.749,12.843-12.845,12.843c-7.092,0-12.842-5.747-12.842-12.843
						c0-7.095,5.75-12.843,12.842-12.843C363.136,831.651,368.885,837.399,368.885,844.494"/>
					<path fill="#A0A6AA" d="M247.199,844.494c0,7.096-5.751,12.843-12.844,12.843c-7.093,0-12.843-5.747-12.843-12.843
						c0-7.095,5.75-12.843,12.843-12.843C241.448,831.651,247.199,837.399,247.199,844.494"/>
					<path fill="#1A1B1C" d="M307.479,846.42c0,6.82-5.523,12.343-12.342,12.343c-6.818,0-12.346-5.523-12.346-12.343
						c0-6.818,5.527-12.343,12.346-12.343C301.956,834.077,307.479,839.602,307.479,846.42"/>
					<path fill="none" stroke="#000000" stroke-width="1.133" stroke-miterlimit="10" d="M307.479,846.42
						c0,6.82-5.523,12.343-12.342,12.343c-6.818,0-12.346-5.523-12.346-12.343c0-6.818,5.527-12.343,12.346-12.343
						C301.956,834.077,307.479,839.602,307.479,846.42z"/>
					<path fill="#1A1B1C" d="M366.803,843.159c0,5.939-4.82,10.758-10.763,10.758c-5.941,0-10.757-4.818-10.757-10.758
						c0-5.945,4.815-10.762,10.757-10.762C361.982,832.398,366.803,837.214,366.803,843.159"/>
					<path fill="none" stroke="#000000" stroke-width="1.133" stroke-miterlimit="10" d="M366.803,843.159
						c0,5.939-4.82,10.758-10.763,10.758c-5.941,0-10.757-4.818-10.757-10.758c0-5.945,4.815-10.762,10.757-10.762
						C361.982,832.398,366.803,837.214,366.803,843.159z"/>
					<path fill="#1A1B1C" d="M244.771,843.159c0,5.751-4.662,10.414-10.416,10.414c-5.753,0-10.417-4.663-10.417-10.414
						c0-5.756,4.664-10.421,10.417-10.421C240.109,832.738,244.771,837.403,244.771,843.159"/>
					<path fill="none" stroke="#000000" stroke-width="1.133" stroke-miterlimit="10" d="M244.771,843.159
						c0,5.751-4.662,10.414-10.416,10.414c-5.753,0-10.417-4.663-10.417-10.414c0-5.756,4.664-10.421,10.417-10.421
						C240.109,832.738,244.771,837.403,244.771,843.159z"/>
					<path fill="#A0A6AA" d="M302.311,703.053c0,0-12.531-4.849-11.751,7.812v54.864c0,0-2.109,3.014,9.896,4.336h-11.984
						l-0.552-70.85h14.522L302.311,703.053z"/>
					<path fill="#808589" d="M366.803,798.985c-3.043-15.87-33.595-15.699-33.595-15.699h-17.643v-8.8
						c0-1.716-1.39-3.105-3.103-3.105h-35.068c-1.715,0-3.103,1.389-3.103,3.105v8.8h-25.828c-27.18,0-24.375,19.922-24.375,19.922
						v24.898c0,3.298,2.675,5.972,5.973,5.972h8.357c3.298,0,5.969-2.674,5.969-5.972v-2.263v-9.302
						c0-19.919,13.191-18.737,13.191-18.737l27.2-0.123v32.673c0,2.057,1.668,3.724,3.724,3.724h12.85
						c2.059,0,3.725-1.667,3.725-3.724V797.59l27.791-0.124c10.385,0,12.311,9.348,12.598,14.36v18.104
						c0,2.292,1.857,4.147,4.148,4.147h12.008c2.287,0,4.142-1.855,4.142-4.147v-30.004c0-0.054-0.012-0.103-0.014-0.157
						L366.803,798.985z"/>
					<path fill="none" stroke="#656C70" stroke-width="1.133" stroke-miterlimit="10" d="M366.803,798.985
						c-3.043-15.87-33.595-15.699-33.595-15.699h-17.643v-8.8c0-1.716-1.39-3.105-3.103-3.105h-35.068
						c-1.715,0-3.103,1.389-3.103,3.105v8.8h-25.828c-27.18,0-24.375,19.922-24.375,19.922v24.898c0,3.298,2.675,5.972,5.973,5.972
						h8.357c3.298,0,5.969-2.674,5.969-5.972v-2.263v-9.302c0-19.919,13.191-18.737,13.191-18.737l27.2-0.123v32.673
						c0,2.057,1.668,3.724,3.724,3.724h12.85c2.059,0,3.725-1.667,3.725-3.724V797.59l27.791-0.124
						c10.385,0,12.311,9.348,12.598,14.36v18.104c0,2.292,1.857,4.147,4.148,4.147h12.008c2.287,0,4.142-1.855,4.142-4.147v-30.004
						c0-0.054-0.012-0.103-0.014-0.157L366.803,798.985z"/>
					<path fill="#A0A6AA" d="M295.402,788.602c0,0-9.971-0.883-9.591,8.229l-0.011,31.146c0,0-1.255,5.977,5.961,4.761
						c0,0-2.278,0.179-3.417-5.518l-0.256-30.514C288.089,796.707,289.296,790.377,295.402,788.602"/>
					<path fill="#A0A6AA" d="M295.181,772.525h-15.573c0,0-5.442-1.268-4.179,5.314l-0.191,6.585l5.13-8.735L295.181,772.525z"/>
					<path fill="#A0A6AA" d="M239.471,785.437c0,0-14.687,1.394-14.053,20.006l-0.02,20.89c0,0-2.387,7.22,8.885,6.331
						c0,0-4.941-1.645-4.434-11.902L230.104,800C230.105,799.999,229.724,792.528,239.471,785.437"/>
					<path fill="#231F20" d="M252.83,609.863v10.093c0,0,1.082,8.29,13.698,9.37c12.614,1.08,48.66-3.602,48.66-3.602
						s16.22,3.965,18.021-12.256c1.801-16.223-4.327-21.265-4.327-21.265s-45.773-1.803-47.579-1.445
						c-1.799,0.361-32.437,3.969-32.437,3.969L252.83,609.863z"/>
					<path fill="#939598" d="M364.567,544.625c0,0,11.174-3.606,15.859-16.94c4.684-13.337,2.163-59.111,2.163-64.518
						c0-5.406-0.087-14.901,0.677-15.019c0.764-0.121,22.752-2.285,22.752,11.054c0,13.335,4.684,62.357,1.801,69.924
						c-2.883,7.57,3.244,19.105-8.289,23.788C387.997,557.6,364.567,544.625,364.567,544.625"/>
					<path fill="none" stroke="#6D6E71" stroke-width="1.208" stroke-miterlimit="10" d="M364.567,544.625
						c0,0,11.174-3.606,15.859-16.94c4.684-13.337,2.163-59.111,2.163-64.518c0-5.406-0.087-14.901,0.677-15.019
						c0.764-0.121,22.752-2.285,22.752,11.054c0,13.335,4.684,62.357,1.801,69.924c-2.883,7.57,3.244,19.105-8.289,23.788
						C387.997,557.6,364.567,544.625,364.567,544.625z"/>
					<path fill="#2B3990" d="M361.322,543.183c0,0,33.521-1.802,41.45,13.335c7.93,15.138,0.721,41.45-48.658,45.777
						c-49.38,4.324-125.793,7.928-133.361-2.523c-7.569-10.452-6.127-32.44-5.045-33.879c1.081-1.445,42.167-27.756,43.611-28.479
						c1.442-0.72,52.264,1.445,54.786,0C316.628,535.976,361.322,543.183,361.322,543.183"/>
					<path fill="none" stroke="#1C75BC" stroke-width="1.208" stroke-miterlimit="10" d="M361.322,543.183
						c0,0,33.521-1.802,41.45,13.335c7.93,15.138,0.721,41.45-48.658,45.777c-49.38,4.324-125.793,7.928-133.361-2.523
						c-7.569-10.452-6.127-32.44-5.045-33.879c1.081-1.445,42.167-27.756,43.611-28.479c1.442-0.72,52.264,1.445,54.786,0
						C316.628,535.976,361.322,543.183,361.322,543.183z"/>
					<path fill="#262262" d="M411.714,313.541c0,0,27.825,2.438,33.23,17.099c5.406,14.663,5.045,58.166,5.406,67.594
						c0.36,9.428,0.36,34.264-2.162,40.228c-2.522,5.963-5.67,14.204-19.054,18.194c-13.386,3.986-38.974,4.261-38.974,4.261
						s10.088-40.553,11.531-42.04c1.44-1.484,13.695-70.963,13.695-70.963l-9.369-23.601L411.714,313.541z"/>
					<path fill="#2B3990" d="M336.814,311.626c0,0,71.006-3.086,81.097,4.122c10.093,7.207,11.538,29.555,11.174,49.018
						c-0.357,19.465-3.244,72.155-9.011,79.151c-5.766,6.995-13.695,14.202-28.113,16.005c-14.42,1.802-75.691,1.395-87.226-3.267
						c-11.535-4.661-21.625-89.05-13.697-102.003C298.969,341.699,305.816,312.281,336.814,311.626"/>
					<path fill="none" stroke="#1C75BC" stroke-width="1.208" stroke-miterlimit="10" d="M336.814,311.626
						c0,0,71.006-3.086,81.097,4.122c10.093,7.207,11.538,29.555,11.174,49.018c-0.357,19.465-3.244,72.155-9.011,79.151
						c-5.766,6.995-13.695,14.202-28.113,16.005c-14.42,1.802-75.691,1.395-87.226-3.267c-11.535-4.661-21.625-89.05-13.697-102.003
						C298.969,341.699,305.816,312.281,336.814,311.626z"/>
					<path fill="#262262" d="M215.803,578.449c0,0,1.078-2.083,4.31-3.022c8.112,0.643,20.144-0.727,21.018-2.595
						c1.267-2.721,16.823-10.919,22.624-10.919c5.802,0,38.869-3.857,43.765-3.495c4.898,0.362,29.363-3.507,29.906-3.707
						c0.544-0.201,10.155-3.467,10.337-4.009c0.183-0.543,9.372-5.269,1.245-8.82c-0.664-0.292-54.376,8.82-59.636,9.362
						c-5.258,0.544-30.825,5.516-33.001,4.755c-2.177-0.766-20.301,0.866-23.116,2.678c-2.813,1.817-17.672,16.023-17.672,16.023
						L215.803,578.449z"/>
					<path fill="#969696" d="M346.897,485.525c-3.127-3.362-7.926-7.968-12.346-12.093c-5.726-5.346-13.234-8.099-13.234-8.099
						l-50.821-7.957l-65.749,3.539c0,0-4.17,4.419-79.581,27.535c-75.409,23.117-103.829,52.298-106.104,88.297
						c-2.275,35.999,50.02,76.926,50.02,76.926s16.881,8.665,26.354,17.38c9.474,8.717,38.447-11.316,40.34-12.456
						c1.896-1.136,60.255-29.178,63.288-29.108c0.839,0.018-0.309-3.873-1.403-4.98c-9.909-10.032-9.352-25.974,0.132-36.743
						c8.276-9.397,44.91-26.507,46.742-27.313c9.474-4.167,29.938-6.443,40.549-6.52c10.608-0.075,49.303-3.713,57.025-7.122
						c7.72-3.411,15.491-17.776,15.003-30.121C356.583,503.287,354.073,493.237,346.897,485.525"/>
					<path fill="none" stroke="#7A7A7A" stroke-width="1.208" stroke-miterlimit="10" d="M346.897,485.525
						c-3.127-3.362-7.926-7.968-12.346-12.093c-5.726-5.346-13.234-8.099-13.234-8.099l-50.821-7.957l-65.749,3.539
						c0,0-4.17,4.419-79.581,27.535c-75.409,23.117-103.829,52.298-106.104,88.297c-2.275,35.999,50.02,76.926,50.02,76.926
						s16.881,8.665,26.354,17.38c9.474,8.717,38.447-11.316,40.34-12.456c1.896-1.136,60.255-29.178,63.288-29.108
						c0.839,0.018-0.309-3.873-1.403-4.98c-9.909-10.032-9.352-25.974,0.132-36.743c8.276-9.397,44.91-26.507,46.742-27.313
						c9.474-4.167,29.938-6.443,40.549-6.52c10.608-0.075,49.303-3.713,57.025-7.122c7.72-3.411,15.491-17.776,15.003-30.121
						C356.583,503.287,354.073,493.237,346.897,485.525z"/>
					
						<radialGradient id="SVGID_5_" cx="-215.5455" cy="775.3137" r="109.1761" gradientTransform="matrix(1 0 0 -1 488 1140.738)" gradientUnits="userSpaceOnUse">
						<stop  offset="0" style="stop-color:#8CBB69"/>
						<stop  offset="0.7837" style="stop-color:#6BAD44"/>
					</radialGradient>
					<path fill="url(#SVGID_5_)" d="M294.643,264.566c0,0,5.377-7.856,14.994-11.915c5.499-2.322,15.347-2.043,18.886-1.783
						c9.731,0.721,47.26,67.262,47.26,67.262s-32.539,7.553-39.805,23.926l-6.296-10.814c0,0-14.493,30.264-19.506,38.221
						c-5.008,7.959-5.386,34.106-4.63,41.684c0.759,7.58,12.887,51.159,21.223,55.326c8.336,4.17,17.053,7.58,15.915,11.368
						c-1.136,3.792,0.758,2.274-6.064,0c-6.82-2.272-15.917-12.125-46.231-13.64c-30.317-1.517-73.894,2.272-86.779,3.03
						c-12.884,0.759-14.777,1.517-14.777,1.517s12.125-35.246,11.747-52.675c-0.38-17.431-6.064-34.106-5.685-36
						c0.376-1.897-36.943-34.929,6.827-62.838l-32.596-3.691c0,0,17.05-48.295,29.558-53.219
						c12.506-4.927,19.154-3.521,26.148,0.759c7.033,4.302,13.448,4.724,12.757,6.43c-8.527,13.643,0.103,33.324,4.131,38.733
						c3.463,4.648,11.152,5.612,24.037-0.068C278.641,300.495,282.747,270.996,294.643,264.566"/>
					<path fill="none" stroke="#537F36" stroke-width="1.208" stroke-miterlimit="10" d="M294.643,264.566
						c0,0,5.377-7.856,14.994-11.915c5.499-2.322,15.347-2.043,18.886-1.783c9.731,0.721,47.26,67.262,47.26,67.262
						s-32.539,7.553-39.805,23.926l-6.296-10.814c0,0-14.493,30.264-19.506,38.221c-5.008,7.959-5.386,34.106-4.63,41.684
						c0.759,7.58,12.887,51.159,21.223,55.326c8.336,4.17,17.053,7.58,15.915,11.368c-1.136,3.792,0.758,2.274-6.064,0
						c-6.82-2.272-15.917-12.125-46.231-13.64c-30.317-1.517-73.894,2.272-86.779,3.03c-12.884,0.759-14.777,1.517-14.777,1.517
						s12.125-35.246,11.747-52.675c-0.38-17.431-6.064-34.106-5.685-36c0.376-1.897-36.943-34.929,6.827-62.838l-32.596-3.691
						c0,0,17.05-48.295,29.558-53.219c12.506-4.927,19.154-3.521,26.148,0.759c7.033,4.302,13.448,4.724,12.757,6.43
						c-8.527,13.643,0.103,33.324,4.131,38.733c3.463,4.648,11.152,5.612,24.037-0.068
						C278.641,300.495,282.747,270.996,294.643,264.566z"/>
					<path fill="none" stroke="#7A7A7A" stroke-width="1.208" stroke-miterlimit="10" d="M194.507,490.027
						c0,0-168.73,54.853-147.384,126.829"/>
					<path opacity="0.2" enable-background="new    " d="M321.954,316.938c0,0-1.494,7.296-1.279,11.766
						c0.215,4.471-3.419,18.46-7.266,23.747c-3.844,5.289-10.894,12.979-13.887,21.526c-2.987,8.545,0.431,18.585-1.919,24.995
						c-2.351,6.406-4.701,10.466-7.477,14.31c-2.776,3.846,5.34,18.61,6.194,22.338c0.853,3.727,1.194,13.858,4.615,17.542
						c3.427,3.681,18.241,11.177,18.457,12.457c0.212,1.283,12.497,5.634,12.655,6.023c0.16,0.387,8.279,4.078,8.279,4.078
						s0.746-0.764-2.518-2.758c-1.333-0.813-3.308-1.803-5.525-2.889c-3.208-1.571-7.052-3.12-8.403-5.066
						c-0.724-1.034-2.135-2.813-3.559-5.526c-3.092-5.891-6.884-14.983-8.284-21.943c-2.044-10.159-8.217-23.291-7.582-36.254
						c0.638-12.963,1.699-23.024,3.106-27.671c0.623-2.062,3.188-6.632,6.112-12.143c3.027-5.704,6.446-12.411,9.054-17.651
						c5.129-10.299,6.857-14.242,6.857-14.242L321.954,316.938z"/>
					<path fill="#D1D3D4" d="M232.428,510.379l-104.804,3.566c0,0-7.409,0-7.409-4.938c0-4.937,13.72-8.505,17.559-8.505
						c3.842,0,37.313,1.097,39.784,0c2.466-1.1,32.922,1.097,34.567,0c1.648-1.1,9.89-0.359,11.668-0.318
						C225.567,500.227,236.268,505.988,232.428,510.379"/>
					<path fill="#E6E7E8" d="M173.52,452.607c0,0,44.641,32.529,47.934,36.647c3.294,4.116,6.859,11.524,10.427,12.62
						c3.566,1.098,6.31,3.019,1.921,4.938c-4.392,1.921-107.001,1.921-107.001,1.921s-7.684,2.197-3.565,4.94
						c4.115,2.743,1.372,3.018,1.372,3.018s-40.605-32.101-50.758-38.96c-10.151-6.857-17.559-13.17-21.674-17.01
						c-4.118-3.841-10.427-6.626-10.15-8.113c0.273-1.489,7.408-3.199,17.559-1.794c10.15,1.404,34.019,1.089,36.487,1.794
						c2.472,0.706,33.749-0.981,48.015,0C158.351,453.589,173.52,452.607,173.52,452.607"/>
					<path fill="#58595B" d="M259.577,741.896c0,0,17.442,11.665,19.07,15.078c1.629,3.412,13.003,12.737,15.277,15.238
						c2.271,2.503,7.791,6.654,10.462,10.919c2.67,4.264,8.044,21.704,7.732,25.513c-0.309,3.806,1.619,22.353,0.016,26.853
						c-1.609,4.5-7.52,22.238-8.887,24.061c-1.366,1.819,3.185,11.601,14.559,9.778c11.375-1.819,24.109-8.186,33.209-20.24
						c9.096-12.059,11.373-27.524,8.414-45.948c0,0-11.144-17.742-11.144-21.38c0-3.641-1.366-33.438-2.503-37.077
						c-1.138-3.639-6.823-14.102-21.152-17.968c-14.332-3.866-20.243-0.911-28.205-6.596c-7.962-5.689-18.048-13.394-18.048-13.394
						s-5.599,18.758-10.799,22.723c-5.202,3.967-9.777,9.86-9.777,9.86L259.577,741.896z"/>
					<path fill="none" stroke="#231F20" stroke-width="1.208" stroke-miterlimit="10" d="M259.577,741.896
						c0,0,17.442,11.665,19.07,15.078c1.629,3.412,13.003,12.737,15.277,15.238c2.271,2.503,7.791,6.654,10.462,10.919
						c2.67,4.264,8.044,21.704,7.732,25.513c-0.309,3.806,1.619,22.353,0.016,26.853c-1.609,4.5-7.52,22.238-8.887,24.061
						c-1.366,1.819,3.185,11.601,14.559,9.778c11.375-1.819,24.109-8.186,33.209-20.24c9.096-12.059,11.373-27.524,8.414-45.948
						c0,0-11.144-17.742-11.144-21.38c0-3.641-1.366-33.438-2.503-37.077c-1.138-3.639-6.823-14.102-21.152-17.968
						c-14.332-3.866-20.243-0.911-28.205-6.596c-7.962-5.689-18.048-13.394-18.048-13.394s-5.599,18.758-10.799,22.723
						c-5.202,3.967-9.777,9.86-9.777,9.86L259.577,741.896z"/>
					
						<path fill="none" stroke="#231F20" stroke-width="1.208" stroke-linecap="round" stroke-linejoin="round" stroke-miterlimit="10" d="
						M284.141,734.909c0,0-8.869,15.925-11.826,17.286c0,0,13.648-15.009,23.203-14.556c9.55,0.457,1.588,5.007,0,8.189
						c-1.593,3.186-12.514,15.012-12.741,17.288c-0.228,2.271,2.109,0.744,2.378,0.995c0.268,0.247,14.539-14.739,18.319-14.467
						c3.782,0.277,7.051,2.551,3.643,4.6c-3.415,2.045-19.336,13.874-18.195,15.921c1.135,2.048,3.863,2.958,5.004,2.048
						c1.136-0.909,11.143-15.693,18.195-12.51c7.049,3.184,10.705,4.289,7.049,6.369c-3.654,2.083-22.725,5.702-20.915,10.241
						c1.81,4.541,2.095,4.176,3.998,4.018c1.905-0.155,3.496-10.393,16.237-7.892c12.736,2.504,5.455,7.971,5.455,7.971
						s-19.103-4.328-19.558,2.722c-0.458,7.05-0.202,6.391,2.287,5.014c2.487-1.374,9.313-7.741,15.68-4.56
						c6.37,3.186,9.329,5.46,7.735,7.733c-1.594,2.277-18.527,0.229-20.864,5.688c-2.336,5.458,2.212,4.547,2.895,4.547
						c0.68,0,6.596-6.95,16.375-6.09c9.782,0.859,11.602,5.635,11.602,7.91c0,2.272-20.158-4.355-28.051,3.738
						c0,0-2.324,5.868,2.06,5.271c4.384-0.592,5.747-5.293,12.118-3.739c6.367,1.554,12.054,8.987,12.282,11.524
						c0.226,2.54-12.288-4.672-19.565,0.869"/>
					
						<path fill="none" stroke="#231F20" stroke-width="1.208" stroke-linecap="round" stroke-linejoin="round" stroke-miterlimit="10" d="
						M343.281,846.903c0,0-18.317-14.348-29.173-7.787"/>
					<path fill="#383133" d="M332.283,862.188c0,0,11.679-7.568,16.002-23.069c4.321-15.503,3.867-31.877,0-42.112
						c-3.866-10.235-7.507-18.88-8.188-26.158c-0.682-7.28-0.453-18.653-1.367-24.564c-0.906-5.915-9.582-18.499-14.1-19.562
						c0,0,14.785,4.775,18.651,11.146c3.867,6.371,5.47,20.518,4.329,28.001c-1.146,7.481,1.103,18.425,3.162,22.276
						c2.061,3.856,8.627,13.151,9.146,18.382c0.517,5.225-0.597,30.196-5.315,36.976c-4.412,6.353-9.662,15.567-18.738,19.198
						C334.501,863.246,333.257,862.109,332.283,862.188"/>
					<path fill="#58595B" d="M134.703,732.862c0,0,8.188,17.288,10.235,22.063c2.05,4.777,6.142,10.235,8.188,19.561
						c2.047,9.327,4.321,11.602,1.593,21.837c-2.729,10.236-7.507,28.146-10.462,33.407c-2.959,5.263-2.048,12.311-5.232,15.496
						c-3.185,3.183-16.604,12.966-20.699,14.329c-4.093,1.368-1.137,7.964,8.645,10.919c9.78,2.956,27.293,7.96,44.127,0
						c16.831-7.959,12.736-24.11,17.742-37.984c5.004-13.877,2.954-20.247,10.46-25.703c7.511-5.459,15.469-14.104,17.744-22.517
						c2.273-8.42,1.749-17.743-6.518-25.705c-8.268-7.963-37.382-32.299-39.429-35.937c-2.047-3.641-7.735-7.962-7.735-7.962
						S150.398,735.137,134.703,732.862"/>
					<path fill="none" stroke="#231F20" stroke-width="1.208" stroke-miterlimit="10" d="M134.703,732.862
						c0,0,8.188,17.288,10.235,22.063c2.05,4.777,6.142,10.235,8.188,19.561c2.047,9.327,4.321,11.602,1.593,21.837
						c-2.729,10.236-7.507,28.146-10.462,33.407c-2.959,5.263-2.048,12.311-5.232,15.496c-3.185,3.183-16.604,12.966-20.699,14.329
						c-4.093,1.368-1.137,7.964,8.645,10.919c9.78,2.956,27.293,7.96,44.127,0c16.831-7.959,12.736-24.11,17.742-37.984
						c5.004-13.877,2.954-20.247,10.46-25.703c7.511-5.459,15.469-14.104,17.744-22.517c2.273-8.42,1.749-17.743-6.518-25.705
						c-8.268-7.963-37.382-32.299-39.429-35.937c-2.047-3.641-7.735-7.962-7.735-7.962S150.398,735.137,134.703,732.862z"/>
					
						<path fill="none" stroke="#231F20" stroke-width="1.208" stroke-linecap="round" stroke-linejoin="round" stroke-miterlimit="10" d="
						M142.664,739.459c0.682-0.456,16.149-0.815,18.426,2.438c2.273,3.25-5.85,0.719-11.6,5.524
						c-5.755,4.806-4.552,7.505-4.552,7.505s-0.91,5.461,3.412,2.504c4.322-2.958,13.703-9.424,19.02-8.694
						c5.319,0.732,6.912,3.916,3.498,4.373c-3.413,0.453-22.381,7.734-20.566,12.646c1.814,4.912,1.914,3.549,5.554,0
						c3.639-3.548,13.876-11.282,20.244-6.277s4.551,8.642,0,7.958c-4.547-0.681-22.575-0.156-23.343,5.496
						c-0.768,5.649,1.734,7.62,5.601,5.042c3.866-2.576,11.374-9.854,17.742-5.76c6.368,4.095,5.685,8.418,3.186,8.418
						c-2.502,0-21.324-2.303-23.74,3.508c-2.419,5.813-1.279,5.159,4.633,4.007c5.914-1.145,11.828-7.291,16.379-2.968
						c4.547,4.324,8.186,11.344,5.458,9.539c-2.73-1.807-19.123-10.581-26.963,0.289c-7.84,10.872,4.703,2.684,7.758,2.455
						c3.055-0.227,13.974,2.047,15.34,7.507c1.364,5.458-5.689-2.273-9.327-1.82c-3.638,0.455-15.924,0.171-17.45,5.497
						c-1.527,5.325,7.216-3.601,13.584,0c6.366,3.599,11.144,14.546,9.326,14.875c-1.822,0.325-11.374-16.732-21.837-10.59
						c-10.464,6.14-2.276,8.108-2.276,8.108s12.512-4.445,15.016,2.481c2.501,6.921,2.186,8.971,2.186,8.971
						s-14.014-11.572-18.793-8.971c-4.779,2.602-5.913,6.211-5.913,6.211"/>
					
						<path fill="none" stroke="#231F20" stroke-width="1.208" stroke-linecap="round" stroke-linejoin="round" stroke-miterlimit="10" d="
						M137.146,846.903c0,0,20.786-3.04,25.663,15.839"/>
					<path fill="#383133" d="M133.929,872.43c0,0,20.977-2.916,36.03-12.191c15.053-9.271,11.661-26.216,12.997-30.508
						c1.333-4.293,1.333-19.077,10.431-28.402c9.099-9.326,16.149-16.15,14.559-27.069c-1.594-10.914-8.417-24.557-8.417-24.557
						s8.823,5.62,14.015,12.757c2.146,2.944,3.195,6.349,3.737,9.863c0.765,4.992-0.143,8.526-1.345,12.842
						c-1.354,4.864-4.159,8.693-6.966,11.578c-1.54,1.587-3.433,3.805-5.75,5.877c-2.652,2.375-5.762,4.673-7.847,7.472
						c-2.35,3.155-2.474,7.472-3.102,10.045c-0.796,3.255-3.307,9.637-5.082,17.022c-1.953,8.142-3.246,17.387-5.666,22.451
						c-0.588,1.232-1.937,3.588-2.727,4.531c-5.071,6.078-9.649,8.1-18.036,9.714C150.767,875.778,133.929,872.43,133.929,872.43"/>
					<path fill="#969696" d="M65.51,654.633c0,0,61.005,71.861,61.46,72.545c0.454,0.681,0.23,7.523,13.877,5.467
						c13.645-2.056,27.575-19.8,26.523-24.804s-30.393-29.565-31.528-31.616c-1.142-2.047-14.786-15.919-15.243-17.06
						c-0.288-0.721-51.126-51.809-67.258-53.366C44.093,604.902,58.393,647.802,65.51,654.633"/>
					<path fill="none" stroke="#7A7A7A" stroke-width="1.208" stroke-miterlimit="10" d="M65.51,654.633
						c0,0,61.005,71.861,61.46,72.545c0.454,0.681,0.23,7.523,13.877,5.467c13.645-2.056,27.575-19.8,26.523-24.804
						s-30.393-29.565-31.528-31.616c-1.142-2.047-14.786-15.919-15.243-17.06c-0.288-0.721-51.126-51.809-67.258-53.366
						C44.093,604.902,58.393,647.802,65.51,654.633z"/>
					<path fill="#FFC691" d="M180.471,428.712c0.129-2.692,2.208-5.588,5.068-8.243c2.292-2.131,5.489-8.628,10.124-8.628
						c4.633,0,25.027,0.929,25.027,0.929l-3.707-0.929c-3.709-0.929-12.517-10.663-13.44-12.516
						c-0.926-1.855,4.634-3.709,11.289,0.464c6.657,4.171,23.01-0.927,30.89,1.389c7.882,2.318,11.126,9.271,12.979,14.833
						c1.853,5.565,5.1,7.417,14.37,6.294s32.478-11.159,44.032-15.166c11.563-4.009,45.426-16.155,45.426-16.155l-24.967-50.367
						c0,0,6.887-7.342,16.787-13.014c3.84-2.2,17.336-8.711,17.609-8.05c10.012,24.332,29.393,77.13,30.4,86.593
						c1.284,12.048-4.875,10.415-25.928,21.07c-21.053,10.657-114.376,19.516-118.228,19c-3.852-0.514-3.594-0.514-12.582,4.878
						c-8.984,5.389-23.105-0.77-23.361,0.772c-0.258,1.537-11.682,5.512-11.682,5.512s14.507,5.269,14.142,8.42
						c-0.363,3.147-8.494,3.01-15.168,1.983c-1.817-0.281-5.447-1.431-6.827-2.229c-3.682-2.135-3.697-4.831-3.697-4.831
						s-0.053,3.011-2.44,9.37c-2.391,6.36-7.318,5.392-7.318,5.392s1.028-24.645,0.77-24.26c-0.087,0.133,0.381-8.613-1.282-8.09
						c-4.108,13.35-9.431,11.47-10.27,11.557c-1.284,0.126,0.423-6.914,0.677-9.35C179.423,442.901,180.345,431.407,180.471,428.712
						"/>
					<path fill="none" stroke="#F1B486" stroke-width="1.208" stroke-miterlimit="10" d="M180.471,428.712
						c0.129-2.692,2.208-5.588,5.068-8.243c2.292-2.131,5.489-8.628,10.124-8.628c4.633,0,25.027,0.929,25.027,0.929l-3.707-0.929
						c-3.709-0.929-12.517-10.663-13.44-12.516c-0.926-1.855,4.634-3.709,11.289,0.464c6.657,4.171,23.01-0.927,30.89,1.389
						c7.882,2.318,11.126,9.271,12.979,14.833c1.853,5.565,5.1,7.417,14.37,6.294s32.478-11.159,44.032-15.166
						c11.563-4.009,45.426-16.155,45.426-16.155l-24.967-50.367c0,0,6.887-7.342,16.787-13.014c3.84-2.2,17.336-8.711,17.609-8.05
						c10.012,24.332,29.393,77.13,30.4,86.593c1.284,12.048-4.875,10.415-25.928,21.07c-21.053,10.657-114.376,19.516-118.228,19
						c-3.852-0.514-3.594-0.514-12.582,4.878c-8.984,5.389-23.105-0.77-23.361,0.772c-0.258,1.537-11.682,5.512-11.682,5.512
						s14.507,5.269,14.142,8.42c-0.363,3.147-8.494,3.01-15.168,1.983c-1.817-0.281-5.447-1.431-6.827-2.229
						c-3.682-2.135-3.697-4.831-3.697-4.831s-0.053,3.011-2.44,9.37c-2.391,6.36-7.318,5.392-7.318,5.392s1.028-24.645,0.77-24.26
						c-0.087,0.133,0.381-8.613-1.282-8.09c-4.108,13.35-9.431,11.47-10.27,11.557c-1.284,0.126,0.423-6.914,0.677-9.35
						C179.423,442.901,180.345,431.407,180.471,428.712z"/>
					<path fill="none" stroke="#F1B486" stroke-width="1.208" stroke-miterlimit="10" d="M362.179,390.273
						c0.353,0.707-0.186,3.972,0.461,6.412"/>
					
						<path fill="none" stroke="#F1B486" stroke-width="1.208" stroke-linecap="round" stroke-linejoin="round" stroke-miterlimit="10" d="
						M216.559,440.729c0.028-0.652,0.49-3.579-1.227-4.617c-1.715-1.036,0.806-3.237-0.946-6.219
						c-1.755-2.978-5.696-1.598-6.574-3.93c-0.874-2.333,1.362-3.845-0.851-5.585c-2.213-1.738-3.727-0.601-5.501-2.02
						c-1.774-1.417-4.126-5.94-6.952-5.615"/>
					
						<path fill="none" stroke="#F1B486" stroke-width="1.208" stroke-linecap="round" stroke-linejoin="round" stroke-miterlimit="10" d="
						M201.722,435.435c-0.387,0-9.758,5.389-10.782,8.214c-1.029,2.822-1.48,8.959-1.48,8.959"/>
					<path fill="#F1B486" d="M213.532,443.133c0,0-10.398,5.778-11.811,7.961c-1.191,1.841-2.729,3.522-2.604,7.262
						c0.01,0.327,0.427,1.499,0.709,2.239c0.18,0.473-1.474,0.296-1.594,0.234c-0.123-0.059,0.339-0.857,0.055-1.982
						c-0.464-1.829-0.833-4.695-0.675-7.241c0.258-4.107,2.057-5.39,2.566-5.903c0.342-0.344,6.2-2.901,10.042-4.686
						c1.932-0.903,3.353,1.578,3.313,1.448"/>
					<path fill="#F1B486" d="M375.782,329.074c0,0-9.353,3.044-13.529,7.497c-4.172,4.454-14.557,10.205-15.25,10.444
						c-0.692,0.239,6.462,13.232,6.462,13.232l11.159,25.693c0,0,6.383,4.452,6.613,6.883c0,0-6.028-1.463-8.065-1.816
						c-2.036-0.356-23.252-45.629-23.252-45.629s9.022-13.301,19.547-15.556c10.527-2.258,14.957-4.04,14.957-4.04L375.782,329.074z
						"/>
					<path fill="#F1B486" d="M190.102,443.207c-0.643-2.854-0.643-4.056-0.326-6.493c0.318-2.441,8.608-11.041,8.992-10.782
						l-3.178-4.236c0,0-7.477,9.886-7.605,11.298c-0.124,1.372-1.169,7.053,0.068,9.541c0.035,0.065-0.452,1.625,0.154,1.274
						C188.208,443.809,190.051,443.676,190.102,443.207"/>
					<path fill="#6D6E71" d="M176.427,456.614c0.167-0.262,0.608-0.988,0.947-1.513c2.401,2.275,6.602-1.093,6.761-1.042
						c1.218,0.393,2.632,0.442,4.008,0.234c-1.54,6.213-3.361,12.172-5.049,13.684l-1.397,1.342l-6.157,2.555
						c0,0-2.264-6.083-1.795-8.65C174.142,461.032,175.065,458.739,176.427,456.614"/>
					<path fill="#231F20" d="M182.305,468.204l0.156,0.383l0.633-0.609c0,0,0.688-0.564,0.627-0.747
						c-1.013-2.919-3.996-7.36-9.286-6.569c-0.148,0.025-0.281,0.927-0.281,0.927l-0.268,0.951l0.423-0.183
						C180.179,461.186,182.223,467.92,182.305,468.204"/>
					
						<radialGradient id="SVGID_6_" cx="-131.2053" cy="808.4035" r="18.1475" gradientTransform="matrix(1 0 0 -1 488 1140.738)" gradientUnits="userSpaceOnUse">
						<stop  offset="0" style="stop-color:#8CBB69"/>
						<stop  offset="0.7837" style="stop-color:#6BAD44"/>
					</radialGradient>
					<path fill="url(#SVGID_6_)" d="M375.103,318.266c0,0,1.101,3.27,2.975,4.221c1.871,0.951-11.253,4.898-15.02,6.758
						c-3.771,1.856-24.465,16.591-25.023,17.158c-0.809-0.329-1.779-3.207-2.7-3.96c-0.229-0.203,7.188-8.422,15.962-14.13
						C359.449,323.008,372.804,318.471,375.103,318.266"/>
					<path fill="none" stroke="#537F36" stroke-width="1.208" stroke-miterlimit="10" d="M375.103,318.266
						c0,0,1.101,3.27,2.975,4.221c1.871,0.951-11.253,4.898-15.02,6.758c-3.771,1.856-24.465,16.591-25.023,17.158
						c-0.809-0.329-1.779-3.207-2.7-3.96c-0.229-0.203,7.188-8.422,15.962-14.13C359.449,323.008,372.804,318.471,375.103,318.266z"
						/>
					<path fill="#969696" d="M267.969,683.998c0,0,12.641,16.952,12.944,19.695c0.308,2.745-3.094,9.476-6.471,16.295
						c-3.379,6.822-4.898,15.915-16.642,19.327c-11.748,3.41-28.475,4.169-34.89-2.274c-6.416-6.439-15.891-7.58-27.26-10.231
						c-11.367-2.651-25.39-3.79-34.104-9.097c-8.717-5.304-2.116-19.105-14.24-20.244c-12.127-1.136-84.06-42.639-96.012-67.981
						c-8.477-17.97-7.517-42.232,9.272-51.706c16.786-9.477,64.977,29.455,69.146,28.799c4.169-0.657,40.17,3.525,41.307,3.52
						c1.136-0.005,29.179,21.214,29.179,21.214s26.728,14.399,32.688,23.874c5.964,9.474,10.076,12.505,15.98,15.537
						C254.767,673.759,267.969,683.998,267.969,683.998"/>
					<path fill="none" stroke="#7A7A7A" stroke-width="1.208" stroke-miterlimit="10" d="M267.969,683.998
						c0,0,12.641,16.952,12.944,19.695c0.308,2.745-3.094,9.476-6.471,16.295c-3.379,6.822-4.898,15.915-16.642,19.327
						c-11.748,3.41-28.475,4.169-34.89-2.274c-6.416-6.439-15.891-7.58-27.26-10.231c-11.367-2.651-25.39-3.79-34.104-9.097
						c-8.717-5.304-2.116-19.105-14.24-20.244c-12.127-1.136-84.06-42.639-96.012-67.981c-8.477-17.97-7.517-42.232,9.272-51.706
						c16.786-9.477,64.977,29.455,69.146,28.799c4.169-0.657,40.17,3.525,41.307,3.52c1.136-0.005,29.179,21.214,29.179,21.214
						s26.728,14.399,32.688,23.874c5.964,9.474,10.076,12.505,15.98,15.537C254.767,673.759,267.969,683.998,267.969,683.998z"/>
					<path fill="#969696" d="M119.548,566.859l57.995,35.001l5.494,18.458l-34.792,1.918c0,0-28.842-2.466-29.529-1.918
						c-0.687,0.544-26.781,8.099-26.781,8.099l-19.226,5.265l-6.843-1.053c0,0-25.075-23.06-20.691-36.957
						c2.223-10.497,10.776-22.498,22.352-26.749C89.437,560.873,119.548,566.859,119.548,566.859"/>
					<path opacity="0.2" enable-background="new    " d="M191.686,614.685c-1.259-4.274-1.527-10.639-0.834-14.422
						c-4.495-8.108-10.557-7.028-17.235-9.366c-8.77-3.072-17.391-1.587-25.8-1.338c-1.056,0.173-6.027,0.126-7.065,0.32
						c11.817,3.529,36.987,9.471,41.19,16.703c0,0,4.192,8.058,0.339,8.92c-7.344,1.645-25.554-2.977-28.793,0.134
						c-4.94,4.748-0.824,3.927,4.938,4.748c2.173,0.313-1.276,1.557-6.676,4.006c0.064,0.709,34.233-4.643,39.372,7.648
						c4.33-1.885,16.158,3.68,16.783,3.693C201.342,629.961,194.066,622.774,191.686,614.685"/>
					<path opacity="0.2" enable-background="new    " d="M340.663,480.395c-1.13-0.41,0.013,7.136,0.647,15.869
						c0.633,8.734-5.758,27.163-26.336,28.576c-20.576,1.414-68.21,28.124-78.913,29.289c-10.698,1.166-29.958,5.857-38.189,13.266
						c-8.228,7.407-23.544,9.019-23.544,9.019s14.323,11.5,20.656,15.093c6.462-8.983,17.06-14.269,19.849-16.64
						c1.446-1.224,14.923-0.902,19.093-3.47c4.169-2.569,1.139-7.284,10.61-11.456c9.474-4.164,29.938-6.44,40.55-6.517
						c10.607-0.073,41.659-2.789,49.66-5.479c12.736-0.88,19.48-10.721,21.536-31.255
						C356.294,500.324,346.077,483.427,340.663,480.395"/>
					<path opacity="0.2" enable-background="new    " d="M266.619,733.028c0,0-19.063,7.734-26.862,4.472
						c-7.801-3.268-19.227-9.614-25.213-10.521c-5.984-0.907-32.649-5.26-36.275-6.528c-3.629-1.269-19.043-6.406-20.873-9.877
						c-1.828-3.474-4.613-15.252-12.049-15.659c-7.435-0.407-18.887-6.903-23.601-10.675c-4.713-3.774-18.655-20.656-28.116-24.381
						c-9.458-3.727-34.775-27.031-34.895-28.367c-0.072-0.81,0.617,7.104,6.854,15.643c4.07,5.575,12.709,11.685,17.449,14.866
						c8.771,5.893,24.08,17.494,25.733,18.475c4.191,2.487,21.35,13.453,21.35,13.453s10.168,4.718,11.262,4.969
						c1.099,0.246,4.478,1.104,5.949,2.534c1.471,1.424,6.839,12.3,8.649,13.927c1.811,1.625,12.863,7.398,24.648,8.514
						c11.786,1.111,34.131,7.93,34.589,8.124c0.458,0.194,7.558,5.326,9.208,6.311c1.652,0.979,7.514,4.048,15.15,3.591
						c7.634-0.459,17.059-0.469,23.854-5.061C270.232,732.238,266.619,733.028,266.619,733.028"/>
					<path opacity="0.2" enable-background="new    " d="M133.729,683.044c0,0-8.794-1.082-7.848-13.051
						c0,0,19.183,4.856,17.985,11.988c-1.193,7.133,3.023,14.842,9.57,18.682c6.547,3.841-3.233,0-3.233,0L133.729,683.044z"/>
					<path opacity="0.2" enable-background="new    " d="M209.123,726.12c0.312,0.051,19.391-4.477,23.765-15.178
						c4.375-10.701,8.267,1.62,7.779,5.43c-0.487,3.812-12.349,18.802-16.874,16.656C219.265,730.887,209.123,726.12,209.123,726.12
						"/>
					
						<radialGradient id="SVGID_7_" cx="-303.1243" cy="822.6305" r="12.2658" gradientTransform="matrix(1 0 0 -1 488 1140.738)" gradientUnits="userSpaceOnUse">
						<stop  offset="0" style="stop-color:#8CBB69"/>
						<stop  offset="0.7837" style="stop-color:#6BAD44"/>
					</radialGradient>
					<path fill="url(#SVGID_7_)" d="M194.436,322.243c-0.307-0.514-7.671-1.807-11.864-2.051
						c-4.193-0.248-15.789,0.244-14.433-1.357c1.357-1.603,1.729-4.863,1.729-4.863l27.082,2.723l4.772,0.544"/>
					<path fill="none" stroke="#537F36" stroke-width="1.208" stroke-miterlimit="10" d="M194.436,322.243
						c-0.307-0.514-7.671-1.807-11.864-2.051c-4.193-0.248-15.789,0.244-14.433-1.357c1.357-1.603,1.729-4.863,1.729-4.863
						l27.082,2.723l4.772,0.544"/>
					<path opacity="0.2" enable-background="new    " d="M209.794,303.256c0,0-9.078,13.032-9.979,12.935
						c-0.896-0.104,4.274,0.517,4.274,0.517L209.794,303.256z"/>
					<path fill="#E5865C" d="M223.963,466.559c-0.138-0.89,0.018-1.161-1.014-1.737c-1.034-0.569-4.309,1.056-4.309,1.056
						l0.784,1.427C219.629,467.43,224.054,467.596,223.963,466.559"/>
					<path fill="none" stroke="#F1B486" stroke-width="1.208" stroke-miterlimit="10" d="M223.963,466.559
						c-0.138-0.89,0.018-1.161-1.014-1.737c-1.034-0.569-4.309,1.056-4.309,1.056l0.784,1.427
						C219.629,467.43,224.054,467.596,223.963,466.559z"/>
					<path fill="#E5865C" d="M189.963,474.639c0.892,0.126,1.106,0.35,1.955-0.475c0.839-0.827,0.222-4.427,0.222-4.427
						l-1.589,0.343C190.372,470.232,188.944,474.431,189.963,474.639"/>
					<path fill="none" stroke="#F1B486" stroke-width="1.208" stroke-miterlimit="10" d="M189.963,474.639
						c0.892,0.126,1.106,0.35,1.955-0.475c0.839-0.827,0.222-4.427,0.222-4.427l-1.589,0.343
						C190.372,470.232,188.944,474.431,189.963,474.639z"/>
					<path fill="#E5865C" d="M178.805,454.453c0.9-0.037,1.152,0.149,1.84-0.813c0.679-0.964-0.573-4.397-0.573-4.397l-1.501,0.622
						C178.422,450.049,177.765,454.429,178.805,454.453"/>
					<path fill="none" stroke="#F1B486" stroke-width="1.208" stroke-miterlimit="10" d="M178.805,454.453
						c0.9-0.037,1.152,0.149,1.84-0.813c0.679-0.964-0.573-4.397-0.573-4.397l-1.501,0.622
						C178.422,450.049,177.765,454.429,178.805,454.453z"/>
					<path fill="#E5865C" d="M204.195,398.123c-0.022,0.902-0.227,1.14,0.687,1.892c0.913,0.744,4.427-0.261,4.427-0.261
						l-0.517-1.541C208.62,398.051,204.296,397.09,204.195,398.123"/>
					<path fill="none" stroke="#F1B486" stroke-width="1.208" stroke-miterlimit="10" d="M204.195,398.123
						c-0.022,0.902-0.227,1.14,0.687,1.892c0.913,0.744,4.427-0.261,4.427-0.261l-0.517-1.541
						C208.62,398.051,204.296,397.09,204.195,398.123z"/>
					<path fill="#6D6E71" d="M213.686,386.294c-0.357-0.548-7.595-4.796-10.524,4.008c-2.296,6.897-4.896,17.018-5.837,20.736
						c2.177,0.016,5.811,0.305,8.002,0.24c1.266-6.113,2.904-12.658,4.38-14.456C212.657,393.228,215.869,389.635,213.686,386.294"
						/>
					<path fill="#414042" d="M102.587,462.827c2.636,4.361,5.69,8.428,9.286,12.053c3.202,3.23,6.732,5.846,9.707,9.341
						c3.64,4.278,7.283,10.49,12.299,13.061c3.071,1.574,5.183,3.227,6.661,6.446c0.36,0.786-1.258,1.044-1.586,0.333
						c-2.158-4.703-6.736-5.043-9.892-8.516c-3.417-3.77-6.45-7.91-9.794-11.747c-2.689-3.085-5.961-5.407-8.819-8.296
						c-3.59-3.629-6.645-7.686-9.284-12.054C100.672,462.632,102.184,462.16,102.587,462.827"/>
					<path fill="#414042" d="M127.384,473.249c0.967,0.381,0.986,0.403,1.552,1.342c0.613,1.007,0.637,1.974,1.391,3.031
						c1.038,1.456,2.099,2.053,3.667,2.858c3.057,1.573,4.828,2.923,6.76,5.848c1.674,2.524,4.152,4.18,5.873,6.544
						c2.238,3.079,6.012,5.54,9.778,6.132c1.069,0.164,0.481,1.332-0.436,1.189c-3.566-0.561-5.5-2.362-8.458-4.158
						c-0.637-0.389-1.433-0.584-1.965-1.099c-0.287-0.275-0.251-0.782-0.442-1.081c-1.631-2.525-1.087-1.982-2.999-3.561
						c-1.311-1.081-2.145-2.463-3.094-3.855c-1.622-2.366-3.278-3.582-5.845-4.891c-1.443-0.734-2.949-1.43-4.039-2.677
						c-0.933-1.068-1.406-4.098-2.574-4.558C125.554,473.921,126.597,472.94,127.384,473.249"/>
					<path fill="#414042" d="M142.759,470.934c3.605,2.685,6.762,5.846,9.27,9.591c1.024,1.527,1.828,3.136,2.697,4.746
						c1.603,2.96,3.941,4.023,6.811,5.516c1.332,0.693,2.661,1.408,3.802,2.4c2.012,1.744,2.199,3.226,4.948,4.332
						c3.054,1.229,5.07,2.494,5.885,5.966c0.202,0.863-1.407,1.091-1.586,0.331c-1.173-4.995-6.069-3.924-8.517-7.353
						c-2.403-3.372-5.553-4.44-8.969-6.492c-3.15-1.891-3.906-4.684-5.775-7.708c-2.536-4.112-5.864-7.575-9.729-10.455
						C140.774,471.193,142.125,470.461,142.759,470.934"/>
					<path fill="#414042" d="M154.907,462.796c2.304,3.543,6.152,5.619,8.984,8.706c1.467,1.603,2.77,3.357,3.884,5.224
						c1.131,1.899,1.818,4.831,3.682,5.934c0.986,0.583,2.081,0.602,3.024,1.268c1.364,0.958,2.1,2.986,2.931,4.306
						c2.678,4.232,6.676,8.935,11.502,10.711c1.005,0.372-0.044,1.357-0.831,1.067c-3.665-1.351-6.774-4.366-9.269-7.3
						c-1.539-1.806-2.718-3.76-3.952-5.771c-1.334-2.185-3.036-1.983-4.858-3.247c-1.024-0.714-1.421-1.951-1.958-3.008
						c-1.283-2.506-2.527-4.884-4.303-7.079c-3.065-3.775-7.601-6.1-10.256-10.188C152.968,462.618,154.485,462.142,154.907,462.796
						"/>
					<path fill="#414042" d="M168.42,461.052c0.68,1.137,1.378,2.264,2.04,3.407c0.516,0.894,0.854,2.539,1.546,3.219
						c0.673,0.658,1.584,1.124,2.282,1.789c0.841,0.803,1.627,1.666,2.428,2.506c0.641,0.678-0.895,1.18-1.42,0.624
						c-0.941-0.986-1.854-2.05-2.901-2.928c-0.662-0.553-1.576-0.946-2.139-1.607c-0.529-0.616-0.621-1.419-0.911-2.163
						c-0.577-1.489-1.523-2.851-2.346-4.223C166.509,460.856,168.021,460.385,168.42,461.052"/>
					<path fill="#F1B486" d="M256.645,445.651c0,0-2.732-1.795-4.782-1.632c-2.05,0.16-8.566,6.151-13.665,5.101
						c-5.095-1.051-11.719,1.051-13.242,0.631c-1.526-0.422-3.629,0.178-4.047,1.115c-0.422,0.934-3.627,3.354-6.676,3.721
						s-5.947,2.79-5.947,2.79l7.893-2.317l7.786-3.626l7.841,1.637c0,0,12.878-0.52,14.172-1.741c1.294-1.227,6.518-4.31,6.518-4.31
						L256.645,445.651z"/>
					<path fill="#FFC691" d="M205.273,78.62c0,0,4.063,61.823,1.601,70.454c-2.458,8.634-6.88,12.303-5.243,27.137
						c1.489,13.485,8.745,44.289,22.39,47.419c13.643,3.127,41.504-0.148,64.083-13.091c22.581-12.948,26.632-30.346,34.177-47.083
						c7.543-16.74-1.119-72.244-1.997-76.606c-0.88-4.363-26.407-22.71-30.286-25.296c-3.877-2.588-45.991,9.263-45.991,9.263
						S206.251,65.642,205.273,78.62"/>
					<path fill="none" stroke="#F1B486" stroke-width="1.208" stroke-miterlimit="10" d="M205.273,78.62
						c0,0,4.063,61.823,1.601,70.454c-2.458,8.634-6.88,12.303-5.243,27.137c1.489,13.485,8.745,44.289,22.39,47.419
						c13.643,3.127,41.504-0.148,64.083-13.091c22.581-12.948,26.632-30.346,34.177-47.083c7.543-16.74-1.119-72.244-1.997-76.606
						c-0.88-4.363-26.407-22.71-30.286-25.296c-3.877-2.588-45.991,9.263-45.991,9.263S206.251,65.642,205.273,78.62z"/>
					<path fill="#F1B486" d="M221.808,106.696c0.001,0.615,2.393,18.063,21.622,26.162c15.076,5.517,23.455,1.036,23.455,1.036
						s-11.877-13.152-15.632-19.787l48.1,18.176c0,0-8.605-7.843-13.817-11.308c-5.217-3.466-9.233-11.153-9.233-11.153
						s17.304,9.575,19.345,12.516c2.041,2.942,8.104,9.01,9.011,15.344c0.908,6.334,0.627,10.856,0.627,10.856
						s8.182-12.985,6.924-17.304c-1.258-4.314,13.252,14.728-4.186,47.391c-17.437,32.662-71.416,47.099-77.626,46.943
						c0,0,25.351-0.96,40.235-7.288c14.886-6.329,30.595-16.323,35.721-19.406c5.128-3.087,15.837-20.847,17.059-22.117
						c1.221-1.273,4.551-44.862,4.551-44.862l-5.058-17.978c0,0-7.354-11.037-7.738-11.924c-0.387-0.891-11.838-7.821-11.838-7.821
						l-33.829-7.554c0,0-10.951-7.853-11.541-7.734c-0.591,0.118-13.139,3.055-14.01,2.821c-0.863-0.235-11.7,3.794-11.7,3.794
						l-13.95,1.317L207.038,129.4l17.268-0.822L221.808,106.696z"/>
					<path fill="#3C2415" d="M255.511,123.361c0.087,1.814,2.168,3.535,5.863,3.309c4.956-0.303,12.767,0.532,19.051,6.97
						c0,0-3.683-9.876-14.984-13.691c-1.545-0.522-3.637-0.602-5.223-0.366C256.913,120.072,255.435,121.755,255.511,123.361"/>
					<path fill="#3C2415" d="M228.505,124.46c-0.127,1.587-1.991,3.031-5.213,2.733c-4.327-0.396-11.172,0.127-16.836,5.584
						c0,0,3.48-8.533,13.459-11.565c1.366-0.415,3.197-0.425,4.574-0.178C227.368,121.547,228.615,123.058,228.505,124.46"/>
					<path fill="#FFC691" d="M230.021,137.553c0.419-0.059,3.58,4.29,3.646,4.607c0.064,0.315-2.136,8.902-2.143,9.223
						c-0.01,0.322-4.811,3.075-4.811,3.075s-0.553-3.039-0.451-3.43c0.1-0.392,0.955-11.193,0.815-12.842
						c-0.145-1.65-0.18-1.997-0.18-1.997L230.021,137.553z"/>
					<path fill="none" stroke="#F1B486" stroke-width="1.208" stroke-miterlimit="10" d="M226.813,135.46
						c0,0,2.789,16.255-2.718,21.722c-5.515,5.474-7.583,10.543-5.291,13.456c3.738,4.743,10.99,3.899,12.653,1.399
						c1.664-2.503,12.194,2.464,8.439-3.638"/>
					<path fill="#FFC691" d="M304.962,173.682c0,0,4.63,2.167,6.658,0.583c2.031-1.583,2.631-9.418,4.465-12.808
						c1.833-3.386,6.432-12.194,3.622-15.32c-2.811-3.124-10.001-8.779-11.997-3.735"/>
					<path fill="none" stroke="#F1B486" stroke-width="1.208" stroke-miterlimit="10" d="M304.962,173.682
						c0,0,4.63,2.167,6.658,0.583c2.031-1.583,2.631-9.418,4.465-12.808c1.833-3.386,6.432-12.194,3.622-15.32
						c-2.811-3.124-10.001-8.779-11.997-3.735"/>
					<path fill="#F1B486" d="M311.362,161.067c0,0,0.652-3.988,2.391-6.182c1.737-2.198,4.666-7.149,0.25-8.104
						c0,0-1.749,0.355-2.127,2.108"/>
					
						<radialGradient id="SVGID_8_" cx="-149.7469" cy="936.9373" r="1.5308" gradientTransform="matrix(0.9954 -0.0959 -0.0959 -0.9954 548.8365 1089.848)" gradientUnits="userSpaceOnUse">
						<stop  offset="0" style="stop-color:#8CBB69"/>
						<stop  offset="0.7837" style="stop-color:#6BAD44"/>
					</radialGradient>
					<path fill="url(#SVGID_8_)" d="M308.425,171.881c0.167,0.828,0.975,1.366,1.806,1.201c0.827-0.168,1.362-0.974,1.196-1.803
						s-0.976-1.366-1.803-1.198C308.795,170.246,308.26,171.055,308.425,171.881"/>
					<path fill="#C1716B" d="M232.741,261.581c0.225,2.338,2.4,4.041,4.861,3.805c2.458-0.237,4.266-2.325,4.04-4.662
						c-0.225-2.341-2.398-4.043-4.856-3.808C234.325,257.153,232.515,259.241,232.741,261.581"/>
					<path fill="none" stroke="#BA645D" stroke-width="1.208" stroke-miterlimit="10" d="M232.741,261.581
						c0.225,2.338,2.4,4.041,4.861,3.805c2.458-0.237,4.266-2.325,4.04-4.662c-0.225-2.341-2.398-4.043-4.856-3.808
						C234.325,257.153,232.515,259.241,232.741,261.581z"/>
					<path fill="#272A3F" d="M231.449,267.358c-2.243,2.121-5.518,4.733-8.405,5.143c-4.968,0.708-15.296,1.533-16.117,5.602
						c-0.027,2.126,1.75,3.461,1.928,5.207c2.268,1.699,6.028,2.283,6.028,2.283s-1.418,1.082-1.888,1.082
						c-0.469,0-9.76,2.52-11.337-1.414c-1.575-3.944,0.037-11.166,1.496-12.611c1.458-1.447,6.085-8.353,8.024-8.621
						c1.939-0.265,9.73-1.74,10.676-2.359c0.947-0.624,4.686,3.401,4.869,3.851C226.903,265.973,230.682,266.611,231.449,267.358"/>
					<polygon fill="#D39C76" points="240.507,256.879 238.988,262.398 237.576,259.432 					"/>
					<path fill="#603913" d="M243.914,250.596c0.03,0.321-12.885,18.604-23.269,21.132c-12.754,3.103-11.511,11.289-9.498,12.886
						c2.012,1.594-4.195,1.86-6.134-0.624c-1.941-2.487-2.298-12.09,0.541-14.55c2.841-2.463,6.996-8.366,12.176-10.365
						c5.183-2,8.37-7.572,9.794-7.954C228.943,250.741,243.914,250.596,243.914,250.596"/>
					<path fill="none" stroke="#3C2415" stroke-width="1.163" stroke-miterlimit="10" d="M243.914,250.596
						c0.03,0.321-12.885,18.604-23.269,21.132c-12.754,3.103-11.511,11.289-9.498,12.886c2.012,1.594-4.195,1.86-6.134-0.624
						c-1.941-2.487-2.298-12.09,0.541-14.55c2.841-2.463,6.996-8.366,12.176-10.365c5.183-2,8.37-7.572,9.794-7.954
						C228.943,250.741,243.914,250.596,243.914,250.596z"/>
					<path fill="#3C2415" d="M200.056,290.057c-2.308-15.464,18.039-29.26,23.434-34.547c5.39-5.281-3.423-9.128-2.432-16.722
						c0.495-3.813,5.008-8.842,9.348-12.404c2.994-0.078,11.119-0.66,13.1-0.986c0.208,5.358,4.215,12.764,4.215,12.764
						s6.515,9.102-2.484,14.143c-9.006,5.04-23.063,11.814-31.05,18.774c-1.592,1.389-4.169,4.57-5.345,7.414
						c-1.374,3.31-1.191,6.283-0.771,7.383c3.491,8.392,17.737,5.922,17.737,5.922s-4.682,5.083-10.709,6.138
						c0.474,0.35,3.585,0.531,3.585,0.531l-7.093,4.396C211.591,302.861,200.634,299.993,200.056,290.057"/>
					<path fill="#603913" d="M202.526,298.754c0,0-7.803-5.364-6.566-13.794c1.235-8.427,8.24-15.318,17.384-19.58
						c0,0-12.946,8.212-12.693,17.438c0.246,9.226,13.421,10.003,13.421,10.003l-6.335,2.075c0,0-7.3-2.804-8.418-9.098
						c0,0-0.843,7.681,7.993,11.75L202.526,298.754z"/>
					<path fill="#E78277" d="M245.556,252.469c0,0-15.121-8.995-28.146-4.502c0,0-6.878,3.757-3.378,8.712
						c0,0,24.902-2.127,26.873,7.511C240.905,264.189,249.726,261.393,245.556,252.469"/>
					<path fill="none" stroke="#BA645D" stroke-width="1.208" stroke-miterlimit="10" d="M245.556,252.469
						c0,0-15.121-8.995-28.146-4.502c0,0-6.878,3.757-3.378,8.712c0,0,24.902-2.127,26.873,7.511
						C240.905,264.189,249.726,261.393,245.556,252.469z"/>
					<path fill="#603913" d="M288.219,93.803c0.974,1.466,11.648,27.182,19.936,44.246c1.349,2.777,3.234,1.506,7.45,4.242
						c1.037,0.673,3.798,5.518,3.621,7.304c-2.094,21.143-21.266,56.006-21.266,56.006s-3.018,20.268-3.967,32.999
						c5.241-0.537,41.01-4.777,53.744-29.198c9.906-27.91,23.099-56.601,15.475-100.017c-6.88-39.189-44.404-60.759-60.904-63.83
						c-36.536-6.799-75.396,11.563-75.396,11.563l47.54,25.04C274.451,82.159,272.618,70.323,288.219,93.803"/>
					<path fill="none" stroke="#3C2415" stroke-width="1.208" stroke-miterlimit="10" d="M288.219,93.803
						c0.974,1.466,11.648,27.182,19.936,44.246c1.349,2.777,3.234,1.506,7.45,4.242c1.037,0.673,3.798,5.518,3.621,7.304
						c-2.094,21.143-21.266,56.006-21.266,56.006s-3.018,20.268-3.967,32.999c5.241-0.537,41.01-4.777,53.744-29.198
						c9.906-27.91,23.099-56.601,15.475-100.017c-6.88-39.189-44.404-60.759-60.904-63.83
						c-36.536-6.799-75.396,11.563-75.396,11.563l47.54,25.04C274.451,82.159,272.618,70.323,288.219,93.803z"/>
					<path fill="#603913" d="M226.911,57.115c0,0-19.774,2.181-27.94,17.181c-8.169,15.001-7.256,21.314-8.985,25.27
						c-1.729,3.959-1.635,22.347,0.728,25.12c2.364,2.774,4.595,3.864,11.871,3.383c7.277-0.479,20.332-1.207,20.332-1.207
						s-11.485-28.787-0.352-39.821c0,0-6.303,46.214,39.291,46.776c0,0-25.025-29.25-20.325-43.551c0,0,7.895,39.195,52.378,41.424
						c0,0-30.421-22.025-28.014-36.945c0,0,14.186,22.045,25.291,23.42c11.105,1.37,16.242,16.127,16.242,16.127
						s6.14-39.408-15.543-61.028"/>
					<path fill="none" stroke="#3C2415" stroke-width="1.208" stroke-miterlimit="10" d="M226.911,57.115
						c0,0-19.774,2.181-27.94,17.181c-8.169,15.001-7.256,21.314-8.985,25.27c-1.729,3.959-1.635,22.347,0.728,25.12
						c2.364,2.774,4.595,3.864,11.871,3.383c7.277-0.479,20.332-1.207,20.332-1.207s-11.485-28.787-0.352-39.821
						c0,0-6.303,46.214,39.291,46.776c0,0-25.025-29.25-20.325-43.551c0,0,7.895,39.195,52.378,41.424
						c0,0-30.421-22.025-28.014-36.945c0,0,14.186,22.045,25.291,23.42c11.105,1.37,16.242,16.127,16.242,16.127
						s6.14-39.408-15.543-61.028"/>
					<path opacity="0.2" enable-background="new    " d="M345.835,271.163c0,0-10.297-15.513-17.086-19.032
						c-2.645-1.361-9.992-0.568-9.992-0.568c-17.506,1.106-20.387,10.008-22.785,14.619c-2.394,4.608,7.149,12.412,7.149,12.412
						c-1.048-3.786-0.873-11.196-0.873-11.196c0.805-9.684,8.062-13.072,14.063-14.205c4.405-0.835,11.994,2.663,16.641,6.561
						C337.436,263.518,342.657,268.018,345.835,271.163"/>
					<path fill="#FFC691" d="M318.372,149.788c-1.432-0.218-1.98-5.059-3.332-4.49l-7.193-3.347
						c1.996-5.042,9.189,0.609,11.998,3.736C320.777,147.434,318.843,147.951,318.372,149.788"/>
					<path fill="#F1B486" d="M319.641,147.664c-0.199-2.53-3.143-4.046-4.349-4.889c-1.836-1.291-3.779-2.216-5.126-1.974
						c-0.457,0.113-1.17,0.616-1.62,1.747l-1.468-0.899c0.694-1.749,1.903-2.361,2.798-2.468c1.947-0.348,4.311,0.804,6.361,2.246
						c1.838,1.294,3.419,2.821,4.22,3.709C321.006,145.746,320.033,147.643,319.641,147.664"/>
					
						<path fill="none" stroke="#3C2415" stroke-width="1.208" stroke-linecap="round" stroke-linejoin="round" stroke-miterlimit="10" d="
						M319.234,149.4c-0.025-1.648,5.011-9.177,1.453-22.64"/>
					<path d="M210.881,185.509c0,0,1.158,13.585,12.992,15.515c14.012,2.272,22.465-11.582,22.465-11.582
						s-14.472,1.372-20.785,0.546C219.236,189.16,210.881,185.509,210.881,185.509"/>
					<path opacity="0.7" fill="#DE0227" enable-background="new    " d="M216.084,195.677c-0.236,5.393,2.173,7.831,10.849,7.714
						c11.617-0.154,19.911-14.481,19.911-14.481s-7.437-0.076-16.105-0.441C222.065,188.105,216.315,190.287,216.084,195.677"/>
					<path fill="#FFFFFF" d="M211.506,185.771c0,0,1.109,4.553,9.766,6.699c9.401,2.346,23.541-2.379,23.541-2.379
						s-13.566-0.817-21.144-2.493C213.378,185.313,211.506,185.771,211.506,185.771"/>
					<path fill="#EF967B" d="M216.061,183.889c1.258-0.12,2.483,1.134,4.189,1.703c3.264,1.06,7.919-1.576,11.143-0.922
						c9.131,1.86,14.563,4.518,15.45,4.24c-3.797,3.697-11.828-0.489-16.161,0.498c-2.859,0.65-8.169-0.262-11.103-0.671
						c-2.072-0.279-3.542-1.252-5.249-1.696c-2.748-0.715-2.515-0.458-3.45-1.532c0.03,0.039,1.526,0.131,2.254-0.229
						C213.984,184.866,214.727,184.021,216.061,183.889"/>
					<path fill="#C1636D" d="M210.874,185.595c-0.004,0.024-0.004,0.056-0.01,0.094
						C210.868,185.656,210.872,185.625,210.874,185.595"/>
					<path fill="#EF967B" d="M215.171,200.763c-0.006-0.005-0.009-0.01-0.013-0.018c-4.654-7.358-4.385-13.897-4.294-15.056
						c-0.015,0.347,0.037,0.814,0.137,1.348c-0.076-0.709-0.124-1.259-0.126-1.451c0,0,0.001,0.002-0.001,0.006
						c0.002-0.004,0.001-0.006,0.001-0.008c-0.001-0.051,0.003-0.081,0.006-0.075c0.17-0.44,0.221,11.313,11.706,14.344
						c15.029,3.985,24.302-11.067,24.257-10.942c0.565-0.336-5.178,18.969-22.735,16.933c-4.827-0.562-7.378-2.577-8.936-5.072
						l0.002,0.002C215.173,200.77,215.171,200.768,215.171,200.763"/>
					<path fill="#7F532E" d="M360.37,121.536c0,0-8.1-42.985-34.044-57.854c-25.946-14.866-54.532-12.287-54.532-12.287
						s41.641,6.243,51.441,18.975C333.035,83.099,355.603,98.713,360.37,121.536"/>
					<path fill="#7F532E" d="M284.061,69.941c0,0,16.568,18.912,18.002,37.876l0.853,9.652c0,0-2.725-5.854-8.724-7.757
						c-5.999-1.906,3.36-8.706-1.767-17.249C287.301,83.918,284.061,69.941,284.061,69.941"/>
					<path fill="#7F532E" d="M228.113,64.998c0,0-33.639,11.55-35.55,49.038C192.564,114.036,187.795,70.268,228.113,64.998"/>
					<path fill="#7F532E" d="M231.176,80.192c0,0,1.341,34.528,18.737,45.654c0,0-16.908-0.018-21.879-15.436
						C223.06,94.995,231.176,80.192,231.176,80.192"/>
					<path fill="#3C2415" d="M327.027,154.206c0,0-10.028,42.546-29.067,51.395l-2.459,18.293
						C295.501,223.895,315.405,211.333,327.027,154.206"/>
					<path fill="#3C2415" d="M294.042,237.96c0,0,3.361,0.681,16.45-2.264c13.096-2.945,26.025-12.912,31.871-18.48
						c5.845-5.574,6.788-11.755,7.272-13.076c0.479-1.32-12.407,14.508-18.562,18.07c-6.155,3.568-35.702,11.984-36.625,11.174
						L294.042,237.96z"/>
					<path fill="#3C2415" d="M352.192,127.473c0,0,7.559,41.689-12.219,64.041c0,0,4.464-23.354,4.783-33.232
						c0.314-9.876,2.392-32.877-3.306-50.875C344.686,105.48,352.192,127.473,352.192,127.473"/>
					
						<path fill="none" stroke="#F1B486" stroke-width="1.208" stroke-linecap="round" stroke-linejoin="round" stroke-miterlimit="10" d="
						M230.658,212.932c0,0-8.585-5.497-11.942-3.549c-3.354,1.95-2.824,3.079-2.824,3.079"/>
					<path fill="none" stroke="#537F36" stroke-width="1.289" stroke-linejoin="round" d="M295.546,331.503
						c-0.018-0.236-0.037-0.475-0.056-0.715c0,0-0.239,0.075-0.681,0.201"/>
					<path fill="none" stroke="#537F36" stroke-width="1.289" stroke-linejoin="round" stroke-dasharray="1.059,1.059" d="
						M293.424,331.38c-4.918,1.325-17.453,4.244-24.935,1.823"/>
					<path fill="none" stroke="#537F36" stroke-width="1.289" stroke-linejoin="round" d="M267.809,332.963
						c-0.222-0.084-0.444-0.179-0.659-0.276c-0.18,0.115-0.355,0.276-0.519,0.482"/>
					<path fill="none" stroke="#537F36" stroke-width="1.289" stroke-linejoin="round" stroke-dasharray="1.039,1.039" d="
						M265.965,334.408c-2.653,6.875-0.076,29.915,14.054,29.951c15.442,0.04,16.891-14.205,15.582-32.136"/>
					<polygon fill="#FFFFFF" points="274.453,346.795 280.261,346.625 277.31,353.301 276.537,352.564 278.417,348.328 
						278.461,348.208 278.483,348.095 278.458,347.963 278.417,347.895 278.364,347.84 278.242,347.777 278.09,347.747 
						274.526,347.854 					"/>
					<path fill="#FFFFFF" d="M280.384,340.54c0.751-0.025,1.409,0.643,1.464,1.475c0.061,0.837-0.501,1.536-1.25,1.557
						c-0.75,0.021-1.408-0.641-1.467-1.477C279.073,341.259,279.635,340.561,280.384,340.54"/>
					<polygon fill="#FFFFFF" points="280.853,347.714 278.074,353.84 278.959,354.281 280.777,350.295 280.837,350.205 
						280.924,350.151 281.039,350.123 281.172,350.142 281.258,350.203 281.324,350.28 283.711,354.14 284.546,353.614 					"/>
					<polygon fill="#FFFFFF" points="281.263,346.584 287.139,346.411 287.215,347.455 283.623,347.56 283.514,347.604 
						283.413,347.662 283.333,347.766 283.306,347.889 283.314,348.001 283.351,348.117 285.862,352.284 285.217,353.037 					"/>
					<path fill="#FFFFFF" d="M275.775,345.579v0.004c-0.004,0.028-0.004,0.047-0.004,0.057c0.007,0.079,0.051,0.136,0.134,0.173
						c0.084,0.034,0.207,0.051,0.378,0.044c0.126-0.003,0.228-0.022,0.299-0.055c0.067-0.034,0.103-0.08,0.098-0.132
						c-0.004-0.084-0.153-0.145-0.445-0.191c-0.034-0.004-0.059-0.006-0.075-0.009c-0.022-0.004-0.047-0.01-0.084-0.016
						c-0.46-0.067-0.762-0.147-0.898-0.243c-0.065-0.045-0.119-0.098-0.153-0.163c-0.038-0.063-0.061-0.135-0.064-0.215
						c-0.016-0.199,0.08-0.354,0.284-0.464c0.201-0.107,0.504-0.17,0.91-0.182c0.399-0.013,0.699,0.028,0.898,0.117
						c0.199,0.096,0.308,0.241,0.322,0.442v0.022l-0.756,0.023l-0.004-0.009c-0.003-0.067-0.044-0.123-0.126-0.153
						c-0.078-0.036-0.19-0.051-0.34-0.047c-0.116,0.003-0.2,0.018-0.262,0.047c-0.061,0.03-0.089,0.067-0.087,0.111
						c0.011,0.085,0.179,0.153,0.51,0.198c0.065,0.013,0.115,0.019,0.153,0.023c0.237,0.035,0.407,0.069,0.513,0.097
						c0.101,0.03,0.188,0.065,0.263,0.105c0.085,0.045,0.151,0.107,0.198,0.178c0.051,0.074,0.078,0.154,0.085,0.245
						c0.013,0.202-0.089,0.365-0.311,0.479c-0.222,0.121-0.547,0.182-0.978,0.197c-0.422,0.013-0.733-0.034-0.932-0.135
						c-0.199-0.098-0.307-0.265-0.322-0.5l-0.002-0.029L275.775,345.579z M277.895,346.18l-0.139-2.011l2.155-0.061l0.031,0.433
						l-1.346,0.039l0.021,0.322l1.245-0.038l0.029,0.429l-1.245,0.035l0.028,0.391l1.395-0.043l0.03,0.439L277.895,346.18z
						 M280.44,346.105l-0.139-2.01l1.026-0.029l1.19,1.314l-0.095-1.347l0.78-0.024l0.139,2.014l-1.065,0.028l-1.154-1.319
						l0.094,1.352L280.44,346.105z M285.383,345.156l-0.439-0.718l-0.359,0.742L285.383,345.156z M284.203,345.995l-0.815,0.024
						l1.118-2.047l0.898-0.025l1.337,1.975l-0.901,0.026l-0.208-0.359l-1.261,0.041L284.203,345.995z"/>
					<path d="M324.612,316.504l34.31-26.72l-3.501-4.352L320.26,312.41C320.261,312.41,322.081,318.603,324.612,316.504"/>
					<path fill="#808285" d="M376.435,306.346c0.259,0.923-6.767,4.897-7.78,2.896c-1.012-1.998-6.662-14.644-13.81-23.196
						c-7.14-8.554-9.307-8.759-6.399-10.733c2.908-1.979,5.676-3.529,5.676-3.529s5.555,5.592,11.418,13.838
						C369.849,291.686,374.468,299.391,376.435,306.346"/>
					<path fill="#FFFFFF" d="M369.327,306.008c0,0-5.109-11.385-10.051-17.446c-4.939-6.064-10.167-11.918-10.167-11.918
						s-0.585-0.176,0.8-0.85c1.388-0.674,5.132-3.055,5.132-3.055s8.43,9.595,11.523,14.348c4.938,6.722,8.463,14.897,9.116,16.898
						c0.65,2.001-5.888,3.031-5.888,3.031S369.298,306.638,369.327,306.008"/>
					<path fill="#414042" d="M369.98,303.88l-0.817-1.591c0,0,3.683-1.49,4.143-2.167l0.773,1.857L369.98,303.88z"/>
					<path fill="#414042" d="M368.146,300.201l-0.84-1.455c0,0,1.849-1.037,2.432-1.412l0.627,1.655L368.146,300.201z"/>
					<polygon fill="#414042" points="357.634,283.84 356.176,282.006 360.065,278.641 361.516,280.409 					"/>
					<path fill="#414042" d="M353.774,278.876l-1.513-1.784l3.982-3.089l1.438,1.804
						C357.683,275.807,353.636,278.745,353.774,278.876"/>
					<polygon fill="#F1B486" points="231.983,183.549 230.517,182.3 227.043,182.288 227.474,183.984 					"/>
					<polygon fill="#F1B486" points="221.427,182.684 220.067,182.48 218.837,183.979 220.408,184.579 					"/>
					<path fill="#EF967B" d="M235.716,187.315c0,0-4.131-1.329-5.974-1.376c-1.84-0.043-3.479,1.145-3.479,1.145
						s2.63-0.836,3.738-0.681C231.335,186.596,235.773,187.759,235.716,187.315"/>
					<path fill="#EF967B" d="M219.504,186.238c0,0-1.704-1.419-2.347-1.251c-0.643,0.165-2.974,0.248-3.848,0.881
						c0,0,2.572-0.112,3.699-0.194c0.724-0.054,1.411,1.084,1.902,0.959C219.403,186.508,219.895,186.479,219.504,186.238"/>
					<path fill="#F4D5CE" d="M221.854,202.02c0,0-3.834-1.369-4.882-2.233c-1.008-0.831-1.361,0.064-0.939,0.365
						c0.309,0.222,3.28,2.49,5.028,2.638C222.808,202.933,222.898,202.489,221.854,202.02"/>
					<path fill="#BA7261" d="M238.49,201.852c0,0-6.011,3.393-8.926,3.692c-3.396,0.349-5.164,0.527-10.612-1.175
						c0,0,4.134,2.618,10.772,1.621C236.361,204.996,238.49,201.852,238.49,201.852"/>
					<path fill="#262262" d="M214.411,582.318c0,0,79.737,2.277,102.963-0.138c23.221-2.41,87.358-11.874,85.988-26.184
						c0,0,15.842,27.405-25.297,42.353c-15.395,5.749-58.307,8.232-93.645,8.816c-34.621,1.276-54.113-1.826-58.002-3.324
						C217.668,602.118,215.942,592.535,214.411,582.318"/>
					<path fill="#FFC691" d="M107.795,427.413c0,0-2.525,4.303-5.353,3.746c-7.666-1.512-15.112,2.895-17.092,4.987
						c-1.979,2.094-9.02,15.48-9.459,16.471c-0.439,0.99,1.32,7.264,1.32,7.264l30.158,16.729c0,0,17.94-19.508,19.371-21.363
						c1.43-1.86,3.631-1.97,1.319-5.712c-2.312-3.744-3.851-5.835-4.733-6.935"/>
					<path fill="none" stroke="#F1B486" stroke-width="0.697" stroke-miterlimit="10" d="M107.795,427.413
						c0,0-2.525,4.303-5.353,3.746c-7.666-1.512-15.112,2.895-17.092,4.987c-1.979,2.094-9.02,15.48-9.459,16.471
						c-0.439,0.99,1.32,7.264,1.32,7.264l30.158,16.729c0,0,17.94-19.508,19.371-21.363c1.43-1.86,3.631-1.97,1.319-5.712
						c-2.312-3.744-3.851-5.835-4.733-6.935"/>
					<path fill="#414042" d="M72.573,457.84c1.553,0.506,2.153,1.351,3.055,2.689c0.964,1.439,1.298,2.681,3.064,3.577
						c0.947,0.485,2.158,0.51,3.143,0.939c1.659,0.729,2.863,1.961,4.164,3.179c0.893,0.925,1.855,1.771,2.887,2.54
						c1.023,0.37,2.045,0.743,3.067,1.115c0.332,0.201,0.737,0.109,1.089,0.468c1.05,1.062,0.712,2.501,2.057,3.431
						c0.871,0.602,1.746,0.44,2.593,1.366c1.764,1.934,3.219,3.893,5.277,5.647c1.382,1.18,4.435,6.096,6.315,5.101
						c0.362-0.191,1.066-0.072,1.211,0.368c1.427,4.387,5.202,6.838,7.952,10.311c1.029,1.301,1.649,1.735,2.987,2.54
						c0.41,0.246,2.533,2.464,2.313,2.458c1.021,0.035,1.032,1.268,0,1.235c-1.372-0.047-1.221-0.655-2.132-1.484
						c-1.22-1.11-2.25-1.099-3.319-2.301c-3.081-3.456-7.349-7.298-9.098-11.712c-3.314,0.868-5.157-3.731-7.393-5.643
						c-1.943-1.663-3.326-3.279-5.017-5.118c-1.136-1.234-2.875-1.27-3.881-2.563c-1.098-1.414,0.045-1.607-2.105-2.814
						c-0.407-0.23-1.003-0.189-1.447-0.453c-2.151-1.284-3.741-3.045-5.615-4.651c-2.254-1.931-5.155-1.976-7.321-3.789
						c-1.868-1.563-2.129-4.541-4.677-5.373C70.725,458.573,71.782,457.584,72.573,457.84"/>
					<path fill="#FFC691" d="M76.796,451.639c0,0,3.125-0.729,4.585,0s5.789,2.708,10.196,1.459
						c4.399-1.252,10.864-0.69,10.864-0.69s2.712,0.377,4.796-1.603c2.085-1.98,4.589-2.711,4.797-5.423
						c0.208-2.709,0.418-7.089,0-8.651"/>
					<path fill="none" stroke="#F1B486" stroke-width="0.66" stroke-miterlimit="10" d="M76.796,451.639c0,0,3.125-0.729,4.585,0
						s5.789,2.708,10.196,1.459c4.399-1.252,10.864-0.69,10.864-0.69s2.712,0.377,4.796-1.603c2.085-1.98,4.589-2.711,4.797-5.423
						c0.208-2.709,0.418-7.089,0-8.651"/>
					<path fill="#FFC691" d="M83.675,443.771c0,0,2.503,3.905,4.692,4.529c0,0,1.98,3.755,2.399,5.943
						c0.418,2.192,2.919,9.59,8.024,13.24c5.109,3.649,7.924,2.295,8.864,1.253c0.937-1.046,2.502-2.608,1.041-7.819
						c-1.459-5.216-2.084-7.612-3.128-9.278c-1.039-1.67-1.874-1.565-2.397-3.339c-0.52-1.772-0.831-3.024-0.729-3.754
						c0.106-0.729-0.417-3.649-0.417-3.649"/>
					<path fill="none" stroke="#F1B486" stroke-width="0.66" stroke-miterlimit="10" d="M83.675,443.771
						c0,0,2.503,3.905,4.692,4.529c0,0,1.98,3.755,2.399,5.943c0.418,2.192,2.919,9.59,8.024,13.24
						c5.109,3.649,7.924,2.295,8.864,1.253c0.937-1.046,2.502-2.608,1.041-7.819c-1.459-5.216-2.084-7.612-3.128-9.278
						c-1.039-1.67-1.874-1.565-2.397-3.339c-0.52-1.772-0.831-3.024-0.729-3.754c0.106-0.729-0.417-3.649-0.417-3.649"/>
					<path fill="#F1B486" d="M82.528,448.69c0,0,3.978,2.592,5.3,2.825c1.402,0.249,1.603-0.57,1.603-0.57l-1.063-2.646
						c0,0-4.366-2.701-4.968-4.234C82.528,444.845,82.528,448.69,82.528,448.69"/>
					<path fill="#E5865C" d="M104.526,461.811c0,0-5.311,0.25-6.025,2.515c0.941,3.37,2.174,4.901,4,4.549
						c1.826-0.351,3.029-0.936,3.833-1.815C107.136,466.183,104.837,462.646,104.526,461.811"/>
					<path fill="none" stroke="#F1B486" stroke-width="0.66" stroke-miterlimit="10" d="M104.526,461.811
						c0,0-5.311,0.25-6.025,2.515c0.941,3.37,2.174,4.901,4,4.549c1.826-0.351,3.029-0.936,3.833-1.815
						C107.136,466.183,104.837,462.646,104.526,461.811z"/>
					<g>
						<g>
							<g>
								<g>
									<defs>
										<path id="SVGID_9_" d="M234.685,232.311c0.334,6.955-0.373,13.333-3.511,19.626c-3.568,7.152-8.93,12.416-14.546,17.89
											c-3.701,3.602-8.585,8.08-8.77,13.706c-0.157,4.77,3.211,7.753,7.551,8.69c3.058,0.662,6.396,0.613,9.495,0.076
											c-1.068,1.101-2.136,2.35-3.411,3.146c-1.934,1.203-4.332,1.82-6.513,2.406c-0.221,0.06-0.217,0.398,0.023,0.412
											c0.666,0.047,1.325,0.098,1.988,0.144c0.491,0.032,0.988,0.076,1.483,0.101c0.755,0.041,0.11,0.024-0.372,0.286
											c-1.393,0.748-2.655,1.783-4.067,2.532c-0.629,0.334-1.684,1.13-2.412,1.186c-1.164,0.092-3.258-1.223-4.224-1.791
											c-1.298-0.765-2.48-1.74-3.454-2.895c-1.752-2.075-2.754-4.679-3.055-7.373c-1.651-14.811,13.285-22.935,21.699-32.272
											c4.631-5.141,8.328-11.695,7.633-18.902c-0.007-0.08-0.126-0.054-0.124,0.026c1.414,16.04-15.77,24.189-24.226,34.859
											c-5.698,7.188-8.51,19.43-0.104,25.906c1.421,1.095,4.417,3.116,6.224,2.704c1.01-0.228,2.107-1.019,3.008-1.521
											c1.452-0.807,2.847-1.695,4.123-2.761c0.134-0.114,0.049-0.347-0.121-0.358c-0.909-0.064-1.819-0.133-2.732-0.196
											c1.864-0.512,3.806-1.116,5.416-2.106c1.505-0.932,2.725-2.471,3.99-3.703c0.15-0.146,0.028-0.417-0.185-0.375
											c-6.73,1.338-18.871,0.356-17.054-9.572c1.094-5.96,6.841-10.45,10.92-14.388c5.064-4.885,9.5-9.977,12.563-16.429
											c2.898-6.107,3.581-12.371,3.125-19.08c-0.007-0.104-0.105-0.148-0.197-0.14
											C234.762,232.155,234.681,232.21,234.685,232.311"/>
									</defs>
									<clipPath id="SVGID_10_">
										<use xlink:href="#SVGID_9_"  overflow="visible"/>
									</clipPath>
									
										<linearGradient id="SVGID_11_" gradientUnits="userSpaceOnUse" x1="-3525.0796" y1="-278.2931" x2="-3523.7166" y2="-278.2931" gradientTransform="matrix(13.0505 64.7818 -64.7818 13.0505 28189.8984 232248.4688)">
										<stop  offset="0" style="stop-color:#180403"/>
										<stop  offset="0.0159" style="stop-color:#180403"/>
										<stop  offset="0.508" style="stop-color:#401611"/>
										<stop  offset="1" style="stop-color:#63261D"/>
									</linearGradient>
									<polygon clip-path="url(#SVGID_10_)" fill="url(#SVGID_11_)" points="234.154,227.765 248.459,298.779 199.278,308.688 
										184.971,237.673 									"/>
								</g>
							</g>
						</g>
						<g>
							<g>
								<defs>
									<rect id="SVGID_12_" x="39.351" width="473.045" height="535.678"/>
								</defs>
								<clipPath id="SVGID_13_">
									<use xlink:href="#SVGID_12_"  overflow="visible"/>
								</clipPath>
								<g clip-path="url(#SVGID_13_)">
									
										<line fill="none" stroke="#231F20" stroke-width="3.2" stroke-linejoin="round" stroke-miterlimit="10" x1="462.148" y1="328.036" x2="489.205" y2="328.036"/>
									
										<line fill="none" stroke="#231F20" stroke-width="3.2" stroke-linejoin="round" stroke-miterlimit="10" x1="465.33" y1="314.511" x2="502.732" y2="314.511"/>
									
										<line fill="none" stroke="#231F20" stroke-width="3.2" stroke-linejoin="round" stroke-miterlimit="10" x1="463.74" y1="299.39" x2="478.859" y2="299.39"/>
								</g>
							</g>
							<g>
								<g>
									<defs>
										<rect id="SVGID_14_" x="39.351" width="473.045" height="535.678"/>
									</defs>
									<clipPath id="SVGID_15_">
										<use xlink:href="#SVGID_14_"  overflow="visible"/>
									</clipPath>
									<g clip-path="url(#SVGID_15_)">
										<rect x="144.392" y="185.316" width="41.301" height="2.044"/>
										<rect x="128.857" y="185.316" width="3.871" height="2.044"/>
									</g>
								</g>
								<g>
									<g>
										<defs>
											<rect id="SVGID_16_" x="39.351" width="473.045" height="535.678"/>
										</defs>
										<clipPath id="SVGID_17_">
											<use xlink:href="#SVGID_16_"  overflow="visible"/>
										</clipPath>
										<g clip-path="url(#SVGID_17_)">
											<rect x="144.392" y="193.504" width="41.301" height="2.044"/>
											<rect x="91.472" y="193.504" width="41.304" height="2.044"/>
											<rect x="79.857" y="193.504" width="3.871" height="2.044"/>
										</g>
									</g>
								</g>
							</g>
						</g>
					</g>
				</g>
			</g>
		</g>
	</g>
</g>
</svg>
