<?xml version="1.0" encoding="utf-8"?>
<!-- Generator: Adobe Illustrator 17.0.0, SVG Export Plug-In . SVG Version: 6.00 Build 0)  -->
<!DOCTYPE svg PUBLIC "-//W3C//DTD SVG 1.1//EN" "http://www.w3.org/Graphics/SVG/1.1/DTD/svg11.dtd" [
	<!ENTITY ns_extend "http://ns.adobe.com/Extensibility/1.0/">
	<!ENTITY ns_ai "http://ns.adobe.com/AdobeIllustrator/10.0/">
	<!ENTITY ns_graphs "http://ns.adobe.com/Graphs/1.0/">
	<!ENTITY ns_vars "http://ns.adobe.com/Variables/1.0/">
	<!ENTITY ns_imrep "http://ns.adobe.com/ImageReplacement/1.0/">
	<!ENTITY ns_sfw "http://ns.adobe.com/SaveForWeb/1.0/">
	<!ENTITY ns_custom "http://ns.adobe.com/GenericCustomNamespace/1.0/">
	<!ENTITY ns_adobe_xpath "http://ns.adobe.com/XPath/1.0/">
]>
<svg version="1.1" id="Capa_1" xmlns:x="&ns_extend;" xmlns:i="&ns_ai;" xmlns:graph="&ns_graphs;"
	 xmlns="http://www.w3.org/2000/svg" xmlns:xlink="http://www.w3.org/1999/xlink" x="0px" y="0px" width="48.288px"
	 height="10.45px" viewBox="0 0 48.288 10.45" enable-background="new 0 0 48.288 10.45" xml:space="preserve">
<metadata>
	<sfw  xmlns="&ns_sfw;">
		<slices></slices>
		<sliceSourceBounds  width="51.502" height="15.726" y="293.847" x="612.142" bottomLeftOrigin="true"></sliceSourceBounds>
	</sfw>
</metadata>
<g>
	<path fill="#E2AC7F" d="M28.568,7.401c0,0,1.311-6.122,9.672-3.637c7.297,2.169,6.758,5.577,6.946,5.981
		c0.189,0.403-5.931,0.473-7.884,0.027C35.349,9.326,28.568,7.401,28.568,7.401L28.568,7.401z"/>
	<path fill="#3B2416" d="M48.288,9.408c0,0-2.357-0.53-3.491-0.505c0,0,0.847,0.843-0.329,0.967s-6.425-0.045-9.151-0.739
		c-2.725-0.695-4.871-1.36-6.324-1.724L28.17,7.396c0,0,1.558,0.623,3.377,1.204c1.819,0.58,5.097,1.401,9.264,1.769
		s5.421-0.633,5.421-0.633S46.779,9.174,48.288,9.408"/>
</g>
<g>
	<defs>
		<path id="SVGID_1_" d="M14.281,4.014c0,4.343-3.14,7.863-8.248,7.863s-9.248-3.52-9.248-7.863s4.14-7.863,9.248-7.863
			S14.281-0.328,14.281,4.014z"/>
	</defs>
	<clipPath id="SVGID_2_">
		<use xlink:href="#SVGID_1_"  overflow="visible"/>
	</clipPath>
	<g clip-path="url(#SVGID_2_)">
		<path fill="#E2AC7F" d="M17.431,4.581c0,0-1.094-4.412-7.75-4.576C3.027-0.158,2.562,3.763,2.3,4.05
			C2.036,4.336,4.847,5.045,6.582,5.282c2.166,0.296,7.189,0.226,10.756-0.279L17.431,4.581z"/>
		<path fill="#3B2416" d="M0,4.09c0,0,2.001-0.117,3.08,0.048c0,0,0.281,0.349,1.264,0.697c1.446,0.513,5.301,0.807,7.581,0.608
			c2.281-0.2,4.347-0.646,5.416-0.46l0.772,0.097c0,0-1.302,0.119-2.776,0.345c-1.473,0.226-4.133,0.628-7.905,0.385
			c-3.77-0.243-5.361-1.197-5.361-1.197S1.325,4.098,0,4.09"/>
	</g>
</g>
</svg>
