<?xml version="1.0" encoding="utf-8"?>
<!-- Generator: Adobe Illustrator 17.0.0, SVG Export Plug-In . SVG Version: 6.00 Build 0)  -->
<!DOCTYPE svg PUBLIC "-//W3C//DTD SVG 1.1//EN" "http://www.w3.org/Graphics/SVG/1.1/DTD/svg11.dtd" [
	<!ENTITY ns_extend "http://ns.adobe.com/Extensibility/1.0/">
	<!ENTITY ns_ai "http://ns.adobe.com/AdobeIllustrator/10.0/">
	<!ENTITY ns_graphs "http://ns.adobe.com/Graphs/1.0/">
	<!ENTITY ns_vars "http://ns.adobe.com/Variables/1.0/">
	<!ENTITY ns_imrep "http://ns.adobe.com/ImageReplacement/1.0/">
	<!ENTITY ns_sfw "http://ns.adobe.com/SaveForWeb/1.0/">
	<!ENTITY ns_custom "http://ns.adobe.com/GenericCustomNamespace/1.0/">
	<!ENTITY ns_adobe_xpath "http://ns.adobe.com/XPath/1.0/">
]>
<svg version="1.1" id="Capa_1" xmlns:x="&ns_extend;" xmlns:i="&ns_ai;" xmlns:graph="&ns_graphs;"
	 xmlns="http://www.w3.org/2000/svg" xmlns:xlink="http://www.w3.org/1999/xlink" x="0px" y="0px" width="47.557px"
	 height="15.958px" viewBox="0 0 47.557 15.958" enable-background="new 0 0 47.557 15.958" xml:space="preserve">
<metadata>
	<sfw  xmlns="&ns_sfw;">
		<slices></slices>
		<sliceSourceBounds  width="56.335" height="22.167" y="292.521" x="606.943" bottomLeftOrigin="true"></sliceSourceBounds>
	</sfw>
</metadata>
<path fill="#E2AC7F" d="M28.268,6.09c0,0,2.71-4.436,10.025-2.325c7.314,2.11,6.758,5.577,6.946,5.981
	c0.189,0.403-4.208-3.8-6.16-4.246c-1.953-0.446-10.856,1.082-10.856,1.082L28.268,6.09z"/>
<path fill="#FFFFFF" d="M28.257,6.598c0,0-1.271,7.199,5.55,8.994c6.82,1.795,9.982-3.472,10.667-5.856
	c0.684-2.383-7.093-5.436-11.046-4.51C29.476,6.152,28.257,6.598,28.257,6.598"/>
<path fill="#3B2416" d="M47.557,11.407c0,0-2.415,0.102-3.521-0.524c0,0,1-1.616-0.126-2.503c-1.127-0.889-6.301-3.104-9.111-2.788
	c-2.81,0.317-5.046,0.854-6.542,1.008l-0.81-0.386c0,0,1.652-0.728,3.551-1.224c1.898-0.494,5.275-0.839,9.431,0.353
	c4.155,1.193,5.181,4.242,5.181,4.242S46.031,11.218,47.557,11.407"/>
<path fill="#188FC3" d="M28.75,7.311c-0.833,1.748-0.053,4.285,1.945,5.237c1.999,0.953,4.294,0.31,5.125-1.438
	c0.833-1.748,0.814-3.348-1.184-4.299C31.639,5.353,29.553,6.364,28.75,7.311"/>
<path fill="#081723" d="M34.466,9.711c-0.363,1.219-1.468,1.969-2.465,1.67c-0.998-0.295-1.513-1.526-1.149-2.748
	c0.364-1.22,1.467-1.967,2.465-1.67C34.315,7.26,34.829,8.49,34.466,9.711"/>
<path fill="#FFFFFF" d="M29.559,8.661c-0.15,0.505,0.005,0.996,0.347,1.098c0.343,0.103,0.741-0.225,0.892-0.729
	c0.149-0.505-0.005-0.996-0.348-1.097C30.108,7.829,29.709,8.156,29.559,8.661"/>
<path fill="#FFFFFF" d="M35.297,10.733c-0.237,0.795-0.929,1.289-1.547,1.105c-0.617-0.184-0.926-0.977-0.69-1.771
	c0.237-0.793,0.93-1.289,1.548-1.104C35.224,9.147,35.533,9.94,35.297,10.733"/>
<g>
	<g>
		<defs>
			<ellipse id="SVGID_1_" cx="3.099" cy="4.534" rx="11.877" ry="10.743"/>
		</defs>
		<clipPath id="SVGID_2_">
			<use xlink:href="#SVGID_1_"  overflow="visible"/>
		</clipPath>
		<g clip-path="url(#SVGID_2_)">
			<path fill="#FFFFFF" d="M17.359,5.008c0,0-0.832,6.338-6.993,6.042c-6.161-0.298-7.412-5.522-7.355-7.689
				c0.056-2.168,6.825-2.407,9.877-0.595C15.941,4.578,17.359,5.008,17.359,5.008"/>
			<path fill="#E2AC7F" d="M17.484,4.582c0,0-1.094-4.412-7.75-4.576C3.08-0.157,2.633,2.881,2.37,3.168
				C2.106,3.455,6.878,1.105,8.624,1.247s8.768,3.758,8.768,3.758L17.484,4.582z"/>
			<path fill="#188FC3" d="M10.872,4.341c0.233,1.677-1.083,3.589-3,3.858C5.955,8.467,4.211,7.327,3.975,5.65
				C3.741,3.974,4.177,2.645,6.094,2.377C9.021,2.169,10.451,3.341,10.872,4.341"/>
			<path fill="#3B2416" d="M0,3.943c0,0,1.987,0.721,3.075,0.489c0,0,0.306-0.894,1.312-1.643c1.48-1.105,5.346-1.129,7.605-0.126
				c2.26,1.003,4.287,2.634,5.367,2.345L18.137,4.9c0,0-1.29-0.586-2.743-1.498C13.941,2.49,11.318,0.859,7.539,0.76
				C3.762,0.661,2.105,2.936,2.105,2.936S1.322,4.188,0,3.943"/>
			<path fill="#081723" d="M5.474,4.839C5.455,5.953,6.18,6.868,7.09,6.882C8,6.897,8.754,6.006,8.771,4.893
				S8.064,2.866,7.154,2.851C6.244,2.835,5.491,3.727,5.474,4.839"/>
			<path fill="#FFFFFF" d="M9.842,5.254C9.835,5.715,9.576,6.084,9.265,6.08C8.953,6.075,8.706,5.698,8.713,5.237
				c0.008-0.461,0.267-0.83,0.578-0.825C9.604,4.416,9.85,4.794,9.842,5.254"/>
			<path fill="#FFFFFF" d="M4.513,5.474C4.5,6.198,4.948,6.793,5.51,6.801c0.564,0.01,1.03-0.569,1.043-1.294
				c0.011-0.724-0.437-1.319-1-1.327C4.99,4.17,4.524,4.75,4.513,5.474"/>
		</g>
	</g>
</g>
</svg>
