<!-- Generator: Adobe Illustrator 17.0.0, SVG Export Plug-In  -->
<svg version="1.1"
	 xmlns="http://www.w3.org/2000/svg" xmlns:xlink="http://www.w3.org/1999/xlink" xmlns:a="http://ns.adobe.com/AdobeSVGViewerExtensions/3.0/"
	 x="0px" y="0px" width="13.934px" height="10.915px" viewBox="0 0 13.934 10.915" enable-background="new 0 0 13.934 10.915"
	 xml:space="preserve">
<defs>
</defs>
<g>
	<path fill="#9D1A2A" d="M13.933,1.159c0,0-1.436,6.709-6.072,7.251C2.371,9.048,0.178,1.866,0.178,1.866s5.395,1.191,7.853,1.002
		C10.492,2.68,13.933,1.159,13.933,1.159"/>
	<path fill="#DE1E29" d="M11.212,6.03c-0.307,2.686-1.401,3.815-4.688,3.45c-4.399-0.485-6.5-7.894-6.5-7.894
		S2.855,1.81,6.173,1.933C9.495,2.055,11.519,3.342,11.212,6.03"/>
	<path fill="#FFFFFF" d="M13.676,1.269c0,0-0.756,2.221-4.2,2.984c-3.743,0.835-8.769-2.01-8.769-2.01s5.215,0.071,8.216-0.496
		C12.998,0.975,13.676,1.269,13.676,1.269"/>
	<path fill="#F15841" d="M12.083,0.173c-0.47-0.103-1.026,0.476-1.715,0.7C9.051,1.283,7.476-0.19,6.204,0.021
		C2.599,0.624,0.34,1.754,0.024,1.585c1.171,1.97,4.528,0.173,6.101,0.815c1.039,0.424,3.123,0.157,4.268,0.056
		C11.2,2.391,11.829,1.959,12.509,1.8c1.098-0.259,0.99-0.141,1.424-0.641c-0.016,0.019-0.59,0.012-0.84-0.193
		C12.801,0.732,12.581,0.285,12.083,0.173"/>
	<path fill="#C1636D" d="M13.929,1.202c-0.001,0.013-0.002,0.029-0.003,0.047C13.927,1.234,13.928,1.216,13.929,1.202"/>
	<path fill="#EF977C" d="M11.186,8.588c0.002-0.002,0.004-0.006,0.005-0.01c2.309-3.49,2.684-6.751,2.735-7.329
		c-0.02,0.174-0.074,0.404-0.15,0.666c0.082-0.35,0.139-0.623,0.153-0.719c0,0.003,0,0.004,0,0.006c0-0.002,0-0.003,0-0.006
		c0.004-0.025,0.006-0.039,0.004-0.039c-0.032-0.222-0.914,5.614-5.499,6.717c-6,1.451-8.419-6.353-8.409-6.29
		c-0.19-0.186,0.574,9.607,7.392,9.213c1.876-0.108,2.993-1.022,3.767-2.205l0,0C11.184,8.59,11.185,8.589,11.186,8.588"/>
	<path fill="#F4D5CE" d="M8.554,8.977c0,0,1.558-0.544,2.019-0.937c0.442-0.378,0.513,0.078,0.331,0.214
		c-0.135,0.1-1.43,1.12-2.104,1.132C8.125,9.398,8.124,9.173,8.554,8.977"/>
	<path fill="#BB7261" d="M2.248,8.31c0,0,2.034,1.896,3.118,2.148c1.265,0.293,1.924,0.443,4.118-0.21c0,0-1.761,1.155-4.21,0.426
		C2.827,9.946,2.248,8.31,2.248,8.31"/>
</g>
</svg>