<!-- Generator: Adobe Illustrator 17.0.0, SVG Export Plug-In  -->
<svg version="1.1"
	 xmlns="http://www.w3.org/2000/svg" xmlns:xlink="http://www.w3.org/1999/xlink" xmlns:a="http://ns.adobe.com/AdobeSVGViewerExtensions/3.0/"
	 x="0px" y="0px" width="21.727px" height="14.179px" viewBox="0 0 21.727 14.179" enable-background="new 0 0 21.727 14.179"
	 xml:space="preserve">
<defs>
</defs>
<g>
	<path fill="#9D1A2A" d="M21.566,0.678c0,0,0.093,8.281-6.95,10.139C6.274,13.008,0.357,5.121,0.357,5.121s8.831-0.013,12.6-0.881
		C16.728,3.372,21.566,0.678,21.566,0.678"/>
	<path fill="#DE1E29" d="M19.015,7.129c0.455,3.246-0.859,4.863-6.112,5.297C5.869,13.01,0.02,4.83,0.02,4.83
		s4.492-0.479,9.712-1.205C14.954,2.898,18.56,3.883,19.015,7.129"/>
	<path fill="#FFFFFF" d="M21.204,0.873c0,0-0.406,2.817-5.513,4.619C10.142,7.459,1.315,5.426,1.315,5.426s8.158-1.285,12.642-2.74
		C20.045,0.705,21.204,0.873,21.204,0.873"/>
	<path fill="#F15841" d="M18.34,0c-0.769,0.002-1.436,0.83-2.434,1.275c-1.911,0.83-4.881-0.492-6.793,0.09
		C3.701,3.022,0.572,4.945,0.02,4.83c2.51,2.014,7.123-0.985,9.8-0.641c1.768,0.227,4.925-0.634,6.676-1.054
		c1.235-0.289,2.068-0.964,3.074-1.329c1.621-0.594,1.495-0.425,1.996-1.129c-0.017,0.025-0.914,0.168-1.376-0.007
		C19.654,0.471,19.154,0.002,18.34,0"/>
	<path fill="#EF977C" d="M19.862,10.152c0.002-0.004,0.004-0.008,0.006-0.013c2.387-4.719,1.84-8.659,1.719-9.354
		c0.029,0.209,0.024,0.496-0.004,0.824c0.006-0.434,0.001-0.769-0.009-0.886c0,0.001,0.001,0.003,0.001,0.005
		c0-0.002-0.001-0.004-0.001-0.006c-0.003-0.031-0.006-0.049-0.009-0.046c-0.127-0.254,0.527,6.854-6.242,9.357
		C6.469,13.318-0.015,4.758,0.02,4.829c-0.361-0.169,4.235,11.17,14.732,8.915c2.886-0.62,4.313-1.989,5.108-3.588H19.86
		C19.861,10.154,19.862,10.154,19.862,10.152"/>
	<path fill="#EF977C" d="M6.656,3.217c0,0,2.42-1.045,3.53-1.18c1.111-0.133,2.169,0.49,2.169,0.49s-1.638-0.353-2.298-0.193
		C9.263,2.526,6.646,3.489,6.656,3.217"/>
	<path fill="#EF977C" d="M16.395,1.621c0,0,0.948-0.956,1.347-0.893c0.398,0.063,1.813-0.023,2.377,0.308
		c0,0-1.562,0.083-2.248,0.099c-0.44,0.01-0.788,0.737-1.093,0.69C16.472,1.777,16.173,1.789,16.395,1.621"/>
	<path fill="#F4D5CE" d="M15.894,11.301c0,0,2.239-1.051,2.822-1.635c0.559-0.561,0.825-0.041,0.59,0.166
		c-0.175,0.153-1.84,1.696-2.888,1.887C15.37,11.909,15.29,11.646,15.894,11.301"/>
	<path fill="#BB7261" d="M5.824,12.17c0,0,3.832,1.699,5.611,1.711c2.075,0.014,3.155,0.019,6.35-1.328c0,0-2.346,1.824-6.419,1.608
		C7.294,13.945,5.824,12.17,5.824,12.17"/>
</g>
</svg>