<?xml version="1.0" encoding="utf-8"?>
<!-- Generator: Adobe Illustrator 17.0.0, SVG Export Plug-In . SVG Version: 6.00 Build 0)  -->
<!DOCTYPE svg PUBLIC "-//W3C//DTD SVG 1.1//EN" "http://www.w3.org/Graphics/SVG/1.1/DTD/svg11.dtd" [
	<!ENTITY ns_extend "http://ns.adobe.com/Extensibility/1.0/">
	<!ENTITY ns_ai "http://ns.adobe.com/AdobeIllustrator/10.0/">
	<!ENTITY ns_graphs "http://ns.adobe.com/Graphs/1.0/">
	<!ENTITY ns_vars "http://ns.adobe.com/Variables/1.0/">
	<!ENTITY ns_imrep "http://ns.adobe.com/ImageReplacement/1.0/">
	<!ENTITY ns_sfw "http://ns.adobe.com/SaveForWeb/1.0/">
	<!ENTITY ns_custom "http://ns.adobe.com/GenericCustomNamespace/1.0/">
	<!ENTITY ns_adobe_xpath "http://ns.adobe.com/XPath/1.0/">
]>
<svg version="1.1" id="Capa_1" xmlns:x="&ns_extend;" xmlns:i="&ns_ai;" xmlns:graph="&ns_graphs;"
	 xmlns="http://www.w3.org/2000/svg" xmlns:xlink="http://www.w3.org/1999/xlink" x="0px" y="0px" width="47.557px"
	 height="15.958px" viewBox="0 0 47.557 15.958" enable-background="new 0 0 47.557 15.958" xml:space="preserve">
<metadata>
	<sfw  xmlns="&ns_sfw;">
		<slices></slices>
		<sliceSourceBounds  width="56.32" height="22.167" y="292.521" x="615.721" bottomLeftOrigin="true"></sliceSourceBounds>
	</sfw>
</metadata>
<g>
	<path fill="#E2AC7F" d="M19.284,6.09c0,0-2.709-4.436-10.022-2.325c-7.312,2.11-6.756,5.577-6.944,5.981
		c-0.189,0.403,4.207-3.8,6.158-4.246c1.952-0.446,10.853,1.082,10.853,1.082L19.284,6.09z"/>
	<path fill="#FFFFFF" d="M19.295,6.598c0,0,1.271,7.199-5.549,8.994C6.928,17.387,3.767,12.12,3.082,9.736
		C2.398,7.353,10.173,4.3,14.125,5.226C18.076,6.152,19.295,6.598,19.295,6.598"/>
	<path fill="#3B2416" d="M0,11.407c0,0,2.414,0.102,3.52-0.524c0,0-1-1.616,0.126-2.503c1.127-0.889,6.299-3.104,9.109-2.788
		c2.809,0.317,5.045,0.854,6.54,1.008l0.81-0.386c0,0-1.652-0.728-3.55-1.224c-1.897-0.494-5.274-0.839-9.429,0.353
		c-4.154,1.193-5.18,4.242-5.18,4.242S1.526,11.218,0,11.407"/>
	<path fill="#188FC3" d="M18.802,7.311c0.833,1.748,0.053,4.285-1.944,5.237c-1.998,0.953-4.293,0.31-5.124-1.438
		c-0.833-1.748-0.814-3.348,1.184-4.299C15.914,5.353,17.999,6.364,18.802,7.311"/>
	<path fill="#081723" d="M13.088,9.711c0.363,1.219,1.468,1.969,2.464,1.67c0.998-0.295,1.513-1.526,1.149-2.748
		c-0.364-1.22-1.467-1.967-2.464-1.67C13.239,7.26,12.725,8.49,13.088,9.711"/>
	<path fill="#FFFFFF" d="M17.993,8.661c0.15,0.505-0.005,0.996-0.347,1.098c-0.343,0.103-0.741-0.225-0.892-0.729
		c-0.149-0.505,0.005-0.996,0.348-1.097C17.444,7.829,17.843,8.156,17.993,8.661"/>
	<path fill="#FFFFFF" d="M12.257,10.733c0.237,0.795,0.929,1.289,1.547,1.105c0.617-0.184,0.926-0.977,0.69-1.771
		c-0.237-0.793-0.93-1.289-1.548-1.104C12.33,9.147,12.021,9.94,12.257,10.733"/>
	<g>
		<g>
			<defs>
				<ellipse id="SVGID_1_" cx="44.446" cy="4.534" rx="11.874" ry="10.743"/>
			</defs>
			<clipPath id="SVGID_2_">
				<use xlink:href="#SVGID_1_"  overflow="visible"/>
			</clipPath>
			<g clip-path="url(#SVGID_2_)">
				<path fill="#FFFFFF" d="M30.19,5.008c0,0,0.832,6.338,6.991,6.042c6.159-0.298,7.41-5.522,7.353-7.689
					c-0.056-2.168-6.823-2.407-9.874-0.595C31.608,4.578,30.19,5.008,30.19,5.008"/>
				<path fill="#E2AC7F" d="M30.065,4.582c0,0,1.094-4.412,7.748-4.576c6.652-0.163,7.099,2.875,7.362,3.162
					c0.264,0.287-4.507-2.063-6.252-1.921s-8.766,3.758-8.766,3.758L30.065,4.582z"/>
				<path fill="#188FC3" d="M36.675,4.341c-0.233,1.677,1.083,3.589,2.999,3.858c1.916,0.268,3.66-0.872,3.896-2.549
					c0.234-1.676-0.202-3.005-2.118-3.273C38.526,2.169,37.096,3.341,36.675,4.341"/>
				<path fill="#3B2416" d="M47.544,3.943c0,0-1.986,0.721-3.074,0.489c0,0-0.306-0.894-1.312-1.643
					c-1.48-1.105-5.345-1.129-7.603-0.126c-2.259,1.003-4.286,2.634-5.366,2.345L29.412,4.9c0,0,1.29-0.586,2.742-1.498
					c1.453-0.912,4.075-2.543,7.853-2.642c3.776-0.099,5.433,2.176,5.433,2.176S46.223,4.188,47.544,3.943"/>
				<path fill="#081723" d="M42.072,4.839c0.019,1.114-0.706,2.029-1.616,2.043c-0.91,0.015-1.664-0.876-1.681-1.989
					c-0.017-1.113,0.707-2.027,1.617-2.042C41.302,2.835,42.055,3.727,42.072,4.839"/>
				<path fill="#FFFFFF" d="M37.705,5.254c0.007,0.461,0.266,0.83,0.577,0.826c0.312-0.005,0.559-0.382,0.552-0.843
					c-0.008-0.461-0.267-0.83-0.578-0.825C37.943,4.416,37.697,4.794,37.705,5.254"/>
				<path fill="#FFFFFF" d="M43.033,5.474c0.013,0.724-0.435,1.319-0.997,1.327c-0.564,0.01-1.03-0.569-1.043-1.294
					c-0.011-0.724,0.437-1.319,1-1.327C42.556,4.17,43.022,4.75,43.033,5.474"/>
			</g>
		</g>
	</g>
</g>
</svg>
