<?xml version="1.0" encoding="utf-8"?>
<!-- Generator: Adobe Illustrator 17.0.0, SVG Export Plug-In . SVG Version: 6.00 Build 0)  -->
<!DOCTYPE svg PUBLIC "-//W3C//DTD SVG 1.1//EN" "http://www.w3.org/Graphics/SVG/1.1/DTD/svg11.dtd" [
	<!ENTITY ns_extend "http://ns.adobe.com/Extensibility/1.0/">
	<!ENTITY ns_ai "http://ns.adobe.com/AdobeIllustrator/10.0/">
	<!ENTITY ns_graphs "http://ns.adobe.com/Graphs/1.0/">
	<!ENTITY ns_vars "http://ns.adobe.com/Variables/1.0/">
	<!ENTITY ns_imrep "http://ns.adobe.com/ImageReplacement/1.0/">
	<!ENTITY ns_sfw "http://ns.adobe.com/SaveForWeb/1.0/">
	<!ENTITY ns_custom "http://ns.adobe.com/GenericCustomNamespace/1.0/">
	<!ENTITY ns_adobe_xpath "http://ns.adobe.com/XPath/1.0/">
]>
<svg version="1.1" id="Capa_1" xmlns:x="&ns_extend;" xmlns:i="&ns_ai;" xmlns:graph="&ns_graphs;"
	 xmlns="http://www.w3.org/2000/svg" xmlns:xlink="http://www.w3.org/1999/xlink" x="0px" y="0px" width="48.288px"
	 height="10.45px" viewBox="0 0 48.288 10.45" enable-background="new 0 0 48.288 10.45" xml:space="preserve">
<metadata>
	<sfw  xmlns="&ns_sfw;">
		<slices></slices>
		<sliceSourceBounds  width="51.877" height="15.726" y="293.848" x="615.356" bottomLeftOrigin="true"></sliceSourceBounds>
	</sfw>
</metadata>
<g>
	<g>
		<path fill="#E2AC7F" d="M19.863,7.401c0,0-1.321-6.122-9.742-3.637c-7.35,2.169-6.807,5.577-6.996,5.981
			c-0.19,0.403,5.974,0.473,7.941,0.027C13.033,9.326,19.863,7.401,19.863,7.401L19.863,7.401z"/>
		<path fill="#3B2416" d="M0,9.408c0,0,2.374-0.53,3.516-0.505c0,0-0.853,0.843,0.331,0.967s6.472-0.045,9.218-0.739
			c2.745-0.695,4.906-1.36,6.37-1.724l0.829-0.011c0,0-1.569,0.623-3.402,1.204c-1.832,0.58-5.134,1.401-9.331,1.769
			s-5.46-0.633-5.46-0.633S1.52,9.174,0,9.408"/>
	</g>
	<g>
		<g>
			<defs>
				<path id="SVGID_1_" d="M34.254,4.014c0,4.343,3.163,7.863,8.308,7.863s9.315-3.52,9.315-7.863s-4.17-7.863-9.315-7.863
					S34.254-0.328,34.254,4.014z"/>
			</defs>
			<clipPath id="SVGID_2_">
				<use xlink:href="#SVGID_1_"  overflow="visible"/>
			</clipPath>
			<g clip-path="url(#SVGID_2_)">
				<path fill="#E2AC7F" d="M31.081,4.581c0,0,1.102-4.412,7.806-4.576c6.702-0.163,7.171,3.758,7.435,4.045
					c0.266,0.286-2.566,0.995-4.313,1.232c-2.182,0.296-7.241,0.226-10.834-0.279L31.081,4.581z"/>
				<path fill="#3B2416" d="M48.639,4.09c0,0-2.016-0.117-3.102,0.048c0,0-0.283,0.349-1.273,0.697
					c-1.457,0.513-5.34,0.807-7.636,0.608c-2.298-0.2-4.379-0.646-5.455-0.46L30.394,5.08c0,0,1.311,0.119,2.796,0.345
					c1.484,0.226,4.163,0.628,7.962,0.385c3.797-0.243,5.4-1.197,5.4-1.197S47.304,4.098,48.639,4.09"/>
			</g>
		</g>
	</g>
</g>
</svg>
