<!-- Generator: Adobe Illustrator 17.0.0, SVG Export Plug-In  -->
<svg version="1.1"
	 xmlns="http://www.w3.org/2000/svg" xmlns:xlink="http://www.w3.org/1999/xlink" xmlns:a="http://ns.adobe.com/AdobeSVGViewerExtensions/3.0/"
	 x="0px" y="0px" width="21.925px" height="19.03px" viewBox="0 0 21.925 19.03" enable-background="new 0 0 21.925 19.03"
	 xml:space="preserve">
<defs>
</defs>
<g>
	<path fill="#9D1A2A" d="M0.02,2.19c0,0,0.869,8.236,8.08,9.264c8.54,1.209,13.502-7.311,13.502-7.311S12.828,5.154,8.985,4.73
		C5.138,4.305,0.02,2.19,0.02,2.19"/>
	<path fill="#992D38" d="M3.302,8.303c-0.076,3.276,1.417,4.731,6.685,4.552c7.053-0.236,11.915-9.039,11.915-9.039
		s-4.518,0.046-9.786-0.07C6.844,3.629,3.377,5.025,3.302,8.303"/>
	<path fill="#FFFFFF" d="M0.402,2.343c0,0,0.73,2.75,6.011,3.948c5.74,1.31,14.272-1.733,14.272-1.733s-8.252-0.33-12.874-1.256
		C1.534,2.041,0.402,2.343,0.402,2.343"/>
	<path fill="#C99878" d="M3.145,1.143C3.909,1.056,4.667,1.801,5.71,2.128c1.995,0.603,4.791-1.056,6.757-0.699
		c5.568,1.018,8.899,2.565,9.435,2.387c-2.259,2.291-7.189-0.153-9.808,0.501c-1.729,0.43-4.965-0.06-6.753-0.273
		C4.08,3.899,3.175,3.326,2.134,3.08C0.454,2.679,0.599,2.831,0.02,2.19c0.02,0.023,0.928,0.061,1.366-0.167
		C1.895,1.763,2.337,1.239,3.145,1.143"/>
	<path fill="#C1636D" d="M0.016,2.242C0.015,2.258,0.014,2.278,0.012,2.3C0.013,2.28,0.015,2.26,0.016,2.242"/>
	<path fill="#C99878" d="M2.811,11.403c-0.002-0.003-0.005-0.007-0.007-0.013C-0.115,6.98-0.028,3.005,0.011,2.3
		c-0.005,0.211,0.033,0.495,0.1,0.818c-0.056-0.43-0.09-0.765-0.094-0.882c0,0.002-0.001,0.004-0.001,0.006
		c0-0.002,0.001-0.004,0.001-0.006c-0.001-0.031,0-0.049,0.003-0.048c0.097-0.267,0.271,6.87,7.286,8.57
		c9.176,2.235,14.623-7.02,14.596-6.945c0.339-0.209-2.911,11.586-13.599,10.564c-2.938-0.281-4.514-1.477-5.49-2.971h0.001
		C2.813,11.405,2.812,11.405,2.811,11.403"/>
	<path fill="none" stroke="#CDA285" stroke-miterlimit="10" d="M12.367,18.604c0,0-5.282-3.233-7.296-2.011
		c-2.014,1.227-1.68,1.907-1.68,1.907"/>
	<polygon fill="#CDA285" points="12.81,0.742 11.906,0 9.797,0.036 10.077,1.061 	"/>
	<polygon fill="#CDA285" points="6.388,0.346 5.562,0.239 4.832,1.164 5.793,1.509 	"/>
	<path fill="#F4D5CE" d="M6.886,12.084c0,0-2.346-0.784-2.993-1.296c-0.621-0.492-0.824,0.055-0.566,0.232
		c0.191,0.132,2.024,1.471,3.087,1.539C7.476,12.627,7.525,12.355,6.886,12.084"/>
	<path fill="#BB7261" d="M16.988,11.779c0,0-3.609,2.132-5.375,2.351c-2.06,0.254-3.132,0.383-6.461-0.583
		c0,0,2.542,1.54,6.562,0.852C15.734,13.713,16.988,11.779,16.988,11.779"/>
</g>
</svg>