<!-- Generator: Adobe Illustrator 17.0.0, SVG Export Plug-In  -->
<svg version="1.1"
	 xmlns="http://www.w3.org/2000/svg" xmlns:xlink="http://www.w3.org/1999/xlink" xmlns:a="http://ns.adobe.com/AdobeSVGViewerExtensions/3.0/"
	 x="0px" y="0px" width="13.934px" height="15.731px" viewBox="0 0 13.934 15.731" enable-background="new 0 0 13.934 15.731"
	 xml:space="preserve">
<defs>
</defs>
<g>
	<path fill="#9D1A2A" d="M0.001,2.285c0,0,1.436,6.709,6.072,7.251c5.489,0.638,7.683-6.544,7.683-6.544S8.36,4.183,5.902,3.994
		C3.442,3.806,0.001,2.285,0.001,2.285"/>
	<path fill="#992D38" d="M2.721,7.155c0.307,2.686,1.401,3.814,4.688,3.45c4.399-0.485,6.5-7.895,6.5-7.895
		s-2.831,0.225-6.149,0.348C4.439,3.181,2.415,4.468,2.721,7.155"/>
	<path fill="#FFFFFF" d="M0.258,2.395c0,0,0.756,2.221,4.2,2.984c3.743,0.835,8.769-2.01,8.769-2.01S8.012,3.44,5.011,2.873
		C0.935,2.101,0.258,2.395,0.258,2.395"/>
	<path fill="#C99878" d="M1.85,1.299c0.47-0.104,1.026,0.476,1.715,0.7c1.317,0.41,2.892-1.063,4.165-0.852
		c3.604,0.604,5.863,1.733,6.18,1.564c-1.171,1.97-4.528,0.173-6.102,0.815C6.769,3.95,4.685,3.684,3.541,3.582
		C2.734,3.517,2.104,3.085,1.425,2.926c-1.098-0.259-0.99-0.141-1.424-0.641c0.016,0.018,0.59,0.012,0.84-0.193
		C1.133,1.857,1.352,1.411,1.85,1.299"/>
	<path fill="#C1636D" d="M0.005,2.328c0.001,0.013,0.002,0.029,0.003,0.047C0.007,2.359,0.006,2.342,0.005,2.328"/>
	<path fill="#C99878" d="M2.748,9.714c-0.002-0.002-0.004-0.006-0.005-0.01c-2.309-3.49-2.684-6.751-2.735-7.329
		c0.02,0.174,0.074,0.404,0.15,0.666c-0.082-0.35-0.139-0.623-0.153-0.719c0,0.003,0,0.004,0,0.006c0-0.002,0-0.003,0-0.006
		C0.001,2.297-0.001,2.283,0.001,2.283C0.033,2.062,0.915,7.898,5.5,9c6,1.451,8.419-6.352,8.409-6.29
		c0.19-0.186-0.574,9.607-7.392,9.213C4.641,11.814,3.524,10.9,2.751,9.718l0,0C2.75,9.716,2.749,9.715,2.748,9.714"/>
	<path fill="none" stroke="#CDA285" stroke-miterlimit="10" d="M9.523,15.216c0,0-3.663-2.431-4.796-1.346
		c-1.131,1.087-0.849,1.631-0.849,1.631"/>
	<polygon fill="#CDA285" points="7.871,0.57 7.224,0 5.905,0.116 6.192,0.945 	"/>
	<polygon fill="#CDA285" points="3.799,0.511 3.268,0.459 2.909,1.246 3.552,1.488 	"/>
	<path fill="#F4D5CE" d="M5.38,10.103c0,0-1.558-0.544-2.019-0.937C2.919,8.788,2.848,9.244,3.03,9.38
		c0.135,0.1,1.43,1.12,2.105,1.132C5.808,10.524,5.809,10.299,5.38,10.103"/>
	<path fill="#BB7261" d="M11.685,9.436c0,0-2.034,1.896-3.118,2.147c-1.265,0.293-1.924,0.443-4.118-0.21
		c0,0,1.761,1.155,4.21,0.426C11.107,11.071,11.685,9.436,11.685,9.436"/>
</g>
</svg>