<?xml version="1.0" encoding="utf-8"?>
<!-- Generator: Adobe Illustrator 17.0.0, SVG Export Plug-In . SVG Version: 6.00 Build 0)  -->
<!DOCTYPE svg PUBLIC "-//W3C//DTD SVG 1.1//EN" "http://www.w3.org/Graphics/SVG/1.1/DTD/svg11.dtd" [
	<!ENTITY ns_extend "http://ns.adobe.com/Extensibility/1.0/">
	<!ENTITY ns_ai "http://ns.adobe.com/AdobeIllustrator/10.0/">
	<!ENTITY ns_graphs "http://ns.adobe.com/Graphs/1.0/">
	<!ENTITY ns_vars "http://ns.adobe.com/Variables/1.0/">
	<!ENTITY ns_imrep "http://ns.adobe.com/ImageReplacement/1.0/">
	<!ENTITY ns_sfw "http://ns.adobe.com/SaveForWeb/1.0/">
	<!ENTITY ns_custom "http://ns.adobe.com/GenericCustomNamespace/1.0/">
	<!ENTITY ns_adobe_xpath "http://ns.adobe.com/XPath/1.0/">
]>
<svg version="1.1" id="Capa_1" xmlns:x="&ns_extend;" xmlns:i="&ns_ai;" xmlns:graph="&ns_graphs;"
	 xmlns="http://www.w3.org/2000/svg" xmlns:xlink="http://www.w3.org/1999/xlink" x="0px" y="0px" width="911.351px"
	 height="33.863px" viewBox="0 0 911.351 33.863" enable-background="new 0 0 911.351 33.863" xml:space="preserve">
<metadata>
	<sfw  xmlns="&ns_sfw;">
		<slices></slices>
		<sliceSourceBounds  width="911.351" height="33.863" y="283.568" x="183.824" bottomLeftOrigin="true"></sliceSourceBounds>
	</sfw>
</metadata>
<g>
	<path fill="#FFFFFF" d="M0,33.394V6.917h8l4.805,18.061l4.749-18.061h8.02v26.477h-4.967V12.552l-5.256,20.842h-5.147L4.966,12.552
		v20.842C4.966,33.394,0,33.394,0,33.394z"/>
	<path fill="#FFFFFF" d="M30.883,33.394V6.917h19.631v4.479H36.229v5.869h13.292v4.461H36.229v7.206H51.02v4.461H30.883V33.394z"/>
	<path fill="#FFFFFF" d="M61.512,33.394V11.396h-7.855V6.917h21.04v4.479h-7.838v21.997h-5.347V33.394z"/>
	<path fill="#FFFFFF" d="M76.395,20.318c0-2.697,0.403-4.961,1.21-6.791c0.602-1.349,1.424-2.559,2.465-3.63
		c1.042-1.071,2.183-1.866,3.423-2.384c1.649-0.698,3.552-1.048,5.707-1.048c3.901,0,7.022,1.21,9.364,3.63
		s3.513,5.786,3.513,10.096c0,4.274-1.162,7.619-3.485,10.032c-2.324,2.414-5.431,3.621-9.319,3.621c-3.938,0-7.067-1.2-9.392-3.603
		C77.557,27.84,76.395,24.532,76.395,20.318z M81.902,20.138c0,2.998,0.692,5.271,2.077,6.817s3.143,2.32,5.273,2.32
		c2.132,0,3.88-0.768,5.247-2.302c1.366-1.535,2.05-3.838,2.05-6.908c0-3.034-0.666-5.298-1.996-6.791s-3.097-2.239-5.301-2.239
		c-2.203,0-3.979,0.756-5.327,2.267C82.577,14.813,81.902,17.092,81.902,20.138z"/>
	<path fill="#FFFFFF" d="M106.229,6.917H116c2.203,0,3.883,0.169,5.039,0.506c1.553,0.458,2.883,1.271,3.991,2.438
		c1.107,1.168,1.95,2.598,2.528,4.289s0.867,3.777,0.867,6.258c0,2.18-0.271,4.058-0.813,5.635
		c-0.663,1.927-1.607,3.485-2.836,4.678c-0.928,0.903-2.18,1.607-3.757,2.113c-1.18,0.373-2.757,0.56-4.731,0.56h-10.06
		L106.229,6.917L106.229,6.917z M111.575,11.396v17.536h3.991c1.493,0,2.57-0.084,3.233-0.253c0.866-0.217,1.586-0.584,2.158-1.102
		c0.571-0.518,1.038-1.369,1.399-2.556c0.361-1.186,0.542-2.802,0.542-4.849s-0.181-3.618-0.542-4.714s-0.867-1.951-1.518-2.564
		c-0.649-0.614-1.475-1.029-2.474-1.246c-0.747-0.169-2.21-0.253-4.389-0.253h-2.4V11.396z"/>
	<path fill="#FFFFFF" d="M131.875,20.318c0-2.697,0.403-4.961,1.21-6.791c0.602-1.349,1.424-2.559,2.465-3.63
		c1.042-1.071,2.183-1.866,3.423-2.384c1.649-0.698,3.552-1.048,5.707-1.048c3.901,0,7.022,1.21,9.364,3.63
		s3.513,5.786,3.513,10.096c0,4.274-1.162,7.619-3.485,10.032c-2.324,2.414-5.431,3.621-9.319,3.621c-3.938,0-7.067-1.2-9.392-3.603
		C133.037,27.84,131.875,24.532,131.875,20.318z M137.383,20.138c0,2.998,0.692,5.271,2.077,6.817s3.143,2.32,5.273,2.32
		c2.132,0,3.88-0.768,5.247-2.302c1.366-1.535,2.05-3.838,2.05-6.908c0-3.034-0.666-5.298-1.996-6.791s-3.097-2.239-5.301-2.239
		c-2.203,0-3.979,0.756-5.327,2.267S137.383,17.092,137.383,20.138z"/>
	<path fill="#FFFFFF" d="M161.873,33.394V7.134h5.346v21.799h13.292v4.461C180.511,33.394,161.873,33.394,161.873,33.394z"/>
	<path fill="#FFFFFF" d="M183.238,20.318c0-2.697,0.403-4.961,1.21-6.791c0.602-1.349,1.424-2.559,2.465-3.63
		c1.042-1.071,2.183-1.866,3.423-2.384c1.649-0.698,3.552-1.048,5.707-1.048c3.901,0,7.022,1.21,9.364,3.63
		s3.513,5.786,3.513,10.096c0,4.274-1.162,7.619-3.485,10.032c-2.324,2.414-5.431,3.621-9.319,3.621c-3.938,0-7.067-1.2-9.392-3.603
		C184.4,27.84,183.238,24.532,183.238,20.318z M188.746,20.138c0,2.998,0.692,5.271,2.077,6.817s3.143,2.32,5.273,2.32
		c2.132,0,3.88-0.768,5.247-2.302c1.366-1.535,2.05-3.838,2.05-6.908c0-3.034-0.666-5.298-1.996-6.791s-3.097-2.239-5.301-2.239
		c-2.203,0-3.979,0.756-5.327,2.267S188.746,17.092,188.746,20.138z"/>
	<path fill="#FFFFFF" d="M225.408,23.659v-4.461h11.522v10.547c-1.119,1.084-2.742,2.038-4.867,2.863
		c-2.125,0.824-4.277,1.236-6.456,1.236c-2.77,0-5.184-0.58-7.242-1.742c-2.06-1.162-3.606-2.823-4.642-4.985
		c-1.036-2.16-1.554-4.512-1.554-7.052c0-2.757,0.578-5.208,1.734-7.351c1.155-2.144,2.847-3.787,5.074-4.931
		c1.698-0.879,3.812-1.318,6.34-1.318c3.287,0,5.854,0.689,7.702,2.067c1.849,1.379,3.037,3.284,3.567,5.717l-5.31,0.993
		c-0.374-1.301-1.075-2.327-2.104-3.079c-1.029-0.753-2.314-1.129-3.855-1.129c-2.336,0-4.193,0.74-5.572,2.222
		c-1.378,1.48-2.067,3.678-2.067,6.592c0,3.143,0.698,5.499,2.095,7.07s3.227,2.356,5.49,2.356c1.12,0,2.242-0.219,3.368-0.659
		c1.126-0.438,2.092-0.972,2.899-1.598v-3.359h-6.122V23.659z"/>
	<path fill="#FFFFFF" d="M241.084,5.4l2.492-5.4h5.689l-4.967,5.4H241.084z M241.698,33.394V6.917h5.346v26.477
		C247.044,33.394,241.698,33.394,241.698,33.394z"/>
	<path fill="#FFFFFF" d="M276.013,33.394h-5.815l-2.312-6.014h-10.583l-2.186,6.014h-5.671l10.313-26.477h5.652L276.013,33.394z
		 M266.17,22.919l-3.648-9.825l-3.575,9.825H266.17z"/>
	<path fill="#FFFFFF" d="M277.494,24.779l5.201-0.506c0.313,1.746,0.948,3.028,1.905,3.847s2.248,1.228,3.874,1.228
		c1.722,0,3.019-0.363,3.892-1.092s1.31-1.581,1.31-2.556c0-0.626-0.184-1.159-0.551-1.599s-1.009-0.821-1.924-1.146
		c-0.626-0.217-2.053-0.603-4.28-1.156c-2.865-0.71-4.876-1.583-6.032-2.618c-1.625-1.457-2.438-3.233-2.438-5.328
		c0-1.349,0.382-2.609,1.146-3.784c0.765-1.174,1.866-2.067,3.305-2.682c1.439-0.614,3.176-0.921,5.211-0.921
		c3.323,0,5.824,0.729,7.504,2.186s2.562,3.401,2.646,5.833l-5.346,0.235c-0.229-1.361-0.72-2.339-1.472-2.936
		c-0.753-0.596-1.882-0.894-3.387-0.894c-1.553,0-2.77,0.319-3.647,0.957c-0.566,0.409-0.85,0.957-0.85,1.644
		c0,0.626,0.265,1.162,0.795,1.607c0.674,0.566,2.312,1.156,4.912,1.77c2.601,0.614,4.524,1.25,5.771,1.905
		c1.246,0.657,2.222,1.554,2.926,2.691s1.057,2.544,1.057,4.217c0,1.518-0.422,2.938-1.265,4.263s-2.034,2.309-3.575,2.952
		c-1.542,0.645-3.462,0.967-5.762,0.967c-3.347,0-5.918-0.773-7.712-2.321C278.914,29.995,277.843,27.74,277.494,24.779z"/>
	<path fill="#FFFFFF" d="M313.776,6.917h9.771c2.203,0,3.883,0.169,5.039,0.506c1.553,0.458,2.883,1.271,3.991,2.438
		c1.107,1.168,1.95,2.598,2.528,4.289s0.867,3.777,0.867,6.258c0,2.18-0.271,4.058-0.813,5.635
		c-0.663,1.927-1.607,3.485-2.836,4.678c-0.928,0.903-2.18,1.607-3.757,2.113c-1.18,0.373-2.757,0.56-4.731,0.56h-10.06
		L313.776,6.917L313.776,6.917z M319.122,11.396v17.536h3.991c1.493,0,2.57-0.084,3.233-0.253c0.866-0.217,1.586-0.584,2.158-1.102
		c0.571-0.518,1.038-1.369,1.399-2.556c0.361-1.186,0.542-2.802,0.542-4.849s-0.181-3.618-0.542-4.714s-0.867-1.951-1.518-2.564
		c-0.649-0.614-1.475-1.029-2.474-1.246c-0.747-0.169-2.21-0.253-4.389-0.253h-2.4V11.396z"/>
	<path fill="#FFFFFF" d="M340.506,33.394V6.917h19.631v4.479h-14.285v5.869h13.292v4.461h-13.292v7.206h14.791v4.461h-20.137V33.394
		z"/>
	<path fill="#FFFFFF" d="M375.434,6.917h9.771c2.203,0,3.883,0.169,5.039,0.506c1.553,0.458,2.883,1.271,3.991,2.438
		c1.107,1.168,1.95,2.598,2.528,4.289s0.867,3.777,0.867,6.258c0,2.18-0.271,4.058-0.813,5.635
		c-0.663,1.927-1.607,3.485-2.836,4.678c-0.928,0.903-2.18,1.607-3.757,2.113c-1.18,0.373-2.757,0.56-4.731,0.56h-10.06
		L375.434,6.917L375.434,6.917z M380.779,11.396v17.536h3.991c1.493,0,2.57-0.084,3.233-0.253c0.866-0.217,1.586-0.584,2.158-1.102
		c0.571-0.518,1.038-1.369,1.399-2.556c0.361-1.186,0.542-2.802,0.542-4.849s-0.181-3.618-0.542-4.714s-0.867-1.951-1.518-2.564
		c-0.649-0.614-1.475-1.029-2.474-1.246c-0.747-0.169-2.21-0.253-4.389-0.253h-2.4V11.396z"/>
	<path fill="#FFFFFF" d="M402.163,33.394V6.917h19.631v4.479h-14.285v5.869h13.292v4.461h-13.292v7.206H422.3v4.461h-20.137V33.394z
		"/>
	<path fill="#FFFFFF" d="M425.479,24.779l5.201-0.506c0.313,1.746,0.948,3.028,1.905,3.847s2.248,1.228,3.874,1.228
		c1.722,0,3.019-0.363,3.892-1.092s1.31-1.581,1.31-2.556c0-0.626-0.184-1.159-0.551-1.599s-1.009-0.821-1.924-1.146
		c-0.626-0.217-2.053-0.603-4.28-1.156c-2.865-0.71-4.876-1.583-6.032-2.618c-1.625-1.457-2.438-3.233-2.438-5.328
		c0-1.349,0.382-2.609,1.146-3.784c0.765-1.174,1.866-2.067,3.305-2.682c1.439-0.614,3.176-0.921,5.211-0.921
		c3.323,0,5.824,0.729,7.504,2.186s2.562,3.401,2.646,5.833l-5.346,0.235c-0.229-1.361-0.72-2.339-1.472-2.936
		c-0.753-0.596-1.882-0.894-3.387-0.894c-1.553,0-2.77,0.319-3.647,0.957c-0.566,0.409-0.85,0.957-0.85,1.644
		c0,0.626,0.265,1.162,0.795,1.607c0.674,0.566,2.312,1.156,4.912,1.77c2.601,0.614,4.524,1.25,5.771,1.905
		c1.246,0.657,2.222,1.554,2.926,2.691s1.057,2.544,1.057,4.217c0,1.518-0.422,2.938-1.265,4.263s-2.034,2.309-3.575,2.952
		c-1.542,0.645-3.462,0.967-5.762,0.967c-3.347,0-5.918-0.773-7.712-2.321C426.898,29.995,425.827,27.74,425.479,24.779z"/>
	<path fill="#FFFFFF" d="M475.378,33.394h-5.815l-2.312-6.014h-10.583l-2.186,6.014h-5.671l10.313-26.477h5.652L475.378,33.394z
		 M465.535,22.919l-3.648-9.825l-3.575,9.825H465.535z"/>
	<path fill="#FFFFFF" d="M478.231,33.394V6.917h11.252c2.829,0,4.885,0.238,6.167,0.714s2.309,1.321,3.079,2.537
		c0.771,1.217,1.156,2.607,1.156,4.172c0,1.987-0.584,3.628-1.752,4.922s-2.914,2.11-5.237,2.447
		c1.155,0.674,2.109,1.414,2.862,2.221s1.767,2.24,3.043,4.299l3.233,5.165h-6.394l-3.865-5.761
		c-1.372-2.06-2.312-3.356-2.817-3.893c-0.506-0.535-1.041-0.903-1.607-1.102c-0.565-0.198-1.463-0.298-2.69-0.298h-1.084v11.053
		L478.231,33.394L478.231,33.394z M483.577,18.114h3.955c2.564,0,4.166-0.108,4.805-0.325c0.638-0.216,1.138-0.589,1.499-1.119
		c0.36-0.529,0.541-1.192,0.541-1.986c0-0.892-0.237-1.61-0.713-2.158s-1.146-0.895-2.014-1.039c-0.434-0.06-1.734-0.09-3.901-0.09
		h-4.172L483.577,18.114L483.577,18.114z"/>
	<path fill="#FFFFFF" d="M504.942,33.394V6.917h11.252c2.829,0,4.885,0.238,6.167,0.714s2.309,1.321,3.079,2.537
		c0.771,1.217,1.156,2.607,1.156,4.172c0,1.987-0.584,3.628-1.752,4.922s-2.914,2.11-5.237,2.447
		c1.155,0.674,2.109,1.414,2.862,2.221s1.767,2.24,3.043,4.299l3.233,5.165h-6.394l-3.865-5.761
		c-1.372-2.06-2.312-3.356-2.817-3.893c-0.506-0.535-1.041-0.903-1.607-1.102c-0.565-0.198-1.463-0.298-2.69-0.298h-1.084v11.053
		L504.942,33.394L504.942,33.394z M510.288,18.114h3.955c2.564,0,4.166-0.108,4.805-0.325c0.638-0.216,1.138-0.589,1.499-1.119
		c0.36-0.529,0.541-1.192,0.541-1.986c0-0.892-0.237-1.61-0.713-2.158s-1.146-0.895-2.014-1.039c-0.434-0.06-1.734-0.09-3.901-0.09
		h-4.172L510.288,18.114L510.288,18.114z"/>
	<path fill="#FFFFFF" d="M530.552,20.318c0-2.697,0.403-4.961,1.21-6.791c0.602-1.349,1.424-2.559,2.465-3.63
		c1.042-1.071,2.183-1.866,3.423-2.384c1.649-0.698,3.552-1.048,5.707-1.048c3.901,0,7.022,1.21,9.364,3.63
		s3.513,5.786,3.513,10.096c0,4.274-1.162,7.619-3.485,10.032c-2.324,2.414-5.431,3.621-9.319,3.621c-3.938,0-7.067-1.2-9.392-3.603
		C531.714,27.84,530.552,24.532,530.552,20.318z M536.06,20.138c0,2.998,0.692,5.271,2.077,6.817s3.143,2.32,5.273,2.32
		c2.132,0,3.88-0.768,5.247-2.302c1.366-1.535,2.05-3.838,2.05-6.908c0-3.034-0.666-5.298-1.996-6.791s-3.097-2.239-5.301-2.239
		c-2.203,0-3.979,0.756-5.327,2.267C536.734,14.813,536.06,17.092,536.06,20.138z"/>
	<path fill="#FFFFFF" d="M560.55,33.394V7.134h5.346v21.799h13.292v4.461C579.188,33.394,560.55,33.394,560.55,33.394z"/>
	<path fill="#FFFFFF" d="M583.144,33.394V7.134h5.346v21.799h13.292v4.461C601.782,33.394,583.144,33.394,583.144,33.394z"/>
	<path fill="#FFFFFF" d="M604.509,20.318c0-2.697,0.403-4.961,1.21-6.791c0.602-1.349,1.424-2.559,2.465-3.63
		c1.042-1.071,2.183-1.866,3.423-2.384c1.649-0.698,3.552-1.048,5.707-1.048c3.901,0,7.022,1.21,9.364,3.63
		s3.513,5.786,3.513,10.096c0,4.274-1.162,7.619-3.485,10.032c-2.324,2.414-5.431,3.621-9.319,3.621c-3.938,0-7.067-1.2-9.392-3.603
		C605.671,27.84,604.509,24.532,604.509,20.318z M610.017,20.138c0,2.998,0.692,5.271,2.077,6.817s3.143,2.32,5.273,2.32
		c2.132,0,3.88-0.768,5.247-2.302c1.366-1.535,2.05-3.838,2.05-6.908c0-3.034-0.666-5.298-1.996-6.791s-3.097-2.239-5.301-2.239
		c-2.203,0-3.979,0.756-5.327,2.267C610.691,14.813,610.017,17.092,610.017,20.138z"/>
	<path fill="#FFFFFF" d="M644.62,6.917h9.771c2.203,0,3.883,0.169,5.039,0.506c1.553,0.458,2.883,1.271,3.991,2.438
		c1.107,1.168,1.95,2.598,2.528,4.289s0.867,3.777,0.867,6.258c0,2.18-0.271,4.058-0.813,5.635
		c-0.663,1.927-1.607,3.485-2.836,4.678c-0.928,0.903-2.18,1.607-3.757,2.113c-1.18,0.373-2.757,0.56-4.731,0.56h-10.06
		L644.62,6.917L644.62,6.917z M649.966,11.396v17.536h3.991c1.493,0,2.57-0.084,3.233-0.253c0.866-0.217,1.586-0.584,2.158-1.102
		c0.571-0.518,1.038-1.369,1.399-2.556c0.361-1.186,0.542-2.802,0.542-4.849s-0.181-3.618-0.542-4.714s-0.867-1.951-1.518-2.564
		c-0.649-0.614-1.475-1.029-2.474-1.246c-0.747-0.169-2.21-0.253-4.389-0.253h-2.4V11.396z"/>
	<path fill="#FFFFFF" d="M671.35,33.394V6.917h19.631v4.479h-14.285v5.869h13.292v4.461h-13.292v7.206h14.791v4.461H671.35V33.394z"
		/>
	<path fill="#FFFFFF" d="M704.941,24.779l5.201-0.506c0.313,1.746,0.948,3.028,1.905,3.847s2.248,1.228,3.874,1.228
		c1.722,0,3.019-0.363,3.892-1.092s1.31-1.581,1.31-2.556c0-0.626-0.184-1.159-0.551-1.599s-1.009-0.821-1.924-1.146
		c-0.626-0.217-2.053-0.603-4.28-1.156c-2.865-0.71-4.876-1.583-6.032-2.618c-1.625-1.457-2.438-3.233-2.438-5.328
		c0-1.349,0.382-2.609,1.146-3.784c0.765-1.174,1.866-2.067,3.305-2.682c1.439-0.614,3.176-0.921,5.211-0.921
		c3.323,0,5.824,0.729,7.504,2.186s2.562,3.401,2.646,5.833l-5.346,0.235c-0.229-1.361-0.72-2.339-1.472-2.936
		c-0.753-0.596-1.882-0.894-3.387-0.894c-1.553,0-2.77,0.319-3.647,0.957c-0.566,0.409-0.85,0.957-0.85,1.644
		c0,0.626,0.265,1.162,0.795,1.607c0.674,0.566,2.312,1.156,4.912,1.77c2.601,0.614,4.524,1.25,5.771,1.905
		c1.246,0.657,2.222,1.554,2.926,2.691s1.057,2.544,1.057,4.217c0,1.518-0.422,2.938-1.265,4.263s-2.034,2.309-3.575,2.952
		c-1.542,0.645-3.462,0.967-5.762,0.967c-3.347,0-5.918-0.773-7.712-2.321C706.361,29.995,705.29,27.74,704.941,24.779z"/>
	<path fill="#FFFFFF" d="M729.882,20.318c0-2.697,0.403-4.961,1.21-6.791c0.602-1.349,1.424-2.559,2.465-3.63
		c1.042-1.071,2.183-1.866,3.423-2.384c1.649-0.698,3.552-1.048,5.707-1.048c3.901,0,7.022,1.21,9.364,3.63
		s3.513,5.786,3.513,10.096c0,4.274-1.162,7.619-3.485,10.032c-2.324,2.414-5.431,3.621-9.319,3.621c-3.938,0-7.067-1.2-9.392-3.603
		C731.044,27.84,729.882,24.532,729.882,20.318z M735.39,20.138c0,2.998,0.692,5.271,2.077,6.817s3.143,2.32,5.273,2.32
		c2.132,0,3.88-0.768,5.247-2.302c1.366-1.535,2.05-3.838,2.05-6.908c0-3.034-0.666-5.298-1.996-6.791s-3.097-2.239-5.301-2.239
		c-2.203,0-3.979,0.756-5.327,2.267C736.064,14.813,735.39,17.092,735.39,20.138z"/>
	<path fill="#FFFFFF" d="M759.771,33.394V6.917h18.15v4.479h-12.805v6.267h11.053v4.479h-11.053v11.252H759.771z"/>
	<path fill="#FFFFFF" d="M788.288,33.394V11.396h-7.855V6.917h21.04v4.479h-7.838v21.997h-5.347V33.394z"/>
	<path fill="#FFFFFF" d="M808.679,33.394l-6.321-26.477h5.473l3.991,18.187l4.84-18.187h6.357l4.642,18.494l4.063-18.494h5.382
		l-6.43,26.477h-5.671L819.731,13.6l-5.255,19.794H808.679z"/>
	<path fill="#FFFFFF" d="M861.667,33.394h-5.815l-2.312-6.014h-10.583l-2.186,6.014H835.1l10.313-26.477h5.652L861.667,33.394z
		 M851.824,22.919l-3.648-9.825l-3.575,9.825H851.824z"/>
	<path fill="#FFFFFF" d="M864.521,33.394V6.917h11.252c2.829,0,4.885,0.238,6.167,0.714s2.309,1.321,3.079,2.537
		c0.771,1.217,1.156,2.607,1.156,4.172c0,1.987-0.584,3.628-1.752,4.922s-2.914,2.11-5.237,2.447
		c1.155,0.674,2.109,1.414,2.862,2.221s1.767,2.24,3.043,4.299l3.233,5.165h-6.394l-3.865-5.761
		c-1.372-2.06-2.312-3.356-2.817-3.893c-0.506-0.535-1.041-0.903-1.607-1.102c-0.565-0.198-1.463-0.298-2.69-0.298h-1.084v11.053
		L864.521,33.394L864.521,33.394z M869.866,18.114h3.955c2.564,0,4.166-0.108,4.805-0.325c0.638-0.216,1.138-0.589,1.499-1.119
		c0.36-0.529,0.541-1.192,0.541-1.986c0-0.892-0.237-1.61-0.713-2.158s-1.146-0.895-2.014-1.039c-0.434-0.06-1.734-0.09-3.901-0.09
		h-4.172L869.866,18.114L869.866,18.114z"/>
	<path fill="#FFFFFF" d="M891.214,33.394V6.917h19.631v4.479H896.56v5.869h13.292v4.461H896.56v7.206h14.791v4.461h-20.137V33.394z"
		/>
</g>
</svg>
