<!-- Generator: Adobe Illustrator 17.0.0, SVG Export Plug-In  -->
<svg version="1.1"
	 xmlns="http://www.w3.org/2000/svg" xmlns:xlink="http://www.w3.org/1999/xlink" xmlns:a="http://ns.adobe.com/AdobeSVGViewerExtensions/3.0/"
	 x="0px" y="0px" width="481.985px" height="509.345px" viewBox="0 0 481.985 509.345"
	 style="enable-background:new 0 0 481.985 509.345;" xml:space="preserve">
<style type="text/css">
	.st0{fill:none;stroke:#000000;stroke-width:3;stroke-miterlimit:10;}
	.st1{fill:url(#SVGID_1_);}
	.st2{fill:#FFFFFF;}
	.st3{fill:#C4C5C6;}
	.st4{fill:#F1F1F1;stroke:#231F20;stroke-width:3.2;stroke-linejoin:round;stroke-miterlimit:10;}
	.st5{fill:none;stroke:#231F20;stroke-width:3.2;stroke-linejoin:round;stroke-miterlimit:10;}
	.st6{fill:url(#SVGID_2_);}
</style>
<defs>
</defs>
<g>
	<rect x="73.576" y="236.642" width="41.301" height="2.044"/>
	<rect x="20.656" y="236.642" width="41.304" height="2.044"/>
	<rect x="9.042" y="236.642" width="3.871" height="2.044"/>
</g>
<g>
	<rect x="163.685" y="0" width="41.301" height="2.044"/>
	<rect x="110.765" y="0" width="41.304" height="2.044"/>
	<rect x="99.15" y="0" width="3.871" height="2.044"/>
</g>
<g>
	<rect x="312.206" y="496.459" width="41.301" height="2.044"/>
	<rect x="259.286" y="496.459" width="41.304" height="2.044"/>
	<rect x="247.672" y="496.459" width="3.871" height="2.044"/>
</g>
<g>
	<rect x="365.603" y="352.441" width="41.301" height="2.044"/>
	<rect x="418.52" y="352.441" width="41.304" height="2.044"/>
	<rect x="467.567" y="352.441" width="3.871" height="2.044"/>
</g>
<g>
	<rect x="392.58" y="102.198" width="83.854" height="2.066"/>
	<rect x="392.58" y="95.579" width="55.165" height="2.068"/>
</g>
<g>
	<rect x="0" y="445.701" width="83.854" height="2.066"/>
	<rect x="28.689" y="439.082" width="55.165" height="2.068"/>
</g>
<g id="XMLID_22_">
	<g id="XMLID_26_">
		<line id="XMLID_28_" class="st0" x1="44.299" y1="271.525" x2="37.617" y2="278.207"/>
		<line id="XMLID_27_" class="st0" x1="28.494" y1="287.329" x2="21.814" y2="294.01"/>
	</g>
	<g id="XMLID_23_">
		<line id="XMLID_25_" class="st0" x1="21.814" y1="271.525" x2="28.494" y2="278.207"/>
		<line id="XMLID_24_" class="st0" x1="37.617" y1="287.329" x2="44.299" y2="294.01"/>
	</g>
</g>
<g id="XMLID_15_">
	<g id="XMLID_19_">
		<line id="XMLID_21_" class="st0" x1="457.467" y1="150.695" x2="450.784" y2="157.377"/>
		<line id="XMLID_20_" class="st0" x1="441.661" y1="166.499" x2="434.981" y2="173.18"/>
	</g>
	<g id="XMLID_16_">
		<line id="XMLID_18_" class="st0" x1="434.981" y1="150.695" x2="441.661" y2="157.377"/>
		<line id="XMLID_17_" class="st0" x1="450.784" y1="166.499" x2="457.467" y2="173.18"/>
	</g>
</g>
<g id="XMLID_8_">
	<g id="XMLID_12_">
		<line id="XMLID_14_" class="st0" x1="205.807" y1="485.8" x2="199.124" y2="492.481"/>
		<line id="XMLID_13_" class="st0" x1="190.001" y1="501.603" x2="183.321" y2="508.284"/>
	</g>
	<g id="XMLID_9_">
		<line id="XMLID_11_" class="st0" x1="183.321" y1="485.8" x2="190.001" y2="492.481"/>
		<line id="XMLID_10_" class="st0" x1="199.124" y1="501.603" x2="205.807" y2="508.284"/>
	</g>
</g>
<g id="XMLID_1_">
	<g id="XMLID_5_">
		<line id="XMLID_7_" class="st0" x1="351.584" y1="2.502" x2="344.901" y2="9.184"/>
		<line id="XMLID_6_" class="st0" x1="335.778" y1="18.306" x2="329.099" y2="24.986"/>
	</g>
	<g id="XMLID_2_">
		<line id="XMLID_4_" class="st0" x1="329.099" y1="2.502" x2="335.778" y2="9.184"/>
		<line id="XMLID_3_" class="st0" x1="344.901" y1="18.306" x2="351.584" y2="24.986"/>
	</g>
</g>
<g>
	<g>
		<radialGradient id="SVGID_1_" cx="239.584" cy="261.9853" r="199.4146" gradientUnits="userSpaceOnUse">
			<stop  offset="0" style="stop-color:#8CBB69"/>
			<stop  offset="0.7837" style="stop-color:#6BAD44"/>
		</radialGradient>
		<rect x="60.96" y="43.752" class="st1" width="357.248" height="436.467"/>
		<path d="M418.208,482.443H60.96c-1.23,0-2.229-0.996-2.229-2.225V43.752c0-1.23,0.998-2.223,2.229-2.223h357.248
			c1.23,0,2.227,0.992,2.227,2.223v436.467C420.435,481.447,419.438,482.443,418.208,482.443z M63.183,477.995h352.805V45.975
			H63.183V477.995z"/>
	</g>
	<g>
		<rect x="84.806" y="67.605" class="st2" width="309.553" height="388.759"/>
		<path d="M394.358,458.59H84.806c-1.225,0-2.223-0.997-2.223-2.226V67.605c0-1.23,0.998-2.223,2.223-2.223h309.553
			c1.23,0,2.229,0.992,2.229,2.223v388.759C396.587,457.593,395.589,458.59,394.358,458.59z M87.032,454.143h305.105V69.831H87.032
			V454.143z"/>
	</g>
	<g>
		<rect x="176.657" y="28.251" class="st2" width="125.859" height="56.456"/>
		<path d="M302.517,86.93H176.657c-1.227,0-2.221-0.996-2.221-2.223V28.251c0-1.228,0.994-2.221,2.221-2.221h125.859
			c1.23,0,2.223,0.993,2.223,2.221v56.456C304.739,85.934,303.747,86.93,302.517,86.93z M178.886,82.48h121.41V30.476h-121.41V82.48
			z"/>
	</g>
	<g>
		<rect x="225.278" y="2.805" class="st2" width="28.617" height="25.442"/>
		<path d="M253.895,30.47h-28.617c-1.229,0-2.221-0.995-2.221-2.223V2.805c0-1.229,0.992-2.223,2.221-2.223h28.617
			c1.232,0,2.229,0.994,2.229,2.223v25.442C256.124,29.475,255.128,30.47,253.895,30.47z M227.501,26.02h24.172V5.027h-24.172V26.02
			z"/>
	</g>
</g>
<g>
	<g>
		<path class="st3" d="M393.719,490.337v-7.18c-1.02-0.415-2.567-0.955-3.803-1.612l-5.031,5.078c-0.48,0.482-1.242,0.482-1.725,0
			l-7.264-7.276c-0.481-0.483-0.476-1.26,0.007-1.743l5.081-5.37c-0.662-1.233-1.195-2.144-1.607-4.184h-7.185
			c-0.683,0-0.885,0.035-0.885-0.647v-10.29c0-0.683,0.202-1.288,0.885-1.288h7.185c0.412-2.037,0.949-2.627,1.607-3.857
			l-5.076-5.066c-0.484-0.482-0.484-1.255,0-1.738l7.279-7.273c0.478-0.485,1.26-0.48,1.74,0.003l4.988,5.075
			c1.235-0.652,2.783-1.195,3.803-1.612v-7.182c0-0.68,0.729-1.777,1.408-1.777h10.289c0.684,0,1.546,1.098,1.546,1.777v7.182
			c1.02,0.417,2.505,0.96,3.731,1.612l5.003-5.073c0.478-0.485,1.223-0.485,1.702,0l7.262,7.274c0.48,0.482,0.471,1.26-0.01,1.742
			l-5.088,5.057c0.657,1.23,1.199,1.82,1.607,3.857h7.184c0.68,0,2.043,0.605,2.043,1.288v10.29c0,0.683-1.363,0.647-2.043,0.647
			h-7.184c-0.412,2.04-0.958,2.95-1.613,4.184l5.084,5.226c0.48,0.482,0.48,1.333,0,1.815l-7.281,7.311
			c-0.48,0.482-1.258,0.502-1.74,0.018l-4.926-5.068c-1.227,0.657-2.711,1.207-3.731,1.622v7.18c0,0.683-0.862,1.145-1.546,1.145
			h-10.289C394.447,491.481,393.719,491.02,393.719,490.337z"/>
		<path class="st4" d="M400.535,471.833c5.1,0,9.234-4.139,9.234-9.237c0-5.096-4.135-9.234-9.234-9.234
			c-5.098,0-9.231,4.139-9.231,9.234C391.304,467.694,395.438,471.833,400.535,471.833z"/>
	</g>
	<line class="st5" x1="434.508" y1="479.257" x2="469.147" y2="479.257"/>
	<line class="st5" x1="438.581" y1="461.941" x2="481.985" y2="461.941"/>
	<line class="st5" x1="436.546" y1="442.582" x2="455.902" y2="442.582"/>
</g>
<g>
	<g>
		<path class="st3" d="M91.165,76.381v-7.18c1.02-0.415,2.567-0.955,3.803-1.612l5.031,5.078c0.48,0.482,1.242,0.482,1.725,0
			l7.264-7.276c0.48-0.482,0.476-1.26-0.007-1.743l-5.081-5.37c0.662-1.233,1.195-2.144,1.607-4.184h7.185
			c0.683,0,0.885,0.035,0.885-0.647v-10.29c0-0.683-0.202-1.288-0.885-1.288h-7.185c-0.412-2.037-0.949-2.627-1.607-3.857
			l5.076-5.066c0.484-0.482,0.484-1.255,0-1.738l-7.279-7.273c-0.478-0.485-1.26-0.48-1.74,0.003l-4.988,5.075
			c-1.235-0.652-2.783-1.195-3.803-1.612v-7.182c0-0.68-0.729-1.777-1.408-1.777H79.468c-0.684,0-1.546,1.098-1.546,1.777v7.182
			c-1.021,0.417-2.505,0.96-3.731,1.612l-5.003-5.073c-0.478-0.485-1.223-0.485-1.702,0l-7.262,7.274
			c-0.48,0.482-0.471,1.26,0.01,1.742l5.088,5.057c-0.657,1.23-1.199,1.82-1.607,3.857H56.53c-0.68,0-2.043,0.605-2.043,1.288v10.29
			c0,0.683,1.363,0.647,2.043,0.647h7.184c0.412,2.04,0.958,2.95,1.613,4.184l-5.084,5.226c-0.48,0.482-0.48,1.333,0,1.815
			l7.281,7.312c0.48,0.482,1.258,0.502,1.74,0.018l4.926-5.068c1.227,0.657,2.711,1.207,3.731,1.622v7.18
			c0,0.683,0.862,1.145,1.546,1.145h10.289C90.437,77.525,91.165,77.063,91.165,76.381z"/>
		<path class="st4" d="M84.349,57.877c-5.1,0-9.234-4.139-9.234-9.237c0-5.096,4.135-9.234,9.234-9.234
			c5.098,0,9.231,4.139,9.231,9.234C93.58,53.738,89.446,57.877,84.349,57.877z"/>
	</g>
	<line class="st5" x1="50.376" y1="65.301" x2="15.737" y2="65.301"/>
	<line class="st5" x1="46.303" y1="47.985" x2="2.898" y2="47.985"/>
	<line class="st5" x1="48.338" y1="28.626" x2="28.981" y2="28.626"/>
</g>
<g>
	<path d="M145.083,230.136l0.091,0.78c0.18,1.62-0.391,3.33-1.891,5.129c-1.35,1.62-2.069,2.73-2.069,4.08
		c0,1.53,0.93,2.55,2.85,2.55c1.05,0,2.25-0.33,3.03-0.93l0.72,1.92c-1.021,0.69-2.73,1.2-4.32,1.2c-3.42,0-5.01-2.13-5.01-4.41
		c0-2.04,1.141-3.48,2.61-5.16c1.29-1.59,1.77-2.85,1.68-4.38l-0.03-0.78H145.083z M145.714,225.876c0,1.05-0.69,1.89-1.771,1.89
		s-1.77-0.84-1.77-1.89c0-1.08,0.72-1.86,1.77-1.86C145.024,224.016,145.714,224.796,145.714,225.876z"/>
	<path d="M167.973,241.655c-2.729-0.72-5.399-1.53-7.739-2.34c-0.42-0.15-0.84-0.3-1.23-0.3c-4.8-0.18-8.909-3.72-8.909-10.229
		c0-6.48,3.96-10.65,9.42-10.65c5.489,0,9.06,4.26,9.06,10.229c0,5.19-2.4,8.52-5.76,9.69v0.12c2.01,0.51,4.199,0.99,5.909,1.29
		L167.973,241.655z M165.814,228.486c0-4.05-2.101-8.22-6.391-8.22c-4.409,0-6.569,4.08-6.54,8.46
		c-0.029,4.29,2.341,8.16,6.421,8.16C163.473,236.886,165.814,233.106,165.814,228.486z"/>
	<path d="M184.114,234.726c0,1.5,0.029,2.82,0.119,3.96h-2.34l-0.149-2.37h-0.061c-0.689,1.17-2.22,2.7-4.8,2.7
		c-2.279,0-5.01-1.26-5.01-6.36v-8.49h2.641v8.04c0,2.76,0.84,4.62,3.239,4.62c1.771,0,3-1.23,3.48-2.4
		c0.149-0.39,0.239-0.87,0.239-1.35v-8.91h2.641V234.726z"/>
	<path d="M189.963,231.906c0.06,3.57,2.34,5.04,4.979,5.04c1.89,0,3.03-0.33,4.02-0.75l0.45,1.89c-0.93,0.42-2.52,0.9-4.83,0.9
		c-4.47,0-7.14-2.94-7.14-7.319c0-4.38,2.58-7.83,6.81-7.83c4.74,0,6,4.17,6,6.84c0,0.54-0.06,0.96-0.09,1.23H189.963z
		 M197.703,230.016c0.03-1.68-0.689-4.29-3.66-4.29c-2.67,0-3.84,2.46-4.05,4.29H197.703z M198.332,217.896l-3.659,4.29h-1.891
		l2.641-4.29H198.332z"/>
	<path d="M209.763,238.686c0.06-0.99,0.119-2.46,0.119-3.75v-17.549h2.61v9.12h0.06c0.931-1.62,2.61-2.67,4.95-2.67
		c3.6,0,6.149,3,6.12,7.41c0,5.19-3.271,7.77-6.51,7.77c-2.101,0-3.78-0.81-4.86-2.73h-0.09l-0.12,2.4H209.763z M212.493,232.866
		c0,0.33,0.06,0.66,0.12,0.96c0.51,1.83,2.04,3.09,3.96,3.09c2.76,0,4.409-2.25,4.409-5.58c0-2.91-1.5-5.4-4.319-5.4
		c-1.8,0-3.479,1.23-4.02,3.24c-0.061,0.3-0.15,0.66-0.15,1.08V232.866z"/>
	<path d="M228.422,231.906c0.06,3.57,2.34,5.04,4.979,5.04c1.89,0,3.03-0.33,4.02-0.75l0.45,1.89c-0.93,0.42-2.52,0.9-4.83,0.9
		c-4.47,0-7.14-2.94-7.14-7.319c0-4.38,2.58-7.83,6.81-7.83c4.74,0,6,4.17,6,6.84c0,0.54-0.06,0.96-0.09,1.23H228.422z
		 M236.162,230.016c0.03-1.68-0.689-4.29-3.66-4.29c-2.67,0-3.84,2.46-4.05,4.29H236.162z"/>
	<path d="M241.982,228.096c0-1.5-0.029-2.73-0.119-3.93h2.34l0.149,2.4h0.061c0.72-1.38,2.399-2.73,4.8-2.73
		c2.01,0,5.13,1.2,5.13,6.18v8.669h-2.641v-8.37c0-2.34-0.87-4.29-3.359-4.29c-1.74,0-3.09,1.23-3.54,2.7
		c-0.12,0.33-0.18,0.78-0.18,1.23v8.729h-2.641V228.096z"/>
	<path d="M260.102,231.906c0.06,3.57,2.34,5.04,4.979,5.04c1.89,0,3.03-0.33,4.02-0.75l0.45,1.89c-0.93,0.42-2.52,0.9-4.83,0.9
		c-4.47,0-7.14-2.94-7.14-7.319c0-4.38,2.58-7.83,6.81-7.83c4.74,0,6,4.17,6,6.84c0,0.54-0.06,0.96-0.09,1.23H260.102z
		 M267.841,230.016c0.03-1.68-0.689-4.29-3.66-4.29c-2.67,0-3.84,2.46-4.05,4.29H267.841z"/>
	<path d="M273.932,238.686v-12.509h-2.04v-2.01h2.04v-0.78c0-3.84,2.25-6.33,6.33-6.33c1.35,0,2.939,0.42,3.689,0.96l-0.75,2.01
		c-0.63-0.45-1.77-0.84-3.06-0.84c-2.79,0-3.601,1.95-3.601,4.26v0.72h8.43v14.52h-2.609v-12.509h-5.82v12.509H273.932z"/>
	<path d="M299.701,238.145c-0.689,0.36-2.22,0.84-4.169,0.84c-4.38,0-7.23-2.97-7.23-7.41c0-4.47,3.061-7.709,7.8-7.709
		c1.561,0,2.94,0.39,3.66,0.75l-0.6,2.04c-0.631-0.36-1.62-0.69-3.061-0.69c-3.33,0-5.13,2.459-5.13,5.49
		c0,3.36,2.16,5.43,5.04,5.43c1.5,0,2.49-0.39,3.24-0.72L299.701,238.145z"/>
	<path d="M305.732,220.086c0.03,0.9-0.63,1.62-1.68,1.62c-0.931,0-1.59-0.72-1.59-1.62c0-0.93,0.689-1.65,1.649-1.65
		C305.102,218.436,305.732,219.156,305.732,220.086z M302.791,238.686v-14.52h2.641v14.52H302.791z"/>
	<path d="M322.951,231.306c0,5.37-3.72,7.71-7.229,7.71c-3.93,0-6.96-2.88-6.96-7.47c0-4.86,3.18-7.71,7.2-7.71
		C320.131,223.836,322.951,226.866,322.951,231.306z M311.431,231.456c0,3.18,1.83,5.58,4.41,5.58c2.52,0,4.41-2.37,4.41-5.64
		c0-2.46-1.23-5.58-4.351-5.58C312.782,225.816,311.431,228.696,311.431,231.456z"/>
	<path d="M325.921,235.986c0.78,0.51,2.16,1.05,3.479,1.05c1.92,0,2.82-0.96,2.82-2.16c0-1.26-0.75-1.95-2.7-2.67
		c-2.609-0.93-3.84-2.37-3.84-4.109c0-2.34,1.89-4.26,5.01-4.26c1.47,0,2.76,0.42,3.57,0.9l-0.66,1.92
		c-0.57-0.36-1.62-0.84-2.97-0.84c-1.561,0-2.431,0.9-2.431,1.98c0,1.2,0.87,1.74,2.761,2.46c2.52,0.96,3.81,2.22,3.81,4.38
		c0,2.55-1.98,4.35-5.43,4.35c-1.59,0-3.061-0.39-4.08-0.99L325.921,235.986z"/>
	<path d="M165.514,255.996v4.17h3.779v2.011h-3.779v7.829c0,1.8,0.51,2.82,1.979,2.82c0.69,0,1.2-0.09,1.53-0.181l0.12,1.98
		c-0.511,0.21-1.32,0.359-2.34,0.359c-1.23,0-2.221-0.39-2.851-1.109c-0.75-0.78-1.02-2.07-1.02-3.78v-7.919h-2.25v-2.011h2.25
		v-3.479L165.514,255.996z"/>
	<path d="M175.204,256.087c0.03,0.899-0.63,1.619-1.68,1.619c-0.931,0-1.59-0.72-1.59-1.619c0-0.931,0.689-1.65,1.649-1.65
		C174.574,254.436,175.204,255.156,175.204,256.087z M172.263,274.686v-14.52h2.641v14.52H172.263z"/>
	<path d="M180.753,267.906c0.06,3.569,2.34,5.04,4.979,5.04c1.89,0,3.03-0.33,4.02-0.75l0.45,1.89c-0.93,0.42-2.52,0.899-4.83,0.899
		c-4.47,0-7.14-2.939-7.14-7.319s2.58-7.83,6.81-7.83c4.74,0,6,4.17,6,6.84c0,0.54-0.06,0.96-0.09,1.23H180.753z M188.493,266.017
		c0.03-1.681-0.689-4.29-3.66-4.29c-2.67,0-3.84,2.46-4.05,4.29H188.493z"/>
	<path d="M194.313,264.097c0-1.5-0.029-2.73-0.119-3.931h2.34l0.149,2.4h0.061c0.72-1.38,2.399-2.73,4.8-2.73
		c2.01,0,5.13,1.2,5.13,6.181v8.669h-2.641v-8.369c0-2.34-0.869-4.29-3.359-4.29c-1.74,0-3.09,1.229-3.54,2.7
		c-0.12,0.33-0.18,0.779-0.18,1.229v8.729h-2.641V264.097z"/>
	<path d="M212.433,267.906c0.06,3.569,2.34,5.04,4.979,5.04c1.89,0,3.03-0.33,4.02-0.75l0.45,1.89c-0.93,0.42-2.52,0.899-4.83,0.899
		c-4.47,0-7.14-2.939-7.14-7.319s2.58-7.83,6.81-7.83c4.74,0,6,4.17,6,6.84c0,0.54-0.06,0.96-0.09,1.23H212.433z M220.172,266.017
		c0.03-1.681-0.689-4.29-3.66-4.29c-2.67,0-3.84,2.46-4.05,4.29H220.172z"/>
	<path d="M231.993,271.986c0.78,0.51,2.16,1.05,3.479,1.05c1.92,0,2.82-0.96,2.82-2.16c0-1.26-0.75-1.95-2.7-2.67
		c-2.609-0.93-3.84-2.37-3.84-4.109c0-2.341,1.89-4.261,5.01-4.261c1.47,0,2.76,0.421,3.57,0.9l-0.66,1.92
		c-0.57-0.36-1.62-0.84-2.97-0.84c-1.561,0-2.431,0.899-2.431,1.979c0,1.2,0.87,1.74,2.761,2.46c2.52,0.96,3.81,2.22,3.81,4.38
		c0,2.55-1.98,4.35-5.43,4.35c-1.59,0-3.061-0.39-4.08-0.989L231.993,271.986z"/>
	<path d="M254.582,274.145c-0.689,0.36-2.22,0.84-4.169,0.84c-4.38,0-7.23-2.97-7.23-7.409c0-4.47,3.061-7.71,7.8-7.71
		c1.561,0,2.94,0.391,3.66,0.75l-0.6,2.04c-0.631-0.36-1.62-0.689-3.061-0.689c-3.33,0-5.13,2.459-5.13,5.489
		c0,3.36,2.16,5.43,5.04,5.43c1.5,0,2.49-0.39,3.24-0.72L254.582,274.145z"/>
	<path d="M257.672,264.696c0-1.71-0.029-3.18-0.119-4.53h2.31l0.09,2.851h0.12c0.66-1.95,2.25-3.181,4.02-3.181
		c0.3,0,0.511,0.03,0.75,0.091v2.489c-0.27-0.06-0.54-0.09-0.899-0.09c-1.86,0-3.18,1.41-3.54,3.39c-0.061,0.36-0.12,0.78-0.12,1.23
		v7.739h-2.61V264.696z"/>
	<path d="M279.632,270.726c0,1.5,0.029,2.82,0.119,3.96h-2.34l-0.149-2.37h-0.061c-0.689,1.171-2.22,2.7-4.8,2.7
		c-2.279,0-5.01-1.26-5.01-6.359v-8.49h2.641v8.04c0,2.76,0.84,4.62,3.239,4.62c1.771,0,3-1.23,3.48-2.4
		c0.149-0.39,0.239-0.87,0.239-1.35v-8.91h2.641V270.726z"/>
	<path d="M284.011,264.097c0-1.5-0.029-2.73-0.119-3.931h2.31l0.12,2.34h0.09c0.81-1.38,2.16-2.67,4.56-2.67
		c1.98,0,3.48,1.2,4.11,2.91h0.06c0.45-0.81,1.021-1.439,1.62-1.89c0.87-0.66,1.83-1.021,3.21-1.021c1.92,0,4.77,1.261,4.77,6.3
		v8.55h-2.58v-8.22c0-2.79-1.02-4.47-3.149-4.47c-1.5,0-2.67,1.11-3.12,2.4c-0.12,0.359-0.21,0.84-0.21,1.319v8.97h-2.58v-8.699
		c0-2.311-1.02-3.99-3.029-3.99c-1.65,0-2.851,1.32-3.271,2.64c-0.149,0.391-0.21,0.841-0.21,1.29v8.76h-2.58V264.097z"/>
	<path d="M311.072,268.956l-0.06-0.78c-0.18-1.62,0.36-3.39,1.859-5.189c1.351-1.59,2.101-2.76,2.101-4.11
		c0-1.529-0.96-2.55-2.85-2.579c-1.08,0-2.28,0.359-3.03,0.93l-0.72-1.89c0.989-0.721,2.699-1.201,4.289-1.201
		c3.45,0,5.01,2.13,5.01,4.411c0,2.039-1.14,3.51-2.579,5.22c-1.32,1.56-1.8,2.88-1.71,4.409l0.029,0.78H311.072z M310.413,273.156
		c0-1.11,0.749-1.891,1.8-1.891c1.05,0,1.77,0.78,1.77,1.891c0,1.05-0.689,1.859-1.8,1.859
		C311.132,275.016,310.413,274.206,310.413,273.156z"/>
</g>
</svg>