<!-- Generator: Adobe Illustrator 17.0.0, SVG Export Plug-In  -->
<svg version="1.1"
	 xmlns="http://www.w3.org/2000/svg" xmlns:xlink="http://www.w3.org/1999/xlink" xmlns:a="http://ns.adobe.com/AdobeSVGViewerExtensions/3.0/"
	 x="0px" y="0px" width="481.985px" height="509.345px" viewBox="0 0 481.985 509.345"
	 style="enable-background:new 0 0 481.985 509.345;" xml:space="preserve">
<style type="text/css">
	.st0{fill:none;stroke:#000000;stroke-width:3;stroke-miterlimit:10;}
	.st1{fill:url(#SVGID_1_);}
	.st2{fill:#FFFFFF;}
	.st3{fill:#C4C5C6;}
	.st4{fill:#F1F1F1;stroke:#231F20;stroke-width:3.2;stroke-linejoin:round;stroke-miterlimit:10;}
	.st5{fill:none;stroke:#231F20;stroke-width:3.2;stroke-linejoin:round;stroke-miterlimit:10;}
	.st6{fill:url(#SVGID_2_);}
</style>
<defs>
</defs>
<g>
	<rect x="73.576" y="236.642" width="41.301" height="2.044"/>
	<rect x="20.656" y="236.642" width="41.304" height="2.044"/>
	<rect x="9.042" y="236.642" width="3.871" height="2.044"/>
</g>
<g>
	<rect x="163.684" y="0" width="41.301" height="2.044"/>
	<rect x="110.765" y="0" width="41.304" height="2.044"/>
	<rect x="99.15" y="0" width="3.871" height="2.044"/>
</g>
<g>
	<rect x="312.206" y="496.459" width="41.301" height="2.044"/>
	<rect x="259.286" y="496.459" width="41.304" height="2.044"/>
	<rect x="247.672" y="496.459" width="3.871" height="2.044"/>
</g>
<g>
	<rect x="365.604" y="352.441" width="41.301" height="2.044"/>
	<rect x="418.521" y="352.441" width="41.304" height="2.044"/>
	<rect x="467.567" y="352.441" width="3.871" height="2.044"/>
</g>
<g>
	<rect x="392.58" y="102.198" width="83.854" height="2.066"/>
	<rect x="392.58" y="95.579" width="55.165" height="2.068"/>
</g>
<g>
	<rect x="0" y="445.701" width="83.854" height="2.066"/>
	<rect x="28.689" y="439.082" width="55.165" height="2.068"/>
</g>
<g id="XMLID_22_">
	<g id="XMLID_26_">
		<line id="XMLID_28_" class="st0" x1="44.299" y1="271.525" x2="37.617" y2="278.207"/>
		<line id="XMLID_27_" class="st0" x1="28.494" y1="287.329" x2="21.814" y2="294.01"/>
	</g>
	<g id="XMLID_23_">
		<line id="XMLID_25_" class="st0" x1="21.814" y1="271.525" x2="28.494" y2="278.207"/>
		<line id="XMLID_24_" class="st0" x1="37.617" y1="287.329" x2="44.299" y2="294.01"/>
	</g>
</g>
<g id="XMLID_15_">
	<g id="XMLID_19_">
		<line id="XMLID_21_" class="st0" x1="457.467" y1="150.695" x2="450.784" y2="157.377"/>
		<line id="XMLID_20_" class="st0" x1="441.661" y1="166.499" x2="434.981" y2="173.18"/>
	</g>
	<g id="XMLID_16_">
		<line id="XMLID_18_" class="st0" x1="434.981" y1="150.695" x2="441.661" y2="157.377"/>
		<line id="XMLID_17_" class="st0" x1="450.784" y1="166.499" x2="457.467" y2="173.18"/>
	</g>
</g>
<g id="XMLID_8_">
	<g id="XMLID_12_">
		<line id="XMLID_14_" class="st0" x1="205.807" y1="485.8" x2="199.124" y2="492.481"/>
		<line id="XMLID_13_" class="st0" x1="190.001" y1="501.603" x2="183.321" y2="508.284"/>
	</g>
	<g id="XMLID_9_">
		<line id="XMLID_11_" class="st0" x1="183.321" y1="485.8" x2="190.001" y2="492.481"/>
		<line id="XMLID_10_" class="st0" x1="199.124" y1="501.603" x2="205.807" y2="508.284"/>
	</g>
</g>
<g id="XMLID_1_">
	<g id="XMLID_5_">
		<line id="XMLID_7_" class="st0" x1="351.584" y1="2.502" x2="344.901" y2="9.184"/>
		<line id="XMLID_6_" class="st0" x1="335.778" y1="18.306" x2="329.099" y2="24.986"/>
	</g>
	<g id="XMLID_2_">
		<line id="XMLID_4_" class="st0" x1="329.099" y1="2.502" x2="335.778" y2="9.184"/>
		<line id="XMLID_3_" class="st0" x1="344.901" y1="18.306" x2="351.584" y2="24.986"/>
	</g>
</g>
<g>
	<g>
		<radialGradient id="SVGID_1_" cx="239.584" cy="261.9853" r="199.4146" gradientUnits="userSpaceOnUse">
			<stop  offset="0" style="stop-color:#8CBB69"/>
			<stop  offset="0.7837" style="stop-color:#6BAD44"/>
		</radialGradient>
		<rect x="60.96" y="43.752" class="st1" width="357.248" height="436.467"/>
		<path d="M418.208,482.443H60.96c-1.23,0-2.229-0.996-2.229-2.225V43.752c0-1.23,0.998-2.223,2.229-2.223h357.248
			c1.23,0,2.227,0.992,2.227,2.223v436.467C420.435,481.447,419.438,482.443,418.208,482.443z M63.183,477.995h352.805V45.975
			H63.183V477.995z"/>
	</g>
	<g>
		<rect x="84.806" y="67.605" class="st2" width="309.553" height="388.759"/>
		<path d="M394.358,458.59H84.806c-1.225,0-2.223-0.997-2.223-2.226V67.605c0-1.23,0.998-2.223,2.223-2.223h309.553
			c1.23,0,2.229,0.992,2.229,2.223v388.759C396.587,457.593,395.589,458.59,394.358,458.59z M87.032,454.143h305.105V69.831H87.032
			V454.143z"/>
	</g>
	<g>
		<rect x="176.657" y="28.251" class="st2" width="125.859" height="56.456"/>
		<path d="M302.517,86.93H176.657c-1.227,0-2.221-0.996-2.221-2.223V28.251c0-1.228,0.994-2.221,2.221-2.221h125.859
			c1.23,0,2.223,0.993,2.223,2.221v56.456C304.739,85.934,303.747,86.93,302.517,86.93z M178.886,82.48h121.41V30.476h-121.41V82.48
			z"/>
	</g>
	<g>
		<rect x="225.278" y="2.805" class="st2" width="28.617" height="25.442"/>
		<path d="M253.895,30.47h-28.617c-1.229,0-2.221-0.995-2.221-2.223V2.805c0-1.229,0.992-2.223,2.221-2.223h28.617
			c1.232,0,2.229,0.994,2.229,2.223v25.442C256.124,29.475,255.128,30.47,253.895,30.47z M227.501,26.02h24.172V5.027h-24.172V26.02
			z"/>
	</g>
</g>
<g>
	<g>
		<path class="st3" d="M393.719,490.337v-7.18c-1.02-0.415-2.567-0.955-3.803-1.612l-5.031,5.078c-0.48,0.482-1.242,0.482-1.725,0
			l-7.264-7.276c-0.481-0.483-0.476-1.26,0.007-1.743l5.081-5.37c-0.662-1.233-1.195-2.144-1.607-4.184h-7.185
			c-0.683,0-0.885,0.035-0.885-0.647v-10.29c0-0.683,0.202-1.288,0.885-1.288h7.185c0.412-2.037,0.949-2.627,1.607-3.857
			l-5.076-5.066c-0.484-0.482-0.484-1.255,0-1.738l7.279-7.273c0.478-0.485,1.26-0.48,1.74,0.003l4.988,5.075
			c1.235-0.652,2.783-1.195,3.803-1.612v-7.182c0-0.68,0.729-1.777,1.408-1.777h10.289c0.684,0,1.546,1.098,1.546,1.777v7.182
			c1.02,0.417,2.505,0.96,3.731,1.612l5.003-5.073c0.478-0.485,1.223-0.485,1.702,0l7.262,7.274c0.48,0.482,0.471,1.26-0.01,1.742
			l-5.088,5.057c0.657,1.23,1.199,1.82,1.607,3.857h7.184c0.68,0,2.043,0.605,2.043,1.288v10.29c0,0.683-1.363,0.647-2.043,0.647
			h-7.184c-0.412,2.04-0.958,2.95-1.613,4.184l5.084,5.226c0.48,0.482,0.48,1.333,0,1.815l-7.281,7.311
			c-0.48,0.482-1.258,0.502-1.74,0.018l-4.926-5.068c-1.227,0.657-2.711,1.207-3.731,1.622v7.18c0,0.683-0.862,1.145-1.546,1.145
			h-10.289C394.447,491.481,393.719,491.02,393.719,490.337z"/>
		<path class="st4" d="M400.535,471.833c5.1,0,9.234-4.139,9.234-9.237c0-5.096-4.135-9.234-9.234-9.234
			c-5.098,0-9.231,4.139-9.231,9.234C391.304,467.694,395.438,471.833,400.535,471.833z"/>
	</g>
	<line class="st5" x1="434.508" y1="479.257" x2="469.147" y2="479.257"/>
	<line class="st5" x1="438.581" y1="461.941" x2="481.985" y2="461.941"/>
	<line class="st5" x1="436.546" y1="442.582" x2="455.902" y2="442.582"/>
</g>
<g>
	<g>
		<path class="st3" d="M91.165,76.381v-7.18c1.02-0.415,2.567-0.955,3.803-1.612l5.031,5.078c0.48,0.482,1.242,0.482,1.725,0
			l7.264-7.276c0.48-0.482,0.476-1.26-0.007-1.743l-5.081-5.37c0.662-1.233,1.195-2.144,1.607-4.184h7.185
			c0.683,0,0.885,0.035,0.885-0.647v-10.29c0-0.683-0.202-1.288-0.885-1.288h-7.185c-0.412-2.037-0.949-2.627-1.607-3.857
			l5.076-5.066c0.484-0.482,0.484-1.255,0-1.738l-7.279-7.273c-0.478-0.485-1.26-0.48-1.74,0.003l-4.988,5.075
			c-1.235-0.652-2.783-1.195-3.803-1.612v-7.182c0-0.68-0.729-1.777-1.408-1.777H79.468c-0.684,0-1.546,1.098-1.546,1.777v7.182
			c-1.021,0.417-2.505,0.96-3.731,1.612l-5.003-5.073c-0.478-0.485-1.223-0.485-1.702,0l-7.262,7.274
			c-0.48,0.482-0.471,1.26,0.01,1.742l5.088,5.057c-0.657,1.23-1.199,1.82-1.607,3.857H56.53c-0.68,0-2.043,0.605-2.043,1.288v10.29
			c0,0.683,1.363,0.647,2.043,0.647h7.184c0.412,2.04,0.958,2.95,1.613,4.184l-5.084,5.226c-0.48,0.482-0.48,1.333,0,1.815
			l7.281,7.312c0.48,0.482,1.258,0.502,1.74,0.018l4.926-5.068c1.227,0.657,2.711,1.207,3.731,1.622v7.18
			c0,0.683,0.862,1.145,1.546,1.145h10.289C90.437,77.525,91.165,77.063,91.165,76.381z"/>
		<path class="st4" d="M84.349,57.877c-5.1,0-9.234-4.139-9.234-9.237c0-5.096,4.135-9.234,9.234-9.234
			c5.098,0,9.231,4.139,9.231,9.234C93.58,53.738,89.446,57.877,84.349,57.877z"/>
	</g>
	<line class="st5" x1="50.376" y1="65.301" x2="15.737" y2="65.301"/>
	<line class="st5" x1="46.303" y1="47.985" x2="2.898" y2="47.985"/>
	<line class="st5" x1="48.338" y1="28.626" x2="28.981" y2="28.626"/>
</g>
<g>
	<path d="M128.382,231.254l0.12,1.04c0.239,2.16-0.521,4.439-2.52,6.839c-1.8,2.16-2.76,3.64-2.76,5.439
		c0,2.04,1.239,3.399,3.799,3.399c1.4,0,3-0.44,4.04-1.24l0.96,2.56c-1.36,0.92-3.64,1.6-5.76,1.6c-4.559,0-6.679-2.84-6.679-5.879
		c0-2.719,1.52-4.639,3.479-6.878c1.72-2.12,2.359-3.799,2.239-5.839l-0.039-1.04H128.382z M129.222,225.575
		c0,1.4-0.92,2.52-2.359,2.52c-1.44,0-2.36-1.12-2.36-2.52c0-1.44,0.96-2.479,2.36-2.479
		C128.302,223.096,129.222,224.135,129.222,225.575z"/>
	<path d="M155.5,241.772c-1.28,0.64-3.84,1.28-7.119,1.28c-7.599,0-13.317-4.799-13.317-13.638c0-8.438,5.719-14.158,14.077-14.158
		c3.359,0,5.479,0.72,6.399,1.2l-0.84,2.84c-1.32-0.64-3.2-1.12-5.439-1.12c-6.319,0-10.519,4.04-10.519,11.118
		c0,6.599,3.8,10.838,10.358,10.838c2.12,0,4.279-0.44,5.68-1.12L155.5,241.772z"/>
	<path d="M176.82,232.814c0,7.159-4.959,10.278-9.639,10.278c-5.239,0-9.278-3.839-9.278-9.958c0-6.479,4.239-10.278,9.599-10.278
		C173.06,222.855,176.82,226.895,176.82,232.814z M161.463,233.014c0,4.239,2.439,7.438,5.879,7.438
		c3.359,0,5.879-3.159,5.879-7.519c0-3.28-1.64-7.439-5.799-7.439S161.463,229.334,161.463,233.014z M172.621,214.937l-4.879,5.719
		h-2.52l3.52-5.719H172.621z"/>
	<path d="M181.264,228.535c0-2-0.04-3.639-0.16-5.239h3.079l0.16,3.12h0.12c1.08-1.84,2.879-3.56,6.079-3.56
		c2.64,0,4.639,1.6,5.479,3.879h0.08c0.6-1.08,1.36-1.919,2.16-2.52c1.159-0.88,2.439-1.36,4.279-1.36
		c2.56,0,6.358,1.68,6.358,8.399v11.398h-3.439v-10.958c0-3.72-1.359-5.959-4.199-5.959c-2,0-3.56,1.479-4.159,3.199
		c-0.16,0.48-0.28,1.12-0.28,1.76v11.958h-3.439v-11.598c0-3.08-1.359-5.319-4.039-5.319c-2.199,0-3.799,1.76-4.359,3.519
		c-0.2,0.52-0.279,1.12-0.279,1.72v11.678h-3.439V228.535z"/>
	<path d="M232.141,232.814c0,7.159-4.959,10.278-9.639,10.278c-5.239,0-9.278-3.839-9.278-9.958c0-6.479,4.239-10.278,9.599-10.278
		C228.381,222.855,232.141,226.895,232.141,232.814z M216.783,233.014c0,4.239,2.439,7.438,5.879,7.438
		c3.359,0,5.879-3.159,5.879-7.519c0-3.28-1.64-7.439-5.799-7.439S216.783,229.334,216.783,233.014z"/>
	<path d="M248.662,218.656h-8.198v-2.959h19.957v2.959h-8.239v23.996h-3.52V218.656z"/>
	<path d="M261.504,229.334c0-2.279-0.04-4.239-0.16-6.039h3.079l0.12,3.799h0.16c0.88-2.599,2.999-4.239,5.359-4.239
		c0.399,0,0.68,0.04,0.999,0.12v3.319c-0.359-0.08-0.72-0.12-1.199-0.12c-2.479,0-4.239,1.879-4.72,4.519
		c-0.08,0.48-0.16,1.04-0.16,1.64v10.318h-3.479V229.334z"/>
	<path d="M285.102,242.652l-0.28-2.439h-0.12c-1.079,1.52-3.159,2.879-5.919,2.879c-3.919,0-5.919-2.76-5.919-5.559
		c0-4.679,4.159-7.239,11.639-7.199v-0.4c0-1.6-0.44-4.479-4.399-4.479c-1.8,0-3.68,0.56-5.039,1.44l-0.8-2.32
		c1.6-1.04,3.919-1.72,6.358-1.72c5.919,0,7.359,4.04,7.359,7.919v7.239c0,1.68,0.08,3.319,0.319,4.639H285.102z M284.583,232.774
		c-3.84-0.08-8.199,0.6-8.199,4.359c0,2.28,1.52,3.359,3.319,3.359c2.52,0,4.12-1.6,4.68-3.239c0.12-0.36,0.2-0.76,0.2-1.12V232.774
		z"/>
	<path d="M293.504,242.652c0.08-1.32,0.16-3.279,0.16-4.999v-23.396h3.479v12.158h0.08c1.24-2.16,3.479-3.56,6.6-3.56
		c4.799,0,8.198,4,8.158,9.878c0,6.919-4.359,10.358-8.679,10.358c-2.799,0-5.039-1.08-6.479-3.639h-0.12l-0.16,3.199H293.504z
		 M297.142,234.894c0,0.44,0.08,0.88,0.16,1.28c0.681,2.439,2.72,4.12,5.279,4.12c3.68,0,5.879-3,5.879-7.439
		c0-3.879-1.999-7.199-5.759-7.199c-2.399,0-4.64,1.64-5.359,4.319c-0.08,0.4-0.2,0.88-0.2,1.439V234.894z"/>
	<path d="M327.142,242.652l-0.28-2.439h-0.12c-1.079,1.52-3.159,2.879-5.919,2.879c-3.919,0-5.919-2.76-5.919-5.559
		c0-4.679,4.159-7.239,11.639-7.199v-0.4c0-1.6-0.44-4.479-4.399-4.479c-1.8,0-3.68,0.56-5.039,1.44l-0.8-2.32
		c1.6-1.04,3.919-1.72,6.358-1.72c5.919,0,7.359,4.04,7.359,7.919v7.239c0,1.68,0.08,3.319,0.319,4.639H327.142z M326.622,232.774
		c-3.84-0.08-8.199,0.6-8.199,4.359c0,2.28,1.52,3.359,3.319,3.359c2.52,0,4.12-1.6,4.68-3.239c0.12-0.36,0.2-0.76,0.2-1.12V232.774
		z"/>
	<path d="M330.983,248.251c1.6-0.12,3-0.56,3.84-1.48c0.959-1.12,1.319-2.639,1.319-7.279v-16.197h3.52v17.557
		c0,3.759-0.6,6.199-2.319,7.959c-1.561,1.56-4.12,2.199-5.999,2.199L330.983,248.251z M340.061,217.856
		c0.04,1.16-0.8,2.16-2.199,2.16c-1.319,0-2.159-1-2.159-2.16c0-1.24,0.92-2.2,2.239-2.2
		C339.222,215.657,340.061,216.617,340.061,217.856z"/>
	<path d="M356.141,242.652l-0.28-2.439h-0.12c-1.079,1.52-3.159,2.879-5.919,2.879c-3.919,0-5.919-2.76-5.919-5.559
		c0-4.679,4.159-7.239,11.639-7.199v-0.4c0-1.6-0.44-4.479-4.399-4.479c-1.8,0-3.68,0.56-5.039,1.44l-0.8-2.32
		c1.6-1.04,3.919-1.72,6.358-1.72c5.919,0,7.359,4.04,7.359,7.919v7.239c0,1.68,0.08,3.319,0.319,4.639H356.141z M355.621,232.774
		c-3.84-0.08-8.199,0.6-8.199,4.359c0,2.28,1.52,3.359,3.319,3.359c2.52,0,4.12-1.6,4.68-3.239c0.12-0.36,0.2-0.76,0.2-1.12V232.774
		z"/>
	<path d="M180.843,286.413c1.56,0.96,3.839,1.76,6.239,1.76c3.56,0,5.639-1.88,5.639-4.6c0-2.52-1.439-3.959-5.079-5.359
		c-4.399-1.56-7.119-3.839-7.119-7.639c0-4.199,3.479-7.318,8.719-7.318c2.76,0,4.76,0.64,5.959,1.319l-0.96,2.84
		c-0.88-0.479-2.68-1.28-5.119-1.28c-3.679,0-5.079,2.2-5.079,4.04c0,2.52,1.64,3.759,5.359,5.199
		c4.56,1.76,6.879,3.959,6.879,7.918c0,4.16-3.079,7.759-9.438,7.759c-2.6,0-5.439-0.76-6.879-1.72L180.843,286.413z"/>
	<path d="M214.96,289.933c-0.92,0.479-2.959,1.119-5.559,1.119c-5.839,0-9.639-3.959-9.639-9.878
		c0-5.959,4.079-10.278,10.398-10.278c2.08,0,3.919,0.52,4.879,1l-0.8,2.72c-0.84-0.48-2.159-0.92-4.079-0.92
		c-4.439,0-6.839,3.279-6.839,7.318c0,4.479,2.88,7.239,6.719,7.239c2,0,3.319-0.521,4.319-0.96L214.96,289.933z"/>
	<path d="M219.083,277.334c0-2.279-0.04-4.239-0.16-6.039h3.079l0.12,3.8h0.16c0.88-2.6,2.999-4.239,5.359-4.239
		c0.399,0,0.68,0.04,0.999,0.12v3.319c-0.359-0.08-0.72-0.12-1.199-0.12c-2.479,0-4.239,1.88-4.72,4.52
		c-0.08,0.479-0.159,1.04-0.159,1.64v10.318h-3.479V277.334z"/>
	<path d="M248.36,285.373c0,2,0.04,3.76,0.159,5.279H245.4l-0.2-3.16h-0.08c-0.92,1.561-2.959,3.6-6.398,3.6
		c-3.04,0-6.679-1.68-6.679-8.479v-11.318h3.52v10.719c0,3.68,1.119,6.159,4.319,6.159c2.359,0,3.999-1.64,4.639-3.2
		c0.2-0.52,0.32-1.159,0.32-1.799v-11.879h3.52V285.373z"/>
	<path d="M254.203,276.534c0-1.999-0.04-3.639-0.16-5.239h3.079l0.16,3.12h0.12c1.08-1.84,2.879-3.56,6.079-3.56
		c2.64,0,4.639,1.6,5.479,3.879h0.08c0.6-1.079,1.36-1.919,2.16-2.52c1.159-0.88,2.439-1.359,4.279-1.359
		c2.56,0,6.358,1.68,6.358,8.398v11.398h-3.439v-10.958c0-3.72-1.359-5.959-4.199-5.959c-2,0-3.56,1.479-4.159,3.199
		c-0.16,0.479-0.28,1.12-0.28,1.76v11.958h-3.439v-11.599c0-3.079-1.359-5.318-4.039-5.318c-2.199,0-3.799,1.76-4.359,3.519
		c-0.2,0.521-0.279,1.12-0.279,1.72v11.679h-3.439V276.534z"/>
	<path d="M290.282,283.014l-0.08-1.04c-0.239-2.16,0.48-4.52,2.48-6.919c1.799-2.119,2.799-3.68,2.799-5.479
		c0-2.039-1.279-3.399-3.799-3.439c-1.44,0-3.04,0.48-4.04,1.24l-0.959-2.52c1.319-0.96,3.599-1.6,5.719-1.6
		c4.6,0,6.679,2.84,6.679,5.879c0,2.72-1.52,4.679-3.439,6.959c-1.76,2.079-2.399,3.839-2.279,5.879l0.04,1.04H290.282z
		 M289.402,288.612c0-1.479,1-2.52,2.4-2.52c1.399,0,2.359,1.04,2.359,2.52c0,1.4-0.92,2.479-2.399,2.479
		C290.362,291.092,289.402,290.013,289.402,288.612z"/>
</g>
</svg>