<!-- Generator: Adobe Illustrator 17.0.0, SVG Export Plug-In  -->
<svg version="1.1"
	 xmlns="http://www.w3.org/2000/svg" xmlns:xlink="http://www.w3.org/1999/xlink" xmlns:a="http://ns.adobe.com/AdobeSVGViewerExtensions/3.0/"
	 x="0px" y="0px" width="481.985px" height="509.345px" viewBox="0 0 481.985 509.345"
	 style="enable-background:new 0 0 481.985 509.345;" xml:space="preserve">
<style type="text/css">
	.st0{fill:none;stroke:#000000;stroke-width:3;stroke-miterlimit:10;}
	.st1{fill:url(#SVGID_1_);}
	.st2{fill:#FFFFFF;}
	.st3{fill:#C4C5C6;}
	.st4{fill:#F1F1F1;stroke:#231F20;stroke-width:3.2;stroke-linejoin:round;stroke-miterlimit:10;}
	.st5{fill:none;stroke:#231F20;stroke-width:3.2;stroke-linejoin:round;stroke-miterlimit:10;}
	.st6{fill:url(#SVGID_2_);}
</style>
<defs>
</defs>
<g>
	<rect x="73.576" y="236.642" width="41.301" height="2.044"/>
	<rect x="20.656" y="236.642" width="41.304" height="2.044"/>
	<rect x="9.042" y="236.642" width="3.871" height="2.044"/>
</g>
<g>
	<rect x="163.685" y="0" width="41.301" height="2.044"/>
	<rect x="110.765" y="0" width="41.304" height="2.044"/>
	<rect x="99.15" y="0" width="3.871" height="2.044"/>
</g>
<g>
	<rect x="312.206" y="496.459" width="41.301" height="2.044"/>
	<rect x="259.286" y="496.459" width="41.304" height="2.044"/>
	<rect x="247.672" y="496.459" width="3.871" height="2.044"/>
</g>
<g>
	<rect x="365.604" y="352.441" width="41.301" height="2.044"/>
	<rect x="418.521" y="352.441" width="41.304" height="2.044"/>
	<rect x="467.567" y="352.441" width="3.871" height="2.044"/>
</g>
<g>
	<rect x="392.58" y="102.198" width="83.854" height="2.066"/>
	<rect x="392.58" y="95.579" width="55.165" height="2.068"/>
</g>
<g>
	<rect x="0" y="445.701" width="83.854" height="2.066"/>
	<rect x="28.689" y="439.082" width="55.165" height="2.068"/>
</g>
<g id="XMLID_22_">
	<g id="XMLID_26_">
		<line id="XMLID_28_" class="st0" x1="44.299" y1="271.525" x2="37.617" y2="278.207"/>
		<line id="XMLID_27_" class="st0" x1="28.494" y1="287.329" x2="21.814" y2="294.01"/>
	</g>
	<g id="XMLID_23_">
		<line id="XMLID_25_" class="st0" x1="21.814" y1="271.525" x2="28.494" y2="278.207"/>
		<line id="XMLID_24_" class="st0" x1="37.617" y1="287.329" x2="44.299" y2="294.01"/>
	</g>
</g>
<g id="XMLID_15_">
	<g id="XMLID_19_">
		<line id="XMLID_21_" class="st0" x1="457.467" y1="150.695" x2="450.784" y2="157.377"/>
		<line id="XMLID_20_" class="st0" x1="441.661" y1="166.499" x2="434.981" y2="173.18"/>
	</g>
	<g id="XMLID_16_">
		<line id="XMLID_18_" class="st0" x1="434.981" y1="150.695" x2="441.661" y2="157.377"/>
		<line id="XMLID_17_" class="st0" x1="450.784" y1="166.499" x2="457.467" y2="173.18"/>
	</g>
</g>
<g id="XMLID_8_">
	<g id="XMLID_12_">
		<line id="XMLID_14_" class="st0" x1="205.807" y1="485.8" x2="199.124" y2="492.481"/>
		<line id="XMLID_13_" class="st0" x1="190.001" y1="501.603" x2="183.321" y2="508.284"/>
	</g>
	<g id="XMLID_9_">
		<line id="XMLID_11_" class="st0" x1="183.321" y1="485.8" x2="190.001" y2="492.481"/>
		<line id="XMLID_10_" class="st0" x1="199.124" y1="501.603" x2="205.807" y2="508.284"/>
	</g>
</g>
<g id="XMLID_1_">
	<g id="XMLID_5_">
		<line id="XMLID_7_" class="st0" x1="351.584" y1="2.502" x2="344.901" y2="9.184"/>
		<line id="XMLID_6_" class="st0" x1="335.778" y1="18.306" x2="329.099" y2="24.986"/>
	</g>
	<g id="XMLID_2_">
		<line id="XMLID_4_" class="st0" x1="329.099" y1="2.502" x2="335.778" y2="9.184"/>
		<line id="XMLID_3_" class="st0" x1="344.901" y1="18.306" x2="351.584" y2="24.986"/>
	</g>
</g>
<g>
	<g>
		<radialGradient id="SVGID_1_" cx="239.584" cy="261.9853" r="199.4146" gradientUnits="userSpaceOnUse">
			<stop  offset="0" style="stop-color:#8CBB69"/>
			<stop  offset="0.7837" style="stop-color:#6BAD44"/>
		</radialGradient>
		<rect x="60.96" y="43.752" class="st1" width="357.248" height="436.467"/>
		<path d="M418.208,482.443H60.96c-1.23,0-2.229-0.996-2.229-2.225V43.752c0-1.23,0.998-2.223,2.229-2.223h357.248
			c1.23,0,2.227,0.992,2.227,2.223v436.467C420.435,481.447,419.438,482.443,418.208,482.443z M63.183,477.995h352.805V45.975
			H63.183V477.995z"/>
	</g>
	<g>
		<rect x="84.806" y="67.605" class="st2" width="309.553" height="388.759"/>
		<path d="M394.358,458.59H84.806c-1.225,0-2.223-0.997-2.223-2.226V67.605c0-1.23,0.998-2.223,2.223-2.223h309.553
			c1.23,0,2.229,0.992,2.229,2.223v388.759C396.587,457.593,395.589,458.59,394.358,458.59z M87.032,454.143h305.105V69.831H87.032
			V454.143z"/>
	</g>
	<g>
		<rect x="176.657" y="28.251" class="st2" width="125.859" height="56.456"/>
		<path d="M302.517,86.93H176.657c-1.227,0-2.221-0.996-2.221-2.223V28.251c0-1.228,0.994-2.221,2.221-2.221h125.859
			c1.23,0,2.223,0.993,2.223,2.221v56.456C304.739,85.934,303.747,86.93,302.517,86.93z M178.886,82.48h121.41V30.476h-121.41V82.48
			z"/>
	</g>
	<g>
		<rect x="225.278" y="2.805" class="st2" width="28.617" height="25.442"/>
		<path d="M253.895,30.47h-28.617c-1.229,0-2.221-0.995-2.221-2.223V2.805c0-1.229,0.992-2.223,2.221-2.223h28.617
			c1.232,0,2.229,0.994,2.229,2.223v25.442C256.124,29.475,255.128,30.47,253.895,30.47z M227.501,26.02h24.172V5.027h-24.172V26.02
			z"/>
	</g>
</g>
<g>
	<g>
		<path class="st3" d="M393.719,490.337v-7.18c-1.02-0.415-2.567-0.955-3.803-1.612l-5.031,5.078c-0.48,0.482-1.242,0.482-1.725,0
			l-7.264-7.276c-0.481-0.483-0.476-1.26,0.007-1.743l5.081-5.37c-0.662-1.233-1.195-2.144-1.607-4.184h-7.185
			c-0.683,0-0.885,0.035-0.885-0.647v-10.29c0-0.683,0.202-1.288,0.885-1.288h7.185c0.412-2.037,0.949-2.627,1.607-3.857
			l-5.076-5.066c-0.484-0.482-0.484-1.255,0-1.738l7.279-7.273c0.478-0.485,1.26-0.48,1.74,0.003l4.988,5.075
			c1.235-0.652,2.783-1.195,3.803-1.612v-7.182c0-0.68,0.729-1.777,1.408-1.777h10.289c0.684,0,1.546,1.098,1.546,1.777v7.182
			c1.02,0.417,2.505,0.96,3.731,1.612l5.003-5.073c0.478-0.485,1.223-0.485,1.702,0l7.262,7.274c0.48,0.482,0.471,1.26-0.01,1.742
			l-5.088,5.057c0.657,1.23,1.199,1.82,1.607,3.857h7.184c0.68,0,2.043,0.605,2.043,1.288v10.29c0,0.683-1.363,0.647-2.043,0.647
			h-7.184c-0.412,2.04-0.958,2.95-1.613,4.184l5.084,5.226c0.48,0.482,0.48,1.333,0,1.815l-7.281,7.311
			c-0.48,0.482-1.258,0.502-1.74,0.018l-4.926-5.068c-1.227,0.657-2.711,1.207-3.731,1.622v7.18c0,0.683-0.862,1.145-1.546,1.145
			h-10.289C394.447,491.481,393.719,491.02,393.719,490.337z"/>
		<path class="st4" d="M400.535,471.833c5.1,0,9.234-4.139,9.234-9.237c0-5.096-4.135-9.234-9.234-9.234
			c-5.098,0-9.231,4.139-9.231,9.234C391.304,467.694,395.438,471.833,400.535,471.833z"/>
	</g>
	<line class="st5" x1="434.508" y1="479.257" x2="469.147" y2="479.257"/>
	<line class="st5" x1="438.581" y1="461.941" x2="481.985" y2="461.941"/>
	<line class="st5" x1="436.546" y1="442.582" x2="455.902" y2="442.582"/>
</g>
<g>
	<g>
		<path class="st3" d="M91.165,76.381v-7.18c1.02-0.415,2.567-0.955,3.803-1.612l5.031,5.078c0.48,0.482,1.242,0.482,1.725,0
			l7.264-7.276c0.48-0.482,0.476-1.26-0.007-1.743l-5.081-5.37c0.662-1.233,1.195-2.144,1.607-4.184h7.185
			c0.683,0,0.885,0.035,0.885-0.647v-10.29c0-0.683-0.202-1.288-0.885-1.288h-7.185c-0.412-2.037-0.949-2.627-1.607-3.857
			l5.076-5.066c0.484-0.482,0.484-1.255,0-1.738l-7.279-7.273c-0.478-0.485-1.26-0.48-1.74,0.003l-4.988,5.075
			c-1.235-0.652-2.783-1.195-3.803-1.612v-7.182c0-0.68-0.729-1.777-1.408-1.777H79.468c-0.684,0-1.546,1.098-1.546,1.777v7.182
			c-1.021,0.417-2.505,0.96-3.731,1.612l-5.003-5.073c-0.478-0.485-1.223-0.485-1.702,0l-7.262,7.274
			c-0.48,0.482-0.471,1.26,0.01,1.742l5.088,5.057c-0.657,1.23-1.199,1.82-1.607,3.857H56.53c-0.68,0-2.043,0.605-2.043,1.288v10.29
			c0,0.683,1.363,0.647,2.043,0.647h7.184c0.412,2.04,0.958,2.95,1.613,4.184l-5.084,5.226c-0.48,0.482-0.48,1.333,0,1.815
			l7.281,7.312c0.48,0.482,1.258,0.502,1.74,0.018l4.926-5.068c1.227,0.657,2.711,1.207,3.731,1.622v7.18
			c0,0.683,0.862,1.145,1.546,1.145h10.289C90.437,77.525,91.165,77.063,91.165,76.381z"/>
		<path class="st4" d="M84.349,57.877c-5.1,0-9.234-4.139-9.234-9.237c0-5.096,4.135-9.234,9.234-9.234
			c5.098,0,9.231,4.139,9.231,9.234C93.58,53.738,89.446,57.877,84.349,57.877z"/>
	</g>
	<line class="st5" x1="50.376" y1="65.301" x2="15.737" y2="65.301"/>
	<line class="st5" x1="46.303" y1="47.985" x2="2.898" y2="47.985"/>
	<line class="st5" x1="48.338" y1="28.626" x2="28.981" y2="28.626"/>
</g>
<g>
	<path d="M127.305,161.114h-5.241v4.861h5.842v1.46h-7.582v-13.483h7.281v1.46h-5.541v4.261h5.241V161.114z"/>
	<path d="M130.104,153.232h1.76v14.203h-1.76V153.232z"/>
	<path d="M139.063,160.914c0-1.24-0.04-2.24-0.08-3.161h1.58l0.08,1.661h0.04c0.721-1.181,1.86-1.881,3.441-1.881
		c2.34,0,4.101,1.98,4.101,4.921c0,3.48-2.12,5.201-4.401,5.201c-1.28,0-2.4-0.56-2.98-1.521h-0.04v5.261h-1.74V160.914z
		 M140.803,163.495c0,0.26,0.04,0.5,0.08,0.72c0.32,1.22,1.381,2.061,2.641,2.061c1.86,0,2.94-1.521,2.94-3.741
		c0-1.94-1.02-3.601-2.88-3.601c-1.2,0-2.321,0.86-2.661,2.181c-0.06,0.22-0.12,0.48-0.12,0.72V163.495z"/>
	<path d="M150.443,160.774c0-1.14-0.02-2.12-0.08-3.021h1.54l0.061,1.9h0.08c0.44-1.3,1.5-2.121,2.681-2.121
		c0.2,0,0.34,0.02,0.5,0.06v1.661c-0.18-0.04-0.36-0.06-0.6-0.06c-1.24,0-2.121,0.94-2.361,2.26c-0.04,0.24-0.08,0.521-0.08,0.82
		v5.161h-1.74V160.774z"/>
	<path d="M165.546,162.515c0,3.581-2.481,5.141-4.821,5.141c-2.621,0-4.642-1.92-4.642-4.981c0-3.24,2.121-5.141,4.802-5.141
		C163.665,157.533,165.546,159.554,165.546,162.515z M157.864,162.615c0,2.12,1.22,3.721,2.94,3.721c1.68,0,2.94-1.581,2.94-3.761
		c0-1.641-0.82-3.721-2.9-3.721C158.763,158.853,157.864,160.774,157.864,162.615z"/>
	<path d="M174.664,167.076c-0.46,0.24-1.479,0.56-2.78,0.56c-2.921,0-4.821-1.98-4.821-4.941c0-2.98,2.041-5.141,5.201-5.141
		c1.041,0,1.961,0.26,2.44,0.5l-0.399,1.36c-0.42-0.24-1.08-0.46-2.041-0.46c-2.22,0-3.42,1.641-3.42,3.661
		c0,2.24,1.439,3.621,3.36,3.621c1,0,1.66-0.26,2.16-0.48L174.664,167.076z"/>
	<path d="M177.584,162.915c0.04,2.38,1.561,3.361,3.321,3.361c1.26,0,2.02-0.22,2.68-0.5l0.301,1.26c-0.62,0.28-1.681,0.6-3.221,0.6
		c-2.98,0-4.762-1.96-4.762-4.881c0-2.92,1.721-5.221,4.541-5.221c3.161,0,4.001,2.781,4.001,4.561c0,0.36-0.04,0.64-0.06,0.82
		H177.584z M182.745,161.654c0.021-1.12-0.46-2.861-2.44-2.861c-1.78,0-2.561,1.641-2.7,2.861H182.745z"/>
	<path d="M186.384,165.635c0.52,0.34,1.439,0.7,2.32,0.7c1.28,0,1.88-0.64,1.88-1.44c0-0.84-0.5-1.3-1.8-1.78
		c-1.74-0.62-2.561-1.581-2.561-2.741c0-1.561,1.26-2.841,3.341-2.841c0.979,0,1.84,0.28,2.38,0.601l-0.439,1.28
		c-0.381-0.24-1.081-0.561-1.98-0.561c-1.041,0-1.621,0.6-1.621,1.32c0,0.8,0.58,1.161,1.841,1.641c1.681,0.64,2.54,1.48,2.54,2.92
		c0,1.701-1.32,2.901-3.62,2.901c-1.061,0-2.041-0.26-2.721-0.66L186.384,165.635z"/>
	<path d="M203.305,162.515c0,3.581-2.481,5.141-4.821,5.141c-2.621,0-4.642-1.92-4.642-4.981c0-3.24,2.121-5.141,4.802-5.141
		C201.425,157.533,203.305,159.554,203.305,162.515z M195.624,162.615c0,2.12,1.22,3.721,2.94,3.721c1.68,0,2.94-1.581,2.94-3.761
		c0-1.641-0.82-3.721-2.9-3.721C196.523,158.853,195.624,160.774,195.624,162.615z"/>
	<path d="M209.761,160.914c0-1.24-0.04-2.24-0.08-3.161h1.581l0.08,1.661h0.04c0.72-1.181,1.86-1.881,3.44-1.881
		c2.341,0,4.101,1.98,4.101,4.921c0,3.48-2.12,5.201-4.4,5.201c-1.28,0-2.4-0.56-2.981-1.521h-0.039v5.261h-1.741V160.914z
		 M211.503,163.495c0,0.26,0.039,0.5,0.079,0.72c0.32,1.22,1.381,2.061,2.641,2.061c1.86,0,2.941-1.521,2.941-3.741
		c0-1.94-1.021-3.601-2.881-3.601c-1.2,0-2.32,0.86-2.661,2.181c-0.06,0.22-0.119,0.48-0.119,0.72V163.495z"/>
	<path d="M226.504,167.436l-0.14-1.22h-0.061c-0.54,0.76-1.58,1.44-2.96,1.44c-1.961,0-2.961-1.38-2.961-2.781
		c0-2.34,2.08-3.621,5.821-3.601v-0.2c0-0.8-0.22-2.241-2.2-2.241c-0.9,0-1.841,0.28-2.521,0.72l-0.4-1.16
		c0.8-0.52,1.96-0.86,3.181-0.86c2.961,0,3.681,2.021,3.681,3.961v3.621c0,0.84,0.04,1.66,0.16,2.32H226.504z M226.244,162.495
		c-1.921-0.04-4.101,0.3-4.101,2.18c0,1.141,0.76,1.681,1.66,1.681c1.26,0,2.061-0.8,2.34-1.621c0.061-0.18,0.101-0.38,0.101-0.56
		V162.495z"/>
	<path d="M230.781,160.774c0-1.14-0.02-2.12-0.08-3.021h1.541l0.06,1.9h0.08c0.44-1.3,1.5-2.121,2.681-2.121
		c0.2,0,0.34,0.02,0.5,0.06v1.661c-0.18-0.04-0.36-0.06-0.6-0.06c-1.24,0-2.121,0.94-2.361,2.26c-0.04,0.24-0.079,0.521-0.079,0.82
		v5.161h-1.741V160.774z"/>
	<path d="M239.923,154.973v2.781h2.521v1.34h-2.521v5.221c0,1.2,0.34,1.88,1.32,1.88c0.46,0,0.8-0.06,1.02-0.12l0.08,1.32
		c-0.34,0.14-0.88,0.24-1.56,0.24c-0.82,0-1.48-0.26-1.9-0.74c-0.501-0.52-0.681-1.38-0.681-2.521v-5.281h-1.5v-1.34h1.5v-2.32
		L239.923,154.973z"/>
	<path d="M245.282,162.915c0.04,2.38,1.561,3.361,3.32,3.361c1.261,0,2.021-0.22,2.681-0.5l0.301,1.26
		c-0.62,0.28-1.681,0.6-3.221,0.6c-2.98,0-4.762-1.96-4.762-4.881c0-2.92,1.721-5.221,4.541-5.221c3.161,0,4.001,2.781,4.001,4.561
		c0,0.36-0.04,0.64-0.06,0.82H245.282z M250.443,161.654c0.021-1.12-0.46-2.861-2.44-2.861c-1.78,0-2.561,1.641-2.7,2.861H250.443z"
		/>
	<path d="M266.924,153.232v11.703c0,0.86,0.02,1.84,0.08,2.5h-1.581l-0.079-1.68h-0.04c-0.54,1.08-1.721,1.9-3.301,1.9
		c-2.341,0-4.142-1.98-4.142-4.921c-0.02-3.221,1.98-5.201,4.342-5.201c1.479,0,2.48,0.7,2.92,1.48h0.04v-5.781H266.924z
		 M265.163,161.694c0-0.22-0.02-0.52-0.08-0.74c-0.26-1.12-1.22-2.041-2.54-2.041c-1.82,0-2.9,1.601-2.9,3.741
		c0,1.96,0.96,3.581,2.86,3.581c1.18,0,2.261-0.78,2.58-2.101c0.061-0.24,0.08-0.48,0.08-0.76V161.694z"/>
	<path d="M270.822,162.915c0.04,2.38,1.561,3.361,3.321,3.361c1.26,0,2.02-0.22,2.68-0.5l0.301,1.26c-0.62,0.28-1.681,0.6-3.221,0.6
		c-2.98,0-4.762-1.96-4.762-4.881c0-2.92,1.721-5.221,4.541-5.221c3.161,0,4.001,2.781,4.001,4.561c0,0.36-0.04,0.64-0.06,0.82
		H270.822z M275.983,161.654c0.021-1.12-0.46-2.861-2.44-2.861c-1.78,0-2.561,1.641-2.7,2.861H275.983z"/>
	<path d="M284.101,153.232h1.761v14.203h-1.761V153.232z"/>
	<path d="M294.182,167.436l-0.14-1.22h-0.061c-0.54,0.76-1.58,1.44-2.96,1.44c-1.961,0-2.961-1.38-2.961-2.781
		c0-2.34,2.08-3.621,5.821-3.601v-0.2c0-0.8-0.22-2.241-2.2-2.241c-0.9,0-1.841,0.28-2.521,0.72l-0.4-1.16
		c0.8-0.52,1.96-0.86,3.181-0.86c2.961,0,3.681,2.021,3.681,3.961v3.621c0,0.84,0.04,1.66,0.16,2.32H294.182z M293.923,162.495
		c-1.921-0.04-4.101,0.3-4.101,2.18c0,1.141,0.76,1.681,1.66,1.681c1.26,0,2.061-0.8,2.34-1.621c0.061-0.18,0.101-0.38,0.101-0.56
		V162.495z"/>
	<path d="M302.701,153.232h1.761v14.203h-1.761V153.232z"/>
	<path d="M309.382,155.033c0.02,0.6-0.42,1.081-1.12,1.081c-0.62,0-1.061-0.48-1.061-1.081c0-0.62,0.46-1.1,1.101-1.1
		C308.962,153.933,309.382,154.413,309.382,155.033z M307.421,167.436v-9.682h1.761v9.682H307.421z"/>
	<path d="M311.861,165.635c0.52,0.34,1.439,0.7,2.32,0.7c1.28,0,1.88-0.64,1.88-1.44c0-0.84-0.5-1.3-1.8-1.78
		c-1.74-0.62-2.561-1.581-2.561-2.741c0-1.561,1.26-2.841,3.341-2.841c0.979,0,1.84,0.28,2.38,0.601l-0.439,1.28
		c-0.381-0.24-1.081-0.561-1.98-0.561c-1.041,0-1.621,0.6-1.621,1.32c0,0.8,0.58,1.161,1.841,1.641c1.681,0.64,2.54,1.48,2.54,2.92
		c0,1.701-1.32,2.901-3.62,2.901c-1.061,0-2.041-0.26-2.721-0.66L311.861,165.635z"/>
	<path d="M322.141,154.973v2.781h2.521v1.34h-2.521v5.221c0,1.2,0.34,1.88,1.32,1.88c0.46,0,0.8-0.06,1.02-0.12l0.08,1.32
		c-0.34,0.14-0.88,0.24-1.56,0.24c-0.82,0-1.48-0.26-1.9-0.74c-0.501-0.52-0.681-1.38-0.681-2.521v-5.281h-1.5v-1.34h1.5v-2.32
		L322.141,154.973z"/>
	<path d="M332.002,167.436l-0.14-1.22h-0.061c-0.54,0.76-1.58,1.44-2.96,1.44c-1.961,0-2.961-1.38-2.961-2.781
		c0-2.34,2.08-3.621,5.821-3.601v-0.2c0-0.8-0.22-2.241-2.2-2.241c-0.9,0-1.841,0.28-2.521,0.72l-0.4-1.16
		c0.8-0.52,1.96-0.86,3.181-0.86c2.961,0,3.681,2.021,3.681,3.961v3.621c0,0.84,0.04,1.66,0.16,2.32H332.002z M331.742,162.495
		c-1.921-0.04-4.101,0.3-4.101,2.18c0,1.141,0.76,1.681,1.66,1.681c1.26,0,2.061-0.8,2.34-1.621c0.061-0.18,0.101-0.38,0.101-0.56
		V162.495z"/>
	<path d="M348.883,153.232v11.703c0,0.86,0.02,1.84,0.08,2.5h-1.581l-0.079-1.68h-0.04c-0.54,1.08-1.721,1.9-3.301,1.9
		c-2.341,0-4.142-1.98-4.142-4.921c-0.02-3.221,1.98-5.201,4.342-5.201c1.479,0,2.48,0.7,2.92,1.48h0.04v-5.781H348.883z
		 M347.122,161.694c0-0.22-0.02-0.52-0.08-0.74c-0.26-1.12-1.22-2.041-2.54-2.041c-1.82,0-2.9,1.601-2.9,3.741
		c0,1.96,0.96,3.581,2.86,3.581c1.18,0,2.261-0.78,2.58-2.101c0.061-0.24,0.08-0.48,0.08-0.76V161.694z"/>
	<path d="M352.781,162.915c0.04,2.38,1.561,3.361,3.321,3.361c1.26,0,2.02-0.22,2.68-0.5l0.301,1.26c-0.62,0.28-1.681,0.6-3.221,0.6
		c-2.98,0-4.762-1.96-4.762-4.881c0-2.92,1.721-5.221,4.541-5.221c3.161,0,4.001,2.781,4.001,4.561c0,0.36-0.04,0.64-0.06,0.82
		H352.781z M357.942,161.654c0.021-1.12-0.46-2.861-2.44-2.861c-1.78,0-2.561,1.641-2.7,2.861H357.942z"/>
	<path d="M107.996,186.514c0,3.581-2.48,5.141-4.82,5.141c-2.621,0-4.642-1.92-4.642-4.98c0-3.241,2.121-5.142,4.801-5.142
		C106.116,181.533,107.996,183.553,107.996,186.514z M100.314,186.614c0,2.121,1.221,3.721,2.94,3.721
		c1.681,0,2.941-1.58,2.941-3.761c0-1.64-0.82-3.721-2.901-3.721C101.215,182.853,100.314,184.774,100.314,186.614z"/>
	<path d="M110.135,191.435c0.04-0.66,0.08-1.641,0.08-2.501v-11.702h1.74v6.081h0.04c0.62-1.08,1.74-1.78,3.301-1.78
		c2.4,0,4.101,2.001,4.08,4.941c0,3.461-2.18,5.181-4.341,5.181c-1.4,0-2.521-0.54-3.24-1.82h-0.061l-0.08,1.601H110.135z
		 M111.955,187.554c0,0.22,0.04,0.44,0.08,0.641c0.34,1.22,1.36,2.06,2.641,2.06c1.84,0,2.94-1.5,2.94-3.721
		c0-1.94-1-3.601-2.881-3.601c-1.2,0-2.32,0.82-2.681,2.16c-0.04,0.2-0.1,0.44-0.1,0.721V187.554z"/>
	<path d="M119.233,194.236c0.801-0.061,1.501-0.28,1.921-0.74c0.48-0.561,0.66-1.32,0.66-3.641v-8.102h1.761v8.781
		c0,1.881-0.301,3.101-1.161,3.981c-0.779,0.779-2.06,1.1-3,1.1L119.233,194.236z M123.774,179.032
		c0.021,0.58-0.399,1.081-1.1,1.081c-0.66,0-1.08-0.5-1.08-1.081c0-0.62,0.46-1.1,1.12-1.1
		C123.354,177.932,123.774,178.412,123.774,179.032z"/>
	<path d="M127.434,186.915c0.04,2.38,1.561,3.36,3.32,3.36c1.261,0,2.021-0.22,2.681-0.5l0.3,1.26
		c-0.62,0.28-1.68,0.601-3.221,0.601c-2.98,0-4.761-1.961-4.761-4.881c0-2.921,1.721-5.222,4.541-5.222
		c3.161,0,4.001,2.781,4.001,4.562c0,0.359-0.04,0.64-0.06,0.82H127.434z M132.595,185.654c0.02-1.12-0.46-2.86-2.44-2.86
		c-1.78,0-2.561,1.64-2.701,2.86H132.595z"/>
	<path d="M138.594,178.972v2.781h2.521v1.34h-2.521v5.221c0,1.2,0.34,1.881,1.32,1.881c0.46,0,0.8-0.06,1.021-0.12l0.08,1.32
		c-0.341,0.14-0.881,0.24-1.561,0.24c-0.82,0-1.48-0.26-1.9-0.74c-0.5-0.521-0.681-1.381-0.681-2.521v-5.281h-1.5v-1.34h1.5v-2.321
		L138.594,178.972z"/>
	<path d="M145.054,179.032c0.02,0.6-0.421,1.081-1.121,1.081c-0.62,0-1.06-0.48-1.06-1.081c0-0.62,0.46-1.1,1.1-1.1
		C144.634,177.932,145.054,178.412,145.054,179.032z M143.094,191.435v-9.682h1.761v9.682H143.094z"/>
	<path d="M148.454,181.753l1.9,5.44c0.319,0.881,0.58,1.681,0.779,2.48h0.061c0.22-0.8,0.5-1.6,0.82-2.48l1.881-5.44h1.84
		l-3.801,9.682h-1.681l-3.681-9.682H148.454z"/>
	<path d="M165.956,186.514c0,3.581-2.481,5.141-4.821,5.141c-2.621,0-4.642-1.92-4.642-4.98c0-3.241,2.121-5.142,4.802-5.142
		C164.075,181.533,165.956,183.553,165.956,186.514z M158.274,186.614c0,2.121,1.22,3.721,2.94,3.721c1.68,0,2.94-1.58,2.94-3.761
		c0-1.64-0.82-3.721-2.9-3.721C159.174,182.853,158.274,184.774,158.274,186.614z"/>
	<path d="M167.933,189.634c0.52,0.341,1.439,0.7,2.32,0.7c1.28,0,1.88-0.64,1.88-1.44c0-0.84-0.5-1.3-1.8-1.78
		c-1.74-0.62-2.561-1.58-2.561-2.74c0-1.561,1.26-2.841,3.341-2.841c0.979,0,1.84,0.28,2.38,0.601l-0.439,1.28
		c-0.381-0.24-1.081-0.561-1.98-0.561c-1.041,0-1.621,0.601-1.621,1.32c0,0.801,0.58,1.16,1.841,1.641
		c1.681,0.64,2.54,1.48,2.54,2.921c0,1.7-1.32,2.9-3.62,2.9c-1.061,0-2.041-0.26-2.721-0.66L167.933,189.634z"/>
	<path d="M174.613,192.235l5.581-14.503h1.36l-5.602,14.503H174.613z"/>
	<path d="M182.952,184.774c0-1.141-0.02-2.121-0.08-3.021h1.541l0.06,1.9h0.08c0.44-1.301,1.5-2.121,2.681-2.121
		c0.2,0,0.34,0.02,0.5,0.06v1.661c-0.18-0.04-0.36-0.061-0.6-0.061c-1.24,0-2.121,0.94-2.361,2.261c-0.04,0.24-0.08,0.521-0.08,0.82
		v5.161h-1.74V184.774z"/>
	<path d="M190.273,186.915c0.04,2.38,1.561,3.36,3.321,3.36c1.26,0,2.02-0.22,2.68-0.5l0.301,1.26
		c-0.62,0.28-1.681,0.601-3.221,0.601c-2.98,0-4.762-1.961-4.762-4.881c0-2.921,1.721-5.222,4.541-5.222
		c3.161,0,4.001,2.781,4.001,4.562c0,0.359-0.04,0.64-0.06,0.82H190.273z M195.434,185.654c0.021-1.12-0.46-2.86-2.44-2.86
		c-1.78,0-2.561,1.64-2.7,2.86H195.434z"/>
	<path d="M205.914,189.935h-0.04c-0.52,0.96-1.601,1.72-3.16,1.72c-2.261,0-4.102-1.96-4.102-4.9c0-3.621,2.341-5.222,4.381-5.222
		c1.501,0,2.501,0.74,2.981,1.681h0.04l0.06-1.46h1.66c-0.04,0.819-0.06,1.66-0.06,2.66v10.982h-1.761V189.935z M205.914,185.674
		c0-0.24-0.02-0.521-0.08-0.74c-0.26-1.081-1.2-2.001-2.521-2.001c-1.82,0-2.92,1.54-2.92,3.721c0,1.921,0.92,3.601,2.86,3.601
		c1.14,0,2.12-0.7,2.521-1.92c0.08-0.24,0.14-0.58,0.14-0.84V185.674z"/>
	<path d="M218.675,188.794c0,1,0.02,1.881,0.079,2.641h-1.56l-0.101-1.58h-0.04c-0.46,0.78-1.48,1.8-3.2,1.8
		c-1.521,0-3.341-0.84-3.341-4.24v-5.661h1.761v5.36c0,1.841,0.56,3.081,2.16,3.081c1.18,0,2-0.82,2.32-1.601
		c0.1-0.26,0.16-0.58,0.16-0.9v-5.94h1.761V188.794z"/>
	<path d="M223.552,179.032c0.02,0.6-0.42,1.081-1.12,1.081c-0.62,0-1.061-0.48-1.061-1.081c0-0.62,0.46-1.1,1.101-1.1
		C223.133,177.932,223.552,178.412,223.552,179.032z M221.592,191.435v-9.682h1.761v9.682H221.592z"/>
	<path d="M226.032,189.634c0.52,0.341,1.439,0.7,2.32,0.7c1.28,0,1.88-0.64,1.88-1.44c0-0.84-0.5-1.3-1.8-1.78
		c-1.74-0.62-2.561-1.58-2.561-2.74c0-1.561,1.26-2.841,3.341-2.841c0.979,0,1.84,0.28,2.38,0.601l-0.439,1.28
		c-0.381-0.24-1.081-0.561-1.98-0.561c-1.041,0-1.621,0.601-1.621,1.32c0,0.801,0.58,1.16,1.841,1.641
		c1.681,0.64,2.54,1.48,2.54,2.921c0,1.7-1.32,2.9-3.62,2.9c-1.061,0-2.041-0.26-2.721-0.66L226.032,189.634z"/>
	<path d="M236.152,179.032c0.02,0.6-0.42,1.081-1.12,1.081c-0.62,0-1.061-0.48-1.061-1.081c0-0.62,0.46-1.1,1.101-1.1
		C235.732,177.932,236.152,178.412,236.152,179.032z M234.191,191.435v-9.682h1.761v9.682H234.191z"/>
	<path d="M240.992,178.972v2.781h2.521v1.34h-2.521v5.221c0,1.2,0.34,1.881,1.32,1.881c0.46,0,0.8-0.06,1.02-0.12l0.08,1.32
		c-0.34,0.14-0.88,0.24-1.56,0.24c-0.82,0-1.48-0.26-1.9-0.74c-0.501-0.521-0.681-1.381-0.681-2.521v-5.281h-1.5v-1.34h1.5v-2.321
		L240.992,178.972z"/>
	<path d="M254.134,186.514c0,3.581-2.481,5.141-4.821,5.141c-2.621,0-4.642-1.92-4.642-4.98c0-3.241,2.121-5.142,4.802-5.142
		C252.253,181.533,254.134,183.553,254.134,186.514z M246.452,186.614c0,2.121,1.22,3.721,2.94,3.721c1.68,0,2.94-1.58,2.94-3.761
		c0-1.64-0.82-3.721-2.9-3.721C247.351,182.853,246.452,184.774,246.452,186.614z"/>
	<path d="M256.111,189.634c0.52,0.341,1.439,0.7,2.32,0.7c1.28,0,1.88-0.64,1.88-1.44c0-0.84-0.5-1.3-1.8-1.78
		c-1.74-0.62-2.561-1.58-2.561-2.74c0-1.561,1.26-2.841,3.341-2.841c0.979,0,1.84,0.28,2.38,0.601l-0.439,1.28
		c-0.381-0.24-1.081-0.561-1.98-0.561c-1.041,0-1.621,0.601-1.621,1.32c0,0.801,0.58,1.16,1.841,1.641
		c1.681,0.64,2.54,1.48,2.54,2.921c0,1.7-1.32,2.9-3.62,2.9c-1.061,0-2.041-0.26-2.721-0.66L256.111,189.634z"/>
	<path d="M268.51,184.914c0-1.24-0.04-2.24-0.08-3.16h1.581l0.08,1.66h0.04c0.72-1.181,1.86-1.881,3.44-1.881
		c2.341,0,4.101,1.98,4.101,4.921c0,3.481-2.12,5.201-4.4,5.201c-1.28,0-2.4-0.56-2.981-1.52h-0.04v5.261h-1.74V184.914z
		 M270.251,187.495c0,0.26,0.04,0.5,0.08,0.72c0.32,1.221,1.381,2.061,2.641,2.061c1.86,0,2.941-1.521,2.941-3.741
		c0-1.94-1.021-3.601-2.881-3.601c-1.2,0-2.32,0.86-2.661,2.181c-0.06,0.22-0.12,0.48-0.12,0.72V187.495z"/>
	<path d="M279.89,184.774c0-1.141-0.02-2.121-0.08-3.021h1.541l0.06,1.9h0.08c0.44-1.301,1.5-2.121,2.681-2.121
		c0.2,0,0.34,0.02,0.5,0.06v1.661c-0.18-0.04-0.36-0.061-0.6-0.061c-1.24,0-2.121,0.94-2.361,2.261
		c-0.04,0.24-0.079,0.521-0.079,0.82v5.161h-1.741V184.774z"/>
	<path d="M288.471,179.032c0.02,0.6-0.42,1.081-1.12,1.081c-0.62,0-1.061-0.48-1.061-1.081c0-0.62,0.46-1.1,1.101-1.1
		C288.052,177.932,288.471,178.412,288.471,179.032z M286.51,191.435v-9.682h1.761v9.682H286.51z"/>
	<path d="M299.953,186.514c0,3.581-2.481,5.141-4.821,5.141c-2.621,0-4.642-1.92-4.642-4.98c0-3.241,2.121-5.142,4.802-5.142
		C298.072,181.533,299.953,183.553,299.953,186.514z M292.271,186.614c0,2.121,1.22,3.721,2.94,3.721c1.68,0,2.94-1.58,2.94-3.761
		c0-1.64-0.82-3.721-2.9-3.721C293.171,182.853,292.271,184.774,292.271,186.614z"/>
	<path d="M302.17,184.774c0-1.141-0.02-2.121-0.08-3.021h1.541l0.06,1.9h0.08c0.44-1.301,1.5-2.121,2.681-2.121
		c0.2,0,0.34,0.02,0.5,0.06v1.661c-0.18-0.04-0.36-0.061-0.6-0.061c-1.24,0-2.121,0.94-2.361,2.261
		c-0.04,0.24-0.079,0.521-0.079,0.82v5.161h-1.741V184.774z"/>
	<path d="M310.751,179.032c0.02,0.6-0.42,1.081-1.12,1.081c-0.62,0-1.061-0.48-1.061-1.081c0-0.62,0.46-1.1,1.101-1.1
		C310.331,177.932,310.751,178.412,310.751,179.032z M308.79,191.435v-9.682h1.761v9.682H308.79z"/>
	<path d="M312.37,190.415l4.381-5.701c0.42-0.52,0.82-0.979,1.26-1.5v-0.04h-5.241v-1.42h7.382l-0.02,1.1l-4.321,5.621
		c-0.4,0.54-0.8,1.021-1.24,1.521v0.04h5.661v1.4h-7.861V190.415z"/>
	<path d="M327.39,191.435l-0.14-1.221h-0.061c-0.54,0.761-1.58,1.44-2.96,1.44c-1.961,0-2.961-1.38-2.961-2.78
		c0-2.341,2.08-3.621,5.821-3.601v-0.2c0-0.8-0.22-2.24-2.2-2.24c-0.9,0-1.841,0.28-2.521,0.72l-0.4-1.16
		c0.8-0.521,1.96-0.86,3.181-0.86c2.961,0,3.681,2.021,3.681,3.961v3.621c0,0.84,0.04,1.66,0.16,2.32H327.39z M327.131,186.494
		c-1.921-0.04-4.101,0.301-4.101,2.181c0,1.141,0.76,1.681,1.66,1.681c1.26,0,2.061-0.801,2.34-1.62
		c0.061-0.181,0.101-0.381,0.101-0.561V186.494z"/>
	<path d="M340.031,177.232v11.702c0,0.86,0.02,1.841,0.08,2.501h-1.581l-0.079-1.681h-0.04c-0.54,1.08-1.721,1.9-3.301,1.9
		c-2.341,0-4.142-1.98-4.142-4.921c-0.02-3.221,1.98-5.201,4.342-5.201c1.479,0,2.48,0.7,2.92,1.48h0.04v-5.781H340.031z
		 M338.27,185.694c0-0.22-0.02-0.521-0.08-0.74c-0.26-1.12-1.22-2.04-2.54-2.04c-1.82,0-2.9,1.6-2.9,3.74
		c0,1.961,0.96,3.581,2.86,3.581c1.18,0,2.261-0.78,2.58-2.101c0.061-0.24,0.08-0.48,0.08-0.76V185.694z"/>
	<path d="M348.31,191.435l-0.14-1.221h-0.061c-0.54,0.761-1.58,1.44-2.96,1.44c-1.961,0-2.961-1.38-2.961-2.78
		c0-2.341,2.08-3.621,5.821-3.601v-0.2c0-0.8-0.22-2.24-2.2-2.24c-0.9,0-1.841,0.28-2.521,0.72l-0.4-1.16
		c0.8-0.521,1.96-0.86,3.181-0.86c2.961,0,3.681,2.021,3.681,3.961v3.621c0,0.84,0.04,1.66,0.16,2.32H348.31z M348.051,186.494
		c-1.921-0.04-4.101,0.301-4.101,2.181c0,1.141,0.76,1.681,1.66,1.681c1.26,0,2.061-0.801,2.34-1.62
		c0.061-0.181,0.101-0.381,0.101-0.561V186.494z"/>
	<path d="M365.191,177.232v11.702c0,0.86,0.02,1.841,0.08,2.501h-1.581l-0.079-1.681h-0.04c-0.54,1.08-1.721,1.9-3.301,1.9
		c-2.341,0-4.142-1.98-4.142-4.921c-0.02-3.221,1.98-5.201,4.342-5.201c1.479,0,2.48,0.7,2.92,1.48h0.04v-5.781H365.191z
		 M363.43,185.694c0-0.22-0.02-0.521-0.08-0.74c-0.26-1.12-1.22-2.04-2.54-2.04c-1.82,0-2.9,1.6-2.9,3.74
		c0,1.961,0.96,3.581,2.86,3.581c1.18,0,2.261-0.78,2.58-2.101c0.061-0.24,0.08-0.48,0.08-0.76V185.694z"/>
	<path d="M369.09,186.915c0.04,2.38,1.561,3.36,3.321,3.36c1.26,0,2.02-0.22,2.68-0.5l0.301,1.26
		c-0.62,0.28-1.681,0.601-3.221,0.601c-2.98,0-4.762-1.961-4.762-4.881c0-2.921,1.721-5.222,4.541-5.222
		c3.161,0,4.001,2.781,4.001,4.562c0,0.359-0.04,0.64-0.06,0.82H369.09z M374.251,185.654c0.021-1.12-0.46-2.86-2.44-2.86
		c-1.78,0-2.561,1.64-2.7,2.86H374.251z"/>
	<path d="M378.129,177.232h1.761v14.203h-1.761V177.232z"/>
	<path d="M95.374,208.914c0-1.24-0.04-2.24-0.08-3.16h1.58l0.08,1.66h0.04c0.721-1.181,1.86-1.881,3.441-1.881
		c2.34,0,4.101,1.98,4.101,4.921c0,3.481-2.12,5.201-4.401,5.201c-1.28,0-2.4-0.56-2.98-1.52h-0.04v5.261h-1.74V208.914z
		 M97.114,211.495c0,0.26,0.04,0.5,0.08,0.72c0.32,1.221,1.381,2.061,2.641,2.061c1.86,0,2.94-1.521,2.94-3.741
		c0-1.94-1.02-3.601-2.88-3.601c-1.2,0-2.321,0.86-2.661,2.181c-0.06,0.22-0.12,0.48-0.12,0.72V211.495z"/>
	<path d="M106.754,208.774c0-1.141-0.02-2.121-0.08-3.021h1.54l0.061,1.9h0.08c0.44-1.301,1.5-2.121,2.681-2.121
		c0.2,0,0.34,0.021,0.5,0.061v1.66c-0.18-0.04-0.36-0.061-0.601-0.061c-1.24,0-2.12,0.94-2.36,2.261
		c-0.04,0.24-0.08,0.521-0.08,0.82v5.161h-1.74V208.774z"/>
	<path d="M121.856,210.514c0,3.581-2.48,5.141-4.821,5.141c-2.62,0-4.641-1.92-4.641-4.98c0-3.241,2.12-5.142,4.801-5.142
		C119.975,205.533,121.856,207.553,121.856,210.514z M114.175,210.614c0,2.121,1.22,3.721,2.94,3.721c1.681,0,2.94-1.58,2.94-3.761
		c0-1.64-0.82-3.721-2.9-3.721S114.175,208.774,114.175,210.614z"/>
	<path d="M132.436,201.232v11.702c0,0.86,0.02,1.841,0.08,2.501h-1.581l-0.08-1.681h-0.04c-0.54,1.08-1.72,1.9-3.301,1.9
		c-2.34,0-4.141-1.98-4.141-4.921c-0.02-3.221,1.98-5.201,4.341-5.201c1.48,0,2.48,0.7,2.921,1.48h0.04v-5.781H132.436z
		 M130.676,209.694c0-0.22-0.021-0.521-0.08-0.74c-0.26-1.12-1.221-2.04-2.54-2.04c-1.821,0-2.901,1.6-2.901,3.74
		c0,1.961,0.961,3.581,2.861,3.581c1.18,0,2.26-0.78,2.58-2.101c0.06-0.24,0.08-0.48,0.08-0.76V209.694z"/>
	<path d="M143.456,212.794c0,1,0.02,1.881,0.08,2.641h-1.561l-0.1-1.58h-0.04c-0.461,0.78-1.48,1.8-3.201,1.8
		c-1.521,0-3.341-0.84-3.341-4.24v-5.661h1.761v5.36c0,1.841,0.56,3.081,2.16,3.081c1.181,0,2.001-0.82,2.32-1.601
		c0.101-0.26,0.16-0.58,0.16-0.9v-5.94h1.761V212.794z"/>
	<path d="M153.275,215.075c-0.46,0.24-1.48,0.561-2.78,0.561c-2.921,0-4.821-1.98-4.821-4.941c0-2.98,2.041-5.141,5.201-5.141
		c1.04,0,1.961,0.26,2.44,0.5l-0.399,1.36c-0.421-0.24-1.081-0.46-2.041-0.46c-2.221,0-3.421,1.64-3.421,3.66
		c0,2.241,1.44,3.621,3.361,3.621c1,0,1.66-0.26,2.16-0.48L153.275,215.075z"/>
	<path d="M157.714,202.972v2.781h2.521v1.34h-2.521v5.221c0,1.2,0.34,1.881,1.32,1.881c0.46,0,0.8-0.06,1.02-0.12l0.08,1.32
		c-0.34,0.14-0.88,0.24-1.56,0.24c-0.82,0-1.48-0.26-1.9-0.74c-0.501-0.521-0.681-1.381-0.681-2.521v-5.281h-1.5v-1.34h1.5v-2.321
		L157.714,202.972z"/>
	<path d="M170.855,210.514c0,3.581-2.481,5.141-4.821,5.141c-2.621,0-4.642-1.92-4.642-4.98c0-3.241,2.121-5.142,4.802-5.142
		C168.974,205.533,170.855,207.553,170.855,210.514z M163.174,210.614c0,2.121,1.22,3.721,2.94,3.721c1.68,0,2.94-1.58,2.94-3.761
		c0-1.64-0.82-3.721-2.9-3.721C164.073,206.853,163.174,208.774,163.174,210.614z"/>
	<path d="M171.453,217.896c0.439-1.181,0.979-3.321,1.2-4.781l1.96-0.2c-0.46,1.7-1.34,3.921-1.9,4.861L171.453,217.896z"/>
	<path d="M187.574,213.935h-0.04c-0.52,0.96-1.601,1.72-3.16,1.72c-2.261,0-4.102-1.96-4.102-4.9c0-3.621,2.341-5.222,4.381-5.222
		c1.501,0,2.501,0.74,2.981,1.681h0.04l0.06-1.46h1.66c-0.04,0.819-0.06,1.66-0.06,2.66v10.982h-1.761V213.935z M187.574,209.674
		c0-0.24-0.02-0.521-0.08-0.74c-0.26-1.081-1.2-2.001-2.521-2.001c-1.82,0-2.92,1.54-2.92,3.721c0,1.921,0.92,3.601,2.86,3.601
		c1.14,0,2.12-0.7,2.521-1.92c0.08-0.24,0.14-0.58,0.14-0.84V209.674z"/>
	<path d="M200.335,212.794c0,1,0.02,1.881,0.079,2.641h-1.56l-0.101-1.58h-0.04c-0.46,0.78-1.48,1.8-3.2,1.8
		c-1.521,0-3.341-0.84-3.341-4.24v-5.661h1.761v5.36c0,1.841,0.56,3.081,2.16,3.081c1.18,0,2-0.82,2.32-1.601
		c0.1-0.26,0.16-0.58,0.16-0.9v-5.94h1.761V212.794z"/>
	<path d="M204.232,210.915c0.04,2.38,1.561,3.36,3.321,3.36c1.26,0,2.02-0.22,2.68-0.5l0.301,1.26
		c-0.62,0.28-1.681,0.601-3.221,0.601c-2.98,0-4.762-1.961-4.762-4.881c0-2.921,1.721-5.222,4.541-5.222
		c3.161,0,4.001,2.781,4.001,4.562c0,0.359-0.04,0.64-0.06,0.82H204.232z M209.393,209.654c0.021-1.12-0.46-2.86-2.44-2.86
		c-1.78,0-2.561,1.64-2.7,2.86H209.393z"/>
	<path d="M222.873,215.435l-0.14-1.221h-0.061c-0.54,0.761-1.58,1.44-2.96,1.44c-1.961,0-2.961-1.38-2.961-2.78
		c0-2.341,2.08-3.621,5.821-3.601v-0.2c0-0.8-0.22-2.24-2.2-2.24c-0.9,0-1.841,0.28-2.521,0.72l-0.4-1.16
		c0.8-0.521,1.96-0.86,3.181-0.86c2.961,0,3.681,2.021,3.681,3.961v3.621c0,0.84,0.04,1.66,0.16,2.32H222.873z M222.613,210.494
		c-1.921-0.04-4.101,0.301-4.101,2.181c0,1.141,0.76,1.681,1.66,1.681c1.26,0,2.061-0.801,2.34-1.62
		c0.061-0.181,0.101-0.381,0.101-0.561V210.494z"/>
	<path d="M234.052,215.075c-0.46,0.24-1.479,0.561-2.78,0.561c-2.921,0-4.821-1.98-4.821-4.941c0-2.98,2.041-5.141,5.201-5.141
		c1.041,0,1.961,0.26,2.44,0.5l-0.399,1.36c-0.42-0.24-1.08-0.46-2.041-0.46c-2.22,0-3.42,1.64-3.42,3.66
		c0,2.241,1.439,3.621,3.36,3.621c1,0,1.66-0.26,2.16-0.48L234.052,215.075z"/>
	<path d="M238.492,202.972v2.781h2.521v1.34h-2.521v5.221c0,1.2,0.34,1.881,1.32,1.881c0.46,0,0.8-0.06,1.02-0.12l0.08,1.32
		c-0.34,0.14-0.88,0.24-1.56,0.24c-0.82,0-1.48-0.26-1.9-0.74c-0.501-0.521-0.681-1.381-0.681-2.521v-5.281h-1.5v-1.34h1.5v-2.321
		L238.492,202.972z"/>
	<path d="M251.094,212.794c0,1,0.02,1.881,0.079,2.641h-1.56l-0.101-1.58h-0.04c-0.46,0.78-1.48,1.8-3.2,1.8
		c-1.521,0-3.341-0.84-3.341-4.24v-5.661h1.761v5.36c0,1.841,0.56,3.081,2.16,3.081c1.18,0,2-0.82,2.32-1.601
		c0.1-0.26,0.16-0.58,0.16-0.9v-5.94h1.761V212.794z M249.892,201.572l-2.44,2.861h-1.26l1.76-2.861H249.892z"/>
	<path d="M259.372,215.435l-0.14-1.221h-0.061c-0.54,0.761-1.58,1.44-2.96,1.44c-1.961,0-2.961-1.38-2.961-2.78
		c0-2.341,2.08-3.621,5.821-3.601v-0.2c0-0.8-0.22-2.24-2.2-2.24c-0.9,0-1.841,0.28-2.521,0.72l-0.4-1.16
		c0.8-0.521,1.96-0.86,3.181-0.86c2.961,0,3.681,2.021,3.681,3.961v3.621c0,0.84,0.04,1.66,0.16,2.32H259.372z M259.112,210.494
		c-1.921-0.04-4.101,0.301-4.101,2.181c0,1.141,0.76,1.681,1.66,1.681c1.26,0,2.061-0.801,2.34-1.62
		c0.061-0.181,0.101-0.381,0.101-0.561V210.494z"/>
	<path d="M274.792,215.075c-0.46,0.24-1.479,0.561-2.78,0.561c-2.921,0-4.821-1.98-4.821-4.941c0-2.98,2.041-5.141,5.201-5.141
		c1.041,0,1.961,0.26,2.44,0.5l-0.399,1.36c-0.42-0.24-1.08-0.46-2.041-0.46c-2.22,0-3.42,1.64-3.42,3.66
		c0,2.241,1.439,3.621,3.36,3.621c1,0,1.66-0.26,2.16-0.48L274.792,215.075z"/>
	<path d="M285.493,210.514c0,3.581-2.481,5.141-4.821,5.141c-2.621,0-4.642-1.92-4.642-4.98c0-3.241,2.121-5.142,4.802-5.142
		C283.612,205.533,285.493,207.553,285.493,210.514z M277.811,210.614c0,2.121,1.22,3.721,2.94,3.721c1.68,0,2.94-1.58,2.94-3.761
		c0-1.64-0.82-3.721-2.9-3.721C278.711,206.853,277.811,208.774,277.811,210.614z"/>
	<path d="M287.71,208.374c0-1-0.02-1.82-0.08-2.62h1.541l0.08,1.56h0.06c0.54-0.92,1.44-1.78,3.041-1.78
		c1.32,0,2.32,0.801,2.74,1.94h0.04c0.3-0.54,0.681-0.96,1.08-1.26c0.58-0.44,1.221-0.681,2.141-0.681
		c1.28,0,3.181,0.841,3.181,4.201v5.701h-1.721v-5.481c0-1.86-0.68-2.98-2.1-2.98c-1.001,0-1.781,0.74-2.081,1.601
		c-0.08,0.24-0.14,0.56-0.14,0.88v5.981h-1.721v-5.801c0-1.541-0.68-2.661-2.021-2.661c-1.1,0-1.9,0.88-2.181,1.761
		c-0.1,0.26-0.14,0.56-0.14,0.86v5.841h-1.721V208.374z"/>
	<path d="M313.152,210.514c0,3.581-2.481,5.141-4.821,5.141c-2.621,0-4.642-1.92-4.642-4.98c0-3.241,2.121-5.142,4.802-5.142
		C311.271,205.533,313.152,207.553,313.152,210.514z M305.47,210.614c0,2.121,1.22,3.721,2.94,3.721c1.68,0,2.94-1.58,2.94-3.761
		c0-1.64-0.82-3.721-2.9-3.721C306.37,206.853,305.47,208.774,305.47,210.614z"/>
	<path d="M319.609,208.914c0-1.24-0.04-2.24-0.08-3.16h1.581l0.08,1.66h0.04c0.72-1.181,1.86-1.881,3.44-1.881
		c2.341,0,4.101,1.98,4.101,4.921c0,3.481-2.12,5.201-4.4,5.201c-1.28,0-2.4-0.56-2.981-1.52h-0.039v5.261h-1.741V208.914z
		 M321.35,211.495c0,0.26,0.039,0.5,0.079,0.72c0.32,1.221,1.381,2.061,2.641,2.061c1.86,0,2.941-1.521,2.941-3.741
		c0-1.94-1.021-3.601-2.881-3.601c-1.2,0-2.32,0.86-2.661,2.181c-0.06,0.22-0.119,0.48-0.119,0.72V211.495z"/>
	<path d="M330.989,201.232h1.761v14.203h-1.761V201.232z"/>
	<path d="M341.07,215.435l-0.14-1.221h-0.061c-0.54,0.761-1.58,1.44-2.96,1.44c-1.961,0-2.961-1.38-2.961-2.78
		c0-2.341,2.08-3.621,5.821-3.601v-0.2c0-0.8-0.22-2.24-2.2-2.24c-0.9,0-1.841,0.28-2.521,0.72l-0.4-1.16
		c0.8-0.521,1.96-0.86,3.181-0.86c2.961,0,3.681,2.021,3.681,3.961v3.621c0,0.84,0.04,1.66,0.16,2.32H341.07z M340.81,210.494
		c-1.921-0.04-4.101,0.301-4.101,2.181c0,1.141,0.76,1.681,1.66,1.681c1.26,0,2.061-0.801,2.34-1.62
		c0.061-0.181,0.101-0.381,0.101-0.561V210.494z"/>
	<path d="M345.348,208.374c0-1-0.02-1.82-0.08-2.62h1.561l0.101,1.6h0.04c0.479-0.92,1.6-1.82,3.2-1.82
		c1.341,0,3.421,0.801,3.421,4.121v5.781h-1.761v-5.581c0-1.561-0.58-2.86-2.24-2.86c-1.16,0-2.061,0.819-2.36,1.8
		c-0.08,0.221-0.12,0.521-0.12,0.82v5.821h-1.761V208.374z"/>
	<path d="M369.051,201.232v11.702c0,0.86,0.02,1.841,0.08,2.501h-1.581l-0.079-1.681h-0.04c-0.54,1.08-1.721,1.9-3.301,1.9
		c-2.341,0-4.142-1.98-4.142-4.921c-0.02-3.221,1.98-5.201,4.342-5.201c1.479,0,2.48,0.7,2.92,1.48h0.04v-5.781H369.051z
		 M367.29,209.694c0-0.22-0.02-0.521-0.08-0.74c-0.26-1.12-1.22-2.04-2.54-2.04c-1.82,0-2.9,1.6-2.9,3.74
		c0,1.961,0.96,3.581,2.86,3.581c1.18,0,2.261-0.78,2.58-2.101c0.061-0.24,0.08-0.48,0.08-0.76V209.694z"/>
	<path d="M372.949,210.915c0.04,2.38,1.561,3.36,3.321,3.36c1.26,0,2.02-0.22,2.68-0.5l0.301,1.26
		c-0.62,0.28-1.681,0.601-3.221,0.601c-2.98,0-4.762-1.961-4.762-4.881c0-2.921,1.721-5.222,4.541-5.222
		c3.161,0,4.001,2.781,4.001,4.562c0,0.359-0.04,0.64-0.06,0.82H372.949z M378.11,209.654c0.021-1.12-0.46-2.86-2.44-2.86
		c-1.78,0-2.561,1.64-2.7,2.86H378.11z"/>
	<path d="M381.988,201.232h1.761v14.203h-1.761V201.232z"/>
	<path d="M111.675,232.914c0-1.24-0.04-2.24-0.08-3.16h1.58l0.08,1.66h0.04c0.72-1.181,1.86-1.881,3.44-1.881
		c2.341,0,4.101,1.98,4.101,4.921c0,3.481-2.12,5.201-4.4,5.201c-1.28,0-2.4-0.56-2.98-1.52h-0.04v5.261h-1.74V232.914z
		 M113.415,235.495c0,0.26,0.04,0.5,0.08,0.72c0.319,1.221,1.38,2.061,2.641,2.061c1.86,0,2.94-1.521,2.94-3.741
		c0-1.94-1.021-3.601-2.881-3.601c-1.2,0-2.32,0.86-2.66,2.181c-0.061,0.22-0.12,0.48-0.12,0.72V235.495z"/>
	<path d="M123.054,232.774c0-1.141-0.021-2.121-0.08-3.021h1.54l0.06,1.9h0.08c0.44-1.301,1.501-2.121,2.681-2.121
		c0.2,0,0.341,0.021,0.5,0.061v1.66c-0.18-0.04-0.359-0.061-0.6-0.061c-1.24,0-2.12,0.94-2.36,2.261
		c-0.04,0.24-0.08,0.521-0.08,0.82v5.161h-1.74V232.774z"/>
	<path d="M138.156,234.514c0,3.581-2.48,5.141-4.82,5.141c-2.621,0-4.642-1.92-4.642-4.98c0-3.241,2.121-5.142,4.801-5.142
		C136.276,229.533,138.156,231.553,138.156,234.514z M130.474,234.614c0,2.121,1.221,3.721,2.94,3.721
		c1.681,0,2.941-1.58,2.941-3.761c0-1.64-0.82-3.721-2.901-3.721C131.375,230.853,130.474,232.774,130.474,234.614z"/>
	<path d="M140.875,229.753l2.12,5.721c0.22,0.641,0.46,1.4,0.62,1.98h0.04c0.18-0.58,0.38-1.32,0.62-2.021l1.92-5.681h1.861
		l-2.641,6.901c-1.261,3.32-2.121,5.021-3.321,6.061c-0.86,0.761-1.72,1.061-2.16,1.141l-0.44-1.48c0.44-0.14,1.021-0.42,1.54-0.86
		c0.48-0.38,1.081-1.06,1.48-1.96c0.08-0.18,0.141-0.32,0.141-0.42c0-0.101-0.04-0.24-0.12-0.46l-3.581-8.922H140.875z"/>
	<path d="M150.434,234.915c0.04,2.38,1.561,3.36,3.321,3.36c1.261,0,2.021-0.22,2.681-0.5l0.3,1.26
		c-0.62,0.28-1.681,0.601-3.221,0.601c-2.98,0-4.761-1.961-4.761-4.881c0-2.921,1.72-5.222,4.541-5.222
		c3.16,0,4.001,2.781,4.001,4.562c0,0.359-0.04,0.64-0.061,0.82H150.434z M155.596,233.654c0.02-1.12-0.461-2.86-2.441-2.86
		c-1.78,0-2.561,1.64-2.7,2.86H155.596z"/>
	<path d="M166.376,239.075c-0.46,0.24-1.479,0.561-2.78,0.561c-2.921,0-4.821-1.98-4.821-4.941c0-2.98,2.041-5.141,5.201-5.141
		c1.041,0,1.961,0.26,2.44,0.5l-0.399,1.36c-0.42-0.24-1.08-0.46-2.041-0.46c-2.22,0-3.42,1.64-3.42,3.66
		c0,2.241,1.439,3.621,3.36,3.621c1,0,1.66-0.26,2.16-0.48L166.376,239.075z"/>
	<path d="M170.814,226.972v2.781h2.521v1.34h-2.521v5.221c0,1.2,0.34,1.881,1.32,1.881c0.46,0,0.8-0.06,1.02-0.12l0.08,1.32
		c-0.34,0.14-0.88,0.24-1.56,0.24c-0.82,0-1.48-0.26-1.9-0.74c-0.501-0.521-0.681-1.381-0.681-2.521v-5.281h-1.5v-1.34h1.5v-2.321
		L170.814,226.972z"/>
	<path d="M183.957,234.514c0,3.581-2.481,5.141-4.821,5.141c-2.621,0-4.642-1.92-4.642-4.98c0-3.241,2.121-5.142,4.802-5.142
		C182.076,229.533,183.957,231.553,183.957,234.514z M176.275,234.614c0,2.121,1.22,3.721,2.94,3.721c1.68,0,2.94-1.58,2.94-3.761
		c0-1.64-0.82-3.721-2.9-3.721C177.175,230.853,176.275,232.774,176.275,234.614z"/>
	<path d="M185.273,238.395c0-0.74,0.5-1.261,1.2-1.261s1.181,0.521,1.181,1.261c0,0.72-0.46,1.26-1.2,1.26
		C185.754,239.655,185.273,239.115,185.273,238.395z"/>
	<path d="M201.115,233.114h-5.241v4.861h5.841v1.46h-7.581v-13.482h7.281v1.46h-5.541v4.261h5.241V233.114z"/>
	<path d="M203.913,232.374c0-1-0.02-1.82-0.08-2.62h1.561l0.101,1.6h0.04c0.479-0.92,1.6-1.82,3.2-1.82
		c1.341,0,3.421,0.801,3.421,4.121v5.781h-1.761v-5.581c0-1.561-0.58-2.86-2.24-2.86c-1.16,0-2.061,0.819-2.36,1.8
		c-0.08,0.221-0.12,0.521-0.12,0.82v5.821h-1.761V232.374z"/>
	<path d="M220.233,234.915c0.04,2.38,1.561,3.36,3.32,3.36c1.261,0,2.021-0.22,2.681-0.5l0.301,1.26
		c-0.62,0.28-1.681,0.601-3.221,0.601c-2.98,0-4.762-1.961-4.762-4.881c0-2.921,1.721-5.222,4.541-5.222
		c3.161,0,4.001,2.781,4.001,4.562c0,0.359-0.04,0.64-0.06,0.82H220.233z M225.394,233.654c0.021-1.12-0.46-2.86-2.44-2.86
		c-1.78,0-2.561,1.64-2.7,2.86H225.394z"/>
	<path d="M229.033,237.634c0.52,0.341,1.439,0.7,2.32,0.7c1.28,0,1.88-0.64,1.88-1.44c0-0.84-0.5-1.3-1.8-1.78
		c-1.74-0.62-2.561-1.58-2.561-2.74c0-1.561,1.26-2.841,3.341-2.841c0.979,0,1.84,0.28,2.38,0.601l-0.439,1.28
		c-0.381-0.24-1.081-0.561-1.98-0.561c-1.041,0-1.621,0.601-1.621,1.32c0,0.801,0.58,1.16,1.841,1.641
		c1.681,0.64,2.54,1.48,2.54,2.921c0,1.7-1.32,2.9-3.62,2.9c-1.061,0-2.041-0.26-2.721-0.66L229.033,237.634z"/>
	<path d="M239.313,226.972v2.781h2.521v1.34h-2.521v5.221c0,1.2,0.34,1.881,1.32,1.881c0.46,0,0.8-0.06,1.02-0.12l0.08,1.32
		c-0.34,0.14-0.88,0.24-1.56,0.24c-0.82,0-1.48-0.26-1.9-0.74c-0.501-0.521-0.681-1.381-0.681-2.521v-5.281h-1.5v-1.34h1.5v-2.321
		L239.313,226.972z"/>
	<path d="M249.174,239.435l-0.14-1.221h-0.061c-0.54,0.761-1.58,1.44-2.96,1.44c-1.961,0-2.961-1.38-2.961-2.78
		c0-2.341,2.08-3.621,5.821-3.601v-0.2c0-0.8-0.22-2.24-2.2-2.24c-0.9,0-1.841,0.28-2.521,0.72l-0.4-1.16
		c0.8-0.521,1.96-0.86,3.181-0.86c2.961,0,3.681,2.021,3.681,3.961v3.621c0,0.84,0.04,1.66,0.16,2.32H249.174z M248.914,234.494
		c-1.921-0.04-4.101,0.301-4.101,2.181c0,1.141,0.76,1.681,1.66,1.681c1.26,0,2.061-0.801,2.34-1.62
		c0.061-0.181,0.101-0.381,0.101-0.561V234.494z"/>
	<path d="M257.692,225.232h1.761v14.203h-1.761V225.232z"/>
	<path d="M264.373,227.033c0.02,0.6-0.42,1.08-1.12,1.08c-0.62,0-1.061-0.48-1.061-1.08c0-0.62,0.46-1.101,1.101-1.101
		C263.953,225.932,264.373,226.413,264.373,227.033z M262.412,239.435v-9.682h1.761v9.682H262.412z"/>
	<path d="M266.852,237.634c0.52,0.341,1.439,0.7,2.32,0.7c1.28,0,1.88-0.64,1.88-1.44c0-0.84-0.5-1.3-1.8-1.78
		c-1.74-0.62-2.561-1.58-2.561-2.74c0-1.561,1.26-2.841,3.341-2.841c0.979,0,1.84,0.28,2.38,0.601l-0.439,1.28
		c-0.381-0.24-1.081-0.561-1.98-0.561c-1.041,0-1.621,0.601-1.621,1.32c0,0.801,0.58,1.16,1.841,1.641
		c1.681,0.64,2.54,1.48,2.54,2.921c0,1.7-1.32,2.9-3.62,2.9c-1.061,0-2.041-0.26-2.721-0.66L266.852,237.634z"/>
	<path d="M277.133,226.972v2.781h2.521v1.34h-2.521v5.221c0,1.2,0.34,1.881,1.32,1.881c0.46,0,0.8-0.06,1.02-0.12l0.08,1.32
		c-0.34,0.14-0.88,0.24-1.56,0.24c-0.82,0-1.48-0.26-1.9-0.74c-0.501-0.521-0.681-1.381-0.681-2.521v-5.281h-1.5v-1.34h1.5v-2.321
		L277.133,226.972z"/>
	<path d="M286.993,239.435l-0.14-1.221h-0.061c-0.54,0.761-1.58,1.44-2.96,1.44c-1.961,0-2.961-1.38-2.961-2.78
		c0-2.341,2.08-3.621,5.821-3.601v-0.2c0-0.8-0.22-2.24-2.2-2.24c-0.9,0-1.841,0.28-2.521,0.72l-0.4-1.16
		c0.8-0.521,1.96-0.86,3.181-0.86c2.961,0,3.681,2.021,3.681,3.961v3.621c0,0.84,0.04,1.66,0.16,2.32H286.993z M286.733,234.494
		c-1.921-0.04-4.101,0.301-4.101,2.181c0,1.141,0.76,1.681,1.66,1.681c1.26,0,2.061-0.801,2.34-1.62
		c0.061-0.181,0.101-0.381,0.101-0.561V234.494z"/>
	<path d="M296.492,234.915c0.04,2.38,1.561,3.36,3.321,3.36c1.26,0,2.02-0.22,2.68-0.5l0.301,1.26
		c-0.62,0.28-1.681,0.601-3.221,0.601c-2.98,0-4.762-1.961-4.762-4.881c0-2.921,1.721-5.222,4.541-5.222
		c3.161,0,4.001,2.781,4.001,4.562c0,0.359-0.04,0.64-0.06,0.82H296.492z M301.653,233.654c0.021-1.12-0.46-2.86-2.44-2.86
		c-1.78,0-2.561,1.64-2.7,2.86H301.653z"/>
	<path d="M305.531,225.232h1.761v14.203h-1.761V225.232z"/>
	<path d="M321.392,239.075c-0.46,0.24-1.479,0.561-2.78,0.561c-2.921,0-4.821-1.98-4.821-4.941c0-2.98,2.041-5.141,5.201-5.141
		c1.041,0,1.961,0.26,2.44,0.5l-0.399,1.36c-0.42-0.24-1.08-0.46-2.041-0.46c-2.22,0-3.42,1.64-3.42,3.66
		c0,2.241,1.439,3.621,3.36,3.621c1,0,1.66-0.26,2.16-0.48L321.392,239.075z"/>
	<path d="M323.451,225.232h1.761v14.203h-1.761V225.232z"/>
	<path d="M330.132,227.033c0.02,0.6-0.42,1.08-1.12,1.08c-0.62,0-1.061-0.48-1.061-1.08c0-0.62,0.46-1.101,1.101-1.101
		C329.712,225.932,330.132,226.413,330.132,227.033z M328.171,239.435v-9.682h1.761v9.682H328.171z"/>
	<path d="M333.831,234.915c0.04,2.38,1.561,3.36,3.32,3.36c1.261,0,2.021-0.22,2.681-0.5l0.301,1.26
		c-0.62,0.28-1.681,0.601-3.221,0.601c-2.98,0-4.762-1.961-4.762-4.881c0-2.921,1.721-5.222,4.541-5.222
		c3.161,0,4.001,2.781,4.001,4.562c0,0.359-0.04,0.64-0.06,0.82H333.831z M338.992,233.654c0.021-1.12-0.46-2.86-2.44-2.86
		c-1.78,0-2.561,1.64-2.7,2.86H338.992z"/>
	<path d="M342.87,232.374c0-1-0.02-1.82-0.08-2.62h1.561l0.101,1.6h0.04c0.479-0.92,1.6-1.82,3.2-1.82
		c1.341,0,3.421,0.801,3.421,4.121v5.781h-1.761v-5.581c0-1.561-0.58-2.86-2.24-2.86c-1.16,0-2.061,0.819-2.36,1.8
		c-0.08,0.221-0.12,0.521-0.12,0.82v5.821h-1.761V232.374z"/>
	<path d="M356.011,226.972v2.781h2.521v1.34h-2.521v5.221c0,1.2,0.34,1.881,1.32,1.881c0.46,0,0.8-0.06,1.02-0.12l0.08,1.32
		c-0.34,0.14-0.88,0.24-1.56,0.24c-0.82,0-1.48-0.26-1.9-0.74c-0.501-0.521-0.681-1.381-0.681-2.521v-5.281h-1.5v-1.34h1.5v-2.321
		L356.011,226.972z"/>
	<path d="M361.371,234.915c0.04,2.38,1.561,3.36,3.321,3.36c1.26,0,2.02-0.22,2.68-0.5l0.301,1.26
		c-0.62,0.28-1.681,0.601-3.221,0.601c-2.98,0-4.762-1.961-4.762-4.881c0-2.921,1.721-5.222,4.541-5.222
		c3.161,0,4.001,2.781,4.001,4.562c0,0.359-0.04,0.64-0.06,0.82H361.371z M366.532,233.654c0.021-1.12-0.46-2.86-2.44-2.86
		c-1.78,0-2.561,1.64-2.7,2.86H366.532z"/>
	<path d="M98.694,256.913c0-1.24-0.04-2.24-0.08-3.16h1.58l0.08,1.66h0.04c0.721-1.18,1.86-1.88,3.441-1.88
		c2.34,0,4.101,1.98,4.101,4.92c0,3.481-2.12,5.201-4.401,5.201c-1.28,0-2.4-0.56-2.98-1.52h-0.04v5.261h-1.74V256.913z
		 M100.434,259.494c0,0.26,0.04,0.5,0.08,0.72c0.32,1.221,1.381,2.061,2.641,2.061c1.86,0,2.94-1.521,2.94-3.741
		c0-1.94-1.02-3.601-2.88-3.601c-1.2,0-2.321,0.86-2.661,2.181c-0.06,0.22-0.12,0.48-0.12,0.72V259.494z"/>
	<path d="M110.074,256.773c0-1.141-0.02-2.121-0.08-3.02h1.54l0.061,1.9h0.08c0.44-1.3,1.5-2.121,2.681-2.121
		c0.2,0,0.34,0.021,0.5,0.061v1.66c-0.18-0.04-0.36-0.061-0.601-0.061c-1.24,0-2.12,0.94-2.36,2.261
		c-0.04,0.24-0.08,0.521-0.08,0.82v5.161h-1.74V256.773z"/>
	<path d="M118.655,251.033c0.02,0.6-0.421,1.08-1.121,1.08c-0.62,0-1.06-0.48-1.06-1.08c0-0.62,0.46-1.101,1.1-1.101
		C118.234,249.932,118.655,250.413,118.655,251.033z M116.694,263.435v-9.681h1.761v9.681H116.694z"/>
	<path d="M130.135,258.514c0,3.581-2.48,5.141-4.82,5.141c-2.621,0-4.642-1.92-4.642-4.98c0-3.241,2.121-5.141,4.801-5.141
		C128.256,253.533,130.135,255.553,130.135,258.514z M122.454,258.613c0,2.121,1.221,3.721,2.94,3.721
		c1.681,0,2.941-1.58,2.941-3.761c0-1.64-0.82-3.721-2.901-3.721C123.354,254.853,122.454,256.773,122.454,258.613z"/>
	<path d="M132.354,256.773c0-1.141-0.021-2.121-0.08-3.02h1.54l0.06,1.9h0.08c0.44-1.3,1.501-2.121,2.681-2.121
		c0.2,0,0.341,0.021,0.5,0.061v1.66c-0.18-0.04-0.359-0.061-0.6-0.061c-1.24,0-2.12,0.94-2.36,2.261
		c-0.04,0.24-0.08,0.521-0.08,0.82v5.161h-1.74V256.773z"/>
	<path d="M140.934,251.033c0.02,0.6-0.421,1.08-1.121,1.08c-0.62,0-1.06-0.48-1.06-1.08c0-0.62,0.46-1.101,1.1-1.101
		C140.513,249.932,140.934,250.413,140.934,251.033z M138.973,263.435v-9.681h1.761v9.681H138.973z"/>
	<path d="M142.552,262.414l4.382-5.701c0.42-0.52,0.819-0.979,1.26-1.5v-0.04h-5.241v-1.419h7.382l-0.021,1.099l-4.32,5.621
		c-0.4,0.54-0.801,1.021-1.24,1.521v0.04h5.661v1.4h-7.862V262.414z"/>
	<path d="M157.575,263.435l-0.14-1.221h-0.061c-0.54,0.761-1.58,1.44-2.96,1.44c-1.961,0-2.961-1.38-2.961-2.78
		c0-2.341,2.08-3.621,5.821-3.601v-0.2c0-0.8-0.22-2.24-2.2-2.24c-0.9,0-1.841,0.28-2.521,0.72l-0.399-1.16
		c0.8-0.521,1.96-0.86,3.181-0.86c2.961,0,3.681,2.02,3.681,3.96v3.621c0,0.84,0.04,1.66,0.16,2.32H157.575z M157.315,258.493
		c-1.921-0.04-4.102,0.301-4.102,2.181c0,1.141,0.761,1.681,1.661,1.681c1.26,0,2.061-0.801,2.34-1.62
		c0.061-0.181,0.101-0.381,0.101-0.561V258.493z"/>
	<path d="M166.094,249.232h1.761v14.203h-1.761V249.232z"/>
	<path d="M179.576,258.514c0,3.581-2.481,5.141-4.821,5.141c-2.621,0-4.642-1.92-4.642-4.98c0-3.241,2.121-5.141,4.802-5.141
		C177.695,253.533,179.576,255.553,179.576,258.514z M171.894,258.613c0,2.121,1.22,3.721,2.94,3.721c1.68,0,2.94-1.58,2.94-3.761
		c0-1.64-0.82-3.721-2.9-3.721C172.794,254.853,171.894,256.773,171.894,258.613z"/>
	<path d="M181.553,261.634c0.52,0.341,1.439,0.7,2.32,0.7c1.28,0,1.88-0.64,1.88-1.44c0-0.84-0.5-1.3-1.8-1.78
		c-1.74-0.62-2.561-1.58-2.561-2.74c0-1.561,1.26-2.84,3.341-2.84c0.979,0,1.84,0.28,2.38,0.601l-0.439,1.28
		c-0.381-0.24-1.081-0.561-1.98-0.561c-1.041,0-1.621,0.601-1.621,1.32c0,0.801,0.58,1.16,1.841,1.641
		c1.681,0.64,2.54,1.48,2.54,2.921c0,1.7-1.32,2.9-3.62,2.9c-1.061,0-2.041-0.26-2.721-0.66L181.553,261.634z"/>
	<path d="M202.716,258.514c0,3.581-2.481,5.141-4.821,5.141c-2.621,0-4.642-1.92-4.642-4.98c0-3.241,2.121-5.141,4.802-5.141
		C200.835,253.533,202.716,255.553,202.716,258.514z M195.034,258.613c0,2.121,1.22,3.721,2.94,3.721c1.68,0,2.94-1.58,2.94-3.761
		c0-1.64-0.82-3.721-2.9-3.721C195.933,254.853,195.034,256.773,195.034,258.613z"/>
	<path d="M204.852,263.435c0.04-0.66,0.08-1.641,0.08-2.501v-11.702h1.74v6.081h0.04c0.62-1.08,1.741-1.78,3.301-1.78
		c2.401,0,4.102,2,4.081,4.941c0,3.461-2.181,5.181-4.341,5.181c-1.4,0-2.521-0.54-3.24-1.82h-0.061l-0.08,1.601H204.852z
		 M206.673,259.554c0,0.22,0.04,0.44,0.08,0.641c0.341,1.22,1.36,2.06,2.641,2.06c1.841,0,2.941-1.5,2.941-3.721
		c0-1.94-1.001-3.601-2.881-3.601c-1.2,0-2.32,0.82-2.681,2.16c-0.04,0.2-0.101,0.44-0.101,0.721V259.554z"/>
	<path d="M213.952,266.235c0.801-0.061,1.501-0.28,1.921-0.74c0.479-0.561,0.66-1.32,0.66-3.641v-8.101h1.76v8.781
		c0,1.881-0.3,3.101-1.16,3.981c-0.78,0.779-2.061,1.1-3,1.1L213.952,266.235z M218.493,251.033c0.021,0.58-0.4,1.08-1.1,1.08
		c-0.66,0-1.081-0.5-1.081-1.08c0-0.62,0.46-1.101,1.12-1.101C218.073,249.932,218.493,250.413,218.493,251.033z"/>
	<path d="M222.153,258.914c0.04,2.38,1.561,3.36,3.32,3.36c1.261,0,2.021-0.22,2.681-0.5l0.301,1.26
		c-0.62,0.28-1.681,0.601-3.221,0.601c-2.98,0-4.762-1.961-4.762-4.881c0-2.921,1.721-5.221,4.541-5.221
		c3.161,0,4.001,2.781,4.001,4.561c0,0.359-0.04,0.64-0.06,0.82H222.153z M227.314,257.653c0.021-1.12-0.46-2.86-2.44-2.86
		c-1.78,0-2.561,1.64-2.7,2.86H227.314z"/>
	<path d="M233.313,250.972v2.781h2.521v1.339h-2.521v5.221c0,1.2,0.34,1.881,1.32,1.881c0.46,0,0.8-0.06,1.02-0.12l0.08,1.32
		c-0.34,0.14-0.88,0.24-1.56,0.24c-0.82,0-1.48-0.26-1.9-0.74c-0.501-0.521-0.681-1.381-0.681-2.521v-5.281h-1.5v-1.339h1.5v-2.321
		L233.313,250.972z"/>
	<path d="M239.773,251.033c0.02,0.6-0.42,1.08-1.12,1.08c-0.62,0-1.061-0.48-1.061-1.08c0-0.62,0.46-1.101,1.101-1.101
		C239.353,249.932,239.773,250.413,239.773,251.033z M237.812,263.435v-9.681h1.761v9.681H237.812z"/>
	<path d="M243.173,253.753l1.9,5.44c0.32,0.881,0.58,1.681,0.78,2.48h0.06c0.221-0.8,0.5-1.6,0.82-2.48l1.881-5.44h1.84
		l-3.801,9.681h-1.681l-3.681-9.681H243.173z"/>
	<path d="M260.675,258.514c0,3.581-2.481,5.141-4.821,5.141c-2.621,0-4.642-1.92-4.642-4.98c0-3.241,2.121-5.141,4.802-5.141
		C258.794,253.533,260.675,255.553,260.675,258.514z M252.993,258.613c0,2.121,1.22,3.721,2.94,3.721c1.68,0,2.94-1.58,2.94-3.761
		c0-1.64-0.82-3.721-2.9-3.721C253.892,254.853,252.993,256.773,252.993,258.613z"/>
	<path d="M262.652,261.634c0.52,0.341,1.439,0.7,2.32,0.7c1.28,0,1.88-0.64,1.88-1.44c0-0.84-0.5-1.3-1.8-1.78
		c-1.74-0.62-2.561-1.58-2.561-2.74c0-1.561,1.26-2.84,3.341-2.84c0.979,0,1.84,0.28,2.38,0.601l-0.439,1.28
		c-0.381-0.24-1.081-0.561-1.98-0.561c-1.041,0-1.621,0.601-1.621,1.32c0,0.801,0.58,1.16,1.841,1.641
		c1.681,0.64,2.54,1.48,2.54,2.921c0,1.7-1.32,2.9-3.62,2.9c-1.061,0-2.041-0.26-2.721-0.66L262.652,261.634z"/>
	<path d="M274.971,263.435c0.04-0.66,0.08-1.641,0.08-2.501v-11.702h1.74v6.081h0.04c0.62-1.08,1.741-1.78,3.301-1.78
		c2.401,0,4.102,2,4.081,4.941c0,3.461-2.181,5.181-4.341,5.181c-1.4,0-2.521-0.54-3.24-1.82h-0.061l-0.08,1.601H274.971z
		 M276.792,259.554c0,0.22,0.04,0.44,0.08,0.641c0.341,1.22,1.36,2.06,2.641,2.06c1.841,0,2.941-1.5,2.941-3.721
		c0-1.94-1.001-3.601-2.881-3.601c-1.2,0-2.32,0.82-2.681,2.16c-0.04,0.2-0.101,0.44-0.101,0.721V259.554z"/>
	<path d="M291.793,263.435l-0.14-1.221h-0.061c-0.54,0.761-1.58,1.44-2.96,1.44c-1.961,0-2.961-1.38-2.961-2.78
		c0-2.341,2.08-3.621,5.821-3.601v-0.2c0-0.8-0.22-2.24-2.2-2.24c-0.9,0-1.841,0.28-2.521,0.72l-0.4-1.16
		c0.8-0.521,1.96-0.86,3.181-0.86c2.961,0,3.681,2.02,3.681,3.96v3.621c0,0.84,0.04,1.66,0.16,2.32H291.793z M291.533,258.493
		c-1.921-0.04-4.101,0.301-4.101,2.181c0,1.141,0.76,1.681,1.66,1.681c1.26,0,2.061-0.801,2.34-1.62
		c0.061-0.181,0.101-0.381,0.101-0.561V258.493z"/>
	<path d="M296.071,249.232h1.761v14.203h-1.761V249.232z"/>
	<path d="M306.152,263.435l-0.14-1.221h-0.061c-0.54,0.761-1.58,1.44-2.96,1.44c-1.961,0-2.961-1.38-2.961-2.78
		c0-2.341,2.08-3.621,5.821-3.601v-0.2c0-0.8-0.22-2.24-2.2-2.24c-0.9,0-1.841,0.28-2.521,0.72l-0.4-1.16
		c0.8-0.521,1.96-0.86,3.181-0.86c2.961,0,3.681,2.02,3.681,3.96v3.621c0,0.84,0.04,1.66,0.16,2.32H306.152z M305.892,258.493
		c-1.921-0.04-4.101,0.301-4.101,2.181c0,1.141,0.76,1.681,1.66,1.681c1.26,0,2.061-0.801,2.34-1.62
		c0.061-0.181,0.101-0.381,0.101-0.561V258.493z"/>
	<path d="M310.43,256.373c0-1-0.02-1.82-0.08-2.62h1.561l0.101,1.599h0.04c0.479-0.919,1.6-1.82,3.2-1.82
		c1.341,0,3.421,0.801,3.421,4.121v5.781h-1.761v-5.581c0-1.561-0.58-2.86-2.24-2.86c-1.16,0-2.061,0.819-2.36,1.8
		c-0.08,0.221-0.12,0.521-0.12,0.82v5.821h-1.761V256.373z"/>
	<path d="M328.431,263.074c-0.46,0.24-1.479,0.561-2.78,0.561c-2.921,0-4.821-1.98-4.821-4.941c0-2.98,2.041-5.14,5.201-5.14
		c1.041,0,1.961,0.26,2.44,0.5l-0.399,1.36c-0.42-0.24-1.08-0.46-2.041-0.46c-2.22,0-3.42,1.64-3.42,3.66
		c0,2.241,1.439,3.621,3.36,3.621c1,0,1.66-0.26,2.16-0.48L328.431,263.074z"/>
	<path d="M331.35,258.914c0.04,2.38,1.561,3.36,3.32,3.36c1.261,0,2.021-0.22,2.681-0.5l0.301,1.26
		c-0.62,0.28-1.681,0.601-3.221,0.601c-2.98,0-4.762-1.961-4.762-4.881c0-2.921,1.721-5.221,4.541-5.221
		c3.161,0,4.001,2.781,4.001,4.561c0,0.359-0.04,0.64-0.06,0.82H331.35z M336.511,257.653c0.021-1.12-0.46-2.86-2.44-2.86
		c-1.78,0-2.561,1.64-2.7,2.86H336.511z"/>
	<path d="M345.751,263.435l-0.14-1.221h-0.061c-0.54,0.761-1.58,1.44-2.96,1.44c-1.961,0-2.961-1.38-2.961-2.78
		c0-2.341,2.08-3.621,5.821-3.601v-0.2c0-0.8-0.22-2.24-2.2-2.24c-0.9,0-1.841,0.28-2.521,0.72l-0.4-1.16
		c0.8-0.521,1.96-0.86,3.181-0.86c2.961,0,3.681,2.02,3.681,3.96v3.621c0,0.84,0.04,1.66,0.16,2.32H345.751z M345.491,258.493
		c-1.921-0.04-4.101,0.301-4.101,2.181c0,1.141,0.76,1.681,1.66,1.681c1.26,0,2.061-0.801,2.34-1.62
		c0.061-0.181,0.101-0.381,0.101-0.561V258.493z"/>
	<path d="M350.029,256.373c0-1-0.02-1.82-0.08-2.62h1.561l0.101,1.599h0.04c0.479-0.919,1.6-1.82,3.2-1.82
		c1.341,0,3.421,0.801,3.421,4.121v5.781h-1.761v-5.581c0-1.561-0.58-2.86-2.24-2.86c-1.16,0-2.061,0.819-2.36,1.8
		c-0.08,0.221-0.12,0.521-0.12,0.82v5.821h-1.761V256.373z"/>
	<path d="M369.491,249.232v11.702c0,0.86,0.02,1.841,0.08,2.501h-1.58l-0.08-1.681h-0.04c-0.54,1.08-1.721,1.9-3.301,1.9
		c-2.341,0-4.142-1.98-4.142-4.921c-0.02-3.221,1.98-5.201,4.342-5.201c1.479,0,2.48,0.7,2.92,1.48h0.04v-5.781H369.491z
		 M367.73,257.693c0-0.22-0.02-0.521-0.08-0.74c-0.26-1.12-1.22-2.04-2.54-2.04c-1.82,0-2.9,1.6-2.9,3.74
		c0,1.961,0.96,3.581,2.86,3.581c1.18,0,2.261-0.78,2.58-2.101c0.061-0.24,0.08-0.48,0.08-0.76V257.693z"/>
	<path d="M381.172,258.514c0,3.581-2.481,5.141-4.821,5.141c-2.621,0-4.642-1.92-4.642-4.98c0-3.241,2.121-5.141,4.802-5.141
		C379.291,253.533,381.172,255.553,381.172,258.514z M373.49,258.613c0,2.121,1.22,3.721,2.94,3.721c1.68,0,2.94-1.58,2.94-3.761
		c0-1.64-0.82-3.721-2.9-3.721C374.389,254.853,373.49,256.773,373.49,258.613z"/>
	<path d="M103.505,282.914c0.04,2.38,1.561,3.36,3.32,3.36c1.261,0,2.021-0.22,2.681-0.5l0.3,1.26
		c-0.62,0.28-1.68,0.601-3.221,0.601c-2.98,0-4.761-1.961-4.761-4.881c0-2.921,1.721-5.222,4.541-5.222
		c3.161,0,4.001,2.781,4.001,4.562c0,0.359-0.04,0.64-0.06,0.82H103.505z M108.666,281.653c0.02-1.12-0.46-2.86-2.44-2.86
		c-1.78,0-2.561,1.64-2.701,2.86H108.666z"/>
	<path d="M112.545,273.231h1.76v14.203h-1.76V273.231z"/>
	<path d="M122.184,277.753l1.9,5.44c0.319,0.881,0.58,1.681,0.779,2.48h0.061c0.22-0.8,0.5-1.6,0.82-2.48l1.88-5.44h1.841
		l-3.801,9.682h-1.681l-3.681-9.682H122.184z"/>
	<path d="M136.404,287.435l-0.14-1.221h-0.06c-0.54,0.761-1.581,1.44-2.961,1.44c-1.961,0-2.961-1.38-2.961-2.78
		c0-2.341,2.081-3.621,5.821-3.601v-0.2c0-0.8-0.22-2.24-2.2-2.24c-0.9,0-1.841,0.28-2.521,0.72l-0.4-1.16
		c0.801-0.521,1.961-0.86,3.181-0.86c2.961,0,3.681,2.021,3.681,3.961v3.621c0,0.84,0.04,1.66,0.16,2.32H136.404z M136.144,282.493
		c-1.92-0.04-4.101,0.301-4.101,2.181c0,1.141,0.76,1.681,1.66,1.681c1.261,0,2.061-0.801,2.341-1.62
		c0.06-0.181,0.1-0.381,0.1-0.561V282.493z"/>
	<path d="M140.683,273.231h1.761v14.203h-1.761V273.231z"/>
	<path d="M154.166,282.514c0,3.581-2.481,5.141-4.821,5.141c-2.621,0-4.642-1.92-4.642-4.98c0-3.241,2.121-5.142,4.801-5.142
		C152.285,277.532,154.166,279.553,154.166,282.514z M146.483,282.613c0,2.121,1.221,3.721,2.94,3.721
		c1.681,0,2.941-1.58,2.941-3.761c0-1.64-0.82-3.721-2.901-3.721C147.384,278.853,146.483,280.773,146.483,282.613z"/>
	<path d="M156.383,280.773c0-1.141-0.02-2.121-0.08-3.021h1.541l0.06,1.9h0.08c0.44-1.301,1.5-2.121,2.681-2.121
		c0.2,0,0.34,0.021,0.5,0.061v1.66c-0.18-0.04-0.36-0.061-0.6-0.061c-1.24,0-2.121,0.94-2.361,2.261
		c-0.04,0.24-0.079,0.521-0.079,0.82v5.161h-1.741V280.773z"/>
	<path d="M173.764,285.935h-0.04c-0.52,0.96-1.601,1.72-3.16,1.72c-2.261,0-4.102-1.96-4.102-4.9c0-3.621,2.341-5.222,4.381-5.222
		c1.501,0,2.501,0.74,2.981,1.681h0.04l0.06-1.46h1.66c-0.04,0.819-0.06,1.66-0.06,2.66v10.982h-1.761V285.935z M173.764,281.674
		c0-0.24-0.02-0.521-0.08-0.74c-0.26-1.081-1.2-2.001-2.521-2.001c-1.82,0-2.92,1.54-2.92,3.721c0,1.921,0.92,3.601,2.86,3.601
		c1.14,0,2.12-0.7,2.521-1.92c0.08-0.24,0.14-0.58,0.14-0.84V281.674z"/>
	<path d="M186.525,284.794c0,1,0.02,1.881,0.079,2.641h-1.56l-0.101-1.58h-0.04c-0.46,0.78-1.48,1.8-3.2,1.8
		c-1.521,0-3.341-0.84-3.341-4.24v-5.661h1.761v5.36c0,1.841,0.56,3.081,2.16,3.081c1.18,0,2-0.82,2.32-1.601
		c0.1-0.26,0.16-0.58,0.16-0.9v-5.94h1.761V284.794z"/>
	<path d="M190.423,282.914c0.04,2.38,1.561,3.36,3.32,3.36c1.261,0,2.021-0.22,2.681-0.5l0.301,1.26
		c-0.62,0.28-1.681,0.601-3.221,0.601c-2.98,0-4.762-1.961-4.762-4.881c0-2.921,1.721-5.222,4.541-5.222
		c3.161,0,4.001,2.781,4.001,4.562c0,0.359-0.04,0.64-0.06,0.82H190.423z M195.584,281.653c0.021-1.12-0.46-2.86-2.44-2.86
		c-1.78,0-2.561,1.64-2.7,2.86H195.584z"/>
	<path d="M203.702,273.231h1.761v14.203h-1.761V273.231z"/>
	<path d="M209.402,282.914c0.04,2.38,1.561,3.36,3.321,3.36c1.26,0,2.02-0.22,2.68-0.5l0.301,1.26
		c-0.62,0.28-1.681,0.601-3.221,0.601c-2.98,0-4.762-1.961-4.762-4.881c0-2.921,1.721-5.222,4.541-5.222
		c3.161,0,4.001,2.781,4.001,4.562c0,0.359-0.04,0.64-0.06,0.82H209.402z M214.563,281.653c0.021-1.12-0.46-2.86-2.44-2.86
		c-1.78,0-2.561,1.64-2.7,2.86H214.563z"/>
	<path d="M228.043,287.435l-0.14-1.221h-0.061c-0.54,0.761-1.58,1.44-2.96,1.44c-1.961,0-2.961-1.38-2.961-2.78
		c0-2.341,2.08-3.621,5.821-3.601v-0.2c0-0.8-0.22-2.24-2.2-2.24c-0.9,0-1.841,0.28-2.521,0.72l-0.4-1.16
		c0.8-0.521,1.96-0.86,3.181-0.86c2.961,0,3.681,2.021,3.681,3.961v3.621c0,0.84,0.04,1.66,0.16,2.32H228.043z M227.783,282.493
		c-1.921-0.04-4.101,0.301-4.101,2.181c0,1.141,0.76,1.681,1.66,1.681c1.26,0,2.061-0.801,2.34-1.62
		c0.061-0.181,0.101-0.381,0.101-0.561V282.493z"/>
	<path d="M232.321,280.913c0-1.24-0.04-2.24-0.08-3.16h1.581l0.08,1.66h0.04c0.72-1.181,1.86-1.881,3.44-1.881
		c2.341,0,4.101,1.98,4.101,4.921c0,3.481-2.12,5.201-4.4,5.201c-1.28,0-2.4-0.56-2.981-1.52h-0.04v5.261h-1.74V280.913z
		 M234.061,283.494c0,0.26,0.04,0.5,0.08,0.72c0.32,1.221,1.381,2.061,2.641,2.061c1.86,0,2.941-1.521,2.941-3.741
		c0-1.94-1.021-3.601-2.881-3.601c-1.2,0-2.32,0.86-2.661,2.181c-0.06,0.22-0.12,0.48-0.12,0.72V283.494z"/>
	<path d="M252.464,282.514c0,3.581-2.481,5.141-4.821,5.141c-2.621,0-4.642-1.92-4.642-4.98c0-3.241,2.121-5.142,4.802-5.142
		C250.583,277.532,252.464,279.553,252.464,282.514z M244.782,282.613c0,2.121,1.22,3.721,2.94,3.721c1.68,0,2.94-1.58,2.94-3.761
		c0-1.64-0.82-3.721-2.9-3.721C245.681,278.853,244.782,280.773,244.782,282.613z"/>
	<path d="M254.68,280.773c0-1.141-0.02-2.121-0.08-3.021h1.541l0.06,1.9h0.08c0.44-1.301,1.5-2.121,2.681-2.121
		c0.2,0,0.34,0.021,0.5,0.061v1.66c-0.18-0.04-0.36-0.061-0.6-0.061c-1.24,0-2.121,0.94-2.361,2.261
		c-0.04,0.24-0.08,0.521-0.08,0.82v5.161h-1.74V280.773z"/>
	<path d="M263.821,274.972v2.781h2.521v1.34h-2.521v5.221c0,1.2,0.34,1.881,1.32,1.881c0.46,0,0.8-0.06,1.02-0.12l0.08,1.32
		c-0.34,0.14-0.88,0.24-1.56,0.24c-0.82,0-1.48-0.26-1.9-0.74c-0.501-0.521-0.681-1.381-0.681-2.521v-5.281h-1.5v-1.34h1.5v-2.321
		L263.821,274.972z"/>
	<path d="M273.681,287.435l-0.14-1.221h-0.061c-0.54,0.761-1.58,1.44-2.96,1.44c-1.961,0-2.961-1.38-2.961-2.78
		c0-2.341,2.08-3.621,5.821-3.601v-0.2c0-0.8-0.22-2.24-2.2-2.24c-0.9,0-1.841,0.28-2.521,0.72l-0.4-1.16
		c0.8-0.521,1.96-0.86,3.181-0.86c2.961,0,3.681,2.021,3.681,3.961v3.621c0,0.84,0.04,1.66,0.16,2.32H273.681z M273.422,282.493
		c-1.921-0.04-4.101,0.301-4.101,2.181c0,1.141,0.76,1.681,1.66,1.681c1.26,0,2.061-0.801,2.34-1.62
		c0.061-0.181,0.101-0.381,0.101-0.561V282.493z"/>
	<path d="M277.96,280.373c0-1-0.02-1.82-0.08-2.62h1.561l0.101,1.6h0.04c0.479-0.92,1.6-1.82,3.2-1.82
		c1.341,0,3.421,0.801,3.421,4.121v5.781h-1.761v-5.581c0-1.561-0.58-2.86-2.24-2.86c-1.16,0-2.061,0.819-2.36,1.8
		c-0.08,0.221-0.12,0.521-0.12,0.82v5.821h-1.761V280.373z"/>
	<path d="M293.3,280.773c0-1.141-0.02-2.121-0.08-3.021h1.541l0.06,1.9h0.08c0.44-1.301,1.5-2.121,2.681-2.121
		c0.2,0,0.34,0.021,0.5,0.061v1.66c-0.18-0.04-0.36-0.061-0.6-0.061c-1.24,0-2.121,0.94-2.361,2.261
		c-0.04,0.24-0.08,0.521-0.08,0.82v5.161h-1.74V280.773z"/>
	<path d="M300.621,282.914c0.04,2.38,1.561,3.36,3.321,3.36c1.26,0,2.02-0.22,2.68-0.5l0.301,1.26
		c-0.62,0.28-1.681,0.601-3.221,0.601c-2.98,0-4.762-1.961-4.762-4.881c0-2.921,1.721-5.222,4.541-5.222
		c3.161,0,4.001,2.781,4.001,4.562c0,0.359-0.04,0.64-0.06,0.82H300.621z M305.782,281.653c0.021-1.12-0.46-2.86-2.44-2.86
		c-1.78,0-2.561,1.64-2.7,2.86H305.782z"/>
	<path d="M309.421,285.634c0.52,0.341,1.439,0.7,2.32,0.7c1.28,0,1.88-0.64,1.88-1.44c0-0.84-0.5-1.3-1.8-1.78
		c-1.74-0.62-2.561-1.58-2.561-2.74c0-1.561,1.26-2.841,3.341-2.841c0.979,0,1.84,0.28,2.38,0.601l-0.439,1.28
		c-0.381-0.24-1.081-0.561-1.98-0.561c-1.041,0-1.621,0.601-1.621,1.32c0,0.801,0.58,1.16,1.841,1.641
		c1.681,0.64,2.54,1.48,2.54,2.921c0,1.7-1.32,2.9-3.62,2.9c-1.061,0-2.041-0.26-2.721-0.66L309.421,285.634z"/>
	<path d="M317.58,280.913c0-1.24-0.04-2.24-0.08-3.16h1.581l0.08,1.66h0.04c0.72-1.181,1.86-1.881,3.44-1.881
		c2.341,0,4.101,1.98,4.101,4.921c0,3.481-2.12,5.201-4.4,5.201c-1.28,0-2.4-0.56-2.981-1.52h-0.039v5.261h-1.741V280.913z
		 M319.321,283.494c0,0.26,0.039,0.5,0.079,0.72c0.32,1.221,1.381,2.061,2.641,2.061c1.86,0,2.941-1.521,2.941-3.741
		c0-1.94-1.021-3.601-2.881-3.601c-1.2,0-2.32,0.86-2.661,2.181c-0.06,0.22-0.119,0.48-0.119,0.72V283.494z"/>
	<path d="M329.94,282.914c0.04,2.38,1.561,3.36,3.32,3.36c1.261,0,2.021-0.22,2.681-0.5l0.301,1.26
		c-0.62,0.28-1.681,0.601-3.221,0.601c-2.98,0-4.762-1.961-4.762-4.881c0-2.921,1.721-5.222,4.541-5.222
		c3.161,0,4.001,2.781,4.001,4.562c0,0.359-0.04,0.64-0.06,0.82H329.94z M335.101,281.653c0.021-1.12-0.46-2.86-2.44-2.86
		c-1.78,0-2.561,1.64-2.7,2.86H335.101z"/>
	<path d="M345.881,287.074c-0.46,0.24-1.479,0.561-2.78,0.561c-2.921,0-4.821-1.98-4.821-4.941c0-2.98,2.041-5.141,5.201-5.141
		c1.041,0,1.961,0.26,2.44,0.5l-0.399,1.36c-0.42-0.24-1.08-0.46-2.041-0.46c-2.22,0-3.42,1.64-3.42,3.66
		c0,2.241,1.439,3.621,3.36,3.621c1,0,1.66-0.26,2.16-0.48L345.881,287.074z"/>
	<path d="M350.32,274.972v2.781h2.521v1.34h-2.521v5.221c0,1.2,0.34,1.881,1.32,1.881c0.46,0,0.8-0.06,1.02-0.12l0.08,1.32
		c-0.34,0.14-0.88,0.24-1.56,0.24c-0.82,0-1.48-0.26-1.9-0.74c-0.501-0.521-0.681-1.381-0.681-2.521v-5.281h-1.5v-1.34h1.5v-2.321
		L350.32,274.972z"/>
	<path d="M363.462,282.514c0,3.581-2.481,5.141-4.821,5.141c-2.621,0-4.642-1.92-4.642-4.98c0-3.241,2.121-5.142,4.802-5.142
		C361.581,277.532,363.462,279.553,363.462,282.514z M355.78,282.613c0,2.121,1.22,3.721,2.94,3.721c1.68,0,2.94-1.58,2.94-3.761
		c0-1.64-0.82-3.721-2.9-3.721C356.679,278.853,355.78,280.773,355.78,282.613z"/>
	<path d="M375.28,287.435l-0.14-1.221h-0.061c-0.54,0.761-1.58,1.44-2.96,1.44c-1.961,0-2.961-1.38-2.961-2.78
		c0-2.341,2.08-3.621,5.821-3.601v-0.2c0-0.8-0.22-2.24-2.2-2.24c-0.9,0-1.841,0.28-2.521,0.72l-0.4-1.16
		c0.8-0.521,1.96-0.86,3.181-0.86c2.961,0,3.681,2.021,3.681,3.961v3.621c0,0.84,0.04,1.66,0.16,2.32H375.28z M375.02,282.493
		c-1.921-0.04-4.101,0.301-4.101,2.181c0,1.141,0.76,1.681,1.66,1.681c1.26,0,2.061-0.801,2.34-1.62
		c0.061-0.181,0.101-0.381,0.101-0.561V282.493z"/>
	<path d="M108.234,309.634c0.52,0.341,1.44,0.7,2.32,0.7c1.28,0,1.881-0.64,1.881-1.44c0-0.84-0.501-1.3-1.801-1.78
		c-1.74-0.62-2.561-1.58-2.561-2.74c0-1.561,1.26-2.841,3.341-2.841c0.98,0,1.84,0.28,2.38,0.601l-0.439,1.28
		c-0.38-0.24-1.08-0.561-1.98-0.561c-1.04,0-1.62,0.601-1.62,1.32c0,0.801,0.58,1.16,1.84,1.641c1.681,0.64,2.541,1.48,2.541,2.921
		c0,1.7-1.32,2.9-3.621,2.9c-1.061,0-2.04-0.26-2.721-0.66L108.234,309.634z"/>
	<path d="M124.496,308.794c0,1,0.02,1.881,0.08,2.641h-1.561l-0.1-1.58h-0.04c-0.461,0.78-1.48,1.8-3.201,1.8
		c-1.521,0-3.341-0.84-3.341-4.24v-5.661h1.761v5.36c0,1.841,0.56,3.081,2.16,3.081c1.181,0,2.001-0.82,2.32-1.601
		c0.101-0.26,0.16-0.58,0.16-0.9v-5.94h1.761V308.794z"/>
	<path d="M138.555,311.074c-0.46,0.24-1.48,0.561-2.781,0.561c-2.92,0-4.82-1.98-4.82-4.941c0-2.98,2.04-5.141,5.201-5.141
		c1.04,0,1.96,0.26,2.44,0.5l-0.4,1.36c-0.42-0.24-1.08-0.46-2.04-0.46c-2.221,0-3.421,1.64-3.421,3.66
		c0,2.241,1.44,3.621,3.36,3.621c1,0,1.66-0.26,2.16-0.48L138.555,311.074z"/>
	<path d="M149.256,306.514c0,3.581-2.48,5.141-4.821,5.141c-2.62,0-4.641-1.92-4.641-4.98c0-3.241,2.12-5.142,4.801-5.142
		C147.375,301.532,149.256,303.553,149.256,306.514z M141.574,306.613c0,2.121,1.22,3.721,2.94,3.721c1.681,0,2.94-1.58,2.94-3.761
		c0-1.64-0.82-3.721-2.9-3.721S141.574,304.773,141.574,306.613z"/>
	<path d="M151.233,309.634c0.521,0.341,1.44,0.7,2.321,0.7c1.28,0,1.88-0.64,1.88-1.44c0-0.84-0.5-1.3-1.8-1.78
		c-1.741-0.62-2.562-1.58-2.562-2.74c0-1.561,1.261-2.841,3.342-2.841c0.979,0,1.84,0.28,2.38,0.601l-0.439,1.28
		c-0.381-0.24-1.081-0.561-1.98-0.561c-1.041,0-1.621,0.601-1.621,1.32c0,0.801,0.58,1.16,1.841,1.641
		c1.681,0.64,2.54,1.48,2.54,2.921c0,1.7-1.32,2.9-3.62,2.9c-1.061,0-2.041-0.26-2.721-0.66L151.233,309.634z"/>
	<path d="M161.514,298.972v2.781h2.521v1.34h-2.521v5.221c0,1.2,0.34,1.881,1.32,1.881c0.46,0,0.8-0.06,1.02-0.12l0.08,1.32
		c-0.34,0.14-0.88,0.24-1.56,0.24c-0.82,0-1.48-0.26-1.9-0.74c-0.501-0.521-0.681-1.381-0.681-2.521v-5.281h-1.5v-1.34h1.5v-2.321
		L161.514,298.972z"/>
	<path d="M166.874,306.914c0.04,2.38,1.561,3.36,3.32,3.36c1.261,0,2.021-0.22,2.681-0.5l0.301,1.26
		c-0.62,0.28-1.681,0.601-3.221,0.601c-2.98,0-4.762-1.961-4.762-4.881c0-2.921,1.721-5.222,4.541-5.222
		c3.161,0,4.001,2.781,4.001,4.562c0,0.359-0.04,0.64-0.06,0.82H166.874z M172.035,305.653c0.021-1.12-0.46-2.86-2.44-2.86
		c-1.78,0-2.561,1.64-2.7,2.86H172.035z"/>
	<path d="M180.794,301.753l2.12,5.721c0.221,0.641,0.46,1.4,0.62,1.98h0.04c0.181-0.58,0.38-1.32,0.62-2.021l1.921-5.681h1.86
		l-2.641,6.901c-1.261,3.32-2.121,5.021-3.321,6.061c-0.859,0.761-1.72,1.061-2.16,1.141l-0.44-1.48
		c0.44-0.14,1.021-0.42,1.541-0.86c0.479-0.38,1.08-1.06,1.48-1.96c0.08-0.18,0.14-0.32,0.14-0.42c0-0.101-0.04-0.24-0.12-0.46
		l-3.581-8.922H180.794z"/>
	<path d="M200.415,309.935h-0.04c-0.52,0.96-1.601,1.72-3.16,1.72c-2.261,0-4.102-1.96-4.102-4.9c0-3.621,2.341-5.222,4.381-5.222
		c1.501,0,2.501,0.74,2.981,1.681h0.04l0.06-1.46h1.66c-0.04,0.819-0.06,1.66-0.06,2.66v10.982h-1.761V309.935z M200.415,305.674
		c0-0.24-0.02-0.521-0.08-0.74c-0.26-1.081-1.2-2.001-2.521-2.001c-1.82,0-2.92,1.54-2.92,3.721c0,1.921,0.92,3.601,2.86,3.601
		c1.14,0,2.12-0.7,2.521-1.92c0.08-0.24,0.14-0.58,0.14-0.84V305.674z"/>
	<path d="M213.176,308.794c0,1,0.02,1.881,0.079,2.641h-1.56l-0.101-1.58h-0.04c-0.46,0.78-1.48,1.8-3.2,1.8
		c-1.521,0-3.341-0.84-3.341-4.24v-5.661h1.761v5.36c0,1.841,0.56,3.081,2.16,3.081c1.18,0,2-0.82,2.32-1.601
		c0.1-0.26,0.16-0.58,0.16-0.9v-5.94h1.761V308.794z"/>
	<path d="M217.073,306.914c0.04,2.38,1.561,3.36,3.32,3.36c1.261,0,2.021-0.22,2.681-0.5l0.301,1.26
		c-0.62,0.28-1.681,0.601-3.221,0.601c-2.98,0-4.762-1.961-4.762-4.881c0-2.921,1.721-5.222,4.541-5.222
		c3.161,0,4.001,2.781,4.001,4.562c0,0.359-0.04,0.64-0.06,0.82H217.073z M222.234,305.653c0.021-1.12-0.46-2.86-2.44-2.86
		c-1.78,0-2.561,1.64-2.7,2.86H222.234z"/>
	<path d="M234.474,297.231v11.702c0,0.86,0.02,1.841,0.08,2.501h-1.581l-0.079-1.681h-0.04c-0.54,1.08-1.721,1.9-3.301,1.9
		c-2.341,0-4.142-1.98-4.142-4.921c-0.02-3.221,1.98-5.201,4.342-5.201c1.479,0,2.48,0.7,2.92,1.48h0.04v-5.781H234.474z
		 M232.714,305.693c0-0.22-0.02-0.521-0.08-0.74c-0.26-1.12-1.22-2.04-2.54-2.04c-1.82,0-2.9,1.6-2.9,3.74
		c0,1.961,0.96,3.581,2.86,3.581c1.18,0,2.261-0.78,2.58-2.101c0.061-0.24,0.08-0.48,0.08-0.76V305.693z"/>
	<path d="M242.754,311.435l-0.14-1.221h-0.061c-0.54,0.761-1.58,1.44-2.96,1.44c-1.961,0-2.961-1.38-2.961-2.78
		c0-2.341,2.08-3.621,5.821-3.601v-0.2c0-0.8-0.22-2.24-2.2-2.24c-0.9,0-1.841,0.28-2.521,0.72l-0.4-1.16
		c0.8-0.521,1.96-0.86,3.181-0.86c2.961,0,3.681,2.021,3.681,3.961v3.621c0,0.84,0.04,1.66,0.16,2.32H242.754z M242.494,306.493
		c-1.921-0.04-4.101,0.301-4.101,2.181c0,1.141,0.76,1.681,1.66,1.681c1.26,0,2.061-0.801,2.34-1.62
		c0.061-0.181,0.101-0.381,0.101-0.561V306.493z"/>
	<path d="M247.032,304.373c0-1-0.02-1.82-0.08-2.62h1.561l0.101,1.6h0.04c0.479-0.92,1.6-1.82,3.2-1.82
		c1.341,0,3.421,0.801,3.421,4.121v5.781h-1.761v-5.581c0-1.561-0.58-2.86-2.24-2.86c-1.16,0-2.061,0.819-2.36,1.8
		c-0.08,0.221-0.12,0.521-0.12,0.82v5.821h-1.761V304.373z"/>
	<path d="M262.372,304.773c0-1.141-0.02-2.121-0.08-3.021h1.541l0.06,1.9h0.08c0.44-1.301,1.5-2.121,2.681-2.121
		c0.2,0,0.34,0.021,0.5,0.061v1.66c-0.18-0.04-0.36-0.061-0.6-0.061c-1.24,0-2.121,0.94-2.361,2.261
		c-0.04,0.24-0.08,0.521-0.08,0.82v5.161h-1.74V304.773z"/>
	<path d="M269.693,306.914c0.04,2.38,1.561,3.36,3.321,3.36c1.26,0,2.02-0.22,2.68-0.5l0.301,1.26
		c-0.62,0.28-1.681,0.601-3.221,0.601c-2.98,0-4.762-1.961-4.762-4.881c0-2.921,1.721-5.222,4.541-5.222
		c3.161,0,4.001,2.781,4.001,4.562c0,0.359-0.04,0.64-0.06,0.82H269.693z M274.854,305.653c0.021-1.12-0.46-2.86-2.44-2.86
		c-1.78,0-2.561,1.64-2.7,2.86H274.854z"/>
	<path d="M278.732,304.913c0-1.24-0.04-2.24-0.08-3.16h1.581l0.08,1.66h0.04c0.72-1.181,1.86-1.881,3.44-1.881
		c2.341,0,4.101,1.98,4.101,4.921c0,3.481-2.12,5.201-4.4,5.201c-1.28,0-2.4-0.56-2.981-1.52h-0.039v5.261h-1.741V304.913z
		 M280.473,307.494c0,0.26,0.039,0.5,0.079,0.72c0.32,1.221,1.381,2.061,2.641,2.061c1.86,0,2.941-1.521,2.941-3.741
		c0-1.94-1.021-3.601-2.881-3.601c-1.2,0-2.32,0.86-2.661,2.181c-0.06,0.22-0.119,0.48-0.119,0.72V307.494z"/>
	<path d="M295.473,311.435l-0.14-1.221h-0.061c-0.54,0.761-1.58,1.44-2.96,1.44c-1.961,0-2.961-1.38-2.961-2.78
		c0-2.341,2.08-3.621,5.821-3.601v-0.2c0-0.8-0.22-2.24-2.2-2.24c-0.9,0-1.841,0.28-2.521,0.72l-0.4-1.16
		c0.8-0.521,1.96-0.86,3.181-0.86c2.961,0,3.681,2.021,3.681,3.961v3.621c0,0.84,0.04,1.66,0.16,2.32H295.473z M295.214,306.493
		c-1.921-0.04-4.101,0.301-4.101,2.181c0,1.141,0.76,1.681,1.66,1.681c1.26,0,2.061-0.801,2.34-1.62
		c0.061-0.181,0.101-0.381,0.101-0.561V306.493z"/>
	<path d="M299.752,304.773c0-1.141-0.02-2.121-0.08-3.021h1.541l0.06,1.9h0.08c0.44-1.301,1.5-2.121,2.681-2.121
		c0.2,0,0.34,0.021,0.5,0.061v1.66c-0.18-0.04-0.36-0.061-0.6-0.061c-1.24,0-2.121,0.94-2.361,2.261
		c-0.04,0.24-0.079,0.521-0.079,0.82v5.161h-1.741V304.773z"/>
	<path d="M308.892,298.972v2.781h2.521v1.34h-2.521v5.221c0,1.2,0.34,1.881,1.32,1.881c0.46,0,0.8-0.06,1.02-0.12l0.08,1.32
		c-0.34,0.14-0.88,0.24-1.56,0.24c-0.82,0-1.48-0.26-1.9-0.74c-0.501-0.521-0.681-1.381-0.681-2.521v-5.281h-1.5v-1.34h1.5v-2.321
		L308.892,298.972z"/>
	<path d="M315.352,299.032c0.02,0.6-0.42,1.08-1.12,1.08c-0.62,0-1.061-0.48-1.061-1.08c0-0.62,0.46-1.101,1.101-1.101
		C314.932,297.932,315.352,298.412,315.352,299.032z M313.391,311.435v-9.682h1.761v9.682H313.391z"/>
	<path d="M326.433,297.231v11.702c0,0.86,0.02,1.841,0.08,2.501h-1.581l-0.079-1.681h-0.04c-0.54,1.08-1.721,1.9-3.301,1.9
		c-2.341,0-4.142-1.98-4.142-4.921c-0.02-3.221,1.98-5.201,4.342-5.201c1.479,0,2.48,0.7,2.92,1.48h0.04v-5.781H326.433z
		 M324.673,305.693c0-0.22-0.02-0.521-0.08-0.74c-0.26-1.12-1.22-2.04-2.54-2.04c-1.82,0-2.9,1.6-2.9,3.74
		c0,1.961,0.96,3.581,2.86,3.581c1.18,0,2.261-0.78,2.58-2.101c0.061-0.24,0.08-0.48,0.08-0.76V305.693z"/>
	<path d="M338.114,306.514c0,3.581-2.481,5.141-4.821,5.141c-2.621,0-4.642-1.92-4.642-4.98c0-3.241,2.121-5.142,4.802-5.142
		C336.233,301.532,338.114,303.553,338.114,306.514z M330.432,306.613c0,2.121,1.22,3.721,2.94,3.721c1.68,0,2.94-1.58,2.94-3.761
		c0-1.64-0.82-3.721-2.9-3.721C331.332,302.853,330.432,304.773,330.432,306.613z"/>
	<path d="M340.092,309.634c0.52,0.341,1.439,0.7,2.32,0.7c1.28,0,1.88-0.64,1.88-1.44c0-0.84-0.5-1.3-1.8-1.78
		c-1.74-0.62-2.561-1.58-2.561-2.74c0-1.561,1.26-2.841,3.341-2.841c0.979,0,1.84,0.28,2.38,0.601l-0.439,1.28
		c-0.381-0.24-1.081-0.561-1.98-0.561c-1.041,0-1.621,0.601-1.621,1.32c0,0.801,0.58,1.16,1.841,1.641
		c1.681,0.64,2.54,1.48,2.54,2.921c0,1.7-1.32,2.9-3.62,2.9c-1.061,0-2.041-0.26-2.721-0.66L340.092,309.634z"/>
	<path d="M353.471,306.914c0.04,2.38,1.561,3.36,3.32,3.36c1.261,0,2.021-0.22,2.681-0.5l0.301,1.26
		c-0.62,0.28-1.681,0.601-3.221,0.601c-2.98,0-4.762-1.961-4.762-4.881c0-2.921,1.721-5.222,4.541-5.222
		c3.161,0,4.001,2.781,4.001,4.562c0,0.359-0.04,0.64-0.06,0.82H353.471z M358.633,305.653c0.021-1.12-0.46-2.86-2.44-2.86
		c-1.78,0-2.561,1.64-2.7,2.86H358.633z"/>
	<path d="M362.51,304.373c0-1-0.02-1.82-0.08-2.62h1.561l0.101,1.6h0.04c0.479-0.92,1.6-1.82,3.2-1.82
		c1.341,0,3.421,0.801,3.421,4.121v5.781h-1.761v-5.581c0-1.561-0.58-2.86-2.24-2.86c-1.16,0-2.061,0.819-2.36,1.8
		c-0.08,0.221-0.12,0.521-0.12,0.82v5.821h-1.761V304.373z"/>
	<path d="M150.244,323.032c0.02,0.6-0.421,1.08-1.121,1.08c-0.62,0-1.06-0.48-1.06-1.08c0-0.62,0.46-1.101,1.1-1.101
		C149.823,321.932,150.244,322.412,150.244,323.032z M148.283,335.435v-9.682h1.761v9.682H148.283z"/>
	<path d="M155.084,322.972v2.781h2.521v1.34h-2.521v5.221c0,1.2,0.34,1.881,1.32,1.881c0.46,0,0.8-0.06,1.02-0.12l0.08,1.32
		c-0.34,0.14-0.88,0.24-1.56,0.24c-0.82,0-1.48-0.26-1.9-0.74c-0.501-0.521-0.681-1.381-0.681-2.521v-5.281h-1.501v-1.34h1.501
		v-2.321L155.084,322.972z"/>
	<path d="M160.443,330.914c0.04,2.38,1.561,3.36,3.321,3.36c1.26,0,2.02-0.22,2.68-0.5l0.301,1.26
		c-0.62,0.28-1.681,0.601-3.221,0.601c-2.98,0-4.762-1.961-4.762-4.881c0-2.921,1.721-5.222,4.541-5.222
		c3.161,0,4.001,2.781,4.001,4.562c0,0.359-0.04,0.64-0.06,0.82H160.443z M165.604,329.653c0.021-1.12-0.46-2.86-2.44-2.86
		c-1.78,0-2.561,1.64-2.7,2.86H165.604z"/>
	<path d="M169.482,328.773c0-1.141-0.02-2.121-0.08-3.021h1.541l0.06,1.9h0.08c0.44-1.301,1.5-2.121,2.681-2.121
		c0.2,0,0.34,0.021,0.5,0.061v1.66c-0.18-0.04-0.36-0.061-0.6-0.061c-1.24,0-2.121,0.94-2.361,2.261
		c-0.04,0.24-0.079,0.521-0.079,0.82v5.161h-1.741V328.773z"/>
	<path d="M181.284,335.435l-0.14-1.221h-0.061c-0.54,0.761-1.58,1.44-2.96,1.44c-1.961,0-2.961-1.38-2.961-2.78
		c0-2.341,2.08-3.621,5.821-3.601v-0.2c0-0.8-0.22-2.24-2.2-2.24c-0.9,0-1.841,0.28-2.521,0.72l-0.4-1.16
		c0.8-0.521,1.96-0.86,3.181-0.86c2.961,0,3.681,2.021,3.681,3.961v3.621c0,0.84,0.04,1.66,0.16,2.32H181.284z M181.024,330.493
		c-1.921-0.04-4.101,0.301-4.101,2.181c0,1.141,0.76,1.681,1.66,1.681c1.26,0,2.061-0.801,2.34-1.62
		c0.061-0.181,0.101-0.381,0.101-0.561V330.493z"/>
	<path d="M192.464,335.074c-0.46,0.24-1.479,0.561-2.78,0.561c-2.921,0-4.821-1.98-4.821-4.941c0-2.98,2.041-5.141,5.201-5.141
		c1.041,0,1.961,0.26,2.44,0.5l-0.399,1.36c-0.42-0.24-1.08-0.46-2.041-0.46c-2.22,0-3.42,1.64-3.42,3.66
		c0,2.241,1.439,3.621,3.36,3.621c1,0,1.66-0.26,2.16-0.48L192.464,335.074z"/>
	<path d="M196.483,323.032c0.02,0.6-0.42,1.08-1.12,1.08c-0.62,0-1.061-0.48-1.061-1.08c0-0.62,0.46-1.101,1.101-1.101
		C196.063,321.932,196.483,322.412,196.483,323.032z M194.522,335.435v-9.682h1.761v9.682H194.522z"/>
	<path d="M207.965,330.514c0,3.581-2.481,5.141-4.821,5.141c-2.621,0-4.642-1.92-4.642-4.98c0-3.241,2.121-5.142,4.802-5.142
		C206.084,325.532,207.965,327.553,207.965,330.514z M200.283,330.613c0,2.121,1.22,3.721,2.94,3.721c1.68,0,2.94-1.58,2.94-3.761
		c0-1.64-0.82-3.721-2.9-3.721C201.182,326.853,200.283,328.773,200.283,330.613z"/>
	<path d="M210.181,328.373c0-1-0.02-1.82-0.08-2.62h1.561l0.101,1.6h0.04c0.479-0.92,1.6-1.82,3.2-1.82
		c1.341,0,3.421,0.801,3.421,4.121v5.781h-1.761v-5.581c0-1.561-0.58-2.86-2.24-2.86c-1.16,0-2.061,0.819-2.36,1.8
		c-0.08,0.221-0.12,0.521-0.12,0.82v5.821h-1.761V328.373z"/>
	<path d="M222.261,330.914c0.04,2.38,1.561,3.36,3.321,3.36c1.26,0,2.02-0.22,2.68-0.5l0.301,1.26
		c-0.62,0.28-1.681,0.601-3.221,0.601c-2.98,0-4.762-1.961-4.762-4.881c0-2.921,1.721-5.222,4.541-5.222
		c3.161,0,4.001,2.781,4.001,4.562c0,0.359-0.04,0.64-0.06,0.82H222.261z M227.423,329.653c0.021-1.12-0.46-2.86-2.44-2.86
		c-1.78,0-2.561,1.64-2.7,2.86H227.423z"/>
	<path d="M231.061,333.634c0.52,0.341,1.439,0.7,2.32,0.7c1.28,0,1.88-0.64,1.88-1.44c0-0.84-0.5-1.3-1.8-1.78
		c-1.74-0.62-2.561-1.58-2.561-2.74c0-1.561,1.26-2.841,3.341-2.841c0.979,0,1.84,0.28,2.38,0.601l-0.439,1.28
		c-0.381-0.24-1.081-0.561-1.98-0.561c-1.041,0-1.621,0.601-1.621,1.32c0,0.801,0.58,1.16,1.841,1.641
		c1.681,0.64,2.54,1.48,2.54,2.921c0,1.7-1.32,2.9-3.62,2.9c-1.061,0-2.041-0.26-2.721-0.66L231.061,333.634z"/>
	<path d="M244.101,325.753l2.12,5.721c0.221,0.641,0.46,1.4,0.62,1.98h0.04c0.181-0.58,0.38-1.32,0.62-2.021l1.921-5.681h1.86
		l-2.641,6.901c-1.261,3.32-2.121,5.021-3.321,6.061c-0.859,0.761-1.72,1.061-2.16,1.141l-0.44-1.48
		c0.44-0.14,1.021-0.42,1.541-0.86c0.479-0.38,1.08-1.06,1.48-1.96c0.08-0.18,0.14-0.32,0.14-0.42c0-0.101-0.04-0.24-0.12-0.46
		l-3.581-8.922H244.101z"/>
	<path d="M258.101,330.914c0.04,2.38,1.561,3.36,3.321,3.36c1.26,0,2.02-0.22,2.68-0.5l0.301,1.26
		c-0.62,0.28-1.681,0.601-3.221,0.601c-2.98,0-4.762-1.961-4.762-4.881c0-2.921,1.721-5.222,4.541-5.222
		c3.161,0,4.001,2.781,4.001,4.562c0,0.359-0.04,0.64-0.06,0.82H258.101z M263.262,329.653c0.021-1.12-0.46-2.86-2.44-2.86
		c-1.78,0-2.561,1.64-2.7,2.86H263.262z"/>
	<path d="M267.14,328.373c0-1-0.02-1.82-0.08-2.62h1.561l0.101,1.6h0.04c0.479-0.92,1.6-1.82,3.2-1.82
		c1.341,0,3.421,0.801,3.421,4.121v5.781h-1.761v-5.581c0-1.561-0.58-2.86-2.24-2.86c-1.16,0-2.061,0.819-2.36,1.8
		c-0.08,0.221-0.12,0.521-0.12,0.82v5.821h-1.761V328.373z"/>
	<path d="M280.281,322.972v2.781h2.521v1.34h-2.521v5.221c0,1.2,0.34,1.881,1.32,1.881c0.46,0,0.8-0.06,1.02-0.12l0.08,1.32
		c-0.34,0.14-0.88,0.24-1.56,0.24c-0.82,0-1.48-0.26-1.9-0.74c-0.501-0.521-0.681-1.381-0.681-2.521v-5.281h-1.5v-1.34h1.5v-2.321
		L280.281,322.972z"/>
	<path d="M284.78,328.773c0-1.141-0.02-2.121-0.08-3.021h1.541l0.06,1.9h0.08c0.44-1.301,1.5-2.121,2.681-2.121
		c0.2,0,0.34,0.021,0.5,0.061v1.66c-0.18-0.04-0.36-0.061-0.6-0.061c-1.24,0-2.121,0.94-2.361,2.261
		c-0.04,0.24-0.08,0.521-0.08,0.82v5.161h-1.74V328.773z"/>
	<path d="M292.1,330.914c0.04,2.38,1.561,3.36,3.32,3.36c1.261,0,2.021-0.22,2.681-0.5l0.301,1.26
		c-0.62,0.28-1.681,0.601-3.221,0.601c-2.98,0-4.762-1.961-4.762-4.881c0-2.921,1.721-5.222,4.541-5.222
		c3.161,0,4.001,2.781,4.001,4.562c0,0.359-0.04,0.64-0.06,0.82H292.1z M297.261,329.653c0.021-1.12-0.46-2.86-2.44-2.86
		c-1.78,0-2.561,1.64-2.7,2.86H297.261z"/>
	<path d="M309.481,325.753c-0.04,0.7-0.08,1.479-0.08,2.66v5.621c0,2.221-0.439,3.581-1.38,4.421c-0.94,0.88-2.301,1.16-3.521,1.16
		c-1.16,0-2.44-0.28-3.221-0.8l0.439-1.341c0.641,0.4,1.641,0.761,2.841,0.761c1.801,0,3.121-0.94,3.121-3.381v-1.08h-0.04
		c-0.54,0.9-1.58,1.62-3.081,1.62c-2.4,0-4.121-2.04-4.121-4.721c0-3.281,2.141-5.142,4.361-5.142c1.681,0,2.601,0.881,3.021,1.681
		h0.04l0.08-1.46H309.481z M307.661,329.573c0-0.3-0.02-0.56-0.1-0.8c-0.32-1.021-1.181-1.86-2.461-1.86
		c-1.68,0-2.88,1.42-2.88,3.66c0,1.9,0.96,3.481,2.86,3.481c1.08,0,2.061-0.681,2.44-1.801c0.1-0.3,0.14-0.641,0.14-0.94V329.573z"
		/>
	<path d="M317.68,335.435l-0.14-1.221h-0.061c-0.54,0.761-1.58,1.44-2.96,1.44c-1.961,0-2.961-1.38-2.961-2.78
		c0-2.341,2.08-3.621,5.821-3.601v-0.2c0-0.8-0.22-2.24-2.2-2.24c-0.9,0-1.841,0.28-2.521,0.72l-0.4-1.16
		c0.8-0.521,1.96-0.86,3.181-0.86c2.961,0,3.681,2.021,3.681,3.961v3.621c0,0.84,0.04,1.66,0.16,2.32H317.68z M317.421,330.493
		c-1.921-0.04-4.101,0.301-4.101,2.181c0,1.141,0.76,1.681,1.66,1.681c1.26,0,2.061-0.801,2.34-1.62
		c0.061-0.181,0.101-0.381,0.101-0.561V330.493z"/>
	<path d="M321.719,333.634c0.52,0.341,1.439,0.7,2.32,0.7c1.28,0,1.88-0.64,1.88-1.44c0-0.84-0.5-1.3-1.8-1.78
		c-1.74-0.62-2.561-1.58-2.561-2.74c0-1.561,1.26-2.841,3.341-2.841c0.979,0,1.84,0.28,2.38,0.601l-0.439,1.28
		c-0.381-0.24-1.081-0.561-1.98-0.561c-1.041,0-1.621,0.601-1.621,1.32c0,0.801,0.58,1.16,1.841,1.641
		c1.681,0.64,2.54,1.48,2.54,2.921c0,1.7-1.32,2.9-3.62,2.9c-1.061,0-2.041-0.26-2.721-0.66L321.719,333.634z"/>
	<path d="M329.239,334.395c0-0.74,0.5-1.261,1.2-1.261s1.181,0.521,1.181,1.261c0,0.72-0.46,1.26-1.2,1.26
		C329.719,335.654,329.239,335.114,329.239,334.395z"/>
</g>
</svg>