<!-- Generator: Adobe Illustrator 17.0.0, SVG Export Plug-In  -->
<svg version="1.1"
	 xmlns="http://www.w3.org/2000/svg" xmlns:xlink="http://www.w3.org/1999/xlink" xmlns:a="http://ns.adobe.com/AdobeSVGViewerExtensions/3.0/"
	 x="0px" y="0px" width="175.571px" height="50.529px" viewBox="0 0 175.571 50.529" enable-background="new 0 0 175.571 50.529"
	 xml:space="preserve">
<defs>
</defs>
<g>
	<path fill="#154B8A" stroke="#154B8A" stroke-width="3" stroke-miterlimit="10" d="M28.166,37.678c0,1.57-0.316,3.043-0.95,4.419
		c-0.636,1.375-1.483,2.579-2.549,3.611c-1.063,1.031-2.3,1.843-3.707,2.434c-1.409,0.591-2.897,0.888-4.466,0.888h-3.32
		c-1.57,0-3.061-0.297-4.467-0.888c-1.408-0.591-2.643-1.402-3.709-2.434c-1.064-1.032-1.912-2.236-2.547-3.611
		C1.816,40.721,1.5,39.248,1.5,37.678V35.84l4.16-0.678v2.516c0,1.032,0.209,1.995,0.628,2.886c0.42,0.894,0.983,1.677,1.693,2.354
		c0.709,0.677,1.531,1.209,2.468,1.597c0.934,0.386,1.917,0.58,2.949,0.58H16.3c1.032,0,2.011-0.194,2.935-0.58
		c0.924-0.388,1.742-0.92,2.451-1.597c0.709-0.678,1.273-1.461,1.691-2.354c0.42-0.891,0.63-1.854,0.63-2.886v-1.385
		c0-1.593-0.313-2.914-0.934-3.967c-0.625-1.053-1.451-1.951-2.483-2.693c-1.032-0.741-2.198-1.37-3.499-1.886
		c-1.301-0.517-2.639-1.032-4.015-1.548c-1.376-0.516-2.713-1.085-4.014-1.709c-1.3-0.623-2.467-1.402-3.499-2.337
		c-1.032-0.935-1.859-2.079-2.483-3.434c-0.622-1.354-0.935-3.02-0.935-4.997v-0.87c0-1.57,0.296-3.043,0.887-4.419
		c0.592-1.375,1.403-2.579,2.436-3.611c1.031-1.032,2.239-1.843,3.627-2.434C10.481,1.796,11.958,1.5,13.527,1.5h2.967
		c1.568,0,3.041,0.296,4.418,0.888c1.374,0.591,2.579,1.401,3.609,2.434c1.032,1.032,1.843,2.236,2.436,3.611
		c0.591,1.376,0.887,2.849,0.887,4.419v1.192l-4.16,0.677v-1.869c0-1.032-0.192-1.995-0.58-2.887
		c-0.387-0.892-0.914-1.671-1.58-2.338c-0.667-0.666-1.445-1.194-2.338-1.58c-0.892-0.388-1.854-0.58-2.886-0.58h-2.579
		c-1.031,0-1.994,0.192-2.886,0.58c-0.893,0.386-1.678,0.914-2.354,1.58C7.804,8.294,7.272,9.073,6.885,9.965
		s-0.58,1.854-0.58,2.887v0.87c0,1.483,0.312,2.73,0.935,3.74c0.624,1.01,1.451,1.875,2.483,2.596
		c1.032,0.72,2.197,1.344,3.498,1.87c1.301,0.527,2.638,1.063,4.016,1.612c1.374,0.548,2.712,1.15,4.014,1.805
		c1.3,0.657,2.467,1.463,3.499,2.419c1.03,0.957,1.858,2.123,2.481,3.497c0.623,1.377,0.936,3.054,0.936,5.032V37.678z"/>
	<path fill="#154B8A" stroke="#154B8A" stroke-width="3" stroke-miterlimit="10" d="M61.554,42.097
		c-0.591,1.375-1.401,2.579-2.434,3.611c-1.032,1.031-2.236,1.843-3.611,2.434c-1.377,0.591-2.849,0.888-4.417,0.888h-3.29
		c-1.568,0-3.046-0.297-4.433-0.888c-1.388-0.591-2.596-1.402-3.628-2.434c-1.032-1.032-1.843-2.236-2.434-3.611
		c-0.591-1.376-0.888-2.849-0.888-4.419V12.852c0-1.57,0.297-3.043,0.888-4.419c0.591-1.375,1.401-2.579,2.434-3.611
		s2.24-1.843,3.628-2.434C44.756,1.796,46.233,1.5,47.802,1.5h3.29c1.568,0,3.04,0.296,4.417,0.888
		c1.375,0.591,2.579,1.401,3.611,2.434c1.032,1.032,1.843,2.236,2.434,3.611c0.591,1.376,0.888,2.849,0.888,4.419v1.869
		l-4.159,0.646v-2.515c0-1.032-0.194-1.995-0.581-2.887s-0.914-1.671-1.579-2.338c-0.667-0.666-1.447-1.194-2.339-1.58
		c-0.892-0.388-1.854-0.58-2.885-0.58h-2.902c-1.031,0-1.995,0.192-2.886,0.58c-0.892,0.386-1.678,0.914-2.354,1.58
		c-0.677,0.667-1.21,1.446-1.596,2.338c-0.387,0.892-0.581,1.854-0.581,2.887v24.826c0,1.032,0.194,1.995,0.581,2.886
		c0.386,0.894,0.919,1.677,1.596,2.354c0.677,0.677,1.463,1.209,2.354,1.597c0.891,0.386,1.854,0.58,2.886,0.58h2.902
		c1.031,0,1.993-0.194,2.885-0.58c0.892-0.388,1.672-0.92,2.339-1.597c0.665-0.678,1.192-1.461,1.579-2.354
		c0.387-0.891,0.581-1.854,0.581-2.886v-2.516l4.159,0.678v1.838C62.441,39.248,62.145,40.721,61.554,42.097z"/>
	<path fill="#154B8A" stroke="#154B8A" stroke-width="3" stroke-miterlimit="10" d="M93.428,48.383L80.885,28.649h-5.707v19.733
		h-4.159V2.145H85.69c1.568,0,3.041,0.296,4.416,0.887c1.376,0.592,2.579,1.402,3.611,2.435c1.033,1.031,1.844,2.24,2.435,3.627
		c0.59,1.387,0.887,2.864,0.887,4.434v3.74c0,1.569-0.297,3.047-0.887,4.434c-0.591,1.387-1.401,2.596-2.435,3.628
		c-1.032,1.032-2.235,1.844-3.611,2.435c-1.375,0.591-2.848,0.886-4.416,0.886l12.542,19.733H93.428z M92.88,13.527
		c0-1.031-0.194-1.993-0.581-2.887c-0.386-0.891-0.913-1.677-1.579-2.354c-0.666-0.676-1.446-1.208-2.337-1.596
		c-0.893-0.387-1.854-0.58-2.887-0.58H75.178v18.573h10.318c1.032,0,1.993-0.194,2.887-0.581c0.891-0.386,1.671-0.919,2.337-1.596
		c0.666-0.678,1.193-1.461,1.579-2.354c0.387-0.891,0.581-1.853,0.581-2.886V13.527z"/>
	<path fill="#154B8A" stroke="#154B8A" stroke-width="3" stroke-miterlimit="10" d="M130.621,42.097
		c-0.592,1.375-1.402,2.579-2.435,3.611c-1.032,1.031-2.235,1.843-3.61,2.434c-1.377,0.591-2.85,0.888-4.417,0.888h-3.289
		c-1.569,0-3.048-0.297-4.435-0.888c-1.387-0.591-2.595-1.402-3.627-2.434c-1.032-1.032-1.844-2.236-2.434-3.611
		c-0.592-1.376-0.888-2.849-0.888-4.419V2.145h4.159v35.532c0,1.032,0.194,1.995,0.58,2.886c0.387,0.894,0.92,1.677,1.597,2.354
		c0.677,0.677,1.462,1.209,2.354,1.597c0.891,0.386,1.854,0.58,2.885,0.58h2.902c1.032,0,1.994-0.194,2.886-0.58
		c0.892-0.388,1.672-0.92,2.338-1.597c0.665-0.678,1.192-1.461,1.58-2.354c0.386-0.891,0.58-1.854,0.58-2.886V2.145h4.159v35.532
		C131.508,39.248,131.212,40.721,130.621,42.097z"/>
	<path fill="#154B8A" stroke="#154B8A" stroke-width="3" stroke-miterlimit="10" d="M169.911,48.383V16.688l-0.29,1.967
		l-10.738,29.729h-2.191l-10.835-29.729l-0.257-1.967v31.695h-4.16V2.145h2.16l14.027,37.919l0.128,1.709l0.13-1.709l13.992-37.919
		h2.194v46.237H169.911z"/>
</g>
</svg>