<?xml version="1.0" encoding="utf-8"?>
<!-- Generator: Adobe Illustrator 17.0.0, SVG Export Plug-In . SVG Version: 6.00 Build 0)  -->
<!DOCTYPE svg PUBLIC "-//W3C//DTD SVG 1.1//EN" "http://www.w3.org/Graphics/SVG/1.1/DTD/svg11.dtd" [
	<!ENTITY ns_extend "http://ns.adobe.com/Extensibility/1.0/">
	<!ENTITY ns_ai "http://ns.adobe.com/AdobeIllustrator/10.0/">
	<!ENTITY ns_graphs "http://ns.adobe.com/Graphs/1.0/">
	<!ENTITY ns_vars "http://ns.adobe.com/Variables/1.0/">
	<!ENTITY ns_imrep "http://ns.adobe.com/ImageReplacement/1.0/">
	<!ENTITY ns_sfw "http://ns.adobe.com/SaveForWeb/1.0/">
	<!ENTITY ns_custom "http://ns.adobe.com/GenericCustomNamespace/1.0/">
	<!ENTITY ns_adobe_xpath "http://ns.adobe.com/XPath/1.0/">
]>
<svg version="1.1" id="Capa_1" xmlns:x="&ns_extend;" xmlns:i="&ns_ai;" xmlns:graph="&ns_graphs;"
	 xmlns="http://www.w3.org/2000/svg" xmlns:xlink="http://www.w3.org/1999/xlink" x="0px" y="0px" width="4462px" height="3192px"
	 viewBox="0 0 4462 3192" enable-background="new 0 0 4462 3192" xml:space="preserve">
<metadata  id="CorelCorpID_0Corel-Layer">
	<sfw  xmlns="&ns_sfw;">
		<slices></slices>
		<sliceSourceBounds  width="4462" height="3191.451" y="-1295.225" x="-1591.5" bottomLeftOrigin="true"></sliceSourceBounds>
	</sfw>
</metadata>
<g id="Capa_x0020_1">
	<g id="_1829632277536">
		<g>
			<rect x="0" y="0.275" width="4447.927" height="3186.425"/>
		</g>
		<g>
			<rect x="14.072" y="2077.984" fill="#686867" width="4433.855" height="87.451"/>
			<rect x="14.072" y="2077.984" fill="#4C4C4C" width="4433.855" height="23.119"/>
			<g>
				<polygon fill="#9ED9F8" points="4462,2101.104 4462,22.389 0,22.389 0,2076.979 				"/>
			</g>
			<g>
				<path fill="#C4E7FB" d="M3520.145,893.881c-10.052-1.005-20.104,2.01-29.15,6.031c-9.047-44.228-47.243-78.404-94.487-81.42
					c-13.067-1.005-26.135,1.005-38.197,5.026c-10.052-42.218-46.238-75.389-92.477-77.399
					c-55.285-3.016-103.534,39.202-106.549,94.487c0,3.016,0,5.026,0,8.041c-36.187,0-68.352,17.088-88.456,44.228
					c-5.026-1.005-9.047-2.01-14.073-2.01c-38.197-2.01-71.368,27.14-73.378,65.337c-2.01,38.197,27.14,71.368,65.337,73.378
					c9.047,1.005,18.093-1.005,26.135-3.016c18.093,23.119,46.238,38.197,77.399,39.202c17.088,1.005,33.171-2.01,47.244-8.042
					c17.088,22.114,44.228,37.192,74.383,39.202c42.218,2.01,79.409-21.109,97.503-56.29c12.062,15.078,29.15,25.13,49.254,26.135
					c36.187,2.01,67.347-24.124,71.368-60.311c6.031,3.016,13.067,5.026,21.109,5.026c32.166,2.01,59.306-23.119,61.316-54.28
					c2.01-32.166-23.119-59.306-54.28-61.316V893.881z"/>
				<path fill="#FFFFFF" d="M3444.756,909.964c-11.057-2.01-31.161,7.036-36.187,16.083c8.042-35.181-18.093-65.337-57.295-67.347
					c-11.057-1.005-39.202,9.047-45.233,15.078c-8.041-31.161-24.124-64.332-61.316-64.332c-43.223,0-65.337,16.083-75.389,59.306
					c-4.021,18.093,2.01,32.166,2.01,34.176c-31.16-27.14-76.394-3.016-84.435,22.114c-1.005-15.078-14.073-19.098-18.093-19.098
					c-31.161-2.01-57.295,20.104-59.306,48.249c-2.01,28.145,22.114,53.275,53.274,54.28c7.036,0,14.073,0,21.109-2.01
					c15.078,17.088,37.192,28.145,63.326,30.155c14.073,1.005,27.14-1.005,38.197-6.031c14.073,17.088,36.187,28.145,61.316,29.15
					c34.176,2.01,65.337-15.078,79.409-41.212c9.047,11.057,24.124,18.093,40.207,19.099c29.15,2.01,54.28-18.093,57.295-44.228
					c5.026,2.01,11.057,4.021,17.088,4.021c26.135,2.01,48.249-16.083,50.259-40.207c1.005-24.124-21.109-42.218-47.243-46.238
					L3444.756,909.964z"/>
			</g>
			<g>
				<path fill="#C4E7FB" d="M3975.492,1576.399c-10.052-1.005-20.104,2.01-29.15,6.031c-9.047-44.228-47.243-78.404-94.487-81.42
					c-13.067-1.005-26.135,1.005-38.197,5.026c-10.052-42.218-46.238-75.389-92.477-77.399
					c-55.285-3.016-103.534,39.202-106.549,94.487c0,3.016,0,5.026,0,8.041c-36.187,0-68.352,17.088-88.456,44.228
					c-5.026-1.005-9.047-2.01-14.073-2.01c-38.197-2.01-71.368,27.14-73.378,65.337c-2.01,38.197,27.14,71.368,65.337,73.378
					c9.047,1.005,18.093-1.005,26.135-3.016c18.093,23.119,46.238,38.197,77.399,39.202c17.088,1.005,33.171-2.01,47.244-8.041
					c17.088,22.114,44.228,37.192,74.383,39.202c42.218,2.01,79.409-21.109,97.503-56.29c12.062,15.078,29.15,25.13,49.254,26.135
					c36.187,2.01,67.347-24.124,71.368-60.311c6.031,3.016,13.067,5.026,21.109,5.026c32.166,2.01,59.306-23.119,61.316-54.28
					c2.01-32.166-23.119-59.306-54.28-61.316V1576.399z"/>
				<path fill="#FFFFFF" d="M3900.104,1593.487c-11.057-2.01-31.161,7.036-36.187,16.083c8.042-35.181-18.093-65.337-57.295-67.347
					c-11.057-1.005-39.202,9.047-45.233,15.078c-8.042-31.161-24.124-64.332-61.316-64.332c-43.223,0-65.337,16.083-75.389,59.306
					c-4.021,18.093,2.01,32.166,2.01,34.176c-31.161-27.14-76.394-3.016-84.435,22.114c-1.005-15.078-14.073-19.098-18.093-19.098
					c-31.161-2.01-57.295,20.104-59.306,48.249c-2.01,28.145,22.114,53.275,53.275,54.28c7.036,0,14.073,0,21.109-2.01
					c15.078,17.088,37.192,28.145,63.326,30.155c14.073,1.005,27.14-1.005,38.197-6.031c14.073,17.088,36.187,28.145,61.316,29.15
					c34.176,2.01,65.337-15.078,79.409-41.212c9.047,11.057,24.124,18.093,40.207,19.098c29.15,2.01,54.28-18.093,57.295-44.228
					c5.026,2.01,11.057,4.021,17.088,4.021c26.135,2.01,48.249-16.083,50.259-40.207c1.005-24.124-21.109-42.218-47.243-46.238
					L3900.104,1593.487z"/>
			</g>
			<g>
				<path fill="#C4E7FB" d="M1098.663,1554.285c-10.052-1.005-20.104,2.01-29.15,6.031c-9.047-44.228-47.244-78.404-94.487-81.42
					c-13.067-1.005-26.135,1.005-38.197,5.026c-10.052-42.218-46.238-75.389-92.477-77.399
					c-55.285-3.016-103.534,39.202-106.549,94.487c0,3.016,0,5.026,0,8.041c-36.187,0-68.352,17.088-88.456,44.228
					c-5.026-1.005-9.047-2.01-14.073-2.01c-38.197-2.01-71.368,27.14-73.378,65.337s27.14,71.368,65.337,73.378
					c9.047,1.005,18.093-1.005,26.135-3.016c18.093,23.119,46.238,38.197,77.399,39.202c17.088,1.005,33.171-2.01,47.244-8.042
					c17.088,22.114,44.228,37.192,74.383,39.202c42.218,2.01,79.409-21.109,97.503-56.29c12.062,15.078,29.15,25.13,49.254,26.135
					c36.187,2.01,67.347-24.124,71.368-60.311c6.031,3.016,13.067,5.026,21.109,5.026c32.166,2.01,59.306-23.119,61.316-54.28
					c2.01-32.166-23.119-59.306-54.28-61.316V1554.285z"/>
				<path fill="#FFFFFF" d="M1023.275,1570.368c-11.057-2.01-31.161,7.036-36.187,16.083c8.041-35.181-18.093-65.337-57.295-67.347
					c-11.057-1.005-39.202,9.047-45.233,15.078c-8.041-31.161-24.124-64.332-61.316-64.332c-43.223,0-65.337,16.083-75.389,59.306
					c-4.021,18.093,2.01,32.166,2.01,34.176c-31.161-27.14-76.394-3.016-84.435,22.114c-1.005-15.078-14.073-19.098-18.093-19.098
					c-31.161-2.01-57.295,20.104-59.306,48.249c-2.01,28.145,22.114,53.275,53.275,54.28c7.036,0,14.073,0,21.109-2.01
					c15.078,17.088,37.192,28.145,63.326,30.156c14.073,1.005,27.14-1.005,38.197-6.031c14.073,17.088,36.187,28.145,61.316,29.15
					c34.176,2.01,65.337-15.078,79.409-41.212c9.047,11.057,24.124,18.093,40.207,19.098c29.15,2.01,54.28-18.093,57.295-44.228
					c5.026,2.01,11.057,4.021,17.088,4.021c26.135,2.01,48.249-16.083,50.259-40.207c1.005-24.124-21.109-42.218-47.244-46.238
					L1023.275,1570.368z"/>
			</g>
			<g>
				<path fill="#C4E7FB" d="M1352.974,872.772c-8.041,0-16.083,1.005-23.119,5.026c-7.036-35.181-37.192-62.321-74.383-64.332
					c-10.052-1.005-21.109,1.005-30.155,4.021c-8.042-33.171-37.192-59.306-73.378-61.316c-44.228-3.016-81.42,31.161-84.435,74.383
					c0,2.01,0,4.021,0,6.031c-28.145,0-54.28,14.073-69.358,35.181c-4.021-1.005-7.036-2.01-11.057-2.01
					c-30.155-2.01-56.29,21.109-57.295,51.264c-2.01,30.155,21.109,56.29,51.264,57.295c7.036,0,14.073-1.005,20.104-3.016
					c15.078,18.093,36.187,30.155,61.316,31.161c13.067,1.005,26.135-1.005,37.192-6.031c14.073,18.093,35.181,29.15,59.306,31.161
					c33.171,2.01,63.327-17.088,77.399-44.228c9.047,12.062,23.119,19.098,39.202,20.104c28.145,2.01,53.275-19.098,56.29-47.243
					c5.026,2.01,11.057,4.021,16.083,4.021c25.13,1.005,47.244-18.093,48.249-43.223
					C1397.202,895.891,1378.104,873.777,1352.974,872.772z"/>
				<path fill="#FFFFFF" d="M1293.668,885.839c-9.047-1.005-25.13,6.031-28.145,13.067c6.031-28.145-14.073-51.264-45.233-53.275
					c-9.047,0-30.156,7.036-35.181,12.062c-6.031-25.13-19.098-51.264-48.249-51.264c-34.176,0-51.264,13.067-59.306,47.244
					c-3.016,14.073,2.01,25.13,2.01,27.14c-25.13-22.114-60.311-2.01-66.342,17.088c-1.005-12.062-11.057-15.078-15.078-15.078
					c-24.124-1.005-45.233,15.078-47.243,38.197c-1.005,22.114,17.088,42.218,42.218,43.223c6.031,0,11.057,0,17.088-2.01
					c12.062,13.067,30.155,22.114,50.259,23.119c11.057,1.005,21.109-1.005,30.155-4.021c11.057,13.067,28.145,22.114,48.249,23.119
					c27.14,2.01,51.264-12.062,62.321-33.171c7.036,9.047,19.099,15.078,32.166,15.078c23.119,1.005,43.223-14.073,45.233-35.181
					c4.021,2.01,9.047,3.016,13.067,3.016c21.109,1.005,38.197-13.067,39.202-32.166
					C1331.865,902.927,1314.777,888.855,1293.668,885.839z"/>
			</g>
			<g>
				<path fill="#C4E7FB" d="M2621.513,786.326c-6.031,0-11.057,1.005-16.083,3.016c-5.026-24.124-26.135-43.223-52.269-45.233
					c-7.036,0-14.073,1.005-21.109,3.016c-5.026-23.119-26.135-41.212-51.264-43.223c-31.161-2.01-57.295,22.114-58.301,52.269
					c0,1.005,0,3.016,0,4.021c-20.104,0-37.192,9.047-48.249,24.124c-3.016-1.005-5.026-1.005-8.042-1.005
					c-21.109-1.005-39.202,15.078-40.207,36.187s15.078,39.202,36.187,40.207c5.026,0,10.052,0,14.073-2.01
					c10.052,12.062,25.13,21.109,43.223,22.114c9.047,1.005,18.093-1.005,26.135-4.021c10.052,12.062,24.124,20.104,41.212,21.109
					c23.119,1.005,44.228-12.062,54.28-31.161c6.031,8.041,16.083,14.073,27.14,14.073c20.104,1.005,37.192-13.067,39.202-33.171
					c3.015,2.01,7.036,3.016,11.057,3.016c18.093,1.005,33.171-12.062,34.176-30.155c1.005-18.093-12.062-33.171-30.156-34.176
					L2621.513,786.326z"/>
				<path fill="#FFFFFF" d="M2579.295,795.373c-6.031-1.005-17.088,4.021-20.104,9.047c4.021-19.098-10.052-36.187-31.161-37.192
					c-6.031,0-21.109,5.026-25.13,8.041c-4.021-17.088-13.067-35.181-34.176-35.181c-24.124,0-36.187,9.047-41.212,32.166
					c-2.01,10.052,1.005,18.093,1.005,19.098c-17.088-15.078-42.218-2.01-46.238,12.062c-1.005-8.042-8.042-10.052-10.052-11.057
					c-17.088-1.005-32.166,11.057-33.171,26.135c-1.005,16.083,12.062,29.15,29.15,30.155c4.021,0,8.041,0,12.062-1.005
					c8.042,9.047,21.109,16.083,35.181,16.083c7.036,0,15.078-1.005,21.109-3.016c8.042,9.047,20.104,15.078,33.171,16.083
					c19.098,1.005,36.187-8.041,44.228-23.119c5.026,6.031,13.067,10.052,22.114,11.057c16.083,1.005,30.155-10.052,32.166-24.124
					c3.016,1.005,6.031,2.01,9.047,2.01c14.073,1.005,27.14-9.047,27.14-22.114c1.005-13.067-11.057-23.119-26.135-25.13H2579.295z"
					/>
			</g>
			<g>
				<path fill="#C4E7FB" d="M1989.254,780.295c-7.036,0-13.067,1.005-18.093,4.021c-6.031-28.145-30.155-50.259-60.311-51.264
					c-8.042,0-16.083,1.005-24.124,3.016c-6.031-27.14-29.15-47.244-58.301-49.254c-35.181-2.01-65.337,25.13-67.347,60.311
					c0,2.01,0,3.016,0,5.026c-23.119,0-43.223,11.057-55.285,28.145c-3.016-1.005-6.031-1.005-9.047-1.005
					c-24.124-1.005-45.233,17.088-46.238,41.212c-1.005,24.124,17.088,45.233,41.212,46.238c6.031,0,11.057,0,16.083-2.01
					c12.062,14.073,29.15,24.124,49.254,25.13c11.057,1.005,21.109-1.005,30.156-5.026c11.057,14.073,28.145,23.119,47.244,25.13
					c27.14,2.01,50.259-13.067,61.316-36.187c7.036,9.047,18.093,16.083,31.161,16.083c23.119,1.005,42.218-15.078,45.233-38.197
					c4.021,2.01,8.041,3.016,13.067,3.016c20.104,1.005,38.197-14.073,39.202-34.176c1.005-20.104-14.073-38.197-34.176-39.202
					L1989.254,780.295z"/>
				<path fill="#FFFFFF" d="M1941.005,791.352c-7.036-1.005-20.104,5.026-23.119,10.052c5.026-22.114-12.062-41.212-36.187-43.223
					c-7.036,0-24.124,5.026-28.145,10.052c-5.026-20.104-15.078-41.212-39.202-41.212c-27.14,0-41.212,10.052-47.244,37.192
					c-3.016,11.057,1.005,20.104,1.005,21.109c-20.104-17.088-48.249-2.01-53.275,14.073c-1.005-9.047-9.047-12.062-12.062-12.062
					c-20.104-1.005-36.187,12.062-37.192,30.155c-1.005,18.093,14.073,33.171,34.176,34.176c5.026,0,9.047,0,13.067-2.01
					c10.052,11.057,24.124,18.093,40.207,19.098c9.047,1.005,17.088-1.005,24.124-4.021c9.047,10.052,23.119,18.093,38.197,18.093
					c22.114,1.005,41.212-10.052,50.259-26.135c6.031,7.036,15.078,12.062,25.13,12.062c19.098,1.005,35.181-11.057,36.187-28.145
					c3.016,1.005,7.036,2.01,11.057,3.016c16.083,1.005,31.161-10.052,31.161-25.13c1.005-15.078-13.067-27.14-30.155-29.15
					L1941.005,791.352z"/>
			</g>
			<g>
				<path fill="#C4E7FB" d="M4118.228,1152.212c-7.037,0-13.067,1.005-18.093,4.021c-6.031-28.145-30.156-50.259-60.311-51.264
					c-8.042,0-16.083,1.005-24.124,3.016c-6.031-27.14-29.15-47.244-58.301-49.254c-35.181-2.01-65.337,25.13-67.347,60.311
					c0,2.01,0,3.016,0,5.026c-23.119,0-43.223,11.057-55.285,28.145c-3.015-1.005-6.031-1.005-9.047-1.005
					c-24.124-1.005-45.233,17.088-46.238,41.212s17.088,45.233,41.212,46.238c6.031,0,11.057,0,16.083-2.01
					c12.062,14.073,29.15,24.124,49.254,25.13c11.057,1.005,21.109-1.005,30.155-5.026c11.057,14.073,28.145,23.119,47.244,25.13
					c27.14,2.01,50.259-13.067,61.316-36.187c7.036,9.047,18.093,16.083,31.16,16.083c23.119,1.005,42.218-15.078,45.233-38.197
					c4.021,2.01,8.042,3.016,13.067,3.016c20.104,1.005,38.197-14.073,39.202-34.176s-14.073-38.197-34.176-39.202
					L4118.228,1152.212z"/>
				<path fill="#FFFFFF" d="M4069.979,1162.264c-7.036-1.005-20.104,5.026-23.119,10.052c5.026-22.114-12.062-41.212-36.187-43.223
					c-7.036,0-24.124,5.026-28.145,10.052c-5.026-20.104-15.078-41.213-39.202-41.213c-27.14,0-41.212,10.052-47.243,37.192
					c-3.016,11.057,1.005,20.104,1.005,21.109c-20.104-17.088-48.249-2.01-53.275,14.073c-1.005-9.047-9.047-12.062-12.062-12.062
					c-20.104-1.005-36.187,12.062-37.192,30.155c-1.005,18.093,14.073,33.171,34.176,34.176c5.026,0,9.047,0,13.067-2.01
					c10.052,11.057,24.124,18.093,40.207,19.098c9.047,1.005,17.088-1.005,24.124-4.021c9.047,10.052,23.119,18.093,38.197,18.093
					c22.114,1.005,41.212-10.052,50.259-26.135c6.031,7.036,15.078,12.062,25.129,12.062c19.099,1.005,34.176-11.057,36.187-28.145
					c3.016,1.005,7.036,2.01,11.057,3.016c16.083,1.005,31.16-10.052,31.16-25.13c1.005-15.078-13.067-27.14-30.155-29.15
					L4069.979,1162.264z"/>
			</g>
			<g>
				<path fill="#C4E7FB" d="M4003.637,761.197c-7.036,0-13.067,1.005-18.093,4.021c-6.031-28.145-30.156-50.259-60.311-51.264
					c-8.041,0-16.083,1.005-24.124,3.016c-6.031-27.14-29.15-47.244-58.301-49.254c-35.181-2.01-65.337,25.13-67.347,60.311
					c0,2.01,0,3.016,0,5.026c-23.119,0-43.223,11.057-55.285,28.145c-3.016-1.005-6.031-1.005-9.047-1.005
					c-24.124-1.005-45.233,17.088-46.238,41.212c-1.005,24.124,17.088,45.233,41.212,46.238c6.031,0,11.057,0,16.083-2.01
					c12.062,14.073,29.15,24.124,49.254,25.13c11.057,1.005,21.109-1.005,30.156-5.026c11.057,14.073,28.145,23.119,47.244,25.13
					c27.14,2.01,50.259-13.067,61.316-36.187c7.036,9.047,18.093,16.083,31.161,16.083c23.119,1.005,42.218-15.078,45.233-38.197
					c4.021,2.01,8.042,3.016,13.067,3.016c20.104,1.005,38.197-14.073,39.202-34.176c1.005-20.104-14.073-38.197-34.176-39.202
					L4003.637,761.197z"/>
				<path fill="#FFFFFF" d="M3955.388,771.249c-7.036-1.005-20.104,5.026-23.119,10.052c5.026-22.114-12.062-41.212-36.187-43.223
					c-7.036,0-24.124,5.026-28.145,10.052c-5.026-20.104-15.078-41.212-39.202-41.212c-27.14,0-41.212,10.052-47.243,37.192
					c-3.016,11.057,1.005,20.104,1.005,21.109c-20.104-17.088-48.249-2.01-53.275,14.073c-1.005-9.047-9.047-12.062-12.062-12.062
					c-20.104-1.005-36.187,12.062-37.192,30.155s14.073,33.171,34.176,34.176c5.026,0,9.047,0,13.067-2.01
					c10.052,11.057,24.124,18.093,40.207,19.098c9.047,1.005,17.088-1.005,24.124-4.021c9.047,10.052,23.119,18.093,38.197,18.093
					c22.114,1.005,41.212-10.052,50.259-26.135c6.031,7.036,15.078,12.062,25.13,12.062c19.098,1.005,34.176-11.057,36.187-28.145
					c3.016,1.005,7.036,2.01,11.057,3.016c16.083,1.005,31.161-10.052,31.161-25.13c1.005-15.078-13.067-27.14-30.155-29.15
					L3955.388,771.249z"/>
			</g>
			<g>
				<path fill="#C4E7FB" d="M711.668,1190.409c-7.036,0-13.067,1.005-18.093,4.021c-6.031-28.145-30.155-50.259-60.311-51.264
					c-8.041,0-16.083,1.005-24.124,3.016c-6.031-27.14-29.15-47.244-58.301-49.254c-35.181-2.01-65.337,25.13-67.347,60.311
					c0,2.01,0,3.016,0,5.026c-23.119,0-43.223,11.057-55.285,28.145c-3.016-1.005-6.031-1.005-9.047-1.005
					c-24.124-1.005-45.233,17.088-46.238,41.212s17.088,45.233,41.212,46.238c6.031,0,11.057,0,16.083-2.01
					c12.062,14.073,29.15,24.124,49.254,25.13c11.057,1.005,21.109-1.005,30.155-5.026c11.057,14.073,28.145,23.119,47.243,25.13
					c27.14,2.01,50.259-13.067,61.316-36.187c7.036,9.047,18.093,16.083,31.161,16.083c23.119,1.005,42.218-15.078,45.233-38.197
					c4.021,2.01,8.042,3.016,13.067,3.016c20.104,1.005,38.197-14.073,39.202-34.176s-14.073-38.197-34.176-39.202L711.668,1190.409
					z"/>
				<path fill="#FFFFFF" d="M663.42,1201.466c-7.036-1.005-20.104,5.026-23.119,10.052c5.026-22.114-12.062-41.213-36.187-43.223
					c-7.036,0-24.124,5.026-28.145,10.052c-5.026-20.104-15.078-41.212-39.202-41.212c-27.14,0-41.212,10.052-47.244,37.192
					c-3.016,11.057,1.005,20.104,1.005,21.109c-20.104-17.088-48.249-2.01-53.275,14.073c-1.005-9.047-9.047-12.062-12.062-12.062
					c-20.104-1.005-36.187,12.062-37.192,30.156c-1.005,18.093,14.073,33.171,34.176,34.176c5.026,0,9.047,0,13.067-2.01
					c10.052,11.057,24.124,18.093,40.207,19.098c9.047,1.005,17.088-1.005,24.124-4.021c9.047,11.057,23.119,18.093,38.197,18.093
					c22.114,1.005,41.212-10.052,50.259-26.135c6.031,7.036,15.078,12.062,25.13,12.062c19.098,1.005,34.176-11.057,36.187-28.145
					c3.016,1.005,7.036,2.01,11.057,3.016c16.083,1.005,31.161-10.052,31.161-25.13c1.005-15.078-13.067-27.14-30.155-29.15
					L663.42,1201.466z"/>
			</g>
			<g>
				<path fill="#C4E7FB" d="M796.104,789.342c-7.036,0-13.067,1.005-18.093,4.021c-6.031-28.145-30.155-50.259-60.311-51.264
					c-8.041,0-16.083,1.005-24.124,3.016c-6.031-27.14-29.15-47.244-58.301-49.254c-35.181-2.01-65.337,25.13-67.347,60.311
					c0,2.01,0,3.016,0,5.026c-23.119,0-43.223,11.057-55.285,28.145c-3.016-1.005-6.031-1.005-9.047-1.005
					c-24.124-1.005-45.233,17.088-46.238,41.212c-1.005,24.124,17.088,45.233,41.212,46.238c6.031,0,11.057,0,16.083-2.01
					c12.062,14.073,29.15,24.124,49.254,25.13c11.057,1.005,21.109-1.005,30.155-5.026c11.057,14.073,28.145,23.119,47.244,25.13
					c27.14,2.01,50.259-13.067,61.316-36.187c7.036,9.047,18.093,16.083,31.161,16.083c23.119,1.005,42.218-15.078,45.233-38.197
					c4.021,2.01,8.041,3.016,13.067,3.016c20.104,1.005,38.197-14.073,39.202-34.176c1.005-20.104-14.073-38.197-34.176-39.202
					L796.104,789.342z"/>
				<path fill="#FFFFFF" d="M748.86,800.399c-7.036-1.005-20.104,5.026-23.119,10.052c5.026-22.114-12.062-41.212-36.187-43.223
					c-7.036,0-24.124,5.026-28.145,10.052c-5.026-20.104-15.078-41.212-39.202-41.212c-27.14,0-41.212,10.052-47.244,37.192
					c-3.016,11.057,1.005,20.104,1.005,21.109c-20.104-17.088-48.249-2.01-53.275,14.073c-1.005-9.047-9.047-12.062-12.062-12.062
					c-20.104-1.005-36.187,12.062-37.192,30.155s14.073,33.171,34.176,34.176c5.026,0,9.047,0,13.067-2.01
					c10.052,11.057,24.124,18.093,40.207,19.098c9.047,1.005,17.088-1.005,24.124-4.021c9.047,10.052,23.119,18.093,38.197,18.093
					c22.114,1.005,41.212-10.052,50.259-26.135c6.031,7.036,15.078,12.062,25.13,12.062c19.098,1.005,34.176-11.057,36.187-28.145
					c3.016,1.005,7.036,2.01,11.057,3.016c16.083,1.005,31.161-10.052,31.161-25.13c1.005-15.078-13.067-27.14-30.155-29.15
					L748.86,800.399z"/>
			</g>
			<g>
				<g>
					<g>
						<g>
							<polygon fill="#EAEAEA" points="3576.435,1054.71 858.425,1054.71 820.228,2079.995 3614.632,2079.995 							"/>
							<g>
								<polygon fill="#0059A5" points="957.938,910.969 3456.819,910.969 3604.58,1032.596 2328,1190.409 820.228,1032.596 
																	"/>
								<rect x="820.228" y="1032.596" fill="#006CB1" width="2784.352" height="101.523"/>
							</g>
							<polygon fill="#F4F4F4" points="1549.99,1073.808 1520.839,1039.632 2204.363,786.326 2912.01,1038.627 2882.86,1073.808 
								2882.86,2079.995 1542.953,2079.995 							"/>
							<g>
								<rect x="908.684" y="1192.42" fill="#006CB1" width="543.803" height="217.119"/>
								<rect x="930.798" y="1211.518" fill="#78D2F7" width="499.575" height="180.933"/>
								<rect x="1040.363" y="1211.518" fill="#00C1F3" width="125.648" height="180.933"/>
								<rect x="1304.725" y="1211.518" fill="#00C1F3" width="125.648" height="180.933"/>
							</g>
							<g>
								<rect x="908.684" y="1614.596" fill="#006CB1" width="543.803" height="217.119"/>
								<rect x="930.798" y="1632.689" fill="#78D2F7" width="499.575" height="180.933"/>
								<rect x="1040.363" y="1632.689" fill="#00C1F3" width="125.648" height="180.933"/>
								<rect x="1304.725" y="1632.689" fill="#00C1F3" width="125.648" height="180.933"/>
							</g>
							<g>
								<rect x="2988.404" y="1192.42" fill="#006CB1" width="543.803" height="217.119"/>
								<rect x="3010.518" y="1211.518" fill="#78D2F7" width="499.575" height="180.933"/>
								<rect x="3120.083" y="1211.518" fill="#00C1F3" width="125.648" height="180.933"/>
								<rect x="3383.44" y="1211.518" fill="#00C1F3" width="125.648" height="180.933"/>
							</g>
							<g>
								<rect x="2988.404" y="1614.596" fill="#006CB1" width="543.803" height="217.119"/>
								<rect x="3010.518" y="1632.689" fill="#78D2F7" width="499.575" height="180.933"/>
								<rect x="3120.083" y="1632.689" fill="#00C1F3" width="125.648" height="180.933"/>
								<rect x="3383.44" y="1632.689" fill="#00C1F3" width="125.648" height="180.933"/>
							</g>
							<g>
								<rect x="1727.907" y="1276.855" fill="#006CB1" width="164.85" height="188.974"/>
								<rect x="1749.016" y="1373.352" fill="#00C1F3" width="123.637" height="73.378"/>
								<rect x="1749.016" y="1295.953" fill="#78D2F7" width="123.637" height="67.347"/>
								<rect x="1743.99" y="1360.285" fill="#006CB1" width="133.689" height="20.104"/>
							</g>
							<g>
								<rect x="1986.238" y="1276.855" fill="#006CB1" width="164.85" height="188.974"/>
								<rect x="2006.342" y="1295.953" fill="#78D2F7" width="123.637" height="67.347"/>
								<rect x="2006.342" y="1373.352" fill="#00C1F3" width="123.637" height="73.378"/>
								<rect x="2001.316" y="1360.285" fill="#006CB1" width="136.705" height="20.104"/>
							</g>
							<g>
								<rect x="2244.57" y="1276.855" fill="#006CB1" width="164.85" height="188.974"/>
								<rect x="2264.674" y="1295.953" fill="#78D2F7" width="123.637" height="67.347"/>
								<rect x="2264.674" y="1373.352" fill="#00C1F3" width="123.637" height="73.378"/>
								<rect x="2260.653" y="1360.285" fill="#006CB1" width="134.694" height="20.104"/>
							</g>
							<g>
								<rect x="2510.943" y="1276.855" fill="#006CB1" width="164.85" height="188.974"/>
								<rect x="2532.052" y="1295.953" fill="#78D2F7" width="123.637" height="67.347"/>
								<rect x="2532.052" y="1373.352" fill="#00C1F3" width="123.637" height="73.378"/>
								<rect x="2527.026" y="1360.285" fill="#006CB1" width="134.694" height="20.104"/>
							</g>
							<polygon fill="#0070B6" points="2204.363,775.269 1509.782,1025.56 1549.99,1073.808 1591.202,1025.56 2204.363,806.43 
								2842.653,1025.56 2895.927,1057.725 2923.067,1025.56 							"/>
							<polygon fill="#0086CC" points="2204.363,775.269 2204.363,806.43 2842.653,1025.56 2895.927,1057.725 2923.067,1025.56 
															"/>
							<g>
								<polygon fill="#D3D3D3" points="2926.083,2045.819 2839.637,2045.819 2853.71,1049.684 2912.01,1049.684 								"/>
								<rect x="2818.528" y="2010.637" fill="#C9C9C9" width="128.663" height="69.358"/>
								<rect x="2842.653" y="1025.56" fill="#C9C9C9" width="80.415" height="47.244"/>
							</g>
							<g>
								<polygon fill="#D3D3D3" points="1594.218,2045.819 1506.767,2045.819 1520.839,1049.684 1580.145,1049.684 								"/>
								<rect x="1486.663" y="2010.637" fill="#C9C9C9" width="128.663" height="69.358"/>
								<rect x="1509.782" y="1025.56" fill="#C9C9C9" width="80.415" height="47.244"/>
							</g>
							<g>
								<path fill="#006CB1" d="M2292.819,1003.446c0,54.28-44.228,98.508-98.508,98.508s-98.508-44.228-98.508-98.508
									c0-54.28,44.228-98.508,98.508-98.508S2292.819,949.166,2292.819,1003.446z"/>
								<path fill="#F7FCFB" d="M2279.751,1003.446c0,47.243-38.197,85.44-85.44,85.44c-47.243,0-85.44-38.197-85.44-85.44
									c0-47.244,38.197-85.44,85.44-85.44C2241.554,918.005,2279.751,956.202,2279.751,1003.446z"/>
								<path fill="#F17054" d="M2193.306,1005.456H2134c-1.005,0-2.01-1.005-2.01-2.01s1.005-2.01,2.01-2.01h56.29v-32.166
									c0-1.005,1.005-2.01,2.01-2.01c1.005,0,2.01,1.005,2.01,2.01v34.176c0,1.005-1.005,2.01-2.01,2.01H2193.306z"/>
								<path fill="#FAB664" d="M2202.352,1003.446c0,5.026-4.021,8.041-8.042,8.041c-5.026,0-8.042-4.021-8.042-8.041
									c0-5.026,4.021-8.041,8.042-8.041C2199.337,995.404,2202.352,999.425,2202.352,1003.446z"/>
							</g>
							<path fill="#D3D3D3" d="M1788.218,2079.995v-484.497c0,0,83.43-109.565,423.181-108.56
								c320.653,0,404.083,108.56,404.083,108.56v484.497H1788.218z"/>
							<path fill="#006CB1" d="M1892.756,2079.995v-341.762c0,0,63.326-77.399,318.642-76.394
								c241.243,0,304.57,76.394,304.57,76.394v341.762h-624.218H1892.756z"/>
							<path fill="#78D2F7" d="M1914.87,2079.995v-296.529c0,0,58.301-67.347,294.518-66.342
								c223.15,0,281.451,66.342,281.451,66.342v296.529H1914.87z"/>
							<path fill="#00C1F3" d="M2491.844,1811.611v-28.145c0,0-58.301-66.342-281.451-66.342
								c-236.218,0-294.518,66.342-294.518,66.342v28.145H2491.844z"/>
							<g>
								<path fill="#006CB1" d="M2309.907,1801.56v-80.415c-8.042-1.005-15.078-2.01-24.125-2.01v82.425h-191.99v-79.409
									c-8.042,1.005-16.083,2.01-24.125,3.016v76.394H1914.87v24.124h154.798v254.311h24.125v-254.311h191.99v254.311h24.125
									v-254.311h181.938v-24.124H2309.907z"/>
							</g>
							<rect x="1914.87" y="2028.731" fill="#D3D3D3" width="575.969" height="51.264"/>
							<rect x="1914.87" y="2052.855" fill="#C9C9C9" width="575.969" height="27.14"/>
							<g>
								<rect x="1829.43" y="1135.124" fill="#C9C9C9" width="34.176" height="19.098"/>
								<rect x="1799.275" y="1161.259" fill="#C9C9C9" width="42.218" height="18.093"/>
								<rect x="1854.56" y="1162.264" fill="#C9C9C9" width="47.244" height="20.104"/>
								<rect x="1822.394" y="1193.425" fill="#C9C9C9" width="47.244" height="20.104"/>
								<rect x="1902.808" y="1126.078" fill="#C9C9C9" width="24.124" height="19.098"/>
								<rect x="1963.119" y="1191.415" fill="#C9C9C9" width="20.104" height="19.098"/>
								<rect x="1976.186" y="1219.56" fill="#C9C9C9" width="35.181" height="22.114"/>
							</g>
							<g>
								<rect x="2779.326" y="1661.839" fill="#C9C9C9" width="22.114" height="20.104"/>
								<rect x="2703.938" y="1669.881" fill="#C9C9C9" width="36.187" height="20.104"/>
								<rect x="2675.793" y="1697.021" fill="#C9C9C9" width="44.228" height="21.109"/>
								<rect x="2731.078" y="1697.021" fill="#C9C9C9" width="49.254" height="24.124"/>
								<rect x="2700.922" y="1729.187" fill="#C9C9C9" width="48.249" height="19.098"/>
							</g>
							<g>
								<rect x="3104" y="1909.114" fill="#D3D3D3" width="20.104" height="18.093"/>
								<rect x="3027.606" y="1918.161" fill="#D3D3D3" width="36.187" height="19.098"/>
								<rect x="3055.751" y="1944.295" fill="#D3D3D3" width="46.238" height="22.114"/>
								<rect x="2998.456" y="1943.29" fill="#D3D3D3" width="44.228" height="20.104"/>
								<rect x="3021.575" y="1975.456" fill="#D3D3D3" width="49.254" height="22.114"/>
								<rect x="3165.316" y="1975.456" fill="#D3D3D3" width="21.109" height="20.104"/>
								<rect x="3175.368" y="2005.611" fill="#D3D3D3" width="38.197" height="20.104"/>
							</g>
							<g>
								<rect x="1262.508" y="1908.109" fill="#FDCB68" width="18.093" height="19.098"/>
								<rect x="1185.109" y="1918.161" fill="#FDCB68" width="36.187" height="19.098"/>
								<rect x="1212.249" y="1944.295" fill="#FDCB68" width="50.259" height="24.124"/>
								<rect x="1150.933" y="1944.295" fill="#FDCB68" width="47.244" height="18.093"/>
								<rect x="1179.078" y="1973.446" fill="#FDCB68" width="48.249" height="21.109"/>
								<rect x="1324.829" y="1973.446" fill="#FDCB68" width="18.093" height="18.093"/>
								<rect x="1331.865" y="2002.596" fill="#FDCB68" width="38.197" height="22.114"/>
							</g>
						</g>
						
							<linearGradient id="SVGID_1_" gradientUnits="userSpaceOnUse" x1="1233.4613" y1="1648.348" x2="1320.4613" y2="1648.348" gradientTransform="matrix(1.0052 0 0 -1.0052 235.7539 3197.1011)">
							<stop  offset="0" style="stop-color:#FFFFFF"/>
							<stop  offset="1" style="stop-color:#FFFFFF"/>
						</linearGradient>
						<path fill="url(#SVGID_1_)" d="M1523.855,1088.886l-11.057,902.653C1512.798,1991.539,1565.067,1305,1523.855,1088.886z"/>
						
							<linearGradient id="SVGID_2_" gradientUnits="userSpaceOnUse" x1="1135.4613" y1="1648.348" x2="1221.4613" y2="1648.348" gradientTransform="matrix(1.0052 0 0 -1.0052 235.7539 3197.1011)">
							<stop  offset="0" style="stop-color:#FFFFFF"/>
							<stop  offset="1" style="stop-color:#FFFFFF"/>
						</linearGradient>
						<path fill="url(#SVGID_2_)" d="M2906.984,1088.886l11.057,902.653C2918.041,1991.539,2865.772,1305,2906.984,1088.886z"/>
					</g>
					<g>
						
							<linearGradient id="SVGID_3_" gradientUnits="userSpaceOnUse" x1="639.4414" y1="2015.1132" x2="760.4414" y2="1860.1132" gradientTransform="matrix(1.0052 0 0 -1.0052 235.7539 3197.1011)">
							<stop  offset="0" style="stop-color:#FFFFFF"/>
							<stop  offset="1" style="stop-color:#FFFFFF"/>
						</linearGradient>
						<path fill="url(#SVGID_3_)" d="M955.927,1237.653c-10.052,15.078-20.104,149.772-20.104,149.772v-172.891h87.451
							C1023.275,1214.534,968.995,1217.549,955.927,1237.653z"/>
						
							<linearGradient id="SVGID_4_" gradientUnits="userSpaceOnUse" x1="746.9125" y1="2013.9089" x2="870.9125" y2="1858.9089" gradientTransform="matrix(1.0052 0 0 -1.0052 235.7539 3197.1011)">
							<stop  offset="0" style="stop-color:#FFFFFF"/>
							<stop  offset="1" style="stop-color:#FFFFFF"/>
						</linearGradient>
						<path fill="url(#SVGID_4_)" d="M1065.492,1237.653c-10.052,15.078-20.104,149.772-20.104,149.772v-172.891h87.451
							C1132.839,1214.534,1078.56,1217.549,1065.492,1237.653z"/>
						
							<linearGradient id="SVGID_5_" gradientUnits="userSpaceOnUse" x1="887.1987" y1="2014.1431" x2="1008.1987" y2="1859.1431" gradientTransform="matrix(1.0052 0 0 -1.0052 235.7539 3197.1011)">
							<stop  offset="0" style="stop-color:#FFFFFF"/>
							<stop  offset="1" style="stop-color:#FFFFFF"/>
						</linearGradient>
						<path fill="url(#SVGID_5_)" d="M1204.207,1237.653c-10.052,15.078-20.104,149.772-20.104,149.772v-172.891h87.451
							C1271.554,1214.534,1217.275,1217.549,1204.207,1237.653z"/>
						
							<linearGradient id="SVGID_6_" gradientUnits="userSpaceOnUse" x1="1023.3079" y1="2014.2273" x2="1145.3079" y2="1859.2273" gradientTransform="matrix(1.0052 0 0 -1.0052 235.7539 3197.1011)">
							<stop  offset="0" style="stop-color:#FFFFFF"/>
							<stop  offset="1" style="stop-color:#FFFFFF"/>
						</linearGradient>
						<path fill="url(#SVGID_6_)" d="M1341.917,1237.653c-10.052,15.078-20.104,149.772-20.104,149.772v-172.891h87.451
							C1409.264,1214.534,1354.984,1217.549,1341.917,1237.653z"/>
					</g>
					<g>
						
							<linearGradient id="SVGID_7_" gradientUnits="userSpaceOnUse" x1="639.3618" y1="1596.0465" x2="760.3618" y2="1440.0465" gradientTransform="matrix(1.0052 0 0 -1.0052 235.7539 3197.1011)">
							<stop  offset="0" style="stop-color:#FFFFFF"/>
							<stop  offset="1" style="stop-color:#FFFFFF"/>
						</linearGradient>
						<path fill="url(#SVGID_7_)" d="M955.927,1659.829c-10.052,15.078-20.104,149.772-20.104,149.772V1636.71h87.451
							C1023.275,1636.71,968.995,1639.725,955.927,1659.829z"/>
						
							<linearGradient id="SVGID_8_" gradientUnits="userSpaceOnUse" x1="746.8249" y1="1594.8422" x2="870.8249" y2="1438.8422" gradientTransform="matrix(1.0052 0 0 -1.0052 235.7539 3197.1011)">
							<stop  offset="0" style="stop-color:#FFFFFF"/>
							<stop  offset="1" style="stop-color:#FFFFFF"/>
						</linearGradient>
						<path fill="url(#SVGID_8_)" d="M1065.492,1659.829c-10.052,15.078-20.104,149.772-20.104,149.772V1636.71h87.451
							C1132.839,1636.71,1078.56,1639.725,1065.492,1659.829z"/>
						
							<linearGradient id="SVGID_9_" gradientUnits="userSpaceOnUse" x1="887.1131" y1="1595.0779" x2="1008.1131" y2="1439.0779" gradientTransform="matrix(1.0052 0 0 -1.0052 235.7539 3197.1011)">
							<stop  offset="0" style="stop-color:#FFFFFF"/>
							<stop  offset="1" style="stop-color:#FFFFFF"/>
						</linearGradient>
						<path fill="url(#SVGID_9_)" d="M1204.207,1659.829c-10.052,15.078-20.104,149.772-20.104,149.772V1636.71h87.451
							C1271.554,1636.71,1217.275,1639.725,1204.207,1659.829z"/>
						
							<linearGradient id="SVGID_10_" gradientUnits="userSpaceOnUse" x1="1023.2227" y1="1595.1614" x2="1145.2227" y2="1439.1614" gradientTransform="matrix(1.0052 0 0 -1.0052 235.7539 3197.1011)">
							<stop  offset="0" style="stop-color:#FFFFFF"/>
							<stop  offset="1" style="stop-color:#FFFFFF"/>
						</linearGradient>
						<path fill="url(#SVGID_10_)" d="M1341.917,1659.829c-10.052,15.078-20.104,149.772-20.104,149.772V1636.71h87.451
							C1409.264,1636.71,1354.984,1639.725,1341.917,1659.829z"/>
					</g>
					<g>
						
							<linearGradient id="SVGID_11_" gradientUnits="userSpaceOnUse" x1="1600.3036" y1="4000.1863" x2="1721.3036" y2="3845.1863" gradientTransform="matrix(1.0052 0 0 -1.0052 235.7539 3197.1011)">
							<stop  offset="0" style="stop-color:#FFFFFF"/>
							<stop  offset="1" style="stop-color:#FFFFFF"/>
						</linearGradient>
						<path fill="url(#SVGID_11_)" d="M3482.953,1237.653c10.052,15.078,20.104,149.772,20.104,149.772v-172.891h-87.451
							C3415.606,1214.534,3469.886,1217.549,3482.953,1237.653z"/>
						
							<linearGradient id="SVGID_12_" gradientUnits="userSpaceOnUse" x1="1569.4814" y1="3876.9832" x2="1690.4814" y2="3721.9832" gradientTransform="matrix(1.0052 0 0 -1.0052 235.7539 3197.1011)">
							<stop  offset="0" style="stop-color:#FFFFFF"/>
							<stop  offset="1" style="stop-color:#FFFFFF"/>
						</linearGradient>
						<path fill="url(#SVGID_12_)" d="M3355.295,1237.653c10.052,15.078,20.104,149.772,20.104,149.772v-172.891h-87.451
							C3287.948,1214.534,3342.228,1217.549,3355.295,1237.653z"/>
						
							<linearGradient id="SVGID_13_" gradientUnits="userSpaceOnUse" x1="1536.3391" y1="3746.5044" x2="1657.3391" y2="3591.5044" gradientTransform="matrix(1.0052 0 0 -1.0052 235.7539 3197.1011)">
							<stop  offset="0" style="stop-color:#FFFFFF"/>
							<stop  offset="1" style="stop-color:#FFFFFF"/>
						</linearGradient>
						<path fill="url(#SVGID_13_)" d="M3219.596,1237.653c10.052,15.078,20.104,149.772,20.104,149.772v-172.891h-87.451
							C3152.249,1214.534,3206.528,1217.549,3219.596,1237.653z"/>
						
							<linearGradient id="SVGID_14_" gradientUnits="userSpaceOnUse" x1="1492.0479" y1="3623.6355" x2="1614.0479" y2="3468.6355" gradientTransform="matrix(1.0052 0 0 -1.0052 235.7539 3197.1011)">
							<stop  offset="0" style="stop-color:#FFFFFF"/>
							<stop  offset="1" style="stop-color:#FFFFFF"/>
						</linearGradient>
						<path fill="url(#SVGID_14_)" d="M3089.927,1237.653c10.052,15.078,20.104,149.772,20.104,149.772v-172.891h-87.451
							C3022.58,1214.534,3076.86,1217.549,3089.927,1237.653z"/>
					</g>
					<g>
						
							<linearGradient id="SVGID_15_" gradientUnits="userSpaceOnUse" x1="1612.5889" y1="3577.9854" x2="1733.5889" y2="3421.9854" gradientTransform="matrix(1.0052 0 0 -1.0052 235.7539 3197.1011)">
							<stop  offset="0" style="stop-color:#FFFFFF"/>
							<stop  offset="1" style="stop-color:#FFFFFF"/>
						</linearGradient>
						<path fill="url(#SVGID_15_)" d="M3482.953,1659.829c10.052,15.078,20.104,149.772,20.104,149.772V1636.71h-87.451
							C3415.606,1636.71,3469.886,1639.725,3482.953,1659.829z"/>
						
							<linearGradient id="SVGID_16_" gradientUnits="userSpaceOnUse" x1="1580.2531" y1="3452.071" x2="1701.2531" y2="3296.071" gradientTransform="matrix(1.0052 0 0 -1.0052 235.7539 3197.1011)">
							<stop  offset="0" style="stop-color:#FFFFFF"/>
							<stop  offset="1" style="stop-color:#FFFFFF"/>
						</linearGradient>
						<path fill="url(#SVGID_16_)" d="M3352.28,1659.829c10.052,15.078,20.104,149.772,20.104,149.772V1636.71h-87.451
							C3284.933,1636.71,3339.212,1639.725,3352.28,1659.829z"/>
						
							<linearGradient id="SVGID_17_" gradientUnits="userSpaceOnUse" x1="1503.5814" y1="3330.6484" x2="1627.5814" y2="3174.6484" gradientTransform="matrix(1.0052 0 0 -1.0052 235.7539 3197.1011)">
							<stop  offset="0" style="stop-color:#FFFFFF"/>
							<stop  offset="1" style="stop-color:#FFFFFF"/>
						</linearGradient>
						<path fill="url(#SVGID_17_)" d="M3216.58,1659.829c10.052,15.078,20.104,149.772,20.104,149.772V1636.71h-87.451
							C3149.233,1636.71,3203.513,1639.725,3216.58,1659.829z"/>
						
							<linearGradient id="SVGID_18_" gradientUnits="userSpaceOnUse" x1="1502.0076" y1="3202.1084" x2="1624.0076" y2="3046.1084" gradientTransform="matrix(1.0052 0 0 -1.0052 235.7539 3197.1011)">
							<stop  offset="0" style="stop-color:#FFFFFF"/>
							<stop  offset="1" style="stop-color:#FFFFFF"/>
						</linearGradient>
						<path fill="url(#SVGID_18_)" d="M3089.927,1659.829c10.052,15.078,20.104,149.772,20.104,149.772V1636.71h-87.451
							C3022.58,1636.71,3076.86,1639.725,3089.927,1659.829z"/>
					</g>
					
						<linearGradient id="SVGID_19_" gradientUnits="userSpaceOnUse" x1="1956.3885" y1="1009.2907" x2="2093.3887" y2="835.2907" gradientTransform="matrix(1.0052 0 0 -1.0052 235.7539 3197.1011)">
						<stop  offset="0" style="stop-color:#FFFFFF"/>
						<stop  offset="1" style="stop-color:#FFFFFF"/>
					</linearGradient>
					<path fill="url(#SVGID_19_)" d="M1960.104,1856.844c-17.088,17.088-35.181,164.85-35.181,164.85v-189.979h151.782
						C2076.705,1831.715,1982.218,1834.731,1960.104,1856.844z"/>
					
						<linearGradient id="SVGID_20_" gradientUnits="userSpaceOnUse" x1="2134.7141" y1="1010.2009" x2="2270.7141" y2="836.2009" gradientTransform="matrix(1.0052 0 0 -1.0052 235.7539 3197.1011)">
						<stop  offset="0" style="stop-color:#FFFFFF"/>
						<stop  offset="1" style="stop-color:#FFFFFF"/>
					</linearGradient>
					<path fill="url(#SVGID_20_)" d="M2141.036,1856.844c-17.088,17.088-35.181,164.85-35.181,164.85v-189.979h152.788
						c0,0-94.487,3.016-116.601,25.13H2141.036z"/>
					
						<linearGradient id="SVGID_21_" gradientUnits="userSpaceOnUse" x1="2342.7129" y1="1011.6107" x2="2476.7129" y2="837.6108" gradientTransform="matrix(1.0052 0 0 -1.0052 235.7539 3197.1011)">
						<stop  offset="0" style="stop-color:#FFFFFF"/>
						<stop  offset="1" style="stop-color:#FFFFFF"/>
					</linearGradient>
					<path fill="url(#SVGID_21_)" d="M2354.135,1856.844c-17.088,17.088-35.181,164.85-35.181,164.85v-189.979h152.788
						c0,0-94.487,3.016-116.601,25.13H2354.135z"/>
				</g>
			</g>
			<g>
				<g>
					<g>
						<path fill="#A54F14" d="M953.917,2149.352l-15.078-333.72l-9.047-1.005l0,0h-1.005h-1.005l0,0l-9.047,1.005l-45.233,330.705
							c0,0-4.021,21.109,37.192,26.135h2.01c42.218-1.005,40.207-22.114,40.207-22.114L953.917,2149.352z"/>
						<path fill="#813F0E" d="M953.917,2149.352l-15.078-333.72l-9.047-1.005l0,0h-1.005l0,0l-16.083,356.839
							c1.005,0,1.005,0,1.005,0C955.927,2170.461,953.917,2149.352,953.917,2149.352z"/>
						
							<radialGradient id="SVGID_22_" cx="676.156" cy="975.6665" r="149" gradientTransform="matrix(1.0655 0.0514 0.0486 -1.1251 92.766 3060.3193)" gradientUnits="userSpaceOnUse">
							<stop  offset="0" style="stop-color:#FFFFFF"/>
							<stop  offset="0" style="stop-color:#FFFFFF"/>
							<stop  offset="0.9412" style="stop-color:#FFFFFF"/>
							<stop  offset="1" style="stop-color:#FFFFFF"/>
						</radialGradient>
						<path fill="url(#SVGID_22_)" d="M915.72,1862.876l-34.176,275.42c0,0-4.021,15.078,7.036,22.114
							c0,0,10.052,10.052,13.067-8.041c3.016-17.088,20.104-283.461,20.104-283.461l-6.031-5.026V1862.876z"/>
					</g>
					<g>
						<path fill="#73B634" d="M1110.725,1471.86c0,0,1.005,1.005,1.005,2.01l0,0c-1.005-1.005-1.005-1.005-1.005-1.005V1471.86z"/>
						<path fill="#73B634" d="M1112.736,1473.87c0,0,0,0,1.005,1.005L1112.736,1473.87L1112.736,1473.87z"/>
						<path fill="#73B634" d="M1087.606,1391.446c0,0,2.01,2.01,4.021,5.026C1089.617,1394.461,1088.611,1392.451,1087.606,1391.446
							z"/>
						<path fill="#51AE3B" d="M810.176,1473.87c14.073,4.021,35.181-20.104,35.181-20.104s2.01,45.233,21.109,38.197
							s30.155-35.181,30.155-35.181s11.057,30.156,23.119,26.135c13.067-4.021,12.062-21.109,12.062-21.109
							s7.036,32.166,23.119,28.145s18.093-26.135,18.093-26.135s10.052,31.161,29.15,30.156c19.098-2.01,17.088-27.14,17.088-27.14
							s10.052,27.14,24.124,22.114c14.073-5.026,22.114-21.109,22.114-21.109s15.078,39.202,32.166,32.166
							c13.067-5.026,14.073-23.119,14.073-26.135c0-1.005-1.005-1.005-1.005-2.01c0,0,0,1.005,1.005,1.005l0,0c0,0,0,0,1.005,1.005
							c4.021,5.026,16.083,15.078,21.109,10.052c6.031-7.036-26.135-69.357-42.218-88.456c-3.016-3.016-4.021-5.026-4.021-5.026
							c1.005,1.005,3.016,3.016,4.021,5.026c5.026,5.026,13.067,11.057,18.093,8.042c7.036-5.026-27.14-81.42-42.218-104.539
							c-5.026-7.036-10.052-14.073-10.052-14.073s2.01,9.047-6.031,13.067c-8.042,3.016-26.135-19.099-26.135-19.099
							s4.021,15.078-5.026,18.093c-8.041,2.01-16.083-17.088-16.083-17.088s-3.016,13.067-14.073,14.073
							c-11.057,1.005-12.062-15.078-12.062-15.078s-4.021,14.073-13.067,16.083c-9.047,2.01-11.057-17.088-11.057-17.088
							s-5.026,9.047-12.062,11.057c-8.042,2.01-14.073-13.067-14.073-13.067s-4.021,12.062-15.078,15.078
							c-11.057,3.016-15.078-16.083-15.078-16.083s-12.062,9.047-21.109,10.052c-8.041,0-2.01-11.057-2.01-11.057
							s-8.041,6.031-17.088,10.052c-14.073,18.093-42.218,54.28-44.228,68.352c-2.01,19.098,20.104-4.021,20.104-4.021
							s-53.275,76.394-54.28,98.508c-1.005,23.119,20.104,1.005,20.104,1.005s0,0,0,1.005l0,0c0,0,0,23.119,13.067,27.14
							L810.176,1473.87z"/>
						<path fill="#73B634" d="M927.782,1121.052L927.782,1121.052L927.782,1121.052z"/>
						<path fill="#1F8A34" d="M1134.85,1699.031c0,0-1.005,14.073-12.062,22.114c-12.062,8.042-22.114-27.14-22.114-27.14
							s-3.016,19.099-16.083,26.135c-13.067,7.036-43.223-31.161-43.223-31.161s2.01,15.078-12.062,20.104
							s-28.145-22.114-28.145-22.114s6.031,25.13-12.062,26.135c-19.098,2.01-29.15-30.156-29.15-30.156s-2.01,23.119-17.088,26.135
							c-16.083,4.021-23.119-28.145-23.119-28.145s0,18.093-12.062,21.109c-13.067,4.021-23.119-26.135-23.119-26.135
							s-7.036,24.124-26.135,31.161s-25.13-33.171-25.13-33.171s-21.109,19.099-35.181,20.104
							c-14.073,1.005-3.016-23.119-3.016-23.119s-33.171,28.145-55.285,29.15c-22.114,2.01-5.026-30.155-5.026-30.155
							s-42.218,64.332-41.212,83.43c1.005,19.098,28.145-13.067,28.145-13.067s-31.161,42.218-36.187,67.347
							c-5.026,25.13,7.036,21.109,13.067,18.093c5.026-3.016,18.093-17.088,18.093-17.088s-23.119,43.223-14.073,58.301
							s45.233-13.067,45.233-13.067s-26.135,30.156-17.088,38.197c9.047,8.042,70.363-26.135,70.363-26.135
							s-23.119,22.114-12.062,30.156c11.057,8.041,71.368-14.073,71.368-14.073s-18.093,14.073-8.041,19.098
							c10.052,6.031,62.321-19.098,62.321-19.098s-2.01,28.145,8.042,29.15c10.052,1.005,27.14-28.145,27.14-28.145
							s27.14,40.207,37.192,33.171s5.026-25.13,5.026-25.13s27.14,32.166,43.223,30.155c16.083-2.01,10.052-26.135,10.052-26.135
							s40.207,26.135,51.264,18.093c11.057-8.041-4.021-27.14-4.021-27.14s23.119,21.109,38.197,20.104
							c14.073-1.005,10.052-20.104,10.052-20.104s11.057,14.073,23.119,12.062c12.062-2.01-16.083-33.171-16.083-33.171
							s19.098,17.088,29.15,11.057c10.052-5.026-12.062-64.332-28.145-81.42c0,0,20.104,19.098,27.14,10.052
							s-19.098-88.456-30.155-98.508c0,0,1.005,0,2.01,1.005l-9.047-11.057L1134.85,1699.031z"/>
						<path fill="#1DA63F" d="M736.798,1701.041c22.114-2.01,55.285-29.15,55.285-29.15s-11.057,24.124,3.016,23.119
							c14.073-1.005,35.181-20.104,35.181-20.104s6.031,40.207,25.13,33.171c19.098-7.036,26.135-31.161,26.135-31.161
							s11.057,30.155,23.119,26.135c13.067-4.021,12.062-21.109,12.062-21.109s7.036,32.166,23.119,28.145
							c16.083-4.021,17.088-26.135,17.088-26.135s10.052,31.161,29.15,30.155c19.098-2.01,12.062-26.135,12.062-26.135
							s14.073,27.14,28.145,22.114c14.073-5.026,12.062-20.104,12.062-20.104s30.155,38.197,43.223,31.161
							s16.083-26.135,16.083-26.135s10.052,34.176,22.114,27.14c12.062-8.042,12.062-22.114,12.062-22.114l9.047,11.057
							c4.021,3.016,16.083,12.062,23.119,11.057c9.047-1.005,7.036-31.161-3.016-59.306c-10.052-28.145-40.207-93.482-40.207-93.482
							s16.083,21.109,23.119,15.078c6.031-6.031-21.109-90.466-34.176-109.565c0,3.016-1.005,20.104-14.073,26.135
							c-18.093,7.036-32.166-32.166-32.166-32.166s-8.041,16.083-22.114,21.109c-14.073,5.026-24.124-22.114-24.124-22.114
							s1.005,25.13-17.088,27.14c-19.098,2.01-29.15-30.155-29.15-30.155s-2.01,22.114-18.093,26.135
							c-16.083,4.021-23.119-28.145-23.119-28.145s0,18.093-12.062,21.109c-13.067,4.021-23.119-26.135-23.119-26.135
							s-11.057,28.145-30.155,35.181s-21.109-38.197-21.109-38.197s-21.109,24.124-35.181,20.104
							c-13.067-4.021-13.067-27.14-13.067-27.14l0,0c-5.026,10.052-62.321,112.58-65.337,140.725
							c-3.016,30.155,28.145,5.026,28.145,5.026s-44.228,58.301-48.249,79.409c-4.021,21.109,21.109-2.01,21.109-2.01
							s-17.088,32.166,5.026,30.155H736.798z"/>
						<path fill="#73B634" d="M874.508,1283.891c8.041,0,21.109-10.052,21.109-10.052s4.021,20.104,15.078,16.083
							c11.057-3.016,15.078-15.078,15.078-15.078s6.031,15.078,14.073,13.067c8.041-2.01,12.062-11.057,12.062-11.057
							s2.01,19.098,11.057,17.088s13.067-16.083,13.067-16.083s0,16.083,12.062,15.078c11.057-1.005,14.073-14.073,14.073-14.073
							s7.036,19.099,16.083,17.088c8.042-2.01,5.026-18.093,5.026-18.093s18.093,22.114,26.135,19.098
							c8.041-3.016,6.031-13.067,6.031-13.067s5.026,7.036,10.052,14.073c-1.005-1.005-1.005-1.005-1.005-2.01
							c0,0,14.073,12.062,20.104,3.016c6.031-9.047-23.119-72.373-38.197-93.482c0,0,14.073,15.078,20.104,10.052
							c7.036-5.026-28.145-74.383-42.218-88.456c0,0,16.083,14.073,21.109,8.042c5.026-6.031-58.3-90.466-58.3-90.466
							s-5.026-7.036-8.042-7.036c-3.016,0-47.243,41.212-60.311,59.306c-14.073,18.093-14.073,31.161-5.026,29.15
							c8.041-1.005,12.062-5.026,13.067-6.031l0,0l0,0c-3.016,4.021-48.249,53.275-47.244,63.326c0,10.052,17.088-2.01,17.088-2.01
							s-54.28,60.311-53.275,90.466c0,0-1.005,7.036,6.031,5.026c7.036-2.01,13.067-7.036,13.067-7.036s-3.016,4.021-8.041,10.052
							c9.047-4.021,17.088-10.052,17.088-10.052s-6.031,12.062,2.01,11.057L874.508,1283.891z"/>
					</g>
				</g>
				<g>
					<path fill="#1DA63F" d="M853.399,2190.565l131.679-14.073c0,0,25.13-30.156,49.254-34.176c0,0-28.145-4.021-43.223,8.042
						c0,0,13.067-27.14,37.192-34.176c0,0-39.202-6.031-62.321,19.098c0,0,2.01-30.156,28.145-46.238
						c0,0-38.197,4.021-53.275,33.171c0,0-9.047-37.192,0-65.337c0,0-33.171,32.166-29.15,69.357c0,0-23.119-45.233-66.342-34.176
						c0,0,33.171,17.088,36.187,46.239c0,0-14.073-17.088-34.176-13.067c0,0,15.078,12.062,17.088,26.135
						c0,0-28.145-22.114-64.332-3.015c0,0,49.254,12.062,54.28,43.223L853.399,2190.565z"/>
					<g>
						<path fill="#1F8A34" d="M1034.332,2142.316c0,0-28.145-4.021-43.223,8.042c0,0,13.067-27.14,37.192-34.176
							c0,0-39.202-6.031-62.321,19.098c0,0,2.01-30.156,28.145-46.238c0,0-38.197,4.021-53.275,33.171c0,0-9.047-37.192,0-65.337
							c0,0-33.171,32.166-29.15,69.357c0,0,2.01,9.047,6.031,18.093c0,0-3.016-15.078,1.005-28.145c0,0,5.026,28.145,14.073,41.212
							c0,0,3.016-30.156,24.124-46.238c0,0-17.088,25.129-12.062,49.254c0,0,21.109-30.155,46.238-34.176
							c0,0-35.181,14.073-45.233,54.28l40.207-4.021c0,0,25.13-30.156,49.254-34.176H1034.332z"/>
					</g>
				</g>
			</g>
			<polygon fill="#73B634" points="4447.927,3181.674 0,3191.725 0,2165.435 4447.927,2165.435 			"/>
			<g>
				<g>
					<path fill="#1DA63F" d="M1929.948,2726.326l97.503,1.005c0,0,21.109-20.104,39.202-21.109c0,0-20.104-6.031-32.166,2.01
						c0,0,12.062-19.098,30.155-21.109c0,0-28.145-8.042-47.243,8.042c0,0,4.021-22.114,25.13-31.161
						c0,0-28.145-1.005-42.218,19.098c0,0-4.021-28.145,6.031-47.243c0,0-27.14,20.104-28.145,48.249
						c0,0-13.067-35.181-45.233-31.16c0,0,23.119,16.083,22.114,37.192c0,0-9.047-13.067-24.124-13.067
						c0,0,10.052,10.052,10.052,20.104c0,0-18.093-19.098-47.244-8.041c0,0,35.181,13.067,36.187,36.187V2726.326z"/>
					<g>
						<path fill="#1F8A34" d="M2066.653,2706.223c0,0-20.104-6.031-32.166,2.01c0,0,12.062-19.098,30.155-21.109
							c0,0-28.145-8.042-47.243,8.042c0,0,4.021-22.114,25.13-31.161c0,0-28.145-1.005-42.218,19.098c0,0-4.021-28.145,6.031-47.243
							c0,0-27.14,20.104-28.145,48.249c0,0,1.005,7.036,3.016,13.067c0,0-1.005-12.062,3.016-20.104c0,0,2.01,21.109,6.031,31.161
							c0,0,5.026-22.114,22.114-31.161c0,0-15.078,17.088-13.067,35.181c0,0,18.093-20.104,36.187-21.109
							c0,0-27.14,7.036-38.197,35.181h30.155c0,0,21.109-20.104,39.202-21.109V2706.223z"/>
					</g>
					
						<radialGradient id="SVGID_23_" cx="2115.8792" cy="19.4452" r="15" gradientTransform="matrix(1.3355 0.0243 0.0206 -1.577 -904.999 2666.8696)" gradientUnits="userSpaceOnUse">
						<stop  offset="0" style="stop-color:#FFFFFF"/>
						<stop  offset="0" style="stop-color:#FFFFFF"/>
						<stop  offset="0.9412" style="stop-color:#FFFFFF"/>
						<stop  offset="1" style="stop-color:#FFFFFF"/>
					</radialGradient>
					<path fill="url(#SVGID_23_)" d="M1902.808,2691.145c0,0,26.135,7.036,28.145,30.156
						C1930.953,2721.301,1945.026,2686.119,1902.808,2691.145z"/>
					
						<radialGradient id="SVGID_24_" cx="2190.7195" cy="-148.5899" r="28" gradientTransform="matrix(1.3659 0.0328 0.021 -2.1304 -1027.6221 2256.3359)" gradientUnits="userSpaceOnUse">
						<stop  offset="0" style="stop-color:#FFFFFF"/>
						<stop  offset="0" style="stop-color:#FFFFFF"/>
						<stop  offset="0.9412" style="stop-color:#FFFFFF"/>
						<stop  offset="1" style="stop-color:#FFFFFF"/>
					</radialGradient>
					<path fill="url(#SVGID_24_)" d="M1934.974,2654.958c0,0,26.135,14.073,28.145,56.29
						C1963.119,2711.249,1987.243,2654.958,1934.974,2654.958z"/>
				</g>
				<g>
					<path fill="#1DA63F" d="M3283.927,2666.015l97.503,1.005c0,0,21.109-20.104,39.202-21.109c0,0-20.104-6.031-32.166,2.01
						c0,0,12.062-19.098,30.155-21.109c0,0-28.145-8.042-47.243,8.042c0,0,4.021-22.114,25.129-31.161
						c0,0-28.145-1.005-42.218,19.098c0,0-4.021-28.145,6.031-47.244c0,0-27.14,20.104-28.145,48.249
						c0,0-13.067-35.181-45.233-31.161c0,0,23.119,16.083,22.114,36.187c0,0-9.047-13.067-24.124-13.067
						c0,0,10.052,10.052,10.052,20.104c0,0-18.093-19.098-47.244-8.042c0,0,35.181,13.067,36.187,36.187V2666.015z"/>
					<g>
						<path fill="#1F8A34" d="M3420.632,2646.917c0,0-20.104-6.031-32.166,2.01c0,0,12.062-19.099,30.155-21.109
							c0,0-28.145-8.042-47.243,8.042c0,0,4.021-22.114,25.129-31.161c0,0-28.145-1.005-42.218,19.098
							c0,0-4.021-28.145,6.031-47.243c0,0-27.14,20.104-28.145,48.249c0,0,1.005,7.036,3.016,13.067c0,0-1.005-12.062,3.015-20.104
							c0,0,2.01,21.109,6.031,31.161c0,0,5.026-22.114,21.109-31.161c0,0-14.073,17.088-13.067,35.181
							c0,0,18.093-20.104,37.192-21.109c0,0-27.14,7.036-38.197,35.181h30.156c0,0,21.109-20.104,39.202-21.109V2646.917z"/>
					</g>
					
						<radialGradient id="SVGID_25_" cx="3461.2156" cy="80.573" r="15" gradientTransform="matrix(1.3339 0.0243 0.0205 -1.5748 -1343.6816 2670.7507)" gradientUnits="userSpaceOnUse">
						<stop  offset="0" style="stop-color:#FFFFFF"/>
						<stop  offset="0" style="stop-color:#FFFFFF"/>
						<stop  offset="0.9412" style="stop-color:#FFFFFF"/>
						<stop  offset="1" style="stop-color:#FFFFFF"/>
					</radialGradient>
					<path fill="url(#SVGID_25_)" d="M3256.787,2631.839c0,0,26.135,7.036,28.145,30.156
						C3284.933,2661.995,3299.005,2625.808,3256.787,2631.839z"/>
					
						<radialGradient id="SVGID_26_" cx="3537.8386" cy="-87.6525" r="28" gradientTransform="matrix(1.3661 0.0328 0.021 -2.1307 -1515.3328 2279.8906)" gradientUnits="userSpaceOnUse">
						<stop  offset="0" style="stop-color:#FFFFFF"/>
						<stop  offset="0" style="stop-color:#FFFFFF"/>
						<stop  offset="0.9412" style="stop-color:#FFFFFF"/>
						<stop  offset="1" style="stop-color:#FFFFFF"/>
					</radialGradient>
					<path fill="url(#SVGID_26_)" d="M3288.953,2595.653c0,0,26.135,14.073,28.145,56.29
						C3317.098,2651.943,3341.223,2595.653,3288.953,2595.653z"/>
				</g>
				<g>
					<path fill="#1DA63F" d="M4100.135,2679.083l97.502,2.01c0,0,21.109-20.104,39.202-21.109c0,0-20.104-6.031-32.166,2.01
						c0,0,12.063-19.099,30.156-21.109c0,0-28.146-8.042-47.244,8.042c0,0,4.021-22.114,25.129-31.161
						c0,0-28.145-1.005-42.218,19.098c0,0-4.021-28.145,6.031-47.243c0,0-27.14,20.104-28.145,48.249
						c0,0-13.067-35.181-45.233-31.161c0,0,23.12,16.083,22.114,37.192c0,0-9.047-13.067-24.125-13.067
						c0,0,10.052,10.052,10.052,20.104c0,0-18.093-19.098-47.243-8.042C4063.948,2642.896,4099.129,2655.964,4100.135,2679.083z"/>
					<g>
						<path fill="#1F8A34" d="M4236.839,2658.979c0,0-20.104-6.031-32.166,2.01c0,0,12.063-19.098,30.156-21.109
							c0,0-28.146-8.042-47.244,8.041c0,0,4.021-22.114,25.129-31.16c0,0-28.145-1.005-42.218,19.098c0,0-4.021-28.145,6.031-47.244
							c0,0-27.14,20.104-28.145,48.249c0,0,1.005,7.036,3.016,13.067c0,0-1.005-12.062,3.016-20.104c0,0,2.01,21.109,6.031,31.161
							c0,0,5.026-22.114,21.109-31.161c0,0-14.072,17.088-13.067,35.181c0,0,18.093-20.104,36.187-21.109
							c0,0-27.14,7.036-38.197,35.181h30.155c0,0,21.109-20.104,39.202-21.109L4236.839,2658.979z"/>
					</g>
					
						<radialGradient id="SVGID_27_" cx="4273.835" cy="66.6627" r="15" gradientTransform="matrix(1.3355 0.0243 0.0206 -1.5766 -1619.6163 2641.9534)" gradientUnits="userSpaceOnUse">
						<stop  offset="0" style="stop-color:#FFFFFF"/>
						<stop  offset="0" style="stop-color:#FFFFFF"/>
						<stop  offset="0.9412" style="stop-color:#FFFFFF"/>
						<stop  offset="1" style="stop-color:#FFFFFF"/>
					</radialGradient>
					<path fill="url(#SVGID_27_)" d="M4072.995,2643.902c0,0,26.135,7.036,28.145,30.155
						C4101.14,2674.057,4115.212,2637.87,4072.995,2643.902z"/>
					
						<radialGradient id="SVGID_28_" cx="4350.1377" cy="-100.7891" r="28" gradientTransform="matrix(1.3664 0.0328 0.021 -2.1312 -1809.3324 2238.5925)" gradientUnits="userSpaceOnUse">
						<stop  offset="0" style="stop-color:#FFFFFF"/>
						<stop  offset="0" style="stop-color:#FFFFFF"/>
						<stop  offset="0.9412" style="stop-color:#FFFFFF"/>
						<stop  offset="1" style="stop-color:#FFFFFF"/>
					</radialGradient>
					<path fill="url(#SVGID_28_)" d="M4105.161,2607.715c0,0,26.135,14.073,28.145,56.29
						C4133.306,2664.005,4157.43,2607.715,4105.161,2607.715z"/>
				</g>
				<g>
					<path fill="#1DA63F" d="M2837.627,2367.477l97.502,2.01c0,0,21.109-20.104,39.202-21.109c0,0-20.104-6.031-32.166,2.01
						c0,0,12.062-19.099,30.155-21.109c0,0-28.145-8.042-47.243,8.042c0,0,4.021-22.114,25.129-31.161
						c0,0-28.145-1.005-42.218,19.098c0,0-4.021-28.145,6.031-47.243c0,0-27.14,20.104-28.145,48.249
						c0,0-13.067-35.181-45.233-31.161c0,0,23.119,16.083,22.114,37.192c0,0-9.047-13.067-24.124-13.067
						c0,0,10.052,10.052,10.052,20.104c0,0-18.093-19.098-47.243-8.042C2801.44,2331.29,2836.622,2344.357,2837.627,2367.477z"/>
					<g>
						<path fill="#1F8A34" d="M2974.332,2348.378c0,0-20.104-6.031-32.166,2.01c0,0,12.062-19.099,30.155-21.109
							c0,0-28.145-8.042-47.243,8.042c0,0,4.021-22.114,25.129-31.161c0,0-28.145-1.005-42.218,19.098
							c0,0-4.021-28.145,6.031-47.243c0,0-27.14,20.104-28.145,48.249c0,0,1.005,7.036,3.016,13.067c0,0-1.005-12.062,4.021-20.104
							c0,0,1.005,21.109,6.031,31.161c0,0,5.026-22.114,21.109-31.161c0,0-14.073,17.088-13.067,35.181
							c0,0,18.093-20.104,37.192-21.109c0,0-27.14,7.036-38.197,35.181h30.155c0,0,21.109-20.104,39.202-21.109L2974.332,2348.378z"
							/>
					</g>
				</g>
			</g>
			<g>
				<g>
					<g>
						<path fill="#A54F14" d="M3660.87,2310.181l-19.098-302.56l-8.042-1.005l0,0h-1.005h-1.005l0,0l-8.041,1.005l-35.181,301.554
							c0,0-3.016,19.099,34.176,23.119h2.01c38.197-2.01,36.187-21.109,36.187-21.109V2310.181z"/>
						<path fill="#813F0E" d="M3660.87,2310.181l-19.098-302.56l-8.042-1.005l0,0h-1.005l0,0l-8.042,324.673h1.005
							c38.197-2.01,36.187-21.109,36.187-21.109H3660.87z"/>
						
							<radialGradient id="SVGID_29_" cx="3389.4602" cy="832.7795" r="136" gradientTransform="matrix(1.0594 0.0292 0.0274 -1.1262 -36.3278 3014.2637)" gradientUnits="userSpaceOnUse">
							<stop  offset="0" style="stop-color:#FFFFFF"/>
							<stop  offset="0" style="stop-color:#FFFFFF"/>
							<stop  offset="0.9412" style="stop-color:#FFFFFF"/>
							<stop  offset="1" style="stop-color:#FFFFFF"/>
						</radialGradient>
						<path fill="url(#SVGID_29_)" d="M3620.663,2050.844l-26.135,250.29c0,0-3.015,14.073,7.036,20.104
							c0,0,9.047,9.047,12.062-7.036c3.016-16.083,13.067-258.332,13.067-258.332L3620.663,2050.844z"/>
					</g>
					<g>
						<path fill="#73B634" d="M3790.539,1691.995c0,0,1.005,1.005,1.005,2.01l0,0c-1.005-1.005-1.005-1.005-1.005-1.005V1691.995z"
							/>
						<path fill="#73B634" d="M3791.544,1693c0,0,0,0,1.005,1.005L3791.544,1693L3791.544,1693z"/>
						<path fill="#73B634" d="M3767.42,1618.617c0,0,2.01,2.01,4.021,4.021C3769.43,1620.627,3768.425,1619.622,3767.42,1618.617z"
							/>
						<path fill="#51AE3B" d="M3518.135,1699.031c12.062,4.021,31.161-19.099,31.161-19.099s3.016,41.212,20.104,34.176
							c17.088-7.036,27.14-33.171,27.14-33.171s10.052,27.14,22.114,23.119c11.057-4.021,11.057-20.104,11.057-20.104
							s7.036,29.15,22.114,25.13c14.073-4.021,15.078-24.124,15.078-24.124s10.052,28.145,27.14,26.135s15.078-25.13,15.078-25.13
							s9.047,25.13,22.114,20.104c13.067-5.026,20.104-19.099,20.104-19.099s14.073,35.181,30.156,28.145
							c12.062-5.026,12.062-21.109,12.062-24.124c0-1.005-1.005-1.005-1.005-2.01c0,0,0,0,1.005,1.005l0,0c0,0,0,0,1.005,1.005
							c4.021,4.021,15.078,14.073,19.098,8.042c5.026-6.031-25.13-62.321-40.207-79.409c-2.01-2.01-4.021-4.021-4.021-4.021
							c1.005,1.005,3.016,2.01,4.021,4.021c5.026,4.021,12.062,10.052,16.083,7.036c6.031-5.026-26.135-73.378-40.207-93.482
							c-5.026-6.031-9.047-13.067-9.047-13.067s2.01,8.042-5.026,12.062c-7.036,3.016-24.124-16.083-24.124-16.083
							s4.021,14.073-4.021,16.083s-14.073-15.078-14.073-15.078s-3.016,12.062-13.067,13.067
							c-10.052,1.005-11.057-14.073-11.057-14.073s-3.016,13.067-12.062,14.073c-9.047,2.01-11.057-15.078-11.057-15.078
							s-4.021,8.042-11.057,10.052c-7.036,2.01-13.067-12.062-13.067-12.062s-3.015,11.057-14.073,14.073
							c-10.052,3.016-14.073-15.078-14.073-15.078s-11.057,9.047-19.098,9.047c-7.036,0-2.01-10.052-2.01-10.052
							s-7.036,5.026-16.083,9.047c-13.067,16.083-37.192,50.259-39.202,63.326c-2.01,17.088,18.093-4.021,18.093-4.021
							s-47.243,70.363-48.249,90.466c-1.005,20.104,18.093,0,18.093,0s0,0,0,1.005l0,0c0,0,0,21.109,12.062,24.124
							L3518.135,1699.031z"/>
						<path fill="#73B634" d="M3617.647,1376.368L3617.647,1376.368L3617.647,1376.368z"/>
						<path fill="#1F8A34" d="M3816.673,1898.057c0,0,0,13.067-11.057,20.104c-10.052,7.036-20.104-24.124-20.104-24.124
							s-2.01,18.093-14.073,24.124c-12.062,7.036-40.207-27.14-40.207-27.14s3.016,13.067-10.052,18.093
							c-13.067,5.026-26.135-19.099-26.135-19.099s6.031,22.114-11.057,24.124s-27.14-26.135-27.14-26.135
							s-1.005,20.104-15.078,24.124s-22.114-25.13-22.114-25.13s1.005,16.083-11.057,20.104
							c-11.057,4.021-22.114-23.119-22.114-23.119s-6.031,21.109-23.119,28.145c-17.088,7.036-24.124-30.155-24.124-30.155
							s-19.098,18.093-31.161,19.098c-13.067,1.005-3.016-21.109-3.016-21.109s-30.155,26.135-50.259,28.145
							c-20.104,2.01-5.026-27.14-5.026-27.14s-37.192,59.306-36.187,76.394s25.13-12.062,25.13-12.062s-28.145,39.202-32.166,61.316
							c-4.021,23.119,7.036,19.098,12.062,16.083s16.083-16.083,16.083-16.083s-20.104,40.207-11.057,53.275
							c9.047,14.073,41.212-13.067,41.212-13.067s-23.119,28.145-15.078,35.181c8.042,7.036,63.326-25.129,63.326-25.129
							s-20.104,20.104-10.052,27.14c10.052,7.036,64.332-14.073,64.332-14.073s-16.083,13.067-7.036,18.093
							c10.052,5.026,56.29-18.093,56.29-18.093s-1.005,26.135,8.042,26.135c9.047,1.005,24.124-26.135,24.124-26.135
							s25.13,36.187,35.181,29.15c9.047-7.036,4.021-23.119,4.021-23.119s25.129,29.15,40.207,26.135
							c15.078-2.01,9.047-24.125,9.047-24.125s37.192,23.119,47.243,16.083c10.052-7.036-4.021-24.125-4.021-24.125
							s22.114,19.099,35.181,17.088c13.067-1.005,8.042-18.093,8.042-18.093s10.052,12.062,21.109,10.052
							c11.057-2.01-15.078-30.155-15.078-30.155s18.093,15.078,27.14,10.052s-12.062-58.301-27.14-73.378
							c0,0,19.099,17.088,25.13,9.047c6.031-8.042-19.098-80.415-29.15-88.456c0,0,1.005,0,1.005,1.005l-9.047-10.052
							L3816.673,1898.057z"/>
						<path fill="#1DA63F" d="M3455.813,1906.098c20.104-2.01,50.259-28.145,50.259-28.145s-9.047,22.114,3.015,21.109
							c13.067-1.005,31.161-19.098,31.161-19.098s6.031,37.192,24.125,30.155c17.088-7.036,23.119-28.145,23.119-28.145
							s10.052,27.14,22.114,23.119c11.057-4.021,11.057-20.104,11.057-20.104s7.036,29.15,22.114,25.13
							c14.073-4.021,15.078-24.124,15.078-24.124s10.052,28.145,27.14,26.135s11.057-24.124,11.057-24.124
							s14.073,24.124,26.135,19.099c13.067-5.026,10.052-18.093,10.052-18.093s28.145,34.176,40.207,27.14
							c12.062-7.036,14.073-24.124,14.073-24.124s10.052,31.161,20.104,24.124s11.057-20.104,11.057-20.104l9.047,10.052
							c4.021,3.016,14.073,11.057,21.109,10.052c8.042-1.005,6.031-28.145-3.015-53.275s-38.197-84.435-38.197-84.435
							s15.078,19.098,21.109,13.067c6.031-6.031-20.104-81.42-33.171-99.513c0,2.01,0,18.093-12.062,24.124
							c-16.083,7.036-30.156-28.145-30.156-28.145s-7.036,14.073-20.104,19.098s-22.114-20.104-22.114-20.104
							s2.01,23.119-15.078,25.13c-17.088,2.01-27.14-26.135-27.14-26.135s-1.005,20.104-15.078,24.124
							c-14.073,4.021-22.114-25.13-22.114-25.13s1.005,16.083-11.057,20.104c-11.057,4.021-22.114-23.119-22.114-23.119
							s-10.052,26.135-27.14,33.171s-20.104-34.176-20.104-34.176s-19.098,22.114-31.16,19.098
							c-12.062-4.021-12.062-24.124-12.062-24.124l0,0c-5.026,9.047-55.285,103.534-56.29,129.668
							c-2.01,27.14,25.13,4.021,25.13,4.021s-39.202,53.275-42.218,73.378c-3.016,20.104,19.098-2.01,19.098-2.01
							s-15.078,29.15,5.026,27.14L3455.813,1906.098z"/>
						<path fill="#73B634" d="M3573.42,1525.135c8.041,0,19.098-9.047,19.098-9.047s4.021,18.093,14.073,15.078
							c10.052-3.016,14.073-14.073,14.073-14.073s6.031,13.067,13.067,12.062c7.036-2.01,11.057-10.052,11.057-10.052
							s2.01,17.088,11.057,15.078c9.047-2.01,12.062-14.073,12.062-14.073s1.005,14.073,11.057,14.073
							c10.052-1.005,13.067-13.067,13.067-13.067s7.036,17.088,14.073,15.078c8.042-2.01,4.021-16.083,4.021-16.083
							s17.088,20.104,24.124,16.083c7.036-3.016,5.026-12.062,5.026-12.062s4.021,7.036,9.047,13.067
							c0-1.005-1.005-1.005-1.005-2.01c0,0,13.067,11.057,18.093,3.016c5.026-8.041-22.114-65.337-36.187-83.43
							c0,0,13.067,14.073,19.098,9.047c6.031-5.026-27.14-67.347-40.207-80.414c0,0,15.078,12.062,19.099,7.036
							c5.026-6.031-54.28-81.42-54.28-81.42s-5.026-7.036-8.042-6.031c-3.016,0-42.218,38.197-54.28,55.285
							c-12.062,17.088-12.062,28.145-4.021,27.14c7.036-1.005,11.057-5.026,11.057-6.031l0,0l0,0
							c-3.015,3.016-42.218,49.254-42.218,58.301c1.005,9.047,15.078-2.01,15.078-2.01s-48.249,56.29-47.243,83.43
							c0,0,0,7.036,6.031,5.026c6.031-2.01,12.062-7.036,12.062-7.036s-3.016,4.021-7.036,9.047
							c8.042-4.021,16.083-9.047,16.083-9.047s-5.026,11.057,2.01,10.052L3573.42,1525.135z"/>
					</g>
				</g>
				<g>
					<path fill="#1DA63F" d="M3642.777,2335.311l77.399-6.031c0,0,15.078-17.088,29.15-19.098c0,0-16.083-3.016-25.13,4.021
						c0,0,8.042-16.083,22.114-19.099c0,0-23.119-4.021-36.187,10.052c0,0,2.01-18.093,17.088-26.135c0,0-22.114,2.01-32.166,18.093
						c0,0-5.026-22.114,1.005-38.197c0,0-20.104,18.093-18.093,40.207c0,0-13.067-27.14-38.197-21.109
						c0,0,19.098,11.057,20.104,27.14c0,0-8.042-10.052-20.104-8.042c0,0,9.047,7.036,9.047,15.078c0,0-16.083-13.067-37.192-3.016
						C3611.616,2309.176,3639.761,2317.218,3642.777,2335.311z"/>
					<g>
						<path fill="#1F8A34" d="M3748.321,2309.176c0,0-16.083-3.015-25.129,4.021c0,0,8.041-16.083,22.114-19.098
							c0,0-23.119-4.021-36.187,10.052c0,0,2.01-18.093,17.088-26.135c0,0-22.114,2.01-32.166,18.093c0,0-5.026-22.114,1.005-38.197
							c0,0-20.104,18.093-18.093,40.207c0,0,1.005,5.026,4.021,10.052c0,0-2.01-9.047,1.005-16.083c0,0,3.015,16.083,7.036,24.124
							c0,0,2.01-18.093,15.078-26.135c0,0-10.052,14.073-8.041,28.145c0,0,12.062-17.088,27.14-19.098
							c0,0-21.109,8.042-27.14,31.161l23.119-2.01C3719.171,2328.275,3734.249,2311.187,3748.321,2309.176z"/>
					</g>
				</g>
			</g>
			<g>
				<g>
					<g>
						<path fill="#A54F14" d="M1290.653,2302.14l-31.161-239.233h-7.036l0,0l0,0l0,0l0,0l-7.036,1.005l-12.062,241.244
							c0,0-1.005,15.078,28.145,16.083h2.01C1293.668,2318.223,1290.653,2302.14,1290.653,2302.14z"/>
						<path fill="#813F0E" d="M1290.653,2302.14l-31.161-239.233h-7.036l0,0l0,0l0,0l11.057,258.332h1.005
							c30.156-3.016,27.14-19.098,27.14-19.098H1290.653z"/>
						
							<radialGradient id="SVGID_30_" cx="947.1203" cy="953.4269" r="108" gradientTransform="matrix(0.9566 -0.0453 -0.0393 -1.1019 360.5056 3295.9316)" gradientUnits="userSpaceOnUse">
							<stop  offset="0" style="stop-color:#FFFFFF"/>
							<stop  offset="0" style="stop-color:#FFFFFF"/>
							<stop  offset="0.9412" style="stop-color:#FFFFFF"/>
							<stop  offset="1" style="stop-color:#FFFFFF"/>
						</radialGradient>
						<path fill="url(#SVGID_30_)" d="M1245.42,2098.088l-8.042,200.031c0,0-2.01,11.057,7.036,15.078c0,0,8.042,6.031,9.047-6.031
							c1.005-13.067-3.016-206.062-3.016-206.062L1245.42,2098.088z"/>
					</g>
					<g>
						<path fill="#73B634" d="M1361.016,1803.57l1.005,1.005l0,0C1361.016,1803.57,1361.016,1803.57,1361.016,1803.57z"/>
						<path fill="#73B634" d="M1362.021,1804.575L1362.021,1804.575L1362.021,1804.575L1362.021,1804.575z"/>
						<path fill="#73B634" d="M1338.901,1747.28c0,0,1.005,1.005,4.021,3.016C1341.917,1749.29,1339.907,1748.285,1338.901,1747.28z
							"/>
						<path fill="#51AE3B" d="M1144.901,1823.674c10.052,2.01,24.124-16.083,24.124-16.083s4.021,32.166,18.093,26.135
							c13.067-6.031,20.104-27.14,20.104-27.14s9.047,21.109,18.093,17.088s7.036-16.083,7.036-16.083s7.036,22.114,18.093,19.098
							c11.057-4.021,11.057-20.104,11.057-20.104s9.047,22.114,23.119,19.099c14.073-2.01,11.057-20.104,11.057-20.104
							s9.047,19.098,18.093,15.078c10.052-4.021,15.078-16.083,15.078-16.083s13.067,27.14,25.13,21.109
							c9.047-5.026,8.041-17.088,8.041-19.099l-1.005-1.005c0,0,0,0,1.005,1.005l0,0l0,0c4.021,3.016,12.062,10.052,16.083,6.031
							c4.021-5.026-23.119-48.249-36.187-61.316c-2.01-2.01-4.021-3.016-4.021-3.016c1.005,1.005,2.01,2.01,4.021,3.016
							c4.021,3.016,10.052,7.036,13.067,4.021c5.026-4.021-25.13-57.295-37.192-72.373c-4.021-4.021-8.042-9.047-8.042-9.047
							s2.01,7.036-3.016,9.047c-6.031,3.016-20.104-12.062-20.104-12.062s4.021,11.057-2.01,13.067s-12.062-11.057-12.062-11.057
							s-1.005,10.052-10.052,11.057c-8.041,1.005-9.047-10.052-9.047-10.052s-2.01,10.052-9.047,12.062s-9.047-11.057-9.047-11.057
							s-3.016,7.036-8.041,9.047s-11.057-8.042-11.057-8.042s-2.01,9.047-10.052,12.062c-8.041,3.016-12.062-11.057-12.062-11.057
							s-8.042,7.036-14.073,8.041c-6.031,1.005-2.01-8.041-2.01-8.041s-5.026,4.021-12.062,8.041
							c-9.047,14.073-27.14,42.218-27.14,52.27c0,14.073,14.073-4.021,14.073-4.021s-34.176,58.301-33.171,74.383
							c1.005,16.083,15.078-1.005,15.078-1.005s0,0,0,1.005l0,0c0,0,1.005,16.083,11.057,19.098L1144.901,1823.674z"/>
						<path fill="#73B634" d="M1207.223,1562.326L1207.223,1562.326L1207.223,1562.326z"/>
						<path fill="#1F8A34" d="M1392.176,1966.409c0,0,0,10.052-7.036,17.088c-8.042,6.031-18.093-18.093-18.093-18.093
							s-1.005,14.073-10.052,20.104c-9.047,6.031-33.171-20.104-33.171-20.104s3.016,10.052-7.036,15.078
							c-10.052,4.021-22.114-14.073-22.114-14.073s6.031,17.088-7.036,20.104c-14.073,2.01-23.119-19.099-23.119-19.099
							s0,16.083-11.057,20.104c-11.057,4.021-18.093-19.098-18.093-19.098s1.005,13.067-8.041,16.083
							c-9.047,4.021-18.093-17.088-18.093-17.088s-3.016,17.088-17.088,24.124c-13.067,6.031-20.104-22.114-20.104-22.114
							s-14.073,15.078-24.124,16.083c-10.052,1.005-4.021-17.088-4.021-17.088s-22.114,22.114-38.197,25.13
							c-16.083,2.01-6.031-21.109-6.031-21.109s-26.135,49.254-24.124,63.326c2.01,14.073,19.099-11.057,19.099-11.057
							s-20.104,32.166-22.114,51.264c-2.01,18.093,6.031,14.073,10.052,12.062c4.021-3.015,12.062-13.067,12.062-13.067
							s-14.073,33.171-6.031,43.223c8.042,10.052,32.166-12.062,32.166-12.062s-17.088,23.119-10.052,29.15
							c7.036,5.026,49.254-23.119,49.254-23.119s-15.078,17.088-7.036,22.114c8.041,5.026,50.259-14.073,50.259-14.073
							s-12.062,11.057-4.021,14.073c8.042,4.021,44.228-17.088,44.228-17.088s0,20.104,8.041,21.109
							c7.036,0,17.088-22.114,17.088-22.114s22.114,27.14,29.15,21.109c7.036-6.031,2.01-18.093,2.01-18.093
							s22.114,22.114,33.171,19.099c11.057-3.016,6.031-19.099,6.031-19.099s30.156,16.083,38.197,10.052
							c7.036-6.031-4.021-19.099-4.021-19.099s18.093,14.073,28.145,12.062c10.052-2.01,6.031-15.078,6.031-15.078
							s9.047,9.047,17.088,7.036c8.042-2.01-14.073-23.119-14.073-23.119s15.078,11.057,22.114,6.031
							c7.036-4.021-13.067-45.233-25.13-57.295c0,0,16.083,12.062,20.104,6.031c5.026-7.036-19.098-62.321-28.145-69.358
							c0,0,0,0,1.005,1.005l-7.036-8.042L1392.176,1966.409z"/>
						<path fill="#1DA63F" d="M1105.699,1992.544c16.083-2.01,38.197-25.13,38.197-25.13s-6.031,18.093,4.021,17.088
							c10.052-1.005,24.124-16.083,24.124-16.083s7.036,29.15,20.104,22.114c13.067-6.031,17.088-24.124,17.088-24.124
							s9.047,21.109,18.093,17.088c9.047-4.021,8.041-16.083,8.041-16.083s7.036,22.114,18.093,19.099
							c11.057-4.021,11.057-20.104,11.057-20.104s9.047,22.114,23.119,19.098c14.073-2.01,7.036-20.104,7.036-20.104
							s12.062,19.098,22.114,14.073c10.052-4.021,7.036-15.078,7.036-15.078s24.124,25.13,33.171,20.104
							c9.047-6.031,10.052-20.104,10.052-20.104s10.052,24.124,18.093,18.093c8.041-6.031,7.036-17.088,7.036-17.088l7.036,8.041
							c3.016,2.01,12.062,8.042,17.088,7.036c6.031-1.005,3.016-23.119-6.031-42.218c-9.047-20.104-35.181-65.337-35.181-65.337
							s13.067,14.073,17.088,9.047c4.021-5.026-20.104-63.326-31.161-77.399c0,2.01,1.005,15.078-8.042,19.099
							c-12.062,6.031-25.13-21.109-25.13-21.109s-5.026,12.062-15.078,16.083c-10.052,4.021-18.093-15.078-18.093-15.078
							s3.016,18.093-11.057,20.104c-14.073,2.01-23.119-19.099-23.119-19.099s0,16.083-11.057,20.104
							c-11.057,4.021-18.093-19.098-18.093-19.098s1.005,13.067-7.036,16.083c-9.047,4.021-18.093-17.088-18.093-17.088
							s-6.031,21.109-20.104,27.14c-13.067,6.031-18.093-26.135-18.093-26.135s-14.073,19.098-24.124,16.083
							c-10.052-2.01-11.057-19.099-11.057-19.099l0,0c-3.016,7.036-38.197,85.44-38.197,105.544c0,22.114,20.104,2.01,20.104,2.01
							s-28.145,44.228-30.156,60.311c-1.005,16.083,15.078-3.016,15.078-3.016s-10.052,24.124,6.031,21.109V1992.544z"/>
						<path fill="#73B634" d="M1179.078,1682.948c6.031-1.005,14.073-8.041,14.073-8.041s4.021,14.073,12.062,11.057
							c8.041-3.016,10.052-12.062,10.052-12.062s6.031,10.052,11.057,8.042c5.026-2.01,8.042-9.047,8.042-9.047
							s3.016,13.067,9.047,11.057c7.036-2.01,9.047-12.062,9.047-12.062s1.005,11.057,9.047,10.052
							c8.041-1.005,10.052-11.057,10.052-11.057s6.031,13.067,12.062,11.057c6.031-2.01,2.01-13.067,2.01-13.067
							s15.078,15.078,20.104,12.062c6.031-3.016,3.016-9.047,3.016-9.047s4.021,5.026,8.041,9.047l-1.005-1.005
							c0,0,11.057,8.042,14.073,1.005c4.021-7.036-21.109-51.264-33.171-64.332c0,0,11.057,10.052,15.078,6.031
							s-25.13-52.269-36.187-61.316c0,0,12.062,9.047,16.083,4.021c3.016-5.026-47.244-62.321-47.244-62.321
							s-4.021-5.026-6.031-5.026s-31.161,33.171-40.207,47.243c-9.047,14.073-8.042,23.119-2.01,21.109
							c5.026-1.005,8.041-4.021,9.047-5.026l0,0l0,0c-2.01,3.016-31.161,41.212-30.155,48.249
							c1.005,7.036,12.062-3.016,12.062-3.016s-35.181,47.244-33.171,68.352c0,0,0,5.026,5.026,3.016
							c5.026-2.01,9.047-6.031,9.047-6.031s-2.01,3.016-5.026,8.041c6.031-4.021,12.062-8.041,12.062-8.041s-4.021,9.047,2.01,8.041
							L1179.078,1682.948z"/>
					</g>
				</g>
				<g>
					<path fill="#1DA63F" d="M1221.295,2325.259l92.477,1.005c0,0,20.104-19.098,37.192-20.104c0,0-19.098-5.026-31.161,2.01
						c0,0,11.057-18.093,29.15-20.104c0,0-26.135-7.036-45.233,8.042c0,0,4.021-21.109,24.124-29.15c0,0-27.14-1.005-40.207,18.093
						c0,0-3.016-26.135,6.031-45.233c0,0-26.135,19.098-26.135,46.238c0,0-12.062-33.171-43.223-29.15
						c0,0,21.109,15.078,21.109,35.181c0,0-9.047-13.067-23.119-12.062c0,0,10.052,9.047,10.052,19.098
						c0,0-17.088-18.093-44.228-8.042c0,0,33.171,12.062,34.176,35.181L1221.295,2325.259z"/>
					<g>
						<path fill="#1F8A34" d="M1350.964,2307.166c0,0-19.098-5.026-31.161,2.01c0,0,11.057-18.093,29.15-20.104
							c0,0-26.135-7.036-45.233,8.042c0,0,4.021-21.109,24.124-29.15c0,0-27.14-1.005-40.207,18.093c0,0-3.016-26.135,6.031-45.233
							c0,0-26.135,19.099-26.135,46.239c0,0,1.005,6.031,3.016,13.067c0,0-1.005-11.057,3.016-19.098c0,0,1.005,20.104,6.031,29.15
							c0,0,4.021-21.109,20.104-30.156c0,0-14.073,16.083-13.067,33.171c0,0,17.088-19.098,35.181-20.104
							c0,0-26.135,7.036-36.187,33.171h28.145c0,0,20.104-19.098,37.192-20.104V2307.166z"/>
					</g>
				</g>
			</g>
			<g>
				<g>
					<g>
						<path fill="#A54F14" d="M3323.129,2081l-27.14-203.047h-6.031l0,0l0,0l0,0l0,0l-6.031,1.005l-10.052,205.057
							c0,0-1.005,13.067,24.125,14.073h1.005c25.129-3.016,23.119-16.083,23.119-16.083L3323.129,2081z"/>
						<path fill="#813F0E" d="M3323.129,2081l-27.14-203.047h-6.031l0,0l0,0l0,0l9.047,220.135h1.005
							c25.13-3.016,23.119-16.083,23.119-16.083V2081z"/>
						
							<radialGradient id="SVGID_31_" cx="2973.6597" cy="1165.7549" r="92" gradientTransform="matrix(0.9532 -0.0469 -0.0407 -1.0971 484.133 3415.9412)" gradientUnits="userSpaceOnUse">
							<stop  offset="0" style="stop-color:#FFFFFF"/>
							<stop  offset="0" style="stop-color:#FFFFFF"/>
							<stop  offset="0.9412" style="stop-color:#FFFFFF"/>
							<stop  offset="1" style="stop-color:#FFFFFF"/>
						</radialGradient>
						<path fill="url(#SVGID_31_)" d="M3283.927,1907.104l-6.031,169.876c0,0-2.01,9.047,6.031,13.067c0,0,6.031,5.026,7.036-5.026
							c1.005-11.057-3.016-174.902-3.016-174.902L3283.927,1907.104z"/>
					</g>
					<g>
						<path fill="#73B634" d="M3382.435,1656.813l1.005,1.005l0,0C3382.435,1656.813,3382.435,1656.813,3382.435,1656.813z"/>
						<path fill="#73B634" d="M3382.435,1657.819L3382.435,1657.819L3382.435,1657.819L3382.435,1657.819z"/>
						<path fill="#73B634" d="M3363.337,1608.565c0,0,1.005,1.005,3.016,3.016
							C3365.347,1610.575,3364.342,1609.57,3363.337,1608.565z"/>
						<path fill="#51AE3B" d="M3198.487,1674.907c9.047,2.01,20.104-14.073,20.104-14.073s4.021,27.14,15.078,22.114
							c11.057-6.031,17.088-23.119,17.088-23.119s8.042,18.093,16.083,15.078c8.041-3.016,6.031-14.073,6.031-14.073
							s6.031,19.098,16.083,16.083c9.047-3.016,9.047-17.088,9.047-17.088s8.041,19.099,19.098,17.088
							c11.057-2.01,9.047-17.088,9.047-17.088s7.036,16.083,16.083,12.062c8.042-4.021,13.067-14.073,13.067-14.073
							s11.057,23.119,21.109,18.093c8.042-4.021,7.036-15.078,7.036-16.083l-1.005-1.005c0,0,0,0,1.005,1.005l0,0l0,0
							c3.016,3.016,11.057,9.047,13.067,5.026c3.016-4.021-20.104-41.212-31.161-51.264c-2.01-1.005-3.015-3.016-3.015-3.016
							c1.005,1.005,2.01,1.005,3.015,3.016c3.016,3.016,9.047,6.031,11.057,4.021c4.021-3.016-21.109-48.249-32.166-61.316
							c-4.021-4.021-7.036-8.041-7.036-8.041s2.01,6.031-3.015,8.041c-5.026,2.01-17.088-10.052-17.088-10.052
							s3.015,9.047-2.01,11.057s-10.052-9.047-10.052-9.047s-1.005,8.041-8.042,9.047c-7.036,1.005-8.041-9.047-8.041-9.047
							s-2.01,9.047-7.036,10.052c-6.031,2.01-8.042-10.052-8.042-10.052s-2.01,6.031-7.036,7.036
							c-5.026,2.01-9.047-7.036-9.047-7.036s-2.01,7.036-9.047,10.052c-7.036,3.016-10.052-9.047-10.052-9.047
							s-7.036,6.031-12.062,7.036c-5.026,1.005-2.01-7.036-2.01-7.036s-5.026,4.021-10.052,7.036
							c-8.042,12.062-23.119,36.187-23.119,44.228c0,12.062,12.062-3.016,12.062-3.016s-29.15,49.254-28.145,63.326
							c1.005,14.073,13.067-1.005,13.067-1.005l0,0l0,0c0,0,1.005,14.073,9.047,16.083L3198.487,1674.907z"/>
						<path fill="#73B634" d="M3250.756,1452.762L3250.756,1452.762L3250.756,1452.762z"/>
						<path fill="#1F8A34" d="M3408.57,1794.523c0,0,0,9.047-6.031,14.073c-7.036,5.026-15.078-15.078-15.078-15.078
							s-1.005,12.062-9.047,17.088c-8.041,5.026-28.145-17.088-28.145-17.088s2.01,9.047-6.031,13.067s-19.098-12.062-19.098-12.062
							s5.026,15.078-6.031,17.088c-11.057,2.01-19.098-17.088-19.098-17.088s0,14.073-9.047,17.088
							c-10.052,3.016-16.083-16.083-16.083-16.083s1.005,11.057-6.031,14.073c-8.042,3.016-16.083-15.078-16.083-15.078
							s-3.016,15.078-14.073,20.104c-11.057,5.026-17.088-19.099-17.088-19.099s-12.062,13.067-20.104,14.073
							c-8.042,1.005-3.016-14.073-3.016-14.073s-19.098,19.099-32.166,21.109s-5.026-18.093-5.026-18.093
							s-22.114,42.218-21.109,53.275c2.01,12.062,16.083-9.047,16.083-9.047s-17.088,28.145-19.098,43.223
							c-2.01,16.083,6.031,12.062,9.047,10.052s10.052-11.057,10.052-11.057s-12.062,28.145-5.026,36.187
							c7.036,9.047,27.14-11.057,27.14-11.057s-14.073,20.104-8.042,24.124c6.031,4.021,42.218-20.104,42.218-20.104
							s-13.067,14.073-6.031,19.098c7.036,4.021,42.218-12.062,42.218-12.062s-10.052,9.047-4.021,12.062
							c7.036,3.016,37.192-15.078,37.192-15.078s0,17.088,7.036,17.088c6.031,0,15.078-18.093,15.078-18.093
							s19.098,23.119,25.129,18.093c6.031-5.026,1.005-15.078,1.005-15.078s18.093,18.093,28.145,16.083s5.026-16.083,5.026-16.083
							s26.135,14.073,32.166,8.041c6.031-5.026-4.021-16.083-4.021-16.083s16.083,12.062,24.125,10.052
							c9.047-2.01,5.026-13.067,5.026-13.067s7.036,8.041,15.078,6.031c7.036-2.01-12.062-19.098-12.062-19.098
							s13.067,9.047,19.099,5.026c6.031-4.021-11.057-38.197-21.109-48.249c0,0,13.067,10.052,17.088,5.026
							c4.021-6.031-16.083-53.275-24.125-58.301c0,0,0,0,1.005,1.005l-6.031-6.031H3408.57z"/>
						<path fill="#1DA63F" d="M3165.316,1817.642c13.067-2.01,32.166-21.109,32.166-21.109s-5.026,15.078,3.016,14.073
							s20.104-14.073,20.104-14.073s6.031,24.124,17.088,19.098c11.057-6.031,14.073-20.104,14.073-20.104
							s8.042,18.093,16.083,15.078s6.031-14.073,6.031-14.073s6.031,19.098,16.083,16.083c9.047-3.016,9.047-17.088,9.047-17.088
							s8.042,19.099,19.098,17.088s6.031-17.088,6.031-17.088s10.052,16.083,19.099,12.062c8.041-4.021,6.031-13.067,6.031-13.067
							s20.104,22.114,28.145,17.088c8.042-5.026,9.047-17.088,9.047-17.088s8.042,20.104,15.078,15.078
							c7.036-5.026,6.031-14.073,6.031-14.073l6.031,6.031c3.016,2.01,10.052,6.031,15.078,6.031
							c5.026-1.005,3.016-19.099-5.026-36.187c-7.036-17.088-30.155-55.285-30.155-55.285s11.057,12.062,15.078,8.042
							c4.021-4.021-17.088-54.28-27.14-65.337c0,2.01,1.005,12.062-7.036,16.083c-10.052,5.026-21.109-18.093-21.109-18.093
							s-4.021,10.052-13.067,14.073c-8.042,4.021-16.083-12.062-16.083-12.062s2.01,15.078-9.047,17.088
							c-11.057,2.01-19.098-17.088-19.098-17.088s0,14.073-9.047,17.088c-10.052,3.016-16.083-16.083-16.083-16.083
							s1.005,11.057-6.031,14.073c-8.042,3.016-16.083-15.078-16.083-15.078s-5.026,18.093-17.088,23.119
							c-11.057,6.031-15.078-22.114-15.078-22.114s-12.062,16.083-20.104,14.073c-8.042-2.01-9.047-16.083-9.047-16.083l0,0
							c-3.016,6.031-32.166,72.373-32.166,90.466s17.088,1.005,17.088,1.005s-24.125,38.197-25.13,51.264
							c-1.005,13.067,13.067-2.01,13.067-2.01s-9.047,20.104,5.026,18.093V1817.642z"/>
						<path fill="#73B634" d="M3227.637,1554.285c5.026-1.005,12.062-7.036,12.062-7.036s4.021,12.062,10.052,9.047
							c7.036-3.016,9.047-10.052,9.047-10.052s5.026,9.047,9.047,7.036c5.026-2.01,7.036-7.036,7.036-7.036
							s2.01,11.057,8.042,10.052c6.031-2.01,7.036-10.052,7.036-10.052s1.005,10.052,8.042,9.047
							c7.036-1.005,8.041-9.047,8.041-9.047s5.026,11.057,10.052,9.047c5.026-2.01,2.01-11.057,2.01-11.057
							s12.062,12.062,17.088,10.052c5.026-2.01,3.015-8.041,3.015-8.041s3.016,4.021,7.036,8.041l-1.005-1.005
							c0,0,9.047,7.036,12.062,1.005c3.016-6.031-18.093-43.223-28.145-55.285c0,0,9.047,9.047,13.067,5.026
							c4.021-3.016-21.109-44.228-31.161-52.269c0,0,11.057,8.042,13.067,4.021c3.016-4.021-40.207-52.269-40.207-52.269
							s-4.021-4.021-5.026-4.021c-2.01,0-26.135,28.145-34.176,40.207c-7.036,12.062-7.036,20.104-2.01,18.093
							c5.026-1.005,7.036-4.021,7.036-4.021l0,0l0,0c-2.01,2.01-26.135,35.181-25.13,41.212c1.005,6.031,10.052-2.01,10.052-2.01
							s-30.155,40.207-28.145,58.301c0,0,0,4.021,4.021,3.016c4.021-2.01,8.042-5.026,8.042-5.026s-2.01,3.016-4.021,6.031
							c5.026-3.016,10.052-7.036,10.052-7.036s-3.016,8.041,2.01,7.036L3227.637,1554.285z"/>
					</g>
				</g>
				<g>
					<path fill="#1F8A34" d="M3249.751,2064.917c0,0-2.01-17.088-19.098-18.093c-17.088,0-22.114,14.072-22.114,14.072
						s0-28.145-30.156-26.135s-15.078,42.218-15.078,42.218s-8.042-11.057-19.099-5.026c-11.057,6.031-5.026,17.088-5.026,17.088
						s-9.047-19.099-27.14-9.047c-18.093,10.052-5.026,32.166,4.021,35.181c0,0-12.062-2.01-18.093,7.036
						c-6.031,9.047,3.016,16.083,3.016,16.083s-18.093-9.047-27.14,3.015c-9.047,12.062,3.016,24.125,11.057,23.119
						c0,0-11.057,1.005-9.047,14.073c2.01,13.067,25.13,17.088,25.13,17.088h361.865c0,0,15.078-1.005,15.078-14.073
						s-14.073-14.073-19.098-10.052c0,0,19.098-11.057,13.067-27.14c-6.031-17.088-26.135-5.026-26.135-5.026
						s11.057-17.088-1.005-26.135c-13.067-9.047-24.124,2.01-24.124,2.01s7.036-6.031,1.005-18.093
						c-5.026-11.057-25.13-6.031-30.156,4.021c0,0,14.073-20.104,1.005-35.181c-13.067-15.078-34.176,7.036-32.166,25.129
						c0,0,2.01-19.098-12.062-21.109c-14.073-2.01-19.099,9.047-19.099,9.047s6.031-13.067-5.026-21.109
						c-11.057-8.042-20.104,8.042-20.104,8.042s1.005-33.171-24.124-31.161C3253.772,2036.772,3249.751,2064.917,3249.751,2064.917z
						"/>
					<path fill="#1DA63F" d="M3238.694,2089.042c0,0-2.01-14.073-16.083-14.073s-17.088,11.057-17.088,11.057
						s0-23.119-24.124-21.109c-24.125,2.01-13.067,34.176-13.067,34.176s-6.031-9.047-16.083-4.021
						c-9.047,5.026-4.021,14.073-4.021,14.073s-7.036-15.078-22.114-7.036c-15.078,8.041-4.021,26.135,4.021,29.15
						c0,0-10.052-2.01-14.073,6.031c-5.026,7.036,3.016,13.067,3.016,13.067s-15.078-7.036-22.114,2.01
						c-8.042,10.052,3.016,19.098,9.047,19.098c0,0-9.047,1.005-7.036,11.057c2.01,10.052,20.104,14.073,20.104,14.073h293.513
						c0,0,12.062-1.005,12.062-12.062c0-11.057-11.057-11.057-16.083-8.042c0,0,15.078-9.047,11.057-22.114
						c-5.026-14.073-21.109-4.021-21.109-4.021s9.047-14.073-1.005-21.109c-10.052-8.042-20.104,1.005-20.104,1.005
						s5.026-5.026,1.005-14.073s-20.104-5.026-24.124,4.021c0,0,11.057-16.083,1.005-28.145
						c-11.057-12.062-28.145,6.031-26.135,21.109c0,0,2.01-16.083-10.052-17.088c-12.062-1.005-16.083,7.036-16.083,7.036
						s5.026-11.057-4.021-17.088s-16.083,6.031-16.083,6.031s1.005-27.14-20.104-25.129c-21.109,1.005-25.13,24.124-25.13,24.124
						L3238.694,2089.042z"/>
				</g>
			</g>
		</g>
	</g>
</g>
</svg>
