<!-- Generator: Adobe Illustrator 17.0.0, SVG Export Plug-In  -->
<svg version="1.1"
	 xmlns="http://www.w3.org/2000/svg" xmlns:xlink="http://www.w3.org/1999/xlink" xmlns:a="http://ns.adobe.com/AdobeSVGViewerExtensions/3.0/"
	 x="0px" y="0px" width="233.609px" height="125.646px" viewBox="0 0 233.609 125.646" enable-background="new 0 0 233.609 125.646"
	 xml:space="preserve">
<defs>
</defs>
<path fill-rule="evenodd" clip-rule="evenodd" fill="#FFFFFF" d="M116.805,0.54C73.391,0.54,33.135,14.051,0,37.087v88.559h233.609
	V37.087C200.475,14.051,160.221,0.54,116.805,0.54"/>
<g opacity="0.5">
	<g>
		<defs>
			<rect id="SVGID_1_" x="0" y="0.001" width="119.348" height="37.67"/>
		</defs>
		<clipPath id="SVGID_2_">
			<use xlink:href="#SVGID_1_"  overflow="visible"/>
		</clipPath>
		<path opacity="0.2" clip-path="url(#SVGID_2_)" d="M118.899,0.135C72.315-1.962,10.358,20.962,1.137,24.485
			C0.541,24.713,0.131,25.231,0,25.84v11.83c0-0.617,0.303-1.199,0.813-1.551C33.793,13.428,73.744,0.135,116.805,0.135
			c0.85,0,1.695,0.014,2.543,0.025C119.197,0.153,119.053,0.143,118.899,0.135"/>
	</g>
</g>
<g opacity="0.5">
	<g>
		<defs>
			<rect id="SVGID_3_" x="113.969" y="0.001" width="119.35" height="37.67"/>
		</defs>
		<clipPath id="SVGID_4_">
			<use xlink:href="#SVGID_3_"  overflow="visible"/>
		</clipPath>
		<path opacity="0.2" clip-path="url(#SVGID_4_)" d="M114.418,0.135c46.586-2.098,108.541,20.826,117.762,24.35
			c0.598,0.229,1.006,0.746,1.139,1.355v11.83c0-0.617-0.305-1.199-0.813-1.551c-32.98-22.691-72.932-35.984-115.992-35.984
			c-0.852,0-1.697,0.014-2.545,0.025C114.121,0.153,114.266,0.143,114.418,0.135"/>
	</g>
</g>
</svg>