<!-- Generator: Adobe Illustrator 17.0.0, SVG Export Plug-In  -->
<svg version="1.1"
	 xmlns="http://www.w3.org/2000/svg" xmlns:xlink="http://www.w3.org/1999/xlink" xmlns:a="http://ns.adobe.com/AdobeSVGViewerExtensions/3.0/"
	 x="0px" y="0px" width="76.511px" height="74.6px" viewBox="0 0 76.511 74.6" enable-background="new 0 0 76.511 74.6"
	 xml:space="preserve">
<defs>
</defs>
<path fill-rule="evenodd" clip-rule="evenodd" d="M38.446,0c4.532,0,8.226,3.717,8.226,8.273s-3.693,8.273-8.226,8.273
	c-4.53,0-8.228-3.717-8.228-8.273S33.916,0,38.446,0"/>
<path fill-rule="evenodd" clip-rule="evenodd" d="M8.486,26.703v0.031l-0.04,0.303c0,0.426,0.241,0.744,0.727,0.953
	c0.488,0.207,1.242,0.313,2.261,0.313c0.776,0,1.383-0.088,1.824-0.258c0.443-0.17,0.663-0.404,0.663-0.703
	c0-0.453-0.875-0.817-2.614-1.102c-0.203-0.031-0.355-0.057-0.455-0.072c-0.111-0.02-0.275-0.047-0.488-0.082
	c-2.767-0.453-4.545-0.941-5.33-1.471c-0.383-0.262-0.676-0.565-0.873-0.916c-0.192-0.352-0.289-0.75-0.289-1.188
	c0-1.084,0.635-1.906,1.904-2.471c1.27-0.565,3.131-0.848,5.578-0.848c2.42,0,4.21,0.264,5.377,0.793
	c1.164,0.531,1.748,1.35,1.748,2.447v0.127h-4.583v-0.049c0-0.381-0.227-0.664-0.691-0.857c-0.464-0.197-1.144-0.295-2.038-0.295
	c-0.693,0-1.231,0.068-1.604,0.207c-0.379,0.139-0.566,0.338-0.566,0.594c0,0.457,0.997,0.846,2.995,1.168
	c0.384,0.057,0.686,0.105,0.904,0.139c1.424,0.238,2.438,0.443,3.04,0.615c0.603,0.17,1.123,0.373,1.562,0.605
	c0.484,0.266,0.867,0.604,1.129,1.012c0.265,0.406,0.397,0.851,0.397,1.338c0,1.115-0.694,1.971-2.076,2.572
	c-1.385,0.6-3.379,0.9-5.976,0.9c-2.571,0-4.431-0.289-5.581-0.865c-1.15-0.58-1.72-1.504-1.72-2.779v-0.162H8.486z M21.034,30.326
	V19.357h13.058v2.363h-8.154v1.748h7.541v2.334h-7.541v2.129h8.465v2.394H21.034z M36.448,30.326V19.357h6.206l6.64,7.357v-7.357
	h4.711v10.969H47.57l-6.427-7.385v7.385H36.448z M66.673,25.951l-2.347-3.986l-2.48,3.986H66.673z M59.203,30.326h-4.916
	l7.59-10.969h5.439l7.24,10.969h-5.46l-1.105-1.98h-7.606L59.203,30.326z"/>
<path fill-rule="evenodd" clip-rule="evenodd" d="M14.515,68.99l-4.38-4.117l13.334-23.141c0.727-1.264-0.184-2.84-1.641-2.84H0
	v-5.789h35.134L14.515,68.99z"/>
<path fill-rule="evenodd" clip-rule="evenodd" d="M61.996,68.99l4.381-4.117L53.043,41.732c-0.727-1.264,0.183-2.84,1.64-2.84
	h21.828v-5.789H41.377L61.996,68.99z"/>
<path fill-rule="evenodd" clip-rule="evenodd" d="M38.208,39.223l0.048-0.082l19.797,32.723L52.797,74.6L40.039,53.234
	c-0.752-1.26-2.575-1.262-3.322,0C32.464,60.402,24.043,74.6,24.043,74.6l-5.147-2.545C18.896,72.055,37.15,41.021,38.208,39.223"/>
</svg>