<!-- Generator: Adobe Illustrator 17.0.0, SVG Export Plug-In  -->
<svg version="1.1"
	 xmlns="http://www.w3.org/2000/svg" xmlns:xlink="http://www.w3.org/1999/xlink" xmlns:a="http://ns.adobe.com/AdobeSVGViewerExtensions/3.0/"
	 x="0px" y="0px" width="621.91px" height="398.608px" viewBox="0 0 621.91 398.608" enable-background="new 0 0 621.91 398.608"
	 xml:space="preserve">
<defs>
</defs>
<g>
	<path fill="#FFFFFF" d="M95.963,48.644c-2.389,0-4.33,2.093-4.33,4.664c0,2.573,1.941,4.667,4.33,4.667
		c2.386,0,4.328-2.094,4.328-4.667C100.291,50.736,98.349,48.644,95.963,48.644z"/>
	<path fill="#FFFFFF" d="M345.25,5.138c-3.027,0-5.494,2.655-5.494,5.917c0,3.264,2.467,5.921,5.494,5.921
		c3.025,0,5.491-2.657,5.491-5.921C350.741,7.793,348.275,5.138,345.25,5.138z"/>
	<path fill="#FFFFFF" d="M457.501,5.138c-2.108,0-3.826,1.849-3.826,4.121c0,2.273,1.718,4.124,3.826,4.124
		c2.108,0,3.824-1.85,3.824-4.124C461.325,6.987,459.609,5.138,457.501,5.138z"/>
	<path fill="#FFFFFF" d="M100.979,333.792c-2.577,0-4.675,2.096-4.675,4.672c0,2.578,2.098,4.676,4.675,4.676
		c2.575,0,4.672-2.098,4.672-4.676C105.651,335.887,103.555,333.792,100.979,333.792z"/>
	<path fill="#FFFFFF" d="M132.045,386.359c-2.891,0-5.242,2.35-5.242,5.238c0,2.891,2.352,5.243,5.242,5.243
		c2.887,0,5.238-2.353,5.238-5.243C137.283,388.708,134.932,386.359,132.045,386.359z"/>
	<path fill="#FFFFFF" d="M233.33,340.576c-2.891,0-5.242,2.35-5.242,5.238c0,2.891,2.352,5.243,5.242,5.243
		c2.887,0,5.238-2.353,5.238-5.243C238.568,342.925,236.217,340.576,233.33,340.576z"/>
	<path fill="#FFFFFF" d="M438.968,350.057c-2.891,0-5.243,2.35-5.243,5.238c0,2.891,2.352,5.243,5.243,5.243
		c2.887,0,5.238-2.353,5.238-5.243C444.206,352.407,441.854,350.057,438.968,350.057z"/>
	<path fill="#FFFFFF" d="M478.631,386.847c-2.891,0-5.242,2.35-5.242,5.238c0,2.891,2.352,5.243,5.242,5.243
		c2.887,0,5.238-2.353,5.238-5.243C483.869,389.197,481.517,386.847,478.631,386.847z"/>
	<path fill="#FFFFFF" d="M506.92,331.739c-2.031,0-3.683,1.65-3.683,3.68c0,2.03,1.651,3.683,3.683,3.683
		c2.027,0,3.679-1.652,3.679-3.683C510.599,333.389,508.947,331.739,506.92,331.739z"/>
	<g>
		<path fill="#FFFFFF" d="M26.633,198.107c-3.045,0-5.52,2.478-5.52,5.522c0,3.043,2.476,5.52,5.52,5.52
			c3.044,0,5.521-2.477,5.521-5.52C32.153,200.585,29.677,198.107,26.633,198.107z"/>
		<path fill="#FFFFFF" d="M59.5,237.831c-3.045,0-5.521,2.477-5.521,5.52c0,3.045,2.477,5.523,5.521,5.523
			c3.043,0,5.52-2.479,5.52-5.523C65.02,240.307,62.543,237.831,59.5,237.831z"/>
		<path fill="#FFFFFF" d="M31.481,154.268c-3.044,0-5.521,2.477-5.521,5.52c0,3.043,2.477,5.521,5.521,5.521
			c3.042,0,5.518-2.475,5.521-5.516c0-0.001,0-0.004,0-0.005c0-0.001,0-0.004,0-0.005C36.999,156.742,34.523,154.268,31.481,154.268
			z"/>
		<path fill="#FFFFFF" d="M85.024,133.561c-3.043,0-5.521,2.478-5.521,5.521c0,3.044,2.478,5.52,5.521,5.52
			c3.044,0,5.521-2.477,5.521-5.52C90.546,136.039,88.068,133.561,85.024,133.561z"/>
		<path fill="#FFFFFF" d="M115.546,147.17c-3.044,0-5.521,2.477-5.521,5.52c0,3.044,2.477,5.521,5.521,5.521
			c3.044,0,5.52-2.477,5.52-5.521C121.065,149.646,118.59,147.17,115.546,147.17z"/>
		<path fill="#FFFFFF" d="M500.145,164.365c3.043,0,5.521-2.477,5.521-5.52c0-3.043-2.478-5.52-5.521-5.52
			c-1.252,0-2.403,0.423-3.331,1.128c-0.028,0.047-0.054,0.095-0.089,0.141c-0.159,0.203-0.358,0.353-0.576,0.455
			c-0.942,0.99-1.525,2.326-1.525,3.797C494.623,161.888,497.1,164.365,500.145,164.365z"/>
		<path fill="#FFFFFF" d="M521.51,184.925c3.044,0,5.521-2.477,5.521-5.52c0-3.044-2.477-5.521-5.521-5.521
			c-3.044,0-5.52,2.477-5.52,5.521C515.99,182.448,518.466,184.925,521.51,184.925z"/>
		<path fill="#FFFFFF" d="M524.85,254.436c3.044,0,5.521-2.479,5.521-5.521c0-3.043-2.478-5.521-5.521-5.521
			c-3.042,0-5.52,2.479-5.52,5.521C519.33,251.958,521.808,254.436,524.85,254.436z"/>
		<path fill="#FFFFFF" d="M557.787,151.113c3.045,0,5.521-2.476,5.521-5.521c0-3.044-2.476-5.52-5.521-5.52
			c-3.045,0-5.521,2.476-5.521,5.52C552.266,148.636,554.742,151.113,557.787,151.113z"/>
		<path fill="#FFFFFF" d="M549.245,212.159c3.042,0,5.518-2.477,5.518-5.521c0-3.043-2.477-5.52-5.518-5.52
			c-3.044,0-5.521,2.477-5.521,5.52C543.725,209.682,546.201,212.159,549.245,212.159z"/>
	</g>
	<g>
		<rect x="163.995" y="108.755" fill="#94C7EB" width="280.754" height="150.893"/>
		<path fill="#FFFFFF" d="M459.732,111.647c0-9.567-7.783-17.35-17.35-17.35H166.361c-9.567,0-17.351,7.783-17.351,17.35v162.986
			h310.722V111.647z M447.902,261.225c0,0.873-0.704,1.58-1.576,1.58H162.418c-0.871,0-1.578-0.707-1.578-1.58V107.179
			c0-0.871,0.707-1.578,1.578-1.578h283.908c0.872,0,1.576,0.707,1.576,1.578V261.225z"/>
		<path fill="#FFFFFF" d="M147.434,277.788h-17.877v3.772c0,9.268,5.014,17.756,13.109,22.254h323.413
			c8.097-4.498,13.107-12.986,13.107-22.254v-3.772h-17.878H147.434z"/>
		<path d="M445.004,102.711h-283.91c-0.871,0-1.576,0.707-1.576,1.578v154.047c0,0.871,0.705,1.578,1.576,1.578h283.91
			c0.871,0,1.577-0.707,1.577-1.578V104.289C446.581,103.418,445.875,102.711,445.004,102.711z M443.427,256.758H162.671V105.866
			h280.756V256.758z"/>
		<path d="M492.451,119.799l23.721,24.012c0.295,0.3,0.699,0.469,1.122,0.469h30.646c0.746,4.032,4.281,7.098,8.525,7.098
			c4.782,0,8.676-3.893,8.676-8.676s-3.894-8.674-8.676-8.674c-4.244,0-7.781,3.066-8.525,7.097h-29.986l-23.721-24.011
			c-0.297-0.3-0.699-0.469-1.122-0.469h-31.545v-7.887c0-11.306-9.2-20.504-20.505-20.504H165.037
			c-11.306,0-20.504,9.198-20.504,20.504v7.887h-27.603c-0.25,0-0.498,0.06-0.722,0.174L90.02,130.266
			c-1.584-1.686-3.826-2.748-6.317-2.748c-4.783,0-8.675,3.892-8.675,8.675c0,4.784,3.892,8.675,8.675,8.675
			c4.783,0,8.675-3.892,8.675-8.675c0-1.153-0.231-2.253-0.641-3.261l25.574-13.132h27.223v28.423h-21.786
			c-0.745-4.032-4.28-7.098-8.524-7.098c-4.783,0-8.676,3.893-8.676,8.676s3.893,8.674,8.676,8.674c4.244,0,7.779-3.065,8.524-7.097
			h21.786v23.56h-41.284l-26.396-19.313c-0.271-0.198-0.597-0.304-0.933-0.304H38.683c-0.745-4.033-4.28-7.099-8.524-7.099
			c-4.783,0-8.675,3.892-8.675,8.675c0,4.784,3.892,8.676,8.675,8.676c4.244,0,7.779-3.066,8.524-7.098h36.723l26.399,19.313
			c0.269,0.197,0.597,0.305,0.931,0.305h41.799v21.07h-38.842c-0.344,0-0.678,0.111-0.951,0.318l-26.59,20.107L54.666,199.54
			c-0.285-0.242-0.648-0.377-1.025-0.377H33.833c-0.743-4.033-4.279-7.1-8.524-7.1c-4.783,0-8.675,3.893-8.675,8.677
			c0,4.782,3.892,8.674,8.675,8.674c4.244,0,7.78-3.065,8.524-7.097h19.228l24.005,20.494c0.294,0.252,0.659,0.377,1.024,0.377
			c0.334,0,0.669-0.107,0.951-0.32l27.18-20.551h38.313v36.566h-37.408c-0.311,0-0.613,0.09-0.872,0.263l-19.36,12.847
			l-20.089-12.44c-0.456-4.357-4.151-7.767-8.628-7.767c-4.783,0-8.674,3.892-8.674,8.676c0,4.783,3.891,8.674,8.674,8.674
			c3.884,0,7.178-2.563,8.281-6.086l19.635,12.16c0.254,0.156,0.542,0.236,0.83,0.236c0.303,0,0.608-0.088,0.871-0.264
			l19.809-13.143h36.932v29.703h-17.876c-0.871,0-1.578,0.707-1.578,1.578v5.35c0,10.563,5.792,20.223,15.117,25.221
			c0.229,0.121,0.485,0.188,0.744,0.188h324.218c0.26,0,0.517-0.066,0.745-0.188c9.324-4.998,15.116-14.66,15.116-25.221v-5.35
			c0-0.871-0.706-1.578-1.578-1.578h-17.876v-35.309h27.292l26.071,10.68c0.539,4.27,4.186,7.586,8.599,7.586
			c4.783,0,8.676-3.893,8.676-8.674c0-4.783-3.893-8.677-8.676-8.677c-4.011,0-7.387,2.743-8.375,6.448l-25.388-10.399
			c-0.188-0.079-0.392-0.118-0.597-0.118h-27.603v-27.953h36.931l19.809,13.143c0.264,0.177,0.566,0.264,0.872,0.264
			c0.287,0,0.575-0.078,0.829-0.235l19.635-12.16c1.104,3.522,4.398,6.087,8.281,6.087c4.783,0,8.675-3.893,8.675-8.676
			c0-4.781-3.892-8.676-8.675-8.676c-4.477,0-8.17,3.41-8.627,7.768l-20.088,12.442l-19.362-12.849
			c-0.26-0.17-0.564-0.262-0.874-0.262h-37.405v-24.08h50.097c0.746,4.033,4.282,7.098,8.524,7.098c4.783,0,8.677-3.892,8.677-8.675
			c0-4.784-3.893-8.675-8.677-8.675c-4.242,0-7.78,3.064-8.524,7.098h-50.097v-34.196h17.331l12.905,10.138
			c-1.037,1.43-1.655,3.181-1.655,5.076c0,4.784,3.892,8.676,8.675,8.676c4.781,0,8.675-3.892,8.675-8.676
			c0-4.783-3.894-8.675-8.675-8.675c-1.735,0-3.353,0.519-4.712,1.401l-13.693-10.757c-0.278-0.22-0.622-0.338-0.975-0.338h-17.876
			v-17.788H492.451z M556.465,137.182c3.042,0,5.52,2.477,5.52,5.521c0,3.044-2.478,5.52-5.52,5.52c-3.044,0-5.521-2.476-5.521-5.52
			C550.943,139.659,553.421,137.182,556.465,137.182z M83.702,141.713c-3.044,0-5.521-2.477-5.521-5.521s2.477-5.52,5.521-5.52
			c3.043,0,5.519,2.477,5.519,5.52S86.745,141.713,83.702,141.713z M114.223,155.322c-3.044,0-5.521-2.477-5.521-5.521
			s2.477-5.52,5.521-5.52c3.045,0,5.521,2.477,5.521,5.52S117.268,155.322,114.223,155.322z M35.679,156.904
			c-0.003,3.041-2.479,5.515-5.521,5.515c-3.043,0-5.521-2.477-5.521-5.521c0-3.042,2.478-5.519,5.521-5.519
			c3.042,0,5.518,2.474,5.521,5.515c0,0.001,0,0.003,0,0.004C35.679,156.899,35.679,156.902,35.679,156.904z M25.309,206.26
			c-3.043,0-5.521-2.477-5.521-5.52c0-3.045,2.478-5.523,5.521-5.523c3.044,0,5.521,2.477,5.521,5.523
			C30.83,203.784,28.354,206.26,25.309,206.26z M58.176,245.981c-3.043,0-5.52-2.477-5.52-5.52c0-3.045,2.477-5.521,5.52-5.521
			c3.045,0,5.521,2.477,5.521,5.521C63.697,243.504,61.221,245.981,58.176,245.981z M147.688,108.758
			c0-9.567,7.783-17.35,17.35-17.35H441.06c9.566,0,17.35,7.783,17.35,17.35v162.985H147.688V108.758z M477.865,274.899v3.772
			c0,9.266-5.014,17.756-13.109,22.252H141.344c-8.097-4.496-13.109-12.986-13.109-22.252v-3.772h17.877h313.875H477.865z
			 M523.527,240.504c3.045,0,5.522,2.477,5.522,5.521c0,3.041-2.477,5.52-5.522,5.52c-3.043,0-5.521-2.479-5.521-5.52
			C518.007,242.981,520.484,240.504,523.527,240.504z M547.922,198.228c3.044,0,5.52,2.478,5.52,5.521
			c0,3.045-2.476,5.521-5.52,5.521c-3.045,0-5.521-2.477-5.521-5.521C542.4,200.706,544.877,198.228,547.922,198.228z
			 M520.187,170.995c3.044,0,5.52,2.477,5.52,5.52c0,3.043-2.477,5.52-5.52,5.52c-3.044,0-5.52-2.477-5.52-5.52
			C514.667,173.471,517.143,170.995,520.187,170.995z M494.825,152.158c0.22-0.1,0.417-0.252,0.577-0.455
			c0.035-0.044,0.06-0.093,0.088-0.141c0.929-0.704,2.08-1.127,3.331-1.127c3.043,0,5.519,2.477,5.519,5.52
			c0,3.044-2.476,5.521-5.519,5.521c-3.044,0-5.521-2.477-5.521-5.521C493.301,154.485,493.883,153.148,494.825,152.158z"/>
	</g>
	<g>
		<path d="M459.166,16.721c-3.712,0-6.728-3.155-6.728-7.031c0-3.882,3.017-7.037,6.728-7.037c3.712,0,6.73,3.155,6.73,7.037
			C465.896,13.566,462.878,16.721,459.166,16.721z M459.166,5.898c-1.996,0-3.623,1.7-3.623,3.791c0,2.085,1.627,3.787,3.623,3.787
			c1.997,0,3.623-1.701,3.623-3.787C462.789,7.599,461.163,5.898,459.166,5.898z"/>
	</g>
	<g>
		<path d="M100.033,343.987c-3.877,0-7.027-3.293-7.027-7.342c0-4.055,3.15-7.35,7.027-7.35c3.875,0,7.029,3.295,7.029,7.35
			C107.063,340.694,103.908,343.987,100.033,343.987z M100.033,332.686c-2.085,0-3.784,1.775-3.784,3.959
			c0,2.178,1.699,3.955,3.784,3.955c2.086,0,3.783-1.777,3.783-3.955C103.816,334.461,102.119,332.686,100.033,332.686z"/>
	</g>
	<g>
		<path d="M98.153,59.687c-3.712,0-6.729-3.155-6.729-7.032c0-3.882,3.018-7.037,6.729-7.037c3.711,0,6.729,3.155,6.729,7.037
			C104.883,56.532,101.864,59.687,98.153,59.687z M98.153,48.864c-1.997,0-3.623,1.7-3.623,3.791c0,2.086,1.626,3.787,3.623,3.787
			s3.622-1.701,3.622-3.787C101.775,50.564,100.15,48.864,98.153,48.864z"/>
	</g>
	<g>
		<path d="M225.779,4.363h-13.145c-0.905,0-1.634-0.766-1.634-1.709c0-0.946,0.729-1.711,1.634-1.711h13.145
			c0.903,0,1.635,0.765,1.635,1.711C227.414,3.597,226.683,4.363,225.779,4.363z"/>
	</g>
	<g>
		<path d="M431.337,36.771h-13.146c-0.904,0-1.633-0.766-1.633-1.708c0-0.946,0.729-1.71,1.633-1.71h13.146
			c0.904,0,1.635,0.765,1.635,1.71C432.972,36.006,432.241,36.771,431.337,36.771z"/>
	</g>
	<g>
		<path d="M300.48,45.618h-13.145c-0.905,0-1.635-0.765-1.635-1.708c0-0.946,0.729-1.71,1.635-1.71h13.145
			c0.904,0,1.635,0.764,1.635,1.71C302.115,44.853,301.385,45.618,300.48,45.618z"/>
	</g>
	<g>
		<path d="M345.21,352.516H333.48c-0.807,0-1.457-0.654-1.457-1.459c0-0.807,0.65-1.459,1.457-1.459h11.729
			c0.808,0,1.459,0.652,1.459,1.459C346.669,351.862,346.017,352.516,345.21,352.516z"/>
	</g>
	<g>
		<path d="M184.29,363.776h-11.731c-0.805,0-1.456-0.654-1.456-1.459c0-0.809,0.651-1.461,1.456-1.461h11.731
			c0.806,0,1.459,0.652,1.459,1.461C185.749,363.122,185.096,363.776,184.29,363.776z"/>
	</g>
	<g>
		<path d="M478.627,398.608c-4.56,0-8.268-3.707-8.268-8.27c0-4.561,3.708-8.266,8.268-8.266c4.561,0,8.272,3.705,8.272,8.266
			C486.898,394.901,483.188,398.608,478.627,398.608z M478.627,384.987c-2.949,0-5.348,2.402-5.348,5.352
			c0,2.951,2.398,5.352,5.348,5.352c2.951,0,5.354-2.4,5.354-5.352C483.98,387.389,481.578,384.987,478.627,384.987z"/>
	</g>
	<g>
		<path d="M233.327,352.516c-4.56,0-8.269-3.707-8.269-8.27c0-4.561,3.709-8.268,8.269-8.268c4.561,0,8.27,3.707,8.27,8.268
			C241.598,348.809,237.888,352.516,233.327,352.516z M233.327,338.897c-2.949,0-5.349,2.402-5.349,5.35
			c0,2.951,2.399,5.352,5.349,5.352c2.951,0,5.352-2.4,5.352-5.352C238.679,341.299,236.278,338.897,233.327,338.897z"/>
	</g>
	<g>
		<path d="M131.475,398.608c-4.561,0-8.268-3.707-8.268-8.27c0-4.561,3.707-8.266,8.268-8.266c4.56,0,8.271,3.705,8.271,8.266
			C139.745,394.901,136.034,398.608,131.475,398.608z M131.475,384.987c-2.95,0-5.348,2.402-5.348,5.352
			c0,2.951,2.397,5.352,5.348,5.352c2.951,0,5.352-2.4,5.352-5.352C136.826,387.389,134.426,384.987,131.475,384.987z"/>
	</g>
	<g>
		<path d="M346.248,19.375c-5.11,0-9.267-4.344-9.267-9.689c0-5.34,4.156-9.686,9.267-9.686c5.111,0,9.269,4.345,9.269,9.686
			C355.517,15.03,351.359,19.375,346.248,19.375z M346.248,3.419c-3.305,0-5.994,2.813-5.994,6.267c0,3.457,2.689,6.269,5.994,6.269
			c3.307,0,5.997-2.812,5.997-6.269C352.245,6.232,349.555,3.419,346.248,3.419z"/>
	</g>
	<path d="M293.689,379.461l4.44-4.441c0.568-0.57,0.568-1.492,0-2.064c-0.571-0.57-1.494-0.57-2.064,0l-4.44,4.439l-4.44-4.439
		c-0.57-0.57-1.492-0.57-2.064,0c-0.57,0.572-0.57,1.494,0,2.064l4.441,4.441l-4.441,4.44c-0.57,0.57-0.57,1.494,0,2.063
		c0.285,0.285,0.659,0.428,1.031,0.428c0.375,0,0.746-0.143,1.033-0.428l4.44-4.438l4.44,4.438c0.286,0.285,0.659,0.428,1.031,0.428
		c0.375,0,0.751-0.143,1.033-0.428c0.568-0.568,0.568-1.492,0-2.063L293.689,379.461z"/>
	<path d="M163.092,16.721l4.977-5.202c0.637-0.668,0.637-1.748,0-2.418c-0.639-0.667-1.674-0.667-2.313,0l-4.977,5.203l-4.976-5.203
		c-0.639-0.667-1.673-0.667-2.314,0c-0.639,0.67-0.639,1.751,0,2.418l4.977,5.202l-4.977,5.205c-0.639,0.667-0.639,1.749,0,2.416
		c0.319,0.334,0.738,0.501,1.156,0.501c0.419,0,0.836-0.167,1.157-0.501l4.976-5.203l4.977,5.203
		c0.318,0.334,0.738,0.501,1.154,0.501c0.421,0,0.841-0.167,1.158-0.501c0.637-0.667,0.637-1.749,0-2.416L163.092,16.721z"/>
	<path d="M517.244,52.652l4.976-5.203c0.64-0.668,0.64-1.747,0-2.419c-0.639-0.666-1.674-0.666-2.314,0l-4.977,5.204l-4.975-5.204
		c-0.639-0.666-1.674-0.666-2.314,0c-0.639,0.672-0.639,1.751,0,2.419l4.977,5.203l-4.977,5.204c-0.639,0.667-0.639,1.75,0,2.416
		c0.32,0.333,0.74,0.501,1.156,0.501c0.421,0,0.837-0.168,1.158-0.501l4.975-5.202l4.977,5.202c0.322,0.333,0.74,0.501,1.155,0.501
		c0.421,0,0.842-0.168,1.158-0.501c0.64-0.667,0.64-1.749,0-2.416L517.244,52.652z"/>
	<g>
		<path d="M507.477,343.987c-3.876,0-7.027-3.293-7.027-7.342c0-4.055,3.151-7.35,7.027-7.35s7.027,3.295,7.027,7.35
			C514.504,340.694,511.353,343.987,507.477,343.987z M507.477,332.686c-2.086,0-3.785,1.775-3.785,3.959
			c0,2.178,1.699,3.955,3.785,3.955c2.086,0,3.783-1.777,3.783-3.955C511.26,334.461,509.563,332.686,507.477,332.686z"/>
	</g>
	<g>
		<path d="M439.963,363.098c-4.559,0-8.267-3.707-8.267-8.272c0-4.559,3.708-8.266,8.267-8.266c4.563,0,8.272,3.707,8.272,8.266
			C448.235,359.391,444.525,363.098,439.963,363.098z M439.963,349.477c-2.949,0-5.347,2.402-5.347,5.35
			c0,2.951,2.397,5.352,5.347,5.352c2.951,0,5.353-2.4,5.353-5.352C445.315,351.879,442.914,349.477,439.963,349.477z"/>
	</g>
</g>
<g>
	<g>
		<path d="M79.779,101.275H27.634c-0.905,0-1.634-0.766-1.634-1.709c0-0.946,0.729-1.711,1.634-1.711h52.145
			c0.903,0,1.635,0.765,1.635,1.711C81.414,100.509,80.683,101.275,79.779,101.275z"/>
	</g>
	<g>
		<path d="M79.779,107.569H1.634c-0.905,0-1.634-0.766-1.634-1.709c0-0.946,0.729-1.711,1.634-1.711h78.146
			c0.903,0,1.635,0.765,1.635,1.711C81.414,106.803,80.683,107.569,79.779,107.569z"/>
	</g>
</g>
<g>
	<g>
		<path d="M542.131,274.183h52.145c0.906,0,1.635-0.766,1.635-1.709c0-0.946-0.729-1.711-1.635-1.711h-52.145
			c-0.903,0-1.635,0.765-1.635,1.711C540.496,273.418,541.227,274.183,542.131,274.183z"/>
	</g>
	<g>
		<path d="M542.131,280.477h78.145c0.906,0,1.635-0.766,1.635-1.709c0-0.946-0.729-1.711-1.635-1.711h-78.145
			c-0.903,0-1.635,0.765-1.635,1.711C540.496,279.711,541.227,280.477,542.131,280.477z"/>
	</g>
</g>
<g>
	<g>
		<g>
			<g>
				<polygon fill="#FFFFFF" points="249.805,239.193 179.393,239.193 179.393,184.2 249.574,184.2 249.574,174.316 206.082,174.316 
					206.082,172.338 251.551,172.338 251.551,186.176 181.37,186.176 181.37,237.215 249.805,237.215 				"/>
				<polygon fill="#FFFFFF" points="263.413,185.519 261.435,185.519 261.435,153.721 220.25,153.721 220.25,151.744 
					263.413,151.744 				"/>
				<rect x="272.33" y="124.978" fill="#FFFFFF" width="1.977" height="60.541"/>
				<circle fill="none" stroke="#FFFFFF" stroke-width="2" stroke-miterlimit="10" cx="273.318" cy="121.64" r="4.106"/>
				<circle fill="none" stroke="#FFFFFF" stroke-width="2" stroke-miterlimit="10" cx="202.769" cy="173.502" r="4.106"/>
				<circle fill="#FFFFFF" stroke="#FFFFFF" stroke-miterlimit="10" cx="219.579" cy="152.744" r="4.106"/>
			</g>
			<g>
				<polygon fill="#FFFFFF" points="356.284,239.193 426.696,239.193 426.696,184.2 356.516,184.2 356.516,174.316 400.008,174.316 
					400.008,172.338 354.539,172.338 354.539,186.176 424.719,186.176 424.719,237.215 356.284,237.215 				"/>
				<polygon fill="#FFFFFF" points="342.676,185.519 344.654,185.519 344.654,153.721 385.839,153.721 385.839,151.744 
					342.676,151.744 				"/>
				<rect x="331.782" y="124.978" fill="#FFFFFF" width="1.977" height="60.541"/>
				<circle fill="none" stroke="#FFFFFF" stroke-width="2" stroke-miterlimit="10" cx="403.126" cy="172.796" r="4.106"/>
				<circle fill="#FFFFFF" stroke="#FFFFFF" stroke-miterlimit="10" cx="386.608" cy="152.733" r="4.106"/>
				<circle fill="none" stroke="#FFFFFF" stroke-width="2" stroke-miterlimit="10" cx="332.771" cy="121.64" r="4.106"/>
			</g>
		</g>
	</g>
	<g>
		<path fill="#154A8B" stroke="#154A8B" stroke-miterlimit="10" d="M194.412,219.909h-0.481l-0.881-1.352
			c-0.368,0.486-0.814,0.871-1.339,1.157s-1.107,0.429-1.75,0.429h-0.88c-0.572,0-1.11-0.107-1.615-0.322
			c-0.505-0.216-0.945-0.512-1.321-0.887c-0.376-0.377-0.671-0.814-0.887-1.316c-0.215-0.501-0.322-1.037-0.322-1.609v-9.042
			c0-0.571,0.107-1.108,0.322-1.609c0.216-0.501,0.511-0.939,0.887-1.315c0.376-0.376,0.816-0.671,1.321-0.887
			s1.043-0.323,1.615-0.323h1.197c0.571,0,1.107,0.108,1.609,0.323c0.501,0.215,0.939,0.511,1.314,0.887
			c0.376,0.375,0.672,0.814,0.887,1.315c0.216,0.501,0.323,1.038,0.323,1.609v0.681l-1.515,0.235v-0.916
			c0-0.375-0.07-0.726-0.212-1.051c-0.141-0.325-0.332-0.609-0.575-0.852c-0.242-0.243-0.526-0.435-0.852-0.576
			c-0.324-0.141-0.675-0.211-1.051-0.211h-1.057c-0.376,0-0.727,0.07-1.052,0.211c-0.324,0.141-0.61,0.333-0.856,0.576
			c-0.247,0.243-0.44,0.526-0.582,0.852c-0.141,0.325-0.211,0.675-0.211,1.051v9.042c0,0.376,0.07,0.727,0.211,1.051
			c0.142,0.325,0.335,0.61,0.582,0.857c0.246,0.247,0.532,0.44,0.856,0.581c0.325,0.142,0.676,0.212,1.052,0.212h1.057
			c0.376,0,0.727-0.07,1.051-0.212c0.325-0.141,0.609-0.334,0.852-0.581c0.243-0.247,0.435-0.532,0.575-0.857
			c0.142-0.325,0.212-0.675,0.212-1.051v-3.511h-2.689v-1.444h4.204V219.909z"/>
		<path fill="#154A8B" stroke="#154A8B" stroke-miterlimit="10" d="M198.029,219.909v-16.841h9.478v1.445h-7.963v6.259h6.447v1.444
			h-6.447v6.247h7.963v1.445H198.029z"/>
		<path fill="#154A8B" stroke="#154A8B" stroke-miterlimit="10" d="M218.311,219.909l-4.568-7.188h-2.078v7.188h-1.515v-16.841
			h5.343c0.571,0,1.107,0.108,1.609,0.323c0.501,0.215,0.939,0.511,1.314,0.887c0.376,0.375,0.672,0.816,0.887,1.321
			c0.216,0.505,0.323,1.043,0.323,1.615v1.362c0,0.572-0.107,1.11-0.323,1.615c-0.215,0.505-0.511,0.945-0.887,1.321
			c-0.375,0.375-0.813,0.671-1.314,0.887c-0.502,0.215-1.038,0.323-1.609,0.323l4.568,7.188H218.311z M218.111,207.213
			c0-0.375-0.07-0.726-0.212-1.051c-0.141-0.325-0.332-0.611-0.575-0.857c-0.242-0.247-0.526-0.44-0.852-0.582
			c-0.324-0.141-0.675-0.211-1.051-0.211h-3.758v6.764h3.758c0.376,0,0.727-0.071,1.051-0.211c0.325-0.141,0.609-0.335,0.852-0.582
			c0.243-0.247,0.435-0.532,0.575-0.857c0.142-0.325,0.212-0.675,0.212-1.051V207.213z"/>
		<path fill="#154A8B" stroke="#154A8B" stroke-miterlimit="10" d="M222.949,219.909v-16.841h9.478v1.445h-7.963v6.259h6.447v1.444
			h-6.447v6.247h7.963v1.445H222.949z"/>
		<path fill="#154A8B" stroke="#154A8B" stroke-miterlimit="10" d="M243.994,219.909l-7.022-12.261l-0.142-0.728v12.989h-1.515
			v-16.841h0.787l7.022,12.272l0.152,0.716v-12.988h1.516v16.841H243.994z"/>
		<path fill="#154A8B" stroke="#154A8B" stroke-miterlimit="10" d="M257.552,217.618c-0.215,0.501-0.511,0.939-0.887,1.316
			c-0.375,0.375-0.813,0.671-1.314,0.887c-0.502,0.215-1.038,0.322-1.609,0.322h-1.197c-0.572,0-1.11-0.107-1.615-0.322
			c-0.505-0.216-0.945-0.512-1.321-0.887c-0.376-0.377-0.671-0.814-0.887-1.316c-0.215-0.501-0.322-1.037-0.322-1.609v-9.042
			c0-0.571,0.107-1.108,0.322-1.609c0.216-0.501,0.511-0.939,0.887-1.315c0.376-0.376,0.816-0.671,1.321-0.887
			s1.043-0.323,1.615-0.323h1.197c0.571,0,1.107,0.108,1.609,0.323c0.501,0.215,0.939,0.511,1.314,0.887
			c0.376,0.375,0.672,0.814,0.887,1.315c0.216,0.501,0.323,1.038,0.323,1.609v0.681l-1.515,0.235v-0.916
			c0-0.375-0.07-0.726-0.212-1.051c-0.141-0.325-0.332-0.609-0.575-0.852c-0.242-0.243-0.526-0.435-0.852-0.576
			c-0.324-0.141-0.675-0.211-1.051-0.211h-1.057c-0.376,0-0.727,0.07-1.052,0.211c-0.324,0.141-0.61,0.333-0.856,0.576
			c-0.247,0.243-0.44,0.526-0.582,0.852c-0.141,0.325-0.211,0.675-0.211,1.051v9.042c0,0.376,0.07,0.727,0.211,1.051
			c0.142,0.325,0.335,0.61,0.582,0.857c0.246,0.247,0.532,0.44,0.856,0.581c0.325,0.142,0.676,0.212,1.052,0.212h1.057
			c0.376,0,0.727-0.07,1.051-0.212c0.325-0.141,0.609-0.334,0.852-0.581c0.243-0.247,0.435-0.532,0.575-0.857
			c0.142-0.325,0.212-0.675,0.212-1.051v-0.916l1.515,0.247v0.669C257.875,216.581,257.768,217.117,257.552,217.618z"/>
		<path fill="#154A8B" stroke="#154A8B" stroke-miterlimit="10" d="M261.245,219.909v-16.841h1.515v16.841H261.245z"/>
		<path fill="#154A8B" stroke="#154A8B" stroke-miterlimit="10" d="M272.931,215.986h-5.332l-1.104,3.923h-1.573l4.932-16.841h0.799
			l4.956,16.841h-1.563L272.931,215.986z M268.01,214.542h4.521l-2.22-7.763l-0.047-0.622l-0.047,0.622L268.01,214.542z"/>
		<path fill="#154A8B" stroke="#154A8B" stroke-miterlimit="10" d="M292.454,217.383c-0.216,0.501-0.511,0.939-0.887,1.315
			s-0.816,0.671-1.321,0.887s-1.043,0.323-1.614,0.323H283.3v-16.841h5.332c0.571,0,1.109,0.108,1.614,0.323
			s0.945,0.511,1.321,0.887c0.376,0.375,0.671,0.816,0.887,1.321c0.215,0.505,0.323,1.043,0.323,1.615v8.561
			C292.777,216.346,292.669,216.882,292.454,217.383z M291.262,207.213c0-0.375-0.07-0.726-0.211-1.051s-0.335-0.611-0.581-0.857
			c-0.247-0.247-0.533-0.44-0.857-0.582c-0.325-0.141-0.676-0.211-1.051-0.211h-3.747v13.951h3.747c0.375,0,0.726-0.07,1.051-0.211
			c0.324-0.141,0.61-0.332,0.857-0.576c0.246-0.242,0.44-0.526,0.581-0.851s0.211-0.675,0.211-1.051V207.213z"/>
		<path fill="#154A8B" stroke="#154A8B" stroke-miterlimit="10" d="M296.382,219.909v-16.841h9.478v1.445h-7.963v6.259h6.447v1.444
			h-6.447v6.247h7.963v1.445H296.382z"/>
		<path fill="#154A8B" stroke="#154A8B" stroke-miterlimit="10" d="M323.434,210.913c-0.216,0.501-0.511,0.939-0.887,1.315
			c-0.376,0.375-0.816,0.671-1.321,0.887s-1.043,0.323-1.614,0.323h-3.817v6.471h-1.515v-16.841h5.332
			c0.571,0,1.109,0.108,1.614,0.323s0.945,0.511,1.321,0.887c0.376,0.375,0.671,0.816,0.887,1.321
			c0.215,0.505,0.323,1.043,0.323,1.615v2.09C323.757,209.876,323.648,210.412,323.434,210.913z M322.241,207.213
			c0-0.375-0.07-0.726-0.211-1.051s-0.335-0.611-0.581-0.857c-0.247-0.247-0.533-0.44-0.857-0.582
			c-0.325-0.141-0.676-0.211-1.051-0.211h-3.747v7.48h3.747c0.375,0,0.726-0.07,1.051-0.211c0.324-0.141,0.61-0.333,0.857-0.576
			c0.246-0.242,0.44-0.526,0.581-0.851s0.211-0.675,0.211-1.051V207.213z"/>
		<path fill="#154A8B" stroke="#154A8B" stroke-miterlimit="10" d="M334.561,219.909l-4.568-7.188h-2.078v7.188h-1.515v-16.841
			h5.343c0.571,0,1.107,0.108,1.609,0.323c0.501,0.215,0.939,0.511,1.314,0.887c0.376,0.375,0.672,0.816,0.887,1.321
			c0.216,0.505,0.323,1.043,0.323,1.615v1.362c0,0.572-0.107,1.11-0.323,1.615c-0.215,0.505-0.511,0.945-0.887,1.321
			c-0.375,0.375-0.813,0.671-1.314,0.887c-0.502,0.215-1.038,0.323-1.609,0.323l4.568,7.188H334.561z M334.361,207.213
			c0-0.375-0.07-0.726-0.212-1.051c-0.141-0.325-0.332-0.611-0.575-0.857c-0.242-0.247-0.526-0.44-0.852-0.582
			c-0.324-0.141-0.675-0.211-1.051-0.211h-3.758v6.764h3.758c0.376,0,0.727-0.071,1.051-0.211c0.325-0.141,0.609-0.335,0.852-0.582
			c0.243-0.247,0.435-0.532,0.575-0.857c0.142-0.325,0.212-0.675,0.212-1.051V207.213z"/>
		<path fill="#154A8B" stroke="#154A8B" stroke-miterlimit="10" d="M348.106,217.618c-0.215,0.501-0.511,0.939-0.887,1.316
			c-0.375,0.375-0.813,0.671-1.314,0.887c-0.502,0.215-1.038,0.322-1.609,0.322h-1.197c-0.572,0-1.11-0.107-1.615-0.322
			c-0.505-0.216-0.945-0.512-1.321-0.887c-0.376-0.377-0.671-0.814-0.887-1.316c-0.215-0.501-0.322-1.037-0.322-1.609v-9.042
			c0-0.571,0.107-1.108,0.322-1.609c0.216-0.501,0.511-0.939,0.887-1.315c0.376-0.376,0.816-0.671,1.321-0.887
			s1.043-0.323,1.615-0.323h1.197c0.571,0,1.107,0.108,1.609,0.323c0.501,0.215,0.939,0.511,1.314,0.887
			c0.376,0.375,0.672,0.814,0.887,1.315c0.216,0.501,0.323,1.038,0.323,1.609v9.042C348.43,216.581,348.322,217.117,348.106,217.618
			z M346.915,206.967c0-0.375-0.07-0.726-0.212-1.051c-0.141-0.325-0.332-0.609-0.575-0.852c-0.242-0.243-0.526-0.435-0.852-0.576
			c-0.324-0.141-0.675-0.211-1.051-0.211h-1.057c-0.376,0-0.727,0.07-1.052,0.211c-0.324,0.141-0.61,0.333-0.856,0.576
			c-0.247,0.243-0.44,0.526-0.582,0.852c-0.141,0.325-0.211,0.675-0.211,1.051v9.042c0,0.376,0.07,0.727,0.211,1.051
			c0.142,0.325,0.335,0.61,0.582,0.857c0.246,0.247,0.532,0.44,0.856,0.581c0.325,0.142,0.676,0.212,1.052,0.212h1.057
			c0.376,0,0.727-0.07,1.051-0.212c0.325-0.141,0.609-0.334,0.852-0.581c0.243-0.247,0.435-0.532,0.575-0.857
			c0.142-0.325,0.212-0.675,0.212-1.051V206.967z"/>
		<path fill="#154A8B" stroke="#154A8B" stroke-miterlimit="10" d="M355.993,211.852v8.057h-1.516v-8.033l-4.356-8.808h1.633
			l3.464,7l3.465-7h1.632L355.993,211.852z"/>
		<path fill="#154A8B" stroke="#154A8B" stroke-miterlimit="10" d="M362.722,219.909v-16.841h9.478v1.445h-7.963v6.259h6.447v1.444
			h-6.447v6.247h7.963v1.445H362.722z"/>
		<path fill="#154A8B" stroke="#154A8B" stroke-miterlimit="10" d="M383.995,217.618c-0.215,0.501-0.511,0.939-0.887,1.316
			c-0.375,0.375-0.813,0.671-1.314,0.887c-0.502,0.215-1.038,0.322-1.609,0.322h-1.197c-0.572,0-1.11-0.107-1.615-0.322
			c-0.505-0.216-0.945-0.512-1.321-0.887c-0.376-0.377-0.671-0.814-0.887-1.316c-0.215-0.501-0.322-1.037-0.322-1.609v-9.042
			c0-0.571,0.107-1.108,0.322-1.609c0.216-0.501,0.511-0.939,0.887-1.315c0.376-0.376,0.816-0.671,1.321-0.887
			s1.043-0.323,1.615-0.323h1.197c0.571,0,1.107,0.108,1.609,0.323c0.501,0.215,0.939,0.511,1.314,0.887
			c0.376,0.375,0.672,0.814,0.887,1.315c0.216,0.501,0.323,1.038,0.323,1.609v0.681l-1.515,0.235v-0.916
			c0-0.375-0.07-0.726-0.212-1.051c-0.141-0.325-0.332-0.609-0.575-0.852c-0.242-0.243-0.526-0.435-0.852-0.576
			c-0.324-0.141-0.675-0.211-1.051-0.211h-1.057c-0.376,0-0.727,0.07-1.052,0.211c-0.324,0.141-0.61,0.333-0.856,0.576
			c-0.247,0.243-0.44,0.526-0.582,0.852c-0.141,0.325-0.211,0.675-0.211,1.051v9.042c0,0.376,0.07,0.727,0.211,1.051
			c0.142,0.325,0.335,0.61,0.582,0.857c0.246,0.247,0.532,0.44,0.856,0.581c0.325,0.142,0.676,0.212,1.052,0.212h1.057
			c0.376,0,0.727-0.07,1.051-0.212c0.325-0.141,0.609-0.334,0.852-0.581c0.243-0.247,0.435-0.532,0.575-0.857
			c0.142-0.325,0.212-0.675,0.212-1.051v-0.916l1.515,0.247v0.669C384.318,216.581,384.211,217.117,383.995,217.618z"/>
		<path fill="#154A8B" stroke="#154A8B" stroke-miterlimit="10" d="M391.775,204.513v15.396h-1.515v-15.396h-4.017v-1.445h9.548
			v1.445H391.775z"/>
		<path fill="#154A8B" stroke="#154A8B" stroke-miterlimit="10" d="M407.106,217.618c-0.215,0.501-0.511,0.939-0.887,1.316
			c-0.375,0.375-0.813,0.671-1.314,0.887c-0.502,0.215-1.038,0.322-1.609,0.322h-1.197c-0.572,0-1.11-0.107-1.615-0.322
			c-0.505-0.216-0.945-0.512-1.321-0.887c-0.376-0.377-0.671-0.814-0.887-1.316c-0.215-0.501-0.322-1.037-0.322-1.609v-9.042
			c0-0.571,0.107-1.108,0.322-1.609c0.216-0.501,0.511-0.939,0.887-1.315c0.376-0.376,0.816-0.671,1.321-0.887
			s1.043-0.323,1.615-0.323h1.197c0.571,0,1.107,0.108,1.609,0.323c0.501,0.215,0.939,0.511,1.314,0.887
			c0.376,0.375,0.672,0.814,0.887,1.315c0.216,0.501,0.323,1.038,0.323,1.609v9.042C407.43,216.581,407.322,217.117,407.106,217.618
			z M405.915,206.967c0-0.375-0.07-0.726-0.212-1.051c-0.141-0.325-0.332-0.609-0.575-0.852c-0.242-0.243-0.526-0.435-0.852-0.576
			c-0.324-0.141-0.675-0.211-1.051-0.211h-1.057c-0.376,0-0.727,0.07-1.052,0.211c-0.324,0.141-0.61,0.333-0.856,0.576
			c-0.247,0.243-0.44,0.526-0.582,0.852c-0.141,0.325-0.211,0.675-0.211,1.051v9.042c0,0.376,0.07,0.727,0.211,1.051
			c0.142,0.325,0.335,0.61,0.582,0.857c0.246,0.247,0.532,0.44,0.856,0.581c0.325,0.142,0.676,0.212,1.052,0.212h1.057
			c0.376,0,0.727-0.07,1.051-0.212c0.325-0.141,0.609-0.334,0.852-0.581c0.243-0.247,0.435-0.532,0.575-0.857
			c0.142-0.325,0.212-0.675,0.212-1.051V206.967z"/>
		<path fill="#154A8B" stroke="#154A8B" stroke-miterlimit="10" d="M420.277,216.009c0,0.572-0.115,1.108-0.347,1.609
			c-0.23,0.501-0.54,0.939-0.928,1.316c-0.388,0.375-0.838,0.671-1.351,0.887c-0.513,0.215-1.055,0.322-1.626,0.322h-1.21
			c-0.571,0-1.113-0.107-1.626-0.322c-0.513-0.216-0.963-0.512-1.351-0.887c-0.388-0.377-0.697-0.814-0.928-1.316
			c-0.231-0.501-0.347-1.037-0.347-1.609v-0.669l1.515-0.247v0.916c0,0.376,0.077,0.727,0.229,1.051s0.358,0.61,0.616,0.857
			c0.259,0.247,0.558,0.44,0.898,0.581c0.341,0.142,0.699,0.212,1.074,0.212h1.058c0.376,0,0.731-0.07,1.068-0.212
			c0.337-0.141,0.634-0.334,0.893-0.581c0.259-0.247,0.464-0.532,0.616-0.857c0.153-0.325,0.229-0.675,0.229-1.051v-0.505
			c0-0.579-0.113-1.061-0.341-1.444s-0.528-0.71-0.904-0.98c-0.376-0.271-0.801-0.5-1.274-0.687
			c-0.474-0.188-0.961-0.376-1.462-0.564s-0.988-0.395-1.462-0.623c-0.474-0.227-0.898-0.511-1.274-0.851
			c-0.376-0.341-0.677-0.758-0.904-1.251c-0.227-0.493-0.34-1.1-0.34-1.82v-0.317c0-0.571,0.107-1.108,0.322-1.609
			c0.216-0.501,0.511-0.939,0.887-1.315c0.376-0.376,0.816-0.671,1.321-0.887s1.043-0.323,1.615-0.323h1.08
			c0.571,0,1.107,0.108,1.608,0.323s0.939,0.511,1.315,0.887c0.376,0.375,0.672,0.814,0.887,1.315
			c0.216,0.501,0.323,1.038,0.323,1.609v0.435l-1.515,0.247v-0.681c0-0.375-0.071-0.726-0.212-1.051
			c-0.141-0.325-0.333-0.609-0.575-0.852c-0.243-0.243-0.526-0.435-0.852-0.576c-0.325-0.141-0.675-0.211-1.051-0.211h-0.939
			c-0.376,0-0.727,0.07-1.052,0.211c-0.324,0.141-0.61,0.333-0.856,0.576c-0.247,0.243-0.44,0.526-0.582,0.852
			c-0.141,0.325-0.211,0.675-0.211,1.051v0.317c0,0.54,0.113,0.994,0.341,1.362c0.227,0.368,0.528,0.683,0.904,0.945
			c0.375,0.263,0.8,0.49,1.273,0.681c0.474,0.192,0.961,0.388,1.462,0.587s0.988,0.419,1.463,0.658
			c0.474,0.239,0.898,0.532,1.273,0.881c0.376,0.348,0.678,0.773,0.904,1.274c0.228,0.501,0.341,1.112,0.341,1.832V216.009z"/>
	</g>
	<g>
		<path fill="#FFFFFF" d="M272.693,241.693c0,0.44-0.09,0.854-0.268,1.239c-0.178,0.387-0.416,0.724-0.715,1.014
			c-0.299,0.289-0.646,0.518-1.04,0.684c-0.396,0.165-0.813,0.248-1.254,0.248h-0.932c-0.44,0-0.858-0.083-1.253-0.248
			c-0.396-0.166-0.742-0.395-1.041-0.684c-0.299-0.29-0.537-0.627-0.715-1.014c-0.178-0.386-0.267-0.799-0.267-1.239v-0.516
			l1.167-0.19v0.706c0,0.289,0.059,0.56,0.177,0.81c0.117,0.25,0.275,0.471,0.475,0.66c0.199,0.19,0.43,0.34,0.692,0.448
			s0.538,0.163,0.828,0.163h0.814c0.289,0,0.563-0.055,0.823-0.163c0.259-0.108,0.488-0.258,0.688-0.448
			c0.199-0.189,0.357-0.41,0.476-0.66c0.117-0.25,0.176-0.521,0.176-0.81v-0.39c0-0.446-0.087-0.817-0.262-1.112
			c-0.176-0.296-0.407-0.548-0.697-0.756c-0.289-0.208-0.617-0.385-0.981-0.529c-0.365-0.145-0.741-0.29-1.127-0.435
			s-0.762-0.305-1.126-0.479c-0.365-0.175-0.692-0.394-0.982-0.656c-0.289-0.263-0.521-0.583-0.696-0.964
			c-0.176-0.38-0.263-0.847-0.263-1.402v-0.244c0-0.44,0.083-0.854,0.249-1.239c0.166-0.387,0.394-0.725,0.683-1.014
			c0.29-0.29,0.629-0.518,1.019-0.684c0.389-0.166,0.804-0.249,1.244-0.249h0.832c0.44,0,0.854,0.083,1.24,0.249
			c0.386,0.166,0.724,0.394,1.014,0.684c0.289,0.289,0.517,0.627,0.683,1.014c0.166,0.386,0.249,0.799,0.249,1.239v0.335
			l-1.167,0.189v-0.524c0-0.29-0.055-0.56-0.163-0.81c-0.108-0.251-0.257-0.47-0.443-0.656c-0.188-0.188-0.406-0.335-0.656-0.443
			s-0.521-0.163-0.81-0.163h-0.725c-0.289,0-0.56,0.055-0.81,0.163s-0.471,0.256-0.66,0.443c-0.19,0.187-0.34,0.405-0.448,0.656
			c-0.108,0.25-0.163,0.52-0.163,0.81v0.244c0,0.416,0.088,0.767,0.263,1.05s0.407,0.526,0.697,0.729
			c0.289,0.202,0.616,0.377,0.981,0.524c0.365,0.148,0.74,0.299,1.126,0.453c0.387,0.153,0.762,0.322,1.127,0.507
			c0.365,0.184,0.692,0.41,0.981,0.678c0.29,0.269,0.522,0.597,0.697,0.982s0.263,0.856,0.263,1.411V241.693z"/>
		<path fill="#FFFFFF" d="M282.063,242.932c-0.166,0.387-0.394,0.724-0.684,1.014c-0.289,0.289-0.627,0.518-1.014,0.684
			c-0.386,0.165-0.799,0.248-1.239,0.248h-0.923c-0.44,0-0.855-0.083-1.244-0.248c-0.39-0.166-0.729-0.395-1.019-0.684
			c-0.289-0.29-0.517-0.627-0.683-1.014c-0.166-0.386-0.249-0.799-0.249-1.239v-6.968c0-0.44,0.083-0.854,0.249-1.239
			c0.166-0.387,0.394-0.725,0.683-1.014c0.29-0.29,0.629-0.518,1.019-0.684c0.389-0.166,0.804-0.249,1.244-0.249h0.923
			c0.44,0,0.854,0.083,1.239,0.249c0.387,0.166,0.725,0.394,1.014,0.684c0.29,0.289,0.518,0.627,0.684,1.014
			c0.166,0.386,0.249,0.799,0.249,1.239v6.968C282.312,242.133,282.229,242.546,282.063,242.932z M281.145,234.725
			c0-0.29-0.054-0.56-0.162-0.81c-0.109-0.251-0.257-0.47-0.444-0.656c-0.187-0.188-0.405-0.335-0.655-0.443
			c-0.251-0.108-0.521-0.163-0.811-0.163h-0.814c-0.289,0-0.56,0.055-0.81,0.163s-0.471,0.256-0.66,0.443
			c-0.19,0.187-0.34,0.405-0.448,0.656c-0.108,0.25-0.163,0.52-0.163,0.81v6.968c0,0.289,0.055,0.56,0.163,0.81
			s0.258,0.471,0.448,0.66c0.189,0.19,0.41,0.34,0.66,0.448s0.521,0.163,0.81,0.163h0.814c0.29,0,0.56-0.055,0.811-0.163
			c0.25-0.108,0.469-0.258,0.655-0.448c0.188-0.189,0.335-0.41,0.444-0.66c0.108-0.25,0.162-0.521,0.162-0.81V234.725z"/>
		<path fill="#FFFFFF" d="M286.267,232.834v4.823h4.968v1.113h-4.968v5.927H285.1v-12.976h7.302v1.112H286.267z"/>
		<path fill="#FFFFFF" d="M297.405,232.834v11.863h-1.167v-11.863h-3.095v-1.112h7.356v1.112H297.405z"/>
		<path fill="#FFFFFF" d="M311.023,244.697h-0.605l-2.525-9.764l-0.036-0.507l-0.054,0.507l-2.507,9.764h-0.606l-3.447-12.976h1.167
			l2.543,9.863l0.036,0.479l0.036-0.479l2.497-9.863h0.652l2.497,9.863l0.036,0.479l0.045-0.479l2.534-9.863h1.167L311.023,244.697z
			"/>
		<path fill="#FFFFFF" d="M320.806,241.674h-4.108l-0.851,3.022h-1.213l3.801-12.976h0.615l3.818,12.976h-1.203L320.806,241.674z
			 M317.014,240.561h3.484l-1.711-5.98l-0.036-0.479l-0.036,0.479L317.014,240.561z"/>
		<path fill="#FFFFFF" d="M330.633,244.697l-3.521-5.538h-1.602v5.538h-1.167v-12.976h4.117c0.44,0,0.854,0.083,1.239,0.248
			c0.387,0.166,0.725,0.395,1.014,0.684c0.29,0.29,0.518,0.629,0.684,1.018c0.166,0.39,0.249,0.805,0.249,1.245v1.049
			c0,0.44-0.083,0.855-0.249,1.244c-0.166,0.39-0.394,0.729-0.684,1.019c-0.289,0.289-0.627,0.518-1.014,0.683
			c-0.386,0.166-0.799,0.249-1.239,0.249l3.52,5.538H330.633z M330.478,234.916c0-0.29-0.054-0.56-0.162-0.811
			c-0.109-0.25-0.257-0.471-0.444-0.66c-0.187-0.19-0.405-0.34-0.655-0.448c-0.251-0.108-0.521-0.163-0.811-0.163h-2.896v5.213
			h2.896c0.29,0,0.56-0.055,0.811-0.163c0.25-0.108,0.469-0.258,0.655-0.448c0.188-0.189,0.335-0.41,0.444-0.66
			c0.108-0.251,0.162-0.521,0.162-0.811V234.916z"/>
		<path fill="#FFFFFF" d="M334.207,244.697v-12.976h7.302v1.112h-6.135v4.823h4.968v1.113h-4.968v4.813h6.135v1.113H334.207z"/>
	</g>
</g>
</svg>