<!-- Generator: Adobe Illustrator 17.0.0, SVG Export Plug-In  -->
<svg version="1.1"
	 xmlns="http://www.w3.org/2000/svg" xmlns:xlink="http://www.w3.org/1999/xlink" xmlns:a="http://ns.adobe.com/AdobeSVGViewerExtensions/3.0/"
	 x="0px" y="0px" width="13.535px" height="99.241px" viewBox="0 0 13.535 99.241"
	 style="enable-background:new 0 0 13.535 99.241;" xml:space="preserve">
<style type="text/css">
	.st0{fill:url(#SVGID_1_);}
	.st1{fill:#F1F1F1;stroke:#144B8B;stroke-linejoin:round;stroke-miterlimit:10;}
	.st2{fill:url(#SVGID_2_);}
	.st3{fill:url(#SVGID_3_);}
	.st4{fill:url(#SVGID_4_);}
</style>
<defs>
</defs>
<g>
	<radialGradient id="SVGID_1_" cx="6.7676" cy="6.7675" r="6.7676" gradientUnits="userSpaceOnUse">
		<stop  offset="0" style="stop-color:#8CBB69"/>
		<stop  offset="0.7837" style="stop-color:#6BAD44"/>
	</radialGradient>
	<path class="st0" d="M8.402,13.273v-1.645c0.232-0.096,0.588-0.219,0.871-0.369l1.152,1.163c0.109,0.11,0.285,0.11,0.395,0
		l1.664-1.667c0.111-0.11,0.109-0.289-0.002-0.398l-1.164-1.231c0.152-0.283,0.275-0.492,0.369-0.959h1.646
		c0.156,0,0.201,0.008,0.201-0.149V5.662c0-0.156-0.045-0.295-0.201-0.295h-1.646c-0.094-0.467-0.217-0.602-0.369-0.884l1.164-1.16
		c0.111-0.11,0.111-0.288,0-0.398l-1.668-1.666c-0.109-0.111-0.289-0.11-0.399,0.001L9.273,2.422
		C8.99,2.273,8.635,2.148,8.402,2.053V0.408C8.402,0.252,8.234,0,8.08,0H5.723C5.566,0,5.369,0.252,5.369,0.408v1.645
		C5.135,2.148,4.795,2.273,4.514,2.422L3.367,1.26c-0.109-0.111-0.279-0.111-0.389,0L1.314,2.926
		c-0.111,0.111-0.107,0.289,0.002,0.4l1.166,1.157C2.332,4.766,2.207,4.9,2.113,5.367H0.469C0.313,5.367,0,5.506,0,5.662v2.357
		c0,0.156,0.313,0.149,0.469,0.149h1.644c0.096,0.467,0.219,0.676,0.369,0.959l-1.164,1.197c-0.109,0.109-0.109,0.305,0,0.415
		l1.668,1.675c0.109,0.111,0.289,0.115,0.398,0.004l1.129-1.16c0.281,0.15,0.621,0.275,0.856,0.371v1.645
		c0,0.156,0.197,0.262,0.353,0.262H8.08C8.234,13.535,8.402,13.43,8.402,13.273z"/>
	<circle class="st1" cx="6.84" cy="6.919" r="2.116"/>
</g>
<g>
	<radialGradient id="SVGID_2_" cx="6.7676" cy="92.4736" r="6.7676" gradientUnits="userSpaceOnUse">
		<stop  offset="0" style="stop-color:#8CBB69"/>
		<stop  offset="0.7837" style="stop-color:#6BAD44"/>
	</radialGradient>
	<path class="st2" d="M8.402,98.979v-1.645c0.232-0.096,0.588-0.219,0.871-0.369l1.152,1.163c0.109,0.11,0.285,0.11,0.395,0
		l1.664-1.667c0.111-0.11,0.109-0.289-0.002-0.398l-1.164-1.23c0.152-0.283,0.275-0.492,0.369-0.959h1.646
		c0.156,0,0.201,0.008,0.201-0.148v-2.357c0-0.156-0.045-0.295-0.201-0.295h-1.646c-0.094-0.467-0.217-0.601-0.369-0.884l1.164-1.16
		c0.111-0.11,0.111-0.288,0-0.398l-1.668-1.666c-0.109-0.111-0.289-0.11-0.399,0.001l-1.142,1.162
		c-0.283-0.148-0.639-0.273-0.871-0.369v-1.645c0-0.156-0.168-0.408-0.322-0.408H5.723c-0.156,0-0.353,0.252-0.353,0.408v1.645
		c-0.234,0.096-0.574,0.221-0.856,0.369l-1.146-1.162c-0.109-0.111-0.279-0.111-0.389,0l-1.664,1.666
		c-0.111,0.111-0.107,0.289,0.002,0.4l1.166,1.157c-0.15,0.282-0.275,0.417-0.369,0.884H0.469C0.313,91.073,0,91.212,0,91.368v2.357
		c0,0.156,0.313,0.148,0.469,0.148h1.644c0.096,0.467,0.219,0.676,0.369,0.959L1.318,96.03c-0.109,0.109-0.109,0.305,0,0.415
		l1.668,1.675c0.109,0.111,0.289,0.115,0.398,0.004l1.129-1.16c0.281,0.15,0.621,0.275,0.856,0.371v1.645
		c0,0.156,0.197,0.262,0.353,0.262H8.08C8.234,99.241,8.402,99.136,8.402,98.979z"/>
	<circle class="st1" cx="6.84" cy="92.625" r="2.116"/>
</g>
</svg>