<!-- Generator: Adobe Illustrator 17.0.0, SVG Export Plug-In  -->
<svg version="1.1"
	 xmlns="http://www.w3.org/2000/svg" xmlns:xlink="http://www.w3.org/1999/xlink" xmlns:a="http://ns.adobe.com/AdobeSVGViewerExtensions/3.0/"
	 x="0px" y="0px" width="13.535px" height="213.88px" viewBox="0 0 13.535 213.88"
	 style="enable-background:new 0 0 13.535 213.88;" xml:space="preserve">
<style type="text/css">
	.st0{fill:url(#SVGID_1_);}
	.st1{fill:#F1F1F1;stroke:#144B8B;stroke-linejoin:round;stroke-miterlimit:10;}
	.st2{fill:url(#SVGID_2_);}
	.st3{fill:url(#SVGID_3_);}
	.st4{fill:url(#SVGID_4_);}
	.st5{fill:url(#SVGID_5_);}
	.st6{fill:url(#SVGID_6_);}
	.st7{fill:url(#SVGID_7_);}
	.st8{fill:url(#SVGID_8_);}
	.st9{fill:url(#SVGID_9_);}
	.st10{fill:url(#SVGID_10_);}
</style>
<defs>
</defs>
<g>
	<radialGradient id="SVGID_1_" cx="6.7675" cy="6.7676" r="6.7676" gradientUnits="userSpaceOnUse">
		<stop  offset="0" style="stop-color:#8CBB69"/>
		<stop  offset="0.7837" style="stop-color:#6BAD44"/>
	</radialGradient>
	<path class="st0" d="M8.402,13.273v-1.645c0.232-0.096,0.588-0.219,0.871-0.369l1.152,1.163c0.109,0.11,0.285,0.11,0.394,0
		l1.664-1.667c0.111-0.11,0.109-0.289-0.002-0.399l-1.164-1.23c0.152-0.283,0.275-0.492,0.369-0.959h1.646
		c0.156,0,0.201,0.008,0.201-0.149V5.662c0-0.156-0.045-0.295-0.201-0.295h-1.646c-0.094-0.467-0.217-0.602-0.369-0.884l1.164-1.16
		c0.111-0.11,0.111-0.288,0-0.398l-1.668-1.666c-0.109-0.111-0.289-0.11-0.398,0.001L9.273,2.422
		C8.99,2.273,8.635,2.148,8.402,2.053V0.408C8.402,0.252,8.234,0,8.08,0H5.723C5.566,0,5.369,0.252,5.369,0.408v1.645
		C5.135,2.148,4.795,2.273,4.514,2.422L3.367,1.26c-0.109-0.111-0.279-0.111-0.389,0L1.314,2.926
		c-0.111,0.111-0.107,0.289,0.002,0.4l1.166,1.157C2.332,4.766,2.207,4.9,2.113,5.367H0.469C0.313,5.367,0,5.506,0,5.662v2.357
		c0,0.156,0.313,0.149,0.469,0.149h1.645c0.096,0.467,0.219,0.676,0.369,0.959l-1.164,1.197c-0.109,0.109-0.109,0.305,0,0.415
		l1.668,1.675c0.109,0.111,0.289,0.115,0.398,0.004l1.129-1.16c0.281,0.15,0.621,0.275,0.855,0.371v1.645
		c0,0.156,0.197,0.262,0.353,0.262H8.08C8.234,13.535,8.402,13.43,8.402,13.273z"/>
	<circle class="st1" cx="6.84" cy="6.919" r="2.116"/>
</g>
<g>
	<radialGradient id="SVGID_2_" cx="6.7675" cy="207.1123" r="6.7676" gradientUnits="userSpaceOnUse">
		<stop  offset="0" style="stop-color:#8CBB69"/>
		<stop  offset="0.7837" style="stop-color:#6BAD44"/>
	</radialGradient>
	<path class="st2" d="M8.402,213.618v-1.645c0.232-0.096,0.588-0.219,0.871-0.369l1.152,1.163c0.109,0.11,0.285,0.11,0.394,0
		l1.664-1.667c0.111-0.11,0.109-0.289-0.002-0.398l-1.164-1.23c0.152-0.283,0.275-0.492,0.369-0.959h1.646
		c0.156,0,0.201,0.008,0.201-0.148v-2.357c0-0.156-0.045-0.295-0.201-0.295h-1.646c-0.094-0.467-0.217-0.602-0.369-0.884l1.164-1.16
		c0.111-0.11,0.111-0.288,0-0.398l-1.668-1.666c-0.109-0.111-0.289-0.11-0.398,0.001l-1.143,1.162
		c-0.283-0.148-0.639-0.273-0.871-0.369v-1.645c0-0.156-0.168-0.408-0.322-0.408H5.723c-0.156,0-0.353,0.252-0.353,0.408v1.645
		c-0.234,0.096-0.574,0.221-0.855,0.369l-1.147-1.162c-0.109-0.111-0.279-0.111-0.389,0l-1.664,1.666
		c-0.111,0.111-0.107,0.289,0.002,0.4l1.166,1.157c-0.15,0.282-0.275,0.417-0.369,0.884H0.469c-0.156,0-0.469,0.139-0.469,0.295
		v2.357c0,0.156,0.313,0.148,0.469,0.148h1.645c0.096,0.467,0.219,0.676,0.369,0.959l-1.164,1.197c-0.109,0.109-0.109,0.305,0,0.415
		l1.668,1.675c0.109,0.111,0.289,0.115,0.398,0.004l1.129-1.16c0.281,0.15,0.621,0.275,0.855,0.371v1.645
		c0,0.156,0.197,0.262,0.353,0.262H8.08C8.234,213.88,8.402,213.774,8.402,213.618z"/>
	<circle class="st1" cx="6.84" cy="207.264" r="2.116"/>
</g>
<g>
	<radialGradient id="SVGID_3_" cx="6.7675" cy="41.5586" r="6.7676" gradientUnits="userSpaceOnUse">
		<stop  offset="0" style="stop-color:#8CBB69"/>
		<stop  offset="0.7837" style="stop-color:#6BAD44"/>
	</radialGradient>
	<path class="st3" d="M8.402,48.064V46.42c0.232-0.096,0.588-0.219,0.871-0.369l1.152,1.163c0.109,0.11,0.285,0.11,0.394,0
		l1.664-1.667c0.111-0.11,0.109-0.289-0.002-0.399l-1.164-1.23c0.152-0.283,0.275-0.492,0.369-0.959h1.646
		c0.156,0,0.201,0.008,0.201-0.148v-2.358c0-0.156-0.045-0.295-0.201-0.295h-1.646c-0.094-0.467-0.217-0.602-0.369-0.884l1.164-1.16
		c0.111-0.11,0.111-0.288,0-0.398l-1.668-1.666c-0.109-0.111-0.289-0.11-0.398,0.001l-1.143,1.162
		c-0.283-0.148-0.639-0.273-0.871-0.369v-1.645c0-0.156-0.168-0.408-0.322-0.408H5.723c-0.156,0-0.353,0.252-0.353,0.408v1.645
		c-0.234,0.096-0.574,0.221-0.855,0.369l-1.147-1.162c-0.109-0.111-0.279-0.111-0.389,0l-1.664,1.666
		c-0.111,0.111-0.107,0.289,0.002,0.4l1.166,1.157c-0.15,0.282-0.275,0.417-0.369,0.884H0.469C0.313,40.158,0,40.297,0,40.453v2.358
		c0,0.156,0.313,0.148,0.469,0.148h1.645c0.096,0.467,0.219,0.676,0.369,0.959l-1.164,1.197c-0.109,0.109-0.109,0.305,0,0.415
		l1.668,1.675c0.109,0.111,0.289,0.115,0.398,0.004l1.129-1.16c0.281,0.15,0.621,0.275,0.855,0.371v1.645
		c0,0.156,0.197,0.262,0.353,0.262H8.08C8.234,48.326,8.402,48.221,8.402,48.064z"/>
	<circle class="st1" cx="6.84" cy="41.71" r="2.116"/>
</g>
<g>
	<radialGradient id="SVGID_4_" cx="6.7675" cy="74.6211" r="6.7676" gradientUnits="userSpaceOnUse">
		<stop  offset="0" style="stop-color:#8CBB69"/>
		<stop  offset="0.7837" style="stop-color:#6BAD44"/>
	</radialGradient>
	<path class="st4" d="M8.402,81.127v-1.645c0.232-0.096,0.588-0.219,0.871-0.369l1.152,1.163c0.109,0.11,0.285,0.11,0.394,0
		l1.664-1.667c0.111-0.11,0.109-0.289-0.002-0.398l-1.164-1.23c0.152-0.283,0.275-0.492,0.369-0.959h1.646
		c0.156,0,0.201,0.008,0.201-0.148v-2.357c0-0.156-0.045-0.295-0.201-0.295h-1.646c-0.094-0.467-0.217-0.602-0.369-0.884l1.164-1.16
		c0.111-0.11,0.111-0.288,0-0.399l-1.668-1.666c-0.109-0.111-0.289-0.11-0.398,0.001l-1.143,1.162
		c-0.283-0.148-0.639-0.273-0.871-0.369v-1.645c0-0.156-0.168-0.408-0.322-0.408H5.723c-0.156,0-0.353,0.252-0.353,0.408v1.645
		c-0.234,0.096-0.574,0.221-0.855,0.369l-1.147-1.162c-0.109-0.111-0.279-0.111-0.389,0l-1.664,1.666
		c-0.111,0.111-0.107,0.289,0.002,0.4l1.166,1.157c-0.15,0.282-0.275,0.417-0.369,0.884H0.469C0.313,73.221,0,73.359,0,73.516v2.357
		c0,0.156,0.313,0.148,0.469,0.148h1.645c0.096,0.467,0.219,0.676,0.369,0.959l-1.164,1.197c-0.109,0.109-0.109,0.305,0,0.415
		l1.668,1.675c0.109,0.111,0.289,0.115,0.398,0.004l1.129-1.16c0.281,0.15,0.621,0.275,0.855,0.371v1.645
		c0,0.156,0.197,0.262,0.353,0.262H8.08C8.234,81.389,8.402,81.283,8.402,81.127z"/>
	<circle class="st1" cx="6.84" cy="74.773" r="2.116"/>
</g>
<g>
	<radialGradient id="SVGID_5_" cx="6.7675" cy="142.5517" r="6.7675" gradientUnits="userSpaceOnUse">
		<stop  offset="0" style="stop-color:#8CBB69"/>
		<stop  offset="0.7837" style="stop-color:#6BAD44"/>
	</radialGradient>
	<path class="st5" d="M8.402,149.058v-1.645c0.232-0.096,0.588-0.219,0.871-0.369l1.152,1.163c0.109,0.11,0.285,0.11,0.394,0
		l1.664-1.667c0.111-0.11,0.109-0.289-0.002-0.398l-1.164-1.23c0.152-0.283,0.275-0.492,0.369-0.959h1.646
		c0.156,0,0.201,0.008,0.201-0.148v-2.357c0-0.156-0.045-0.295-0.201-0.295h-1.646c-0.094-0.467-0.217-0.602-0.369-0.884l1.164-1.16
		c0.111-0.11,0.111-0.288,0-0.398l-1.668-1.666c-0.109-0.111-0.289-0.11-0.398,0.001l-1.143,1.162
		c-0.283-0.148-0.639-0.273-0.871-0.369v-1.645c0-0.156-0.168-0.408-0.322-0.408H5.723c-0.156,0-0.353,0.252-0.353,0.408v1.645
		c-0.234,0.096-0.574,0.221-0.855,0.369l-1.147-1.162c-0.109-0.111-0.279-0.111-0.389,0l-1.664,1.666
		c-0.111,0.111-0.107,0.289,0.002,0.4l1.166,1.157c-0.15,0.282-0.275,0.417-0.369,0.884H0.469c-0.156,0-0.469,0.139-0.469,0.295
		v2.357c0,0.156,0.313,0.148,0.469,0.148h1.645c0.096,0.467,0.219,0.676,0.369,0.959l-1.164,1.197c-0.109,0.109-0.109,0.305,0,0.415
		l1.668,1.675c0.109,0.111,0.289,0.115,0.398,0.004l1.129-1.16c0.281,0.15,0.621,0.275,0.855,0.371v1.645
		c0,0.156,0.197,0.262,0.353,0.262H8.08C8.234,149.319,8.402,149.214,8.402,149.058z"/>
	<circle class="st1" cx="6.84" cy="142.704" r="2.116"/>
</g>
</svg>