<?xml version="1.0" encoding="utf-8"?>
<!-- Generator: Adobe Illustrator 21.1.0, SVG Export Plug-In . SVG Version: 6.00 Build 0)  -->
<svg version="1.1" id="Capa_1" xmlns="http://www.w3.org/2000/svg" xmlns:xlink="http://www.w3.org/1999/xlink" x="0px" y="0px"
	 viewBox="0 0 155.3 74.3" style="enable-background:new 0 0 155.3 74.3;" xml:space="preserve">
<style type="text/css">
	.st0{opacity:0.7;fill:#FFFFFF;enable-background:new    ;}
	.st1{fill:#FEFEFE;}
</style>
<rect id="XMLID_281_" x="0.2" class="st0" width="154.9" height="74.3"/>
<rect id="XMLID_266_" width="155.3" height="48.2"/>
<path id="XMLID_292_" class="st1" d="M88.6,29.5c-1.2,0-1.9,1-1.9,1.9v2.9H68.4v-2.9c0-1-1-1.9-2-1.9c-1.2,0-1.9,1-1.9,1.9v4.9
	c0,1.2,0.8,1.9,1.9,1.9h22.2c1,0,1.7-0.8,1.7-1.9v-4.9C90.4,30.5,89.6,29.5,88.6,29.5L88.6,29.5z M77,31.7c0.2,0.2,0.8,0.2,1.2,0
	l6.6-6.8c0.2-0.2,0.2-0.4,0.2-0.8c-0.2-0.2-0.4-0.4-0.6-0.4h-3.3V11.4c0-1-0.6-1.6-1.4-1.6h-4.3c-1,0-1.6,0.6-1.6,1.6v12.3h-3.1
	c-0.4,0-0.6,0.2-0.8,0.4c0,0.4,0,0.6,0.2,0.8L77,31.7z"/>
<g>
	<path d="M5.8,56.6h2.4c0.5,0,0.9,0.1,1.2,0.2c0.4,0.2,0.7,0.4,1,0.9c0.3,0.4,0.5,0.9,0.6,1.5c0.1,0.6,0.2,1.3,0.2,2.2
		c0,0.8-0.1,1.4-0.2,2c-0.2,0.7-0.4,1.2-0.7,1.6c-0.2,0.3-0.5,0.6-0.9,0.7c-0.3,0.1-0.7,0.2-1.1,0.2H5.8V56.6z M7.1,58.2v6.2h1
		c0.4,0,0.6,0,0.8-0.1C9,64.2,9.2,64,9.4,63.9c0.1-0.2,0.3-0.5,0.3-0.9c0.1-0.4,0.1-1,0.1-1.7c0-0.7,0-1.3-0.1-1.7
		c-0.1-0.4-0.2-0.7-0.4-0.9c-0.2-0.2-0.4-0.4-0.6-0.4c-0.2-0.1-0.5-0.1-1.1-0.1H7.1z"/>
	<path d="M12.2,65.9v-9.3H17v1.6h-3.4v2.1h3.2v1.6h-3.2v2.5h3.6v1.6H12.2z"/>
	<path d="M17.9,62.9l1.3-0.2c0.1,0.6,0.2,1.1,0.5,1.3c0.2,0.3,0.5,0.4,0.9,0.4c0.4,0,0.7-0.1,0.9-0.4c0.2-0.3,0.3-0.6,0.3-0.9
		c0-0.2,0-0.4-0.1-0.6c-0.1-0.2-0.2-0.3-0.5-0.4c-0.2-0.1-0.5-0.2-1-0.4c-0.7-0.2-1.2-0.6-1.5-0.9c-0.4-0.5-0.6-1.1-0.6-1.9
		c0-0.5,0.1-0.9,0.3-1.3c0.2-0.4,0.5-0.7,0.8-0.9c0.3-0.2,0.8-0.3,1.3-0.3c0.8,0,1.4,0.3,1.8,0.8s0.6,1.2,0.6,2l-1.3,0.1
		c-0.1-0.5-0.2-0.8-0.4-1c-0.2-0.2-0.5-0.3-0.8-0.3c-0.4,0-0.7,0.1-0.9,0.3c-0.1,0.1-0.2,0.3-0.2,0.6c0,0.2,0.1,0.4,0.2,0.6
		c0.2,0.2,0.6,0.4,1.2,0.6c0.6,0.2,1.1,0.4,1.4,0.7c0.3,0.2,0.5,0.5,0.7,0.9c0.2,0.4,0.3,0.9,0.3,1.5c0,0.5-0.1,1-0.3,1.5
		c-0.2,0.5-0.5,0.8-0.9,1c-0.4,0.2-0.8,0.3-1.4,0.3c-0.8,0-1.4-0.3-1.9-0.8C18.2,64.7,18,63.9,17.9,62.9z"/>
	<path d="M28.2,62.5l1.3,0.6c-0.2,1-0.5,1.8-1,2.3c-0.4,0.5-1,0.7-1.7,0.7c-0.8,0-1.5-0.4-2.1-1.3c-0.5-0.8-0.8-2-0.8-3.5
		c0-1.5,0.3-2.7,0.8-3.6c0.5-0.9,1.3-1.3,2.2-1.3c0.8,0,1.4,0.3,1.9,1c0.3,0.4,0.5,1,0.7,1.7l-1.3,0.4c-0.1-0.5-0.2-0.9-0.5-1.1
		c-0.2-0.3-0.5-0.4-0.9-0.4c-0.5,0-0.9,0.2-1.2,0.7c-0.3,0.5-0.4,1.3-0.4,2.4c0,1.2,0.1,2,0.4,2.5c0.3,0.5,0.7,0.7,1.1,0.7
		c0.3,0,0.6-0.2,0.9-0.5C28,63.7,28.1,63.2,28.2,62.5z"/>
	<path d="M36.4,65.9H35l-0.6-2.1h-2.6l-0.5,2.1h-1.4l2.5-9.3h1.4L36.4,65.9z M34,62.2l-0.9-3.4l-0.9,3.4H34z"/>
	<path d="M37,65.9v-9.3h2.7c0.7,0,1.2,0.1,1.5,0.3c0.3,0.2,0.6,0.5,0.7,0.9c0.2,0.4,0.3,0.9,0.3,1.5c0,0.7-0.1,1.3-0.4,1.7
		s-0.7,0.7-1.3,0.9c0.3,0.2,0.5,0.5,0.7,0.8s0.4,0.8,0.7,1.5l0.8,1.8h-1.5l-0.9-2c-0.3-0.7-0.6-1.2-0.7-1.4
		c-0.1-0.2-0.3-0.3-0.4-0.4C39.1,62,38.9,62,38.6,62h-0.3v3.9H37z M38.3,60.5h1c0.6,0,1,0,1.2-0.1c0.2-0.1,0.3-0.2,0.4-0.4
		c0.1-0.2,0.1-0.4,0.1-0.7c0-0.3-0.1-0.6-0.2-0.8c-0.1-0.2-0.3-0.3-0.5-0.4c-0.1,0-0.4,0-0.9,0h-1V60.5z"/>
	<path d="M46.5,62.5v-1.6h2.8v3.7c-0.3,0.4-0.7,0.7-1.2,1c-0.5,0.3-1,0.4-1.6,0.4c-0.7,0-1.3-0.2-1.7-0.6c-0.5-0.4-0.9-1-1.1-1.7
		c-0.2-0.8-0.4-1.6-0.4-2.5c0-1,0.1-1.8,0.4-2.6s0.7-1.3,1.2-1.7c0.4-0.3,0.9-0.5,1.5-0.5c0.8,0,1.4,0.2,1.9,0.7
		c0.4,0.5,0.7,1.2,0.9,2l-1.3,0.3c-0.1-0.5-0.3-0.8-0.5-1.1c-0.2-0.3-0.6-0.4-0.9-0.4c-0.6,0-1,0.3-1.3,0.8
		c-0.3,0.5-0.5,1.3-0.5,2.3c0,1.1,0.2,1.9,0.5,2.5c0.3,0.6,0.8,0.8,1.3,0.8c0.3,0,0.5-0.1,0.8-0.2c0.3-0.2,0.5-0.3,0.7-0.6v-1.2
		H46.5z"/>
	<path d="M56.2,65.9h-1.4l-0.6-2.1h-2.6l-0.5,2.1h-1.4l2.5-9.3h1.4L56.2,65.9z M53.8,62.2l-0.9-3.4l-0.9,3.4H53.8z"/>
	<path d="M56.9,65.9v-9.3h2.7c0.7,0,1.2,0.1,1.5,0.3c0.3,0.2,0.6,0.5,0.7,0.9c0.2,0.4,0.3,0.9,0.3,1.5c0,0.7-0.1,1.3-0.4,1.7
		c-0.3,0.5-0.7,0.7-1.3,0.9c0.3,0.2,0.5,0.5,0.7,0.8s0.4,0.8,0.7,1.5l0.8,1.8h-1.5l-0.9-2c-0.3-0.7-0.6-1.2-0.7-1.4
		c-0.1-0.2-0.3-0.3-0.4-0.4C58.9,62,58.7,62,58.4,62h-0.3v3.9H56.9z M58.2,60.5h1c0.6,0,1,0,1.2-0.1c0.2-0.1,0.3-0.2,0.4-0.4
		c0.1-0.2,0.1-0.4,0.1-0.7c0-0.3-0.1-0.6-0.2-0.8c-0.1-0.2-0.3-0.3-0.5-0.4c-0.1,0-0.4,0-0.9,0h-1V60.5z"/>
	<path d="M65.8,65.9v-9.3h1.3v3.7h2.5v-3.7h1.3v9.3h-1.3v-4.1h-2.5v4.1H65.8z"/>
	<path d="M72.2,65.9v-9.3H77v1.6h-3.4v2.1h3.2v1.6h-3.2v2.5h3.6v1.6H72.2z"/>
	<path d="M78.2,65.9v-9.3h2.7c0.7,0,1.2,0.1,1.5,0.3c0.3,0.2,0.6,0.5,0.7,0.9c0.2,0.4,0.3,0.9,0.3,1.5c0,0.7-0.1,1.3-0.4,1.7
		s-0.7,0.7-1.3,0.9c0.3,0.2,0.5,0.5,0.7,0.8c0.2,0.3,0.4,0.8,0.7,1.5l0.8,1.8h-1.5l-0.9-2c-0.3-0.7-0.6-1.2-0.7-1.4
		c-0.1-0.2-0.3-0.3-0.4-0.4C80.3,62,80,62,79.7,62h-0.3v3.9H78.2z M79.5,60.5h1c0.6,0,1,0,1.2-0.1c0.2-0.1,0.3-0.2,0.4-0.4
		s0.1-0.4,0.1-0.7c0-0.3-0.1-0.6-0.2-0.8c-0.1-0.2-0.3-0.3-0.5-0.4c-0.1,0-0.4,0-0.9,0h-1V60.5z"/>
	<path d="M84.6,65.9v-9.3h2.7c0.7,0,1.2,0.1,1.5,0.3c0.3,0.2,0.6,0.5,0.7,0.9c0.2,0.4,0.3,0.9,0.3,1.5c0,0.7-0.1,1.3-0.4,1.7
		c-0.3,0.5-0.7,0.7-1.3,0.9c0.3,0.2,0.5,0.5,0.7,0.8c0.2,0.3,0.4,0.8,0.7,1.5l0.8,1.8h-1.5l-0.9-2c-0.3-0.7-0.6-1.2-0.7-1.4
		c-0.1-0.2-0.3-0.3-0.4-0.4C86.7,62,86.5,62,86.2,62h-0.3v3.9H84.6z M85.9,60.5h1c0.6,0,1,0,1.2-0.1c0.2-0.1,0.3-0.2,0.4-0.4
		c0.1-0.2,0.1-0.4,0.1-0.7c0-0.3-0.1-0.6-0.2-0.8c-0.1-0.2-0.3-0.3-0.5-0.4c-0.1,0-0.4,0-0.9,0h-1V60.5z"/>
	<path d="M96.8,65.9h-1.4l-0.6-2.1h-2.6l-0.5,2.1h-1.4l2.5-9.3h1.4L96.8,65.9z M94.5,62.2l-0.9-3.4l-0.9,3.4H94.5z"/>
	<path d="M97.5,65.9v-9.3h1.9l1.2,6.3l1.1-6.3h1.9v9.3h-1.2v-7.3l-1.3,7.3H100l-1.3-7.3v7.3H97.5z"/>
	<path d="M104.9,65.9v-9.3h1.3v9.3H104.9z"/>
	<path d="M107.4,65.9v-9.3h4.7v1.6h-3.4v2.1h3.2v1.6h-3.2v2.5h3.6v1.6H107.4z"/>
	<path d="M113.4,65.9v-9.3h1.3l2.6,6.2v-6.2h1.2v9.3h-1.3l-2.6-6.1v6.1H113.4z"/>
	<path d="M121.3,65.9v-7.7h-1.9v-1.6h5.1v1.6h-1.9v7.7H121.3z"/>
	<path d="M130.4,65.9H129l-0.6-2.1h-2.6l-0.5,2.1H124l2.5-9.3h1.4L130.4,65.9z M128,62.2l-0.9-3.4l-0.9,3.4H128z"/>
	<path d="M133.2,65.9v-9.2h1.3v7.6h3.2v1.6H133.2z"/>
	<path d="M138.7,65.9v-9.3h2.1c0.8,0,1.3,0,1.5,0.1c0.4,0.1,0.7,0.4,0.9,0.9c0.2,0.5,0.4,1.1,0.4,1.8c0,0.6-0.1,1-0.2,1.4
		c-0.1,0.4-0.3,0.7-0.5,0.9c-0.2,0.2-0.4,0.4-0.7,0.4c-0.3,0.1-0.8,0.1-1.3,0.1h-0.8v3.5H138.7z M139.9,58.2v2.6h0.7
		c0.5,0,0.8,0,1-0.1c0.2-0.1,0.3-0.2,0.4-0.5c0.1-0.2,0.1-0.4,0.1-0.7c0-0.3-0.1-0.6-0.2-0.8c-0.1-0.2-0.3-0.4-0.5-0.4
		c-0.2,0-0.5-0.1-0.9-0.1H139.9z"/>
	<path d="M144.6,65.9v-9.3h2.1c0.8,0,1.3,0,1.5,0.1c0.4,0.1,0.7,0.4,0.9,0.9c0.2,0.5,0.4,1.1,0.4,1.8c0,0.6-0.1,1-0.2,1.4
		c-0.1,0.4-0.3,0.7-0.5,0.9c-0.2,0.2-0.4,0.4-0.7,0.4c-0.3,0.1-0.8,0.1-1.3,0.1h-0.8v3.5H144.6z M145.9,58.2v2.6h0.7
		c0.5,0,0.8,0,1-0.1c0.2-0.1,0.3-0.2,0.4-0.5c0.1-0.2,0.1-0.4,0.1-0.7c0-0.3-0.1-0.6-0.2-0.8c-0.1-0.2-0.3-0.4-0.5-0.4
		c-0.2,0-0.5-0.1-0.9-0.1H145.9z"/>
</g>
</svg>
