<?xml version="1.0" encoding="utf-8"?>
<!-- Generator: Adobe Illustrator 21.1.0, SVG Export Plug-In . SVG Version: 6.00 Build 0)  -->
<svg version="1.1" id="Capa_1" xmlns="http://www.w3.org/2000/svg" xmlns:xlink="http://www.w3.org/1999/xlink" x="0px" y="0px"
	 viewBox="0 0 154.9 74.3" style="enable-background:new 0 0 154.9 74.3;" xml:space="preserve">
<style type="text/css">
	.st0{opacity:0.7;fill:#FFFFFF;enable-background:new    ;}
	.st1{fill:#FEFEFE;}
</style>
<rect id="XMLID_282_" class="st0" width="154.9" height="74.3"/>
<rect id="XMLID_265_" width="154.9" height="48.2"/>
<path id="XMLID_292_" class="st1" d="M88.6,29.5c-1.2,0-1.9,1-1.9,1.9v2.9H68.4v-2.9c0-1-1-1.9-2-1.9c-1.2,0-1.9,1-1.9,1.9v4.9
	c0,1.2,0.8,1.9,1.9,1.9h22.2c1,0,1.7-0.8,1.7-1.9v-4.9C90.4,30.5,89.6,29.5,88.6,29.5L88.6,29.5z M77,31.7c0.2,0.2,0.8,0.2,1.2,0
	l6.6-6.8c0.2-0.2,0.2-0.4,0.2-0.8c-0.2-0.2-0.4-0.4-0.6-0.4h-3.3V11.4c0-1-0.6-1.6-1.4-1.6h-4.3c-1,0-1.6,0.6-1.6,1.6v12.3h-3.1
	c-0.4,0-0.6,0.2-0.8,0.4c0,0.4,0,0.6,0.2,0.8L77,31.7z"/>
<g>
	<path d="M3.4,57H6c0.7,0,1.1,0.1,1.5,0.2c0.3,0.1,0.6,0.4,0.9,0.7c0.3,0.3,0.5,0.8,0.7,1.4c0.2,0.6,0.2,1.2,0.2,2.1
		c0,0.7-0.1,1.4-0.3,1.9c-0.2,0.5-0.4,1-0.6,1.3c-0.3,0.3-0.6,0.6-0.9,0.7c-0.4,0.2-0.8,0.2-1.4,0.2H3.4V57z M4.8,58.4v5.7h1.1
		c0.5,0,0.8,0,1-0.1s0.4-0.2,0.5-0.4s0.2-0.4,0.3-0.8c0.1-0.4,0.1-0.9,0.1-1.5c0-0.6,0-1.1-0.1-1.5c-0.1-0.4-0.2-0.7-0.4-0.9
		s-0.4-0.3-0.7-0.4c-0.2-0.1-0.6-0.1-1.2-0.1H4.8z"/>
	<path d="M10.5,65.5V57h5.2v1.5H12v1.9h3.5v1.4H12v2.3h3.9v1.5H10.5z"/>
	<path d="M16.7,62.7l1.4-0.2c0.2,1.1,0.7,1.6,1.5,1.6c0.4,0,0.8-0.1,1-0.3c0.2-0.2,0.4-0.5,0.4-0.8c0-0.2,0-0.4-0.1-0.5
		c-0.1-0.1-0.2-0.2-0.4-0.3s-0.6-0.2-1.3-0.4c-0.6-0.2-1-0.4-1.3-0.6s-0.5-0.5-0.7-0.8S17,59.6,17,59.2c0-0.5,0.1-0.9,0.3-1.3
		c0.2-0.4,0.5-0.7,0.9-0.8s0.8-0.3,1.4-0.3c0.8,0,1.5,0.2,1.9,0.7s0.7,1.1,0.7,1.9l-1.4,0.1c-0.1-0.5-0.2-0.8-0.4-1
		s-0.5-0.3-0.9-0.3s-0.7,0.1-0.9,0.2c-0.2,0.2-0.3,0.4-0.3,0.6c0,0.2,0.1,0.4,0.3,0.6c0.2,0.2,0.6,0.3,1.3,0.5
		c0.7,0.2,1.2,0.4,1.5,0.7c0.3,0.2,0.6,0.5,0.7,0.9s0.3,0.8,0.3,1.3c0,0.7-0.2,1.4-0.7,1.9s-1.2,0.8-2.2,0.8
		C17.9,65.7,16.9,64.7,16.7,62.7z"/>
	<path d="M28.2,62.4l1.4,0.5c-0.2,1-0.6,1.7-1.1,2.1s-1.1,0.7-1.8,0.7c-0.9,0-1.7-0.4-2.2-1.1c-0.7-0.8-1-1.9-1-3.3
		c0-1.5,0.3-2.6,1-3.4c0.6-0.7,1.3-1.1,2.3-1.1c0.8,0,1.5,0.3,2,0.8c0.4,0.4,0.7,1,0.8,1.7l-1.4,0.4c-0.1-0.5-0.3-0.8-0.5-1.1
		s-0.6-0.4-0.9-0.4c-0.5,0-0.9,0.2-1.3,0.7s-0.5,1.2-0.5,2.2c0,1.1,0.2,1.9,0.5,2.3s0.7,0.7,1.2,0.7c0.4,0,0.7-0.1,1-0.4
		S28.1,63,28.2,62.4z"/>
	<path d="M37.1,65.5h-1.5L35,63.6h-2.8l-0.6,1.9H30l2.7-8.6h1.5L37.1,65.5z M34.5,62.1l-1-3.2l-1,3.2H34.5z"/>
	<path d="M37.9,65.5V57h3c0.8,0,1.3,0.1,1.6,0.2s0.6,0.4,0.8,0.8s0.3,0.8,0.3,1.4c0,0.7-0.2,1.2-0.5,1.6s-0.8,0.7-1.4,0.8
		c0.3,0.2,0.6,0.5,0.8,0.7s0.5,0.7,0.8,1.4l0.9,1.7h-1.7l-1-1.9c-0.4-0.7-0.6-1.1-0.8-1.3s-0.3-0.3-0.4-0.4S39.9,62,39.6,62h-0.3
		v3.6H37.9z M39.3,60.6h1.1c0.6,0,1.1,0,1.2-0.1s0.3-0.2,0.4-0.3s0.2-0.4,0.2-0.7c0-0.3-0.1-0.5-0.2-0.7s-0.3-0.3-0.4-0.3
		c-0.1,0-0.5-0.1-1.2-0.1h-1.1V60.6z"/>
	<path d="M48.2,62.4v-1.5h3.1v3.4C51,64.7,50.6,65,50,65.3s-1.1,0.4-1.7,0.4c-0.7,0-1.3-0.2-1.8-0.5s-1-0.9-1.3-1.5
		s-0.5-1.5-0.5-2.4c0-0.9,0.2-1.8,0.5-2.4s0.7-1.2,1.2-1.5s1.1-0.5,1.8-0.5c0.8,0,1.5,0.2,2,0.6s0.8,1.1,1,1.9l-1.4,0.3
		c-0.1-0.4-0.3-0.8-0.6-1s-0.6-0.4-1-0.4c-0.6,0-1.1,0.2-1.5,0.7s-0.6,1.2-0.6,2.2c0,1,0.2,1.8,0.6,2.4c0.3,0.5,0.8,0.7,1.4,0.7
		c0.3,0,0.6-0.1,0.9-0.2c0.3-0.1,0.6-0.3,0.8-0.5v-1.1H48.2z"/>
	<path d="M59,65.5h-1.5l-0.6-1.9H54l-0.6,1.9h-1.5l2.7-8.6h1.5L59,65.5z M56.4,62.1l-1-3.2l-1,3.2H56.4z"/>
	<path d="M59.7,65.5V57h3c0.8,0,1.3,0.1,1.6,0.2s0.6,0.4,0.8,0.8s0.3,0.8,0.3,1.4c0,0.7-0.2,1.2-0.5,1.6s-0.8,0.7-1.4,0.8
		c0.3,0.2,0.6,0.5,0.8,0.7s0.5,0.7,0.8,1.4l0.9,1.7h-1.7l-1-1.9c-0.4-0.7-0.6-1.1-0.8-1.3s-0.3-0.3-0.4-0.4S61.8,62,61.4,62h-0.3
		v3.6H59.7z M61.1,60.6h1.1c0.6,0,1.1,0,1.2-0.1s0.3-0.2,0.4-0.3s0.2-0.4,0.2-0.7c0-0.3-0.1-0.5-0.2-0.7s-0.3-0.3-0.4-0.3
		c-0.1,0-0.5-0.1-1.2-0.1h-1.1V60.6z"/>
	<path d="M71.4,65.5L68.8,57h1.5l1.8,6.4l1.7-6.4h1.5l-2.5,8.6H71.4z"/>
	<path d="M76.1,65.5V57h1.4v8.6H76.1z"/>
	<path d="M78.9,57h2.6c0.7,0,1.1,0.1,1.5,0.2s0.6,0.4,0.9,0.7s0.5,0.8,0.7,1.4c0.2,0.6,0.2,1.2,0.2,2.1c0,0.7-0.1,1.4-0.3,1.9
		c-0.2,0.5-0.4,1-0.6,1.3s-0.6,0.6-0.9,0.7s-0.8,0.2-1.4,0.2h-2.7V57z M80.3,58.4v5.7h1.1c0.5,0,0.8,0,1-0.1s0.4-0.2,0.5-0.4
		s0.2-0.4,0.3-0.8c0.1-0.4,0.1-0.9,0.1-1.5c0-0.6,0-1.1-0.1-1.5c-0.1-0.4-0.2-0.7-0.4-0.9s-0.4-0.3-0.7-0.4
		c-0.2-0.1-0.6-0.1-1.2-0.1H80.3z"/>
	<path d="M86,65.5V57h5.2v1.5h-3.8v1.9h3.5v1.4h-3.5v2.3h3.9v1.5H86z"/>
	<path d="M92.2,61.3c0-1,0.2-1.9,0.5-2.5s0.7-1.2,1.2-1.5s1.1-0.5,1.8-0.5c1,0,1.8,0.4,2.5,1.2s1,1.9,1,3.3c0,1.4-0.3,2.6-1,3.4
		c-0.6,0.7-1.4,1.1-2.4,1.1c-1,0-1.8-0.4-2.4-1.1C92.6,63.8,92.2,62.7,92.2,61.3z M93.7,61.2c0,1,0.2,1.7,0.6,2.2
		c0.4,0.5,0.8,0.7,1.4,0.7c0.6,0,1-0.2,1.4-0.7c0.4-0.5,0.6-1.2,0.6-2.3c0-1-0.2-1.7-0.5-2.2c-0.4-0.5-0.8-0.7-1.4-0.7
		s-1,0.2-1.4,0.7C93.9,59.5,93.7,60.2,93.7,61.2z"/>
	<path d="M104.5,65.5v-7.1h-2.1V57h5.6v1.5h-2.1v7.1H104.5z"/>
	<path d="M108.9,57h1.4v4.7c0,0.7,0,1.2,0.1,1.4c0.1,0.4,0.2,0.7,0.4,0.9c0.2,0.2,0.5,0.3,0.9,0.3c0.3,0,0.6-0.1,0.8-0.2
		c0.2-0.1,0.3-0.3,0.4-0.6s0.1-0.8,0.1-1.7V57h1.4v4.5c0,1.2-0.1,2-0.2,2.5s-0.4,0.9-0.8,1.2s-1,0.5-1.7,0.5c-0.7,0-1.3-0.1-1.7-0.4
		s-0.7-0.6-0.9-1.1s-0.3-1.4-0.3-2.6V57z"/>
	<path d="M117.6,65.5v-7.1h-2.1V57h5.6v1.5H119v7.1H117.6z"/>
	<path d="M121.6,61.3c0-1,0.2-1.9,0.5-2.5s0.7-1.2,1.2-1.5s1.1-0.5,1.8-0.5c1,0,1.8,0.4,2.5,1.2s1,1.9,1,3.3c0,1.4-0.3,2.6-1,3.4
		c-0.6,0.7-1.4,1.1-2.4,1.1c-1,0-1.8-0.4-2.4-1.1C121.9,63.8,121.6,62.7,121.6,61.3z M123.1,61.2c0,1,0.2,1.7,0.6,2.2
		c0.4,0.5,0.8,0.7,1.4,0.7c0.6,0,1-0.2,1.4-0.7c0.4-0.5,0.6-1.2,0.6-2.3c0-1-0.2-1.7-0.5-2.2c-0.4-0.5-0.8-0.7-1.4-0.7
		s-1.1,0.2-1.4,0.7C123.2,59.5,123.1,60.2,123.1,61.2z"/>
	<path d="M129.5,65.5V57h3c0.8,0,1.3,0.1,1.6,0.2s0.6,0.4,0.8,0.8s0.3,0.8,0.3,1.4c0,0.7-0.2,1.2-0.5,1.6s-0.8,0.7-1.4,0.8
		c0.3,0.2,0.6,0.5,0.8,0.7s0.5,0.7,0.8,1.4l0.9,1.7h-1.7l-1-1.9c-0.4-0.7-0.6-1.1-0.8-1.3s-0.3-0.3-0.4-0.4s-0.4-0.1-0.7-0.1H131
		v3.6H129.5z M131,60.6h1.1c0.6,0,1.1,0,1.2-0.1s0.3-0.2,0.4-0.3s0.2-0.4,0.2-0.7c0-0.3-0.1-0.5-0.2-0.7s-0.3-0.3-0.4-0.3
		c-0.1,0-0.5-0.1-1.2-0.1H131V60.6z"/>
	<path d="M136.6,65.5V57h1.4v8.6H136.6z"/>
	<path d="M145.7,65.5h-1.5l-0.6-1.9h-2.8l-0.6,1.9h-1.5l2.7-8.6h1.5L145.7,65.5z M143.1,62.1l-1-3.2l-1,3.2H143.1z"/>
	<path d="M146.5,65.5V57h1.4v7.1h3.5v1.5H146.5z"/>
</g>
</svg>
