<?xml version="1.0" encoding="utf-8"?>
<!-- Generator: Adobe Illustrator 21.1.0, SVG Export Plug-In . SVG Version: 6.00 Build 0)  -->
<svg version="1.1" id="Capa_1" xmlns="http://www.w3.org/2000/svg" xmlns:xlink="http://www.w3.org/1999/xlink" x="0px" y="0px"
	 viewBox="0 0 478.4 153.2" style="enable-background:new 0 0 478.4 153.2;" xml:space="preserve">
<style type="text/css">
	.st0{opacity:0.7;fill:#FFFFFF;enable-background:new    ;}
	.st1{fill:#FFFFFF;}
</style>
<rect id="XMLID_578_" class="st0" width="478.4" height="103.2"/>
<path id="XMLID_68_" d="M52.1,78.1c-0.9,1.6-2,3.2-3.4,4.5c-4,4-8.8,5.9-14.3,5.9c-5.4,0-10.1-2-14-5.9c-1.4-1.4-2.6-3-3.5-4.6H0
	v25.1h478.4V78H52.1V78.1z"/>
<g id="XMLID_18_">
	<g id="XMLID_138_">
		<path id="XMLID_140_" class="st1" d="M62.9,86.8c0.3,0,0.6,0,0.9,0.1s0.5,0.1,0.7,0.3c0.2,0.1,0.3,0.3,0.4,0.5s0.2,0.5,0.2,0.8
			s-0.1,0.6-0.2,0.8c-0.2,0.2-0.4,0.4-0.7,0.5c0.4,0.1,0.7,0.3,0.9,0.6c0.2,0.3,0.3,0.6,0.3,1.1c0,0.3-0.1,0.6-0.2,0.9
			c-0.1,0.2-0.3,0.4-0.5,0.6c-0.2,0.2-0.5,0.3-0.8,0.3c-0.3,0.1-0.6,0.1-0.9,0.1h-3.2v-6.6L62.9,86.8L62.9,86.8z M62.7,89.5
			c0.3,0,0.5-0.1,0.6-0.2c0.2-0.1,0.3-0.3,0.3-0.6c0-0.2,0-0.3-0.1-0.4c-0.1-0.1-0.1-0.2-0.2-0.2C63.2,88,63.1,88,63,88
			s-0.2,0-0.4,0h-1.4v1.5H62.7z M62.8,92.3c0.1,0,0.3,0,0.4,0c0.1,0,0.2-0.1,0.3-0.1c0.1-0.1,0.2-0.2,0.2-0.3
			c0.1-0.1,0.1-0.3,0.1-0.4c0-0.3-0.1-0.6-0.3-0.7c-0.2-0.1-0.4-0.2-0.8-0.2h-1.6v1.8h1.7V92.3z"/>
		<polygon id="XMLID_139_" class="st1" points="65.6,86.8 67.2,86.8 68.8,89.4 70.3,86.8 71.9,86.8 69.5,90.9 69.5,93.4 68,93.4 
			68,90.8 		"/>
	</g>
	<g id="XMLID_92_">
		<path id="XMLID_137_" class="st1" d="M112.9,91.8c0.1,0.2,0.2,0.3,0.3,0.4c0.1,0.1,0.3,0.2,0.5,0.2s0.4,0.1,0.6,0.1
			c0.1,0,0.3,0,0.4,0s0.3-0.1,0.4-0.1c0.1-0.1,0.2-0.1,0.3-0.3c0.1-0.1,0.1-0.2,0.1-0.4s-0.1-0.3-0.2-0.4c-0.1-0.1-0.3-0.2-0.4-0.3
			c-0.2-0.1-0.4-0.1-0.6-0.2c-0.2-0.1-0.5-0.1-0.7-0.2c-0.2-0.1-0.5-0.1-0.7-0.2c-0.2-0.1-0.4-0.2-0.6-0.3s-0.3-0.3-0.4-0.5
			s-0.2-0.5-0.2-0.8s0.1-0.6,0.2-0.9c0.1-0.3,0.3-0.5,0.6-0.6c0.2-0.2,0.5-0.3,0.8-0.4c0.3-0.1,0.6-0.1,0.9-0.1s0.7,0,1,0.1
			s0.6,0.2,0.8,0.4c0.2,0.2,0.4,0.4,0.6,0.7c0.1,0.3,0.2,0.6,0.2,1h-1.4c0-0.2-0.1-0.4-0.1-0.5c-0.1-0.1-0.2-0.2-0.3-0.3
			c-0.1-0.1-0.3-0.1-0.4-0.2c-0.2,0-0.3,0-0.5,0c-0.1,0-0.2,0-0.4,0c-0.1,0-0.2,0.1-0.3,0.1c-0.1,0.1-0.2,0.1-0.2,0.2
			c-0.1,0.1-0.1,0.2-0.1,0.4c0,0.1,0,0.2,0.1,0.3c0,0.1,0.1,0.2,0.3,0.2c0.1,0.1,0.3,0.1,0.6,0.2c0.3,0.1,0.6,0.2,1,0.3
			c0.1,0,0.3,0.1,0.5,0.1c0.2,0.1,0.4,0.2,0.7,0.3c0.2,0.1,0.4,0.3,0.6,0.6c0.2,0.2,0.2,0.5,0.2,0.9c0,0.3-0.1,0.6-0.2,0.8
			c-0.1,0.3-0.3,0.5-0.5,0.7s-0.5,0.3-0.9,0.4c-0.3,0.1-0.7,0.2-1.2,0.2c-0.4,0-0.7,0-1.1-0.1c-0.3-0.1-0.6-0.2-0.9-0.4
			s-0.5-0.4-0.6-0.7c-0.2-0.3-0.2-0.6-0.2-1.1h1.4C112.8,91.4,112.9,91.6,112.9,91.8z"/>
		<path id="XMLID_93_" class="st1" d="M121.1,86.8l2.5,6.6h-1.5l-0.5-1.5h-2.5l-0.5,1.5h-1.5l2.5-6.6H121.1z M121.2,90.9l-0.8-2.4
			l0,0l-0.9,2.4H121.2z"/>
	</g>
	<g id="XMLID_89_">
		<polygon id="XMLID_91_" class="st1" points="87,86.8 89.8,91.2 89.8,91.2 89.8,86.8 91.2,86.8 91.2,93.4 89.7,93.4 86.9,89 
			86.9,89 86.9,93.4 85.6,93.4 85.6,86.8 		"/>
		<path id="XMLID_90_" class="st1" d="M96.7,88.6c-0.1-0.1-0.2-0.3-0.3-0.4C96.3,88.1,96.1,88,96,88c-0.2-0.1-0.3-0.1-0.5-0.1
			c-0.3,0-0.6,0.1-0.8,0.2c-0.2,0.1-0.4,0.3-0.6,0.5c-0.1,0.2-0.2,0.5-0.3,0.7c-0.1,0.3-0.1,0.6-0.1,0.8c0,0.3,0,0.5,0.1,0.8
			s0.2,0.5,0.3,0.7c0.1,0.2,0.3,0.4,0.6,0.5c0.2,0.1,0.5,0.2,0.8,0.2c0.4,0,0.8-0.1,1-0.4c0.3-0.3,0.4-0.6,0.5-1.1h1.4
			c0,0.4-0.1,0.8-0.3,1.1c-0.2,0.3-0.4,0.6-0.6,0.9c-0.3,0.2-0.5,0.4-0.9,0.5c-0.3,0.1-0.7,0.2-1.1,0.2c-0.5,0-1-0.1-1.4-0.3
			s-0.7-0.4-1-0.7s-0.5-0.7-0.6-1.1c-0.1-0.4-0.2-0.9-0.2-1.4s0.1-1,0.2-1.4s0.4-0.8,0.6-1.1s0.6-0.6,1-0.7c0.4-0.2,0.9-0.3,1.4-0.3
			c0.4,0,0.7,0.1,1,0.2c0.3,0.1,0.6,0.3,0.9,0.5s0.5,0.4,0.6,0.7c0.2,0.3,0.3,0.6,0.3,1h-1.4C96.8,88.9,96.8,88.7,96.7,88.6z"/>
	</g>
</g>
<g id="XMLID_65_">
	<path id="XMLID_53_" d="M31.4,33.3c-1.3-2.3-3.5-3.3-6-3.3c-3.7,0-6.7,2.6-6.7,7.1s2.8,7.1,6.8,7.1c2.6,0,4.8-1.4,6-3.6l-2.8-1.4
		c-0.6,1.5-1.5,1.9-2.8,1.9c-2.1,0-3.1-1.8-3.1-4c0-2.3,0.8-4,3.1-4c0.6,0,1.8,0.4,2.6,1.8L31.4,33.3z"/>
	<path id="XMLID_95_" d="M38.6,33c2.2,0,3.2,1.8,3.2,3.9c0,2.4-0.9,4.2-3.2,4.2c-2.3,0-3.2-1.8-3.2-4C35.4,34.7,36.5,33,38.6,33z
		 M38.6,29.9c-4.2,0-7.2,2.6-7.2,7.1s3,7.1,7.2,7.1s7.2-2.6,7.2-7.1S42.9,29.9,38.6,29.9z"/>
	<path id="XMLID_50_" d="M46.6,43.7h4v-8.4c0-1.2,0.5-2.2,2.1-2.2c1.5,0,1.9,0.9,1.9,2.2v8.4h4v-8.2c0-1.4,0.6-2.3,2.1-2.3
		c1.5,0,2.1,0.9,2.1,2.7v7.9h4V33.4c0-3.1-2.8-3.6-4.1-3.6c-1.5,0-3.1,0.5-4.4,1.8c-0.9-1.2-2.1-1.8-3.6-1.8c-1.2,0-2.8,0.4-3.9,1.5
		v-1.2h-4v13.5H46.6z"/>
	<path id="XMLID_49_" d="M67.7,43.7h4v-8.4c0-1.2,0.5-2.2,2.1-2.2c1.5,0,1.9,0.9,1.9,2.2v8.4h4v-8.2c0-1.4,0.6-2.3,2.1-2.3
		c1.5,0,2.1,0.9,2.1,2.7v7.9h4V33.4c0-3.1-2.8-3.6-4.1-3.6c-1.5,0-3.1,0.5-4.4,1.8c-0.9-1.2-2.1-1.8-3.6-1.8c-1.2,0-2.8,0.4-3.9,1.5
		v-1.2h-4v13.5H67.7z"/>
	<path id="XMLID_73_" d="M95.7,33c2.2,0,3.2,1.8,3.2,3.9c0,2.4-0.9,4.2-3.2,4.2c-2.2,0-3.2-1.8-3.2-4C92.4,34.7,93.3,33,95.7,33z
		 M95.7,29.9c-4.2,0-7.2,2.6-7.2,7.1s3,7.1,7.2,7.1s7.2-2.6,7.2-7.1C102.7,32.5,99.8,29.9,95.7,29.9z"/>
	<path id="XMLID_46_" d="M103.8,43.7h4v-8.4c0-1.2,0.5-2.2,2.1-2.2c1.5,0,1.9,0.9,1.9,2.2v8.4h4v-9.9c0-2.1-0.9-3.9-4.1-3.9
		c-1.2,0-2.8,0.4-3.9,1.5v-1.2h-4L103.8,43.7L103.8,43.7z"/>
	<path id="XMLID_44_" d="M128.9,31.9c-1.8-1.2-3.9-1.9-5.9-1.9c-2.7,0-5.7,1.3-5.7,4.8c0,4.8,8,3.1,8,5.1c0,1.2-1.5,1.4-2.2,1.4
		c-1.8,0-3.1-0.8-4.2-1.9l-2.4,2.1c1.9,1.8,3.6,2.7,6.6,2.7s6-1.3,6-4.8c0-5-8-3.1-8-5.4c0-0.6,0.6-1,1.7-1c1.3,0,3,0.5,3.7,1.4
		L128.9,31.9z"/>
	<path id="XMLID_40_" d="M31.4,17.8c-1.3-2.3-3.5-3.3-6-3.3c-3.7,0-6.7,2.6-6.7,7.1s2.8,7.1,6.8,7.1c2.6,0,4.8-1.4,6-3.6l-2.8-1.4
		c-0.6,1.5-1.5,1.9-2.8,1.9c-2.1,0-3.1-1.8-3.1-4c0-2.3,0.8-4,3.1-4c0.6,0,1.8,0.4,2.6,1.8L31.4,17.8z"/>
	<path id="XMLID_39_" d="M32.5,28.3h4v-7.7c0-1.5,0.9-1.9,3.3-2.2h0.4v-3.5c-1.4,0.1-2.8,0.6-3.7,1.4v-1.4h-4L32.5,28.3L32.5,28.3z"
		/>
	<path id="XMLID_66_" d="M53.5,22.3c0-4.1-1.7-7.9-6.6-7.9c-4.1,0-6.6,2.7-6.6,7.5c0,3.7,2.4,6.7,6.6,6.7c3,0,5.1-1.2,6.6-3.7
		l-3-1.5c-1.2,1.7-1.8,2.3-3.3,2.3c-1.3,0-3-0.8-3-3.3C44.2,22.3,53.5,22.3,53.5,22.3z M44.2,19.9c0.1-1.8,1.5-2.6,2.7-2.6
		c1.2,0,2.6,0.6,2.7,2.6H44.2z"/>
	<path id="XMLID_63_" d="M62.5,22.7c0,2.1-1.2,3.1-2.7,3.1c-0.9,0-1.8-0.5-1.8-1.5c0-1,0.9-1.4,1.9-1.8l2.7-0.8v1H62.5z M66.3,18.4
		c0-3.1-2.3-3.9-6-3.9c-1.8,0-5.4,0.4-5.5,4.2h3.7c0.3-1.3,0.8-1.8,2.1-1.8c1,0,1.9,0.4,1.9,1.4v1.2L61,19.8c-4.2,0.6-7,1.8-7,5
		c0,2.6,1.9,4,4.5,4c1.4,0,3.3-0.6,4-1.8l0,0c0,0.5,0.1,0.9,0.3,1.4h3.6c-0.4-0.8-0.4-1.9-0.4-2.8v-7.2H66.3z"/>
	<path id="XMLID_34_" d="M75.6,15.1h-2.3v-3.9h-4v3.9h-1.9v2.4h1.9v7.1c0,1.9,0.5,4,3.9,4c0.9,0,2.1-0.1,2.6-0.1v-3.1
		c-0.3,0-0.8,0.1-1.2,0.1c-0.8,0-1.3-0.3-1.3-1.3v-6.6h2.3V15.1z"/>
	<path id="XMLID_59_" d="M77.1,14.9v13.4h4V14.9H77.1z M81,13.3v-3.1h-4v3.1H81z"/>
	<polygon id="XMLID_12_" points="86.3,28.3 90.3,28.3 94.9,14.9 90.6,14.9 88.3,24.4 88.3,24.4 86,14.9 81.8,14.9 	"/>
	<path id="XMLID_55_" d="M107.6,22.3c0-4.1-1.7-7.9-6.6-7.9c-4.1,0-6.6,2.7-6.6,7.5c0,3.7,2.4,6.7,6.6,6.7c3,0,5.1-1.2,6.6-3.7
		l-3-1.5c-1.2,1.7-1.8,2.3-3.3,2.3c-1.3,0-3-0.8-3-3.3C98.4,22.3,107.6,22.3,107.6,22.3z M98.4,19.9c0.1-1.8,1.5-2.6,2.7-2.6
		s2.6,0.6,2.7,2.6H98.4z"/>
</g>
<path id="XMLID_155_" class="st1" d="M48,68.6c0,7.5-6.1,13.6-13.6,13.6s-13.6-6.1-13.6-13.6l0,0c0-7.5,6.1-13.6,13.6-13.6
	S48,61.1,48,68.6L48,68.6z"/>
<path id="XMLID_150_" d="M45.5,57.5c3,3,4.5,6.7,4.5,11.1s-1.5,8-4.5,11c-3.2,3.1-6.9,4.7-11.2,4.7c-4.2,0-7.9-1.5-11-4.6
	c-3.1-3.1-4.6-6.8-4.6-11c0-4.3,1.5-8,4.6-11.1c3-3,6.7-4.5,11-4.5C38.7,53,42.4,54.5,45.5,57.5z M25.4,59.5
	c-2.6,2.6-3.8,5.6-3.8,9.1s1.3,6.5,3.8,9c2.5,2.5,5.5,3.8,9,3.8s6.5-1.3,9.1-3.8c2.5-2.4,3.7-5.4,3.7-9S46,62,43.5,59.5
	s-5.5-3.7-9.1-3.7C30.9,55.8,27.9,57,25.4,59.5z M32.1,67.1c-0.4-0.9-1-1.3-1.8-1.3c-1.4,0-2.1,0.9-2.1,2.8s0.7,2.8,2.1,2.8
	c0.9,0,1.6-0.5,2-1.4l1.9,1c-0.9,1.6-2.3,2.4-4.1,2.4c-1.4,0-2.5-0.4-3.4-1.3c-0.8-0.9-1.3-2.1-1.3-3.6s0.4-2.7,1.3-3.5
	c0.9-0.9,2-1.3,3.3-1.3c1.9,0,3.3,0.8,4.1,2.3L32.1,67.1z M41.1,67.1c-0.4-0.9-1-1.3-1.7-1.3c-1.4,0-2.1,0.9-2.1,2.8
	s0.7,2.8,2.1,2.8c0.9,0,1.6-0.5,1.9-1.4l2,1c-0.9,1.6-2.3,2.4-4.1,2.4c-1.4,0-2.5-0.4-3.4-1.3c-0.8-0.9-1.3-2.1-1.3-3.6
	s0.4-2.7,1.3-3.5c0.9-0.9,1.9-1.3,3.3-1.3c1.9,0,3.3,0.8,4.1,2.3L41.1,67.1z"/>
<g id="XMLID_119_">
	<circle id="XMLID_147_" class="st1" cx="65.3" cy="64.3" r="10.7"/>
	<g id="XMLID_144_">
		<path id="XMLID_146_" d="M68.4,61.2c0-0.4-0.3-0.7-0.7-0.7H63c-0.4,0-0.7,0.3-0.7,0.7v4.7h1.3v5.6H67v-5.6h1.3L68.4,61.2
			L68.4,61.2z"/>
		<circle id="XMLID_145_" cx="65.2" cy="58.2" r="1.6"/>
	</g>
	<path id="XMLID_120_" d="M65.2,52.5c-3.2,0-5.9,1.1-8.2,3.4s-3.4,5.1-3.4,8.2c0,3.2,1.1,5.9,3.4,8.2c2.3,2.3,5,3.4,8.2,3.4
		c3.2,0,6-1.1,8.3-3.4c2.2-2.2,3.3-4.9,3.3-8.1s-1.1-6-3.4-8.2C71.2,53.6,68.5,52.5,65.2,52.5z M65.3,54.5c2.6,0,4.9,0.9,6.7,2.8
		c1.9,1.8,2.8,4.1,2.8,6.7c0,2.7-0.9,4.9-2.7,6.6c-1.9,1.9-4.2,2.8-6.8,2.8c-2.6,0-4.8-0.9-6.7-2.8s-2.8-4.1-2.8-6.7
		s0.9-4.8,2.8-6.7C60.4,55.5,62.6,54.5,65.3,54.5z"/>
</g>
<path id="XMLID_88_" class="st1" d="M128.1,64c0,5.8-4.7,10.6-10.6,10.6c-5.8,0-10.6-4.7-10.6-10.6l0,0c0-5.8,4.7-10.6,10.6-10.6
	C123.3,53.4,128.1,58.2,128.1,64L128.1,64z"/>
<path id="XMLID_84_" d="M117.4,52.4c-3.2,0-5.9,1.1-8.2,3.4c-2.3,2.3-3.4,5.1-3.4,8.2c0,3.2,1.1,5.9,3.4,8.2c2.3,2.3,5,3.4,8.2,3.4
	s6-1.2,8.3-3.4c2.2-2.2,3.3-4.9,3.3-8.1s-1.1-6-3.4-8.2C123.4,53.6,120.7,52.4,117.4,52.4z M117.4,54.5c2.6,0,4.9,0.9,6.7,2.8
	c1.9,1.8,2.8,4.1,2.8,6.7c0,2.7-0.9,4.9-2.7,6.6c-1.9,1.9-4.2,2.8-6.8,2.8c-2.6,0-4.8-0.9-6.7-2.8c-1.9-1.9-2.8-4.1-2.8-6.7
	s0.9-4.8,2.8-6.7C112.6,55.5,114.8,54.5,117.4,54.5z"/>
<path id="XMLID_83_" d="M112.3,62.4c0.5-2.9,2.5-4.5,5.1-4.5c3.7,0,6,2.7,6,6.3c0,3.5-2.4,6.2-6,6.2c-2.5,0-4.7-1.5-5.1-4.5h2.9
	c0.1,1.6,1.1,2.1,2.5,2.1c1.6,0,2.7-1.5,2.7-3.9c0-2.5-0.9-3.8-2.7-3.8c-1.3,0-2.4,0.5-2.6,2.1h0.8l-2.3,2.3l-2.3-2.3L112.3,62.4z"
	/>
<path id="XMLID_80_" class="st1" d="M102.1,64c0,6-4.8,10.8-10.8,10.8S80.5,70,80.5,64l0,0c0-6,4.8-10.8,10.8-10.8
	C97.3,53.2,102.1,58.1,102.1,64L102.1,64z"/>
<path id="XMLID_23_" d="M91.3,52.4c3.3,0,6,1.1,8.2,3.4c2.2,2.2,3.4,5,3.4,8.2s-1.1,6-3.3,8.1c-2.3,2.3-5.1,3.4-8.3,3.4
	c-3.2,0-5.9-1.1-8.2-3.4c-2.3-2.3-3.4-5-3.4-8.2s1.1-5.9,3.4-8.2C85.4,53.6,88.1,52.4,91.3,52.4z M82.3,60.9c-0.3,1-0.5,2-0.5,3.1
	c0,2.6,0.9,4.8,2.8,6.7c1.9,1.9,4.1,2.8,6.7,2.8s4.8-0.9,6.8-2.8c0.6-0.6,1.2-1.3,1.6-2l-4.4-1.9c-0.3,1.5-1.6,2.5-3.2,2.6v1.8h-1.3
	v-1.8c-1.3,0-2.6-0.5-3.5-1.4l1.6-1.6c0.8,0.7,1.5,1,2.6,1c0.7,0,1.4-0.3,1.4-1.2c0-0.3-0.1-0.5-0.3-0.7L91.5,65l-1.4-0.6
	c-0.7-0.3-1.3-0.6-1.8-0.8L82.3,60.9z M91.3,54.5c-2.6,0-4.9,0.9-6.7,2.8c-0.5,0.5-0.9,1-1.3,1.6l4.4,2c0.4-1.2,1.6-2,3-2.1V57H92
	v1.8c0.9,0,1.9,0.3,2.9,1.1l-1.5,1.6c-0.6-0.4-1.3-0.7-2-0.7c-0.6,0-1.4,0.2-1.4,0.9c0,0.1,0,0.2,0.1,0.3l1.5,0.7l1,0.4
	c0.6,0.3,1.3,0.6,1.9,0.8l5.9,2.6c0.2-0.8,0.3-1.6,0.3-2.5c0-2.6-0.9-4.9-2.8-6.7C96.2,55.5,94,54.5,91.3,54.5z"/>
</svg>
